<?xml version="1.0" encoding="utf-8" standalone="no"?>
<!DOCTYPE svg PUBLIC "-//W3C//DTD SVG 1.1//EN"
  "http://www.w3.org/Graphics/SVG/1.1/DTD/svg11.dtd">
<!-- Created with matplotlib (https://matplotlib.org/) -->
<svg height="180pt" version="1.1" viewBox="0 0 864 180" width="864pt" xmlns="http://www.w3.org/2000/svg" xmlns:xlink="http://www.w3.org/1999/xlink">
 <defs>
  <style type="text/css">
*{stroke-linecap:butt;stroke-linejoin:round;}
  </style>
 </defs>
 <g id="figure_1">
  <g id="patch_1">
   <path d="M 0 180 
L 864 180 
L 864 0 
L 0 0 
z
" style="fill:#ffffff;"/>
  </g>
  <g id="axes_1">
   <g id="patch_2">
    <path d="M 66.175 152.2 
L 814.825 152.2 
L 814.825 14.342205 
L 66.175 14.342205 
z
" style="fill:#e5e5e5;"/>
   </g>
   <g id="matplotlib.axis_1">
    <g id="xtick_1">
     <g id="line2d_1">
      <path clip-path="url(#p029be81bcf)" d="M 129.713561 152.2 
L 129.713561 14.342205 
" style="fill:none;stroke:#ffffff;stroke-linecap:square;stroke-width:0.8;"/>
     </g>
     <g id="line2d_2">
      <defs>
       <path d="M 0 0 
L 0 3.5 
" id="m02f3ccfa6b" style="stroke:#555555;stroke-width:0.8;"/>
      </defs>
      <g>
       <use style="fill:#555555;stroke:#555555;stroke-width:0.8;" x="129.713561" xlink:href="#m02f3ccfa6b" y="152.2"/>
      </g>
     </g>
     <g id="text_1">
      <!-- 2020-02 -->
      <defs>
       <path d="M 19.1875 8.296875 
L 53.609375 8.296875 
L 53.609375 0 
L 7.328125 0 
L 7.328125 8.296875 
Q 12.9375 14.109375 22.625 23.890625 
Q 32.328125 33.6875 34.8125 36.53125 
Q 39.546875 41.84375 41.421875 45.53125 
Q 43.3125 49.21875 43.3125 52.78125 
Q 43.3125 58.59375 39.234375 62.25 
Q 35.15625 65.921875 28.609375 65.921875 
Q 23.96875 65.921875 18.8125 64.3125 
Q 13.671875 62.703125 7.8125 59.421875 
L 7.8125 69.390625 
Q 13.765625 71.78125 18.9375 73 
Q 24.125 74.21875 28.421875 74.21875 
Q 39.75 74.21875 46.484375 68.546875 
Q 53.21875 62.890625 53.21875 53.421875 
Q 53.21875 48.921875 51.53125 44.890625 
Q 49.859375 40.875 45.40625 35.40625 
Q 44.1875 33.984375 37.640625 27.21875 
Q 31.109375 20.453125 19.1875 8.296875 
z
" id="DejaVuSans-50"/>
       <path d="M 31.78125 66.40625 
Q 24.171875 66.40625 20.328125 58.90625 
Q 16.5 51.421875 16.5 36.375 
Q 16.5 21.390625 20.328125 13.890625 
Q 24.171875 6.390625 31.78125 6.390625 
Q 39.453125 6.390625 43.28125 13.890625 
Q 47.125 21.390625 47.125 36.375 
Q 47.125 51.421875 43.28125 58.90625 
Q 39.453125 66.40625 31.78125 66.40625 
z
M 31.78125 74.21875 
Q 44.046875 74.21875 50.515625 64.515625 
Q 56.984375 54.828125 56.984375 36.375 
Q 56.984375 17.96875 50.515625 8.265625 
Q 44.046875 -1.421875 31.78125 -1.421875 
Q 19.53125 -1.421875 13.0625 8.265625 
Q 6.59375 17.96875 6.59375 36.375 
Q 6.59375 54.828125 13.0625 64.515625 
Q 19.53125 74.21875 31.78125 74.21875 
z
" id="DejaVuSans-48"/>
       <path d="M 4.890625 31.390625 
L 31.203125 31.390625 
L 31.203125 23.390625 
L 4.890625 23.390625 
z
" id="DejaVuSans-45"/>
      </defs>
      <g style="fill:#555555;" transform="translate(108.822155 166.798438)scale(0.1 -0.1)">
       <use xlink:href="#DejaVuSans-50"/>
       <use x="63.623047" xlink:href="#DejaVuSans-48"/>
       <use x="127.246094" xlink:href="#DejaVuSans-50"/>
       <use x="190.869141" xlink:href="#DejaVuSans-48"/>
       <use x="254.492188" xlink:href="#DejaVuSans-45"/>
       <use x="290.576172" xlink:href="#DejaVuSans-48"/>
       <use x="354.199219" xlink:href="#DejaVuSans-50"/>
      </g>
     </g>
    </g>
    <g id="xtick_2">
     <g id="line2d_3">
      <path clip-path="url(#p029be81bcf)" d="M 220.752013 152.2 
L 220.752013 14.342205 
" style="fill:none;stroke:#ffffff;stroke-linecap:square;stroke-width:0.8;"/>
     </g>
     <g id="line2d_4">
      <g>
       <use style="fill:#555555;stroke:#555555;stroke-width:0.8;" x="220.752013" xlink:href="#m02f3ccfa6b" y="152.2"/>
      </g>
     </g>
     <g id="text_2">
      <!-- 2020-03 -->
      <defs>
       <path d="M 40.578125 39.3125 
Q 47.65625 37.796875 51.625 33 
Q 55.609375 28.21875 55.609375 21.1875 
Q 55.609375 10.40625 48.1875 4.484375 
Q 40.765625 -1.421875 27.09375 -1.421875 
Q 22.515625 -1.421875 17.65625 -0.515625 
Q 12.796875 0.390625 7.625 2.203125 
L 7.625 11.71875 
Q 11.71875 9.328125 16.59375 8.109375 
Q 21.484375 6.890625 26.8125 6.890625 
Q 36.078125 6.890625 40.9375 10.546875 
Q 45.796875 14.203125 45.796875 21.1875 
Q 45.796875 27.640625 41.28125 31.265625 
Q 36.765625 34.90625 28.71875 34.90625 
L 20.21875 34.90625 
L 20.21875 43.015625 
L 29.109375 43.015625 
Q 36.375 43.015625 40.234375 45.921875 
Q 44.09375 48.828125 44.09375 54.296875 
Q 44.09375 59.90625 40.109375 62.90625 
Q 36.140625 65.921875 28.71875 65.921875 
Q 24.65625 65.921875 20.015625 65.03125 
Q 15.375 64.15625 9.8125 62.3125 
L 9.8125 71.09375 
Q 15.4375 72.65625 20.34375 73.4375 
Q 25.25 74.21875 29.59375 74.21875 
Q 40.828125 74.21875 47.359375 69.109375 
Q 53.90625 64.015625 53.90625 55.328125 
Q 53.90625 49.265625 50.4375 45.09375 
Q 46.96875 40.921875 40.578125 39.3125 
z
" id="DejaVuSans-51"/>
      </defs>
      <g style="fill:#555555;" transform="translate(199.860606 166.798438)scale(0.1 -0.1)">
       <use xlink:href="#DejaVuSans-50"/>
       <use x="63.623047" xlink:href="#DejaVuSans-48"/>
       <use x="127.246094" xlink:href="#DejaVuSans-50"/>
       <use x="190.869141" xlink:href="#DejaVuSans-48"/>
       <use x="254.492188" xlink:href="#DejaVuSans-45"/>
       <use x="290.576172" xlink:href="#DejaVuSans-48"/>
       <use x="354.199219" xlink:href="#DejaVuSans-51"/>
      </g>
     </g>
    </g>
    <g id="xtick_3">
     <g id="line2d_5">
      <path clip-path="url(#p029be81bcf)" d="M 318.068979 152.2 
L 318.068979 14.342205 
" style="fill:none;stroke:#ffffff;stroke-linecap:square;stroke-width:0.8;"/>
     </g>
     <g id="line2d_6">
      <g>
       <use style="fill:#555555;stroke:#555555;stroke-width:0.8;" x="318.068979" xlink:href="#m02f3ccfa6b" y="152.2"/>
      </g>
     </g>
     <g id="text_3">
      <!-- 2020-04 -->
      <defs>
       <path d="M 37.796875 64.3125 
L 12.890625 25.390625 
L 37.796875 25.390625 
z
M 35.203125 72.90625 
L 47.609375 72.90625 
L 47.609375 25.390625 
L 58.015625 25.390625 
L 58.015625 17.1875 
L 47.609375 17.1875 
L 47.609375 0 
L 37.796875 0 
L 37.796875 17.1875 
L 4.890625 17.1875 
L 4.890625 26.703125 
z
" id="DejaVuSans-52"/>
      </defs>
      <g style="fill:#555555;" transform="translate(297.177572 166.798438)scale(0.1 -0.1)">
       <use xlink:href="#DejaVuSans-50"/>
       <use x="63.623047" xlink:href="#DejaVuSans-48"/>
       <use x="127.246094" xlink:href="#DejaVuSans-50"/>
       <use x="190.869141" xlink:href="#DejaVuSans-48"/>
       <use x="254.492188" xlink:href="#DejaVuSans-45"/>
       <use x="290.576172" xlink:href="#DejaVuSans-48"/>
       <use x="354.199219" xlink:href="#DejaVuSans-52"/>
      </g>
     </g>
    </g>
    <g id="xtick_4">
     <g id="line2d_7">
      <path clip-path="url(#p029be81bcf)" d="M 412.246687 152.2 
L 412.246687 14.342205 
" style="fill:none;stroke:#ffffff;stroke-linecap:square;stroke-width:0.8;"/>
     </g>
     <g id="line2d_8">
      <g>
       <use style="fill:#555555;stroke:#555555;stroke-width:0.8;" x="412.246687" xlink:href="#m02f3ccfa6b" y="152.2"/>
      </g>
     </g>
     <g id="text_4">
      <!-- 2020-05 -->
      <defs>
       <path d="M 10.796875 72.90625 
L 49.515625 72.90625 
L 49.515625 64.59375 
L 19.828125 64.59375 
L 19.828125 46.734375 
Q 21.96875 47.46875 24.109375 47.828125 
Q 26.265625 48.1875 28.421875 48.1875 
Q 40.625 48.1875 47.75 41.5 
Q 54.890625 34.8125 54.890625 23.390625 
Q 54.890625 11.625 47.5625 5.09375 
Q 40.234375 -1.421875 26.90625 -1.421875 
Q 22.3125 -1.421875 17.546875 -0.640625 
Q 12.796875 0.140625 7.71875 1.703125 
L 7.71875 11.625 
Q 12.109375 9.234375 16.796875 8.0625 
Q 21.484375 6.890625 26.703125 6.890625 
Q 35.15625 6.890625 40.078125 11.328125 
Q 45.015625 15.765625 45.015625 23.390625 
Q 45.015625 31 40.078125 35.4375 
Q 35.15625 39.890625 26.703125 39.890625 
Q 22.75 39.890625 18.8125 39.015625 
Q 14.890625 38.140625 10.796875 36.28125 
z
" id="DejaVuSans-53"/>
      </defs>
      <g style="fill:#555555;" transform="translate(391.355281 166.798438)scale(0.1 -0.1)">
       <use xlink:href="#DejaVuSans-50"/>
       <use x="63.623047" xlink:href="#DejaVuSans-48"/>
       <use x="127.246094" xlink:href="#DejaVuSans-50"/>
       <use x="190.869141" xlink:href="#DejaVuSans-48"/>
       <use x="254.492188" xlink:href="#DejaVuSans-45"/>
       <use x="290.576172" xlink:href="#DejaVuSans-48"/>
       <use x="354.199219" xlink:href="#DejaVuSans-53"/>
      </g>
     </g>
    </g>
    <g id="xtick_5">
     <g id="line2d_9">
      <path clip-path="url(#p029be81bcf)" d="M 509.563653 152.2 
L 509.563653 14.342205 
" style="fill:none;stroke:#ffffff;stroke-linecap:square;stroke-width:0.8;"/>
     </g>
     <g id="line2d_10">
      <g>
       <use style="fill:#555555;stroke:#555555;stroke-width:0.8;" x="509.563653" xlink:href="#m02f3ccfa6b" y="152.2"/>
      </g>
     </g>
     <g id="text_5">
      <!-- 2020-06 -->
      <defs>
       <path d="M 33.015625 40.375 
Q 26.375 40.375 22.484375 35.828125 
Q 18.609375 31.296875 18.609375 23.390625 
Q 18.609375 15.53125 22.484375 10.953125 
Q 26.375 6.390625 33.015625 6.390625 
Q 39.65625 6.390625 43.53125 10.953125 
Q 47.40625 15.53125 47.40625 23.390625 
Q 47.40625 31.296875 43.53125 35.828125 
Q 39.65625 40.375 33.015625 40.375 
z
M 52.59375 71.296875 
L 52.59375 62.3125 
Q 48.875 64.0625 45.09375 64.984375 
Q 41.3125 65.921875 37.59375 65.921875 
Q 27.828125 65.921875 22.671875 59.328125 
Q 17.53125 52.734375 16.796875 39.40625 
Q 19.671875 43.65625 24.015625 45.921875 
Q 28.375 48.1875 33.59375 48.1875 
Q 44.578125 48.1875 50.953125 41.515625 
Q 57.328125 34.859375 57.328125 23.390625 
Q 57.328125 12.15625 50.6875 5.359375 
Q 44.046875 -1.421875 33.015625 -1.421875 
Q 20.359375 -1.421875 13.671875 8.265625 
Q 6.984375 17.96875 6.984375 36.375 
Q 6.984375 53.65625 15.1875 63.9375 
Q 23.390625 74.21875 37.203125 74.21875 
Q 40.921875 74.21875 44.703125 73.484375 
Q 48.484375 72.75 52.59375 71.296875 
z
" id="DejaVuSans-54"/>
      </defs>
      <g style="fill:#555555;" transform="translate(488.672247 166.798438)scale(0.1 -0.1)">
       <use xlink:href="#DejaVuSans-50"/>
       <use x="63.623047" xlink:href="#DejaVuSans-48"/>
       <use x="127.246094" xlink:href="#DejaVuSans-50"/>
       <use x="190.869141" xlink:href="#DejaVuSans-48"/>
       <use x="254.492188" xlink:href="#DejaVuSans-45"/>
       <use x="290.576172" xlink:href="#DejaVuSans-48"/>
       <use x="354.199219" xlink:href="#DejaVuSans-54"/>
      </g>
     </g>
    </g>
    <g id="xtick_6">
     <g id="line2d_11">
      <path clip-path="url(#p029be81bcf)" d="M 603.741362 152.2 
L 603.741362 14.342205 
" style="fill:none;stroke:#ffffff;stroke-linecap:square;stroke-width:0.8;"/>
     </g>
     <g id="line2d_12">
      <g>
       <use style="fill:#555555;stroke:#555555;stroke-width:0.8;" x="603.741362" xlink:href="#m02f3ccfa6b" y="152.2"/>
      </g>
     </g>
     <g id="text_6">
      <!-- 2020-07 -->
      <defs>
       <path d="M 8.203125 72.90625 
L 55.078125 72.90625 
L 55.078125 68.703125 
L 28.609375 0 
L 18.3125 0 
L 43.21875 64.59375 
L 8.203125 64.59375 
z
" id="DejaVuSans-55"/>
      </defs>
      <g style="fill:#555555;" transform="translate(582.849956 166.798438)scale(0.1 -0.1)">
       <use xlink:href="#DejaVuSans-50"/>
       <use x="63.623047" xlink:href="#DejaVuSans-48"/>
       <use x="127.246094" xlink:href="#DejaVuSans-50"/>
       <use x="190.869141" xlink:href="#DejaVuSans-48"/>
       <use x="254.492188" xlink:href="#DejaVuSans-45"/>
       <use x="290.576172" xlink:href="#DejaVuSans-48"/>
       <use x="354.199219" xlink:href="#DejaVuSans-55"/>
      </g>
     </g>
    </g>
    <g id="xtick_7">
     <g id="line2d_13">
      <path clip-path="url(#p029be81bcf)" d="M 701.058328 152.2 
L 701.058328 14.342205 
" style="fill:none;stroke:#ffffff;stroke-linecap:square;stroke-width:0.8;"/>
     </g>
     <g id="line2d_14">
      <g>
       <use style="fill:#555555;stroke:#555555;stroke-width:0.8;" x="701.058328" xlink:href="#m02f3ccfa6b" y="152.2"/>
      </g>
     </g>
     <g id="text_7">
      <!-- 2020-08 -->
      <defs>
       <path d="M 31.78125 34.625 
Q 24.75 34.625 20.71875 30.859375 
Q 16.703125 27.09375 16.703125 20.515625 
Q 16.703125 13.921875 20.71875 10.15625 
Q 24.75 6.390625 31.78125 6.390625 
Q 38.8125 6.390625 42.859375 10.171875 
Q 46.921875 13.96875 46.921875 20.515625 
Q 46.921875 27.09375 42.890625 30.859375 
Q 38.875 34.625 31.78125 34.625 
z
M 21.921875 38.8125 
Q 15.578125 40.375 12.03125 44.71875 
Q 8.5 49.078125 8.5 55.328125 
Q 8.5 64.0625 14.71875 69.140625 
Q 20.953125 74.21875 31.78125 74.21875 
Q 42.671875 74.21875 48.875 69.140625 
Q 55.078125 64.0625 55.078125 55.328125 
Q 55.078125 49.078125 51.53125 44.71875 
Q 48 40.375 41.703125 38.8125 
Q 48.828125 37.15625 52.796875 32.3125 
Q 56.78125 27.484375 56.78125 20.515625 
Q 56.78125 9.90625 50.3125 4.234375 
Q 43.84375 -1.421875 31.78125 -1.421875 
Q 19.734375 -1.421875 13.25 4.234375 
Q 6.78125 9.90625 6.78125 20.515625 
Q 6.78125 27.484375 10.78125 32.3125 
Q 14.796875 37.15625 21.921875 38.8125 
z
M 18.3125 54.390625 
Q 18.3125 48.734375 21.84375 45.5625 
Q 25.390625 42.390625 31.78125 42.390625 
Q 38.140625 42.390625 41.71875 45.5625 
Q 45.3125 48.734375 45.3125 54.390625 
Q 45.3125 60.0625 41.71875 63.234375 
Q 38.140625 66.40625 31.78125 66.40625 
Q 25.390625 66.40625 21.84375 63.234375 
Q 18.3125 60.0625 18.3125 54.390625 
z
" id="DejaVuSans-56"/>
      </defs>
      <g style="fill:#555555;" transform="translate(680.166921 166.798438)scale(0.1 -0.1)">
       <use xlink:href="#DejaVuSans-50"/>
       <use x="63.623047" xlink:href="#DejaVuSans-48"/>
       <use x="127.246094" xlink:href="#DejaVuSans-50"/>
       <use x="190.869141" xlink:href="#DejaVuSans-48"/>
       <use x="254.492188" xlink:href="#DejaVuSans-45"/>
       <use x="290.576172" xlink:href="#DejaVuSans-48"/>
       <use x="354.199219" xlink:href="#DejaVuSans-56"/>
      </g>
     </g>
    </g>
    <g id="xtick_8">
     <g id="line2d_15">
      <path clip-path="url(#p029be81bcf)" d="M 798.375294 152.2 
L 798.375294 14.342205 
" style="fill:none;stroke:#ffffff;stroke-linecap:square;stroke-width:0.8;"/>
     </g>
     <g id="line2d_16">
      <g>
       <use style="fill:#555555;stroke:#555555;stroke-width:0.8;" x="798.375294" xlink:href="#m02f3ccfa6b" y="152.2"/>
      </g>
     </g>
     <g id="text_8">
      <!-- 2020-09 -->
      <defs>
       <path d="M 10.984375 1.515625 
L 10.984375 10.5 
Q 14.703125 8.734375 18.5 7.8125 
Q 22.3125 6.890625 25.984375 6.890625 
Q 35.75 6.890625 40.890625 13.453125 
Q 46.046875 20.015625 46.78125 33.40625 
Q 43.953125 29.203125 39.59375 26.953125 
Q 35.25 24.703125 29.984375 24.703125 
Q 19.046875 24.703125 12.671875 31.3125 
Q 6.296875 37.9375 6.296875 49.421875 
Q 6.296875 60.640625 12.9375 67.421875 
Q 19.578125 74.21875 30.609375 74.21875 
Q 43.265625 74.21875 49.921875 64.515625 
Q 56.59375 54.828125 56.59375 36.375 
Q 56.59375 19.140625 48.40625 8.859375 
Q 40.234375 -1.421875 26.421875 -1.421875 
Q 22.703125 -1.421875 18.890625 -0.6875 
Q 15.09375 0.046875 10.984375 1.515625 
z
M 30.609375 32.421875 
Q 37.25 32.421875 41.125 36.953125 
Q 45.015625 41.5 45.015625 49.421875 
Q 45.015625 57.28125 41.125 61.84375 
Q 37.25 66.40625 30.609375 66.40625 
Q 23.96875 66.40625 20.09375 61.84375 
Q 16.21875 57.28125 16.21875 49.421875 
Q 16.21875 41.5 20.09375 36.953125 
Q 23.96875 32.421875 30.609375 32.421875 
z
" id="DejaVuSans-57"/>
      </defs>
      <g style="fill:#555555;" transform="translate(777.483887 166.798438)scale(0.1 -0.1)">
       <use xlink:href="#DejaVuSans-50"/>
       <use x="63.623047" xlink:href="#DejaVuSans-48"/>
       <use x="127.246094" xlink:href="#DejaVuSans-50"/>
       <use x="190.869141" xlink:href="#DejaVuSans-48"/>
       <use x="254.492188" xlink:href="#DejaVuSans-45"/>
       <use x="290.576172" xlink:href="#DejaVuSans-48"/>
       <use x="354.199219" xlink:href="#DejaVuSans-57"/>
      </g>
     </g>
    </g>
   </g>
   <g id="matplotlib.axis_2">
    <g id="ytick_1">
     <g id="line2d_17">
      <path clip-path="url(#p029be81bcf)" d="M 66.175 152.2 
L 814.825 152.2 
" style="fill:none;stroke:#ffffff;stroke-linecap:square;stroke-width:0.8;"/>
     </g>
     <g id="line2d_18">
      <defs>
       <path d="M 0 0 
L -3.5 0 
" id="m030af509c2" style="stroke:#555555;stroke-width:0.8;"/>
      </defs>
      <g>
       <use style="fill:#555555;stroke:#555555;stroke-width:0.8;" x="66.175" xlink:href="#m030af509c2" y="152.2"/>
      </g>
     </g>
     <g id="line2d_19">
      <defs>
       <path d="M 0 0 
L 3.5 0 
" id="m9d77da55eb" style="stroke:#555555;stroke-width:0.8;"/>
      </defs>
      <g>
       <use style="fill:#555555;stroke:#555555;stroke-width:0.8;" x="814.825" xlink:href="#m9d77da55eb" y="152.2"/>
      </g>
     </g>
     <g id="text_9">
      <!-- 0 -->
      <g style="fill:#555555;" transform="translate(52.8125 155.999219)scale(0.1 -0.1)">
       <use xlink:href="#DejaVuSans-48"/>
      </g>
     </g>
     <g id="text_10">
      <!-- 0 -->
      <g style="fill:#555555;" transform="translate(821.825 155.999219)scale(0.1 -0.1)">
       <use xlink:href="#DejaVuSans-48"/>
      </g>
     </g>
    </g>
    <g id="ytick_2">
     <g id="line2d_20">
      <path clip-path="url(#p029be81bcf)" d="M 66.175 124.721319 
L 814.825 124.721319 
" style="fill:none;stroke:#ffffff;stroke-linecap:square;stroke-width:0.8;"/>
     </g>
     <g id="line2d_21">
      <g>
       <use style="fill:#555555;stroke:#555555;stroke-width:0.8;" x="66.175" xlink:href="#m030af509c2" y="124.721319"/>
      </g>
     </g>
     <g id="line2d_22">
      <g>
       <use style="fill:#555555;stroke:#555555;stroke-width:0.8;" x="814.825" xlink:href="#m9d77da55eb" y="124.721319"/>
      </g>
     </g>
     <g id="text_11">
      <!-- 2000 -->
      <g style="fill:#555555;" transform="translate(33.725 128.520538)scale(0.1 -0.1)">
       <use xlink:href="#DejaVuSans-50"/>
       <use x="63.623047" xlink:href="#DejaVuSans-48"/>
       <use x="127.246094" xlink:href="#DejaVuSans-48"/>
       <use x="190.869141" xlink:href="#DejaVuSans-48"/>
      </g>
     </g>
     <g id="text_12">
      <!-- 2000 -->
      <g style="fill:#555555;" transform="translate(821.825 128.520538)scale(0.1 -0.1)">
       <use xlink:href="#DejaVuSans-50"/>
       <use x="63.623047" xlink:href="#DejaVuSans-48"/>
       <use x="127.246094" xlink:href="#DejaVuSans-48"/>
       <use x="190.869141" xlink:href="#DejaVuSans-48"/>
      </g>
     </g>
    </g>
    <g id="ytick_3">
     <g id="line2d_23">
      <path clip-path="url(#p029be81bcf)" d="M 66.175 97.242638 
L 814.825 97.242638 
" style="fill:none;stroke:#ffffff;stroke-linecap:square;stroke-width:0.8;"/>
     </g>
     <g id="line2d_24">
      <g>
       <use style="fill:#555555;stroke:#555555;stroke-width:0.8;" x="66.175" xlink:href="#m030af509c2" y="97.242638"/>
      </g>
     </g>
     <g id="line2d_25">
      <g>
       <use style="fill:#555555;stroke:#555555;stroke-width:0.8;" x="814.825" xlink:href="#m9d77da55eb" y="97.242638"/>
      </g>
     </g>
     <g id="text_13">
      <!-- 4000 -->
      <g style="fill:#555555;" transform="translate(33.725 101.041857)scale(0.1 -0.1)">
       <use xlink:href="#DejaVuSans-52"/>
       <use x="63.623047" xlink:href="#DejaVuSans-48"/>
       <use x="127.246094" xlink:href="#DejaVuSans-48"/>
       <use x="190.869141" xlink:href="#DejaVuSans-48"/>
      </g>
     </g>
     <g id="text_14">
      <!-- 4000 -->
      <g style="fill:#555555;" transform="translate(821.825 101.041857)scale(0.1 -0.1)">
       <use xlink:href="#DejaVuSans-52"/>
       <use x="63.623047" xlink:href="#DejaVuSans-48"/>
       <use x="127.246094" xlink:href="#DejaVuSans-48"/>
       <use x="190.869141" xlink:href="#DejaVuSans-48"/>
      </g>
     </g>
    </g>
    <g id="ytick_4">
     <g id="line2d_26">
      <path clip-path="url(#p029be81bcf)" d="M 66.175 69.763957 
L 814.825 69.763957 
" style="fill:none;stroke:#ffffff;stroke-linecap:square;stroke-width:0.8;"/>
     </g>
     <g id="line2d_27">
      <g>
       <use style="fill:#555555;stroke:#555555;stroke-width:0.8;" x="66.175" xlink:href="#m030af509c2" y="69.763957"/>
      </g>
     </g>
     <g id="line2d_28">
      <g>
       <use style="fill:#555555;stroke:#555555;stroke-width:0.8;" x="814.825" xlink:href="#m9d77da55eb" y="69.763957"/>
      </g>
     </g>
     <g id="text_15">
      <!-- 6000 -->
      <g style="fill:#555555;" transform="translate(33.725 73.563176)scale(0.1 -0.1)">
       <use xlink:href="#DejaVuSans-54"/>
       <use x="63.623047" xlink:href="#DejaVuSans-48"/>
       <use x="127.246094" xlink:href="#DejaVuSans-48"/>
       <use x="190.869141" xlink:href="#DejaVuSans-48"/>
      </g>
     </g>
     <g id="text_16">
      <!-- 6000 -->
      <g style="fill:#555555;" transform="translate(821.825 73.563176)scale(0.1 -0.1)">
       <use xlink:href="#DejaVuSans-54"/>
       <use x="63.623047" xlink:href="#DejaVuSans-48"/>
       <use x="127.246094" xlink:href="#DejaVuSans-48"/>
       <use x="190.869141" xlink:href="#DejaVuSans-48"/>
      </g>
     </g>
    </g>
    <g id="ytick_5">
     <g id="line2d_29">
      <path clip-path="url(#p029be81bcf)" d="M 66.175 42.285276 
L 814.825 42.285276 
" style="fill:none;stroke:#ffffff;stroke-linecap:square;stroke-width:0.8;"/>
     </g>
     <g id="line2d_30">
      <g>
       <use style="fill:#555555;stroke:#555555;stroke-width:0.8;" x="66.175" xlink:href="#m030af509c2" y="42.285276"/>
      </g>
     </g>
     <g id="line2d_31">
      <g>
       <use style="fill:#555555;stroke:#555555;stroke-width:0.8;" x="814.825" xlink:href="#m9d77da55eb" y="42.285276"/>
      </g>
     </g>
     <g id="text_17">
      <!-- 8000 -->
      <g style="fill:#555555;" transform="translate(33.725 46.084495)scale(0.1 -0.1)">
       <use xlink:href="#DejaVuSans-56"/>
       <use x="63.623047" xlink:href="#DejaVuSans-48"/>
       <use x="127.246094" xlink:href="#DejaVuSans-48"/>
       <use x="190.869141" xlink:href="#DejaVuSans-48"/>
      </g>
     </g>
     <g id="text_18">
      <!-- 8000 -->
      <g style="fill:#555555;" transform="translate(821.825 46.084495)scale(0.1 -0.1)">
       <use xlink:href="#DejaVuSans-56"/>
       <use x="63.623047" xlink:href="#DejaVuSans-48"/>
       <use x="127.246094" xlink:href="#DejaVuSans-48"/>
       <use x="190.869141" xlink:href="#DejaVuSans-48"/>
      </g>
     </g>
    </g>
    <g id="ytick_6">
     <g id="line2d_32">
      <path clip-path="url(#p029be81bcf)" d="M 66.175 14.806595 
L 814.825 14.806595 
" style="fill:none;stroke:#ffffff;stroke-linecap:square;stroke-width:0.8;"/>
     </g>
     <g id="line2d_33">
      <g>
       <use style="fill:#555555;stroke:#555555;stroke-width:0.8;" x="66.175" xlink:href="#m030af509c2" y="14.806595"/>
      </g>
     </g>
     <g id="line2d_34">
      <g>
       <use style="fill:#555555;stroke:#555555;stroke-width:0.8;" x="814.825" xlink:href="#m9d77da55eb" y="14.806595"/>
      </g>
     </g>
     <g id="text_19">
      <!-- 10000 -->
      <defs>
       <path d="M 12.40625 8.296875 
L 28.515625 8.296875 
L 28.515625 63.921875 
L 10.984375 60.40625 
L 10.984375 69.390625 
L 28.421875 72.90625 
L 38.28125 72.90625 
L 38.28125 8.296875 
L 54.390625 8.296875 
L 54.390625 0 
L 12.40625 0 
z
" id="DejaVuSans-49"/>
      </defs>
      <g style="fill:#555555;" transform="translate(27.3625 18.605814)scale(0.1 -0.1)">
       <use xlink:href="#DejaVuSans-49"/>
       <use x="63.623047" xlink:href="#DejaVuSans-48"/>
       <use x="127.246094" xlink:href="#DejaVuSans-48"/>
       <use x="190.869141" xlink:href="#DejaVuSans-48"/>
       <use x="254.492188" xlink:href="#DejaVuSans-48"/>
      </g>
     </g>
     <g id="text_20">
      <!-- 10000 -->
      <g style="fill:#555555;" transform="translate(821.825 18.605814)scale(0.1 -0.1)">
       <use xlink:href="#DejaVuSans-49"/>
       <use x="63.623047" xlink:href="#DejaVuSans-48"/>
       <use x="127.246094" xlink:href="#DejaVuSans-48"/>
       <use x="190.869141" xlink:href="#DejaVuSans-48"/>
       <use x="254.492188" xlink:href="#DejaVuSans-48"/>
      </g>
     </g>
    </g>
    <g id="text_21">
     <!-- daily change -->
     <defs>
      <path d="M 45.40625 46.390625 
L 45.40625 75.984375 
L 54.390625 75.984375 
L 54.390625 0 
L 45.40625 0 
L 45.40625 8.203125 
Q 42.578125 3.328125 38.25 0.953125 
Q 33.9375 -1.421875 27.875 -1.421875 
Q 17.96875 -1.421875 11.734375 6.484375 
Q 5.515625 14.40625 5.515625 27.296875 
Q 5.515625 40.1875 11.734375 48.09375 
Q 17.96875 56 27.875 56 
Q 33.9375 56 38.25 53.625 
Q 42.578125 51.265625 45.40625 46.390625 
z
M 14.796875 27.296875 
Q 14.796875 17.390625 18.875 11.75 
Q 22.953125 6.109375 30.078125 6.109375 
Q 37.203125 6.109375 41.296875 11.75 
Q 45.40625 17.390625 45.40625 27.296875 
Q 45.40625 37.203125 41.296875 42.84375 
Q 37.203125 48.484375 30.078125 48.484375 
Q 22.953125 48.484375 18.875 42.84375 
Q 14.796875 37.203125 14.796875 27.296875 
z
" id="DejaVuSans-100"/>
      <path d="M 34.28125 27.484375 
Q 23.390625 27.484375 19.1875 25 
Q 14.984375 22.515625 14.984375 16.5 
Q 14.984375 11.71875 18.140625 8.90625 
Q 21.296875 6.109375 26.703125 6.109375 
Q 34.1875 6.109375 38.703125 11.40625 
Q 43.21875 16.703125 43.21875 25.484375 
L 43.21875 27.484375 
z
M 52.203125 31.203125 
L 52.203125 0 
L 43.21875 0 
L 43.21875 8.296875 
Q 40.140625 3.328125 35.546875 0.953125 
Q 30.953125 -1.421875 24.3125 -1.421875 
Q 15.921875 -1.421875 10.953125 3.296875 
Q 6 8.015625 6 15.921875 
Q 6 25.140625 12.171875 29.828125 
Q 18.359375 34.515625 30.609375 34.515625 
L 43.21875 34.515625 
L 43.21875 35.40625 
Q 43.21875 41.609375 39.140625 45 
Q 35.0625 48.390625 27.6875 48.390625 
Q 23 48.390625 18.546875 47.265625 
Q 14.109375 46.140625 10.015625 43.890625 
L 10.015625 52.203125 
Q 14.9375 54.109375 19.578125 55.046875 
Q 24.21875 56 28.609375 56 
Q 40.484375 56 46.34375 49.84375 
Q 52.203125 43.703125 52.203125 31.203125 
z
" id="DejaVuSans-97"/>
      <path d="M 9.421875 54.6875 
L 18.40625 54.6875 
L 18.40625 0 
L 9.421875 0 
z
M 9.421875 75.984375 
L 18.40625 75.984375 
L 18.40625 64.59375 
L 9.421875 64.59375 
z
" id="DejaVuSans-105"/>
      <path d="M 9.421875 75.984375 
L 18.40625 75.984375 
L 18.40625 0 
L 9.421875 0 
z
" id="DejaVuSans-108"/>
      <path d="M 32.171875 -5.078125 
Q 28.375 -14.84375 24.75 -17.8125 
Q 21.140625 -20.796875 15.09375 -20.796875 
L 7.90625 -20.796875 
L 7.90625 -13.28125 
L 13.1875 -13.28125 
Q 16.890625 -13.28125 18.9375 -11.515625 
Q 21 -9.765625 23.484375 -3.21875 
L 25.09375 0.875 
L 2.984375 54.6875 
L 12.5 54.6875 
L 29.59375 11.921875 
L 46.6875 54.6875 
L 56.203125 54.6875 
z
" id="DejaVuSans-121"/>
      <path id="DejaVuSans-32"/>
      <path d="M 48.78125 52.59375 
L 48.78125 44.1875 
Q 44.96875 46.296875 41.140625 47.34375 
Q 37.3125 48.390625 33.40625 48.390625 
Q 24.65625 48.390625 19.8125 42.84375 
Q 14.984375 37.3125 14.984375 27.296875 
Q 14.984375 17.28125 19.8125 11.734375 
Q 24.65625 6.203125 33.40625 6.203125 
Q 37.3125 6.203125 41.140625 7.25 
Q 44.96875 8.296875 48.78125 10.40625 
L 48.78125 2.09375 
Q 45.015625 0.34375 40.984375 -0.53125 
Q 36.96875 -1.421875 32.421875 -1.421875 
Q 20.0625 -1.421875 12.78125 6.34375 
Q 5.515625 14.109375 5.515625 27.296875 
Q 5.515625 40.671875 12.859375 48.328125 
Q 20.21875 56 33.015625 56 
Q 37.15625 56 41.109375 55.140625 
Q 45.0625 54.296875 48.78125 52.59375 
z
" id="DejaVuSans-99"/>
      <path d="M 54.890625 33.015625 
L 54.890625 0 
L 45.90625 0 
L 45.90625 32.71875 
Q 45.90625 40.484375 42.875 44.328125 
Q 39.84375 48.1875 33.796875 48.1875 
Q 26.515625 48.1875 22.3125 43.546875 
Q 18.109375 38.921875 18.109375 30.90625 
L 18.109375 0 
L 9.078125 0 
L 9.078125 75.984375 
L 18.109375 75.984375 
L 18.109375 46.1875 
Q 21.34375 51.125 25.703125 53.5625 
Q 30.078125 56 35.796875 56 
Q 45.21875 56 50.046875 50.171875 
Q 54.890625 44.34375 54.890625 33.015625 
z
" id="DejaVuSans-104"/>
      <path d="M 54.890625 33.015625 
L 54.890625 0 
L 45.90625 0 
L 45.90625 32.71875 
Q 45.90625 40.484375 42.875 44.328125 
Q 39.84375 48.1875 33.796875 48.1875 
Q 26.515625 48.1875 22.3125 43.546875 
Q 18.109375 38.921875 18.109375 30.90625 
L 18.109375 0 
L 9.078125 0 
L 9.078125 54.6875 
L 18.109375 54.6875 
L 18.109375 46.1875 
Q 21.34375 51.125 25.703125 53.5625 
Q 30.078125 56 35.796875 56 
Q 45.21875 56 50.046875 50.171875 
Q 54.890625 44.34375 54.890625 33.015625 
z
" id="DejaVuSans-110"/>
      <path d="M 45.40625 27.984375 
Q 45.40625 37.75 41.375 43.109375 
Q 37.359375 48.484375 30.078125 48.484375 
Q 22.859375 48.484375 18.828125 43.109375 
Q 14.796875 37.75 14.796875 27.984375 
Q 14.796875 18.265625 18.828125 12.890625 
Q 22.859375 7.515625 30.078125 7.515625 
Q 37.359375 7.515625 41.375 12.890625 
Q 45.40625 18.265625 45.40625 27.984375 
z
M 54.390625 6.78125 
Q 54.390625 -7.171875 48.1875 -13.984375 
Q 42 -20.796875 29.203125 -20.796875 
Q 24.46875 -20.796875 20.265625 -20.09375 
Q 16.0625 -19.390625 12.109375 -17.921875 
L 12.109375 -9.1875 
Q 16.0625 -11.328125 19.921875 -12.34375 
Q 23.78125 -13.375 27.78125 -13.375 
Q 36.625 -13.375 41.015625 -8.765625 
Q 45.40625 -4.15625 45.40625 5.171875 
L 45.40625 9.625 
Q 42.625 4.78125 38.28125 2.390625 
Q 33.9375 0 27.875 0 
Q 17.828125 0 11.671875 7.65625 
Q 5.515625 15.328125 5.515625 27.984375 
Q 5.515625 40.671875 11.671875 48.328125 
Q 17.828125 56 27.875 56 
Q 33.9375 56 38.28125 53.609375 
Q 42.625 51.21875 45.40625 46.390625 
L 45.40625 54.6875 
L 54.390625 54.6875 
z
" id="DejaVuSans-103"/>
      <path d="M 56.203125 29.59375 
L 56.203125 25.203125 
L 14.890625 25.203125 
Q 15.484375 15.921875 20.484375 11.0625 
Q 25.484375 6.203125 34.421875 6.203125 
Q 39.59375 6.203125 44.453125 7.46875 
Q 49.3125 8.734375 54.109375 11.28125 
L 54.109375 2.78125 
Q 49.265625 0.734375 44.1875 -0.34375 
Q 39.109375 -1.421875 33.890625 -1.421875 
Q 20.796875 -1.421875 13.15625 6.1875 
Q 5.515625 13.8125 5.515625 26.8125 
Q 5.515625 40.234375 12.765625 48.109375 
Q 20.015625 56 32.328125 56 
Q 43.359375 56 49.78125 48.890625 
Q 56.203125 41.796875 56.203125 29.59375 
z
M 47.21875 32.234375 
Q 47.125 39.59375 43.09375 43.984375 
Q 39.0625 48.390625 32.421875 48.390625 
Q 24.90625 48.390625 20.390625 44.140625 
Q 15.875 39.890625 15.1875 32.171875 
z
" id="DejaVuSans-101"/>
     </defs>
     <g style="fill:#555555;" transform="translate(20.866875 121.63079)rotate(-90)scale(0.12 -0.12)">
      <use xlink:href="#DejaVuSans-100"/>
      <use x="63.476562" xlink:href="#DejaVuSans-97"/>
      <use x="124.755859" xlink:href="#DejaVuSans-105"/>
      <use x="152.539062" xlink:href="#DejaVuSans-108"/>
      <use x="180.322266" xlink:href="#DejaVuSans-121"/>
      <use x="239.501953" xlink:href="#DejaVuSans-32"/>
      <use x="271.289062" xlink:href="#DejaVuSans-99"/>
      <use x="326.269531" xlink:href="#DejaVuSans-104"/>
      <use x="389.648438" xlink:href="#DejaVuSans-97"/>
      <use x="450.927734" xlink:href="#DejaVuSans-110"/>
      <use x="514.306641" xlink:href="#DejaVuSans-103"/>
      <use x="577.783203" xlink:href="#DejaVuSans-101"/>
     </g>
    </g>
   </g>
   <g id="patch_3">
    <path clip-path="url(#p029be81bcf)" d="M 100.204545 152.2 
L 102.715951 152.2 
L 102.715951 152.2 
L 100.204545 152.2 
z
" style="fill:#348abd;opacity:0.2;"/>
   </g>
   <g id="patch_4">
    <path clip-path="url(#p029be81bcf)" d="M 103.343802 152.2 
L 105.855208 152.2 
L 105.855208 152.2 
L 103.343802 152.2 
z
" style="fill:#348abd;opacity:0.2;"/>
   </g>
   <g id="patch_5">
    <path clip-path="url(#p029be81bcf)" d="M 106.483059 152.2 
L 108.994465 152.2 
L 108.994465 152.2 
L 106.483059 152.2 
z
" style="fill:#348abd;opacity:0.2;"/>
   </g>
   <g id="patch_6">
    <path clip-path="url(#p029be81bcf)" d="M 109.622316 152.2 
L 112.133722 152.2 
L 112.133722 152.2 
L 109.622316 152.2 
z
" style="fill:#348abd;opacity:0.2;"/>
   </g>
   <g id="patch_7">
    <path clip-path="url(#p029be81bcf)" d="M 112.761573 152.2 
L 115.272979 152.2 
L 115.272979 152.2 
L 112.761573 152.2 
z
" style="fill:#348abd;opacity:0.2;"/>
   </g>
   <g id="patch_8">
    <path clip-path="url(#p029be81bcf)" d="M 115.90083 152.2 
L 118.412236 152.2 
L 118.412236 152.2 
L 115.90083 152.2 
z
" style="fill:#348abd;opacity:0.2;"/>
   </g>
   <g id="patch_9">
    <path clip-path="url(#p029be81bcf)" d="M 119.040087 152.2 
L 121.551493 152.2 
L 121.551493 152.2 
L 119.040087 152.2 
z
" style="fill:#348abd;opacity:0.2;"/>
   </g>
   <g id="patch_10">
    <path clip-path="url(#p029be81bcf)" d="M 122.179344 152.2 
L 124.69075 152.2 
L 124.69075 152.2 
L 122.179344 152.2 
z
" style="fill:#348abd;opacity:0.2;"/>
   </g>
   <g id="patch_11">
    <path clip-path="url(#p029be81bcf)" d="M 125.318601 152.2 
L 127.830007 152.2 
L 127.830007 152.2 
L 125.318601 152.2 
z
" style="fill:#348abd;opacity:0.2;"/>
   </g>
   <g id="patch_12">
    <path clip-path="url(#p029be81bcf)" d="M 128.457858 152.2 
L 130.969264 152.2 
L 130.969264 152.2 
L 128.457858 152.2 
z
" style="fill:#348abd;opacity:0.2;"/>
   </g>
   <g id="patch_13">
    <path clip-path="url(#p029be81bcf)" d="M 131.597115 152.2 
L 134.108521 152.2 
L 134.108521 152.2 
L 131.597115 152.2 
z
" style="fill:#348abd;opacity:0.2;"/>
   </g>
   <g id="patch_14">
    <path clip-path="url(#p029be81bcf)" d="M 134.736372 152.2 
L 137.247778 152.2 
L 137.247778 152.2 
L 134.736372 152.2 
z
" style="fill:#348abd;opacity:0.2;"/>
   </g>
   <g id="patch_15">
    <path clip-path="url(#p029be81bcf)" d="M 137.875629 152.2 
L 140.387035 152.2 
L 140.387035 152.2 
L 137.875629 152.2 
z
" style="fill:#348abd;opacity:0.2;"/>
   </g>
   <g id="patch_16">
    <path clip-path="url(#p029be81bcf)" d="M 141.014886 152.2 
L 143.526292 152.2 
L 143.526292 152.2 
L 141.014886 152.2 
z
" style="fill:#348abd;opacity:0.2;"/>
   </g>
   <g id="patch_17">
    <path clip-path="url(#p029be81bcf)" d="M 144.154143 152.2 
L 146.665548 152.2 
L 146.665548 152.2 
L 144.154143 152.2 
z
" style="fill:#348abd;opacity:0.2;"/>
   </g>
   <g id="patch_18">
    <path clip-path="url(#p029be81bcf)" d="M 147.2934 152.2 
L 149.804805 152.2 
L 149.804805 152.2 
L 147.2934 152.2 
z
" style="fill:#348abd;opacity:0.2;"/>
   </g>
   <g id="patch_19">
    <path clip-path="url(#p029be81bcf)" d="M 150.432657 152.2 
L 152.944062 152.2 
L 152.944062 152.2 
L 150.432657 152.2 
z
" style="fill:#348abd;opacity:0.2;"/>
   </g>
   <g id="patch_20">
    <path clip-path="url(#p029be81bcf)" d="M 153.571914 152.2 
L 156.083319 152.2 
L 156.083319 152.2 
L 153.571914 152.2 
z
" style="fill:#348abd;opacity:0.2;"/>
   </g>
   <g id="patch_21">
    <path clip-path="url(#p029be81bcf)" d="M 156.711171 152.2 
L 159.222576 152.2 
L 159.222576 152.2 
L 156.711171 152.2 
z
" style="fill:#348abd;opacity:0.2;"/>
   </g>
   <g id="patch_22">
    <path clip-path="url(#p029be81bcf)" d="M 159.850428 152.2 
L 162.361833 152.2 
L 162.361833 152.2 
L 159.850428 152.2 
z
" style="fill:#348abd;opacity:0.2;"/>
   </g>
   <g id="patch_23">
    <path clip-path="url(#p029be81bcf)" d="M 162.989685 152.2 
L 165.50109 152.2 
L 165.50109 152.2 
L 162.989685 152.2 
z
" style="fill:#348abd;opacity:0.2;"/>
   </g>
   <g id="patch_24">
    <path clip-path="url(#p029be81bcf)" d="M 166.128942 152.2 
L 168.640347 152.2 
L 168.640347 152.2 
L 166.128942 152.2 
z
" style="fill:#348abd;opacity:0.2;"/>
   </g>
   <g id="patch_25">
    <path clip-path="url(#p029be81bcf)" d="M 169.268199 152.2 
L 171.779604 152.2 
L 171.779604 152.2 
L 169.268199 152.2 
z
" style="fill:#348abd;opacity:0.2;"/>
   </g>
   <g id="patch_26">
    <path clip-path="url(#p029be81bcf)" d="M 172.407456 152.2 
L 174.918861 152.2 
L 174.918861 152.2 
L 172.407456 152.2 
z
" style="fill:#348abd;opacity:0.2;"/>
   </g>
   <g id="patch_27">
    <path clip-path="url(#p029be81bcf)" d="M 175.546713 152.2 
L 178.058118 152.2 
L 178.058118 152.2 
L 175.546713 152.2 
z
" style="fill:#348abd;opacity:0.2;"/>
   </g>
   <g id="patch_28">
    <path clip-path="url(#p029be81bcf)" d="M 178.685969 152.2 
L 181.197375 152.2 
L 181.197375 152.2 
L 178.685969 152.2 
z
" style="fill:#348abd;opacity:0.2;"/>
   </g>
   <g id="patch_29">
    <path clip-path="url(#p029be81bcf)" d="M 181.825226 152.2 
L 184.336632 152.2 
L 184.336632 152.2 
L 181.825226 152.2 
z
" style="fill:#348abd;opacity:0.2;"/>
   </g>
   <g id="patch_30">
    <path clip-path="url(#p029be81bcf)" d="M 184.964483 152.2 
L 187.475889 152.2 
L 187.475889 152.2 
L 184.964483 152.2 
z
" style="fill:#348abd;opacity:0.2;"/>
   </g>
   <g id="patch_31">
    <path clip-path="url(#p029be81bcf)" d="M 188.10374 152.2 
L 190.615146 152.2 
L 190.615146 152.2 
L 188.10374 152.2 
z
" style="fill:#348abd;opacity:0.2;"/>
   </g>
   <g id="patch_32">
    <path clip-path="url(#p029be81bcf)" d="M 191.242997 152.2 
L 193.754403 152.2 
L 193.754403 152.2 
L 191.242997 152.2 
z
" style="fill:#348abd;opacity:0.2;"/>
   </g>
   <g id="patch_33">
    <path clip-path="url(#p029be81bcf)" d="M 194.382254 152.2 
L 196.89366 152.2 
L 196.89366 152.2 
L 194.382254 152.2 
z
" style="fill:#348abd;opacity:0.2;"/>
   </g>
   <g id="patch_34">
    <path clip-path="url(#p029be81bcf)" d="M 197.521511 152.2 
L 200.032917 152.2 
L 200.032917 152.2 
L 197.521511 152.2 
z
" style="fill:#348abd;opacity:0.2;"/>
   </g>
   <g id="patch_35">
    <path clip-path="url(#p029be81bcf)" d="M 200.660768 152.2 
L 203.172174 152.2 
L 203.172174 152.2 
L 200.660768 152.2 
z
" style="fill:#348abd;opacity:0.2;"/>
   </g>
   <g id="patch_36">
    <path clip-path="url(#p029be81bcf)" d="M 203.800025 152.2 
L 206.311431 152.2 
L 206.311431 152.2 
L 203.800025 152.2 
z
" style="fill:#348abd;opacity:0.2;"/>
   </g>
   <g id="patch_37">
    <path clip-path="url(#p029be81bcf)" d="M 206.939282 152.2 
L 209.450688 152.2 
L 209.450688 152.2 
L 206.939282 152.2 
z
" style="fill:#348abd;opacity:0.2;"/>
   </g>
   <g id="patch_38">
    <path clip-path="url(#p029be81bcf)" d="M 210.078539 152.2 
L 212.589945 152.2 
L 212.589945 152.2 
L 210.078539 152.2 
z
" style="fill:#348abd;opacity:0.2;"/>
   </g>
   <g id="patch_39">
    <path clip-path="url(#p029be81bcf)" d="M 213.217796 152.2 
L 215.729202 152.2 
L 215.729202 152.186261 
L 213.217796 152.186261 
z
" style="fill:#348abd;opacity:0.2;"/>
   </g>
   <g id="patch_40">
    <path clip-path="url(#p029be81bcf)" d="M 216.357053 152.2 
L 218.868459 152.2 
L 218.868459 152.158782 
L 216.357053 152.158782 
z
" style="fill:#348abd;opacity:0.2;"/>
   </g>
   <g id="patch_41">
    <path clip-path="url(#p029be81bcf)" d="M 219.49631 152.2 
L 222.007716 152.2 
L 222.007716 152.186261 
L 219.49631 152.186261 
z
" style="fill:#348abd;opacity:0.2;"/>
   </g>
   <g id="patch_42">
    <path clip-path="url(#p029be81bcf)" d="M 222.635567 152.2 
L 225.146972 152.2 
L 225.146972 152.2 
L 222.635567 152.2 
z
" style="fill:#348abd;opacity:0.2;"/>
   </g>
   <g id="patch_43">
    <path clip-path="url(#p029be81bcf)" d="M 225.774824 152.2 
L 228.286229 152.2 
L 228.286229 152.2 
L 225.774824 152.2 
z
" style="fill:#348abd;opacity:0.2;"/>
   </g>
   <g id="patch_44">
    <path clip-path="url(#p029be81bcf)" d="M 228.914081 152.2 
L 231.425486 152.2 
L 231.425486 152.2 
L 228.914081 152.2 
z
" style="fill:#348abd;opacity:0.2;"/>
   </g>
   <g id="patch_45">
    <path clip-path="url(#p029be81bcf)" d="M 232.053338 152.2 
L 234.564743 152.2 
L 234.564743 152.2 
L 232.053338 152.2 
z
" style="fill:#348abd;opacity:0.2;"/>
   </g>
   <g id="patch_46">
    <path clip-path="url(#p029be81bcf)" d="M 235.192595 152.2 
L 237.704 152.2 
L 237.704 152.186261 
L 235.192595 152.186261 
z
" style="fill:#348abd;opacity:0.2;"/>
   </g>
   <g id="patch_47">
    <path clip-path="url(#p029be81bcf)" d="M 238.331852 152.2 
L 240.843257 152.2 
L 240.843257 152.2 
L 238.331852 152.2 
z
" style="fill:#348abd;opacity:0.2;"/>
   </g>
   <g id="patch_48">
    <path clip-path="url(#p029be81bcf)" d="M 241.471109 152.2 
L 243.982514 152.2 
L 243.982514 152.186261 
L 241.471109 152.186261 
z
" style="fill:#348abd;opacity:0.2;"/>
   </g>
   <g id="patch_49">
    <path clip-path="url(#p029be81bcf)" d="M 244.610366 152.2 
L 247.121771 152.2 
L 247.121771 152.2 
L 244.610366 152.2 
z
" style="fill:#348abd;opacity:0.2;"/>
   </g>
   <g id="patch_50">
    <path clip-path="url(#p029be81bcf)" d="M 247.749623 152.2 
L 250.261028 152.2 
L 250.261028 152.2 
L 247.749623 152.2 
z
" style="fill:#348abd;opacity:0.2;"/>
   </g>
   <g id="patch_51">
    <path clip-path="url(#p029be81bcf)" d="M 250.88888 152.2 
L 253.400285 152.2 
L 253.400285 152.186261 
L 250.88888 152.186261 
z
" style="fill:#348abd;opacity:0.2;"/>
   </g>
   <g id="patch_52">
    <path clip-path="url(#p029be81bcf)" d="M 254.028137 152.2 
L 256.539542 152.2 
L 256.539542 152.145043 
L 254.028137 152.145043 
z
" style="fill:#348abd;opacity:0.2;"/>
   </g>
   <g id="patch_53">
    <path clip-path="url(#p029be81bcf)" d="M 257.167393 152.2 
L 259.678799 152.2 
L 259.678799 152.007649 
L 257.167393 152.007649 
z
" style="fill:#348abd;opacity:0.2;"/>
   </g>
   <g id="patch_54">
    <path clip-path="url(#p029be81bcf)" d="M 260.30665 152.2 
L 262.818056 152.2 
L 262.818056 151.99391 
L 260.30665 151.99391 
z
" style="fill:#348abd;opacity:0.2;"/>
   </g>
   <g id="patch_55">
    <path clip-path="url(#p029be81bcf)" d="M 263.445907 152.2 
L 265.957313 152.2 
L 265.957313 152.035128 
L 263.445907 152.035128 
z
" style="fill:#348abd;opacity:0.2;"/>
   </g>
   <g id="patch_56">
    <path clip-path="url(#p029be81bcf)" d="M 266.585164 152.2 
L 269.09657 152.2 
L 269.09657 151.801559 
L 266.585164 151.801559 
z
" style="fill:#348abd;opacity:0.2;"/>
   </g>
   <g id="patch_57">
    <path clip-path="url(#p029be81bcf)" d="M 269.724421 152.2 
L 272.235827 152.2 
L 272.235827 152.048867 
L 269.724421 152.048867 
z
" style="fill:#348abd;opacity:0.2;"/>
   </g>
   <g id="patch_58">
    <path clip-path="url(#p029be81bcf)" d="M 272.863678 152.2 
L 275.375084 152.2 
L 275.375084 151.856516 
L 272.863678 151.856516 
z
" style="fill:#348abd;opacity:0.2;"/>
   </g>
   <g id="patch_59">
    <path clip-path="url(#p029be81bcf)" d="M 276.002935 152.2 
L 278.514341 152.2 
L 278.514341 151.56799 
L 276.002935 151.56799 
z
" style="fill:#348abd;opacity:0.2;"/>
   </g>
   <g id="patch_60">
    <path clip-path="url(#p029be81bcf)" d="M 279.142192 152.2 
L 281.653598 152.2 
L 281.653598 151.664166 
L 279.142192 151.664166 
z
" style="fill:#348abd;opacity:0.2;"/>
   </g>
   <g id="patch_61">
    <path clip-path="url(#p029be81bcf)" d="M 282.281449 152.2 
L 284.792855 152.2 
L 284.792855 151.540512 
L 282.281449 151.540512 
z
" style="fill:#348abd;opacity:0.2;"/>
   </g>
   <g id="patch_62">
    <path clip-path="url(#p029be81bcf)" d="M 285.420706 152.2 
L 287.932112 152.2 
L 287.932112 151.306943 
L 285.420706 151.306943 
z
" style="fill:#348abd;opacity:0.2;"/>
   </g>
   <g id="patch_63">
    <path clip-path="url(#p029be81bcf)" d="M 288.559963 152.2 
L 291.071369 152.2 
L 291.071369 151.499294 
L 288.559963 151.499294 
z
" style="fill:#348abd;opacity:0.2;"/>
   </g>
   <g id="patch_64">
    <path clip-path="url(#p029be81bcf)" d="M 291.69922 152.2 
L 294.210626 152.2 
L 294.210626 151.677905 
L 291.69922 151.677905 
z
" style="fill:#348abd;opacity:0.2;"/>
   </g>
   <g id="patch_65">
    <path clip-path="url(#p029be81bcf)" d="M 294.838477 152.2 
L 297.349883 152.2 
L 297.349883 151.238246 
L 294.838477 151.238246 
z
" style="fill:#348abd;opacity:0.2;"/>
   </g>
   <g id="patch_66">
    <path clip-path="url(#p029be81bcf)" d="M 297.977734 152.2 
L 300.48914 152.2 
L 300.48914 150.688673 
L 297.977734 150.688673 
z
" style="fill:#348abd;opacity:0.2;"/>
   </g>
   <g id="patch_67">
    <path clip-path="url(#p029be81bcf)" d="M 301.116991 152.2 
L 303.628397 152.2 
L 303.628397 150.386407 
L 301.116991 150.386407 
z
" style="fill:#348abd;opacity:0.2;"/>
   </g>
   <g id="patch_68">
    <path clip-path="url(#p029be81bcf)" d="M 304.256248 152.2 
L 306.767653 152.2 
L 306.767653 150.400146 
L 304.256248 150.400146 
z
" style="fill:#348abd;opacity:0.2;"/>
   </g>
   <g id="patch_69">
    <path clip-path="url(#p029be81bcf)" d="M 307.395505 152.2 
L 309.90691 152.2 
L 309.90691 150.207796 
L 307.395505 150.207796 
z
" style="fill:#348abd;opacity:0.2;"/>
   </g>
   <g id="patch_70">
    <path clip-path="url(#p029be81bcf)" d="M 310.534762 152.2 
L 313.046167 152.2 
L 313.046167 150.812327 
L 310.534762 150.812327 
z
" style="fill:#348abd;opacity:0.2;"/>
   </g>
   <g id="patch_71">
    <path clip-path="url(#p029be81bcf)" d="M 313.674019 152.2 
L 316.185424 152.2 
L 316.185424 150.53754 
L 313.674019 150.53754 
z
" style="fill:#348abd;opacity:0.2;"/>
   </g>
   <g id="patch_72">
    <path clip-path="url(#p029be81bcf)" d="M 316.813276 152.2 
L 319.324681 152.2 
L 319.324681 149.960487 
L 316.813276 149.960487 
z
" style="fill:#348abd;opacity:0.2;"/>
   </g>
   <g id="patch_73">
    <path clip-path="url(#p029be81bcf)" d="M 319.952533 152.2 
L 322.463938 152.2 
L 322.463938 150.386407 
L 319.952533 150.386407 
z
" style="fill:#348abd;opacity:0.2;"/>
   </g>
   <g id="patch_74">
    <path clip-path="url(#p029be81bcf)" d="M 323.09179 152.2 
L 325.603195 152.2 
L 325.603195 149.754397 
L 323.09179 149.754397 
z
" style="fill:#348abd;opacity:0.2;"/>
   </g>
   <g id="patch_75">
    <path clip-path="url(#p029be81bcf)" d="M 326.231047 152.2 
L 328.742452 152.2 
L 328.742452 149.424653 
L 326.231047 149.424653 
z
" style="fill:#348abd;opacity:0.2;"/>
   </g>
   <g id="patch_76">
    <path clip-path="url(#p029be81bcf)" d="M 329.370304 152.2 
L 331.881709 152.2 
L 331.881709 148.723947 
L 329.370304 148.723947 
z
" style="fill:#348abd;opacity:0.2;"/>
   </g>
   <g id="patch_77">
    <path clip-path="url(#p029be81bcf)" d="M 332.509561 152.2 
L 335.020966 152.2 
L 335.020966 148.133155 
L 332.509561 148.133155 
z
" style="fill:#348abd;opacity:0.2;"/>
   </g>
   <g id="patch_78">
    <path clip-path="url(#p029be81bcf)" d="M 335.648818 152.2 
L 338.160223 152.2 
L 338.160223 147.446188 
L 335.648818 147.446188 
z
" style="fill:#348abd;opacity:0.2;"/>
   </g>
   <g id="patch_79">
    <path clip-path="url(#p029be81bcf)" d="M 338.788074 152.2 
L 341.29948 152.2 
L 341.29948 146.759221 
L 338.788074 146.759221 
z
" style="fill:#348abd;opacity:0.2;"/>
   </g>
   <g id="patch_80">
    <path clip-path="url(#p029be81bcf)" d="M 341.927331 152.2 
L 344.438737 152.2 
L 344.438737 148.627771 
L 341.927331 148.627771 
z
" style="fill:#348abd;opacity:0.2;"/>
   </g>
   <g id="patch_81">
    <path clip-path="url(#p029be81bcf)" d="M 345.066588 152.2 
L 347.577994 152.2 
L 347.577994 146.663046 
L 345.066588 146.663046 
z
" style="fill:#348abd;opacity:0.2;"/>
   </g>
   <g id="patch_82">
    <path clip-path="url(#p029be81bcf)" d="M 348.205845 152.2 
L 350.717251 152.2 
L 350.717251 147.047747 
L 348.205845 147.047747 
z
" style="fill:#348abd;opacity:0.2;"/>
   </g>
   <g id="patch_83">
    <path clip-path="url(#p029be81bcf)" d="M 351.345102 152.2 
L 353.856508 152.2 
L 353.856508 146.127212 
L 351.345102 146.127212 
z
" style="fill:#348abd;opacity:0.2;"/>
   </g>
   <g id="patch_84">
    <path clip-path="url(#p029be81bcf)" d="M 354.484359 152.2 
L 356.995765 152.2 
L 356.995765 147.350013 
L 354.484359 147.350013 
z
" style="fill:#348abd;opacity:0.2;"/>
   </g>
   <g id="patch_85">
    <path clip-path="url(#p029be81bcf)" d="M 357.623616 152.2 
L 360.135022 152.2 
L 360.135022 146.910354 
L 357.623616 146.910354 
z
" style="fill:#348abd;opacity:0.2;"/>
   </g>
   <g id="patch_86">
    <path clip-path="url(#p029be81bcf)" d="M 360.762873 152.2 
L 363.274279 152.2 
L 363.274279 146.044775 
L 360.762873 146.044775 
z
" style="fill:#348abd;opacity:0.2;"/>
   </g>
   <g id="patch_87">
    <path clip-path="url(#p029be81bcf)" d="M 363.90213 152.2 
L 366.413536 152.2 
L 366.413536 146.017297 
L 363.90213 146.017297 
z
" style="fill:#348abd;opacity:0.2;"/>
   </g>
   <g id="patch_88">
    <path clip-path="url(#p029be81bcf)" d="M 367.041387 152.2 
L 369.552793 152.2 
L 369.552793 144.258661 
L 367.041387 144.258661 
z
" style="fill:#348abd;opacity:0.2;"/>
   </g>
   <g id="patch_89">
    <path clip-path="url(#p029be81bcf)" d="M 370.180644 152.2 
L 372.69205 152.2 
L 372.69205 143.65413 
L 370.180644 143.65413 
z
" style="fill:#348abd;opacity:0.2;"/>
   </g>
   <g id="patch_90">
    <path clip-path="url(#p029be81bcf)" d="M 373.319901 152.2 
L 375.831307 152.2 
L 375.831307 141.703144 
L 373.319901 141.703144 
z
" style="fill:#348abd;opacity:0.2;"/>
   </g>
   <g id="patch_91">
    <path clip-path="url(#p029be81bcf)" d="M 376.459158 152.2 
L 378.970564 152.2 
L 378.970564 145.179197 
L 376.459158 145.179197 
z
" style="fill:#348abd;opacity:0.2;"/>
   </g>
   <g id="patch_92">
    <path clip-path="url(#p029be81bcf)" d="M 379.598415 152.2 
L 382.109821 152.2 
L 382.109821 142.184021 
L 379.598415 142.184021 
z
" style="fill:#348abd;opacity:0.2;"/>
   </g>
   <g id="patch_93">
    <path clip-path="url(#p029be81bcf)" d="M 382.737672 152.2 
L 385.249077 152.2 
L 385.249077 137.869868 
L 382.737672 137.869868 
z
" style="fill:#348abd;opacity:0.2;"/>
   </g>
   <g id="patch_94">
    <path clip-path="url(#p029be81bcf)" d="M 385.876929 152.2 
L 388.388334 152.2 
L 388.388334 137.237858 
L 385.876929 137.237858 
z
" style="fill:#348abd;opacity:0.2;"/>
   </g>
   <g id="patch_95">
    <path clip-path="url(#p029be81bcf)" d="M 389.016186 152.2 
L 391.527591 152.2 
L 391.527591 135.176957 
L 389.016186 135.176957 
z
" style="fill:#348abd;opacity:0.2;"/>
   </g>
   <g id="patch_96">
    <path clip-path="url(#p029be81bcf)" d="M 392.155443 152.2 
L 394.666848 152.2 
L 394.666848 138.87284 
L 392.155443 138.87284 
z
" style="fill:#348abd;opacity:0.2;"/>
   </g>
   <g id="patch_97">
    <path clip-path="url(#p029be81bcf)" d="M 395.2947 152.2 
L 397.806105 152.2 
L 397.806105 140.727651 
L 395.2947 140.727651 
z
" style="fill:#348abd;opacity:0.2;"/>
   </g>
   <g id="patch_98">
    <path clip-path="url(#p029be81bcf)" d="M 398.433957 152.2 
L 400.945362 152.2 
L 400.945362 140.494082 
L 398.433957 140.494082 
z
" style="fill:#348abd;opacity:0.2;"/>
   </g>
   <g id="patch_99">
    <path clip-path="url(#p029be81bcf)" d="M 401.573214 152.2 
L 404.084619 152.2 
L 404.084619 135.396787 
L 401.573214 135.396787 
z
" style="fill:#348abd;opacity:0.2;"/>
   </g>
   <g id="patch_100">
    <path clip-path="url(#p029be81bcf)" d="M 404.712471 152.2 
L 407.223876 152.2 
L 407.223876 137.814911 
L 404.712471 137.814911 
z
" style="fill:#348abd;opacity:0.2;"/>
   </g>
   <g id="patch_101">
    <path clip-path="url(#p029be81bcf)" d="M 407.851728 152.2 
L 410.363133 152.2 
L 410.363133 132.62144 
L 407.851728 132.62144 
z
" style="fill:#348abd;opacity:0.2;"/>
   </g>
   <g id="patch_102">
    <path clip-path="url(#p029be81bcf)" d="M 410.990985 152.2 
L 413.50239 152.2 
L 413.50239 131.384899 
L 410.990985 131.384899 
z
" style="fill:#348abd;opacity:0.2;"/>
   </g>
   <g id="patch_103">
    <path clip-path="url(#p029be81bcf)" d="M 414.130242 152.2 
L 416.641647 152.2 
L 416.641647 133.66563 
L 414.130242 133.66563 
z
" style="fill:#348abd;opacity:0.2;"/>
   </g>
   <g id="patch_104">
    <path clip-path="url(#p029be81bcf)" d="M 417.269498 152.2 
L 419.780904 152.2 
L 419.780904 133.198492 
L 417.269498 133.198492 
z
" style="fill:#348abd;opacity:0.2;"/>
   </g>
   <g id="patch_105">
    <path clip-path="url(#p029be81bcf)" d="M 420.408755 152.2 
L 422.920161 152.2 
L 422.920161 132.497786 
L 420.408755 132.497786 
z
" style="fill:#348abd;opacity:0.2;"/>
   </g>
   <g id="patch_106">
    <path clip-path="url(#p029be81bcf)" d="M 423.548012 152.2 
L 426.059418 152.2 
L 426.059418 136.811939 
L 423.548012 136.811939 
z
" style="fill:#348abd;opacity:0.2;"/>
   </g>
   <g id="patch_107">
    <path clip-path="url(#p029be81bcf)" d="M 426.687269 152.2 
L 429.198675 152.2 
L 429.198675 130.093401 
L 426.687269 130.093401 
z
" style="fill:#348abd;opacity:0.2;"/>
   </g>
   <g id="patch_108">
    <path clip-path="url(#p029be81bcf)" d="M 429.826526 152.2 
L 432.337932 152.2 
L 432.337932 124.968627 
L 429.826526 124.968627 
z
" style="fill:#348abd;opacity:0.2;"/>
   </g>
   <g id="patch_109">
    <path clip-path="url(#p029be81bcf)" d="M 432.965783 152.2 
L 435.477189 152.2 
L 435.477189 126.012817 
L 432.965783 126.012817 
z
" style="fill:#348abd;opacity:0.2;"/>
   </g>
   <g id="patch_110">
    <path clip-path="url(#p029be81bcf)" d="M 436.10504 152.2 
L 438.616446 152.2 
L 438.616446 125.573158 
L 436.10504 125.573158 
z
" style="fill:#348abd;opacity:0.2;"/>
   </g>
   <g id="patch_111">
    <path clip-path="url(#p029be81bcf)" d="M 439.244297 152.2 
L 441.755703 152.2 
L 441.755703 130.73915 
L 439.244297 130.73915 
z
" style="fill:#348abd;opacity:0.2;"/>
   </g>
   <g id="patch_112">
    <path clip-path="url(#p029be81bcf)" d="M 442.383554 152.2 
L 444.89496 152.2 
L 444.89496 134.270161 
L 442.383554 134.270161 
z
" style="fill:#348abd;opacity:0.2;"/>
   </g>
   <g id="patch_113">
    <path clip-path="url(#p029be81bcf)" d="M 445.522811 152.2 
L 448.034217 152.2 
L 448.034217 124.762537 
L 445.522811 124.762537 
z
" style="fill:#348abd;opacity:0.2;"/>
   </g>
   <g id="patch_114">
    <path clip-path="url(#p029be81bcf)" d="M 448.662068 152.2 
L 451.173474 152.2 
L 451.173474 126.617348 
L 448.662068 126.617348 
z
" style="fill:#348abd;opacity:0.2;"/>
   </g>
   <g id="patch_115">
    <path clip-path="url(#p029be81bcf)" d="M 451.801325 152.2 
L 454.312731 152.2 
L 454.312731 119.101929 
L 451.801325 119.101929 
z
" style="fill:#348abd;opacity:0.2;"/>
   </g>
   <g id="patch_116">
    <path clip-path="url(#p029be81bcf)" d="M 454.940582 152.2 
L 457.451988 152.2 
L 457.451988 118.717227 
L 454.940582 118.717227 
z
" style="fill:#348abd;opacity:0.2;"/>
   </g>
   <g id="patch_117">
    <path clip-path="url(#p029be81bcf)" d="M 458.079839 152.2 
L 460.591245 152.2 
L 460.591245 123.182513 
L 458.079839 123.182513 
z
" style="fill:#348abd;opacity:0.2;"/>
   </g>
   <g id="patch_118">
    <path clip-path="url(#p029be81bcf)" d="M 461.219096 152.2 
L 463.730502 152.2 
L 463.730502 123.690868 
L 461.219096 123.690868 
z
" style="fill:#348abd;opacity:0.2;"/>
   </g>
   <g id="patch_119">
    <path clip-path="url(#p029be81bcf)" d="M 464.358353 152.2 
L 466.869758 152.2 
L 466.869758 119.033232 
L 464.358353 119.033232 
z
" style="fill:#348abd;opacity:0.2;"/>
   </g>
   <g id="patch_120">
    <path clip-path="url(#p029be81bcf)" d="M 467.49761 152.2 
L 470.009015 152.2 
L 470.009015 114.925169 
L 467.49761 114.925169 
z
" style="fill:#348abd;opacity:0.2;"/>
   </g>
   <g id="patch_121">
    <path clip-path="url(#p029be81bcf)" d="M 470.636867 152.2 
L 473.148272 152.2 
L 473.148272 121.313963 
L 470.636867 121.313963 
z
" style="fill:#348abd;opacity:0.2;"/>
   </g>
   <g id="patch_122">
    <path clip-path="url(#p029be81bcf)" d="M 473.776124 152.2 
L 476.287529 152.2 
L 476.287529 111.352941 
L 473.776124 111.352941 
z
" style="fill:#348abd;opacity:0.2;"/>
   </g>
   <g id="patch_123">
    <path clip-path="url(#p029be81bcf)" d="M 476.915381 152.2 
L 479.426786 152.2 
L 479.426786 111.531552 
L 476.915381 111.531552 
z
" style="fill:#348abd;opacity:0.2;"/>
   </g>
   <g id="patch_124">
    <path clip-path="url(#p029be81bcf)" d="M 480.054638 152.2 
L 482.566043 152.2 
L 482.566043 106.461735 
L 480.054638 106.461735 
z
" style="fill:#348abd;opacity:0.2;"/>
   </g>
   <g id="patch_125">
    <path clip-path="url(#p029be81bcf)" d="M 483.193895 152.2 
L 485.7053 152.2 
L 485.7053 114.224463 
L 483.193895 114.224463 
z
" style="fill:#348abd;opacity:0.2;"/>
   </g>
   <g id="patch_126">
    <path clip-path="url(#p029be81bcf)" d="M 486.333152 152.2 
L 488.844557 152.2 
L 488.844557 118.057739 
L 486.333152 118.057739 
z
" style="fill:#348abd;opacity:0.2;"/>
   </g>
   <g id="patch_127">
    <path clip-path="url(#p029be81bcf)" d="M 489.472409 152.2 
L 491.983814 152.2 
L 491.983814 104.730579 
L 489.472409 104.730579 
z
" style="fill:#348abd;opacity:0.2;"/>
   </g>
   <g id="patch_128">
    <path clip-path="url(#p029be81bcf)" d="M 492.611666 152.2 
L 495.123071 152.2 
L 495.123071 104.620664 
L 492.611666 104.620664 
z
" style="fill:#348abd;opacity:0.2;"/>
   </g>
   <g id="patch_129">
    <path clip-path="url(#p029be81bcf)" d="M 495.750923 152.2 
L 498.262328 152.2 
L 498.262328 105.802247 
L 495.750923 105.802247 
z
" style="fill:#348abd;opacity:0.2;"/>
   </g>
   <g id="patch_130">
    <path clip-path="url(#p029be81bcf)" d="M 498.890179 152.2 
L 501.401585 152.2 
L 501.401585 107.863148 
L 498.890179 107.863148 
z
" style="fill:#348abd;opacity:0.2;"/>
   </g>
   <g id="patch_131">
    <path clip-path="url(#p029be81bcf)" d="M 502.029436 152.2 
L 504.540842 152.2 
L 504.540842 112.562003 
L 502.029436 112.562003 
z
" style="fill:#348abd;opacity:0.2;"/>
   </g>
   <g id="patch_132">
    <path clip-path="url(#p029be81bcf)" d="M 505.168693 152.2 
L 507.680099 152.2 
L 507.680099 108.893599 
L 505.168693 108.893599 
z
" style="fill:#348abd;opacity:0.2;"/>
   </g>
   <g id="patch_133">
    <path clip-path="url(#p029be81bcf)" d="M 508.30795 152.2 
L 510.819356 152.2 
L 510.819356 114.128287 
L 508.30795 114.128287 
z
" style="fill:#348abd;opacity:0.2;"/>
   </g>
   <g id="patch_134">
    <path clip-path="url(#p029be81bcf)" d="M 511.447207 152.2 
L 513.958613 152.2 
L 513.958613 98.740226 
L 511.447207 98.740226 
z
" style="fill:#348abd;opacity:0.2;"/>
   </g>
   <g id="patch_135">
    <path clip-path="url(#p029be81bcf)" d="M 514.586464 152.2 
L 517.09787 152.2 
L 517.09787 98.4517 
L 514.586464 98.4517 
z
" style="fill:#348abd;opacity:0.2;"/>
   </g>
   <g id="patch_136">
    <path clip-path="url(#p029be81bcf)" d="M 517.725721 152.2 
L 520.237127 152.2 
L 520.237127 91.16985 
L 517.725721 91.16985 
z
" style="fill:#348abd;opacity:0.2;"/>
   </g>
   <g id="patch_137">
    <path clip-path="url(#p029be81bcf)" d="M 520.864978 152.2 
L 523.376384 152.2 
L 523.376384 92.488826 
L 520.864978 92.488826 
z
" style="fill:#348abd;opacity:0.2;"/>
   </g>
   <g id="patch_138">
    <path clip-path="url(#p029be81bcf)" d="M 524.004235 152.2 
L 526.515641 152.2 
L 526.515641 102.83455 
L 524.004235 102.83455 
z
" style="fill:#348abd;opacity:0.2;"/>
   </g>
   <g id="patch_139">
    <path clip-path="url(#p029be81bcf)" d="M 527.143492 152.2 
L 529.654898 152.2 
L 529.654898 104.332138 
L 527.143492 104.332138 
z
" style="fill:#348abd;opacity:0.2;"/>
   </g>
   <g id="patch_140">
    <path clip-path="url(#p029be81bcf)" d="M 530.282749 152.2 
L 532.794155 152.2 
L 532.794155 110.995718 
L 530.282749 110.995718 
z
" style="fill:#348abd;opacity:0.2;"/>
   </g>
   <g id="patch_141">
    <path clip-path="url(#p029be81bcf)" d="M 533.422006 152.2 
L 535.933412 152.2 
L 535.933412 94.508509 
L 533.422006 94.508509 
z
" style="fill:#348abd;opacity:0.2;"/>
   </g>
   <g id="patch_142">
    <path clip-path="url(#p029be81bcf)" d="M 536.561263 152.2 
L 539.072669 152.2 
L 539.072669 85.1108 
L 536.561263 85.1108 
z
" style="fill:#348abd;opacity:0.2;"/>
   </g>
   <g id="patch_143">
    <path clip-path="url(#p029be81bcf)" d="M 539.70052 152.2 
L 542.211926 152.2 
L 542.211926 86.388559 
L 539.70052 86.388559 
z
" style="fill:#348abd;opacity:0.2;"/>
   </g>
   <g id="patch_144">
    <path clip-path="url(#p029be81bcf)" d="M 542.839777 152.2 
L 545.351182 152.2 
L 545.351182 80.453164 
L 542.839777 80.453164 
z
" style="fill:#348abd;opacity:0.2;"/>
   </g>
   <g id="patch_145">
    <path clip-path="url(#p029be81bcf)" d="M 545.979034 152.2 
L 548.490439 152.2 
L 548.490439 104.194744 
L 545.979034 104.194744 
z
" style="fill:#348abd;opacity:0.2;"/>
   </g>
   <g id="patch_146">
    <path clip-path="url(#p029be81bcf)" d="M 549.118291 152.2 
L 551.629696 152.2 
L 551.629696 95.222955 
L 549.118291 95.222955 
z
" style="fill:#348abd;opacity:0.2;"/>
   </g>
   <g id="patch_147">
    <path clip-path="url(#p029be81bcf)" d="M 552.257548 152.2 
L 554.768953 152.2 
L 554.768953 105.11528 
L 552.257548 105.11528 
z
" style="fill:#348abd;opacity:0.2;"/>
   </g>
   <g id="patch_148">
    <path clip-path="url(#p029be81bcf)" d="M 555.396805 152.2 
L 557.90821 152.2 
L 557.90821 89.012773 
L 555.396805 89.012773 
z
" style="fill:#348abd;opacity:0.2;"/>
   </g>
   <g id="patch_149">
    <path clip-path="url(#p029be81bcf)" d="M 558.536062 152.2 
L 561.047467 152.2 
L 561.047467 84.465051 
L 558.536062 84.465051 
z
" style="fill:#348abd;opacity:0.2;"/>
   </g>
   <g id="patch_150">
    <path clip-path="url(#p029be81bcf)" d="M 561.675319 152.2 
L 564.186724 152.2 
L 564.186724 74.407854 
L 561.675319 74.407854 
z
" style="fill:#348abd;opacity:0.2;"/>
   </g>
   <g id="patch_151">
    <path clip-path="url(#p029be81bcf)" d="M 564.814576 152.2 
L 567.325981 152.2 
L 567.325981 83.091117 
L 564.814576 83.091117 
z
" style="fill:#348abd;opacity:0.2;"/>
   </g>
   <g id="patch_152">
    <path clip-path="url(#p029be81bcf)" d="M 567.953833 152.2 
L 570.465238 152.2 
L 570.465238 87.391531 
L 567.953833 87.391531 
z
" style="fill:#348abd;opacity:0.2;"/>
   </g>
   <g id="patch_153">
    <path clip-path="url(#p029be81bcf)" d="M 571.09309 152.2 
L 573.604495 152.2 
L 573.604495 78.790704 
L 571.09309 78.790704 
z
" style="fill:#348abd;opacity:0.2;"/>
   </g>
   <g id="patch_154">
    <path clip-path="url(#p029be81bcf)" d="M 574.232347 152.2 
L 576.743752 152.2 
L 576.743752 89.315039 
L 574.232347 89.315039 
z
" style="fill:#348abd;opacity:0.2;"/>
   </g>
   <g id="patch_155">
    <path clip-path="url(#p029be81bcf)" d="M 577.371603 152.2 
L 579.883009 152.2 
L 579.883009 65.807027 
L 577.371603 65.807027 
z
" style="fill:#348abd;opacity:0.2;"/>
   </g>
   <g id="patch_156">
    <path clip-path="url(#p029be81bcf)" d="M 580.51086 152.2 
L 583.022266 152.2 
L 583.022266 77.499206 
L 580.51086 77.499206 
z
" style="fill:#348abd;opacity:0.2;"/>
   </g>
   <g id="patch_157">
    <path clip-path="url(#p029be81bcf)" d="M 583.650117 152.2 
L 586.161523 152.2 
L 586.161523 68.335066 
L 583.650117 68.335066 
z
" style="fill:#348abd;opacity:0.2;"/>
   </g>
   <g id="patch_158">
    <path clip-path="url(#p029be81bcf)" d="M 586.789374 152.2 
L 589.30078 152.2 
L 589.30078 77.444248 
L 586.789374 77.444248 
z
" style="fill:#348abd;opacity:0.2;"/>
   </g>
   <g id="patch_159">
    <path clip-path="url(#p029be81bcf)" d="M 589.928631 152.2 
L 592.440037 152.2 
L 592.440037 91.609508 
L 589.928631 91.609508 
z
" style="fill:#348abd;opacity:0.2;"/>
   </g>
   <g id="patch_160">
    <path clip-path="url(#p029be81bcf)" d="M 593.067888 152.2 
L 595.579294 152.2 
L 595.579294 96.555671 
L 593.067888 96.555671 
z
" style="fill:#348abd;opacity:0.2;"/>
   </g>
   <g id="patch_161">
    <path clip-path="url(#p029be81bcf)" d="M 596.207145 152.2 
L 598.718551 152.2 
L 598.718551 99.921809 
L 596.207145 99.921809 
z
" style="fill:#348abd;opacity:0.2;"/>
   </g>
   <g id="patch_162">
    <path clip-path="url(#p029be81bcf)" d="M 599.346402 152.2 
L 601.857808 152.2 
L 601.857808 77.567902 
L 599.346402 77.567902 
z
" style="fill:#348abd;opacity:0.2;"/>
   </g>
   <g id="patch_163">
    <path clip-path="url(#p029be81bcf)" d="M 602.485659 152.2 
L 604.997065 152.2 
L 604.997065 74.146807 
L 602.485659 74.146807 
z
" style="fill:#348abd;opacity:0.2;"/>
   </g>
   <g id="patch_164">
    <path clip-path="url(#p029be81bcf)" d="M 605.624916 152.2 
L 608.136322 152.2 
L 608.136322 59.583106 
L 605.624916 59.583106 
z
" style="fill:#348abd;opacity:0.2;"/>
   </g>
   <g id="patch_165">
    <path clip-path="url(#p029be81bcf)" d="M 608.764173 152.2 
L 611.275579 152.2 
L 611.275579 59.596845 
L 608.764173 59.596845 
z
" style="fill:#348abd;opacity:0.2;"/>
   </g>
   <g id="patch_166">
    <path clip-path="url(#p029be81bcf)" d="M 611.90343 152.2 
L 614.414836 152.2 
L 614.414836 57.2062 
L 611.90343 57.2062 
z
" style="fill:#348abd;opacity:0.2;"/>
   </g>
   <g id="patch_167">
    <path clip-path="url(#p029be81bcf)" d="M 615.042687 152.2 
L 617.554093 152.2 
L 617.554093 87.858668 
L 615.042687 87.858668 
z
" style="fill:#348abd;opacity:0.2;"/>
   </g>
   <g id="patch_168">
    <path clip-path="url(#p029be81bcf)" d="M 618.181944 152.2 
L 620.69335 152.2 
L 620.69335 84.849753 
L 618.181944 84.849753 
z
" style="fill:#348abd;opacity:0.2;"/>
   </g>
   <g id="patch_169">
    <path clip-path="url(#p029be81bcf)" d="M 621.321201 152.2 
L 623.832607 152.2 
L 623.832607 66.219207 
L 621.321201 66.219207 
z
" style="fill:#348abd;opacity:0.2;"/>
   </g>
   <g id="patch_170">
    <path clip-path="url(#p029be81bcf)" d="M 624.460458 152.2 
L 626.971863 152.2 
L 626.971863 56.093313 
L 624.460458 56.093313 
z
" style="fill:#348abd;opacity:0.2;"/>
   </g>
   <g id="patch_171">
    <path clip-path="url(#p029be81bcf)" d="M 627.599715 152.2 
L 630.11112 152.2 
L 630.11112 52.177601 
L 627.599715 52.177601 
z
" style="fill:#348abd;opacity:0.2;"/>
   </g>
   <g id="patch_172">
    <path clip-path="url(#p029be81bcf)" d="M 630.738972 152.2 
L 633.250377 152.2 
L 633.250377 57.522205 
L 630.738972 57.522205 
z
" style="fill:#348abd;opacity:0.2;"/>
   </g>
   <g id="patch_173">
    <path clip-path="url(#p029be81bcf)" d="M 633.878229 152.2 
L 636.389634 152.2 
L 636.389634 68.472459 
L 633.878229 68.472459 
z
" style="fill:#348abd;opacity:0.2;"/>
   </g>
   <g id="patch_174">
    <path clip-path="url(#p029be81bcf)" d="M 637.017486 152.2 
L 639.528891 152.2 
L 639.528891 90.620276 
L 637.017486 90.620276 
z
" style="fill:#348abd;opacity:0.2;"/>
   </g>
   <g id="patch_175">
    <path clip-path="url(#p029be81bcf)" d="M 640.156743 152.2 
L 642.668148 152.2 
L 642.668148 87.83119 
L 640.156743 87.83119 
z
" style="fill:#348abd;opacity:0.2;"/>
   </g>
   <g id="patch_176">
    <path clip-path="url(#p029be81bcf)" d="M 643.296 152.2 
L 645.807405 152.2 
L 645.807405 55.32391 
L 643.296 55.32391 
z
" style="fill:#348abd;opacity:0.2;"/>
   </g>
   <g id="patch_177">
    <path clip-path="url(#p029be81bcf)" d="M 646.435257 152.2 
L 648.946662 152.2 
L 648.946662 67.716795 
L 646.435257 67.716795 
z
" style="fill:#348abd;opacity:0.2;"/>
   </g>
   <g id="patch_178">
    <path clip-path="url(#p029be81bcf)" d="M 649.574514 152.2 
L 652.085919 152.2 
L 652.085919 64.185785 
L 649.574514 64.185785 
z
" style="fill:#348abd;opacity:0.2;"/>
   </g>
   <g id="patch_179">
    <path clip-path="url(#p029be81bcf)" d="M 652.713771 152.2 
L 655.225176 152.2 
L 655.225176 52.493606 
L 652.713771 52.493606 
z
" style="fill:#348abd;opacity:0.2;"/>
   </g>
   <g id="patch_180">
    <path clip-path="url(#p029be81bcf)" d="M 655.853028 152.2 
L 658.364433 152.2 
L 658.364433 47.574922 
L 655.853028 47.574922 
z
" style="fill:#348abd;opacity:0.2;"/>
   </g>
   <g id="patch_181">
    <path clip-path="url(#p029be81bcf)" d="M 658.992284 152.2 
L 661.50369 152.2 
L 661.50369 79.230363 
L 658.992284 79.230363 
z
" style="fill:#348abd;opacity:0.2;"/>
   </g>
   <g id="patch_182">
    <path clip-path="url(#p029be81bcf)" d="M 662.131541 152.2 
L 664.642947 152.2 
L 664.642947 81.140131 
L 662.131541 81.140131 
z
" style="fill:#348abd;opacity:0.2;"/>
   </g>
   <g id="patch_183">
    <path clip-path="url(#p029be81bcf)" d="M 665.270798 152.2 
L 667.782204 152.2 
L 667.782204 57.961864 
L 665.270798 57.961864 
z
" style="fill:#348abd;opacity:0.2;"/>
   </g>
   <g id="patch_184">
    <path clip-path="url(#p029be81bcf)" d="M 668.410055 152.2 
L 670.921461 152.2 
L 670.921461 69.50291 
L 668.410055 69.50291 
z
" style="fill:#348abd;opacity:0.2;"/>
   </g>
   <g id="patch_185">
    <path clip-path="url(#p029be81bcf)" d="M 671.549312 152.2 
L 674.060718 152.2 
L 674.060718 36.267445 
L 671.549312 36.267445 
z
" style="fill:#348abd;opacity:0.2;"/>
   </g>
   <g id="patch_186">
    <path clip-path="url(#p029be81bcf)" d="M 674.688569 152.2 
L 677.199975 152.2 
L 677.199975 48.151974 
L 674.688569 48.151974 
z
" style="fill:#348abd;opacity:0.2;"/>
   </g>
   <g id="patch_187">
    <path clip-path="url(#p029be81bcf)" d="M 677.827826 152.2 
L 680.339232 152.2 
L 680.339232 59.445712 
L 677.827826 59.445712 
z
" style="fill:#348abd;opacity:0.2;"/>
   </g>
   <g id="patch_188">
    <path clip-path="url(#p029be81bcf)" d="M 680.967083 152.2 
L 683.478489 152.2 
L 683.478489 76.908414 
L 680.967083 76.908414 
z
" style="fill:#348abd;opacity:0.2;"/>
   </g>
   <g id="patch_189">
    <path clip-path="url(#p029be81bcf)" d="M 684.10634 152.2 
L 686.617746 152.2 
L 686.617746 83.87426 
L 684.10634 83.87426 
z
" style="fill:#348abd;opacity:0.2;"/>
   </g>
   <g id="patch_190">
    <path clip-path="url(#p029be81bcf)" d="M 687.245597 152.2 
L 689.757003 152.2 
L 689.757003 53.166834 
L 687.245597 53.166834 
z
" style="fill:#348abd;opacity:0.2;"/>
   </g>
   <g id="patch_191">
    <path clip-path="url(#p029be81bcf)" d="M 690.384854 152.2 
L 692.89626 152.2 
L 692.89626 73.171313 
L 690.384854 73.171313 
z
" style="fill:#348abd;opacity:0.2;"/>
   </g>
   <g id="patch_192">
    <path clip-path="url(#p029be81bcf)" d="M 693.524111 152.2 
L 696.035517 152.2 
L 696.035517 45.994898 
L 693.524111 45.994898 
z
" style="fill:#348abd;opacity:0.2;"/>
   </g>
   <g id="patch_193">
    <path clip-path="url(#p029be81bcf)" d="M 696.663368 152.2 
L 699.174774 152.2 
L 699.174774 35.992658 
L 696.663368 35.992658 
z
" style="fill:#348abd;opacity:0.2;"/>
   </g>
   <g id="patch_194">
    <path clip-path="url(#p029be81bcf)" d="M 699.802625 152.2 
L 702.314031 152.2 
L 702.314031 20.906862 
L 699.802625 20.906862 
z
" style="fill:#348abd;opacity:0.2;"/>
   </g>
   <g id="patch_195">
    <path clip-path="url(#p029be81bcf)" d="M 702.941882 152.2 
L 705.453287 152.2 
L 705.453287 85.522981 
L 702.941882 85.522981 
z
" style="fill:#348abd;opacity:0.2;"/>
   </g>
   <g id="patch_196">
    <path clip-path="url(#p029be81bcf)" d="M 706.081139 152.2 
L 708.592544 152.2 
L 708.592544 86.704564 
L 706.081139 86.704564 
z
" style="fill:#348abd;opacity:0.2;"/>
   </g>
   <g id="patch_197">
    <path clip-path="url(#p029be81bcf)" d="M 709.220396 152.2 
L 711.731801 152.2 
L 711.731801 67.730535 
L 709.220396 67.730535 
z
" style="fill:#348abd;opacity:0.2;"/>
   </g>
   <g id="patch_198">
    <path clip-path="url(#p029be81bcf)" d="M 712.359653 152.2 
L 714.871058 152.2 
L 714.871058 67.854189 
L 712.359653 67.854189 
z
" style="fill:#348abd;opacity:0.2;"/>
   </g>
   <g id="patch_199">
    <path clip-path="url(#p029be81bcf)" d="M 715.49891 152.2 
L 718.010315 152.2 
L 718.010315 61.657746 
L 715.49891 61.657746 
z
" style="fill:#348abd;opacity:0.2;"/>
   </g>
   <g id="patch_200">
    <path clip-path="url(#p029be81bcf)" d="M 718.638167 152.2 
L 721.149572 152.2 
L 721.149572 59.91285 
L 718.638167 59.91285 
z
" style="fill:#348abd;opacity:0.2;"/>
   </g>
   <g id="patch_201">
    <path clip-path="url(#p029be81bcf)" d="M 721.777424 152.2 
L 724.288829 152.2 
L 724.288829 62.962983 
L 721.777424 62.962983 
z
" style="fill:#348abd;opacity:0.2;"/>
   </g>
   <g id="patch_202">
    <path clip-path="url(#p029be81bcf)" d="M 724.916681 152.2 
L 727.428086 152.2 
L 727.428086 92.076646 
L 724.916681 92.076646 
z
" style="fill:#348abd;opacity:0.2;"/>
   </g>
   <g id="patch_203">
    <path clip-path="url(#p029be81bcf)" d="M 728.055938 152.2 
L 730.567343 152.2 
L 730.567343 75.836746 
L 728.055938 75.836746 
z
" style="fill:#348abd;opacity:0.2;"/>
   </g>
   <g id="patch_204">
    <path clip-path="url(#p029be81bcf)" d="M 731.195195 152.2 
L 733.7066 152.2 
L 733.7066 60.338769 
L 731.195195 60.338769 
z
" style="fill:#348abd;opacity:0.2;"/>
   </g>
   <g id="patch_205">
    <path clip-path="url(#p029be81bcf)" d="M 734.334452 152.2 
L 736.845857 152.2 
L 736.845857 71.714943 
L 734.334452 71.714943 
z
" style="fill:#348abd;opacity:0.2;"/>
   </g>
   <g id="patch_206">
    <path clip-path="url(#p029be81bcf)" d="M 737.473708 152.2 
L 739.985114 152.2 
L 739.985114 50.927321 
L 737.473708 50.927321 
z
" style="fill:#348abd;opacity:0.2;"/>
   </g>
   <g id="patch_207">
    <path clip-path="url(#p029be81bcf)" d="M 740.612965 152.2 
L 743.124371 152.2 
L 743.124371 75.012385 
L 740.612965 75.012385 
z
" style="fill:#348abd;opacity:0.2;"/>
   </g>
   <g id="patch_208">
    <path clip-path="url(#p029be81bcf)" d="M 743.752222 152.2 
L 746.263628 152.2 
L 746.263628 65.023885 
L 743.752222 65.023885 
z
" style="fill:#348abd;opacity:0.2;"/>
   </g>
   <g id="patch_209">
    <path clip-path="url(#p029be81bcf)" d="M 746.891479 152.2 
L 749.402885 152.2 
L 749.402885 91.087413 
L 746.891479 91.087413 
z
" style="fill:#348abd;opacity:0.2;"/>
   </g>
   <g id="patch_210">
    <path clip-path="url(#p029be81bcf)" d="M 750.030736 152.2 
L 752.542142 152.2 
L 752.542142 103.136815 
L 750.030736 103.136815 
z
" style="fill:#348abd;opacity:0.2;"/>
   </g>
   <g id="patch_211">
    <path clip-path="url(#p029be81bcf)" d="M 753.169993 152.2 
L 755.681399 152.2 
L 755.681399 76.551191 
L 753.169993 76.551191 
z
" style="fill:#348abd;opacity:0.2;"/>
   </g>
   <g id="patch_212">
    <path clip-path="url(#p029be81bcf)" d="M 756.30925 152.2 
L 758.820656 152.2 
L 758.820656 72.62174 
L 756.30925 72.62174 
z
" style="fill:#348abd;opacity:0.2;"/>
   </g>
   <g id="patch_213">
    <path clip-path="url(#p029be81bcf)" d="M 759.448507 152.2 
L 761.959913 152.2 
L 761.959913 59.115968 
L 759.448507 59.115968 
z
" style="fill:#348abd;opacity:0.2;"/>
   </g>
   <g id="patch_214">
    <path clip-path="url(#p029be81bcf)" d="M 762.587764 152.2 
L 765.09917 152.2 
L 765.09917 70.75319 
L 762.587764 70.75319 
z
" style="fill:#348abd;opacity:0.2;"/>
   </g>
   <g id="patch_215">
    <path clip-path="url(#p029be81bcf)" d="M 765.727021 152.2 
L 768.238427 152.2 
L 768.238427 63.141595 
L 765.727021 63.141595 
z
" style="fill:#348abd;opacity:0.2;"/>
   </g>
   <g id="patch_216">
    <path clip-path="url(#p029be81bcf)" d="M 768.866278 152.2 
L 771.377684 152.2 
L 771.377684 97.957084 
L 768.866278 97.957084 
z
" style="fill:#348abd;opacity:0.2;"/>
   </g>
   <g id="patch_217">
    <path clip-path="url(#p029be81bcf)" d="M 772.005535 152.2 
L 774.516941 152.2 
L 774.516941 103.548995 
L 772.005535 103.548995 
z
" style="fill:#348abd;opacity:0.2;"/>
   </g>
   <g id="patch_218">
    <path clip-path="url(#p029be81bcf)" d="M 775.144792 152.2 
L 777.656198 152.2 
L 777.656198 84.657402 
L 775.144792 84.657402 
z
" style="fill:#348abd;opacity:0.2;"/>
   </g>
   <g id="patch_219">
    <path clip-path="url(#p029be81bcf)" d="M 778.284049 152.2 
L 780.795455 152.2 
L 780.795455 79.834894 
L 778.284049 79.834894 
z
" style="fill:#348abd;opacity:0.2;"/>
   </g>
   <g id="line2d_35">
    <path clip-path="url(#p029be81bcf)" d="M 101.460248 152.2 
L 255.283839 152.11348 
L 274.119381 151.809382 
L 289.815666 151.401336 
L 321.208235 149.951049 
L 327.486749 149.315159 
L 340.043777 147.830532 
L 346.322291 147.300801 
L 355.740062 146.675262 
L 362.018576 145.936154 
L 368.29709 144.897748 
L 371.436347 144.201234 
L 374.575604 143.320109 
L 380.854118 141.327163 
L 383.993375 140.446635 
L 387.132632 139.71766 
L 393.411146 138.581526 
L 402.828916 136.90584 
L 412.246687 134.672819 
L 421.664458 132.30873 
L 427.942972 130.694293 
L 434.221486 129.362589 
L 440.5 127.913175 
L 446.778514 126.279831 
L 449.917771 125.392109 
L 453.057028 124.322699 
L 462.474799 120.547066 
L 471.89257 116.677498 
L 481.31034 112.734944 
L 484.449597 111.461967 
L 487.588854 110.454595 
L 490.728111 109.673975 
L 493.867368 109.226585 
L 497.006625 108.916113 
L 500.145882 108.443734 
L 503.285139 107.741061 
L 506.424396 106.581142 
L 509.563653 105.186296 
L 515.842167 102.214182 
L 518.981424 101.05353 
L 522.120681 100.038457 
L 525.259938 99.184975 
L 537.816966 95.125111 
L 553.513251 91.220225 
L 556.652508 90.201284 
L 559.791765 88.801138 
L 562.931021 86.92604 
L 569.209535 82.619503 
L 572.348792 80.731162 
L 575.488049 79.476072 
L 578.627306 78.929868 
L 581.766563 79.208418 
L 584.90582 80.174116 
L 591.184334 82.427082 
L 594.323591 82.695537 
L 597.462848 81.836907 
L 600.602105 80.077422 
L 610.019876 72.753952 
L 613.159133 70.670999 
L 616.29839 68.949383 
L 619.437647 67.708542 
L 622.576904 67.107829 
L 625.716161 67.148219 
L 628.855418 67.363179 
L 638.273189 68.415345 
L 641.412445 68.58975 
L 644.551702 68.322845 
L 647.690959 67.559035 
L 650.830216 66.343157 
L 657.10873 64.287209 
L 660.247987 63.312837 
L 666.526501 61.70169 
L 669.665758 61.338488 
L 672.805015 61.157629 
L 675.944272 61.330449 
L 679.083529 61.645084 
L 682.222786 61.589918 
L 685.362043 61.206931 
L 688.5013 60.323012 
L 691.640557 59.182428 
L 694.779814 58.222356 
L 697.919071 57.837919 
L 701.058328 58.261021 
L 704.197585 59.367508 
L 707.336842 61.244696 
L 713.615356 66.356911 
L 716.754613 68.347372 
L 719.89387 69.455437 
L 723.033126 69.535306 
L 726.172383 69.139366 
L 729.31164 69.001911 
L 732.450897 69.152253 
L 735.590154 69.945743 
L 738.729411 71.014546 
L 745.007925 74.21899 
L 748.147182 75.504763 
L 751.286439 76.48137 
L 754.425696 76.857202 
L 760.70421 77.378234 
L 763.843467 77.810987 
L 766.982724 78.744603 
L 770.121981 80.05548 
L 773.261238 82.032309 
L 776.400495 84.23766 
L 779.539752 85.529879 
L 779.539752 85.529879 
" style="fill:none;stroke:#348abd;stroke-linecap:square;stroke-width:3;"/>
   </g>
   <g id="line2d_36">
    <defs>
     <path d="M 0 3 
C 0.795609 3 1.55874 2.683901 2.12132 2.12132 
C 2.683901 1.55874 3 0.795609 3 0 
C 3 -0.795609 2.683901 -1.55874 2.12132 -2.12132 
C 1.55874 -2.683901 0.795609 -3 0 -3 
C -0.795609 -3 -1.55874 -2.683901 -2.12132 -2.12132 
C -2.683901 -1.55874 -3 -0.795609 -3 0 
C -3 0.795609 -2.683901 1.55874 -2.12132 2.12132 
C -1.55874 2.683901 -0.795609 3 0 3 
z
" id="m274c635100" style="stroke:#e24a33;stroke-opacity:0.001;"/>
    </defs>
    <g clip-path="url(#p029be81bcf)">
     <use style="fill:#e24a33;fill-opacity:0.001;stroke:#e24a33;stroke-opacity:0.001;" x="440.5" xlink:href="#m274c635100" y="83.271103"/>
    </g>
   </g>
   <g id="patch_220">
    <path d="M 66.175 152.2 
L 66.175 14.342205 
" style="fill:none;stroke:#ffffff;stroke-linecap:square;stroke-linejoin:miter;"/>
   </g>
   <g id="patch_221">
    <path d="M 814.825 152.2 
L 814.825 14.342205 
" style="fill:none;stroke:#ffffff;stroke-linecap:square;stroke-linejoin:miter;"/>
   </g>
   <g id="patch_222">
    <path d="M 66.175 152.2 
L 814.825 152.2 
" style="fill:none;stroke:#ffffff;stroke-linecap:square;stroke-linejoin:miter;"/>
   </g>
   <g id="patch_223">
    <path d="M 66.175 14.342205 
L 814.825 14.342205 
" style="fill:none;stroke:#ffffff;stroke-linecap:square;stroke-linejoin:miter;"/>
   </g>
   <g id="legend_1">
    <g id="patch_224">
     <path d="M 73.175 66.37658 
L 268.8625 66.37658 
Q 270.8625 66.37658 270.8625 64.37658 
L 270.8625 21.342205 
Q 270.8625 19.342205 268.8625 19.342205 
L 73.175 19.342205 
Q 71.175 19.342205 71.175 21.342205 
L 71.175 64.37658 
Q 71.175 66.37658 73.175 66.37658 
z
" style="fill:#e5e5e5;opacity:0.8;stroke:#cccccc;stroke-linejoin:miter;stroke-width:0.5;"/>
    </g>
    <g id="patch_225">
     <path d="M 75.175 30.940643 
L 95.175 30.940643 
L 95.175 23.940643 
L 75.175 23.940643 
z
" style="fill:#348abd;opacity:0.2;"/>
    </g>
    <g id="text_22">
     <!-- Mexico new cases -->
     <defs>
      <path d="M 9.8125 72.90625 
L 24.515625 72.90625 
L 43.109375 23.296875 
L 61.8125 72.90625 
L 76.515625 72.90625 
L 76.515625 0 
L 66.890625 0 
L 66.890625 64.015625 
L 48.09375 14.015625 
L 38.1875 14.015625 
L 19.390625 64.015625 
L 19.390625 0 
L 9.8125 0 
z
" id="DejaVuSans-77"/>
      <path d="M 54.890625 54.6875 
L 35.109375 28.078125 
L 55.90625 0 
L 45.3125 0 
L 29.390625 21.484375 
L 13.484375 0 
L 2.875 0 
L 24.125 28.609375 
L 4.6875 54.6875 
L 15.28125 54.6875 
L 29.78125 35.203125 
L 44.28125 54.6875 
z
" id="DejaVuSans-120"/>
      <path d="M 30.609375 48.390625 
Q 23.390625 48.390625 19.1875 42.75 
Q 14.984375 37.109375 14.984375 27.296875 
Q 14.984375 17.484375 19.15625 11.84375 
Q 23.34375 6.203125 30.609375 6.203125 
Q 37.796875 6.203125 41.984375 11.859375 
Q 46.1875 17.53125 46.1875 27.296875 
Q 46.1875 37.015625 41.984375 42.703125 
Q 37.796875 48.390625 30.609375 48.390625 
z
M 30.609375 56 
Q 42.328125 56 49.015625 48.375 
Q 55.71875 40.765625 55.71875 27.296875 
Q 55.71875 13.875 49.015625 6.21875 
Q 42.328125 -1.421875 30.609375 -1.421875 
Q 18.84375 -1.421875 12.171875 6.21875 
Q 5.515625 13.875 5.515625 27.296875 
Q 5.515625 40.765625 12.171875 48.375 
Q 18.84375 56 30.609375 56 
z
" id="DejaVuSans-111"/>
      <path d="M 4.203125 54.6875 
L 13.1875 54.6875 
L 24.421875 12.015625 
L 35.59375 54.6875 
L 46.1875 54.6875 
L 57.421875 12.015625 
L 68.609375 54.6875 
L 77.59375 54.6875 
L 63.28125 0 
L 52.6875 0 
L 40.921875 44.828125 
L 29.109375 0 
L 18.5 0 
z
" id="DejaVuSans-119"/>
      <path d="M 44.28125 53.078125 
L 44.28125 44.578125 
Q 40.484375 46.53125 36.375 47.5 
Q 32.28125 48.484375 27.875 48.484375 
Q 21.1875 48.484375 17.84375 46.4375 
Q 14.5 44.390625 14.5 40.28125 
Q 14.5 37.15625 16.890625 35.375 
Q 19.28125 33.59375 26.515625 31.984375 
L 29.59375 31.296875 
Q 39.15625 29.25 43.1875 25.515625 
Q 47.21875 21.78125 47.21875 15.09375 
Q 47.21875 7.46875 41.1875 3.015625 
Q 35.15625 -1.421875 24.609375 -1.421875 
Q 20.21875 -1.421875 15.453125 -0.5625 
Q 10.6875 0.296875 5.421875 2 
L 5.421875 11.28125 
Q 10.40625 8.6875 15.234375 7.390625 
Q 20.0625 6.109375 24.8125 6.109375 
Q 31.15625 6.109375 34.5625 8.28125 
Q 37.984375 10.453125 37.984375 14.40625 
Q 37.984375 18.0625 35.515625 20.015625 
Q 33.0625 21.96875 24.703125 23.78125 
L 21.578125 24.515625 
Q 13.234375 26.265625 9.515625 29.90625 
Q 5.8125 33.546875 5.8125 39.890625 
Q 5.8125 47.609375 11.28125 51.796875 
Q 16.75 56 26.8125 56 
Q 31.78125 56 36.171875 55.265625 
Q 40.578125 54.546875 44.28125 53.078125 
z
" id="DejaVuSans-115"/>
     </defs>
     <g transform="translate(103.175 30.940643)scale(0.1 -0.1)">
      <use xlink:href="#DejaVuSans-77"/>
      <use x="86.279297" xlink:href="#DejaVuSans-101"/>
      <use x="146.052734" xlink:href="#DejaVuSans-120"/>
      <use x="205.232422" xlink:href="#DejaVuSans-105"/>
      <use x="233.015625" xlink:href="#DejaVuSans-99"/>
      <use x="287.996094" xlink:href="#DejaVuSans-111"/>
      <use x="349.177734" xlink:href="#DejaVuSans-32"/>
      <use x="380.964844" xlink:href="#DejaVuSans-110"/>
      <use x="444.34375" xlink:href="#DejaVuSans-101"/>
      <use x="505.867188" xlink:href="#DejaVuSans-119"/>
      <use x="587.654297" xlink:href="#DejaVuSans-32"/>
      <use x="619.441406" xlink:href="#DejaVuSans-99"/>
      <use x="674.421875" xlink:href="#DejaVuSans-97"/>
      <use x="735.701172" xlink:href="#DejaVuSans-115"/>
      <use x="787.800781" xlink:href="#DejaVuSans-101"/>
      <use x="849.324219" xlink:href="#DejaVuSans-115"/>
     </g>
    </g>
    <g id="line2d_37">
     <path d="M 75.175 42.118768 
L 95.175 42.118768 
" style="fill:none;stroke:#348abd;stroke-linecap:square;stroke-width:3;"/>
    </g>
    <g id="line2d_38"/>
    <g id="text_23">
     <!-- Mexico new cases (rolling mean) -->
     <defs>
      <path d="M 31 75.875 
Q 24.46875 64.65625 21.28125 53.65625 
Q 18.109375 42.671875 18.109375 31.390625 
Q 18.109375 20.125 21.3125 9.0625 
Q 24.515625 -2 31 -13.1875 
L 23.1875 -13.1875 
Q 15.875 -1.703125 12.234375 9.375 
Q 8.59375 20.453125 8.59375 31.390625 
Q 8.59375 42.28125 12.203125 53.3125 
Q 15.828125 64.359375 23.1875 75.875 
z
" id="DejaVuSans-40"/>
      <path d="M 41.109375 46.296875 
Q 39.59375 47.171875 37.8125 47.578125 
Q 36.03125 48 33.890625 48 
Q 26.265625 48 22.1875 43.046875 
Q 18.109375 38.09375 18.109375 28.8125 
L 18.109375 0 
L 9.078125 0 
L 9.078125 54.6875 
L 18.109375 54.6875 
L 18.109375 46.1875 
Q 20.953125 51.171875 25.484375 53.578125 
Q 30.03125 56 36.53125 56 
Q 37.453125 56 38.578125 55.875 
Q 39.703125 55.765625 41.0625 55.515625 
z
" id="DejaVuSans-114"/>
      <path d="M 52 44.1875 
Q 55.375 50.25 60.0625 53.125 
Q 64.75 56 71.09375 56 
Q 79.640625 56 84.28125 50.015625 
Q 88.921875 44.046875 88.921875 33.015625 
L 88.921875 0 
L 79.890625 0 
L 79.890625 32.71875 
Q 79.890625 40.578125 77.09375 44.375 
Q 74.3125 48.1875 68.609375 48.1875 
Q 61.625 48.1875 57.5625 43.546875 
Q 53.515625 38.921875 53.515625 30.90625 
L 53.515625 0 
L 44.484375 0 
L 44.484375 32.71875 
Q 44.484375 40.625 41.703125 44.40625 
Q 38.921875 48.1875 33.109375 48.1875 
Q 26.21875 48.1875 22.15625 43.53125 
Q 18.109375 38.875 18.109375 30.90625 
L 18.109375 0 
L 9.078125 0 
L 9.078125 54.6875 
L 18.109375 54.6875 
L 18.109375 46.1875 
Q 21.1875 51.21875 25.484375 53.609375 
Q 29.78125 56 35.6875 56 
Q 41.65625 56 45.828125 52.96875 
Q 50 49.953125 52 44.1875 
z
" id="DejaVuSans-109"/>
      <path d="M 8.015625 75.875 
L 15.828125 75.875 
Q 23.140625 64.359375 26.78125 53.3125 
Q 30.421875 42.28125 30.421875 31.390625 
Q 30.421875 20.453125 26.78125 9.375 
Q 23.140625 -1.703125 15.828125 -13.1875 
L 8.015625 -13.1875 
Q 14.5 -2 17.703125 9.0625 
Q 20.90625 20.125 20.90625 31.390625 
Q 20.90625 42.671875 17.703125 53.65625 
Q 14.5 64.65625 8.015625 75.875 
z
" id="DejaVuSans-41"/>
     </defs>
     <g transform="translate(103.175 45.618768)scale(0.1 -0.1)">
      <use xlink:href="#DejaVuSans-77"/>
      <use x="86.279297" xlink:href="#DejaVuSans-101"/>
      <use x="146.052734" xlink:href="#DejaVuSans-120"/>
      <use x="205.232422" xlink:href="#DejaVuSans-105"/>
      <use x="233.015625" xlink:href="#DejaVuSans-99"/>
      <use x="287.996094" xlink:href="#DejaVuSans-111"/>
      <use x="349.177734" xlink:href="#DejaVuSans-32"/>
      <use x="380.964844" xlink:href="#DejaVuSans-110"/>
      <use x="444.34375" xlink:href="#DejaVuSans-101"/>
      <use x="505.867188" xlink:href="#DejaVuSans-119"/>
      <use x="587.654297" xlink:href="#DejaVuSans-32"/>
      <use x="619.441406" xlink:href="#DejaVuSans-99"/>
      <use x="674.421875" xlink:href="#DejaVuSans-97"/>
      <use x="735.701172" xlink:href="#DejaVuSans-115"/>
      <use x="787.800781" xlink:href="#DejaVuSans-101"/>
      <use x="849.324219" xlink:href="#DejaVuSans-115"/>
      <use x="901.423828" xlink:href="#DejaVuSans-32"/>
      <use x="933.210938" xlink:href="#DejaVuSans-40"/>
      <use x="972.224609" xlink:href="#DejaVuSans-114"/>
      <use x="1011.087891" xlink:href="#DejaVuSans-111"/>
      <use x="1072.269531" xlink:href="#DejaVuSans-108"/>
      <use x="1100.052734" xlink:href="#DejaVuSans-108"/>
      <use x="1127.835938" xlink:href="#DejaVuSans-105"/>
      <use x="1155.619141" xlink:href="#DejaVuSans-110"/>
      <use x="1218.998047" xlink:href="#DejaVuSans-103"/>
      <use x="1282.474609" xlink:href="#DejaVuSans-32"/>
      <use x="1314.261719" xlink:href="#DejaVuSans-109"/>
      <use x="1411.673828" xlink:href="#DejaVuSans-101"/>
      <use x="1473.197266" xlink:href="#DejaVuSans-97"/>
      <use x="1534.476562" xlink:href="#DejaVuSans-110"/>
      <use x="1597.855469" xlink:href="#DejaVuSans-41"/>
     </g>
    </g>
    <g id="line2d_39"/>
    <g id="line2d_40">
     <g>
      <use style="fill:#e24a33;fill-opacity:0.001;stroke:#e24a33;stroke-opacity:0.001;" x="85.175" xlink:href="#m274c635100" y="56.796893"/>
     </g>
    </g>
    <g id="text_24">
     <!-- [last updated: 27/08/2020] -->
     <defs>
      <path d="M 8.59375 75.984375 
L 29.296875 75.984375 
L 29.296875 69 
L 17.578125 69 
L 17.578125 -6.203125 
L 29.296875 -6.203125 
L 29.296875 -13.1875 
L 8.59375 -13.1875 
z
" id="DejaVuSans-91"/>
      <path d="M 18.3125 70.21875 
L 18.3125 54.6875 
L 36.8125 54.6875 
L 36.8125 47.703125 
L 18.3125 47.703125 
L 18.3125 18.015625 
Q 18.3125 11.328125 20.140625 9.421875 
Q 21.96875 7.515625 27.59375 7.515625 
L 36.8125 7.515625 
L 36.8125 0 
L 27.59375 0 
Q 17.1875 0 13.234375 3.875 
Q 9.28125 7.765625 9.28125 18.015625 
L 9.28125 47.703125 
L 2.6875 47.703125 
L 2.6875 54.6875 
L 9.28125 54.6875 
L 9.28125 70.21875 
z
" id="DejaVuSans-116"/>
      <path d="M 8.5 21.578125 
L 8.5 54.6875 
L 17.484375 54.6875 
L 17.484375 21.921875 
Q 17.484375 14.15625 20.5 10.265625 
Q 23.53125 6.390625 29.59375 6.390625 
Q 36.859375 6.390625 41.078125 11.03125 
Q 45.3125 15.671875 45.3125 23.6875 
L 45.3125 54.6875 
L 54.296875 54.6875 
L 54.296875 0 
L 45.3125 0 
L 45.3125 8.40625 
Q 42.046875 3.421875 37.71875 1 
Q 33.40625 -1.421875 27.6875 -1.421875 
Q 18.265625 -1.421875 13.375 4.4375 
Q 8.5 10.296875 8.5 21.578125 
z
M 31.109375 56 
z
" id="DejaVuSans-117"/>
      <path d="M 18.109375 8.203125 
L 18.109375 -20.796875 
L 9.078125 -20.796875 
L 9.078125 54.6875 
L 18.109375 54.6875 
L 18.109375 46.390625 
Q 20.953125 51.265625 25.265625 53.625 
Q 29.59375 56 35.59375 56 
Q 45.5625 56 51.78125 48.09375 
Q 58.015625 40.1875 58.015625 27.296875 
Q 58.015625 14.40625 51.78125 6.484375 
Q 45.5625 -1.421875 35.59375 -1.421875 
Q 29.59375 -1.421875 25.265625 0.953125 
Q 20.953125 3.328125 18.109375 8.203125 
z
M 48.6875 27.296875 
Q 48.6875 37.203125 44.609375 42.84375 
Q 40.53125 48.484375 33.40625 48.484375 
Q 26.265625 48.484375 22.1875 42.84375 
Q 18.109375 37.203125 18.109375 27.296875 
Q 18.109375 17.390625 22.1875 11.75 
Q 26.265625 6.109375 33.40625 6.109375 
Q 40.53125 6.109375 44.609375 11.75 
Q 48.6875 17.390625 48.6875 27.296875 
z
" id="DejaVuSans-112"/>
      <path d="M 11.71875 12.40625 
L 22.015625 12.40625 
L 22.015625 0 
L 11.71875 0 
z
M 11.71875 51.703125 
L 22.015625 51.703125 
L 22.015625 39.3125 
L 11.71875 39.3125 
z
" id="DejaVuSans-58"/>
      <path d="M 25.390625 72.90625 
L 33.6875 72.90625 
L 8.296875 -9.28125 
L 0 -9.28125 
z
" id="DejaVuSans-47"/>
      <path d="M 30.421875 75.984375 
L 30.421875 -13.1875 
L 9.71875 -13.1875 
L 9.71875 -6.203125 
L 21.390625 -6.203125 
L 21.390625 69 
L 9.71875 69 
L 9.71875 75.984375 
z
" id="DejaVuSans-93"/>
     </defs>
     <g transform="translate(103.175 60.296893)scale(0.1 -0.1)">
      <use xlink:href="#DejaVuSans-91"/>
      <use x="39.013672" xlink:href="#DejaVuSans-108"/>
      <use x="66.796875" xlink:href="#DejaVuSans-97"/>
      <use x="128.076172" xlink:href="#DejaVuSans-115"/>
      <use x="180.175781" xlink:href="#DejaVuSans-116"/>
      <use x="219.384766" xlink:href="#DejaVuSans-32"/>
      <use x="251.171875" xlink:href="#DejaVuSans-117"/>
      <use x="314.550781" xlink:href="#DejaVuSans-112"/>
      <use x="378.027344" xlink:href="#DejaVuSans-100"/>
      <use x="441.503906" xlink:href="#DejaVuSans-97"/>
      <use x="502.783203" xlink:href="#DejaVuSans-116"/>
      <use x="541.992188" xlink:href="#DejaVuSans-101"/>
      <use x="603.515625" xlink:href="#DejaVuSans-100"/>
      <use x="666.992188" xlink:href="#DejaVuSans-58"/>
      <use x="700.683594" xlink:href="#DejaVuSans-32"/>
      <use x="732.470703" xlink:href="#DejaVuSans-50"/>
      <use x="796.09375" xlink:href="#DejaVuSans-55"/>
      <use x="859.716797" xlink:href="#DejaVuSans-47"/>
      <use x="893.408203" xlink:href="#DejaVuSans-48"/>
      <use x="957.03125" xlink:href="#DejaVuSans-56"/>
      <use x="1020.654297" xlink:href="#DejaVuSans-47"/>
      <use x="1054.345703" xlink:href="#DejaVuSans-50"/>
      <use x="1117.96875" xlink:href="#DejaVuSans-48"/>
      <use x="1181.591797" xlink:href="#DejaVuSans-50"/>
      <use x="1245.214844" xlink:href="#DejaVuSans-48"/>
      <use x="1308.837891" xlink:href="#DejaVuSans-93"/>
     </g>
    </g>
   </g>
  </g>
 </g>
 <defs>
  <clipPath id="p029be81bcf">
   <rect height="137.857795" width="748.65" x="66.175" y="14.342205"/>
  </clipPath>
 </defs>
</svg>
