<?xml version="1.0" encoding="utf-8" standalone="no"?>
<!DOCTYPE svg PUBLIC "-//W3C//DTD SVG 1.1//EN"
  "http://www.w3.org/Graphics/SVG/1.1/DTD/svg11.dtd">
<svg height="432pt" version="1.1" viewBox="0 0 720 432" width="720pt" xmlns="http://www.w3.org/2000/svg" xmlns:xlink="http://www.w3.org/1999/xlink">
 <metadata>
  <rdf:RDF xmlns:cc="http://creativecommons.org/ns#" xmlns:dc="http://purl.org/dc/elements/1.1/" xmlns:rdf="http://www.w3.org/1999/02/22-rdf-syntax-ns#">
   <cc:Work>
    <dc:type rdf:resource="http://purl.org/dc/dcmitype/StillImage"/>
    <dc:date>2021-03-30T21:06:43.040629</dc:date>
    <dc:format>image/svg+xml</dc:format>
    <dc:creator>
     <cc:Agent>
      <dc:title>Matplotlib v3.4.0, https://matplotlib.org/</dc:title>
     </cc:Agent>
    </dc:creator>
   </cc:Work>
  </rdf:RDF>
 </metadata>
 <defs>
  <style type="text/css">*{stroke-linecap:butt;stroke-linejoin:round;}</style>
 </defs>
 <g id="figure_1">
  <g id="patch_1">
   <path d="M 0 432 
L 720 432 
L 720 0 
L 0 0 
z
" style="fill:#ffffff;"/>
  </g>
  <g id="axes_1">
   <g id="patch_2">
    <path d="M 90 200.094545 
L 648 200.094545 
L 648 51.84 
L 90 51.84 
z
" style="fill:#e5e5e5;"/>
   </g>
   <g id="matplotlib.axis_1">
    <g id="xtick_1">
     <g id="line2d_1">
      <path clip-path="url(#p962ffa196d)" d="M 156.846219 200.094545 
L 156.846219 51.84 
" style="fill:none;stroke:#ffffff;stroke-linecap:square;stroke-width:0.8;"/>
     </g>
     <g id="line2d_2">
      <defs>
       <path d="M 0 0 
L 0 3.5 
" id="m4047ab3b47" style="stroke:#555555;stroke-width:0.8;"/>
      </defs>
      <g>
       <use style="fill:#555555;stroke:#555555;stroke-width:0.8;" x="156.846219" xlink:href="#m4047ab3b47" y="200.094545"/>
      </g>
     </g>
     <g id="text_1">
      <text style="fill:#555555;font-family:DejaVu Sans;font-size:10px;font-stretch:normal;font-style:normal;font-weight:normal;text-anchor:middle;" transform="rotate(-0, 156.846219, 214.692983)" x="156.846219" y="214.692983">2020-03</text>
     </g>
    </g>
    <g id="xtick_2">
     <g id="line2d_3">
      <path clip-path="url(#p962ffa196d)" d="M 229.144435 200.094545 
L 229.144435 51.84 
" style="fill:none;stroke:#ffffff;stroke-linecap:square;stroke-width:0.8;"/>
     </g>
     <g id="line2d_4">
      <g>
       <use style="fill:#555555;stroke:#555555;stroke-width:0.8;" x="229.144435" xlink:href="#m4047ab3b47" y="200.094545"/>
      </g>
     </g>
     <g id="text_2">
      <text style="fill:#555555;font-family:DejaVu Sans;font-size:10px;font-stretch:normal;font-style:normal;font-weight:normal;text-anchor:middle;" transform="rotate(-0, 229.144435, 214.692983)" x="229.144435" y="214.692983">2020-05</text>
     </g>
    </g>
    <g id="xtick_3">
     <g id="line2d_5">
      <path clip-path="url(#p962ffa196d)" d="M 301.442651 200.094545 
L 301.442651 51.84 
" style="fill:none;stroke:#ffffff;stroke-linecap:square;stroke-width:0.8;"/>
     </g>
     <g id="line2d_6">
      <g>
       <use style="fill:#555555;stroke:#555555;stroke-width:0.8;" x="301.442651" xlink:href="#m4047ab3b47" y="200.094545"/>
      </g>
     </g>
     <g id="text_3">
      <text style="fill:#555555;font-family:DejaVu Sans;font-size:10px;font-stretch:normal;font-style:normal;font-weight:normal;text-anchor:middle;" transform="rotate(-0, 301.442651, 214.692983)" x="301.442651" y="214.692983">2020-07</text>
     </g>
    </g>
    <g id="xtick_4">
     <g id="line2d_7">
      <path clip-path="url(#p962ffa196d)" d="M 374.926083 200.094545 
L 374.926083 51.84 
" style="fill:none;stroke:#ffffff;stroke-linecap:square;stroke-width:0.8;"/>
     </g>
     <g id="line2d_8">
      <g>
       <use style="fill:#555555;stroke:#555555;stroke-width:0.8;" x="374.926083" xlink:href="#m4047ab3b47" y="200.094545"/>
      </g>
     </g>
     <g id="text_4">
      <text style="fill:#555555;font-family:DejaVu Sans;font-size:10px;font-stretch:normal;font-style:normal;font-weight:normal;text-anchor:middle;" transform="rotate(-0, 374.926083, 214.692983)" x="374.926083" y="214.692983">2020-09</text>
     </g>
    </g>
    <g id="xtick_5">
     <g id="line2d_9">
      <path clip-path="url(#p962ffa196d)" d="M 447.224299 200.094545 
L 447.224299 51.84 
" style="fill:none;stroke:#ffffff;stroke-linecap:square;stroke-width:0.8;"/>
     </g>
     <g id="line2d_10">
      <g>
       <use style="fill:#555555;stroke:#555555;stroke-width:0.8;" x="447.224299" xlink:href="#m4047ab3b47" y="200.094545"/>
      </g>
     </g>
     <g id="text_5">
      <text style="fill:#555555;font-family:DejaVu Sans;font-size:10px;font-stretch:normal;font-style:normal;font-weight:normal;text-anchor:middle;" transform="rotate(-0, 447.224299, 214.692983)" x="447.224299" y="214.692983">2020-11</text>
     </g>
    </g>
    <g id="xtick_6">
     <g id="line2d_11">
      <path clip-path="url(#p962ffa196d)" d="M 519.522515 200.094545 
L 519.522515 51.84 
" style="fill:none;stroke:#ffffff;stroke-linecap:square;stroke-width:0.8;"/>
     </g>
     <g id="line2d_12">
      <g>
       <use style="fill:#555555;stroke:#555555;stroke-width:0.8;" x="519.522515" xlink:href="#m4047ab3b47" y="200.094545"/>
      </g>
     </g>
     <g id="text_6">
      <text style="fill:#555555;font-family:DejaVu Sans;font-size:10px;font-stretch:normal;font-style:normal;font-weight:normal;text-anchor:middle;" transform="rotate(-0, 519.522515, 214.692983)" x="519.522515" y="214.692983">2021-01</text>
     </g>
    </g>
    <g id="xtick_7">
     <g id="line2d_13">
      <path clip-path="url(#p962ffa196d)" d="M 589.450297 200.094545 
L 589.450297 51.84 
" style="fill:none;stroke:#ffffff;stroke-linecap:square;stroke-width:0.8;"/>
     </g>
     <g id="line2d_14">
      <g>
       <use style="fill:#555555;stroke:#555555;stroke-width:0.8;" x="589.450297" xlink:href="#m4047ab3b47" y="200.094545"/>
      </g>
     </g>
     <g id="text_7">
      <text style="fill:#555555;font-family:DejaVu Sans;font-size:10px;font-stretch:normal;font-style:normal;font-weight:normal;text-anchor:middle;" transform="rotate(-0, 589.450297, 214.692983)" x="589.450297" y="214.692983">2021-03</text>
     </g>
    </g>
   </g>
   <g id="matplotlib.axis_2">
    <g id="ytick_1">
     <g id="line2d_15">
      <path clip-path="url(#p962ffa196d)" d="M 90 164.389375 
L 648 164.389375 
" style="fill:none;stroke:#ffffff;stroke-linecap:square;stroke-width:0.8;"/>
     </g>
     <g id="line2d_16">
      <defs>
       <path d="M 0 0 
L -3.5 0 
" id="m95551cf262" style="stroke:#555555;stroke-width:0.8;"/>
      </defs>
      <g>
       <use style="fill:#555555;stroke:#555555;stroke-width:0.8;" x="90" xlink:href="#m95551cf262" y="164.389375"/>
      </g>
     </g>
     <g id="line2d_17">
      <defs>
       <path d="M 0 0 
L 3.5 0 
" id="mc904fc953e" style="stroke:#555555;stroke-width:0.8;"/>
      </defs>
      <g>
       <use style="fill:#555555;stroke:#555555;stroke-width:0.8;" x="648" xlink:href="#mc904fc953e" y="164.389375"/>
      </g>
     </g>
     <g id="text_8">
      <text style="fill:#555555;font-family:DejaVu Sans;font-size:10px;font-stretch:normal;font-style:normal;font-weight:normal;text-anchor:end;" transform="rotate(-0, 83, 168.188594)" x="83" y="168.188594">0.001</text>
     </g>
     <g id="text_9">
      <text style="fill:#555555;font-family:DejaVu Sans;font-size:10px;font-stretch:normal;font-style:normal;font-weight:normal;text-anchor:start;" transform="rotate(-0, 655, 168.188594)" x="655" y="168.188594">0.001</text>
     </g>
    </g>
    <g id="ytick_2">
     <g id="line2d_18">
      <path clip-path="url(#p962ffa196d)" d="M 90 121.882756 
L 648 121.882756 
" style="fill:none;stroke:#ffffff;stroke-linecap:square;stroke-width:0.8;"/>
     </g>
     <g id="line2d_19">
      <g>
       <use style="fill:#555555;stroke:#555555;stroke-width:0.8;" x="90" xlink:href="#m95551cf262" y="121.882756"/>
      </g>
     </g>
     <g id="line2d_20">
      <g>
       <use style="fill:#555555;stroke:#555555;stroke-width:0.8;" x="648" xlink:href="#mc904fc953e" y="121.882756"/>
      </g>
     </g>
     <g id="text_10">
      <text style="fill:#555555;font-family:DejaVu Sans;font-size:10px;font-stretch:normal;font-style:normal;font-weight:normal;text-anchor:end;" transform="rotate(-0, 83, 125.681975)" x="83" y="125.681975">0.1</text>
     </g>
     <g id="text_11">
      <text style="fill:#555555;font-family:DejaVu Sans;font-size:10px;font-stretch:normal;font-style:normal;font-weight:normal;text-anchor:start;" transform="rotate(-0, 655, 125.681975)" x="655" y="125.681975">0.1</text>
     </g>
    </g>
    <g id="ytick_3">
     <g id="line2d_21">
      <path clip-path="url(#p962ffa196d)" d="M 90 79.376136 
L 648 79.376136 
" style="fill:none;stroke:#ffffff;stroke-linecap:square;stroke-width:0.8;"/>
     </g>
     <g id="line2d_22">
      <g>
       <use style="fill:#555555;stroke:#555555;stroke-width:0.8;" x="90" xlink:href="#m95551cf262" y="79.376136"/>
      </g>
     </g>
     <g id="line2d_23">
      <g>
       <use style="fill:#555555;stroke:#555555;stroke-width:0.8;" x="648" xlink:href="#mc904fc953e" y="79.376136"/>
      </g>
     </g>
     <g id="text_12">
      <text style="fill:#555555;font-family:DejaVu Sans;font-size:10px;font-stretch:normal;font-style:normal;font-weight:normal;text-anchor:end;" transform="rotate(-0, 83, 83.175355)" x="83" y="83.175355">10</text>
     </g>
     <g id="text_13">
      <text style="fill:#555555;font-family:DejaVu Sans;font-size:10px;font-stretch:normal;font-style:normal;font-weight:normal;text-anchor:start;" transform="rotate(-0, 655, 83.175355)" x="655" y="83.175355">10</text>
     </g>
    </g>
    <g id="text_14">
     <text style="fill:#555555;font-family:DejaVu Sans;font-size:12px;font-stretch:normal;font-style:normal;font-weight:normal;" transform="translate(21.0015 173.472273)rotate(-90)">daily new cases</text>
     <text style="fill:#555555;font-family:DejaVu Sans;font-size:12px;font-stretch:normal;font-style:normal;font-weight:normal;" transform="translate(34.438875 175.47571)rotate(-90)">per 100K people</text>
     <text style="fill:#555555;font-family:DejaVu Sans;font-size:12px;font-stretch:normal;font-style:normal;font-weight:normal;" transform="translate(47.87625 187.112898)rotate(-90)">(rolling 7-day mean)</text>
    </g>
   </g>
   <g id="line2d_24">
    <path clip-path="url(#p962ffa196d)" d="M 115.363636 166.043588 
L 116.548853 166.043588 
L 117.73407 155.903182 
L 118.919286 154.930684 
L 120.104503 153.24782 
L 121.28972 154.050952 
L 122.474936 153.24782 
L 124.84537 149.006247 
L 126.030586 152.509011 
L 127.215803 153.24782 
L 128.40102 154.930684 
L 129.586236 153.24782 
L 130.771453 153.24782 
L 131.956669 155.903182 
L 133.141886 161.328568 
L 134.327103 163.388226 
L 136.697536 163.388226 
L 137.882753 166.043588 
L 140.253186 166.043588 
L 141.438403 136.21048 
L 143.808836 120.766945 
L 146.179269 114.449175 
L 147.364486 112.936458 
L 148.549703 110.513283 
L 149.734919 107.734925 
L 152.105353 103.198223 
L 153.290569 101.880319 
L 154.475786 100.855545 
L 155.661003 99.158197 
L 156.846219 98.83286 
L 159.216653 99.055698 
L 161.587086 100.657375 
L 162.772302 101.85385 
L 163.957519 104.628428 
L 165.142736 105.427594 
L 166.327952 107.096627 
L 167.513169 109.411127 
L 168.698386 112.01778 
L 169.883602 113.94589 
L 171.068819 114.981492 
L 172.254036 114.40331 
L 173.439252 116.287366 
L 174.624469 115.769139 
L 175.809686 116.079314 
L 176.994902 115.546398 
L 178.180119 114.495268 
L 179.365336 115.392344 
L 180.550552 115.494761 
L 181.735769 115.405084 
L 182.920986 116.03826 
L 185.291419 115.997388 
L 186.476636 116.806701 
L 187.661852 115.716244 
L 188.847069 115.091741 
L 190.032285 115.079426 
L 191.217502 115.265901 
L 192.402719 115.328906 
L 193.587935 116.010992 
L 194.773152 116.343648 
L 195.958369 116.791874 
L 197.143585 118.026511 
L 199.514019 119.856187 
L 200.699235 121.162751 
L 203.069669 124.340101 
L 205.440102 125.869845 
L 206.625319 126.961959 
L 207.810535 127.752938 
L 208.995752 127.999091 
L 210.180969 128.618107 
L 211.366185 129.996593 
L 212.551402 130.77161 
L 214.921835 133.404541 
L 216.107052 134.150821 
L 217.292268 135.397233 
L 218.477485 136.332736 
L 219.662702 136.089822 
L 220.847918 135.970721 
L 222.033135 135.970721 
L 223.218352 136.838627 
L 225.588785 138.089738 
L 226.774002 137.653585 
L 227.959218 137.942052 
L 229.144435 139.713243 
L 230.329652 141.047756 
L 231.514868 141.047756 
L 232.700085 140.452053 
L 233.885302 138.392394 
L 236.255735 132.967009 
L 237.440952 131.114779 
L 239.811385 128.200852 
L 240.996602 127.465966 
L 242.181818 127.418992 
L 245.737468 130.440743 
L 246.922685 130.058749 
L 248.107901 131.184971 
L 249.293118 131.691854 
L 250.478335 131.398808 
L 251.663551 130.57167 
L 252.848768 130.505974 
L 255.219201 129.632196 
L 256.404418 126.316227 
L 257.589635 124.857817 
L 258.774851 124.306597 
L 259.960068 124.239953 
L 262.330501 123.05737 
L 263.515718 122.798159 
L 264.700935 124.010416 
L 265.886151 124.647233 
L 267.071368 124.239953 
L 268.256585 123.294055 
L 270.627018 123.204585 
L 271.812234 123.174954 
L 272.997451 122.999135 
L 274.182668 122.518434 
L 275.367884 122.601465 
L 276.553101 123.264135 
L 278.923534 123.445125 
L 280.108751 123.660866 
L 281.293968 123.234312 
L 282.479184 123.445125 
L 283.664401 122.883756 
L 284.849618 122.490923 
L 286.034834 123.028207 
L 287.220051 122.68525 
L 288.405268 122.463493 
L 289.590484 123.354186 
L 290.775701 123.660866 
L 291.960918 124.173786 
L 293.146134 123.723443 
L 294.331351 122.970155 
L 296.701784 123.086626 
L 299.072218 121.72679 
L 300.257434 121.428213 
L 301.442651 121.452729 
L 303.813084 121.330796 
L 304.998301 121.021109 
L 306.183517 121.138993 
L 307.368734 121.576294 
L 308.553951 122.300603 
L 309.739167 122.769802 
L 310.924384 122.327552 
L 312.109601 122.629309 
L 313.294817 123.324072 
L 315.665251 122.546028 
L 316.850467 122.436144 
L 318.035684 122.713348 
L 319.220901 123.786448 
L 320.406117 123.414712 
L 321.591334 122.713348 
L 322.776551 122.769802 
L 323.961767 123.324072 
L 325.146984 121.330796 
L 326.332201 120.766945 
L 327.517417 120.789763 
L 329.88785 121.551449 
L 331.073067 122.629309 
L 332.258284 122.769802 
L 333.4435 125.444058 
L 334.628717 126.569125 
L 335.813934 126.654988 
L 336.99915 126.399759 
L 338.184367 127.051573 
L 339.369584 125.989461 
L 340.5548 126.654988 
L 341.740017 126.151398 
L 344.11045 125.712732 
L 345.295667 125.712732 
L 346.480884 124.929093 
L 347.6661 124.475344 
L 348.851317 122.009238 
L 350.036534 119.256613 
L 351.22175 115.456221 
L 354.7774 109.695155 
L 355.962617 108.225341 
L 357.147833 107.014076 
L 358.33305 106.198539 
L 359.518267 105.65973 
L 360.703483 105.358647 
L 363.073917 105.117127 
L 364.259133 104.49845 
L 365.44435 104.316435 
L 366.629567 104.351012 
L 367.814783 104.736151 
L 370.185217 104.992505 
L 371.370433 105.213823 
L 372.55565 106.316846 
L 377.296517 109.66088 
L 378.481733 110.364406 
L 379.66695 111.222748 
L 380.852167 111.552728 
L 383.2226 112.01778 
L 384.407816 112.433299 
L 385.593033 112.526159 
L 386.77825 112.810479 
L 387.963466 113.233912 
L 389.148683 113.254087 
L 390.3339 113.773358 
L 391.519116 114.055383 
L 393.88955 114.95717 
L 395.074766 115.520543 
L 396.259983 115.559353 
L 397.4452 115.929668 
L 398.630416 116.093039 
L 399.815633 116.791874 
L 401.00085 116.601251 
L 403.371283 117.247404 
L 404.5565 117.200825 
L 406.926933 118.877496 
L 408.11215 118.621086 
L 409.297366 119.198743 
L 410.482583 118.766733 
L 411.667799 118.111583 
L 412.853016 118.094506 
L 417.593883 118.549115 
L 419.964316 117.677534 
L 421.149533 118.180209 
L 422.334749 117.677534 
L 423.519966 117.7924 
L 424.705183 117.775902 
L 425.890399 117.247404 
L 427.075616 117.580202 
L 428.260833 118.319012 
L 429.446049 118.197446 
L 430.631266 117.858685 
L 431.816483 116.217493 
L 433.001699 116.161973 
L 434.186916 116.58675 
L 435.372133 115.983805 
L 436.557349 115.585317 
L 438.927782 115.354229 
L 440.112999 115.889274 
L 442.483432 114.495268 
L 444.853866 114.908718 
L 446.039082 114.729253 
L 447.224299 114.729253 
L 448.409516 114.369061 
L 449.594732 114.80062 
L 451.965166 114.244556 
L 455.520816 113.478976 
L 456.706032 113.014846 
L 457.891249 111.938626 
L 459.076466 111.386264 
L 460.261682 110.618945 
L 461.446899 109.68829 
L 465.002549 106.577685 
L 466.187766 105.730971 
L 467.372982 105.201153 
L 468.558199 105.000761 
L 469.743415 104.518027 
L 470.928632 104.251474 
L 472.113849 103.380054 
L 473.299065 102.692559 
L 479.225149 101.052677 
L 480.410365 101.16919 
L 482.780799 100.755928 
L 486.336449 99.393628 
L 488.706882 98.75906 
L 489.892099 98.635975 
L 492.262532 97.171191 
L 493.447749 96.990836 
L 494.632965 96.50777 
L 497.003398 95.355201 
L 498.188615 94.827376 
L 502.929482 94.337209 
L 505.299915 94.358045 
L 506.485132 94.132671 
L 507.670348 94.035224 
L 510.040782 94.346319 
L 511.225998 94.119957 
L 513.596432 94.193942 
L 514.781648 94.464253 
L 517.152082 95.330543 
L 518.337298 95.028447 
L 519.522515 95.503075 
L 520.707732 95.816807 
L 521.892948 95.969223 
L 523.078165 96.540741 
L 524.263381 96.848023 
L 525.448598 96.824151 
L 526.633815 97.849783 
L 527.819031 98.194914 
L 529.004248 98.761161 
L 530.189465 99.531885 
L 531.374681 99.902308 
L 532.559898 100.050876 
L 533.745115 100.407964 
L 534.930331 100.562416 
L 539.671198 102.219273 
L 542.041631 103.106951 
L 543.226848 102.946886 
L 544.412065 103.053287 
L 545.597281 102.561632 
L 547.967715 101.883265 
L 549.152931 101.809904 
L 550.338148 101.918686 
L 551.523364 102.323743 
L 552.708581 102.379534 
L 553.893798 102.654046 
L 555.079014 102.802559 
L 556.264231 103.133901 
L 557.449448 103.345471 
L 559.819881 103.335121 
L 562.190314 103.537301 
L 564.560748 103.235668 
L 566.931181 103.502125 
L 568.116398 103.311017 
L 571.672048 101.883265 
L 572.857264 101.429135 
L 575.227698 100.948258 
L 576.412914 100.980261 
L 577.598131 101.248608 
L 578.783347 101.763257 
L 579.968564 102.441921 
L 581.153781 102.940277 
L 583.524214 103.311017 
L 584.709431 103.232258 
L 587.079864 103.269841 
L 588.265081 103.174473 
L 590.635514 103.140651 
L 591.820731 102.936974 
L 593.005947 102.966743 
L 594.191164 102.625267 
L 596.561597 102.413795 
L 598.932031 101.918686 
L 601.302464 101.687956 
L 602.487681 101.930523 
L 604.858114 101.99292 
L 608.413764 102.191815 
L 609.59898 102.106912 
L 614.339847 102.243748 
L 616.71028 102.004853 
L 617.895497 102.082796 
L 619.080714 101.80114 
L 622.636364 101.80114 
L 622.636364 101.80114 
" style="fill:none;stroke:#348abd;stroke-linecap:square;stroke-width:4;"/>
   </g>
   <g id="line2d_25">
    <defs>
     <path d="M 0 3 
C 0.795609 3 1.55874 2.683901 2.12132 2.12132 
C 2.683901 1.55874 3 0.795609 3 0 
C 3 -0.795609 2.683901 -1.55874 2.12132 -2.12132 
C 1.55874 -2.683901 0.795609 -3 0 -3 
C -0.795609 -3 -1.55874 -2.683901 -2.12132 -2.12132 
C -2.683901 -1.55874 -3 -0.795609 -3 0 
C -3 0.795609 -2.683901 1.55874 -2.12132 2.12132 
C -1.55874 2.683901 -0.795609 3 0 3 
z
" id="m4af3f0aa41" style="stroke:#348abd;"/>
    </defs>
    <g clip-path="url(#p962ffa196d)">
     <use style="fill:#348abd;stroke:#348abd;" x="622.636364" xlink:href="#m4af3f0aa41" y="101.80114"/>
    </g>
   </g>
   <g id="line2d_26">
    <path clip-path="url(#p962ffa196d)" d="M 115.363636 167.921651 
L 116.548853 167.921651 
L 117.73407 165.861992 
L 118.919286 161.523767 
L 120.104503 159.464109 
L 121.28972 158.584377 
L 122.474936 161.523767 
L 126.030586 161.523767 
L 127.215803 165.861992 
L 128.40102 167.921651 
L 129.586236 174.319535 
L 130.771453 167.921651 
L 133.141886 167.921651 
L 134.327103 170.577012 
L 135.512319 170.577012 
L 136.697536 174.319535 
L 137.882753 174.319535 
L 137.897229 433 
M 147.350364 433 
L 147.364486 180.717418 
L 148.549703 158.584377 
L 149.734919 149.323703 
L 150.920136 148.728 
L 152.105353 142.475476 
L 153.290569 137.001383 
L 155.661003 132.836835 
L 156.846219 130.324379 
L 158.031436 124.619595 
L 159.216653 121.340126 
L 160.401869 119.989646 
L 161.587086 117.827995 
L 162.772302 116.801895 
L 163.957519 114.81696 
L 165.142736 112.357639 
L 166.327952 112.642368 
L 167.513169 106.801713 
L 171.068819 100.272686 
L 172.254036 97.997526 
L 173.439252 95.325317 
L 174.624469 93.112262 
L 175.809686 91.266689 
L 178.180119 89.741928 
L 179.365336 88.517636 
L 180.550552 87.72825 
L 181.735769 87.248114 
L 182.920986 85.999084 
L 184.106202 85.254272 
L 185.291419 84.014687 
L 186.476636 83.572797 
L 188.847069 83.184324 
L 190.032285 82.782589 
L 191.217502 82.71297 
L 192.402719 82.842193 
L 193.587935 83.285928 
L 194.773152 83.375061 
L 195.958369 83.756377 
L 198.328802 84.029788 
L 199.514019 84.576427 
L 201.884452 85.935442 
L 204.254885 86.640095 
L 205.440102 87.741095 
L 207.810535 89.531941 
L 208.995752 89.6706 
L 210.180969 90.058884 
L 211.366185 90.62892 
L 212.551402 90.810179 
L 213.736619 90.843372 
L 214.921835 91.426727 
L 216.107052 91.700182 
L 217.292268 92.864679 
L 218.477485 93.161885 
L 219.662702 93.581235 
L 220.847918 94.260528 
L 222.033135 94.317539 
L 223.218352 94.916367 
L 225.588785 96.597027 
L 229.144435 98.490925 
L 230.329652 98.871934 
L 231.514868 99.507358 
L 232.700085 99.79326 
L 233.885302 99.664783 
L 236.255735 100.094239 
L 237.440952 99.788948 
L 239.811385 100.518184 
L 240.996602 102.013876 
L 242.181818 102.781835 
L 243.367035 103.223439 
L 244.552251 103.095096 
L 245.737468 104.219592 
L 246.922685 102.857657 
L 248.107901 103.334584 
L 249.293118 102.986781 
L 250.478335 103.121859 
L 252.848768 104.25682 
L 254.033985 104.049339 
L 255.219201 105.602271 
L 256.404418 106.661489 
L 257.589635 106.293774 
L 258.774851 106.186832 
L 259.960068 106.212731 
L 262.330501 106.835562 
L 263.515718 107.861653 
L 264.700935 108.148589 
L 267.071368 110.55038 
L 268.256585 109.42743 
L 269.441801 109.11043 
L 270.627018 108.444731 
L 271.812234 108.042574 
L 274.182668 109.600501 
L 275.367884 109.261553 
L 276.553101 111.445339 
L 277.738318 111.697672 
L 278.923534 112.776353 
L 280.108751 111.813248 
L 281.293968 110.18872 
L 282.479184 106.437335 
L 283.664401 106.595171 
L 286.034834 104.747585 
L 287.220051 103.965376 
L 288.405268 103.650049 
L 289.590484 103.565298 
L 290.775701 105.252921 
L 291.960918 104.789479 
L 293.146134 104.664363 
L 294.331351 105.604969 
L 295.516568 106.010363 
L 296.701784 107.00984 
L 297.887001 106.749642 
L 299.072218 106.820161 
L 300.257434 107.640376 
L 301.442651 107.653841 
L 302.627867 107.355532 
L 303.813084 106.749642 
L 306.183517 107.434143 
L 307.368734 108.028531 
L 308.553951 108.309928 
L 309.739167 108.459423 
L 310.924384 108.892139 
L 312.109601 110.039204 
L 313.294817 110.0523 
L 314.480034 109.717711 
L 316.850467 107.745247 
L 318.035684 107.731648 
L 319.220901 107.401307 
L 320.406117 106.381404 
L 322.776551 105.699888 
L 323.961767 105.578027 
L 325.146984 105.1908 
L 326.332201 104.509717 
L 327.517417 104.319984 
L 328.702634 104.6668 
L 329.88785 104.184826 
L 331.073067 103.55881 
L 332.258284 102.763968 
L 333.4435 102.525125 
L 334.628717 102.620313 
L 335.813934 102.966485 
L 336.99915 102.10391 
L 338.184367 101.881353 
L 339.369584 101.110571 
L 340.5548 101.215621 
L 341.740017 100.736893 
L 344.11045 100.315179 
L 346.480884 99.384149 
L 347.6661 99.337511 
L 348.851317 98.68265 
L 350.036534 98.24336 
L 351.22175 98.255521 
L 352.406967 98.09388 
L 354.7774 97.117795 
L 357.147833 96.665403 
L 359.518267 96.301852 
L 360.703483 96.190266 
L 366.629567 96.577729 
L 370.185217 97.010839 
L 371.370433 97.2784 
L 372.55565 97.312397 
L 374.926083 97.58445 
L 376.1113 97.510067 
L 377.296517 97.288257 
L 378.481733 96.858968 
L 380.852167 96.654143 
L 382.037383 96.365093 
L 383.2226 96.224382 
L 385.593033 95.695876 
L 386.77825 96.084821 
L 389.148683 95.310269 
L 391.519116 94.404523 
L 392.704333 93.933281 
L 396.259983 93.720148 
L 397.4452 93.902097 
L 399.815633 93.670402 
L 401.00085 93.949295 
L 402.186066 93.738034 
L 403.371283 93.232232 
L 404.5565 93.24071 
L 405.741716 92.672614 
L 410.482583 91.818778 
L 411.667799 91.341757 
L 412.853016 90.995069 
L 414.038233 90.164638 
L 415.223449 89.122609 
L 416.408666 88.375937 
L 418.779099 87.344627 
L 419.964316 86.142427 
L 421.149533 85.506418 
L 422.334749 84.586662 
L 424.705183 83.069727 
L 425.890399 82.635355 
L 427.075616 82.378855 
L 428.260833 81.983062 
L 430.631266 80.235472 
L 431.816483 80.52819 
L 434.186916 78.694474 
L 435.372133 77.872249 
L 438.927782 76.316555 
L 440.112999 74.974979 
L 441.298216 74.41531 
L 443.668649 73.856782 
L 444.853866 72.818913 
L 446.039082 73.264801 
L 447.224299 72.101188 
L 449.594732 71.595368 
L 450.779949 71.590763 
L 451.965166 71.459401 
L 453.150382 72.802839 
L 454.335599 71.440463 
L 455.520816 72.065978 
L 456.706032 71.91208 
L 459.076466 71.914955 
L 460.261682 72.743272 
L 461.446899 72.144942 
L 462.632116 72.167689 
L 463.817332 72.072609 
L 467.372982 72.153789 
L 469.743415 72.079318 
L 470.928632 72.811568 
L 472.113849 72.143863 
L 474.484282 72.425908 
L 478.039932 72.533337 
L 479.225149 71.924287 
L 480.410365 72.609841 
L 481.595582 72.486664 
L 482.780799 72.855724 
L 483.966015 71.948185 
L 485.151232 71.4207 
L 486.336449 72.022525 
L 487.521665 71.708853 
L 488.706882 71.58528 
L 491.077315 70.299414 
L 492.262532 70.55814 
L 493.447749 70.330962 
L 494.632965 70.272374 
L 495.818182 70.008415 
L 497.003398 69.58178 
L 498.188615 69.721996 
L 499.373832 69.416713 
L 500.559048 69.42276 
L 501.744265 69.876176 
L 502.929482 69.18286 
L 505.299915 69.010165 
L 506.485132 69.20218 
L 507.670348 70.964342 
L 508.855565 71.496589 
L 510.040782 71.10587 
L 511.225998 71.449594 
L 512.411215 72.635281 
L 513.596432 71.543489 
L 514.781648 72.034594 
L 515.966865 72.036228 
L 519.522515 72.497189 
L 520.707732 72.581002 
L 521.892948 74.44395 
L 523.078165 72.314661 
L 524.263381 71.149401 
L 525.448598 70.410337 
L 526.633815 70.988604 
L 527.819031 71.027634 
L 529.004248 70.47977 
L 530.189465 70.545858 
L 531.374681 72.123828 
L 532.559898 72.908289 
L 533.745115 73.555795 
L 534.930331 72.712867 
L 536.115548 72.902356 
L 537.300765 74.152174 
L 538.485981 73.850034 
L 539.671198 75.055438 
L 540.856415 74.31954 
L 545.597281 75.177658 
L 546.782498 76.619509 
L 547.967715 75.878804 
L 549.152931 76.267764 
L 550.338148 75.712975 
L 551.523364 76.757243 
L 552.708581 76.783232 
L 553.893798 76.987134 
L 555.079014 77.377865 
L 557.449448 77.878804 
L 558.634664 79.151748 
L 559.819881 78.284201 
L 562.190314 78.858173 
L 564.560748 79.854111 
L 566.931181 80.503973 
L 568.116398 80.835656 
L 571.672048 80.653854 
L 574.042481 80.695519 
L 577.598131 80.376811 
L 578.783347 80.398938 
L 581.153781 79.992547 
L 593.005947 79.421694 
L 595.376381 79.390589 
L 596.561597 77.893535 
L 597.746814 78.830539 
L 598.932031 78.369183 
L 601.302464 77.718424 
L 602.487681 77.53432 
L 603.672897 76.232544 
L 604.858114 77.877466 
L 606.043331 75.147349 
L 608.413764 74.509297 
L 609.59898 75.305263 
L 610.784197 75.132927 
L 611.969414 74.811622 
L 613.15463 73.386793 
L 614.339847 73.969811 
L 615.525064 73.524017 
L 616.71028 73.266425 
L 621.451147 73.026421 
L 622.636364 73.026421 
L 622.636364 73.026421 
" style="fill:none;stroke:#348abd;stroke-linecap:square;stroke-opacity:0.4;stroke-width:2;"/>
   </g>
   <g id="line2d_27">
    <defs>
     <path d="M 0 3 
C 0.795609 3 1.55874 2.683901 2.12132 2.12132 
C 2.683901 1.55874 3 0.795609 3 0 
C 3 -0.795609 2.683901 -1.55874 2.12132 -2.12132 
C 1.55874 -2.683901 0.795609 -3 0 -3 
C -0.795609 -3 -1.55874 -2.683901 -2.12132 -2.12132 
C -2.683901 -1.55874 -3 -0.795609 -3 0 
C -3 0.795609 -2.683901 1.55874 -2.12132 2.12132 
C -1.55874 2.683901 -0.795609 3 0 3 
z
" id="m85c878a506" style="stroke:#348abd;stroke-opacity:0.4;"/>
    </defs>
    <g clip-path="url(#p962ffa196d)">
     <use style="fill:#348abd;fill-opacity:0.4;stroke:#348abd;stroke-opacity:0.4;" x="622.636364" xlink:href="#m85c878a506" y="73.026421"/>
    </g>
   </g>
   <g id="line2d_28">
    <path clip-path="url(#p962ffa196d)" d="M 115.363636 153.184632 
L 116.548853 149.44211 
L 117.73407 149.44211 
L 118.919286 146.786748 
L 120.104503 150.52927 
L 121.28972 151.761791 
L 122.474936 150.52927 
L 123.660153 151.761791 
L 124.84537 154.867495 
L 126.030586 153.184632 
L 127.215803 159.582516 
L 129.586236 159.582516 
L 130.771453 163.325038 
L 131.956669 163.325038 
L 133.141886 169.722921 
L 133.156616 433 
M 152.08945 433 
L 152.105353 148.469612 
L 153.290569 146.786748 
L 154.475786 144.72709 
L 156.846219 136.393444 
L 158.031436 135.673844 
L 159.216653 134.586684 
L 160.401869 136.147291 
L 161.587086 133.800661 
L 162.772302 131.778753 
L 165.142736 129.749408 
L 166.327952 130.121144 
L 167.513169 124.110598 
L 168.698386 121.438768 
L 169.883602 119.896826 
L 171.068819 117.517013 
L 172.254036 115.785866 
L 174.624469 111.430935 
L 175.809686 110.817514 
L 176.994902 107.783484 
L 178.180119 103.888577 
L 179.365336 103.505886 
L 180.550552 101.671034 
L 181.735769 100.558141 
L 182.920986 98.988173 
L 185.291419 97.254149 
L 186.476636 97.74861 
L 187.661852 96.867156 
L 188.847069 97.450234 
L 190.032285 97.512837 
L 191.217502 98.251031 
L 192.402719 98.740081 
L 193.587935 99.990103 
L 194.773152 101.048916 
L 195.958369 102.62294 
L 197.143585 103.289189 
L 199.514019 106.037131 
L 200.699235 107.090623 
L 201.884452 108.581507 
L 203.069669 110.257019 
L 204.254885 111.414259 
L 205.440102 111.998861 
L 207.810535 115.548166 
L 210.180969 118.220926 
L 211.366185 117.231029 
L 212.551402 117.980274 
L 213.736619 119.528388 
L 214.921835 120.280585 
L 216.107052 120.818418 
L 217.292268 123.171123 
L 219.662702 126.854287 
L 220.847918 127.402777 
L 223.218352 127.216302 
L 224.403568 126.854287 
L 225.588785 127.124458 
L 227.959218 126.505937 
L 229.144435 125.083096 
L 230.329652 124.723899 
L 231.514868 123.979671 
L 232.700085 123.660255 
L 233.885302 124.110598 
L 235.070518 124.110598 
L 236.255735 125.083096 
L 237.440952 125.305521 
L 238.626168 126.765959 
L 239.811385 127.689749 
L 242.181818 125.767127 
L 243.367035 126.765959 
L 244.552251 126.678469 
L 245.737468 127.402777 
L 246.922685 127.98593 
L 248.107901 127.98593 
L 250.478335 131.335619 
L 251.663551 130.508481 
L 252.848768 131.931322 
L 254.033985 132.24424 
L 255.219201 130.912788 
L 256.404418 130.641292 
L 257.589635 130.508481 
L 258.774851 128.716383 
L 259.960068 129.509649 
L 261.145285 128.396229 
L 262.330501 127.689749 
L 263.515718 128.1888 
L 264.700935 128.1888 
L 265.886151 129.048043 
L 267.071368 130.776042 
L 268.256585 130.912788 
L 269.441801 131.480979 
L 270.627018 134.383814 
L 271.812234 134.586684 
L 272.997451 134.586684 
L 274.182668 135.223501 
L 275.367884 135.223501 
L 276.553101 131.778753 
L 278.923534 129.27596 
L 280.108751 127.593097 
L 281.293968 126.678469 
L 282.479184 125.533438 
L 283.664401 125.767127 
L 284.849618 124.044902 
L 286.034834 124.176764 
L 288.405268 123.412449 
L 290.775701 121.48826 
L 291.960918 121.291865 
L 293.146134 119.731258 
L 294.331351 117.388814 
L 296.701784 114.443639 
L 297.887001 113.478083 
L 299.072218 112.91238 
L 300.257434 109.812277 
L 301.442651 108.532605 
L 302.627867 107.805996 
L 303.813084 106.722593 
L 304.998301 106.282278 
L 306.183517 105.468801 
L 307.368734 103.484692 
L 308.553951 103.591154 
L 309.739167 103.16566 
L 310.924384 102.877088 
L 313.294817 101.619 
L 314.480034 100.776556 
L 315.665251 100.239914 
L 316.850467 100.097037 
L 318.035684 99.542062 
L 320.406117 98.782382 
L 321.591334 97.855363 
L 322.776551 97.535034 
L 323.961767 98.029559 
L 325.146984 97.472281 
L 326.332201 97.139886 
L 327.517417 96.24436 
L 328.702634 96.21542 
L 329.88785 96.836199 
L 332.258284 94.920506 
L 333.4435 94.859323 
L 334.628717 94.420867 
L 335.813934 94.713573 
L 336.99915 94.594297 
L 338.184367 93.4889 
L 340.5548 94.75185 
L 341.740017 94.618569 
L 342.925234 95.258667 
L 345.295667 95.87504 
L 346.480884 96.856825 
L 347.6661 97.624359 
L 348.851317 97.616882 
L 351.22175 98.672799 
L 352.406967 98.850471 
L 353.592184 99.292275 
L 354.7774 100.225031 
L 355.962617 100.146055 
L 357.147833 101.257207 
L 358.33305 101.817131 
L 359.518267 102.073956 
L 360.703483 103.145232 
L 363.073917 104.165466 
L 364.259133 105.20149 
L 365.44435 105.592107 
L 367.814783 107.365856 
L 369 107.671737 
L 370.185217 108.423514 
L 371.370433 109.007978 
L 372.55565 108.905844 
L 373.740867 109.414776 
L 374.926083 109.798281 
L 376.1113 110.555756 
L 377.296517 111.070846 
L 378.481733 111.414259 
L 379.66695 111.616388 
L 380.852167 112.834323 
L 382.037383 113.796032 
L 384.407816 115.065597 
L 386.77825 115.240464 
L 387.963466 116.684345 
L 389.148683 117.420697 
L 390.3339 117.168663 
L 391.519116 117.77888 
L 393.88955 119.938687 
L 395.074766 120.680993 
L 396.259983 121.099563 
L 397.4452 122.48284 
L 398.630416 124.176764 
L 399.815633 124.723899 
L 401.00085 123.979671 
L 402.186066 124.653707 
L 403.371283 126.088209 
L 404.5565 126.678469 
L 405.741716 125.846356 
L 406.926933 126.420865 
L 408.11215 126.765959 
L 409.297366 127.689749 
L 410.482583 126.854287 
L 411.667799 125.688571 
L 412.853016 126.943468 
L 415.223449 125.767127 
L 418.779099 124.310537 
L 419.964316 124.310537 
L 421.149533 123.111765 
L 423.519966 123.786698 
L 424.705183 124.514904 
L 425.890399 125.010129 
L 427.075616 126.006886 
L 428.260833 127.689749 
L 429.446049 126.678469 
L 430.631266 127.124458 
L 431.816483 126.765959 
L 433.001699 125.767127 
L 434.186916 125.305521 
L 435.372133 125.083096 
L 436.557349 124.514904 
L 437.742566 126.33657 
L 440.112999 126.943468 
L 441.298216 128.1888 
L 442.483432 129.048043 
L 444.853866 130.377554 
L 446.039082 130.641292 
L 447.224299 131.192512 
L 448.409516 131.192512 
L 449.594732 130.912788 
L 450.779949 131.480979 
L 451.965166 131.335619 
L 453.150382 132.086455 
L 454.335599 133.800661 
L 455.520816 134.586684 
L 456.706032 137.733503 
L 457.891249 138.329206 
L 459.076466 133.076352 
L 460.261682 128.825618 
L 461.446899 128.291932 
L 462.632116 126.678469 
L 463.817332 126.33657 
L 465.002549 125.846356 
L 466.187766 125.230782 
L 467.372982 126.33657 
L 468.558199 128.716383 
L 469.743415 128.716383 
L 470.928632 129.749408 
L 472.113849 129.27596 
L 473.299065 129.161298 
L 474.484282 129.27596 
L 475.669499 130.377554 
L 476.854715 130.776042 
L 479.225149 130.508481 
L 480.410365 129.995561 
L 481.595582 129.749408 
L 482.780799 130.508481 
L 483.966015 130.121144 
L 485.151232 130.508481 
L 486.336449 129.871664 
L 487.521665 130.508481 
L 488.706882 131.778753 
L 489.892099 131.628666 
L 491.077315 130.641292 
L 492.262532 131.192512 
L 493.447749 131.192512 
L 494.632965 131.778753 
L 495.818182 130.912788 
L 497.003398 130.248459 
L 498.188615 129.048043 
L 499.373832 127.124458 
L 500.559048 124.243408 
L 501.744265 122.820568 
L 502.929482 122.264363 
L 504.114698 121.946049 
L 505.299915 121.291865 
L 507.670348 122.264363 
L 508.855565 124.110598 
L 510.040782 124.176764 
L 511.225998 124.794629 
L 512.411215 123.850575 
L 513.596432 123.914897 
L 514.781648 123.412449 
L 517.152082 121.998345 
L 518.337298 122.48284 
L 519.522515 122.427734 
L 521.892948 124.044902 
L 523.078165 123.72326 
L 524.263381 125.38087 
L 525.448598 126.253039 
L 526.633815 126.33657 
L 527.819031 125.767127 
L 529.004248 126.006886 
L 530.189465 126.006886 
L 531.374681 127.402777 
L 532.559898 126.591799 
L 533.745115 126.088209 
L 534.930331 126.591799 
L 536.115548 127.497446 
L 537.300765 128.1888 
L 538.485981 128.291932 
L 539.671198 128.608427 
L 542.041631 132.24424 
L 543.226848 132.56814 
L 544.412065 133.800661 
L 545.597281 134.383814 
L 547.967715 134.794113 
L 549.152931 134.383814 
L 550.338148 134.586684 
L 551.523364 135.445927 
L 552.708581 135.00631 
L 553.893798 135.00631 
L 555.079014 134.794113 
L 557.449448 135.223501 
L 558.634664 135.673844 
L 559.819881 135.907532 
L 561.005098 136.393444 
L 562.190314 135.223501 
L 563.375531 135.445927 
L 564.560748 134.586684 
L 565.745964 134.794113 
L 566.931181 134.185308 
L 568.116398 135.00631 
L 569.301614 134.586684 
L 570.486831 135.673844 
L 571.672048 137.449474 
L 572.857264 138.026549 
L 574.042481 138.966024 
L 575.227698 138.966024 
L 577.598131 137.733503 
L 578.783347 138.966024 
L 579.968564 136.906365 
L 581.153781 135.907532 
L 582.338997 134.586684 
L 583.524214 134.794113 
L 584.709431 133.990981 
L 585.894647 133.800661 
L 587.079864 132.404769 
L 588.265081 131.931322 
L 589.450297 131.335619 
L 591.820731 131.335619 
L 593.005947 130.776042 
L 594.191164 129.871664 
L 595.376381 129.509649 
L 596.561597 128.93616 
L 597.746814 129.161298 
L 598.932031 128.93616 
L 601.302464 128.825618 
L 602.487681 129.749408 
L 603.672897 129.27596 
L 604.858114 129.749408 
L 606.043331 129.161298 
L 608.413764 129.392065 
L 610.784197 129.995561 
L 611.969414 130.912788 
L 613.15463 131.335619 
L 614.339847 132.56814 
L 615.525064 131.931322 
L 616.71028 131.480979 
L 617.895497 130.508481 
L 619.080714 128.716383 
L 622.636364 128.716383 
L 622.636364 128.716383 
" style="fill:none;stroke:#988ed5;stroke-linecap:square;stroke-opacity:0.4;stroke-width:2;"/>
   </g>
   <g id="line2d_29">
    <defs>
     <path d="M 0 3 
C 0.795609 3 1.55874 2.683901 2.12132 2.12132 
C 2.683901 1.55874 3 0.795609 3 0 
C 3 -0.795609 2.683901 -1.55874 2.12132 -2.12132 
C 1.55874 -2.683901 0.795609 -3 0 -3 
C -0.795609 -3 -1.55874 -2.683901 -2.12132 -2.12132 
C -2.683901 -1.55874 -3 -0.795609 -3 0 
C -3 0.795609 -2.683901 1.55874 -2.12132 2.12132 
C -1.55874 2.683901 -0.795609 3 0 3 
z
" id="m69bc153607" style="stroke:#988ed5;stroke-opacity:0.4;"/>
    </defs>
    <g clip-path="url(#p962ffa196d)">
     <use style="fill:#988ed5;fill-opacity:0.4;stroke:#988ed5;stroke-opacity:0.4;" x="622.636364" xlink:href="#m69bc153607" y="128.716383"/>
    </g>
   </g>
   <g id="line2d_30">
    <path clip-path="url(#p962ffa196d)" d="M 156.831692 433 
L 156.846219 173.382181 
L 158.031436 173.382181 
L 159.216653 158.526755 
L 160.401869 158.526755 
L 161.587086 151.24914 
L 162.772302 147.790646 
L 165.142736 141.988466 
L 166.327952 137.65024 
L 167.513169 135.140239 
L 168.698386 131.062037 
L 169.883602 130.165196 
L 171.068819 126.479827 
L 172.254036 123.767313 
L 173.439252 123.597946 
L 174.624469 120.552374 
L 175.809686 119.129533 
L 178.180119 115.747302 
L 179.365336 114.778389 
L 180.550552 113.41568 
L 181.735769 111.681911 
L 182.920986 110.950204 
L 184.106202 109.960668 
L 185.291419 108.725754 
L 186.476636 107.726492 
L 187.661852 107.158076 
L 190.032285 105.861288 
L 192.402719 103.252101 
L 193.587935 103.275275 
L 194.773152 102.178323 
L 195.958369 101.704463 
L 197.143585 101.029104 
L 198.328802 100.623394 
L 199.514019 100.700313 
L 200.699235 100.902636 
L 201.884452 100.355734 
L 203.069669 100.902636 
L 204.254885 101.0875 
L 205.440102 101.720134 
L 206.625319 101.630387 
L 207.810535 101.763367 
L 208.995752 101.449661 
L 210.180969 101.595505 
L 211.366185 100.756659 
L 212.551402 100.595582 
L 213.736619 100.612955 
L 214.921835 100.848962 
L 216.107052 100.827579 
L 217.292268 101.116837 
L 218.477485 101.050959 
L 219.662702 101.814723 
L 220.847918 101.898291 
L 222.033135 101.688819 
L 223.218352 101.272406 
L 224.403568 101.673201 
L 225.588785 102.290255 
L 226.774002 102.765239 
L 227.959218 102.880121 
L 229.144435 102.756461 
L 230.329652 102.290255 
L 231.514868 102.774026 
L 233.885302 102.092193 
L 237.440952 101.854423 
L 238.626168 101.201705 
L 239.811385 101.298591 
L 242.181818 100.626876 
L 244.552251 101.043668 
L 245.737468 100.949408 
L 246.922685 101.747623 
L 248.107901 101.036383 
L 249.293118 101.061906 
L 251.663551 100.543659 
L 252.848768 100.128559 
L 254.033985 100.298414 
L 255.219201 100.098906 
L 257.589635 100.516085 
L 258.774851 101.032743 
L 259.960068 100.661773 
L 261.145285 101.313587 
L 262.330501 101.040025 
L 263.515718 101.850445 
L 264.700935 102.286085 
L 267.071368 102.116719 
L 268.256585 101.483996 
L 269.441801 100.201447 
L 270.627018 99.497243 
L 271.812234 98.987655 
L 275.367884 98.981824 
L 276.553101 99.386957 
L 278.923534 100.703824 
L 280.108751 100.679271 
L 281.293968 99.926191 
L 283.664401 100.321973 
L 284.849618 100.792051 
L 286.034834 101.02183 
L 288.405268 101.806803 
L 289.590484 102.686535 
L 293.146134 102.800435 
L 294.331351 103.335801 
L 296.701784 103.864483 
L 299.072218 103.100594 
L 301.442651 103.201322 
L 302.627867 103.028022 
L 303.813084 103.219754 
L 304.998301 103.137095 
L 307.368734 104.171263 
L 309.739167 104.186616 
L 310.924384 103.500756 
L 312.109601 103.064237 
L 314.480034 103.077854 
L 318.035684 102.24034 
L 320.406117 102.374052 
L 322.776551 101.385154 
L 325.146984 100.693294 
L 326.332201 99.87147 
L 331.073067 98.731683 
L 333.4435 97.671668 
L 335.813934 97.229758 
L 336.99915 96.673159 
L 338.184367 96.277773 
L 344.11045 94.958954 
L 345.295667 94.87639 
L 346.480884 95.120574 
L 350.036534 94.776061 
L 352.406967 94.966497 
L 353.592184 95.011882 
L 355.962617 94.887605 
L 357.147833 94.97027 
L 360.703483 94.623947 
L 361.8887 94.709776 
L 363.073917 94.410138 
L 364.259133 94.420801 
L 365.44435 94.209856 
L 367.814783 94.660372 
L 369 94.569577 
L 370.185217 94.653076 
L 371.370433 95.049874 
L 372.55565 95.308537 
L 373.740867 95.863221 
L 374.926083 96.073485 
L 382.037383 98.535229 
L 383.2226 98.80859 
L 385.593033 98.524128 
L 386.77825 98.318425 
L 389.148683 97.331563 
L 390.3339 96.558133 
L 391.519116 96.199826 
L 393.88955 94.605788 
L 395.074766 93.956159 
L 396.259983 93.77865 
L 397.4452 93.178283 
L 398.630416 92.724907 
L 399.815633 91.57189 
L 401.00085 90.841522 
L 403.371283 89.709693 
L 409.297366 86.563823 
L 411.667799 85.637286 
L 412.853016 85.032748 
L 414.038233 84.143901 
L 417.593883 80.483308 
L 421.149533 77.937202 
L 423.519966 75.973074 
L 424.705183 75.284672 
L 427.075616 73.522751 
L 428.260833 72.969068 
L 429.446049 72.261932 
L 431.816483 71.122709 
L 433.001699 70.314663 
L 435.372133 69.418214 
L 436.557349 69.097052 
L 442.483432 65.372585 
L 444.853866 64.584488 
L 446.039082 64.37197 
L 453.150382 62.07463 
L 454.335599 61.754673 
L 455.520816 61.727396 
L 457.891249 62.12158 
L 461.446899 62.457089 
L 463.817332 63.129597 
L 465.002549 63.052488 
L 467.372982 63.229201 
L 468.558199 63.474645 
L 469.743415 63.843644 
L 470.928632 63.003644 
L 472.113849 63.275238 
L 476.854715 65.149188 
L 478.039932 65.867595 
L 479.225149 68.000553 
L 481.595582 68.348365 
L 482.780799 68.787796 
L 485.151232 69.364828 
L 489.892099 69.959228 
L 494.632965 70.058231 
L 495.818182 70.242369 
L 497.003398 70.205014 
L 499.373832 70.72123 
L 505.299915 70.814599 
L 506.485132 70.655847 
L 507.670348 70.920902 
L 508.855565 71.85422 
L 510.040782 72.617186 
L 511.225998 72.858527 
L 514.781648 72.653946 
L 519.522515 71.53738 
L 520.707732 71.541554 
L 521.892948 71.329319 
L 523.078165 71.527401 
L 524.263381 71.850519 
L 526.633815 70.817631 
L 527.819031 70.751975 
L 529.004248 71.058391 
L 530.189465 71.808834 
L 531.374681 72.226698 
L 532.559898 72.356879 
L 534.930331 73.502447 
L 536.115548 73.789143 
L 537.300765 73.885505 
L 540.856415 75.094745 
L 542.041631 75.285343 
L 543.226848 75.604843 
L 545.597281 75.826291 
L 549.152931 75.959109 
L 550.338148 76.096551 
L 552.708581 76.102659 
L 557.449448 76.354348 
L 561.005098 76.343556 
L 562.190314 76.425948 
L 564.560748 76.256177 
L 566.931181 76.024545 
L 568.116398 75.878139 
L 569.301614 75.851703 
L 570.486831 75.575944 
L 572.857264 74.738024 
L 575.227698 73.869951 
L 577.598131 73.301642 
L 578.783347 73.100345 
L 581.153781 72.016186 
L 584.709431 70.645694 
L 587.079864 70.309965 
L 590.635514 68.980979 
L 594.191164 68.159065 
L 596.561597 67.794709 
L 597.746814 67.230335 
L 598.932031 66.950332 
L 600.117247 66.403985 
L 603.672897 65.364946 
L 604.858114 64.789523 
L 608.413764 63.538262 
L 610.784197 63.034675 
L 611.969414 62.89655 
L 614.339847 62.186772 
L 615.525064 61.704514 
L 619.080714 60.959251 
L 622.636364 60.959251 
L 622.636364 60.959251 
" style="fill:none;stroke:#777777;stroke-linecap:square;stroke-opacity:0.4;stroke-width:2;"/>
   </g>
   <g id="line2d_31">
    <defs>
     <path d="M 0 3 
C 0.795609 3 1.55874 2.683901 2.12132 2.12132 
C 2.683901 1.55874 3 0.795609 3 0 
C 3 -0.795609 2.683901 -1.55874 2.12132 -2.12132 
C 1.55874 -2.683901 0.795609 -3 0 -3 
C -0.795609 -3 -1.55874 -2.683901 -2.12132 -2.12132 
C -2.683901 -1.55874 -3 -0.795609 -3 0 
C -3 0.795609 -2.683901 1.55874 -2.12132 2.12132 
C -1.55874 2.683901 -0.795609 3 0 3 
z
" id="mbf00b87859" style="stroke:#777777;stroke-opacity:0.4;"/>
    </defs>
    <g clip-path="url(#p962ffa196d)">
     <use style="fill:#777777;fill-opacity:0.4;stroke:#777777;stroke-opacity:0.4;" x="622.636364" xlink:href="#mbf00b87859" y="60.959251"/>
    </g>
   </g>
   <g id="line2d_32">
    <path clip-path="url(#p962ffa196d)" d="M 150.904901 433 
L 150.920136 160.574377 
L 155.661003 160.574377 
L 156.846219 144.036088 
L 158.031436 144.036088 
L 159.216653 145.718951 
L 162.772302 145.718951 
L 163.957519 141.380726 
L 165.142736 150.433971 
L 166.327952 144.036088 
L 167.513169 132.472841 
L 169.883602 132.472841 
L 171.068819 129.180662 
L 172.254036 130.15316 
L 173.439252 126.074957 
L 174.624469 126.758988 
L 175.809686 126.074957 
L 176.994902 124.652117 
L 178.180119 124.652117 
L 179.365336 125.43814 
L 180.550552 125.43814 
L 181.735769 127.757821 
L 182.920986 127.757821 
L 185.291419 133.895682 
L 186.476636 133.895682 
L 187.661852 121.22901 
L 188.847069 121.22901 
L 190.032285 120.480206 
L 191.217502 110.874437 
L 192.402719 109.355322 
L 194.773152 103.822815 
L 195.958369 102.366226 
L 199.514019 95.271086 
L 200.699235 92.304759 
L 201.884452 91.461134 
L 203.069669 90.343017 
L 206.625319 87.77737 
L 208.995752 87.317455 
L 210.180969 86.458139 
L 211.366185 85.995067 
L 214.921835 85.112478 
L 216.107052 84.448509 
L 217.292268 84.032536 
L 220.847918 81.912986 
L 222.033135 81.104498 
L 223.218352 80.431292 
L 226.774002 79.917103 
L 229.144435 79.973502 
L 231.514868 80.163016 
L 235.070518 79.937841 
L 236.255735 79.872819 
L 238.626168 79.504746 
L 242.181818 79.355959 
L 251.663551 79.448318 
L 259.960068 79.660287 
L 268.256585 80.134188 
L 272.997451 80.353399 
L 274.182668 80.533545 
L 277.738318 81.346605 
L 286.034834 82.866116 
L 288.405268 83.750329 
L 290.775701 84.676125 
L 291.960918 85.573218 
L 295.516568 87.420291 
L 297.887001 88.434767 
L 299.072218 89.062547 
L 300.257434 89.190969 
L 302.627867 90.058988 
L 303.813084 90.352178 
L 304.998301 90.963171 
L 307.368734 91.846331 
L 309.739167 93.090405 
L 310.924384 93.854941 
L 312.109601 94.322045 
L 314.480034 94.986585 
L 315.665251 95.039741 
L 316.850467 95.302375 
L 318.035684 95.239903 
L 319.220901 95.420662 
L 320.406117 95.943112 
L 321.591334 96.112633 
L 325.146984 96.241849 
L 327.517417 96.479097 
L 328.702634 96.470201 
L 334.628717 97.346376 
L 336.99915 97.634378 
L 339.369584 98.228063 
L 340.5548 98.445767 
L 341.740017 98.805139 
L 344.11045 99.072362 
L 345.295667 99.095969 
L 348.851317 100.106628 
L 350.036534 100.186085 
L 351.22175 102.002915 
L 352.406967 100.566205 
L 353.592184 100.904966 
L 355.962617 100.119823 
L 358.33305 98.839558 
L 359.518267 97.029222 
L 360.703483 97.268484 
L 361.8887 96.311512 
L 363.073917 96.32901 
L 364.259133 95.341636 
L 365.44435 95.016922 
L 366.629567 94.866222 
L 367.814783 94.843828 
L 370.185217 95.146981 
L 371.370433 94.866222 
L 372.55565 95.388971 
L 373.740867 95.629354 
L 376.1113 95.605032 
L 377.296517 95.349508 
L 378.481733 95.224351 
L 379.66695 94.784374 
L 390.3339 93.735154 
L 392.704333 93.158479 
L 393.88955 93.065775 
L 395.074766 92.841007 
L 396.259983 92.757367 
L 397.4452 92.510901 
L 401.00085 91.246587 
L 405.741716 89.23147 
L 409.297366 88.127188 
L 410.482583 89.358165 
L 411.667799 87.477174 
L 412.853016 87.212491 
L 414.038233 87.070087 
L 416.408666 86.521474 
L 417.593883 87.927685 
L 418.779099 84.783294 
L 419.964316 85.788719 
L 423.519966 84.609462 
L 424.705183 84.202801 
L 425.890399 82.744717 
L 427.075616 83.647795 
L 431.816483 82.636807 
L 434.186916 82.117285 
L 435.372133 81.731105 
L 437.742566 80.749606 
L 442.483432 79.531671 
L 444.853866 79.267273 
L 454.335599 78.891637 
L 456.706032 78.644717 
L 459.076466 78.110046 
L 461.446899 77.408652 
L 465.002549 76.600541 
L 469.743415 75.529809 
L 473.299065 75.004168 
L 478.039932 74.543982 
L 481.595582 74.19358 
L 493.447749 73.042 
L 494.632965 73.00204 
L 495.818182 72.820561 
L 500.559048 72.96713 
L 505.299915 72.929575 
L 507.670348 72.888717 
L 511.225998 73.018143 
L 514.781648 73.018844 
L 519.522515 72.968524 
L 520.707732 73.354966 
L 527.819031 73.754501 
L 529.004248 73.413293 
L 536.115548 72.8825 
L 537.300765 73.145147 
L 543.226848 73.763613 
L 544.412065 74.453489 
L 545.597281 74.879877 
L 547.967715 75.064322 
L 552.708581 74.971206 
L 553.893798 75.100253 
L 556.264231 75.056454 
L 562.190314 75.500419 
L 564.560748 75.434633 
L 568.116398 75.564831 
L 569.301614 75.299065 
L 570.486831 74.798786 
L 572.857264 75.461987 
L 575.227698 75.597207 
L 576.412914 75.913928 
L 577.598131 75.871829 
L 581.153781 76.291722 
L 582.338997 76.352866 
L 583.524214 76.565484 
L 584.709431 76.539792 
L 587.079864 76.838071 
L 589.450297 76.822185 
L 591.820731 77.090586 
L 593.005947 77.387253 
L 594.191164 77.422192 
L 595.376381 77.19466 
L 596.561597 78.002401 
L 598.932031 78.796792 
L 601.302464 79.104604 
L 602.487681 79.081598 
L 603.672897 79.351783 
L 604.858114 78.661491 
L 606.043331 78.13807 
L 608.413764 77.661268 
L 609.59898 77.481099 
L 610.784197 77.440278 
L 613.15463 76.972603 
L 614.339847 77.094945 
L 615.525064 77.082964 
L 617.895497 77.352445 
L 620.26593 77.425581 
L 622.636364 77.425581 
L 622.636364 77.425581 
" style="fill:none;stroke:#fbc15e;stroke-linecap:square;stroke-opacity:0.4;stroke-width:2;"/>
   </g>
   <g id="line2d_33">
    <defs>
     <path d="M 0 3 
C 0.795609 3 1.55874 2.683901 2.12132 2.12132 
C 2.683901 1.55874 3 0.795609 3 0 
C 3 -0.795609 2.683901 -1.55874 2.12132 -2.12132 
C 1.55874 -2.683901 0.795609 -3 0 -3 
C -0.795609 -3 -1.55874 -2.683901 -2.12132 -2.12132 
C -2.683901 -1.55874 -3 -0.795609 -3 0 
C -3 0.795609 -2.683901 1.55874 -2.12132 2.12132 
C -1.55874 2.683901 -0.795609 3 0 3 
z
" id="ma7309457b3" style="stroke:#fbc15e;stroke-opacity:0.4;"/>
    </defs>
    <g clip-path="url(#p962ffa196d)">
     <use style="fill:#fbc15e;fill-opacity:0.4;stroke:#fbc15e;stroke-opacity:0.4;" x="622.636364" xlink:href="#ma7309457b3" y="77.425581"/>
    </g>
   </g>
   <g id="line2d_34">
    <path clip-path="url(#p962ffa196d)" d="M 147.349206 433 
L 147.364486 159.763506 
L 148.549703 159.763506 
L 149.734919 140.569855 
L 150.920136 140.569855 
L 152.105353 133.084811 
L 154.475786 125.264086 
L 155.661003 122.775039 
L 156.846219 118.332517 
L 158.031436 116.719053 
L 159.216653 110.58617 
L 161.587086 106.813825 
L 162.772302 106.180978 
L 165.142736 101.322509 
L 166.327952 101.725345 
L 167.513169 96.723177 
L 168.698386 95.199676 
L 169.883602 90.26066 
L 171.068819 90.44582 
L 172.254036 88.688279 
L 173.439252 88.015596 
L 174.624469 84.645662 
L 175.809686 82.856895 
L 176.994902 80.757779 
L 178.180119 80.655709 
L 179.365336 78.592551 
L 181.735769 76.962322 
L 186.476636 77.585827 
L 187.661852 77.876486 
L 188.847069 78.40826 
L 191.217502 78.021373 
L 193.587935 78.827855 
L 194.773152 79.057531 
L 195.958369 79.882231 
L 198.328802 80.248303 
L 200.699235 81.250246 
L 205.440102 83.969917 
L 206.625319 85.692463 
L 207.810535 86.900852 
L 208.995752 87.446883 
L 210.180969 88.327711 
L 211.366185 88.215877 
L 212.551402 88.493952 
L 213.736619 89.037433 
L 217.292268 91.671123 
L 218.477485 92.322796 
L 219.662702 93.433992 
L 220.847918 94.168145 
L 222.033135 94.313025 
L 225.588785 95.748684 
L 226.774002 96.743156 
L 227.959218 97.569044 
L 229.144435 97.869149 
L 230.329652 98.720679 
L 231.514868 99.937285 
L 232.700085 101.691095 
L 233.885302 102.364614 
L 235.070518 103.70812 
L 236.255735 104.461119 
L 237.440952 105.357018 
L 238.626168 105.155807 
L 240.996602 106.043005 
L 242.181818 106.903584 
L 243.367035 106.491978 
L 244.552251 107.687603 
L 245.737468 108.689241 
L 246.922685 109.25338 
L 248.107901 108.985819 
L 249.293118 109.528929 
L 250.478335 111.187849 
L 251.663551 113.331583 
L 252.848768 113.576105 
L 254.033985 113.576105 
L 255.219201 113.955482 
L 256.404418 115.729156 
L 257.589635 117.074105 
L 258.774851 115.497424 
L 259.960068 115.574023 
L 261.145285 115.12368 
L 262.330501 115.197228 
L 263.515718 116.128794 
L 264.700935 115.807712 
L 265.886151 115.807712 
L 267.071368 116.546521 
L 268.256585 116.293623 
L 269.441801 116.984053 
L 270.627018 117.165043 
L 271.812234 116.04747 
L 272.997451 115.729156 
L 274.182668 114.764484 
L 275.367884 115.050714 
L 277.738318 113.392109 
L 281.293968 112.03893 
L 282.479184 113.15235 
L 283.664401 112.251128 
L 284.849618 113.576105 
L 286.034834 112.091524 
L 287.220051 111.882923 
L 288.405268 111.934633 
L 289.590484 111.381158 
L 290.775701 109.649587 
L 291.960918 108.762497 
L 293.146134 106.754466 
L 295.516568 105.907065 
L 296.701784 104.886114 
L 297.887001 102.874908 
L 300.257434 100.49068 
L 301.442651 100.079729 
L 303.813084 99.797005 
L 306.183517 100.022487 
L 308.553951 100.889388 
L 309.739167 100.43084 
L 310.924384 100.49068 
L 313.294817 100.022487 
L 314.480034 99.979787 
L 315.665251 99.243163 
L 318.035684 99.631437 
L 319.220901 99.190867 
L 320.406117 99.45536 
L 321.591334 98.959134 
L 322.776551 98.845414 
L 323.961767 99.164829 
L 325.146984 98.392081 
L 326.332201 97.948573 
L 327.517417 97.824068 
L 329.88785 97.320876 
L 331.073067 96.783244 
L 332.258284 95.802714 
L 333.4435 95.31032 
L 335.813934 94.810368 
L 338.184367 94.818483 
L 339.369584 94.916417 
L 341.740017 95.668226 
L 344.11045 95.5269 
L 345.295667 95.19122 
L 346.480884 94.721577 
L 347.6661 94.003182 
L 348.851317 93.617473 
L 350.036534 92.884696 
L 351.22175 92.428712 
L 352.406967 92.132728 
L 357.147833 91.533612 
L 359.518267 91.089501 
L 360.703483 90.68651 
L 361.8887 90.537259 
L 363.073917 90.511769 
L 367.814783 89.177353 
L 371.370433 89.020091 
L 373.740867 89.063507 
L 376.1113 88.580274 
L 377.296517 87.972963 
L 379.66695 87.755142 
L 380.852167 87.388625 
L 382.037383 87.240997 
L 383.2226 86.81177 
L 386.77825 86.356071 
L 390.3339 85.608278 
L 391.519116 85.728778 
L 392.704333 87.258874 
L 393.88955 89.137786 
L 395.074766 86.043369 
L 396.259983 86.134805 
L 397.4452 86.382071 
L 399.815633 87.251719 
L 402.186066 87.251719 
L 403.371283 88.444985 
L 404.5565 88.69664 
L 405.741716 88.806023 
L 408.11215 87.472487 
L 410.482583 87.472487 
L 411.667799 85.022681 
L 412.853016 83.776477 
L 414.038233 82.271611 
L 415.223449 81.058136 
L 416.408666 79.489934 
L 418.779099 79.489934 
L 419.964316 76.246006 
L 421.149533 75.470866 
L 422.334749 73.874732 
L 424.705183 71.609029 
L 427.075616 71.609029 
L 428.260833 68.961388 
L 429.446049 68.221327 
L 430.631266 67.038707 
L 431.816483 66.037114 
L 433.001699 64.849548 
L 435.372133 64.849548 
L 436.557349 62.443992 
L 441.298216 59.785103 
L 443.668649 59.785103 
L 444.853866 59.001024 
L 446.039082 58.971412 
L 447.224299 58.731204 
L 449.594732 58.578843 
L 451.965166 58.578843 
L 453.150382 59.349174 
L 454.335599 59.374614 
L 455.520816 59.694701 
L 457.891249 60.821916 
L 460.261682 60.821916 
L 461.446899 61.782583 
L 462.632116 62.109946 
L 466.187766 63.6007 
L 468.558199 63.6007 
L 469.743415 64.494288 
L 470.928632 64.591727 
L 472.113849 64.979929 
L 474.484282 65.349774 
L 476.854715 65.349774 
L 478.039932 65.67858 
L 479.225149 65.831488 
L 483.966015 65.857515 
L 485.151232 65.857515 
L 486.336449 65.502709 
L 492.262532 64.817081 
L 493.447749 64.817081 
L 494.632965 64.532957 
L 495.818182 64.530211 
L 497.003398 64.367247 
L 498.188615 64.362154 
L 499.373832 64.561377 
L 501.744265 64.561377 
L 502.929482 64.785668 
L 504.114698 64.784414 
L 505.299915 64.971926 
L 506.485132 65.023265 
L 507.670348 66.58987 
L 512.411215 66.587201 
L 513.596432 66.439352 
L 514.781648 66.631524 
L 518.337298 66.631524 
L 523.078165 67.27836 
L 524.263381 66.042502 
L 526.633815 66.042502 
L 527.819031 67.246781 
L 529.004248 67.738239 
L 531.374681 69.290078 
L 532.559898 69.720391 
L 534.930331 69.720391 
L 536.115548 70.74986 
L 537.300765 71.110462 
L 540.856415 71.611 
L 543.226848 71.611 
L 546.782498 72.48108 
L 547.967715 72.853755 
L 549.152931 73.035921 
L 551.523364 73.035921 
L 552.708581 73.463448 
L 553.893798 73.66721 
L 555.079014 74.023678 
L 556.264231 73.967541 
L 557.449448 74.253451 
L 559.819881 74.253451 
L 561.005098 74.696887 
L 564.560748 75.534957 
L 565.745964 75.873728 
L 568.116398 75.873728 
L 569.301614 76.747831 
L 574.042481 77.97937 
L 578.783347 77.946687 
L 579.968564 77.829979 
L 581.153781 77.894635 
L 583.524214 77.837714 
L 584.709431 77.837714 
L 585.894647 77.695659 
L 587.079864 77.696929 
L 588.265081 77.85062 
L 589.450297 77.781142 
L 590.635514 77.582063 
L 593.005947 77.582063 
L 595.376381 77.055455 
L 597.746814 76.532613 
L 598.932031 76.409164 
L 601.302464 76.409164 
L 602.487681 75.950145 
L 603.672897 75.88729 
L 607.228547 74.783556 
L 609.59898 74.783556 
L 611.969414 74.003225 
L 614.339847 73.619725 
L 615.525064 73.373958 
L 617.895497 73.373958 
L 619.080714 72.662592 
L 622.636364 72.662592 
L 622.636364 72.662592 
" style="fill:none;stroke:#8eba42;stroke-linecap:square;stroke-opacity:0.4;stroke-width:2;"/>
   </g>
   <g id="line2d_35">
    <defs>
     <path d="M 0 3 
C 0.795609 3 1.55874 2.683901 2.12132 2.12132 
C 2.683901 1.55874 3 0.795609 3 0 
C 3 -0.795609 2.683901 -1.55874 2.12132 -2.12132 
C 1.55874 -2.683901 0.795609 -3 0 -3 
C -0.795609 -3 -1.55874 -2.683901 -2.12132 -2.12132 
C -2.683901 -1.55874 -3 -0.795609 -3 0 
C -3 0.795609 -2.683901 1.55874 -2.12132 2.12132 
C -1.55874 2.683901 -0.795609 3 0 3 
z
" id="mf74a541cd6" style="stroke:#8eba42;stroke-opacity:0.4;"/>
    </defs>
    <g clip-path="url(#p962ffa196d)">
     <use style="fill:#8eba42;fill-opacity:0.4;stroke:#8eba42;stroke-opacity:0.4;" x="622.636364" xlink:href="#mf74a541cd6" y="72.662592"/>
    </g>
   </g>
   <g id="line2d_36">
    <path clip-path="url(#p962ffa196d)" d="M 115.363636 178.500277 
L 116.548853 178.500277 
L 117.73407 176.817413 
L 118.919286 176.817413 
L 120.104503 183.215297 
L 121.28972 176.817413 
L 122.474936 176.817413 
L 123.660153 178.500277 
L 124.84537 176.817413 
L 126.030586 180.559935 
L 128.40102 180.559935 
L 129.586236 193.355702 
L 130.771453 186.957819 
L 137.882753 186.957819 
L 139.067969 193.355702 
L 140.253186 193.355702 
L 140.266609 433 
M 142.609843 433 
L 142.623619 186.957819 
L 148.549703 186.957819 
L 149.734919 183.215297 
L 150.920136 193.355702 
L 152.105353 173.074891 
L 153.290569 167.764168 
L 154.475786 159.540314 
L 155.661003 155.877021 
L 156.846219 151.719589 
L 158.031436 146.115621 
L 159.216653 143.571468 
L 160.401869 138.575471 
L 161.587086 136.236817 
L 162.772302 135.300401 
L 163.957519 132.783063 
L 165.142736 129.233759 
L 166.327952 126.476893 
L 167.513169 123.281338 
L 168.698386 120.865398 
L 169.883602 120.451827 
L 171.068819 116.605919 
L 173.439252 110.376774 
L 175.809686 103.014508 
L 176.994902 100.635708 
L 178.180119 97.697374 
L 179.365336 95.216465 
L 182.920986 89.990203 
L 185.291419 87.18304 
L 187.661852 85.417759 
L 190.032285 83.00197 
L 192.402719 81.476815 
L 194.773152 80.353828 
L 195.958369 79.948784 
L 197.143585 79.761079 
L 198.328802 79.805038 
L 200.699235 79.563627 
L 206.625319 80.334049 
L 207.810535 80.600067 
L 211.366185 80.772669 
L 212.551402 80.638716 
L 213.736619 80.771087 
L 216.107052 80.452913 
L 217.292268 80.484584 
L 219.662702 80.356009 
L 220.847918 80.632706 
L 223.218352 80.806814 
L 224.403568 81.012372 
L 225.588785 80.889007 
L 227.959218 81.139927 
L 230.329652 81.123662 
L 232.700085 81.303726 
L 233.885302 81.711427 
L 235.070518 81.826257 
L 237.440952 82.376996 
L 238.626168 82.465111 
L 239.811385 82.700245 
L 246.922685 82.873345 
L 248.107901 82.740493 
L 250.478335 82.864814 
L 251.663551 83.044512 
L 252.848768 82.943587 
L 254.033985 83.165177 
L 255.219201 83.24742 
L 257.589635 83.721568 
L 261.145285 83.577986 
L 262.330501 83.656431 
L 264.700935 83.458189 
L 270.627018 83.652551 
L 271.812234 83.853108 
L 278.923534 83.256738 
L 286.034834 81.259496 
L 288.405268 80.075528 
L 290.775701 79.226291 
L 291.960918 78.674874 
L 293.146134 78.344201 
L 294.331351 77.802702 
L 296.701784 77.198987 
L 299.072218 76.231833 
L 303.813084 75.638061 
L 304.998301 75.265987 
L 307.368734 74.909665 
L 309.739167 74.174259 
L 310.924384 74.000859 
L 312.109601 73.654016 
L 314.480034 73.328627 
L 315.665251 73.055776 
L 320.406117 72.817841 
L 321.591334 72.887406 
L 322.776551 72.838986 
L 323.961767 72.985556 
L 327.517417 73.029077 
L 328.702634 73.137034 
L 332.258284 73.091463 
L 334.628717 73.365636 
L 338.184367 73.973849 
L 339.369584 74.370038 
L 342.925234 74.837349 
L 345.295667 74.7812 
L 346.480884 75.047903 
L 347.6661 75.007949 
L 348.851317 75.21072 
L 350.036534 75.057925 
L 357.147833 76.228019 
L 358.33305 76.7127 
L 364.259133 77.195005 
L 366.629567 77.206925 
L 377.296517 77.350865 
L 380.852167 78.490478 
L 382.037383 78.786757 
L 384.407816 78.961529 
L 385.593033 78.847973 
L 387.963466 78.017018 
L 389.148683 77.845461 
L 390.3339 77.543533 
L 393.88955 77.327723 
L 395.074766 76.779701 
L 402.186066 76.689905 
L 403.371283 77.269691 
L 405.741716 77.14537 
L 406.926933 77.191024 
L 409.297366 76.86431 
L 410.482583 76.918646 
L 411.667799 76.730111 
L 412.853016 76.676781 
L 415.223449 75.969976 
L 416.408666 75.928561 
L 423.519966 74.865393 
L 424.705183 74.556113 
L 427.075616 74.433451 
L 428.260833 73.845726 
L 429.446049 73.63425 
L 430.631266 73.559783 
L 433.001699 73.058037 
L 434.186916 72.546022 
L 435.372133 72.305485 
L 436.557349 72.312055 
L 441.298216 71.208094 
L 442.483432 71.093506 
L 443.668649 70.420202 
L 444.853866 70.152857 
L 446.039082 69.439669 
L 447.224299 69.102334 
L 448.409516 68.612484 
L 450.779949 67.819472 
L 451.965166 67.702444 
L 453.150382 67.312338 
L 454.335599 67.168508 
L 459.076466 65.510299 
L 460.261682 65.32501 
L 461.446899 64.962207 
L 466.187766 64.200253 
L 472.113849 63.782487 
L 473.299065 64.387245 
L 474.484282 64.309561 
L 475.669499 64.497207 
L 479.225149 64.559075 
L 480.410365 64.405488 
L 481.595582 63.565185 
L 482.780799 63.38934 
L 483.966015 62.973855 
L 487.521665 62.249344 
L 489.892099 62.076453 
L 494.632965 61.986759 
L 495.818182 62.074684 
L 498.188615 61.878604 
L 499.373832 61.806985 
L 500.559048 61.960318 
L 504.114698 62.001095 
L 505.299915 62.105761 
L 506.485132 62.390543 
L 507.670348 63.42733 
L 508.855565 63.185859 
L 511.225998 63.586189 
L 513.596432 63.54147 
L 515.966865 62.866376 
L 517.152082 62.383346 
L 518.337298 62.052137 
L 519.522515 61.993221 
L 523.078165 61.408815 
L 524.263381 60.643069 
L 525.448598 60.843801 
L 526.633815 60.819504 
L 527.819031 60.656483 
L 530.189465 60.832651 
L 532.559898 61.345588 
L 533.745115 61.698504 
L 534.930331 61.910064 
L 536.115548 62.352366 
L 543.226848 64.234776 
L 544.412065 64.168447 
L 551.523364 65.448366 
L 552.708581 65.598234 
L 555.079014 66.191396 
L 557.449448 66.966146 
L 558.634664 67.375003 
L 559.819881 67.622121 
L 561.005098 68.138438 
L 564.560748 68.934815 
L 565.745964 69.394852 
L 566.931181 69.626684 
L 568.116398 69.976141 
L 570.486831 71.03238 
L 571.672048 71.447323 
L 572.857264 72.081293 
L 575.227698 72.751841 
L 576.412914 72.908772 
L 577.598131 72.868562 
L 579.968564 72.593348 
L 581.153781 72.442212 
L 583.524214 72.628886 
L 584.709431 72.741556 
L 585.894647 72.689257 
L 587.079864 72.989141 
L 589.450297 73.336237 
L 594.191164 74.228748 
L 595.376381 74.213775 
L 597.746814 74.559889 
L 601.302464 74.872048 
L 602.487681 74.590531 
L 603.672897 74.680451 
L 608.413764 74.637022 
L 611.969414 74.876103 
L 613.15463 74.215696 
L 614.339847 74.0582 
L 615.525064 73.709192 
L 617.895497 73.357689 
L 619.080714 72.992808 
L 622.636364 72.992808 
L 622.636364 72.992808 
" style="fill:none;stroke:#ffb5b8;stroke-linecap:square;stroke-opacity:0.4;stroke-width:2;"/>
   </g>
   <g id="line2d_37">
    <defs>
     <path d="M 0 3 
C 0.795609 3 1.55874 2.683901 2.12132 2.12132 
C 2.683901 1.55874 3 0.795609 3 0 
C 3 -0.795609 2.683901 -1.55874 2.12132 -2.12132 
C 1.55874 -2.683901 0.795609 -3 0 -3 
C -0.795609 -3 -1.55874 -2.683901 -2.12132 -2.12132 
C -2.683901 -1.55874 -3 -0.795609 -3 0 
C -3 0.795609 -2.683901 1.55874 -2.12132 2.12132 
C -1.55874 2.683901 -0.795609 3 0 3 
z
" id="m296fb9ff11" style="stroke:#ffb5b8;stroke-opacity:0.4;"/>
    </defs>
    <g clip-path="url(#p962ffa196d)">
     <use style="fill:#ffb5b8;fill-opacity:0.4;stroke:#ffb5b8;stroke-opacity:0.4;" x="622.636364" xlink:href="#m296fb9ff11" y="72.992808"/>
    </g>
   </g>
   <g id="patch_3">
    <path d="M 90 200.094545 
L 90 51.84 
" style="fill:none;stroke:#ffffff;stroke-linecap:square;stroke-linejoin:miter;"/>
   </g>
   <g id="patch_4">
    <path d="M 648 200.094545 
L 648 51.84 
" style="fill:none;stroke:#ffffff;stroke-linecap:square;stroke-linejoin:miter;"/>
   </g>
   <g id="patch_5">
    <path d="M 90 200.094545 
L 648 200.094545 
" style="fill:none;stroke:#ffffff;stroke-linecap:square;stroke-linejoin:miter;"/>
   </g>
   <g id="patch_6">
    <path d="M 90 51.84 
L 648 51.84 
" style="fill:none;stroke:#ffffff;stroke-linecap:square;stroke-linejoin:miter;"/>
   </g>
   <g id="legend_1">
    <g id="patch_7">
     <path d="M 97 162.586875 
L 192.7625 162.586875 
Q 194.7625 162.586875 194.7625 160.586875 
L 194.7625 58.84 
Q 194.7625 56.84 192.7625 56.84 
L 97 56.84 
Q 95 56.84 95 58.84 
L 95 160.586875 
Q 95 162.586875 97 162.586875 
z
" style="fill:#e5e5e5;opacity:0.8;stroke:#cccccc;stroke-linejoin:miter;stroke-width:0.5;"/>
    </g>
    <g id="line2d_38">
     <path d="M 99 64.938437 
L 119 64.938437 
" style="fill:none;stroke:#348abd;stroke-linecap:square;stroke-width:4;"/>
    </g>
    <g id="line2d_39"/>
    <g id="text_15">
     <text style="font-family:DejaVu Sans;font-size:10px;font-stretch:normal;font-style:normal;font-weight:normal;text-anchor:start;" transform="rotate(-0, 127, 68.438437)" x="127" y="68.438437">Korea, South</text>
    </g>
    <g id="line2d_40">
     <path d="M 99 79.616562 
L 119 79.616562 
" style="fill:none;stroke:#348abd;stroke-linecap:square;stroke-opacity:0.4;stroke-width:2;"/>
    </g>
    <g id="line2d_41"/>
    <g id="text_16">
     <text style="font-family:DejaVu Sans;font-size:10px;font-stretch:normal;font-style:normal;font-weight:normal;text-anchor:start;" transform="rotate(-0, 127, 83.116562)" x="127" y="83.116562">Germany</text>
    </g>
    <g id="line2d_42">
     <path d="M 99 94.294687 
L 119 94.294687 
" style="fill:none;stroke:#988ed5;stroke-linecap:square;stroke-opacity:0.4;stroke-width:2;"/>
    </g>
    <g id="line2d_43"/>
    <g id="text_17">
     <text style="font-family:DejaVu Sans;font-size:10px;font-stretch:normal;font-style:normal;font-weight:normal;text-anchor:start;" transform="rotate(-0, 127, 97.794687)" x="127" y="97.794687">Australia</text>
    </g>
    <g id="line2d_44">
     <path d="M 99 108.972812 
L 119 108.972812 
" style="fill:none;stroke:#777777;stroke-linecap:square;stroke-opacity:0.4;stroke-width:2;"/>
    </g>
    <g id="line2d_45"/>
    <g id="text_18">
     <text style="font-family:DejaVu Sans;font-size:10px;font-stretch:normal;font-style:normal;font-weight:normal;text-anchor:start;" transform="rotate(-0, 127, 112.472812)" x="127" y="112.472812">Poland</text>
    </g>
    <g id="line2d_46">
     <path d="M 99 123.650937 
L 119 123.650937 
" style="fill:none;stroke:#fbc15e;stroke-linecap:square;stroke-opacity:0.4;stroke-width:2;"/>
    </g>
    <g id="line2d_47"/>
    <g id="text_19">
     <text style="font-family:DejaVu Sans;font-size:10px;font-stretch:normal;font-style:normal;font-weight:normal;text-anchor:start;" transform="rotate(-0, 127, 127.150937)" x="127" y="127.150937">Belarus</text>
    </g>
    <g id="line2d_48">
     <path d="M 99 138.329062 
L 119 138.329062 
" style="fill:none;stroke:#8eba42;stroke-linecap:square;stroke-opacity:0.4;stroke-width:2;"/>
    </g>
    <g id="line2d_49"/>
    <g id="text_20">
     <text style="font-family:DejaVu Sans;font-size:10px;font-stretch:normal;font-style:normal;font-weight:normal;text-anchor:start;" transform="rotate(-0, 127, 141.829062)" x="127" y="141.829062">Switzerland</text>
    </g>
    <g id="line2d_50">
     <path d="M 99 153.007187 
L 119 153.007187 
" style="fill:none;stroke:#ffb5b8;stroke-linecap:square;stroke-opacity:0.4;stroke-width:2;"/>
    </g>
    <g id="line2d_51"/>
    <g id="text_21">
     <text style="font-family:DejaVu Sans;font-size:10px;font-stretch:normal;font-style:normal;font-weight:normal;text-anchor:start;" transform="rotate(-0, 127, 156.507187)" x="127" y="156.507187">US</text>
    </g>
   </g>
  </g>
 </g>
 <defs>
  <clipPath id="p962ffa196d">
   <rect height="148.254545" width="558" x="90" y="51.84"/>
  </clipPath>
 </defs>
</svg>
