<?xml version="1.0" encoding="utf-8" standalone="no"?>
<!DOCTYPE svg PUBLIC "-//W3C//DTD SVG 1.1//EN"
  "http://www.w3.org/Graphics/SVG/1.1/DTD/svg11.dtd">
<svg height="432pt" version="1.1" viewBox="0 0 720 432" width="720pt" xmlns="http://www.w3.org/2000/svg" xmlns:xlink="http://www.w3.org/1999/xlink">
 <metadata>
  <rdf:RDF xmlns:cc="http://creativecommons.org/ns#" xmlns:dc="http://purl.org/dc/elements/1.1/" xmlns:rdf="http://www.w3.org/1999/02/22-rdf-syntax-ns#">
   <cc:Work>
    <dc:type rdf:resource="http://purl.org/dc/dcmitype/StillImage"/>
    <dc:date>2021-03-29T21:10:40.564297</dc:date>
    <dc:format>image/svg+xml</dc:format>
    <dc:creator>
     <cc:Agent>
      <dc:title>Matplotlib v3.4.0, https://matplotlib.org/</dc:title>
     </cc:Agent>
    </dc:creator>
   </cc:Work>
  </rdf:RDF>
 </metadata>
 <defs>
  <style type="text/css">*{stroke-linecap:butt;stroke-linejoin:round;}</style>
 </defs>
 <g id="figure_1">
  <g id="patch_1">
   <path d="M 0 432 
L 720 432 
L 720 0 
L 0 0 
z
" style="fill:#ffffff;"/>
  </g>
  <g id="axes_1">
   <g id="patch_2">
    <path d="M 90 200.094545 
L 648 200.094545 
L 648 51.84 
L 90 51.84 
z
" style="fill:#e5e5e5;"/>
   </g>
   <g id="matplotlib.axis_1">
    <g id="xtick_1">
     <g id="line2d_1">
      <path clip-path="url(#pa4b4b033d7)" d="M 156.943368 200.094545 
L 156.943368 51.84 
" style="fill:none;stroke:#ffffff;stroke-linecap:square;stroke-width:0.8;"/>
     </g>
     <g id="line2d_2">
      <defs>
       <path d="M 0 0 
L 0 3.5 
" id="mc005d2ba40" style="stroke:#555555;stroke-width:0.8;"/>
      </defs>
      <g>
       <use style="fill:#555555;stroke:#555555;stroke-width:0.8;" x="156.943368" xlink:href="#mc005d2ba40" y="200.094545"/>
      </g>
     </g>
     <g id="text_1">
      <text style="fill:#555555;font-family:DejaVu Sans;font-size:10px;font-stretch:normal;font-style:normal;font-weight:normal;text-anchor:middle;" transform="rotate(-0, 156.943368, 214.692983)" x="156.943368" y="214.692983">2020-03</text>
     </g>
    </g>
    <g id="xtick_2">
     <g id="line2d_3">
      <path clip-path="url(#pa4b4b033d7)" d="M 229.410901 200.094545 
L 229.410901 51.84 
" style="fill:none;stroke:#ffffff;stroke-linecap:square;stroke-width:0.8;"/>
     </g>
     <g id="line2d_4">
      <g>
       <use style="fill:#555555;stroke:#555555;stroke-width:0.8;" x="229.410901" xlink:href="#mc005d2ba40" y="200.094545"/>
      </g>
     </g>
     <g id="text_2">
      <text style="fill:#555555;font-family:DejaVu Sans;font-size:10px;font-stretch:normal;font-style:normal;font-weight:normal;text-anchor:middle;" transform="rotate(-0, 229.410901, 214.692983)" x="229.410901" y="214.692983">2020-05</text>
     </g>
    </g>
    <g id="xtick_3">
     <g id="line2d_5">
      <path clip-path="url(#pa4b4b033d7)" d="M 301.878433 200.094545 
L 301.878433 51.84 
" style="fill:none;stroke:#ffffff;stroke-linecap:square;stroke-width:0.8;"/>
     </g>
     <g id="line2d_6">
      <g>
       <use style="fill:#555555;stroke:#555555;stroke-width:0.8;" x="301.878433" xlink:href="#mc005d2ba40" y="200.094545"/>
      </g>
     </g>
     <g id="text_3">
      <text style="fill:#555555;font-family:DejaVu Sans;font-size:10px;font-stretch:normal;font-style:normal;font-weight:normal;text-anchor:middle;" transform="rotate(-0, 301.878433, 214.692983)" x="301.878433" y="214.692983">2020-07</text>
     </g>
    </g>
    <g id="xtick_4">
     <g id="line2d_7">
      <path clip-path="url(#pa4b4b033d7)" d="M 375.533958 200.094545 
L 375.533958 51.84 
" style="fill:none;stroke:#ffffff;stroke-linecap:square;stroke-width:0.8;"/>
     </g>
     <g id="line2d_8">
      <g>
       <use style="fill:#555555;stroke:#555555;stroke-width:0.8;" x="375.533958" xlink:href="#mc005d2ba40" y="200.094545"/>
      </g>
     </g>
     <g id="text_4">
      <text style="fill:#555555;font-family:DejaVu Sans;font-size:10px;font-stretch:normal;font-style:normal;font-weight:normal;text-anchor:middle;" transform="rotate(-0, 375.533958, 214.692983)" x="375.533958" y="214.692983">2020-09</text>
     </g>
    </g>
    <g id="xtick_5">
     <g id="line2d_9">
      <path clip-path="url(#pa4b4b033d7)" d="M 448.00149 200.094545 
L 448.00149 51.84 
" style="fill:none;stroke:#ffffff;stroke-linecap:square;stroke-width:0.8;"/>
     </g>
     <g id="line2d_10">
      <g>
       <use style="fill:#555555;stroke:#555555;stroke-width:0.8;" x="448.00149" xlink:href="#mc005d2ba40" y="200.094545"/>
      </g>
     </g>
     <g id="text_5">
      <text style="fill:#555555;font-family:DejaVu Sans;font-size:10px;font-stretch:normal;font-style:normal;font-weight:normal;text-anchor:middle;" transform="rotate(-0, 448.00149, 214.692983)" x="448.00149" y="214.692983">2020-11</text>
     </g>
    </g>
    <g id="xtick_6">
     <g id="line2d_11">
      <path clip-path="url(#pa4b4b033d7)" d="M 520.469023 200.094545 
L 520.469023 51.84 
" style="fill:none;stroke:#ffffff;stroke-linecap:square;stroke-width:0.8;"/>
     </g>
     <g id="line2d_12">
      <g>
       <use style="fill:#555555;stroke:#555555;stroke-width:0.8;" x="520.469023" xlink:href="#mc005d2ba40" y="200.094545"/>
      </g>
     </g>
     <g id="text_6">
      <text style="fill:#555555;font-family:DejaVu Sans;font-size:10px;font-stretch:normal;font-style:normal;font-weight:normal;text-anchor:middle;" transform="rotate(-0, 520.469023, 214.692983)" x="520.469023" y="214.692983">2021-01</text>
     </g>
    </g>
    <g id="xtick_7">
     <g id="line2d_13">
      <path clip-path="url(#pa4b4b033d7)" d="M 590.560571 200.094545 
L 590.560571 51.84 
" style="fill:none;stroke:#ffffff;stroke-linecap:square;stroke-width:0.8;"/>
     </g>
     <g id="line2d_14">
      <g>
       <use style="fill:#555555;stroke:#555555;stroke-width:0.8;" x="590.560571" xlink:href="#mc005d2ba40" y="200.094545"/>
      </g>
     </g>
     <g id="text_7">
      <text style="fill:#555555;font-family:DejaVu Sans;font-size:10px;font-stretch:normal;font-style:normal;font-weight:normal;text-anchor:middle;" transform="rotate(-0, 590.560571, 214.692983)" x="590.560571" y="214.692983">2021-03</text>
     </g>
    </g>
   </g>
   <g id="matplotlib.axis_2">
    <g id="ytick_1">
     <g id="line2d_15">
      <path clip-path="url(#pa4b4b033d7)" d="M 90 164.389375 
L 648 164.389375 
" style="fill:none;stroke:#ffffff;stroke-linecap:square;stroke-width:0.8;"/>
     </g>
     <g id="line2d_16">
      <defs>
       <path d="M 0 0 
L -3.5 0 
" id="m2394a0e18c" style="stroke:#555555;stroke-width:0.8;"/>
      </defs>
      <g>
       <use style="fill:#555555;stroke:#555555;stroke-width:0.8;" x="90" xlink:href="#m2394a0e18c" y="164.389375"/>
      </g>
     </g>
     <g id="line2d_17">
      <defs>
       <path d="M 0 0 
L 3.5 0 
" id="m546513e5ed" style="stroke:#555555;stroke-width:0.8;"/>
      </defs>
      <g>
       <use style="fill:#555555;stroke:#555555;stroke-width:0.8;" x="648" xlink:href="#m546513e5ed" y="164.389375"/>
      </g>
     </g>
     <g id="text_8">
      <text style="fill:#555555;font-family:DejaVu Sans;font-size:10px;font-stretch:normal;font-style:normal;font-weight:normal;text-anchor:end;" transform="rotate(-0, 83, 168.188594)" x="83" y="168.188594">0.001</text>
     </g>
     <g id="text_9">
      <text style="fill:#555555;font-family:DejaVu Sans;font-size:10px;font-stretch:normal;font-style:normal;font-weight:normal;text-anchor:start;" transform="rotate(-0, 655, 168.188594)" x="655" y="168.188594">0.001</text>
     </g>
    </g>
    <g id="ytick_2">
     <g id="line2d_18">
      <path clip-path="url(#pa4b4b033d7)" d="M 90 121.882756 
L 648 121.882756 
" style="fill:none;stroke:#ffffff;stroke-linecap:square;stroke-width:0.8;"/>
     </g>
     <g id="line2d_19">
      <g>
       <use style="fill:#555555;stroke:#555555;stroke-width:0.8;" x="90" xlink:href="#m2394a0e18c" y="121.882756"/>
      </g>
     </g>
     <g id="line2d_20">
      <g>
       <use style="fill:#555555;stroke:#555555;stroke-width:0.8;" x="648" xlink:href="#m546513e5ed" y="121.882756"/>
      </g>
     </g>
     <g id="text_10">
      <text style="fill:#555555;font-family:DejaVu Sans;font-size:10px;font-stretch:normal;font-style:normal;font-weight:normal;text-anchor:end;" transform="rotate(-0, 83, 125.681975)" x="83" y="125.681975">0.1</text>
     </g>
     <g id="text_11">
      <text style="fill:#555555;font-family:DejaVu Sans;font-size:10px;font-stretch:normal;font-style:normal;font-weight:normal;text-anchor:start;" transform="rotate(-0, 655, 125.681975)" x="655" y="125.681975">0.1</text>
     </g>
    </g>
    <g id="ytick_3">
     <g id="line2d_21">
      <path clip-path="url(#pa4b4b033d7)" d="M 90 79.376136 
L 648 79.376136 
" style="fill:none;stroke:#ffffff;stroke-linecap:square;stroke-width:0.8;"/>
     </g>
     <g id="line2d_22">
      <g>
       <use style="fill:#555555;stroke:#555555;stroke-width:0.8;" x="90" xlink:href="#m2394a0e18c" y="79.376136"/>
      </g>
     </g>
     <g id="line2d_23">
      <g>
       <use style="fill:#555555;stroke:#555555;stroke-width:0.8;" x="648" xlink:href="#m546513e5ed" y="79.376136"/>
      </g>
     </g>
     <g id="text_12">
      <text style="fill:#555555;font-family:DejaVu Sans;font-size:10px;font-stretch:normal;font-style:normal;font-weight:normal;text-anchor:end;" transform="rotate(-0, 83, 83.175355)" x="83" y="83.175355">10</text>
     </g>
     <g id="text_13">
      <text style="fill:#555555;font-family:DejaVu Sans;font-size:10px;font-stretch:normal;font-style:normal;font-weight:normal;text-anchor:start;" transform="rotate(-0, 655, 83.175355)" x="655" y="83.175355">10</text>
     </g>
    </g>
    <g id="text_14">
     <text style="fill:#555555;font-family:DejaVu Sans;font-size:12px;font-stretch:normal;font-style:normal;font-weight:normal;" transform="translate(21.0015 173.472273)rotate(-90)">daily new cases</text>
     <text style="fill:#555555;font-family:DejaVu Sans;font-size:12px;font-stretch:normal;font-style:normal;font-weight:normal;" transform="translate(34.438875 175.47571)rotate(-90)">per 100K people</text>
     <text style="fill:#555555;font-family:DejaVu Sans;font-size:12px;font-stretch:normal;font-style:normal;font-weight:normal;" transform="translate(47.87625 187.112898)rotate(-90)">(rolling 7-day mean)</text>
    </g>
   </g>
   <g id="line2d_24">
    <path clip-path="url(#pa4b4b033d7)" d="M 115.363636 166.043588 
L 116.551629 166.043588 
L 117.739621 155.903182 
L 118.927613 154.930684 
L 120.115606 153.24782 
L 121.303598 154.050952 
L 122.49159 153.24782 
L 124.867575 149.006247 
L 126.055567 152.509011 
L 127.24356 153.24782 
L 128.431552 154.930684 
L 129.619544 153.24782 
L 130.807537 153.24782 
L 131.995529 155.903182 
L 133.183521 161.328568 
L 134.371514 163.388226 
L 136.747498 163.388226 
L 137.935491 166.043588 
L 140.311475 166.043588 
L 141.499468 136.21048 
L 143.875452 120.766945 
L 146.251437 114.449175 
L 147.439429 112.936458 
L 148.627422 110.513283 
L 149.815414 107.734925 
L 152.191399 103.198223 
L 153.379391 101.880319 
L 154.567383 100.855545 
L 155.755376 99.158197 
L 156.943368 98.83286 
L 159.319353 99.055698 
L 161.695337 100.657375 
L 162.88333 101.85385 
L 164.071322 104.628428 
L 165.259314 105.427594 
L 166.447307 107.096627 
L 167.635299 109.411127 
L 168.823291 112.01778 
L 170.011284 113.94589 
L 171.199276 114.981492 
L 172.387268 114.40331 
L 173.575261 116.287366 
L 174.763253 115.769139 
L 175.951245 116.079314 
L 177.139238 115.546398 
L 178.32723 114.495268 
L 179.515222 115.392344 
L 180.703215 115.494761 
L 181.891207 115.405084 
L 183.079199 116.03826 
L 185.455184 115.997388 
L 186.643176 116.806701 
L 187.831169 115.716244 
L 189.019161 115.091741 
L 190.207154 115.079426 
L 191.395146 115.265901 
L 192.583138 115.328906 
L 193.771131 116.010992 
L 194.959123 116.343648 
L 196.147115 116.791874 
L 197.335108 118.026511 
L 199.711092 119.856187 
L 200.899085 121.162751 
L 203.275069 124.340101 
L 205.651054 125.869845 
L 206.839046 126.961959 
L 208.027039 127.752938 
L 209.215031 127.999091 
L 210.403023 128.618107 
L 211.591016 129.996593 
L 212.779008 130.77161 
L 215.154993 133.404541 
L 216.342985 134.150821 
L 217.530977 135.397233 
L 218.71897 136.332736 
L 219.906962 136.089822 
L 221.094954 135.970721 
L 222.282947 135.970721 
L 223.470939 136.838627 
L 225.846924 138.089738 
L 227.034916 137.653585 
L 228.222908 137.942052 
L 229.410901 139.713243 
L 230.598893 141.047756 
L 231.786885 141.047756 
L 232.974878 140.452053 
L 234.16287 138.392394 
L 236.538855 132.967009 
L 237.726847 131.114779 
L 240.102832 128.200852 
L 241.290824 127.465966 
L 242.478816 127.418992 
L 246.042793 130.440743 
L 247.230786 130.058749 
L 248.418778 131.184971 
L 249.60677 131.691854 
L 250.794763 131.398808 
L 251.982755 130.57167 
L 253.170747 130.505974 
L 255.546732 129.632196 
L 256.734724 126.316227 
L 257.922717 124.857817 
L 259.110709 124.306597 
L 260.298701 124.239953 
L 262.674686 123.05737 
L 263.862678 122.798159 
L 265.050671 124.010416 
L 266.238663 124.647233 
L 267.426655 124.239953 
L 268.614648 123.294055 
L 270.990632 123.204585 
L 272.178625 123.174954 
L 273.366617 122.999135 
L 274.554609 122.518434 
L 275.742602 122.601465 
L 276.930594 123.264135 
L 279.306579 123.445125 
L 280.494571 123.660866 
L 281.682563 123.234312 
L 282.870556 123.445125 
L 284.058548 122.883756 
L 285.24654 122.490923 
L 286.434533 123.028207 
L 287.622525 122.68525 
L 288.810517 122.463493 
L 289.99851 123.354186 
L 291.186502 123.660866 
L 292.374494 124.173786 
L 293.562487 123.723443 
L 294.750479 122.970155 
L 297.126464 123.086626 
L 299.502448 121.72679 
L 300.690441 121.428213 
L 301.878433 121.452729 
L 304.254418 121.330796 
L 305.44241 121.021109 
L 306.630402 121.138993 
L 307.818395 121.576294 
L 309.006387 122.300603 
L 310.194379 122.769802 
L 311.382372 122.327552 
L 312.570364 122.629309 
L 313.758356 123.324072 
L 316.134341 122.546028 
L 317.322333 122.436144 
L 318.510326 122.713348 
L 319.698318 123.786448 
L 320.88631 123.414712 
L 322.074303 122.713348 
L 323.262295 122.769802 
L 324.450287 123.324072 
L 325.63828 121.330796 
L 326.826272 120.766945 
L 328.014264 120.789763 
L 330.390249 121.551449 
L 331.578241 122.629309 
L 332.766234 122.769802 
L 333.954226 125.444058 
L 335.142218 126.569125 
L 336.330211 126.654988 
L 337.518203 126.399759 
L 338.706195 127.051573 
L 339.894188 125.989461 
L 341.08218 126.654988 
L 342.270172 126.151398 
L 344.646157 125.712732 
L 345.834149 125.712732 
L 347.022142 124.929093 
L 348.210134 124.475344 
L 349.398126 122.009238 
L 350.586119 119.256613 
L 351.774111 115.456221 
L 355.338088 109.695155 
L 356.52608 108.225341 
L 357.714073 107.014076 
L 358.902065 106.198539 
L 360.090057 105.65973 
L 361.27805 105.358647 
L 363.654034 105.117127 
L 364.842027 104.49845 
L 366.030019 104.316435 
L 367.218011 104.351012 
L 368.406004 104.736151 
L 370.781989 104.992505 
L 371.969981 105.213823 
L 373.157973 106.316846 
L 377.909943 109.66088 
L 379.097935 110.364406 
L 380.285927 111.222748 
L 381.47392 111.552728 
L 383.849904 112.01778 
L 385.037897 112.433299 
L 386.225889 112.526159 
L 387.413881 112.810479 
L 388.601874 113.233912 
L 389.789866 113.254087 
L 390.977858 113.773358 
L 392.165851 114.055383 
L 394.541835 114.95717 
L 395.729828 115.520543 
L 396.91782 115.559353 
L 398.105812 115.929668 
L 399.293805 116.093039 
L 400.481797 116.791874 
L 401.669789 116.601251 
L 404.045774 117.247404 
L 405.233766 117.200825 
L 407.609751 118.877496 
L 408.797743 118.621086 
L 409.985736 119.198743 
L 411.173728 118.766733 
L 412.36172 118.111583 
L 413.549713 118.094506 
L 418.301682 118.549115 
L 420.677667 117.677534 
L 421.865659 118.180209 
L 423.053651 117.677534 
L 424.241644 117.7924 
L 425.429636 117.775902 
L 426.617628 117.247404 
L 427.805621 117.580202 
L 428.993613 118.319012 
L 430.181605 118.197446 
L 431.369598 117.858685 
L 432.55759 116.217493 
L 433.745582 116.161973 
L 434.933575 116.58675 
L 436.121567 115.983805 
L 437.309559 115.585317 
L 439.685544 115.354229 
L 440.873536 115.889274 
L 443.249521 114.495268 
L 445.625506 114.908718 
L 446.813498 114.729253 
L 448.00149 114.729253 
L 449.189483 114.369061 
L 450.377475 114.80062 
L 452.75346 114.244556 
L 456.317437 113.478976 
L 457.505429 113.014846 
L 458.693421 111.938626 
L 459.881414 111.386264 
L 461.069406 110.618945 
L 462.257398 109.68829 
L 465.821375 106.577685 
L 467.009368 105.730971 
L 468.19736 105.201153 
L 469.385352 105.000761 
L 470.573345 104.518027 
L 471.761337 104.251474 
L 472.949329 103.380054 
L 474.137322 102.692559 
L 480.077283 101.052677 
L 481.265276 101.16919 
L 483.64126 100.755928 
L 487.205237 99.393628 
L 489.581222 98.75906 
L 490.769214 98.635975 
L 493.145199 97.171191 
L 494.333191 96.990836 
L 495.521184 96.50777 
L 497.897168 95.355201 
L 499.085161 94.827376 
L 503.83713 94.337209 
L 506.213115 94.358045 
L 507.401107 94.132671 
L 508.589099 94.035224 
L 510.965084 94.346319 
L 512.153076 94.119957 
L 514.529061 94.193942 
L 515.717053 94.464253 
L 518.093038 95.330543 
L 519.28103 95.028447 
L 520.469023 95.503075 
L 521.657015 95.816807 
L 522.845007 95.969223 
L 524.033 96.540741 
L 525.220992 96.848023 
L 526.408984 96.824151 
L 527.596977 97.849783 
L 528.784969 98.194914 
L 529.972961 98.761161 
L 531.160954 99.531885 
L 532.348946 99.902308 
L 533.536938 100.050876 
L 534.724931 100.407964 
L 535.912923 100.562416 
L 540.664892 102.219273 
L 543.040877 103.106951 
L 544.228869 102.946886 
L 545.416862 103.053287 
L 546.604854 102.561632 
L 548.980839 101.883265 
L 550.168831 101.809904 
L 551.356824 101.918686 
L 552.544816 102.323743 
L 553.732808 102.379534 
L 554.920801 102.654046 
L 556.108793 102.802559 
L 557.296785 103.133901 
L 558.484778 103.345471 
L 560.860762 103.335121 
L 563.236747 103.537301 
L 565.612732 103.235668 
L 567.988716 103.502125 
L 569.176709 103.311017 
L 572.740686 101.883265 
L 573.928678 101.429135 
L 576.304663 100.948258 
L 577.492655 100.980261 
L 578.680647 101.248608 
L 579.86864 101.763257 
L 581.056632 102.441921 
L 582.244624 102.940277 
L 584.620609 103.311017 
L 585.808601 103.232258 
L 588.184586 103.269841 
L 589.372578 103.174473 
L 591.748563 103.140651 
L 592.936555 102.936974 
L 594.124548 102.966743 
L 595.31254 102.625267 
L 597.688525 102.413795 
L 600.064509 101.918686 
L 602.440494 101.687956 
L 603.628486 101.930523 
L 606.004471 101.99292 
L 609.568448 102.191815 
L 610.75644 102.106912 
L 615.50841 102.243748 
L 617.884394 102.004853 
L 620.260379 102.082796 
L 622.636364 102.082796 
L 622.636364 102.082796 
" style="fill:none;stroke:#348abd;stroke-linecap:square;stroke-width:4;"/>
   </g>
   <g id="line2d_25">
    <defs>
     <path d="M 0 3 
C 0.795609 3 1.55874 2.683901 2.12132 2.12132 
C 2.683901 1.55874 3 0.795609 3 0 
C 3 -0.795609 2.683901 -1.55874 2.12132 -2.12132 
C 1.55874 -2.683901 0.795609 -3 0 -3 
C -0.795609 -3 -1.55874 -2.683901 -2.12132 -2.12132 
C -2.683901 -1.55874 -3 -0.795609 -3 0 
C -3 0.795609 -2.683901 1.55874 -2.12132 2.12132 
C -1.55874 2.683901 -0.795609 3 0 3 
z
" id="mbdcb88c351" style="stroke:#348abd;"/>
    </defs>
    <g clip-path="url(#pa4b4b033d7)">
     <use style="fill:#348abd;stroke:#348abd;" x="622.636364" xlink:href="#mbdcb88c351" y="102.082796"/>
    </g>
   </g>
   <g id="line2d_26">
    <path clip-path="url(#pa4b4b033d7)" d="M 115.363636 167.921651 
L 116.551629 167.921651 
L 117.739621 165.861992 
L 118.927613 161.523767 
L 120.115606 159.464109 
L 121.303598 158.584377 
L 122.49159 161.523767 
L 126.055567 161.523767 
L 127.24356 165.861992 
L 128.431552 167.921651 
L 129.619544 174.319535 
L 130.807537 167.921651 
L 133.183521 167.921651 
L 134.371514 170.577012 
L 135.559506 170.577012 
L 136.747498 174.319535 
L 137.935491 174.319535 
L 137.95 433 
M 147.425274 433 
L 147.439429 180.717418 
L 148.627422 158.584377 
L 149.815414 149.323703 
L 151.003406 148.728 
L 152.191399 142.475476 
L 153.379391 137.001383 
L 155.755376 132.836835 
L 156.943368 130.324379 
L 158.13136 124.619595 
L 159.319353 121.340126 
L 160.507345 119.989646 
L 161.695337 117.827995 
L 162.88333 116.801895 
L 164.071322 114.81696 
L 165.259314 112.357639 
L 166.447307 112.642368 
L 167.635299 106.801713 
L 171.199276 100.272686 
L 172.387268 97.997526 
L 173.575261 95.325317 
L 174.763253 93.112262 
L 175.951245 91.266689 
L 178.32723 89.741928 
L 179.515222 88.517636 
L 180.703215 87.72825 
L 181.891207 87.248114 
L 183.079199 85.999084 
L 184.267192 85.254272 
L 185.455184 84.014687 
L 186.643176 83.572797 
L 189.019161 83.184324 
L 190.207154 82.782589 
L 191.395146 82.71297 
L 192.583138 82.842193 
L 193.771131 83.285928 
L 194.959123 83.375061 
L 196.147115 83.756377 
L 198.5231 84.029788 
L 199.711092 84.576427 
L 202.087077 85.935442 
L 204.463062 86.640095 
L 205.651054 87.741095 
L 208.027039 89.531941 
L 209.215031 89.6706 
L 210.403023 90.058884 
L 211.591016 90.62892 
L 212.779008 90.810179 
L 213.967 90.843372 
L 215.154993 91.426727 
L 216.342985 91.700182 
L 217.530977 92.864679 
L 218.71897 93.161885 
L 219.906962 93.581235 
L 221.094954 94.260528 
L 222.282947 94.317539 
L 223.470939 94.916367 
L 225.846924 96.597027 
L 229.410901 98.490925 
L 230.598893 98.871934 
L 231.786885 99.507358 
L 232.974878 99.79326 
L 234.16287 99.664783 
L 236.538855 100.094239 
L 237.726847 99.788948 
L 240.102832 100.518184 
L 241.290824 102.013876 
L 242.478816 102.781835 
L 243.666809 103.223439 
L 244.854801 103.095096 
L 246.042793 104.219592 
L 247.230786 102.857657 
L 248.418778 103.334584 
L 249.60677 102.986781 
L 250.794763 103.121859 
L 253.170747 104.25682 
L 254.35874 104.049339 
L 255.546732 105.602271 
L 256.734724 106.661489 
L 257.922717 106.293774 
L 259.110709 106.186832 
L 260.298701 106.212731 
L 262.674686 106.835562 
L 263.862678 107.861653 
L 265.050671 108.148589 
L 267.426655 110.55038 
L 268.614648 109.42743 
L 269.80264 109.11043 
L 270.990632 108.444731 
L 272.178625 108.042574 
L 274.554609 109.600501 
L 275.742602 109.261553 
L 276.930594 111.445339 
L 278.118586 111.697672 
L 279.306579 112.776353 
L 280.494571 111.813248 
L 281.682563 110.18872 
L 282.870556 106.437335 
L 284.058548 106.595171 
L 286.434533 104.747585 
L 287.622525 103.965376 
L 288.810517 103.650049 
L 289.99851 103.565298 
L 291.186502 105.252921 
L 292.374494 104.789479 
L 293.562487 104.664363 
L 294.750479 105.604969 
L 295.938471 106.010363 
L 297.126464 107.00984 
L 298.314456 106.749642 
L 299.502448 106.820161 
L 300.690441 107.640376 
L 301.878433 107.653841 
L 303.066425 107.355532 
L 304.254418 106.749642 
L 306.630402 107.434143 
L 307.818395 108.028531 
L 309.006387 108.309928 
L 310.194379 108.459423 
L 311.382372 108.892139 
L 312.570364 110.039204 
L 313.758356 110.0523 
L 314.946349 109.717711 
L 317.322333 107.745247 
L 318.510326 107.731648 
L 319.698318 107.401307 
L 320.88631 106.381404 
L 323.262295 105.699888 
L 324.450287 105.578027 
L 325.63828 105.1908 
L 326.826272 104.509717 
L 328.014264 104.319984 
L 329.202257 104.6668 
L 330.390249 104.184826 
L 331.578241 103.55881 
L 332.766234 102.763968 
L 333.954226 102.525125 
L 335.142218 102.620313 
L 336.330211 102.966485 
L 337.518203 102.10391 
L 338.706195 101.881353 
L 339.894188 101.110571 
L 341.08218 101.215621 
L 342.270172 100.736893 
L 344.646157 100.315179 
L 347.022142 99.384149 
L 348.210134 99.337511 
L 349.398126 98.68265 
L 350.586119 98.24336 
L 351.774111 98.255521 
L 352.962103 98.09388 
L 355.338088 97.117795 
L 357.714073 96.665403 
L 360.090057 96.301852 
L 361.27805 96.190266 
L 367.218011 96.577729 
L 370.781989 97.010839 
L 371.969981 97.2784 
L 373.157973 97.312397 
L 375.533958 97.58445 
L 376.72195 97.510067 
L 377.909943 97.288257 
L 379.097935 96.858968 
L 381.47392 96.654143 
L 382.661912 96.365093 
L 383.849904 96.224382 
L 386.225889 95.695876 
L 387.413881 96.084821 
L 389.789866 95.310269 
L 392.165851 94.404523 
L 393.353843 93.933281 
L 396.91782 93.720148 
L 398.105812 93.902097 
L 400.481797 93.670402 
L 401.669789 93.949295 
L 402.857782 93.738034 
L 404.045774 93.232232 
L 405.233766 93.24071 
L 406.421759 92.672614 
L 411.173728 91.818778 
L 412.36172 91.341757 
L 413.549713 90.995069 
L 414.737705 90.164638 
L 415.925697 89.122609 
L 417.11369 88.375937 
L 419.489674 87.344627 
L 420.677667 86.142427 
L 421.865659 85.506418 
L 423.053651 84.586662 
L 425.429636 83.069727 
L 426.617628 82.635355 
L 427.805621 82.378855 
L 428.993613 81.983062 
L 431.369598 80.235472 
L 432.55759 80.52819 
L 434.933575 78.694474 
L 436.121567 77.872249 
L 439.685544 76.316555 
L 440.873536 74.974979 
L 442.061529 74.41531 
L 444.437513 73.856782 
L 445.625506 72.818913 
L 446.813498 73.264801 
L 448.00149 72.101188 
L 450.377475 71.595368 
L 451.565467 71.590763 
L 452.75346 71.459401 
L 453.941452 72.802839 
L 455.129444 71.440463 
L 456.317437 72.065978 
L 457.505429 71.91208 
L 459.881414 71.914955 
L 461.069406 72.743272 
L 462.257398 72.144942 
L 463.445391 72.167689 
L 464.633383 72.072609 
L 468.19736 72.153789 
L 470.573345 72.079318 
L 471.761337 72.811568 
L 472.949329 72.143863 
L 475.325314 72.425908 
L 478.889291 72.533337 
L 480.077283 71.924287 
L 481.265276 72.609841 
L 482.453268 72.486664 
L 483.64126 72.855724 
L 484.829253 71.948185 
L 486.017245 71.4207 
L 487.205237 72.022525 
L 488.39323 71.708853 
L 489.581222 71.58528 
L 491.957207 70.299414 
L 493.145199 70.55814 
L 494.333191 70.330962 
L 495.521184 70.272374 
L 496.709176 70.008415 
L 497.897168 69.58178 
L 499.085161 69.721996 
L 500.273153 69.416713 
L 501.461145 69.42276 
L 502.649138 69.876176 
L 503.83713 69.18286 
L 506.213115 69.010165 
L 507.401107 69.20218 
L 508.589099 70.964342 
L 509.777092 71.496589 
L 510.965084 71.10587 
L 512.153076 71.449594 
L 513.341069 72.635281 
L 514.529061 71.543489 
L 515.717053 72.034594 
L 516.905046 72.036228 
L 520.469023 72.497189 
L 521.657015 72.581002 
L 522.845007 74.44395 
L 524.033 72.314661 
L 525.220992 71.149401 
L 526.408984 70.410337 
L 527.596977 70.988604 
L 528.784969 71.027634 
L 529.972961 70.47977 
L 531.160954 70.545858 
L 532.348946 72.123828 
L 533.536938 72.908289 
L 534.724931 73.555795 
L 535.912923 72.712867 
L 537.100915 72.902356 
L 538.288908 74.152174 
L 539.4769 73.850034 
L 540.664892 75.055438 
L 541.852885 74.31954 
L 546.604854 75.177658 
L 547.792846 76.619509 
L 548.980839 75.878804 
L 550.168831 76.267764 
L 551.356824 75.712975 
L 552.544816 76.757243 
L 553.732808 76.783232 
L 554.920801 76.987134 
L 556.108793 77.377865 
L 558.484778 77.878804 
L 559.67277 79.151748 
L 560.860762 78.284201 
L 563.236747 78.858173 
L 565.612732 79.854111 
L 567.988716 80.503973 
L 569.176709 80.835656 
L 572.740686 80.653854 
L 575.11667 80.695519 
L 578.680647 80.376811 
L 579.86864 80.398938 
L 582.244624 79.992547 
L 594.124548 79.421694 
L 596.500532 79.390589 
L 597.688525 77.893535 
L 598.876517 78.830539 
L 600.064509 78.369183 
L 602.440494 77.718424 
L 603.628486 77.53432 
L 604.816479 76.232544 
L 606.004471 77.877466 
L 607.192463 75.147349 
L 609.568448 74.509297 
L 610.75644 75.305263 
L 611.944433 75.132927 
L 613.132425 74.811622 
L 614.320417 73.386793 
L 615.50841 73.969811 
L 616.696402 73.524017 
L 617.884394 73.266425 
L 620.260379 73.188894 
L 622.636364 73.188894 
L 622.636364 73.188894 
" style="fill:none;stroke:#348abd;stroke-linecap:square;stroke-opacity:0.4;stroke-width:2;"/>
   </g>
   <g id="line2d_27">
    <defs>
     <path d="M 0 3 
C 0.795609 3 1.55874 2.683901 2.12132 2.12132 
C 2.683901 1.55874 3 0.795609 3 0 
C 3 -0.795609 2.683901 -1.55874 2.12132 -2.12132 
C 1.55874 -2.683901 0.795609 -3 0 -3 
C -0.795609 -3 -1.55874 -2.683901 -2.12132 -2.12132 
C -2.683901 -1.55874 -3 -0.795609 -3 0 
C -3 0.795609 -2.683901 1.55874 -2.12132 2.12132 
C -1.55874 2.683901 -0.795609 3 0 3 
z
" id="m7110a43288" style="stroke:#348abd;stroke-opacity:0.4;"/>
    </defs>
    <g clip-path="url(#pa4b4b033d7)">
     <use style="fill:#348abd;fill-opacity:0.4;stroke:#348abd;stroke-opacity:0.4;" x="622.636364" xlink:href="#m7110a43288" y="73.188894"/>
    </g>
   </g>
   <g id="line2d_28">
    <path clip-path="url(#pa4b4b033d7)" d="M 115.363636 153.184632 
L 116.551629 149.44211 
L 117.739621 149.44211 
L 118.927613 146.786748 
L 120.115606 150.52927 
L 121.303598 151.761791 
L 122.49159 150.52927 
L 123.679583 151.761791 
L 124.867575 154.867495 
L 126.055567 153.184632 
L 127.24356 159.582516 
L 129.619544 159.582516 
L 130.807537 163.325038 
L 131.995529 163.325038 
L 133.183521 169.722921 
L 133.198286 433 
M 152.175459 433 
L 152.191399 148.469612 
L 153.379391 146.786748 
L 154.567383 144.72709 
L 156.943368 136.393444 
L 158.13136 135.673844 
L 159.319353 134.586684 
L 160.507345 136.147291 
L 161.695337 133.800661 
L 162.88333 131.778753 
L 165.259314 129.749408 
L 166.447307 130.121144 
L 167.635299 124.110598 
L 168.823291 121.438768 
L 170.011284 119.896826 
L 171.199276 117.517013 
L 172.387268 115.785866 
L 174.763253 111.430935 
L 175.951245 110.817514 
L 177.139238 107.783484 
L 178.32723 103.888577 
L 179.515222 103.505886 
L 180.703215 101.671034 
L 181.891207 100.558141 
L 183.079199 98.988173 
L 185.455184 97.254149 
L 186.643176 97.74861 
L 187.831169 96.867156 
L 189.019161 97.450234 
L 190.207154 97.512837 
L 191.395146 98.251031 
L 192.583138 98.740081 
L 193.771131 99.990103 
L 194.959123 101.048916 
L 196.147115 102.62294 
L 197.335108 103.289189 
L 199.711092 106.037131 
L 200.899085 107.090623 
L 202.087077 108.581507 
L 203.275069 110.257019 
L 204.463062 111.414259 
L 205.651054 111.998861 
L 208.027039 115.548166 
L 210.403023 118.220926 
L 211.591016 117.231029 
L 212.779008 117.980274 
L 213.967 119.528388 
L 215.154993 120.280585 
L 216.342985 120.818418 
L 217.530977 123.171123 
L 219.906962 126.854287 
L 221.094954 127.402777 
L 223.470939 127.216302 
L 224.658931 126.854287 
L 225.846924 127.124458 
L 228.222908 126.505937 
L 229.410901 125.083096 
L 230.598893 124.723899 
L 231.786885 123.979671 
L 232.974878 123.660255 
L 234.16287 124.110598 
L 235.350862 124.110598 
L 236.538855 125.083096 
L 237.726847 125.305521 
L 238.914839 126.765959 
L 240.102832 127.689749 
L 242.478816 125.767127 
L 243.666809 126.765959 
L 244.854801 126.678469 
L 246.042793 127.402777 
L 247.230786 127.98593 
L 248.418778 127.98593 
L 250.794763 131.335619 
L 251.982755 130.508481 
L 253.170747 131.931322 
L 254.35874 132.24424 
L 255.546732 130.912788 
L 256.734724 130.641292 
L 257.922717 130.508481 
L 259.110709 128.716383 
L 260.298701 129.509649 
L 261.486694 128.396229 
L 262.674686 127.689749 
L 263.862678 128.1888 
L 265.050671 128.1888 
L 266.238663 129.048043 
L 267.426655 130.776042 
L 268.614648 130.912788 
L 269.80264 131.480979 
L 270.990632 134.383814 
L 272.178625 134.586684 
L 273.366617 134.586684 
L 274.554609 135.223501 
L 275.742602 135.223501 
L 276.930594 131.778753 
L 279.306579 129.27596 
L 280.494571 127.593097 
L 281.682563 126.678469 
L 282.870556 125.533438 
L 284.058548 125.767127 
L 285.24654 124.044902 
L 286.434533 124.176764 
L 288.810517 123.412449 
L 291.186502 121.48826 
L 292.374494 121.291865 
L 293.562487 119.731258 
L 294.750479 117.388814 
L 297.126464 114.443639 
L 298.314456 113.478083 
L 299.502448 112.91238 
L 300.690441 109.812277 
L 301.878433 108.532605 
L 303.066425 107.805996 
L 304.254418 106.722593 
L 305.44241 106.282278 
L 306.630402 105.468801 
L 307.818395 103.484692 
L 309.006387 103.591154 
L 310.194379 103.16566 
L 311.382372 102.877088 
L 313.758356 101.619 
L 314.946349 100.776556 
L 316.134341 100.239914 
L 317.322333 100.097037 
L 318.510326 99.542062 
L 320.88631 98.782382 
L 322.074303 97.855363 
L 323.262295 97.535034 
L 324.450287 98.029559 
L 325.63828 97.472281 
L 326.826272 97.139886 
L 328.014264 96.24436 
L 329.202257 96.21542 
L 330.390249 96.836199 
L 332.766234 94.920506 
L 333.954226 94.859323 
L 335.142218 94.420867 
L 336.330211 94.713573 
L 337.518203 94.594297 
L 338.706195 93.4889 
L 341.08218 94.75185 
L 342.270172 94.618569 
L 343.458165 95.258667 
L 345.834149 95.87504 
L 347.022142 96.856825 
L 348.210134 97.624359 
L 349.398126 97.616882 
L 351.774111 98.672799 
L 352.962103 98.850471 
L 354.150096 99.292275 
L 355.338088 100.225031 
L 356.52608 100.146055 
L 357.714073 101.257207 
L 358.902065 101.817131 
L 360.090057 102.073956 
L 361.27805 103.145232 
L 363.654034 104.165466 
L 364.842027 105.20149 
L 366.030019 105.592107 
L 368.406004 107.365856 
L 369.593996 107.671737 
L 370.781989 108.423514 
L 371.969981 109.007978 
L 373.157973 108.905844 
L 374.345966 109.414776 
L 375.533958 109.798281 
L 376.72195 110.555756 
L 377.909943 111.070846 
L 379.097935 111.414259 
L 380.285927 111.616388 
L 381.47392 112.834323 
L 382.661912 113.796032 
L 385.037897 115.065597 
L 387.413881 115.240464 
L 388.601874 116.684345 
L 389.789866 117.420697 
L 390.977858 117.168663 
L 392.165851 117.77888 
L 394.541835 119.938687 
L 395.729828 120.680993 
L 396.91782 121.099563 
L 398.105812 122.48284 
L 399.293805 124.176764 
L 400.481797 124.723899 
L 401.669789 123.979671 
L 402.857782 124.653707 
L 404.045774 126.088209 
L 405.233766 126.678469 
L 406.421759 125.846356 
L 407.609751 126.420865 
L 408.797743 126.765959 
L 409.985736 127.689749 
L 411.173728 126.854287 
L 412.36172 125.688571 
L 413.549713 126.943468 
L 415.925697 125.767127 
L 419.489674 124.310537 
L 420.677667 124.310537 
L 421.865659 123.111765 
L 424.241644 123.786698 
L 425.429636 124.514904 
L 426.617628 125.010129 
L 427.805621 126.006886 
L 428.993613 127.689749 
L 430.181605 126.678469 
L 431.369598 127.124458 
L 432.55759 126.765959 
L 433.745582 125.767127 
L 434.933575 125.305521 
L 436.121567 125.083096 
L 437.309559 124.514904 
L 438.497552 126.33657 
L 440.873536 126.943468 
L 442.061529 128.1888 
L 443.249521 129.048043 
L 445.625506 130.377554 
L 446.813498 130.641292 
L 448.00149 131.192512 
L 449.189483 131.192512 
L 450.377475 130.912788 
L 451.565467 131.480979 
L 452.75346 131.335619 
L 453.941452 132.086455 
L 455.129444 133.800661 
L 456.317437 134.586684 
L 457.505429 137.733503 
L 458.693421 138.329206 
L 459.881414 133.076352 
L 461.069406 128.825618 
L 462.257398 128.291932 
L 463.445391 126.678469 
L 464.633383 126.33657 
L 465.821375 125.846356 
L 467.009368 125.230782 
L 468.19736 126.33657 
L 469.385352 128.716383 
L 470.573345 128.716383 
L 471.761337 129.749408 
L 472.949329 129.27596 
L 474.137322 129.161298 
L 475.325314 129.27596 
L 476.513306 130.377554 
L 477.701299 130.776042 
L 480.077283 130.508481 
L 481.265276 129.995561 
L 482.453268 129.749408 
L 483.64126 130.508481 
L 484.829253 130.121144 
L 486.017245 130.508481 
L 487.205237 129.871664 
L 488.39323 130.508481 
L 489.581222 131.778753 
L 490.769214 131.628666 
L 491.957207 130.641292 
L 493.145199 131.192512 
L 494.333191 131.192512 
L 495.521184 131.778753 
L 496.709176 130.912788 
L 497.897168 130.248459 
L 499.085161 129.048043 
L 500.273153 127.124458 
L 501.461145 124.243408 
L 502.649138 122.820568 
L 503.83713 122.264363 
L 505.025122 121.946049 
L 506.213115 121.291865 
L 508.589099 122.264363 
L 509.777092 124.110598 
L 510.965084 124.176764 
L 512.153076 124.794629 
L 513.341069 123.850575 
L 514.529061 123.914897 
L 515.717053 123.412449 
L 518.093038 121.998345 
L 519.28103 122.48284 
L 520.469023 122.427734 
L 522.845007 124.044902 
L 524.033 123.72326 
L 525.220992 125.38087 
L 526.408984 126.253039 
L 527.596977 126.33657 
L 528.784969 125.767127 
L 529.972961 126.006886 
L 531.160954 126.006886 
L 532.348946 127.402777 
L 533.536938 126.591799 
L 534.724931 126.088209 
L 535.912923 126.591799 
L 537.100915 127.497446 
L 538.288908 128.1888 
L 539.4769 128.291932 
L 540.664892 128.608427 
L 543.040877 132.24424 
L 544.228869 132.56814 
L 545.416862 133.800661 
L 546.604854 134.383814 
L 548.980839 134.794113 
L 550.168831 134.383814 
L 551.356824 134.586684 
L 552.544816 135.445927 
L 553.732808 135.00631 
L 554.920801 135.00631 
L 556.108793 134.794113 
L 558.484778 135.223501 
L 559.67277 135.673844 
L 560.860762 135.907532 
L 562.048755 136.393444 
L 563.236747 135.223501 
L 564.424739 135.445927 
L 565.612732 134.586684 
L 566.800724 134.794113 
L 567.988716 134.185308 
L 569.176709 135.00631 
L 570.364701 134.586684 
L 571.552693 135.673844 
L 572.740686 137.449474 
L 573.928678 138.026549 
L 575.11667 138.966024 
L 576.304663 138.966024 
L 578.680647 137.733503 
L 579.86864 138.966024 
L 581.056632 136.906365 
L 582.244624 135.907532 
L 583.432617 134.586684 
L 584.620609 134.794113 
L 585.808601 133.990981 
L 586.996594 133.800661 
L 588.184586 132.404769 
L 589.372578 131.931322 
L 590.560571 131.335619 
L 592.936555 131.335619 
L 594.124548 130.776042 
L 595.31254 129.871664 
L 596.500532 129.509649 
L 597.688525 128.93616 
L 598.876517 129.161298 
L 600.064509 128.93616 
L 602.440494 128.825618 
L 603.628486 129.749408 
L 604.816479 129.27596 
L 606.004471 129.749408 
L 607.192463 129.161298 
L 609.568448 129.392065 
L 611.944433 129.995561 
L 613.132425 130.912788 
L 614.320417 131.335619 
L 615.50841 132.56814 
L 616.696402 131.931322 
L 617.884394 131.480979 
L 619.072387 130.508481 
L 622.636364 130.508481 
L 622.636364 130.508481 
" style="fill:none;stroke:#988ed5;stroke-linecap:square;stroke-opacity:0.4;stroke-width:2;"/>
   </g>
   <g id="line2d_29">
    <defs>
     <path d="M 0 3 
C 0.795609 3 1.55874 2.683901 2.12132 2.12132 
C 2.683901 1.55874 3 0.795609 3 0 
C 3 -0.795609 2.683901 -1.55874 2.12132 -2.12132 
C 1.55874 -2.683901 0.795609 -3 0 -3 
C -0.795609 -3 -1.55874 -2.683901 -2.12132 -2.12132 
C -2.683901 -1.55874 -3 -0.795609 -3 0 
C -3 0.795609 -2.683901 1.55874 -2.12132 2.12132 
C -1.55874 2.683901 -0.795609 3 0 3 
z
" id="m6e46012c90" style="stroke:#988ed5;stroke-opacity:0.4;"/>
    </defs>
    <g clip-path="url(#pa4b4b033d7)">
     <use style="fill:#988ed5;fill-opacity:0.4;stroke:#988ed5;stroke-opacity:0.4;" x="622.636364" xlink:href="#m6e46012c90" y="130.508481"/>
    </g>
   </g>
   <g id="line2d_30">
    <path clip-path="url(#pa4b4b033d7)" d="M 156.928806 433 
L 156.943368 173.382181 
L 158.13136 173.382181 
L 159.319353 158.526755 
L 160.507345 158.526755 
L 161.695337 151.24914 
L 162.88333 147.790646 
L 165.259314 141.988466 
L 166.447307 137.65024 
L 167.635299 135.140239 
L 168.823291 131.062037 
L 170.011284 130.165196 
L 171.199276 126.479827 
L 172.387268 123.767313 
L 173.575261 123.597946 
L 174.763253 120.552374 
L 175.951245 119.129533 
L 178.32723 115.747302 
L 179.515222 114.778389 
L 180.703215 113.41568 
L 181.891207 111.681911 
L 183.079199 110.950204 
L 184.267192 109.960668 
L 185.455184 108.725754 
L 186.643176 107.726492 
L 187.831169 107.158076 
L 190.207154 105.861288 
L 192.583138 103.252101 
L 193.771131 103.275275 
L 194.959123 102.178323 
L 196.147115 101.704463 
L 197.335108 101.029104 
L 198.5231 100.623394 
L 199.711092 100.700313 
L 200.899085 100.902636 
L 202.087077 100.355734 
L 203.275069 100.902636 
L 204.463062 101.0875 
L 205.651054 101.720134 
L 206.839046 101.630387 
L 208.027039 101.763367 
L 209.215031 101.449661 
L 210.403023 101.595505 
L 211.591016 100.756659 
L 212.779008 100.595582 
L 213.967 100.612955 
L 215.154993 100.848962 
L 216.342985 100.827579 
L 217.530977 101.116837 
L 218.71897 101.050959 
L 219.906962 101.814723 
L 221.094954 101.898291 
L 222.282947 101.688819 
L 223.470939 101.272406 
L 224.658931 101.673201 
L 225.846924 102.290255 
L 227.034916 102.765239 
L 228.222908 102.880121 
L 229.410901 102.756461 
L 230.598893 102.290255 
L 231.786885 102.774026 
L 234.16287 102.092193 
L 237.726847 101.854423 
L 238.914839 101.201705 
L 240.102832 101.298591 
L 242.478816 100.626876 
L 244.854801 101.043668 
L 246.042793 100.949408 
L 247.230786 101.747623 
L 248.418778 101.036383 
L 249.60677 101.061906 
L 251.982755 100.543659 
L 253.170747 100.128559 
L 254.35874 100.298414 
L 255.546732 100.098906 
L 257.922717 100.516085 
L 259.110709 101.032743 
L 260.298701 100.661773 
L 261.486694 101.313587 
L 262.674686 101.040025 
L 263.862678 101.850445 
L 265.050671 102.286085 
L 267.426655 102.116719 
L 268.614648 101.483996 
L 269.80264 100.201447 
L 270.990632 99.497243 
L 272.178625 98.987655 
L 275.742602 98.981824 
L 276.930594 99.386957 
L 279.306579 100.703824 
L 280.494571 100.679271 
L 281.682563 99.926191 
L 284.058548 100.321973 
L 285.24654 100.792051 
L 286.434533 101.02183 
L 288.810517 101.806803 
L 289.99851 102.686535 
L 293.562487 102.800435 
L 294.750479 103.335801 
L 297.126464 103.864483 
L 299.502448 103.100594 
L 301.878433 103.201322 
L 303.066425 103.028022 
L 304.254418 103.219754 
L 305.44241 103.137095 
L 307.818395 104.171263 
L 310.194379 104.186616 
L 311.382372 103.500756 
L 312.570364 103.064237 
L 314.946349 103.077854 
L 318.510326 102.24034 
L 320.88631 102.374052 
L 323.262295 101.385154 
L 325.63828 100.693294 
L 326.826272 99.87147 
L 331.578241 98.731683 
L 333.954226 97.671668 
L 336.330211 97.229758 
L 337.518203 96.673159 
L 338.706195 96.277773 
L 344.646157 94.958954 
L 345.834149 94.87639 
L 347.022142 95.120574 
L 350.586119 94.776061 
L 352.962103 94.966497 
L 354.150096 95.011882 
L 356.52608 94.887605 
L 357.714073 94.97027 
L 361.27805 94.623947 
L 362.466042 94.709776 
L 363.654034 94.410138 
L 364.842027 94.420801 
L 366.030019 94.209856 
L 368.406004 94.660372 
L 369.593996 94.569577 
L 370.781989 94.653076 
L 371.969981 95.049874 
L 373.157973 95.308537 
L 374.345966 95.863221 
L 375.533958 96.073485 
L 382.661912 98.535229 
L 383.849904 98.80859 
L 386.225889 98.524128 
L 387.413881 98.318425 
L 389.789866 97.331563 
L 390.977858 96.558133 
L 392.165851 96.199826 
L 394.541835 94.605788 
L 395.729828 93.956159 
L 396.91782 93.77865 
L 398.105812 93.178283 
L 399.293805 92.724907 
L 400.481797 91.57189 
L 401.669789 90.841522 
L 404.045774 89.709693 
L 409.985736 86.563823 
L 412.36172 85.637286 
L 413.549713 85.032748 
L 414.737705 84.143901 
L 418.301682 80.483308 
L 421.865659 77.937202 
L 424.241644 75.973074 
L 425.429636 75.284672 
L 427.805621 73.522751 
L 428.993613 72.969068 
L 430.181605 72.261932 
L 432.55759 71.122709 
L 433.745582 70.314663 
L 436.121567 69.418214 
L 437.309559 69.097052 
L 443.249521 65.372585 
L 445.625506 64.584488 
L 446.813498 64.37197 
L 453.941452 62.07463 
L 455.129444 61.754673 
L 456.317437 61.727396 
L 458.693421 62.12158 
L 462.257398 62.457089 
L 464.633383 63.129597 
L 465.821375 63.052488 
L 468.19736 63.229201 
L 469.385352 63.474645 
L 470.573345 63.843644 
L 471.761337 63.003644 
L 472.949329 63.275238 
L 477.701299 65.149188 
L 478.889291 65.867595 
L 480.077283 68.000553 
L 482.453268 68.348365 
L 483.64126 68.787796 
L 486.017245 69.364828 
L 490.769214 69.959228 
L 495.521184 70.058231 
L 496.709176 70.242369 
L 497.897168 70.205014 
L 500.273153 70.72123 
L 506.213115 70.814599 
L 507.401107 70.655847 
L 508.589099 70.920902 
L 509.777092 71.85422 
L 510.965084 72.617186 
L 512.153076 72.858527 
L 515.717053 72.653946 
L 520.469023 71.53738 
L 521.657015 71.541554 
L 522.845007 71.329319 
L 524.033 71.527401 
L 525.220992 71.850519 
L 527.596977 70.817631 
L 528.784969 70.751975 
L 529.972961 71.058391 
L 531.160954 71.808834 
L 532.348946 72.226698 
L 533.536938 72.356879 
L 535.912923 73.502447 
L 537.100915 73.789143 
L 538.288908 73.885505 
L 541.852885 75.094745 
L 543.040877 75.285343 
L 544.228869 75.604843 
L 546.604854 75.826291 
L 550.168831 75.959109 
L 551.356824 76.096551 
L 553.732808 76.102659 
L 558.484778 76.354348 
L 562.048755 76.343556 
L 563.236747 76.425948 
L 565.612732 76.256177 
L 567.988716 76.024545 
L 569.176709 75.878139 
L 570.364701 75.851703 
L 571.552693 75.575944 
L 573.928678 74.738024 
L 576.304663 73.869951 
L 578.680647 73.301642 
L 579.86864 73.100345 
L 582.244624 72.016186 
L 585.808601 70.645694 
L 588.184586 70.309965 
L 591.748563 68.980979 
L 595.31254 68.159065 
L 597.688525 67.794709 
L 598.876517 67.230335 
L 600.064509 66.950332 
L 601.252502 66.403985 
L 604.816479 65.364946 
L 606.004471 64.789523 
L 609.568448 63.538262 
L 611.944433 63.034675 
L 613.132425 62.89655 
L 615.50841 62.186772 
L 616.696402 61.704514 
L 619.072387 61.073368 
L 622.636364 61.073368 
L 622.636364 61.073368 
" style="fill:none;stroke:#777777;stroke-linecap:square;stroke-opacity:0.4;stroke-width:2;"/>
   </g>
   <g id="line2d_31">
    <defs>
     <path d="M 0 3 
C 0.795609 3 1.55874 2.683901 2.12132 2.12132 
C 2.683901 1.55874 3 0.795609 3 0 
C 3 -0.795609 2.683901 -1.55874 2.12132 -2.12132 
C 1.55874 -2.683901 0.795609 -3 0 -3 
C -0.795609 -3 -1.55874 -2.683901 -2.12132 -2.12132 
C -2.683901 -1.55874 -3 -0.795609 -3 0 
C -3 0.795609 -2.683901 1.55874 -2.12132 2.12132 
C -1.55874 2.683901 -0.795609 3 0 3 
z
" id="mf816e6d338" style="stroke:#777777;stroke-opacity:0.4;"/>
    </defs>
    <g clip-path="url(#pa4b4b033d7)">
     <use style="fill:#777777;fill-opacity:0.4;stroke:#777777;stroke-opacity:0.4;" x="622.636364" xlink:href="#mf816e6d338" y="61.073368"/>
    </g>
   </g>
   <g id="line2d_32">
    <path clip-path="url(#pa4b4b033d7)" d="M 150.988136 433 
L 151.003406 160.574377 
L 155.755376 160.574377 
L 156.943368 144.036088 
L 158.13136 144.036088 
L 159.319353 145.718951 
L 162.88333 145.718951 
L 164.071322 141.380726 
L 165.259314 150.433971 
L 166.447307 144.036088 
L 167.635299 132.472841 
L 170.011284 132.472841 
L 171.199276 129.180662 
L 172.387268 130.15316 
L 173.575261 126.074957 
L 174.763253 126.758988 
L 175.951245 126.074957 
L 177.139238 124.652117 
L 178.32723 124.652117 
L 179.515222 125.43814 
L 180.703215 125.43814 
L 181.891207 127.757821 
L 183.079199 127.757821 
L 185.455184 133.895682 
L 186.643176 133.895682 
L 187.831169 121.22901 
L 189.019161 121.22901 
L 190.207154 120.480206 
L 191.395146 110.874437 
L 192.583138 109.355322 
L 194.959123 103.822815 
L 196.147115 102.366226 
L 199.711092 95.271086 
L 200.899085 92.304759 
L 202.087077 91.461134 
L 203.275069 90.343017 
L 206.839046 87.77737 
L 209.215031 87.317455 
L 210.403023 86.458139 
L 211.591016 85.995067 
L 215.154993 85.112478 
L 216.342985 84.448509 
L 217.530977 84.032536 
L 221.094954 81.912986 
L 222.282947 81.104498 
L 223.470939 80.431292 
L 227.034916 79.917103 
L 229.410901 79.973502 
L 231.786885 80.163016 
L 235.350862 79.937841 
L 236.538855 79.872819 
L 238.914839 79.504746 
L 242.478816 79.355959 
L 251.982755 79.448318 
L 260.298701 79.660287 
L 268.614648 80.134188 
L 273.366617 80.353399 
L 274.554609 80.533545 
L 278.118586 81.346605 
L 286.434533 82.866116 
L 288.810517 83.750329 
L 291.186502 84.676125 
L 292.374494 85.573218 
L 295.938471 87.420291 
L 298.314456 88.434767 
L 299.502448 89.062547 
L 300.690441 89.190969 
L 303.066425 90.058988 
L 304.254418 90.352178 
L 305.44241 90.963171 
L 307.818395 91.846331 
L 310.194379 93.090405 
L 311.382372 93.854941 
L 312.570364 94.322045 
L 314.946349 94.986585 
L 316.134341 95.039741 
L 317.322333 95.302375 
L 318.510326 95.239903 
L 319.698318 95.420662 
L 320.88631 95.943112 
L 322.074303 96.112633 
L 325.63828 96.241849 
L 328.014264 96.479097 
L 329.202257 96.470201 
L 335.142218 97.346376 
L 337.518203 97.634378 
L 339.894188 98.228063 
L 341.08218 98.445767 
L 342.270172 98.805139 
L 344.646157 99.072362 
L 345.834149 99.095969 
L 349.398126 100.106628 
L 350.586119 100.186085 
L 351.774111 102.002915 
L 352.962103 100.566205 
L 354.150096 100.904966 
L 356.52608 100.119823 
L 358.902065 98.839558 
L 360.090057 97.029222 
L 361.27805 97.268484 
L 362.466042 96.311512 
L 363.654034 96.32901 
L 364.842027 95.341636 
L 366.030019 95.016922 
L 367.218011 94.866222 
L 368.406004 94.843828 
L 370.781989 95.146981 
L 371.969981 94.866222 
L 373.157973 95.388971 
L 374.345966 95.629354 
L 376.72195 95.605032 
L 377.909943 95.349508 
L 379.097935 95.224351 
L 380.285927 94.784374 
L 390.977858 93.735154 
L 393.353843 93.158479 
L 394.541835 93.065775 
L 395.729828 92.841007 
L 396.91782 92.757367 
L 398.105812 92.510901 
L 401.669789 91.246587 
L 406.421759 89.23147 
L 409.985736 88.127188 
L 411.173728 89.358165 
L 412.36172 87.477174 
L 413.549713 87.212491 
L 414.737705 87.070087 
L 417.11369 86.521474 
L 418.301682 87.927685 
L 419.489674 84.783294 
L 420.677667 85.788719 
L 424.241644 84.609462 
L 425.429636 84.202801 
L 426.617628 82.744717 
L 427.805621 83.647795 
L 432.55759 82.636807 
L 434.933575 82.117285 
L 436.121567 81.731105 
L 438.497552 80.749606 
L 443.249521 79.531671 
L 445.625506 79.267273 
L 455.129444 78.891637 
L 457.505429 78.644717 
L 459.881414 78.110046 
L 462.257398 77.408652 
L 465.821375 76.600541 
L 470.573345 75.529809 
L 474.137322 75.004168 
L 478.889291 74.543982 
L 482.453268 74.19358 
L 494.333191 73.042 
L 495.521184 73.00204 
L 496.709176 72.820561 
L 501.461145 72.96713 
L 506.213115 72.929575 
L 508.589099 72.888717 
L 512.153076 73.018143 
L 515.717053 73.018844 
L 520.469023 72.968524 
L 521.657015 73.354966 
L 528.784969 73.754501 
L 529.972961 73.413293 
L 537.100915 72.8825 
L 538.288908 73.145147 
L 544.228869 73.763613 
L 545.416862 74.453489 
L 546.604854 74.879877 
L 548.980839 75.064322 
L 553.732808 74.971206 
L 554.920801 75.100253 
L 557.296785 75.056454 
L 563.236747 75.500419 
L 565.612732 75.434633 
L 569.176709 75.564831 
L 570.364701 75.299065 
L 571.552693 74.798786 
L 573.928678 75.461987 
L 576.304663 75.597207 
L 577.492655 75.913928 
L 578.680647 75.871829 
L 582.244624 76.291722 
L 583.432617 76.352866 
L 584.620609 76.565484 
L 585.808601 76.539792 
L 588.184586 76.838071 
L 590.560571 76.822185 
L 592.936555 77.090586 
L 594.124548 77.387253 
L 595.31254 77.422192 
L 596.500532 77.19466 
L 597.688525 78.002401 
L 600.064509 78.796792 
L 602.440494 79.104604 
L 603.628486 79.081598 
L 604.816479 79.351783 
L 606.004471 78.661491 
L 607.192463 78.13807 
L 609.568448 77.661268 
L 610.75644 77.481099 
L 611.944433 77.440278 
L 614.320417 76.972603 
L 615.50841 77.094945 
L 616.696402 77.082964 
L 619.072387 77.352445 
L 622.636364 77.352445 
L 622.636364 77.352445 
" style="fill:none;stroke:#fbc15e;stroke-linecap:square;stroke-opacity:0.4;stroke-width:2;"/>
   </g>
   <g id="line2d_33">
    <defs>
     <path d="M 0 3 
C 0.795609 3 1.55874 2.683901 2.12132 2.12132 
C 2.683901 1.55874 3 0.795609 3 0 
C 3 -0.795609 2.683901 -1.55874 2.12132 -2.12132 
C 1.55874 -2.683901 0.795609 -3 0 -3 
C -0.795609 -3 -1.55874 -2.683901 -2.12132 -2.12132 
C -2.683901 -1.55874 -3 -0.795609 -3 0 
C -3 0.795609 -2.683901 1.55874 -2.12132 2.12132 
C -1.55874 2.683901 -0.795609 3 0 3 
z
" id="m162f8eb2ef" style="stroke:#fbc15e;stroke-opacity:0.4;"/>
    </defs>
    <g clip-path="url(#pa4b4b033d7)">
     <use style="fill:#fbc15e;fill-opacity:0.4;stroke:#fbc15e;stroke-opacity:0.4;" x="622.636364" xlink:href="#m162f8eb2ef" y="77.352445"/>
    </g>
   </g>
   <g id="line2d_34">
    <path clip-path="url(#pa4b4b033d7)" d="M 147.424114 433 
L 147.439429 159.763506 
L 148.627422 159.763506 
L 149.815414 140.569855 
L 151.003406 140.569855 
L 152.191399 133.084811 
L 154.567383 125.264086 
L 155.755376 122.775039 
L 156.943368 118.332517 
L 158.13136 116.719053 
L 159.319353 110.58617 
L 161.695337 106.813825 
L 162.88333 106.180978 
L 165.259314 101.322509 
L 166.447307 101.725345 
L 167.635299 96.723177 
L 168.823291 95.199676 
L 170.011284 90.26066 
L 171.199276 90.44582 
L 172.387268 88.688279 
L 173.575261 88.015596 
L 174.763253 84.645662 
L 175.951245 82.856895 
L 177.139238 80.757779 
L 178.32723 80.655709 
L 179.515222 78.592551 
L 181.891207 76.962322 
L 186.643176 77.585827 
L 187.831169 77.876486 
L 189.019161 78.40826 
L 191.395146 78.021373 
L 193.771131 78.827855 
L 194.959123 79.057531 
L 196.147115 79.882231 
L 198.5231 80.248303 
L 200.899085 81.250246 
L 205.651054 83.969917 
L 206.839046 85.692463 
L 208.027039 86.900852 
L 209.215031 87.446883 
L 210.403023 88.327711 
L 211.591016 88.215877 
L 212.779008 88.493952 
L 213.967 89.037433 
L 217.530977 91.671123 
L 218.71897 92.322796 
L 219.906962 93.433992 
L 221.094954 94.168145 
L 222.282947 94.313025 
L 225.846924 95.748684 
L 227.034916 96.743156 
L 228.222908 97.569044 
L 229.410901 97.869149 
L 230.598893 98.720679 
L 231.786885 99.937285 
L 232.974878 101.691095 
L 234.16287 102.364614 
L 235.350862 103.70812 
L 236.538855 104.461119 
L 237.726847 105.357018 
L 238.914839 105.155807 
L 241.290824 106.043005 
L 242.478816 106.903584 
L 243.666809 106.491978 
L 244.854801 107.687603 
L 246.042793 108.689241 
L 247.230786 109.25338 
L 248.418778 108.985819 
L 249.60677 109.528929 
L 250.794763 111.187849 
L 251.982755 113.331583 
L 253.170747 113.576105 
L 254.35874 113.576105 
L 255.546732 113.955482 
L 256.734724 115.729156 
L 257.922717 117.074105 
L 259.110709 115.497424 
L 260.298701 115.574023 
L 261.486694 115.12368 
L 262.674686 115.197228 
L 263.862678 116.128794 
L 265.050671 115.807712 
L 266.238663 115.807712 
L 267.426655 116.546521 
L 268.614648 116.293623 
L 269.80264 116.984053 
L 270.990632 117.165043 
L 272.178625 116.04747 
L 273.366617 115.729156 
L 274.554609 114.764484 
L 275.742602 115.050714 
L 278.118586 113.392109 
L 281.682563 112.03893 
L 282.870556 113.15235 
L 284.058548 112.251128 
L 285.24654 113.576105 
L 286.434533 112.091524 
L 287.622525 111.882923 
L 288.810517 111.934633 
L 289.99851 111.381158 
L 291.186502 109.649587 
L 292.374494 108.762497 
L 293.562487 106.754466 
L 295.938471 105.907065 
L 297.126464 104.886114 
L 298.314456 102.874908 
L 300.690441 100.49068 
L 301.878433 100.079729 
L 304.254418 99.797005 
L 306.630402 100.022487 
L 309.006387 100.889388 
L 310.194379 100.43084 
L 311.382372 100.49068 
L 313.758356 100.022487 
L 314.946349 99.979787 
L 316.134341 99.243163 
L 318.510326 99.631437 
L 319.698318 99.190867 
L 320.88631 99.45536 
L 322.074303 98.959134 
L 323.262295 98.845414 
L 324.450287 99.164829 
L 325.63828 98.392081 
L 326.826272 97.948573 
L 328.014264 97.824068 
L 330.390249 97.320876 
L 331.578241 96.783244 
L 332.766234 95.802714 
L 333.954226 95.31032 
L 336.330211 94.810368 
L 338.706195 94.818483 
L 339.894188 94.916417 
L 342.270172 95.668226 
L 344.646157 95.5269 
L 345.834149 95.19122 
L 347.022142 94.721577 
L 348.210134 94.003182 
L 349.398126 93.617473 
L 350.586119 92.884696 
L 351.774111 92.428712 
L 352.962103 92.132728 
L 357.714073 91.533612 
L 360.090057 91.089501 
L 361.27805 90.68651 
L 362.466042 90.537259 
L 363.654034 90.511769 
L 368.406004 89.177353 
L 371.969981 89.020091 
L 374.345966 89.063507 
L 376.72195 88.580274 
L 377.909943 87.972963 
L 380.285927 87.755142 
L 381.47392 87.388625 
L 382.661912 87.240997 
L 383.849904 86.81177 
L 387.413881 86.356071 
L 390.977858 85.608278 
L 392.165851 85.728778 
L 393.353843 87.258874 
L 394.541835 89.137786 
L 395.729828 86.043369 
L 396.91782 86.134805 
L 398.105812 86.382071 
L 400.481797 87.251719 
L 402.857782 87.251719 
L 404.045774 88.444985 
L 405.233766 88.69664 
L 406.421759 88.806023 
L 408.797743 87.472487 
L 411.173728 87.472487 
L 412.36172 85.022681 
L 413.549713 83.776477 
L 414.737705 82.271611 
L 415.925697 81.058136 
L 417.11369 79.489934 
L 419.489674 79.489934 
L 420.677667 76.246006 
L 421.865659 75.470866 
L 423.053651 73.874732 
L 425.429636 71.609029 
L 427.805621 71.609029 
L 428.993613 68.961388 
L 430.181605 68.221327 
L 431.369598 67.038707 
L 432.55759 66.037114 
L 433.745582 64.849548 
L 436.121567 64.849548 
L 437.309559 62.443992 
L 442.061529 59.785103 
L 444.437513 59.785103 
L 445.625506 59.001024 
L 446.813498 58.971412 
L 448.00149 58.731204 
L 450.377475 58.578843 
L 452.75346 58.578843 
L 453.941452 59.349174 
L 455.129444 59.374614 
L 456.317437 59.694701 
L 458.693421 60.821916 
L 461.069406 60.821916 
L 462.257398 61.782583 
L 463.445391 62.109946 
L 467.009368 63.6007 
L 469.385352 63.6007 
L 470.573345 64.494288 
L 471.761337 64.591727 
L 472.949329 64.979929 
L 475.325314 65.349774 
L 477.701299 65.349774 
L 478.889291 65.67858 
L 480.077283 65.831488 
L 484.829253 65.857515 
L 486.017245 65.857515 
L 487.205237 65.502709 
L 493.145199 64.817081 
L 494.333191 64.817081 
L 495.521184 64.532957 
L 496.709176 64.530211 
L 497.897168 64.367247 
L 499.085161 64.362154 
L 500.273153 64.561377 
L 502.649138 64.561377 
L 503.83713 64.785668 
L 505.025122 64.784414 
L 506.213115 64.971926 
L 507.401107 65.023265 
L 508.589099 66.58987 
L 513.341069 66.587201 
L 514.529061 66.439352 
L 515.717053 66.631524 
L 519.28103 66.631524 
L 524.033 67.27836 
L 525.220992 66.042502 
L 527.596977 66.042502 
L 528.784969 67.246781 
L 529.972961 67.738239 
L 532.348946 69.290078 
L 533.536938 69.720391 
L 535.912923 69.720391 
L 537.100915 70.74986 
L 538.288908 71.110462 
L 541.852885 71.611 
L 544.228869 71.611 
L 547.792846 72.48108 
L 548.980839 72.853755 
L 550.168831 73.035921 
L 552.544816 73.035921 
L 553.732808 73.463448 
L 554.920801 73.66721 
L 556.108793 74.023678 
L 557.296785 73.967541 
L 558.484778 74.253451 
L 560.860762 74.253451 
L 562.048755 74.696887 
L 565.612732 75.534957 
L 566.800724 75.873728 
L 569.176709 75.873728 
L 570.364701 76.747831 
L 575.11667 77.97937 
L 579.86864 77.946687 
L 581.056632 77.829979 
L 582.244624 77.894635 
L 584.620609 77.837714 
L 585.808601 77.837714 
L 586.996594 77.695659 
L 588.184586 77.696929 
L 589.372578 77.85062 
L 590.560571 77.781142 
L 591.748563 77.582063 
L 594.124548 77.582063 
L 596.500532 77.055455 
L 598.876517 76.532613 
L 600.064509 76.409164 
L 602.440494 76.409164 
L 603.628486 75.950145 
L 604.816479 75.88729 
L 608.380456 74.783556 
L 610.75644 74.783556 
L 613.132425 74.003225 
L 615.50841 73.619725 
L 616.696402 73.373958 
L 622.636364 73.373958 
L 622.636364 73.373958 
" style="fill:none;stroke:#8eba42;stroke-linecap:square;stroke-opacity:0.4;stroke-width:2;"/>
   </g>
   <g id="line2d_35">
    <defs>
     <path d="M 0 3 
C 0.795609 3 1.55874 2.683901 2.12132 2.12132 
C 2.683901 1.55874 3 0.795609 3 0 
C 3 -0.795609 2.683901 -1.55874 2.12132 -2.12132 
C 1.55874 -2.683901 0.795609 -3 0 -3 
C -0.795609 -3 -1.55874 -2.683901 -2.12132 -2.12132 
C -2.683901 -1.55874 -3 -0.795609 -3 0 
C -3 0.795609 -2.683901 1.55874 -2.12132 2.12132 
C -1.55874 2.683901 -0.795609 3 0 3 
z
" id="mb96f17aeac" style="stroke:#8eba42;stroke-opacity:0.4;"/>
    </defs>
    <g clip-path="url(#pa4b4b033d7)">
     <use style="fill:#8eba42;fill-opacity:0.4;stroke:#8eba42;stroke-opacity:0.4;" x="622.636364" xlink:href="#mb96f17aeac" y="73.373958"/>
    </g>
   </g>
   <g id="line2d_36">
    <path clip-path="url(#pa4b4b033d7)" d="M 115.363636 178.500277 
L 116.551629 178.500277 
L 117.739621 176.817413 
L 118.927613 176.817413 
L 120.115606 183.215297 
L 121.303598 176.817413 
L 122.49159 176.817413 
L 123.679583 178.500277 
L 124.867575 176.817413 
L 126.055567 180.559935 
L 128.431552 180.559935 
L 129.619544 193.355702 
L 130.807537 186.957819 
L 137.935491 186.957819 
L 139.123483 193.355702 
L 140.311475 193.355702 
L 140.324929 433 
M 142.673651 433 
L 142.68746 186.957819 
L 148.627422 186.957819 
L 149.815414 183.215297 
L 151.003406 193.355702 
L 152.191399 173.074891 
L 153.379391 167.764168 
L 154.567383 159.540314 
L 155.755376 155.877021 
L 156.943368 151.719589 
L 158.13136 146.115621 
L 159.319353 143.571468 
L 160.507345 138.575471 
L 161.695337 136.236817 
L 162.88333 135.300401 
L 164.071322 132.783063 
L 165.259314 129.233759 
L 166.447307 126.476893 
L 167.635299 123.281338 
L 168.823291 120.865398 
L 170.011284 120.451827 
L 171.199276 116.605919 
L 173.575261 110.376774 
L 175.951245 103.014508 
L 177.139238 100.635708 
L 178.32723 97.697374 
L 179.515222 95.216465 
L 183.079199 89.990203 
L 185.455184 87.18304 
L 187.831169 85.417759 
L 190.207154 83.00197 
L 192.583138 81.476815 
L 194.959123 80.353828 
L 196.147115 79.948784 
L 197.335108 79.761079 
L 198.5231 79.805038 
L 200.899085 79.563627 
L 206.839046 80.334049 
L 208.027039 80.600067 
L 211.591016 80.772669 
L 212.779008 80.638716 
L 213.967 80.771087 
L 216.342985 80.452913 
L 217.530977 80.484584 
L 219.906962 80.356009 
L 221.094954 80.632706 
L 223.470939 80.806814 
L 224.658931 81.012372 
L 225.846924 80.889007 
L 228.222908 81.139927 
L 230.598893 81.123662 
L 232.974878 81.303726 
L 234.16287 81.711427 
L 235.350862 81.826257 
L 237.726847 82.376996 
L 238.914839 82.465111 
L 240.102832 82.700245 
L 247.230786 82.873345 
L 248.418778 82.740493 
L 250.794763 82.864814 
L 251.982755 83.044512 
L 253.170747 82.943587 
L 254.35874 83.165177 
L 255.546732 83.24742 
L 257.922717 83.721568 
L 261.486694 83.577986 
L 262.674686 83.656431 
L 265.050671 83.458189 
L 270.990632 83.652551 
L 272.178625 83.853108 
L 279.306579 83.256738 
L 286.434533 81.259496 
L 288.810517 80.075528 
L 291.186502 79.226291 
L 292.374494 78.674874 
L 293.562487 78.344201 
L 294.750479 77.802702 
L 297.126464 77.198987 
L 299.502448 76.231833 
L 304.254418 75.638061 
L 305.44241 75.265987 
L 307.818395 74.909665 
L 310.194379 74.174259 
L 311.382372 74.000859 
L 312.570364 73.654016 
L 314.946349 73.328627 
L 316.134341 73.055776 
L 320.88631 72.817841 
L 322.074303 72.887406 
L 323.262295 72.838986 
L 324.450287 72.985556 
L 328.014264 73.029077 
L 329.202257 73.137034 
L 332.766234 73.091463 
L 335.142218 73.365636 
L 338.706195 73.973849 
L 339.894188 74.370038 
L 343.458165 74.837349 
L 345.834149 74.7812 
L 347.022142 75.047903 
L 348.210134 75.007949 
L 349.398126 75.21072 
L 350.586119 75.057925 
L 357.714073 76.228019 
L 358.902065 76.7127 
L 364.842027 77.195005 
L 367.218011 77.206925 
L 377.909943 77.350865 
L 381.47392 78.490478 
L 382.661912 78.786757 
L 385.037897 78.961529 
L 386.225889 78.847973 
L 388.601874 78.017018 
L 389.789866 77.845461 
L 390.977858 77.543533 
L 394.541835 77.327723 
L 395.729828 76.779701 
L 402.857782 76.689905 
L 404.045774 77.269691 
L 406.421759 77.14537 
L 407.609751 77.191024 
L 409.985736 76.86431 
L 411.173728 76.918646 
L 412.36172 76.730111 
L 413.549713 76.676781 
L 415.925697 75.969976 
L 417.11369 75.928561 
L 424.241644 74.865393 
L 425.429636 74.556113 
L 427.805621 74.433451 
L 428.993613 73.845726 
L 430.181605 73.63425 
L 431.369598 73.559783 
L 433.745582 73.058037 
L 434.933575 72.546022 
L 436.121567 72.305485 
L 437.309559 72.312055 
L 442.061529 71.208094 
L 443.249521 71.093506 
L 444.437513 70.420202 
L 445.625506 70.152857 
L 446.813498 69.439669 
L 448.00149 69.102334 
L 449.189483 68.612484 
L 451.565467 67.819472 
L 452.75346 67.702444 
L 453.941452 67.312338 
L 455.129444 67.168508 
L 459.881414 65.510299 
L 461.069406 65.32501 
L 462.257398 64.962207 
L 467.009368 64.200253 
L 472.949329 63.782487 
L 474.137322 64.387245 
L 475.325314 64.309561 
L 476.513306 64.497207 
L 480.077283 64.559075 
L 481.265276 64.405488 
L 482.453268 63.565185 
L 483.64126 63.38934 
L 484.829253 62.973855 
L 488.39323 62.249344 
L 490.769214 62.076453 
L 495.521184 61.986759 
L 496.709176 62.074684 
L 499.085161 61.878604 
L 500.273153 61.806985 
L 501.461145 61.960318 
L 505.025122 62.001095 
L 506.213115 62.105761 
L 507.401107 62.390543 
L 508.589099 63.42733 
L 509.777092 63.185859 
L 512.153076 63.586189 
L 514.529061 63.54147 
L 516.905046 62.866376 
L 518.093038 62.383346 
L 519.28103 62.052137 
L 520.469023 61.993221 
L 524.033 61.408815 
L 525.220992 60.643069 
L 526.408984 60.843801 
L 527.596977 60.819504 
L 528.784969 60.656483 
L 531.160954 60.832651 
L 533.536938 61.345588 
L 534.724931 61.698504 
L 535.912923 61.910064 
L 537.100915 62.352366 
L 544.228869 64.234776 
L 545.416862 64.168447 
L 552.544816 65.448366 
L 553.732808 65.598234 
L 556.108793 66.191396 
L 558.484778 66.966146 
L 559.67277 67.375003 
L 560.860762 67.622121 
L 562.048755 68.138438 
L 565.612732 68.934815 
L 566.800724 69.394852 
L 567.988716 69.626684 
L 569.176709 69.976141 
L 571.552693 71.03238 
L 572.740686 71.447323 
L 573.928678 72.081293 
L 576.304663 72.751841 
L 577.492655 72.908772 
L 578.680647 72.868562 
L 581.056632 72.593348 
L 582.244624 72.442212 
L 584.620609 72.628886 
L 585.808601 72.741556 
L 586.996594 72.689257 
L 588.184586 72.989141 
L 590.560571 73.336237 
L 595.31254 74.228748 
L 596.500532 74.213775 
L 598.876517 74.559889 
L 602.440494 74.872048 
L 603.628486 74.590531 
L 604.816479 74.680451 
L 609.568448 74.637022 
L 613.132425 74.876103 
L 614.320417 74.215696 
L 615.50841 74.0582 
L 616.696402 73.709192 
L 620.260379 73.357689 
L 622.636364 73.357689 
L 622.636364 73.357689 
" style="fill:none;stroke:#ffb5b8;stroke-linecap:square;stroke-opacity:0.4;stroke-width:2;"/>
   </g>
   <g id="line2d_37">
    <defs>
     <path d="M 0 3 
C 0.795609 3 1.55874 2.683901 2.12132 2.12132 
C 2.683901 1.55874 3 0.795609 3 0 
C 3 -0.795609 2.683901 -1.55874 2.12132 -2.12132 
C 1.55874 -2.683901 0.795609 -3 0 -3 
C -0.795609 -3 -1.55874 -2.683901 -2.12132 -2.12132 
C -2.683901 -1.55874 -3 -0.795609 -3 0 
C -3 0.795609 -2.683901 1.55874 -2.12132 2.12132 
C -1.55874 2.683901 -0.795609 3 0 3 
z
" id="med54146803" style="stroke:#ffb5b8;stroke-opacity:0.4;"/>
    </defs>
    <g clip-path="url(#pa4b4b033d7)">
     <use style="fill:#ffb5b8;fill-opacity:0.4;stroke:#ffb5b8;stroke-opacity:0.4;" x="622.636364" xlink:href="#med54146803" y="73.357689"/>
    </g>
   </g>
   <g id="patch_3">
    <path d="M 90 200.094545 
L 90 51.84 
" style="fill:none;stroke:#ffffff;stroke-linecap:square;stroke-linejoin:miter;"/>
   </g>
   <g id="patch_4">
    <path d="M 648 200.094545 
L 648 51.84 
" style="fill:none;stroke:#ffffff;stroke-linecap:square;stroke-linejoin:miter;"/>
   </g>
   <g id="patch_5">
    <path d="M 90 200.094545 
L 648 200.094545 
" style="fill:none;stroke:#ffffff;stroke-linecap:square;stroke-linejoin:miter;"/>
   </g>
   <g id="patch_6">
    <path d="M 90 51.84 
L 648 51.84 
" style="fill:none;stroke:#ffffff;stroke-linecap:square;stroke-linejoin:miter;"/>
   </g>
   <g id="legend_1">
    <g id="patch_7">
     <path d="M 97 162.586875 
L 192.7625 162.586875 
Q 194.7625 162.586875 194.7625 160.586875 
L 194.7625 58.84 
Q 194.7625 56.84 192.7625 56.84 
L 97 56.84 
Q 95 56.84 95 58.84 
L 95 160.586875 
Q 95 162.586875 97 162.586875 
z
" style="fill:#e5e5e5;opacity:0.8;stroke:#cccccc;stroke-linejoin:miter;stroke-width:0.5;"/>
    </g>
    <g id="line2d_38">
     <path d="M 99 64.938437 
L 119 64.938437 
" style="fill:none;stroke:#348abd;stroke-linecap:square;stroke-width:4;"/>
    </g>
    <g id="line2d_39"/>
    <g id="text_15">
     <text style="font-family:DejaVu Sans;font-size:10px;font-stretch:normal;font-style:normal;font-weight:normal;text-anchor:start;" transform="rotate(-0, 127, 68.438437)" x="127" y="68.438437">Korea, South</text>
    </g>
    <g id="line2d_40">
     <path d="M 99 79.616562 
L 119 79.616562 
" style="fill:none;stroke:#348abd;stroke-linecap:square;stroke-opacity:0.4;stroke-width:2;"/>
    </g>
    <g id="line2d_41"/>
    <g id="text_16">
     <text style="font-family:DejaVu Sans;font-size:10px;font-stretch:normal;font-style:normal;font-weight:normal;text-anchor:start;" transform="rotate(-0, 127, 83.116562)" x="127" y="83.116562">Germany</text>
    </g>
    <g id="line2d_42">
     <path d="M 99 94.294687 
L 119 94.294687 
" style="fill:none;stroke:#988ed5;stroke-linecap:square;stroke-opacity:0.4;stroke-width:2;"/>
    </g>
    <g id="line2d_43"/>
    <g id="text_17">
     <text style="font-family:DejaVu Sans;font-size:10px;font-stretch:normal;font-style:normal;font-weight:normal;text-anchor:start;" transform="rotate(-0, 127, 97.794687)" x="127" y="97.794687">Australia</text>
    </g>
    <g id="line2d_44">
     <path d="M 99 108.972812 
L 119 108.972812 
" style="fill:none;stroke:#777777;stroke-linecap:square;stroke-opacity:0.4;stroke-width:2;"/>
    </g>
    <g id="line2d_45"/>
    <g id="text_18">
     <text style="font-family:DejaVu Sans;font-size:10px;font-stretch:normal;font-style:normal;font-weight:normal;text-anchor:start;" transform="rotate(-0, 127, 112.472812)" x="127" y="112.472812">Poland</text>
    </g>
    <g id="line2d_46">
     <path d="M 99 123.650937 
L 119 123.650937 
" style="fill:none;stroke:#fbc15e;stroke-linecap:square;stroke-opacity:0.4;stroke-width:2;"/>
    </g>
    <g id="line2d_47"/>
    <g id="text_19">
     <text style="font-family:DejaVu Sans;font-size:10px;font-stretch:normal;font-style:normal;font-weight:normal;text-anchor:start;" transform="rotate(-0, 127, 127.150937)" x="127" y="127.150937">Belarus</text>
    </g>
    <g id="line2d_48">
     <path d="M 99 138.329062 
L 119 138.329062 
" style="fill:none;stroke:#8eba42;stroke-linecap:square;stroke-opacity:0.4;stroke-width:2;"/>
    </g>
    <g id="line2d_49"/>
    <g id="text_20">
     <text style="font-family:DejaVu Sans;font-size:10px;font-stretch:normal;font-style:normal;font-weight:normal;text-anchor:start;" transform="rotate(-0, 127, 141.829062)" x="127" y="141.829062">Switzerland</text>
    </g>
    <g id="line2d_50">
     <path d="M 99 153.007187 
L 119 153.007187 
" style="fill:none;stroke:#ffb5b8;stroke-linecap:square;stroke-opacity:0.4;stroke-width:2;"/>
    </g>
    <g id="line2d_51"/>
    <g id="text_21">
     <text style="font-family:DejaVu Sans;font-size:10px;font-stretch:normal;font-style:normal;font-weight:normal;text-anchor:start;" transform="rotate(-0, 127, 156.507187)" x="127" y="156.507187">US</text>
    </g>
   </g>
  </g>
 </g>
 <defs>
  <clipPath id="pa4b4b033d7">
   <rect height="148.254545" width="558" x="90" y="51.84"/>
  </clipPath>
 </defs>
</svg>
