<?xml version="1.0" encoding="utf-8" standalone="no"?>
<!DOCTYPE svg PUBLIC "-//W3C//DTD SVG 1.1//EN"
  "http://www.w3.org/Graphics/SVG/1.1/DTD/svg11.dtd">
<!-- Created with matplotlib (https://matplotlib.org/) -->
<svg height="180pt" version="1.1" viewBox="0 0 720 180" width="720pt" xmlns="http://www.w3.org/2000/svg" xmlns:xlink="http://www.w3.org/1999/xlink">
 <defs>
  <style type="text/css">
*{stroke-linecap:butt;stroke-linejoin:round;}
  </style>
 </defs>
 <g id="figure_1">
  <g id="patch_1">
   <path d="M 0 180 
L 720 180 
L 720 0 
L 0 0 
z
" style="fill:#ffffff;"/>
  </g>
  <g id="axes_1">
   <g id="patch_2">
    <path d="M 90 157.5 
L 648 157.5 
L 648 21.6 
L 90 21.6 
z
" style="fill:#e5e5e5;"/>
   </g>
   <g id="matplotlib.axis_1">
    <g id="xtick_1">
     <g id="line2d_1">
      <path clip-path="url(#p23f1d6ad22)" d="M 133.676731 157.5 
L 133.676731 21.6 
" style="fill:none;stroke:#ffffff;stroke-linecap:square;stroke-width:0.8;"/>
     </g>
     <g id="line2d_2">
      <defs>
       <path d="M 0 0 
L 0 3.5 
" id="mb096aac2da" style="stroke:#555555;stroke-width:0.8;"/>
      </defs>
      <g>
       <use style="fill:#555555;stroke:#555555;stroke-width:0.8;" x="133.676731" xlink:href="#mb096aac2da" y="157.5"/>
      </g>
     </g>
     <g id="text_1">
      <!-- 2020-02 -->
      <defs>
       <path d="M 19.1875 8.296875 
L 53.609375 8.296875 
L 53.609375 0 
L 7.328125 0 
L 7.328125 8.296875 
Q 12.9375 14.109375 22.625 23.890625 
Q 32.328125 33.6875 34.8125 36.53125 
Q 39.546875 41.84375 41.421875 45.53125 
Q 43.3125 49.21875 43.3125 52.78125 
Q 43.3125 58.59375 39.234375 62.25 
Q 35.15625 65.921875 28.609375 65.921875 
Q 23.96875 65.921875 18.8125 64.3125 
Q 13.671875 62.703125 7.8125 59.421875 
L 7.8125 69.390625 
Q 13.765625 71.78125 18.9375 73 
Q 24.125 74.21875 28.421875 74.21875 
Q 39.75 74.21875 46.484375 68.546875 
Q 53.21875 62.890625 53.21875 53.421875 
Q 53.21875 48.921875 51.53125 44.890625 
Q 49.859375 40.875 45.40625 35.40625 
Q 44.1875 33.984375 37.640625 27.21875 
Q 31.109375 20.453125 19.1875 8.296875 
z
" id="DejaVuSans-50"/>
       <path d="M 31.78125 66.40625 
Q 24.171875 66.40625 20.328125 58.90625 
Q 16.5 51.421875 16.5 36.375 
Q 16.5 21.390625 20.328125 13.890625 
Q 24.171875 6.390625 31.78125 6.390625 
Q 39.453125 6.390625 43.28125 13.890625 
Q 47.125 21.390625 47.125 36.375 
Q 47.125 51.421875 43.28125 58.90625 
Q 39.453125 66.40625 31.78125 66.40625 
z
M 31.78125 74.21875 
Q 44.046875 74.21875 50.515625 64.515625 
Q 56.984375 54.828125 56.984375 36.375 
Q 56.984375 17.96875 50.515625 8.265625 
Q 44.046875 -1.421875 31.78125 -1.421875 
Q 19.53125 -1.421875 13.0625 8.265625 
Q 6.59375 17.96875 6.59375 36.375 
Q 6.59375 54.828125 13.0625 64.515625 
Q 19.53125 74.21875 31.78125 74.21875 
z
" id="DejaVuSans-48"/>
       <path d="M 4.890625 31.390625 
L 31.203125 31.390625 
L 31.203125 23.390625 
L 4.890625 23.390625 
z
" id="DejaVuSans-45"/>
      </defs>
      <g style="fill:#555555;" transform="translate(112.785325 172.098437)scale(0.1 -0.1)">
       <use xlink:href="#DejaVuSans-50"/>
       <use x="63.623047" xlink:href="#DejaVuSans-48"/>
       <use x="127.246094" xlink:href="#DejaVuSans-50"/>
       <use x="190.869141" xlink:href="#DejaVuSans-48"/>
       <use x="254.492188" xlink:href="#DejaVuSans-45"/>
       <use x="290.576172" xlink:href="#DejaVuSans-48"/>
       <use x="354.199219" xlink:href="#DejaVuSans-50"/>
      </g>
     </g>
    </g>
    <g id="xtick_2">
     <g id="line2d_3">
      <path clip-path="url(#p23f1d6ad22)" d="M 186.784706 157.5 
L 186.784706 21.6 
" style="fill:none;stroke:#ffffff;stroke-linecap:square;stroke-width:0.8;"/>
     </g>
     <g id="line2d_4">
      <g>
       <use style="fill:#555555;stroke:#555555;stroke-width:0.8;" x="186.784706" xlink:href="#mb096aac2da" y="157.5"/>
      </g>
     </g>
     <g id="text_2">
      <!-- 2020-03 -->
      <defs>
       <path d="M 40.578125 39.3125 
Q 47.65625 37.796875 51.625 33 
Q 55.609375 28.21875 55.609375 21.1875 
Q 55.609375 10.40625 48.1875 4.484375 
Q 40.765625 -1.421875 27.09375 -1.421875 
Q 22.515625 -1.421875 17.65625 -0.515625 
Q 12.796875 0.390625 7.625 2.203125 
L 7.625 11.71875 
Q 11.71875 9.328125 16.59375 8.109375 
Q 21.484375 6.890625 26.8125 6.890625 
Q 36.078125 6.890625 40.9375 10.546875 
Q 45.796875 14.203125 45.796875 21.1875 
Q 45.796875 27.640625 41.28125 31.265625 
Q 36.765625 34.90625 28.71875 34.90625 
L 20.21875 34.90625 
L 20.21875 43.015625 
L 29.109375 43.015625 
Q 36.375 43.015625 40.234375 45.921875 
Q 44.09375 48.828125 44.09375 54.296875 
Q 44.09375 59.90625 40.109375 62.90625 
Q 36.140625 65.921875 28.71875 65.921875 
Q 24.65625 65.921875 20.015625 65.03125 
Q 15.375 64.15625 9.8125 62.3125 
L 9.8125 71.09375 
Q 15.4375 72.65625 20.34375 73.4375 
Q 25.25 74.21875 29.59375 74.21875 
Q 40.828125 74.21875 47.359375 69.109375 
Q 53.90625 64.015625 53.90625 55.328125 
Q 53.90625 49.265625 50.4375 45.09375 
Q 46.96875 40.921875 40.578125 39.3125 
z
" id="DejaVuSans-51"/>
      </defs>
      <g style="fill:#555555;" transform="translate(165.8933 172.098437)scale(0.1 -0.1)">
       <use xlink:href="#DejaVuSans-50"/>
       <use x="63.623047" xlink:href="#DejaVuSans-48"/>
       <use x="127.246094" xlink:href="#DejaVuSans-50"/>
       <use x="190.869141" xlink:href="#DejaVuSans-48"/>
       <use x="254.492188" xlink:href="#DejaVuSans-45"/>
       <use x="290.576172" xlink:href="#DejaVuSans-48"/>
       <use x="354.199219" xlink:href="#DejaVuSans-51"/>
      </g>
     </g>
    </g>
    <g id="xtick_3">
     <g id="line2d_5">
      <path clip-path="url(#p23f1d6ad22)" d="M 243.5553 157.5 
L 243.5553 21.6 
" style="fill:none;stroke:#ffffff;stroke-linecap:square;stroke-width:0.8;"/>
     </g>
     <g id="line2d_6">
      <g>
       <use style="fill:#555555;stroke:#555555;stroke-width:0.8;" x="243.5553" xlink:href="#mb096aac2da" y="157.5"/>
      </g>
     </g>
     <g id="text_3">
      <!-- 2020-04 -->
      <defs>
       <path d="M 37.796875 64.3125 
L 12.890625 25.390625 
L 37.796875 25.390625 
z
M 35.203125 72.90625 
L 47.609375 72.90625 
L 47.609375 25.390625 
L 58.015625 25.390625 
L 58.015625 17.1875 
L 47.609375 17.1875 
L 47.609375 0 
L 37.796875 0 
L 37.796875 17.1875 
L 4.890625 17.1875 
L 4.890625 26.703125 
z
" id="DejaVuSans-52"/>
      </defs>
      <g style="fill:#555555;" transform="translate(222.663894 172.098437)scale(0.1 -0.1)">
       <use xlink:href="#DejaVuSans-50"/>
       <use x="63.623047" xlink:href="#DejaVuSans-48"/>
       <use x="127.246094" xlink:href="#DejaVuSans-50"/>
       <use x="190.869141" xlink:href="#DejaVuSans-48"/>
       <use x="254.492188" xlink:href="#DejaVuSans-45"/>
       <use x="290.576172" xlink:href="#DejaVuSans-48"/>
       <use x="354.199219" xlink:href="#DejaVuSans-52"/>
      </g>
     </g>
    </g>
    <g id="xtick_4">
     <g id="line2d_7">
      <path clip-path="url(#p23f1d6ad22)" d="M 298.494585 157.5 
L 298.494585 21.6 
" style="fill:none;stroke:#ffffff;stroke-linecap:square;stroke-width:0.8;"/>
     </g>
     <g id="line2d_8">
      <g>
       <use style="fill:#555555;stroke:#555555;stroke-width:0.8;" x="298.494585" xlink:href="#mb096aac2da" y="157.5"/>
      </g>
     </g>
     <g id="text_4">
      <!-- 2020-05 -->
      <defs>
       <path d="M 10.796875 72.90625 
L 49.515625 72.90625 
L 49.515625 64.59375 
L 19.828125 64.59375 
L 19.828125 46.734375 
Q 21.96875 47.46875 24.109375 47.828125 
Q 26.265625 48.1875 28.421875 48.1875 
Q 40.625 48.1875 47.75 41.5 
Q 54.890625 34.8125 54.890625 23.390625 
Q 54.890625 11.625 47.5625 5.09375 
Q 40.234375 -1.421875 26.90625 -1.421875 
Q 22.3125 -1.421875 17.546875 -0.640625 
Q 12.796875 0.140625 7.71875 1.703125 
L 7.71875 11.625 
Q 12.109375 9.234375 16.796875 8.0625 
Q 21.484375 6.890625 26.703125 6.890625 
Q 35.15625 6.890625 40.078125 11.328125 
Q 45.015625 15.765625 45.015625 23.390625 
Q 45.015625 31 40.078125 35.4375 
Q 35.15625 39.890625 26.703125 39.890625 
Q 22.75 39.890625 18.8125 39.015625 
Q 14.890625 38.140625 10.796875 36.28125 
z
" id="DejaVuSans-53"/>
      </defs>
      <g style="fill:#555555;" transform="translate(277.603179 172.098437)scale(0.1 -0.1)">
       <use xlink:href="#DejaVuSans-50"/>
       <use x="63.623047" xlink:href="#DejaVuSans-48"/>
       <use x="127.246094" xlink:href="#DejaVuSans-50"/>
       <use x="190.869141" xlink:href="#DejaVuSans-48"/>
       <use x="254.492188" xlink:href="#DejaVuSans-45"/>
       <use x="290.576172" xlink:href="#DejaVuSans-48"/>
       <use x="354.199219" xlink:href="#DejaVuSans-53"/>
      </g>
     </g>
    </g>
    <g id="xtick_5">
     <g id="line2d_9">
      <path clip-path="url(#p23f1d6ad22)" d="M 355.265179 157.5 
L 355.265179 21.6 
" style="fill:none;stroke:#ffffff;stroke-linecap:square;stroke-width:0.8;"/>
     </g>
     <g id="line2d_10">
      <g>
       <use style="fill:#555555;stroke:#555555;stroke-width:0.8;" x="355.265179" xlink:href="#mb096aac2da" y="157.5"/>
      </g>
     </g>
     <g id="text_5">
      <!-- 2020-06 -->
      <defs>
       <path d="M 33.015625 40.375 
Q 26.375 40.375 22.484375 35.828125 
Q 18.609375 31.296875 18.609375 23.390625 
Q 18.609375 15.53125 22.484375 10.953125 
Q 26.375 6.390625 33.015625 6.390625 
Q 39.65625 6.390625 43.53125 10.953125 
Q 47.40625 15.53125 47.40625 23.390625 
Q 47.40625 31.296875 43.53125 35.828125 
Q 39.65625 40.375 33.015625 40.375 
z
M 52.59375 71.296875 
L 52.59375 62.3125 
Q 48.875 64.0625 45.09375 64.984375 
Q 41.3125 65.921875 37.59375 65.921875 
Q 27.828125 65.921875 22.671875 59.328125 
Q 17.53125 52.734375 16.796875 39.40625 
Q 19.671875 43.65625 24.015625 45.921875 
Q 28.375 48.1875 33.59375 48.1875 
Q 44.578125 48.1875 50.953125 41.515625 
Q 57.328125 34.859375 57.328125 23.390625 
Q 57.328125 12.15625 50.6875 5.359375 
Q 44.046875 -1.421875 33.015625 -1.421875 
Q 20.359375 -1.421875 13.671875 8.265625 
Q 6.984375 17.96875 6.984375 36.375 
Q 6.984375 53.65625 15.1875 63.9375 
Q 23.390625 74.21875 37.203125 74.21875 
Q 40.921875 74.21875 44.703125 73.484375 
Q 48.484375 72.75 52.59375 71.296875 
z
" id="DejaVuSans-54"/>
      </defs>
      <g style="fill:#555555;" transform="translate(334.373773 172.098437)scale(0.1 -0.1)">
       <use xlink:href="#DejaVuSans-50"/>
       <use x="63.623047" xlink:href="#DejaVuSans-48"/>
       <use x="127.246094" xlink:href="#DejaVuSans-50"/>
       <use x="190.869141" xlink:href="#DejaVuSans-48"/>
       <use x="254.492188" xlink:href="#DejaVuSans-45"/>
       <use x="290.576172" xlink:href="#DejaVuSans-48"/>
       <use x="354.199219" xlink:href="#DejaVuSans-54"/>
      </g>
     </g>
    </g>
    <g id="xtick_6">
     <g id="line2d_11">
      <path clip-path="url(#p23f1d6ad22)" d="M 410.204463 157.5 
L 410.204463 21.6 
" style="fill:none;stroke:#ffffff;stroke-linecap:square;stroke-width:0.8;"/>
     </g>
     <g id="line2d_12">
      <g>
       <use style="fill:#555555;stroke:#555555;stroke-width:0.8;" x="410.204463" xlink:href="#mb096aac2da" y="157.5"/>
      </g>
     </g>
     <g id="text_6">
      <!-- 2020-07 -->
      <defs>
       <path d="M 8.203125 72.90625 
L 55.078125 72.90625 
L 55.078125 68.703125 
L 28.609375 0 
L 18.3125 0 
L 43.21875 64.59375 
L 8.203125 64.59375 
z
" id="DejaVuSans-55"/>
      </defs>
      <g style="fill:#555555;" transform="translate(389.313057 172.098437)scale(0.1 -0.1)">
       <use xlink:href="#DejaVuSans-50"/>
       <use x="63.623047" xlink:href="#DejaVuSans-48"/>
       <use x="127.246094" xlink:href="#DejaVuSans-50"/>
       <use x="190.869141" xlink:href="#DejaVuSans-48"/>
       <use x="254.492188" xlink:href="#DejaVuSans-45"/>
       <use x="290.576172" xlink:href="#DejaVuSans-48"/>
       <use x="354.199219" xlink:href="#DejaVuSans-55"/>
      </g>
     </g>
    </g>
    <g id="xtick_7">
     <g id="line2d_13">
      <path clip-path="url(#p23f1d6ad22)" d="M 466.975057 157.5 
L 466.975057 21.6 
" style="fill:none;stroke:#ffffff;stroke-linecap:square;stroke-width:0.8;"/>
     </g>
     <g id="line2d_14">
      <g>
       <use style="fill:#555555;stroke:#555555;stroke-width:0.8;" x="466.975057" xlink:href="#mb096aac2da" y="157.5"/>
      </g>
     </g>
     <g id="text_7">
      <!-- 2020-08 -->
      <defs>
       <path d="M 31.78125 34.625 
Q 24.75 34.625 20.71875 30.859375 
Q 16.703125 27.09375 16.703125 20.515625 
Q 16.703125 13.921875 20.71875 10.15625 
Q 24.75 6.390625 31.78125 6.390625 
Q 38.8125 6.390625 42.859375 10.171875 
Q 46.921875 13.96875 46.921875 20.515625 
Q 46.921875 27.09375 42.890625 30.859375 
Q 38.875 34.625 31.78125 34.625 
z
M 21.921875 38.8125 
Q 15.578125 40.375 12.03125 44.71875 
Q 8.5 49.078125 8.5 55.328125 
Q 8.5 64.0625 14.71875 69.140625 
Q 20.953125 74.21875 31.78125 74.21875 
Q 42.671875 74.21875 48.875 69.140625 
Q 55.078125 64.0625 55.078125 55.328125 
Q 55.078125 49.078125 51.53125 44.71875 
Q 48 40.375 41.703125 38.8125 
Q 48.828125 37.15625 52.796875 32.3125 
Q 56.78125 27.484375 56.78125 20.515625 
Q 56.78125 9.90625 50.3125 4.234375 
Q 43.84375 -1.421875 31.78125 -1.421875 
Q 19.734375 -1.421875 13.25 4.234375 
Q 6.78125 9.90625 6.78125 20.515625 
Q 6.78125 27.484375 10.78125 32.3125 
Q 14.796875 37.15625 21.921875 38.8125 
z
M 18.3125 54.390625 
Q 18.3125 48.734375 21.84375 45.5625 
Q 25.390625 42.390625 31.78125 42.390625 
Q 38.140625 42.390625 41.71875 45.5625 
Q 45.3125 48.734375 45.3125 54.390625 
Q 45.3125 60.0625 41.71875 63.234375 
Q 38.140625 66.40625 31.78125 66.40625 
Q 25.390625 66.40625 21.84375 63.234375 
Q 18.3125 60.0625 18.3125 54.390625 
z
" id="DejaVuSans-56"/>
      </defs>
      <g style="fill:#555555;" transform="translate(446.083651 172.098437)scale(0.1 -0.1)">
       <use xlink:href="#DejaVuSans-50"/>
       <use x="63.623047" xlink:href="#DejaVuSans-48"/>
       <use x="127.246094" xlink:href="#DejaVuSans-50"/>
       <use x="190.869141" xlink:href="#DejaVuSans-48"/>
       <use x="254.492188" xlink:href="#DejaVuSans-45"/>
       <use x="290.576172" xlink:href="#DejaVuSans-48"/>
       <use x="354.199219" xlink:href="#DejaVuSans-56"/>
      </g>
     </g>
    </g>
    <g id="xtick_8">
     <g id="line2d_15">
      <path clip-path="url(#p23f1d6ad22)" d="M 523.745651 157.5 
L 523.745651 21.6 
" style="fill:none;stroke:#ffffff;stroke-linecap:square;stroke-width:0.8;"/>
     </g>
     <g id="line2d_16">
      <g>
       <use style="fill:#555555;stroke:#555555;stroke-width:0.8;" x="523.745651" xlink:href="#mb096aac2da" y="157.5"/>
      </g>
     </g>
     <g id="text_8">
      <!-- 2020-09 -->
      <defs>
       <path d="M 10.984375 1.515625 
L 10.984375 10.5 
Q 14.703125 8.734375 18.5 7.8125 
Q 22.3125 6.890625 25.984375 6.890625 
Q 35.75 6.890625 40.890625 13.453125 
Q 46.046875 20.015625 46.78125 33.40625 
Q 43.953125 29.203125 39.59375 26.953125 
Q 35.25 24.703125 29.984375 24.703125 
Q 19.046875 24.703125 12.671875 31.3125 
Q 6.296875 37.9375 6.296875 49.421875 
Q 6.296875 60.640625 12.9375 67.421875 
Q 19.578125 74.21875 30.609375 74.21875 
Q 43.265625 74.21875 49.921875 64.515625 
Q 56.59375 54.828125 56.59375 36.375 
Q 56.59375 19.140625 48.40625 8.859375 
Q 40.234375 -1.421875 26.421875 -1.421875 
Q 22.703125 -1.421875 18.890625 -0.6875 
Q 15.09375 0.046875 10.984375 1.515625 
z
M 30.609375 32.421875 
Q 37.25 32.421875 41.125 36.953125 
Q 45.015625 41.5 45.015625 49.421875 
Q 45.015625 57.28125 41.125 61.84375 
Q 37.25 66.40625 30.609375 66.40625 
Q 23.96875 66.40625 20.09375 61.84375 
Q 16.21875 57.28125 16.21875 49.421875 
Q 16.21875 41.5 20.09375 36.953125 
Q 23.96875 32.421875 30.609375 32.421875 
z
" id="DejaVuSans-57"/>
      </defs>
      <g style="fill:#555555;" transform="translate(502.854245 172.098437)scale(0.1 -0.1)">
       <use xlink:href="#DejaVuSans-50"/>
       <use x="63.623047" xlink:href="#DejaVuSans-48"/>
       <use x="127.246094" xlink:href="#DejaVuSans-50"/>
       <use x="190.869141" xlink:href="#DejaVuSans-48"/>
       <use x="254.492188" xlink:href="#DejaVuSans-45"/>
       <use x="290.576172" xlink:href="#DejaVuSans-48"/>
       <use x="354.199219" xlink:href="#DejaVuSans-57"/>
      </g>
     </g>
    </g>
    <g id="xtick_9">
     <g id="line2d_17">
      <path clip-path="url(#p23f1d6ad22)" d="M 578.684936 157.5 
L 578.684936 21.6 
" style="fill:none;stroke:#ffffff;stroke-linecap:square;stroke-width:0.8;"/>
     </g>
     <g id="line2d_18">
      <g>
       <use style="fill:#555555;stroke:#555555;stroke-width:0.8;" x="578.684936" xlink:href="#mb096aac2da" y="157.5"/>
      </g>
     </g>
     <g id="text_9">
      <!-- 2020-10 -->
      <defs>
       <path d="M 12.40625 8.296875 
L 28.515625 8.296875 
L 28.515625 63.921875 
L 10.984375 60.40625 
L 10.984375 69.390625 
L 28.421875 72.90625 
L 38.28125 72.90625 
L 38.28125 8.296875 
L 54.390625 8.296875 
L 54.390625 0 
L 12.40625 0 
z
" id="DejaVuSans-49"/>
      </defs>
      <g style="fill:#555555;" transform="translate(557.79353 172.098437)scale(0.1 -0.1)">
       <use xlink:href="#DejaVuSans-50"/>
       <use x="63.623047" xlink:href="#DejaVuSans-48"/>
       <use x="127.246094" xlink:href="#DejaVuSans-50"/>
       <use x="190.869141" xlink:href="#DejaVuSans-48"/>
       <use x="254.492188" xlink:href="#DejaVuSans-45"/>
       <use x="290.576172" xlink:href="#DejaVuSans-49"/>
       <use x="354.199219" xlink:href="#DejaVuSans-48"/>
      </g>
     </g>
    </g>
    <g id="xtick_10">
     <g id="line2d_19">
      <path clip-path="url(#p23f1d6ad22)" d="M 635.45553 157.5 
L 635.45553 21.6 
" style="fill:none;stroke:#ffffff;stroke-linecap:square;stroke-width:0.8;"/>
     </g>
     <g id="line2d_20">
      <g>
       <use style="fill:#555555;stroke:#555555;stroke-width:0.8;" x="635.45553" xlink:href="#mb096aac2da" y="157.5"/>
      </g>
     </g>
     <g id="text_10">
      <!-- 2020-11 -->
      <g style="fill:#555555;" transform="translate(614.564124 172.098437)scale(0.1 -0.1)">
       <use xlink:href="#DejaVuSans-50"/>
       <use x="63.623047" xlink:href="#DejaVuSans-48"/>
       <use x="127.246094" xlink:href="#DejaVuSans-50"/>
       <use x="190.869141" xlink:href="#DejaVuSans-48"/>
       <use x="254.492188" xlink:href="#DejaVuSans-45"/>
       <use x="290.576172" xlink:href="#DejaVuSans-49"/>
       <use x="354.199219" xlink:href="#DejaVuSans-49"/>
      </g>
     </g>
    </g>
   </g>
   <g id="matplotlib.axis_2">
    <g id="ytick_1">
     <g id="line2d_21">
      <path clip-path="url(#p23f1d6ad22)" d="M 90 118.87055 
L 648 118.87055 
" style="fill:none;stroke:#ffffff;stroke-linecap:square;stroke-width:0.8;"/>
     </g>
     <g id="line2d_22">
      <defs>
       <path d="M 0 0 
L -3.5 0 
" id="m47d0a53d35" style="stroke:#555555;stroke-width:0.8;"/>
      </defs>
      <g>
       <use style="fill:#555555;stroke:#555555;stroke-width:0.8;" x="90" xlink:href="#m47d0a53d35" y="118.87055"/>
      </g>
     </g>
     <g id="line2d_23">
      <defs>
       <path d="M 0 0 
L 3.5 0 
" id="m4fb739401d" style="stroke:#555555;stroke-width:0.8;"/>
      </defs>
      <g>
       <use style="fill:#555555;stroke:#555555;stroke-width:0.8;" x="648" xlink:href="#m4fb739401d" y="118.87055"/>
      </g>
     </g>
     <g id="text_11">
      <!-- 0.8 -->
      <defs>
       <path d="M 10.6875 12.40625 
L 21 12.40625 
L 21 0 
L 10.6875 0 
z
" id="DejaVuSans-46"/>
      </defs>
      <g style="fill:#555555;" transform="translate(67.096875 122.669769)scale(0.1 -0.1)">
       <use xlink:href="#DejaVuSans-48"/>
       <use x="63.623047" xlink:href="#DejaVuSans-46"/>
       <use x="95.410156" xlink:href="#DejaVuSans-56"/>
      </g>
     </g>
     <g id="text_12">
      <!-- 0.8 -->
      <g style="fill:#555555;" transform="translate(655 122.669769)scale(0.1 -0.1)">
       <use xlink:href="#DejaVuSans-48"/>
       <use x="63.623047" xlink:href="#DejaVuSans-46"/>
       <use x="95.410156" xlink:href="#DejaVuSans-56"/>
      </g>
     </g>
    </g>
    <g id="ytick_2">
     <g id="line2d_24">
      <path clip-path="url(#p23f1d6ad22)" d="M 90 75.639195 
L 648 75.639195 
" style="fill:none;stroke:#ffffff;stroke-linecap:square;stroke-width:0.8;"/>
     </g>
     <g id="line2d_25">
      <g>
       <use style="fill:#555555;stroke:#555555;stroke-width:0.8;" x="90" xlink:href="#m47d0a53d35" y="75.639195"/>
      </g>
     </g>
     <g id="line2d_26">
      <g>
       <use style="fill:#555555;stroke:#555555;stroke-width:0.8;" x="648" xlink:href="#m4fb739401d" y="75.639195"/>
      </g>
     </g>
     <g id="text_13">
      <!-- 1.0 -->
      <g style="fill:#555555;" transform="translate(67.096875 79.438413)scale(0.1 -0.1)">
       <use xlink:href="#DejaVuSans-49"/>
       <use x="63.623047" xlink:href="#DejaVuSans-46"/>
       <use x="95.410156" xlink:href="#DejaVuSans-48"/>
      </g>
     </g>
     <g id="text_14">
      <!-- 1.0 -->
      <g style="fill:#555555;" transform="translate(655 79.438413)scale(0.1 -0.1)">
       <use xlink:href="#DejaVuSans-49"/>
       <use x="63.623047" xlink:href="#DejaVuSans-46"/>
       <use x="95.410156" xlink:href="#DejaVuSans-48"/>
      </g>
     </g>
    </g>
    <g id="ytick_3">
     <g id="line2d_27">
      <path clip-path="url(#p23f1d6ad22)" d="M 90 32.407839 
L 648 32.407839 
" style="fill:none;stroke:#ffffff;stroke-linecap:square;stroke-width:0.8;"/>
     </g>
     <g id="line2d_28">
      <g>
       <use style="fill:#555555;stroke:#555555;stroke-width:0.8;" x="90" xlink:href="#m47d0a53d35" y="32.407839"/>
      </g>
     </g>
     <g id="line2d_29">
      <g>
       <use style="fill:#555555;stroke:#555555;stroke-width:0.8;" x="648" xlink:href="#m4fb739401d" y="32.407839"/>
      </g>
     </g>
     <g id="text_15">
      <!-- 1.2 -->
      <g style="fill:#555555;" transform="translate(67.096875 36.207058)scale(0.1 -0.1)">
       <use xlink:href="#DejaVuSans-49"/>
       <use x="63.623047" xlink:href="#DejaVuSans-46"/>
       <use x="95.410156" xlink:href="#DejaVuSans-50"/>
      </g>
     </g>
     <g id="text_16">
      <!-- 1.2 -->
      <g style="fill:#555555;" transform="translate(655 36.207058)scale(0.1 -0.1)">
       <use xlink:href="#DejaVuSans-49"/>
       <use x="63.623047" xlink:href="#DejaVuSans-46"/>
       <use x="95.410156" xlink:href="#DejaVuSans-50"/>
      </g>
     </g>
    </g>
    <g id="text_17">
     <!-- R &amp; growth factor -->
     <defs>
      <path d="M 44.390625 34.1875 
Q 47.5625 33.109375 50.5625 29.59375 
Q 53.5625 26.078125 56.59375 19.921875 
L 66.609375 0 
L 56 0 
L 46.6875 18.703125 
Q 43.0625 26.03125 39.671875 28.421875 
Q 36.28125 30.8125 30.421875 30.8125 
L 19.671875 30.8125 
L 19.671875 0 
L 9.8125 0 
L 9.8125 72.90625 
L 32.078125 72.90625 
Q 44.578125 72.90625 50.734375 67.671875 
Q 56.890625 62.453125 56.890625 51.90625 
Q 56.890625 45.015625 53.6875 40.46875 
Q 50.484375 35.9375 44.390625 34.1875 
z
M 19.671875 64.796875 
L 19.671875 38.921875 
L 32.078125 38.921875 
Q 39.203125 38.921875 42.84375 42.21875 
Q 46.484375 45.515625 46.484375 51.90625 
Q 46.484375 58.296875 42.84375 61.546875 
Q 39.203125 64.796875 32.078125 64.796875 
z
" id="DejaVuSans-82"/>
      <path id="DejaVuSans-32"/>
      <path d="M 24.3125 39.203125 
Q 19.875 35.25 17.796875 31.3125 
Q 15.71875 27.390625 15.71875 23.09375 
Q 15.71875 15.96875 20.890625 11.234375 
Q 26.078125 6.5 33.890625 6.5 
Q 38.53125 6.5 42.578125 8.03125 
Q 46.625 9.578125 50.203125 12.703125 
z
M 31.203125 44.671875 
L 56 19.28125 
Q 58.890625 23.640625 60.5 28.59375 
Q 62.109375 33.546875 62.40625 39.109375 
L 71.484375 39.109375 
Q 70.90625 32.671875 68.359375 26.359375 
Q 65.828125 20.0625 61.28125 13.921875 
L 74.90625 0 
L 62.59375 0 
L 55.609375 7.171875 
Q 50.53125 2.828125 44.96875 0.703125 
Q 39.40625 -1.421875 33.015625 -1.421875 
Q 21.234375 -1.421875 13.765625 5.296875 
Q 6.296875 12.015625 6.296875 22.515625 
Q 6.296875 28.765625 9.5625 34.25 
Q 12.84375 39.75 19.390625 44.578125 
Q 17.046875 47.65625 15.8125 50.703125 
Q 14.59375 53.765625 14.59375 56.6875 
Q 14.59375 64.59375 20.015625 69.40625 
Q 25.4375 74.21875 34.421875 74.21875 
Q 38.484375 74.21875 42.5 73.34375 
Q 46.53125 72.46875 50.6875 70.703125 
L 50.6875 61.8125 
Q 46.4375 64.109375 42.578125 65.296875 
Q 38.71875 66.5 35.40625 66.5 
Q 30.28125 66.5 27.078125 63.78125 
Q 23.875 61.078125 23.875 56.78125 
Q 23.875 54.296875 25.3125 51.78125 
Q 26.765625 49.265625 31.203125 44.671875 
z
" id="DejaVuSans-38"/>
      <path d="M 45.40625 27.984375 
Q 45.40625 37.75 41.375 43.109375 
Q 37.359375 48.484375 30.078125 48.484375 
Q 22.859375 48.484375 18.828125 43.109375 
Q 14.796875 37.75 14.796875 27.984375 
Q 14.796875 18.265625 18.828125 12.890625 
Q 22.859375 7.515625 30.078125 7.515625 
Q 37.359375 7.515625 41.375 12.890625 
Q 45.40625 18.265625 45.40625 27.984375 
z
M 54.390625 6.78125 
Q 54.390625 -7.171875 48.1875 -13.984375 
Q 42 -20.796875 29.203125 -20.796875 
Q 24.46875 -20.796875 20.265625 -20.09375 
Q 16.0625 -19.390625 12.109375 -17.921875 
L 12.109375 -9.1875 
Q 16.0625 -11.328125 19.921875 -12.34375 
Q 23.78125 -13.375 27.78125 -13.375 
Q 36.625 -13.375 41.015625 -8.765625 
Q 45.40625 -4.15625 45.40625 5.171875 
L 45.40625 9.625 
Q 42.625 4.78125 38.28125 2.390625 
Q 33.9375 0 27.875 0 
Q 17.828125 0 11.671875 7.65625 
Q 5.515625 15.328125 5.515625 27.984375 
Q 5.515625 40.671875 11.671875 48.328125 
Q 17.828125 56 27.875 56 
Q 33.9375 56 38.28125 53.609375 
Q 42.625 51.21875 45.40625 46.390625 
L 45.40625 54.6875 
L 54.390625 54.6875 
z
" id="DejaVuSans-103"/>
      <path d="M 41.109375 46.296875 
Q 39.59375 47.171875 37.8125 47.578125 
Q 36.03125 48 33.890625 48 
Q 26.265625 48 22.1875 43.046875 
Q 18.109375 38.09375 18.109375 28.8125 
L 18.109375 0 
L 9.078125 0 
L 9.078125 54.6875 
L 18.109375 54.6875 
L 18.109375 46.1875 
Q 20.953125 51.171875 25.484375 53.578125 
Q 30.03125 56 36.53125 56 
Q 37.453125 56 38.578125 55.875 
Q 39.703125 55.765625 41.0625 55.515625 
z
" id="DejaVuSans-114"/>
      <path d="M 30.609375 48.390625 
Q 23.390625 48.390625 19.1875 42.75 
Q 14.984375 37.109375 14.984375 27.296875 
Q 14.984375 17.484375 19.15625 11.84375 
Q 23.34375 6.203125 30.609375 6.203125 
Q 37.796875 6.203125 41.984375 11.859375 
Q 46.1875 17.53125 46.1875 27.296875 
Q 46.1875 37.015625 41.984375 42.703125 
Q 37.796875 48.390625 30.609375 48.390625 
z
M 30.609375 56 
Q 42.328125 56 49.015625 48.375 
Q 55.71875 40.765625 55.71875 27.296875 
Q 55.71875 13.875 49.015625 6.21875 
Q 42.328125 -1.421875 30.609375 -1.421875 
Q 18.84375 -1.421875 12.171875 6.21875 
Q 5.515625 13.875 5.515625 27.296875 
Q 5.515625 40.765625 12.171875 48.375 
Q 18.84375 56 30.609375 56 
z
" id="DejaVuSans-111"/>
      <path d="M 4.203125 54.6875 
L 13.1875 54.6875 
L 24.421875 12.015625 
L 35.59375 54.6875 
L 46.1875 54.6875 
L 57.421875 12.015625 
L 68.609375 54.6875 
L 77.59375 54.6875 
L 63.28125 0 
L 52.6875 0 
L 40.921875 44.828125 
L 29.109375 0 
L 18.5 0 
z
" id="DejaVuSans-119"/>
      <path d="M 18.3125 70.21875 
L 18.3125 54.6875 
L 36.8125 54.6875 
L 36.8125 47.703125 
L 18.3125 47.703125 
L 18.3125 18.015625 
Q 18.3125 11.328125 20.140625 9.421875 
Q 21.96875 7.515625 27.59375 7.515625 
L 36.8125 7.515625 
L 36.8125 0 
L 27.59375 0 
Q 17.1875 0 13.234375 3.875 
Q 9.28125 7.765625 9.28125 18.015625 
L 9.28125 47.703125 
L 2.6875 47.703125 
L 2.6875 54.6875 
L 9.28125 54.6875 
L 9.28125 70.21875 
z
" id="DejaVuSans-116"/>
      <path d="M 54.890625 33.015625 
L 54.890625 0 
L 45.90625 0 
L 45.90625 32.71875 
Q 45.90625 40.484375 42.875 44.328125 
Q 39.84375 48.1875 33.796875 48.1875 
Q 26.515625 48.1875 22.3125 43.546875 
Q 18.109375 38.921875 18.109375 30.90625 
L 18.109375 0 
L 9.078125 0 
L 9.078125 75.984375 
L 18.109375 75.984375 
L 18.109375 46.1875 
Q 21.34375 51.125 25.703125 53.5625 
Q 30.078125 56 35.796875 56 
Q 45.21875 56 50.046875 50.171875 
Q 54.890625 44.34375 54.890625 33.015625 
z
" id="DejaVuSans-104"/>
      <path d="M 37.109375 75.984375 
L 37.109375 68.5 
L 28.515625 68.5 
Q 23.6875 68.5 21.796875 66.546875 
Q 19.921875 64.59375 19.921875 59.515625 
L 19.921875 54.6875 
L 34.71875 54.6875 
L 34.71875 47.703125 
L 19.921875 47.703125 
L 19.921875 0 
L 10.890625 0 
L 10.890625 47.703125 
L 2.296875 47.703125 
L 2.296875 54.6875 
L 10.890625 54.6875 
L 10.890625 58.5 
Q 10.890625 67.625 15.140625 71.796875 
Q 19.390625 75.984375 28.609375 75.984375 
z
" id="DejaVuSans-102"/>
      <path d="M 34.28125 27.484375 
Q 23.390625 27.484375 19.1875 25 
Q 14.984375 22.515625 14.984375 16.5 
Q 14.984375 11.71875 18.140625 8.90625 
Q 21.296875 6.109375 26.703125 6.109375 
Q 34.1875 6.109375 38.703125 11.40625 
Q 43.21875 16.703125 43.21875 25.484375 
L 43.21875 27.484375 
z
M 52.203125 31.203125 
L 52.203125 0 
L 43.21875 0 
L 43.21875 8.296875 
Q 40.140625 3.328125 35.546875 0.953125 
Q 30.953125 -1.421875 24.3125 -1.421875 
Q 15.921875 -1.421875 10.953125 3.296875 
Q 6 8.015625 6 15.921875 
Q 6 25.140625 12.171875 29.828125 
Q 18.359375 34.515625 30.609375 34.515625 
L 43.21875 34.515625 
L 43.21875 35.40625 
Q 43.21875 41.609375 39.140625 45 
Q 35.0625 48.390625 27.6875 48.390625 
Q 23 48.390625 18.546875 47.265625 
Q 14.109375 46.140625 10.015625 43.890625 
L 10.015625 52.203125 
Q 14.9375 54.109375 19.578125 55.046875 
Q 24.21875 56 28.609375 56 
Q 40.484375 56 46.34375 49.84375 
Q 52.203125 43.703125 52.203125 31.203125 
z
" id="DejaVuSans-97"/>
      <path d="M 48.78125 52.59375 
L 48.78125 44.1875 
Q 44.96875 46.296875 41.140625 47.34375 
Q 37.3125 48.390625 33.40625 48.390625 
Q 24.65625 48.390625 19.8125 42.84375 
Q 14.984375 37.3125 14.984375 27.296875 
Q 14.984375 17.28125 19.8125 11.734375 
Q 24.65625 6.203125 33.40625 6.203125 
Q 37.3125 6.203125 41.140625 7.25 
Q 44.96875 8.296875 48.78125 10.40625 
L 48.78125 2.09375 
Q 45.015625 0.34375 40.984375 -0.53125 
Q 36.96875 -1.421875 32.421875 -1.421875 
Q 20.0625 -1.421875 12.78125 6.34375 
Q 5.515625 14.109375 5.515625 27.296875 
Q 5.515625 40.671875 12.859375 48.328125 
Q 20.21875 56 33.015625 56 
Q 37.15625 56 41.109375 55.140625 
Q 45.0625 54.296875 48.78125 52.59375 
z
" id="DejaVuSans-99"/>
     </defs>
     <g style="fill:#555555;" transform="translate(47.163875 142.570312)rotate(-90)scale(0.12 -0.12)">
      <use xlink:href="#DejaVuSans-82"/>
      <use x="69.482422" xlink:href="#DejaVuSans-32"/>
      <use x="101.269531" xlink:href="#DejaVuSans-38"/>
      <use x="179.248047" xlink:href="#DejaVuSans-32"/>
      <use x="211.035156" xlink:href="#DejaVuSans-103"/>
      <use x="274.511719" xlink:href="#DejaVuSans-114"/>
      <use x="313.375" xlink:href="#DejaVuSans-111"/>
      <use x="374.556641" xlink:href="#DejaVuSans-119"/>
      <use x="456.34375" xlink:href="#DejaVuSans-116"/>
      <use x="495.552734" xlink:href="#DejaVuSans-104"/>
      <use x="558.931641" xlink:href="#DejaVuSans-32"/>
      <use x="590.71875" xlink:href="#DejaVuSans-102"/>
      <use x="625.923828" xlink:href="#DejaVuSans-97"/>
      <use x="687.203125" xlink:href="#DejaVuSans-99"/>
      <use x="742.183594" xlink:href="#DejaVuSans-116"/>
      <use x="781.392578" xlink:href="#DejaVuSans-111"/>
      <use x="842.574219" xlink:href="#DejaVuSans-114"/>
     </g>
     <!-- (based on deaths) -->
     <defs>
      <path d="M 31 75.875 
Q 24.46875 64.65625 21.28125 53.65625 
Q 18.109375 42.671875 18.109375 31.390625 
Q 18.109375 20.125 21.3125 9.0625 
Q 24.515625 -2 31 -13.1875 
L 23.1875 -13.1875 
Q 15.875 -1.703125 12.234375 9.375 
Q 8.59375 20.453125 8.59375 31.390625 
Q 8.59375 42.28125 12.203125 53.3125 
Q 15.828125 64.359375 23.1875 75.875 
z
" id="DejaVuSans-40"/>
      <path d="M 48.6875 27.296875 
Q 48.6875 37.203125 44.609375 42.84375 
Q 40.53125 48.484375 33.40625 48.484375 
Q 26.265625 48.484375 22.1875 42.84375 
Q 18.109375 37.203125 18.109375 27.296875 
Q 18.109375 17.390625 22.1875 11.75 
Q 26.265625 6.109375 33.40625 6.109375 
Q 40.53125 6.109375 44.609375 11.75 
Q 48.6875 17.390625 48.6875 27.296875 
z
M 18.109375 46.390625 
Q 20.953125 51.265625 25.265625 53.625 
Q 29.59375 56 35.59375 56 
Q 45.5625 56 51.78125 48.09375 
Q 58.015625 40.1875 58.015625 27.296875 
Q 58.015625 14.40625 51.78125 6.484375 
Q 45.5625 -1.421875 35.59375 -1.421875 
Q 29.59375 -1.421875 25.265625 0.953125 
Q 20.953125 3.328125 18.109375 8.203125 
L 18.109375 0 
L 9.078125 0 
L 9.078125 75.984375 
L 18.109375 75.984375 
z
" id="DejaVuSans-98"/>
      <path d="M 44.28125 53.078125 
L 44.28125 44.578125 
Q 40.484375 46.53125 36.375 47.5 
Q 32.28125 48.484375 27.875 48.484375 
Q 21.1875 48.484375 17.84375 46.4375 
Q 14.5 44.390625 14.5 40.28125 
Q 14.5 37.15625 16.890625 35.375 
Q 19.28125 33.59375 26.515625 31.984375 
L 29.59375 31.296875 
Q 39.15625 29.25 43.1875 25.515625 
Q 47.21875 21.78125 47.21875 15.09375 
Q 47.21875 7.46875 41.1875 3.015625 
Q 35.15625 -1.421875 24.609375 -1.421875 
Q 20.21875 -1.421875 15.453125 -0.5625 
Q 10.6875 0.296875 5.421875 2 
L 5.421875 11.28125 
Q 10.40625 8.6875 15.234375 7.390625 
Q 20.0625 6.109375 24.8125 6.109375 
Q 31.15625 6.109375 34.5625 8.28125 
Q 37.984375 10.453125 37.984375 14.40625 
Q 37.984375 18.0625 35.515625 20.015625 
Q 33.0625 21.96875 24.703125 23.78125 
L 21.578125 24.515625 
Q 13.234375 26.265625 9.515625 29.90625 
Q 5.8125 33.546875 5.8125 39.890625 
Q 5.8125 47.609375 11.28125 51.796875 
Q 16.75 56 26.8125 56 
Q 31.78125 56 36.171875 55.265625 
Q 40.578125 54.546875 44.28125 53.078125 
z
" id="DejaVuSans-115"/>
      <path d="M 56.203125 29.59375 
L 56.203125 25.203125 
L 14.890625 25.203125 
Q 15.484375 15.921875 20.484375 11.0625 
Q 25.484375 6.203125 34.421875 6.203125 
Q 39.59375 6.203125 44.453125 7.46875 
Q 49.3125 8.734375 54.109375 11.28125 
L 54.109375 2.78125 
Q 49.265625 0.734375 44.1875 -0.34375 
Q 39.109375 -1.421875 33.890625 -1.421875 
Q 20.796875 -1.421875 13.15625 6.1875 
Q 5.515625 13.8125 5.515625 26.8125 
Q 5.515625 40.234375 12.765625 48.109375 
Q 20.015625 56 32.328125 56 
Q 43.359375 56 49.78125 48.890625 
Q 56.203125 41.796875 56.203125 29.59375 
z
M 47.21875 32.234375 
Q 47.125 39.59375 43.09375 43.984375 
Q 39.0625 48.390625 32.421875 48.390625 
Q 24.90625 48.390625 20.390625 44.140625 
Q 15.875 39.890625 15.1875 32.171875 
z
" id="DejaVuSans-101"/>
      <path d="M 45.40625 46.390625 
L 45.40625 75.984375 
L 54.390625 75.984375 
L 54.390625 0 
L 45.40625 0 
L 45.40625 8.203125 
Q 42.578125 3.328125 38.25 0.953125 
Q 33.9375 -1.421875 27.875 -1.421875 
Q 17.96875 -1.421875 11.734375 6.484375 
Q 5.515625 14.40625 5.515625 27.296875 
Q 5.515625 40.1875 11.734375 48.09375 
Q 17.96875 56 27.875 56 
Q 33.9375 56 38.25 53.625 
Q 42.578125 51.265625 45.40625 46.390625 
z
M 14.796875 27.296875 
Q 14.796875 17.390625 18.875 11.75 
Q 22.953125 6.109375 30.078125 6.109375 
Q 37.203125 6.109375 41.296875 11.75 
Q 45.40625 17.390625 45.40625 27.296875 
Q 45.40625 37.203125 41.296875 42.84375 
Q 37.203125 48.484375 30.078125 48.484375 
Q 22.953125 48.484375 18.875 42.84375 
Q 14.796875 37.203125 14.796875 27.296875 
z
" id="DejaVuSans-100"/>
      <path d="M 54.890625 33.015625 
L 54.890625 0 
L 45.90625 0 
L 45.90625 32.71875 
Q 45.90625 40.484375 42.875 44.328125 
Q 39.84375 48.1875 33.796875 48.1875 
Q 26.515625 48.1875 22.3125 43.546875 
Q 18.109375 38.921875 18.109375 30.90625 
L 18.109375 0 
L 9.078125 0 
L 9.078125 54.6875 
L 18.109375 54.6875 
L 18.109375 46.1875 
Q 21.34375 51.125 25.703125 53.5625 
Q 30.078125 56 35.796875 56 
Q 45.21875 56 50.046875 50.171875 
Q 54.890625 44.34375 54.890625 33.015625 
z
" id="DejaVuSans-110"/>
      <path d="M 8.015625 75.875 
L 15.828125 75.875 
Q 23.140625 64.359375 26.78125 53.3125 
Q 30.421875 42.28125 30.421875 31.390625 
Q 30.421875 20.453125 26.78125 9.375 
Q 23.140625 -1.703125 15.828125 -13.1875 
L 8.015625 -13.1875 
Q 14.5 -2 17.703125 9.0625 
Q 20.90625 20.125 20.90625 31.390625 
Q 20.90625 42.671875 17.703125 53.65625 
Q 14.5 64.65625 8.015625 75.875 
z
" id="DejaVuSans-41"/>
     </defs>
     <g style="fill:#555555;" transform="translate(60.60125 144.09)rotate(-90)scale(0.12 -0.12)">
      <use xlink:href="#DejaVuSans-40"/>
      <use x="39.013672" xlink:href="#DejaVuSans-98"/>
      <use x="102.490234" xlink:href="#DejaVuSans-97"/>
      <use x="163.769531" xlink:href="#DejaVuSans-115"/>
      <use x="215.869141" xlink:href="#DejaVuSans-101"/>
      <use x="277.392578" xlink:href="#DejaVuSans-100"/>
      <use x="340.869141" xlink:href="#DejaVuSans-32"/>
      <use x="372.65625" xlink:href="#DejaVuSans-111"/>
      <use x="433.837891" xlink:href="#DejaVuSans-110"/>
      <use x="497.216797" xlink:href="#DejaVuSans-32"/>
      <use x="529.003906" xlink:href="#DejaVuSans-100"/>
      <use x="592.480469" xlink:href="#DejaVuSans-101"/>
      <use x="654.003906" xlink:href="#DejaVuSans-97"/>
      <use x="715.283203" xlink:href="#DejaVuSans-116"/>
      <use x="754.492188" xlink:href="#DejaVuSans-104"/>
      <use x="817.871094" xlink:href="#DejaVuSans-115"/>
      <use x="869.970703" xlink:href="#DejaVuSans-41"/>
     </g>
    </g>
   </g>
   <g id="line2d_30">
    <defs>
     <path d="M 0 3 
C 0.795609 3 1.55874 2.683901 2.12132 2.12132 
C 2.683901 1.55874 3 0.795609 3 0 
C 3 -0.795609 2.683901 -1.55874 2.12132 -2.12132 
C 1.55874 -2.683901 0.795609 -3 0 -3 
C -0.795609 -3 -1.55874 -2.683901 -2.12132 -2.12132 
C -2.683901 -1.55874 -3 -0.795609 -3 0 
C -3 0.795609 -2.683901 1.55874 -2.12132 2.12132 
C -1.55874 2.683901 -0.795609 3 0 3 
z
" id="m6d3ec5e0a3" style="stroke:#e24a33;stroke-opacity:0.3;"/>
    </defs>
    <g clip-path="url(#p23f1d6ad22)">
     <use style="fill:#e24a33;fill-opacity:0.3;stroke:#e24a33;stroke-opacity:0.3;" x="165.991004" xlink:href="#m6d3ec5e0a3" y="-1"/>
     <use style="fill:#e24a33;fill-opacity:0.3;stroke:#e24a33;stroke-opacity:0.3;" x="166.640302" xlink:href="#m6d3ec5e0a3" y="75.639195"/>
     <use style="fill:#e24a33;fill-opacity:0.3;stroke:#e24a33;stroke-opacity:0.3;" x="166.964951" xlink:href="#m6d3ec5e0a3" y="-1"/>
     <use style="fill:#e24a33;fill-opacity:0.3;stroke:#e24a33;stroke-opacity:0.3;" x="170.279604" xlink:href="#m6d3ec5e0a3" y="-1"/>
     <use style="fill:#e24a33;fill-opacity:0.3;stroke:#e24a33;stroke-opacity:0.3;" x="170.302921" xlink:href="#m6d3ec5e0a3" y="3.586935"/>
     <use style="fill:#e24a33;fill-opacity:0.3;stroke:#e24a33;stroke-opacity:0.3;" x="172.13423" xlink:href="#m6d3ec5e0a3" y="21.6"/>
     <use style="fill:#e24a33;fill-opacity:0.3;stroke:#e24a33;stroke-opacity:0.3;" x="173.96554" xlink:href="#m6d3ec5e0a3" y="32.407839"/>
     <use style="fill:#e24a33;fill-opacity:0.3;stroke:#e24a33;stroke-opacity:0.3;" x="175.796849" xlink:href="#m6d3ec5e0a3" y="75.639195"/>
     <use style="fill:#e24a33;fill-opacity:0.3;stroke:#e24a33;stroke-opacity:0.3;" x="177.628159" xlink:href="#m6d3ec5e0a3" y="93.652259"/>
     <use style="fill:#e24a33;fill-opacity:0.3;stroke:#e24a33;stroke-opacity:0.3;" x="179.459468" xlink:href="#m6d3ec5e0a3" y="16.687346"/>
     <use style="fill:#e24a33;fill-opacity:0.3;stroke:#e24a33;stroke-opacity:0.3;" x="181.290778" xlink:href="#m6d3ec5e0a3" y="121.958504"/>
     <use style="fill:#e24a33;fill-opacity:0.3;stroke:#e24a33;stroke-opacity:0.3;" x="182.29974" xlink:href="#m6d3ec5e0a3" y="-1"/>
     <use style="fill:#e24a33;fill-opacity:0.3;stroke:#e24a33;stroke-opacity:0.3;" x="184.046791" xlink:href="#m6d3ec5e0a3" y="-1"/>
     <use style="fill:#e24a33;fill-opacity:0.3;stroke:#e24a33;stroke-opacity:0.3;" x="184.953397" xlink:href="#m6d3ec5e0a3" y="97.254872"/>
     <use style="fill:#e24a33;fill-opacity:0.3;stroke:#e24a33;stroke-opacity:0.3;" x="186.784706" xlink:href="#m6d3ec5e0a3" y="15.595645"/>
     <use style="fill:#e24a33;fill-opacity:0.3;stroke:#e24a33;stroke-opacity:0.3;" x="188.616016" xlink:href="#m6d3ec5e0a3" y="85.037315"/>
     <use style="fill:#e24a33;fill-opacity:0.3;stroke:#e24a33;stroke-opacity:0.3;" x="190.447325" xlink:href="#m6d3ec5e0a3" y="6.862038"/>
     <use style="fill:#e24a33;fill-opacity:0.3;stroke:#e24a33;stroke-opacity:0.3;" x="192.278635" xlink:href="#m6d3ec5e0a3" y="83.092877"/>
     <use style="fill:#e24a33;fill-opacity:0.3;stroke:#e24a33;stroke-opacity:0.3;" x="194.109944" xlink:href="#m6d3ec5e0a3" y="37.03977"/>
     <use style="fill:#e24a33;fill-opacity:0.3;stroke:#e24a33;stroke-opacity:0.3;" x="195.941254" xlink:href="#m6d3ec5e0a3" y="128.040838"/>
     <use style="fill:#e24a33;fill-opacity:0.3;stroke:#e24a33;stroke-opacity:0.3;" x="197.772563" xlink:href="#m6d3ec5e0a3" y="66.992923"/>
     <use style="fill:#e24a33;fill-opacity:0.3;stroke:#e24a33;stroke-opacity:0.3;" x="199.603873" xlink:href="#m6d3ec5e0a3" y="83.952917"/>
     <use style="fill:#e24a33;fill-opacity:0.3;stroke:#e24a33;stroke-opacity:0.3;" x="201.435182" xlink:href="#m6d3ec5e0a3" y="23.761568"/>
     <use style="fill:#e24a33;fill-opacity:0.3;stroke:#e24a33;stroke-opacity:0.3;" x="203.266492" xlink:href="#m6d3ec5e0a3" y="124.44879"/>
     <use style="fill:#e24a33;fill-opacity:0.3;stroke:#e24a33;stroke-opacity:0.3;" x="205.097801" xlink:href="#m6d3ec5e0a3" y="39.613065"/>
     <use style="fill:#e24a33;fill-opacity:0.3;stroke:#e24a33;stroke-opacity:0.3;" x="206.929111" xlink:href="#m6d3ec5e0a3" y="98.798849"/>
     <use style="fill:#e24a33;fill-opacity:0.3;stroke:#e24a33;stroke-opacity:0.3;" x="208.76042" xlink:href="#m6d3ec5e0a3" y="101.578008"/>
     <use style="fill:#e24a33;fill-opacity:0.3;stroke:#e24a33;stroke-opacity:0.3;" x="210.59173" xlink:href="#m6d3ec5e0a3" y="26.512654"/>
     <use style="fill:#e24a33;fill-opacity:0.3;stroke:#e24a33;stroke-opacity:0.3;" x="212.423039" xlink:href="#m6d3ec5e0a3" y="99.656614"/>
     <use style="fill:#e24a33;fill-opacity:0.3;stroke:#e24a33;stroke-opacity:0.3;" x="214.254349" xlink:href="#m6d3ec5e0a3" y="66.632662"/>
     <use style="fill:#e24a33;fill-opacity:0.3;stroke:#e24a33;stroke-opacity:0.3;" x="216.085658" xlink:href="#m6d3ec5e0a3" y="49.700381"/>
     <use style="fill:#e24a33;fill-opacity:0.3;stroke:#e24a33;stroke-opacity:0.3;" x="217.916968" xlink:href="#m6d3ec5e0a3" y="60.199425"/>
     <use style="fill:#e24a33;fill-opacity:0.3;stroke:#e24a33;stroke-opacity:0.3;" x="219.748277" xlink:href="#m6d3ec5e0a3" y="32.407839"/>
     <use style="fill:#e24a33;fill-opacity:0.3;stroke:#e24a33;stroke-opacity:0.3;" x="221.579586" xlink:href="#m6d3ec5e0a3" y="75.639195"/>
     <use style="fill:#e24a33;fill-opacity:0.3;stroke:#e24a33;stroke-opacity:0.3;" x="223.410896" xlink:href="#m6d3ec5e0a3" y="57.62613"/>
     <use style="fill:#e24a33;fill-opacity:0.3;stroke:#e24a33;stroke-opacity:0.3;" x="225.242205" xlink:href="#m6d3ec5e0a3" y="59.01175"/>
     <use style="fill:#e24a33;fill-opacity:0.3;stroke:#e24a33;stroke-opacity:0.3;" x="227.073515" xlink:href="#m6d3ec5e0a3" y="85.932375"/>
     <use style="fill:#e24a33;fill-opacity:0.3;stroke:#e24a33;stroke-opacity:0.3;" x="228.904824" xlink:href="#m6d3ec5e0a3" y="48.619597"/>
     <use style="fill:#e24a33;fill-opacity:0.3;stroke:#e24a33;stroke-opacity:0.3;" x="230.736134" xlink:href="#m6d3ec5e0a3" y="90.049647"/>
     <use style="fill:#e24a33;fill-opacity:0.3;stroke:#e24a33;stroke-opacity:0.3;" x="232.567443" xlink:href="#m6d3ec5e0a3" y="80.785785"/>
     <use style="fill:#e24a33;fill-opacity:0.3;stroke:#e24a33;stroke-opacity:0.3;" x="234.398753" xlink:href="#m6d3ec5e0a3" y="44.006495"/>
     <use style="fill:#e24a33;fill-opacity:0.3;stroke:#e24a33;stroke-opacity:0.3;" x="236.230062" xlink:href="#m6d3ec5e0a3" y="98.634597"/>
     <use style="fill:#e24a33;fill-opacity:0.3;stroke:#e24a33;stroke-opacity:0.3;" x="238.061372" xlink:href="#m6d3ec5e0a3" y="91.078964"/>
     <use style="fill:#e24a33;fill-opacity:0.3;stroke:#e24a33;stroke-opacity:0.3;" x="239.892681" xlink:href="#m6d3ec5e0a3" y="81.181676"/>
     <use style="fill:#e24a33;fill-opacity:0.3;stroke:#e24a33;stroke-opacity:0.3;" x="241.723991" xlink:href="#m6d3ec5e0a3" y="92.704203"/>
     <use style="fill:#e24a33;fill-opacity:0.3;stroke:#e24a33;stroke-opacity:0.3;" x="243.5553" xlink:href="#m6d3ec5e0a3" y="87.991011"/>
     <use style="fill:#e24a33;fill-opacity:0.3;stroke:#e24a33;stroke-opacity:0.3;" x="245.38661" xlink:href="#m6d3ec5e0a3" y="88.739605"/>
     <use style="fill:#e24a33;fill-opacity:0.3;stroke:#e24a33;stroke-opacity:0.3;" x="247.217919" xlink:href="#m6d3ec5e0a3" y="96.557593"/>
     <use style="fill:#e24a33;fill-opacity:0.3;stroke:#e24a33;stroke-opacity:0.3;" x="249.049229" xlink:href="#m6d3ec5e0a3" y="60.199425"/>
     <use style="fill:#e24a33;fill-opacity:0.3;stroke:#e24a33;stroke-opacity:0.3;" x="250.880538" xlink:href="#m6d3ec5e0a3" y="39.613065"/>
     <use style="fill:#e24a33;fill-opacity:0.3;stroke:#e24a33;stroke-opacity:0.3;" x="252.711848" xlink:href="#m6d3ec5e0a3" y="75.639195"/>
     <use style="fill:#e24a33;fill-opacity:0.3;stroke:#e24a33;stroke-opacity:0.3;" x="254.543157" xlink:href="#m6d3ec5e0a3" y="81.815103"/>
     <use style="fill:#e24a33;fill-opacity:0.3;stroke:#e24a33;stroke-opacity:0.3;" x="256.374467" xlink:href="#m6d3ec5e0a3" y="75.639195"/>
     <use style="fill:#e24a33;fill-opacity:0.3;stroke:#e24a33;stroke-opacity:0.3;" x="258.205776" xlink:href="#m6d3ec5e0a3" y="94.711852"/>
     <use style="fill:#e24a33;fill-opacity:0.3;stroke:#e24a33;stroke-opacity:0.3;" x="260.037086" xlink:href="#m6d3ec5e0a3" y="75.639195"/>
     <use style="fill:#e24a33;fill-opacity:0.3;stroke:#e24a33;stroke-opacity:0.3;" x="261.868395" xlink:href="#m6d3ec5e0a3" y="82.611994"/>
     <use style="fill:#e24a33;fill-opacity:0.3;stroke:#e24a33;stroke-opacity:0.3;" x="263.699705" xlink:href="#m6d3ec5e0a3" y="111.665324"/>
     <use style="fill:#e24a33;fill-opacity:0.3;stroke:#e24a33;stroke-opacity:0.3;" x="265.531014" xlink:href="#m6d3ec5e0a3" y="75.639195"/>
     <use style="fill:#e24a33;fill-opacity:0.3;stroke:#e24a33;stroke-opacity:0.3;" x="267.362324" xlink:href="#m6d3ec5e0a3" y="101.578008"/>
     <use style="fill:#e24a33;fill-opacity:0.3;stroke:#e24a33;stroke-opacity:0.3;" x="269.193633" xlink:href="#m6d3ec5e0a3" y="85.464503"/>
     <use style="fill:#e24a33;fill-opacity:0.3;stroke:#e24a33;stroke-opacity:0.3;" x="271.024943" xlink:href="#m6d3ec5e0a3" y="85.932375"/>
     <use style="fill:#e24a33;fill-opacity:0.3;stroke:#e24a33;stroke-opacity:0.3;" x="272.856252" xlink:href="#m6d3ec5e0a3" y="86.447034"/>
     <use style="fill:#e24a33;fill-opacity:0.3;stroke:#e24a33;stroke-opacity:0.3;" x="274.687562" xlink:href="#m6d3ec5e0a3" y="121.145885"/>
     <use style="fill:#e24a33;fill-opacity:0.3;stroke:#e24a33;stroke-opacity:0.3;" x="276.518871" xlink:href="#m6d3ec5e0a3" y="104.460098"/>
     <use style="fill:#e24a33;fill-opacity:0.3;stroke:#e24a33;stroke-opacity:0.3;" x="278.350181" xlink:href="#m6d3ec5e0a3" y="108.894084"/>
     <use style="fill:#e24a33;fill-opacity:0.3;stroke:#e24a33;stroke-opacity:0.3;" x="280.18149" xlink:href="#m6d3ec5e0a3" y="95.289811"/>
     <use style="fill:#e24a33;fill-opacity:0.3;stroke:#e24a33;stroke-opacity:0.3;" x="282.012799" xlink:href="#m6d3ec5e0a3" y="75.639195"/>
     <use style="fill:#e24a33;fill-opacity:0.3;stroke:#e24a33;stroke-opacity:0.3;" x="283.844109" xlink:href="#m6d3ec5e0a3" y="97.254872"/>
     <use style="fill:#e24a33;fill-opacity:0.3;stroke:#e24a33;stroke-opacity:0.3;" x="285.675418" xlink:href="#m6d3ec5e0a3" y="99.656614"/>
     <use style="fill:#e24a33;fill-opacity:0.3;stroke:#e24a33;stroke-opacity:0.3;" x="287.506728" xlink:href="#m6d3ec5e0a3" y="48.619597"/>
     <use style="fill:#e24a33;fill-opacity:0.3;stroke:#e24a33;stroke-opacity:0.3;" x="289.338037" xlink:href="#m6d3ec5e0a3" y="75.639195"/>
     <use style="fill:#e24a33;fill-opacity:0.3;stroke:#e24a33;stroke-opacity:0.3;" x="291.169347" xlink:href="#m6d3ec5e0a3" y="99.656614"/>
     <use style="fill:#e24a33;fill-opacity:0.3;stroke:#e24a33;stroke-opacity:0.3;" x="293.000656" xlink:href="#m6d3ec5e0a3" y="21.6"/>
     <use style="fill:#e24a33;fill-opacity:0.3;stroke:#e24a33;stroke-opacity:0.3;" x="294.831966" xlink:href="#m6d3ec5e0a3" y="118.87055"/>
     <use style="fill:#e24a33;fill-opacity:0.3;stroke:#e24a33;stroke-opacity:0.3;" x="296.663275" xlink:href="#m6d3ec5e0a3" y="48.619597"/>
     <use style="fill:#e24a33;fill-opacity:0.3;stroke:#e24a33;stroke-opacity:0.3;" x="298.494585" xlink:href="#m6d3ec5e0a3" y="51.621775"/>
     <use style="fill:#e24a33;fill-opacity:0.3;stroke:#e24a33;stroke-opacity:0.3;" x="300.325894" xlink:href="#m6d3ec5e0a3" y="97.254872"/>
     <use style="fill:#e24a33;fill-opacity:0.3;stroke:#e24a33;stroke-opacity:0.3;" x="302.157204" xlink:href="#m6d3ec5e0a3" y="75.639195"/>
     <use style="fill:#e24a33;fill-opacity:0.3;stroke:#e24a33;stroke-opacity:0.3;" x="303.988513" xlink:href="#m6d3ec5e0a3" y="99.656614"/>
     <use style="fill:#e24a33;fill-opacity:0.3;stroke:#e24a33;stroke-opacity:0.3;" x="305.819823" xlink:href="#m6d3ec5e0a3" y="129.678389"/>
     <use style="fill:#e24a33;fill-opacity:0.3;stroke:#e24a33;stroke-opacity:0.3;" x="307.651132" xlink:href="#m6d3ec5e0a3" y="75.639195"/>
     <use style="fill:#e24a33;fill-opacity:0.3;stroke:#e24a33;stroke-opacity:0.3;" x="309.482442" xlink:href="#m6d3ec5e0a3" y="147.691454"/>
     <use style="fill:#e24a33;fill-opacity:0.3;stroke:#e24a33;stroke-opacity:0.3;" x="311.313751" xlink:href="#m6d3ec5e0a3" y="75.639195"/>
     <use style="fill:#e24a33;fill-opacity:0.3;stroke:#e24a33;stroke-opacity:0.3;" x="313.145061" xlink:href="#m6d3ec5e0a3" y="75.639195"/>
     <use style="fill:#e24a33;fill-opacity:0.3;stroke:#e24a33;stroke-opacity:0.3;" x="314.97637" xlink:href="#m6d3ec5e0a3" y="75.639195"/>
     <use style="fill:#e24a33;fill-opacity:0.3;stroke:#e24a33;stroke-opacity:0.3;" x="316.80768" xlink:href="#m6d3ec5e0a3" y="75.639195"/>
     <use style="fill:#e24a33;fill-opacity:0.3;stroke:#e24a33;stroke-opacity:0.3;" x="318.106275" xlink:href="#m6d3ec5e0a3" y="-1"/>
     <use style="fill:#e24a33;fill-opacity:0.3;stroke:#e24a33;stroke-opacity:0.3;" x="319.171703" xlink:href="#m6d3ec5e0a3" y="-1"/>
     <use style="fill:#e24a33;fill-opacity:0.3;stroke:#e24a33;stroke-opacity:0.3;" x="320.470299" xlink:href="#m6d3ec5e0a3" y="75.639195"/>
     <use style="fill:#e24a33;fill-opacity:0.3;stroke:#e24a33;stroke-opacity:0.3;" x="322.301608" xlink:href="#m6d3ec5e0a3" y="39.613065"/>
     <use style="fill:#e24a33;fill-opacity:0.3;stroke:#e24a33;stroke-opacity:0.3;" x="324.132918" xlink:href="#m6d3ec5e0a3" y="137.398274"/>
     <use style="fill:#e24a33;fill-opacity:0.3;stroke:#e24a33;stroke-opacity:0.3;" x="325.964227" xlink:href="#m6d3ec5e0a3" y="118.87055"/>
     <use style="fill:#e24a33;fill-opacity:0.3;stroke:#e24a33;stroke-opacity:0.3;" x="327.795537" xlink:href="#m6d3ec5e0a3" y="75.639195"/>
     <use style="fill:#e24a33;fill-opacity:0.3;stroke:#e24a33;stroke-opacity:0.3;" x="329.626846" xlink:href="#m6d3ec5e0a3" y="75.639195"/>
     <use style="fill:#e24a33;fill-opacity:0.3;stroke:#e24a33;stroke-opacity:0.3;" x="331.458156" xlink:href="#m6d3ec5e0a3" y="75.639195"/>
     <use style="fill:#e24a33;fill-opacity:0.3;stroke:#e24a33;stroke-opacity:0.3;" x="333.289465" xlink:href="#m6d3ec5e0a3" y="75.639195"/>
     <use style="fill:#e24a33;fill-opacity:0.3;stroke:#e24a33;stroke-opacity:0.3;" x="335.120775" xlink:href="#m6d3ec5e0a3" y="75.639195"/>
     <use style="fill:#e24a33;fill-opacity:0.3;stroke:#e24a33;stroke-opacity:0.3;" x="336.41937" xlink:href="#m6d3ec5e0a3" y="-1"/>
     <use style="fill:#e24a33;fill-opacity:0.3;stroke:#e24a33;stroke-opacity:0.3;" x="337.484798" xlink:href="#m6d3ec5e0a3" y="-1"/>
     <use style="fill:#e24a33;fill-opacity:0.3;stroke:#e24a33;stroke-opacity:0.3;" x="338.783394" xlink:href="#m6d3ec5e0a3" y="75.639195"/>
     <use style="fill:#e24a33;fill-opacity:0.3;stroke:#e24a33;stroke-opacity:0.3;" x="340.614703" xlink:href="#m6d3ec5e0a3" y="111.665324"/>
     <use style="fill:#e24a33;fill-opacity:0.3;stroke:#e24a33;stroke-opacity:0.3;" x="342.446012" xlink:href="#m6d3ec5e0a3" y="75.639195"/>
     <use style="fill:#e24a33;fill-opacity:0.3;stroke:#e24a33;stroke-opacity:0.3;" x="344.277322" xlink:href="#m6d3ec5e0a3" y="162.101906"/>
     <use style="fill:#e24a33;fill-opacity:0.3;stroke:#e24a33;stroke-opacity:0.3;" x="346.108631" xlink:href="#m6d3ec5e0a3" y="3.586935"/>
     <use style="fill:#e24a33;fill-opacity:0.3;stroke:#e24a33;stroke-opacity:0.3;" x="347.939941" xlink:href="#m6d3ec5e0a3" y="75.639195"/>
     <use style="fill:#e24a33;fill-opacity:0.3;stroke:#e24a33;stroke-opacity:0.3;" x="349.77125" xlink:href="#m6d3ec5e0a3" y="129.678389"/>
     <use style="fill:#e24a33;fill-opacity:0.3;stroke:#e24a33;stroke-opacity:0.3;" x="351.60256" xlink:href="#m6d3ec5e0a3" y="3.586935"/>
     <use style="fill:#e24a33;fill-opacity:0.3;stroke:#e24a33;stroke-opacity:0.3;" x="353.433869" xlink:href="#m6d3ec5e0a3" y="75.639195"/>
     <use style="fill:#e24a33;fill-opacity:0.3;stroke:#e24a33;stroke-opacity:0.3;" x="355.265179" xlink:href="#m6d3ec5e0a3" y="75.639195"/>
     <use style="fill:#e24a33;fill-opacity:0.3;stroke:#e24a33;stroke-opacity:0.3;" x="357.096488" xlink:href="#m6d3ec5e0a3" y="75.639195"/>
     <use style="fill:#e24a33;fill-opacity:0.3;stroke:#e24a33;stroke-opacity:0.3;" x="358.927798" xlink:href="#m6d3ec5e0a3" y="129.678389"/>
     <use style="fill:#e24a33;fill-opacity:0.3;stroke:#e24a33;stroke-opacity:0.3;" x="360.759107" xlink:href="#m6d3ec5e0a3" y="147.691454"/>
     <use style="fill:#e24a33;fill-opacity:0.3;stroke:#e24a33;stroke-opacity:0.3;" x="362.590417" xlink:href="#m6d3ec5e0a3" y="75.639195"/>
     <use style="fill:#e24a33;fill-opacity:0.3;stroke:#e24a33;stroke-opacity:0.3;" x="363.889012" xlink:href="#m6d3ec5e0a3" y="-1"/>
     <use style="fill:#e24a33;fill-opacity:0.3;stroke:#e24a33;stroke-opacity:0.3;" x="364.954441" xlink:href="#m6d3ec5e0a3" y="-1"/>
     <use style="fill:#e24a33;fill-opacity:0.3;stroke:#e24a33;stroke-opacity:0.3;" x="366.253036" xlink:href="#m6d3ec5e0a3" y="75.639195"/>
     <use style="fill:#e24a33;fill-opacity:0.3;stroke:#e24a33;stroke-opacity:0.3;" x="368.084345" xlink:href="#m6d3ec5e0a3" y="3.586935"/>
     <use style="fill:#e24a33;fill-opacity:0.3;stroke:#e24a33;stroke-opacity:0.3;" x="369.915655" xlink:href="#m6d3ec5e0a3" y="75.639195"/>
     <use style="fill:#e24a33;fill-opacity:0.3;stroke:#e24a33;stroke-opacity:0.3;" x="371.746964" xlink:href="#m6d3ec5e0a3" y="75.639195"/>
     <use style="fill:#e24a33;fill-opacity:0.3;stroke:#e24a33;stroke-opacity:0.3;" x="373.578274" xlink:href="#m6d3ec5e0a3" y="75.639195"/>
     <use style="fill:#e24a33;fill-opacity:0.3;stroke:#e24a33;stroke-opacity:0.3;" x="375.409583" xlink:href="#m6d3ec5e0a3" y="75.639195"/>
     <use style="fill:#e24a33;fill-opacity:0.3;stroke:#e24a33;stroke-opacity:0.3;" x="377.240893" xlink:href="#m6d3ec5e0a3" y="129.678389"/>
     <use style="fill:#e24a33;fill-opacity:0.3;stroke:#e24a33;stroke-opacity:0.3;" x="379.072202" xlink:href="#m6d3ec5e0a3" y="3.586935"/>
     <use style="fill:#e24a33;fill-opacity:0.3;stroke:#e24a33;stroke-opacity:0.3;" x="380.903512" xlink:href="#m6d3ec5e0a3" y="129.678389"/>
     <use style="fill:#e24a33;fill-opacity:0.3;stroke:#e24a33;stroke-opacity:0.3;" x="382.734821" xlink:href="#m6d3ec5e0a3" y="75.639195"/>
     <use style="fill:#e24a33;fill-opacity:0.3;stroke:#e24a33;stroke-opacity:0.3;" x="384.566131" xlink:href="#m6d3ec5e0a3" y="75.639195"/>
     <use style="fill:#e24a33;fill-opacity:0.3;stroke:#e24a33;stroke-opacity:0.3;" x="386.39744" xlink:href="#m6d3ec5e0a3" y="75.639195"/>
     <use style="fill:#e24a33;fill-opacity:0.3;stroke:#e24a33;stroke-opacity:0.3;" x="388.22875" xlink:href="#m6d3ec5e0a3" y="75.639195"/>
     <use style="fill:#e24a33;fill-opacity:0.3;stroke:#e24a33;stroke-opacity:0.3;" x="390.060059" xlink:href="#m6d3ec5e0a3" y="147.691454"/>
     <use style="fill:#e24a33;fill-opacity:0.3;stroke:#e24a33;stroke-opacity:0.3;" x="391.891369" xlink:href="#m6d3ec5e0a3" y="75.639195"/>
     <use style="fill:#e24a33;fill-opacity:0.3;stroke:#e24a33;stroke-opacity:0.3;" x="393.722678" xlink:href="#m6d3ec5e0a3" y="75.639195"/>
     <use style="fill:#e24a33;fill-opacity:0.3;stroke:#e24a33;stroke-opacity:0.3;" x="395.553988" xlink:href="#m6d3ec5e0a3" y="75.639195"/>
     <use style="fill:#e24a33;fill-opacity:0.3;stroke:#e24a33;stroke-opacity:0.3;" x="397.385297" xlink:href="#m6d3ec5e0a3" y="75.639195"/>
     <use style="fill:#e24a33;fill-opacity:0.3;stroke:#e24a33;stroke-opacity:0.3;" x="399.216606" xlink:href="#m6d3ec5e0a3" y="75.639195"/>
     <use style="fill:#e24a33;fill-opacity:0.3;stroke:#e24a33;stroke-opacity:0.3;" x="401.047916" xlink:href="#m6d3ec5e0a3" y="183.717584"/>
     <use style="fill:#e24a33;fill-opacity:0.3;stroke:#e24a33;stroke-opacity:0.3;" x="402.879225" xlink:href="#m6d3ec5e0a3" y="75.639195"/>
     <use style="fill:#e24a33;fill-opacity:0.3;stroke:#e24a33;stroke-opacity:0.3;" x="404.710535" xlink:href="#m6d3ec5e0a3" y="291.795973"/>
     <use style="fill:#e24a33;fill-opacity:0.3;stroke:#e24a33;stroke-opacity:0.3;" x="410.204463" xlink:href="#m6d3ec5e0a3" y="75.639195"/>
     <use style="fill:#e24a33;fill-opacity:0.3;stroke:#e24a33;stroke-opacity:0.3;" x="410.853761" xlink:href="#m6d3ec5e0a3" y="-1"/>
     <use style="fill:#e24a33;fill-opacity:0.3;stroke:#e24a33;stroke-opacity:0.3;" x="414.399797" xlink:href="#m6d3ec5e0a3" y="-1"/>
     <use style="fill:#e24a33;fill-opacity:0.3;stroke:#e24a33;stroke-opacity:0.3;" x="415.698392" xlink:href="#m6d3ec5e0a3" y="75.639195"/>
     <use style="fill:#e24a33;fill-opacity:0.3;stroke:#e24a33;stroke-opacity:0.3;" x="416.672338" xlink:href="#m6d3ec5e0a3" y="-1"/>
     <use style="fill:#e24a33;fill-opacity:0.3;stroke:#e24a33;stroke-opacity:0.3;" x="418.754506" xlink:href="#m6d3ec5e0a3" y="-1"/>
     <use style="fill:#e24a33;fill-opacity:0.3;stroke:#e24a33;stroke-opacity:0.3;" x="419.361011" xlink:href="#m6d3ec5e0a3" y="32.407839"/>
     <use style="fill:#e24a33;fill-opacity:0.3;stroke:#e24a33;stroke-opacity:0.3;" x="421.19232" xlink:href="#m6d3ec5e0a3" y="111.665324"/>
     <use style="fill:#e24a33;fill-opacity:0.3;stroke:#e24a33;stroke-opacity:0.3;" x="423.02363" xlink:href="#m6d3ec5e0a3" y="32.407839"/>
     <use style="fill:#e24a33;fill-opacity:0.3;stroke:#e24a33;stroke-opacity:0.3;" x="424.854939" xlink:href="#m6d3ec5e0a3" y="111.665324"/>
     <use style="fill:#e24a33;fill-opacity:0.3;stroke:#e24a33;stroke-opacity:0.3;" x="426.686249" xlink:href="#m6d3ec5e0a3" y="118.87055"/>
     <use style="fill:#e24a33;fill-opacity:0.3;stroke:#e24a33;stroke-opacity:0.3;" x="428.517558" xlink:href="#m6d3ec5e0a3" y="75.639195"/>
     <use style="fill:#e24a33;fill-opacity:0.3;stroke:#e24a33;stroke-opacity:0.3;" x="430.348868" xlink:href="#m6d3ec5e0a3" y="75.639195"/>
     <use style="fill:#e24a33;fill-opacity:0.3;stroke:#e24a33;stroke-opacity:0.3;" x="432.180177" xlink:href="#m6d3ec5e0a3" y="21.6"/>
     <use style="fill:#e24a33;fill-opacity:0.3;stroke:#e24a33;stroke-opacity:0.3;" x="434.011487" xlink:href="#m6d3ec5e0a3" y="32.407839"/>
     <use style="fill:#e24a33;fill-opacity:0.3;stroke:#e24a33;stroke-opacity:0.3;" x="435.842796" xlink:href="#m6d3ec5e0a3" y="75.639195"/>
     <use style="fill:#e24a33;fill-opacity:0.3;stroke:#e24a33;stroke-opacity:0.3;" x="437.674106" xlink:href="#m6d3ec5e0a3" y="39.613065"/>
     <use style="fill:#e24a33;fill-opacity:0.3;stroke:#e24a33;stroke-opacity:0.3;" x="439.505415" xlink:href="#m6d3ec5e0a3" y="75.639195"/>
     <use style="fill:#e24a33;fill-opacity:0.3;stroke:#e24a33;stroke-opacity:0.3;" x="441.336725" xlink:href="#m6d3ec5e0a3" y="44.759655"/>
     <use style="fill:#e24a33;fill-opacity:0.3;stroke:#e24a33;stroke-opacity:0.3;" x="443.168034" xlink:href="#m6d3ec5e0a3" y="129.678389"/>
     <use style="fill:#e24a33;fill-opacity:0.3;stroke:#e24a33;stroke-opacity:0.3;" x="444.999344" xlink:href="#m6d3ec5e0a3" y="111.665324"/>
     <use style="fill:#e24a33;fill-opacity:0.3;stroke:#e24a33;stroke-opacity:0.3;" x="446.830653" xlink:href="#m6d3ec5e0a3" y="118.87055"/>
     <use style="fill:#e24a33;fill-opacity:0.3;stroke:#e24a33;stroke-opacity:0.3;" x="448.661963" xlink:href="#m6d3ec5e0a3" y="129.678389"/>
     <use style="fill:#e24a33;fill-opacity:0.3;stroke:#e24a33;stroke-opacity:0.3;" x="450.493272" xlink:href="#m6d3ec5e0a3" y="75.639195"/>
     <use style="fill:#e24a33;fill-opacity:0.3;stroke:#e24a33;stroke-opacity:0.3;" x="452.324582" xlink:href="#m6d3ec5e0a3" y="3.586935"/>
     <use style="fill:#e24a33;fill-opacity:0.3;stroke:#e24a33;stroke-opacity:0.3;" x="454.155891" xlink:href="#m6d3ec5e0a3" y="129.678389"/>
     <use style="fill:#e24a33;fill-opacity:0.3;stroke:#e24a33;stroke-opacity:0.3;" x="455.987201" xlink:href="#m6d3ec5e0a3" y="75.639195"/>
     <use style="fill:#e24a33;fill-opacity:0.3;stroke:#e24a33;stroke-opacity:0.3;" x="457.81851" xlink:href="#m6d3ec5e0a3" y="75.639195"/>
     <use style="fill:#e24a33;fill-opacity:0.3;stroke:#e24a33;stroke-opacity:0.3;" x="459.649819" xlink:href="#m6d3ec5e0a3" y="75.639195"/>
     <use style="fill:#e24a33;fill-opacity:0.3;stroke:#e24a33;stroke-opacity:0.3;" x="461.481129" xlink:href="#m6d3ec5e0a3" y="75.639195"/>
     <use style="fill:#e24a33;fill-opacity:0.3;stroke:#e24a33;stroke-opacity:0.3;" x="463.312438" xlink:href="#m6d3ec5e0a3" y="147.691454"/>
     <use style="fill:#e24a33;fill-opacity:0.3;stroke:#e24a33;stroke-opacity:0.3;" x="465.143748" xlink:href="#m6d3ec5e0a3" y="183.717584"/>
     <use style="fill:#e24a33;fill-opacity:0.3;stroke:#e24a33;stroke-opacity:0.3;" x="466.18705" xlink:href="#m6d3ec5e0a3" y="-1"/>
     <use style="fill:#e24a33;fill-opacity:0.3;stroke:#e24a33;stroke-opacity:0.3;" x="468.157069" xlink:href="#m6d3ec5e0a3" y="-1"/>
     <use style="fill:#e24a33;fill-opacity:0.3;stroke:#e24a33;stroke-opacity:0.3;" x="468.806367" xlink:href="#m6d3ec5e0a3" y="75.639195"/>
     <use style="fill:#e24a33;fill-opacity:0.3;stroke:#e24a33;stroke-opacity:0.3;" x="470.637676" xlink:href="#m6d3ec5e0a3" y="75.639195"/>
     <use style="fill:#e24a33;fill-opacity:0.3;stroke:#e24a33;stroke-opacity:0.3;" x="471.936272" xlink:href="#m6d3ec5e0a3" y="-1"/>
     <use style="fill:#e24a33;fill-opacity:0.3;stroke:#e24a33;stroke-opacity:0.3;" x="474.067129" xlink:href="#m6d3ec5e0a3" y="-1"/>
     <use style="fill:#e24a33;fill-opacity:0.3;stroke:#e24a33;stroke-opacity:0.3;" x="474.300295" xlink:href="#m6d3ec5e0a3" y="3.586935"/>
     <use style="fill:#e24a33;fill-opacity:0.3;stroke:#e24a33;stroke-opacity:0.3;" x="476.131605" xlink:href="#m6d3ec5e0a3" y="75.639195"/>
     <use style="fill:#e24a33;fill-opacity:0.3;stroke:#e24a33;stroke-opacity:0.3;" x="477.962914" xlink:href="#m6d3ec5e0a3" y="75.639195"/>
     <use style="fill:#e24a33;fill-opacity:0.3;stroke:#e24a33;stroke-opacity:0.3;" x="479.794224" xlink:href="#m6d3ec5e0a3" y="129.678389"/>
     <use style="fill:#e24a33;fill-opacity:0.3;stroke:#e24a33;stroke-opacity:0.3;" x="481.625533" xlink:href="#m6d3ec5e0a3" y="75.639195"/>
     <use style="fill:#e24a33;fill-opacity:0.3;stroke:#e24a33;stroke-opacity:0.3;" x="483.456843" xlink:href="#m6d3ec5e0a3" y="147.691454"/>
     <use style="fill:#e24a33;fill-opacity:0.3;stroke:#e24a33;stroke-opacity:0.3;" x="485.288152" xlink:href="#m6d3ec5e0a3" y="183.717584"/>
     <use style="fill:#e24a33;fill-opacity:0.3;stroke:#e24a33;stroke-opacity:0.3;" x="487.119462" xlink:href="#m6d3ec5e0a3" y="291.795973"/>
     <use style="fill:#e24a33;fill-opacity:0.3;stroke:#e24a33;stroke-opacity:0.3;" x="492.61339" xlink:href="#m6d3ec5e0a3" y="75.639195"/>
     <use style="fill:#e24a33;fill-opacity:0.3;stroke:#e24a33;stroke-opacity:0.3;" x="493.262688" xlink:href="#m6d3ec5e0a3" y="-1"/>
     <use style="fill:#e24a33;fill-opacity:0.3;stroke:#e24a33;stroke-opacity:0.3;" x="497.458021" xlink:href="#m6d3ec5e0a3" y="-1"/>
     <use style="fill:#e24a33;fill-opacity:0.3;stroke:#e24a33;stroke-opacity:0.3;" x="498.107319" xlink:href="#m6d3ec5e0a3" y="75.639195"/>
     <use style="fill:#e24a33;fill-opacity:0.3;stroke:#e24a33;stroke-opacity:0.3;" x="499.938628" xlink:href="#m6d3ec5e0a3" y="75.639195"/>
     <use style="fill:#e24a33;fill-opacity:0.3;stroke:#e24a33;stroke-opacity:0.3;" x="501.769938" xlink:href="#m6d3ec5e0a3" y="75.639195"/>
     <use style="fill:#e24a33;fill-opacity:0.3;stroke:#e24a33;stroke-opacity:0.3;" x="503.601247" xlink:href="#m6d3ec5e0a3" y="75.639195"/>
     <use style="fill:#e24a33;fill-opacity:0.3;stroke:#e24a33;stroke-opacity:0.3;" x="504.899842" xlink:href="#m6d3ec5e0a3" y="-1"/>
     <use style="fill:#e24a33;fill-opacity:0.3;stroke:#e24a33;stroke-opacity:0.3;" x="505.965271" xlink:href="#m6d3ec5e0a3" y="-1"/>
     <use style="fill:#e24a33;fill-opacity:0.3;stroke:#e24a33;stroke-opacity:0.3;" x="507.263866" xlink:href="#m6d3ec5e0a3" y="75.639195"/>
     <use style="fill:#e24a33;fill-opacity:0.3;stroke:#e24a33;stroke-opacity:0.3;" x="509.095176" xlink:href="#m6d3ec5e0a3" y="39.613065"/>
     <use style="fill:#e24a33;fill-opacity:0.3;stroke:#e24a33;stroke-opacity:0.3;" x="509.723494" xlink:href="#m6d3ec5e0a3" y="-1"/>
     <use style="fill:#e24a33;fill-opacity:0.3;stroke:#e24a33;stroke-opacity:0.3;" x="512.129476" xlink:href="#m6d3ec5e0a3" y="-1"/>
     <use style="fill:#e24a33;fill-opacity:0.3;stroke:#e24a33;stroke-opacity:0.3;" x="512.757795" xlink:href="#m6d3ec5e0a3" y="39.613065"/>
     <use style="fill:#e24a33;fill-opacity:0.3;stroke:#e24a33;stroke-opacity:0.3;" x="514.589104" xlink:href="#m6d3ec5e0a3" y="60.199425"/>
     <use style="fill:#e24a33;fill-opacity:0.3;stroke:#e24a33;stroke-opacity:0.3;" x="516.420414" xlink:href="#m6d3ec5e0a3" y="90.049647"/>
     <use style="fill:#e24a33;fill-opacity:0.3;stroke:#e24a33;stroke-opacity:0.3;" x="518.251723" xlink:href="#m6d3ec5e0a3" y="75.639195"/>
     <use style="fill:#e24a33;fill-opacity:0.3;stroke:#e24a33;stroke-opacity:0.3;" x="520.083032" xlink:href="#m6d3ec5e0a3" y="44.759655"/>
     <use style="fill:#e24a33;fill-opacity:0.3;stroke:#e24a33;stroke-opacity:0.3;" x="521.914342" xlink:href="#m6d3ec5e0a3" y="89.148993"/>
     <use style="fill:#e24a33;fill-opacity:0.3;stroke:#e24a33;stroke-opacity:0.3;" x="523.745651" xlink:href="#m6d3ec5e0a3" y="118.87055"/>
     <use style="fill:#e24a33;fill-opacity:0.3;stroke:#e24a33;stroke-opacity:0.3;" x="525.576961" xlink:href="#m6d3ec5e0a3" y="93.652259"/>
     <use style="fill:#e24a33;fill-opacity:0.3;stroke:#e24a33;stroke-opacity:0.3;" x="527.40827" xlink:href="#m6d3ec5e0a3" y="55.988578"/>
     <use style="fill:#e24a33;fill-opacity:0.3;stroke:#e24a33;stroke-opacity:0.3;" x="528.8904" xlink:href="#m6d3ec5e0a3" y="-1"/>
     <use style="fill:#e24a33;fill-opacity:0.3;stroke:#e24a33;stroke-opacity:0.3;" x="529.557451" xlink:href="#m6d3ec5e0a3" y="-1"/>
     <use style="fill:#e24a33;fill-opacity:0.3;stroke:#e24a33;stroke-opacity:0.3;" x="531.070889" xlink:href="#m6d3ec5e0a3" y="62.92409"/>
     <use style="fill:#e24a33;fill-opacity:0.3;stroke:#e24a33;stroke-opacity:0.3;" x="532.902199" xlink:href="#m6d3ec5e0a3" y="87.647905"/>
     <use style="fill:#e24a33;fill-opacity:0.3;stroke:#e24a33;stroke-opacity:0.3;" x="534.733508" xlink:href="#m6d3ec5e0a3" y="50.208985"/>
     <use style="fill:#e24a33;fill-opacity:0.3;stroke:#e24a33;stroke-opacity:0.3;" x="536.564818" xlink:href="#m6d3ec5e0a3" y="41.509177"/>
     <use style="fill:#e24a33;fill-opacity:0.3;stroke:#e24a33;stroke-opacity:0.3;" x="538.396127" xlink:href="#m6d3ec5e0a3" y="55.988578"/>
     <use style="fill:#e24a33;fill-opacity:0.3;stroke:#e24a33;stroke-opacity:0.3;" x="540.227437" xlink:href="#m6d3ec5e0a3" y="48.619597"/>
     <use style="fill:#e24a33;fill-opacity:0.3;stroke:#e24a33;stroke-opacity:0.3;" x="542.058746" xlink:href="#m6d3ec5e0a3" y="83.645001"/>
     <use style="fill:#e24a33;fill-opacity:0.3;stroke:#e24a33;stroke-opacity:0.3;" x="543.890056" xlink:href="#m6d3ec5e0a3" y="100.580361"/>
     <use style="fill:#e24a33;fill-opacity:0.3;stroke:#e24a33;stroke-opacity:0.3;" x="545.721365" xlink:href="#m6d3ec5e0a3" y="47.444832"/>
     <use style="fill:#e24a33;fill-opacity:0.3;stroke:#e24a33;stroke-opacity:0.3;" x="547.552675" xlink:href="#m6d3ec5e0a3" y="67.325472"/>
     <use style="fill:#e24a33;fill-opacity:0.3;stroke:#e24a33;stroke-opacity:0.3;" x="549.383984" xlink:href="#m6d3ec5e0a3" y="107.662421"/>
     <use style="fill:#e24a33;fill-opacity:0.3;stroke:#e24a33;stroke-opacity:0.3;" x="551.215294" xlink:href="#m6d3ec5e0a3" y="56.842953"/>
     <use style="fill:#e24a33;fill-opacity:0.3;stroke:#e24a33;stroke-opacity:0.3;" x="553.046603" xlink:href="#m6d3ec5e0a3" y="101.578008"/>
     <use style="fill:#e24a33;fill-opacity:0.3;stroke:#e24a33;stroke-opacity:0.3;" x="554.877913" xlink:href="#m6d3ec5e0a3" y="85.464503"/>
     <use style="fill:#e24a33;fill-opacity:0.3;stroke:#e24a33;stroke-opacity:0.3;" x="556.709222" xlink:href="#m6d3ec5e0a3" y="75.639195"/>
     <use style="fill:#e24a33;fill-opacity:0.3;stroke:#e24a33;stroke-opacity:0.3;" x="558.540532" xlink:href="#m6d3ec5e0a3" y="75.639195"/>
     <use style="fill:#e24a33;fill-opacity:0.3;stroke:#e24a33;stroke-opacity:0.3;" x="560.371841" xlink:href="#m6d3ec5e0a3" y="106.518734"/>
     <use style="fill:#e24a33;fill-opacity:0.3;stroke:#e24a33;stroke-opacity:0.3;" x="562.203151" xlink:href="#m6d3ec5e0a3" y="39.613065"/>
     <use style="fill:#e24a33;fill-opacity:0.3;stroke:#e24a33;stroke-opacity:0.3;" x="564.03446" xlink:href="#m6d3ec5e0a3" y="106.518734"/>
     <use style="fill:#e24a33;fill-opacity:0.3;stroke:#e24a33;stroke-opacity:0.3;" x="565.86577" xlink:href="#m6d3ec5e0a3" y="39.613065"/>
     <use style="fill:#e24a33;fill-opacity:0.3;stroke:#e24a33;stroke-opacity:0.3;" x="567.697079" xlink:href="#m6d3ec5e0a3" y="96.225554"/>
     <use style="fill:#e24a33;fill-opacity:0.3;stroke:#e24a33;stroke-opacity:0.3;" x="569.528389" xlink:href="#m6d3ec5e0a3" y="7.379159"/>
     <use style="fill:#e24a33;fill-opacity:0.3;stroke:#e24a33;stroke-opacity:0.3;" x="571.359698" xlink:href="#m6d3ec5e0a3" y="101.578008"/>
     <use style="fill:#e24a33;fill-opacity:0.3;stroke:#e24a33;stroke-opacity:0.3;" x="573.191008" xlink:href="#m6d3ec5e0a3" y="85.464503"/>
     <use style="fill:#e24a33;fill-opacity:0.3;stroke:#e24a33;stroke-opacity:0.3;" x="575.022317" xlink:href="#m6d3ec5e0a3" y="75.639195"/>
     <use style="fill:#e24a33;fill-opacity:0.3;stroke:#e24a33;stroke-opacity:0.3;" x="576.853627" xlink:href="#m6d3ec5e0a3" y="85.932375"/>
     <use style="fill:#e24a33;fill-opacity:0.3;stroke:#e24a33;stroke-opacity:0.3;" x="578.684936" xlink:href="#m6d3ec5e0a3" y="118.87055"/>
     <use style="fill:#e24a33;fill-opacity:0.3;stroke:#e24a33;stroke-opacity:0.3;" x="580.516245" xlink:href="#m6d3ec5e0a3" y="89.148993"/>
     <use style="fill:#e24a33;fill-opacity:0.3;stroke:#e24a33;stroke-opacity:0.3;" x="582.347555" xlink:href="#m6d3ec5e0a3" y="118.87055"/>
     <use style="fill:#e24a33;fill-opacity:0.3;stroke:#e24a33;stroke-opacity:0.3;" x="584.178864" xlink:href="#m6d3ec5e0a3" y="75.639195"/>
     <use style="fill:#e24a33;fill-opacity:0.3;stroke:#e24a33;stroke-opacity:0.3;" x="586.010174" xlink:href="#m6d3ec5e0a3" y="75.639195"/>
     <use style="fill:#e24a33;fill-opacity:0.3;stroke:#e24a33;stroke-opacity:0.3;" x="587.841483" xlink:href="#m6d3ec5e0a3" y="111.665324"/>
     <use style="fill:#e24a33;fill-opacity:0.3;stroke:#e24a33;stroke-opacity:0.3;" x="589.672793" xlink:href="#m6d3ec5e0a3" y="54.023517"/>
     <use style="fill:#e24a33;fill-opacity:0.3;stroke:#e24a33;stroke-opacity:0.3;" x="591.504102" xlink:href="#m6d3ec5e0a3" y="75.639195"/>
     <use style="fill:#e24a33;fill-opacity:0.3;stroke:#e24a33;stroke-opacity:0.3;" x="593.335412" xlink:href="#m6d3ec5e0a3" y="55.988578"/>
     <use style="fill:#e24a33;fill-opacity:0.3;stroke:#e24a33;stroke-opacity:0.3;" x="595.166721" xlink:href="#m6d3ec5e0a3" y="57.62613"/>
     <use style="fill:#e24a33;fill-opacity:0.3;stroke:#e24a33;stroke-opacity:0.3;" x="596.998031" xlink:href="#m6d3ec5e0a3" y="92.266639"/>
     <use style="fill:#e24a33;fill-opacity:0.3;stroke:#e24a33;stroke-opacity:0.3;" x="598.82934" xlink:href="#m6d3ec5e0a3" y="57.62613"/>
     <use style="fill:#e24a33;fill-opacity:0.3;stroke:#e24a33;stroke-opacity:0.3;" x="600.66065" xlink:href="#m6d3ec5e0a3" y="75.639195"/>
     <use style="fill:#e24a33;fill-opacity:0.3;stroke:#e24a33;stroke-opacity:0.3;" x="602.491959" xlink:href="#m6d3ec5e0a3" y="92.266639"/>
     <use style="fill:#e24a33;fill-opacity:0.3;stroke:#e24a33;stroke-opacity:0.3;" x="604.323269" xlink:href="#m6d3ec5e0a3" y="93.652259"/>
     <use style="fill:#e24a33;fill-opacity:0.3;stroke:#e24a33;stroke-opacity:0.3;" x="606.154578" xlink:href="#m6d3ec5e0a3" y="36.337962"/>
     <use style="fill:#e24a33;fill-opacity:0.3;stroke:#e24a33;stroke-opacity:0.3;" x="607.985888" xlink:href="#m6d3ec5e0a3" y="92.266639"/>
     <use style="fill:#e24a33;fill-opacity:0.3;stroke:#e24a33;stroke-opacity:0.3;" x="609.817197" xlink:href="#m6d3ec5e0a3" y="39.613065"/>
     <use style="fill:#e24a33;fill-opacity:0.3;stroke:#e24a33;stroke-opacity:0.3;" x="611.648507" xlink:href="#m6d3ec5e0a3" y="75.639195"/>
     <use style="fill:#e24a33;fill-opacity:0.3;stroke:#e24a33;stroke-opacity:0.3;" x="613.479816" xlink:href="#m6d3ec5e0a3" y="75.639195"/>
     <use style="fill:#e24a33;fill-opacity:0.3;stroke:#e24a33;stroke-opacity:0.3;" x="615.311126" xlink:href="#m6d3ec5e0a3" y="91.078964"/>
     <use style="fill:#e24a33;fill-opacity:0.3;stroke:#e24a33;stroke-opacity:0.3;" x="617.142435" xlink:href="#m6d3ec5e0a3" y="75.639195"/>
     <use style="fill:#e24a33;fill-opacity:0.3;stroke:#e24a33;stroke-opacity:0.3;" x="618.973745" xlink:href="#m6d3ec5e0a3" y="97.809121"/>
     <use style="fill:#e24a33;fill-opacity:0.3;stroke:#e24a33;stroke-opacity:0.3;" x="620.805054" xlink:href="#m6d3ec5e0a3" y="110.224279"/>
     <use style="fill:#e24a33;fill-opacity:0.3;stroke:#e24a33;stroke-opacity:0.3;" x="622.636364" xlink:href="#m6d3ec5e0a3" y="137.398274"/>
    </g>
   </g>
   <g id="line2d_31">
    <path clip-path="url(#p23f1d6ad22)" d="M 172.950855 -1 
L 173.96554 14.440643 
L 175.796849 54.214049 
L 177.628159 52.494385 
L 179.459468 50.470498 
L 181.290778 41.659296 
L 183.122087 36.701577 
L 184.953397 33.47255 
L 186.784706 40.154556 
L 188.616016 41.796511 
L 190.447325 56.253287 
L 192.278635 60.053054 
L 194.109944 69.807192 
L 195.941254 71.554793 
L 197.772563 77.438008 
L 199.603873 73.923728 
L 201.435182 74.768181 
L 203.266492 74.761467 
L 205.097801 75.315866 
L 206.929111 76.724156 
L 208.76042 77.511024 
L 210.59173 72.057652 
L 212.423039 70.284401 
L 214.254349 63.650141 
L 216.085658 59.40629 
L 217.916968 58.351662 
L 219.748277 55.79263 
L 221.579586 58.658205 
L 223.410896 61.279109 
L 225.242205 65.009978 
L 227.073515 69.428431 
L 228.904824 69.523433 
L 232.567443 74.744835 
L 234.398753 76.576013 
L 236.230062 81.129804 
L 239.892681 86.368955 
L 241.723991 89.56158 
L 243.5553 87.529784 
L 245.38661 82.889643 
L 249.049229 72.438358 
L 250.880538 69.379671 
L 252.711848 70.728354 
L 254.543157 73.668427 
L 256.374467 78.416058 
L 258.205776 84.011943 
L 260.037086 85.761815 
L 261.868395 88.336499 
L 263.699705 90.181846 
L 265.531014 90.380676 
L 267.362324 90.437314 
L 271.024943 93.185384 
L 272.856252 97.835121 
L 274.687562 100.807239 
L 276.518871 101.602907 
L 278.350181 100.30951 
L 280.18149 97.716677 
L 282.012799 91.142545 
L 283.844109 86.258153 
L 285.675418 82.862625 
L 287.506728 76.570528 
L 289.338037 75.681165 
L 291.169347 72.437858 
L 293.000656 69.663894 
L 294.831966 71.039338 
L 296.663275 70.899581 
L 298.494585 72.978528 
L 300.325894 82.160967 
L 302.157204 86.381435 
L 303.988513 97.338833 
L 305.819823 102.858598 
L 307.651132 102.834532 
L 309.482442 99.978343 
L 311.313751 93.171838 
L 313.145061 77.500729 
L 314.97637 66.527971 
L 316.80768 52.499691 
L 318.638989 51.893667 
L 320.470299 59.284762 
L 324.132918 82.777121 
L 325.964227 92.037875 
L 327.795537 89.451463 
L 329.626846 85.638715 
L 331.458156 71.08957 
L 333.289465 61.472833 
L 335.120775 57.554829 
L 336.952084 57.004933 
L 338.783394 67.96407 
L 340.614703 75.536245 
L 342.446012 81.972439 
L 344.277322 89.096484 
L 346.108631 81.113433 
L 347.939941 74.09272 
L 349.77125 70.19802 
L 351.60256 65.319103 
L 353.433869 72.772439 
L 355.265179 82.124626 
L 357.096488 90.334265 
L 358.927798 93.475968 
L 360.759107 87.349722 
L 362.590417 70.796593 
L 364.421726 56.074166 
L 366.253036 46.341108 
L 368.084345 45.901911 
L 369.915655 54.315198 
L 371.746964 69.986307 
L 373.578274 72.612099 
L 375.409583 80.292274 
L 377.240893 80.659277 
L 380.903512 80.659277 
L 382.734821 80.292274 
L 384.566131 82.722376 
L 386.39744 88.874789 
L 388.22875 89.380484 
L 390.060059 91.210116 
L 391.891369 89.380484 
L 393.722678 85.083436 
L 395.553988 88.27704 
L 397.385297 89.805556 
L 399.216606 111.416543 
L 401.047916 131.228402 
L 402.879225 153.053381 
L 404.710535 165.403308 
L 406.541844 132.352321 
L 408.373154 62.856074 
L 410.204463 16.329127 
L 411.047734 -1 
M 416.125953 -1 
L 417.529701 8.60984 
L 419.361011 34.963024 
L 421.19232 55.801828 
L 423.02363 69.927656 
L 424.854939 85.113693 
L 426.686249 84.922063 
L 428.517558 75.456743 
L 430.348868 67.860796 
L 432.180177 56.221743 
L 434.011487 51.268554 
L 435.842796 51.274107 
L 437.674106 58.139657 
L 439.505415 69.457093 
L 443.168034 95.229236 
L 444.999344 105.011046 
L 446.830653 102.019915 
L 448.661963 98.422746 
L 450.493272 87.481167 
L 452.324582 80.490504 
L 454.155891 77.367449 
L 455.987201 76.500921 
L 457.81851 82.722376 
L 459.649819 96.457496 
L 461.481129 88.381432 
L 463.312438 83.489327 
L 465.143748 71.512997 
L 466.975057 51.3999 
L 468.806367 34.415325 
L 470.637676 24.833002 
L 472.468986 23.376109 
L 474.300295 43.247692 
L 476.131605 54.814724 
L 477.962914 73.973352 
L 479.794224 99.289196 
L 481.625533 129.018228 
L 483.456843 152.640301 
L 485.288152 178.438908 
L 485.739416 181 
M 487.508602 181 
L 488.950771 151.973294 
L 490.782081 62.856074 
L 492.51672 -1 
M 497.588815 -1 
L 498.107319 6.082601 
L 499.938628 24.55835 
L 501.769938 46.307419 
L 503.601247 52.499691 
L 505.432557 36.728253 
L 507.263866 25.391386 
L 509.095176 18.436387 
L 510.926485 19.936199 
L 512.757795 32.630278 
L 514.589104 43.248465 
L 516.420414 57.154564 
L 518.251723 72.750871 
L 520.083032 79.278368 
L 521.914342 82.907806 
L 523.745651 78.051405 
L 527.40827 63.441565 
L 529.23958 55.187002 
L 531.070889 50.965269 
L 532.902199 51.92331 
L 534.733508 53.467826 
L 536.564818 57.368052 
L 540.227437 62.612593 
L 542.058746 67.723815 
L 543.890056 73.415656 
L 545.721365 74.749685 
L 547.552675 77.75974 
L 549.383984 79.532933 
L 551.215294 80.851353 
L 553.046603 83.14801 
L 554.877913 84.658867 
L 556.709222 81.114165 
L 558.540532 82.080387 
L 560.371841 77.651102 
L 562.203151 76.354187 
L 564.03446 70.527965 
L 565.86577 67.985982 
L 567.697079 65.808547 
L 571.359698 70.993423 
L 573.191008 79.588776 
L 575.022317 84.70128 
L 576.853627 94.019965 
L 578.684936 95.877162 
L 580.516245 96.397467 
L 582.347555 96.474516 
L 584.178864 91.893426 
L 587.841483 80.956677 
L 589.672793 73.999076 
L 593.335412 68.56721 
L 595.166721 67.292305 
L 598.82934 74.621022 
L 600.66065 75.894307 
L 602.491959 77.488483 
L 604.323269 73.59583 
L 606.154578 71.209674 
L 607.985888 68.394221 
L 609.817197 68.220425 
L 611.648507 70.214408 
L 613.479816 76.583634 
L 615.311126 81.780638 
L 617.142435 91.678057 
L 618.973745 98.767567 
L 620.805054 106.391167 
L 622.636364 113.215269 
L 622.636364 113.215269 
" style="fill:none;stroke:#e24a33;stroke-linecap:square;stroke-opacity:0.7;stroke-width:3;"/>
   </g>
   <g id="line2d_32">
    <path clip-path="url(#p23f1d6ad22)" d="M 130.014112 75.639195 
L 153.821136 75.639195 
L 153.83355 -1 
M 187.297429 -1 
L 190.447325 33.140254 
L 192.278635 49.440803 
L 194.109944 63.431088 
L 195.941254 73.746076 
L 197.772563 81.118727 
L 199.603873 85.673087 
L 201.435182 86.458314 
L 203.266492 85.168227 
L 205.097801 80.725991 
L 206.929111 73.508705 
L 208.76042 63.440984 
L 212.423039 36.168186 
L 214.254349 23.852415 
L 216.085658 15.916327 
L 217.916968 15.330754 
L 219.748277 18.059441 
L 221.579586 25.787364 
L 225.242205 45.618013 
L 227.073515 56.801772 
L 230.736134 77.155037 
L 232.567443 86.920136 
L 234.398753 95.318538 
L 236.230062 102.552372 
L 238.061372 106.918876 
L 239.892681 107.798332 
L 241.723991 105.085656 
L 243.5553 98.79559 
L 247.217919 83.656321 
L 249.049229 78.878714 
L 250.880538 78.194107 
L 252.711848 82.016317 
L 254.543157 89.475636 
L 258.205776 108.122262 
L 260.037086 116.001225 
L 261.868395 122.326139 
L 263.699705 127.67747 
L 269.193633 141.770539 
L 271.024943 145.830783 
L 272.856252 149.254629 
L 274.687562 151.022423 
L 276.518871 150.532748 
L 278.350181 146.466419 
L 280.18149 138.562934 
L 282.012799 127.133977 
L 285.675418 100.080182 
L 287.506728 88.208612 
L 289.338037 79.845052 
L 291.169347 76.307557 
L 293.000656 76.943492 
L 294.831966 83.701686 
L 296.663275 94.272155 
L 298.494585 106.96401 
L 300.325894 121.329185 
L 302.157204 133.410483 
L 303.988513 142.489201 
L 305.819823 146.21064 
L 307.651132 140.998907 
L 309.482442 127.543749 
L 311.313751 106.580035 
L 313.145061 82.874953 
L 314.97637 66.427243 
L 316.80768 60.736449 
L 318.638989 66.307944 
L 320.470299 79.157574 
L 322.301608 91.114543 
L 324.132918 99.35217 
L 325.964227 100.679131 
L 327.795537 92.732292 
L 331.458156 68.843124 
L 333.289465 62.076588 
L 335.120775 66.210028 
L 336.952084 75.316544 
L 338.783394 87.952982 
L 340.614703 99.677236 
L 342.446012 106.059126 
L 344.277322 108.971282 
L 346.108631 106.839946 
L 347.939941 103.139828 
L 349.77125 101.852555 
L 351.60256 102.444909 
L 353.433869 106.041904 
L 355.265179 107.541904 
L 357.096488 104.211474 
L 358.927798 95.468164 
L 360.759107 79.869979 
L 362.590417 62.041699 
L 364.421726 45.936093 
L 366.253036 37.450015 
L 368.084345 40.261872 
L 369.915655 51.710339 
L 371.746964 68.287618 
L 373.578274 83.364345 
L 375.409583 95.710128 
L 377.240893 104.587178 
L 380.903512 115.462801 
L 382.734821 119.148387 
L 384.566131 121.755639 
L 386.39744 125.001838 
L 388.22875 127.096737 
L 390.060059 131.776732 
L 391.891369 139.731381 
L 393.722678 148.923967 
L 395.553988 160.191674 
L 397.385297 167.599976 
L 399.216606 165.892998 
L 401.047916 149.334818 
L 402.879225 100.704424 
L 404.841324 -1 
M 418.663992 -1 
L 419.361011 16.798751 
L 421.19232 48.002311 
L 423.02363 63.503515 
L 424.854939 68.052862 
L 426.686249 61.719427 
L 428.517558 47.996234 
L 430.348868 35.233672 
L 432.180177 27.803343 
L 434.011487 33.60656 
L 435.842796 51.606758 
L 437.674106 74.921732 
L 439.505415 99.696224 
L 441.336725 120.366613 
L 443.168034 135.589129 
L 444.999344 145.235867 
L 446.830653 147.939541 
L 448.661963 145.017283 
L 450.493272 137.709761 
L 452.324582 129.300819 
L 454.155891 124.65754 
L 455.987201 124.198661 
L 457.81851 125.75528 
L 459.649819 124.6414 
L 461.481129 114.812336 
L 463.312438 94.449817 
L 465.143748 64.950755 
L 466.975057 31.952471 
L 468.806367 9.443447 
L 470.637676 7.187206 
L 472.468986 26.769636 
L 474.300295 62.92908 
L 476.131605 102.753839 
L 477.962914 139.508503 
L 479.794224 168.450666 
L 481.32975 181 
M 483.494287 181 
L 485.288152 154.180561 
L 487.119462 89.022086 
L 488.737947 -1 
M 513.334648 -1 
L 514.589104 21.292471 
L 516.420414 46.303149 
L 518.251723 62.357189 
L 520.083032 67.440778 
L 521.914342 64.082154 
L 523.745651 53.727185 
L 525.576961 37.836657 
L 527.40827 20.941593 
L 529.23958 6.807174 
L 531.070889 -0.806939 
L 532.902199 0.638616 
L 534.733508 9.656908 
L 536.564818 22.103153 
L 540.227437 49.476486 
L 542.058746 62.187084 
L 543.890056 73.978973 
L 545.721365 83.871692 
L 547.552675 91.304873 
L 549.383984 96.578402 
L 551.215294 99.405411 
L 553.046603 100.552064 
L 554.877913 99.021726 
L 556.709222 94.38341 
L 558.540532 88.236576 
L 560.371841 80.149076 
L 562.203151 73.250283 
L 564.03446 69.95812 
L 565.86577 70.073086 
L 567.697079 75.613528 
L 569.528389 85.331163 
L 571.359698 97.29972 
L 573.191008 110.531168 
L 575.022317 122.039275 
L 576.853627 131.017185 
L 578.684936 135.884322 
L 580.516245 135.505421 
L 582.347555 130.486469 
L 584.178864 119.865093 
L 589.672793 77.168482 
L 591.504102 68.508687 
L 593.335412 65.278339 
L 595.166721 65.089829 
L 596.998031 66.887182 
L 598.82934 68.316102 
L 600.66065 68.419311 
L 602.491959 67.66428 
L 604.323269 66.558496 
L 606.154578 67.114352 
L 607.985888 71.126377 
L 609.817197 77.699122 
L 611.648507 86.785783 
L 613.479816 96.486203 
L 615.311126 103.900349 
L 615.311126 103.900349 
" style="fill:none;stroke:#fbc15e;stroke-linecap:square;stroke-width:4.5;"/>
   </g>
   <g id="line2d_33">
    <path clip-path="url(#p23f1d6ad22)" d="M 115.363636 75.639195 
L 622.636364 75.639195 
" style="fill:none;stroke:#777777;stroke-linecap:square;stroke-width:1.5;"/>
   </g>
   <g id="patch_3">
    <path d="M 90 157.5 
L 90 21.6 
" style="fill:none;stroke:#ffffff;stroke-linecap:square;stroke-linejoin:miter;"/>
   </g>
   <g id="patch_4">
    <path d="M 648 157.5 
L 648 21.6 
" style="fill:none;stroke:#ffffff;stroke-linecap:square;stroke-linejoin:miter;"/>
   </g>
   <g id="patch_5">
    <path d="M 90 157.5 
L 648 157.5 
" style="fill:none;stroke:#ffffff;stroke-linecap:square;stroke-linejoin:miter;"/>
   </g>
   <g id="patch_6">
    <path d="M 90 21.6 
L 648 21.6 
" style="fill:none;stroke:#ffffff;stroke-linecap:square;stroke-linejoin:miter;"/>
   </g>
   <g id="legend_1">
    <g id="patch_7">
     <path d="M 97 152.5 
L 401.153125 152.5 
Q 403.153125 152.5 403.153125 150.5 
L 403.153125 107.465625 
Q 403.153125 105.465625 401.153125 105.465625 
L 97 105.465625 
Q 95 105.465625 95 107.465625 
L 95 150.5 
Q 95 152.5 97 152.5 
z
" style="fill:#e5e5e5;opacity:0.8;stroke:#cccccc;stroke-linejoin:miter;stroke-width:0.5;"/>
    </g>
    <g id="line2d_34"/>
    <g id="line2d_35">
     <g>
      <use style="fill:#e24a33;fill-opacity:0.3;stroke:#e24a33;stroke-opacity:0.3;" x="109" xlink:href="#m6d3ec5e0a3" y="113.564063"/>
     </g>
    </g>
    <g id="text_18">
     <!-- Korea, South deaths daily growth factor  -->
     <defs>
      <path d="M 9.8125 72.90625 
L 19.671875 72.90625 
L 19.671875 42.09375 
L 52.390625 72.90625 
L 65.09375 72.90625 
L 28.90625 38.921875 
L 67.671875 0 
L 54.6875 0 
L 19.671875 35.109375 
L 19.671875 0 
L 9.8125 0 
z
" id="DejaVuSans-75"/>
      <path d="M 11.71875 12.40625 
L 22.015625 12.40625 
L 22.015625 4 
L 14.015625 -11.625 
L 7.71875 -11.625 
L 11.71875 4 
z
" id="DejaVuSans-44"/>
      <path d="M 53.515625 70.515625 
L 53.515625 60.890625 
Q 47.90625 63.578125 42.921875 64.890625 
Q 37.9375 66.21875 33.296875 66.21875 
Q 25.25 66.21875 20.875 63.09375 
Q 16.5 59.96875 16.5 54.203125 
Q 16.5 49.359375 19.40625 46.890625 
Q 22.3125 44.4375 30.421875 42.921875 
L 36.375 41.703125 
Q 47.40625 39.59375 52.65625 34.296875 
Q 57.90625 29 57.90625 20.125 
Q 57.90625 9.515625 50.796875 4.046875 
Q 43.703125 -1.421875 29.984375 -1.421875 
Q 24.8125 -1.421875 18.96875 -0.25 
Q 13.140625 0.921875 6.890625 3.21875 
L 6.890625 13.375 
Q 12.890625 10.015625 18.65625 8.296875 
Q 24.421875 6.59375 29.984375 6.59375 
Q 38.421875 6.59375 43.015625 9.90625 
Q 47.609375 13.234375 47.609375 19.390625 
Q 47.609375 24.75 44.3125 27.78125 
Q 41.015625 30.8125 33.5 32.328125 
L 27.484375 33.5 
Q 16.453125 35.6875 11.515625 40.375 
Q 6.59375 45.0625 6.59375 53.421875 
Q 6.59375 63.09375 13.40625 68.65625 
Q 20.21875 74.21875 32.171875 74.21875 
Q 37.3125 74.21875 42.625 73.28125 
Q 47.953125 72.359375 53.515625 70.515625 
z
" id="DejaVuSans-83"/>
      <path d="M 8.5 21.578125 
L 8.5 54.6875 
L 17.484375 54.6875 
L 17.484375 21.921875 
Q 17.484375 14.15625 20.5 10.265625 
Q 23.53125 6.390625 29.59375 6.390625 
Q 36.859375 6.390625 41.078125 11.03125 
Q 45.3125 15.671875 45.3125 23.6875 
L 45.3125 54.6875 
L 54.296875 54.6875 
L 54.296875 0 
L 45.3125 0 
L 45.3125 8.40625 
Q 42.046875 3.421875 37.71875 1 
Q 33.40625 -1.421875 27.6875 -1.421875 
Q 18.265625 -1.421875 13.375 4.4375 
Q 8.5 10.296875 8.5 21.578125 
z
M 31.109375 56 
z
" id="DejaVuSans-117"/>
      <path d="M 9.421875 54.6875 
L 18.40625 54.6875 
L 18.40625 0 
L 9.421875 0 
z
M 9.421875 75.984375 
L 18.40625 75.984375 
L 18.40625 64.59375 
L 9.421875 64.59375 
z
" id="DejaVuSans-105"/>
      <path d="M 9.421875 75.984375 
L 18.40625 75.984375 
L 18.40625 0 
L 9.421875 0 
z
" id="DejaVuSans-108"/>
      <path d="M 32.171875 -5.078125 
Q 28.375 -14.84375 24.75 -17.8125 
Q 21.140625 -20.796875 15.09375 -20.796875 
L 7.90625 -20.796875 
L 7.90625 -13.28125 
L 13.1875 -13.28125 
Q 16.890625 -13.28125 18.9375 -11.515625 
Q 21 -9.765625 23.484375 -3.21875 
L 25.09375 0.875 
L 2.984375 54.6875 
L 12.5 54.6875 
L 29.59375 11.921875 
L 46.6875 54.6875 
L 56.203125 54.6875 
z
" id="DejaVuSans-121"/>
     </defs>
     <g transform="translate(127 117.064063)scale(0.1 -0.1)">
      <use xlink:href="#DejaVuSans-75"/>
      <use x="60.576172" xlink:href="#DejaVuSans-111"/>
      <use x="121.757812" xlink:href="#DejaVuSans-114"/>
      <use x="160.621094" xlink:href="#DejaVuSans-101"/>
      <use x="222.144531" xlink:href="#DejaVuSans-97"/>
      <use x="283.423828" xlink:href="#DejaVuSans-44"/>
      <use x="315.210938" xlink:href="#DejaVuSans-32"/>
      <use x="346.998047" xlink:href="#DejaVuSans-83"/>
      <use x="410.474609" xlink:href="#DejaVuSans-111"/>
      <use x="471.65625" xlink:href="#DejaVuSans-117"/>
      <use x="535.035156" xlink:href="#DejaVuSans-116"/>
      <use x="574.244141" xlink:href="#DejaVuSans-104"/>
      <use x="637.623047" xlink:href="#DejaVuSans-32"/>
      <use x="669.410156" xlink:href="#DejaVuSans-100"/>
      <use x="732.886719" xlink:href="#DejaVuSans-101"/>
      <use x="794.410156" xlink:href="#DejaVuSans-97"/>
      <use x="855.689453" xlink:href="#DejaVuSans-116"/>
      <use x="894.898438" xlink:href="#DejaVuSans-104"/>
      <use x="958.277344" xlink:href="#DejaVuSans-115"/>
      <use x="1010.376953" xlink:href="#DejaVuSans-32"/>
      <use x="1042.164062" xlink:href="#DejaVuSans-100"/>
      <use x="1105.640625" xlink:href="#DejaVuSans-97"/>
      <use x="1166.919922" xlink:href="#DejaVuSans-105"/>
      <use x="1194.703125" xlink:href="#DejaVuSans-108"/>
      <use x="1222.486328" xlink:href="#DejaVuSans-121"/>
      <use x="1281.666016" xlink:href="#DejaVuSans-32"/>
      <use x="1313.453125" xlink:href="#DejaVuSans-103"/>
      <use x="1376.929688" xlink:href="#DejaVuSans-114"/>
      <use x="1415.792969" xlink:href="#DejaVuSans-111"/>
      <use x="1476.974609" xlink:href="#DejaVuSans-119"/>
      <use x="1558.761719" xlink:href="#DejaVuSans-116"/>
      <use x="1597.970703" xlink:href="#DejaVuSans-104"/>
      <use x="1661.349609" xlink:href="#DejaVuSans-32"/>
      <use x="1693.136719" xlink:href="#DejaVuSans-102"/>
      <use x="1728.341797" xlink:href="#DejaVuSans-97"/>
      <use x="1789.621094" xlink:href="#DejaVuSans-99"/>
      <use x="1844.601562" xlink:href="#DejaVuSans-116"/>
      <use x="1883.810547" xlink:href="#DejaVuSans-111"/>
      <use x="1944.992188" xlink:href="#DejaVuSans-114"/>
      <use x="1986.105469" xlink:href="#DejaVuSans-32"/>
     </g>
    </g>
    <g id="line2d_36">
     <path d="M 99 128.242188 
L 119 128.242188 
" style="fill:none;stroke:#e24a33;stroke-linecap:square;stroke-opacity:0.7;stroke-width:3;"/>
    </g>
    <g id="line2d_37"/>
    <g id="text_19">
     <!-- Korea, South deaths daily growth factor (rolling mean) -->
     <defs>
      <path d="M 52 44.1875 
Q 55.375 50.25 60.0625 53.125 
Q 64.75 56 71.09375 56 
Q 79.640625 56 84.28125 50.015625 
Q 88.921875 44.046875 88.921875 33.015625 
L 88.921875 0 
L 79.890625 0 
L 79.890625 32.71875 
Q 79.890625 40.578125 77.09375 44.375 
Q 74.3125 48.1875 68.609375 48.1875 
Q 61.625 48.1875 57.5625 43.546875 
Q 53.515625 38.921875 53.515625 30.90625 
L 53.515625 0 
L 44.484375 0 
L 44.484375 32.71875 
Q 44.484375 40.625 41.703125 44.40625 
Q 38.921875 48.1875 33.109375 48.1875 
Q 26.21875 48.1875 22.15625 43.53125 
Q 18.109375 38.875 18.109375 30.90625 
L 18.109375 0 
L 9.078125 0 
L 9.078125 54.6875 
L 18.109375 54.6875 
L 18.109375 46.1875 
Q 21.1875 51.21875 25.484375 53.609375 
Q 29.78125 56 35.6875 56 
Q 41.65625 56 45.828125 52.96875 
Q 50 49.953125 52 44.1875 
z
" id="DejaVuSans-109"/>
     </defs>
     <g transform="translate(127 131.742188)scale(0.1 -0.1)">
      <use xlink:href="#DejaVuSans-75"/>
      <use x="60.576172" xlink:href="#DejaVuSans-111"/>
      <use x="121.757812" xlink:href="#DejaVuSans-114"/>
      <use x="160.621094" xlink:href="#DejaVuSans-101"/>
      <use x="222.144531" xlink:href="#DejaVuSans-97"/>
      <use x="283.423828" xlink:href="#DejaVuSans-44"/>
      <use x="315.210938" xlink:href="#DejaVuSans-32"/>
      <use x="346.998047" xlink:href="#DejaVuSans-83"/>
      <use x="410.474609" xlink:href="#DejaVuSans-111"/>
      <use x="471.65625" xlink:href="#DejaVuSans-117"/>
      <use x="535.035156" xlink:href="#DejaVuSans-116"/>
      <use x="574.244141" xlink:href="#DejaVuSans-104"/>
      <use x="637.623047" xlink:href="#DejaVuSans-32"/>
      <use x="669.410156" xlink:href="#DejaVuSans-100"/>
      <use x="732.886719" xlink:href="#DejaVuSans-101"/>
      <use x="794.410156" xlink:href="#DejaVuSans-97"/>
      <use x="855.689453" xlink:href="#DejaVuSans-116"/>
      <use x="894.898438" xlink:href="#DejaVuSans-104"/>
      <use x="958.277344" xlink:href="#DejaVuSans-115"/>
      <use x="1010.376953" xlink:href="#DejaVuSans-32"/>
      <use x="1042.164062" xlink:href="#DejaVuSans-100"/>
      <use x="1105.640625" xlink:href="#DejaVuSans-97"/>
      <use x="1166.919922" xlink:href="#DejaVuSans-105"/>
      <use x="1194.703125" xlink:href="#DejaVuSans-108"/>
      <use x="1222.486328" xlink:href="#DejaVuSans-121"/>
      <use x="1281.666016" xlink:href="#DejaVuSans-32"/>
      <use x="1313.453125" xlink:href="#DejaVuSans-103"/>
      <use x="1376.929688" xlink:href="#DejaVuSans-114"/>
      <use x="1415.792969" xlink:href="#DejaVuSans-111"/>
      <use x="1476.974609" xlink:href="#DejaVuSans-119"/>
      <use x="1558.761719" xlink:href="#DejaVuSans-116"/>
      <use x="1597.970703" xlink:href="#DejaVuSans-104"/>
      <use x="1661.349609" xlink:href="#DejaVuSans-32"/>
      <use x="1693.136719" xlink:href="#DejaVuSans-102"/>
      <use x="1728.341797" xlink:href="#DejaVuSans-97"/>
      <use x="1789.621094" xlink:href="#DejaVuSans-99"/>
      <use x="1844.601562" xlink:href="#DejaVuSans-116"/>
      <use x="1883.810547" xlink:href="#DejaVuSans-111"/>
      <use x="1944.992188" xlink:href="#DejaVuSans-114"/>
      <use x="1986.105469" xlink:href="#DejaVuSans-32"/>
      <use x="2017.892578" xlink:href="#DejaVuSans-40"/>
      <use x="2056.90625" xlink:href="#DejaVuSans-114"/>
      <use x="2095.769531" xlink:href="#DejaVuSans-111"/>
      <use x="2156.951172" xlink:href="#DejaVuSans-108"/>
      <use x="2184.734375" xlink:href="#DejaVuSans-108"/>
      <use x="2212.517578" xlink:href="#DejaVuSans-105"/>
      <use x="2240.300781" xlink:href="#DejaVuSans-110"/>
      <use x="2303.679688" xlink:href="#DejaVuSans-103"/>
      <use x="2367.15625" xlink:href="#DejaVuSans-32"/>
      <use x="2398.943359" xlink:href="#DejaVuSans-109"/>
      <use x="2496.355469" xlink:href="#DejaVuSans-101"/>
      <use x="2557.878906" xlink:href="#DejaVuSans-97"/>
      <use x="2619.158203" xlink:href="#DejaVuSans-110"/>
      <use x="2682.537109" xlink:href="#DejaVuSans-41"/>
     </g>
    </g>
    <g id="line2d_38">
     <path d="M 99 142.920312 
L 119 142.920312 
" style="fill:none;stroke:#fbc15e;stroke-linecap:square;stroke-width:4.5;"/>
    </g>
    <g id="line2d_39"/>
    <g id="text_20">
     <!-- Korea, South estimated R (using deaths) -->
     <g transform="translate(127 146.420312)scale(0.1 -0.1)">
      <use xlink:href="#DejaVuSans-75"/>
      <use x="60.576172" xlink:href="#DejaVuSans-111"/>
      <use x="121.757812" xlink:href="#DejaVuSans-114"/>
      <use x="160.621094" xlink:href="#DejaVuSans-101"/>
      <use x="222.144531" xlink:href="#DejaVuSans-97"/>
      <use x="283.423828" xlink:href="#DejaVuSans-44"/>
      <use x="315.210938" xlink:href="#DejaVuSans-32"/>
      <use x="346.998047" xlink:href="#DejaVuSans-83"/>
      <use x="410.474609" xlink:href="#DejaVuSans-111"/>
      <use x="471.65625" xlink:href="#DejaVuSans-117"/>
      <use x="535.035156" xlink:href="#DejaVuSans-116"/>
      <use x="574.244141" xlink:href="#DejaVuSans-104"/>
      <use x="637.623047" xlink:href="#DejaVuSans-32"/>
      <use x="669.410156" xlink:href="#DejaVuSans-101"/>
      <use x="730.933594" xlink:href="#DejaVuSans-115"/>
      <use x="783.033203" xlink:href="#DejaVuSans-116"/>
      <use x="822.242188" xlink:href="#DejaVuSans-105"/>
      <use x="850.025391" xlink:href="#DejaVuSans-109"/>
      <use x="947.4375" xlink:href="#DejaVuSans-97"/>
      <use x="1008.716797" xlink:href="#DejaVuSans-116"/>
      <use x="1047.925781" xlink:href="#DejaVuSans-101"/>
      <use x="1109.449219" xlink:href="#DejaVuSans-100"/>
      <use x="1172.925781" xlink:href="#DejaVuSans-32"/>
      <use x="1204.712891" xlink:href="#DejaVuSans-82"/>
      <use x="1274.195312" xlink:href="#DejaVuSans-32"/>
      <use x="1305.982422" xlink:href="#DejaVuSans-40"/>
      <use x="1344.996094" xlink:href="#DejaVuSans-117"/>
      <use x="1408.375" xlink:href="#DejaVuSans-115"/>
      <use x="1460.474609" xlink:href="#DejaVuSans-105"/>
      <use x="1488.257812" xlink:href="#DejaVuSans-110"/>
      <use x="1551.636719" xlink:href="#DejaVuSans-103"/>
      <use x="1615.113281" xlink:href="#DejaVuSans-32"/>
      <use x="1646.900391" xlink:href="#DejaVuSans-100"/>
      <use x="1710.376953" xlink:href="#DejaVuSans-101"/>
      <use x="1771.900391" xlink:href="#DejaVuSans-97"/>
      <use x="1833.179688" xlink:href="#DejaVuSans-116"/>
      <use x="1872.388672" xlink:href="#DejaVuSans-104"/>
      <use x="1935.767578" xlink:href="#DejaVuSans-115"/>
      <use x="1987.867188" xlink:href="#DejaVuSans-41"/>
     </g>
    </g>
   </g>
  </g>
 </g>
 <defs>
  <clipPath id="p23f1d6ad22">
   <rect height="135.9" width="558" x="90" y="21.6"/>
  </clipPath>
 </defs>
</svg>
