<?xml version="1.0" encoding="utf-8" standalone="no"?>
<!DOCTYPE svg PUBLIC "-//W3C//DTD SVG 1.1//EN"
  "http://www.w3.org/Graphics/SVG/1.1/DTD/svg11.dtd">
<!-- Created with matplotlib (https://matplotlib.org/) -->
<svg height="180pt" version="1.1" viewBox="0 0 720 180" width="720pt" xmlns="http://www.w3.org/2000/svg" xmlns:xlink="http://www.w3.org/1999/xlink">
 <metadata>
  <rdf:RDF xmlns:cc="http://creativecommons.org/ns#" xmlns:dc="http://purl.org/dc/elements/1.1/" xmlns:rdf="http://www.w3.org/1999/02/22-rdf-syntax-ns#">
   <cc:Work>
    <dc:type rdf:resource="http://purl.org/dc/dcmitype/StillImage"/>
    <dc:date>2021-02-21T22:03:20.678990</dc:date>
    <dc:format>image/svg+xml</dc:format>
    <dc:creator>
     <cc:Agent>
      <dc:title>Matplotlib v3.3.4, https://matplotlib.org/</dc:title>
     </cc:Agent>
    </dc:creator>
   </cc:Work>
  </rdf:RDF>
 </metadata>
 <defs>
  <style type="text/css">*{stroke-linecap:butt;stroke-linejoin:round;}</style>
 </defs>
 <g id="figure_1">
  <g id="patch_1">
   <path d="M 0 180 
L 720 180 
L 720 0 
L 0 0 
z
" style="fill:#ffffff;"/>
  </g>
  <g id="axes_1">
   <g id="patch_2">
    <path d="M 90 157.5 
L 648 157.5 
L 648 21.6 
L 90 21.6 
z
" style="fill:#e5e5e5;"/>
   </g>
   <g id="matplotlib.axis_1">
    <g id="xtick_1">
     <g id="line2d_1">
      <path clip-path="url(#p4211151025)" d="M 165.448792 157.5 
L 165.448792 21.6 
" style="fill:none;stroke:#ffffff;stroke-linecap:square;stroke-width:0.8;"/>
     </g>
     <g id="line2d_2">
      <defs>
       <path d="M 0 0 
L 0 3.5 
" id="mcf6c611f98" style="stroke:#555555;stroke-width:0.8;"/>
      </defs>
      <g>
       <use style="fill:#555555;stroke:#555555;stroke-width:0.8;" x="165.448792" xlink:href="#mcf6c611f98" y="157.5"/>
      </g>
     </g>
     <g id="text_1">
      <text style="fill:#555555;font-family:DejaVu Sans;font-size:10px;font-stretch:normal;font-style:normal;font-weight:normal;text-anchor:middle;" transform="rotate(-0, 165.448792, 172.098437)" x="165.448792" y="172.098437">2020-03</text>
     </g>
    </g>
    <g id="xtick_2">
     <g id="line2d_3">
      <path clip-path="url(#p4211151025)" d="M 243.787112 157.5 
L 243.787112 21.6 
" style="fill:none;stroke:#ffffff;stroke-linecap:square;stroke-width:0.8;"/>
     </g>
     <g id="line2d_4">
      <g>
       <use style="fill:#555555;stroke:#555555;stroke-width:0.8;" x="243.787112" xlink:href="#mcf6c611f98" y="157.5"/>
      </g>
     </g>
     <g id="text_2">
      <text style="fill:#555555;font-family:DejaVu Sans;font-size:10px;font-stretch:normal;font-style:normal;font-weight:normal;text-anchor:middle;" transform="rotate(-0, 243.787112, 172.098437)" x="243.787112" y="172.098437">2020-05</text>
     </g>
    </g>
    <g id="xtick_3">
     <g id="line2d_5">
      <path clip-path="url(#p4211151025)" d="M 322.125432 157.5 
L 322.125432 21.6 
" style="fill:none;stroke:#ffffff;stroke-linecap:square;stroke-width:0.8;"/>
     </g>
     <g id="line2d_6">
      <g>
       <use style="fill:#555555;stroke:#555555;stroke-width:0.8;" x="322.125432" xlink:href="#mcf6c611f98" y="157.5"/>
      </g>
     </g>
     <g id="text_3">
      <text style="fill:#555555;font-family:DejaVu Sans;font-size:10px;font-stretch:normal;font-style:normal;font-weight:normal;text-anchor:middle;" transform="rotate(-0, 322.125432, 172.098437)" x="322.125432" y="172.098437">2020-07</text>
     </g>
    </g>
    <g id="xtick_4">
     <g id="line2d_7">
      <path clip-path="url(#p4211151025)" d="M 401.747986 157.5 
L 401.747986 21.6 
" style="fill:none;stroke:#ffffff;stroke-linecap:square;stroke-width:0.8;"/>
     </g>
     <g id="line2d_8">
      <g>
       <use style="fill:#555555;stroke:#555555;stroke-width:0.8;" x="401.747986" xlink:href="#mcf6c611f98" y="157.5"/>
      </g>
     </g>
     <g id="text_4">
      <text style="fill:#555555;font-family:DejaVu Sans;font-size:10px;font-stretch:normal;font-style:normal;font-weight:normal;text-anchor:middle;" transform="rotate(-0, 401.747986, 172.098437)" x="401.747986" y="172.098437">2020-09</text>
     </g>
    </g>
    <g id="xtick_5">
     <g id="line2d_9">
      <path clip-path="url(#p4211151025)" d="M 480.086306 157.5 
L 480.086306 21.6 
" style="fill:none;stroke:#ffffff;stroke-linecap:square;stroke-width:0.8;"/>
     </g>
     <g id="line2d_10">
      <g>
       <use style="fill:#555555;stroke:#555555;stroke-width:0.8;" x="480.086306" xlink:href="#mcf6c611f98" y="157.5"/>
      </g>
     </g>
     <g id="text_5">
      <text style="fill:#555555;font-family:DejaVu Sans;font-size:10px;font-stretch:normal;font-style:normal;font-weight:normal;text-anchor:middle;" transform="rotate(-0, 480.086306, 172.098437)" x="480.086306" y="172.098437">2020-11</text>
     </g>
    </g>
    <g id="xtick_6">
     <g id="line2d_11">
      <path clip-path="url(#p4211151025)" d="M 558.424626 157.5 
L 558.424626 21.6 
" style="fill:none;stroke:#ffffff;stroke-linecap:square;stroke-width:0.8;"/>
     </g>
     <g id="line2d_12">
      <g>
       <use style="fill:#555555;stroke:#555555;stroke-width:0.8;" x="558.424626" xlink:href="#mcf6c611f98" y="157.5"/>
      </g>
     </g>
     <g id="text_6">
      <text style="fill:#555555;font-family:DejaVu Sans;font-size:10px;font-stretch:normal;font-style:normal;font-weight:normal;text-anchor:middle;" transform="rotate(-0, 558.424626, 172.098437)" x="558.424626" y="172.098437">2021-01</text>
     </g>
    </g>
    <g id="xtick_7">
     <g id="line2d_13">
      <path clip-path="url(#p4211151025)" d="M 634.194476 157.5 
L 634.194476 21.6 
" style="fill:none;stroke:#ffffff;stroke-linecap:square;stroke-width:0.8;"/>
     </g>
     <g id="line2d_14">
      <g>
       <use style="fill:#555555;stroke:#555555;stroke-width:0.8;" x="634.194476" xlink:href="#mcf6c611f98" y="157.5"/>
      </g>
     </g>
     <g id="text_7">
      <text style="fill:#555555;font-family:DejaVu Sans;font-size:10px;font-stretch:normal;font-style:normal;font-weight:normal;text-anchor:middle;" transform="rotate(-0, 634.194476, 172.098437)" x="634.194476" y="172.098437">2021-03</text>
     </g>
    </g>
   </g>
   <g id="matplotlib.axis_2">
    <g id="ytick_1">
     <g id="line2d_15">
      <path clip-path="url(#p4211151025)" d="M 90 157.5 
L 648 157.5 
" style="fill:none;stroke:#ffffff;stroke-linecap:square;stroke-width:0.8;"/>
     </g>
     <g id="line2d_16">
      <defs>
       <path d="M 0 0 
L -3.5 0 
" id="m603271590e" style="stroke:#555555;stroke-width:0.8;"/>
      </defs>
      <g>
       <use style="fill:#555555;stroke:#555555;stroke-width:0.8;" x="90" xlink:href="#m603271590e" y="157.5"/>
      </g>
     </g>
     <g id="line2d_17">
      <defs>
       <path d="M 0 0 
L 3.5 0 
" id="mbbedb7996e" style="stroke:#555555;stroke-width:0.8;"/>
      </defs>
      <g>
       <use style="fill:#555555;stroke:#555555;stroke-width:0.8;" x="648" xlink:href="#mbbedb7996e" y="157.5"/>
      </g>
     </g>
     <g id="text_8">
      <text style="fill:#555555;font-family:DejaVu Sans;font-size:10px;font-stretch:normal;font-style:normal;font-weight:normal;text-anchor:end;" transform="rotate(-0, 83, 161.299219)" x="83" y="161.299219">0.00</text>
     </g>
     <g id="text_9">
      <text style="fill:#555555;font-family:DejaVu Sans;font-size:10px;font-stretch:normal;font-style:normal;font-weight:normal;text-anchor:start;" transform="rotate(-0, 655, 161.299219)" x="655" y="161.299219">0.00</text>
     </g>
    </g>
    <g id="ytick_2">
     <g id="line2d_18">
      <path clip-path="url(#p4211151025)" d="M 90 122.66259 
L 648 122.66259 
" style="fill:none;stroke:#ffffff;stroke-linecap:square;stroke-width:0.8;"/>
     </g>
     <g id="line2d_19">
      <g>
       <use style="fill:#555555;stroke:#555555;stroke-width:0.8;" x="90" xlink:href="#m603271590e" y="122.66259"/>
      </g>
     </g>
     <g id="line2d_20">
      <g>
       <use style="fill:#555555;stroke:#555555;stroke-width:0.8;" x="648" xlink:href="#mbbedb7996e" y="122.66259"/>
      </g>
     </g>
     <g id="text_10">
      <text style="fill:#555555;font-family:DejaVu Sans;font-size:10px;font-stretch:normal;font-style:normal;font-weight:normal;text-anchor:end;" transform="rotate(-0, 83, 126.461809)" x="83" y="126.461809">0.02</text>
     </g>
     <g id="text_11">
      <text style="fill:#555555;font-family:DejaVu Sans;font-size:10px;font-stretch:normal;font-style:normal;font-weight:normal;text-anchor:start;" transform="rotate(-0, 655, 126.461809)" x="655" y="126.461809">0.02</text>
     </g>
    </g>
    <g id="ytick_3">
     <g id="line2d_21">
      <path clip-path="url(#p4211151025)" d="M 90 87.82518 
L 648 87.82518 
" style="fill:none;stroke:#ffffff;stroke-linecap:square;stroke-width:0.8;"/>
     </g>
     <g id="line2d_22">
      <g>
       <use style="fill:#555555;stroke:#555555;stroke-width:0.8;" x="90" xlink:href="#m603271590e" y="87.82518"/>
      </g>
     </g>
     <g id="line2d_23">
      <g>
       <use style="fill:#555555;stroke:#555555;stroke-width:0.8;" x="648" xlink:href="#mbbedb7996e" y="87.82518"/>
      </g>
     </g>
     <g id="text_12">
      <text style="fill:#555555;font-family:DejaVu Sans;font-size:10px;font-stretch:normal;font-style:normal;font-weight:normal;text-anchor:end;" transform="rotate(-0, 83, 91.624399)" x="83" y="91.624399">0.04</text>
     </g>
     <g id="text_13">
      <text style="fill:#555555;font-family:DejaVu Sans;font-size:10px;font-stretch:normal;font-style:normal;font-weight:normal;text-anchor:start;" transform="rotate(-0, 655, 91.624399)" x="655" y="91.624399">0.04</text>
     </g>
    </g>
    <g id="ytick_4">
     <g id="line2d_24">
      <path clip-path="url(#p4211151025)" d="M 90 52.98777 
L 648 52.98777 
" style="fill:none;stroke:#ffffff;stroke-linecap:square;stroke-width:0.8;"/>
     </g>
     <g id="line2d_25">
      <g>
       <use style="fill:#555555;stroke:#555555;stroke-width:0.8;" x="90" xlink:href="#m603271590e" y="52.98777"/>
      </g>
     </g>
     <g id="line2d_26">
      <g>
       <use style="fill:#555555;stroke:#555555;stroke-width:0.8;" x="648" xlink:href="#mbbedb7996e" y="52.98777"/>
      </g>
     </g>
     <g id="text_14">
      <text style="fill:#555555;font-family:DejaVu Sans;font-size:10px;font-stretch:normal;font-style:normal;font-weight:normal;text-anchor:end;" transform="rotate(-0, 83, 56.786989)" x="83" y="56.786989">0.06</text>
     </g>
     <g id="text_15">
      <text style="fill:#555555;font-family:DejaVu Sans;font-size:10px;font-stretch:normal;font-style:normal;font-weight:normal;text-anchor:start;" transform="rotate(-0, 655, 56.786989)" x="655" y="56.786989">0.06</text>
     </g>
    </g>
    <g id="text_16">
     <text style="fill:#555555;font-family:DejaVu Sans;font-size:12px;font-stretch:normal;font-style:normal;font-weight:normal;" transform="translate(40.801375 127.909687)rotate(-90)">daily change</text>
     <text style="fill:#555555;font-family:DejaVu Sans;font-size:12px;font-stretch:normal;font-style:normal;font-weight:normal;" transform="translate(54.23875 152.035313)rotate(-90)">normalised per 100K</text>
    </g>
   </g>
   <g id="patch_3">
    <path d="M 90 157.5 
L 90 21.6 
" style="fill:none;stroke:#ffffff;stroke-linecap:square;stroke-linejoin:miter;"/>
   </g>
   <g id="patch_4">
    <path d="M 648 157.5 
L 648 21.6 
" style="fill:none;stroke:#ffffff;stroke-linecap:square;stroke-linejoin:miter;"/>
   </g>
   <g id="patch_5">
    <path d="M 90 157.5 
L 648 157.5 
" style="fill:none;stroke:#ffffff;stroke-linecap:square;stroke-linejoin:miter;"/>
   </g>
   <g id="patch_6">
    <path d="M 90 21.6 
L 648 21.6 
" style="fill:none;stroke:#ffffff;stroke-linecap:square;stroke-linejoin:miter;"/>
   </g>
  </g>
  <g id="axes_2">
   <g id="matplotlib.axis_3">
    <g id="ytick_5">
     <g id="line2d_27">
      <path clip-path="url(#p4211151025)" d="M 90 157.5 
L 648 157.5 
" style="fill:none;stroke:#ffffff;stroke-linecap:square;stroke-width:0.8;"/>
     </g>
     <g id="line2d_28">
      <g>
       <use style="fill:#555555;stroke:#555555;stroke-width:0.8;" x="648" xlink:href="#mbbedb7996e" y="157.5"/>
      </g>
     </g>
     <g id="text_17">
      <text style="fill:#555555;font-family:DejaVu Sans;font-size:10px;font-stretch:normal;font-style:normal;font-weight:normal;text-anchor:start;" transform="rotate(-0, 655, 161.299219)" x="655" y="161.299219">0.00</text>
     </g>
    </g>
    <g id="ytick_6">
     <g id="line2d_29">
      <path clip-path="url(#p4211151025)" d="M 90 122.66259 
L 648 122.66259 
" style="fill:none;stroke:#ffffff;stroke-linecap:square;stroke-width:0.8;"/>
     </g>
     <g id="line2d_30">
      <g>
       <use style="fill:#555555;stroke:#555555;stroke-width:0.8;" x="648" xlink:href="#mbbedb7996e" y="122.66259"/>
      </g>
     </g>
     <g id="text_18">
      <text style="fill:#555555;font-family:DejaVu Sans;font-size:10px;font-stretch:normal;font-style:normal;font-weight:normal;text-anchor:start;" transform="rotate(-0, 655, 126.461809)" x="655" y="126.461809">10.25</text>
     </g>
    </g>
    <g id="ytick_7">
     <g id="line2d_31">
      <path clip-path="url(#p4211151025)" d="M 90 87.82518 
L 648 87.82518 
" style="fill:none;stroke:#ffffff;stroke-linecap:square;stroke-width:0.8;"/>
     </g>
     <g id="line2d_32">
      <g>
       <use style="fill:#555555;stroke:#555555;stroke-width:0.8;" x="648" xlink:href="#mbbedb7996e" y="87.82518"/>
      </g>
     </g>
     <g id="text_19">
      <text style="fill:#555555;font-family:DejaVu Sans;font-size:10px;font-stretch:normal;font-style:normal;font-weight:normal;text-anchor:start;" transform="rotate(-0, 655, 91.624399)" x="655" y="91.624399">20.51</text>
     </g>
    </g>
    <g id="ytick_8">
     <g id="line2d_33">
      <path clip-path="url(#p4211151025)" d="M 90 52.98777 
L 648 52.98777 
" style="fill:none;stroke:#ffffff;stroke-linecap:square;stroke-width:0.8;"/>
     </g>
     <g id="line2d_34">
      <g>
       <use style="fill:#555555;stroke:#555555;stroke-width:0.8;" x="648" xlink:href="#mbbedb7996e" y="52.98777"/>
      </g>
     </g>
     <g id="text_20">
      <text style="fill:#555555;font-family:DejaVu Sans;font-size:10px;font-stretch:normal;font-style:normal;font-weight:normal;text-anchor:start;" transform="rotate(-0, 655, 56.786989)" x="655" y="56.786989">30.76</text>
     </g>
    </g>
    <g id="text_21">
     <text style="fill:#555555;font-family:DejaVu Sans;font-size:12px;font-stretch:normal;font-style:normal;font-weight:normal;text-anchor:middle;" transform="rotate(-90, 696.74625, 89.55)" x="696.74625" y="89.55">daily change</text>
    </g>
   </g>
   <g id="patch_7">
    <path clip-path="url(#p4211151025)" d="M 116.134177 157.5 
L 117.161565 157.5 
L 117.161565 157.5 
L 116.134177 157.5 
z
" style="fill:#e24a33;opacity:0.2;"/>
   </g>
   <g id="patch_8">
    <path clip-path="url(#p4211151025)" d="M 117.418412 157.5 
L 118.4458 157.5 
L 118.4458 157.5 
L 117.418412 157.5 
z
" style="fill:#e24a33;opacity:0.2;"/>
   </g>
   <g id="patch_9">
    <path clip-path="url(#p4211151025)" d="M 118.702647 157.5 
L 119.730035 157.5 
L 119.730035 157.5 
L 118.702647 157.5 
z
" style="fill:#e24a33;opacity:0.2;"/>
   </g>
   <g id="patch_10">
    <path clip-path="url(#p4211151025)" d="M 119.986881 157.5 
L 121.014269 157.5 
L 121.014269 157.5 
L 119.986881 157.5 
z
" style="fill:#e24a33;opacity:0.2;"/>
   </g>
   <g id="patch_11">
    <path clip-path="url(#p4211151025)" d="M 121.271116 157.5 
L 122.298504 157.5 
L 122.298504 157.5 
L 121.271116 157.5 
z
" style="fill:#e24a33;opacity:0.2;"/>
   </g>
   <g id="patch_12">
    <path clip-path="url(#p4211151025)" d="M 122.555351 157.5 
L 123.582739 157.5 
L 123.582739 157.5 
L 122.555351 157.5 
z
" style="fill:#e24a33;opacity:0.2;"/>
   </g>
   <g id="patch_13">
    <path clip-path="url(#p4211151025)" d="M 123.839586 157.5 
L 124.866974 157.5 
L 124.866974 157.5 
L 123.839586 157.5 
z
" style="fill:#e24a33;opacity:0.2;"/>
   </g>
   <g id="patch_14">
    <path clip-path="url(#p4211151025)" d="M 125.12382 157.5 
L 126.151208 157.5 
L 126.151208 157.5 
L 125.12382 157.5 
z
" style="fill:#e24a33;opacity:0.2;"/>
   </g>
   <g id="patch_15">
    <path clip-path="url(#p4211151025)" d="M 126.408055 157.5 
L 127.435443 157.5 
L 127.435443 157.5 
L 126.408055 157.5 
z
" style="fill:#e24a33;opacity:0.2;"/>
   </g>
   <g id="patch_16">
    <path clip-path="url(#p4211151025)" d="M 127.69229 157.5 
L 128.719678 157.5 
L 128.719678 157.5 
L 127.69229 157.5 
z
" style="fill:#e24a33;opacity:0.2;"/>
   </g>
   <g id="patch_17">
    <path clip-path="url(#p4211151025)" d="M 128.976525 157.5 
L 130.003913 157.5 
L 130.003913 157.5 
L 128.976525 157.5 
z
" style="fill:#e24a33;opacity:0.2;"/>
   </g>
   <g id="patch_18">
    <path clip-path="url(#p4211151025)" d="M 130.260759 157.5 
L 131.288147 157.5 
L 131.288147 157.5 
L 130.260759 157.5 
z
" style="fill:#e24a33;opacity:0.2;"/>
   </g>
   <g id="patch_19">
    <path clip-path="url(#p4211151025)" d="M 131.544994 157.5 
L 132.572382 157.5 
L 132.572382 157.5 
L 131.544994 157.5 
z
" style="fill:#e24a33;opacity:0.2;"/>
   </g>
   <g id="patch_20">
    <path clip-path="url(#p4211151025)" d="M 132.829229 157.5 
L 133.856617 157.5 
L 133.856617 157.5 
L 132.829229 157.5 
z
" style="fill:#e24a33;opacity:0.2;"/>
   </g>
   <g id="patch_21">
    <path clip-path="url(#p4211151025)" d="M 134.113464 157.5 
L 135.140852 157.5 
L 135.140852 157.5 
L 134.113464 157.5 
z
" style="fill:#e24a33;opacity:0.2;"/>
   </g>
   <g id="patch_22">
    <path clip-path="url(#p4211151025)" d="M 135.397699 157.5 
L 136.425086 157.5 
L 136.425086 157.5 
L 135.397699 157.5 
z
" style="fill:#e24a33;opacity:0.2;"/>
   </g>
   <g id="patch_23">
    <path clip-path="url(#p4211151025)" d="M 136.681933 157.5 
L 137.709321 157.5 
L 137.709321 157.5 
L 136.681933 157.5 
z
" style="fill:#e24a33;opacity:0.2;"/>
   </g>
   <g id="patch_24">
    <path clip-path="url(#p4211151025)" d="M 137.966168 157.5 
L 138.993556 157.5 
L 138.993556 157.5 
L 137.966168 157.5 
z
" style="fill:#e24a33;opacity:0.2;"/>
   </g>
   <g id="patch_25">
    <path clip-path="url(#p4211151025)" d="M 139.250403 157.5 
L 140.277791 157.5 
L 140.277791 157.5 
L 139.250403 157.5 
z
" style="fill:#e24a33;opacity:0.2;"/>
   </g>
   <g id="patch_26">
    <path clip-path="url(#p4211151025)" d="M 140.534638 157.5 
L 141.562025 157.5 
L 141.562025 157.5 
L 140.534638 157.5 
z
" style="fill:#e24a33;opacity:0.2;"/>
   </g>
   <g id="patch_27">
    <path clip-path="url(#p4211151025)" d="M 141.818872 157.5 
L 142.84626 157.5 
L 142.84626 157.5 
L 141.818872 157.5 
z
" style="fill:#e24a33;opacity:0.2;"/>
   </g>
   <g id="patch_28">
    <path clip-path="url(#p4211151025)" d="M 143.103107 157.5 
L 144.130495 157.5 
L 144.130495 157.5 
L 143.103107 157.5 
z
" style="fill:#e24a33;opacity:0.2;"/>
   </g>
   <g id="patch_29">
    <path clip-path="url(#p4211151025)" d="M 144.387342 157.5 
L 145.41473 157.5 
L 145.41473 157.5 
L 144.387342 157.5 
z
" style="fill:#e24a33;opacity:0.2;"/>
   </g>
   <g id="patch_30">
    <path clip-path="url(#p4211151025)" d="M 145.671577 157.5 
L 146.698964 157.5 
L 146.698964 157.5 
L 145.671577 157.5 
z
" style="fill:#e24a33;opacity:0.2;"/>
   </g>
   <g id="patch_31">
    <path clip-path="url(#p4211151025)" d="M 146.955811 157.5 
L 147.983199 157.5 
L 147.983199 157.5 
L 146.955811 157.5 
z
" style="fill:#e24a33;opacity:0.2;"/>
   </g>
   <g id="patch_32">
    <path clip-path="url(#p4211151025)" d="M 148.240046 157.5 
L 149.267434 157.5 
L 149.267434 157.5 
L 148.240046 157.5 
z
" style="fill:#e24a33;opacity:0.2;"/>
   </g>
   <g id="patch_33">
    <path clip-path="url(#p4211151025)" d="M 149.524281 157.5 
L 150.551669 157.5 
L 150.551669 157.5 
L 149.524281 157.5 
z
" style="fill:#e24a33;opacity:0.2;"/>
   </g>
   <g id="patch_34">
    <path clip-path="url(#p4211151025)" d="M 150.808516 157.5 
L 151.835903 157.5 
L 151.835903 157.5 
L 150.808516 157.5 
z
" style="fill:#e24a33;opacity:0.2;"/>
   </g>
   <g id="patch_35">
    <path clip-path="url(#p4211151025)" d="M 152.09275 157.5 
L 153.120138 157.5 
L 153.120138 154.1025 
L 152.09275 154.1025 
z
" style="fill:#e24a33;opacity:0.2;"/>
   </g>
   <g id="patch_36">
    <path clip-path="url(#p4211151025)" d="M 153.376985 157.5 
L 154.404373 157.5 
L 154.404373 154.1025 
L 153.376985 154.1025 
z
" style="fill:#e24a33;opacity:0.2;"/>
   </g>
   <g id="patch_37">
    <path clip-path="url(#p4211151025)" d="M 154.66122 157.5 
L 155.688608 157.5 
L 155.688608 157.5 
L 154.66122 157.5 
z
" style="fill:#e24a33;opacity:0.2;"/>
   </g>
   <g id="patch_38">
    <path clip-path="url(#p4211151025)" d="M 155.945455 157.5 
L 156.972842 157.5 
L 156.972842 143.91 
L 155.945455 143.91 
z
" style="fill:#e24a33;opacity:0.2;"/>
   </g>
   <g id="patch_39">
    <path clip-path="url(#p4211151025)" d="M 157.229689 157.5 
L 158.257077 157.5 
L 158.257077 150.705 
L 157.229689 150.705 
z
" style="fill:#e24a33;opacity:0.2;"/>
   </g>
   <g id="patch_40">
    <path clip-path="url(#p4211151025)" d="M 158.513924 157.5 
L 159.541312 157.5 
L 159.541312 150.705 
L 158.513924 150.705 
z
" style="fill:#e24a33;opacity:0.2;"/>
   </g>
   <g id="patch_41">
    <path clip-path="url(#p4211151025)" d="M 159.798159 157.5 
L 160.825547 157.5 
L 160.825547 150.705 
L 159.798159 150.705 
z
" style="fill:#e24a33;opacity:0.2;"/>
   </g>
   <g id="patch_42">
    <path clip-path="url(#p4211151025)" d="M 161.082394 157.5 
L 162.109781 157.5 
L 162.109781 154.1025 
L 161.082394 154.1025 
z
" style="fill:#e24a33;opacity:0.2;"/>
   </g>
   <g id="patch_43">
    <path clip-path="url(#p4211151025)" d="M 162.366628 157.5 
L 163.394016 157.5 
L 163.394016 157.5 
L 162.366628 157.5 
z
" style="fill:#e24a33;opacity:0.2;"/>
   </g>
   <g id="patch_44">
    <path clip-path="url(#p4211151025)" d="M 163.650863 157.5 
L 164.678251 157.5 
L 164.678251 147.3075 
L 163.650863 147.3075 
z
" style="fill:#e24a33;opacity:0.2;"/>
   </g>
   <g id="patch_45">
    <path clip-path="url(#p4211151025)" d="M 164.935098 157.5 
L 165.962486 157.5 
L 165.962486 154.1025 
L 164.935098 154.1025 
z
" style="fill:#e24a33;opacity:0.2;"/>
   </g>
   <g id="patch_46">
    <path clip-path="url(#p4211151025)" d="M 166.219333 157.5 
L 167.24672 157.5 
L 167.24672 120.1275 
L 166.219333 120.1275 
z
" style="fill:#e24a33;opacity:0.2;"/>
   </g>
   <g id="patch_47">
    <path clip-path="url(#p4211151025)" d="M 167.503567 157.5 
L 168.530955 157.5 
L 168.530955 157.5 
L 167.503567 157.5 
z
" style="fill:#e24a33;opacity:0.2;"/>
   </g>
   <g id="patch_48">
    <path clip-path="url(#p4211151025)" d="M 168.787802 157.5 
L 169.81519 157.5 
L 169.81519 133.7175 
L 168.787802 133.7175 
z
" style="fill:#e24a33;opacity:0.2;"/>
   </g>
   <g id="patch_49">
    <path clip-path="url(#p4211151025)" d="M 170.072037 157.5 
L 171.099425 157.5 
L 171.099425 157.5 
L 170.072037 157.5 
z
" style="fill:#e24a33;opacity:0.2;"/>
   </g>
   <g id="patch_50">
    <path clip-path="url(#p4211151025)" d="M 171.356272 157.5 
L 172.383659 157.5 
L 172.383659 133.7175 
L 171.356272 133.7175 
z
" style="fill:#e24a33;opacity:0.2;"/>
   </g>
   <g id="patch_51">
    <path clip-path="url(#p4211151025)" d="M 172.640506 157.5 
L 173.667894 157.5 
L 173.667894 150.705 
L 172.640506 150.705 
z
" style="fill:#e24a33;opacity:0.2;"/>
   </g>
   <g id="patch_52">
    <path clip-path="url(#p4211151025)" d="M 173.924741 157.5 
L 174.952129 157.5 
L 174.952129 137.115 
L 173.924741 137.115 
z
" style="fill:#e24a33;opacity:0.2;"/>
   </g>
   <g id="patch_53">
    <path clip-path="url(#p4211151025)" d="M 175.208976 157.5 
L 176.236364 157.5 
L 176.236364 147.3075 
L 175.208976 147.3075 
z
" style="fill:#e24a33;opacity:0.2;"/>
   </g>
   <g id="patch_54">
    <path clip-path="url(#p4211151025)" d="M 176.493211 157.5 
L 177.520598 157.5 
L 177.520598 154.1025 
L 176.493211 154.1025 
z
" style="fill:#e24a33;opacity:0.2;"/>
   </g>
   <g id="patch_55">
    <path clip-path="url(#p4211151025)" d="M 177.777445 157.5 
L 178.804833 157.5 
L 178.804833 137.115 
L 177.777445 137.115 
z
" style="fill:#e24a33;opacity:0.2;"/>
   </g>
   <g id="patch_56">
    <path clip-path="url(#p4211151025)" d="M 179.06168 157.5 
L 180.089068 157.5 
L 180.089068 137.115 
L 179.06168 137.115 
z
" style="fill:#e24a33;opacity:0.2;"/>
   </g>
   <g id="patch_57">
    <path clip-path="url(#p4211151025)" d="M 180.345915 157.5 
L 181.373303 157.5 
L 181.373303 157.5 
L 180.345915 157.5 
z
" style="fill:#e24a33;opacity:0.2;"/>
   </g>
   <g id="patch_58">
    <path clip-path="url(#p4211151025)" d="M 181.63015 157.5 
L 182.657537 157.5 
L 182.657537 137.115 
L 181.63015 137.115 
z
" style="fill:#e24a33;opacity:0.2;"/>
   </g>
   <g id="patch_59">
    <path clip-path="url(#p4211151025)" d="M 182.914384 157.5 
L 183.941772 157.5 
L 183.941772 147.3075 
L 182.914384 147.3075 
z
" style="fill:#e24a33;opacity:0.2;"/>
   </g>
   <g id="patch_60">
    <path clip-path="url(#p4211151025)" d="M 184.198619 157.5 
L 185.226007 157.5 
L 185.226007 157.5 
L 184.198619 157.5 
z
" style="fill:#e24a33;opacity:0.2;"/>
   </g>
   <g id="patch_61">
    <path clip-path="url(#p4211151025)" d="M 185.482854 157.5 
L 186.510242 157.5 
L 186.510242 137.115 
L 185.482854 137.115 
z
" style="fill:#e24a33;opacity:0.2;"/>
   </g>
   <g id="patch_62">
    <path clip-path="url(#p4211151025)" d="M 186.767089 157.5 
L 187.794476 157.5 
L 187.794476 147.3075 
L 186.767089 147.3075 
z
" style="fill:#e24a33;opacity:0.2;"/>
   </g>
   <g id="patch_63">
    <path clip-path="url(#p4211151025)" d="M 188.051323 157.5 
L 189.078711 157.5 
L 189.078711 133.7175 
L 188.051323 133.7175 
z
" style="fill:#e24a33;opacity:0.2;"/>
   </g>
   <g id="patch_64">
    <path clip-path="url(#p4211151025)" d="M 189.335558 157.5 
L 190.362946 157.5 
L 190.362946 147.3075 
L 189.335558 147.3075 
z
" style="fill:#e24a33;opacity:0.2;"/>
   </g>
   <g id="patch_65">
    <path clip-path="url(#p4211151025)" d="M 190.619793 157.5 
L 191.647181 157.5 
L 191.647181 130.32 
L 190.619793 130.32 
z
" style="fill:#e24a33;opacity:0.2;"/>
   </g>
   <g id="patch_66">
    <path clip-path="url(#p4211151025)" d="M 191.904028 157.5 
L 192.931415 157.5 
L 192.931415 126.9225 
L 191.904028 126.9225 
z
" style="fill:#e24a33;opacity:0.2;"/>
   </g>
   <g id="patch_67">
    <path clip-path="url(#p4211151025)" d="M 193.188262 157.5 
L 194.21565 157.5 
L 194.21565 157.5 
L 193.188262 157.5 
z
" style="fill:#e24a33;opacity:0.2;"/>
   </g>
   <g id="patch_68">
    <path clip-path="url(#p4211151025)" d="M 194.472497 157.5 
L 195.499885 157.5 
L 195.499885 126.9225 
L 194.472497 126.9225 
z
" style="fill:#e24a33;opacity:0.2;"/>
   </g>
   <g id="patch_69">
    <path clip-path="url(#p4211151025)" d="M 195.756732 157.5 
L 196.78412 157.5 
L 196.78412 137.115 
L 195.756732 137.115 
z
" style="fill:#e24a33;opacity:0.2;"/>
   </g>
   <g id="patch_70">
    <path clip-path="url(#p4211151025)" d="M 197.040967 157.5 
L 198.068354 157.5 
L 198.068354 140.5125 
L 197.040967 140.5125 
z
" style="fill:#e24a33;opacity:0.2;"/>
   </g>
   <g id="patch_71">
    <path clip-path="url(#p4211151025)" d="M 198.325201 157.5 
L 199.352589 157.5 
L 199.352589 130.32 
L 198.325201 130.32 
z
" style="fill:#e24a33;opacity:0.2;"/>
   </g>
   <g id="patch_72">
    <path clip-path="url(#p4211151025)" d="M 199.609436 157.5 
L 200.636824 157.5 
L 200.636824 140.5125 
L 199.609436 140.5125 
z
" style="fill:#e24a33;opacity:0.2;"/>
   </g>
   <g id="patch_73">
    <path clip-path="url(#p4211151025)" d="M 200.893671 157.5 
L 201.921059 157.5 
L 201.921059 130.32 
L 200.893671 130.32 
z
" style="fill:#e24a33;opacity:0.2;"/>
   </g>
   <g id="patch_74">
    <path clip-path="url(#p4211151025)" d="M 202.177906 157.5 
L 203.205293 157.5 
L 203.205293 137.115 
L 202.177906 137.115 
z
" style="fill:#e24a33;opacity:0.2;"/>
   </g>
   <g id="patch_75">
    <path clip-path="url(#p4211151025)" d="M 203.46214 157.5 
L 204.489528 157.5 
L 204.489528 143.91 
L 203.46214 143.91 
z
" style="fill:#e24a33;opacity:0.2;"/>
   </g>
   <g id="patch_76">
    <path clip-path="url(#p4211151025)" d="M 204.746375 157.5 
L 205.773763 157.5 
L 205.773763 147.3075 
L 204.746375 147.3075 
z
" style="fill:#e24a33;opacity:0.2;"/>
   </g>
   <g id="patch_77">
    <path clip-path="url(#p4211151025)" d="M 206.03061 157.5 
L 207.057998 157.5 
L 207.057998 143.91 
L 206.03061 143.91 
z
" style="fill:#e24a33;opacity:0.2;"/>
   </g>
   <g id="patch_78">
    <path clip-path="url(#p4211151025)" d="M 207.314845 157.5 
L 208.342232 157.5 
L 208.342232 140.5125 
L 207.314845 140.5125 
z
" style="fill:#e24a33;opacity:0.2;"/>
   </g>
   <g id="patch_79">
    <path clip-path="url(#p4211151025)" d="M 208.599079 157.5 
L 209.626467 157.5 
L 209.626467 147.3075 
L 208.599079 147.3075 
z
" style="fill:#e24a33;opacity:0.2;"/>
   </g>
   <g id="patch_80">
    <path clip-path="url(#p4211151025)" d="M 209.883314 157.5 
L 210.910702 157.5 
L 210.910702 137.115 
L 209.883314 137.115 
z
" style="fill:#e24a33;opacity:0.2;"/>
   </g>
   <g id="patch_81">
    <path clip-path="url(#p4211151025)" d="M 211.167549 157.5 
L 212.194937 157.5 
L 212.194937 147.3075 
L 211.167549 147.3075 
z
" style="fill:#e24a33;opacity:0.2;"/>
   </g>
   <g id="patch_82">
    <path clip-path="url(#p4211151025)" d="M 212.451784 157.5 
L 213.479171 157.5 
L 213.479171 137.115 
L 212.451784 137.115 
z
" style="fill:#e24a33;opacity:0.2;"/>
   </g>
   <g id="patch_83">
    <path clip-path="url(#p4211151025)" d="M 213.736018 157.5 
L 214.763406 157.5 
L 214.763406 130.32 
L 213.736018 130.32 
z
" style="fill:#e24a33;opacity:0.2;"/>
   </g>
   <g id="patch_84">
    <path clip-path="url(#p4211151025)" d="M 215.020253 157.5 
L 216.047641 157.5 
L 216.047641 143.91 
L 215.020253 143.91 
z
" style="fill:#e24a33;opacity:0.2;"/>
   </g>
   <g id="patch_85">
    <path clip-path="url(#p4211151025)" d="M 216.304488 157.5 
L 217.331876 157.5 
L 217.331876 143.91 
L 216.304488 143.91 
z
" style="fill:#e24a33;opacity:0.2;"/>
   </g>
   <g id="patch_86">
    <path clip-path="url(#p4211151025)" d="M 217.588723 157.5 
L 218.61611 157.5 
L 218.61611 147.3075 
L 217.588723 147.3075 
z
" style="fill:#e24a33;opacity:0.2;"/>
   </g>
   <g id="patch_87">
    <path clip-path="url(#p4211151025)" d="M 218.872957 157.5 
L 219.900345 157.5 
L 219.900345 147.3075 
L 218.872957 147.3075 
z
" style="fill:#e24a33;opacity:0.2;"/>
   </g>
   <g id="patch_88">
    <path clip-path="url(#p4211151025)" d="M 220.157192 157.5 
L 221.18458 157.5 
L 221.18458 147.3075 
L 220.157192 147.3075 
z
" style="fill:#e24a33;opacity:0.2;"/>
   </g>
   <g id="patch_89">
    <path clip-path="url(#p4211151025)" d="M 221.441427 157.5 
L 222.468815 157.5 
L 222.468815 140.5125 
L 221.441427 140.5125 
z
" style="fill:#e24a33;opacity:0.2;"/>
   </g>
   <g id="patch_90">
    <path clip-path="url(#p4211151025)" d="M 222.725662 157.5 
L 223.753049 157.5 
L 223.753049 147.3075 
L 222.725662 147.3075 
z
" style="fill:#e24a33;opacity:0.2;"/>
   </g>
   <g id="patch_91">
    <path clip-path="url(#p4211151025)" d="M 224.009896 157.5 
L 225.037284 157.5 
L 225.037284 143.91 
L 224.009896 143.91 
z
" style="fill:#e24a33;opacity:0.2;"/>
   </g>
   <g id="patch_92">
    <path clip-path="url(#p4211151025)" d="M 225.294131 157.5 
L 226.321519 157.5 
L 226.321519 154.1025 
L 225.294131 154.1025 
z
" style="fill:#e24a33;opacity:0.2;"/>
   </g>
   <g id="patch_93">
    <path clip-path="url(#p4211151025)" d="M 226.578366 157.5 
L 227.605754 157.5 
L 227.605754 150.705 
L 226.578366 150.705 
z
" style="fill:#e24a33;opacity:0.2;"/>
   </g>
   <g id="patch_94">
    <path clip-path="url(#p4211151025)" d="M 227.862601 157.5 
L 228.889988 157.5 
L 228.889988 150.705 
L 227.862601 150.705 
z
" style="fill:#e24a33;opacity:0.2;"/>
   </g>
   <g id="patch_95">
    <path clip-path="url(#p4211151025)" d="M 229.146835 157.5 
L 230.174223 157.5 
L 230.174223 150.705 
L 229.146835 150.705 
z
" style="fill:#e24a33;opacity:0.2;"/>
   </g>
   <g id="patch_96">
    <path clip-path="url(#p4211151025)" d="M 230.43107 157.5 
L 231.458458 157.5 
L 231.458458 154.1025 
L 230.43107 154.1025 
z
" style="fill:#e24a33;opacity:0.2;"/>
   </g>
   <g id="patch_97">
    <path clip-path="url(#p4211151025)" d="M 231.715305 157.5 
L 232.742693 157.5 
L 232.742693 154.1025 
L 231.715305 154.1025 
z
" style="fill:#e24a33;opacity:0.2;"/>
   </g>
   <g id="patch_98">
    <path clip-path="url(#p4211151025)" d="M 232.99954 157.5 
L 234.026928 157.5 
L 234.026928 150.705 
L 232.99954 150.705 
z
" style="fill:#e24a33;opacity:0.2;"/>
   </g>
   <g id="patch_99">
    <path clip-path="url(#p4211151025)" d="M 234.283774 157.5 
L 235.311162 157.5 
L 235.311162 157.5 
L 234.283774 157.5 
z
" style="fill:#e24a33;opacity:0.2;"/>
   </g>
   <g id="patch_100">
    <path clip-path="url(#p4211151025)" d="M 235.568009 157.5 
L 236.595397 157.5 
L 236.595397 150.705 
L 235.568009 150.705 
z
" style="fill:#e24a33;opacity:0.2;"/>
   </g>
   <g id="patch_101">
    <path clip-path="url(#p4211151025)" d="M 236.852244 157.5 
L 237.879632 157.5 
L 237.879632 154.1025 
L 236.852244 154.1025 
z
" style="fill:#e24a33;opacity:0.2;"/>
   </g>
   <g id="patch_102">
    <path clip-path="url(#p4211151025)" d="M 238.136479 157.5 
L 239.163867 157.5 
L 239.163867 154.1025 
L 238.136479 154.1025 
z
" style="fill:#e24a33;opacity:0.2;"/>
   </g>
   <g id="patch_103">
    <path clip-path="url(#p4211151025)" d="M 239.420713 157.5 
L 240.448101 157.5 
L 240.448101 150.705 
L 239.420713 150.705 
z
" style="fill:#e24a33;opacity:0.2;"/>
   </g>
   <g id="patch_104">
    <path clip-path="url(#p4211151025)" d="M 240.704948 157.5 
L 241.732336 157.5 
L 241.732336 154.1025 
L 240.704948 154.1025 
z
" style="fill:#e24a33;opacity:0.2;"/>
   </g>
   <g id="patch_105">
    <path clip-path="url(#p4211151025)" d="M 241.989183 157.5 
L 243.016571 157.5 
L 243.016571 154.1025 
L 241.989183 154.1025 
z
" style="fill:#e24a33;opacity:0.2;"/>
   </g>
   <g id="patch_106">
    <path clip-path="url(#p4211151025)" d="M 243.273418 157.5 
L 244.300806 157.5 
L 244.300806 150.705 
L 243.273418 150.705 
z
" style="fill:#e24a33;opacity:0.2;"/>
   </g>
   <g id="patch_107">
    <path clip-path="url(#p4211151025)" d="M 244.557652 157.5 
L 245.58504 157.5 
L 245.58504 157.5 
L 244.557652 157.5 
z
" style="fill:#e24a33;opacity:0.2;"/>
   </g>
   <g id="patch_108">
    <path clip-path="url(#p4211151025)" d="M 245.841887 157.5 
L 246.869275 157.5 
L 246.869275 150.705 
L 245.841887 150.705 
z
" style="fill:#e24a33;opacity:0.2;"/>
   </g>
   <g id="patch_109">
    <path clip-path="url(#p4211151025)" d="M 247.126122 157.5 
L 248.15351 157.5 
L 248.15351 150.705 
L 247.126122 150.705 
z
" style="fill:#e24a33;opacity:0.2;"/>
   </g>
   <g id="patch_110">
    <path clip-path="url(#p4211151025)" d="M 248.410357 157.5 
L 249.437745 157.5 
L 249.437745 154.1025 
L 248.410357 154.1025 
z
" style="fill:#e24a33;opacity:0.2;"/>
   </g>
   <g id="patch_111">
    <path clip-path="url(#p4211151025)" d="M 249.694591 157.5 
L 250.721979 157.5 
L 250.721979 154.1025 
L 249.694591 154.1025 
z
" style="fill:#e24a33;opacity:0.2;"/>
   </g>
   <g id="patch_112">
    <path clip-path="url(#p4211151025)" d="M 250.978826 157.5 
L 252.006214 157.5 
L 252.006214 157.5 
L 250.978826 157.5 
z
" style="fill:#e24a33;opacity:0.2;"/>
   </g>
   <g id="patch_113">
    <path clip-path="url(#p4211151025)" d="M 252.263061 157.5 
L 253.290449 157.5 
L 253.290449 157.5 
L 252.263061 157.5 
z
" style="fill:#e24a33;opacity:0.2;"/>
   </g>
   <g id="patch_114">
    <path clip-path="url(#p4211151025)" d="M 253.547296 157.5 
L 254.574684 157.5 
L 254.574684 157.5 
L 253.547296 157.5 
z
" style="fill:#e24a33;opacity:0.2;"/>
   </g>
   <g id="patch_115">
    <path clip-path="url(#p4211151025)" d="M 254.83153 157.5 
L 255.858918 157.5 
L 255.858918 157.5 
L 254.83153 157.5 
z
" style="fill:#e24a33;opacity:0.2;"/>
   </g>
   <g id="patch_116">
    <path clip-path="url(#p4211151025)" d="M 256.115765 157.5 
L 257.143153 157.5 
L 257.143153 150.705 
L 256.115765 150.705 
z
" style="fill:#e24a33;opacity:0.2;"/>
   </g>
   <g id="patch_117">
    <path clip-path="url(#p4211151025)" d="M 257.4 157.5 
L 258.427388 157.5 
L 258.427388 154.1025 
L 257.4 154.1025 
z
" style="fill:#e24a33;opacity:0.2;"/>
   </g>
   <g id="patch_118">
    <path clip-path="url(#p4211151025)" d="M 258.684235 157.5 
L 259.711623 157.5 
L 259.711623 154.1025 
L 258.684235 154.1025 
z
" style="fill:#e24a33;opacity:0.2;"/>
   </g>
   <g id="patch_119">
    <path clip-path="url(#p4211151025)" d="M 259.96847 157.5 
L 260.995857 157.5 
L 260.995857 157.5 
L 259.96847 157.5 
z
" style="fill:#e24a33;opacity:0.2;"/>
   </g>
   <g id="patch_120">
    <path clip-path="url(#p4211151025)" d="M 261.252704 157.5 
L 262.280092 157.5 
L 262.280092 150.705 
L 261.252704 150.705 
z
" style="fill:#e24a33;opacity:0.2;"/>
   </g>
   <g id="patch_121">
    <path clip-path="url(#p4211151025)" d="M 262.536939 157.5 
L 263.564327 157.5 
L 263.564327 157.5 
L 262.536939 157.5 
z
" style="fill:#e24a33;opacity:0.2;"/>
   </g>
   <g id="patch_122">
    <path clip-path="url(#p4211151025)" d="M 263.821174 157.5 
L 264.848562 157.5 
L 264.848562 154.1025 
L 263.821174 154.1025 
z
" style="fill:#e24a33;opacity:0.2;"/>
   </g>
   <g id="patch_123">
    <path clip-path="url(#p4211151025)" d="M 265.105409 157.5 
L 266.132796 157.5 
L 266.132796 157.5 
L 265.105409 157.5 
z
" style="fill:#e24a33;opacity:0.2;"/>
   </g>
   <g id="patch_124">
    <path clip-path="url(#p4211151025)" d="M 266.389643 157.5 
L 267.417031 157.5 
L 267.417031 157.5 
L 266.389643 157.5 
z
" style="fill:#e24a33;opacity:0.2;"/>
   </g>
   <g id="patch_125">
    <path clip-path="url(#p4211151025)" d="M 267.673878 157.5 
L 268.701266 157.5 
L 268.701266 154.1025 
L 267.673878 154.1025 
z
" style="fill:#e24a33;opacity:0.2;"/>
   </g>
   <g id="patch_126">
    <path clip-path="url(#p4211151025)" d="M 268.958113 157.5 
L 269.985501 157.5 
L 269.985501 157.5 
L 268.958113 157.5 
z
" style="fill:#e24a33;opacity:0.2;"/>
   </g>
   <g id="patch_127">
    <path clip-path="url(#p4211151025)" d="M 270.242348 157.5 
L 271.269735 157.5 
L 271.269735 150.705 
L 270.242348 150.705 
z
" style="fill:#e24a33;opacity:0.2;"/>
   </g>
   <g id="patch_128">
    <path clip-path="url(#p4211151025)" d="M 271.526582 157.5 
L 272.55397 157.5 
L 272.55397 157.5 
L 271.526582 157.5 
z
" style="fill:#e24a33;opacity:0.2;"/>
   </g>
   <g id="patch_129">
    <path clip-path="url(#p4211151025)" d="M 272.810817 157.5 
L 273.838205 157.5 
L 273.838205 154.1025 
L 272.810817 154.1025 
z
" style="fill:#e24a33;opacity:0.2;"/>
   </g>
   <g id="patch_130">
    <path clip-path="url(#p4211151025)" d="M 274.095052 157.5 
L 275.12244 157.5 
L 275.12244 150.705 
L 274.095052 150.705 
z
" style="fill:#e24a33;opacity:0.2;"/>
   </g>
   <g id="patch_131">
    <path clip-path="url(#p4211151025)" d="M 275.379287 157.5 
L 276.406674 157.5 
L 276.406674 157.5 
L 275.379287 157.5 
z
" style="fill:#e24a33;opacity:0.2;"/>
   </g>
   <g id="patch_132">
    <path clip-path="url(#p4211151025)" d="M 276.663521 157.5 
L 277.690909 157.5 
L 277.690909 157.5 
L 276.663521 157.5 
z
" style="fill:#e24a33;opacity:0.2;"/>
   </g>
   <g id="patch_133">
    <path clip-path="url(#p4211151025)" d="M 277.947756 157.5 
L 278.975144 157.5 
L 278.975144 157.5 
L 277.947756 157.5 
z
" style="fill:#e24a33;opacity:0.2;"/>
   </g>
   <g id="patch_134">
    <path clip-path="url(#p4211151025)" d="M 279.231991 157.5 
L 280.259379 157.5 
L 280.259379 157.5 
L 279.231991 157.5 
z
" style="fill:#e24a33;opacity:0.2;"/>
   </g>
   <g id="patch_135">
    <path clip-path="url(#p4211151025)" d="M 280.516226 157.5 
L 281.543613 157.5 
L 281.543613 154.1025 
L 280.516226 154.1025 
z
" style="fill:#e24a33;opacity:0.2;"/>
   </g>
   <g id="patch_136">
    <path clip-path="url(#p4211151025)" d="M 281.80046 157.5 
L 282.827848 157.5 
L 282.827848 154.1025 
L 281.80046 154.1025 
z
" style="fill:#e24a33;opacity:0.2;"/>
   </g>
   <g id="patch_137">
    <path clip-path="url(#p4211151025)" d="M 283.084695 157.5 
L 284.112083 157.5 
L 284.112083 154.1025 
L 283.084695 154.1025 
z
" style="fill:#e24a33;opacity:0.2;"/>
   </g>
   <g id="patch_138">
    <path clip-path="url(#p4211151025)" d="M 284.36893 157.5 
L 285.396318 157.5 
L 285.396318 154.1025 
L 284.36893 154.1025 
z
" style="fill:#e24a33;opacity:0.2;"/>
   </g>
   <g id="patch_139">
    <path clip-path="url(#p4211151025)" d="M 285.653165 157.5 
L 286.680552 157.5 
L 286.680552 157.5 
L 285.653165 157.5 
z
" style="fill:#e24a33;opacity:0.2;"/>
   </g>
   <g id="patch_140">
    <path clip-path="url(#p4211151025)" d="M 286.937399 157.5 
L 287.964787 157.5 
L 287.964787 157.5 
L 286.937399 157.5 
z
" style="fill:#e24a33;opacity:0.2;"/>
   </g>
   <g id="patch_141">
    <path clip-path="url(#p4211151025)" d="M 288.221634 157.5 
L 289.249022 157.5 
L 289.249022 157.5 
L 288.221634 157.5 
z
" style="fill:#e24a33;opacity:0.2;"/>
   </g>
   <g id="patch_142">
    <path clip-path="url(#p4211151025)" d="M 289.505869 157.5 
L 290.533257 157.5 
L 290.533257 157.5 
L 289.505869 157.5 
z
" style="fill:#e24a33;opacity:0.2;"/>
   </g>
   <g id="patch_143">
    <path clip-path="url(#p4211151025)" d="M 290.790104 157.5 
L 291.817491 157.5 
L 291.817491 157.5 
L 290.790104 157.5 
z
" style="fill:#e24a33;opacity:0.2;"/>
   </g>
   <g id="patch_144">
    <path clip-path="url(#p4211151025)" d="M 292.074338 157.5 
L 293.101726 157.5 
L 293.101726 154.1025 
L 292.074338 154.1025 
z
" style="fill:#e24a33;opacity:0.2;"/>
   </g>
   <g id="patch_145">
    <path clip-path="url(#p4211151025)" d="M 293.358573 157.5 
L 294.385961 157.5 
L 294.385961 150.705 
L 293.358573 150.705 
z
" style="fill:#e24a33;opacity:0.2;"/>
   </g>
   <g id="patch_146">
    <path clip-path="url(#p4211151025)" d="M 294.642808 157.5 
L 295.670196 157.5 
L 295.670196 157.5 
L 294.642808 157.5 
z
" style="fill:#e24a33;opacity:0.2;"/>
   </g>
   <g id="patch_147">
    <path clip-path="url(#p4211151025)" d="M 295.927043 157.5 
L 296.95443 157.5 
L 296.95443 154.1025 
L 295.927043 154.1025 
z
" style="fill:#e24a33;opacity:0.2;"/>
   </g>
   <g id="patch_148">
    <path clip-path="url(#p4211151025)" d="M 297.211277 157.5 
L 298.238665 157.5 
L 298.238665 157.5 
L 297.211277 157.5 
z
" style="fill:#e24a33;opacity:0.2;"/>
   </g>
   <g id="patch_149">
    <path clip-path="url(#p4211151025)" d="M 298.495512 157.5 
L 299.5229 157.5 
L 299.5229 157.5 
L 298.495512 157.5 
z
" style="fill:#e24a33;opacity:0.2;"/>
   </g>
   <g id="patch_150">
    <path clip-path="url(#p4211151025)" d="M 299.779747 157.5 
L 300.807135 157.5 
L 300.807135 157.5 
L 299.779747 157.5 
z
" style="fill:#e24a33;opacity:0.2;"/>
   </g>
   <g id="patch_151">
    <path clip-path="url(#p4211151025)" d="M 301.063982 157.5 
L 302.091369 157.5 
L 302.091369 154.1025 
L 301.063982 154.1025 
z
" style="fill:#e24a33;opacity:0.2;"/>
   </g>
   <g id="patch_152">
    <path clip-path="url(#p4211151025)" d="M 302.348216 157.5 
L 303.375604 157.5 
L 303.375604 154.1025 
L 302.348216 154.1025 
z
" style="fill:#e24a33;opacity:0.2;"/>
   </g>
   <g id="patch_153">
    <path clip-path="url(#p4211151025)" d="M 303.632451 157.5 
L 304.659839 157.5 
L 304.659839 154.1025 
L 303.632451 154.1025 
z
" style="fill:#e24a33;opacity:0.2;"/>
   </g>
   <g id="patch_154">
    <path clip-path="url(#p4211151025)" d="M 304.916686 157.5 
L 305.944074 157.5 
L 305.944074 157.5 
L 304.916686 157.5 
z
" style="fill:#e24a33;opacity:0.2;"/>
   </g>
   <g id="patch_155">
    <path clip-path="url(#p4211151025)" d="M 306.200921 157.5 
L 307.228308 157.5 
L 307.228308 157.5 
L 306.200921 157.5 
z
" style="fill:#e24a33;opacity:0.2;"/>
   </g>
   <g id="patch_156">
    <path clip-path="url(#p4211151025)" d="M 307.485155 157.5 
L 308.512543 157.5 
L 308.512543 157.5 
L 307.485155 157.5 
z
" style="fill:#e24a33;opacity:0.2;"/>
   </g>
   <g id="patch_157">
    <path clip-path="url(#p4211151025)" d="M 308.76939 157.5 
L 309.796778 157.5 
L 309.796778 157.5 
L 308.76939 157.5 
z
" style="fill:#e24a33;opacity:0.2;"/>
   </g>
   <g id="patch_158">
    <path clip-path="url(#p4211151025)" d="M 310.053625 157.5 
L 311.081013 157.5 
L 311.081013 154.1025 
L 310.053625 154.1025 
z
" style="fill:#e24a33;opacity:0.2;"/>
   </g>
   <g id="patch_159">
    <path clip-path="url(#p4211151025)" d="M 311.33786 157.5 
L 312.365247 157.5 
L 312.365247 157.5 
L 311.33786 157.5 
z
" style="fill:#e24a33;opacity:0.2;"/>
   </g>
   <g id="patch_160">
    <path clip-path="url(#p4211151025)" d="M 312.622094 157.5 
L 313.649482 157.5 
L 313.649482 154.1025 
L 312.622094 154.1025 
z
" style="fill:#e24a33;opacity:0.2;"/>
   </g>
   <g id="patch_161">
    <path clip-path="url(#p4211151025)" d="M 313.906329 157.5 
L 314.933717 157.5 
L 314.933717 157.5 
L 313.906329 157.5 
z
" style="fill:#e24a33;opacity:0.2;"/>
   </g>
   <g id="patch_162">
    <path clip-path="url(#p4211151025)" d="M 315.190564 157.5 
L 316.217952 157.5 
L 316.217952 157.5 
L 315.190564 157.5 
z
" style="fill:#e24a33;opacity:0.2;"/>
   </g>
   <g id="patch_163">
    <path clip-path="url(#p4211151025)" d="M 316.474799 157.5 
L 317.502186 157.5 
L 317.502186 157.5 
L 316.474799 157.5 
z
" style="fill:#e24a33;opacity:0.2;"/>
   </g>
   <g id="patch_164">
    <path clip-path="url(#p4211151025)" d="M 317.759033 157.5 
L 318.786421 157.5 
L 318.786421 157.5 
L 317.759033 157.5 
z
" style="fill:#e24a33;opacity:0.2;"/>
   </g>
   <g id="patch_165">
    <path clip-path="url(#p4211151025)" d="M 319.043268 157.5 
L 320.070656 157.5 
L 320.070656 157.5 
L 319.043268 157.5 
z
" style="fill:#e24a33;opacity:0.2;"/>
   </g>
   <g id="patch_166">
    <path clip-path="url(#p4211151025)" d="M 320.327503 157.5 
L 321.354891 157.5 
L 321.354891 157.5 
L 320.327503 157.5 
z
" style="fill:#e24a33;opacity:0.2;"/>
   </g>
   <g id="patch_167">
    <path clip-path="url(#p4211151025)" d="M 321.611738 157.5 
L 322.639125 157.5 
L 322.639125 157.5 
L 321.611738 157.5 
z
" style="fill:#e24a33;opacity:0.2;"/>
   </g>
   <g id="patch_168">
    <path clip-path="url(#p4211151025)" d="M 322.895972 157.5 
L 323.92336 157.5 
L 323.92336 157.5 
L 322.895972 157.5 
z
" style="fill:#e24a33;opacity:0.2;"/>
   </g>
   <g id="patch_169">
    <path clip-path="url(#p4211151025)" d="M 324.180207 157.5 
L 325.207595 157.5 
L 325.207595 154.1025 
L 324.180207 154.1025 
z
" style="fill:#e24a33;opacity:0.2;"/>
   </g>
   <g id="patch_170">
    <path clip-path="url(#p4211151025)" d="M 325.464442 157.5 
L 326.49183 157.5 
L 326.49183 157.5 
L 325.464442 157.5 
z
" style="fill:#e24a33;opacity:0.2;"/>
   </g>
   <g id="patch_171">
    <path clip-path="url(#p4211151025)" d="M 326.748677 157.5 
L 327.776064 157.5 
L 327.776064 154.1025 
L 326.748677 154.1025 
z
" style="fill:#e24a33;opacity:0.2;"/>
   </g>
   <g id="patch_172">
    <path clip-path="url(#p4211151025)" d="M 328.032911 157.5 
L 329.060299 157.5 
L 329.060299 154.1025 
L 328.032911 154.1025 
z
" style="fill:#e24a33;opacity:0.2;"/>
   </g>
   <g id="patch_173">
    <path clip-path="url(#p4211151025)" d="M 329.317146 157.5 
L 330.344534 157.5 
L 330.344534 157.5 
L 329.317146 157.5 
z
" style="fill:#e24a33;opacity:0.2;"/>
   </g>
   <g id="patch_174">
    <path clip-path="url(#p4211151025)" d="M 330.601381 157.5 
L 331.628769 157.5 
L 331.628769 150.705 
L 330.601381 150.705 
z
" style="fill:#e24a33;opacity:0.2;"/>
   </g>
   <g id="patch_175">
    <path clip-path="url(#p4211151025)" d="M 331.885616 157.5 
L 332.913003 157.5 
L 332.913003 154.1025 
L 331.885616 154.1025 
z
" style="fill:#e24a33;opacity:0.2;"/>
   </g>
   <g id="patch_176">
    <path clip-path="url(#p4211151025)" d="M 333.16985 157.5 
L 334.197238 157.5 
L 334.197238 157.5 
L 333.16985 157.5 
z
" style="fill:#e24a33;opacity:0.2;"/>
   </g>
   <g id="patch_177">
    <path clip-path="url(#p4211151025)" d="M 334.454085 157.5 
L 335.481473 157.5 
L 335.481473 154.1025 
L 334.454085 154.1025 
z
" style="fill:#e24a33;opacity:0.2;"/>
   </g>
   <g id="patch_178">
    <path clip-path="url(#p4211151025)" d="M 335.73832 157.5 
L 336.765708 157.5 
L 336.765708 157.5 
L 335.73832 157.5 
z
" style="fill:#e24a33;opacity:0.2;"/>
   </g>
   <g id="patch_179">
    <path clip-path="url(#p4211151025)" d="M 337.022555 157.5 
L 338.049942 157.5 
L 338.049942 157.5 
L 337.022555 157.5 
z
" style="fill:#e24a33;opacity:0.2;"/>
   </g>
   <g id="patch_180">
    <path clip-path="url(#p4211151025)" d="M 338.306789 157.5 
L 339.334177 157.5 
L 339.334177 157.5 
L 338.306789 157.5 
z
" style="fill:#e24a33;opacity:0.2;"/>
   </g>
   <g id="patch_181">
    <path clip-path="url(#p4211151025)" d="M 339.591024 157.5 
L 340.618412 157.5 
L 340.618412 150.705 
L 339.591024 150.705 
z
" style="fill:#e24a33;opacity:0.2;"/>
   </g>
   <g id="patch_182">
    <path clip-path="url(#p4211151025)" d="M 340.875259 157.5 
L 341.902647 157.5 
L 341.902647 150.705 
L 340.875259 150.705 
z
" style="fill:#e24a33;opacity:0.2;"/>
   </g>
   <g id="patch_183">
    <path clip-path="url(#p4211151025)" d="M 342.159494 157.5 
L 343.186881 157.5 
L 343.186881 154.1025 
L 342.159494 154.1025 
z
" style="fill:#e24a33;opacity:0.2;"/>
   </g>
   <g id="patch_184">
    <path clip-path="url(#p4211151025)" d="M 343.443728 157.5 
L 344.471116 157.5 
L 344.471116 154.1025 
L 343.443728 154.1025 
z
" style="fill:#e24a33;opacity:0.2;"/>
   </g>
   <g id="patch_185">
    <path clip-path="url(#p4211151025)" d="M 344.727963 157.5 
L 345.755351 157.5 
L 345.755351 154.1025 
L 344.727963 154.1025 
z
" style="fill:#e24a33;opacity:0.2;"/>
   </g>
   <g id="patch_186">
    <path clip-path="url(#p4211151025)" d="M 346.012198 157.5 
L 347.039586 157.5 
L 347.039586 157.5 
L 346.012198 157.5 
z
" style="fill:#e24a33;opacity:0.2;"/>
   </g>
   <g id="patch_187">
    <path clip-path="url(#p4211151025)" d="M 347.296433 157.5 
L 348.32382 157.5 
L 348.32382 154.1025 
L 347.296433 154.1025 
z
" style="fill:#e24a33;opacity:0.2;"/>
   </g>
   <g id="patch_188">
    <path clip-path="url(#p4211151025)" d="M 348.580667 157.5 
L 349.608055 157.5 
L 349.608055 157.5 
L 348.580667 157.5 
z
" style="fill:#e24a33;opacity:0.2;"/>
   </g>
   <g id="patch_189">
    <path clip-path="url(#p4211151025)" d="M 349.864902 157.5 
L 350.89229 157.5 
L 350.89229 154.1025 
L 349.864902 154.1025 
z
" style="fill:#e24a33;opacity:0.2;"/>
   </g>
   <g id="patch_190">
    <path clip-path="url(#p4211151025)" d="M 351.149137 157.5 
L 352.176525 157.5 
L 352.176525 157.5 
L 351.149137 157.5 
z
" style="fill:#e24a33;opacity:0.2;"/>
   </g>
   <g id="patch_191">
    <path clip-path="url(#p4211151025)" d="M 352.433372 157.5 
L 353.460759 157.5 
L 353.460759 157.5 
L 352.433372 157.5 
z
" style="fill:#e24a33;opacity:0.2;"/>
   </g>
   <g id="patch_192">
    <path clip-path="url(#p4211151025)" d="M 353.717606 157.5 
L 354.744994 157.5 
L 354.744994 154.1025 
L 353.717606 154.1025 
z
" style="fill:#e24a33;opacity:0.2;"/>
   </g>
   <g id="patch_193">
    <path clip-path="url(#p4211151025)" d="M 355.001841 157.5 
L 356.029229 157.5 
L 356.029229 154.1025 
L 355.001841 154.1025 
z
" style="fill:#e24a33;opacity:0.2;"/>
   </g>
   <g id="patch_194">
    <path clip-path="url(#p4211151025)" d="M 356.286076 157.5 
L 357.313464 157.5 
L 357.313464 157.5 
L 356.286076 157.5 
z
" style="fill:#e24a33;opacity:0.2;"/>
   </g>
   <g id="patch_195">
    <path clip-path="url(#p4211151025)" d="M 357.570311 157.5 
L 358.597699 157.5 
L 358.597699 157.5 
L 357.570311 157.5 
z
" style="fill:#e24a33;opacity:0.2;"/>
   </g>
   <g id="patch_196">
    <path clip-path="url(#p4211151025)" d="M 358.854545 157.5 
L 359.881933 157.5 
L 359.881933 154.1025 
L 358.854545 154.1025 
z
" style="fill:#e24a33;opacity:0.2;"/>
   </g>
   <g id="patch_197">
    <path clip-path="url(#p4211151025)" d="M 360.13878 157.5 
L 361.166168 157.5 
L 361.166168 157.5 
L 360.13878 157.5 
z
" style="fill:#e24a33;opacity:0.2;"/>
   </g>
   <g id="patch_198">
    <path clip-path="url(#p4211151025)" d="M 361.423015 157.5 
L 362.450403 157.5 
L 362.450403 157.5 
L 361.423015 157.5 
z
" style="fill:#e24a33;opacity:0.2;"/>
   </g>
   <g id="patch_199">
    <path clip-path="url(#p4211151025)" d="M 362.70725 157.5 
L 363.734638 157.5 
L 363.734638 157.5 
L 362.70725 157.5 
z
" style="fill:#e24a33;opacity:0.2;"/>
   </g>
   <g id="patch_200">
    <path clip-path="url(#p4211151025)" d="M 363.991484 157.5 
L 365.018872 157.5 
L 365.018872 157.5 
L 363.991484 157.5 
z
" style="fill:#e24a33;opacity:0.2;"/>
   </g>
   <g id="patch_201">
    <path clip-path="url(#p4211151025)" d="M 365.275719 157.5 
L 366.303107 157.5 
L 366.303107 154.1025 
L 365.275719 154.1025 
z
" style="fill:#e24a33;opacity:0.2;"/>
   </g>
   <g id="patch_202">
    <path clip-path="url(#p4211151025)" d="M 366.559954 157.5 
L 367.587342 157.5 
L 367.587342 157.5 
L 366.559954 157.5 
z
" style="fill:#e24a33;opacity:0.2;"/>
   </g>
   <g id="patch_203">
    <path clip-path="url(#p4211151025)" d="M 367.844189 157.5 
L 368.871577 157.5 
L 368.871577 154.1025 
L 367.844189 154.1025 
z
" style="fill:#e24a33;opacity:0.2;"/>
   </g>
   <g id="patch_204">
    <path clip-path="url(#p4211151025)" d="M 369.128423 157.5 
L 370.155811 157.5 
L 370.155811 154.1025 
L 369.128423 154.1025 
z
" style="fill:#e24a33;opacity:0.2;"/>
   </g>
   <g id="patch_205">
    <path clip-path="url(#p4211151025)" d="M 370.412658 157.5 
L 371.440046 157.5 
L 371.440046 154.1025 
L 370.412658 154.1025 
z
" style="fill:#e24a33;opacity:0.2;"/>
   </g>
   <g id="patch_206">
    <path clip-path="url(#p4211151025)" d="M 371.696893 157.5 
L 372.724281 157.5 
L 372.724281 157.5 
L 371.696893 157.5 
z
" style="fill:#e24a33;opacity:0.2;"/>
   </g>
   <g id="patch_207">
    <path clip-path="url(#p4211151025)" d="M 372.981128 157.5 
L 374.008516 157.5 
L 374.008516 157.5 
L 372.981128 157.5 
z
" style="fill:#e24a33;opacity:0.2;"/>
   </g>
   <g id="patch_208">
    <path clip-path="url(#p4211151025)" d="M 374.265362 157.5 
L 375.29275 157.5 
L 375.29275 157.5 
L 374.265362 157.5 
z
" style="fill:#e24a33;opacity:0.2;"/>
   </g>
   <g id="patch_209">
    <path clip-path="url(#p4211151025)" d="M 375.549597 157.5 
L 376.576985 157.5 
L 376.576985 157.5 
L 375.549597 157.5 
z
" style="fill:#e24a33;opacity:0.2;"/>
   </g>
   <g id="patch_210">
    <path clip-path="url(#p4211151025)" d="M 376.833832 157.5 
L 377.86122 157.5 
L 377.86122 157.5 
L 376.833832 157.5 
z
" style="fill:#e24a33;opacity:0.2;"/>
   </g>
   <g id="patch_211">
    <path clip-path="url(#p4211151025)" d="M 378.118067 157.5 
L 379.145455 157.5 
L 379.145455 157.5 
L 378.118067 157.5 
z
" style="fill:#e24a33;opacity:0.2;"/>
   </g>
   <g id="patch_212">
    <path clip-path="url(#p4211151025)" d="M 379.402301 157.5 
L 380.429689 157.5 
L 380.429689 157.5 
L 379.402301 157.5 
z
" style="fill:#e24a33;opacity:0.2;"/>
   </g>
   <g id="patch_213">
    <path clip-path="url(#p4211151025)" d="M 380.686536 157.5 
L 381.713924 157.5 
L 381.713924 157.5 
L 380.686536 157.5 
z
" style="fill:#e24a33;opacity:0.2;"/>
   </g>
   <g id="patch_214">
    <path clip-path="url(#p4211151025)" d="M 381.970771 157.5 
L 382.998159 157.5 
L 382.998159 154.1025 
L 381.970771 154.1025 
z
" style="fill:#e24a33;opacity:0.2;"/>
   </g>
   <g id="patch_215">
    <path clip-path="url(#p4211151025)" d="M 383.255006 157.5 
L 384.282394 157.5 
L 384.282394 157.5 
L 383.255006 157.5 
z
" style="fill:#e24a33;opacity:0.2;"/>
   </g>
   <g id="patch_216">
    <path clip-path="url(#p4211151025)" d="M 384.539241 157.5 
L 385.566628 157.5 
L 385.566628 154.1025 
L 384.539241 154.1025 
z
" style="fill:#e24a33;opacity:0.2;"/>
   </g>
   <g id="patch_217">
    <path clip-path="url(#p4211151025)" d="M 385.823475 157.5 
L 386.850863 157.5 
L 386.850863 150.705 
L 385.823475 150.705 
z
" style="fill:#e24a33;opacity:0.2;"/>
   </g>
   <g id="patch_218">
    <path clip-path="url(#p4211151025)" d="M 387.10771 157.5 
L 388.135098 157.5 
L 388.135098 157.5 
L 387.10771 157.5 
z
" style="fill:#e24a33;opacity:0.2;"/>
   </g>
   <g id="patch_219">
    <path clip-path="url(#p4211151025)" d="M 388.391945 157.5 
L 389.419333 157.5 
L 389.419333 157.5 
L 388.391945 157.5 
z
" style="fill:#e24a33;opacity:0.2;"/>
   </g>
   <g id="patch_220">
    <path clip-path="url(#p4211151025)" d="M 389.67618 157.5 
L 390.703567 157.5 
L 390.703567 157.5 
L 389.67618 157.5 
z
" style="fill:#e24a33;opacity:0.2;"/>
   </g>
   <g id="patch_221">
    <path clip-path="url(#p4211151025)" d="M 390.960414 157.5 
L 391.987802 157.5 
L 391.987802 154.1025 
L 390.960414 154.1025 
z
" style="fill:#e24a33;opacity:0.2;"/>
   </g>
   <g id="patch_222">
    <path clip-path="url(#p4211151025)" d="M 392.244649 157.5 
L 393.272037 157.5 
L 393.272037 150.705 
L 392.244649 150.705 
z
" style="fill:#e24a33;opacity:0.2;"/>
   </g>
   <g id="patch_223">
    <path clip-path="url(#p4211151025)" d="M 393.528884 157.5 
L 394.556272 157.5 
L 394.556272 154.1025 
L 393.528884 154.1025 
z
" style="fill:#e24a33;opacity:0.2;"/>
   </g>
   <g id="patch_224">
    <path clip-path="url(#p4211151025)" d="M 394.813119 157.5 
L 395.840506 157.5 
L 395.840506 147.3075 
L 394.813119 147.3075 
z
" style="fill:#e24a33;opacity:0.2;"/>
   </g>
   <g id="patch_225">
    <path clip-path="url(#p4211151025)" d="M 396.097353 157.5 
L 397.124741 157.5 
L 397.124741 140.5125 
L 396.097353 140.5125 
z
" style="fill:#e24a33;opacity:0.2;"/>
   </g>
   <g id="patch_226">
    <path clip-path="url(#p4211151025)" d="M 397.381588 157.5 
L 398.408976 157.5 
L 398.408976 150.705 
L 397.381588 150.705 
z
" style="fill:#e24a33;opacity:0.2;"/>
   </g>
   <g id="patch_227">
    <path clip-path="url(#p4211151025)" d="M 398.665823 157.5 
L 399.693211 157.5 
L 399.693211 154.1025 
L 398.665823 154.1025 
z
" style="fill:#e24a33;opacity:0.2;"/>
   </g>
   <g id="patch_228">
    <path clip-path="url(#p4211151025)" d="M 399.950058 157.5 
L 400.977445 157.5 
L 400.977445 157.5 
L 399.950058 157.5 
z
" style="fill:#e24a33;opacity:0.2;"/>
   </g>
   <g id="patch_229">
    <path clip-path="url(#p4211151025)" d="M 401.234292 157.5 
L 402.26168 157.5 
L 402.26168 150.705 
L 401.234292 150.705 
z
" style="fill:#e24a33;opacity:0.2;"/>
   </g>
   <g id="patch_230">
    <path clip-path="url(#p4211151025)" d="M 402.518527 157.5 
L 403.545915 157.5 
L 403.545915 147.3075 
L 402.518527 147.3075 
z
" style="fill:#e24a33;opacity:0.2;"/>
   </g>
   <g id="patch_231">
    <path clip-path="url(#p4211151025)" d="M 403.802762 157.5 
L 404.83015 157.5 
L 404.83015 150.705 
L 403.802762 150.705 
z
" style="fill:#e24a33;opacity:0.2;"/>
   </g>
   <g id="patch_232">
    <path clip-path="url(#p4211151025)" d="M 405.086997 157.5 
L 406.114384 157.5 
L 406.114384 150.705 
L 405.086997 150.705 
z
" style="fill:#e24a33;opacity:0.2;"/>
   </g>
   <g id="patch_233">
    <path clip-path="url(#p4211151025)" d="M 406.371231 157.5 
L 407.398619 157.5 
L 407.398619 154.1025 
L 406.371231 154.1025 
z
" style="fill:#e24a33;opacity:0.2;"/>
   </g>
   <g id="patch_234">
    <path clip-path="url(#p4211151025)" d="M 407.655466 157.5 
L 408.682854 157.5 
L 408.682854 150.705 
L 407.655466 150.705 
z
" style="fill:#e24a33;opacity:0.2;"/>
   </g>
   <g id="patch_235">
    <path clip-path="url(#p4211151025)" d="M 408.939701 157.5 
L 409.967089 157.5 
L 409.967089 140.5125 
L 408.939701 140.5125 
z
" style="fill:#e24a33;opacity:0.2;"/>
   </g>
   <g id="patch_236">
    <path clip-path="url(#p4211151025)" d="M 410.223936 157.5 
L 411.251323 157.5 
L 411.251323 147.3075 
L 410.223936 147.3075 
z
" style="fill:#e24a33;opacity:0.2;"/>
   </g>
   <g id="patch_237">
    <path clip-path="url(#p4211151025)" d="M 411.50817 157.5 
L 412.535558 157.5 
L 412.535558 150.705 
L 411.50817 150.705 
z
" style="fill:#e24a33;opacity:0.2;"/>
   </g>
   <g id="patch_238">
    <path clip-path="url(#p4211151025)" d="M 412.792405 157.5 
L 413.819793 157.5 
L 413.819793 143.91 
L 412.792405 143.91 
z
" style="fill:#e24a33;opacity:0.2;"/>
   </g>
   <g id="patch_239">
    <path clip-path="url(#p4211151025)" d="M 414.07664 157.5 
L 415.104028 157.5 
L 415.104028 140.5125 
L 414.07664 140.5125 
z
" style="fill:#e24a33;opacity:0.2;"/>
   </g>
   <g id="patch_240">
    <path clip-path="url(#p4211151025)" d="M 415.360875 157.5 
L 416.388262 157.5 
L 416.388262 147.3075 
L 415.360875 147.3075 
z
" style="fill:#e24a33;opacity:0.2;"/>
   </g>
   <g id="patch_241">
    <path clip-path="url(#p4211151025)" d="M 416.645109 157.5 
L 417.672497 157.5 
L 417.672497 140.5125 
L 416.645109 140.5125 
z
" style="fill:#e24a33;opacity:0.2;"/>
   </g>
   <g id="patch_242">
    <path clip-path="url(#p4211151025)" d="M 417.929344 157.5 
L 418.956732 157.5 
L 418.956732 143.91 
L 417.929344 143.91 
z
" style="fill:#e24a33;opacity:0.2;"/>
   </g>
   <g id="patch_243">
    <path clip-path="url(#p4211151025)" d="M 419.213579 157.5 
L 420.240967 157.5 
L 420.240967 157.5 
L 419.213579 157.5 
z
" style="fill:#e24a33;opacity:0.2;"/>
   </g>
   <g id="patch_244">
    <path clip-path="url(#p4211151025)" d="M 420.497814 157.5 
L 421.525201 157.5 
L 421.525201 140.5125 
L 420.497814 140.5125 
z
" style="fill:#e24a33;opacity:0.2;"/>
   </g>
   <g id="patch_245">
    <path clip-path="url(#p4211151025)" d="M 421.782048 157.5 
L 422.809436 157.5 
L 422.809436 140.5125 
L 421.782048 140.5125 
z
" style="fill:#e24a33;opacity:0.2;"/>
   </g>
   <g id="patch_246">
    <path clip-path="url(#p4211151025)" d="M 423.066283 157.5 
L 424.093671 157.5 
L 424.093671 154.1025 
L 423.066283 154.1025 
z
" style="fill:#e24a33;opacity:0.2;"/>
   </g>
   <g id="patch_247">
    <path clip-path="url(#p4211151025)" d="M 424.350518 157.5 
L 425.377906 157.5 
L 425.377906 140.5125 
L 424.350518 140.5125 
z
" style="fill:#e24a33;opacity:0.2;"/>
   </g>
   <g id="patch_248">
    <path clip-path="url(#p4211151025)" d="M 425.634753 157.5 
L 426.66214 157.5 
L 426.66214 150.705 
L 425.634753 150.705 
z
" style="fill:#e24a33;opacity:0.2;"/>
   </g>
   <g id="patch_249">
    <path clip-path="url(#p4211151025)" d="M 426.918987 157.5 
L 427.946375 157.5 
L 427.946375 147.3075 
L 426.918987 147.3075 
z
" style="fill:#e24a33;opacity:0.2;"/>
   </g>
   <g id="patch_250">
    <path clip-path="url(#p4211151025)" d="M 428.203222 157.5 
L 429.23061 157.5 
L 429.23061 157.5 
L 428.203222 157.5 
z
" style="fill:#e24a33;opacity:0.2;"/>
   </g>
   <g id="patch_251">
    <path clip-path="url(#p4211151025)" d="M 429.487457 157.5 
L 430.514845 157.5 
L 430.514845 140.5125 
L 429.487457 140.5125 
z
" style="fill:#e24a33;opacity:0.2;"/>
   </g>
   <g id="patch_252">
    <path clip-path="url(#p4211151025)" d="M 430.771692 157.5 
L 431.799079 157.5 
L 431.799079 150.705 
L 430.771692 150.705 
z
" style="fill:#e24a33;opacity:0.2;"/>
   </g>
   <g id="patch_253">
    <path clip-path="url(#p4211151025)" d="M 432.055926 157.5 
L 433.083314 157.5 
L 433.083314 143.91 
L 432.055926 143.91 
z
" style="fill:#e24a33;opacity:0.2;"/>
   </g>
   <g id="patch_254">
    <path clip-path="url(#p4211151025)" d="M 433.340161 157.5 
L 434.367549 157.5 
L 434.367549 150.705 
L 433.340161 150.705 
z
" style="fill:#e24a33;opacity:0.2;"/>
   </g>
   <g id="patch_255">
    <path clip-path="url(#p4211151025)" d="M 434.624396 157.5 
L 435.651784 157.5 
L 435.651784 140.5125 
L 434.624396 140.5125 
z
" style="fill:#e24a33;opacity:0.2;"/>
   </g>
   <g id="patch_256">
    <path clip-path="url(#p4211151025)" d="M 435.908631 157.5 
L 436.936018 157.5 
L 436.936018 154.1025 
L 435.908631 154.1025 
z
" style="fill:#e24a33;opacity:0.2;"/>
   </g>
   <g id="patch_257">
    <path clip-path="url(#p4211151025)" d="M 437.192865 157.5 
L 438.220253 157.5 
L 438.220253 137.115 
L 437.192865 137.115 
z
" style="fill:#e24a33;opacity:0.2;"/>
   </g>
   <g id="patch_258">
    <path clip-path="url(#p4211151025)" d="M 438.4771 157.5 
L 439.504488 157.5 
L 439.504488 150.705 
L 438.4771 150.705 
z
" style="fill:#e24a33;opacity:0.2;"/>
   </g>
   <g id="patch_259">
    <path clip-path="url(#p4211151025)" d="M 439.761335 157.5 
L 440.788723 157.5 
L 440.788723 154.1025 
L 439.761335 154.1025 
z
" style="fill:#e24a33;opacity:0.2;"/>
   </g>
   <g id="patch_260">
    <path clip-path="url(#p4211151025)" d="M 441.04557 157.5 
L 442.072957 157.5 
L 442.072957 143.91 
L 441.04557 143.91 
z
" style="fill:#e24a33;opacity:0.2;"/>
   </g>
   <g id="patch_261">
    <path clip-path="url(#p4211151025)" d="M 442.329804 157.5 
L 443.357192 157.5 
L 443.357192 154.1025 
L 442.329804 154.1025 
z
" style="fill:#e24a33;opacity:0.2;"/>
   </g>
   <g id="patch_262">
    <path clip-path="url(#p4211151025)" d="M 443.614039 157.5 
L 444.641427 157.5 
L 444.641427 154.1025 
L 443.614039 154.1025 
z
" style="fill:#e24a33;opacity:0.2;"/>
   </g>
   <g id="patch_263">
    <path clip-path="url(#p4211151025)" d="M 444.898274 157.5 
L 445.925662 157.5 
L 445.925662 157.5 
L 444.898274 157.5 
z
" style="fill:#e24a33;opacity:0.2;"/>
   </g>
   <g id="patch_264">
    <path clip-path="url(#p4211151025)" d="M 446.182509 157.5 
L 447.209896 157.5 
L 447.209896 147.3075 
L 446.182509 147.3075 
z
" style="fill:#e24a33;opacity:0.2;"/>
   </g>
   <g id="patch_265">
    <path clip-path="url(#p4211151025)" d="M 447.466743 157.5 
L 448.494131 157.5 
L 448.494131 150.705 
L 447.466743 150.705 
z
" style="fill:#e24a33;opacity:0.2;"/>
   </g>
   <g id="patch_266">
    <path clip-path="url(#p4211151025)" d="M 448.750978 157.5 
L 449.778366 157.5 
L 449.778366 154.1025 
L 448.750978 154.1025 
z
" style="fill:#e24a33;opacity:0.2;"/>
   </g>
   <g id="patch_267">
    <path clip-path="url(#p4211151025)" d="M 450.035213 157.5 
L 451.062601 157.5 
L 451.062601 150.705 
L 450.035213 150.705 
z
" style="fill:#e24a33;opacity:0.2;"/>
   </g>
   <g id="patch_268">
    <path clip-path="url(#p4211151025)" d="M 451.319448 157.5 
L 452.346835 157.5 
L 452.346835 150.705 
L 451.319448 150.705 
z
" style="fill:#e24a33;opacity:0.2;"/>
   </g>
   <g id="patch_269">
    <path clip-path="url(#p4211151025)" d="M 452.603682 157.5 
L 453.63107 157.5 
L 453.63107 154.1025 
L 452.603682 154.1025 
z
" style="fill:#e24a33;opacity:0.2;"/>
   </g>
   <g id="patch_270">
    <path clip-path="url(#p4211151025)" d="M 453.887917 157.5 
L 454.915305 157.5 
L 454.915305 154.1025 
L 453.887917 154.1025 
z
" style="fill:#e24a33;opacity:0.2;"/>
   </g>
   <g id="patch_271">
    <path clip-path="url(#p4211151025)" d="M 455.172152 157.5 
L 456.19954 157.5 
L 456.19954 143.91 
L 455.172152 143.91 
z
" style="fill:#e24a33;opacity:0.2;"/>
   </g>
   <g id="patch_272">
    <path clip-path="url(#p4211151025)" d="M 456.456387 157.5 
L 457.483774 157.5 
L 457.483774 154.1025 
L 456.456387 154.1025 
z
" style="fill:#e24a33;opacity:0.2;"/>
   </g>
   <g id="patch_273">
    <path clip-path="url(#p4211151025)" d="M 457.740621 157.5 
L 458.768009 157.5 
L 458.768009 150.705 
L 457.740621 150.705 
z
" style="fill:#e24a33;opacity:0.2;"/>
   </g>
   <g id="patch_274">
    <path clip-path="url(#p4211151025)" d="M 459.024856 157.5 
L 460.052244 157.5 
L 460.052244 150.705 
L 459.024856 150.705 
z
" style="fill:#e24a33;opacity:0.2;"/>
   </g>
   <g id="patch_275">
    <path clip-path="url(#p4211151025)" d="M 460.309091 157.5 
L 461.336479 157.5 
L 461.336479 154.1025 
L 460.309091 154.1025 
z
" style="fill:#e24a33;opacity:0.2;"/>
   </g>
   <g id="patch_276">
    <path clip-path="url(#p4211151025)" d="M 461.593326 157.5 
L 462.620713 157.5 
L 462.620713 157.5 
L 461.593326 157.5 
z
" style="fill:#e24a33;opacity:0.2;"/>
   </g>
   <g id="patch_277">
    <path clip-path="url(#p4211151025)" d="M 462.87756 157.5 
L 463.904948 157.5 
L 463.904948 147.3075 
L 462.87756 147.3075 
z
" style="fill:#e24a33;opacity:0.2;"/>
   </g>
   <g id="patch_278">
    <path clip-path="url(#p4211151025)" d="M 464.161795 157.5 
L 465.189183 157.5 
L 465.189183 147.3075 
L 464.161795 147.3075 
z
" style="fill:#e24a33;opacity:0.2;"/>
   </g>
   <g id="patch_279">
    <path clip-path="url(#p4211151025)" d="M 465.44603 157.5 
L 466.473418 157.5 
L 466.473418 147.3075 
L 465.44603 147.3075 
z
" style="fill:#e24a33;opacity:0.2;"/>
   </g>
   <g id="patch_280">
    <path clip-path="url(#p4211151025)" d="M 466.730265 157.5 
L 467.757652 157.5 
L 467.757652 150.705 
L 466.730265 150.705 
z
" style="fill:#e24a33;opacity:0.2;"/>
   </g>
   <g id="patch_281">
    <path clip-path="url(#p4211151025)" d="M 468.014499 157.5 
L 469.041887 157.5 
L 469.041887 150.705 
L 468.014499 150.705 
z
" style="fill:#e24a33;opacity:0.2;"/>
   </g>
   <g id="patch_282">
    <path clip-path="url(#p4211151025)" d="M 469.298734 157.5 
L 470.326122 157.5 
L 470.326122 157.5 
L 469.298734 157.5 
z
" style="fill:#e24a33;opacity:0.2;"/>
   </g>
   <g id="patch_283">
    <path clip-path="url(#p4211151025)" d="M 470.582969 157.5 
L 471.610357 157.5 
L 471.610357 157.5 
L 470.582969 157.5 
z
" style="fill:#e24a33;opacity:0.2;"/>
   </g>
   <g id="patch_284">
    <path clip-path="url(#p4211151025)" d="M 471.867204 157.5 
L 472.894591 157.5 
L 472.894591 147.3075 
L 471.867204 147.3075 
z
" style="fill:#e24a33;opacity:0.2;"/>
   </g>
   <g id="patch_285">
    <path clip-path="url(#p4211151025)" d="M 473.151438 157.5 
L 474.178826 157.5 
L 474.178826 154.1025 
L 473.151438 154.1025 
z
" style="fill:#e24a33;opacity:0.2;"/>
   </g>
   <g id="patch_286">
    <path clip-path="url(#p4211151025)" d="M 474.435673 157.5 
L 475.463061 157.5 
L 475.463061 154.1025 
L 474.435673 154.1025 
z
" style="fill:#e24a33;opacity:0.2;"/>
   </g>
   <g id="patch_287">
    <path clip-path="url(#p4211151025)" d="M 475.719908 157.5 
L 476.747296 157.5 
L 476.747296 154.1025 
L 475.719908 154.1025 
z
" style="fill:#e24a33;opacity:0.2;"/>
   </g>
   <g id="patch_288">
    <path clip-path="url(#p4211151025)" d="M 477.004143 157.5 
L 478.03153 157.5 
L 478.03153 154.1025 
L 477.004143 154.1025 
z
" style="fill:#e24a33;opacity:0.2;"/>
   </g>
   <g id="patch_289">
    <path clip-path="url(#p4211151025)" d="M 478.288377 157.5 
L 479.315765 157.5 
L 479.315765 150.705 
L 478.288377 150.705 
z
" style="fill:#e24a33;opacity:0.2;"/>
   </g>
   <g id="patch_290">
    <path clip-path="url(#p4211151025)" d="M 479.572612 157.5 
L 480.6 157.5 
L 480.6 150.705 
L 479.572612 150.705 
z
" style="fill:#e24a33;opacity:0.2;"/>
   </g>
   <g id="patch_291">
    <path clip-path="url(#p4211151025)" d="M 480.856847 157.5 
L 481.884235 157.5 
L 481.884235 143.91 
L 480.856847 143.91 
z
" style="fill:#e24a33;opacity:0.2;"/>
   </g>
   <g id="patch_292">
    <path clip-path="url(#p4211151025)" d="M 482.141082 157.5 
L 483.16847 157.5 
L 483.16847 150.705 
L 482.141082 150.705 
z
" style="fill:#e24a33;opacity:0.2;"/>
   </g>
   <g id="patch_293">
    <path clip-path="url(#p4211151025)" d="M 483.425316 157.5 
L 484.452704 157.5 
L 484.452704 154.1025 
L 483.425316 154.1025 
z
" style="fill:#e24a33;opacity:0.2;"/>
   </g>
   <g id="patch_294">
    <path clip-path="url(#p4211151025)" d="M 484.709551 157.5 
L 485.736939 157.5 
L 485.736939 154.1025 
L 484.709551 154.1025 
z
" style="fill:#e24a33;opacity:0.2;"/>
   </g>
   <g id="patch_295">
    <path clip-path="url(#p4211151025)" d="M 485.993786 157.5 
L 487.021174 157.5 
L 487.021174 154.1025 
L 485.993786 154.1025 
z
" style="fill:#e24a33;opacity:0.2;"/>
   </g>
   <g id="patch_296">
    <path clip-path="url(#p4211151025)" d="M 487.278021 157.5 
L 488.305409 157.5 
L 488.305409 154.1025 
L 487.278021 154.1025 
z
" style="fill:#e24a33;opacity:0.2;"/>
   </g>
   <g id="patch_297">
    <path clip-path="url(#p4211151025)" d="M 488.562255 157.5 
L 489.589643 157.5 
L 489.589643 150.705 
L 488.562255 150.705 
z
" style="fill:#e24a33;opacity:0.2;"/>
   </g>
   <g id="patch_298">
    <path clip-path="url(#p4211151025)" d="M 489.84649 157.5 
L 490.873878 157.5 
L 490.873878 140.5125 
L 489.84649 140.5125 
z
" style="fill:#e24a33;opacity:0.2;"/>
   </g>
   <g id="patch_299">
    <path clip-path="url(#p4211151025)" d="M 491.130725 157.5 
L 492.158113 157.5 
L 492.158113 150.705 
L 491.130725 150.705 
z
" style="fill:#e24a33;opacity:0.2;"/>
   </g>
   <g id="patch_300">
    <path clip-path="url(#p4211151025)" d="M 492.41496 157.5 
L 493.442348 157.5 
L 493.442348 157.5 
L 492.41496 157.5 
z
" style="fill:#e24a33;opacity:0.2;"/>
   </g>
   <g id="patch_301">
    <path clip-path="url(#p4211151025)" d="M 493.699194 157.5 
L 494.726582 157.5 
L 494.726582 154.1025 
L 493.699194 154.1025 
z
" style="fill:#e24a33;opacity:0.2;"/>
   </g>
   <g id="patch_302">
    <path clip-path="url(#p4211151025)" d="M 494.983429 157.5 
L 496.010817 157.5 
L 496.010817 143.91 
L 494.983429 143.91 
z
" style="fill:#e24a33;opacity:0.2;"/>
   </g>
   <g id="patch_303">
    <path clip-path="url(#p4211151025)" d="M 496.267664 157.5 
L 497.295052 157.5 
L 497.295052 154.1025 
L 496.267664 154.1025 
z
" style="fill:#e24a33;opacity:0.2;"/>
   </g>
   <g id="patch_304">
    <path clip-path="url(#p4211151025)" d="M 497.551899 157.5 
L 498.579287 157.5 
L 498.579287 154.1025 
L 497.551899 154.1025 
z
" style="fill:#e24a33;opacity:0.2;"/>
   </g>
   <g id="patch_305">
    <path clip-path="url(#p4211151025)" d="M 498.836133 157.5 
L 499.863521 157.5 
L 499.863521 157.5 
L 498.836133 157.5 
z
" style="fill:#e24a33;opacity:0.2;"/>
   </g>
   <g id="patch_306">
    <path clip-path="url(#p4211151025)" d="M 500.120368 157.5 
L 501.147756 157.5 
L 501.147756 150.705 
L 500.120368 150.705 
z
" style="fill:#e24a33;opacity:0.2;"/>
   </g>
   <g id="patch_307">
    <path clip-path="url(#p4211151025)" d="M 501.404603 157.5 
L 502.431991 157.5 
L 502.431991 150.705 
L 501.404603 150.705 
z
" style="fill:#e24a33;opacity:0.2;"/>
   </g>
   <g id="patch_308">
    <path clip-path="url(#p4211151025)" d="M 502.688838 157.5 
L 503.716226 157.5 
L 503.716226 147.3075 
L 502.688838 147.3075 
z
" style="fill:#e24a33;opacity:0.2;"/>
   </g>
   <g id="patch_309">
    <path clip-path="url(#p4211151025)" d="M 503.973072 157.5 
L 505.00046 157.5 
L 505.00046 150.705 
L 503.973072 150.705 
z
" style="fill:#e24a33;opacity:0.2;"/>
   </g>
   <g id="patch_310">
    <path clip-path="url(#p4211151025)" d="M 505.257307 157.5 
L 506.284695 157.5 
L 506.284695 150.705 
L 505.257307 150.705 
z
" style="fill:#e24a33;opacity:0.2;"/>
   </g>
   <g id="patch_311">
    <path clip-path="url(#p4211151025)" d="M 506.541542 157.5 
L 507.56893 157.5 
L 507.56893 143.91 
L 506.541542 143.91 
z
" style="fill:#e24a33;opacity:0.2;"/>
   </g>
   <g id="patch_312">
    <path clip-path="url(#p4211151025)" d="M 507.825777 157.5 
L 508.853165 157.5 
L 508.853165 154.1025 
L 507.825777 154.1025 
z
" style="fill:#e24a33;opacity:0.2;"/>
   </g>
   <g id="patch_313">
    <path clip-path="url(#p4211151025)" d="M 509.110012 157.5 
L 510.137399 157.5 
L 510.137399 147.3075 
L 509.110012 147.3075 
z
" style="fill:#e24a33;opacity:0.2;"/>
   </g>
   <g id="patch_314">
    <path clip-path="url(#p4211151025)" d="M 510.394246 157.5 
L 511.421634 157.5 
L 511.421634 150.705 
L 510.394246 150.705 
z
" style="fill:#e24a33;opacity:0.2;"/>
   </g>
   <g id="patch_315">
    <path clip-path="url(#p4211151025)" d="M 511.678481 157.5 
L 512.705869 157.5 
L 512.705869 154.1025 
L 511.678481 154.1025 
z
" style="fill:#e24a33;opacity:0.2;"/>
   </g>
   <g id="patch_316">
    <path clip-path="url(#p4211151025)" d="M 512.962716 157.5 
L 513.990104 157.5 
L 513.990104 137.115 
L 512.962716 137.115 
z
" style="fill:#e24a33;opacity:0.2;"/>
   </g>
   <g id="patch_317">
    <path clip-path="url(#p4211151025)" d="M 514.246951 157.5 
L 515.274338 157.5 
L 515.274338 154.1025 
L 514.246951 154.1025 
z
" style="fill:#e24a33;opacity:0.2;"/>
   </g>
   <g id="patch_318">
    <path clip-path="url(#p4211151025)" d="M 515.531185 157.5 
L 516.558573 157.5 
L 516.558573 147.3075 
L 515.531185 147.3075 
z
" style="fill:#e24a33;opacity:0.2;"/>
   </g>
   <g id="patch_319">
    <path clip-path="url(#p4211151025)" d="M 516.81542 157.5 
L 517.842808 157.5 
L 517.842808 157.5 
L 516.81542 157.5 
z
" style="fill:#e24a33;opacity:0.2;"/>
   </g>
   <g id="patch_320">
    <path clip-path="url(#p4211151025)" d="M 518.099655 157.5 
L 519.127043 157.5 
L 519.127043 157.5 
L 518.099655 157.5 
z
" style="fill:#e24a33;opacity:0.2;"/>
   </g>
   <g id="patch_321">
    <path clip-path="url(#p4211151025)" d="M 519.38389 157.5 
L 520.411277 157.5 
L 520.411277 147.3075 
L 519.38389 147.3075 
z
" style="fill:#e24a33;opacity:0.2;"/>
   </g>
   <g id="patch_322">
    <path clip-path="url(#p4211151025)" d="M 520.668124 157.5 
L 521.695512 157.5 
L 521.695512 133.7175 
L 520.668124 133.7175 
z
" style="fill:#e24a33;opacity:0.2;"/>
   </g>
   <g id="patch_323">
    <path clip-path="url(#p4211151025)" d="M 521.952359 157.5 
L 522.979747 157.5 
L 522.979747 143.91 
L 521.952359 143.91 
z
" style="fill:#e24a33;opacity:0.2;"/>
   </g>
   <g id="patch_324">
    <path clip-path="url(#p4211151025)" d="M 523.236594 157.5 
L 524.263982 157.5 
L 524.263982 140.5125 
L 523.236594 140.5125 
z
" style="fill:#e24a33;opacity:0.2;"/>
   </g>
   <g id="patch_325">
    <path clip-path="url(#p4211151025)" d="M 524.520829 157.5 
L 525.548216 157.5 
L 525.548216 143.91 
L 524.520829 143.91 
z
" style="fill:#e24a33;opacity:0.2;"/>
   </g>
   <g id="patch_326">
    <path clip-path="url(#p4211151025)" d="M 525.805063 157.5 
L 526.832451 157.5 
L 526.832451 147.3075 
L 525.805063 147.3075 
z
" style="fill:#e24a33;opacity:0.2;"/>
   </g>
   <g id="patch_327">
    <path clip-path="url(#p4211151025)" d="M 527.089298 157.5 
L 528.116686 157.5 
L 528.116686 143.91 
L 527.089298 143.91 
z
" style="fill:#e24a33;opacity:0.2;"/>
   </g>
   <g id="patch_328">
    <path clip-path="url(#p4211151025)" d="M 528.373533 157.5 
L 529.400921 157.5 
L 529.400921 130.32 
L 528.373533 130.32 
z
" style="fill:#e24a33;opacity:0.2;"/>
   </g>
   <g id="patch_329">
    <path clip-path="url(#p4211151025)" d="M 529.657768 157.5 
L 530.685155 157.5 
L 530.685155 130.32 
L 529.657768 130.32 
z
" style="fill:#e24a33;opacity:0.2;"/>
   </g>
   <g id="patch_330">
    <path clip-path="url(#p4211151025)" d="M 530.942002 157.5 
L 531.96939 157.5 
L 531.96939 137.115 
L 530.942002 137.115 
z
" style="fill:#e24a33;opacity:0.2;"/>
   </g>
   <g id="patch_331">
    <path clip-path="url(#p4211151025)" d="M 532.226237 157.5 
L 533.253625 157.5 
L 533.253625 150.705 
L 532.226237 150.705 
z
" style="fill:#e24a33;opacity:0.2;"/>
   </g>
   <g id="patch_332">
    <path clip-path="url(#p4211151025)" d="M 533.510472 157.5 
L 534.53786 157.5 
L 534.53786 133.7175 
L 533.510472 133.7175 
z
" style="fill:#e24a33;opacity:0.2;"/>
   </g>
   <g id="patch_333">
    <path clip-path="url(#p4211151025)" d="M 534.794707 157.5 
L 535.822094 157.5 
L 535.822094 113.3325 
L 534.794707 113.3325 
z
" style="fill:#e24a33;opacity:0.2;"/>
   </g>
   <g id="patch_334">
    <path clip-path="url(#p4211151025)" d="M 536.078941 157.5 
L 537.106329 157.5 
L 537.106329 116.73 
L 536.078941 116.73 
z
" style="fill:#e24a33;opacity:0.2;"/>
   </g>
   <g id="patch_335">
    <path clip-path="url(#p4211151025)" d="M 537.363176 157.5 
L 538.390564 157.5 
L 538.390564 82.755 
L 537.363176 82.755 
z
" style="fill:#e24a33;opacity:0.2;"/>
   </g>
   <g id="patch_336">
    <path clip-path="url(#p4211151025)" d="M 538.647411 157.5 
L 539.674799 157.5 
L 539.674799 120.1275 
L 538.647411 120.1275 
z
" style="fill:#e24a33;opacity:0.2;"/>
   </g>
   <g id="patch_337">
    <path clip-path="url(#p4211151025)" d="M 539.931646 157.5 
L 540.959033 157.5 
L 540.959033 109.935 
L 539.931646 109.935 
z
" style="fill:#e24a33;opacity:0.2;"/>
   </g>
   <g id="patch_338">
    <path clip-path="url(#p4211151025)" d="M 541.21588 157.5 
L 542.243268 157.5 
L 542.243268 106.5375 
L 541.21588 106.5375 
z
" style="fill:#e24a33;opacity:0.2;"/>
   </g>
   <g id="patch_339">
    <path clip-path="url(#p4211151025)" d="M 542.500115 157.5 
L 543.527503 157.5 
L 543.527503 75.96 
L 542.500115 75.96 
z
" style="fill:#e24a33;opacity:0.2;"/>
   </g>
   <g id="patch_340">
    <path clip-path="url(#p4211151025)" d="M 543.78435 157.5 
L 544.811738 157.5 
L 544.811738 75.96 
L 543.78435 75.96 
z
" style="fill:#e24a33;opacity:0.2;"/>
   </g>
   <g id="patch_341">
    <path clip-path="url(#p4211151025)" d="M 545.068585 157.5 
L 546.095972 157.5 
L 546.095972 99.7425 
L 545.068585 99.7425 
z
" style="fill:#e24a33;opacity:0.2;"/>
   </g>
   <g id="patch_342">
    <path clip-path="url(#p4211151025)" d="M 546.352819 157.5 
L 547.380207 157.5 
L 547.380207 99.7425 
L 546.352819 99.7425 
z
" style="fill:#e24a33;opacity:0.2;"/>
   </g>
   <g id="patch_343">
    <path clip-path="url(#p4211151025)" d="M 547.637054 157.5 
L 548.664442 157.5 
L 548.664442 99.7425 
L 547.637054 99.7425 
z
" style="fill:#e24a33;opacity:0.2;"/>
   </g>
   <g id="patch_344">
    <path clip-path="url(#p4211151025)" d="M 548.921289 157.5 
L 549.948677 157.5 
L 549.948677 89.55 
L 548.921289 89.55 
z
" style="fill:#e24a33;opacity:0.2;"/>
   </g>
   <g id="patch_345">
    <path clip-path="url(#p4211151025)" d="M 550.205524 157.5 
L 551.232911 157.5 
L 551.232911 106.5375 
L 550.205524 106.5375 
z
" style="fill:#e24a33;opacity:0.2;"/>
   </g>
   <g id="patch_346">
    <path clip-path="url(#p4211151025)" d="M 551.489758 157.5 
L 552.517146 157.5 
L 552.517146 120.1275 
L 551.489758 120.1275 
z
" style="fill:#e24a33;opacity:0.2;"/>
   </g>
   <g id="patch_347">
    <path clip-path="url(#p4211151025)" d="M 552.773993 157.5 
L 553.801381 157.5 
L 553.801381 21.6 
L 552.773993 21.6 
z
" style="fill:#e24a33;opacity:0.2;"/>
   </g>
   <g id="patch_348">
    <path clip-path="url(#p4211151025)" d="M 554.058228 157.5 
L 555.085616 157.5 
L 555.085616 89.55 
L 554.058228 89.55 
z
" style="fill:#e24a33;opacity:0.2;"/>
   </g>
   <g id="patch_349">
    <path clip-path="url(#p4211151025)" d="M 555.342463 157.5 
L 556.36985 157.5 
L 556.36985 86.1525 
L 555.342463 86.1525 
z
" style="fill:#e24a33;opacity:0.2;"/>
   </g>
   <g id="patch_350">
    <path clip-path="url(#p4211151025)" d="M 556.626697 157.5 
L 557.654085 157.5 
L 557.654085 99.7425 
L 556.626697 99.7425 
z
" style="fill:#e24a33;opacity:0.2;"/>
   </g>
   <g id="patch_351">
    <path clip-path="url(#p4211151025)" d="M 557.910932 157.5 
L 558.93832 157.5 
L 558.93832 72.5625 
L 557.910932 72.5625 
z
" style="fill:#e24a33;opacity:0.2;"/>
   </g>
   <g id="patch_352">
    <path clip-path="url(#p4211151025)" d="M 559.195167 157.5 
L 560.222555 157.5 
L 560.222555 89.55 
L 559.195167 89.55 
z
" style="fill:#e24a33;opacity:0.2;"/>
   </g>
   <g id="patch_353">
    <path clip-path="url(#p4211151025)" d="M 560.479402 157.5 
L 561.506789 157.5 
L 561.506789 92.9475 
L 560.479402 92.9475 
z
" style="fill:#e24a33;opacity:0.2;"/>
   </g>
   <g id="patch_354">
    <path clip-path="url(#p4211151025)" d="M 561.763636 157.5 
L 562.791024 157.5 
L 562.791024 69.165 
L 561.763636 69.165 
z
" style="fill:#e24a33;opacity:0.2;"/>
   </g>
   <g id="patch_355">
    <path clip-path="url(#p4211151025)" d="M 563.047871 157.5 
L 564.075259 157.5 
L 564.075259 89.55 
L 563.047871 89.55 
z
" style="fill:#e24a33;opacity:0.2;"/>
   </g>
   <g id="patch_356">
    <path clip-path="url(#p4211151025)" d="M 564.332106 157.5 
L 565.359494 157.5 
L 565.359494 92.9475 
L 564.332106 92.9475 
z
" style="fill:#e24a33;opacity:0.2;"/>
   </g>
   <g id="patch_357">
    <path clip-path="url(#p4211151025)" d="M 565.616341 157.5 
L 566.643728 157.5 
L 566.643728 38.5875 
L 565.616341 38.5875 
z
" style="fill:#e24a33;opacity:0.2;"/>
   </g>
   <g id="patch_358">
    <path clip-path="url(#p4211151025)" d="M 566.900575 157.5 
L 567.927963 157.5 
L 567.927963 92.9475 
L 566.900575 92.9475 
z
" style="fill:#e24a33;opacity:0.2;"/>
   </g>
   <g id="patch_359">
    <path clip-path="url(#p4211151025)" d="M 568.18481 157.5 
L 569.212198 157.5 
L 569.212198 72.5625 
L 568.18481 72.5625 
z
" style="fill:#e24a33;opacity:0.2;"/>
   </g>
   <g id="patch_360">
    <path clip-path="url(#p4211151025)" d="M 569.469045 157.5 
L 570.496433 157.5 
L 570.496433 106.5375 
L 569.469045 106.5375 
z
" style="fill:#e24a33;opacity:0.2;"/>
   </g>
   <g id="patch_361">
    <path clip-path="url(#p4211151025)" d="M 570.75328 157.5 
L 571.780667 157.5 
L 571.780667 72.5625 
L 570.75328 72.5625 
z
" style="fill:#e24a33;opacity:0.2;"/>
   </g>
   <g id="patch_362">
    <path clip-path="url(#p4211151025)" d="M 572.037514 157.5 
L 573.064902 157.5 
L 573.064902 89.55 
L 572.037514 89.55 
z
" style="fill:#e24a33;opacity:0.2;"/>
   </g>
   <g id="patch_363">
    <path clip-path="url(#p4211151025)" d="M 573.321749 157.5 
L 574.349137 157.5 
L 574.349137 123.525 
L 573.321749 123.525 
z
" style="fill:#e24a33;opacity:0.2;"/>
   </g>
   <g id="patch_364">
    <path clip-path="url(#p4211151025)" d="M 574.605984 157.5 
L 575.633372 157.5 
L 575.633372 82.755 
L 574.605984 82.755 
z
" style="fill:#e24a33;opacity:0.2;"/>
   </g>
   <g id="patch_365">
    <path clip-path="url(#p4211151025)" d="M 575.890219 157.5 
L 576.917606 157.5 
L 576.917606 92.9475 
L 575.890219 92.9475 
z
" style="fill:#e24a33;opacity:0.2;"/>
   </g>
   <g id="patch_366">
    <path clip-path="url(#p4211151025)" d="M 577.174453 157.5 
L 578.201841 157.5 
L 578.201841 113.3325 
L 577.174453 113.3325 
z
" style="fill:#e24a33;opacity:0.2;"/>
   </g>
   <g id="patch_367">
    <path clip-path="url(#p4211151025)" d="M 578.458688 157.5 
L 579.486076 157.5 
L 579.486076 106.5375 
L 578.458688 106.5375 
z
" style="fill:#e24a33;opacity:0.2;"/>
   </g>
   <g id="patch_368">
    <path clip-path="url(#p4211151025)" d="M 579.742923 157.5 
L 580.770311 157.5 
L 580.770311 92.9475 
L 579.742923 92.9475 
z
" style="fill:#e24a33;opacity:0.2;"/>
   </g>
   <g id="patch_369">
    <path clip-path="url(#p4211151025)" d="M 581.027158 157.5 
L 582.054545 157.5 
L 582.054545 99.7425 
L 581.027158 99.7425 
z
" style="fill:#e24a33;opacity:0.2;"/>
   </g>
   <g id="patch_370">
    <path clip-path="url(#p4211151025)" d="M 582.311392 157.5 
L 583.33878 157.5 
L 583.33878 103.14 
L 582.311392 103.14 
z
" style="fill:#e24a33;opacity:0.2;"/>
   </g>
   <g id="patch_371">
    <path clip-path="url(#p4211151025)" d="M 583.595627 157.5 
L 584.623015 157.5 
L 584.623015 116.73 
L 583.595627 116.73 
z
" style="fill:#e24a33;opacity:0.2;"/>
   </g>
   <g id="patch_372">
    <path clip-path="url(#p4211151025)" d="M 584.879862 157.5 
L 585.90725 157.5 
L 585.90725 126.9225 
L 584.879862 126.9225 
z
" style="fill:#e24a33;opacity:0.2;"/>
   </g>
   <g id="patch_373">
    <path clip-path="url(#p4211151025)" d="M 586.164097 157.5 
L 587.191484 157.5 
L 587.191484 116.73 
L 586.164097 116.73 
z
" style="fill:#e24a33;opacity:0.2;"/>
   </g>
   <g id="patch_374">
    <path clip-path="url(#p4211151025)" d="M 587.448331 157.5 
L 588.475719 157.5 
L 588.475719 120.1275 
L 587.448331 120.1275 
z
" style="fill:#e24a33;opacity:0.2;"/>
   </g>
   <g id="patch_375">
    <path clip-path="url(#p4211151025)" d="M 588.732566 157.5 
L 589.759954 157.5 
L 589.759954 120.1275 
L 588.732566 120.1275 
z
" style="fill:#e24a33;opacity:0.2;"/>
   </g>
   <g id="patch_376">
    <path clip-path="url(#p4211151025)" d="M 590.016801 157.5 
L 591.044189 157.5 
L 591.044189 133.7175 
L 590.016801 133.7175 
z
" style="fill:#e24a33;opacity:0.2;"/>
   </g>
   <g id="patch_377">
    <path clip-path="url(#p4211151025)" d="M 591.301036 157.5 
L 592.328423 157.5 
L 592.328423 130.32 
L 591.301036 130.32 
z
" style="fill:#e24a33;opacity:0.2;"/>
   </g>
   <g id="patch_378">
    <path clip-path="url(#p4211151025)" d="M 592.58527 157.5 
L 593.612658 157.5 
L 593.612658 113.3325 
L 592.58527 113.3325 
z
" style="fill:#e24a33;opacity:0.2;"/>
   </g>
   <g id="patch_379">
    <path clip-path="url(#p4211151025)" d="M 593.869505 157.5 
L 594.896893 157.5 
L 594.896893 106.5375 
L 593.869505 106.5375 
z
" style="fill:#e24a33;opacity:0.2;"/>
   </g>
   <g id="patch_380">
    <path clip-path="url(#p4211151025)" d="M 595.15374 157.5 
L 596.181128 157.5 
L 596.181128 137.115 
L 595.15374 137.115 
z
" style="fill:#e24a33;opacity:0.2;"/>
   </g>
   <g id="patch_381">
    <path clip-path="url(#p4211151025)" d="M 596.437975 157.5 
L 597.465362 157.5 
L 597.465362 140.5125 
L 596.437975 140.5125 
z
" style="fill:#e24a33;opacity:0.2;"/>
   </g>
   <g id="patch_382">
    <path clip-path="url(#p4211151025)" d="M 597.722209 157.5 
L 598.749597 157.5 
L 598.749597 123.525 
L 597.722209 123.525 
z
" style="fill:#e24a33;opacity:0.2;"/>
   </g>
   <g id="patch_383">
    <path clip-path="url(#p4211151025)" d="M 599.006444 157.5 
L 600.033832 157.5 
L 600.033832 137.115 
L 599.006444 137.115 
z
" style="fill:#e24a33;opacity:0.2;"/>
   </g>
   <g id="patch_384">
    <path clip-path="url(#p4211151025)" d="M 600.290679 157.5 
L 601.318067 157.5 
L 601.318067 133.7175 
L 600.290679 133.7175 
z
" style="fill:#e24a33;opacity:0.2;"/>
   </g>
   <g id="patch_385">
    <path clip-path="url(#p4211151025)" d="M 601.574914 157.5 
L 602.602301 157.5 
L 602.602301 120.1275 
L 601.574914 120.1275 
z
" style="fill:#e24a33;opacity:0.2;"/>
   </g>
   <g id="patch_386">
    <path clip-path="url(#p4211151025)" d="M 602.859148 157.5 
L 603.886536 157.5 
L 603.886536 140.5125 
L 602.859148 140.5125 
z
" style="fill:#e24a33;opacity:0.2;"/>
   </g>
   <g id="patch_387">
    <path clip-path="url(#p4211151025)" d="M 604.143383 157.5 
L 605.170771 157.5 
L 605.170771 133.7175 
L 604.143383 133.7175 
z
" style="fill:#e24a33;opacity:0.2;"/>
   </g>
   <g id="patch_388">
    <path clip-path="url(#p4211151025)" d="M 605.427618 157.5 
L 606.455006 157.5 
L 606.455006 147.3075 
L 605.427618 147.3075 
z
" style="fill:#e24a33;opacity:0.2;"/>
   </g>
   <g id="patch_389">
    <path clip-path="url(#p4211151025)" d="M 606.711853 157.5 
L 607.739241 157.5 
L 607.739241 130.32 
L 606.711853 130.32 
z
" style="fill:#e24a33;opacity:0.2;"/>
   </g>
   <g id="patch_390">
    <path clip-path="url(#p4211151025)" d="M 607.996087 157.5 
L 609.023475 157.5 
L 609.023475 143.91 
L 607.996087 143.91 
z
" style="fill:#e24a33;opacity:0.2;"/>
   </g>
   <g id="patch_391">
    <path clip-path="url(#p4211151025)" d="M 609.280322 157.5 
L 610.30771 157.5 
L 610.30771 123.525 
L 609.280322 123.525 
z
" style="fill:#e24a33;opacity:0.2;"/>
   </g>
   <g id="patch_392">
    <path clip-path="url(#p4211151025)" d="M 610.564557 157.5 
L 611.591945 157.5 
L 611.591945 120.1275 
L 610.564557 120.1275 
z
" style="fill:#e24a33;opacity:0.2;"/>
   </g>
   <g id="patch_393">
    <path clip-path="url(#p4211151025)" d="M 611.848792 157.5 
L 612.87618 157.5 
L 612.87618 133.7175 
L 611.848792 133.7175 
z
" style="fill:#e24a33;opacity:0.2;"/>
   </g>
   <g id="patch_394">
    <path clip-path="url(#p4211151025)" d="M 613.133026 157.5 
L 614.160414 157.5 
L 614.160414 130.32 
L 613.133026 130.32 
z
" style="fill:#e24a33;opacity:0.2;"/>
   </g>
   <g id="patch_395">
    <path clip-path="url(#p4211151025)" d="M 614.417261 157.5 
L 615.444649 157.5 
L 615.444649 140.5125 
L 614.417261 140.5125 
z
" style="fill:#e24a33;opacity:0.2;"/>
   </g>
   <g id="patch_396">
    <path clip-path="url(#p4211151025)" d="M 615.701496 157.5 
L 616.728884 157.5 
L 616.728884 133.7175 
L 615.701496 133.7175 
z
" style="fill:#e24a33;opacity:0.2;"/>
   </g>
   <g id="patch_397">
    <path clip-path="url(#p4211151025)" d="M 616.985731 157.5 
L 618.013119 157.5 
L 618.013119 143.91 
L 616.985731 143.91 
z
" style="fill:#e24a33;opacity:0.2;"/>
   </g>
   <g id="patch_398">
    <path clip-path="url(#p4211151025)" d="M 618.269965 157.5 
L 619.297353 157.5 
L 619.297353 137.115 
L 618.269965 137.115 
z
" style="fill:#e24a33;opacity:0.2;"/>
   </g>
   <g id="patch_399">
    <path clip-path="url(#p4211151025)" d="M 619.5542 157.5 
L 620.581588 157.5 
L 620.581588 137.115 
L 619.5542 137.115 
z
" style="fill:#e24a33;opacity:0.2;"/>
   </g>
   <g id="patch_400">
    <path clip-path="url(#p4211151025)" d="M 620.838435 157.5 
L 621.865823 157.5 
L 621.865823 147.3075 
L 620.838435 147.3075 
z
" style="fill:#e24a33;opacity:0.2;"/>
   </g>
   <g id="patch_401">
    <path clip-path="url(#p4211151025)" d="M 622.12267 157.5 
L 623.150058 157.5 
L 623.150058 143.91 
L 622.12267 143.91 
z
" style="fill:#e24a33;opacity:0.2;"/>
   </g>
   <g id="line2d_35">
    <path clip-path="url(#p4211151025)" d="M 124.35328 157.5 
L 144.901036 157.448412 
L 147.469505 157.180155 
L 148.75374 156.808291 
L 150.037975 156.26718 
L 151.322209 155.557398 
L 153.890679 153.856531 
L 156.459148 152.383511 
L 157.743383 152.014111 
L 161.596087 150.048195 
L 162.880322 149.243325 
L 166.733026 145.577978 
L 169.301496 144.401323 
L 170.585731 144.2585 
L 171.869965 143.921755 
L 173.1542 144.224358 
L 174.438435 144.303507 
L 175.72267 144.663781 
L 177.006904 144.830182 
L 179.575374 145.040026 
L 180.859609 145.375694 
L 183.428078 145.032271 
L 184.712313 144.315711 
L 187.280783 142.394585 
L 188.565017 141.108358 
L 191.133487 138.862047 
L 192.417722 138.031134 
L 193.701956 137.609168 
L 194.986191 136.985683 
L 196.270426 136.749767 
L 198.838895 137.026093 
L 201.407365 138.344084 
L 202.6916 139.182274 
L 203.975834 140.432042 
L 205.260069 141.328451 
L 206.544304 141.762602 
L 207.828539 141.96821 
L 209.112773 141.928162 
L 211.681243 141.56906 
L 212.965478 141.414727 
L 214.249712 141.530206 
L 216.818182 142.893468 
L 221.955121 146.335182 
L 225.807825 149.049951 
L 228.376295 150.779688 
L 230.944764 152.274995 
L 232.228999 152.691816 
L 234.797468 153.148734 
L 239.934407 153.156059 
L 243.787112 153.114838 
L 246.355581 153.503219 
L 252.776755 155.319184 
L 255.345224 155.319184 
L 257.913694 154.971642 
L 260.482163 154.925824 
L 263.050633 155.17062 
L 265.619102 155.506984 
L 268.187572 155.319184 
L 270.756041 155.107854 
L 274.608746 155.23413 
L 277.177215 155.587441 
L 279.745685 155.695213 
L 282.314154 155.678265 
L 288.735328 156.106265 
L 291.303797 155.963471 
L 293.872267 155.678265 
L 297.724971 155.690617 
L 313.135788 156.64898 
L 318.272727 157.128567 
L 319.556962 157.128567 
L 322.125432 156.814491 
L 328.546605 155.159442 
L 331.115075 155.039748 
L 333.683544 155.238726 
L 336.252014 155.187138 
L 338.820483 154.788009 
L 341.388953 154.337721 
L 342.673188 154.313018 
L 345.241657 154.678681 
L 349.094361 155.604389 
L 351.662831 155.907287 
L 356.79977 156.21521 
L 361.936709 156.506568 
L 364.505178 156.261028 
L 367.073648 155.930005 
L 369.642117 155.861899 
L 370.926352 156.015059 
L 374.779056 156.843361 
L 377.347526 157.076979 
L 379.915995 156.694797 
L 383.7687 155.849547 
L 386.337169 155.319184 
L 387.621404 155.10668 
L 388.905639 154.610527 
L 390.189873 153.925448 
L 392.758343 152.327757 
L 395.326812 151.014097 
L 396.611047 150.539918 
L 397.895282 150.511048 
L 400.463751 150.92744 
L 401.747986 150.88126 
L 404.316456 150.532545 
L 405.60069 150.134159 
L 406.884925 149.41978 
L 410.737629 146.902601 
L 414.590334 145.332605 
L 417.158803 145.245948 
L 421.011507 146.059335 
L 422.295742 146.454876 
L 423.579977 147.006206 
L 424.864212 147.23736 
L 426.148446 147.652049 
L 428.716916 147.893422 
L 433.853855 147.202505 
L 435.13809 147.088415 
L 437.706559 147.763557 
L 440.275029 149.373219 
L 444.127733 151.452845 
L 445.411968 151.80156 
L 446.696203 151.994386 
L 450.548907 151.795408 
L 453.117376 151.498281 
L 459.53855 151.380142 
L 464.675489 151.008327 
L 465.959724 151.093381 
L 468.528193 151.830048 
L 469.812428 152.332353 
L 471.096663 152.708765 
L 472.380898 152.932016 
L 473.665132 152.9882 
L 474.949367 152.789222 
L 480.086306 151.413227 
L 483.93901 151.355869 
L 486.50748 151.458615 
L 489.075949 151.168069 
L 490.360184 151.007154 
L 492.928654 151.377345 
L 498.065593 152.090932 
L 499.349827 151.955893 
L 503.202532 150.51677 
L 504.486766 150.248131 
L 505.771001 149.756574 
L 507.055236 149.393326 
L 508.339471 149.241603 
L 509.623705 149.210866 
L 512.192175 149.64308 
L 513.47641 149.534086 
L 514.760644 149.603482 
L 516.044879 149.326609 
L 517.329114 148.828636 
L 518.613349 148.057956 
L 519.897583 146.927304 
L 523.750288 142.926934 
L 526.318757 140.83613 
L 527.602992 139.559859 
L 528.887227 137.992925 
L 530.171461 135.719681 
L 531.455696 132.977 
L 532.739931 129.699008 
L 534.024166 125.571903 
L 539.161105 106.45446 
L 540.445339 102.481718 
L 541.729574 99.027094 
L 543.013809 96.532535 
L 546.866513 94.021938 
L 548.150748 92.711485 
L 550.719217 90.336368 
L 552.003452 88.737257 
L 553.287687 86.23018 
L 554.571922 85.152817 
L 555.856157 84.428729 
L 557.140391 84.235061 
L 558.424626 83.391317 
L 559.708861 82.959473 
L 560.993096 82.372819 
L 562.27733 82.07356 
L 563.561565 81.193581 
L 564.8458 80.518262 
L 566.130035 80.480993 
L 568.698504 83.84491 
L 572.551208 92.182463 
L 573.835443 95.11618 
L 575.119678 97.129851 
L 576.403913 98.806064 
L 577.688147 100.877219 
L 578.972382 102.554128 
L 580.256617 104.514802 
L 581.540852 106.681632 
L 582.825086 109.325353 
L 584.109321 112.680389 
L 585.393556 115.564474 
L 587.962025 119.705359 
L 589.24626 121.593146 
L 590.530495 123.00606 
L 591.81473 123.980676 
L 593.098964 124.713674 
L 594.383199 125.632322 
L 595.667434 127.248545 
L 598.235903 129.791984 
L 600.804373 132.38969 
L 602.088608 133.405939 
L 603.372842 134.141333 
L 604.657077 134.212432 
L 605.941312 134.169773 
L 608.509781 133.399258 
L 609.794016 132.905716 
L 611.078251 132.805747 
L 612.362486 133.088968 
L 613.64672 133.850338 
L 614.930955 135.036548 
L 614.930955 135.036548 
" style="fill:none;stroke:#e24a33;stroke-linecap:square;stroke-width:3;"/>
   </g>
   <g id="line2d_36">
    <path clip-path="url(#p4211151025)" d="M 614.930955 134.815495 
L 616.21519 135.696255 
L 617.499425 136.730551 
L 618.783659 137.453108 
L 620.067894 138.674296 
L 621.352129 139.863707 
L 622.636364 140.537078 
" style="fill:none;stroke:#e24a33;stroke-dasharray:11.1,4.8;stroke-dashoffset:0;stroke-opacity:0.7;stroke-width:3;"/>
   </g>
   <g id="patch_402">
    <path d="M 90 157.5 
L 90 21.6 
" style="fill:none;stroke:#ffffff;stroke-linecap:square;stroke-linejoin:miter;"/>
   </g>
   <g id="patch_403">
    <path d="M 648 157.5 
L 648 21.6 
" style="fill:none;stroke:#ffffff;stroke-linecap:square;stroke-linejoin:miter;"/>
   </g>
   <g id="patch_404">
    <path d="M 90 157.5 
L 648 157.5 
" style="fill:none;stroke:#ffffff;stroke-linecap:square;stroke-linejoin:miter;"/>
   </g>
   <g id="patch_405">
    <path d="M 90 21.6 
L 648 21.6 
" style="fill:none;stroke:#ffffff;stroke-linecap:square;stroke-linejoin:miter;"/>
   </g>
   <g id="legend_1">
    <g id="patch_406">
     <path d="M 97 58.95625 
L 343.317188 58.95625 
Q 345.317188 58.95625 345.317188 56.95625 
L 345.317188 28.6 
Q 345.317188 26.6 343.317188 26.6 
L 97 26.6 
Q 95 26.6 95 28.6 
L 95 56.95625 
Q 95 58.95625 97 58.95625 
z
" style="fill:#e5e5e5;opacity:0.8;stroke:#cccccc;stroke-linejoin:miter;stroke-width:0.5;"/>
    </g>
    <g id="line2d_37">
     <path d="M 99 34.698438 
L 119 34.698438 
" style="fill:none;stroke:#e24a33;stroke-linecap:square;stroke-width:3;"/>
    </g>
    <g id="line2d_38"/>
    <g id="text_22">
     <text style="font-family:DejaVu Sans;font-size:10px;font-stretch:normal;font-style:normal;font-weight:normal;text-anchor:start;" transform="rotate(-0, 127, 38.198438)" x="127" y="38.198438">Korea, South new deaths (rolling 7d mean)</text>
    </g>
    <g id="patch_407">
     <path d="M 99 52.876563 
L 119 52.876563 
L 119 45.876563 
L 99 45.876563 
z
" style="fill:#e24a33;opacity:0.2;"/>
    </g>
    <g id="text_23">
     <text style="font-family:DejaVu Sans;font-size:10px;font-stretch:normal;font-style:normal;font-weight:normal;text-anchor:start;" transform="rotate(-0, 127, 52.876563)" x="127" y="52.876563">Korea, South new deaths</text>
    </g>
   </g>
  </g>
 </g>
 <defs>
  <clipPath id="p4211151025">
   <rect height="135.9" width="558" x="90" y="21.6"/>
  </clipPath>
 </defs>
</svg>
