<?xml version="1.0" encoding="utf-8" standalone="no"?>
<!DOCTYPE svg PUBLIC "-//W3C//DTD SVG 1.1//EN"
  "http://www.w3.org/Graphics/SVG/1.1/DTD/svg11.dtd">
<!-- Created with matplotlib (https://matplotlib.org/) -->
<svg height="180pt" version="1.1" viewBox="0 0 720 180" width="720pt" xmlns="http://www.w3.org/2000/svg" xmlns:xlink="http://www.w3.org/1999/xlink">
 <defs>
  <style type="text/css">
*{stroke-linecap:butt;stroke-linejoin:round;}
  </style>
 </defs>
 <g id="figure_1">
  <g id="patch_1">
   <path d="M 0 180 
L 720 180 
L 720 0 
L 0 0 
z
" style="fill:#ffffff;"/>
  </g>
  <g id="axes_1">
   <g id="patch_2">
    <path d="M 90 157.5 
L 648 157.5 
L 648 21.6 
L 90 21.6 
z
" style="fill:#e5e5e5;"/>
   </g>
   <g id="matplotlib.axis_1">
    <g id="xtick_1">
     <g id="line2d_1">
      <path clip-path="url(#pcf17a0e820)" d="M 137.041958 157.5 
L 137.041958 21.6 
" style="fill:none;stroke:#ffffff;stroke-linecap:square;stroke-width:0.8;"/>
     </g>
     <g id="line2d_2">
      <defs>
       <path d="M 0 0 
L 0 3.5 
" id="m90719205bc" style="stroke:#555555;stroke-width:0.8;"/>
      </defs>
      <g>
       <use style="fill:#555555;stroke:#555555;stroke-width:0.8;" x="137.041958" xlink:href="#m90719205bc" y="157.5"/>
      </g>
     </g>
     <g id="text_1">
      <!-- 2020-02 -->
      <defs>
       <path d="M 19.1875 8.296875 
L 53.609375 8.296875 
L 53.609375 0 
L 7.328125 0 
L 7.328125 8.296875 
Q 12.9375 14.109375 22.625 23.890625 
Q 32.328125 33.6875 34.8125 36.53125 
Q 39.546875 41.84375 41.421875 45.53125 
Q 43.3125 49.21875 43.3125 52.78125 
Q 43.3125 58.59375 39.234375 62.25 
Q 35.15625 65.921875 28.609375 65.921875 
Q 23.96875 65.921875 18.8125 64.3125 
Q 13.671875 62.703125 7.8125 59.421875 
L 7.8125 69.390625 
Q 13.765625 71.78125 18.9375 73 
Q 24.125 74.21875 28.421875 74.21875 
Q 39.75 74.21875 46.484375 68.546875 
Q 53.21875 62.890625 53.21875 53.421875 
Q 53.21875 48.921875 51.53125 44.890625 
Q 49.859375 40.875 45.40625 35.40625 
Q 44.1875 33.984375 37.640625 27.21875 
Q 31.109375 20.453125 19.1875 8.296875 
z
" id="DejaVuSans-50"/>
       <path d="M 31.78125 66.40625 
Q 24.171875 66.40625 20.328125 58.90625 
Q 16.5 51.421875 16.5 36.375 
Q 16.5 21.390625 20.328125 13.890625 
Q 24.171875 6.390625 31.78125 6.390625 
Q 39.453125 6.390625 43.28125 13.890625 
Q 47.125 21.390625 47.125 36.375 
Q 47.125 51.421875 43.28125 58.90625 
Q 39.453125 66.40625 31.78125 66.40625 
z
M 31.78125 74.21875 
Q 44.046875 74.21875 50.515625 64.515625 
Q 56.984375 54.828125 56.984375 36.375 
Q 56.984375 17.96875 50.515625 8.265625 
Q 44.046875 -1.421875 31.78125 -1.421875 
Q 19.53125 -1.421875 13.0625 8.265625 
Q 6.59375 17.96875 6.59375 36.375 
Q 6.59375 54.828125 13.0625 64.515625 
Q 19.53125 74.21875 31.78125 74.21875 
z
" id="DejaVuSans-48"/>
       <path d="M 4.890625 31.390625 
L 31.203125 31.390625 
L 31.203125 23.390625 
L 4.890625 23.390625 
z
" id="DejaVuSans-45"/>
      </defs>
      <g style="fill:#555555;" transform="translate(116.150552 172.098437)scale(0.1 -0.1)">
       <use xlink:href="#DejaVuSans-50"/>
       <use x="63.623047" xlink:href="#DejaVuSans-48"/>
       <use x="127.246094" xlink:href="#DejaVuSans-50"/>
       <use x="190.869141" xlink:href="#DejaVuSans-48"/>
       <use x="254.492188" xlink:href="#DejaVuSans-45"/>
       <use x="290.576172" xlink:href="#DejaVuSans-48"/>
       <use x="354.199219" xlink:href="#DejaVuSans-50"/>
      </g>
     </g>
    </g>
    <g id="xtick_2">
     <g id="line2d_3">
      <path clip-path="url(#pcf17a0e820)" d="M 199.909091 157.5 
L 199.909091 21.6 
" style="fill:none;stroke:#ffffff;stroke-linecap:square;stroke-width:0.8;"/>
     </g>
     <g id="line2d_4">
      <g>
       <use style="fill:#555555;stroke:#555555;stroke-width:0.8;" x="199.909091" xlink:href="#m90719205bc" y="157.5"/>
      </g>
     </g>
     <g id="text_2">
      <!-- 2020-03 -->
      <defs>
       <path d="M 40.578125 39.3125 
Q 47.65625 37.796875 51.625 33 
Q 55.609375 28.21875 55.609375 21.1875 
Q 55.609375 10.40625 48.1875 4.484375 
Q 40.765625 -1.421875 27.09375 -1.421875 
Q 22.515625 -1.421875 17.65625 -0.515625 
Q 12.796875 0.390625 7.625 2.203125 
L 7.625 11.71875 
Q 11.71875 9.328125 16.59375 8.109375 
Q 21.484375 6.890625 26.8125 6.890625 
Q 36.078125 6.890625 40.9375 10.546875 
Q 45.796875 14.203125 45.796875 21.1875 
Q 45.796875 27.640625 41.28125 31.265625 
Q 36.765625 34.90625 28.71875 34.90625 
L 20.21875 34.90625 
L 20.21875 43.015625 
L 29.109375 43.015625 
Q 36.375 43.015625 40.234375 45.921875 
Q 44.09375 48.828125 44.09375 54.296875 
Q 44.09375 59.90625 40.109375 62.90625 
Q 36.140625 65.921875 28.71875 65.921875 
Q 24.65625 65.921875 20.015625 65.03125 
Q 15.375 64.15625 9.8125 62.3125 
L 9.8125 71.09375 
Q 15.4375 72.65625 20.34375 73.4375 
Q 25.25 74.21875 29.59375 74.21875 
Q 40.828125 74.21875 47.359375 69.109375 
Q 53.90625 64.015625 53.90625 55.328125 
Q 53.90625 49.265625 50.4375 45.09375 
Q 46.96875 40.921875 40.578125 39.3125 
z
" id="DejaVuSans-51"/>
      </defs>
      <g style="fill:#555555;" transform="translate(179.017685 172.098437)scale(0.1 -0.1)">
       <use xlink:href="#DejaVuSans-50"/>
       <use x="63.623047" xlink:href="#DejaVuSans-48"/>
       <use x="127.246094" xlink:href="#DejaVuSans-50"/>
       <use x="190.869141" xlink:href="#DejaVuSans-48"/>
       <use x="254.492188" xlink:href="#DejaVuSans-45"/>
       <use x="290.576172" xlink:href="#DejaVuSans-48"/>
       <use x="354.199219" xlink:href="#DejaVuSans-51"/>
      </g>
     </g>
    </g>
    <g id="xtick_3">
     <g id="line2d_5">
      <path clip-path="url(#pcf17a0e820)" d="M 267.111888 157.5 
L 267.111888 21.6 
" style="fill:none;stroke:#ffffff;stroke-linecap:square;stroke-width:0.8;"/>
     </g>
     <g id="line2d_6">
      <g>
       <use style="fill:#555555;stroke:#555555;stroke-width:0.8;" x="267.111888" xlink:href="#m90719205bc" y="157.5"/>
      </g>
     </g>
     <g id="text_3">
      <!-- 2020-04 -->
      <defs>
       <path d="M 37.796875 64.3125 
L 12.890625 25.390625 
L 37.796875 25.390625 
z
M 35.203125 72.90625 
L 47.609375 72.90625 
L 47.609375 25.390625 
L 58.015625 25.390625 
L 58.015625 17.1875 
L 47.609375 17.1875 
L 47.609375 0 
L 37.796875 0 
L 37.796875 17.1875 
L 4.890625 17.1875 
L 4.890625 26.703125 
z
" id="DejaVuSans-52"/>
      </defs>
      <g style="fill:#555555;" transform="translate(246.220482 172.098437)scale(0.1 -0.1)">
       <use xlink:href="#DejaVuSans-50"/>
       <use x="63.623047" xlink:href="#DejaVuSans-48"/>
       <use x="127.246094" xlink:href="#DejaVuSans-50"/>
       <use x="190.869141" xlink:href="#DejaVuSans-48"/>
       <use x="254.492188" xlink:href="#DejaVuSans-45"/>
       <use x="290.576172" xlink:href="#DejaVuSans-48"/>
       <use x="354.199219" xlink:href="#DejaVuSans-52"/>
      </g>
     </g>
    </g>
    <g id="xtick_4">
     <g id="line2d_7">
      <path clip-path="url(#pcf17a0e820)" d="M 332.146853 157.5 
L 332.146853 21.6 
" style="fill:none;stroke:#ffffff;stroke-linecap:square;stroke-width:0.8;"/>
     </g>
     <g id="line2d_8">
      <g>
       <use style="fill:#555555;stroke:#555555;stroke-width:0.8;" x="332.146853" xlink:href="#m90719205bc" y="157.5"/>
      </g>
     </g>
     <g id="text_4">
      <!-- 2020-05 -->
      <defs>
       <path d="M 10.796875 72.90625 
L 49.515625 72.90625 
L 49.515625 64.59375 
L 19.828125 64.59375 
L 19.828125 46.734375 
Q 21.96875 47.46875 24.109375 47.828125 
Q 26.265625 48.1875 28.421875 48.1875 
Q 40.625 48.1875 47.75 41.5 
Q 54.890625 34.8125 54.890625 23.390625 
Q 54.890625 11.625 47.5625 5.09375 
Q 40.234375 -1.421875 26.90625 -1.421875 
Q 22.3125 -1.421875 17.546875 -0.640625 
Q 12.796875 0.140625 7.71875 1.703125 
L 7.71875 11.625 
Q 12.109375 9.234375 16.796875 8.0625 
Q 21.484375 6.890625 26.703125 6.890625 
Q 35.15625 6.890625 40.078125 11.328125 
Q 45.015625 15.765625 45.015625 23.390625 
Q 45.015625 31 40.078125 35.4375 
Q 35.15625 39.890625 26.703125 39.890625 
Q 22.75 39.890625 18.8125 39.015625 
Q 14.890625 38.140625 10.796875 36.28125 
z
" id="DejaVuSans-53"/>
      </defs>
      <g style="fill:#555555;" transform="translate(311.255447 172.098437)scale(0.1 -0.1)">
       <use xlink:href="#DejaVuSans-50"/>
       <use x="63.623047" xlink:href="#DejaVuSans-48"/>
       <use x="127.246094" xlink:href="#DejaVuSans-50"/>
       <use x="190.869141" xlink:href="#DejaVuSans-48"/>
       <use x="254.492188" xlink:href="#DejaVuSans-45"/>
       <use x="290.576172" xlink:href="#DejaVuSans-48"/>
       <use x="354.199219" xlink:href="#DejaVuSans-53"/>
      </g>
     </g>
    </g>
    <g id="xtick_5">
     <g id="line2d_9">
      <path clip-path="url(#pcf17a0e820)" d="M 399.34965 157.5 
L 399.34965 21.6 
" style="fill:none;stroke:#ffffff;stroke-linecap:square;stroke-width:0.8;"/>
     </g>
     <g id="line2d_10">
      <g>
       <use style="fill:#555555;stroke:#555555;stroke-width:0.8;" x="399.34965" xlink:href="#m90719205bc" y="157.5"/>
      </g>
     </g>
     <g id="text_5">
      <!-- 2020-06 -->
      <defs>
       <path d="M 33.015625 40.375 
Q 26.375 40.375 22.484375 35.828125 
Q 18.609375 31.296875 18.609375 23.390625 
Q 18.609375 15.53125 22.484375 10.953125 
Q 26.375 6.390625 33.015625 6.390625 
Q 39.65625 6.390625 43.53125 10.953125 
Q 47.40625 15.53125 47.40625 23.390625 
Q 47.40625 31.296875 43.53125 35.828125 
Q 39.65625 40.375 33.015625 40.375 
z
M 52.59375 71.296875 
L 52.59375 62.3125 
Q 48.875 64.0625 45.09375 64.984375 
Q 41.3125 65.921875 37.59375 65.921875 
Q 27.828125 65.921875 22.671875 59.328125 
Q 17.53125 52.734375 16.796875 39.40625 
Q 19.671875 43.65625 24.015625 45.921875 
Q 28.375 48.1875 33.59375 48.1875 
Q 44.578125 48.1875 50.953125 41.515625 
Q 57.328125 34.859375 57.328125 23.390625 
Q 57.328125 12.15625 50.6875 5.359375 
Q 44.046875 -1.421875 33.015625 -1.421875 
Q 20.359375 -1.421875 13.671875 8.265625 
Q 6.984375 17.96875 6.984375 36.375 
Q 6.984375 53.65625 15.1875 63.9375 
Q 23.390625 74.21875 37.203125 74.21875 
Q 40.921875 74.21875 44.703125 73.484375 
Q 48.484375 72.75 52.59375 71.296875 
z
" id="DejaVuSans-54"/>
      </defs>
      <g style="fill:#555555;" transform="translate(378.458244 172.098437)scale(0.1 -0.1)">
       <use xlink:href="#DejaVuSans-50"/>
       <use x="63.623047" xlink:href="#DejaVuSans-48"/>
       <use x="127.246094" xlink:href="#DejaVuSans-50"/>
       <use x="190.869141" xlink:href="#DejaVuSans-48"/>
       <use x="254.492188" xlink:href="#DejaVuSans-45"/>
       <use x="290.576172" xlink:href="#DejaVuSans-48"/>
       <use x="354.199219" xlink:href="#DejaVuSans-54"/>
      </g>
     </g>
    </g>
    <g id="xtick_6">
     <g id="line2d_11">
      <path clip-path="url(#pcf17a0e820)" d="M 464.384615 157.5 
L 464.384615 21.6 
" style="fill:none;stroke:#ffffff;stroke-linecap:square;stroke-width:0.8;"/>
     </g>
     <g id="line2d_12">
      <g>
       <use style="fill:#555555;stroke:#555555;stroke-width:0.8;" x="464.384615" xlink:href="#m90719205bc" y="157.5"/>
      </g>
     </g>
     <g id="text_6">
      <!-- 2020-07 -->
      <defs>
       <path d="M 8.203125 72.90625 
L 55.078125 72.90625 
L 55.078125 68.703125 
L 28.609375 0 
L 18.3125 0 
L 43.21875 64.59375 
L 8.203125 64.59375 
z
" id="DejaVuSans-55"/>
      </defs>
      <g style="fill:#555555;" transform="translate(443.493209 172.098437)scale(0.1 -0.1)">
       <use xlink:href="#DejaVuSans-50"/>
       <use x="63.623047" xlink:href="#DejaVuSans-48"/>
       <use x="127.246094" xlink:href="#DejaVuSans-50"/>
       <use x="190.869141" xlink:href="#DejaVuSans-48"/>
       <use x="254.492188" xlink:href="#DejaVuSans-45"/>
       <use x="290.576172" xlink:href="#DejaVuSans-48"/>
       <use x="354.199219" xlink:href="#DejaVuSans-55"/>
      </g>
     </g>
    </g>
    <g id="xtick_7">
     <g id="line2d_13">
      <path clip-path="url(#pcf17a0e820)" d="M 531.587413 157.5 
L 531.587413 21.6 
" style="fill:none;stroke:#ffffff;stroke-linecap:square;stroke-width:0.8;"/>
     </g>
     <g id="line2d_14">
      <g>
       <use style="fill:#555555;stroke:#555555;stroke-width:0.8;" x="531.587413" xlink:href="#m90719205bc" y="157.5"/>
      </g>
     </g>
     <g id="text_7">
      <!-- 2020-08 -->
      <defs>
       <path d="M 31.78125 34.625 
Q 24.75 34.625 20.71875 30.859375 
Q 16.703125 27.09375 16.703125 20.515625 
Q 16.703125 13.921875 20.71875 10.15625 
Q 24.75 6.390625 31.78125 6.390625 
Q 38.8125 6.390625 42.859375 10.171875 
Q 46.921875 13.96875 46.921875 20.515625 
Q 46.921875 27.09375 42.890625 30.859375 
Q 38.875 34.625 31.78125 34.625 
z
M 21.921875 38.8125 
Q 15.578125 40.375 12.03125 44.71875 
Q 8.5 49.078125 8.5 55.328125 
Q 8.5 64.0625 14.71875 69.140625 
Q 20.953125 74.21875 31.78125 74.21875 
Q 42.671875 74.21875 48.875 69.140625 
Q 55.078125 64.0625 55.078125 55.328125 
Q 55.078125 49.078125 51.53125 44.71875 
Q 48 40.375 41.703125 38.8125 
Q 48.828125 37.15625 52.796875 32.3125 
Q 56.78125 27.484375 56.78125 20.515625 
Q 56.78125 9.90625 50.3125 4.234375 
Q 43.84375 -1.421875 31.78125 -1.421875 
Q 19.734375 -1.421875 13.25 4.234375 
Q 6.78125 9.90625 6.78125 20.515625 
Q 6.78125 27.484375 10.78125 32.3125 
Q 14.796875 37.15625 21.921875 38.8125 
z
M 18.3125 54.390625 
Q 18.3125 48.734375 21.84375 45.5625 
Q 25.390625 42.390625 31.78125 42.390625 
Q 38.140625 42.390625 41.71875 45.5625 
Q 45.3125 48.734375 45.3125 54.390625 
Q 45.3125 60.0625 41.71875 63.234375 
Q 38.140625 66.40625 31.78125 66.40625 
Q 25.390625 66.40625 21.84375 63.234375 
Q 18.3125 60.0625 18.3125 54.390625 
z
" id="DejaVuSans-56"/>
      </defs>
      <g style="fill:#555555;" transform="translate(510.696006 172.098437)scale(0.1 -0.1)">
       <use xlink:href="#DejaVuSans-50"/>
       <use x="63.623047" xlink:href="#DejaVuSans-48"/>
       <use x="127.246094" xlink:href="#DejaVuSans-50"/>
       <use x="190.869141" xlink:href="#DejaVuSans-48"/>
       <use x="254.492188" xlink:href="#DejaVuSans-45"/>
       <use x="290.576172" xlink:href="#DejaVuSans-48"/>
       <use x="354.199219" xlink:href="#DejaVuSans-56"/>
      </g>
     </g>
    </g>
    <g id="xtick_8">
     <g id="line2d_15">
      <path clip-path="url(#pcf17a0e820)" d="M 598.79021 157.5 
L 598.79021 21.6 
" style="fill:none;stroke:#ffffff;stroke-linecap:square;stroke-width:0.8;"/>
     </g>
     <g id="line2d_16">
      <g>
       <use style="fill:#555555;stroke:#555555;stroke-width:0.8;" x="598.79021" xlink:href="#m90719205bc" y="157.5"/>
      </g>
     </g>
     <g id="text_8">
      <!-- 2020-09 -->
      <defs>
       <path d="M 10.984375 1.515625 
L 10.984375 10.5 
Q 14.703125 8.734375 18.5 7.8125 
Q 22.3125 6.890625 25.984375 6.890625 
Q 35.75 6.890625 40.890625 13.453125 
Q 46.046875 20.015625 46.78125 33.40625 
Q 43.953125 29.203125 39.59375 26.953125 
Q 35.25 24.703125 29.984375 24.703125 
Q 19.046875 24.703125 12.671875 31.3125 
Q 6.296875 37.9375 6.296875 49.421875 
Q 6.296875 60.640625 12.9375 67.421875 
Q 19.578125 74.21875 30.609375 74.21875 
Q 43.265625 74.21875 49.921875 64.515625 
Q 56.59375 54.828125 56.59375 36.375 
Q 56.59375 19.140625 48.40625 8.859375 
Q 40.234375 -1.421875 26.421875 -1.421875 
Q 22.703125 -1.421875 18.890625 -0.6875 
Q 15.09375 0.046875 10.984375 1.515625 
z
M 30.609375 32.421875 
Q 37.25 32.421875 41.125 36.953125 
Q 45.015625 41.5 45.015625 49.421875 
Q 45.015625 57.28125 41.125 61.84375 
Q 37.25 66.40625 30.609375 66.40625 
Q 23.96875 66.40625 20.09375 61.84375 
Q 16.21875 57.28125 16.21875 49.421875 
Q 16.21875 41.5 20.09375 36.953125 
Q 23.96875 32.421875 30.609375 32.421875 
z
" id="DejaVuSans-57"/>
      </defs>
      <g style="fill:#555555;" transform="translate(577.898804 172.098437)scale(0.1 -0.1)">
       <use xlink:href="#DejaVuSans-50"/>
       <use x="63.623047" xlink:href="#DejaVuSans-48"/>
       <use x="127.246094" xlink:href="#DejaVuSans-50"/>
       <use x="190.869141" xlink:href="#DejaVuSans-48"/>
       <use x="254.492188" xlink:href="#DejaVuSans-45"/>
       <use x="290.576172" xlink:href="#DejaVuSans-48"/>
       <use x="354.199219" xlink:href="#DejaVuSans-57"/>
      </g>
     </g>
    </g>
   </g>
   <g id="matplotlib.axis_2">
    <g id="ytick_1">
     <g id="line2d_17">
      <path clip-path="url(#pcf17a0e820)" d="M 90 147.685448 
L 648 147.685448 
" style="fill:none;stroke:#ffffff;stroke-linecap:square;stroke-width:0.8;"/>
     </g>
     <g id="line2d_18">
      <defs>
       <path d="M 0 0 
L -3.5 0 
" id="m5617331aec" style="stroke:#555555;stroke-width:0.8;"/>
      </defs>
      <g>
       <use style="fill:#555555;stroke:#555555;stroke-width:0.8;" x="90" xlink:href="#m5617331aec" y="147.685448"/>
      </g>
     </g>
     <g id="line2d_19">
      <defs>
       <path d="M 0 0 
L 3.5 0 
" id="m47e33ad8aa" style="stroke:#555555;stroke-width:0.8;"/>
      </defs>
      <g>
       <use style="fill:#555555;stroke:#555555;stroke-width:0.8;" x="648" xlink:href="#m47e33ad8aa" y="147.685448"/>
      </g>
     </g>
     <g id="text_9">
      <!-- 1 -->
      <defs>
       <path d="M 12.40625 8.296875 
L 28.515625 8.296875 
L 28.515625 63.921875 
L 10.984375 60.40625 
L 10.984375 69.390625 
L 28.421875 72.90625 
L 38.28125 72.90625 
L 38.28125 8.296875 
L 54.390625 8.296875 
L 54.390625 0 
L 12.40625 0 
z
" id="DejaVuSans-49"/>
      </defs>
      <g style="fill:#555555;" transform="translate(76.6375 151.484666)scale(0.1 -0.1)">
       <use xlink:href="#DejaVuSans-49"/>
      </g>
     </g>
     <g id="text_10">
      <!-- 1 -->
      <g style="fill:#555555;" transform="translate(655 151.484666)scale(0.1 -0.1)">
       <use xlink:href="#DejaVuSans-49"/>
      </g>
     </g>
    </g>
    <g id="ytick_2">
     <g id="line2d_20">
      <path clip-path="url(#pcf17a0e820)" d="M 90 111.197281 
L 648 111.197281 
" style="fill:none;stroke:#ffffff;stroke-linecap:square;stroke-width:0.8;"/>
     </g>
     <g id="line2d_21">
      <g>
       <use style="fill:#555555;stroke:#555555;stroke-width:0.8;" x="90" xlink:href="#m5617331aec" y="111.197281"/>
      </g>
     </g>
     <g id="line2d_22">
      <g>
       <use style="fill:#555555;stroke:#555555;stroke-width:0.8;" x="648" xlink:href="#m47e33ad8aa" y="111.197281"/>
      </g>
     </g>
     <g id="text_11">
      <!-- 2 -->
      <g style="fill:#555555;" transform="translate(76.6375 114.9965)scale(0.1 -0.1)">
       <use xlink:href="#DejaVuSans-50"/>
      </g>
     </g>
     <g id="text_12">
      <!-- 2 -->
      <g style="fill:#555555;" transform="translate(655 114.9965)scale(0.1 -0.1)">
       <use xlink:href="#DejaVuSans-50"/>
      </g>
     </g>
    </g>
    <g id="ytick_3">
     <g id="line2d_23">
      <path clip-path="url(#pcf17a0e820)" d="M 90 74.709115 
L 648 74.709115 
" style="fill:none;stroke:#ffffff;stroke-linecap:square;stroke-width:0.8;"/>
     </g>
     <g id="line2d_24">
      <g>
       <use style="fill:#555555;stroke:#555555;stroke-width:0.8;" x="90" xlink:href="#m5617331aec" y="74.709115"/>
      </g>
     </g>
     <g id="line2d_25">
      <g>
       <use style="fill:#555555;stroke:#555555;stroke-width:0.8;" x="648" xlink:href="#m47e33ad8aa" y="74.709115"/>
      </g>
     </g>
     <g id="text_13">
      <!-- 3 -->
      <g style="fill:#555555;" transform="translate(76.6375 78.508333)scale(0.1 -0.1)">
       <use xlink:href="#DejaVuSans-51"/>
      </g>
     </g>
     <g id="text_14">
      <!-- 3 -->
      <g style="fill:#555555;" transform="translate(655 78.508333)scale(0.1 -0.1)">
       <use xlink:href="#DejaVuSans-51"/>
      </g>
     </g>
    </g>
    <g id="ytick_4">
     <g id="line2d_26">
      <path clip-path="url(#pcf17a0e820)" d="M 90 38.220948 
L 648 38.220948 
" style="fill:none;stroke:#ffffff;stroke-linecap:square;stroke-width:0.8;"/>
     </g>
     <g id="line2d_27">
      <g>
       <use style="fill:#555555;stroke:#555555;stroke-width:0.8;" x="90" xlink:href="#m5617331aec" y="38.220948"/>
      </g>
     </g>
     <g id="line2d_28">
      <g>
       <use style="fill:#555555;stroke:#555555;stroke-width:0.8;" x="648" xlink:href="#m47e33ad8aa" y="38.220948"/>
      </g>
     </g>
     <g id="text_15">
      <!-- 4 -->
      <g style="fill:#555555;" transform="translate(76.6375 42.020167)scale(0.1 -0.1)">
       <use xlink:href="#DejaVuSans-52"/>
      </g>
     </g>
     <g id="text_16">
      <!-- 4 -->
      <g style="fill:#555555;" transform="translate(655 42.020167)scale(0.1 -0.1)">
       <use xlink:href="#DejaVuSans-52"/>
      </g>
     </g>
    </g>
    <g id="text_17">
     <!-- R &amp; growth factor -->
     <defs>
      <path d="M 44.390625 34.1875 
Q 47.5625 33.109375 50.5625 29.59375 
Q 53.5625 26.078125 56.59375 19.921875 
L 66.609375 0 
L 56 0 
L 46.6875 18.703125 
Q 43.0625 26.03125 39.671875 28.421875 
Q 36.28125 30.8125 30.421875 30.8125 
L 19.671875 30.8125 
L 19.671875 0 
L 9.8125 0 
L 9.8125 72.90625 
L 32.078125 72.90625 
Q 44.578125 72.90625 50.734375 67.671875 
Q 56.890625 62.453125 56.890625 51.90625 
Q 56.890625 45.015625 53.6875 40.46875 
Q 50.484375 35.9375 44.390625 34.1875 
z
M 19.671875 64.796875 
L 19.671875 38.921875 
L 32.078125 38.921875 
Q 39.203125 38.921875 42.84375 42.21875 
Q 46.484375 45.515625 46.484375 51.90625 
Q 46.484375 58.296875 42.84375 61.546875 
Q 39.203125 64.796875 32.078125 64.796875 
z
" id="DejaVuSans-82"/>
      <path id="DejaVuSans-32"/>
      <path d="M 24.3125 39.203125 
Q 19.875 35.25 17.796875 31.3125 
Q 15.71875 27.390625 15.71875 23.09375 
Q 15.71875 15.96875 20.890625 11.234375 
Q 26.078125 6.5 33.890625 6.5 
Q 38.53125 6.5 42.578125 8.03125 
Q 46.625 9.578125 50.203125 12.703125 
z
M 31.203125 44.671875 
L 56 19.28125 
Q 58.890625 23.640625 60.5 28.59375 
Q 62.109375 33.546875 62.40625 39.109375 
L 71.484375 39.109375 
Q 70.90625 32.671875 68.359375 26.359375 
Q 65.828125 20.0625 61.28125 13.921875 
L 74.90625 0 
L 62.59375 0 
L 55.609375 7.171875 
Q 50.53125 2.828125 44.96875 0.703125 
Q 39.40625 -1.421875 33.015625 -1.421875 
Q 21.234375 -1.421875 13.765625 5.296875 
Q 6.296875 12.015625 6.296875 22.515625 
Q 6.296875 28.765625 9.5625 34.25 
Q 12.84375 39.75 19.390625 44.578125 
Q 17.046875 47.65625 15.8125 50.703125 
Q 14.59375 53.765625 14.59375 56.6875 
Q 14.59375 64.59375 20.015625 69.40625 
Q 25.4375 74.21875 34.421875 74.21875 
Q 38.484375 74.21875 42.5 73.34375 
Q 46.53125 72.46875 50.6875 70.703125 
L 50.6875 61.8125 
Q 46.4375 64.109375 42.578125 65.296875 
Q 38.71875 66.5 35.40625 66.5 
Q 30.28125 66.5 27.078125 63.78125 
Q 23.875 61.078125 23.875 56.78125 
Q 23.875 54.296875 25.3125 51.78125 
Q 26.765625 49.265625 31.203125 44.671875 
z
" id="DejaVuSans-38"/>
      <path d="M 45.40625 27.984375 
Q 45.40625 37.75 41.375 43.109375 
Q 37.359375 48.484375 30.078125 48.484375 
Q 22.859375 48.484375 18.828125 43.109375 
Q 14.796875 37.75 14.796875 27.984375 
Q 14.796875 18.265625 18.828125 12.890625 
Q 22.859375 7.515625 30.078125 7.515625 
Q 37.359375 7.515625 41.375 12.890625 
Q 45.40625 18.265625 45.40625 27.984375 
z
M 54.390625 6.78125 
Q 54.390625 -7.171875 48.1875 -13.984375 
Q 42 -20.796875 29.203125 -20.796875 
Q 24.46875 -20.796875 20.265625 -20.09375 
Q 16.0625 -19.390625 12.109375 -17.921875 
L 12.109375 -9.1875 
Q 16.0625 -11.328125 19.921875 -12.34375 
Q 23.78125 -13.375 27.78125 -13.375 
Q 36.625 -13.375 41.015625 -8.765625 
Q 45.40625 -4.15625 45.40625 5.171875 
L 45.40625 9.625 
Q 42.625 4.78125 38.28125 2.390625 
Q 33.9375 0 27.875 0 
Q 17.828125 0 11.671875 7.65625 
Q 5.515625 15.328125 5.515625 27.984375 
Q 5.515625 40.671875 11.671875 48.328125 
Q 17.828125 56 27.875 56 
Q 33.9375 56 38.28125 53.609375 
Q 42.625 51.21875 45.40625 46.390625 
L 45.40625 54.6875 
L 54.390625 54.6875 
z
" id="DejaVuSans-103"/>
      <path d="M 41.109375 46.296875 
Q 39.59375 47.171875 37.8125 47.578125 
Q 36.03125 48 33.890625 48 
Q 26.265625 48 22.1875 43.046875 
Q 18.109375 38.09375 18.109375 28.8125 
L 18.109375 0 
L 9.078125 0 
L 9.078125 54.6875 
L 18.109375 54.6875 
L 18.109375 46.1875 
Q 20.953125 51.171875 25.484375 53.578125 
Q 30.03125 56 36.53125 56 
Q 37.453125 56 38.578125 55.875 
Q 39.703125 55.765625 41.0625 55.515625 
z
" id="DejaVuSans-114"/>
      <path d="M 30.609375 48.390625 
Q 23.390625 48.390625 19.1875 42.75 
Q 14.984375 37.109375 14.984375 27.296875 
Q 14.984375 17.484375 19.15625 11.84375 
Q 23.34375 6.203125 30.609375 6.203125 
Q 37.796875 6.203125 41.984375 11.859375 
Q 46.1875 17.53125 46.1875 27.296875 
Q 46.1875 37.015625 41.984375 42.703125 
Q 37.796875 48.390625 30.609375 48.390625 
z
M 30.609375 56 
Q 42.328125 56 49.015625 48.375 
Q 55.71875 40.765625 55.71875 27.296875 
Q 55.71875 13.875 49.015625 6.21875 
Q 42.328125 -1.421875 30.609375 -1.421875 
Q 18.84375 -1.421875 12.171875 6.21875 
Q 5.515625 13.875 5.515625 27.296875 
Q 5.515625 40.765625 12.171875 48.375 
Q 18.84375 56 30.609375 56 
z
" id="DejaVuSans-111"/>
      <path d="M 4.203125 54.6875 
L 13.1875 54.6875 
L 24.421875 12.015625 
L 35.59375 54.6875 
L 46.1875 54.6875 
L 57.421875 12.015625 
L 68.609375 54.6875 
L 77.59375 54.6875 
L 63.28125 0 
L 52.6875 0 
L 40.921875 44.828125 
L 29.109375 0 
L 18.5 0 
z
" id="DejaVuSans-119"/>
      <path d="M 18.3125 70.21875 
L 18.3125 54.6875 
L 36.8125 54.6875 
L 36.8125 47.703125 
L 18.3125 47.703125 
L 18.3125 18.015625 
Q 18.3125 11.328125 20.140625 9.421875 
Q 21.96875 7.515625 27.59375 7.515625 
L 36.8125 7.515625 
L 36.8125 0 
L 27.59375 0 
Q 17.1875 0 13.234375 3.875 
Q 9.28125 7.765625 9.28125 18.015625 
L 9.28125 47.703125 
L 2.6875 47.703125 
L 2.6875 54.6875 
L 9.28125 54.6875 
L 9.28125 70.21875 
z
" id="DejaVuSans-116"/>
      <path d="M 54.890625 33.015625 
L 54.890625 0 
L 45.90625 0 
L 45.90625 32.71875 
Q 45.90625 40.484375 42.875 44.328125 
Q 39.84375 48.1875 33.796875 48.1875 
Q 26.515625 48.1875 22.3125 43.546875 
Q 18.109375 38.921875 18.109375 30.90625 
L 18.109375 0 
L 9.078125 0 
L 9.078125 75.984375 
L 18.109375 75.984375 
L 18.109375 46.1875 
Q 21.34375 51.125 25.703125 53.5625 
Q 30.078125 56 35.796875 56 
Q 45.21875 56 50.046875 50.171875 
Q 54.890625 44.34375 54.890625 33.015625 
z
" id="DejaVuSans-104"/>
      <path d="M 37.109375 75.984375 
L 37.109375 68.5 
L 28.515625 68.5 
Q 23.6875 68.5 21.796875 66.546875 
Q 19.921875 64.59375 19.921875 59.515625 
L 19.921875 54.6875 
L 34.71875 54.6875 
L 34.71875 47.703125 
L 19.921875 47.703125 
L 19.921875 0 
L 10.890625 0 
L 10.890625 47.703125 
L 2.296875 47.703125 
L 2.296875 54.6875 
L 10.890625 54.6875 
L 10.890625 58.5 
Q 10.890625 67.625 15.140625 71.796875 
Q 19.390625 75.984375 28.609375 75.984375 
z
" id="DejaVuSans-102"/>
      <path d="M 34.28125 27.484375 
Q 23.390625 27.484375 19.1875 25 
Q 14.984375 22.515625 14.984375 16.5 
Q 14.984375 11.71875 18.140625 8.90625 
Q 21.296875 6.109375 26.703125 6.109375 
Q 34.1875 6.109375 38.703125 11.40625 
Q 43.21875 16.703125 43.21875 25.484375 
L 43.21875 27.484375 
z
M 52.203125 31.203125 
L 52.203125 0 
L 43.21875 0 
L 43.21875 8.296875 
Q 40.140625 3.328125 35.546875 0.953125 
Q 30.953125 -1.421875 24.3125 -1.421875 
Q 15.921875 -1.421875 10.953125 3.296875 
Q 6 8.015625 6 15.921875 
Q 6 25.140625 12.171875 29.828125 
Q 18.359375 34.515625 30.609375 34.515625 
L 43.21875 34.515625 
L 43.21875 35.40625 
Q 43.21875 41.609375 39.140625 45 
Q 35.0625 48.390625 27.6875 48.390625 
Q 23 48.390625 18.546875 47.265625 
Q 14.109375 46.140625 10.015625 43.890625 
L 10.015625 52.203125 
Q 14.9375 54.109375 19.578125 55.046875 
Q 24.21875 56 28.609375 56 
Q 40.484375 56 46.34375 49.84375 
Q 52.203125 43.703125 52.203125 31.203125 
z
" id="DejaVuSans-97"/>
      <path d="M 48.78125 52.59375 
L 48.78125 44.1875 
Q 44.96875 46.296875 41.140625 47.34375 
Q 37.3125 48.390625 33.40625 48.390625 
Q 24.65625 48.390625 19.8125 42.84375 
Q 14.984375 37.3125 14.984375 27.296875 
Q 14.984375 17.28125 19.8125 11.734375 
Q 24.65625 6.203125 33.40625 6.203125 
Q 37.3125 6.203125 41.140625 7.25 
Q 44.96875 8.296875 48.78125 10.40625 
L 48.78125 2.09375 
Q 45.015625 0.34375 40.984375 -0.53125 
Q 36.96875 -1.421875 32.421875 -1.421875 
Q 20.0625 -1.421875 12.78125 6.34375 
Q 5.515625 14.109375 5.515625 27.296875 
Q 5.515625 40.671875 12.859375 48.328125 
Q 20.21875 56 33.015625 56 
Q 37.15625 56 41.109375 55.140625 
Q 45.0625 54.296875 48.78125 52.59375 
z
" id="DejaVuSans-99"/>
     </defs>
     <g style="fill:#555555;" transform="translate(56.7045 142.570312)rotate(-90)scale(0.12 -0.12)">
      <use xlink:href="#DejaVuSans-82"/>
      <use x="69.482422" xlink:href="#DejaVuSans-32"/>
      <use x="101.269531" xlink:href="#DejaVuSans-38"/>
      <use x="179.248047" xlink:href="#DejaVuSans-32"/>
      <use x="211.035156" xlink:href="#DejaVuSans-103"/>
      <use x="274.511719" xlink:href="#DejaVuSans-114"/>
      <use x="313.375" xlink:href="#DejaVuSans-111"/>
      <use x="374.556641" xlink:href="#DejaVuSans-119"/>
      <use x="456.34375" xlink:href="#DejaVuSans-116"/>
      <use x="495.552734" xlink:href="#DejaVuSans-104"/>
      <use x="558.931641" xlink:href="#DejaVuSans-32"/>
      <use x="590.71875" xlink:href="#DejaVuSans-102"/>
      <use x="625.923828" xlink:href="#DejaVuSans-97"/>
      <use x="687.203125" xlink:href="#DejaVuSans-99"/>
      <use x="742.183594" xlink:href="#DejaVuSans-116"/>
      <use x="781.392578" xlink:href="#DejaVuSans-111"/>
      <use x="842.574219" xlink:href="#DejaVuSans-114"/>
     </g>
     <!-- (based on deaths) -->
     <defs>
      <path d="M 31 75.875 
Q 24.46875 64.65625 21.28125 53.65625 
Q 18.109375 42.671875 18.109375 31.390625 
Q 18.109375 20.125 21.3125 9.0625 
Q 24.515625 -2 31 -13.1875 
L 23.1875 -13.1875 
Q 15.875 -1.703125 12.234375 9.375 
Q 8.59375 20.453125 8.59375 31.390625 
Q 8.59375 42.28125 12.203125 53.3125 
Q 15.828125 64.359375 23.1875 75.875 
z
" id="DejaVuSans-40"/>
      <path d="M 48.6875 27.296875 
Q 48.6875 37.203125 44.609375 42.84375 
Q 40.53125 48.484375 33.40625 48.484375 
Q 26.265625 48.484375 22.1875 42.84375 
Q 18.109375 37.203125 18.109375 27.296875 
Q 18.109375 17.390625 22.1875 11.75 
Q 26.265625 6.109375 33.40625 6.109375 
Q 40.53125 6.109375 44.609375 11.75 
Q 48.6875 17.390625 48.6875 27.296875 
z
M 18.109375 46.390625 
Q 20.953125 51.265625 25.265625 53.625 
Q 29.59375 56 35.59375 56 
Q 45.5625 56 51.78125 48.09375 
Q 58.015625 40.1875 58.015625 27.296875 
Q 58.015625 14.40625 51.78125 6.484375 
Q 45.5625 -1.421875 35.59375 -1.421875 
Q 29.59375 -1.421875 25.265625 0.953125 
Q 20.953125 3.328125 18.109375 8.203125 
L 18.109375 0 
L 9.078125 0 
L 9.078125 75.984375 
L 18.109375 75.984375 
z
" id="DejaVuSans-98"/>
      <path d="M 44.28125 53.078125 
L 44.28125 44.578125 
Q 40.484375 46.53125 36.375 47.5 
Q 32.28125 48.484375 27.875 48.484375 
Q 21.1875 48.484375 17.84375 46.4375 
Q 14.5 44.390625 14.5 40.28125 
Q 14.5 37.15625 16.890625 35.375 
Q 19.28125 33.59375 26.515625 31.984375 
L 29.59375 31.296875 
Q 39.15625 29.25 43.1875 25.515625 
Q 47.21875 21.78125 47.21875 15.09375 
Q 47.21875 7.46875 41.1875 3.015625 
Q 35.15625 -1.421875 24.609375 -1.421875 
Q 20.21875 -1.421875 15.453125 -0.5625 
Q 10.6875 0.296875 5.421875 2 
L 5.421875 11.28125 
Q 10.40625 8.6875 15.234375 7.390625 
Q 20.0625 6.109375 24.8125 6.109375 
Q 31.15625 6.109375 34.5625 8.28125 
Q 37.984375 10.453125 37.984375 14.40625 
Q 37.984375 18.0625 35.515625 20.015625 
Q 33.0625 21.96875 24.703125 23.78125 
L 21.578125 24.515625 
Q 13.234375 26.265625 9.515625 29.90625 
Q 5.8125 33.546875 5.8125 39.890625 
Q 5.8125 47.609375 11.28125 51.796875 
Q 16.75 56 26.8125 56 
Q 31.78125 56 36.171875 55.265625 
Q 40.578125 54.546875 44.28125 53.078125 
z
" id="DejaVuSans-115"/>
      <path d="M 56.203125 29.59375 
L 56.203125 25.203125 
L 14.890625 25.203125 
Q 15.484375 15.921875 20.484375 11.0625 
Q 25.484375 6.203125 34.421875 6.203125 
Q 39.59375 6.203125 44.453125 7.46875 
Q 49.3125 8.734375 54.109375 11.28125 
L 54.109375 2.78125 
Q 49.265625 0.734375 44.1875 -0.34375 
Q 39.109375 -1.421875 33.890625 -1.421875 
Q 20.796875 -1.421875 13.15625 6.1875 
Q 5.515625 13.8125 5.515625 26.8125 
Q 5.515625 40.234375 12.765625 48.109375 
Q 20.015625 56 32.328125 56 
Q 43.359375 56 49.78125 48.890625 
Q 56.203125 41.796875 56.203125 29.59375 
z
M 47.21875 32.234375 
Q 47.125 39.59375 43.09375 43.984375 
Q 39.0625 48.390625 32.421875 48.390625 
Q 24.90625 48.390625 20.390625 44.140625 
Q 15.875 39.890625 15.1875 32.171875 
z
" id="DejaVuSans-101"/>
      <path d="M 45.40625 46.390625 
L 45.40625 75.984375 
L 54.390625 75.984375 
L 54.390625 0 
L 45.40625 0 
L 45.40625 8.203125 
Q 42.578125 3.328125 38.25 0.953125 
Q 33.9375 -1.421875 27.875 -1.421875 
Q 17.96875 -1.421875 11.734375 6.484375 
Q 5.515625 14.40625 5.515625 27.296875 
Q 5.515625 40.1875 11.734375 48.09375 
Q 17.96875 56 27.875 56 
Q 33.9375 56 38.25 53.625 
Q 42.578125 51.265625 45.40625 46.390625 
z
M 14.796875 27.296875 
Q 14.796875 17.390625 18.875 11.75 
Q 22.953125 6.109375 30.078125 6.109375 
Q 37.203125 6.109375 41.296875 11.75 
Q 45.40625 17.390625 45.40625 27.296875 
Q 45.40625 37.203125 41.296875 42.84375 
Q 37.203125 48.484375 30.078125 48.484375 
Q 22.953125 48.484375 18.875 42.84375 
Q 14.796875 37.203125 14.796875 27.296875 
z
" id="DejaVuSans-100"/>
      <path d="M 54.890625 33.015625 
L 54.890625 0 
L 45.90625 0 
L 45.90625 32.71875 
Q 45.90625 40.484375 42.875 44.328125 
Q 39.84375 48.1875 33.796875 48.1875 
Q 26.515625 48.1875 22.3125 43.546875 
Q 18.109375 38.921875 18.109375 30.90625 
L 18.109375 0 
L 9.078125 0 
L 9.078125 54.6875 
L 18.109375 54.6875 
L 18.109375 46.1875 
Q 21.34375 51.125 25.703125 53.5625 
Q 30.078125 56 35.796875 56 
Q 45.21875 56 50.046875 50.171875 
Q 54.890625 44.34375 54.890625 33.015625 
z
" id="DejaVuSans-110"/>
      <path d="M 8.015625 75.875 
L 15.828125 75.875 
Q 23.140625 64.359375 26.78125 53.3125 
Q 30.421875 42.28125 30.421875 31.390625 
Q 30.421875 20.453125 26.78125 9.375 
Q 23.140625 -1.703125 15.828125 -13.1875 
L 8.015625 -13.1875 
Q 14.5 -2 17.703125 9.0625 
Q 20.90625 20.125 20.90625 31.390625 
Q 20.90625 42.671875 17.703125 53.65625 
Q 14.5 64.65625 8.015625 75.875 
z
" id="DejaVuSans-41"/>
     </defs>
     <g style="fill:#555555;" transform="translate(70.141875 144.09)rotate(-90)scale(0.12 -0.12)">
      <use xlink:href="#DejaVuSans-40"/>
      <use x="39.013672" xlink:href="#DejaVuSans-98"/>
      <use x="102.490234" xlink:href="#DejaVuSans-97"/>
      <use x="163.769531" xlink:href="#DejaVuSans-115"/>
      <use x="215.869141" xlink:href="#DejaVuSans-101"/>
      <use x="277.392578" xlink:href="#DejaVuSans-100"/>
      <use x="340.869141" xlink:href="#DejaVuSans-32"/>
      <use x="372.65625" xlink:href="#DejaVuSans-111"/>
      <use x="433.837891" xlink:href="#DejaVuSans-110"/>
      <use x="497.216797" xlink:href="#DejaVuSans-32"/>
      <use x="529.003906" xlink:href="#DejaVuSans-100"/>
      <use x="592.480469" xlink:href="#DejaVuSans-101"/>
      <use x="654.003906" xlink:href="#DejaVuSans-97"/>
      <use x="715.283203" xlink:href="#DejaVuSans-116"/>
      <use x="754.492188" xlink:href="#DejaVuSans-104"/>
      <use x="817.871094" xlink:href="#DejaVuSans-115"/>
      <use x="869.970703" xlink:href="#DejaVuSans-41"/>
     </g>
    </g>
   </g>
   <g id="line2d_29">
    <defs>
     <path d="M 0 3 
C 0.795609 3 1.55874 2.683901 2.12132 2.12132 
C 2.683901 1.55874 3 0.795609 3 0 
C 3 -0.795609 2.683901 -1.55874 2.12132 -2.12132 
C 1.55874 -2.683901 0.795609 -3 0 -3 
C -0.795609 -3 -1.55874 -2.683901 -2.12132 -2.12132 
C -2.683901 -1.55874 -3 -0.795609 -3 0 
C -3 0.795609 -2.683901 1.55874 -2.12132 2.12132 
C -1.55874 2.683901 -0.795609 3 0 3 
z
" id="m62848840b2" style="stroke:#e24a33;stroke-opacity:0.3;"/>
    </defs>
    <g clip-path="url(#pcf17a0e820)">
     <use style="fill:#e24a33;fill-opacity:0.3;stroke:#e24a33;stroke-opacity:0.3;" x="171.727273" xlink:href="#m62848840b2" y="93.852974"/>
     <use style="fill:#e24a33;fill-opacity:0.3;stroke:#e24a33;stroke-opacity:0.3;" x="173.895105" xlink:href="#m62848840b2" y="133.715218"/>
     <use style="fill:#e24a33;fill-opacity:0.3;stroke:#e24a33;stroke-opacity:0.3;" x="176.062937" xlink:href="#m62848840b2" y="96.246726"/>
     <use style="fill:#e24a33;fill-opacity:0.3;stroke:#e24a33;stroke-opacity:0.3;" x="178.230769" xlink:href="#m62848840b2" y="128.283739"/>
     <use style="fill:#e24a33;fill-opacity:0.3;stroke:#e24a33;stroke-opacity:0.3;" x="180.398601" xlink:href="#m62848840b2" y="133.707187"/>
     <use style="fill:#e24a33;fill-opacity:0.3;stroke:#e24a33;stroke-opacity:0.3;" x="182.566434" xlink:href="#m62848840b2" y="137.61338"/>
     <use style="fill:#e24a33;fill-opacity:0.3;stroke:#e24a33;stroke-opacity:0.3;" x="184.734266" xlink:href="#m62848840b2" y="142.282094"/>
     <use style="fill:#e24a33;fill-opacity:0.3;stroke:#e24a33;stroke-opacity:0.3;" x="186.902098" xlink:href="#m62848840b2" y="146.379932"/>
     <use style="fill:#e24a33;fill-opacity:0.3;stroke:#e24a33;stroke-opacity:0.3;" x="189.06993" xlink:href="#m62848840b2" y="145.909577"/>
     <use style="fill:#e24a33;fill-opacity:0.3;stroke:#e24a33;stroke-opacity:0.3;" x="191.237762" xlink:href="#m62848840b2" y="148.757223"/>
     <use style="fill:#e24a33;fill-opacity:0.3;stroke:#e24a33;stroke-opacity:0.3;" x="193.405594" xlink:href="#m62848840b2" y="135.236719"/>
     <use style="fill:#e24a33;fill-opacity:0.3;stroke:#e24a33;stroke-opacity:0.3;" x="195.573427" xlink:href="#m62848840b2" y="147.657764"/>
     <use style="fill:#e24a33;fill-opacity:0.3;stroke:#e24a33;stroke-opacity:0.3;" x="197.741259" xlink:href="#m62848840b2" y="138.927441"/>
     <use style="fill:#e24a33;fill-opacity:0.3;stroke:#e24a33;stroke-opacity:0.3;" x="199.909091" xlink:href="#m62848840b2" y="144.820547"/>
     <use style="fill:#e24a33;fill-opacity:0.3;stroke:#e24a33;stroke-opacity:0.3;" x="202.076923" xlink:href="#m62848840b2" y="141.595515"/>
     <use style="fill:#e24a33;fill-opacity:0.3;stroke:#e24a33;stroke-opacity:0.3;" x="204.244755" xlink:href="#m62848840b2" y="145.372491"/>
     <use style="fill:#e24a33;fill-opacity:0.3;stroke:#e24a33;stroke-opacity:0.3;" x="206.412587" xlink:href="#m62848840b2" y="144.411938"/>
     <use style="fill:#e24a33;fill-opacity:0.3;stroke:#e24a33;stroke-opacity:0.3;" x="208.58042" xlink:href="#m62848840b2" y="147.864954"/>
     <use style="fill:#e24a33;fill-opacity:0.3;stroke:#e24a33;stroke-opacity:0.3;" x="210.748252" xlink:href="#m62848840b2" y="148.70102"/>
     <use style="fill:#e24a33;fill-opacity:0.3;stroke:#e24a33;stroke-opacity:0.3;" x="212.916084" xlink:href="#m62848840b2" y="150.536557"/>
     <use style="fill:#e24a33;fill-opacity:0.3;stroke:#e24a33;stroke-opacity:0.3;" x="215.083916" xlink:href="#m62848840b2" y="144.494088"/>
     <use style="fill:#e24a33;fill-opacity:0.3;stroke:#e24a33;stroke-opacity:0.3;" x="217.251748" xlink:href="#m62848840b2" y="150.768337"/>
     <use style="fill:#e24a33;fill-opacity:0.3;stroke:#e24a33;stroke-opacity:0.3;" x="219.41958" xlink:href="#m62848840b2" y="144.988429"/>
     <use style="fill:#e24a33;fill-opacity:0.3;stroke:#e24a33;stroke-opacity:0.3;" x="221.587413" xlink:href="#m62848840b2" y="149.564058"/>
     <use style="fill:#e24a33;fill-opacity:0.3;stroke:#e24a33;stroke-opacity:0.3;" x="223.755245" xlink:href="#m62848840b2" y="149.140132"/>
     <use style="fill:#e24a33;fill-opacity:0.3;stroke:#e24a33;stroke-opacity:0.3;" x="225.923077" xlink:href="#m62848840b2" y="148.500007"/>
     <use style="fill:#e24a33;fill-opacity:0.3;stroke:#e24a33;stroke-opacity:0.3;" x="228.090909" xlink:href="#m62848840b2" y="148.163513"/>
     <use style="fill:#e24a33;fill-opacity:0.3;stroke:#e24a33;stroke-opacity:0.3;" x="230.258741" xlink:href="#m62848840b2" y="144.906933"/>
     <use style="fill:#e24a33;fill-opacity:0.3;stroke:#e24a33;stroke-opacity:0.3;" x="232.426573" xlink:href="#m62848840b2" y="148.61318"/>
     <use style="fill:#e24a33;fill-opacity:0.3;stroke:#e24a33;stroke-opacity:0.3;" x="234.594406" xlink:href="#m62848840b2" y="144.714513"/>
     <use style="fill:#e24a33;fill-opacity:0.3;stroke:#e24a33;stroke-opacity:0.3;" x="236.762238" xlink:href="#m62848840b2" y="140.634898"/>
     <use style="fill:#e24a33;fill-opacity:0.3;stroke:#e24a33;stroke-opacity:0.3;" x="238.93007" xlink:href="#m62848840b2" y="147.637671"/>
     <use style="fill:#e24a33;fill-opacity:0.3;stroke:#e24a33;stroke-opacity:0.3;" x="241.097902" xlink:href="#m62848840b2" y="143.438296"/>
     <use style="fill:#e24a33;fill-opacity:0.3;stroke:#e24a33;stroke-opacity:0.3;" x="243.265734" xlink:href="#m62848840b2" y="144.445778"/>
     <use style="fill:#e24a33;fill-opacity:0.3;stroke:#e24a33;stroke-opacity:0.3;" x="245.433566" xlink:href="#m62848840b2" y="147.506847"/>
     <use style="fill:#e24a33;fill-opacity:0.3;stroke:#e24a33;stroke-opacity:0.3;" x="247.601399" xlink:href="#m62848840b2" y="145.823246"/>
     <use style="fill:#e24a33;fill-opacity:0.3;stroke:#e24a33;stroke-opacity:0.3;" x="249.769231" xlink:href="#m62848840b2" y="148.035912"/>
     <use style="fill:#e24a33;fill-opacity:0.3;stroke:#e24a33;stroke-opacity:0.3;" x="251.937063" xlink:href="#m62848840b2" y="145.959473"/>
     <use style="fill:#e24a33;fill-opacity:0.3;stroke:#e24a33;stroke-opacity:0.3;" x="254.104895" xlink:href="#m62848840b2" y="147.905775"/>
     <use style="fill:#e24a33;fill-opacity:0.3;stroke:#e24a33;stroke-opacity:0.3;" x="256.272727" xlink:href="#m62848840b2" y="148.641414"/>
     <use style="fill:#e24a33;fill-opacity:0.3;stroke:#e24a33;stroke-opacity:0.3;" x="258.440559" xlink:href="#m62848840b2" y="147.194965"/>
     <use style="fill:#e24a33;fill-opacity:0.3;stroke:#e24a33;stroke-opacity:0.3;" x="260.608392" xlink:href="#m62848840b2" y="150.393455"/>
     <use style="fill:#e24a33;fill-opacity:0.3;stroke:#e24a33;stroke-opacity:0.3;" x="262.776224" xlink:href="#m62848840b2" y="149.492074"/>
     <use style="fill:#e24a33;fill-opacity:0.3;stroke:#e24a33;stroke-opacity:0.3;" x="264.944056" xlink:href="#m62848840b2" y="150.215321"/>
     <use style="fill:#e24a33;fill-opacity:0.3;stroke:#e24a33;stroke-opacity:0.3;" x="267.111888" xlink:href="#m62848840b2" y="150.072812"/>
     <use style="fill:#e24a33;fill-opacity:0.3;stroke:#e24a33;stroke-opacity:0.3;" x="269.27972" xlink:href="#m62848840b2" y="149.590932"/>
     <use style="fill:#e24a33;fill-opacity:0.3;stroke:#e24a33;stroke-opacity:0.3;" x="271.447552" xlink:href="#m62848840b2" y="148.902028"/>
     <use style="fill:#e24a33;fill-opacity:0.3;stroke:#e24a33;stroke-opacity:0.3;" x="273.615385" xlink:href="#m62848840b2" y="145.867483"/>
     <use style="fill:#e24a33;fill-opacity:0.3;stroke:#e24a33;stroke-opacity:0.3;" x="275.783217" xlink:href="#m62848840b2" y="146.150136"/>
     <use style="fill:#e24a33;fill-opacity:0.3;stroke:#e24a33;stroke-opacity:0.3;" x="277.951049" xlink:href="#m62848840b2" y="146.17629"/>
     <use style="fill:#e24a33;fill-opacity:0.3;stroke:#e24a33;stroke-opacity:0.3;" x="280.118881" xlink:href="#m62848840b2" y="147.639428"/>
     <use style="fill:#e24a33;fill-opacity:0.3;stroke:#e24a33;stroke-opacity:0.3;" x="282.286713" xlink:href="#m62848840b2" y="148.778846"/>
     <use style="fill:#e24a33;fill-opacity:0.3;stroke:#e24a33;stroke-opacity:0.3;" x="284.454545" xlink:href="#m62848840b2" y="148.972193"/>
     <use style="fill:#e24a33;fill-opacity:0.3;stroke:#e24a33;stroke-opacity:0.3;" x="286.622378" xlink:href="#m62848840b2" y="149.784427"/>
     <use style="fill:#e24a33;fill-opacity:0.3;stroke:#e24a33;stroke-opacity:0.3;" x="288.79021" xlink:href="#m62848840b2" y="149.453966"/>
     <use style="fill:#e24a33;fill-opacity:0.3;stroke:#e24a33;stroke-opacity:0.3;" x="290.958042" xlink:href="#m62848840b2" y="150.067474"/>
     <use style="fill:#e24a33;fill-opacity:0.3;stroke:#e24a33;stroke-opacity:0.3;" x="293.125874" xlink:href="#m62848840b2" y="151.735237"/>
     <use style="fill:#e24a33;fill-opacity:0.3;stroke:#e24a33;stroke-opacity:0.3;" x="295.293706" xlink:href="#m62848840b2" y="149.497076"/>
     <use style="fill:#e24a33;fill-opacity:0.3;stroke:#e24a33;stroke-opacity:0.3;" x="297.461538" xlink:href="#m62848840b2" y="150.044468"/>
     <use style="fill:#e24a33;fill-opacity:0.3;stroke:#e24a33;stroke-opacity:0.3;" x="299.629371" xlink:href="#m62848840b2" y="150.131377"/>
     <use style="fill:#e24a33;fill-opacity:0.3;stroke:#e24a33;stroke-opacity:0.3;" x="301.797203" xlink:href="#m62848840b2" y="151.452524"/>
     <use style="fill:#e24a33;fill-opacity:0.3;stroke:#e24a33;stroke-opacity:0.3;" x="303.965035" xlink:href="#m62848840b2" y="152.165667"/>
     <use style="fill:#e24a33;fill-opacity:0.3;stroke:#e24a33;stroke-opacity:0.3;" x="306.132867" xlink:href="#m62848840b2" y="152.860712"/>
     <use style="fill:#e24a33;fill-opacity:0.3;stroke:#e24a33;stroke-opacity:0.3;" x="308.300699" xlink:href="#m62848840b2" y="152.86137"/>
     <use style="fill:#e24a33;fill-opacity:0.3;stroke:#e24a33;stroke-opacity:0.3;" x="310.468531" xlink:href="#m62848840b2" y="151.833626"/>
     <use style="fill:#e24a33;fill-opacity:0.3;stroke:#e24a33;stroke-opacity:0.3;" x="312.636364" xlink:href="#m62848840b2" y="149.179298"/>
     <use style="fill:#e24a33;fill-opacity:0.3;stroke:#e24a33;stroke-opacity:0.3;" x="314.804196" xlink:href="#m62848840b2" y="150.483421"/>
     <use style="fill:#e24a33;fill-opacity:0.3;stroke:#e24a33;stroke-opacity:0.3;" x="316.972028" xlink:href="#m62848840b2" y="148.372887"/>
     <use style="fill:#e24a33;fill-opacity:0.3;stroke:#e24a33;stroke-opacity:0.3;" x="319.13986" xlink:href="#m62848840b2" y="148.804662"/>
     <use style="fill:#e24a33;fill-opacity:0.3;stroke:#e24a33;stroke-opacity:0.3;" x="321.307692" xlink:href="#m62848840b2" y="147.269046"/>
     <use style="fill:#e24a33;fill-opacity:0.3;stroke:#e24a33;stroke-opacity:0.3;" x="323.475524" xlink:href="#m62848840b2" y="145.834661"/>
     <use style="fill:#e24a33;fill-opacity:0.3;stroke:#e24a33;stroke-opacity:0.3;" x="325.643357" xlink:href="#m62848840b2" y="150.141553"/>
     <use style="fill:#e24a33;fill-opacity:0.3;stroke:#e24a33;stroke-opacity:0.3;" x="327.811189" xlink:href="#m62848840b2" y="145.052085"/>
     <use style="fill:#e24a33;fill-opacity:0.3;stroke:#e24a33;stroke-opacity:0.3;" x="329.979021" xlink:href="#m62848840b2" y="147.680241"/>
     <use style="fill:#e24a33;fill-opacity:0.3;stroke:#e24a33;stroke-opacity:0.3;" x="332.146853" xlink:href="#m62848840b2" y="147.237581"/>
     <use style="fill:#e24a33;fill-opacity:0.3;stroke:#e24a33;stroke-opacity:0.3;" x="334.314685" xlink:href="#m62848840b2" y="147.532944"/>
     <use style="fill:#e24a33;fill-opacity:0.3;stroke:#e24a33;stroke-opacity:0.3;" x="336.482517" xlink:href="#m62848840b2" y="150.704034"/>
     <use style="fill:#e24a33;fill-opacity:0.3;stroke:#e24a33;stroke-opacity:0.3;" x="338.65035" xlink:href="#m62848840b2" y="150.706114"/>
     <use style="fill:#e24a33;fill-opacity:0.3;stroke:#e24a33;stroke-opacity:0.3;" x="340.818182" xlink:href="#m62848840b2" y="152.715523"/>
     <use style="fill:#e24a33;fill-opacity:0.3;stroke:#e24a33;stroke-opacity:0.3;" x="342.986014" xlink:href="#m62848840b2" y="156.432722"/>
     <use style="fill:#e24a33;fill-opacity:0.3;stroke:#e24a33;stroke-opacity:0.3;" x="345.153846" xlink:href="#m62848840b2" y="148.883363"/>
     <use style="fill:#e24a33;fill-opacity:0.3;stroke:#e24a33;stroke-opacity:0.3;" x="347.321678" xlink:href="#m62848840b2" y="153.633457"/>
     <use style="fill:#e24a33;fill-opacity:0.3;stroke:#e24a33;stroke-opacity:0.3;" x="349.48951" xlink:href="#m62848840b2" y="149.739203"/>
     <use style="fill:#e24a33;fill-opacity:0.3;stroke:#e24a33;stroke-opacity:0.3;" x="351.657343" xlink:href="#m62848840b2" y="146.947624"/>
     <use style="fill:#e24a33;fill-opacity:0.3;stroke:#e24a33;stroke-opacity:0.3;" x="353.825175" xlink:href="#m62848840b2" y="139.241507"/>
     <use style="fill:#e24a33;fill-opacity:0.3;stroke:#e24a33;stroke-opacity:0.3;" x="355.993007" xlink:href="#m62848840b2" y="143.83597"/>
     <use style="fill:#e24a33;fill-opacity:0.3;stroke:#e24a33;stroke-opacity:0.3;" x="358.160839" xlink:href="#m62848840b2" y="144.007824"/>
     <use style="fill:#e24a33;fill-opacity:0.3;stroke:#e24a33;stroke-opacity:0.3;" x="360.328671" xlink:href="#m62848840b2" y="148.353609"/>
     <use style="fill:#e24a33;fill-opacity:0.3;stroke:#e24a33;stroke-opacity:0.3;" x="362.496503" xlink:href="#m62848840b2" y="150.546483"/>
     <use style="fill:#e24a33;fill-opacity:0.3;stroke:#e24a33;stroke-opacity:0.3;" x="364.664336" xlink:href="#m62848840b2" y="153.224406"/>
     <use style="fill:#e24a33;fill-opacity:0.3;stroke:#e24a33;stroke-opacity:0.3;" x="366.832168" xlink:href="#m62848840b2" y="153.222991"/>
     <use style="fill:#e24a33;fill-opacity:0.3;stroke:#e24a33;stroke-opacity:0.3;" x="369" xlink:href="#m62848840b2" y="146.043433"/>
     <use style="fill:#e24a33;fill-opacity:0.3;stroke:#e24a33;stroke-opacity:0.3;" x="371.167832" xlink:href="#m62848840b2" y="147.685448"/>
     <use style="fill:#e24a33;fill-opacity:0.3;stroke:#e24a33;stroke-opacity:0.3;" x="373.335664" xlink:href="#m62848840b2" y="149.256752"/>
     <use style="fill:#e24a33;fill-opacity:0.3;stroke:#e24a33;stroke-opacity:0.3;" x="375.503497" xlink:href="#m62848840b2" y="137.012294"/>
     <use style="fill:#e24a33;fill-opacity:0.3;stroke:#e24a33;stroke-opacity:0.3;" x="377.671329" xlink:href="#m62848840b2" y="146.618433"/>
     <use style="fill:#e24a33;fill-opacity:0.3;stroke:#e24a33;stroke-opacity:0.3;" x="379.839161" xlink:href="#m62848840b2" y="145.932121"/>
     <use style="fill:#e24a33;fill-opacity:0.3;stroke:#e24a33;stroke-opacity:0.3;" x="382.006993" xlink:href="#m62848840b2" y="148.707789"/>
     <use style="fill:#e24a33;fill-opacity:0.3;stroke:#e24a33;stroke-opacity:0.3;" x="384.174825" xlink:href="#m62848840b2" y="153.231651"/>
     <use style="fill:#e24a33;fill-opacity:0.3;stroke:#e24a33;stroke-opacity:0.3;" x="386.342657" xlink:href="#m62848840b2" y="149.729859"/>
     <use style="fill:#e24a33;fill-opacity:0.3;stroke:#e24a33;stroke-opacity:0.3;" x="388.51049" xlink:href="#m62848840b2" y="154.19445"/>
     <use style="fill:#e24a33;fill-opacity:0.3;stroke:#e24a33;stroke-opacity:0.3;" x="390.678322" xlink:href="#m62848840b2" y="145.231837"/>
     <use style="fill:#e24a33;fill-opacity:0.3;stroke:#e24a33;stroke-opacity:0.3;" x="392.846154" xlink:href="#m62848840b2" y="146.159059"/>
     <use style="fill:#e24a33;fill-opacity:0.3;stroke:#e24a33;stroke-opacity:0.3;" x="395.013986" xlink:href="#m62848840b2" y="150.059317"/>
     <use style="fill:#e24a33;fill-opacity:0.3;stroke:#e24a33;stroke-opacity:0.3;" x="397.181818" xlink:href="#m62848840b2" y="143.991951"/>
     <use style="fill:#e24a33;fill-opacity:0.3;stroke:#e24a33;stroke-opacity:0.3;" x="399.34965" xlink:href="#m62848840b2" y="147.685448"/>
     <use style="fill:#e24a33;fill-opacity:0.3;stroke:#e24a33;stroke-opacity:0.3;" x="401.517483" xlink:href="#m62848840b2" y="151.039438"/>
     <use style="fill:#e24a33;fill-opacity:0.3;stroke:#e24a33;stroke-opacity:0.3;" x="403.685315" xlink:href="#m62848840b2" y="154.093433"/>
     <use style="fill:#e24a33;fill-opacity:0.3;stroke:#e24a33;stroke-opacity:0.3;" x="405.853147" xlink:href="#m62848840b2" y="154.745214"/>
     <use style="fill:#e24a33;fill-opacity:0.3;stroke:#e24a33;stroke-opacity:0.3;" x="408.020979" xlink:href="#m62848840b2" y="144.135543"/>
     <use style="fill:#e24a33;fill-opacity:0.3;stroke:#e24a33;stroke-opacity:0.3;" x="410.188811" xlink:href="#m62848840b2" y="148.00593"/>
     <use style="fill:#e24a33;fill-opacity:0.3;stroke:#e24a33;stroke-opacity:0.3;" x="412.356643" xlink:href="#m62848840b2" y="139.655717"/>
     <use style="fill:#e24a33;fill-opacity:0.3;stroke:#e24a33;stroke-opacity:0.3;" x="414.524476" xlink:href="#m62848840b2" y="141.026748"/>
     <use style="fill:#e24a33;fill-opacity:0.3;stroke:#e24a33;stroke-opacity:0.3;" x="416.692308" xlink:href="#m62848840b2" y="145.096276"/>
     <use style="fill:#e24a33;fill-opacity:0.3;stroke:#e24a33;stroke-opacity:0.3;" x="418.86014" xlink:href="#m62848840b2" y="148.738023"/>
     <use style="fill:#e24a33;fill-opacity:0.3;stroke:#e24a33;stroke-opacity:0.3;" x="421.027972" xlink:href="#m62848840b2" y="147.880975"/>
     <use style="fill:#e24a33;fill-opacity:0.3;stroke:#e24a33;stroke-opacity:0.3;" x="423.195804" xlink:href="#m62848840b2" y="148.001437"/>
     <use style="fill:#e24a33;fill-opacity:0.3;stroke:#e24a33;stroke-opacity:0.3;" x="425.363636" xlink:href="#m62848840b2" y="149.174698"/>
     <use style="fill:#e24a33;fill-opacity:0.3;stroke:#e24a33;stroke-opacity:0.3;" x="427.531469" xlink:href="#m62848840b2" y="152.79163"/>
     <use style="fill:#e24a33;fill-opacity:0.3;stroke:#e24a33;stroke-opacity:0.3;" x="429.699301" xlink:href="#m62848840b2" y="145.243857"/>
     <use style="fill:#e24a33;fill-opacity:0.3;stroke:#e24a33;stroke-opacity:0.3;" x="431.867133" xlink:href="#m62848840b2" y="150.757782"/>
     <use style="fill:#e24a33;fill-opacity:0.3;stroke:#e24a33;stroke-opacity:0.3;" x="434.034965" xlink:href="#m62848840b2" y="149.517756"/>
     <use style="fill:#e24a33;fill-opacity:0.3;stroke:#e24a33;stroke-opacity:0.3;" x="436.202797" xlink:href="#m62848840b2" y="147.451072"/>
     <use style="fill:#e24a33;fill-opacity:0.3;stroke:#e24a33;stroke-opacity:0.3;" x="438.370629" xlink:href="#m62848840b2" y="152.165771"/>
     <use style="fill:#e24a33;fill-opacity:0.3;stroke:#e24a33;stroke-opacity:0.3;" x="440.538462" xlink:href="#m62848840b2" y="150.625951"/>
     <use style="fill:#e24a33;fill-opacity:0.3;stroke:#e24a33;stroke-opacity:0.3;" x="442.706294" xlink:href="#m62848840b2" y="152.037042"/>
     <use style="fill:#e24a33;fill-opacity:0.3;stroke:#e24a33;stroke-opacity:0.3;" x="444.874126" xlink:href="#m62848840b2" y="150.711847"/>
     <use style="fill:#e24a33;fill-opacity:0.3;stroke:#e24a33;stroke-opacity:0.3;" x="447.041958" xlink:href="#m62848840b2" y="145.837845"/>
     <use style="fill:#e24a33;fill-opacity:0.3;stroke:#e24a33;stroke-opacity:0.3;" x="449.20979" xlink:href="#m62848840b2" y="149.444005"/>
     <use style="fill:#e24a33;fill-opacity:0.3;stroke:#e24a33;stroke-opacity:0.3;" x="451.377622" xlink:href="#m62848840b2" y="152.715658"/>
     <use style="fill:#e24a33;fill-opacity:0.3;stroke:#e24a33;stroke-opacity:0.3;" x="453.545455" xlink:href="#m62848840b2" y="155.691518"/>
     <use style="fill:#e24a33;fill-opacity:0.3;stroke:#e24a33;stroke-opacity:0.3;" x="455.713287" xlink:href="#m62848840b2" y="165.91129"/>
     <use style="fill:#e24a33;fill-opacity:0.3;stroke:#e24a33;stroke-opacity:0.3;" x="457.881119" xlink:href="#m62848840b2" y="159.441585"/>
     <use style="fill:#e24a33;fill-opacity:0.3;stroke:#e24a33;stroke-opacity:0.3;" x="460.048951" xlink:href="#m62848840b2" y="147.685448"/>
     <use style="fill:#e24a33;fill-opacity:0.3;stroke:#e24a33;stroke-opacity:0.3;" x="462.216783" xlink:href="#m62848840b2" y="130.34114"/>
     <use style="fill:#e24a33;fill-opacity:0.3;stroke:#e24a33;stroke-opacity:0.3;" x="464.384615" xlink:href="#m62848840b2" y="111.270171"/>
     <use style="fill:#e24a33;fill-opacity:0.3;stroke:#e24a33;stroke-opacity:0.3;" x="466.552448" xlink:href="#m62848840b2" y="125.050563"/>
     <use style="fill:#e24a33;fill-opacity:0.3;stroke:#e24a33;stroke-opacity:0.3;" x="468.72028" xlink:href="#m62848840b2" y="139.441138"/>
     <use style="fill:#e24a33;fill-opacity:0.3;stroke:#e24a33;stroke-opacity:0.3;" x="470.888112" xlink:href="#m62848840b2" y="130.896805"/>
     <use style="fill:#e24a33;fill-opacity:0.3;stroke:#e24a33;stroke-opacity:0.3;" x="473.055944" xlink:href="#m62848840b2" y="138.799374"/>
     <use style="fill:#e24a33;fill-opacity:0.3;stroke:#e24a33;stroke-opacity:0.3;" x="475.223776" xlink:href="#m62848840b2" y="144.432845"/>
     <use style="fill:#e24a33;fill-opacity:0.3;stroke:#e24a33;stroke-opacity:0.3;" x="477.391608" xlink:href="#m62848840b2" y="143.844761"/>
     <use style="fill:#e24a33;fill-opacity:0.3;stroke:#e24a33;stroke-opacity:0.3;" x="479.559441" xlink:href="#m62848840b2" y="149.778516"/>
     <use style="fill:#e24a33;fill-opacity:0.3;stroke:#e24a33;stroke-opacity:0.3;" x="481.727273" xlink:href="#m62848840b2" y="149.520678"/>
     <use style="fill:#e24a33;fill-opacity:0.3;stroke:#e24a33;stroke-opacity:0.3;" x="483.895105" xlink:href="#m62848840b2" y="153.927497"/>
     <use style="fill:#e24a33;fill-opacity:0.3;stroke:#e24a33;stroke-opacity:0.3;" x="486.062937" xlink:href="#m62848840b2" y="148.325429"/>
     <use style="fill:#e24a33;fill-opacity:0.3;stroke:#e24a33;stroke-opacity:0.3;" x="488.230769" xlink:href="#m62848840b2" y="142.225789"/>
     <use style="fill:#e24a33;fill-opacity:0.3;stroke:#e24a33;stroke-opacity:0.3;" x="490.398601" xlink:href="#m62848840b2" y="147.457934"/>
     <use style="fill:#e24a33;fill-opacity:0.3;stroke:#e24a33;stroke-opacity:0.3;" x="492.566434" xlink:href="#m62848840b2" y="142.09345"/>
     <use style="fill:#e24a33;fill-opacity:0.3;stroke:#e24a33;stroke-opacity:0.3;" x="494.734266" xlink:href="#m62848840b2" y="140.528056"/>
     <use style="fill:#e24a33;fill-opacity:0.3;stroke:#e24a33;stroke-opacity:0.3;" x="496.902098" xlink:href="#m62848840b2" y="146.947896"/>
     <use style="fill:#e24a33;fill-opacity:0.3;stroke:#e24a33;stroke-opacity:0.3;" x="499.06993" xlink:href="#m62848840b2" y="145.313005"/>
     <use style="fill:#e24a33;fill-opacity:0.3;stroke:#e24a33;stroke-opacity:0.3;" x="501.237762" xlink:href="#m62848840b2" y="149.54089"/>
     <use style="fill:#e24a33;fill-opacity:0.3;stroke:#e24a33;stroke-opacity:0.3;" x="503.405594" xlink:href="#m62848840b2" y="149.530108"/>
     <use style="fill:#e24a33;fill-opacity:0.3;stroke:#e24a33;stroke-opacity:0.3;" x="505.573427" xlink:href="#m62848840b2" y="155.391705"/>
     <use style="fill:#e24a33;fill-opacity:0.3;stroke:#e24a33;stroke-opacity:0.3;" x="507.741259" xlink:href="#m62848840b2" y="156.242864"/>
     <use style="fill:#e24a33;fill-opacity:0.3;stroke:#e24a33;stroke-opacity:0.3;" x="509.909091" xlink:href="#m62848840b2" y="150.694374"/>
     <use style="fill:#e24a33;fill-opacity:0.3;stroke:#e24a33;stroke-opacity:0.3;" x="512.076923" xlink:href="#m62848840b2" y="148.687367"/>
     <use style="fill:#e24a33;fill-opacity:0.3;stroke:#e24a33;stroke-opacity:0.3;" x="514.244755" xlink:href="#m62848840b2" y="150.733021"/>
     <use style="fill:#e24a33;fill-opacity:0.3;stroke:#e24a33;stroke-opacity:0.3;" x="516.412587" xlink:href="#m62848840b2" y="147.700385"/>
     <use style="fill:#e24a33;fill-opacity:0.3;stroke:#e24a33;stroke-opacity:0.3;" x="518.58042" xlink:href="#m62848840b2" y="147.623093"/>
     <use style="fill:#e24a33;fill-opacity:0.3;stroke:#e24a33;stroke-opacity:0.3;" x="520.748252" xlink:href="#m62848840b2" y="147.685448"/>
     <use style="fill:#e24a33;fill-opacity:0.3;stroke:#e24a33;stroke-opacity:0.3;" x="522.916084" xlink:href="#m62848840b2" y="152.809351"/>
     <use style="fill:#e24a33;fill-opacity:0.3;stroke:#e24a33;stroke-opacity:0.3;" x="525.083916" xlink:href="#m62848840b2" y="150.467167"/>
     <use style="fill:#e24a33;fill-opacity:0.3;stroke:#e24a33;stroke-opacity:0.3;" x="527.251748" xlink:href="#m62848840b2" y="152.888882"/>
     <use style="fill:#e24a33;fill-opacity:0.3;stroke:#e24a33;stroke-opacity:0.3;" x="529.41958" xlink:href="#m62848840b2" y="152.1968"/>
     <use style="fill:#e24a33;fill-opacity:0.3;stroke:#e24a33;stroke-opacity:0.3;" x="531.587413" xlink:href="#m62848840b2" y="155.133294"/>
     <use style="fill:#e24a33;fill-opacity:0.3;stroke:#e24a33;stroke-opacity:0.3;" x="533.755245" xlink:href="#m62848840b2" y="137.025976"/>
     <use style="fill:#e24a33;fill-opacity:0.3;stroke:#e24a33;stroke-opacity:0.3;" x="535.923077" xlink:href="#m62848840b2" y="136.521875"/>
     <use style="fill:#e24a33;fill-opacity:0.3;stroke:#e24a33;stroke-opacity:0.3;" x="538.090909" xlink:href="#m62848840b2" y="140.868399"/>
     <use style="fill:#e24a33;fill-opacity:0.3;stroke:#e24a33;stroke-opacity:0.3;" x="540.258741" xlink:href="#m62848840b2" y="141.460684"/>
     <use style="fill:#e24a33;fill-opacity:0.3;stroke:#e24a33;stroke-opacity:0.3;" x="542.426573" xlink:href="#m62848840b2" y="144.939896"/>
     <use style="fill:#e24a33;fill-opacity:0.3;stroke:#e24a33;stroke-opacity:0.3;" x="544.594406" xlink:href="#m62848840b2" y="148.189294"/>
     <use style="fill:#e24a33;fill-opacity:0.3;stroke:#e24a33;stroke-opacity:0.3;" x="546.762238" xlink:href="#m62848840b2" y="151.238263"/>
     <use style="fill:#e24a33;fill-opacity:0.3;stroke:#e24a33;stroke-opacity:0.3;" x="548.93007" xlink:href="#m62848840b2" y="156.982307"/>
     <use style="fill:#e24a33;fill-opacity:0.3;stroke:#e24a33;stroke-opacity:0.3;" x="551.097902" xlink:href="#m62848840b2" y="155.978565"/>
     <use style="fill:#e24a33;fill-opacity:0.3;stroke:#e24a33;stroke-opacity:0.3;" x="553.265734" xlink:href="#m62848840b2" y="163.753285"/>
     <use style="fill:#e24a33;fill-opacity:0.3;stroke:#e24a33;stroke-opacity:0.3;" x="555.433566" xlink:href="#m62848840b2" y="169.432949"/>
     <use style="fill:#e24a33;fill-opacity:0.3;stroke:#e24a33;stroke-opacity:0.3;" x="557.601399" xlink:href="#m62848840b2" y="147.685448"/>
     <use style="fill:#e24a33;fill-opacity:0.3;stroke:#e24a33;stroke-opacity:0.3;" x="559.769231" xlink:href="#m62848840b2" y="130.34114"/>
     <use style="fill:#e24a33;fill-opacity:0.3;stroke:#e24a33;stroke-opacity:0.3;" x="561.937063" xlink:href="#m62848840b2" y="111.270171"/>
     <use style="fill:#e24a33;fill-opacity:0.3;stroke:#e24a33;stroke-opacity:0.3;" x="564.104895" xlink:href="#m62848840b2" y="112.672184"/>
     <use style="fill:#e24a33;fill-opacity:0.3;stroke:#e24a33;stroke-opacity:0.3;" x="566.272727" xlink:href="#m62848840b2" y="137.86574"/>
     <use style="fill:#e24a33;fill-opacity:0.3;stroke:#e24a33;stroke-opacity:0.3;" x="568.440559" xlink:href="#m62848840b2" y="141.878974"/>
     <use style="fill:#e24a33;fill-opacity:0.3;stroke:#e24a33;stroke-opacity:0.3;" x="570.608392" xlink:href="#m62848840b2" y="145.604169"/>
     <use style="fill:#e24a33;fill-opacity:0.3;stroke:#e24a33;stroke-opacity:0.3;" x="572.776224" xlink:href="#m62848840b2" y="145.008154"/>
     <use style="fill:#e24a33;fill-opacity:0.3;stroke:#e24a33;stroke-opacity:0.3;" x="574.944056" xlink:href="#m62848840b2" y="142.448065"/>
     <use style="fill:#e24a33;fill-opacity:0.3;stroke:#e24a33;stroke-opacity:0.3;" x="577.111888" xlink:href="#m62848840b2" y="146.877257"/>
     <use style="fill:#e24a33;fill-opacity:0.3;stroke:#e24a33;stroke-opacity:0.3;" x="579.27972" xlink:href="#m62848840b2" y="136.828121"/>
     <use style="fill:#e24a33;fill-opacity:0.3;stroke:#e24a33;stroke-opacity:0.3;" x="581.447552" xlink:href="#m62848840b2" y="133.248184"/>
     <use style="fill:#e24a33;fill-opacity:0.3;stroke:#e24a33;stroke-opacity:0.3;" x="583.615385" xlink:href="#m62848840b2" y="140.035686"/>
     <use style="fill:#e24a33;fill-opacity:0.3;stroke:#e24a33;stroke-opacity:0.3;" x="585.783217" xlink:href="#m62848840b2" y="140.461213"/>
     <use style="fill:#e24a33;fill-opacity:0.3;stroke:#e24a33;stroke-opacity:0.3;" x="587.951049" xlink:href="#m62848840b2" y="144.884334"/>
     <use style="fill:#e24a33;fill-opacity:0.3;stroke:#e24a33;stroke-opacity:0.3;" x="590.118881" xlink:href="#m62848840b2" y="145.773763"/>
     <use style="fill:#e24a33;fill-opacity:0.3;stroke:#e24a33;stroke-opacity:0.3;" x="592.286713" xlink:href="#m62848840b2" y="147.220788"/>
     <use style="fill:#e24a33;fill-opacity:0.3;stroke:#e24a33;stroke-opacity:0.3;" x="594.454545" xlink:href="#m62848840b2" y="149.211386"/>
     <use style="fill:#e24a33;fill-opacity:0.3;stroke:#e24a33;stroke-opacity:0.3;" x="596.622378" xlink:href="#m62848840b2" y="148.304319"/>
     <use style="fill:#e24a33;fill-opacity:0.3;stroke:#e24a33;stroke-opacity:0.3;" x="598.79021" xlink:href="#m62848840b2" y="150.489361"/>
     <use style="fill:#e24a33;fill-opacity:0.3;stroke:#e24a33;stroke-opacity:0.3;" x="600.958042" xlink:href="#m62848840b2" y="150.362205"/>
     <use style="fill:#e24a33;fill-opacity:0.3;stroke:#e24a33;stroke-opacity:0.3;" x="603.125874" xlink:href="#m62848840b2" y="142.593571"/>
     <use style="fill:#e24a33;fill-opacity:0.3;stroke:#e24a33;stroke-opacity:0.3;" x="605.293706" xlink:href="#m62848840b2" y="143.388142"/>
     <use style="fill:#e24a33;fill-opacity:0.3;stroke:#e24a33;stroke-opacity:0.3;" x="607.461538" xlink:href="#m62848840b2" y="144.240583"/>
     <use style="fill:#e24a33;fill-opacity:0.3;stroke:#e24a33;stroke-opacity:0.3;" x="609.629371" xlink:href="#m62848840b2" y="144.633902"/>
     <use style="fill:#e24a33;fill-opacity:0.3;stroke:#e24a33;stroke-opacity:0.3;" x="611.797203" xlink:href="#m62848840b2" y="144.106904"/>
     <use style="fill:#e24a33;fill-opacity:0.3;stroke:#e24a33;stroke-opacity:0.3;" x="613.965035" xlink:href="#m62848840b2" y="144.805549"/>
     <use style="fill:#e24a33;fill-opacity:0.3;stroke:#e24a33;stroke-opacity:0.3;" x="616.132867" xlink:href="#m62848840b2" y="145.326326"/>
     <use style="fill:#e24a33;fill-opacity:0.3;stroke:#e24a33;stroke-opacity:0.3;" x="618.300699" xlink:href="#m62848840b2" y="145.26746"/>
     <use style="fill:#e24a33;fill-opacity:0.3;stroke:#e24a33;stroke-opacity:0.3;" x="620.468531" xlink:href="#m62848840b2" y="146.31533"/>
     <use style="fill:#e24a33;fill-opacity:0.3;stroke:#e24a33;stroke-opacity:0.3;" x="622.636364" xlink:href="#m62848840b2" y="148.44748"/>
    </g>
   </g>
   <g id="line2d_30">
    <path clip-path="url(#pcf17a0e820)" d="M 169.559441 107.612187 
L 171.727273 110.844324 
L 173.895105 114.359786 
L 176.062937 118.566907 
L 178.230769 123.709479 
L 180.398601 130.521331 
L 182.566434 135.364794 
L 184.734266 140.996913 
L 186.902098 143.000336 
L 189.06993 144.208543 
L 191.237762 144.035951 
L 193.405594 143.521005 
L 195.573427 142.848176 
L 197.741259 142.724104 
L 199.909091 142.824772 
L 202.076923 143.815515 
L 204.244755 144.504684 
L 206.412587 145.905058 
L 208.58042 146.712992 
L 210.748252 147.689532 
L 215.083916 148.051466 
L 219.41958 148.078374 
L 223.755245 148.243941 
L 228.090909 147.649847 
L 230.258741 146.677849 
L 234.594406 145.240819 
L 236.762238 144.728751 
L 241.097902 144.854005 
L 245.433566 146.038656 
L 247.601399 146.382401 
L 249.769231 146.92212 
L 254.104895 147.6272 
L 262.776224 149.524192 
L 264.944056 149.687671 
L 267.111888 149.505962 
L 269.27972 148.896901 
L 273.615385 147.448004 
L 275.783217 147.082964 
L 277.951049 147.138389 
L 280.118881 147.583347 
L 284.454545 148.859365 
L 286.622378 149.45817 
L 288.79021 149.825521 
L 293.125874 150.220299 
L 297.461538 150.513262 
L 301.797203 151.298238 
L 303.965035 151.814643 
L 306.132867 151.959306 
L 308.300699 151.825745 
L 310.468531 151.261556 
L 314.804196 149.730454 
L 316.972028 148.883475 
L 321.307692 147.879529 
L 323.475524 147.523877 
L 327.811189 147.24257 
L 329.979021 147.480569 
L 332.146853 147.993323 
L 334.314685 148.706163 
L 336.482517 150.098727 
L 340.818182 151.97606 
L 342.986014 152.294983 
L 345.153846 151.835578 
L 347.321678 150.401306 
L 349.48951 148.51678 
L 351.657343 146.408399 
L 353.825175 145.237142 
L 355.993007 144.877502 
L 358.160839 145.889039 
L 360.328671 147.691645 
L 362.496503 149.346021 
L 364.664336 150.098499 
L 366.832168 150.15747 
L 373.335664 145.899921 
L 375.503497 145.201797 
L 377.671329 145.81405 
L 379.839161 146.879685 
L 382.006993 148.46569 
L 384.174825 149.845229 
L 386.342657 150.008633 
L 388.51049 149.779215 
L 392.846154 147.852855 
L 395.013986 147.57333 
L 397.181818 147.856977 
L 399.34965 149.159998 
L 401.517483 149.991073 
L 403.685315 150.354337 
L 405.853147 149.674448 
L 408.020979 147.881374 
L 410.188811 145.866816 
L 412.356643 144.505874 
L 414.524476 144.165935 
L 416.692308 145.07454 
L 418.86014 146.166171 
L 421.027972 147.735609 
L 423.195804 148.529347 
L 425.363636 149.03636 
L 427.531469 149.193696 
L 429.699301 149.158653 
L 434.034965 149.454432 
L 436.202797 149.760834 
L 438.370629 150.408203 
L 440.538462 150.370159 
L 444.874126 150.100195 
L 447.041958 150.196445 
L 449.20979 151.702544 
L 451.377622 153.818654 
L 453.545455 155.492645 
L 455.713287 154.958915 
L 457.881119 150.275957 
L 462.216783 136.266747 
L 464.384615 130.757646 
L 466.552448 129.179346 
L 468.72028 131.002297 
L 470.888112 134.572808 
L 473.055944 138.917753 
L 475.223776 142.179507 
L 477.391608 144.970184 
L 479.559441 147.568607 
L 481.727273 148.640887 
L 483.895105 148.779748 
L 486.062937 147.938212 
L 488.230769 146.296052 
L 490.398601 145.060511 
L 492.566434 144.134741 
L 494.734266 144.337908 
L 496.902098 145.332286 
L 499.06993 146.837914 
L 501.237762 148.997412 
L 503.405594 150.877681 
L 505.573427 151.876067 
L 507.741259 152.295387 
L 509.909091 151.698808 
L 512.076923 150.716932 
L 514.244755 149.524578 
L 516.412587 148.959915 
L 518.58042 149.011354 
L 520.748252 149.596207 
L 522.916084 150.314691 
L 525.083916 151.365636 
L 527.251748 151.100802 
L 529.41958 149.616825 
L 531.587413 147.058106 
L 533.755245 144.299361 
L 535.923077 142.22414 
L 538.090909 141.696888 
L 540.258741 142.620708 
L 542.426573 145.442239 
L 544.594406 148.454522 
L 546.762238 151.740082 
L 548.93007 155.459021 
L 551.097902 157.666598 
L 553.265734 157.137917 
L 555.433566 152.360561 
L 559.769231 135.691936 
L 561.937063 129.661925 
L 564.104895 128.120762 
L 566.272727 131.32787 
L 570.608392 141.130892 
L 572.776224 143.393403 
L 574.944056 142.772679 
L 577.111888 141.515314 
L 579.27972 140.047746 
L 581.447552 139.419106 
L 583.615385 139.92006 
L 585.783217 141.193852 
L 590.118881 145.40931 
L 592.286713 146.915301 
L 594.454545 148.152846 
L 596.622378 148.443533 
L 598.79021 148.118407 
L 600.958042 147.210786 
L 603.125874 146.021316 
L 605.293706 145.025236 
L 607.461538 144.388745 
L 609.629371 144.223028 
L 613.965035 144.875961 
L 622.636364 146.733111 
L 622.636364 146.733111 
" style="fill:none;stroke:#e24a33;stroke-linecap:square;stroke-opacity:0.7;stroke-width:3;"/>
   </g>
   <g id="line2d_31">
    <path clip-path="url(#pcf17a0e820)" d="M 139.20979 147.685448 
L 169.559441 147.685448 
L 170.012071 -1 
M 177.615039 -1 
L 178.230769 34.178722 
L 180.398601 87.023069 
L 182.566434 113.621963 
L 184.734266 134.969268 
L 186.902098 137.834835 
L 189.06993 136.407187 
L 191.237762 132.455561 
L 193.405594 121.471934 
L 195.573427 121.076163 
L 197.741259 121.693728 
L 199.909091 125.920823 
L 202.076923 133.813546 
L 204.244755 140.711816 
L 206.412587 146.053206 
L 208.58042 149.485602 
L 210.748252 150.431627 
L 212.916084 149.108563 
L 215.083916 148.090151 
L 217.251748 149.946965 
L 219.41958 149.080147 
L 221.587413 150.89458 
L 223.755245 151.143551 
L 225.923077 147.080851 
L 228.090909 146.344587 
L 230.258741 140.14767 
L 232.426573 135.336128 
L 234.594406 133.435574 
L 236.762238 131.092725 
L 238.93007 135.337369 
L 241.097902 137.778832 
L 243.265734 140.910312 
L 245.433566 144.320047 
L 247.601399 143.983376 
L 249.769231 146.151952 
L 251.937063 147.210486 
L 254.104895 147.94827 
L 256.272727 151.719874 
L 258.440559 153.547677 
L 262.776224 156.685101 
L 264.944056 155.707666 
L 267.111888 153.201611 
L 269.27972 149.809892 
L 271.447552 145.237349 
L 273.615385 142.334758 
L 275.783217 143.8587 
L 277.951049 146.569974 
L 280.118881 149.91838 
L 282.286713 153.594179 
L 286.622378 156.089022 
L 288.79021 157.036199 
L 290.958042 156.258728 
L 293.125874 156.624506 
L 295.293706 157.151501 
L 297.461538 158.298313 
L 299.629371 160.618777 
L 301.797203 162.590349 
L 303.965035 162.871719 
L 306.132867 162.309637 
L 308.300699 160.784176 
L 310.468531 157.604236 
L 314.804196 152.910076 
L 316.972028 148.602294 
L 319.13986 148.061863 
L 321.307692 147.178316 
L 323.475524 144.882504 
L 325.643357 147.609698 
L 327.811189 146.025588 
L 329.979021 146.769039 
L 332.146853 151.606442 
L 334.314685 154.093473 
L 336.482517 160.09825 
L 338.65035 164.345347 
L 340.818182 165.332915 
L 342.986014 165.648237 
L 345.153846 160.754604 
L 349.48951 139.630886 
L 351.657343 127.298072 
L 353.825175 127.551472 
L 355.993007 139.49866 
L 360.328671 157.777681 
L 362.496503 160.56506 
L 364.664336 158.729755 
L 366.832168 155.600253 
L 369 145.857021 
L 371.167832 137.243265 
L 373.335664 133.618512 
L 375.503497 131.995129 
L 377.671329 143.966119 
L 379.839161 153.003378 
L 382.006993 157.916569 
L 384.174825 162.430313 
L 386.342657 157.725036 
L 388.51049 152.69341 
L 390.678322 147.330442 
L 392.846154 138.429333 
L 395.013986 144.161518 
L 399.34965 159.523072 
L 401.517483 164.165362 
L 403.685315 162.385058 
L 405.853147 151.881072 
L 408.020979 134.777255 
L 410.188811 121.150803 
L 412.356643 118.658482 
L 414.524476 133.322022 
L 416.692308 146.556153 
L 418.86014 151.406065 
L 421.027972 154.780016 
L 423.195804 154.590129 
L 425.363636 150.646929 
L 427.531469 151.68904 
L 429.699301 151.276666 
L 431.867133 154.512073 
L 434.034965 158.760118 
L 436.202797 159.403491 
L 438.370629 159.882854 
L 440.538462 155.608856 
L 442.706294 151.755907 
L 444.874126 153.460365 
L 447.041958 157.53332 
L 449.20979 167.660505 
L 451.377622 176.130108 
L 453.545455 175.603386 
L 455.713287 172.780694 
L 457.881119 147.685448 
L 460.048951 50.491114 
L 461.871646 -1 
M 466.05158 -1 
L 466.552448 20.657763 
L 468.72028 80.166848 
L 470.888112 95.318319 
L 473.055944 121.418687 
L 475.223776 139.813669 
L 477.391608 147.826552 
L 479.559441 156.48119 
L 481.727273 157.549611 
L 483.895105 152.302173 
L 486.062937 145.228284 
L 488.230769 131.562911 
L 490.398601 124.002526 
L 492.566434 125.67843 
L 494.734266 133.370564 
L 496.902098 144.957777 
L 501.237762 161.709739 
L 503.405594 165.172638 
L 505.573427 164.882128 
L 507.741259 163.392213 
L 512.076923 152.217947 
L 514.244755 151.555661 
L 516.412587 149.720689 
L 518.58042 152.900004 
L 520.748252 158.681769 
L 522.916084 160.883507 
L 525.083916 163.885876 
L 527.251748 161.997742 
L 529.41958 149.625425 
L 531.587413 134.036017 
L 533.755245 113.180538 
L 535.923077 100.774674 
L 540.258741 135.066296 
L 542.426573 150.444379 
L 544.594406 163.173955 
L 546.762238 171.00911 
L 548.93007 177.399809 
L 551.097902 179.067884 
L 553.265734 176.563451 
L 555.433566 159.637127 
L 557.601399 81.160316 
L 558.95601 -1 
M 563.641416 -1 
L 564.104895 25.248817 
L 566.272727 104.081119 
L 568.440559 123.877095 
L 570.608392 134.493949 
L 572.776224 135.395263 
L 574.944056 119.300637 
L 577.111888 106.578439 
L 579.27972 93.112306 
L 581.447552 90.983031 
L 583.615385 111.693794 
L 585.783217 127.081092 
L 587.951049 139.915944 
L 590.118881 148.003625 
L 592.286713 151.434296 
L 594.454545 153.851183 
L 596.622378 151.722285 
L 598.79021 146.366266 
L 600.958042 140.335111 
L 603.125874 132.768806 
L 605.293706 131.04654 
L 607.461538 132.10734 
L 607.461538 132.10734 
" style="fill:none;stroke:#fbc15e;stroke-linecap:square;stroke-width:4.5;"/>
   </g>
   <g id="line2d_32">
    <path clip-path="url(#pcf17a0e820)" d="M 115.363636 147.685448 
L 622.636364 147.685448 
" style="fill:none;stroke:#777777;stroke-linecap:square;stroke-width:1.5;"/>
   </g>
   <g id="patch_3">
    <path d="M 90 157.5 
L 90 21.6 
" style="fill:none;stroke:#ffffff;stroke-linecap:square;stroke-linejoin:miter;"/>
   </g>
   <g id="patch_4">
    <path d="M 648 157.5 
L 648 21.6 
" style="fill:none;stroke:#ffffff;stroke-linecap:square;stroke-linejoin:miter;"/>
   </g>
   <g id="patch_5">
    <path d="M 90 157.5 
L 648 157.5 
" style="fill:none;stroke:#ffffff;stroke-linecap:square;stroke-linejoin:miter;"/>
   </g>
   <g id="patch_6">
    <path d="M 90 21.6 
L 648 21.6 
" style="fill:none;stroke:#ffffff;stroke-linecap:square;stroke-linejoin:miter;"/>
   </g>
   <g id="legend_1">
    <g id="patch_7">
     <path d="M 336.846875 73.634375 
L 641 73.634375 
Q 643 73.634375 643 71.634375 
L 643 28.6 
Q 643 26.6 641 26.6 
L 336.846875 26.6 
Q 334.846875 26.6 334.846875 28.6 
L 334.846875 71.634375 
Q 334.846875 73.634375 336.846875 73.634375 
z
" style="fill:#e5e5e5;opacity:0.8;stroke:#cccccc;stroke-linejoin:miter;stroke-width:0.5;"/>
    </g>
    <g id="line2d_33"/>
    <g id="line2d_34">
     <g>
      <use style="fill:#e24a33;fill-opacity:0.3;stroke:#e24a33;stroke-opacity:0.3;" x="348.846875" xlink:href="#m62848840b2" y="34.698438"/>
     </g>
    </g>
    <g id="text_18">
     <!-- Korea, South deaths daily growth factor  -->
     <defs>
      <path d="M 9.8125 72.90625 
L 19.671875 72.90625 
L 19.671875 42.09375 
L 52.390625 72.90625 
L 65.09375 72.90625 
L 28.90625 38.921875 
L 67.671875 0 
L 54.6875 0 
L 19.671875 35.109375 
L 19.671875 0 
L 9.8125 0 
z
" id="DejaVuSans-75"/>
      <path d="M 11.71875 12.40625 
L 22.015625 12.40625 
L 22.015625 4 
L 14.015625 -11.625 
L 7.71875 -11.625 
L 11.71875 4 
z
" id="DejaVuSans-44"/>
      <path d="M 53.515625 70.515625 
L 53.515625 60.890625 
Q 47.90625 63.578125 42.921875 64.890625 
Q 37.9375 66.21875 33.296875 66.21875 
Q 25.25 66.21875 20.875 63.09375 
Q 16.5 59.96875 16.5 54.203125 
Q 16.5 49.359375 19.40625 46.890625 
Q 22.3125 44.4375 30.421875 42.921875 
L 36.375 41.703125 
Q 47.40625 39.59375 52.65625 34.296875 
Q 57.90625 29 57.90625 20.125 
Q 57.90625 9.515625 50.796875 4.046875 
Q 43.703125 -1.421875 29.984375 -1.421875 
Q 24.8125 -1.421875 18.96875 -0.25 
Q 13.140625 0.921875 6.890625 3.21875 
L 6.890625 13.375 
Q 12.890625 10.015625 18.65625 8.296875 
Q 24.421875 6.59375 29.984375 6.59375 
Q 38.421875 6.59375 43.015625 9.90625 
Q 47.609375 13.234375 47.609375 19.390625 
Q 47.609375 24.75 44.3125 27.78125 
Q 41.015625 30.8125 33.5 32.328125 
L 27.484375 33.5 
Q 16.453125 35.6875 11.515625 40.375 
Q 6.59375 45.0625 6.59375 53.421875 
Q 6.59375 63.09375 13.40625 68.65625 
Q 20.21875 74.21875 32.171875 74.21875 
Q 37.3125 74.21875 42.625 73.28125 
Q 47.953125 72.359375 53.515625 70.515625 
z
" id="DejaVuSans-83"/>
      <path d="M 8.5 21.578125 
L 8.5 54.6875 
L 17.484375 54.6875 
L 17.484375 21.921875 
Q 17.484375 14.15625 20.5 10.265625 
Q 23.53125 6.390625 29.59375 6.390625 
Q 36.859375 6.390625 41.078125 11.03125 
Q 45.3125 15.671875 45.3125 23.6875 
L 45.3125 54.6875 
L 54.296875 54.6875 
L 54.296875 0 
L 45.3125 0 
L 45.3125 8.40625 
Q 42.046875 3.421875 37.71875 1 
Q 33.40625 -1.421875 27.6875 -1.421875 
Q 18.265625 -1.421875 13.375 4.4375 
Q 8.5 10.296875 8.5 21.578125 
z
M 31.109375 56 
z
" id="DejaVuSans-117"/>
      <path d="M 9.421875 54.6875 
L 18.40625 54.6875 
L 18.40625 0 
L 9.421875 0 
z
M 9.421875 75.984375 
L 18.40625 75.984375 
L 18.40625 64.59375 
L 9.421875 64.59375 
z
" id="DejaVuSans-105"/>
      <path d="M 9.421875 75.984375 
L 18.40625 75.984375 
L 18.40625 0 
L 9.421875 0 
z
" id="DejaVuSans-108"/>
      <path d="M 32.171875 -5.078125 
Q 28.375 -14.84375 24.75 -17.8125 
Q 21.140625 -20.796875 15.09375 -20.796875 
L 7.90625 -20.796875 
L 7.90625 -13.28125 
L 13.1875 -13.28125 
Q 16.890625 -13.28125 18.9375 -11.515625 
Q 21 -9.765625 23.484375 -3.21875 
L 25.09375 0.875 
L 2.984375 54.6875 
L 12.5 54.6875 
L 29.59375 11.921875 
L 46.6875 54.6875 
L 56.203125 54.6875 
z
" id="DejaVuSans-121"/>
     </defs>
     <g transform="translate(366.846875 38.198438)scale(0.1 -0.1)">
      <use xlink:href="#DejaVuSans-75"/>
      <use x="60.576172" xlink:href="#DejaVuSans-111"/>
      <use x="121.757812" xlink:href="#DejaVuSans-114"/>
      <use x="160.621094" xlink:href="#DejaVuSans-101"/>
      <use x="222.144531" xlink:href="#DejaVuSans-97"/>
      <use x="283.423828" xlink:href="#DejaVuSans-44"/>
      <use x="315.210938" xlink:href="#DejaVuSans-32"/>
      <use x="346.998047" xlink:href="#DejaVuSans-83"/>
      <use x="410.474609" xlink:href="#DejaVuSans-111"/>
      <use x="471.65625" xlink:href="#DejaVuSans-117"/>
      <use x="535.035156" xlink:href="#DejaVuSans-116"/>
      <use x="574.244141" xlink:href="#DejaVuSans-104"/>
      <use x="637.623047" xlink:href="#DejaVuSans-32"/>
      <use x="669.410156" xlink:href="#DejaVuSans-100"/>
      <use x="732.886719" xlink:href="#DejaVuSans-101"/>
      <use x="794.410156" xlink:href="#DejaVuSans-97"/>
      <use x="855.689453" xlink:href="#DejaVuSans-116"/>
      <use x="894.898438" xlink:href="#DejaVuSans-104"/>
      <use x="958.277344" xlink:href="#DejaVuSans-115"/>
      <use x="1010.376953" xlink:href="#DejaVuSans-32"/>
      <use x="1042.164062" xlink:href="#DejaVuSans-100"/>
      <use x="1105.640625" xlink:href="#DejaVuSans-97"/>
      <use x="1166.919922" xlink:href="#DejaVuSans-105"/>
      <use x="1194.703125" xlink:href="#DejaVuSans-108"/>
      <use x="1222.486328" xlink:href="#DejaVuSans-121"/>
      <use x="1281.666016" xlink:href="#DejaVuSans-32"/>
      <use x="1313.453125" xlink:href="#DejaVuSans-103"/>
      <use x="1376.929688" xlink:href="#DejaVuSans-114"/>
      <use x="1415.792969" xlink:href="#DejaVuSans-111"/>
      <use x="1476.974609" xlink:href="#DejaVuSans-119"/>
      <use x="1558.761719" xlink:href="#DejaVuSans-116"/>
      <use x="1597.970703" xlink:href="#DejaVuSans-104"/>
      <use x="1661.349609" xlink:href="#DejaVuSans-32"/>
      <use x="1693.136719" xlink:href="#DejaVuSans-102"/>
      <use x="1728.341797" xlink:href="#DejaVuSans-97"/>
      <use x="1789.621094" xlink:href="#DejaVuSans-99"/>
      <use x="1844.601562" xlink:href="#DejaVuSans-116"/>
      <use x="1883.810547" xlink:href="#DejaVuSans-111"/>
      <use x="1944.992188" xlink:href="#DejaVuSans-114"/>
      <use x="1986.105469" xlink:href="#DejaVuSans-32"/>
     </g>
    </g>
    <g id="line2d_35">
     <path d="M 338.846875 49.376563 
L 358.846875 49.376563 
" style="fill:none;stroke:#e24a33;stroke-linecap:square;stroke-opacity:0.7;stroke-width:3;"/>
    </g>
    <g id="line2d_36"/>
    <g id="text_19">
     <!-- Korea, South deaths daily growth factor (rolling mean) -->
     <defs>
      <path d="M 52 44.1875 
Q 55.375 50.25 60.0625 53.125 
Q 64.75 56 71.09375 56 
Q 79.640625 56 84.28125 50.015625 
Q 88.921875 44.046875 88.921875 33.015625 
L 88.921875 0 
L 79.890625 0 
L 79.890625 32.71875 
Q 79.890625 40.578125 77.09375 44.375 
Q 74.3125 48.1875 68.609375 48.1875 
Q 61.625 48.1875 57.5625 43.546875 
Q 53.515625 38.921875 53.515625 30.90625 
L 53.515625 0 
L 44.484375 0 
L 44.484375 32.71875 
Q 44.484375 40.625 41.703125 44.40625 
Q 38.921875 48.1875 33.109375 48.1875 
Q 26.21875 48.1875 22.15625 43.53125 
Q 18.109375 38.875 18.109375 30.90625 
L 18.109375 0 
L 9.078125 0 
L 9.078125 54.6875 
L 18.109375 54.6875 
L 18.109375 46.1875 
Q 21.1875 51.21875 25.484375 53.609375 
Q 29.78125 56 35.6875 56 
Q 41.65625 56 45.828125 52.96875 
Q 50 49.953125 52 44.1875 
z
" id="DejaVuSans-109"/>
     </defs>
     <g transform="translate(366.846875 52.876563)scale(0.1 -0.1)">
      <use xlink:href="#DejaVuSans-75"/>
      <use x="60.576172" xlink:href="#DejaVuSans-111"/>
      <use x="121.757812" xlink:href="#DejaVuSans-114"/>
      <use x="160.621094" xlink:href="#DejaVuSans-101"/>
      <use x="222.144531" xlink:href="#DejaVuSans-97"/>
      <use x="283.423828" xlink:href="#DejaVuSans-44"/>
      <use x="315.210938" xlink:href="#DejaVuSans-32"/>
      <use x="346.998047" xlink:href="#DejaVuSans-83"/>
      <use x="410.474609" xlink:href="#DejaVuSans-111"/>
      <use x="471.65625" xlink:href="#DejaVuSans-117"/>
      <use x="535.035156" xlink:href="#DejaVuSans-116"/>
      <use x="574.244141" xlink:href="#DejaVuSans-104"/>
      <use x="637.623047" xlink:href="#DejaVuSans-32"/>
      <use x="669.410156" xlink:href="#DejaVuSans-100"/>
      <use x="732.886719" xlink:href="#DejaVuSans-101"/>
      <use x="794.410156" xlink:href="#DejaVuSans-97"/>
      <use x="855.689453" xlink:href="#DejaVuSans-116"/>
      <use x="894.898438" xlink:href="#DejaVuSans-104"/>
      <use x="958.277344" xlink:href="#DejaVuSans-115"/>
      <use x="1010.376953" xlink:href="#DejaVuSans-32"/>
      <use x="1042.164062" xlink:href="#DejaVuSans-100"/>
      <use x="1105.640625" xlink:href="#DejaVuSans-97"/>
      <use x="1166.919922" xlink:href="#DejaVuSans-105"/>
      <use x="1194.703125" xlink:href="#DejaVuSans-108"/>
      <use x="1222.486328" xlink:href="#DejaVuSans-121"/>
      <use x="1281.666016" xlink:href="#DejaVuSans-32"/>
      <use x="1313.453125" xlink:href="#DejaVuSans-103"/>
      <use x="1376.929688" xlink:href="#DejaVuSans-114"/>
      <use x="1415.792969" xlink:href="#DejaVuSans-111"/>
      <use x="1476.974609" xlink:href="#DejaVuSans-119"/>
      <use x="1558.761719" xlink:href="#DejaVuSans-116"/>
      <use x="1597.970703" xlink:href="#DejaVuSans-104"/>
      <use x="1661.349609" xlink:href="#DejaVuSans-32"/>
      <use x="1693.136719" xlink:href="#DejaVuSans-102"/>
      <use x="1728.341797" xlink:href="#DejaVuSans-97"/>
      <use x="1789.621094" xlink:href="#DejaVuSans-99"/>
      <use x="1844.601562" xlink:href="#DejaVuSans-116"/>
      <use x="1883.810547" xlink:href="#DejaVuSans-111"/>
      <use x="1944.992188" xlink:href="#DejaVuSans-114"/>
      <use x="1986.105469" xlink:href="#DejaVuSans-32"/>
      <use x="2017.892578" xlink:href="#DejaVuSans-40"/>
      <use x="2056.90625" xlink:href="#DejaVuSans-114"/>
      <use x="2095.769531" xlink:href="#DejaVuSans-111"/>
      <use x="2156.951172" xlink:href="#DejaVuSans-108"/>
      <use x="2184.734375" xlink:href="#DejaVuSans-108"/>
      <use x="2212.517578" xlink:href="#DejaVuSans-105"/>
      <use x="2240.300781" xlink:href="#DejaVuSans-110"/>
      <use x="2303.679688" xlink:href="#DejaVuSans-103"/>
      <use x="2367.15625" xlink:href="#DejaVuSans-32"/>
      <use x="2398.943359" xlink:href="#DejaVuSans-109"/>
      <use x="2496.355469" xlink:href="#DejaVuSans-101"/>
      <use x="2557.878906" xlink:href="#DejaVuSans-97"/>
      <use x="2619.158203" xlink:href="#DejaVuSans-110"/>
      <use x="2682.537109" xlink:href="#DejaVuSans-41"/>
     </g>
    </g>
    <g id="line2d_37">
     <path d="M 338.846875 64.054688 
L 358.846875 64.054688 
" style="fill:none;stroke:#fbc15e;stroke-linecap:square;stroke-width:4.5;"/>
    </g>
    <g id="line2d_38"/>
    <g id="text_20">
     <!-- Korea, South estimated R (using deaths) -->
     <g transform="translate(366.846875 67.554688)scale(0.1 -0.1)">
      <use xlink:href="#DejaVuSans-75"/>
      <use x="60.576172" xlink:href="#DejaVuSans-111"/>
      <use x="121.757812" xlink:href="#DejaVuSans-114"/>
      <use x="160.621094" xlink:href="#DejaVuSans-101"/>
      <use x="222.144531" xlink:href="#DejaVuSans-97"/>
      <use x="283.423828" xlink:href="#DejaVuSans-44"/>
      <use x="315.210938" xlink:href="#DejaVuSans-32"/>
      <use x="346.998047" xlink:href="#DejaVuSans-83"/>
      <use x="410.474609" xlink:href="#DejaVuSans-111"/>
      <use x="471.65625" xlink:href="#DejaVuSans-117"/>
      <use x="535.035156" xlink:href="#DejaVuSans-116"/>
      <use x="574.244141" xlink:href="#DejaVuSans-104"/>
      <use x="637.623047" xlink:href="#DejaVuSans-32"/>
      <use x="669.410156" xlink:href="#DejaVuSans-101"/>
      <use x="730.933594" xlink:href="#DejaVuSans-115"/>
      <use x="783.033203" xlink:href="#DejaVuSans-116"/>
      <use x="822.242188" xlink:href="#DejaVuSans-105"/>
      <use x="850.025391" xlink:href="#DejaVuSans-109"/>
      <use x="947.4375" xlink:href="#DejaVuSans-97"/>
      <use x="1008.716797" xlink:href="#DejaVuSans-116"/>
      <use x="1047.925781" xlink:href="#DejaVuSans-101"/>
      <use x="1109.449219" xlink:href="#DejaVuSans-100"/>
      <use x="1172.925781" xlink:href="#DejaVuSans-32"/>
      <use x="1204.712891" xlink:href="#DejaVuSans-82"/>
      <use x="1274.195312" xlink:href="#DejaVuSans-32"/>
      <use x="1305.982422" xlink:href="#DejaVuSans-40"/>
      <use x="1344.996094" xlink:href="#DejaVuSans-117"/>
      <use x="1408.375" xlink:href="#DejaVuSans-115"/>
      <use x="1460.474609" xlink:href="#DejaVuSans-105"/>
      <use x="1488.257812" xlink:href="#DejaVuSans-110"/>
      <use x="1551.636719" xlink:href="#DejaVuSans-103"/>
      <use x="1615.113281" xlink:href="#DejaVuSans-32"/>
      <use x="1646.900391" xlink:href="#DejaVuSans-100"/>
      <use x="1710.376953" xlink:href="#DejaVuSans-101"/>
      <use x="1771.900391" xlink:href="#DejaVuSans-97"/>
      <use x="1833.179688" xlink:href="#DejaVuSans-116"/>
      <use x="1872.388672" xlink:href="#DejaVuSans-104"/>
      <use x="1935.767578" xlink:href="#DejaVuSans-115"/>
      <use x="1987.867188" xlink:href="#DejaVuSans-41"/>
     </g>
    </g>
   </g>
  </g>
 </g>
 <defs>
  <clipPath id="pcf17a0e820">
   <rect height="135.9" width="558" x="90" y="21.6"/>
  </clipPath>
 </defs>
</svg>
