<?xml version="1.0" encoding="utf-8" standalone="no"?>
<!DOCTYPE svg PUBLIC "-//W3C//DTD SVG 1.1//EN"
  "http://www.w3.org/Graphics/SVG/1.1/DTD/svg11.dtd">
<!-- Created with matplotlib (https://matplotlib.org/) -->
<svg height="432pt" version="1.1" viewBox="0 0 720 432" width="720pt" xmlns="http://www.w3.org/2000/svg" xmlns:xlink="http://www.w3.org/1999/xlink">
 <defs>
  <style type="text/css">
*{stroke-linecap:butt;stroke-linejoin:round;}
  </style>
 </defs>
 <g id="figure_1">
  <g id="patch_1">
   <path d="M 0 432 
L 720 432 
L 720 0 
L 0 0 
z
" style="fill:#ffffff;"/>
  </g>
  <g id="axes_1">
   <g id="patch_2">
    <path d="M 90 378 
L 648 378 
L 648 229.745455 
L 90 229.745455 
z
" style="fill:#e5e5e5;"/>
   </g>
   <g id="matplotlib.axis_1">
    <g id="xtick_1">
     <g id="line2d_1">
      <path clip-path="url(#p9c4730ed81)" d="M 91.803782 378 
L 91.803782 229.745455 
" style="fill:none;stroke:#ffffff;stroke-linecap:square;stroke-width:0.8;"/>
     </g>
     <g id="line2d_2">
      <defs>
       <path d="M 0 0 
L 0 3.5 
" id="m9a54f326f7" style="stroke:#555555;stroke-width:0.8;"/>
      </defs>
      <g>
       <use style="fill:#555555;stroke:#555555;stroke-width:0.8;" x="91.803782" xlink:href="#m9a54f326f7" y="378"/>
      </g>
     </g>
     <g id="text_1">
      <!-- 0 -->
      <defs>
       <path d="M 31.78125 66.40625 
Q 24.171875 66.40625 20.328125 58.90625 
Q 16.5 51.421875 16.5 36.375 
Q 16.5 21.390625 20.328125 13.890625 
Q 24.171875 6.390625 31.78125 6.390625 
Q 39.453125 6.390625 43.28125 13.890625 
Q 47.125 21.390625 47.125 36.375 
Q 47.125 51.421875 43.28125 58.90625 
Q 39.453125 66.40625 31.78125 66.40625 
z
M 31.78125 74.21875 
Q 44.046875 74.21875 50.515625 64.515625 
Q 56.984375 54.828125 56.984375 36.375 
Q 56.984375 17.96875 50.515625 8.265625 
Q 44.046875 -1.421875 31.78125 -1.421875 
Q 19.53125 -1.421875 13.0625 8.265625 
Q 6.59375 17.96875 6.59375 36.375 
Q 6.59375 54.828125 13.0625 64.515625 
Q 19.53125 74.21875 31.78125 74.21875 
z
" id="DejaVuSans-48"/>
      </defs>
      <g style="fill:#555555;" transform="translate(88.622532 392.598437)scale(0.1 -0.1)">
       <use xlink:href="#DejaVuSans-48"/>
      </g>
     </g>
    </g>
    <g id="xtick_2">
     <g id="line2d_3">
      <path clip-path="url(#p9c4730ed81)" d="M 181.992888 378 
L 181.992888 229.745455 
" style="fill:none;stroke:#ffffff;stroke-linecap:square;stroke-width:0.8;"/>
     </g>
     <g id="line2d_4">
      <g>
       <use style="fill:#555555;stroke:#555555;stroke-width:0.8;" x="181.992888" xlink:href="#m9a54f326f7" y="378"/>
      </g>
     </g>
     <g id="text_2">
      <!-- 50 -->
      <defs>
       <path d="M 10.796875 72.90625 
L 49.515625 72.90625 
L 49.515625 64.59375 
L 19.828125 64.59375 
L 19.828125 46.734375 
Q 21.96875 47.46875 24.109375 47.828125 
Q 26.265625 48.1875 28.421875 48.1875 
Q 40.625 48.1875 47.75 41.5 
Q 54.890625 34.8125 54.890625 23.390625 
Q 54.890625 11.625 47.5625 5.09375 
Q 40.234375 -1.421875 26.90625 -1.421875 
Q 22.3125 -1.421875 17.546875 -0.640625 
Q 12.796875 0.140625 7.71875 1.703125 
L 7.71875 11.625 
Q 12.109375 9.234375 16.796875 8.0625 
Q 21.484375 6.890625 26.703125 6.890625 
Q 35.15625 6.890625 40.078125 11.328125 
Q 45.015625 15.765625 45.015625 23.390625 
Q 45.015625 31 40.078125 35.4375 
Q 35.15625 39.890625 26.703125 39.890625 
Q 22.75 39.890625 18.8125 39.015625 
Q 14.890625 38.140625 10.796875 36.28125 
z
" id="DejaVuSans-53"/>
      </defs>
      <g style="fill:#555555;" transform="translate(175.630388 392.598437)scale(0.1 -0.1)">
       <use xlink:href="#DejaVuSans-53"/>
       <use x="63.623047" xlink:href="#DejaVuSans-48"/>
      </g>
     </g>
    </g>
    <g id="xtick_3">
     <g id="line2d_5">
      <path clip-path="url(#p9c4730ed81)" d="M 272.181995 378 
L 272.181995 229.745455 
" style="fill:none;stroke:#ffffff;stroke-linecap:square;stroke-width:0.8;"/>
     </g>
     <g id="line2d_6">
      <g>
       <use style="fill:#555555;stroke:#555555;stroke-width:0.8;" x="272.181995" xlink:href="#m9a54f326f7" y="378"/>
      </g>
     </g>
     <g id="text_3">
      <!-- 100 -->
      <defs>
       <path d="M 12.40625 8.296875 
L 28.515625 8.296875 
L 28.515625 63.921875 
L 10.984375 60.40625 
L 10.984375 69.390625 
L 28.421875 72.90625 
L 38.28125 72.90625 
L 38.28125 8.296875 
L 54.390625 8.296875 
L 54.390625 0 
L 12.40625 0 
z
" id="DejaVuSans-49"/>
      </defs>
      <g style="fill:#555555;" transform="translate(262.638245 392.598437)scale(0.1 -0.1)">
       <use xlink:href="#DejaVuSans-49"/>
       <use x="63.623047" xlink:href="#DejaVuSans-48"/>
       <use x="127.246094" xlink:href="#DejaVuSans-48"/>
      </g>
     </g>
    </g>
    <g id="xtick_4">
     <g id="line2d_7">
      <path clip-path="url(#p9c4730ed81)" d="M 362.371101 378 
L 362.371101 229.745455 
" style="fill:none;stroke:#ffffff;stroke-linecap:square;stroke-width:0.8;"/>
     </g>
     <g id="line2d_8">
      <g>
       <use style="fill:#555555;stroke:#555555;stroke-width:0.8;" x="362.371101" xlink:href="#m9a54f326f7" y="378"/>
      </g>
     </g>
     <g id="text_4">
      <!-- 150 -->
      <g style="fill:#555555;" transform="translate(352.827351 392.598437)scale(0.1 -0.1)">
       <use xlink:href="#DejaVuSans-49"/>
       <use x="63.623047" xlink:href="#DejaVuSans-53"/>
       <use x="127.246094" xlink:href="#DejaVuSans-48"/>
      </g>
     </g>
    </g>
    <g id="xtick_5">
     <g id="line2d_9">
      <path clip-path="url(#p9c4730ed81)" d="M 452.560207 378 
L 452.560207 229.745455 
" style="fill:none;stroke:#ffffff;stroke-linecap:square;stroke-width:0.8;"/>
     </g>
     <g id="line2d_10">
      <g>
       <use style="fill:#555555;stroke:#555555;stroke-width:0.8;" x="452.560207" xlink:href="#m9a54f326f7" y="378"/>
      </g>
     </g>
     <g id="text_5">
      <!-- 200 -->
      <defs>
       <path d="M 19.1875 8.296875 
L 53.609375 8.296875 
L 53.609375 0 
L 7.328125 0 
L 7.328125 8.296875 
Q 12.9375 14.109375 22.625 23.890625 
Q 32.328125 33.6875 34.8125 36.53125 
Q 39.546875 41.84375 41.421875 45.53125 
Q 43.3125 49.21875 43.3125 52.78125 
Q 43.3125 58.59375 39.234375 62.25 
Q 35.15625 65.921875 28.609375 65.921875 
Q 23.96875 65.921875 18.8125 64.3125 
Q 13.671875 62.703125 7.8125 59.421875 
L 7.8125 69.390625 
Q 13.765625 71.78125 18.9375 73 
Q 24.125 74.21875 28.421875 74.21875 
Q 39.75 74.21875 46.484375 68.546875 
Q 53.21875 62.890625 53.21875 53.421875 
Q 53.21875 48.921875 51.53125 44.890625 
Q 49.859375 40.875 45.40625 35.40625 
Q 44.1875 33.984375 37.640625 27.21875 
Q 31.109375 20.453125 19.1875 8.296875 
z
" id="DejaVuSans-50"/>
      </defs>
      <g style="fill:#555555;" transform="translate(443.016457 392.598437)scale(0.1 -0.1)">
       <use xlink:href="#DejaVuSans-50"/>
       <use x="63.623047" xlink:href="#DejaVuSans-48"/>
       <use x="127.246094" xlink:href="#DejaVuSans-48"/>
      </g>
     </g>
    </g>
    <g id="xtick_6">
     <g id="line2d_11">
      <path clip-path="url(#p9c4730ed81)" d="M 542.749313 378 
L 542.749313 229.745455 
" style="fill:none;stroke:#ffffff;stroke-linecap:square;stroke-width:0.8;"/>
     </g>
     <g id="line2d_12">
      <g>
       <use style="fill:#555555;stroke:#555555;stroke-width:0.8;" x="542.749313" xlink:href="#m9a54f326f7" y="378"/>
      </g>
     </g>
     <g id="text_6">
      <!-- 250 -->
      <g style="fill:#555555;" transform="translate(533.205563 392.598437)scale(0.1 -0.1)">
       <use xlink:href="#DejaVuSans-50"/>
       <use x="63.623047" xlink:href="#DejaVuSans-53"/>
       <use x="127.246094" xlink:href="#DejaVuSans-48"/>
      </g>
     </g>
    </g>
    <g id="xtick_7">
     <g id="line2d_13">
      <path clip-path="url(#p9c4730ed81)" d="M 632.938419 378 
L 632.938419 229.745455 
" style="fill:none;stroke:#ffffff;stroke-linecap:square;stroke-width:0.8;"/>
     </g>
     <g id="line2d_14">
      <g>
       <use style="fill:#555555;stroke:#555555;stroke-width:0.8;" x="632.938419" xlink:href="#m9a54f326f7" y="378"/>
      </g>
     </g>
     <g id="text_7">
      <!-- 300 -->
      <defs>
       <path d="M 40.578125 39.3125 
Q 47.65625 37.796875 51.625 33 
Q 55.609375 28.21875 55.609375 21.1875 
Q 55.609375 10.40625 48.1875 4.484375 
Q 40.765625 -1.421875 27.09375 -1.421875 
Q 22.515625 -1.421875 17.65625 -0.515625 
Q 12.796875 0.390625 7.625 2.203125 
L 7.625 11.71875 
Q 11.71875 9.328125 16.59375 8.109375 
Q 21.484375 6.890625 26.8125 6.890625 
Q 36.078125 6.890625 40.9375 10.546875 
Q 45.796875 14.203125 45.796875 21.1875 
Q 45.796875 27.640625 41.28125 31.265625 
Q 36.765625 34.90625 28.71875 34.90625 
L 20.21875 34.90625 
L 20.21875 43.015625 
L 29.109375 43.015625 
Q 36.375 43.015625 40.234375 45.921875 
Q 44.09375 48.828125 44.09375 54.296875 
Q 44.09375 59.90625 40.109375 62.90625 
Q 36.140625 65.921875 28.71875 65.921875 
Q 24.65625 65.921875 20.015625 65.03125 
Q 15.375 64.15625 9.8125 62.3125 
L 9.8125 71.09375 
Q 15.4375 72.65625 20.34375 73.4375 
Q 25.25 74.21875 29.59375 74.21875 
Q 40.828125 74.21875 47.359375 69.109375 
Q 53.90625 64.015625 53.90625 55.328125 
Q 53.90625 49.265625 50.4375 45.09375 
Q 46.96875 40.921875 40.578125 39.3125 
z
" id="DejaVuSans-51"/>
      </defs>
      <g style="fill:#555555;" transform="translate(623.394669 392.598437)scale(0.1 -0.1)">
       <use xlink:href="#DejaVuSans-51"/>
       <use x="63.623047" xlink:href="#DejaVuSans-48"/>
       <use x="127.246094" xlink:href="#DejaVuSans-48"/>
      </g>
     </g>
    </g>
    <g id="text_8">
     <!-- days since 3 deaths -->
     <defs>
      <path d="M 45.40625 46.390625 
L 45.40625 75.984375 
L 54.390625 75.984375 
L 54.390625 0 
L 45.40625 0 
L 45.40625 8.203125 
Q 42.578125 3.328125 38.25 0.953125 
Q 33.9375 -1.421875 27.875 -1.421875 
Q 17.96875 -1.421875 11.734375 6.484375 
Q 5.515625 14.40625 5.515625 27.296875 
Q 5.515625 40.1875 11.734375 48.09375 
Q 17.96875 56 27.875 56 
Q 33.9375 56 38.25 53.625 
Q 42.578125 51.265625 45.40625 46.390625 
z
M 14.796875 27.296875 
Q 14.796875 17.390625 18.875 11.75 
Q 22.953125 6.109375 30.078125 6.109375 
Q 37.203125 6.109375 41.296875 11.75 
Q 45.40625 17.390625 45.40625 27.296875 
Q 45.40625 37.203125 41.296875 42.84375 
Q 37.203125 48.484375 30.078125 48.484375 
Q 22.953125 48.484375 18.875 42.84375 
Q 14.796875 37.203125 14.796875 27.296875 
z
" id="DejaVuSans-100"/>
      <path d="M 34.28125 27.484375 
Q 23.390625 27.484375 19.1875 25 
Q 14.984375 22.515625 14.984375 16.5 
Q 14.984375 11.71875 18.140625 8.90625 
Q 21.296875 6.109375 26.703125 6.109375 
Q 34.1875 6.109375 38.703125 11.40625 
Q 43.21875 16.703125 43.21875 25.484375 
L 43.21875 27.484375 
z
M 52.203125 31.203125 
L 52.203125 0 
L 43.21875 0 
L 43.21875 8.296875 
Q 40.140625 3.328125 35.546875 0.953125 
Q 30.953125 -1.421875 24.3125 -1.421875 
Q 15.921875 -1.421875 10.953125 3.296875 
Q 6 8.015625 6 15.921875 
Q 6 25.140625 12.171875 29.828125 
Q 18.359375 34.515625 30.609375 34.515625 
L 43.21875 34.515625 
L 43.21875 35.40625 
Q 43.21875 41.609375 39.140625 45 
Q 35.0625 48.390625 27.6875 48.390625 
Q 23 48.390625 18.546875 47.265625 
Q 14.109375 46.140625 10.015625 43.890625 
L 10.015625 52.203125 
Q 14.9375 54.109375 19.578125 55.046875 
Q 24.21875 56 28.609375 56 
Q 40.484375 56 46.34375 49.84375 
Q 52.203125 43.703125 52.203125 31.203125 
z
" id="DejaVuSans-97"/>
      <path d="M 32.171875 -5.078125 
Q 28.375 -14.84375 24.75 -17.8125 
Q 21.140625 -20.796875 15.09375 -20.796875 
L 7.90625 -20.796875 
L 7.90625 -13.28125 
L 13.1875 -13.28125 
Q 16.890625 -13.28125 18.9375 -11.515625 
Q 21 -9.765625 23.484375 -3.21875 
L 25.09375 0.875 
L 2.984375 54.6875 
L 12.5 54.6875 
L 29.59375 11.921875 
L 46.6875 54.6875 
L 56.203125 54.6875 
z
" id="DejaVuSans-121"/>
      <path d="M 44.28125 53.078125 
L 44.28125 44.578125 
Q 40.484375 46.53125 36.375 47.5 
Q 32.28125 48.484375 27.875 48.484375 
Q 21.1875 48.484375 17.84375 46.4375 
Q 14.5 44.390625 14.5 40.28125 
Q 14.5 37.15625 16.890625 35.375 
Q 19.28125 33.59375 26.515625 31.984375 
L 29.59375 31.296875 
Q 39.15625 29.25 43.1875 25.515625 
Q 47.21875 21.78125 47.21875 15.09375 
Q 47.21875 7.46875 41.1875 3.015625 
Q 35.15625 -1.421875 24.609375 -1.421875 
Q 20.21875 -1.421875 15.453125 -0.5625 
Q 10.6875 0.296875 5.421875 2 
L 5.421875 11.28125 
Q 10.40625 8.6875 15.234375 7.390625 
Q 20.0625 6.109375 24.8125 6.109375 
Q 31.15625 6.109375 34.5625 8.28125 
Q 37.984375 10.453125 37.984375 14.40625 
Q 37.984375 18.0625 35.515625 20.015625 
Q 33.0625 21.96875 24.703125 23.78125 
L 21.578125 24.515625 
Q 13.234375 26.265625 9.515625 29.90625 
Q 5.8125 33.546875 5.8125 39.890625 
Q 5.8125 47.609375 11.28125 51.796875 
Q 16.75 56 26.8125 56 
Q 31.78125 56 36.171875 55.265625 
Q 40.578125 54.546875 44.28125 53.078125 
z
" id="DejaVuSans-115"/>
      <path id="DejaVuSans-32"/>
      <path d="M 9.421875 54.6875 
L 18.40625 54.6875 
L 18.40625 0 
L 9.421875 0 
z
M 9.421875 75.984375 
L 18.40625 75.984375 
L 18.40625 64.59375 
L 9.421875 64.59375 
z
" id="DejaVuSans-105"/>
      <path d="M 54.890625 33.015625 
L 54.890625 0 
L 45.90625 0 
L 45.90625 32.71875 
Q 45.90625 40.484375 42.875 44.328125 
Q 39.84375 48.1875 33.796875 48.1875 
Q 26.515625 48.1875 22.3125 43.546875 
Q 18.109375 38.921875 18.109375 30.90625 
L 18.109375 0 
L 9.078125 0 
L 9.078125 54.6875 
L 18.109375 54.6875 
L 18.109375 46.1875 
Q 21.34375 51.125 25.703125 53.5625 
Q 30.078125 56 35.796875 56 
Q 45.21875 56 50.046875 50.171875 
Q 54.890625 44.34375 54.890625 33.015625 
z
" id="DejaVuSans-110"/>
      <path d="M 48.78125 52.59375 
L 48.78125 44.1875 
Q 44.96875 46.296875 41.140625 47.34375 
Q 37.3125 48.390625 33.40625 48.390625 
Q 24.65625 48.390625 19.8125 42.84375 
Q 14.984375 37.3125 14.984375 27.296875 
Q 14.984375 17.28125 19.8125 11.734375 
Q 24.65625 6.203125 33.40625 6.203125 
Q 37.3125 6.203125 41.140625 7.25 
Q 44.96875 8.296875 48.78125 10.40625 
L 48.78125 2.09375 
Q 45.015625 0.34375 40.984375 -0.53125 
Q 36.96875 -1.421875 32.421875 -1.421875 
Q 20.0625 -1.421875 12.78125 6.34375 
Q 5.515625 14.109375 5.515625 27.296875 
Q 5.515625 40.671875 12.859375 48.328125 
Q 20.21875 56 33.015625 56 
Q 37.15625 56 41.109375 55.140625 
Q 45.0625 54.296875 48.78125 52.59375 
z
" id="DejaVuSans-99"/>
      <path d="M 56.203125 29.59375 
L 56.203125 25.203125 
L 14.890625 25.203125 
Q 15.484375 15.921875 20.484375 11.0625 
Q 25.484375 6.203125 34.421875 6.203125 
Q 39.59375 6.203125 44.453125 7.46875 
Q 49.3125 8.734375 54.109375 11.28125 
L 54.109375 2.78125 
Q 49.265625 0.734375 44.1875 -0.34375 
Q 39.109375 -1.421875 33.890625 -1.421875 
Q 20.796875 -1.421875 13.15625 6.1875 
Q 5.515625 13.8125 5.515625 26.8125 
Q 5.515625 40.234375 12.765625 48.109375 
Q 20.015625 56 32.328125 56 
Q 43.359375 56 49.78125 48.890625 
Q 56.203125 41.796875 56.203125 29.59375 
z
M 47.21875 32.234375 
Q 47.125 39.59375 43.09375 43.984375 
Q 39.0625 48.390625 32.421875 48.390625 
Q 24.90625 48.390625 20.390625 44.140625 
Q 15.875 39.890625 15.1875 32.171875 
z
" id="DejaVuSans-101"/>
      <path d="M 18.3125 70.21875 
L 18.3125 54.6875 
L 36.8125 54.6875 
L 36.8125 47.703125 
L 18.3125 47.703125 
L 18.3125 18.015625 
Q 18.3125 11.328125 20.140625 9.421875 
Q 21.96875 7.515625 27.59375 7.515625 
L 36.8125 7.515625 
L 36.8125 0 
L 27.59375 0 
Q 17.1875 0 13.234375 3.875 
Q 9.28125 7.765625 9.28125 18.015625 
L 9.28125 47.703125 
L 2.6875 47.703125 
L 2.6875 54.6875 
L 9.28125 54.6875 
L 9.28125 70.21875 
z
" id="DejaVuSans-116"/>
      <path d="M 54.890625 33.015625 
L 54.890625 0 
L 45.90625 0 
L 45.90625 32.71875 
Q 45.90625 40.484375 42.875 44.328125 
Q 39.84375 48.1875 33.796875 48.1875 
Q 26.515625 48.1875 22.3125 43.546875 
Q 18.109375 38.921875 18.109375 30.90625 
L 18.109375 0 
L 9.078125 0 
L 9.078125 75.984375 
L 18.109375 75.984375 
L 18.109375 46.1875 
Q 21.34375 51.125 25.703125 53.5625 
Q 30.078125 56 35.796875 56 
Q 45.21875 56 50.046875 50.171875 
Q 54.890625 44.34375 54.890625 33.015625 
z
" id="DejaVuSans-104"/>
     </defs>
     <g style="fill:#555555;" transform="translate(309.255 407.79625)scale(0.12 -0.12)">
      <use xlink:href="#DejaVuSans-100"/>
      <use x="63.476562" xlink:href="#DejaVuSans-97"/>
      <use x="124.755859" xlink:href="#DejaVuSans-121"/>
      <use x="183.935547" xlink:href="#DejaVuSans-115"/>
      <use x="236.035156" xlink:href="#DejaVuSans-32"/>
      <use x="267.822266" xlink:href="#DejaVuSans-115"/>
      <use x="319.921875" xlink:href="#DejaVuSans-105"/>
      <use x="347.705078" xlink:href="#DejaVuSans-110"/>
      <use x="411.083984" xlink:href="#DejaVuSans-99"/>
      <use x="466.064453" xlink:href="#DejaVuSans-101"/>
      <use x="527.587891" xlink:href="#DejaVuSans-32"/>
      <use x="559.375" xlink:href="#DejaVuSans-51"/>
      <use x="622.998047" xlink:href="#DejaVuSans-32"/>
      <use x="654.785156" xlink:href="#DejaVuSans-100"/>
      <use x="718.261719" xlink:href="#DejaVuSans-101"/>
      <use x="779.785156" xlink:href="#DejaVuSans-97"/>
      <use x="841.064453" xlink:href="#DejaVuSans-116"/>
      <use x="880.273438" xlink:href="#DejaVuSans-104"/>
      <use x="943.652344" xlink:href="#DejaVuSans-115"/>
     </g>
    </g>
   </g>
   <g id="matplotlib.axis_2">
    <g id="ytick_1">
     <g id="line2d_15">
      <path clip-path="url(#p9c4730ed81)" d="M 90 378 
L 648 378 
" style="fill:none;stroke:#ffffff;stroke-linecap:square;stroke-width:0.8;"/>
     </g>
     <g id="line2d_16">
      <defs>
       <path d="M 0 0 
L -3.5 0 
" id="mf6c961d5b3" style="stroke:#555555;stroke-width:0.8;"/>
      </defs>
      <g>
       <use style="fill:#555555;stroke:#555555;stroke-width:0.8;" x="90" xlink:href="#mf6c961d5b3" y="378"/>
      </g>
     </g>
     <g id="line2d_17">
      <defs>
       <path d="M 0 0 
L 3.5 0 
" id="m7032186c84" style="stroke:#555555;stroke-width:0.8;"/>
      </defs>
      <g>
       <use style="fill:#555555;stroke:#555555;stroke-width:0.8;" x="648" xlink:href="#m7032186c84" y="378"/>
      </g>
     </g>
     <g id="text_9">
      <!-- 0.01 -->
      <defs>
       <path d="M 10.6875 12.40625 
L 21 12.40625 
L 21 0 
L 10.6875 0 
z
" id="DejaVuSans-46"/>
      </defs>
      <g style="fill:#555555;" transform="translate(60.734375 381.799219)scale(0.1 -0.1)">
       <use xlink:href="#DejaVuSans-48"/>
       <use x="63.623047" xlink:href="#DejaVuSans-46"/>
       <use x="95.410156" xlink:href="#DejaVuSans-48"/>
       <use x="159.033203" xlink:href="#DejaVuSans-49"/>
      </g>
     </g>
     <g id="text_10">
      <!-- 0.01 -->
      <g style="fill:#555555;" transform="translate(655 381.799219)scale(0.1 -0.1)">
       <use xlink:href="#DejaVuSans-48"/>
       <use x="63.623047" xlink:href="#DejaVuSans-46"/>
       <use x="95.410156" xlink:href="#DejaVuSans-48"/>
       <use x="159.033203" xlink:href="#DejaVuSans-49"/>
      </g>
     </g>
    </g>
    <g id="ytick_2">
     <g id="line2d_18">
      <path clip-path="url(#p9c4730ed81)" d="M 90 314.911108 
L 648 314.911108 
" style="fill:none;stroke:#ffffff;stroke-linecap:square;stroke-width:0.8;"/>
     </g>
     <g id="line2d_19">
      <g>
       <use style="fill:#555555;stroke:#555555;stroke-width:0.8;" x="90" xlink:href="#mf6c961d5b3" y="314.911108"/>
      </g>
     </g>
     <g id="line2d_20">
      <g>
       <use style="fill:#555555;stroke:#555555;stroke-width:0.8;" x="648" xlink:href="#m7032186c84" y="314.911108"/>
      </g>
     </g>
     <g id="text_11">
      <!-- 0.1 -->
      <g style="fill:#555555;" transform="translate(67.096875 318.710327)scale(0.1 -0.1)">
       <use xlink:href="#DejaVuSans-48"/>
       <use x="63.623047" xlink:href="#DejaVuSans-46"/>
       <use x="95.410156" xlink:href="#DejaVuSans-49"/>
      </g>
     </g>
     <g id="text_12">
      <!-- 0.1 -->
      <g style="fill:#555555;" transform="translate(655 318.710327)scale(0.1 -0.1)">
       <use xlink:href="#DejaVuSans-48"/>
       <use x="63.623047" xlink:href="#DejaVuSans-46"/>
       <use x="95.410156" xlink:href="#DejaVuSans-49"/>
      </g>
     </g>
    </g>
    <g id="ytick_3">
     <g id="line2d_21">
      <path clip-path="url(#p9c4730ed81)" d="M 90 251.822217 
L 648 251.822217 
" style="fill:none;stroke:#ffffff;stroke-linecap:square;stroke-width:0.8;"/>
     </g>
     <g id="line2d_22">
      <g>
       <use style="fill:#555555;stroke:#555555;stroke-width:0.8;" x="90" xlink:href="#mf6c961d5b3" y="251.822217"/>
      </g>
     </g>
     <g id="line2d_23">
      <g>
       <use style="fill:#555555;stroke:#555555;stroke-width:0.8;" x="648" xlink:href="#m7032186c84" y="251.822217"/>
      </g>
     </g>
     <g id="text_13">
      <!-- 1 -->
      <g style="fill:#555555;" transform="translate(76.6375 255.621435)scale(0.1 -0.1)">
       <use xlink:href="#DejaVuSans-49"/>
      </g>
     </g>
     <g id="text_14">
      <!-- 1 -->
      <g style="fill:#555555;" transform="translate(655 255.621435)scale(0.1 -0.1)">
       <use xlink:href="#DejaVuSans-49"/>
      </g>
     </g>
    </g>
    <g id="ytick_4">
     <g id="line2d_24">
      <defs>
       <path d="M 0 0 
L -2 0 
" id="me40e789a27" style="stroke:#555555;stroke-width:0.6;"/>
      </defs>
      <g>
       <use style="fill:#555555;stroke:#555555;stroke-width:0.6;" x="90" xlink:href="#me40e789a27" y="359.008351"/>
      </g>
     </g>
     <g id="line2d_25">
      <defs>
       <path d="M 0 0 
L 2 0 
" id="m5f48731933" style="stroke:#555555;stroke-width:0.6;"/>
      </defs>
      <g>
       <use style="fill:#555555;stroke:#555555;stroke-width:0.6;" x="648" xlink:href="#m5f48731933" y="359.008351"/>
      </g>
     </g>
    </g>
    <g id="ytick_5">
     <g id="line2d_26">
      <g>
       <use style="fill:#555555;stroke:#555555;stroke-width:0.6;" x="90" xlink:href="#me40e789a27" y="347.898949"/>
      </g>
     </g>
     <g id="line2d_27">
      <g>
       <use style="fill:#555555;stroke:#555555;stroke-width:0.6;" x="648" xlink:href="#m5f48731933" y="347.898949"/>
      </g>
     </g>
    </g>
    <g id="ytick_6">
     <g id="line2d_28">
      <g>
       <use style="fill:#555555;stroke:#555555;stroke-width:0.6;" x="90" xlink:href="#me40e789a27" y="340.016702"/>
      </g>
     </g>
     <g id="line2d_29">
      <g>
       <use style="fill:#555555;stroke:#555555;stroke-width:0.6;" x="648" xlink:href="#m5f48731933" y="340.016702"/>
      </g>
     </g>
    </g>
    <g id="ytick_7">
     <g id="line2d_30">
      <g>
       <use style="fill:#555555;stroke:#555555;stroke-width:0.6;" x="90" xlink:href="#me40e789a27" y="333.902757"/>
      </g>
     </g>
     <g id="line2d_31">
      <g>
       <use style="fill:#555555;stroke:#555555;stroke-width:0.6;" x="648" xlink:href="#m5f48731933" y="333.902757"/>
      </g>
     </g>
    </g>
    <g id="ytick_8">
     <g id="line2d_32">
      <g>
       <use style="fill:#555555;stroke:#555555;stroke-width:0.6;" x="90" xlink:href="#me40e789a27" y="328.9073"/>
      </g>
     </g>
     <g id="line2d_33">
      <g>
       <use style="fill:#555555;stroke:#555555;stroke-width:0.6;" x="648" xlink:href="#m5f48731933" y="328.9073"/>
      </g>
     </g>
    </g>
    <g id="ytick_9">
     <g id="line2d_34">
      <g>
       <use style="fill:#555555;stroke:#555555;stroke-width:0.6;" x="90" xlink:href="#me40e789a27" y="324.683701"/>
      </g>
     </g>
     <g id="line2d_35">
      <g>
       <use style="fill:#555555;stroke:#555555;stroke-width:0.6;" x="648" xlink:href="#m5f48731933" y="324.683701"/>
      </g>
     </g>
    </g>
    <g id="ytick_10">
     <g id="line2d_36">
      <g>
       <use style="fill:#555555;stroke:#555555;stroke-width:0.6;" x="90" xlink:href="#me40e789a27" y="321.025054"/>
      </g>
     </g>
     <g id="line2d_37">
      <g>
       <use style="fill:#555555;stroke:#555555;stroke-width:0.6;" x="648" xlink:href="#m5f48731933" y="321.025054"/>
      </g>
     </g>
    </g>
    <g id="ytick_11">
     <g id="line2d_38">
      <g>
       <use style="fill:#555555;stroke:#555555;stroke-width:0.6;" x="90" xlink:href="#me40e789a27" y="317.797898"/>
      </g>
     </g>
     <g id="line2d_39">
      <g>
       <use style="fill:#555555;stroke:#555555;stroke-width:0.6;" x="648" xlink:href="#m5f48731933" y="317.797898"/>
      </g>
     </g>
    </g>
    <g id="ytick_12">
     <g id="line2d_40">
      <g>
       <use style="fill:#555555;stroke:#555555;stroke-width:0.6;" x="90" xlink:href="#me40e789a27" y="295.919459"/>
      </g>
     </g>
     <g id="line2d_41">
      <g>
       <use style="fill:#555555;stroke:#555555;stroke-width:0.6;" x="648" xlink:href="#m5f48731933" y="295.919459"/>
      </g>
     </g>
    </g>
    <g id="ytick_13">
     <g id="line2d_42">
      <g>
       <use style="fill:#555555;stroke:#555555;stroke-width:0.6;" x="90" xlink:href="#me40e789a27" y="284.810057"/>
      </g>
     </g>
     <g id="line2d_43">
      <g>
       <use style="fill:#555555;stroke:#555555;stroke-width:0.6;" x="648" xlink:href="#m5f48731933" y="284.810057"/>
      </g>
     </g>
    </g>
    <g id="ytick_14">
     <g id="line2d_44">
      <g>
       <use style="fill:#555555;stroke:#555555;stroke-width:0.6;" x="90" xlink:href="#me40e789a27" y="276.927811"/>
      </g>
     </g>
     <g id="line2d_45">
      <g>
       <use style="fill:#555555;stroke:#555555;stroke-width:0.6;" x="648" xlink:href="#m5f48731933" y="276.927811"/>
      </g>
     </g>
    </g>
    <g id="ytick_15">
     <g id="line2d_46">
      <g>
       <use style="fill:#555555;stroke:#555555;stroke-width:0.6;" x="90" xlink:href="#me40e789a27" y="270.813865"/>
      </g>
     </g>
     <g id="line2d_47">
      <g>
       <use style="fill:#555555;stroke:#555555;stroke-width:0.6;" x="648" xlink:href="#m5f48731933" y="270.813865"/>
      </g>
     </g>
    </g>
    <g id="ytick_16">
     <g id="line2d_48">
      <g>
       <use style="fill:#555555;stroke:#555555;stroke-width:0.6;" x="90" xlink:href="#me40e789a27" y="265.818408"/>
      </g>
     </g>
     <g id="line2d_49">
      <g>
       <use style="fill:#555555;stroke:#555555;stroke-width:0.6;" x="648" xlink:href="#m5f48731933" y="265.818408"/>
      </g>
     </g>
    </g>
    <g id="ytick_17">
     <g id="line2d_50">
      <g>
       <use style="fill:#555555;stroke:#555555;stroke-width:0.6;" x="90" xlink:href="#me40e789a27" y="261.59481"/>
      </g>
     </g>
     <g id="line2d_51">
      <g>
       <use style="fill:#555555;stroke:#555555;stroke-width:0.6;" x="648" xlink:href="#m5f48731933" y="261.59481"/>
      </g>
     </g>
    </g>
    <g id="ytick_18">
     <g id="line2d_52">
      <g>
       <use style="fill:#555555;stroke:#555555;stroke-width:0.6;" x="90" xlink:href="#me40e789a27" y="257.936162"/>
      </g>
     </g>
     <g id="line2d_53">
      <g>
       <use style="fill:#555555;stroke:#555555;stroke-width:0.6;" x="648" xlink:href="#m5f48731933" y="257.936162"/>
      </g>
     </g>
    </g>
    <g id="ytick_19">
     <g id="line2d_54">
      <g>
       <use style="fill:#555555;stroke:#555555;stroke-width:0.6;" x="90" xlink:href="#me40e789a27" y="254.709006"/>
      </g>
     </g>
     <g id="line2d_55">
      <g>
       <use style="fill:#555555;stroke:#555555;stroke-width:0.6;" x="648" xlink:href="#m5f48731933" y="254.709006"/>
      </g>
     </g>
    </g>
    <g id="ytick_20">
     <g id="line2d_56">
      <g>
       <use style="fill:#555555;stroke:#555555;stroke-width:0.6;" x="90" xlink:href="#me40e789a27" y="232.830568"/>
      </g>
     </g>
     <g id="line2d_57">
      <g>
       <use style="fill:#555555;stroke:#555555;stroke-width:0.6;" x="648" xlink:href="#m5f48731933" y="232.830568"/>
      </g>
     </g>
    </g>
    <g id="text_15">
     <!-- daily new deaths -->
     <defs>
      <path d="M 9.421875 75.984375 
L 18.40625 75.984375 
L 18.40625 0 
L 9.421875 0 
z
" id="DejaVuSans-108"/>
      <path d="M 4.203125 54.6875 
L 13.1875 54.6875 
L 24.421875 12.015625 
L 35.59375 54.6875 
L 46.1875 54.6875 
L 57.421875 12.015625 
L 68.609375 54.6875 
L 77.59375 54.6875 
L 63.28125 0 
L 52.6875 0 
L 40.921875 44.828125 
L 29.109375 0 
L 18.5 0 
z
" id="DejaVuSans-119"/>
     </defs>
     <g style="fill:#555555;" transform="translate(27.364 354.91679)rotate(-90)scale(0.12 -0.12)">
      <use xlink:href="#DejaVuSans-100"/>
      <use x="63.476562" xlink:href="#DejaVuSans-97"/>
      <use x="124.755859" xlink:href="#DejaVuSans-105"/>
      <use x="152.539062" xlink:href="#DejaVuSans-108"/>
      <use x="180.322266" xlink:href="#DejaVuSans-121"/>
      <use x="239.501953" xlink:href="#DejaVuSans-32"/>
      <use x="271.289062" xlink:href="#DejaVuSans-110"/>
      <use x="334.667969" xlink:href="#DejaVuSans-101"/>
      <use x="396.191406" xlink:href="#DejaVuSans-119"/>
      <use x="477.978516" xlink:href="#DejaVuSans-32"/>
      <use x="509.765625" xlink:href="#DejaVuSans-100"/>
      <use x="573.242188" xlink:href="#DejaVuSans-101"/>
      <use x="634.765625" xlink:href="#DejaVuSans-97"/>
      <use x="696.044922" xlink:href="#DejaVuSans-116"/>
      <use x="735.253906" xlink:href="#DejaVuSans-104"/>
      <use x="798.632812" xlink:href="#DejaVuSans-115"/>
     </g>
     <!-- per 100K people -->
     <defs>
      <path d="M 18.109375 8.203125 
L 18.109375 -20.796875 
L 9.078125 -20.796875 
L 9.078125 54.6875 
L 18.109375 54.6875 
L 18.109375 46.390625 
Q 20.953125 51.265625 25.265625 53.625 
Q 29.59375 56 35.59375 56 
Q 45.5625 56 51.78125 48.09375 
Q 58.015625 40.1875 58.015625 27.296875 
Q 58.015625 14.40625 51.78125 6.484375 
Q 45.5625 -1.421875 35.59375 -1.421875 
Q 29.59375 -1.421875 25.265625 0.953125 
Q 20.953125 3.328125 18.109375 8.203125 
z
M 48.6875 27.296875 
Q 48.6875 37.203125 44.609375 42.84375 
Q 40.53125 48.484375 33.40625 48.484375 
Q 26.265625 48.484375 22.1875 42.84375 
Q 18.109375 37.203125 18.109375 27.296875 
Q 18.109375 17.390625 22.1875 11.75 
Q 26.265625 6.109375 33.40625 6.109375 
Q 40.53125 6.109375 44.609375 11.75 
Q 48.6875 17.390625 48.6875 27.296875 
z
" id="DejaVuSans-112"/>
      <path d="M 41.109375 46.296875 
Q 39.59375 47.171875 37.8125 47.578125 
Q 36.03125 48 33.890625 48 
Q 26.265625 48 22.1875 43.046875 
Q 18.109375 38.09375 18.109375 28.8125 
L 18.109375 0 
L 9.078125 0 
L 9.078125 54.6875 
L 18.109375 54.6875 
L 18.109375 46.1875 
Q 20.953125 51.171875 25.484375 53.578125 
Q 30.03125 56 36.53125 56 
Q 37.453125 56 38.578125 55.875 
Q 39.703125 55.765625 41.0625 55.515625 
z
" id="DejaVuSans-114"/>
      <path d="M 9.8125 72.90625 
L 19.671875 72.90625 
L 19.671875 42.09375 
L 52.390625 72.90625 
L 65.09375 72.90625 
L 28.90625 38.921875 
L 67.671875 0 
L 54.6875 0 
L 19.671875 35.109375 
L 19.671875 0 
L 9.8125 0 
z
" id="DejaVuSans-75"/>
      <path d="M 30.609375 48.390625 
Q 23.390625 48.390625 19.1875 42.75 
Q 14.984375 37.109375 14.984375 27.296875 
Q 14.984375 17.484375 19.15625 11.84375 
Q 23.34375 6.203125 30.609375 6.203125 
Q 37.796875 6.203125 41.984375 11.859375 
Q 46.1875 17.53125 46.1875 27.296875 
Q 46.1875 37.015625 41.984375 42.703125 
Q 37.796875 48.390625 30.609375 48.390625 
z
M 30.609375 56 
Q 42.328125 56 49.015625 48.375 
Q 55.71875 40.765625 55.71875 27.296875 
Q 55.71875 13.875 49.015625 6.21875 
Q 42.328125 -1.421875 30.609375 -1.421875 
Q 18.84375 -1.421875 12.171875 6.21875 
Q 5.515625 13.875 5.515625 27.296875 
Q 5.515625 40.765625 12.171875 48.375 
Q 18.84375 56 30.609375 56 
z
" id="DejaVuSans-111"/>
     </defs>
     <g style="fill:#555555;" transform="translate(40.801375 353.381165)rotate(-90)scale(0.12 -0.12)">
      <use xlink:href="#DejaVuSans-112"/>
      <use x="63.476562" xlink:href="#DejaVuSans-101"/>
      <use x="125" xlink:href="#DejaVuSans-114"/>
      <use x="166.113281" xlink:href="#DejaVuSans-32"/>
      <use x="197.900391" xlink:href="#DejaVuSans-49"/>
      <use x="261.523438" xlink:href="#DejaVuSans-48"/>
      <use x="325.146484" xlink:href="#DejaVuSans-48"/>
      <use x="388.769531" xlink:href="#DejaVuSans-75"/>
      <use x="454.345703" xlink:href="#DejaVuSans-32"/>
      <use x="486.132812" xlink:href="#DejaVuSans-112"/>
      <use x="549.609375" xlink:href="#DejaVuSans-101"/>
      <use x="611.132812" xlink:href="#DejaVuSans-111"/>
      <use x="672.314453" xlink:href="#DejaVuSans-112"/>
      <use x="735.791016" xlink:href="#DejaVuSans-108"/>
      <use x="763.574219" xlink:href="#DejaVuSans-101"/>
     </g>
     <!-- (rolling 7-day mean) -->
     <defs>
      <path d="M 31 75.875 
Q 24.46875 64.65625 21.28125 53.65625 
Q 18.109375 42.671875 18.109375 31.390625 
Q 18.109375 20.125 21.3125 9.0625 
Q 24.515625 -2 31 -13.1875 
L 23.1875 -13.1875 
Q 15.875 -1.703125 12.234375 9.375 
Q 8.59375 20.453125 8.59375 31.390625 
Q 8.59375 42.28125 12.203125 53.3125 
Q 15.828125 64.359375 23.1875 75.875 
z
" id="DejaVuSans-40"/>
      <path d="M 45.40625 27.984375 
Q 45.40625 37.75 41.375 43.109375 
Q 37.359375 48.484375 30.078125 48.484375 
Q 22.859375 48.484375 18.828125 43.109375 
Q 14.796875 37.75 14.796875 27.984375 
Q 14.796875 18.265625 18.828125 12.890625 
Q 22.859375 7.515625 30.078125 7.515625 
Q 37.359375 7.515625 41.375 12.890625 
Q 45.40625 18.265625 45.40625 27.984375 
z
M 54.390625 6.78125 
Q 54.390625 -7.171875 48.1875 -13.984375 
Q 42 -20.796875 29.203125 -20.796875 
Q 24.46875 -20.796875 20.265625 -20.09375 
Q 16.0625 -19.390625 12.109375 -17.921875 
L 12.109375 -9.1875 
Q 16.0625 -11.328125 19.921875 -12.34375 
Q 23.78125 -13.375 27.78125 -13.375 
Q 36.625 -13.375 41.015625 -8.765625 
Q 45.40625 -4.15625 45.40625 5.171875 
L 45.40625 9.625 
Q 42.625 4.78125 38.28125 2.390625 
Q 33.9375 0 27.875 0 
Q 17.828125 0 11.671875 7.65625 
Q 5.515625 15.328125 5.515625 27.984375 
Q 5.515625 40.671875 11.671875 48.328125 
Q 17.828125 56 27.875 56 
Q 33.9375 56 38.28125 53.609375 
Q 42.625 51.21875 45.40625 46.390625 
L 45.40625 54.6875 
L 54.390625 54.6875 
z
" id="DejaVuSans-103"/>
      <path d="M 8.203125 72.90625 
L 55.078125 72.90625 
L 55.078125 68.703125 
L 28.609375 0 
L 18.3125 0 
L 43.21875 64.59375 
L 8.203125 64.59375 
z
" id="DejaVuSans-55"/>
      <path d="M 4.890625 31.390625 
L 31.203125 31.390625 
L 31.203125 23.390625 
L 4.890625 23.390625 
z
" id="DejaVuSans-45"/>
      <path d="M 52 44.1875 
Q 55.375 50.25 60.0625 53.125 
Q 64.75 56 71.09375 56 
Q 79.640625 56 84.28125 50.015625 
Q 88.921875 44.046875 88.921875 33.015625 
L 88.921875 0 
L 79.890625 0 
L 79.890625 32.71875 
Q 79.890625 40.578125 77.09375 44.375 
Q 74.3125 48.1875 68.609375 48.1875 
Q 61.625 48.1875 57.5625 43.546875 
Q 53.515625 38.921875 53.515625 30.90625 
L 53.515625 0 
L 44.484375 0 
L 44.484375 32.71875 
Q 44.484375 40.625 41.703125 44.40625 
Q 38.921875 48.1875 33.109375 48.1875 
Q 26.21875 48.1875 22.15625 43.53125 
Q 18.109375 38.875 18.109375 30.90625 
L 18.109375 0 
L 9.078125 0 
L 9.078125 54.6875 
L 18.109375 54.6875 
L 18.109375 46.1875 
Q 21.1875 51.21875 25.484375 53.609375 
Q 29.78125 56 35.6875 56 
Q 41.65625 56 45.828125 52.96875 
Q 50 49.953125 52 44.1875 
z
" id="DejaVuSans-109"/>
      <path d="M 8.015625 75.875 
L 15.828125 75.875 
Q 23.140625 64.359375 26.78125 53.3125 
Q 30.421875 42.28125 30.421875 31.390625 
Q 30.421875 20.453125 26.78125 9.375 
Q 23.140625 -1.703125 15.828125 -13.1875 
L 8.015625 -13.1875 
Q 14.5 -2 17.703125 9.0625 
Q 20.90625 20.125 20.90625 31.390625 
Q 20.90625 42.671875 17.703125 53.65625 
Q 14.5 64.65625 8.015625 75.875 
z
" id="DejaVuSans-41"/>
     </defs>
     <g style="fill:#555555;" transform="translate(54.23875 365.018352)rotate(-90)scale(0.12 -0.12)">
      <use xlink:href="#DejaVuSans-40"/>
      <use x="39.013672" xlink:href="#DejaVuSans-114"/>
      <use x="77.876953" xlink:href="#DejaVuSans-111"/>
      <use x="139.058594" xlink:href="#DejaVuSans-108"/>
      <use x="166.841797" xlink:href="#DejaVuSans-108"/>
      <use x="194.625" xlink:href="#DejaVuSans-105"/>
      <use x="222.408203" xlink:href="#DejaVuSans-110"/>
      <use x="285.787109" xlink:href="#DejaVuSans-103"/>
      <use x="349.263672" xlink:href="#DejaVuSans-32"/>
      <use x="381.050781" xlink:href="#DejaVuSans-55"/>
      <use x="444.673828" xlink:href="#DejaVuSans-45"/>
      <use x="480.757812" xlink:href="#DejaVuSans-100"/>
      <use x="544.234375" xlink:href="#DejaVuSans-97"/>
      <use x="605.513672" xlink:href="#DejaVuSans-121"/>
      <use x="664.693359" xlink:href="#DejaVuSans-32"/>
      <use x="696.480469" xlink:href="#DejaVuSans-109"/>
      <use x="793.892578" xlink:href="#DejaVuSans-101"/>
      <use x="855.416016" xlink:href="#DejaVuSans-97"/>
      <use x="916.695312" xlink:href="#DejaVuSans-110"/>
      <use x="980.074219" xlink:href="#DejaVuSans-41"/>
     </g>
    </g>
   </g>
   <g id="line2d_58">
    <path clip-path="url(#p9c4730ed81)" d="M 73.406874 433 
L 73.765961 427.007652 
L 75.569743 419.125406 
L 77.373525 413.01146 
L 79.177307 408.016003 
L 80.981089 408.016003 
L 82.784872 410.400042 
L 84.588654 403.792405 
L 86.392436 410.400042 
L 88.196218 394.019812 
L 90 396.906601 
L 91.803782 390.190452 
L 93.607564 391.408393 
L 95.411346 383.839283 
L 97.215128 384.800756 
L 99.018911 380.298991 
L 100.822693 387.905866 
L 102.626475 386.831252 
L 104.430257 387.905866 
L 106.234039 382.011996 
L 108.037821 389.024355 
L 109.841603 384.800756 
L 111.645385 387.905866 
L 113.449168 391.408393 
L 115.25295 385.797199 
L 117.056732 389.024355 
L 118.860514 387.905866 
L 120.664296 384.800756 
L 122.468078 382.910409 
L 124.27186 377.914952 
L 126.075642 377.914952 
L 129.683207 373.691353 
L 131.486989 375.028163 
L 133.290771 371.801007 
L 135.094553 373.691353 
L 136.898335 374.351606 
L 138.702117 370.609551 
L 140.505899 373.691353 
L 142.309682 375.721849 
L 144.113464 376.433556 
L 145.917246 378.68681 
L 149.52481 382.011996 
L 151.328592 384.800756 
L 153.132374 382.910409 
L 154.936156 378.68681 
L 156.739939 378.68681 
L 158.543721 379.481045 
L 160.347503 379.481045 
L 162.151285 382.011996 
L 163.955067 382.011996 
L 165.758849 382.910409 
L 167.562631 387.905866 
L 169.366413 387.905866 
L 171.170196 391.408393 
L 174.77776 394.019812 
L 176.581542 395.425205 
L 178.385324 401.902058 
L 180.189106 405.822901 
L 181.992888 410.400042 
L 183.79667 413.01146 
L 185.600453 413.01146 
L 187.404235 415.89825 
L 189.208017 419.125406 
L 191.011799 415.89825 
L 192.815581 415.89825 
L 194.619363 419.125406 
L 196.423145 413.01146 
L 198.226927 419.125406 
L 200.03071 415.89825 
L 201.834492 413.01146 
L 203.638274 415.89825 
L 205.442056 415.89825 
L 207.245838 419.125406 
L 209.04962 427.007652 
L 210.853402 427.007652 
L 211.826352 433 
M 220.703145 433 
L 221.676095 427.007652 
L 223.479877 427.007652 
L 225.283659 422.784053 
L 227.381552 433 
M 238.740967 433 
L 239.713916 427.007652 
L 241.517698 427.007652 
L 243.321481 432.003109 
L 245.125263 432.003109 
L 245.253739 433 
M 318.951854 433 
L 319.08033 432.003109 
L 320.884112 427.007652 
L 322.687894 432.003109 
L 324.491676 427.007652 
L 326.589568 433 
M 333.216476 433 
L 333.510587 432.003109 
L 335.314369 427.007652 
L 337.118151 427.007652 
L 338.921933 422.784053 
L 340.725715 422.784053 
L 342.529497 419.125406 
L 344.333279 427.007652 
L 346.431172 433 
M 404.688922 433 
L 405.661872 427.007652 
L 407.465654 427.007652 
L 409.269436 422.784053 
L 411.073218 408.016003 
L 412.877 403.792405 
L 414.680782 401.902058 
L 416.484564 403.792405 
L 418.288347 403.792405 
L 420.092129 400.133757 
L 421.895911 401.902058 
L 423.699693 408.016003 
L 425.503475 410.400042 
L 427.307257 408.016003 
L 429.111039 398.472693 
L 430.914821 396.906601 
L 432.718604 398.472693 
L 434.522386 395.425205 
L 436.326168 391.408393 
L 438.12995 389.024355 
L 439.933732 385.797199 
L 441.737514 386.831252 
L 443.541296 390.190452 
L 445.345078 386.831252 
L 447.148861 385.797199 
L 448.952643 390.190452 
L 450.756425 387.905866 
L 452.560207 391.408393 
L 454.363989 392.683002 
L 457.971553 392.683002 
L 459.775335 396.906601 
L 461.579118 392.683002 
L 463.3829 396.906601 
L 465.186682 392.683002 
L 466.990464 395.425205 
L 468.794246 387.905866 
L 470.598028 391.408393 
L 472.40181 392.683002 
L 474.205592 392.683002 
L 476.009374 394.019812 
L 477.813157 400.133757 
L 479.616939 401.902058 
L 481.420721 408.016003 
L 485.028285 408.016003 
L 486.832067 413.01146 
L 488.635849 410.400042 
L 490.439631 410.400042 
L 492.243414 408.016003 
L 494.047196 405.822901 
L 495.850978 408.016003 
L 497.65476 405.822901 
L 499.458542 405.822901 
L 501.262324 408.016003 
L 503.066106 410.400042 
L 504.869888 405.822901 
L 506.673671 408.016003 
L 508.477453 403.792405 
L 512.085017 403.792405 
L 513.888799 405.822901 
L 517.496363 405.822901 
L 519.300145 410.400042 
L 521.103928 415.89825 
L 522.90771 419.125406 
L 524.711492 422.784053 
L 526.515274 415.89825 
L 528.319056 410.400042 
L 530.122838 408.016003 
L 531.92662 405.822901 
L 537.337967 405.822901 
L 539.141749 408.016003 
L 540.945531 408.016003 
L 542.749313 405.822901 
L 544.553095 405.822901 
L 546.356877 408.016003 
L 548.160659 408.016003 
L 549.964442 401.902058 
L 551.768224 401.902058 
L 553.572006 403.792405 
L 555.375788 415.89825 
L 557.17957 415.89825 
L 558.983352 410.400042 
L 560.787134 405.822901 
L 562.590916 410.400042 
L 564.394699 408.016003 
L 566.198481 401.902058 
L 569.806045 398.472693 
L 571.609827 398.472693 
L 573.413609 401.902058 
L 575.217391 395.425205 
L 578.824956 398.472693 
L 580.628738 400.133757 
L 582.43252 405.822901 
L 584.236302 403.792405 
L 586.040084 394.019812 
L 587.843866 396.906601 
L 589.647648 391.408393 
L 591.45143 390.190452 
L 593.255213 386.831252 
L 595.058995 382.910409 
L 596.862777 378.68681 
L 598.666559 377.914952 
L 600.470341 376.433556 
L 602.274123 378.68681 
L 604.077905 376.433556 
L 605.881687 370.032706 
L 607.68547 365.809107 
L 609.489252 359.695162 
L 614.900598 359.695162 
L 614.900598 359.695162 
" style="fill:none;stroke:#e24a33;stroke-linecap:square;stroke-width:4;"/>
   </g>
   <g id="line2d_59">
    <defs>
     <path d="M 0 3 
C 0.795609 3 1.55874 2.683901 2.12132 2.12132 
C 2.683901 1.55874 3 0.795609 3 0 
C 3 -0.795609 2.683901 -1.55874 2.12132 -2.12132 
C 1.55874 -2.683901 0.795609 -3 0 -3 
C -0.795609 -3 -1.55874 -2.683901 -2.12132 -2.12132 
C -2.683901 -1.55874 -3 -0.795609 -3 0 
C -3 0.795609 -2.683901 1.55874 -2.12132 2.12132 
C -1.55874 2.683901 -0.795609 3 0 3 
z
" id="mf29cf0fd4a" style="stroke:#e24a33;"/>
    </defs>
    <g clip-path="url(#p9c4730ed81)">
     <use style="fill:#e24a33;stroke:#e24a33;" x="614.900598" xlink:href="#mf29cf0fd4a" y="359.695162"/>
    </g>
   </g>
   <g id="line2d_60">
    <path clip-path="url(#p9c4730ed81)" d="M 85.437705 433 
L 86.392436 429.355388 
L 88.196218 423.85718 
L 90 415.359197 
L 91.803782 404.865532 
L 93.607564 401.363005 
L 95.411346 387.808745 
L 97.215128 377.375899 
L 99.018911 371.261954 
L 100.822693 368.484981 
L 102.626475 361.783188 
L 104.430257 355.566045 
L 106.234039 347.580987 
L 108.037821 341.40554 
L 109.841603 335.662695 
L 113.449168 322.847333 
L 117.056732 313.477121 
L 118.860514 309.520833 
L 120.664296 305.067952 
L 122.468078 302.190949 
L 124.27186 299.991071 
L 126.075642 298.927924 
L 127.879425 296.106387 
L 129.683207 294.374858 
L 131.486989 290.510004 
L 133.290771 289.181413 
L 135.094553 289.327933 
L 136.898335 293.271387 
L 138.702117 290.337982 
L 140.505899 291.386696 
L 142.309682 293.569902 
L 144.113464 290.01597 
L 145.917246 290.20493 
L 147.721028 287.671191 
L 149.52481 285.383839 
L 151.328592 288.036634 
L 153.132374 286.272713 
L 154.936156 285.130581 
L 156.739939 289.641914 
L 158.543721 288.764481 
L 160.347503 290.915639 
L 162.151285 290.72173 
L 163.955067 291.26817 
L 165.758849 293.871706 
L 167.562631 293.50566 
L 169.366413 295.570729 
L 171.170196 299.006245 
L 172.973978 300.956415 
L 174.77776 302.132279 
L 176.581542 303.483744 
L 178.385324 304.201122 
L 180.189106 310.897965 
L 181.992888 306.13213 
L 183.79667 307.487596 
L 185.600453 307.310025 
L 191.011799 311.345474 
L 192.815581 308.356335 
L 194.619363 314.933898 
L 196.423145 319.724396 
L 198.226927 326.301674 
L 200.03071 326.160441 
L 201.834492 325.88014 
L 203.638274 329.688592 
L 205.442056 329.608595 
L 207.245838 334.877002 
L 209.04962 331.596112 
L 210.853402 330.584335 
L 212.657184 331.254685 
L 214.460967 331.424866 
L 218.068531 334.113213 
L 219.872313 334.780356 
L 221.676095 336.471585 
L 223.479877 335.563242 
L 225.283659 336.267112 
L 228.891224 338.716045 
L 230.695006 345.649624 
L 232.498788 348.203722 
L 234.30257 349.658886 
L 237.910134 353.579729 
L 239.713916 353.199179 
L 241.517698 354.160652 
L 243.321481 348.361643 
L 245.125263 352.270305 
L 248.732827 357.265762 
L 250.536609 358.38425 
L 254.144173 360.274597 
L 255.947955 368.156843 
L 257.751738 363.655078 
L 259.55552 362.569821 
L 261.359302 362.305093 
L 263.163084 362.837132 
L 264.966866 365.075041 
L 266.770648 365.664293 
L 268.57443 365.075041 
L 270.378212 370.540882 
L 272.181995 375.182796 
L 273.985777 370.187339 
L 275.789559 372.002517 
L 277.593341 372.002517 
L 279.397123 370.540882 
L 281.200905 370.899046 
L 283.004687 374.352455 
L 284.808469 374.764481 
L 286.612251 385.258146 
L 288.416034 381.296742 
L 290.219816 379.759938 
L 292.023598 384.655942 
L 293.82738 387.148492 
L 295.631162 381.828781 
L 297.434944 381.828781 
L 299.238726 380.774837 
L 301.042508 382.371356 
L 302.846291 383.489844 
L 304.650073 381.296742 
L 306.453855 384.655942 
L 308.257637 392.938183 
L 310.061419 396.367548 
L 313.668983 406.140141 
L 315.472765 406.140141 
L 317.276548 407.47695 
L 320.884112 404.865532 
L 322.687894 403.647591 
L 324.491676 394.599247 
L 326.295458 393.756129 
L 329.903022 395.469134 
L 335.314369 392.938183 
L 337.118151 399.254337 
L 338.921933 396.367548 
L 340.725715 396.367548 
L 342.529497 397.296422 
L 344.333279 394.599247 
L 346.137062 385.873883 
L 347.940844 390.621382 
L 349.744626 383.489844 
L 351.548408 384.06669 
L 355.155972 382.924893 
L 356.959754 385.258146 
L 358.763536 392.938183 
L 360.567319 391.372091 
L 365.978665 393.756129 
L 369.586229 393.756129 
L 371.390011 391.372091 
L 373.193793 384.655942 
L 374.997576 391.372091 
L 376.801358 390.621382 
L 378.60514 388.485302 
L 382.212704 388.485302 
L 384.016486 391.372091 
L 385.820268 399.254337 
L 387.62405 402.481493 
L 389.427833 399.254337 
L 391.231615 401.363005 
L 393.035397 399.254337 
L 394.839179 400.288391 
L 396.642961 390.621382 
L 398.446743 394.599247 
L 400.250525 390.621382 
L 402.054307 396.367548 
L 403.85809 396.367548 
L 405.661872 398.257894 
L 407.465654 397.296422 
L 409.269436 407.47695 
L 411.073218 403.647591 
L 412.877 406.140141 
L 414.680782 403.647591 
L 418.288347 401.363005 
L 420.092129 395.469134 
L 423.699693 395.469134 
L 425.503475 389.890695 
L 427.307257 391.372091 
L 429.111039 391.372091 
L 430.914821 392.938183 
L 432.718604 389.890695 
L 434.522386 382.371356 
L 436.326168 377.375899 
L 438.12995 375.182796 
L 439.933732 372.763653 
L 441.737514 371.629733 
L 443.541296 370.187339 
L 445.345078 370.187339 
L 447.148861 372.380442 
L 448.952643 372.002517 
L 450.756425 374.352455 
L 452.560207 372.380442 
L 454.363989 373.54654 
L 456.167771 367.512128 
L 457.971553 368.484981 
L 459.775335 367.195371 
L 461.579118 367.832589 
L 463.3829 369.153286 
L 465.186682 366.572636 
L 466.990464 365.368083 
L 468.794246 367.512128 
L 470.598028 359.313124 
L 472.40181 355.360807 
L 474.205592 353.199179 
L 476.009374 348.203722 
L 477.813157 349.658886 
L 479.616939 348.520479 
L 481.420721 344.115428 
L 483.224503 344.388059 
L 485.028285 345.081745 
L 486.832067 341.652381 
L 488.635849 343.711502 
L 490.439631 338.274113 
L 492.243414 336.781183 
L 494.047196 338.38393 
L 495.850978 339.507003 
L 497.65476 332.646687 
L 499.458542 329.449297 
L 501.262324 324.520101 
L 503.066106 322.291299 
L 504.869888 322.108434 
L 506.673671 315.310524 
L 508.477453 314.47028 
L 510.281235 308.876118 
L 512.085017 306.234049 
L 513.888799 304.775951 
L 515.692581 305.628146 
L 517.496363 304.455114 
L 519.300145 308.577892 
L 521.103928 298.591098 
L 522.90771 299.08479 
L 524.711492 297.530353 
L 526.515274 296.129915 
L 528.319056 295.181433 
L 530.122838 295.272535 
L 531.92662 290.586806 
L 533.730402 291.9265 
L 535.534185 291.150155 
L 537.337967 290.185976 
L 539.141749 288.926874 
L 544.553095 286.954609 
L 546.356877 285.848923 
L 548.160659 283.8832 
L 549.964442 281.602227 
L 551.768224 280.053841 
L 555.375788 279.3559 
L 557.17957 278.267545 
L 558.983352 276.938914 
L 560.787134 275.749944 
L 562.590916 275.660587 
L 564.394699 274.471267 
L 566.198481 273.506113 
L 568.002263 273.249612 
L 569.806045 272.673618 
L 571.609827 271.836561 
L 573.413609 272.070327 
L 575.217391 270.492825 
L 577.021173 270.281248 
L 578.824956 269.638237 
L 580.628738 269.141508 
L 582.43252 268.421463 
L 584.236302 265.639333 
L 586.040084 263.619337 
L 591.45143 263.619337 
L 591.45143 263.619337 
" style="fill:none;stroke:#348abd;stroke-linecap:square;stroke-opacity:0.4;stroke-width:2;"/>
   </g>
   <g id="line2d_61">
    <defs>
     <path d="M 0 3 
C 0.795609 3 1.55874 2.683901 2.12132 2.12132 
C 2.683901 1.55874 3 0.795609 3 0 
C 3 -0.795609 2.683901 -1.55874 2.12132 -2.12132 
C 1.55874 -2.683901 0.795609 -3 0 -3 
C -0.795609 -3 -1.55874 -2.683901 -2.12132 -2.12132 
C -2.683901 -1.55874 -3 -0.795609 -3 0 
C -3 0.795609 -2.683901 1.55874 -2.12132 2.12132 
C -1.55874 2.683901 -0.795609 3 0 3 
z
" id="maed3d58aee" style="stroke:#348abd;stroke-opacity:0.4;"/>
    </defs>
    <g clip-path="url(#p9c4730ed81)">
     <use style="fill:#348abd;fill-opacity:0.4;stroke:#348abd;stroke-opacity:0.4;" x="591.45143" xlink:href="#maed3d58aee" y="263.619337"/>
    </g>
   </g>
   <g id="line2d_62">
    <path clip-path="url(#p9c4730ed81)" d="M 56.528517 433 
L 57.531922 426.820081 
L 59.335704 426.820081 
L 61.139486 418.937835 
L 66.550832 418.937835 
L 68.354615 426.820081 
L 69.358019 433 
M 70.417444 433 
L 71.962179 403.604834 
L 73.765961 407.828433 
L 75.569743 403.604834 
L 77.373525 396.71903 
L 79.177307 393.832241 
L 80.981089 393.832241 
L 82.784872 388.836784 
L 84.588654 391.220822 
L 86.392436 382.722838 
L 88.196218 380.954537 
L 90 376.245985 
L 91.803782 371.011232 
L 93.607564 366.617979 
L 95.411346 363.73119 
L 97.215128 366.617979 
L 99.018911 367.652032 
L 100.822693 366.617979 
L 102.626475 368.726647 
L 104.430257 373.503783 
L 106.234039 379.293474 
L 108.037821 386.643681 
L 109.841603 388.836784 
L 111.645385 388.836784 
L 113.449168 393.832241 
L 115.25295 403.604834 
L 117.056732 407.828433 
L 118.860514 412.82389 
L 120.664296 418.937835 
L 122.468078 388.836784 
L 124.27186 386.643681 
L 126.075642 386.643681 
L 127.879425 380.954537 
L 129.683207 380.954537 
L 131.486989 372.229173 
L 133.290771 369.845135 
L 135.094553 377.727381 
L 136.898335 384.613185 
L 138.702117 384.613185 
L 140.505899 388.836784 
L 142.309682 386.643681 
L 144.113464 399.946186 
L 145.917246 407.828433 
L 147.721028 418.937835 
L 149.52481 418.937835 
L 151.328592 426.820081 
L 152.331997 433 
M 171.970573 433 
L 172.973978 426.820081 
L 174.77776 426.820081 
L 176.581542 418.937835 
L 178.385324 426.820081 
L 183.79667 426.820081 
L 184.800075 433 
M 262.159679 433 
L 263.163084 426.820081 
L 264.966866 418.937835 
L 266.302457 433 
M 268.928603 433 
L 270.378212 412.82389 
L 273.985777 393.832241 
L 275.789559 391.220822 
L 277.593341 384.613185 
L 279.397123 382.722838 
L 281.200905 377.727381 
L 283.004687 379.293474 
L 284.808469 374.840592 
L 286.612251 371.011232 
L 288.416034 366.617979 
L 290.219816 361.119771 
L 292.023598 357.254336 
L 293.82738 355.172386 
L 297.434944 346.629887 
L 299.238726 346.144934 
L 301.042508 346.629887 
L 302.846291 348.138479 
L 304.650073 344.739541 
L 306.453855 342.546438 
L 308.257637 340.127295 
L 310.061419 342.128122 
L 311.865201 340.515942 
L 313.668983 337.904523 
L 315.472765 334.559012 
L 317.276548 333.027935 
L 319.08033 331.01872 
L 320.884112 329.40654 
L 322.687894 329.14683 
L 324.491676 328.382153 
L 326.295458 330.470718 
L 328.09924 330.470718 
L 329.903022 328.634681 
L 331.706805 328.889559 
L 333.510587 331.296886 
L 335.314369 330.200774 
L 337.118151 331.577906 
L 338.921933 329.14683 
L 340.725715 329.14683 
L 344.333279 334.559012 
L 346.137062 331.01872 
L 347.940844 328.382153 
L 349.744626 327.883973 
L 351.548408 326.91399 
L 353.35219 328.382153 
L 355.155972 322.520736 
L 356.959754 323.136473 
L 358.763536 327.153285 
L 360.567319 329.14683 
L 362.371101 318.912875 
L 365.978665 321.135646 
L 367.782447 328.13193 
L 369.586229 327.394689 
L 371.390011 326.208393 
L 373.193793 328.13193 
L 374.997576 344.739541 
L 376.801358 347.123579 
L 378.60514 346.144934 
L 380.408922 347.62633 
L 382.212704 352.019584 
L 384.016486 353.867418 
L 385.820268 353.237525 
L 387.62405 355.848943 
L 389.427833 355.172386 
L 391.231615 356.54263 
L 393.035397 359.507591 
L 394.839179 357.254336 
L 396.642961 359.507591 
L 398.446743 364.660064 
L 400.250525 361.962888 
L 402.054307 367.652032 
L 403.85809 371.011232 
L 405.661872 369.845135 
L 407.465654 365.621536 
L 409.269436 366.617979 
L 411.073218 366.617979 
L 412.877 373.503783 
L 414.680782 371.011232 
L 416.484564 372.229173 
L 418.288347 376.245985 
L 420.092129 386.643681 
L 421.895911 391.220822 
L 423.699693 396.71903 
L 425.503475 403.604834 
L 427.307257 418.937835 
L 432.718604 418.937835 
L 434.522386 403.604834 
L 439.933732 403.604834 
L 441.737514 407.828433 
L 443.541296 403.604834 
L 445.345078 407.828433 
L 446.269941 433 
L 446.269941 433 
" style="fill:none;stroke:#988ed5;stroke-linecap:square;stroke-opacity:0.4;stroke-width:2;"/>
   </g>
   <g id="line2d_63">
    <defs>
     <path d="M 0 3 
C 0.795609 3 1.55874 2.683901 2.12132 2.12132 
C 2.683901 1.55874 3 0.795609 3 0 
C 3 -0.795609 2.683901 -1.55874 2.12132 -2.12132 
C 1.55874 -2.683901 0.795609 -3 0 -3 
C -0.795609 -3 -1.55874 -2.683901 -2.12132 -2.12132 
C -2.683901 -1.55874 -3 -0.795609 -3 0 
C -3 0.795609 -2.683901 1.55874 -2.12132 2.12132 
C -1.55874 2.683901 -0.795609 3 0 3 
z
" id="m14666e34f6" style="stroke:#988ed5;stroke-opacity:0.4;"/>
    </defs>
    <g clip-path="url(#p9c4730ed81)"/>
   </g>
   <g id="line2d_64">
    <path clip-path="url(#p9c4730ed81)" d="M 65.818559 433 
L 66.550832 429.800079 
L 68.354615 423.686134 
L 70.158397 423.686134 
L 71.962179 429.800079 
L 72.694452 433 
M 77.069604 433 
L 77.373525 429.800079 
L 79.177307 429.800079 
L 80.981089 423.686134 
L 82.784872 407.581275 
L 84.588654 402.083067 
L 86.392436 402.083067 
L 88.196218 397.505925 
L 90 393.585083 
L 91.803782 381.873477 
L 93.607564 381.873477 
L 95.411346 375.522308 
L 97.215128 366.034631 
L 99.018911 357.985824 
L 100.822693 355.148896 
L 102.626475 350.606328 
L 104.430257 349.124932 
L 106.234039 342.724082 
L 108.037821 337.53901 
L 109.841603 337.303823 
L 111.645385 338.994175 
L 113.449168 334.628611 
L 115.25295 332.780777 
L 117.056732 332.780777 
L 118.860514 333.586693 
L 120.664296 335.056732 
L 122.468078 332.386538 
L 124.27186 330.314136 
L 127.879425 334.841835 
L 129.683207 333.382981 
L 131.486989 332.780777 
L 133.290771 332.386538 
L 135.094553 332.386538 
L 136.898335 328.387523 
L 138.702117 325.961235 
L 140.505899 326.272592 
L 142.309682 325.197978 
L 144.113464 323.307631 
L 145.917246 322.889315 
L 147.721028 324.019338 
L 149.52481 329.246502 
L 151.328592 332.386538 
L 153.132374 331.805615 
L 154.936156 333.180772 
L 156.739939 336.610136 
L 158.543721 339.244397 
L 160.347503 338.746217 
L 162.151285 335.491648 
L 163.955067 336.382756 
L 165.758849 336.157248 
L 167.562631 338.256933 
L 169.366413 335.93358 
L 171.170196 334.841835 
L 172.973978 334.841835 
L 174.77776 334.207077 
L 176.581542 334.417034 
L 178.385324 335.491648 
L 180.189106 335.491648 
L 181.992888 339.244397 
L 183.79667 341.332963 
L 185.600453 344.798522 
L 187.404235 349.48784 
L 189.208017 348.413225 
L 191.011799 350.989539 
L 192.815581 350.989539 
L 194.619363 349.124932 
L 196.423145 352.990367 
L 198.226927 352.990367 
L 200.03071 351.772426 
L 201.834492 352.172421 
L 203.638274 352.172421 
L 205.442056 352.578341 
L 207.245838 352.172421 
L 209.04962 345.421257 
L 210.853402 348.064187 
L 212.657184 345.738014 
L 214.460967 343.890179 
L 216.264749 343.593969 
L 219.872313 344.189627 
L 221.676095 344.189627 
L 223.479877 342.159131 
L 225.283659 346.058475 
L 227.087441 346.382729 
L 228.891224 344.492383 
L 230.695006 344.492383 
L 232.498788 344.798522 
L 234.30257 347.719539 
L 236.106352 341.332963 
L 237.910134 338.500483 
L 239.713916 339.244397 
L 241.517698 339.244397 
L 243.321481 340.795707 
L 245.125263 340.795707 
L 246.929045 338.994175 
L 248.732827 342.724082 
L 250.536609 343.010987 
L 252.340391 344.798522 
L 254.144173 347.042982 
L 257.751738 345.10812 
L 259.55552 347.379172 
L 261.359302 347.719539 
L 263.163084 348.413225 
L 264.966866 348.766768 
L 266.770648 348.064187 
L 268.57443 348.766768 
L 270.378212 353.408683 
L 272.181995 353.408683 
L 273.985777 356.062286 
L 275.789559 357.985824 
L 277.593341 357.492132 
L 279.397123 358.488575 
L 281.200905 357.985824 
L 283.004687 355.601785 
L 284.808469 359.522628 
L 286.612251 358.488575 
L 288.416034 360.597242 
L 290.219816 360.597242 
L 292.023598 359.000723 
L 293.82738 360.054667 
L 295.631162 361.715731 
L 297.434944 361.715731 
L 299.238726 362.881828 
L 301.042508 364.729662 
L 302.846291 362.881828 
L 304.650073 362.292576 
L 306.453855 361.150779 
L 308.257637 362.881828 
L 310.061419 359.522628 
L 311.865201 356.530659 
L 313.668983 355.148896 
L 315.472765 357.007178 
L 317.276548 355.601785 
L 319.08033 357.492132 
L 320.884112 357.492132 
L 322.687894 354.703372 
L 324.491676 353.408683 
L 326.295458 350.989539 
L 328.09924 348.064187 
L 329.903022 349.124932 
L 331.706805 348.766768 
L 333.510587 346.710867 
L 335.314369 349.855619 
L 337.118151 351.378187 
L 338.921933 350.989539 
L 340.725715 351.772426 
L 342.529497 351.378187 
L 344.333279 349.124932 
L 346.137062 349.48784 
L 347.940844 346.710867 
L 349.744626 347.379172 
L 351.548408 347.719539 
L 353.35219 347.042982 
L 355.155972 348.413225 
L 356.959754 349.48784 
L 358.763536 347.379172 
L 360.567319 347.379172 
L 362.371101 346.058475 
L 364.174883 347.719539 
L 365.978665 347.379172 
L 367.782447 348.413225 
L 369.586229 348.064187 
L 371.390011 347.379172 
L 373.193793 346.382729 
L 374.997576 347.042982 
L 376.801358 347.042982 
L 378.60514 347.379172 
L 380.408922 345.421257 
L 382.212704 346.058475 
L 384.016486 348.413225 
L 385.820268 351.772426 
L 387.62405 352.578341 
L 389.427833 351.772426 
L 391.231615 351.772426 
L 393.035397 352.172421 
L 396.642961 344.189627 
L 398.446743 344.492383 
L 400.250525 343.300927 
L 402.054307 341.332963 
L 403.85809 341.605594 
L 405.661872 340.268784 
L 407.465654 343.010987 
L 409.269436 344.798522 
L 411.073218 339.751804 
L 412.877 337.53901 
L 414.680782 336.157248 
L 416.484564 331.997891 
L 418.288347 332.582948 
L 420.092129 330.679464 
L 421.895911 327.554658 
L 423.699693 327.228474 
L 425.503475 326.429608 
L 427.307257 325.806873 
L 429.111039 325.500734 
L 430.914821 322.889315 
L 432.718604 321.017426 
L 434.522386 318.312174 
L 436.326168 313.492918 
L 438.12995 309.395875 
L 439.933732 307.359339 
L 441.737514 305.906882 
L 445.345078 305.027689 
L 447.148861 304.740784 
L 448.952643 301.961232 
L 450.756425 300.948677 
L 452.560207 296.381096 
L 454.363989 294.797479 
L 456.167771 293.966398 
L 457.971553 293.678991 
L 459.775335 291.61448 
L 461.579118 291.002671 
L 463.3829 287.862085 
L 465.186682 287.064548 
L 466.990464 283.721188 
L 468.794246 282.490286 
L 470.598028 282.363877 
L 472.40181 281.586764 
L 474.205592 278.571555 
L 476.009374 275.168042 
L 477.813157 274.004975 
L 479.616939 271.752944 
L 481.420721 270.395756 
L 483.224503 269.454662 
L 485.028285 267.645794 
L 486.832067 265.197341 
L 488.635849 264.090988 
L 490.439631 260.416161 
L 492.243414 259.456641 
L 497.65476 256.019239 
L 499.458542 255.340624 
L 501.262324 256.444417 
L 503.066106 256.764591 
L 504.869888 254.427041 
L 506.673671 253.67541 
L 508.477453 254.009415 
L 510.281235 253.708628 
L 512.085017 251.855977 
L 513.888799 248.342683 
L 515.692581 246.519216 
L 519.300145 246.054454 
L 521.103928 245.945744 
L 522.90771 244.459516 
L 524.711492 243.903924 
L 528.319056 244.721635 
L 530.122838 244.52283 
L 533.730402 245.180378 
L 535.534185 245.929058 
L 537.337967 246.476638 
L 539.141749 246.138372 
L 540.945531 246.544795 
L 542.749313 247.38498 
L 544.553095 247.873075 
L 548.160659 248.479657 
L 549.964442 248.857582 
L 551.768224 250.286433 
L 553.572006 250.159608 
L 555.375788 250.159608 
L 557.17957 250.551731 
L 558.983352 250.512265 
L 560.787134 251.130468 
L 562.590916 250.759865 
L 568.002263 250.759865 
L 568.002263 250.759865 
" style="fill:none;stroke:#777777;stroke-linecap:square;stroke-opacity:0.4;stroke-width:2;"/>
   </g>
   <g id="line2d_65">
    <defs>
     <path d="M 0 3 
C 0.795609 3 1.55874 2.683901 2.12132 2.12132 
C 2.683901 1.55874 3 0.795609 3 0 
C 3 -0.795609 2.683901 -1.55874 2.12132 -2.12132 
C 1.55874 -2.683901 0.795609 -3 0 -3 
C -0.795609 -3 -1.55874 -2.683901 -2.12132 -2.12132 
C -2.683901 -1.55874 -3 -0.795609 -3 0 
C -3 0.795609 -2.683901 1.55874 -2.12132 2.12132 
C -1.55874 2.683901 -0.795609 3 0 3 
z
" id="m483eddc171" style="stroke:#777777;stroke-opacity:0.4;"/>
    </defs>
    <g clip-path="url(#p9c4730ed81)">
     <use style="fill:#777777;fill-opacity:0.4;stroke:#777777;stroke-opacity:0.4;" x="568.002263" xlink:href="#m483eddc171" y="250.759865"/>
    </g>
   </g>
   <g id="line2d_66">
    <path clip-path="url(#p9c4730ed81)" d="M 64.746957 433 
L 64.74705 429.76435 
L 68.354615 391.781052 
L 70.158397 391.781052 
L 71.962179 385.667107 
L 75.569743 359.486898 
L 77.373525 361.680001 
L 79.177307 364.06404 
L 80.981089 361.680001 
L 82.784872 355.566056 
L 84.588654 350.570599 
L 86.392436 350.570599 
L 88.196218 353.797755 
L 90 347.683809 
L 91.803782 343.85445 
L 93.607564 342.688352 
L 97.215128 345.072391 
L 99.018911 346.347 
L 100.822693 345.072391 
L 104.430257 345.072391 
L 106.234039 347.683809 
L 109.841603 345.072391 
L 111.645385 341.569864 
L 113.449168 342.688352 
L 115.25295 342.688352 
L 117.056732 340.49525 
L 118.860514 337.503281 
L 120.664296 336.574407 
L 122.468078 336.574407 
L 124.27186 339.461196 
L 126.075642 338.464754 
L 129.683207 338.464754 
L 131.486989 339.461196 
L 135.094553 337.503281 
L 136.898335 334.806106 
L 138.702117 334.806106 
L 140.505899 332.350808 
L 142.309682 333.145042 
L 144.113464 332.350808 
L 145.917246 332.350808 
L 147.721028 333.145042 
L 149.52481 333.145042 
L 151.328592 331.57895 
L 153.132374 333.962988 
L 154.936156 333.962988 
L 156.739939 333.145042 
L 162.151285 333.145042 
L 163.955067 333.962988 
L 165.758849 333.962988 
L 167.562631 332.350808 
L 169.366413 333.145042 
L 171.170196 333.145042 
L 174.77776 331.57895 
L 176.581542 331.57895 
L 180.189106 333.145042 
L 181.992888 333.145042 
L 183.79667 332.350808 
L 185.600453 333.145042 
L 187.404235 333.145042 
L 189.208017 331.57895 
L 191.011799 329.385847 
L 192.815581 328.692161 
L 194.619363 328.692161 
L 196.423145 329.385847 
L 198.226927 328.692161 
L 200.03071 329.385847 
L 201.834492 331.57895 
L 205.442056 331.57895 
L 207.245838 330.097554 
L 210.853402 328.692161 
L 212.657184 330.097554 
L 214.460967 329.385847 
L 216.264749 329.385847 
L 218.068531 330.097554 
L 219.872313 331.57895 
L 221.676095 331.57895 
L 223.479877 333.145042 
L 225.283659 330.828241 
L 228.891224 332.350808 
L 230.695006 331.57895 
L 232.498788 330.097554 
L 234.30257 329.385847 
L 236.106352 328.015604 
L 237.910134 328.692161 
L 241.517698 326.080742 
L 243.321481 325.465005 
L 245.125263 326.080742 
L 246.929045 327.355351 
L 248.732827 328.015604 
L 250.536609 328.015604 
L 252.340391 329.385847 
L 257.751738 331.57895 
L 259.55552 330.828241 
L 263.163084 332.350808 
L 264.966866 332.350808 
L 266.770648 333.962988 
L 268.57443 333.962988 
L 270.378212 333.145042 
L 272.181995 333.962988 
L 273.985777 332.350808 
L 277.593341 332.350808 
L 279.397123 331.57895 
L 283.004687 333.145042 
L 284.808469 332.350808 
L 286.612251 333.962988 
L 290.219816 333.962988 
L 293.82738 337.503281 
L 295.631162 339.461196 
L 297.434944 342.688352 
L 299.238726 345.072391 
L 301.042508 347.683809 
L 302.846291 350.570599 
L 306.453855 350.570599 
L 310.061419 347.683809 
L 311.865201 350.570599 
L 313.668983 343.85445 
L 317.276548 341.569864 
L 319.08033 339.461196 
L 322.687894 337.503281 
L 324.491676 333.145042 
L 326.295458 334.806106 
L 328.09924 333.962988 
L 329.903022 332.350808 
L 335.314369 332.350808 
L 337.118151 333.145042 
L 338.921933 333.145042 
L 340.725715 332.350808 
L 342.529497 333.145042 
L 349.744626 333.145042 
L 351.548408 332.350808 
L 356.959754 332.350808 
L 360.567319 330.828241 
L 362.371101 329.385847 
L 364.174883 329.385847 
L 365.978665 328.692161 
L 367.782447 328.692161 
L 369.586229 328.015604 
L 371.390011 329.385847 
L 373.193793 332.350808 
L 374.997576 334.806106 
L 376.801358 336.574407 
L 378.60514 337.503281 
L 380.408922 336.574407 
L 382.212704 337.503281 
L 384.016486 335.675994 
L 385.820268 333.145042 
L 387.62405 330.828241 
L 389.427833 330.097554 
L 391.231615 330.828241 
L 398.446743 330.828241 
L 400.250525 330.097554 
L 402.054307 333.962988 
L 403.85809 328.692161 
L 405.661872 328.692161 
L 407.465654 328.015604 
L 411.073218 328.015604 
L 412.877 333.145042 
L 414.680782 325.465005 
L 416.484564 329.385847 
L 421.895911 331.57895 
L 423.699693 331.57895 
L 425.503475 328.692161 
L 427.307257 333.962988 
L 432.718604 336.574407 
L 434.522386 337.503281 
L 436.326168 342.688352 
L 438.12995 338.464754 
L 447.148861 338.464754 
L 448.952643 334.806106 
L 450.756425 339.461196 
L 452.560207 338.464754 
L 454.363989 338.464754 
L 459.775335 341.569864 
L 461.579118 342.688352 
L 463.3829 342.688352 
L 465.186682 345.072391 
L 466.990464 345.072391 
L 468.794246 342.688352 
L 470.598028 339.461196 
L 472.40181 337.503281 
L 474.205592 334.806106 
L 476.009374 332.350808 
L 477.813157 329.385847 
L 479.616939 327.355351 
L 481.420721 326.080742 
L 483.224503 325.465005 
L 485.028285 324.273549 
L 486.832067 323.696704 
L 488.635849 322.578215 
L 490.439631 322.578215 
L 494.047196 321.503601 
L 495.850978 321.503601 
L 497.65476 320.469548 
L 499.458542 319.966797 
L 501.262324 320.469548 
L 503.066106 319.966797 
L 504.869888 320.469548 
L 506.673671 320.469548 
L 508.477453 319.966797 
L 510.281235 320.981696 
L 517.496363 318.988151 
L 519.300145 319.473105 
L 521.103928 319.473105 
L 522.90771 318.988151 
L 524.711492 319.473105 
L 528.319056 319.473105 
L 531.92662 317.582758 
L 533.730402 317.129869 
L 539.141749 317.129869 
L 539.141749 317.129869 
" style="fill:none;stroke:#fbc15e;stroke-linecap:square;stroke-opacity:0.4;stroke-width:2;"/>
   </g>
   <g id="line2d_67">
    <defs>
     <path d="M 0 3 
C 0.795609 3 1.55874 2.683901 2.12132 2.12132 
C 2.683901 1.55874 3 0.795609 3 0 
C 3 -0.795609 2.683901 -1.55874 2.12132 -2.12132 
C 1.55874 -2.683901 0.795609 -3 0 -3 
C -0.795609 -3 -1.55874 -2.683901 -2.12132 -2.12132 
C -2.683901 -1.55874 -3 -0.795609 -3 0 
C -3 0.795609 -2.683901 1.55874 -2.12132 2.12132 
C -1.55874 2.683901 -0.795609 3 0 3 
z
" id="mcd3ad61b00" style="stroke:#fbc15e;stroke-opacity:0.4;"/>
    </defs>
    <g clip-path="url(#p9c4730ed81)">
     <use style="fill:#fbc15e;fill-opacity:0.4;stroke:#fbc15e;stroke-opacity:0.4;" x="539.141749" xlink:href="#mcd3ad61b00" y="317.129869"/>
    </g>
   </g>
   <g id="line2d_68">
    <path clip-path="url(#p9c4730ed81)" d="M 70.158235 433 
L 70.158397 427.357339 
L 73.765961 427.357339 
L 75.569743 408.36569 
L 77.373525 408.36569 
L 79.177307 397.256287 
L 80.981089 389.374041 
L 82.784872 397.256287 
L 84.588654 364.268447 
L 86.392436 359.27299 
L 90 359.27299 
L 91.803782 340.281341 
L 93.607564 340.281341 
L 95.411346 328.42123 
L 97.215128 324.303624 
L 99.018911 314.277333 
L 100.822693 305.956691 
L 102.626475 299.583036 
L 104.430257 302.584948 
L 106.234039 295.06561 
L 108.037821 290.070153 
L 109.841603 285.535197 
L 113.449168 281.915276 
L 115.25295 277.306851 
L 117.056732 270.091848 
L 118.860514 268.05506 
L 120.664296 267.249144 
L 122.468078 266.083047 
L 124.27186 263.059603 
L 126.075642 262.187586 
L 127.879425 262.788322 
L 129.683207 264.030814 
L 131.486989 262.720919 
L 133.290771 262.386371 
L 135.094553 262.452955 
L 136.898335 265.332338 
L 138.702117 263.81978 
L 140.505899 265.111078 
L 142.309682 266.621056 
L 144.113464 267.328678 
L 145.917246 268.219127 
L 147.721028 268.885401 
L 149.52481 268.301531 
L 151.328592 272.292294 
L 153.132374 271.913061 
L 154.936156 270.715596 
L 156.739939 273.965293 
L 158.543721 274.169005 
L 160.347503 274.78939 
L 162.151285 278.239678 
L 163.955067 279.952683 
L 165.758849 277.65295 
L 169.366413 281.245336 
L 171.170196 283.88324 
L 172.973978 287.458734 
L 174.77776 287.792874 
L 176.581542 289.707245 
L 178.385324 296.413381 
L 180.189106 302.298043 
L 181.992888 304.372483 
L 183.79667 309.802364 
L 185.600453 311.346387 
L 187.404235 311.746382 
L 189.208017 310.563501 
L 191.011799 314.722858 
L 192.815581 310.18029 
L 194.619363 312.982644 
L 196.423145 314.277333 
L 200.03071 320.724741 
L 201.834492 321.289692 
L 203.638274 325.608592 
L 205.442056 340.281341 
L 207.245838 342.665379 
L 209.04962 338.088238 
L 210.853402 339.162853 
L 212.657184 338.088238 
L 214.460967 339.162853 
L 216.264749 337.054185 
L 218.068531 340.281341 
L 219.872313 339.162853 
L 221.676095 343.939989 
L 223.479877 351.390743 
L 225.283659 355.049391 
L 227.087441 355.049391 
L 228.891224 374.04104 
L 230.695006 383.260096 
L 232.498788 389.374041 
L 234.30257 408.36569 
L 237.910134 408.36569 
L 239.713916 427.357339 
L 241.517698 397.256287 
L 243.321481 355.049391 
L 246.929045 351.390743 
L 248.732827 349.72968 
L 252.340391 349.72968 
L 254.144173 351.390743 
L 255.947955 345.276798 
L 257.751738 345.276798 
L 261.359302 348.163587 
L 264.966866 348.163587 
L 266.770648 349.72968 
L 268.57443 408.36569 
L 272.181995 408.36569 
L 273.985777 378.264639 
L 279.397123 378.264639 
L 281.200905 374.04104 
L 284.808469 374.04104 
L 286.612251 397.256287 
L 293.82738 397.256287 
L 295.631162 427.357339 
L 299.238726 427.357339 
L 301.042508 397.256287 
L 304.650073 397.256287 
L 306.453855 408.36569 
L 308.257637 408.36569 
L 310.061419 397.256287 
L 311.865201 397.256287 
L 313.668983 427.357339 
L 315.472765 427.357339 
L 317.276548 397.256287 
L 319.08033 389.374041 
L 320.884112 389.374041 
L 322.687894 378.264639 
L 324.491676 370.382392 
L 328.09924 370.382392 
L 329.903022 374.04104 
L 331.706805 378.264639 
L 333.510587 374.04104 
L 335.314369 383.260096 
L 337.118151 389.374041 
L 340.725715 389.374041 
L 342.529497 397.256287 
L 344.333279 397.256287 
L 346.137062 383.260096 
L 353.35219 383.260096 
L 355.155972 378.264639 
L 356.959754 367.155236 
L 358.763536 374.04104 
L 360.567319 378.264639 
L 362.371101 383.260096 
L 365.978665 383.260096 
L 367.782447 389.374041 
L 369.586229 408.36569 
L 371.390011 383.260096 
L 373.193793 374.04104 
L 374.997576 367.155236 
L 376.801358 367.155236 
L 378.60514 364.268447 
L 382.212704 364.268447 
L 385.820268 383.260096 
L 387.62405 389.374041 
L 389.427833 383.260096 
L 391.231615 389.374041 
L 393.035397 383.260096 
L 394.839179 367.155236 
L 396.642961 370.382392 
L 398.446743 364.268447 
L 400.250525 367.155236 
L 402.054307 370.382392 
L 405.661872 370.382392 
L 407.465654 374.04104 
L 409.269436 370.382392 
L 411.073218 374.04104 
L 414.680782 374.04104 
L 416.484564 370.382392 
L 418.288347 361.657028 
L 420.092129 364.268447 
L 421.895911 345.276798 
L 423.699693 342.665379 
L 425.503475 339.162853 
L 427.307257 339.162853 
L 429.111039 340.281341 
L 432.718604 338.088238 
L 434.522386 343.939989 
L 436.326168 346.682191 
L 441.737514 346.682191 
L 443.541296 353.159044 
L 445.345078 353.159044 
L 448.952643 357.079887 
L 450.756425 361.657028 
L 452.560207 359.27299 
L 454.363989 357.079887 
L 456.167771 357.079887 
L 457.971553 359.27299 
L 459.775335 370.382392 
L 461.579118 357.079887 
L 463.3829 357.079887 
L 465.186682 359.27299 
L 466.990464 361.657028 
L 468.794246 348.163587 
L 472.40181 337.054185 
L 474.205592 336.057742 
L 476.009374 330.738031 
L 477.813157 330.738031 
L 479.616939 329.943797 
L 481.420721 324.94834 
L 483.224503 324.94834 
L 483.227596 433 
M 495.850272 433 
L 495.850978 408.36569 
L 497.65476 296.413381 
L 499.458542 289.349081 
L 501.262324 280.851097 
L 503.066106 280.079239 
L 504.869888 276.852083 
L 506.673671 271.725394 
L 508.477453 268.969836 
L 510.281235 263.402526 
L 512.085017 261.342467 
L 513.888799 261.024239 
L 515.692581 259.847597 
L 517.496363 260.213738 
L 519.300145 257.192129 
L 521.103928 254.872354 
L 522.90771 254.075231 
L 524.711492 252.640392 
L 526.515274 251.859475 
L 530.122838 252.224194 
L 531.92662 250.576633 
L 533.730402 249.851632 
L 535.534185 249.809577 
L 539.141749 248.778636 
L 540.945531 248.65749 
L 542.749313 248.376882 
L 544.553095 248.416793 
L 546.356877 250.147842 
L 548.160659 250.837165 
L 549.964442 250.750046 
L 551.768224 253.06301 
L 553.572006 252.547356 
L 555.375788 252.362226 
L 557.17957 252.408391 
L 558.983352 250.663202 
L 562.590916 248.981745 
L 564.394699 247.015395 
L 566.198481 247.746082 
L 568.002263 247.902426 
L 569.806045 248.65749 
L 571.609827 249.767586 
L 573.413609 249.268649 
L 575.217391 250.19042 
L 577.021173 250.53345 
L 578.824956 249.809577 
L 580.628738 250.490336 
L 582.43252 249.516982 
L 584.236302 248.941002 
L 586.040084 249.104336 
L 591.45143 249.104336 
L 591.45143 249.104336 
" style="fill:none;stroke:#8eba42;stroke-linecap:square;stroke-opacity:0.4;stroke-width:2;"/>
   </g>
   <g id="line2d_69">
    <defs>
     <path d="M 0 3 
C 0.795609 3 1.55874 2.683901 2.12132 2.12132 
C 2.683901 1.55874 3 0.795609 3 0 
C 3 -0.795609 2.683901 -1.55874 2.12132 -2.12132 
C 1.55874 -2.683901 0.795609 -3 0 -3 
C -0.795609 -3 -1.55874 -2.683901 -2.12132 -2.12132 
C -2.683901 -1.55874 -3 -0.795609 -3 0 
C -3 0.795609 -2.683901 1.55874 -2.12132 2.12132 
C -1.55874 2.683901 -0.795609 3 0 3 
z
" id="m776ebba11d" style="stroke:#8eba42;stroke-opacity:0.4;"/>
    </defs>
    <g clip-path="url(#p9c4730ed81)">
     <use style="fill:#8eba42;fill-opacity:0.4;stroke:#8eba42;stroke-opacity:0.4;" x="591.45143" xlink:href="#m776ebba11d" y="249.104336"/>
    </g>
   </g>
   <g id="line2d_70">
    <path clip-path="url(#p9c4730ed81)" d="M 93.604676 433 
L 93.607564 432.984955 
L 95.411346 428.137202 
L 97.215128 425.324565 
L 99.018911 420.440714 
L 100.822693 408.777774 
L 102.626475 399.558718 
L 104.430257 388.189606 
L 106.234039 379.168201 
L 108.037821 369.370823 
L 109.841603 362.369655 
L 111.645385 356.471452 
L 117.056732 334.264683 
L 120.664296 320.278123 
L 122.468078 313.456622 
L 124.27186 308.502505 
L 126.075642 304.083494 
L 127.879425 298.007985 
L 131.486989 287.72728 
L 133.290771 284.120992 
L 136.898335 277.659387 
L 138.702117 274.548394 
L 140.505899 270.786127 
L 142.309682 268.57094 
L 145.917246 265.377617 
L 147.721028 264.262714 
L 149.52481 263.81553 
L 151.328592 263.509882 
L 153.132374 263.738339 
L 154.936156 262.915751 
L 156.739939 263.008521 
L 160.347503 263.539018 
L 162.151285 263.319439 
L 163.955067 262.88727 
L 165.758849 262.715232 
L 167.562631 263.013883 
L 169.366413 262.484593 
L 171.170196 262.367379 
L 172.973978 262.832171 
L 174.77776 263.916944 
L 176.581542 265.278426 
L 178.385324 265.883002 
L 180.189106 265.712845 
L 181.992888 265.811645 
L 183.79667 266.369586 
L 185.600453 266.403953 
L 187.404235 266.867025 
L 189.208017 267.17113 
L 191.011799 267.052811 
L 192.815581 267.432405 
L 194.619363 268.474779 
L 198.226927 269.097012 
L 200.03071 269.556114 
L 201.834492 270.275824 
L 205.442056 273.414879 
L 207.245838 273.79901 
L 209.04962 274.006459 
L 210.853402 274.734189 
L 212.657184 275.154107 
L 214.460967 274.695834 
L 216.264749 274.965453 
L 218.068531 275.606022 
L 219.872313 277.295756 
L 221.676095 278.59331 
L 225.283659 279.462281 
L 227.087441 281.528889 
L 228.891224 284.714358 
L 232.498788 284.848862 
L 234.30257 285.175996 
L 236.106352 285.899851 
L 237.910134 285.604748 
L 239.713916 284.722252 
L 241.517698 283.276821 
L 243.321481 285.256381 
L 245.125263 285.982391 
L 250.536609 289.356151 
L 252.340391 290.707222 
L 255.947955 291.738065 
L 257.751738 292.513857 
L 259.55552 292.910149 
L 261.359302 292.519103 
L 264.966866 293.797211 
L 266.770648 294.386224 
L 273.985777 298.28504 
L 275.789559 298.42137 
L 279.397123 298.304474 
L 281.200905 298.085021 
L 283.004687 299.113388 
L 284.808469 299.368204 
L 286.612251 300.091791 
L 290.219816 300.161051 
L 292.023598 301.584334 
L 293.82738 302.107924 
L 295.631162 300.842115 
L 297.434944 300.594414 
L 299.238726 302.212359 
L 301.042508 302.122819 
L 302.846291 302.317193 
L 304.650073 298.336895 
L 306.453855 297.292992 
L 308.257637 295.615401 
L 310.061419 294.691227 
L 311.865201 292.388245 
L 313.668983 291.499434 
L 315.472765 291.448929 
L 317.276548 292.995438 
L 319.08033 292.372584 
L 320.884112 292.561111 
L 322.687894 292.050908 
L 324.491676 291.217796 
L 326.295458 291.257853 
L 328.09924 290.46276 
L 329.903022 289.529668 
L 331.706805 288.450349 
L 333.510587 287.846474 
L 335.314369 286.84308 
L 337.118151 286.817501 
L 338.921933 286.660291 
L 340.725715 284.248727 
L 342.529497 283.246881 
L 344.333279 282.486974 
L 347.940844 281.715722 
L 349.744626 280.886543 
L 351.548408 281.186744 
L 353.35219 283.273077 
L 358.763536 283.325544 
L 362.371101 283.442081 
L 364.174883 283.041922 
L 365.978665 283.075356 
L 367.782447 284.240969 
L 369.586229 283.748939 
L 371.390011 284.470773 
L 373.193793 284.066981 
L 374.997576 284.295325 
L 376.801358 284.059274 
L 378.60514 284.423877 
L 380.408922 283.374354 
L 382.212704 284.059274 
L 384.016486 283.955438 
L 385.820268 284.880606 
L 387.62405 285.079844 
L 389.427833 285.559942 
L 391.231615 285.572155 
L 394.839179 286.449267 
L 396.642961 286.403059 
L 400.250525 287.569157 
L 402.054307 287.678868 
L 403.85809 287.018511 
L 407.465654 288.518276 
L 409.269436 288.681989 
L 411.073218 288.691113 
L 412.877 289.035472 
L 414.680782 289.179081 
L 416.484564 290.707222 
L 418.288347 293.874283 
L 420.092129 293.134602 
L 421.895911 293.951573 
L 423.699693 292.676963 
L 425.503475 292.984763 
L 427.307257 293.070285 
L 429.111039 292.304822 
L 430.914821 288.256556 
L 432.718604 289.141949 
L 434.522386 289.337458 
L 436.326168 290.692493 
L 438.12995 290.687585 
L 439.933732 291.423711 
L 441.737514 291.403554 
L 443.541296 292.782711 
L 445.345078 292.232035 
L 447.148861 292.004526 
L 450.756425 291.702392 
L 452.560207 291.49438 
L 456.167771 292.624242 
L 457.971553 293.436762 
L 459.775335 293.786218 
L 461.579118 293.830215 
L 463.3829 294.218233 
L 465.186682 293.841226 
L 466.990464 293.080994 
L 468.794246 294.179183 
L 470.598028 294.24616 
L 472.40181 293.594557 
L 474.205592 293.431337 
L 476.009374 293.692958 
L 477.813157 293.290662 
L 479.616939 293.984764 
L 481.420721 293.453044 
L 483.224503 293.075639 
L 485.028285 293.885311 
L 486.832067 294.201491 
L 488.635849 293.556386 
L 490.439631 293.496509 
L 494.047196 292.097369 
L 495.850978 291.257853 
L 499.458542 290.840145 
L 501.262324 289.918181 
L 503.066106 290.177072 
L 506.673671 289.865742 
L 508.477453 290.570055 
L 510.281235 290.02336 
L 512.085017 289.66644 
L 513.888799 289.951603 
L 517.496363 289.600327 
L 519.300145 286.868683 
L 521.103928 286.520833 
L 524.711492 285.111857 
L 526.515274 284.604084 
L 528.319056 284.349788 
L 530.122838 283.752749 
L 531.92662 284.498167 
L 533.730402 283.254363 
L 535.534185 283.03821 
L 537.337967 283.134895 
L 539.141749 282.204655 
L 540.945531 281.655656 
L 542.749313 281.476242 
L 544.553095 280.400144 
L 546.356877 278.875664 
L 548.160659 276.518212 
L 549.964442 274.458681 
L 551.768224 274.009129 
L 553.572006 273.302763 
L 555.375788 272.817901 
L 557.17957 271.691029 
L 558.983352 270.731587 
L 560.787134 272.571048 
L 562.590916 273.828171 
L 564.394699 274.458681 
L 566.198481 274.665735 
L 568.002263 273.963777 
L 571.609827 271.507642 
L 573.413609 267.755634 
L 575.217391 265.352299 
L 577.021173 263.388209 
L 578.824956 262.883712 
L 580.628738 262.495115 
L 582.43252 262.604072 
L 584.236302 262.065295 
L 586.040084 262.295898 
L 587.843866 261.081743 
L 589.647648 260.894162 
L 591.45143 260.429939 
L 593.255213 260.2516 
L 596.862777 258.631157 
L 602.274123 258.631157 
L 602.274123 258.631157 
" style="fill:none;stroke:#ffb5b8;stroke-linecap:square;stroke-opacity:0.4;stroke-width:2;"/>
   </g>
   <g id="line2d_71">
    <defs>
     <path d="M 0 3 
C 0.795609 3 1.55874 2.683901 2.12132 2.12132 
C 2.683901 1.55874 3 0.795609 3 0 
C 3 -0.795609 2.683901 -1.55874 2.12132 -2.12132 
C 1.55874 -2.683901 0.795609 -3 0 -3 
C -0.795609 -3 -1.55874 -2.683901 -2.12132 -2.12132 
C -2.683901 -1.55874 -3 -0.795609 -3 0 
C -3 0.795609 -2.683901 1.55874 -2.12132 2.12132 
C -1.55874 2.683901 -0.795609 3 0 3 
z
" id="m1deb0c166c" style="stroke:#ffb5b8;stroke-opacity:0.4;"/>
    </defs>
    <g clip-path="url(#p9c4730ed81)">
     <use style="fill:#ffb5b8;fill-opacity:0.4;stroke:#ffb5b8;stroke-opacity:0.4;" x="602.274123" xlink:href="#m1deb0c166c" y="258.631157"/>
    </g>
   </g>
   <g id="patch_3">
    <path d="M 90 378 
L 90 229.745455 
" style="fill:none;stroke:#ffffff;stroke-linecap:square;stroke-linejoin:miter;"/>
   </g>
   <g id="patch_4">
    <path d="M 648 378 
L 648 229.745455 
" style="fill:none;stroke:#ffffff;stroke-linecap:square;stroke-linejoin:miter;"/>
   </g>
   <g id="patch_5">
    <path d="M 90 378 
L 648 378 
" style="fill:none;stroke:#ffffff;stroke-linecap:square;stroke-linejoin:miter;"/>
   </g>
   <g id="patch_6">
    <path d="M 90 229.745455 
L 648 229.745455 
" style="fill:none;stroke:#ffffff;stroke-linecap:square;stroke-linejoin:miter;"/>
   </g>
   <g id="text_16">
    <!-- Korea, South -->
    <defs>
     <path d="M 11.71875 12.40625 
L 22.015625 12.40625 
L 22.015625 4 
L 14.015625 -11.625 
L 7.71875 -11.625 
L 11.71875 4 
z
" id="DejaVuSans-44"/>
     <path d="M 53.515625 70.515625 
L 53.515625 60.890625 
Q 47.90625 63.578125 42.921875 64.890625 
Q 37.9375 66.21875 33.296875 66.21875 
Q 25.25 66.21875 20.875 63.09375 
Q 16.5 59.96875 16.5 54.203125 
Q 16.5 49.359375 19.40625 46.890625 
Q 22.3125 44.4375 30.421875 42.921875 
L 36.375 41.703125 
Q 47.40625 39.59375 52.65625 34.296875 
Q 57.90625 29 57.90625 20.125 
Q 57.90625 9.515625 50.796875 4.046875 
Q 43.703125 -1.421875 29.984375 -1.421875 
Q 24.8125 -1.421875 18.96875 -0.25 
Q 13.140625 0.921875 6.890625 3.21875 
L 6.890625 13.375 
Q 12.890625 10.015625 18.65625 8.296875 
Q 24.421875 6.59375 29.984375 6.59375 
Q 38.421875 6.59375 43.015625 9.90625 
Q 47.609375 13.234375 47.609375 19.390625 
Q 47.609375 24.75 44.3125 27.78125 
Q 41.015625 30.8125 33.5 32.328125 
L 27.484375 33.5 
Q 16.453125 35.6875 11.515625 40.375 
Q 6.59375 45.0625 6.59375 53.421875 
Q 6.59375 63.09375 13.40625 68.65625 
Q 20.21875 74.21875 32.171875 74.21875 
Q 37.3125 74.21875 42.625 73.28125 
Q 47.953125 72.359375 53.515625 70.515625 
z
" id="DejaVuSans-83"/>
     <path d="M 8.5 21.578125 
L 8.5 54.6875 
L 17.484375 54.6875 
L 17.484375 21.921875 
Q 17.484375 14.15625 20.5 10.265625 
Q 23.53125 6.390625 29.59375 6.390625 
Q 36.859375 6.390625 41.078125 11.03125 
Q 45.3125 15.671875 45.3125 23.6875 
L 45.3125 54.6875 
L 54.296875 54.6875 
L 54.296875 0 
L 45.3125 0 
L 45.3125 8.40625 
Q 42.046875 3.421875 37.71875 1 
Q 33.40625 -1.421875 27.6875 -1.421875 
Q 18.265625 -1.421875 13.375 4.4375 
Q 8.5 10.296875 8.5 21.578125 
z
M 31.109375 56 
z
" id="DejaVuSans-117"/>
    </defs>
    <g transform="translate(618.508162 359.695162)scale(0.1 -0.1)">
     <use xlink:href="#DejaVuSans-75"/>
     <use x="60.576172" xlink:href="#DejaVuSans-111"/>
     <use x="121.757812" xlink:href="#DejaVuSans-114"/>
     <use x="160.621094" xlink:href="#DejaVuSans-101"/>
     <use x="222.144531" xlink:href="#DejaVuSans-97"/>
     <use x="283.423828" xlink:href="#DejaVuSans-44"/>
     <use x="315.210938" xlink:href="#DejaVuSans-32"/>
     <use x="346.998047" xlink:href="#DejaVuSans-83"/>
     <use x="410.474609" xlink:href="#DejaVuSans-111"/>
     <use x="471.65625" xlink:href="#DejaVuSans-117"/>
     <use x="535.035156" xlink:href="#DejaVuSans-116"/>
     <use x="574.244141" xlink:href="#DejaVuSans-104"/>
    </g>
   </g>
   <g id="text_17">
    <!-- Germany -->
    <defs>
     <path d="M 59.515625 10.40625 
L 59.515625 29.984375 
L 43.40625 29.984375 
L 43.40625 38.09375 
L 69.28125 38.09375 
L 69.28125 6.78125 
Q 63.578125 2.734375 56.6875 0.65625 
Q 49.8125 -1.421875 42 -1.421875 
Q 24.90625 -1.421875 15.25 8.5625 
Q 5.609375 18.5625 5.609375 36.375 
Q 5.609375 54.25 15.25 64.234375 
Q 24.90625 74.21875 42 74.21875 
Q 49.125 74.21875 55.546875 72.453125 
Q 61.96875 70.703125 67.390625 67.28125 
L 67.390625 56.78125 
Q 61.921875 61.421875 55.765625 63.765625 
Q 49.609375 66.109375 42.828125 66.109375 
Q 29.4375 66.109375 22.71875 58.640625 
Q 16.015625 51.171875 16.015625 36.375 
Q 16.015625 21.625 22.71875 14.15625 
Q 29.4375 6.6875 42.828125 6.6875 
Q 48.046875 6.6875 52.140625 7.59375 
Q 56.25 8.5 59.515625 10.40625 
z
" id="DejaVuSans-71"/>
    </defs>
    <g transform="translate(595.058995 263.619337)scale(0.1 -0.1)">
     <use xlink:href="#DejaVuSans-71"/>
     <use x="77.490234" xlink:href="#DejaVuSans-101"/>
     <use x="139.013672" xlink:href="#DejaVuSans-114"/>
     <use x="178.376953" xlink:href="#DejaVuSans-109"/>
     <use x="275.789062" xlink:href="#DejaVuSans-97"/>
     <use x="337.068359" xlink:href="#DejaVuSans-110"/>
     <use x="400.447266" xlink:href="#DejaVuSans-121"/>
    </g>
   </g>
   <g id="text_18">
    <!-- Poland -->
    <defs>
     <path d="M 19.671875 64.796875 
L 19.671875 37.40625 
L 32.078125 37.40625 
Q 38.96875 37.40625 42.71875 40.96875 
Q 46.484375 44.53125 46.484375 51.125 
Q 46.484375 57.671875 42.71875 61.234375 
Q 38.96875 64.796875 32.078125 64.796875 
z
M 9.8125 72.90625 
L 32.078125 72.90625 
Q 44.34375 72.90625 50.609375 67.359375 
Q 56.890625 61.8125 56.890625 51.125 
Q 56.890625 40.328125 50.609375 34.8125 
Q 44.34375 29.296875 32.078125 29.296875 
L 19.671875 29.296875 
L 19.671875 0 
L 9.8125 0 
z
" id="DejaVuSans-80"/>
    </defs>
    <g transform="translate(571.609827 250.759865)scale(0.1 -0.1)">
     <use xlink:href="#DejaVuSans-80"/>
     <use x="56.677734" xlink:href="#DejaVuSans-111"/>
     <use x="117.859375" xlink:href="#DejaVuSans-108"/>
     <use x="145.642578" xlink:href="#DejaVuSans-97"/>
     <use x="206.921875" xlink:href="#DejaVuSans-110"/>
     <use x="270.300781" xlink:href="#DejaVuSans-100"/>
    </g>
   </g>
   <g id="text_19">
    <!-- Belarus -->
    <defs>
     <path d="M 19.671875 34.8125 
L 19.671875 8.109375 
L 35.5 8.109375 
Q 43.453125 8.109375 47.28125 11.40625 
Q 51.125 14.703125 51.125 21.484375 
Q 51.125 28.328125 47.28125 31.5625 
Q 43.453125 34.8125 35.5 34.8125 
z
M 19.671875 64.796875 
L 19.671875 42.828125 
L 34.28125 42.828125 
Q 41.5 42.828125 45.03125 45.53125 
Q 48.578125 48.25 48.578125 53.8125 
Q 48.578125 59.328125 45.03125 62.0625 
Q 41.5 64.796875 34.28125 64.796875 
z
M 9.8125 72.90625 
L 35.015625 72.90625 
Q 46.296875 72.90625 52.390625 68.21875 
Q 58.5 63.53125 58.5 54.890625 
Q 58.5 48.1875 55.375 44.234375 
Q 52.25 40.28125 46.1875 39.3125 
Q 53.46875 37.75 57.5 32.78125 
Q 61.53125 27.828125 61.53125 20.40625 
Q 61.53125 10.640625 54.890625 5.3125 
Q 48.25 0 35.984375 0 
L 9.8125 0 
z
" id="DejaVuSans-66"/>
    </defs>
    <g transform="translate(542.749313 317.129869)scale(0.1 -0.1)">
     <use xlink:href="#DejaVuSans-66"/>
     <use x="68.603516" xlink:href="#DejaVuSans-101"/>
     <use x="130.126953" xlink:href="#DejaVuSans-108"/>
     <use x="157.910156" xlink:href="#DejaVuSans-97"/>
     <use x="219.189453" xlink:href="#DejaVuSans-114"/>
     <use x="260.302734" xlink:href="#DejaVuSans-117"/>
     <use x="323.681641" xlink:href="#DejaVuSans-115"/>
    </g>
   </g>
   <g id="text_20">
    <!-- Switzerland -->
    <defs>
     <path d="M 5.515625 54.6875 
L 48.1875 54.6875 
L 48.1875 46.484375 
L 14.40625 7.171875 
L 48.1875 7.171875 
L 48.1875 0 
L 4.296875 0 
L 4.296875 8.203125 
L 38.09375 47.515625 
L 5.515625 47.515625 
z
" id="DejaVuSans-122"/>
    </defs>
    <g transform="translate(595.058995 249.104336)scale(0.1 -0.1)">
     <use xlink:href="#DejaVuSans-83"/>
     <use x="63.476562" xlink:href="#DejaVuSans-119"/>
     <use x="145.263672" xlink:href="#DejaVuSans-105"/>
     <use x="173.046875" xlink:href="#DejaVuSans-116"/>
     <use x="212.255859" xlink:href="#DejaVuSans-122"/>
     <use x="264.746094" xlink:href="#DejaVuSans-101"/>
     <use x="326.269531" xlink:href="#DejaVuSans-114"/>
     <use x="367.382812" xlink:href="#DejaVuSans-108"/>
     <use x="395.166016" xlink:href="#DejaVuSans-97"/>
     <use x="456.445312" xlink:href="#DejaVuSans-110"/>
     <use x="519.824219" xlink:href="#DejaVuSans-100"/>
    </g>
   </g>
   <g id="text_21">
    <!-- US -->
    <defs>
     <path d="M 8.6875 72.90625 
L 18.609375 72.90625 
L 18.609375 28.609375 
Q 18.609375 16.890625 22.84375 11.734375 
Q 27.09375 6.59375 36.625 6.59375 
Q 46.09375 6.59375 50.34375 11.734375 
Q 54.59375 16.890625 54.59375 28.609375 
L 54.59375 72.90625 
L 64.5 72.90625 
L 64.5 27.390625 
Q 64.5 13.140625 57.4375 5.859375 
Q 50.390625 -1.421875 36.625 -1.421875 
Q 22.796875 -1.421875 15.734375 5.859375 
Q 8.6875 13.140625 8.6875 27.390625 
z
" id="DejaVuSans-85"/>
    </defs>
    <g transform="translate(605.881687 258.631157)scale(0.1 -0.1)">
     <use xlink:href="#DejaVuSans-85"/>
     <use x="73.193359" xlink:href="#DejaVuSans-83"/>
    </g>
   </g>
  </g>
 </g>
 <defs>
  <clipPath id="p9c4730ed81">
   <rect height="148.254545" width="558" x="90" y="229.745455"/>
  </clipPath>
 </defs>
</svg>
