<?xml version="1.0" encoding="utf-8" standalone="no"?>
<!DOCTYPE svg PUBLIC "-//W3C//DTD SVG 1.1//EN"
  "http://www.w3.org/Graphics/SVG/1.1/DTD/svg11.dtd">
<!-- Created with matplotlib (https://matplotlib.org/) -->
<svg height="432pt" version="1.1" viewBox="0 0 720 432" width="720pt" xmlns="http://www.w3.org/2000/svg" xmlns:xlink="http://www.w3.org/1999/xlink">
 <defs>
  <style type="text/css">
*{stroke-linecap:butt;stroke-linejoin:round;}
  </style>
 </defs>
 <g id="figure_1">
  <g id="patch_1">
   <path d="M 0 432 
L 720 432 
L 720 0 
L 0 0 
z
" style="fill:#ffffff;"/>
  </g>
  <g id="axes_1">
   <g id="patch_2">
    <path d="M 90 378 
L 648 378 
L 648 229.745455 
L 90 229.745455 
z
" style="fill:#e5e5e5;"/>
   </g>
   <g id="matplotlib.axis_1">
    <g id="xtick_1">
     <g id="line2d_1">
      <path clip-path="url(#pbfcbe3c711)" d="M 91.867157 378 
L 91.867157 229.745455 
" style="fill:none;stroke:#ffffff;stroke-linecap:square;stroke-width:0.8;"/>
     </g>
     <g id="line2d_2">
      <defs>
       <path d="M 0 0 
L 0 3.5 
" id="m6cb46ac32e" style="stroke:#555555;stroke-width:0.8;"/>
      </defs>
      <g>
       <use style="fill:#555555;stroke:#555555;stroke-width:0.8;" x="91.867157" xlink:href="#m6cb46ac32e" y="378"/>
      </g>
     </g>
     <g id="text_1">
      <!-- 0 -->
      <defs>
       <path d="M 31.78125 66.40625 
Q 24.171875 66.40625 20.328125 58.90625 
Q 16.5 51.421875 16.5 36.375 
Q 16.5 21.390625 20.328125 13.890625 
Q 24.171875 6.390625 31.78125 6.390625 
Q 39.453125 6.390625 43.28125 13.890625 
Q 47.125 21.390625 47.125 36.375 
Q 47.125 51.421875 43.28125 58.90625 
Q 39.453125 66.40625 31.78125 66.40625 
z
M 31.78125 74.21875 
Q 44.046875 74.21875 50.515625 64.515625 
Q 56.984375 54.828125 56.984375 36.375 
Q 56.984375 17.96875 50.515625 8.265625 
Q 44.046875 -1.421875 31.78125 -1.421875 
Q 19.53125 -1.421875 13.0625 8.265625 
Q 6.59375 17.96875 6.59375 36.375 
Q 6.59375 54.828125 13.0625 64.515625 
Q 19.53125 74.21875 31.78125 74.21875 
z
" id="DejaVuSans-48"/>
      </defs>
      <g style="fill:#555555;" transform="translate(88.685907 392.598437)scale(0.1 -0.1)">
       <use xlink:href="#DejaVuSans-48"/>
      </g>
     </g>
    </g>
    <g id="xtick_2">
     <g id="line2d_3">
      <path clip-path="url(#pbfcbe3c711)" d="M 185.225029 378 
L 185.225029 229.745455 
" style="fill:none;stroke:#ffffff;stroke-linecap:square;stroke-width:0.8;"/>
     </g>
     <g id="line2d_4">
      <g>
       <use style="fill:#555555;stroke:#555555;stroke-width:0.8;" x="185.225029" xlink:href="#m6cb46ac32e" y="378"/>
      </g>
     </g>
     <g id="text_2">
      <!-- 50 -->
      <defs>
       <path d="M 10.796875 72.90625 
L 49.515625 72.90625 
L 49.515625 64.59375 
L 19.828125 64.59375 
L 19.828125 46.734375 
Q 21.96875 47.46875 24.109375 47.828125 
Q 26.265625 48.1875 28.421875 48.1875 
Q 40.625 48.1875 47.75 41.5 
Q 54.890625 34.8125 54.890625 23.390625 
Q 54.890625 11.625 47.5625 5.09375 
Q 40.234375 -1.421875 26.90625 -1.421875 
Q 22.3125 -1.421875 17.546875 -0.640625 
Q 12.796875 0.140625 7.71875 1.703125 
L 7.71875 11.625 
Q 12.109375 9.234375 16.796875 8.0625 
Q 21.484375 6.890625 26.703125 6.890625 
Q 35.15625 6.890625 40.078125 11.328125 
Q 45.015625 15.765625 45.015625 23.390625 
Q 45.015625 31 40.078125 35.4375 
Q 35.15625 39.890625 26.703125 39.890625 
Q 22.75 39.890625 18.8125 39.015625 
Q 14.890625 38.140625 10.796875 36.28125 
z
" id="DejaVuSans-53"/>
      </defs>
      <g style="fill:#555555;" transform="translate(178.862529 392.598437)scale(0.1 -0.1)">
       <use xlink:href="#DejaVuSans-53"/>
       <use x="63.623047" xlink:href="#DejaVuSans-48"/>
      </g>
     </g>
    </g>
    <g id="xtick_3">
     <g id="line2d_5">
      <path clip-path="url(#pbfcbe3c711)" d="M 278.582901 378 
L 278.582901 229.745455 
" style="fill:none;stroke:#ffffff;stroke-linecap:square;stroke-width:0.8;"/>
     </g>
     <g id="line2d_6">
      <g>
       <use style="fill:#555555;stroke:#555555;stroke-width:0.8;" x="278.582901" xlink:href="#m6cb46ac32e" y="378"/>
      </g>
     </g>
     <g id="text_3">
      <!-- 100 -->
      <defs>
       <path d="M 12.40625 8.296875 
L 28.515625 8.296875 
L 28.515625 63.921875 
L 10.984375 60.40625 
L 10.984375 69.390625 
L 28.421875 72.90625 
L 38.28125 72.90625 
L 38.28125 8.296875 
L 54.390625 8.296875 
L 54.390625 0 
L 12.40625 0 
z
" id="DejaVuSans-49"/>
      </defs>
      <g style="fill:#555555;" transform="translate(269.039151 392.598437)scale(0.1 -0.1)">
       <use xlink:href="#DejaVuSans-49"/>
       <use x="63.623047" xlink:href="#DejaVuSans-48"/>
       <use x="127.246094" xlink:href="#DejaVuSans-48"/>
      </g>
     </g>
    </g>
    <g id="xtick_4">
     <g id="line2d_7">
      <path clip-path="url(#pbfcbe3c711)" d="M 371.940773 378 
L 371.940773 229.745455 
" style="fill:none;stroke:#ffffff;stroke-linecap:square;stroke-width:0.8;"/>
     </g>
     <g id="line2d_8">
      <g>
       <use style="fill:#555555;stroke:#555555;stroke-width:0.8;" x="371.940773" xlink:href="#m6cb46ac32e" y="378"/>
      </g>
     </g>
     <g id="text_4">
      <!-- 150 -->
      <g style="fill:#555555;" transform="translate(362.397023 392.598437)scale(0.1 -0.1)">
       <use xlink:href="#DejaVuSans-49"/>
       <use x="63.623047" xlink:href="#DejaVuSans-53"/>
       <use x="127.246094" xlink:href="#DejaVuSans-48"/>
      </g>
     </g>
    </g>
    <g id="xtick_5">
     <g id="line2d_9">
      <path clip-path="url(#pbfcbe3c711)" d="M 465.298645 378 
L 465.298645 229.745455 
" style="fill:none;stroke:#ffffff;stroke-linecap:square;stroke-width:0.8;"/>
     </g>
     <g id="line2d_10">
      <g>
       <use style="fill:#555555;stroke:#555555;stroke-width:0.8;" x="465.298645" xlink:href="#m6cb46ac32e" y="378"/>
      </g>
     </g>
     <g id="text_5">
      <!-- 200 -->
      <defs>
       <path d="M 19.1875 8.296875 
L 53.609375 8.296875 
L 53.609375 0 
L 7.328125 0 
L 7.328125 8.296875 
Q 12.9375 14.109375 22.625 23.890625 
Q 32.328125 33.6875 34.8125 36.53125 
Q 39.546875 41.84375 41.421875 45.53125 
Q 43.3125 49.21875 43.3125 52.78125 
Q 43.3125 58.59375 39.234375 62.25 
Q 35.15625 65.921875 28.609375 65.921875 
Q 23.96875 65.921875 18.8125 64.3125 
Q 13.671875 62.703125 7.8125 59.421875 
L 7.8125 69.390625 
Q 13.765625 71.78125 18.9375 73 
Q 24.125 74.21875 28.421875 74.21875 
Q 39.75 74.21875 46.484375 68.546875 
Q 53.21875 62.890625 53.21875 53.421875 
Q 53.21875 48.921875 51.53125 44.890625 
Q 49.859375 40.875 45.40625 35.40625 
Q 44.1875 33.984375 37.640625 27.21875 
Q 31.109375 20.453125 19.1875 8.296875 
z
" id="DejaVuSans-50"/>
      </defs>
      <g style="fill:#555555;" transform="translate(455.754895 392.598437)scale(0.1 -0.1)">
       <use xlink:href="#DejaVuSans-50"/>
       <use x="63.623047" xlink:href="#DejaVuSans-48"/>
       <use x="127.246094" xlink:href="#DejaVuSans-48"/>
      </g>
     </g>
    </g>
    <g id="xtick_6">
     <g id="line2d_11">
      <path clip-path="url(#pbfcbe3c711)" d="M 558.656517 378 
L 558.656517 229.745455 
" style="fill:none;stroke:#ffffff;stroke-linecap:square;stroke-width:0.8;"/>
     </g>
     <g id="line2d_12">
      <g>
       <use style="fill:#555555;stroke:#555555;stroke-width:0.8;" x="558.656517" xlink:href="#m6cb46ac32e" y="378"/>
      </g>
     </g>
     <g id="text_6">
      <!-- 250 -->
      <g style="fill:#555555;" transform="translate(549.112767 392.598437)scale(0.1 -0.1)">
       <use xlink:href="#DejaVuSans-50"/>
       <use x="63.623047" xlink:href="#DejaVuSans-53"/>
       <use x="127.246094" xlink:href="#DejaVuSans-48"/>
      </g>
     </g>
    </g>
    <g id="text_7">
     <!-- days since 3 deaths -->
     <defs>
      <path d="M 45.40625 46.390625 
L 45.40625 75.984375 
L 54.390625 75.984375 
L 54.390625 0 
L 45.40625 0 
L 45.40625 8.203125 
Q 42.578125 3.328125 38.25 0.953125 
Q 33.9375 -1.421875 27.875 -1.421875 
Q 17.96875 -1.421875 11.734375 6.484375 
Q 5.515625 14.40625 5.515625 27.296875 
Q 5.515625 40.1875 11.734375 48.09375 
Q 17.96875 56 27.875 56 
Q 33.9375 56 38.25 53.625 
Q 42.578125 51.265625 45.40625 46.390625 
z
M 14.796875 27.296875 
Q 14.796875 17.390625 18.875 11.75 
Q 22.953125 6.109375 30.078125 6.109375 
Q 37.203125 6.109375 41.296875 11.75 
Q 45.40625 17.390625 45.40625 27.296875 
Q 45.40625 37.203125 41.296875 42.84375 
Q 37.203125 48.484375 30.078125 48.484375 
Q 22.953125 48.484375 18.875 42.84375 
Q 14.796875 37.203125 14.796875 27.296875 
z
" id="DejaVuSans-100"/>
      <path d="M 34.28125 27.484375 
Q 23.390625 27.484375 19.1875 25 
Q 14.984375 22.515625 14.984375 16.5 
Q 14.984375 11.71875 18.140625 8.90625 
Q 21.296875 6.109375 26.703125 6.109375 
Q 34.1875 6.109375 38.703125 11.40625 
Q 43.21875 16.703125 43.21875 25.484375 
L 43.21875 27.484375 
z
M 52.203125 31.203125 
L 52.203125 0 
L 43.21875 0 
L 43.21875 8.296875 
Q 40.140625 3.328125 35.546875 0.953125 
Q 30.953125 -1.421875 24.3125 -1.421875 
Q 15.921875 -1.421875 10.953125 3.296875 
Q 6 8.015625 6 15.921875 
Q 6 25.140625 12.171875 29.828125 
Q 18.359375 34.515625 30.609375 34.515625 
L 43.21875 34.515625 
L 43.21875 35.40625 
Q 43.21875 41.609375 39.140625 45 
Q 35.0625 48.390625 27.6875 48.390625 
Q 23 48.390625 18.546875 47.265625 
Q 14.109375 46.140625 10.015625 43.890625 
L 10.015625 52.203125 
Q 14.9375 54.109375 19.578125 55.046875 
Q 24.21875 56 28.609375 56 
Q 40.484375 56 46.34375 49.84375 
Q 52.203125 43.703125 52.203125 31.203125 
z
" id="DejaVuSans-97"/>
      <path d="M 32.171875 -5.078125 
Q 28.375 -14.84375 24.75 -17.8125 
Q 21.140625 -20.796875 15.09375 -20.796875 
L 7.90625 -20.796875 
L 7.90625 -13.28125 
L 13.1875 -13.28125 
Q 16.890625 -13.28125 18.9375 -11.515625 
Q 21 -9.765625 23.484375 -3.21875 
L 25.09375 0.875 
L 2.984375 54.6875 
L 12.5 54.6875 
L 29.59375 11.921875 
L 46.6875 54.6875 
L 56.203125 54.6875 
z
" id="DejaVuSans-121"/>
      <path d="M 44.28125 53.078125 
L 44.28125 44.578125 
Q 40.484375 46.53125 36.375 47.5 
Q 32.28125 48.484375 27.875 48.484375 
Q 21.1875 48.484375 17.84375 46.4375 
Q 14.5 44.390625 14.5 40.28125 
Q 14.5 37.15625 16.890625 35.375 
Q 19.28125 33.59375 26.515625 31.984375 
L 29.59375 31.296875 
Q 39.15625 29.25 43.1875 25.515625 
Q 47.21875 21.78125 47.21875 15.09375 
Q 47.21875 7.46875 41.1875 3.015625 
Q 35.15625 -1.421875 24.609375 -1.421875 
Q 20.21875 -1.421875 15.453125 -0.5625 
Q 10.6875 0.296875 5.421875 2 
L 5.421875 11.28125 
Q 10.40625 8.6875 15.234375 7.390625 
Q 20.0625 6.109375 24.8125 6.109375 
Q 31.15625 6.109375 34.5625 8.28125 
Q 37.984375 10.453125 37.984375 14.40625 
Q 37.984375 18.0625 35.515625 20.015625 
Q 33.0625 21.96875 24.703125 23.78125 
L 21.578125 24.515625 
Q 13.234375 26.265625 9.515625 29.90625 
Q 5.8125 33.546875 5.8125 39.890625 
Q 5.8125 47.609375 11.28125 51.796875 
Q 16.75 56 26.8125 56 
Q 31.78125 56 36.171875 55.265625 
Q 40.578125 54.546875 44.28125 53.078125 
z
" id="DejaVuSans-115"/>
      <path id="DejaVuSans-32"/>
      <path d="M 9.421875 54.6875 
L 18.40625 54.6875 
L 18.40625 0 
L 9.421875 0 
z
M 9.421875 75.984375 
L 18.40625 75.984375 
L 18.40625 64.59375 
L 9.421875 64.59375 
z
" id="DejaVuSans-105"/>
      <path d="M 54.890625 33.015625 
L 54.890625 0 
L 45.90625 0 
L 45.90625 32.71875 
Q 45.90625 40.484375 42.875 44.328125 
Q 39.84375 48.1875 33.796875 48.1875 
Q 26.515625 48.1875 22.3125 43.546875 
Q 18.109375 38.921875 18.109375 30.90625 
L 18.109375 0 
L 9.078125 0 
L 9.078125 54.6875 
L 18.109375 54.6875 
L 18.109375 46.1875 
Q 21.34375 51.125 25.703125 53.5625 
Q 30.078125 56 35.796875 56 
Q 45.21875 56 50.046875 50.171875 
Q 54.890625 44.34375 54.890625 33.015625 
z
" id="DejaVuSans-110"/>
      <path d="M 48.78125 52.59375 
L 48.78125 44.1875 
Q 44.96875 46.296875 41.140625 47.34375 
Q 37.3125 48.390625 33.40625 48.390625 
Q 24.65625 48.390625 19.8125 42.84375 
Q 14.984375 37.3125 14.984375 27.296875 
Q 14.984375 17.28125 19.8125 11.734375 
Q 24.65625 6.203125 33.40625 6.203125 
Q 37.3125 6.203125 41.140625 7.25 
Q 44.96875 8.296875 48.78125 10.40625 
L 48.78125 2.09375 
Q 45.015625 0.34375 40.984375 -0.53125 
Q 36.96875 -1.421875 32.421875 -1.421875 
Q 20.0625 -1.421875 12.78125 6.34375 
Q 5.515625 14.109375 5.515625 27.296875 
Q 5.515625 40.671875 12.859375 48.328125 
Q 20.21875 56 33.015625 56 
Q 37.15625 56 41.109375 55.140625 
Q 45.0625 54.296875 48.78125 52.59375 
z
" id="DejaVuSans-99"/>
      <path d="M 56.203125 29.59375 
L 56.203125 25.203125 
L 14.890625 25.203125 
Q 15.484375 15.921875 20.484375 11.0625 
Q 25.484375 6.203125 34.421875 6.203125 
Q 39.59375 6.203125 44.453125 7.46875 
Q 49.3125 8.734375 54.109375 11.28125 
L 54.109375 2.78125 
Q 49.265625 0.734375 44.1875 -0.34375 
Q 39.109375 -1.421875 33.890625 -1.421875 
Q 20.796875 -1.421875 13.15625 6.1875 
Q 5.515625 13.8125 5.515625 26.8125 
Q 5.515625 40.234375 12.765625 48.109375 
Q 20.015625 56 32.328125 56 
Q 43.359375 56 49.78125 48.890625 
Q 56.203125 41.796875 56.203125 29.59375 
z
M 47.21875 32.234375 
Q 47.125 39.59375 43.09375 43.984375 
Q 39.0625 48.390625 32.421875 48.390625 
Q 24.90625 48.390625 20.390625 44.140625 
Q 15.875 39.890625 15.1875 32.171875 
z
" id="DejaVuSans-101"/>
      <path d="M 40.578125 39.3125 
Q 47.65625 37.796875 51.625 33 
Q 55.609375 28.21875 55.609375 21.1875 
Q 55.609375 10.40625 48.1875 4.484375 
Q 40.765625 -1.421875 27.09375 -1.421875 
Q 22.515625 -1.421875 17.65625 -0.515625 
Q 12.796875 0.390625 7.625 2.203125 
L 7.625 11.71875 
Q 11.71875 9.328125 16.59375 8.109375 
Q 21.484375 6.890625 26.8125 6.890625 
Q 36.078125 6.890625 40.9375 10.546875 
Q 45.796875 14.203125 45.796875 21.1875 
Q 45.796875 27.640625 41.28125 31.265625 
Q 36.765625 34.90625 28.71875 34.90625 
L 20.21875 34.90625 
L 20.21875 43.015625 
L 29.109375 43.015625 
Q 36.375 43.015625 40.234375 45.921875 
Q 44.09375 48.828125 44.09375 54.296875 
Q 44.09375 59.90625 40.109375 62.90625 
Q 36.140625 65.921875 28.71875 65.921875 
Q 24.65625 65.921875 20.015625 65.03125 
Q 15.375 64.15625 9.8125 62.3125 
L 9.8125 71.09375 
Q 15.4375 72.65625 20.34375 73.4375 
Q 25.25 74.21875 29.59375 74.21875 
Q 40.828125 74.21875 47.359375 69.109375 
Q 53.90625 64.015625 53.90625 55.328125 
Q 53.90625 49.265625 50.4375 45.09375 
Q 46.96875 40.921875 40.578125 39.3125 
z
" id="DejaVuSans-51"/>
      <path d="M 18.3125 70.21875 
L 18.3125 54.6875 
L 36.8125 54.6875 
L 36.8125 47.703125 
L 18.3125 47.703125 
L 18.3125 18.015625 
Q 18.3125 11.328125 20.140625 9.421875 
Q 21.96875 7.515625 27.59375 7.515625 
L 36.8125 7.515625 
L 36.8125 0 
L 27.59375 0 
Q 17.1875 0 13.234375 3.875 
Q 9.28125 7.765625 9.28125 18.015625 
L 9.28125 47.703125 
L 2.6875 47.703125 
L 2.6875 54.6875 
L 9.28125 54.6875 
L 9.28125 70.21875 
z
" id="DejaVuSans-116"/>
      <path d="M 54.890625 33.015625 
L 54.890625 0 
L 45.90625 0 
L 45.90625 32.71875 
Q 45.90625 40.484375 42.875 44.328125 
Q 39.84375 48.1875 33.796875 48.1875 
Q 26.515625 48.1875 22.3125 43.546875 
Q 18.109375 38.921875 18.109375 30.90625 
L 18.109375 0 
L 9.078125 0 
L 9.078125 75.984375 
L 18.109375 75.984375 
L 18.109375 46.1875 
Q 21.34375 51.125 25.703125 53.5625 
Q 30.078125 56 35.796875 56 
Q 45.21875 56 50.046875 50.171875 
Q 54.890625 44.34375 54.890625 33.015625 
z
" id="DejaVuSans-104"/>
     </defs>
     <g style="fill:#555555;" transform="translate(309.255 407.79625)scale(0.12 -0.12)">
      <use xlink:href="#DejaVuSans-100"/>
      <use x="63.476562" xlink:href="#DejaVuSans-97"/>
      <use x="124.755859" xlink:href="#DejaVuSans-121"/>
      <use x="183.935547" xlink:href="#DejaVuSans-115"/>
      <use x="236.035156" xlink:href="#DejaVuSans-32"/>
      <use x="267.822266" xlink:href="#DejaVuSans-115"/>
      <use x="319.921875" xlink:href="#DejaVuSans-105"/>
      <use x="347.705078" xlink:href="#DejaVuSans-110"/>
      <use x="411.083984" xlink:href="#DejaVuSans-99"/>
      <use x="466.064453" xlink:href="#DejaVuSans-101"/>
      <use x="527.587891" xlink:href="#DejaVuSans-32"/>
      <use x="559.375" xlink:href="#DejaVuSans-51"/>
      <use x="622.998047" xlink:href="#DejaVuSans-32"/>
      <use x="654.785156" xlink:href="#DejaVuSans-100"/>
      <use x="718.261719" xlink:href="#DejaVuSans-101"/>
      <use x="779.785156" xlink:href="#DejaVuSans-97"/>
      <use x="841.064453" xlink:href="#DejaVuSans-116"/>
      <use x="880.273438" xlink:href="#DejaVuSans-104"/>
      <use x="943.652344" xlink:href="#DejaVuSans-115"/>
     </g>
    </g>
   </g>
   <g id="matplotlib.axis_2">
    <g id="ytick_1">
     <g id="line2d_13">
      <path clip-path="url(#pbfcbe3c711)" d="M 90 378 
L 648 378 
" style="fill:none;stroke:#ffffff;stroke-linecap:square;stroke-width:0.8;"/>
     </g>
     <g id="line2d_14">
      <defs>
       <path d="M 0 0 
L -3.5 0 
" id="m618c86cd1f" style="stroke:#555555;stroke-width:0.8;"/>
      </defs>
      <g>
       <use style="fill:#555555;stroke:#555555;stroke-width:0.8;" x="90" xlink:href="#m618c86cd1f" y="378"/>
      </g>
     </g>
     <g id="line2d_15">
      <defs>
       <path d="M 0 0 
L 3.5 0 
" id="m4910b09b7a" style="stroke:#555555;stroke-width:0.8;"/>
      </defs>
      <g>
       <use style="fill:#555555;stroke:#555555;stroke-width:0.8;" x="648" xlink:href="#m4910b09b7a" y="378"/>
      </g>
     </g>
     <g id="text_8">
      <!-- 0.01 -->
      <defs>
       <path d="M 10.6875 12.40625 
L 21 12.40625 
L 21 0 
L 10.6875 0 
z
" id="DejaVuSans-46"/>
      </defs>
      <g style="fill:#555555;" transform="translate(60.734375 381.799219)scale(0.1 -0.1)">
       <use xlink:href="#DejaVuSans-48"/>
       <use x="63.623047" xlink:href="#DejaVuSans-46"/>
       <use x="95.410156" xlink:href="#DejaVuSans-48"/>
       <use x="159.033203" xlink:href="#DejaVuSans-49"/>
      </g>
     </g>
     <g id="text_9">
      <!-- 0.01 -->
      <g style="fill:#555555;" transform="translate(655 381.799219)scale(0.1 -0.1)">
       <use xlink:href="#DejaVuSans-48"/>
       <use x="63.623047" xlink:href="#DejaVuSans-46"/>
       <use x="95.410156" xlink:href="#DejaVuSans-48"/>
       <use x="159.033203" xlink:href="#DejaVuSans-49"/>
      </g>
     </g>
    </g>
    <g id="ytick_2">
     <g id="line2d_16">
      <path clip-path="url(#pbfcbe3c711)" d="M 90 314.911108 
L 648 314.911108 
" style="fill:none;stroke:#ffffff;stroke-linecap:square;stroke-width:0.8;"/>
     </g>
     <g id="line2d_17">
      <g>
       <use style="fill:#555555;stroke:#555555;stroke-width:0.8;" x="90" xlink:href="#m618c86cd1f" y="314.911108"/>
      </g>
     </g>
     <g id="line2d_18">
      <g>
       <use style="fill:#555555;stroke:#555555;stroke-width:0.8;" x="648" xlink:href="#m4910b09b7a" y="314.911108"/>
      </g>
     </g>
     <g id="text_10">
      <!-- 0.1 -->
      <g style="fill:#555555;" transform="translate(67.096875 318.710327)scale(0.1 -0.1)">
       <use xlink:href="#DejaVuSans-48"/>
       <use x="63.623047" xlink:href="#DejaVuSans-46"/>
       <use x="95.410156" xlink:href="#DejaVuSans-49"/>
      </g>
     </g>
     <g id="text_11">
      <!-- 0.1 -->
      <g style="fill:#555555;" transform="translate(655 318.710327)scale(0.1 -0.1)">
       <use xlink:href="#DejaVuSans-48"/>
       <use x="63.623047" xlink:href="#DejaVuSans-46"/>
       <use x="95.410156" xlink:href="#DejaVuSans-49"/>
      </g>
     </g>
    </g>
    <g id="ytick_3">
     <g id="line2d_19">
      <path clip-path="url(#pbfcbe3c711)" d="M 90 251.822217 
L 648 251.822217 
" style="fill:none;stroke:#ffffff;stroke-linecap:square;stroke-width:0.8;"/>
     </g>
     <g id="line2d_20">
      <g>
       <use style="fill:#555555;stroke:#555555;stroke-width:0.8;" x="90" xlink:href="#m618c86cd1f" y="251.822217"/>
      </g>
     </g>
     <g id="line2d_21">
      <g>
       <use style="fill:#555555;stroke:#555555;stroke-width:0.8;" x="648" xlink:href="#m4910b09b7a" y="251.822217"/>
      </g>
     </g>
     <g id="text_12">
      <!-- 1 -->
      <g style="fill:#555555;" transform="translate(76.6375 255.621435)scale(0.1 -0.1)">
       <use xlink:href="#DejaVuSans-49"/>
      </g>
     </g>
     <g id="text_13">
      <!-- 1 -->
      <g style="fill:#555555;" transform="translate(655 255.621435)scale(0.1 -0.1)">
       <use xlink:href="#DejaVuSans-49"/>
      </g>
     </g>
    </g>
    <g id="ytick_4">
     <g id="line2d_22">
      <defs>
       <path d="M 0 0 
L -2 0 
" id="m5416074053" style="stroke:#555555;stroke-width:0.6;"/>
      </defs>
      <g>
       <use style="fill:#555555;stroke:#555555;stroke-width:0.6;" x="90" xlink:href="#m5416074053" y="359.008351"/>
      </g>
     </g>
     <g id="line2d_23">
      <defs>
       <path d="M 0 0 
L 2 0 
" id="m9f1a032f14" style="stroke:#555555;stroke-width:0.6;"/>
      </defs>
      <g>
       <use style="fill:#555555;stroke:#555555;stroke-width:0.6;" x="648" xlink:href="#m9f1a032f14" y="359.008351"/>
      </g>
     </g>
    </g>
    <g id="ytick_5">
     <g id="line2d_24">
      <g>
       <use style="fill:#555555;stroke:#555555;stroke-width:0.6;" x="90" xlink:href="#m5416074053" y="347.898949"/>
      </g>
     </g>
     <g id="line2d_25">
      <g>
       <use style="fill:#555555;stroke:#555555;stroke-width:0.6;" x="648" xlink:href="#m9f1a032f14" y="347.898949"/>
      </g>
     </g>
    </g>
    <g id="ytick_6">
     <g id="line2d_26">
      <g>
       <use style="fill:#555555;stroke:#555555;stroke-width:0.6;" x="90" xlink:href="#m5416074053" y="340.016702"/>
      </g>
     </g>
     <g id="line2d_27">
      <g>
       <use style="fill:#555555;stroke:#555555;stroke-width:0.6;" x="648" xlink:href="#m9f1a032f14" y="340.016702"/>
      </g>
     </g>
    </g>
    <g id="ytick_7">
     <g id="line2d_28">
      <g>
       <use style="fill:#555555;stroke:#555555;stroke-width:0.6;" x="90" xlink:href="#m5416074053" y="333.902757"/>
      </g>
     </g>
     <g id="line2d_29">
      <g>
       <use style="fill:#555555;stroke:#555555;stroke-width:0.6;" x="648" xlink:href="#m9f1a032f14" y="333.902757"/>
      </g>
     </g>
    </g>
    <g id="ytick_8">
     <g id="line2d_30">
      <g>
       <use style="fill:#555555;stroke:#555555;stroke-width:0.6;" x="90" xlink:href="#m5416074053" y="328.9073"/>
      </g>
     </g>
     <g id="line2d_31">
      <g>
       <use style="fill:#555555;stroke:#555555;stroke-width:0.6;" x="648" xlink:href="#m9f1a032f14" y="328.9073"/>
      </g>
     </g>
    </g>
    <g id="ytick_9">
     <g id="line2d_32">
      <g>
       <use style="fill:#555555;stroke:#555555;stroke-width:0.6;" x="90" xlink:href="#m5416074053" y="324.683701"/>
      </g>
     </g>
     <g id="line2d_33">
      <g>
       <use style="fill:#555555;stroke:#555555;stroke-width:0.6;" x="648" xlink:href="#m9f1a032f14" y="324.683701"/>
      </g>
     </g>
    </g>
    <g id="ytick_10">
     <g id="line2d_34">
      <g>
       <use style="fill:#555555;stroke:#555555;stroke-width:0.6;" x="90" xlink:href="#m5416074053" y="321.025054"/>
      </g>
     </g>
     <g id="line2d_35">
      <g>
       <use style="fill:#555555;stroke:#555555;stroke-width:0.6;" x="648" xlink:href="#m9f1a032f14" y="321.025054"/>
      </g>
     </g>
    </g>
    <g id="ytick_11">
     <g id="line2d_36">
      <g>
       <use style="fill:#555555;stroke:#555555;stroke-width:0.6;" x="90" xlink:href="#m5416074053" y="317.797898"/>
      </g>
     </g>
     <g id="line2d_37">
      <g>
       <use style="fill:#555555;stroke:#555555;stroke-width:0.6;" x="648" xlink:href="#m9f1a032f14" y="317.797898"/>
      </g>
     </g>
    </g>
    <g id="ytick_12">
     <g id="line2d_38">
      <g>
       <use style="fill:#555555;stroke:#555555;stroke-width:0.6;" x="90" xlink:href="#m5416074053" y="295.919459"/>
      </g>
     </g>
     <g id="line2d_39">
      <g>
       <use style="fill:#555555;stroke:#555555;stroke-width:0.6;" x="648" xlink:href="#m9f1a032f14" y="295.919459"/>
      </g>
     </g>
    </g>
    <g id="ytick_13">
     <g id="line2d_40">
      <g>
       <use style="fill:#555555;stroke:#555555;stroke-width:0.6;" x="90" xlink:href="#m5416074053" y="284.810057"/>
      </g>
     </g>
     <g id="line2d_41">
      <g>
       <use style="fill:#555555;stroke:#555555;stroke-width:0.6;" x="648" xlink:href="#m9f1a032f14" y="284.810057"/>
      </g>
     </g>
    </g>
    <g id="ytick_14">
     <g id="line2d_42">
      <g>
       <use style="fill:#555555;stroke:#555555;stroke-width:0.6;" x="90" xlink:href="#m5416074053" y="276.927811"/>
      </g>
     </g>
     <g id="line2d_43">
      <g>
       <use style="fill:#555555;stroke:#555555;stroke-width:0.6;" x="648" xlink:href="#m9f1a032f14" y="276.927811"/>
      </g>
     </g>
    </g>
    <g id="ytick_15">
     <g id="line2d_44">
      <g>
       <use style="fill:#555555;stroke:#555555;stroke-width:0.6;" x="90" xlink:href="#m5416074053" y="270.813865"/>
      </g>
     </g>
     <g id="line2d_45">
      <g>
       <use style="fill:#555555;stroke:#555555;stroke-width:0.6;" x="648" xlink:href="#m9f1a032f14" y="270.813865"/>
      </g>
     </g>
    </g>
    <g id="ytick_16">
     <g id="line2d_46">
      <g>
       <use style="fill:#555555;stroke:#555555;stroke-width:0.6;" x="90" xlink:href="#m5416074053" y="265.818408"/>
      </g>
     </g>
     <g id="line2d_47">
      <g>
       <use style="fill:#555555;stroke:#555555;stroke-width:0.6;" x="648" xlink:href="#m9f1a032f14" y="265.818408"/>
      </g>
     </g>
    </g>
    <g id="ytick_17">
     <g id="line2d_48">
      <g>
       <use style="fill:#555555;stroke:#555555;stroke-width:0.6;" x="90" xlink:href="#m5416074053" y="261.59481"/>
      </g>
     </g>
     <g id="line2d_49">
      <g>
       <use style="fill:#555555;stroke:#555555;stroke-width:0.6;" x="648" xlink:href="#m9f1a032f14" y="261.59481"/>
      </g>
     </g>
    </g>
    <g id="ytick_18">
     <g id="line2d_50">
      <g>
       <use style="fill:#555555;stroke:#555555;stroke-width:0.6;" x="90" xlink:href="#m5416074053" y="257.936162"/>
      </g>
     </g>
     <g id="line2d_51">
      <g>
       <use style="fill:#555555;stroke:#555555;stroke-width:0.6;" x="648" xlink:href="#m9f1a032f14" y="257.936162"/>
      </g>
     </g>
    </g>
    <g id="ytick_19">
     <g id="line2d_52">
      <g>
       <use style="fill:#555555;stroke:#555555;stroke-width:0.6;" x="90" xlink:href="#m5416074053" y="254.709006"/>
      </g>
     </g>
     <g id="line2d_53">
      <g>
       <use style="fill:#555555;stroke:#555555;stroke-width:0.6;" x="648" xlink:href="#m9f1a032f14" y="254.709006"/>
      </g>
     </g>
    </g>
    <g id="ytick_20">
     <g id="line2d_54">
      <g>
       <use style="fill:#555555;stroke:#555555;stroke-width:0.6;" x="90" xlink:href="#m5416074053" y="232.830568"/>
      </g>
     </g>
     <g id="line2d_55">
      <g>
       <use style="fill:#555555;stroke:#555555;stroke-width:0.6;" x="648" xlink:href="#m9f1a032f14" y="232.830568"/>
      </g>
     </g>
    </g>
    <g id="text_14">
     <!-- daily new deaths -->
     <defs>
      <path d="M 9.421875 75.984375 
L 18.40625 75.984375 
L 18.40625 0 
L 9.421875 0 
z
" id="DejaVuSans-108"/>
      <path d="M 4.203125 54.6875 
L 13.1875 54.6875 
L 24.421875 12.015625 
L 35.59375 54.6875 
L 46.1875 54.6875 
L 57.421875 12.015625 
L 68.609375 54.6875 
L 77.59375 54.6875 
L 63.28125 0 
L 52.6875 0 
L 40.921875 44.828125 
L 29.109375 0 
L 18.5 0 
z
" id="DejaVuSans-119"/>
     </defs>
     <g style="fill:#555555;" transform="translate(27.364 354.91679)rotate(-90)scale(0.12 -0.12)">
      <use xlink:href="#DejaVuSans-100"/>
      <use x="63.476562" xlink:href="#DejaVuSans-97"/>
      <use x="124.755859" xlink:href="#DejaVuSans-105"/>
      <use x="152.539062" xlink:href="#DejaVuSans-108"/>
      <use x="180.322266" xlink:href="#DejaVuSans-121"/>
      <use x="239.501953" xlink:href="#DejaVuSans-32"/>
      <use x="271.289062" xlink:href="#DejaVuSans-110"/>
      <use x="334.667969" xlink:href="#DejaVuSans-101"/>
      <use x="396.191406" xlink:href="#DejaVuSans-119"/>
      <use x="477.978516" xlink:href="#DejaVuSans-32"/>
      <use x="509.765625" xlink:href="#DejaVuSans-100"/>
      <use x="573.242188" xlink:href="#DejaVuSans-101"/>
      <use x="634.765625" xlink:href="#DejaVuSans-97"/>
      <use x="696.044922" xlink:href="#DejaVuSans-116"/>
      <use x="735.253906" xlink:href="#DejaVuSans-104"/>
      <use x="798.632812" xlink:href="#DejaVuSans-115"/>
     </g>
     <!-- per 100K people -->
     <defs>
      <path d="M 18.109375 8.203125 
L 18.109375 -20.796875 
L 9.078125 -20.796875 
L 9.078125 54.6875 
L 18.109375 54.6875 
L 18.109375 46.390625 
Q 20.953125 51.265625 25.265625 53.625 
Q 29.59375 56 35.59375 56 
Q 45.5625 56 51.78125 48.09375 
Q 58.015625 40.1875 58.015625 27.296875 
Q 58.015625 14.40625 51.78125 6.484375 
Q 45.5625 -1.421875 35.59375 -1.421875 
Q 29.59375 -1.421875 25.265625 0.953125 
Q 20.953125 3.328125 18.109375 8.203125 
z
M 48.6875 27.296875 
Q 48.6875 37.203125 44.609375 42.84375 
Q 40.53125 48.484375 33.40625 48.484375 
Q 26.265625 48.484375 22.1875 42.84375 
Q 18.109375 37.203125 18.109375 27.296875 
Q 18.109375 17.390625 22.1875 11.75 
Q 26.265625 6.109375 33.40625 6.109375 
Q 40.53125 6.109375 44.609375 11.75 
Q 48.6875 17.390625 48.6875 27.296875 
z
" id="DejaVuSans-112"/>
      <path d="M 41.109375 46.296875 
Q 39.59375 47.171875 37.8125 47.578125 
Q 36.03125 48 33.890625 48 
Q 26.265625 48 22.1875 43.046875 
Q 18.109375 38.09375 18.109375 28.8125 
L 18.109375 0 
L 9.078125 0 
L 9.078125 54.6875 
L 18.109375 54.6875 
L 18.109375 46.1875 
Q 20.953125 51.171875 25.484375 53.578125 
Q 30.03125 56 36.53125 56 
Q 37.453125 56 38.578125 55.875 
Q 39.703125 55.765625 41.0625 55.515625 
z
" id="DejaVuSans-114"/>
      <path d="M 9.8125 72.90625 
L 19.671875 72.90625 
L 19.671875 42.09375 
L 52.390625 72.90625 
L 65.09375 72.90625 
L 28.90625 38.921875 
L 67.671875 0 
L 54.6875 0 
L 19.671875 35.109375 
L 19.671875 0 
L 9.8125 0 
z
" id="DejaVuSans-75"/>
      <path d="M 30.609375 48.390625 
Q 23.390625 48.390625 19.1875 42.75 
Q 14.984375 37.109375 14.984375 27.296875 
Q 14.984375 17.484375 19.15625 11.84375 
Q 23.34375 6.203125 30.609375 6.203125 
Q 37.796875 6.203125 41.984375 11.859375 
Q 46.1875 17.53125 46.1875 27.296875 
Q 46.1875 37.015625 41.984375 42.703125 
Q 37.796875 48.390625 30.609375 48.390625 
z
M 30.609375 56 
Q 42.328125 56 49.015625 48.375 
Q 55.71875 40.765625 55.71875 27.296875 
Q 55.71875 13.875 49.015625 6.21875 
Q 42.328125 -1.421875 30.609375 -1.421875 
Q 18.84375 -1.421875 12.171875 6.21875 
Q 5.515625 13.875 5.515625 27.296875 
Q 5.515625 40.765625 12.171875 48.375 
Q 18.84375 56 30.609375 56 
z
" id="DejaVuSans-111"/>
     </defs>
     <g style="fill:#555555;" transform="translate(40.801375 353.381165)rotate(-90)scale(0.12 -0.12)">
      <use xlink:href="#DejaVuSans-112"/>
      <use x="63.476562" xlink:href="#DejaVuSans-101"/>
      <use x="125" xlink:href="#DejaVuSans-114"/>
      <use x="166.113281" xlink:href="#DejaVuSans-32"/>
      <use x="197.900391" xlink:href="#DejaVuSans-49"/>
      <use x="261.523438" xlink:href="#DejaVuSans-48"/>
      <use x="325.146484" xlink:href="#DejaVuSans-48"/>
      <use x="388.769531" xlink:href="#DejaVuSans-75"/>
      <use x="454.345703" xlink:href="#DejaVuSans-32"/>
      <use x="486.132812" xlink:href="#DejaVuSans-112"/>
      <use x="549.609375" xlink:href="#DejaVuSans-101"/>
      <use x="611.132812" xlink:href="#DejaVuSans-111"/>
      <use x="672.314453" xlink:href="#DejaVuSans-112"/>
      <use x="735.791016" xlink:href="#DejaVuSans-108"/>
      <use x="763.574219" xlink:href="#DejaVuSans-101"/>
     </g>
     <!-- (rolling 7-day mean) -->
     <defs>
      <path d="M 31 75.875 
Q 24.46875 64.65625 21.28125 53.65625 
Q 18.109375 42.671875 18.109375 31.390625 
Q 18.109375 20.125 21.3125 9.0625 
Q 24.515625 -2 31 -13.1875 
L 23.1875 -13.1875 
Q 15.875 -1.703125 12.234375 9.375 
Q 8.59375 20.453125 8.59375 31.390625 
Q 8.59375 42.28125 12.203125 53.3125 
Q 15.828125 64.359375 23.1875 75.875 
z
" id="DejaVuSans-40"/>
      <path d="M 45.40625 27.984375 
Q 45.40625 37.75 41.375 43.109375 
Q 37.359375 48.484375 30.078125 48.484375 
Q 22.859375 48.484375 18.828125 43.109375 
Q 14.796875 37.75 14.796875 27.984375 
Q 14.796875 18.265625 18.828125 12.890625 
Q 22.859375 7.515625 30.078125 7.515625 
Q 37.359375 7.515625 41.375 12.890625 
Q 45.40625 18.265625 45.40625 27.984375 
z
M 54.390625 6.78125 
Q 54.390625 -7.171875 48.1875 -13.984375 
Q 42 -20.796875 29.203125 -20.796875 
Q 24.46875 -20.796875 20.265625 -20.09375 
Q 16.0625 -19.390625 12.109375 -17.921875 
L 12.109375 -9.1875 
Q 16.0625 -11.328125 19.921875 -12.34375 
Q 23.78125 -13.375 27.78125 -13.375 
Q 36.625 -13.375 41.015625 -8.765625 
Q 45.40625 -4.15625 45.40625 5.171875 
L 45.40625 9.625 
Q 42.625 4.78125 38.28125 2.390625 
Q 33.9375 0 27.875 0 
Q 17.828125 0 11.671875 7.65625 
Q 5.515625 15.328125 5.515625 27.984375 
Q 5.515625 40.671875 11.671875 48.328125 
Q 17.828125 56 27.875 56 
Q 33.9375 56 38.28125 53.609375 
Q 42.625 51.21875 45.40625 46.390625 
L 45.40625 54.6875 
L 54.390625 54.6875 
z
" id="DejaVuSans-103"/>
      <path d="M 8.203125 72.90625 
L 55.078125 72.90625 
L 55.078125 68.703125 
L 28.609375 0 
L 18.3125 0 
L 43.21875 64.59375 
L 8.203125 64.59375 
z
" id="DejaVuSans-55"/>
      <path d="M 4.890625 31.390625 
L 31.203125 31.390625 
L 31.203125 23.390625 
L 4.890625 23.390625 
z
" id="DejaVuSans-45"/>
      <path d="M 52 44.1875 
Q 55.375 50.25 60.0625 53.125 
Q 64.75 56 71.09375 56 
Q 79.640625 56 84.28125 50.015625 
Q 88.921875 44.046875 88.921875 33.015625 
L 88.921875 0 
L 79.890625 0 
L 79.890625 32.71875 
Q 79.890625 40.578125 77.09375 44.375 
Q 74.3125 48.1875 68.609375 48.1875 
Q 61.625 48.1875 57.5625 43.546875 
Q 53.515625 38.921875 53.515625 30.90625 
L 53.515625 0 
L 44.484375 0 
L 44.484375 32.71875 
Q 44.484375 40.625 41.703125 44.40625 
Q 38.921875 48.1875 33.109375 48.1875 
Q 26.21875 48.1875 22.15625 43.53125 
Q 18.109375 38.875 18.109375 30.90625 
L 18.109375 0 
L 9.078125 0 
L 9.078125 54.6875 
L 18.109375 54.6875 
L 18.109375 46.1875 
Q 21.1875 51.21875 25.484375 53.609375 
Q 29.78125 56 35.6875 56 
Q 41.65625 56 45.828125 52.96875 
Q 50 49.953125 52 44.1875 
z
" id="DejaVuSans-109"/>
      <path d="M 8.015625 75.875 
L 15.828125 75.875 
Q 23.140625 64.359375 26.78125 53.3125 
Q 30.421875 42.28125 30.421875 31.390625 
Q 30.421875 20.453125 26.78125 9.375 
Q 23.140625 -1.703125 15.828125 -13.1875 
L 8.015625 -13.1875 
Q 14.5 -2 17.703125 9.0625 
Q 20.90625 20.125 20.90625 31.390625 
Q 20.90625 42.671875 17.703125 53.65625 
Q 14.5 64.65625 8.015625 75.875 
z
" id="DejaVuSans-41"/>
     </defs>
     <g style="fill:#555555;" transform="translate(54.23875 365.018352)rotate(-90)scale(0.12 -0.12)">
      <use xlink:href="#DejaVuSans-40"/>
      <use x="39.013672" xlink:href="#DejaVuSans-114"/>
      <use x="77.876953" xlink:href="#DejaVuSans-111"/>
      <use x="139.058594" xlink:href="#DejaVuSans-108"/>
      <use x="166.841797" xlink:href="#DejaVuSans-108"/>
      <use x="194.625" xlink:href="#DejaVuSans-105"/>
      <use x="222.408203" xlink:href="#DejaVuSans-110"/>
      <use x="285.787109" xlink:href="#DejaVuSans-103"/>
      <use x="349.263672" xlink:href="#DejaVuSans-32"/>
      <use x="381.050781" xlink:href="#DejaVuSans-55"/>
      <use x="444.673828" xlink:href="#DejaVuSans-45"/>
      <use x="480.757812" xlink:href="#DejaVuSans-100"/>
      <use x="544.234375" xlink:href="#DejaVuSans-97"/>
      <use x="605.513672" xlink:href="#DejaVuSans-121"/>
      <use x="664.693359" xlink:href="#DejaVuSans-32"/>
      <use x="696.480469" xlink:href="#DejaVuSans-109"/>
      <use x="793.892578" xlink:href="#DejaVuSans-101"/>
      <use x="855.416016" xlink:href="#DejaVuSans-97"/>
      <use x="916.695312" xlink:href="#DejaVuSans-110"/>
      <use x="980.074219" xlink:href="#DejaVuSans-41"/>
     </g>
    </g>
   </g>
   <g id="line2d_56">
    <path clip-path="url(#pbfcbe3c711)" d="M 72.82388 433 
L 73.195583 427.007652 
L 75.062741 419.125406 
L 76.929898 413.01146 
L 78.797055 408.016003 
L 80.664213 408.016003 
L 82.53137 410.400042 
L 84.398528 403.792405 
L 86.265685 410.400042 
L 88.132843 394.019812 
L 90 396.906601 
L 91.867157 390.190452 
L 93.734315 391.408393 
L 95.601472 383.839283 
L 97.46863 384.800756 
L 99.335787 380.298991 
L 101.202945 387.905866 
L 103.070102 386.831252 
L 104.937259 387.905866 
L 106.804417 382.011996 
L 108.671574 389.024355 
L 110.538732 384.800756 
L 112.405889 387.905866 
L 114.273047 391.408393 
L 116.140204 385.797199 
L 118.007362 389.024355 
L 119.874519 387.905866 
L 121.741676 384.800756 
L 123.608834 382.910409 
L 125.475991 377.914952 
L 127.343149 377.914952 
L 131.077464 373.691353 
L 132.944621 375.028163 
L 134.811778 371.801007 
L 136.678936 373.691353 
L 138.546093 374.351606 
L 140.413251 370.609551 
L 142.280408 373.691353 
L 144.147566 375.721849 
L 146.014723 376.433556 
L 147.881881 378.68681 
L 151.616195 382.011996 
L 153.483353 384.800756 
L 155.35051 382.910409 
L 157.217668 378.68681 
L 159.084825 378.68681 
L 160.951983 379.481045 
L 162.81914 379.481045 
L 164.686297 382.011996 
L 166.553455 382.011996 
L 168.420612 382.910409 
L 170.28777 387.905866 
L 172.154927 387.905866 
L 174.022085 391.408393 
L 177.7564 394.019812 
L 179.623557 395.425205 
L 181.490714 401.902058 
L 183.357872 405.822901 
L 185.225029 410.400042 
L 187.092187 413.01146 
L 188.959344 413.01146 
L 190.826502 415.89825 
L 192.693659 419.125406 
L 194.560816 415.89825 
L 196.427974 415.89825 
L 198.295131 419.125406 
L 200.162289 413.01146 
L 202.029446 419.125406 
L 203.896604 415.89825 
L 205.763761 413.01146 
L 207.630919 415.89825 
L 209.498076 415.89825 
L 211.365233 419.125406 
L 213.232391 427.007652 
L 215.099548 427.007652 
L 216.106682 433 
M 225.295359 433 
L 226.302493 427.007652 
L 228.16965 427.007652 
L 230.036808 422.784053 
L 232.208409 433 
M 243.966933 433 
L 244.974067 427.007652 
L 246.841225 427.007652 
L 248.708382 432.003109 
L 250.57554 432.003109 
L 250.708529 433 
M 326.996005 433 
L 327.128994 432.003109 
L 328.996152 427.007652 
L 330.863309 432.003109 
L 332.730467 427.007652 
L 334.902068 433 
M 341.76181 433 
L 342.066254 432.003109 
L 343.933411 427.007652 
L 345.800569 427.007652 
L 347.667726 422.784053 
L 349.534884 422.784053 
L 351.402041 419.125406 
L 353.269199 427.007652 
L 355.4408 433 
M 415.745417 433 
L 416.752551 427.007652 
L 418.619709 427.007652 
L 420.486866 422.784053 
L 422.354024 408.016003 
L 424.221181 403.792405 
L 426.088339 401.902058 
L 427.955496 403.792405 
L 429.822654 403.792405 
L 431.689811 400.133757 
L 433.556968 401.902058 
L 435.424126 408.016003 
L 437.291283 410.400042 
L 439.158441 408.016003 
L 441.025598 398.472693 
L 442.892756 396.906601 
L 444.759913 398.472693 
L 446.62707 395.425205 
L 448.494228 391.408393 
L 450.361385 389.024355 
L 452.228543 385.797199 
L 454.0957 386.831252 
L 455.962858 390.190452 
L 457.830015 386.831252 
L 459.697172 385.797199 
L 461.56433 390.190452 
L 463.431487 387.905866 
L 465.298645 391.408393 
L 467.165802 392.683002 
L 470.900117 392.683002 
L 472.767275 396.906601 
L 474.634432 392.683002 
L 476.501589 396.906601 
L 478.368747 392.683002 
L 480.235904 395.425205 
L 482.103062 387.905866 
L 483.970219 391.408393 
L 485.837377 392.683002 
L 487.704534 392.683002 
L 489.571691 394.019812 
L 491.438849 400.133757 
L 493.306006 401.902058 
L 495.173164 408.016003 
L 498.907479 408.016003 
L 500.774636 413.01146 
L 502.641794 410.400042 
L 504.508951 410.400042 
L 506.376108 408.016003 
L 508.243266 405.822901 
L 510.110423 408.016003 
L 511.977581 405.822901 
L 513.844738 405.822901 
L 515.711896 408.016003 
L 517.579053 410.400042 
L 519.44621 405.822901 
L 521.313368 408.016003 
L 523.180525 403.792405 
L 526.91484 403.792405 
L 528.781998 405.822901 
L 532.516313 405.822901 
L 534.38347 410.400042 
L 536.250627 415.89825 
L 538.117785 419.125406 
L 539.984942 422.784053 
L 541.8521 415.89825 
L 543.719257 410.400042 
L 545.586415 408.016003 
L 547.453572 405.822901 
L 553.055044 405.822901 
L 554.922202 408.016003 
L 556.789359 408.016003 
L 558.656517 405.822901 
L 560.523674 405.822901 
L 562.390832 408.016003 
L 564.257989 408.016003 
L 566.125146 401.902058 
L 567.992304 401.902058 
L 569.859461 403.792405 
L 571.726619 415.89825 
L 573.593776 415.89825 
L 575.460934 410.400042 
L 577.328091 405.822901 
L 579.195248 410.400042 
L 581.062406 408.016003 
L 582.929563 401.902058 
L 586.663878 398.472693 
L 588.531036 398.472693 
L 590.398193 401.902058 
L 592.265351 395.425205 
L 595.999665 398.472693 
L 597.866823 400.133757 
L 599.73398 405.822901 
L 601.601138 403.792405 
L 603.468295 394.019812 
L 605.335453 396.906601 
L 607.20261 391.408393 
L 609.069767 390.190452 
L 614.67124 390.190452 
L 614.67124 390.190452 
" style="fill:none;stroke:#e24a33;stroke-linecap:square;stroke-width:4;"/>
   </g>
   <g id="line2d_57">
    <defs>
     <path d="M 0 3 
C 0.795609 3 1.55874 2.683901 2.12132 2.12132 
C 2.683901 1.55874 3 0.795609 3 0 
C 3 -0.795609 2.683901 -1.55874 2.12132 -2.12132 
C 1.55874 -2.683901 0.795609 -3 0 -3 
C -0.795609 -3 -1.55874 -2.683901 -2.12132 -2.12132 
C -2.683901 -1.55874 -3 -0.795609 -3 0 
C -3 0.795609 -2.683901 1.55874 -2.12132 2.12132 
C -1.55874 2.683901 -0.795609 3 0 3 
z
" id="maa9615600d" style="stroke:#e24a33;"/>
    </defs>
    <g clip-path="url(#pbfcbe3c711)">
     <use style="fill:#e24a33;stroke:#e24a33;" x="614.67124" xlink:href="#maa9615600d" y="390.190452"/>
    </g>
   </g>
   <g id="line2d_58">
    <path clip-path="url(#pbfcbe3c711)" d="M 85.277411 433 
L 86.265685 429.355388 
L 88.132843 423.85718 
L 90 415.359197 
L 91.867157 404.865532 
L 93.734315 401.363005 
L 95.601472 387.808745 
L 97.46863 377.375899 
L 99.335787 371.261954 
L 101.202945 368.484981 
L 103.070102 361.783188 
L 104.937259 355.566045 
L 106.804417 347.580987 
L 108.671574 341.40554 
L 110.538732 335.662695 
L 114.273047 322.847333 
L 118.007362 313.477121 
L 119.874519 309.520833 
L 121.741676 305.067952 
L 123.608834 302.190949 
L 125.475991 299.991071 
L 127.343149 298.927924 
L 129.210306 296.106387 
L 131.077464 294.374858 
L 132.944621 290.510004 
L 134.811778 289.181413 
L 136.678936 289.327933 
L 138.546093 293.271387 
L 140.413251 290.337982 
L 142.280408 291.386696 
L 144.147566 293.569902 
L 146.014723 290.01597 
L 147.881881 290.20493 
L 149.749038 287.671191 
L 151.616195 285.383839 
L 153.483353 288.036634 
L 155.35051 286.272713 
L 157.217668 285.130581 
L 159.084825 289.641914 
L 160.951983 288.764481 
L 162.81914 290.915639 
L 164.686297 290.72173 
L 166.553455 291.26817 
L 168.420612 293.871706 
L 170.28777 293.50566 
L 172.154927 295.570729 
L 174.022085 299.006245 
L 175.889242 300.956415 
L 177.7564 302.132279 
L 179.623557 303.483744 
L 181.490714 304.201122 
L 183.357872 310.897965 
L 185.225029 306.13213 
L 187.092187 307.487596 
L 188.959344 307.310025 
L 194.560816 311.345474 
L 196.427974 308.356335 
L 198.295131 314.933898 
L 200.162289 319.724396 
L 202.029446 326.301674 
L 203.896604 326.160441 
L 205.763761 325.88014 
L 207.630919 329.688592 
L 209.498076 329.608595 
L 211.365233 334.877002 
L 213.232391 331.596112 
L 215.099548 330.584335 
L 216.966706 331.254685 
L 218.833863 331.424866 
L 222.568178 334.113213 
L 224.435335 334.780356 
L 226.302493 336.471585 
L 228.16965 335.563242 
L 230.036808 336.267112 
L 233.771123 338.716045 
L 235.63828 345.649624 
L 237.505438 348.203722 
L 239.372595 349.658886 
L 243.10691 353.579729 
L 244.974067 353.199179 
L 246.841225 354.160652 
L 248.708382 348.361643 
L 250.57554 352.270305 
L 254.309854 357.265762 
L 256.177012 358.38425 
L 259.911327 360.274597 
L 261.778484 368.156843 
L 263.645642 363.655078 
L 265.512799 362.569821 
L 267.379956 362.305093 
L 269.247114 362.837132 
L 271.114271 365.075041 
L 272.981429 365.664293 
L 274.848586 365.075041 
L 276.715744 370.540882 
L 278.582901 375.182796 
L 280.450059 370.187339 
L 282.317216 372.002517 
L 284.184373 372.002517 
L 286.051531 370.540882 
L 287.918688 370.899046 
L 289.785846 374.352455 
L 291.653003 374.764481 
L 293.520161 385.258146 
L 295.387318 381.296742 
L 297.254475 379.759938 
L 299.121633 384.655942 
L 300.98879 387.148492 
L 302.855948 381.828781 
L 304.723105 381.828781 
L 306.590263 380.774837 
L 308.45742 382.371356 
L 310.324578 383.489844 
L 312.191735 381.296742 
L 314.058892 384.655942 
L 315.92605 392.938183 
L 317.793207 396.367548 
L 321.527522 406.140141 
L 323.39468 406.140141 
L 325.261837 407.47695 
L 328.996152 404.865532 
L 330.863309 403.647591 
L 332.730467 394.599247 
L 334.597624 393.756129 
L 338.331939 395.469134 
L 343.933411 392.938183 
L 345.800569 399.254337 
L 347.667726 396.367548 
L 349.534884 396.367548 
L 351.402041 397.296422 
L 353.269199 394.599247 
L 355.136356 385.873883 
L 357.003513 390.621382 
L 358.870671 383.489844 
L 360.737828 384.06669 
L 364.472143 382.924893 
L 366.339301 385.258146 
L 368.206458 392.938183 
L 370.073616 391.372091 
L 375.675088 393.756129 
L 379.409403 393.756129 
L 381.27656 391.372091 
L 383.143718 384.655942 
L 385.010875 391.372091 
L 386.878032 390.621382 
L 388.74519 388.485302 
L 392.479505 388.485302 
L 394.346662 391.372091 
L 396.21382 399.254337 
L 398.080977 402.481493 
L 399.948135 399.254337 
L 401.815292 401.363005 
L 403.682449 399.254337 
L 405.549607 400.288391 
L 407.416764 390.621382 
L 409.283922 394.599247 
L 411.151079 390.621382 
L 413.018237 396.367548 
L 414.885394 396.367548 
L 416.752551 398.257894 
L 418.619709 397.296422 
L 420.486866 407.47695 
L 422.354024 403.647591 
L 424.221181 406.140141 
L 426.088339 403.647591 
L 429.822654 401.363005 
L 431.689811 395.469134 
L 435.424126 395.469134 
L 437.291283 389.890695 
L 439.158441 391.372091 
L 441.025598 391.372091 
L 442.892756 392.938183 
L 444.759913 389.890695 
L 446.62707 382.371356 
L 448.494228 377.375899 
L 450.361385 375.182796 
L 452.228543 372.763653 
L 454.0957 371.629733 
L 455.962858 370.187339 
L 457.830015 370.187339 
L 459.697172 372.380442 
L 461.56433 372.002517 
L 463.431487 374.352455 
L 465.298645 372.380442 
L 467.165802 373.54654 
L 469.03296 367.512128 
L 470.900117 368.484981 
L 472.767275 367.195371 
L 474.634432 367.832589 
L 476.501589 369.153286 
L 478.368747 366.572636 
L 480.235904 365.368083 
L 482.103062 367.512128 
L 483.970219 359.313124 
L 485.837377 355.360807 
L 487.704534 353.199179 
L 489.571691 348.203722 
L 491.438849 349.658886 
L 493.306006 348.520479 
L 495.173164 344.115428 
L 497.040321 344.388059 
L 498.907479 345.081745 
L 500.774636 341.652381 
L 502.641794 343.711502 
L 504.508951 338.274113 
L 506.376108 336.781183 
L 508.243266 338.38393 
L 510.110423 339.507003 
L 511.977581 332.646687 
L 513.844738 329.449297 
L 515.711896 324.520101 
L 517.579053 322.291299 
L 519.44621 322.108434 
L 521.313368 315.310524 
L 523.180525 314.47028 
L 525.047683 308.876118 
L 526.91484 306.234049 
L 528.781998 304.775951 
L 530.649155 305.628146 
L 532.516313 304.455114 
L 534.38347 308.577892 
L 536.250627 298.591098 
L 538.117785 299.08479 
L 539.984942 297.530353 
L 541.8521 296.129915 
L 543.719257 295.181433 
L 545.586415 295.272535 
L 547.453572 290.586806 
L 549.320729 291.9265 
L 551.187887 291.150155 
L 553.055044 290.185976 
L 554.922202 288.926874 
L 560.523674 286.954609 
L 562.390832 285.848923 
L 564.257989 283.8832 
L 566.125146 281.602227 
L 567.992304 280.053841 
L 571.726619 279.3559 
L 573.593776 278.267545 
L 575.460934 276.938914 
L 577.328091 275.749944 
L 579.195248 275.660587 
L 581.062406 274.471267 
L 582.929563 273.506113 
L 584.796721 273.249612 
L 590.398193 273.249612 
L 590.398193 273.249612 
" style="fill:none;stroke:#348abd;stroke-linecap:square;stroke-opacity:0.4;stroke-width:2;"/>
   </g>
   <g id="line2d_59">
    <defs>
     <path d="M 0 3 
C 0.795609 3 1.55874 2.683901 2.12132 2.12132 
C 2.683901 1.55874 3 0.795609 3 0 
C 3 -0.795609 2.683901 -1.55874 2.12132 -2.12132 
C 1.55874 -2.683901 0.795609 -3 0 -3 
C -0.795609 -3 -1.55874 -2.683901 -2.12132 -2.12132 
C -2.683901 -1.55874 -3 -0.795609 -3 0 
C -3 0.795609 -2.683901 1.55874 -2.12132 2.12132 
C -1.55874 2.683901 -0.795609 3 0 3 
z
" id="m2964822419" style="stroke:#348abd;stroke-opacity:0.4;"/>
    </defs>
    <g clip-path="url(#pbfcbe3c711)">
     <use style="fill:#348abd;fill-opacity:0.4;stroke:#348abd;stroke-opacity:0.4;" x="590.398193" xlink:href="#m2964822419" y="273.249612"/>
    </g>
   </g>
   <g id="line2d_60">
    <path clip-path="url(#pbfcbe3c711)" d="M 55.352507 433 
L 56.391166 426.820081 
L 58.258324 426.820081 
L 60.125481 418.937835 
L 65.726953 418.937835 
L 67.594111 426.820081 
L 68.63277 433 
M 69.729417 433 
L 71.328426 403.604834 
L 73.195583 407.828433 
L 75.062741 403.604834 
L 76.929898 396.71903 
L 78.797055 393.832241 
L 80.664213 393.832241 
L 82.53137 388.836784 
L 84.398528 391.220822 
L 86.265685 382.722838 
L 88.132843 380.954537 
L 90 376.245985 
L 91.867157 371.011232 
L 93.734315 366.617979 
L 95.601472 363.73119 
L 97.46863 366.617979 
L 99.335787 367.652032 
L 101.202945 366.617979 
L 103.070102 368.726647 
L 104.937259 373.503783 
L 106.804417 379.293474 
L 108.671574 386.643681 
L 110.538732 388.836784 
L 112.405889 388.836784 
L 114.273047 393.832241 
L 116.140204 403.604834 
L 118.007362 407.828433 
L 119.874519 412.82389 
L 121.741676 418.937835 
L 123.608834 388.836784 
L 125.475991 386.643681 
L 127.343149 386.643681 
L 129.210306 380.954537 
L 131.077464 380.954537 
L 132.944621 372.229173 
L 134.811778 369.845135 
L 136.678936 377.727381 
L 138.546093 384.613185 
L 140.413251 384.613185 
L 142.280408 388.836784 
L 144.147566 386.643681 
L 146.014723 399.946186 
L 147.881881 407.828433 
L 149.749038 418.937835 
L 151.616195 418.937835 
L 153.483353 426.820081 
L 154.522012 433 
M 174.850583 433 
L 175.889242 426.820081 
L 177.7564 426.820081 
L 179.623557 418.937835 
L 181.490714 426.820081 
L 187.092187 426.820081 
L 188.130846 433 
M 268.208455 433 
L 269.247114 426.820081 
L 271.114271 418.937835 
L 272.496788 433 
M 275.215203 433 
L 276.715744 412.82389 
L 280.450059 393.832241 
L 282.317216 391.220822 
L 284.184373 384.613185 
L 286.051531 382.722838 
L 287.918688 377.727381 
L 289.785846 379.293474 
L 291.653003 374.840592 
L 293.520161 371.011232 
L 295.387318 366.617979 
L 297.254475 361.119771 
L 299.121633 357.254336 
L 300.98879 355.172386 
L 304.723105 346.629887 
L 306.590263 346.144934 
L 308.45742 346.629887 
L 310.324578 348.138479 
L 312.191735 344.739541 
L 314.058892 342.546438 
L 315.92605 340.127295 
L 317.793207 342.128122 
L 319.660365 340.515942 
L 321.527522 337.904523 
L 323.39468 334.559012 
L 325.261837 333.027935 
L 327.128994 331.01872 
L 328.996152 329.40654 
L 330.863309 329.14683 
L 332.730467 328.382153 
L 334.597624 330.470718 
L 336.464782 330.470718 
L 338.331939 328.634681 
L 340.199097 328.889559 
L 342.066254 331.296886 
L 343.933411 330.200774 
L 345.800569 331.577906 
L 347.667726 329.14683 
L 349.534884 329.14683 
L 353.269199 334.559012 
L 355.136356 331.01872 
L 357.003513 328.382153 
L 358.870671 327.883973 
L 360.737828 326.91399 
L 362.604986 328.382153 
L 364.472143 322.520736 
L 366.339301 323.136473 
L 368.206458 327.153285 
L 370.073616 329.14683 
L 371.940773 318.912875 
L 375.675088 321.135646 
L 377.542245 328.13193 
L 379.409403 327.394689 
L 381.27656 326.208393 
L 383.143718 328.13193 
L 385.010875 344.739541 
L 386.878032 347.123579 
L 388.74519 346.144934 
L 390.612347 347.62633 
L 392.479505 352.019584 
L 394.346662 353.867418 
L 396.21382 353.237525 
L 398.080977 355.848943 
L 399.948135 355.172386 
L 401.815292 356.54263 
L 403.682449 359.507591 
L 405.549607 357.254336 
L 407.416764 359.507591 
L 409.283922 364.660064 
L 411.151079 361.962888 
L 413.018237 367.652032 
L 414.885394 371.011232 
L 416.752551 369.845135 
L 418.619709 365.621536 
L 420.486866 366.617979 
L 422.354024 366.617979 
L 424.221181 373.503783 
L 426.088339 371.011232 
L 427.955496 372.229173 
L 429.822654 376.245985 
L 431.689811 386.643681 
L 433.556968 391.220822 
L 435.424126 396.71903 
L 437.291283 403.604834 
L 439.158441 418.937835 
L 444.759913 418.937835 
L 446.62707 403.604834 
L 452.228543 403.604834 
L 454.0957 407.828433 
L 455.962858 403.604834 
L 457.830015 407.828433 
L 458.787373 433 
L 458.787373 433 
" style="fill:none;stroke:#988ed5;stroke-linecap:square;stroke-opacity:0.4;stroke-width:2;"/>
   </g>
   <g id="line2d_61">
    <defs>
     <path d="M 0 3 
C 0.795609 3 1.55874 2.683901 2.12132 2.12132 
C 2.683901 1.55874 3 0.795609 3 0 
C 3 -0.795609 2.683901 -1.55874 2.12132 -2.12132 
C 1.55874 -2.683901 0.795609 -3 0 -3 
C -0.795609 -3 -1.55874 -2.683901 -2.12132 -2.12132 
C -2.683901 -1.55874 -3 -0.795609 -3 0 
C -3 0.795609 -2.683901 1.55874 -2.12132 2.12132 
C -1.55874 2.683901 -0.795609 3 0 3 
z
" id="m347cdd5321" style="stroke:#988ed5;stroke-opacity:0.4;"/>
    </defs>
    <g clip-path="url(#pbfcbe3c711)"/>
   </g>
   <g id="line2d_62">
    <path clip-path="url(#pbfcbe3c711)" d="M 64.968952 433 
L 65.726953 429.800079 
L 67.594111 423.686134 
L 69.461268 423.686134 
L 71.328426 429.800079 
L 72.086427 433 
M 76.615299 433 
L 76.929898 429.800079 
L 78.797055 429.800079 
L 80.664213 423.686134 
L 82.53137 407.581275 
L 84.398528 402.083067 
L 86.265685 402.083067 
L 88.132843 397.505925 
L 90 393.585083 
L 91.867157 381.873477 
L 93.734315 381.873477 
L 95.601472 375.522308 
L 97.46863 366.034631 
L 99.335787 357.985824 
L 101.202945 355.148896 
L 103.070102 350.606328 
L 104.937259 349.124932 
L 106.804417 342.724082 
L 108.671574 337.53901 
L 110.538732 337.303823 
L 112.405889 338.994175 
L 114.273047 334.628611 
L 116.140204 332.780777 
L 118.007362 332.780777 
L 119.874519 333.586693 
L 121.741676 335.056732 
L 123.608834 332.386538 
L 125.475991 330.314136 
L 129.210306 334.841835 
L 131.077464 333.382981 
L 132.944621 332.780777 
L 134.811778 332.386538 
L 136.678936 332.386538 
L 138.546093 328.387523 
L 140.413251 325.961235 
L 142.280408 326.272592 
L 144.147566 325.197978 
L 146.014723 323.307631 
L 147.881881 322.889315 
L 149.749038 324.019338 
L 151.616195 329.246502 
L 153.483353 332.386538 
L 155.35051 331.805615 
L 157.217668 333.180772 
L 159.084825 336.610136 
L 160.951983 339.244397 
L 162.81914 338.746217 
L 164.686297 335.491648 
L 166.553455 336.382756 
L 168.420612 336.157248 
L 170.28777 338.256933 
L 172.154927 335.93358 
L 174.022085 334.841835 
L 175.889242 334.841835 
L 177.7564 334.207077 
L 179.623557 334.417034 
L 181.490714 335.491648 
L 183.357872 335.491648 
L 185.225029 339.244397 
L 187.092187 341.332963 
L 188.959344 344.798522 
L 190.826502 349.48784 
L 192.693659 348.413225 
L 194.560816 350.989539 
L 196.427974 350.989539 
L 198.295131 349.124932 
L 200.162289 352.990367 
L 202.029446 352.990367 
L 203.896604 351.772426 
L 205.763761 352.172421 
L 207.630919 352.172421 
L 209.498076 352.578341 
L 211.365233 352.172421 
L 213.232391 345.421257 
L 215.099548 348.064187 
L 216.966706 345.738014 
L 218.833863 343.890179 
L 220.701021 343.593969 
L 224.435335 344.189627 
L 226.302493 344.189627 
L 228.16965 342.159131 
L 230.036808 346.058475 
L 231.903965 346.382729 
L 233.771123 344.492383 
L 235.63828 344.492383 
L 237.505438 344.798522 
L 239.372595 347.719539 
L 241.239752 341.332963 
L 243.10691 338.500483 
L 244.974067 339.244397 
L 246.841225 339.244397 
L 248.708382 340.795707 
L 250.57554 340.795707 
L 252.442697 338.994175 
L 254.309854 342.724082 
L 256.177012 343.010987 
L 258.044169 344.798522 
L 259.911327 347.042982 
L 263.645642 345.10812 
L 265.512799 347.379172 
L 267.379956 347.719539 
L 269.247114 348.413225 
L 271.114271 348.766768 
L 272.981429 348.064187 
L 274.848586 348.766768 
L 276.715744 353.408683 
L 278.582901 353.408683 
L 280.450059 356.062286 
L 282.317216 357.985824 
L 284.184373 357.492132 
L 286.051531 358.488575 
L 287.918688 357.985824 
L 289.785846 355.601785 
L 291.653003 359.522628 
L 293.520161 358.488575 
L 295.387318 360.597242 
L 297.254475 360.597242 
L 299.121633 359.000723 
L 300.98879 360.054667 
L 302.855948 361.715731 
L 304.723105 361.715731 
L 306.590263 362.881828 
L 308.45742 364.729662 
L 310.324578 362.881828 
L 312.191735 362.292576 
L 314.058892 361.150779 
L 315.92605 362.881828 
L 317.793207 359.522628 
L 319.660365 356.530659 
L 321.527522 355.148896 
L 323.39468 357.007178 
L 325.261837 355.601785 
L 327.128994 357.492132 
L 328.996152 357.492132 
L 330.863309 354.703372 
L 332.730467 353.408683 
L 334.597624 350.989539 
L 336.464782 348.064187 
L 338.331939 349.124932 
L 340.199097 348.766768 
L 342.066254 346.710867 
L 343.933411 349.855619 
L 345.800569 351.378187 
L 347.667726 350.989539 
L 349.534884 351.772426 
L 351.402041 351.378187 
L 353.269199 349.124932 
L 355.136356 349.48784 
L 357.003513 346.710867 
L 358.870671 347.379172 
L 360.737828 347.719539 
L 362.604986 347.042982 
L 364.472143 348.413225 
L 366.339301 349.48784 
L 368.206458 347.379172 
L 370.073616 347.379172 
L 371.940773 346.058475 
L 373.80793 347.719539 
L 375.675088 347.379172 
L 377.542245 348.413225 
L 379.409403 348.064187 
L 381.27656 347.379172 
L 383.143718 346.382729 
L 385.010875 347.042982 
L 386.878032 347.042982 
L 388.74519 347.379172 
L 390.612347 345.421257 
L 392.479505 346.058475 
L 394.346662 348.413225 
L 396.21382 351.772426 
L 398.080977 352.578341 
L 399.948135 351.772426 
L 401.815292 351.772426 
L 403.682449 352.172421 
L 407.416764 344.189627 
L 409.283922 344.492383 
L 411.151079 343.300927 
L 413.018237 341.332963 
L 414.885394 341.605594 
L 416.752551 340.268784 
L 418.619709 343.010987 
L 420.486866 344.798522 
L 422.354024 339.751804 
L 424.221181 337.53901 
L 426.088339 336.157248 
L 427.955496 331.997891 
L 429.822654 332.582948 
L 431.689811 330.679464 
L 433.556968 327.554658 
L 435.424126 327.228474 
L 437.291283 326.429608 
L 439.158441 325.806873 
L 441.025598 325.500734 
L 442.892756 322.889315 
L 444.759913 321.017426 
L 446.62707 318.312174 
L 448.494228 313.492918 
L 450.361385 309.395875 
L 452.228543 307.359339 
L 454.0957 305.906882 
L 457.830015 305.027689 
L 459.697172 304.740784 
L 461.56433 301.961232 
L 463.431487 300.948677 
L 465.298645 296.381096 
L 467.165802 294.797479 
L 469.03296 293.966398 
L 470.900117 293.678991 
L 472.767275 291.61448 
L 474.634432 291.002671 
L 476.501589 287.862085 
L 478.368747 287.064548 
L 480.235904 283.721188 
L 482.103062 282.490286 
L 483.970219 282.363877 
L 485.837377 281.586764 
L 487.704534 278.571555 
L 489.571691 275.168042 
L 491.438849 274.004975 
L 493.306006 271.752944 
L 495.173164 270.395756 
L 497.040321 269.454662 
L 498.907479 267.645794 
L 500.774636 265.197341 
L 502.641794 264.090988 
L 504.508951 260.416161 
L 506.376108 259.456641 
L 511.977581 256.019239 
L 513.844738 255.340624 
L 515.711896 256.444417 
L 517.579053 256.764591 
L 519.44621 254.427041 
L 521.313368 253.67541 
L 523.180525 254.009415 
L 525.047683 253.708628 
L 526.91484 251.855977 
L 528.781998 248.342683 
L 530.649155 246.519216 
L 534.38347 246.054454 
L 536.250627 245.945744 
L 538.117785 244.459516 
L 539.984942 243.903924 
L 543.719257 244.721635 
L 545.586415 244.52283 
L 549.320729 245.180378 
L 551.187887 245.929058 
L 553.055044 246.476638 
L 554.922202 246.138372 
L 556.789359 246.544795 
L 558.656517 247.38498 
L 560.523674 247.873075 
L 566.125146 247.873075 
L 566.125146 247.873075 
" style="fill:none;stroke:#777777;stroke-linecap:square;stroke-opacity:0.4;stroke-width:2;"/>
   </g>
   <g id="line2d_63">
    <defs>
     <path d="M 0 3 
C 0.795609 3 1.55874 2.683901 2.12132 2.12132 
C 2.683901 1.55874 3 0.795609 3 0 
C 3 -0.795609 2.683901 -1.55874 2.12132 -2.12132 
C 1.55874 -2.683901 0.795609 -3 0 -3 
C -0.795609 -3 -1.55874 -2.683901 -2.12132 -2.12132 
C -2.683901 -1.55874 -3 -0.795609 -3 0 
C -3 0.795609 -2.683901 1.55874 -2.12132 2.12132 
C -1.55874 2.683901 -0.795609 3 0 3 
z
" id="mb67d5064ce" style="stroke:#777777;stroke-opacity:0.4;"/>
    </defs>
    <g clip-path="url(#pbfcbe3c711)">
     <use style="fill:#777777;fill-opacity:0.4;stroke:#777777;stroke-opacity:0.4;" x="566.125146" xlink:href="#mb67d5064ce" y="247.873075"/>
    </g>
   </g>
   <g id="line2d_64">
    <path clip-path="url(#pbfcbe3c711)" d="M 63.8597 433 
L 63.859796 429.76435 
L 67.594111 391.781052 
L 69.461268 391.781052 
L 71.328426 385.667107 
L 75.062741 359.486898 
L 76.929898 361.680001 
L 78.797055 364.06404 
L 80.664213 361.680001 
L 82.53137 355.566056 
L 84.398528 350.570599 
L 86.265685 350.570599 
L 88.132843 353.797755 
L 90 347.683809 
L 91.867157 343.85445 
L 93.734315 342.688352 
L 97.46863 345.072391 
L 99.335787 346.347 
L 101.202945 345.072391 
L 104.937259 345.072391 
L 106.804417 347.683809 
L 110.538732 345.072391 
L 112.405889 341.569864 
L 114.273047 342.688352 
L 116.140204 342.688352 
L 118.007362 340.49525 
L 119.874519 337.503281 
L 121.741676 336.574407 
L 123.608834 336.574407 
L 125.475991 339.461196 
L 127.343149 338.464754 
L 131.077464 338.464754 
L 132.944621 339.461196 
L 136.678936 337.503281 
L 138.546093 334.806106 
L 140.413251 334.806106 
L 142.280408 332.350808 
L 144.147566 333.145042 
L 146.014723 332.350808 
L 147.881881 332.350808 
L 149.749038 333.145042 
L 151.616195 333.145042 
L 153.483353 331.57895 
L 155.35051 333.962988 
L 157.217668 333.962988 
L 159.084825 333.145042 
L 164.686297 333.145042 
L 166.553455 333.962988 
L 168.420612 333.962988 
L 170.28777 332.350808 
L 172.154927 333.145042 
L 174.022085 333.145042 
L 177.7564 331.57895 
L 179.623557 331.57895 
L 183.357872 333.145042 
L 185.225029 333.145042 
L 187.092187 332.350808 
L 188.959344 333.145042 
L 190.826502 333.145042 
L 192.693659 331.57895 
L 194.560816 329.385847 
L 196.427974 328.692161 
L 198.295131 328.692161 
L 200.162289 329.385847 
L 202.029446 328.692161 
L 203.896604 329.385847 
L 205.763761 331.57895 
L 209.498076 331.57895 
L 211.365233 330.097554 
L 215.099548 328.692161 
L 216.966706 330.097554 
L 218.833863 329.385847 
L 220.701021 329.385847 
L 222.568178 330.097554 
L 224.435335 331.57895 
L 226.302493 331.57895 
L 228.16965 333.145042 
L 230.036808 330.828241 
L 233.771123 332.350808 
L 235.63828 331.57895 
L 237.505438 330.097554 
L 239.372595 329.385847 
L 241.239752 328.015604 
L 243.10691 328.692161 
L 246.841225 326.080742 
L 248.708382 325.465005 
L 250.57554 326.080742 
L 252.442697 327.355351 
L 254.309854 328.015604 
L 256.177012 328.015604 
L 258.044169 329.385847 
L 263.645642 331.57895 
L 265.512799 330.828241 
L 269.247114 332.350808 
L 271.114271 332.350808 
L 272.981429 333.962988 
L 274.848586 333.962988 
L 276.715744 333.145042 
L 278.582901 333.962988 
L 280.450059 332.350808 
L 284.184373 332.350808 
L 286.051531 331.57895 
L 289.785846 333.145042 
L 291.653003 332.350808 
L 293.520161 333.962988 
L 297.254475 333.962988 
L 300.98879 337.503281 
L 302.855948 339.461196 
L 304.723105 342.688352 
L 306.590263 345.072391 
L 308.45742 347.683809 
L 310.324578 350.570599 
L 314.058892 350.570599 
L 317.793207 347.683809 
L 319.660365 350.570599 
L 321.527522 343.85445 
L 325.261837 341.569864 
L 327.128994 339.461196 
L 330.863309 337.503281 
L 332.730467 333.145042 
L 334.597624 334.806106 
L 336.464782 333.962988 
L 338.331939 332.350808 
L 343.933411 332.350808 
L 345.800569 333.145042 
L 347.667726 333.145042 
L 349.534884 332.350808 
L 351.402041 333.145042 
L 358.870671 333.145042 
L 360.737828 332.350808 
L 366.339301 332.350808 
L 370.073616 330.828241 
L 371.940773 329.385847 
L 373.80793 329.385847 
L 375.675088 328.692161 
L 377.542245 328.692161 
L 379.409403 328.015604 
L 381.27656 329.385847 
L 383.143718 332.350808 
L 385.010875 334.806106 
L 386.878032 336.574407 
L 388.74519 337.503281 
L 390.612347 336.574407 
L 392.479505 337.503281 
L 394.346662 335.675994 
L 396.21382 333.145042 
L 398.080977 330.828241 
L 399.948135 330.097554 
L 401.815292 330.828241 
L 409.283922 330.828241 
L 411.151079 330.097554 
L 413.018237 333.962988 
L 414.885394 328.692161 
L 416.752551 328.692161 
L 418.619709 328.015604 
L 422.354024 328.015604 
L 424.221181 333.145042 
L 426.088339 325.465005 
L 427.955496 329.385847 
L 433.556968 331.57895 
L 435.424126 331.57895 
L 437.291283 328.692161 
L 439.158441 333.962988 
L 444.759913 336.574407 
L 446.62707 337.503281 
L 448.494228 342.688352 
L 450.361385 338.464754 
L 459.697172 338.464754 
L 461.56433 334.806106 
L 463.431487 339.461196 
L 465.298645 338.464754 
L 467.165802 338.464754 
L 472.767275 341.569864 
L 474.634432 342.688352 
L 476.501589 342.688352 
L 478.368747 345.072391 
L 480.235904 345.072391 
L 482.103062 342.688352 
L 483.970219 339.461196 
L 485.837377 337.503281 
L 487.704534 334.806106 
L 489.571691 332.350808 
L 491.438849 329.385847 
L 493.306006 327.355351 
L 495.173164 326.080742 
L 497.040321 325.465005 
L 498.907479 324.273549 
L 500.774636 323.696704 
L 502.641794 322.578215 
L 504.508951 322.578215 
L 508.243266 321.503601 
L 510.110423 321.503601 
L 511.977581 320.469548 
L 513.844738 319.966797 
L 515.711896 320.469548 
L 517.579053 319.966797 
L 519.44621 320.469548 
L 521.313368 320.469548 
L 523.180525 319.966797 
L 525.047683 320.981696 
L 530.649155 319.473105 
L 536.250627 319.473105 
L 536.250627 319.473105 
" style="fill:none;stroke:#fbc15e;stroke-linecap:square;stroke-opacity:0.4;stroke-width:2;"/>
   </g>
   <g id="line2d_65">
    <defs>
     <path d="M 0 3 
C 0.795609 3 1.55874 2.683901 2.12132 2.12132 
C 2.683901 1.55874 3 0.795609 3 0 
C 3 -0.795609 2.683901 -1.55874 2.12132 -2.12132 
C 1.55874 -2.683901 0.795609 -3 0 -3 
C -0.795609 -3 -1.55874 -2.683901 -2.12132 -2.12132 
C -2.683901 -1.55874 -3 -0.795609 -3 0 
C -3 0.795609 -2.683901 1.55874 -2.12132 2.12132 
C -1.55874 2.683901 -0.795609 3 0 3 
z
" id="m578839b623" style="stroke:#fbc15e;stroke-opacity:0.4;"/>
    </defs>
    <g clip-path="url(#pbfcbe3c711)">
     <use style="fill:#fbc15e;fill-opacity:0.4;stroke:#fbc15e;stroke-opacity:0.4;" x="536.250627" xlink:href="#m578839b623" y="319.473105"/>
    </g>
   </g>
   <g id="line2d_66">
    <path clip-path="url(#pbfcbe3c711)" d="M 69.461101 433 
L 69.461268 427.357339 
L 73.195583 427.357339 
L 75.062741 408.36569 
L 76.929898 408.36569 
L 78.797055 397.256287 
L 80.664213 389.374041 
L 82.53137 397.256287 
L 84.398528 364.268447 
L 86.265685 359.27299 
L 90 359.27299 
L 91.867157 340.281341 
L 93.734315 340.281341 
L 95.601472 328.42123 
L 97.46863 324.303624 
L 99.335787 314.277333 
L 101.202945 305.956691 
L 103.070102 299.583036 
L 104.937259 302.584948 
L 106.804417 295.06561 
L 108.671574 290.070153 
L 110.538732 285.535197 
L 114.273047 281.915276 
L 116.140204 277.306851 
L 118.007362 270.091848 
L 119.874519 268.05506 
L 121.741676 267.249144 
L 123.608834 266.083047 
L 125.475991 263.059603 
L 127.343149 262.187586 
L 129.210306 262.788322 
L 131.077464 264.030814 
L 132.944621 262.720919 
L 134.811778 262.386371 
L 136.678936 262.452955 
L 138.546093 265.332338 
L 140.413251 263.81978 
L 142.280408 265.111078 
L 144.147566 266.621056 
L 146.014723 267.328678 
L 147.881881 268.219127 
L 149.749038 268.885401 
L 151.616195 268.301531 
L 153.483353 272.292294 
L 155.35051 271.913061 
L 157.217668 270.715596 
L 159.084825 273.965293 
L 160.951983 274.169005 
L 162.81914 274.78939 
L 164.686297 278.239678 
L 166.553455 279.952683 
L 168.420612 277.65295 
L 172.154927 281.245336 
L 174.022085 283.88324 
L 175.889242 287.458734 
L 177.7564 287.792874 
L 179.623557 289.707245 
L 181.490714 296.413381 
L 183.357872 302.298043 
L 185.225029 304.372483 
L 187.092187 309.802364 
L 188.959344 311.346387 
L 190.826502 311.746382 
L 192.693659 310.563501 
L 194.560816 314.722858 
L 196.427974 310.18029 
L 198.295131 312.982644 
L 200.162289 314.277333 
L 203.896604 320.724741 
L 205.763761 321.289692 
L 207.630919 325.608592 
L 209.498076 340.281341 
L 211.365233 342.665379 
L 213.232391 338.088238 
L 215.099548 339.162853 
L 216.966706 338.088238 
L 218.833863 339.162853 
L 220.701021 337.054185 
L 222.568178 340.281341 
L 224.435335 339.162853 
L 226.302493 343.939989 
L 228.16965 351.390743 
L 230.036808 355.049391 
L 231.903965 355.049391 
L 233.771123 374.04104 
L 235.63828 383.260096 
L 237.505438 389.374041 
L 239.372595 408.36569 
L 243.10691 408.36569 
L 244.974067 427.357339 
L 246.841225 397.256287 
L 248.708382 355.049391 
L 252.442697 351.390743 
L 254.309854 349.72968 
L 258.044169 349.72968 
L 259.911327 351.390743 
L 261.778484 345.276798 
L 263.645642 345.276798 
L 267.379956 348.163587 
L 271.114271 348.163587 
L 272.981429 349.72968 
L 274.848586 408.36569 
L 278.582901 408.36569 
L 280.450059 378.264639 
L 286.051531 378.264639 
L 287.918688 374.04104 
L 291.653003 374.04104 
L 293.520161 397.256287 
L 300.98879 397.256287 
L 302.855948 427.357339 
L 306.590263 427.357339 
L 308.45742 397.256287 
L 312.191735 397.256287 
L 314.058892 408.36569 
L 315.92605 408.36569 
L 317.793207 397.256287 
L 319.660365 397.256287 
L 321.527522 427.357339 
L 323.39468 427.357339 
L 325.261837 397.256287 
L 327.128994 389.374041 
L 328.996152 389.374041 
L 330.863309 378.264639 
L 332.730467 370.382392 
L 336.464782 370.382392 
L 338.331939 374.04104 
L 340.199097 378.264639 
L 342.066254 374.04104 
L 343.933411 383.260096 
L 345.800569 389.374041 
L 349.534884 389.374041 
L 351.402041 397.256287 
L 353.269199 397.256287 
L 355.136356 383.260096 
L 362.604986 383.260096 
L 364.472143 378.264639 
L 366.339301 367.155236 
L 368.206458 374.04104 
L 370.073616 378.264639 
L 371.940773 383.260096 
L 375.675088 383.260096 
L 377.542245 389.374041 
L 379.409403 408.36569 
L 381.27656 383.260096 
L 383.143718 374.04104 
L 385.010875 367.155236 
L 386.878032 367.155236 
L 388.74519 364.268447 
L 392.479505 364.268447 
L 396.21382 383.260096 
L 398.080977 389.374041 
L 399.948135 383.260096 
L 401.815292 389.374041 
L 403.682449 383.260096 
L 405.549607 367.155236 
L 407.416764 370.382392 
L 409.283922 364.268447 
L 411.151079 367.155236 
L 413.018237 370.382392 
L 416.752551 370.382392 
L 418.619709 374.04104 
L 420.486866 370.382392 
L 422.354024 374.04104 
L 426.088339 374.04104 
L 427.955496 370.382392 
L 429.822654 361.657028 
L 431.689811 364.268447 
L 433.556968 345.276798 
L 435.424126 342.665379 
L 437.291283 339.162853 
L 439.158441 339.162853 
L 441.025598 340.281341 
L 444.759913 338.088238 
L 446.62707 343.939989 
L 448.494228 346.682191 
L 454.0957 346.682191 
L 455.962858 353.159044 
L 457.830015 353.159044 
L 461.56433 357.079887 
L 463.431487 361.657028 
L 465.298645 359.27299 
L 467.165802 357.079887 
L 469.03296 357.079887 
L 470.900117 359.27299 
L 472.767275 370.382392 
L 474.634432 357.079887 
L 476.501589 357.079887 
L 478.368747 359.27299 
L 480.235904 361.657028 
L 482.103062 348.163587 
L 485.837377 337.054185 
L 487.704534 336.057742 
L 489.571691 330.738031 
L 491.438849 330.738031 
L 493.306006 329.943797 
L 495.173164 324.94834 
L 497.040321 324.94834 
L 497.043523 433 
M 510.109692 433 
L 510.110423 408.36569 
L 511.977581 296.413381 
L 513.844738 289.349081 
L 515.711896 280.851097 
L 517.579053 280.079239 
L 519.44621 276.852083 
L 521.313368 271.725394 
L 523.180525 268.969836 
L 525.047683 263.402526 
L 526.91484 261.342467 
L 528.781998 261.024239 
L 530.649155 259.847597 
L 532.516313 260.213738 
L 534.38347 257.192129 
L 536.250627 254.872354 
L 538.117785 254.075231 
L 539.984942 252.640392 
L 541.8521 251.859475 
L 545.586415 252.224194 
L 547.453572 250.576633 
L 549.320729 249.851632 
L 551.187887 249.809577 
L 554.922202 248.778636 
L 556.789359 248.65749 
L 558.656517 248.376882 
L 560.523674 248.416793 
L 562.390832 250.147842 
L 564.257989 250.837165 
L 566.125146 250.750046 
L 567.992304 253.06301 
L 569.859461 252.547356 
L 571.726619 252.362226 
L 573.593776 252.408391 
L 575.460934 250.663202 
L 579.195248 248.981745 
L 581.062406 247.015395 
L 582.929563 247.746082 
L 584.796721 247.902426 
L 590.398193 247.902426 
L 590.398193 247.902426 
" style="fill:none;stroke:#8eba42;stroke-linecap:square;stroke-opacity:0.4;stroke-width:2;"/>
   </g>
   <g id="line2d_67">
    <defs>
     <path d="M 0 3 
C 0.795609 3 1.55874 2.683901 2.12132 2.12132 
C 2.683901 1.55874 3 0.795609 3 0 
C 3 -0.795609 2.683901 -1.55874 2.12132 -2.12132 
C 1.55874 -2.683901 0.795609 -3 0 -3 
C -0.795609 -3 -1.55874 -2.683901 -2.12132 -2.12132 
C -2.683901 -1.55874 -3 -0.795609 -3 0 
C -3 0.795609 -2.683901 1.55874 -2.12132 2.12132 
C -1.55874 2.683901 -0.795609 3 0 3 
z
" id="m49c95a3bb8" style="stroke:#8eba42;stroke-opacity:0.4;"/>
    </defs>
    <g clip-path="url(#pbfcbe3c711)">
     <use style="fill:#8eba42;fill-opacity:0.4;stroke:#8eba42;stroke-opacity:0.4;" x="590.398193" xlink:href="#m49c95a3bb8" y="247.902426"/>
    </g>
   </g>
   <g id="line2d_68">
    <path clip-path="url(#pbfcbe3c711)" d="M 93.731325 433 
L 93.734315 432.984955 
L 95.601472 428.137202 
L 97.46863 425.324565 
L 99.335787 420.440714 
L 101.202945 408.777774 
L 103.070102 399.820913 
L 104.937259 388.362472 
L 108.671574 369.544787 
L 110.538732 362.504295 
L 112.405889 356.579964 
L 116.140204 341.590824 
L 119.874519 327.120608 
L 123.608834 313.501723 
L 125.475991 308.540141 
L 127.343149 304.131548 
L 129.210306 298.040057 
L 132.944621 287.753723 
L 134.811778 284.144172 
L 138.546093 277.686855 
L 140.413251 274.572912 
L 142.280408 270.814625 
L 144.147566 268.592841 
L 146.014723 267.067314 
L 147.881881 265.39126 
L 149.749038 264.277684 
L 151.616195 263.819211 
L 153.483353 263.522625 
L 155.35051 263.734669 
L 157.217668 262.922876 
L 159.084825 263.012095 
L 162.81914 263.533553 
L 164.686297 263.323054 
L 166.553455 262.889049 
L 168.420612 262.732918 
L 170.28777 263.026397 
L 172.154927 262.500377 
L 174.022085 262.383095 
L 175.889242 262.851709 
L 177.7564 263.933575 
L 179.623557 265.288135 
L 181.490714 265.879033 
L 183.357872 265.702985 
L 185.225029 265.801749 
L 187.092187 266.367566 
L 188.959344 266.399907 
L 190.826502 266.87114 
L 192.693659 267.175291 
L 194.560816 267.054882 
L 196.427974 267.436605 
L 198.295131 268.490055 
L 202.029446 269.085856 
L 203.896604 269.5425 
L 205.763761 270.268836 
L 209.498076 273.425331 
L 211.365233 273.820215 
L 213.232391 274.054556 
L 215.099548 274.786328 
L 216.966706 275.187534 
L 218.833863 274.731447 
L 220.701021 274.973749 
L 222.568178 275.620177 
L 224.435335 277.262664 
L 226.302493 278.55231 
L 230.036808 279.439485 
L 231.903965 281.500798 
L 233.771123 284.706466 
L 237.505438 284.856794 
L 239.372595 285.216159 
L 241.239752 285.949345 
L 243.10691 285.649628 
L 244.974067 284.765708 
L 246.841225 283.284312 
L 248.708382 285.280542 
L 250.57554 286.007201 
L 254.309854 288.184795 
L 256.177012 289.318778 
L 258.044169 290.658155 
L 265.512799 292.963424 
L 267.379956 292.561111 
L 271.114271 293.863259 
L 272.981429 294.470607 
L 280.450059 298.330408 
L 282.317216 298.460447 
L 284.184373 298.45393 
L 287.918688 298.155829 
L 289.785846 299.227092 
L 291.653003 299.503275 
L 293.520161 300.216585 
L 297.254475 300.3629 
L 299.121633 301.752854 
L 300.98879 302.227311 
L 302.855948 300.948963 
L 304.723105 300.679088 
L 306.590263 302.377279 
L 308.45742 302.294695 
L 310.324578 302.42243 
L 312.191735 298.506107 
L 314.058892 297.411914 
L 315.92605 295.721348 
L 317.793207 294.782254 
L 319.660365 292.466685 
L 321.527522 291.580437 
L 323.39468 291.544969 
L 325.261837 293.038183 
L 327.128994 292.461449 
L 328.996152 292.713929 
L 330.863309 292.128387 
L 332.730467 291.267877 
L 334.597624 291.308007 
L 338.331939 289.66644 
L 340.199097 288.518276 
L 342.066254 287.881891 
L 343.933411 287.022804 
L 347.667726 286.783433 
L 349.534884 284.361473 
L 351.402041 283.3368 
L 353.269199 282.556187 
L 357.003513 281.708649 
L 358.870671 280.938067 
L 360.737828 281.186744 
L 362.604986 283.276821 
L 364.472143 283.258105 
L 366.339301 283.464693 
L 368.206458 283.344307 
L 371.940773 283.460923 
L 373.80793 283.067923 
L 375.675088 283.112553 
L 377.542245 284.275899 
L 379.409403 283.77562 
L 381.27656 284.486423 
L 383.143718 284.078546 
L 385.010875 284.279783 
L 386.878032 284.051569 
L 388.74519 284.365369 
L 390.612347 283.359326 
L 392.479505 284.024618 
L 394.346662 283.970796 
L 396.21382 284.872666 
L 398.080977 285.055859 
L 399.948135 285.5396 
L 401.815292 285.551803 
L 405.549607 286.394666 
L 407.416764 286.281611 
L 411.151079 287.50791 
L 413.018237 287.582299 
L 414.885394 286.924238 
L 418.619709 288.423226 
L 420.486866 288.595463 
L 422.354024 288.60001 
L 424.221181 288.901806 
L 426.088339 289.030852 
L 427.955496 290.545633 
L 429.822654 293.753267 
L 431.689811 293.048879 
L 433.556968 293.912901 
L 435.424126 292.608446 
L 437.291283 292.926121 
L 439.158441 293.054229 
L 441.025598 292.284006 
L 442.892756 288.216167 
L 444.759913 289.100235 
L 446.62707 289.295446 
L 448.494228 290.648352 
L 450.361385 290.618965 
L 452.228543 291.338144 
L 454.0957 291.338144 
L 455.962858 292.703362 
L 457.830015 292.107705 
L 459.697172 291.845362 
L 463.431487 291.636266 
L 465.298645 291.428753 
L 467.165802 291.922261 
L 469.03296 292.534849 
L 470.900117 293.387976 
L 472.767275 293.747779 
L 474.634432 293.802709 
L 476.501589 294.184758 
L 478.368747 293.813708 
L 480.235904 293.075639 
L 482.103062 294.190335 
L 483.970219 294.257339 
L 485.837377 293.627319 
L 487.704534 293.436762 
L 489.571691 293.725837 
L 491.438849 293.317659 
L 493.306006 294.006913 
L 495.173164 293.480201 
L 497.040321 293.097066 
L 498.907479 293.890827 
L 500.774636 294.223816 
L 502.641794 293.572739 
L 504.508951 293.534597 
L 508.243266 292.118044 
L 510.110423 291.333119 
L 513.844738 290.948931 
L 515.711896 290.008993 
L 517.579053 290.263916 
L 521.313368 289.980283 
L 523.180525 290.692493 
L 525.047683 290.124136 
L 526.91484 289.756421 
L 528.781998 290.008993 
L 532.516313 289.66644 
L 534.38347 286.954198 
L 536.250627 286.605268 
L 539.984942 285.159947 
L 541.8521 284.667043 
L 543.719257 284.412165 
L 545.586415 283.81378 
L 547.453572 284.549113 
L 549.320729 283.310543 
L 551.187887 283.090229 
L 553.055044 283.224447 
L 554.922202 282.302052 
L 556.789359 281.747576 
L 558.656517 281.567561 
L 560.523674 280.48794 
L 562.390832 278.897995 
L 564.257989 276.518212 
L 566.125146 274.40987 
L 567.992304 273.953117 
L 569.859461 273.180741 
L 571.726619 272.731122 
L 573.593776 271.600405 
L 575.460934 270.648799 
L 577.328091 272.490098 
L 579.195248 273.79901 
L 581.062406 274.445113 
L 582.929563 274.706787 
L 584.796721 274.006459 
L 588.531036 271.553984 
L 590.398193 267.806684 
L 592.265351 265.354246 
L 594.132508 263.355612 
L 595.999665 262.84105 
L 601.601138 262.84105 
L 601.601138 262.84105 
" style="fill:none;stroke:#ffb5b8;stroke-linecap:square;stroke-opacity:0.4;stroke-width:2;"/>
   </g>
   <g id="line2d_69">
    <defs>
     <path d="M 0 3 
C 0.795609 3 1.55874 2.683901 2.12132 2.12132 
C 2.683901 1.55874 3 0.795609 3 0 
C 3 -0.795609 2.683901 -1.55874 2.12132 -2.12132 
C 1.55874 -2.683901 0.795609 -3 0 -3 
C -0.795609 -3 -1.55874 -2.683901 -2.12132 -2.12132 
C -2.683901 -1.55874 -3 -0.795609 -3 0 
C -3 0.795609 -2.683901 1.55874 -2.12132 2.12132 
C -1.55874 2.683901 -0.795609 3 0 3 
z
" id="md2b448ae73" style="stroke:#ffb5b8;stroke-opacity:0.4;"/>
    </defs>
    <g clip-path="url(#pbfcbe3c711)">
     <use style="fill:#ffb5b8;fill-opacity:0.4;stroke:#ffb5b8;stroke-opacity:0.4;" x="601.601138" xlink:href="#md2b448ae73" y="262.84105"/>
    </g>
   </g>
   <g id="patch_3">
    <path d="M 90 378 
L 90 229.745455 
" style="fill:none;stroke:#ffffff;stroke-linecap:square;stroke-linejoin:miter;"/>
   </g>
   <g id="patch_4">
    <path d="M 648 378 
L 648 229.745455 
" style="fill:none;stroke:#ffffff;stroke-linecap:square;stroke-linejoin:miter;"/>
   </g>
   <g id="patch_5">
    <path d="M 90 378 
L 648 378 
" style="fill:none;stroke:#ffffff;stroke-linecap:square;stroke-linejoin:miter;"/>
   </g>
   <g id="patch_6">
    <path d="M 90 229.745455 
L 648 229.745455 
" style="fill:none;stroke:#ffffff;stroke-linecap:square;stroke-linejoin:miter;"/>
   </g>
   <g id="text_15">
    <!-- Germany -->
    <defs>
     <path d="M 59.515625 10.40625 
L 59.515625 29.984375 
L 43.40625 29.984375 
L 43.40625 38.09375 
L 69.28125 38.09375 
L 69.28125 6.78125 
Q 63.578125 2.734375 56.6875 0.65625 
Q 49.8125 -1.421875 42 -1.421875 
Q 24.90625 -1.421875 15.25 8.5625 
Q 5.609375 18.5625 5.609375 36.375 
Q 5.609375 54.25 15.25 64.234375 
Q 24.90625 74.21875 42 74.21875 
Q 49.125 74.21875 55.546875 72.453125 
Q 61.96875 70.703125 67.390625 67.28125 
L 67.390625 56.78125 
Q 61.921875 61.421875 55.765625 63.765625 
Q 49.609375 66.109375 42.828125 66.109375 
Q 29.4375 66.109375 22.71875 58.640625 
Q 16.015625 51.171875 16.015625 36.375 
Q 16.015625 21.625 22.71875 14.15625 
Q 29.4375 6.6875 42.828125 6.6875 
Q 48.046875 6.6875 52.140625 7.59375 
Q 56.25 8.5 59.515625 10.40625 
z
" id="DejaVuSans-71"/>
    </defs>
    <g transform="translate(594.132508 273.249612)scale(0.1 -0.1)">
     <use xlink:href="#DejaVuSans-71"/>
     <use x="77.490234" xlink:href="#DejaVuSans-101"/>
     <use x="139.013672" xlink:href="#DejaVuSans-114"/>
     <use x="178.376953" xlink:href="#DejaVuSans-109"/>
     <use x="275.789062" xlink:href="#DejaVuSans-97"/>
     <use x="337.068359" xlink:href="#DejaVuSans-110"/>
     <use x="400.447266" xlink:href="#DejaVuSans-121"/>
    </g>
   </g>
   <g id="text_16">
    <!-- Poland -->
    <defs>
     <path d="M 19.671875 64.796875 
L 19.671875 37.40625 
L 32.078125 37.40625 
Q 38.96875 37.40625 42.71875 40.96875 
Q 46.484375 44.53125 46.484375 51.125 
Q 46.484375 57.671875 42.71875 61.234375 
Q 38.96875 64.796875 32.078125 64.796875 
z
M 9.8125 72.90625 
L 32.078125 72.90625 
Q 44.34375 72.90625 50.609375 67.359375 
Q 56.890625 61.8125 56.890625 51.125 
Q 56.890625 40.328125 50.609375 34.8125 
Q 44.34375 29.296875 32.078125 29.296875 
L 19.671875 29.296875 
L 19.671875 0 
L 9.8125 0 
z
" id="DejaVuSans-80"/>
    </defs>
    <g transform="translate(569.859461 247.873075)scale(0.1 -0.1)">
     <use xlink:href="#DejaVuSans-80"/>
     <use x="56.677734" xlink:href="#DejaVuSans-111"/>
     <use x="117.859375" xlink:href="#DejaVuSans-108"/>
     <use x="145.642578" xlink:href="#DejaVuSans-97"/>
     <use x="206.921875" xlink:href="#DejaVuSans-110"/>
     <use x="270.300781" xlink:href="#DejaVuSans-100"/>
    </g>
   </g>
   <g id="text_17">
    <!-- Belarus -->
    <defs>
     <path d="M 19.671875 34.8125 
L 19.671875 8.109375 
L 35.5 8.109375 
Q 43.453125 8.109375 47.28125 11.40625 
Q 51.125 14.703125 51.125 21.484375 
Q 51.125 28.328125 47.28125 31.5625 
Q 43.453125 34.8125 35.5 34.8125 
z
M 19.671875 64.796875 
L 19.671875 42.828125 
L 34.28125 42.828125 
Q 41.5 42.828125 45.03125 45.53125 
Q 48.578125 48.25 48.578125 53.8125 
Q 48.578125 59.328125 45.03125 62.0625 
Q 41.5 64.796875 34.28125 64.796875 
z
M 9.8125 72.90625 
L 35.015625 72.90625 
Q 46.296875 72.90625 52.390625 68.21875 
Q 58.5 63.53125 58.5 54.890625 
Q 58.5 48.1875 55.375 44.234375 
Q 52.25 40.28125 46.1875 39.3125 
Q 53.46875 37.75 57.5 32.78125 
Q 61.53125 27.828125 61.53125 20.40625 
Q 61.53125 10.640625 54.890625 5.3125 
Q 48.25 0 35.984375 0 
L 9.8125 0 
z
" id="DejaVuSans-66"/>
     <path d="M 8.5 21.578125 
L 8.5 54.6875 
L 17.484375 54.6875 
L 17.484375 21.921875 
Q 17.484375 14.15625 20.5 10.265625 
Q 23.53125 6.390625 29.59375 6.390625 
Q 36.859375 6.390625 41.078125 11.03125 
Q 45.3125 15.671875 45.3125 23.6875 
L 45.3125 54.6875 
L 54.296875 54.6875 
L 54.296875 0 
L 45.3125 0 
L 45.3125 8.40625 
Q 42.046875 3.421875 37.71875 1 
Q 33.40625 -1.421875 27.6875 -1.421875 
Q 18.265625 -1.421875 13.375 4.4375 
Q 8.5 10.296875 8.5 21.578125 
z
M 31.109375 56 
z
" id="DejaVuSans-117"/>
    </defs>
    <g transform="translate(539.984942 319.473105)scale(0.1 -0.1)">
     <use xlink:href="#DejaVuSans-66"/>
     <use x="68.603516" xlink:href="#DejaVuSans-101"/>
     <use x="130.126953" xlink:href="#DejaVuSans-108"/>
     <use x="157.910156" xlink:href="#DejaVuSans-97"/>
     <use x="219.189453" xlink:href="#DejaVuSans-114"/>
     <use x="260.302734" xlink:href="#DejaVuSans-117"/>
     <use x="323.681641" xlink:href="#DejaVuSans-115"/>
    </g>
   </g>
   <g id="text_18">
    <!-- Switzerland -->
    <defs>
     <path d="M 53.515625 70.515625 
L 53.515625 60.890625 
Q 47.90625 63.578125 42.921875 64.890625 
Q 37.9375 66.21875 33.296875 66.21875 
Q 25.25 66.21875 20.875 63.09375 
Q 16.5 59.96875 16.5 54.203125 
Q 16.5 49.359375 19.40625 46.890625 
Q 22.3125 44.4375 30.421875 42.921875 
L 36.375 41.703125 
Q 47.40625 39.59375 52.65625 34.296875 
Q 57.90625 29 57.90625 20.125 
Q 57.90625 9.515625 50.796875 4.046875 
Q 43.703125 -1.421875 29.984375 -1.421875 
Q 24.8125 -1.421875 18.96875 -0.25 
Q 13.140625 0.921875 6.890625 3.21875 
L 6.890625 13.375 
Q 12.890625 10.015625 18.65625 8.296875 
Q 24.421875 6.59375 29.984375 6.59375 
Q 38.421875 6.59375 43.015625 9.90625 
Q 47.609375 13.234375 47.609375 19.390625 
Q 47.609375 24.75 44.3125 27.78125 
Q 41.015625 30.8125 33.5 32.328125 
L 27.484375 33.5 
Q 16.453125 35.6875 11.515625 40.375 
Q 6.59375 45.0625 6.59375 53.421875 
Q 6.59375 63.09375 13.40625 68.65625 
Q 20.21875 74.21875 32.171875 74.21875 
Q 37.3125 74.21875 42.625 73.28125 
Q 47.953125 72.359375 53.515625 70.515625 
z
" id="DejaVuSans-83"/>
     <path d="M 5.515625 54.6875 
L 48.1875 54.6875 
L 48.1875 46.484375 
L 14.40625 7.171875 
L 48.1875 7.171875 
L 48.1875 0 
L 4.296875 0 
L 4.296875 8.203125 
L 38.09375 47.515625 
L 5.515625 47.515625 
z
" id="DejaVuSans-122"/>
    </defs>
    <g transform="translate(594.132508 247.902426)scale(0.1 -0.1)">
     <use xlink:href="#DejaVuSans-83"/>
     <use x="63.476562" xlink:href="#DejaVuSans-119"/>
     <use x="145.263672" xlink:href="#DejaVuSans-105"/>
     <use x="173.046875" xlink:href="#DejaVuSans-116"/>
     <use x="212.255859" xlink:href="#DejaVuSans-122"/>
     <use x="264.746094" xlink:href="#DejaVuSans-101"/>
     <use x="326.269531" xlink:href="#DejaVuSans-114"/>
     <use x="367.382812" xlink:href="#DejaVuSans-108"/>
     <use x="395.166016" xlink:href="#DejaVuSans-97"/>
     <use x="456.445312" xlink:href="#DejaVuSans-110"/>
     <use x="519.824219" xlink:href="#DejaVuSans-100"/>
    </g>
   </g>
   <g id="text_19">
    <!-- US -->
    <defs>
     <path d="M 8.6875 72.90625 
L 18.609375 72.90625 
L 18.609375 28.609375 
Q 18.609375 16.890625 22.84375 11.734375 
Q 27.09375 6.59375 36.625 6.59375 
Q 46.09375 6.59375 50.34375 11.734375 
Q 54.59375 16.890625 54.59375 28.609375 
L 54.59375 72.90625 
L 64.5 72.90625 
L 64.5 27.390625 
Q 64.5 13.140625 57.4375 5.859375 
Q 50.390625 -1.421875 36.625 -1.421875 
Q 22.796875 -1.421875 15.734375 5.859375 
Q 8.6875 13.140625 8.6875 27.390625 
z
" id="DejaVuSans-85"/>
    </defs>
    <g transform="translate(605.335453 262.84105)scale(0.1 -0.1)">
     <use xlink:href="#DejaVuSans-85"/>
     <use x="73.193359" xlink:href="#DejaVuSans-83"/>
    </g>
   </g>
  </g>
 </g>
 <defs>
  <clipPath id="pbfcbe3c711">
   <rect height="148.254545" width="558" x="90" y="229.745455"/>
  </clipPath>
 </defs>
</svg>
