<?xml version="1.0" encoding="utf-8" standalone="no"?>
<!DOCTYPE svg PUBLIC "-//W3C//DTD SVG 1.1//EN"
  "http://www.w3.org/Graphics/SVG/1.1/DTD/svg11.dtd">
<!-- Created with matplotlib (https://matplotlib.org/) -->
<svg height="180pt" version="1.1" viewBox="0 0 864 180" width="864pt" xmlns="http://www.w3.org/2000/svg" xmlns:xlink="http://www.w3.org/1999/xlink">
 <metadata>
  <rdf:RDF xmlns:cc="http://creativecommons.org/ns#" xmlns:dc="http://purl.org/dc/elements/1.1/" xmlns:rdf="http://www.w3.org/1999/02/22-rdf-syntax-ns#">
   <cc:Work>
    <dc:type rdf:resource="http://purl.org/dc/dcmitype/StillImage"/>
    <dc:date>2021-02-11T21:01:58.503427</dc:date>
    <dc:format>image/svg+xml</dc:format>
    <dc:creator>
     <cc:Agent>
      <dc:title>Matplotlib v3.3.4, https://matplotlib.org/</dc:title>
     </cc:Agent>
    </dc:creator>
   </cc:Work>
  </rdf:RDF>
 </metadata>
 <defs>
  <style type="text/css">*{stroke-linecap:butt;stroke-linejoin:round;}</style>
 </defs>
 <g id="figure_1">
  <g id="patch_1">
   <path d="M 0 180 
L 864 180 
L 864 0 
L 0 0 
z
" style="fill:#ffffff;"/>
  </g>
  <g id="axes_1">
   <g id="patch_2">
    <path d="M 62.55 152.2 
L 797.45 152.2 
L 797.45 13.362138 
L 62.55 13.362138 
z
" style="fill:#e5e5e5;"/>
   </g>
   <g id="matplotlib.axis_1">
    <g id="xtick_1">
     <g id="line2d_1">
      <path clip-path="url(#p6c0d3a62c0)" d="M 162.62474 152.2 
L 162.62474 13.362138 
" style="fill:none;stroke:#ffffff;stroke-linecap:square;stroke-width:0.8;"/>
     </g>
     <g id="line2d_2">
      <defs>
       <path d="M 0 0 
L 0 3.5 
" id="mfeb5d2dc61" style="stroke:#555555;stroke-width:0.8;"/>
      </defs>
      <g>
       <use style="fill:#555555;stroke:#555555;stroke-width:0.8;" x="162.62474" xlink:href="#mfeb5d2dc61" y="152.2"/>
      </g>
     </g>
     <g id="text_1">
      <text style="fill:#555555;font-family:DejaVu Sans;font-size:10px;font-stretch:normal;font-style:normal;font-weight:normal;text-anchor:middle;" transform="rotate(-0, 162.62474, 166.798438)" x="162.62474" y="166.798438">2020-03</text>
     </g>
    </g>
    <g id="xtick_2">
     <g id="line2d_3">
      <path clip-path="url(#p6c0d3a62c0)" d="M 268.533122 152.2 
L 268.533122 13.362138 
" style="fill:none;stroke:#ffffff;stroke-linecap:square;stroke-width:0.8;"/>
     </g>
     <g id="line2d_4">
      <g>
       <use style="fill:#555555;stroke:#555555;stroke-width:0.8;" x="268.533122" xlink:href="#mfeb5d2dc61" y="152.2"/>
      </g>
     </g>
     <g id="text_2">
      <text style="fill:#555555;font-family:DejaVu Sans;font-size:10px;font-stretch:normal;font-style:normal;font-weight:normal;text-anchor:middle;" transform="rotate(-0, 268.533122, 166.798438)" x="268.533122" y="166.798438">2020-05</text>
     </g>
    </g>
    <g id="xtick_3">
     <g id="line2d_5">
      <path clip-path="url(#p6c0d3a62c0)" d="M 374.441504 152.2 
L 374.441504 13.362138 
" style="fill:none;stroke:#ffffff;stroke-linecap:square;stroke-width:0.8;"/>
     </g>
     <g id="line2d_6">
      <g>
       <use style="fill:#555555;stroke:#555555;stroke-width:0.8;" x="374.441504" xlink:href="#mfeb5d2dc61" y="152.2"/>
      </g>
     </g>
     <g id="text_3">
      <text style="fill:#555555;font-family:DejaVu Sans;font-size:10px;font-stretch:normal;font-style:normal;font-weight:normal;text-anchor:middle;" transform="rotate(-0, 374.441504, 166.798438)" x="374.441504" y="166.798438">2020-07</text>
     </g>
    </g>
    <g id="xtick_4">
     <g id="line2d_7">
      <path clip-path="url(#p6c0d3a62c0)" d="M 482.08609 152.2 
L 482.08609 13.362138 
" style="fill:none;stroke:#ffffff;stroke-linecap:square;stroke-width:0.8;"/>
     </g>
     <g id="line2d_8">
      <g>
       <use style="fill:#555555;stroke:#555555;stroke-width:0.8;" x="482.08609" xlink:href="#mfeb5d2dc61" y="152.2"/>
      </g>
     </g>
     <g id="text_4">
      <text style="fill:#555555;font-family:DejaVu Sans;font-size:10px;font-stretch:normal;font-style:normal;font-weight:normal;text-anchor:middle;" transform="rotate(-0, 482.08609, 166.798438)" x="482.08609" y="166.798438">2020-09</text>
     </g>
    </g>
    <g id="xtick_5">
     <g id="line2d_9">
      <path clip-path="url(#p6c0d3a62c0)" d="M 587.994472 152.2 
L 587.994472 13.362138 
" style="fill:none;stroke:#ffffff;stroke-linecap:square;stroke-width:0.8;"/>
     </g>
     <g id="line2d_10">
      <g>
       <use style="fill:#555555;stroke:#555555;stroke-width:0.8;" x="587.994472" xlink:href="#mfeb5d2dc61" y="152.2"/>
      </g>
     </g>
     <g id="text_5">
      <text style="fill:#555555;font-family:DejaVu Sans;font-size:10px;font-stretch:normal;font-style:normal;font-weight:normal;text-anchor:middle;" transform="rotate(-0, 587.994472, 166.798438)" x="587.994472" y="166.798438">2020-11</text>
     </g>
    </g>
    <g id="xtick_6">
     <g id="line2d_11">
      <path clip-path="url(#p6c0d3a62c0)" d="M 693.902854 152.2 
L 693.902854 13.362138 
" style="fill:none;stroke:#ffffff;stroke-linecap:square;stroke-width:0.8;"/>
     </g>
     <g id="line2d_12">
      <g>
       <use style="fill:#555555;stroke:#555555;stroke-width:0.8;" x="693.902854" xlink:href="#mfeb5d2dc61" y="152.2"/>
      </g>
     </g>
     <g id="text_6">
      <text style="fill:#555555;font-family:DejaVu Sans;font-size:10px;font-stretch:normal;font-style:normal;font-weight:normal;text-anchor:middle;" transform="rotate(-0, 693.902854, 166.798438)" x="693.902854" y="166.798438">2021-01</text>
     </g>
    </g>
    <g id="xtick_7">
     <g id="line2d_13">
      <path clip-path="url(#p6c0d3a62c0)" d="M 796.33883 152.2 
L 796.33883 13.362138 
" style="fill:none;stroke:#ffffff;stroke-linecap:square;stroke-width:0.8;"/>
     </g>
     <g id="line2d_14">
      <g>
       <use style="fill:#555555;stroke:#555555;stroke-width:0.8;" x="796.33883" xlink:href="#mfeb5d2dc61" y="152.2"/>
      </g>
     </g>
     <g id="text_7">
      <text style="fill:#555555;font-family:DejaVu Sans;font-size:10px;font-stretch:normal;font-style:normal;font-weight:normal;text-anchor:middle;" transform="rotate(-0, 796.33883, 166.798438)" x="796.33883" y="166.798438">2021-03</text>
     </g>
    </g>
   </g>
   <g id="matplotlib.axis_2">
    <g id="ytick_1">
     <g id="line2d_15">
      <path clip-path="url(#p6c0d3a62c0)" d="M 62.55 152.2 
L 797.45 152.2 
" style="fill:none;stroke:#ffffff;stroke-linecap:square;stroke-width:0.8;"/>
     </g>
     <g id="line2d_16">
      <defs>
       <path d="M 0 0 
L -3.5 0 
" id="mff94791691" style="stroke:#555555;stroke-width:0.8;"/>
      </defs>
      <g>
       <use style="fill:#555555;stroke:#555555;stroke-width:0.8;" x="62.55" xlink:href="#mff94791691" y="152.2"/>
      </g>
     </g>
     <g id="text_8">
      <text style="fill:#555555;font-family:DejaVu Sans;font-size:10px;font-stretch:normal;font-style:normal;font-weight:normal;text-anchor:end;" transform="rotate(-0, 55.55, 155.999219)" x="55.55" y="155.999219">0</text>
     </g>
    </g>
    <g id="ytick_2">
     <g id="line2d_17">
      <path clip-path="url(#p6c0d3a62c0)" d="M 62.55 117.857771 
L 797.45 117.857771 
" style="fill:none;stroke:#ffffff;stroke-linecap:square;stroke-width:0.8;"/>
     </g>
     <g id="line2d_18">
      <g>
       <use style="fill:#555555;stroke:#555555;stroke-width:0.8;" x="62.55" xlink:href="#mff94791691" y="117.857771"/>
      </g>
     </g>
     <g id="text_9">
      <text style="fill:#555555;font-family:DejaVu Sans;font-size:10px;font-stretch:normal;font-style:normal;font-weight:normal;text-anchor:end;" transform="rotate(-0, 55.55, 121.65699)" x="55.55" y="121.65699">5</text>
     </g>
    </g>
    <g id="ytick_3">
     <g id="line2d_19">
      <path clip-path="url(#p6c0d3a62c0)" d="M 62.55 83.515542 
L 797.45 83.515542 
" style="fill:none;stroke:#ffffff;stroke-linecap:square;stroke-width:0.8;"/>
     </g>
     <g id="line2d_20">
      <g>
       <use style="fill:#555555;stroke:#555555;stroke-width:0.8;" x="62.55" xlink:href="#mff94791691" y="83.515542"/>
      </g>
     </g>
     <g id="text_10">
      <text style="fill:#555555;font-family:DejaVu Sans;font-size:10px;font-stretch:normal;font-style:normal;font-weight:normal;text-anchor:end;" transform="rotate(-0, 55.55, 87.31476)" x="55.55" y="87.31476">10</text>
     </g>
    </g>
    <g id="ytick_4">
     <g id="line2d_21">
      <path clip-path="url(#p6c0d3a62c0)" d="M 62.55 49.173313 
L 797.45 49.173313 
" style="fill:none;stroke:#ffffff;stroke-linecap:square;stroke-width:0.8;"/>
     </g>
     <g id="line2d_22">
      <g>
       <use style="fill:#555555;stroke:#555555;stroke-width:0.8;" x="62.55" xlink:href="#mff94791691" y="49.173313"/>
      </g>
     </g>
     <g id="text_11">
      <text style="fill:#555555;font-family:DejaVu Sans;font-size:10px;font-stretch:normal;font-style:normal;font-weight:normal;text-anchor:end;" transform="rotate(-0, 55.55, 52.972531)" x="55.55" y="52.972531">15</text>
     </g>
    </g>
    <g id="ytick_5">
     <g id="line2d_23">
      <path clip-path="url(#p6c0d3a62c0)" d="M 62.55 14.831083 
L 797.45 14.831083 
" style="fill:none;stroke:#ffffff;stroke-linecap:square;stroke-width:0.8;"/>
     </g>
     <g id="line2d_24">
      <g>
       <use style="fill:#555555;stroke:#555555;stroke-width:0.8;" x="62.55" xlink:href="#mff94791691" y="14.831083"/>
      </g>
     </g>
     <g id="text_12">
      <text style="fill:#555555;font-family:DejaVu Sans;font-size:10px;font-stretch:normal;font-style:normal;font-weight:normal;text-anchor:end;" transform="rotate(-0, 55.55, 18.630302)" x="55.55" y="18.630302">20</text>
     </g>
    </g>
    <g id="text_13">
     <text style="fill:#555555;font-family:DejaVu Sans;font-size:12px;font-stretch:normal;font-style:normal;font-weight:normal;" transform="translate(22.892 121.140757)rotate(-90)">daily change</text>
     <text style="fill:#555555;font-family:DejaVu Sans;font-size:12px;font-stretch:normal;font-style:normal;font-weight:normal;" transform="translate(36.329375 145.266382)rotate(-90)">normalised per 100K</text>
    </g>
   </g>
   <g id="line2d_25">
    <defs>
     <path d="M 0 3 
C 0.795609 3 1.55874 2.683901 2.12132 2.12132 
C 2.683901 1.55874 3 0.795609 3 0 
C 3 -0.795609 2.683901 -1.55874 2.12132 -2.12132 
C 1.55874 -2.683901 0.795609 -3 0 -3 
C -0.795609 -3 -1.55874 -2.683901 -2.12132 -2.12132 
C -2.683901 -1.55874 -3 -0.795609 -3 0 
C -3 0.795609 -2.683901 1.55874 -2.12132 2.12132 
C -1.55874 2.683901 -0.795609 3 0 3 
z
" id="m3c0e06b57a" style="stroke:#e24a33;stroke-opacity:0.001;"/>
    </defs>
    <g clip-path="url(#p6c0d3a62c0)">
     <use style="fill:#e24a33;fill-opacity:0.001;stroke:#e24a33;stroke-opacity:0.001;" x="430" xlink:href="#m3c0e06b57a" y="82.781069"/>
    </g>
   </g>
   <g id="patch_3">
    <path d="M 62.55 152.2 
L 62.55 13.362138 
" style="fill:none;stroke:#ffffff;stroke-linecap:square;stroke-linejoin:miter;"/>
   </g>
   <g id="patch_4">
    <path d="M 797.45 152.2 
L 797.45 13.362138 
" style="fill:none;stroke:#ffffff;stroke-linecap:square;stroke-linejoin:miter;"/>
   </g>
   <g id="patch_5">
    <path d="M 62.55 152.2 
L 797.45 152.2 
" style="fill:none;stroke:#ffffff;stroke-linecap:square;stroke-linejoin:miter;"/>
   </g>
   <g id="patch_6">
    <path d="M 62.55 13.362138 
L 797.45 13.362138 
" style="fill:none;stroke:#ffffff;stroke-linecap:square;stroke-linejoin:miter;"/>
   </g>
  </g>
  <g id="axes_2">
   <g id="matplotlib.axis_3">
    <g id="ytick_6">
     <g id="line2d_26">
      <path clip-path="url(#p6c0d3a62c0)" d="M 62.55 152.2 
L 797.45 152.2 
" style="fill:none;stroke:#ffffff;stroke-linecap:square;stroke-width:0.8;"/>
     </g>
     <g id="line2d_27">
      <defs>
       <path d="M 0 0 
L 3.5 0 
" id="m285e2c1ec2" style="stroke:#555555;stroke-width:0.8;"/>
      </defs>
      <g>
       <use style="fill:#555555;stroke:#555555;stroke-width:0.8;" x="797.45" xlink:href="#m285e2c1ec2" y="152.2"/>
      </g>
     </g>
     <g id="text_14">
      <text style="fill:#555555;font-family:DejaVu Sans;font-size:10px;font-stretch:normal;font-style:normal;font-weight:normal;text-anchor:start;" transform="rotate(-0, 804.45, 155.999219)" x="804.45" y="155.999219">0</text>
     </g>
    </g>
    <g id="ytick_7">
     <g id="line2d_28">
      <path clip-path="url(#p6c0d3a62c0)" d="M 62.55 117.857771 
L 797.45 117.857771 
" style="fill:none;stroke:#ffffff;stroke-linecap:square;stroke-width:0.8;"/>
     </g>
     <g id="line2d_29">
      <g>
       <use style="fill:#555555;stroke:#555555;stroke-width:0.8;" x="797.45" xlink:href="#m285e2c1ec2" y="117.857771"/>
      </g>
     </g>
     <g id="text_15">
      <text style="fill:#555555;font-family:DejaVu Sans;font-size:10px;font-stretch:normal;font-style:normal;font-weight:normal;text-anchor:start;" transform="rotate(-0, 804.45, 121.65699)" x="804.45" y="121.65699">7297</text>
     </g>
    </g>
    <g id="ytick_8">
     <g id="line2d_30">
      <path clip-path="url(#p6c0d3a62c0)" d="M 62.55 83.515542 
L 797.45 83.515542 
" style="fill:none;stroke:#ffffff;stroke-linecap:square;stroke-width:0.8;"/>
     </g>
     <g id="line2d_31">
      <g>
       <use style="fill:#555555;stroke:#555555;stroke-width:0.8;" x="797.45" xlink:href="#m285e2c1ec2" y="83.515542"/>
      </g>
     </g>
     <g id="text_16">
      <text style="fill:#555555;font-family:DejaVu Sans;font-size:10px;font-stretch:normal;font-style:normal;font-weight:normal;text-anchor:start;" transform="rotate(-0, 804.45, 87.31476)" x="804.45" y="87.31476">14593</text>
     </g>
    </g>
    <g id="ytick_9">
     <g id="line2d_32">
      <path clip-path="url(#p6c0d3a62c0)" d="M 62.55 49.173313 
L 797.45 49.173313 
" style="fill:none;stroke:#ffffff;stroke-linecap:square;stroke-width:0.8;"/>
     </g>
     <g id="line2d_33">
      <g>
       <use style="fill:#555555;stroke:#555555;stroke-width:0.8;" x="797.45" xlink:href="#m285e2c1ec2" y="49.173313"/>
      </g>
     </g>
     <g id="text_17">
      <text style="fill:#555555;font-family:DejaVu Sans;font-size:10px;font-stretch:normal;font-style:normal;font-weight:normal;text-anchor:start;" transform="rotate(-0, 804.45, 52.972531)" x="804.45" y="52.972531">21890</text>
     </g>
    </g>
    <g id="ytick_10">
     <g id="line2d_34">
      <path clip-path="url(#p6c0d3a62c0)" d="M 62.55 14.831083 
L 797.45 14.831083 
" style="fill:none;stroke:#ffffff;stroke-linecap:square;stroke-width:0.8;"/>
     </g>
     <g id="line2d_35">
      <g>
       <use style="fill:#555555;stroke:#555555;stroke-width:0.8;" x="797.45" xlink:href="#m285e2c1ec2" y="14.831083"/>
      </g>
     </g>
     <g id="text_18">
      <text style="fill:#555555;font-family:DejaVu Sans;font-size:10px;font-stretch:normal;font-style:normal;font-weight:normal;text-anchor:start;" transform="rotate(-0, 804.45, 18.630302)" x="804.45" y="18.630302">29187</text>
     </g>
    </g>
    <g id="text_19">
     <text style="fill:#555555;font-family:DejaVu Sans;font-size:12px;font-stretch:normal;font-style:normal;font-weight:normal;text-anchor:middle;" transform="rotate(-90, 849.380625, 82.781069)" x="849.380625" y="82.781069">daily change</text>
    </g>
   </g>
   <g id="patch_7">
    <path clip-path="url(#p6c0d3a62c0)" d="M 95.954545 152.2 
L 97.343508 152.2 
L 97.343508 152.2 
L 95.954545 152.2 
z
" style="fill:#348abd;opacity:0.2;"/>
   </g>
   <g id="patch_8">
    <path clip-path="url(#p6c0d3a62c0)" d="M 97.690748 152.2 
L 99.079711 152.2 
L 99.079711 152.2 
L 97.690748 152.2 
z
" style="fill:#348abd;opacity:0.2;"/>
   </g>
   <g id="patch_9">
    <path clip-path="url(#p6c0d3a62c0)" d="M 99.426951 152.2 
L 100.815914 152.2 
L 100.815914 152.2 
L 99.426951 152.2 
z
" style="fill:#348abd;opacity:0.2;"/>
   </g>
   <g id="patch_10">
    <path clip-path="url(#p6c0d3a62c0)" d="M 101.163154 152.2 
L 102.552117 152.2 
L 102.552117 152.2 
L 101.163154 152.2 
z
" style="fill:#348abd;opacity:0.2;"/>
   </g>
   <g id="patch_11">
    <path clip-path="url(#p6c0d3a62c0)" d="M 102.899357 152.2 
L 104.28832 152.2 
L 104.28832 152.2 
L 102.899357 152.2 
z
" style="fill:#348abd;opacity:0.2;"/>
   </g>
   <g id="patch_12">
    <path clip-path="url(#p6c0d3a62c0)" d="M 104.63556 152.2 
L 106.024523 152.2 
L 106.024523 152.2 
L 104.63556 152.2 
z
" style="fill:#348abd;opacity:0.2;"/>
   </g>
   <g id="patch_13">
    <path clip-path="url(#p6c0d3a62c0)" d="M 106.371763 152.2 
L 107.760726 152.2 
L 107.760726 152.2 
L 106.371763 152.2 
z
" style="fill:#348abd;opacity:0.2;"/>
   </g>
   <g id="patch_14">
    <path clip-path="url(#p6c0d3a62c0)" d="M 108.107966 152.2 
L 109.496929 152.2 
L 109.496929 152.2 
L 108.107966 152.2 
z
" style="fill:#348abd;opacity:0.2;"/>
   </g>
   <g id="patch_15">
    <path clip-path="url(#p6c0d3a62c0)" d="M 109.844169 152.2 
L 111.233132 152.2 
L 111.233132 152.190587 
L 109.844169 152.190587 
z
" style="fill:#348abd;opacity:0.2;"/>
   </g>
   <g id="patch_16">
    <path clip-path="url(#p6c0d3a62c0)" d="M 111.580372 152.2 
L 112.969335 152.2 
L 112.969335 152.2 
L 111.580372 152.2 
z
" style="fill:#348abd;opacity:0.2;"/>
   </g>
   <g id="patch_17">
    <path clip-path="url(#p6c0d3a62c0)" d="M 113.316575 152.2 
L 114.705538 152.2 
L 114.705538 152.2 
L 113.316575 152.2 
z
" style="fill:#348abd;opacity:0.2;"/>
   </g>
   <g id="patch_18">
    <path clip-path="url(#p6c0d3a62c0)" d="M 115.052778 152.2 
L 116.441741 152.2 
L 116.441741 152.2 
L 115.052778 152.2 
z
" style="fill:#348abd;opacity:0.2;"/>
   </g>
   <g id="patch_19">
    <path clip-path="url(#p6c0d3a62c0)" d="M 116.788981 152.2 
L 118.177944 152.2 
L 118.177944 152.2 
L 116.788981 152.2 
z
" style="fill:#348abd;opacity:0.2;"/>
   </g>
   <g id="patch_20">
    <path clip-path="url(#p6c0d3a62c0)" d="M 118.525184 152.2 
L 119.914147 152.2 
L 119.914147 152.2 
L 118.525184 152.2 
z
" style="fill:#348abd;opacity:0.2;"/>
   </g>
   <g id="patch_21">
    <path clip-path="url(#p6c0d3a62c0)" d="M 120.261387 152.2 
L 121.65035 152.2 
L 121.65035 152.2 
L 120.261387 152.2 
z
" style="fill:#348abd;opacity:0.2;"/>
   </g>
   <g id="patch_22">
    <path clip-path="url(#p6c0d3a62c0)" d="M 121.99759 152.2 
L 123.386553 152.2 
L 123.386553 152.2 
L 121.99759 152.2 
z
" style="fill:#348abd;opacity:0.2;"/>
   </g>
   <g id="patch_23">
    <path clip-path="url(#p6c0d3a62c0)" d="M 123.733793 152.2 
L 125.122756 152.2 
L 125.122756 152.2 
L 123.733793 152.2 
z
" style="fill:#348abd;opacity:0.2;"/>
   </g>
   <g id="patch_24">
    <path clip-path="url(#p6c0d3a62c0)" d="M 125.469996 152.2 
L 126.858959 152.2 
L 126.858959 152.2 
L 125.469996 152.2 
z
" style="fill:#348abd;opacity:0.2;"/>
   </g>
   <g id="patch_25">
    <path clip-path="url(#p6c0d3a62c0)" d="M 127.206199 152.2 
L 128.595162 152.2 
L 128.595162 152.2 
L 127.206199 152.2 
z
" style="fill:#348abd;opacity:0.2;"/>
   </g>
   <g id="patch_26">
    <path clip-path="url(#p6c0d3a62c0)" d="M 128.942402 152.2 
L 130.331365 152.2 
L 130.331365 152.2 
L 128.942402 152.2 
z
" style="fill:#348abd;opacity:0.2;"/>
   </g>
   <g id="patch_27">
    <path clip-path="url(#p6c0d3a62c0)" d="M 130.678605 152.2 
L 132.067568 152.2 
L 132.067568 152.2 
L 130.678605 152.2 
z
" style="fill:#348abd;opacity:0.2;"/>
   </g>
   <g id="patch_28">
    <path clip-path="url(#p6c0d3a62c0)" d="M 132.414808 152.2 
L 133.803771 152.2 
L 133.803771 152.2 
L 132.414808 152.2 
z
" style="fill:#348abd;opacity:0.2;"/>
   </g>
   <g id="patch_29">
    <path clip-path="url(#p6c0d3a62c0)" d="M 134.151011 152.2 
L 135.539974 152.2 
L 135.539974 152.2 
L 134.151011 152.2 
z
" style="fill:#348abd;opacity:0.2;"/>
   </g>
   <g id="patch_30">
    <path clip-path="url(#p6c0d3a62c0)" d="M 135.887214 152.2 
L 137.276177 152.2 
L 137.276177 152.2 
L 135.887214 152.2 
z
" style="fill:#348abd;opacity:0.2;"/>
   </g>
   <g id="patch_31">
    <path clip-path="url(#p6c0d3a62c0)" d="M 137.623417 152.2 
L 139.01238 152.2 
L 139.01238 152.2 
L 137.623417 152.2 
z
" style="fill:#348abd;opacity:0.2;"/>
   </g>
   <g id="patch_32">
    <path clip-path="url(#p6c0d3a62c0)" d="M 139.35962 152.2 
L 140.748582 152.2 
L 140.748582 152.2 
L 139.35962 152.2 
z
" style="fill:#348abd;opacity:0.2;"/>
   </g>
   <g id="patch_33">
    <path clip-path="url(#p6c0d3a62c0)" d="M 141.095823 152.2 
L 142.484785 152.2 
L 142.484785 152.2 
L 141.095823 152.2 
z
" style="fill:#348abd;opacity:0.2;"/>
   </g>
   <g id="patch_34">
    <path clip-path="url(#p6c0d3a62c0)" d="M 142.832026 152.2 
L 144.220988 152.2 
L 144.220988 152.2 
L 142.832026 152.2 
z
" style="fill:#348abd;opacity:0.2;"/>
   </g>
   <g id="patch_35">
    <path clip-path="url(#p6c0d3a62c0)" d="M 144.568229 152.2 
L 145.957191 152.2 
L 145.957191 152.2 
L 144.568229 152.2 
z
" style="fill:#348abd;opacity:0.2;"/>
   </g>
   <g id="patch_36">
    <path clip-path="url(#p6c0d3a62c0)" d="M 146.304432 152.2 
L 147.693394 152.2 
L 147.693394 152.2 
L 146.304432 152.2 
z
" style="fill:#348abd;opacity:0.2;"/>
   </g>
   <g id="patch_37">
    <path clip-path="url(#p6c0d3a62c0)" d="M 148.040635 152.2 
L 149.429597 152.2 
L 149.429597 152.2 
L 148.040635 152.2 
z
" style="fill:#348abd;opacity:0.2;"/>
   </g>
   <g id="patch_38">
    <path clip-path="url(#p6c0d3a62c0)" d="M 149.776838 152.2 
L 151.1658 152.2 
L 151.1658 152.2 
L 149.776838 152.2 
z
" style="fill:#348abd;opacity:0.2;"/>
   </g>
   <g id="patch_39">
    <path clip-path="url(#p6c0d3a62c0)" d="M 151.513041 152.2 
L 152.902003 152.2 
L 152.902003 152.2 
L 151.513041 152.2 
z
" style="fill:#348abd;opacity:0.2;"/>
   </g>
   <g id="patch_40">
    <path clip-path="url(#p6c0d3a62c0)" d="M 153.249244 152.2 
L 154.638206 152.2 
L 154.638206 152.2 
L 153.249244 152.2 
z
" style="fill:#348abd;opacity:0.2;"/>
   </g>
   <g id="patch_41">
    <path clip-path="url(#p6c0d3a62c0)" d="M 154.985447 152.2 
L 156.374409 152.2 
L 156.374409 152.2 
L 154.985447 152.2 
z
" style="fill:#348abd;opacity:0.2;"/>
   </g>
   <g id="patch_42">
    <path clip-path="url(#p6c0d3a62c0)" d="M 156.72165 152.2 
L 158.110612 152.2 
L 158.110612 152.2 
L 156.72165 152.2 
z
" style="fill:#348abd;opacity:0.2;"/>
   </g>
   <g id="patch_43">
    <path clip-path="url(#p6c0d3a62c0)" d="M 158.457853 152.2 
L 159.846815 152.2 
L 159.846815 152.2 
L 158.457853 152.2 
z
" style="fill:#348abd;opacity:0.2;"/>
   </g>
   <g id="patch_44">
    <path clip-path="url(#p6c0d3a62c0)" d="M 160.194056 152.2 
L 161.583018 152.2 
L 161.583018 152.2 
L 160.194056 152.2 
z
" style="fill:#348abd;opacity:0.2;"/>
   </g>
   <g id="patch_45">
    <path clip-path="url(#p6c0d3a62c0)" d="M 161.930259 152.2 
L 163.319221 152.2 
L 163.319221 152.2 
L 161.930259 152.2 
z
" style="fill:#348abd;opacity:0.2;"/>
   </g>
   <g id="patch_46">
    <path clip-path="url(#p6c0d3a62c0)" d="M 163.666462 152.2 
L 165.055424 152.2 
L 165.055424 152.195293 
L 163.666462 152.195293 
z
" style="fill:#348abd;opacity:0.2;"/>
   </g>
   <g id="patch_47">
    <path clip-path="url(#p6c0d3a62c0)" d="M 165.402665 152.2 
L 166.791627 152.2 
L 166.791627 152.2 
L 165.402665 152.2 
z
" style="fill:#348abd;opacity:0.2;"/>
   </g>
   <g id="patch_48">
    <path clip-path="url(#p6c0d3a62c0)" d="M 167.138868 152.2 
L 168.52783 152.2 
L 168.52783 152.2 
L 167.138868 152.2 
z
" style="fill:#348abd;opacity:0.2;"/>
   </g>
   <g id="patch_49">
    <path clip-path="url(#p6c0d3a62c0)" d="M 168.875071 152.2 
L 170.264033 152.2 
L 170.264033 152.195293 
L 168.875071 152.195293 
z
" style="fill:#348abd;opacity:0.2;"/>
   </g>
   <g id="patch_50">
    <path clip-path="url(#p6c0d3a62c0)" d="M 170.611274 152.2 
L 172.000236 152.2 
L 172.000236 152.157641 
L 170.611274 152.157641 
z
" style="fill:#348abd;opacity:0.2;"/>
   </g>
   <g id="patch_51">
    <path clip-path="url(#p6c0d3a62c0)" d="M 172.347477 152.2 
L 173.736439 152.2 
L 173.736439 152.2 
L 172.347477 152.2 
z
" style="fill:#348abd;opacity:0.2;"/>
   </g>
   <g id="patch_52">
    <path clip-path="url(#p6c0d3a62c0)" d="M 174.08368 152.2 
L 175.472642 152.2 
L 175.472642 152.181174 
L 174.08368 152.181174 
z
" style="fill:#348abd;opacity:0.2;"/>
   </g>
   <g id="patch_53">
    <path clip-path="url(#p6c0d3a62c0)" d="M 175.819883 152.2 
L 177.208845 152.2 
L 177.208845 152.2 
L 175.819883 152.2 
z
" style="fill:#348abd;opacity:0.2;"/>
   </g>
   <g id="patch_54">
    <path clip-path="url(#p6c0d3a62c0)" d="M 177.556086 152.2 
L 178.945048 152.2 
L 178.945048 152.18588 
L 177.556086 152.18588 
z
" style="fill:#348abd;opacity:0.2;"/>
   </g>
   <g id="patch_55">
    <path clip-path="url(#p6c0d3a62c0)" d="M 179.292289 152.2 
L 180.681251 152.2 
L 180.681251 152.2 
L 179.292289 152.2 
z
" style="fill:#348abd;opacity:0.2;"/>
   </g>
   <g id="patch_56">
    <path clip-path="url(#p6c0d3a62c0)" d="M 181.028492 152.2 
L 182.417454 152.2 
L 182.417454 152.162348 
L 181.028492 152.162348 
z
" style="fill:#348abd;opacity:0.2;"/>
   </g>
   <g id="patch_57">
    <path clip-path="url(#p6c0d3a62c0)" d="M 182.764695 152.2 
L 184.153657 152.2 
L 184.153657 152.119989 
L 182.764695 152.119989 
z
" style="fill:#348abd;opacity:0.2;"/>
   </g>
   <g id="patch_58">
    <path clip-path="url(#p6c0d3a62c0)" d="M 184.500898 152.2 
L 185.88986 152.2 
L 185.88986 152.134109 
L 184.500898 152.134109 
z
" style="fill:#348abd;opacity:0.2;"/>
   </g>
   <g id="patch_59">
    <path clip-path="url(#p6c0d3a62c0)" d="M 186.237101 152.2 
L 187.626063 152.2 
L 187.626063 152.181174 
L 186.237101 152.181174 
z
" style="fill:#348abd;opacity:0.2;"/>
   </g>
   <g id="patch_60">
    <path clip-path="url(#p6c0d3a62c0)" d="M 187.973304 152.2 
L 189.362266 152.2 
L 189.362266 152.072924 
L 187.973304 152.072924 
z
" style="fill:#348abd;opacity:0.2;"/>
   </g>
   <g id="patch_61">
    <path clip-path="url(#p6c0d3a62c0)" d="M 189.709507 152.2 
L 191.098469 152.2 
L 191.098469 152.087043 
L 189.709507 152.087043 
z
" style="fill:#348abd;opacity:0.2;"/>
   </g>
   <g id="patch_62">
    <path clip-path="url(#p6c0d3a62c0)" d="M 191.44571 152.2 
L 192.834672 152.2 
L 192.834672 152.044685 
L 191.44571 152.044685 
z
" style="fill:#348abd;opacity:0.2;"/>
   </g>
   <g id="patch_63">
    <path clip-path="url(#p6c0d3a62c0)" d="M 193.181913 152.2 
L 194.570875 152.2 
L 194.570875 151.955261 
L 193.181913 151.955261 
z
" style="fill:#348abd;opacity:0.2;"/>
   </g>
   <g id="patch_64">
    <path clip-path="url(#p6c0d3a62c0)" d="M 194.918116 152.2 
L 196.307078 152.2 
L 196.307078 151.945848 
L 194.918116 151.945848 
z
" style="fill:#348abd;opacity:0.2;"/>
   </g>
   <g id="patch_65">
    <path clip-path="url(#p6c0d3a62c0)" d="M 196.654319 152.2 
L 198.043281 152.2 
L 198.043281 151.950554 
L 196.654319 151.950554 
z
" style="fill:#348abd;opacity:0.2;"/>
   </g>
   <g id="patch_66">
    <path clip-path="url(#p6c0d3a62c0)" d="M 198.390522 152.2 
L 199.779484 152.2 
L 199.779484 151.912902 
L 198.390522 151.912902 
z
" style="fill:#348abd;opacity:0.2;"/>
   </g>
   <g id="patch_67">
    <path clip-path="url(#p6c0d3a62c0)" d="M 200.126725 152.2 
L 201.515687 152.2 
L 201.515687 151.865837 
L 200.126725 151.865837 
z
" style="fill:#348abd;opacity:0.2;"/>
   </g>
   <g id="patch_68">
    <path clip-path="url(#p6c0d3a62c0)" d="M 201.862928 152.2 
L 203.25189 152.2 
L 203.25189 151.931728 
L 201.862928 151.931728 
z
" style="fill:#348abd;opacity:0.2;"/>
   </g>
   <g id="patch_69">
    <path clip-path="url(#p6c0d3a62c0)" d="M 203.599131 152.2 
L 204.988093 152.2 
L 204.988093 151.432836 
L 203.599131 151.432836 
z
" style="fill:#348abd;opacity:0.2;"/>
   </g>
   <g id="patch_70">
    <path clip-path="url(#p6c0d3a62c0)" d="M 205.335334 152.2 
L 206.724296 152.2 
L 206.724296 151.343412 
L 205.335334 151.343412 
z
" style="fill:#348abd;opacity:0.2;"/>
   </g>
   <g id="patch_71">
    <path clip-path="url(#p6c0d3a62c0)" d="M 207.071537 152.2 
L 208.460499 152.2 
L 208.460499 151.277521 
L 207.071537 151.277521 
z
" style="fill:#348abd;opacity:0.2;"/>
   </g>
   <g id="patch_72">
    <path clip-path="url(#p6c0d3a62c0)" d="M 208.80774 152.2 
L 210.196702 152.2 
L 210.196702 151.126912 
L 208.80774 151.126912 
z
" style="fill:#348abd;opacity:0.2;"/>
   </g>
   <g id="patch_73">
    <path clip-path="url(#p6c0d3a62c0)" d="M 210.543943 152.2 
L 211.932905 152.2 
L 211.932905 150.929238 
L 210.543943 150.929238 
z
" style="fill:#348abd;opacity:0.2;"/>
   </g>
   <g id="patch_74">
    <path clip-path="url(#p6c0d3a62c0)" d="M 212.280146 152.2 
L 213.669108 152.2 
L 213.669108 150.778629 
L 212.280146 150.778629 
z
" style="fill:#348abd;opacity:0.2;"/>
   </g>
   <g id="patch_75">
    <path clip-path="url(#p6c0d3a62c0)" d="M 214.016349 152.2 
L 215.405311 152.2 
L 215.405311 149.84203 
L 214.016349 149.84203 
z
" style="fill:#348abd;opacity:0.2;"/>
   </g>
   <g id="patch_76">
    <path clip-path="url(#p6c0d3a62c0)" d="M 215.752552 152.2 
L 217.141514 152.2 
L 217.141514 150.129128 
L 215.752552 150.129128 
z
" style="fill:#348abd;opacity:0.2;"/>
   </g>
   <g id="patch_77">
    <path clip-path="url(#p6c0d3a62c0)" d="M 217.488754 152.2 
L 218.877717 152.2 
L 218.877717 148.571267 
L 217.488754 148.571267 
z
" style="fill:#348abd;opacity:0.2;"/>
   </g>
   <g id="patch_78">
    <path clip-path="url(#p6c0d3a62c0)" d="M 219.224957 152.2 
L 220.61392 152.2 
L 220.61392 149.371377 
L 219.224957 149.371377 
z
" style="fill:#348abd;opacity:0.2;"/>
   </g>
   <g id="patch_79">
    <path clip-path="url(#p6c0d3a62c0)" d="M 220.96116 152.2 
L 222.350123 152.2 
L 222.350123 149.460801 
L 220.96116 149.460801 
z
" style="fill:#348abd;opacity:0.2;"/>
   </g>
   <g id="patch_80">
    <path clip-path="url(#p6c0d3a62c0)" d="M 222.697363 152.2 
L 224.086326 152.2 
L 224.086326 149.103105 
L 222.697363 149.103105 
z
" style="fill:#348abd;opacity:0.2;"/>
   </g>
   <g id="patch_81">
    <path clip-path="url(#p6c0d3a62c0)" d="M 224.433566 152.2 
L 225.822529 152.2 
L 225.822529 147.709973 
L 224.433566 147.709973 
z
" style="fill:#348abd;opacity:0.2;"/>
   </g>
   <g id="patch_82">
    <path clip-path="url(#p6c0d3a62c0)" d="M 226.169769 152.2 
L 227.558732 152.2 
L 227.558732 146.768667 
L 226.169769 146.768667 
z
" style="fill:#348abd;opacity:0.2;"/>
   </g>
   <g id="patch_83">
    <path clip-path="url(#p6c0d3a62c0)" d="M 227.905972 152.2 
L 229.294935 152.2 
L 229.294935 146.66983 
L 227.905972 146.66983 
z
" style="fill:#348abd;opacity:0.2;"/>
   </g>
   <g id="patch_84">
    <path clip-path="url(#p6c0d3a62c0)" d="M 229.642175 152.2 
L 231.031138 152.2 
L 231.031138 145.333176 
L 229.642175 145.333176 
z
" style="fill:#348abd;opacity:0.2;"/>
   </g>
   <g id="patch_85">
    <path clip-path="url(#p6c0d3a62c0)" d="M 231.378378 152.2 
L 232.767341 152.2 
L 232.767341 143.794141 
L 231.378378 143.794141 
z
" style="fill:#348abd;opacity:0.2;"/>
   </g>
   <g id="patch_86">
    <path clip-path="url(#p6c0d3a62c0)" d="M 233.114581 152.2 
L 234.503544 152.2 
L 234.503544 144.354218 
L 233.114581 144.354218 
z
" style="fill:#348abd;opacity:0.2;"/>
   </g>
   <g id="patch_87">
    <path clip-path="url(#p6c0d3a62c0)" d="M 234.850784 152.2 
L 236.239747 152.2 
L 236.239747 141.91153 
L 234.850784 141.91153 
z
" style="fill:#348abd;opacity:0.2;"/>
   </g>
   <g id="patch_88">
    <path clip-path="url(#p6c0d3a62c0)" d="M 236.586987 152.2 
L 237.97595 152.2 
L 237.97595 140.160702 
L 236.586987 140.160702 
z
" style="fill:#348abd;opacity:0.2;"/>
   </g>
   <g id="patch_89">
    <path clip-path="url(#p6c0d3a62c0)" d="M 238.32319 152.2 
L 239.712153 152.2 
L 239.712153 139.144092 
L 238.32319 139.144092 
z
" style="fill:#348abd;opacity:0.2;"/>
   </g>
   <g id="patch_90">
    <path clip-path="url(#p6c0d3a62c0)" d="M 240.059393 152.2 
L 241.448356 152.2 
L 241.448356 136.254284 
L 240.059393 136.254284 
z
" style="fill:#348abd;opacity:0.2;"/>
   </g>
   <g id="patch_91">
    <path clip-path="url(#p6c0d3a62c0)" d="M 241.795596 152.2 
L 243.184559 152.2 
L 243.184559 135.971892 
L 241.795596 135.971892 
z
" style="fill:#348abd;opacity:0.2;"/>
   </g>
   <g id="patch_92">
    <path clip-path="url(#p6c0d3a62c0)" d="M 243.531799 152.2 
L 244.920762 152.2 
L 244.920762 133.044432 
L 243.531799 133.044432 
z
" style="fill:#348abd;opacity:0.2;"/>
   </g>
   <g id="patch_93">
    <path clip-path="url(#p6c0d3a62c0)" d="M 245.268002 152.2 
L 246.656965 152.2 
L 246.656965 129.679265 
L 245.268002 129.679265 
z
" style="fill:#348abd;opacity:0.2;"/>
   </g>
   <g id="patch_94">
    <path clip-path="url(#p6c0d3a62c0)" d="M 247.004205 152.2 
L 248.393168 152.2 
L 248.393168 123.678442 
L 247.004205 123.678442 
z
" style="fill:#348abd;opacity:0.2;"/>
   </g>
   <g id="patch_95">
    <path clip-path="url(#p6c0d3a62c0)" d="M 248.740408 152.2 
L 250.129371 152.2 
L 250.129371 132.11254 
L 248.740408 132.11254 
z
" style="fill:#348abd;opacity:0.2;"/>
   </g>
   <g id="patch_96">
    <path clip-path="url(#p6c0d3a62c0)" d="M 250.476611 152.2 
L 251.865574 152.2 
L 251.865574 125.645771 
L 250.476611 125.645771 
z
" style="fill:#348abd;opacity:0.2;"/>
   </g>
   <g id="patch_97">
    <path clip-path="url(#p6c0d3a62c0)" d="M 252.212814 152.2 
L 253.601777 152.2 
L 253.601777 127.556621 
L 252.212814 127.556621 
z
" style="fill:#348abd;opacity:0.2;"/>
   </g>
   <g id="patch_98">
    <path clip-path="url(#p6c0d3a62c0)" d="M 253.949017 152.2 
L 255.33798 152.2 
L 255.33798 129.731037 
L 253.949017 129.731037 
z
" style="fill:#348abd;opacity:0.2;"/>
   </g>
   <g id="patch_99">
    <path clip-path="url(#p6c0d3a62c0)" d="M 255.68522 152.2 
L 257.074183 152.2 
L 257.074183 124.671519 
L 255.68522 124.671519 
z
" style="fill:#348abd;opacity:0.2;"/>
   </g>
   <g id="patch_100">
    <path clip-path="url(#p6c0d3a62c0)" d="M 257.421423 152.2 
L 258.810386 152.2 
L 258.810386 124.120856 
L 257.421423 124.120856 
z
" style="fill:#348abd;opacity:0.2;"/>
   </g>
   <g id="patch_101">
    <path clip-path="url(#p6c0d3a62c0)" d="M 259.157626 152.2 
L 260.546589 152.2 
L 260.546589 122.261777 
L 259.157626 122.261777 
z
" style="fill:#348abd;opacity:0.2;"/>
   </g>
   <g id="patch_102">
    <path clip-path="url(#p6c0d3a62c0)" d="M 260.893829 152.2 
L 262.282792 152.2 
L 262.282792 123.028941 
L 260.893829 123.028941 
z
" style="fill:#348abd;opacity:0.2;"/>
   </g>
   <g id="patch_103">
    <path clip-path="url(#p6c0d3a62c0)" d="M 262.630032 152.2 
L 264.018995 152.2 
L 264.018995 122.026451 
L 262.630032 122.026451 
z
" style="fill:#348abd;opacity:0.2;"/>
   </g>
   <g id="patch_104">
    <path clip-path="url(#p6c0d3a62c0)" d="M 264.366235 152.2 
L 265.755198 152.2 
L 265.755198 124.709172 
L 264.366235 124.709172 
z
" style="fill:#348abd;opacity:0.2;"/>
   </g>
   <g id="patch_105">
    <path clip-path="url(#p6c0d3a62c0)" d="M 266.102438 152.2 
L 267.4914 152.2 
L 267.4914 118.78836 
L 266.102438 118.78836 
z
" style="fill:#348abd;opacity:0.2;"/>
   </g>
   <g id="patch_106">
    <path clip-path="url(#p6c0d3a62c0)" d="M 267.838641 152.2 
L 269.227603 152.2 
L 269.227603 114.863116 
L 267.838641 114.863116 
z
" style="fill:#348abd;opacity:0.2;"/>
   </g>
   <g id="patch_107">
    <path clip-path="url(#p6c0d3a62c0)" d="M 269.574844 152.2 
L 270.963806 152.2 
L 270.963806 106.909084 
L 269.574844 106.909084 
z
" style="fill:#348abd;opacity:0.2;"/>
   </g>
   <g id="patch_108">
    <path clip-path="url(#p6c0d3a62c0)" d="M 271.311047 152.2 
L 272.700009 152.2 
L 272.700009 102.155491 
L 271.311047 102.155491 
z
" style="fill:#348abd;opacity:0.2;"/>
   </g>
   <g id="patch_109">
    <path clip-path="url(#p6c0d3a62c0)" d="M 273.04725 152.2 
L 274.436212 152.2 
L 274.436212 102.40023 
L 273.04725 102.40023 
z
" style="fill:#348abd;opacity:0.2;"/>
   </g>
   <g id="patch_110">
    <path clip-path="url(#p6c0d3a62c0)" d="M 274.783453 152.2 
L 276.172415 152.2 
L 276.172415 104.654657 
L 274.783453 104.654657 
z
" style="fill:#348abd;opacity:0.2;"/>
   </g>
   <g id="patch_111">
    <path clip-path="url(#p6c0d3a62c0)" d="M 276.519656 152.2 
L 277.908618 152.2 
L 277.908618 102.503774 
L 276.519656 102.503774 
z
" style="fill:#348abd;opacity:0.2;"/>
   </g>
   <g id="patch_112">
    <path clip-path="url(#p6c0d3a62c0)" d="M 278.255859 152.2 
L 279.644821 152.2 
L 279.644821 99.340987 
L 278.255859 99.340987 
z
" style="fill:#348abd;opacity:0.2;"/>
   </g>
   <g id="patch_113">
    <path clip-path="url(#p6c0d3a62c0)" d="M 279.992062 152.2 
L 281.381024 152.2 
L 281.381024 101.84486 
L 279.992062 101.84486 
z
" style="fill:#348abd;opacity:0.2;"/>
   </g>
   <g id="patch_114">
    <path clip-path="url(#p6c0d3a62c0)" d="M 281.728265 152.2 
L 283.117227 152.2 
L 283.117227 101.28949 
L 281.728265 101.28949 
z
" style="fill:#348abd;opacity:0.2;"/>
   </g>
   <g id="patch_115">
    <path clip-path="url(#p6c0d3a62c0)" d="M 283.464468 152.2 
L 284.85343 152.2 
L 284.85343 100.371717 
L 283.464468 100.371717 
z
" style="fill:#348abd;opacity:0.2;"/>
   </g>
   <g id="patch_116">
    <path clip-path="url(#p6c0d3a62c0)" d="M 285.200671 152.2 
L 286.589633 152.2 
L 286.589633 97.340713 
L 285.200671 97.340713 
z
" style="fill:#348abd;opacity:0.2;"/>
   </g>
   <g id="patch_117">
    <path clip-path="url(#p6c0d3a62c0)" d="M 286.936874 152.2 
L 288.325836 152.2 
L 288.325836 100.903554 
L 286.936874 100.903554 
z
" style="fill:#348abd;opacity:0.2;"/>
   </g>
   <g id="patch_118">
    <path clip-path="url(#p6c0d3a62c0)" d="M 288.673077 152.2 
L 290.062039 152.2 
L 290.062039 105.00294 
L 288.673077 105.00294 
z
" style="fill:#348abd;opacity:0.2;"/>
   </g>
   <g id="patch_119">
    <path clip-path="url(#p6c0d3a62c0)" d="M 290.40928 152.2 
L 291.798242 152.2 
L 291.798242 105.257092 
L 290.40928 105.257092 
z
" style="fill:#348abd;opacity:0.2;"/>
   </g>
   <g id="patch_120">
    <path clip-path="url(#p6c0d3a62c0)" d="M 292.145483 152.2 
L 293.534445 152.2 
L 293.534445 102.320219 
L 292.145483 102.320219 
z
" style="fill:#348abd;opacity:0.2;"/>
   </g>
   <g id="patch_121">
    <path clip-path="url(#p6c0d3a62c0)" d="M 293.881686 152.2 
L 295.270648 152.2 
L 295.270648 108.899945 
L 293.881686 108.899945 
z
" style="fill:#348abd;opacity:0.2;"/>
   </g>
   <g id="patch_122">
    <path clip-path="url(#p6c0d3a62c0)" d="M 295.617889 152.2 
L 297.006851 152.2 
L 297.006851 106.504322 
L 295.617889 106.504322 
z
" style="fill:#348abd;opacity:0.2;"/>
   </g>
   <g id="patch_123">
    <path clip-path="url(#p6c0d3a62c0)" d="M 297.354092 152.2 
L 298.743054 152.2 
L 298.743054 110.189533 
L 297.354092 110.189533 
z
" style="fill:#348abd;opacity:0.2;"/>
   </g>
   <g id="patch_124">
    <path clip-path="url(#p6c0d3a62c0)" d="M 299.090295 152.2 
L 300.479257 152.2 
L 300.479257 108.603434 
L 299.090295 108.603434 
z
" style="fill:#348abd;opacity:0.2;"/>
   </g>
   <g id="patch_125">
    <path clip-path="url(#p6c0d3a62c0)" d="M 300.826498 152.2 
L 302.21546 152.2 
L 302.21546 110.951991 
L 300.826498 110.951991 
z
" style="fill:#348abd;opacity:0.2;"/>
   </g>
   <g id="patch_126">
    <path clip-path="url(#p6c0d3a62c0)" d="M 302.562701 152.2 
L 303.951663 152.2 
L 303.951663 110.551936 
L 302.562701 110.551936 
z
" style="fill:#348abd;opacity:0.2;"/>
   </g>
   <g id="patch_127">
    <path clip-path="url(#p6c0d3a62c0)" d="M 304.298904 152.2 
L 305.687866 152.2 
L 305.687866 110.340142 
L 304.298904 110.340142 
z
" style="fill:#348abd;opacity:0.2;"/>
   </g>
   <g id="patch_128">
    <path clip-path="url(#p6c0d3a62c0)" d="M 306.035107 152.2 
L 307.424069 152.2 
L 307.424069 107.798617 
L 306.035107 107.798617 
z
" style="fill:#348abd;opacity:0.2;"/>
   </g>
   <g id="patch_129">
    <path clip-path="url(#p6c0d3a62c0)" d="M 307.77131 152.2 
L 309.160272 152.2 
L 309.160272 111.728568 
L 307.77131 111.728568 
z
" style="fill:#348abd;opacity:0.2;"/>
   </g>
   <g id="patch_130">
    <path clip-path="url(#p6c0d3a62c0)" d="M 309.507513 152.2 
L 310.896475 152.2 
L 310.896475 110.095403 
L 309.507513 110.095403 
z
" style="fill:#348abd;opacity:0.2;"/>
   </g>
   <g id="patch_131">
    <path clip-path="url(#p6c0d3a62c0)" d="M 311.243716 152.2 
L 312.632678 152.2 
L 312.632678 110.241305 
L 311.243716 110.241305 
z
" style="fill:#348abd;opacity:0.2;"/>
   </g>
   <g id="patch_132">
    <path clip-path="url(#p6c0d3a62c0)" d="M 312.979919 152.2 
L 314.368881 152.2 
L 314.368881 112.956972 
L 312.979919 112.956972 
z
" style="fill:#348abd;opacity:0.2;"/>
   </g>
   <g id="patch_133">
    <path clip-path="url(#p6c0d3a62c0)" d="M 314.716122 152.2 
L 316.105084 152.2 
L 316.105084 112.801656 
L 314.716122 112.801656 
z
" style="fill:#348abd;opacity:0.2;"/>
   </g>
   <g id="patch_134">
    <path clip-path="url(#p6c0d3a62c0)" d="M 316.452325 152.2 
L 317.841287 152.2 
L 317.841287 111.855644 
L 316.452325 111.855644 
z
" style="fill:#348abd;opacity:0.2;"/>
   </g>
   <g id="patch_135">
    <path clip-path="url(#p6c0d3a62c0)" d="M 318.188528 152.2 
L 319.57749 152.2 
L 319.57749 110.067164 
L 318.188528 110.067164 
z
" style="fill:#348abd;opacity:0.2;"/>
   </g>
   <g id="patch_136">
    <path clip-path="url(#p6c0d3a62c0)" d="M 319.924731 152.2 
L 321.313693 152.2 
L 321.313693 108.579901 
L 319.924731 108.579901 
z
" style="fill:#348abd;opacity:0.2;"/>
   </g>
   <g id="patch_137">
    <path clip-path="url(#p6c0d3a62c0)" d="M 321.660934 152.2 
L 323.049896 152.2 
L 323.049896 112.265112 
L 321.660934 112.265112 
z
" style="fill:#348abd;opacity:0.2;"/>
   </g>
   <g id="patch_138">
    <path clip-path="url(#p6c0d3a62c0)" d="M 323.397137 152.2 
L 324.786099 152.2 
L 324.786099 110.509577 
L 323.397137 110.509577 
z
" style="fill:#348abd;opacity:0.2;"/>
   </g>
   <g id="patch_139">
    <path clip-path="url(#p6c0d3a62c0)" d="M 325.13334 152.2 
L 326.522302 152.2 
L 326.522302 112.058025 
L 325.13334 112.058025 
z
" style="fill:#348abd;opacity:0.2;"/>
   </g>
   <g id="patch_140">
    <path clip-path="url(#p6c0d3a62c0)" d="M 326.869543 152.2 
L 328.258505 152.2 
L 328.258505 110.674306 
L 326.869543 110.674306 
z
" style="fill:#348abd;opacity:0.2;"/>
   </g>
   <g id="patch_141">
    <path clip-path="url(#p6c0d3a62c0)" d="M 328.605746 152.2 
L 329.994708 152.2 
L 329.994708 111.168491 
L 328.605746 111.168491 
z
" style="fill:#348abd;opacity:0.2;"/>
   </g>
   <g id="patch_142">
    <path clip-path="url(#p6c0d3a62c0)" d="M 330.341949 152.2 
L 331.730911 152.2 
L 331.730911 110.566056 
L 330.341949 110.566056 
z
" style="fill:#348abd;opacity:0.2;"/>
   </g>
   <g id="patch_143">
    <path clip-path="url(#p6c0d3a62c0)" d="M 332.078152 152.2 
L 333.467114 152.2 
L 333.467114 109.97774 
L 332.078152 109.97774 
z
" style="fill:#348abd;opacity:0.2;"/>
   </g>
   <g id="patch_144">
    <path clip-path="url(#p6c0d3a62c0)" d="M 333.814355 152.2 
L 335.203317 152.2 
L 335.203317 109.982446 
L 333.814355 109.982446 
z
" style="fill:#348abd;opacity:0.2;"/>
   </g>
   <g id="patch_145">
    <path clip-path="url(#p6c0d3a62c0)" d="M 335.550558 152.2 
L 336.93952 152.2 
L 336.93952 111.785046 
L 335.550558 111.785046 
z
" style="fill:#348abd;opacity:0.2;"/>
   </g>
   <g id="patch_146">
    <path clip-path="url(#p6c0d3a62c0)" d="M 337.286761 152.2 
L 338.675723 152.2 
L 338.675723 112.698113 
L 337.286761 112.698113 
z
" style="fill:#348abd;opacity:0.2;"/>
   </g>
   <g id="patch_147">
    <path clip-path="url(#p6c0d3a62c0)" d="M 339.022964 152.2 
L 340.411926 152.2 
L 340.411926 110.890806 
L 339.022964 110.890806 
z
" style="fill:#348abd;opacity:0.2;"/>
   </g>
   <g id="patch_148">
    <path clip-path="url(#p6c0d3a62c0)" d="M 340.759167 152.2 
L 342.148129 152.2 
L 342.148129 110.024805 
L 340.759167 110.024805 
z
" style="fill:#348abd;opacity:0.2;"/>
   </g>
   <g id="patch_149">
    <path clip-path="url(#p6c0d3a62c0)" d="M 342.495369 152.2 
L 343.884332 152.2 
L 343.884332 111.267328 
L 342.495369 111.267328 
z
" style="fill:#348abd;opacity:0.2;"/>
   </g>
   <g id="patch_150">
    <path clip-path="url(#p6c0d3a62c0)" d="M 344.231572 152.2 
L 345.620535 152.2 
L 345.620535 110.740197 
L 344.231572 110.740197 
z
" style="fill:#348abd;opacity:0.2;"/>
   </g>
   <g id="patch_151">
    <path clip-path="url(#p6c0d3a62c0)" d="M 345.967775 152.2 
L 347.356738 152.2 
L 347.356738 113.526462 
L 345.967775 113.526462 
z
" style="fill:#348abd;opacity:0.2;"/>
   </g>
   <g id="patch_152">
    <path clip-path="url(#p6c0d3a62c0)" d="M 347.703978 152.2 
L 349.092941 152.2 
L 349.092941 113.413505 
L 347.703978 113.413505 
z
" style="fill:#348abd;opacity:0.2;"/>
   </g>
   <g id="patch_153">
    <path clip-path="url(#p6c0d3a62c0)" d="M 349.440181 152.2 
L 350.829144 152.2 
L 350.829144 115.376127 
L 349.440181 115.376127 
z
" style="fill:#348abd;opacity:0.2;"/>
   </g>
   <g id="patch_154">
    <path clip-path="url(#p6c0d3a62c0)" d="M 351.176384 152.2 
L 352.565347 152.2 
L 352.565347 115.620866 
L 351.176384 115.620866 
z
" style="fill:#348abd;opacity:0.2;"/>
   </g>
   <g id="patch_155">
    <path clip-path="url(#p6c0d3a62c0)" d="M 352.912587 152.2 
L 354.30155 152.2 
L 354.30155 114.684267 
L 352.912587 114.684267 
z
" style="fill:#348abd;opacity:0.2;"/>
   </g>
   <g id="patch_156">
    <path clip-path="url(#p6c0d3a62c0)" d="M 354.64879 152.2 
L 356.037753 152.2 
L 356.037753 115.159627 
L 354.64879 115.159627 
z
" style="fill:#348abd;opacity:0.2;"/>
   </g>
   <g id="patch_157">
    <path clip-path="url(#p6c0d3a62c0)" d="M 356.384993 152.2 
L 357.773956 152.2 
L 357.773956 115.879726 
L 356.384993 115.879726 
z
" style="fill:#348abd;opacity:0.2;"/>
   </g>
   <g id="patch_158">
    <path clip-path="url(#p6c0d3a62c0)" d="M 358.121196 152.2 
L 359.510159 152.2 
L 359.510159 116.496281 
L 358.121196 116.496281 
z
" style="fill:#348abd;opacity:0.2;"/>
   </g>
   <g id="patch_159">
    <path clip-path="url(#p6c0d3a62c0)" d="M 359.857399 152.2 
L 361.246362 152.2 
L 361.246362 117.31051 
L 359.857399 117.31051 
z
" style="fill:#348abd;opacity:0.2;"/>
   </g>
   <g id="patch_160">
    <path clip-path="url(#p6c0d3a62c0)" d="M 361.593602 152.2 
L 362.982565 152.2 
L 362.982565 118.477729 
L 361.593602 118.477729 
z
" style="fill:#348abd;opacity:0.2;"/>
   </g>
   <g id="patch_161">
    <path clip-path="url(#p6c0d3a62c0)" d="M 363.329805 152.2 
L 364.718768 152.2 
L 364.718768 118.76012 
L 363.329805 118.76012 
z
" style="fill:#348abd;opacity:0.2;"/>
   </g>
   <g id="patch_162">
    <path clip-path="url(#p6c0d3a62c0)" d="M 365.066008 152.2 
L 366.454971 152.2 
L 366.454971 120.25209 
L 365.066008 120.25209 
z
" style="fill:#348abd;opacity:0.2;"/>
   </g>
   <g id="patch_163">
    <path clip-path="url(#p6c0d3a62c0)" d="M 366.802211 152.2 
L 368.191174 152.2 
L 368.191174 119.993231 
L 366.802211 119.993231 
z
" style="fill:#348abd;opacity:0.2;"/>
   </g>
   <g id="patch_164">
    <path clip-path="url(#p6c0d3a62c0)" d="M 368.538414 152.2 
L 369.927377 152.2 
L 369.927377 120.270916 
L 368.538414 120.270916 
z
" style="fill:#348abd;opacity:0.2;"/>
   </g>
   <g id="patch_165">
    <path clip-path="url(#p6c0d3a62c0)" d="M 370.274617 152.2 
L 371.66358 152.2 
L 371.66358 120.746275 
L 370.274617 120.746275 
z
" style="fill:#348abd;opacity:0.2;"/>
   </g>
   <g id="patch_166">
    <path clip-path="url(#p6c0d3a62c0)" d="M 372.01082 152.2 
L 373.399783 152.2 
L 373.399783 120.746275 
L 372.01082 120.746275 
z
" style="fill:#348abd;opacity:0.2;"/>
   </g>
   <g id="patch_167">
    <path clip-path="url(#p6c0d3a62c0)" d="M 373.747023 152.2 
L 375.135986 152.2 
L 375.135986 121.372243 
L 373.747023 121.372243 
z
" style="fill:#348abd;opacity:0.2;"/>
   </g>
   <g id="patch_168">
    <path clip-path="url(#p6c0d3a62c0)" d="M 375.483226 152.2 
L 376.872189 152.2 
L 376.872189 120.421525 
L 375.483226 120.421525 
z
" style="fill:#348abd;opacity:0.2;"/>
   </g>
   <g id="patch_169">
    <path clip-path="url(#p6c0d3a62c0)" d="M 377.219429 152.2 
L 378.608392 152.2 
L 378.608392 120.619199 
L 377.219429 120.619199 
z
" style="fill:#348abd;opacity:0.2;"/>
   </g>
   <g id="patch_170">
    <path clip-path="url(#p6c0d3a62c0)" d="M 378.955632 152.2 
L 380.344595 152.2 
L 380.344595 121.028667 
L 378.955632 121.028667 
z
" style="fill:#348abd;opacity:0.2;"/>
   </g>
   <g id="patch_171">
    <path clip-path="url(#p6c0d3a62c0)" d="M 380.691835 152.2 
L 382.080798 152.2 
L 382.080798 120.57684 
L 380.691835 120.57684 
z
" style="fill:#348abd;opacity:0.2;"/>
   </g>
   <g id="patch_172">
    <path clip-path="url(#p6c0d3a62c0)" d="M 382.428038 152.2 
L 383.817001 152.2 
L 383.817001 121.282819 
L 382.428038 121.282819 
z
" style="fill:#348abd;opacity:0.2;"/>
   </g>
   <g id="patch_173">
    <path clip-path="url(#p6c0d3a62c0)" d="M 384.164241 152.2 
L 385.553204 152.2 
L 385.553204 122.252364 
L 384.164241 122.252364 
z
" style="fill:#348abd;opacity:0.2;"/>
   </g>
   <g id="patch_174">
    <path clip-path="url(#p6c0d3a62c0)" d="M 385.900444 152.2 
L 387.289407 152.2 
L 387.289407 121.447548 
L 385.900444 121.447548 
z
" style="fill:#348abd;opacity:0.2;"/>
   </g>
   <g id="patch_175">
    <path clip-path="url(#p6c0d3a62c0)" d="M 387.636647 152.2 
L 389.02561 152.2 
L 389.02561 121.649929 
L 387.636647 121.649929 
z
" style="fill:#348abd;opacity:0.2;"/>
   </g>
   <g id="patch_176">
    <path clip-path="url(#p6c0d3a62c0)" d="M 389.37285 152.2 
L 390.761813 152.2 
L 390.761813 121.028667 
L 389.37285 121.028667 
z
" style="fill:#348abd;opacity:0.2;"/>
   </g>
   <g id="patch_177">
    <path clip-path="url(#p6c0d3a62c0)" d="M 391.109053 152.2 
L 392.498015 152.2 
L 392.498015 121.202808 
L 391.109053 121.202808 
z
" style="fill:#348abd;opacity:0.2;"/>
   </g>
   <g id="patch_178">
    <path clip-path="url(#p6c0d3a62c0)" d="M 392.845256 152.2 
L 394.234218 152.2 
L 394.234218 121.198102 
L 392.845256 121.198102 
z
" style="fill:#348abd;opacity:0.2;"/>
   </g>
   <g id="patch_179">
    <path clip-path="url(#p6c0d3a62c0)" d="M 394.581459 152.2 
L 395.970421 152.2 
L 395.970421 121.555798 
L 394.581459 121.555798 
z
" style="fill:#348abd;opacity:0.2;"/>
   </g>
   <g id="patch_180">
    <path clip-path="url(#p6c0d3a62c0)" d="M 396.317662 152.2 
L 397.706624 152.2 
L 397.706624 122.831267 
L 396.317662 122.831267 
z
" style="fill:#348abd;opacity:0.2;"/>
   </g>
   <g id="patch_181">
    <path clip-path="url(#p6c0d3a62c0)" d="M 398.053865 152.2 
L 399.442827 152.2 
L 399.442827 122.031157 
L 398.053865 122.031157 
z
" style="fill:#348abd;opacity:0.2;"/>
   </g>
   <g id="patch_182">
    <path clip-path="url(#p6c0d3a62c0)" d="M 399.790068 152.2 
L 401.17903 152.2 
L 401.17903 122.007625 
L 399.790068 122.007625 
z
" style="fill:#348abd;opacity:0.2;"/>
   </g>
   <g id="patch_183">
    <path clip-path="url(#p6c0d3a62c0)" d="M 401.526271 152.2 
L 402.915233 152.2 
L 402.915233 122.129994 
L 401.526271 122.129994 
z
" style="fill:#348abd;opacity:0.2;"/>
   </g>
   <g id="patch_184">
    <path clip-path="url(#p6c0d3a62c0)" d="M 403.262474 152.2 
L 404.651436 152.2 
L 404.651436 122.953637 
L 403.262474 122.953637 
z
" style="fill:#348abd;opacity:0.2;"/>
   </g>
   <g id="patch_185">
    <path clip-path="url(#p6c0d3a62c0)" d="M 404.998677 152.2 
L 406.387639 152.2 
L 406.387639 123.509007 
L 404.998677 123.509007 
z
" style="fill:#348abd;opacity:0.2;"/>
   </g>
   <g id="patch_186">
    <path clip-path="url(#p6c0d3a62c0)" d="M 406.73488 152.2 
L 408.123842 152.2 
L 408.123842 124.42678 
L 406.73488 124.42678 
z
" style="fill:#348abd;opacity:0.2;"/>
   </g>
   <g id="patch_187">
    <path clip-path="url(#p6c0d3a62c0)" d="M 408.471083 152.2 
L 409.860045 152.2 
L 409.860045 124.770356 
L 408.471083 124.770356 
z
" style="fill:#348abd;opacity:0.2;"/>
   </g>
   <g id="patch_188">
    <path clip-path="url(#p6c0d3a62c0)" d="M 410.207286 152.2 
L 411.596248 152.2 
L 411.596248 124.666813 
L 410.207286 124.666813 
z
" style="fill:#348abd;opacity:0.2;"/>
   </g>
   <g id="patch_189">
    <path clip-path="url(#p6c0d3a62c0)" d="M 411.943489 152.2 
L 413.332451 152.2 
L 413.332451 124.760943 
L 411.943489 124.760943 
z
" style="fill:#348abd;opacity:0.2;"/>
   </g>
   <g id="patch_190">
    <path clip-path="url(#p6c0d3a62c0)" d="M 413.679692 152.2 
L 415.068654 152.2 
L 415.068654 125.000976 
L 413.679692 125.000976 
z
" style="fill:#348abd;opacity:0.2;"/>
   </g>
   <g id="patch_191">
    <path clip-path="url(#p6c0d3a62c0)" d="M 415.415895 152.2 
L 416.804857 152.2 
L 416.804857 124.746824 
L 415.415895 124.746824 
z
" style="fill:#348abd;opacity:0.2;"/>
   </g>
   <g id="patch_192">
    <path clip-path="url(#p6c0d3a62c0)" d="M 417.152098 152.2 
L 418.54106 152.2 
L 418.54106 125.179824 
L 417.152098 125.179824 
z
" style="fill:#348abd;opacity:0.2;"/>
   </g>
   <g id="patch_193">
    <path clip-path="url(#p6c0d3a62c0)" d="M 418.888301 152.2 
L 420.277263 152.2 
L 420.277263 125.810499 
L 418.888301 125.810499 
z
" style="fill:#348abd;opacity:0.2;"/>
   </g>
   <g id="patch_194">
    <path clip-path="url(#p6c0d3a62c0)" d="M 420.624504 152.2 
L 422.013466 152.2 
L 422.013466 126.878881 
L 420.624504 126.878881 
z
" style="fill:#348abd;opacity:0.2;"/>
   </g>
   <g id="patch_195">
    <path clip-path="url(#p6c0d3a62c0)" d="M 422.360707 152.2 
L 423.749669 152.2 
L 423.749669 126.55413 
L 422.360707 126.55413 
z
" style="fill:#348abd;opacity:0.2;"/>
   </g>
   <g id="patch_196">
    <path clip-path="url(#p6c0d3a62c0)" d="M 424.09691 152.2 
L 425.485872 152.2 
L 425.485872 126.389402 
L 424.09691 126.389402 
z
" style="fill:#348abd;opacity:0.2;"/>
   </g>
   <g id="patch_197">
    <path clip-path="url(#p6c0d3a62c0)" d="M 425.833113 152.2 
L 427.222075 152.2 
L 427.222075 126.464706 
L 425.833113 126.464706 
z
" style="fill:#348abd;opacity:0.2;"/>
   </g>
   <g id="patch_198">
    <path clip-path="url(#p6c0d3a62c0)" d="M 427.569316 152.2 
L 428.958278 152.2 
L 428.958278 126.648261 
L 427.569316 126.648261 
z
" style="fill:#348abd;opacity:0.2;"/>
   </g>
   <g id="patch_199">
    <path clip-path="url(#p6c0d3a62c0)" d="M 429.305519 152.2 
L 430.694481 152.2 
L 430.694481 126.845935 
L 429.305519 126.845935 
z
" style="fill:#348abd;opacity:0.2;"/>
   </g>
   <g id="patch_200">
    <path clip-path="url(#p6c0d3a62c0)" d="M 431.041722 152.2 
L 432.430684 152.2 
L 432.430684 126.954185 
L 431.041722 126.954185 
z
" style="fill:#348abd;opacity:0.2;"/>
   </g>
   <g id="patch_201">
    <path clip-path="url(#p6c0d3a62c0)" d="M 432.777925 152.2 
L 434.166887 152.2 
L 434.166887 128.097871 
L 432.777925 128.097871 
z
" style="fill:#348abd;opacity:0.2;"/>
   </g>
   <g id="patch_202">
    <path clip-path="url(#p6c0d3a62c0)" d="M 434.514128 152.2 
L 435.90309 152.2 
L 435.90309 127.791947 
L 434.514128 127.791947 
z
" style="fill:#348abd;opacity:0.2;"/>
   </g>
   <g id="patch_203">
    <path clip-path="url(#p6c0d3a62c0)" d="M 436.250331 152.2 
L 437.639293 152.2 
L 437.639293 127.542501 
L 436.250331 127.542501 
z
" style="fill:#348abd;opacity:0.2;"/>
   </g>
   <g id="patch_204">
    <path clip-path="url(#p6c0d3a62c0)" d="M 437.986534 152.2 
L 439.375496 152.2 
L 439.375496 127.768415 
L 437.986534 127.768415 
z
" style="fill:#348abd;opacity:0.2;"/>
   </g>
   <g id="patch_205">
    <path clip-path="url(#p6c0d3a62c0)" d="M 439.722737 152.2 
L 441.111699 152.2 
L 441.111699 127.796654 
L 439.722737 127.796654 
z
" style="fill:#348abd;opacity:0.2;"/>
   </g>
   <g id="patch_206">
    <path clip-path="url(#p6c0d3a62c0)" d="M 441.45894 152.2 
L 442.847902 152.2 
L 442.847902 127.93785 
L 441.45894 127.93785 
z
" style="fill:#348abd;opacity:0.2;"/>
   </g>
   <g id="patch_207">
    <path clip-path="url(#p6c0d3a62c0)" d="M 443.195143 152.2 
L 444.584105 152.2 
L 444.584105 128.286133 
L 443.195143 128.286133 
z
" style="fill:#348abd;opacity:0.2;"/>
   </g>
   <g id="patch_208">
    <path clip-path="url(#p6c0d3a62c0)" d="M 444.931346 152.2 
L 446.320308 152.2 
L 446.320308 129.175666 
L 444.931346 129.175666 
z
" style="fill:#348abd;opacity:0.2;"/>
   </g>
   <g id="patch_209">
    <path clip-path="url(#p6c0d3a62c0)" d="M 446.667549 152.2 
L 448.056511 152.2 
L 448.056511 128.413209 
L 446.667549 128.413209 
z
" style="fill:#348abd;opacity:0.2;"/>
   </g>
   <g id="patch_210">
    <path clip-path="url(#p6c0d3a62c0)" d="M 448.403752 152.2 
L 449.792714 152.2 
L 449.792714 128.58735 
L 448.403752 128.58735 
z
" style="fill:#348abd;opacity:0.2;"/>
   </g>
   <g id="patch_211">
    <path clip-path="url(#p6c0d3a62c0)" d="M 450.139955 152.2 
L 451.528917 152.2 
L 451.528917 128.592057 
L 450.139955 128.592057 
z
" style="fill:#348abd;opacity:0.2;"/>
   </g>
   <g id="patch_212">
    <path clip-path="url(#p6c0d3a62c0)" d="M 451.876158 152.2 
L 453.26512 152.2 
L 453.26512 128.526166 
L 451.876158 128.526166 
z
" style="fill:#348abd;opacity:0.2;"/>
   </g>
   <g id="patch_213">
    <path clip-path="url(#p6c0d3a62c0)" d="M 453.612361 152.2 
L 455.001323 152.2 
L 455.001323 129.086242 
L 453.612361 129.086242 
z
" style="fill:#348abd;opacity:0.2;"/>
   </g>
   <g id="patch_214">
    <path clip-path="url(#p6c0d3a62c0)" d="M 455.348564 152.2 
L 456.737526 152.2 
L 456.737526 129.425112 
L 455.348564 129.425112 
z
" style="fill:#348abd;opacity:0.2;"/>
   </g>
   <g id="patch_215">
    <path clip-path="url(#p6c0d3a62c0)" d="M 457.084767 152.2 
L 458.473729 152.2 
L 458.473729 129.994602 
L 457.084767 129.994602 
z
" style="fill:#348abd;opacity:0.2;"/>
   </g>
   <g id="patch_216">
    <path clip-path="url(#p6c0d3a62c0)" d="M 458.82097 152.2 
L 460.209932 152.2 
L 460.209932 129.655732 
L 458.82097 129.655732 
z
" style="fill:#348abd;opacity:0.2;"/>
   </g>
   <g id="patch_217">
    <path clip-path="url(#p6c0d3a62c0)" d="M 460.557173 152.2 
L 461.946135 152.2 
L 461.946135 129.763982 
L 460.557173 129.763982 
z
" style="fill:#348abd;opacity:0.2;"/>
   </g>
   <g id="patch_218">
    <path clip-path="url(#p6c0d3a62c0)" d="M 462.293376 152.2 
L 463.682338 152.2 
L 463.682338 129.429819 
L 462.293376 129.429819 
z
" style="fill:#348abd;opacity:0.2;"/>
   </g>
   <g id="patch_219">
    <path clip-path="url(#p6c0d3a62c0)" d="M 464.029579 152.2 
L 465.418541 152.2 
L 465.418541 129.326275 
L 464.029579 129.326275 
z
" style="fill:#348abd;opacity:0.2;"/>
   </g>
   <g id="patch_220">
    <path clip-path="url(#p6c0d3a62c0)" d="M 465.765782 152.2 
L 467.154744 152.2 
L 467.154744 129.622786 
L 465.765782 129.622786 
z
" style="fill:#348abd;opacity:0.2;"/>
   </g>
   <g id="patch_221">
    <path clip-path="url(#p6c0d3a62c0)" d="M 467.501985 152.2 
L 468.890947 152.2 
L 468.890947 130.135798 
L 467.501985 130.135798 
z
" style="fill:#348abd;opacity:0.2;"/>
   </g>
   <g id="patch_222">
    <path clip-path="url(#p6c0d3a62c0)" d="M 469.238187 152.2 
L 470.62715 152.2 
L 470.62715 130.366418 
L 469.238187 130.366418 
z
" style="fill:#348abd;opacity:0.2;"/>
   </g>
   <g id="patch_223">
    <path clip-path="url(#p6c0d3a62c0)" d="M 470.97439 152.2 
L 472.363353 152.2 
L 472.363353 130.352298 
L 470.97439 130.352298 
z
" style="fill:#348abd;opacity:0.2;"/>
   </g>
   <g id="patch_224">
    <path clip-path="url(#p6c0d3a62c0)" d="M 472.710593 152.2 
L 474.099556 152.2 
L 474.099556 130.196983 
L 472.710593 130.196983 
z
" style="fill:#348abd;opacity:0.2;"/>
   </g>
   <g id="patch_225">
    <path clip-path="url(#p6c0d3a62c0)" d="M 474.446796 152.2 
L 475.835759 152.2 
L 475.835759 129.806341 
L 474.446796 129.806341 
z
" style="fill:#348abd;opacity:0.2;"/>
   </g>
   <g id="patch_226">
    <path clip-path="url(#p6c0d3a62c0)" d="M 476.182999 152.2 
L 477.571962 152.2 
L 477.571962 129.406286 
L 476.182999 129.406286 
z
" style="fill:#348abd;opacity:0.2;"/>
   </g>
   <g id="patch_227">
    <path clip-path="url(#p6c0d3a62c0)" d="M 477.919202 152.2 
L 479.308165 152.2 
L 479.308165 129.152134 
L 477.919202 129.152134 
z
" style="fill:#348abd;opacity:0.2;"/>
   </g>
   <g id="patch_228">
    <path clip-path="url(#p6c0d3a62c0)" d="M 479.655405 152.2 
L 481.044368 152.2 
L 481.044368 128.987405 
L 479.655405 128.987405 
z
" style="fill:#348abd;opacity:0.2;"/>
   </g>
   <g id="patch_229">
    <path clip-path="url(#p6c0d3a62c0)" d="M 481.391608 152.2 
L 482.780571 152.2 
L 482.780571 130.220515 
L 481.391608 130.220515 
z
" style="fill:#348abd;opacity:0.2;"/>
   </g>
   <g id="patch_230">
    <path clip-path="url(#p6c0d3a62c0)" d="M 483.127811 152.2 
L 484.516774 152.2 
L 484.516774 129.17096 
L 483.127811 129.17096 
z
" style="fill:#348abd;opacity:0.2;"/>
   </g>
   <g id="patch_231">
    <path clip-path="url(#p6c0d3a62c0)" d="M 484.864014 152.2 
L 486.252977 152.2 
L 486.252977 128.865036 
L 484.864014 128.865036 
z
" style="fill:#348abd;opacity:0.2;"/>
   </g>
   <g id="patch_232">
    <path clip-path="url(#p6c0d3a62c0)" d="M 486.600217 152.2 
L 487.98918 152.2 
L 487.98918 128.366144 
L 486.600217 128.366144 
z
" style="fill:#348abd;opacity:0.2;"/>
   </g>
   <g id="patch_233">
    <path clip-path="url(#p6c0d3a62c0)" d="M 488.33642 152.2 
L 489.725383 152.2 
L 489.725383 127.989621 
L 488.33642 127.989621 
z
" style="fill:#348abd;opacity:0.2;"/>
   </g>
   <g id="patch_234">
    <path clip-path="url(#p6c0d3a62c0)" d="M 490.072623 152.2 
L 491.461586 152.2 
L 491.461586 128.210828 
L 490.072623 128.210828 
z
" style="fill:#348abd;opacity:0.2;"/>
   </g>
   <g id="patch_235">
    <path clip-path="url(#p6c0d3a62c0)" d="M 491.808826 152.2 
L 493.197789 152.2 
L 493.197789 128.168469 
L 491.808826 128.168469 
z
" style="fill:#348abd;opacity:0.2;"/>
   </g>
   <g id="patch_236">
    <path clip-path="url(#p6c0d3a62c0)" d="M 493.545029 152.2 
L 494.933992 152.2 
L 494.933992 128.573231 
L 493.545029 128.573231 
z
" style="fill:#348abd;opacity:0.2;"/>
   </g>
   <g id="patch_237">
    <path clip-path="url(#p6c0d3a62c0)" d="M 495.281232 152.2 
L 496.670195 152.2 
L 496.670195 127.857839 
L 495.281232 127.857839 
z
" style="fill:#348abd;opacity:0.2;"/>
   </g>
   <g id="patch_238">
    <path clip-path="url(#p6c0d3a62c0)" d="M 497.017435 152.2 
L 498.406398 152.2 
L 498.406398 127.208338 
L 497.017435 127.208338 
z
" style="fill:#348abd;opacity:0.2;"/>
   </g>
   <g id="patch_239">
    <path clip-path="url(#p6c0d3a62c0)" d="M 498.753638 152.2 
L 500.142601 152.2 
L 500.142601 126.685913 
L 498.753638 126.685913 
z
" style="fill:#348abd;opacity:0.2;"/>
   </g>
   <g id="patch_240">
    <path clip-path="url(#p6c0d3a62c0)" d="M 500.489841 152.2 
L 501.878804 152.2 
L 501.878804 126.756511 
L 500.489841 126.756511 
z
" style="fill:#348abd;opacity:0.2;"/>
   </g>
   <g id="patch_241">
    <path clip-path="url(#p6c0d3a62c0)" d="M 502.226044 152.2 
L 503.615007 152.2 
L 503.615007 126.968305 
L 502.226044 126.968305 
z
" style="fill:#348abd;opacity:0.2;"/>
   </g>
   <g id="patch_242">
    <path clip-path="url(#p6c0d3a62c0)" d="M 503.962247 152.2 
L 505.35121 152.2 
L 505.35121 126.718859 
L 503.962247 126.718859 
z
" style="fill:#348abd;opacity:0.2;"/>
   </g>
   <g id="patch_243">
    <path clip-path="url(#p6c0d3a62c0)" d="M 505.69845 152.2 
L 507.087413 152.2 
L 507.087413 126.620022 
L 505.69845 126.620022 
z
" style="fill:#348abd;opacity:0.2;"/>
   </g>
   <g id="patch_244">
    <path clip-path="url(#p6c0d3a62c0)" d="M 507.434653 152.2 
L 508.823616 152.2 
L 508.823616 125.786966 
L 507.434653 125.786966 
z
" style="fill:#348abd;opacity:0.2;"/>
   </g>
   <g id="patch_245">
    <path clip-path="url(#p6c0d3a62c0)" d="M 509.170856 152.2 
L 510.559819 152.2 
L 510.559819 125.528107 
L 509.170856 125.528107 
z
" style="fill:#348abd;opacity:0.2;"/>
   </g>
   <g id="patch_246">
    <path clip-path="url(#p6c0d3a62c0)" d="M 510.907059 152.2 
L 512.296022 152.2 
L 512.296022 124.88802 
L 510.907059 124.88802 
z
" style="fill:#348abd;opacity:0.2;"/>
   </g>
   <g id="patch_247">
    <path clip-path="url(#p6c0d3a62c0)" d="M 512.643262 152.2 
L 514.032225 152.2 
L 514.032225 124.149095 
L 512.643262 124.149095 
z
" style="fill:#348abd;opacity:0.2;"/>
   </g>
   <g id="patch_248">
    <path clip-path="url(#p6c0d3a62c0)" d="M 514.379465 152.2 
L 515.768428 152.2 
L 515.768428 123.758453 
L 514.379465 123.758453 
z
" style="fill:#348abd;opacity:0.2;"/>
   </g>
   <g id="patch_249">
    <path clip-path="url(#p6c0d3a62c0)" d="M 516.115668 152.2 
L 517.504631 152.2 
L 517.504631 123.537246 
L 516.115668 123.537246 
z
" style="fill:#348abd;opacity:0.2;"/>
   </g>
   <g id="patch_250">
    <path clip-path="url(#p6c0d3a62c0)" d="M 517.851871 152.2 
L 519.240833 152.2 
L 519.240833 123.447822 
L 517.851871 123.447822 
z
" style="fill:#348abd;opacity:0.2;"/>
   </g>
   <g id="patch_251">
    <path clip-path="url(#p6c0d3a62c0)" d="M 519.588074 152.2 
L 520.977036 152.2 
L 520.977036 122.407679 
L 519.588074 122.407679 
z
" style="fill:#348abd;opacity:0.2;"/>
   </g>
   <g id="patch_252">
    <path clip-path="url(#p6c0d3a62c0)" d="M 521.324277 152.2 
L 522.713239 152.2 
L 522.713239 121.659342 
L 521.324277 121.659342 
z
" style="fill:#348abd;opacity:0.2;"/>
   </g>
   <g id="patch_253">
    <path clip-path="url(#p6c0d3a62c0)" d="M 523.06048 152.2 
L 524.449442 152.2 
L 524.449442 118.727175 
L 523.06048 118.727175 
z
" style="fill:#348abd;opacity:0.2;"/>
   </g>
   <g id="patch_254">
    <path clip-path="url(#p6c0d3a62c0)" d="M 524.796683 152.2 
L 526.185645 152.2 
L 526.185645 117.272858 
L 524.796683 117.272858 
z
" style="fill:#348abd;opacity:0.2;"/>
   </g>
   <g id="patch_255">
    <path clip-path="url(#p6c0d3a62c0)" d="M 526.532886 152.2 
L 527.921848 152.2 
L 527.921848 115.658519 
L 526.532886 115.658519 
z
" style="fill:#348abd;opacity:0.2;"/>
   </g>
   <g id="patch_256">
    <path clip-path="url(#p6c0d3a62c0)" d="M 528.269089 152.2 
L 529.658051 152.2 
L 529.658051 114.425408 
L 528.269089 114.425408 
z
" style="fill:#348abd;opacity:0.2;"/>
   </g>
   <g id="patch_257">
    <path clip-path="url(#p6c0d3a62c0)" d="M 530.005292 152.2 
L 531.394254 152.2 
L 531.394254 113.940636 
L 530.005292 113.940636 
z
" style="fill:#348abd;opacity:0.2;"/>
   </g>
   <g id="patch_258">
    <path clip-path="url(#p6c0d3a62c0)" d="M 531.741495 152.2 
L 533.130457 152.2 
L 533.130457 112.801656 
L 531.741495 112.801656 
z
" style="fill:#348abd;opacity:0.2;"/>
   </g>
   <g id="patch_259">
    <path clip-path="url(#p6c0d3a62c0)" d="M 533.477698 152.2 
L 534.86666 152.2 
L 534.86666 110.617827 
L 533.477698 110.617827 
z
" style="fill:#348abd;opacity:0.2;"/>
   </g>
   <g id="patch_260">
    <path clip-path="url(#p6c0d3a62c0)" d="M 535.213901 152.2 
L 536.602863 152.2 
L 536.602863 108.457531 
L 535.213901 108.457531 
z
" style="fill:#348abd;opacity:0.2;"/>
   </g>
   <g id="patch_261">
    <path clip-path="url(#p6c0d3a62c0)" d="M 536.950104 152.2 
L 538.339066 152.2 
L 538.339066 106.381953 
L 536.950104 106.381953 
z
" style="fill:#348abd;opacity:0.2;"/>
   </g>
   <g id="patch_262">
    <path clip-path="url(#p6c0d3a62c0)" d="M 538.686307 152.2 
L 540.075269 152.2 
L 540.075269 103.365068 
L 538.686307 103.365068 
z
" style="fill:#348abd;opacity:0.2;"/>
   </g>
   <g id="patch_263">
    <path clip-path="url(#p6c0d3a62c0)" d="M 540.42251 152.2 
L 541.811472 152.2 
L 541.811472 101.571881 
L 540.42251 101.571881 
z
" style="fill:#348abd;opacity:0.2;"/>
   </g>
   <g id="patch_264">
    <path clip-path="url(#p6c0d3a62c0)" d="M 542.158713 152.2 
L 543.547675 152.2 
L 543.547675 98.164355 
L 542.158713 98.164355 
z
" style="fill:#348abd;opacity:0.2;"/>
   </g>
   <g id="patch_265">
    <path clip-path="url(#p6c0d3a62c0)" d="M 543.894916 152.2 
L 545.283878 152.2 
L 545.283878 100.517619 
L 543.894916 100.517619 
z
" style="fill:#348abd;opacity:0.2;"/>
   </g>
   <g id="patch_266">
    <path clip-path="url(#p6c0d3a62c0)" d="M 545.631119 152.2 
L 547.020081 152.2 
L 547.020081 98.804443 
L 545.631119 98.804443 
z
" style="fill:#348abd;opacity:0.2;"/>
   </g>
   <g id="patch_267">
    <path clip-path="url(#p6c0d3a62c0)" d="M 547.367322 152.2 
L 548.756284 152.2 
L 548.756284 95.86757 
L 547.367322 95.86757 
z
" style="fill:#348abd;opacity:0.2;"/>
   </g>
   <g id="patch_268">
    <path clip-path="url(#p6c0d3a62c0)" d="M 549.103525 152.2 
L 550.492487 152.2 
L 550.492487 92.554174 
L 549.103525 92.554174 
z
" style="fill:#348abd;opacity:0.2;"/>
   </g>
   <g id="patch_269">
    <path clip-path="url(#p6c0d3a62c0)" d="M 550.839728 152.2 
L 552.22869 152.2 
L 552.22869 88.934854 
L 550.839728 88.934854 
z
" style="fill:#348abd;opacity:0.2;"/>
   </g>
   <g id="patch_270">
    <path clip-path="url(#p6c0d3a62c0)" d="M 552.575931 152.2 
L 553.964893 152.2 
L 553.964893 89.104289 
L 552.575931 89.104289 
z
" style="fill:#348abd;opacity:0.2;"/>
   </g>
   <g id="patch_271">
    <path clip-path="url(#p6c0d3a62c0)" d="M 554.312134 152.2 
L 555.701096 152.2 
L 555.701096 87.767635 
L 554.312134 87.767635 
z
" style="fill:#348abd;opacity:0.2;"/>
   </g>
   <g id="patch_272">
    <path clip-path="url(#p6c0d3a62c0)" d="M 556.048337 152.2 
L 557.437299 152.2 
L 557.437299 86.115644 
L 556.048337 86.115644 
z
" style="fill:#348abd;opacity:0.2;"/>
   </g>
   <g id="patch_273">
    <path clip-path="url(#p6c0d3a62c0)" d="M 557.78454 152.2 
L 559.173502 152.2 
L 559.173502 88.39831 
L 557.78454 88.39831 
z
" style="fill:#348abd;opacity:0.2;"/>
   </g>
   <g id="patch_274">
    <path clip-path="url(#p6c0d3a62c0)" d="M 559.520743 152.2 
L 560.909705 152.2 
L 560.909705 81.898595 
L 559.520743 81.898595 
z
" style="fill:#348abd;opacity:0.2;"/>
   </g>
   <g id="patch_275">
    <path clip-path="url(#p6c0d3a62c0)" d="M 561.256946 152.2 
L 562.645908 152.2 
L 562.645908 82.999923 
L 561.256946 82.999923 
z
" style="fill:#348abd;opacity:0.2;"/>
   </g>
   <g id="patch_276">
    <path clip-path="url(#p6c0d3a62c0)" d="M 562.993149 152.2 
L 564.382111 152.2 
L 564.382111 82.524563 
L 562.993149 82.524563 
z
" style="fill:#348abd;opacity:0.2;"/>
   </g>
   <g id="patch_277">
    <path clip-path="url(#p6c0d3a62c0)" d="M 564.729352 152.2 
L 566.118314 152.2 
L 566.118314 77.634481 
L 564.729352 77.634481 
z
" style="fill:#348abd;opacity:0.2;"/>
   </g>
   <g id="patch_278">
    <path clip-path="url(#p6c0d3a62c0)" d="M 566.465555 152.2 
L 567.854517 152.2 
L 567.854517 76.387251 
L 566.465555 76.387251 
z
" style="fill:#348abd;opacity:0.2;"/>
   </g>
   <g id="patch_279">
    <path clip-path="url(#p6c0d3a62c0)" d="M 568.201758 152.2 
L 569.59072 152.2 
L 569.59072 79.512386 
L 568.201758 79.512386 
z
" style="fill:#348abd;opacity:0.2;"/>
   </g>
   <g id="patch_280">
    <path clip-path="url(#p6c0d3a62c0)" d="M 569.937961 152.2 
L 571.326923 152.2 
L 571.326923 78.288689 
L 569.937961 78.288689 
z
" style="fill:#348abd;opacity:0.2;"/>
   </g>
   <g id="patch_281">
    <path clip-path="url(#p6c0d3a62c0)" d="M 571.674164 152.2 
L 573.063126 152.2 
L 573.063126 71.826626 
L 571.674164 71.826626 
z
" style="fill:#348abd;opacity:0.2;"/>
   </g>
   <g id="patch_282">
    <path clip-path="url(#p6c0d3a62c0)" d="M 573.410367 152.2 
L 574.799329 152.2 
L 574.799329 75.671859 
L 573.410367 75.671859 
z
" style="fill:#348abd;opacity:0.2;"/>
   </g>
   <g id="patch_283">
    <path clip-path="url(#p6c0d3a62c0)" d="M 575.14657 152.2 
L 576.535532 152.2 
L 576.535532 75.050597 
L 575.14657 75.050597 
z
" style="fill:#348abd;opacity:0.2;"/>
   </g>
   <g id="patch_284">
    <path clip-path="url(#p6c0d3a62c0)" d="M 576.882773 152.2 
L 578.271735 152.2 
L 578.271735 71.492462 
L 576.882773 71.492462 
z
" style="fill:#348abd;opacity:0.2;"/>
   </g>
   <g id="patch_285">
    <path clip-path="url(#p6c0d3a62c0)" d="M 578.618976 152.2 
L 580.007938 152.2 
L 580.007938 75.285924 
L 578.618976 75.285924 
z
" style="fill:#348abd;opacity:0.2;"/>
   </g>
   <g id="patch_286">
    <path clip-path="url(#p6c0d3a62c0)" d="M 580.355179 152.2 
L 581.744141 152.2 
L 581.744141 77.4321 
L 580.355179 77.4321 
z
" style="fill:#348abd;opacity:0.2;"/>
   </g>
   <g id="patch_287">
    <path clip-path="url(#p6c0d3a62c0)" d="M 582.091382 152.2 
L 583.480344 152.2 
L 583.480344 70.2217 
L 582.091382 70.2217 
z
" style="fill:#348abd;opacity:0.2;"/>
   </g>
   <g id="patch_288">
    <path clip-path="url(#p6c0d3a62c0)" d="M 583.827585 152.2 
L 585.216547 152.2 
L 585.216547 67.543686 
L 583.827585 67.543686 
z
" style="fill:#348abd;opacity:0.2;"/>
   </g>
   <g id="patch_289">
    <path clip-path="url(#p6c0d3a62c0)" d="M 585.563788 152.2 
L 586.95275 152.2 
L 586.95275 68.263784 
L 585.563788 68.263784 
z
" style="fill:#348abd;opacity:0.2;"/>
   </g>
   <g id="patch_290">
    <path clip-path="url(#p6c0d3a62c0)" d="M 587.299991 152.2 
L 588.688953 152.2 
L 588.688953 65.689314 
L 587.299991 65.689314 
z
" style="fill:#348abd;opacity:0.2;"/>
   </g>
   <g id="patch_291">
    <path clip-path="url(#p6c0d3a62c0)" d="M 589.036194 152.2 
L 590.425156 152.2 
L 590.425156 67.40249 
L 589.036194 67.40249 
z
" style="fill:#348abd;opacity:0.2;"/>
   </g>
   <g id="patch_292">
    <path clip-path="url(#p6c0d3a62c0)" d="M 590.772397 152.2 
L 592.161359 152.2 
L 592.161359 65.453987 
L 590.772397 65.453987 
z
" style="fill:#348abd;opacity:0.2;"/>
   </g>
   <g id="patch_293">
    <path clip-path="url(#p6c0d3a62c0)" d="M 592.5086 152.2 
L 593.897562 152.2 
L 593.897562 60.50272 
L 592.5086 60.50272 
z
" style="fill:#348abd;opacity:0.2;"/>
   </g>
   <g id="patch_294">
    <path clip-path="url(#p6c0d3a62c0)" d="M 594.244802 152.2 
L 595.633765 152.2 
L 595.633765 62.230016 
L 594.244802 62.230016 
z
" style="fill:#348abd;opacity:0.2;"/>
   </g>
   <g id="patch_295">
    <path clip-path="url(#p6c0d3a62c0)" d="M 595.981005 152.2 
L 597.369968 152.2 
L 597.369968 56.337443 
L 595.981005 56.337443 
z
" style="fill:#348abd;opacity:0.2;"/>
   </g>
   <g id="patch_296">
    <path clip-path="url(#p6c0d3a62c0)" d="M 597.717208 152.2 
L 599.106171 152.2 
L 599.106171 57.556434 
L 597.717208 57.556434 
z
" style="fill:#348abd;opacity:0.2;"/>
   </g>
   <g id="patch_297">
    <path clip-path="url(#p6c0d3a62c0)" d="M 599.453411 152.2 
L 600.842374 152.2 
L 600.842374 56.902227 
L 599.453411 56.902227 
z
" style="fill:#348abd;opacity:0.2;"/>
   </g>
   <g id="patch_298">
    <path clip-path="url(#p6c0d3a62c0)" d="M 601.189614 152.2 
L 602.578577 152.2 
L 602.578577 50.647251 
L 601.189614 50.647251 
z
" style="fill:#348abd;opacity:0.2;"/>
   </g>
   <g id="patch_299">
    <path clip-path="url(#p6c0d3a62c0)" d="M 602.925817 152.2 
L 604.31478 152.2 
L 604.31478 54.468952 
L 602.925817 54.468952 
z
" style="fill:#348abd;opacity:0.2;"/>
   </g>
   <g id="patch_300">
    <path clip-path="url(#p6c0d3a62c0)" d="M 604.66202 152.2 
L 606.050983 152.2 
L 606.050983 60.032067 
L 604.66202 60.032067 
z
" style="fill:#348abd;opacity:0.2;"/>
   </g>
   <g id="patch_301">
    <path clip-path="url(#p6c0d3a62c0)" d="M 606.398223 152.2 
L 607.787186 152.2 
L 607.787186 51.795644 
L 606.398223 51.795644 
z
" style="fill:#348abd;opacity:0.2;"/>
   </g>
   <g id="patch_302">
    <path clip-path="url(#p6c0d3a62c0)" d="M 608.134426 152.2 
L 609.523389 152.2 
L 609.523389 49.988337 
L 608.134426 49.988337 
z
" style="fill:#348abd;opacity:0.2;"/>
   </g>
   <g id="patch_303">
    <path clip-path="url(#p6c0d3a62c0)" d="M 609.870629 152.2 
L 611.259592 152.2 
L 611.259592 46.580811 
L 609.870629 46.580811 
z
" style="fill:#348abd;opacity:0.2;"/>
   </g>
   <g id="patch_304">
    <path clip-path="url(#p6c0d3a62c0)" d="M 611.606832 152.2 
L 612.995795 152.2 
L 612.995795 47.183247 
L 611.606832 47.183247 
z
" style="fill:#348abd;opacity:0.2;"/>
   </g>
   <g id="patch_305">
    <path clip-path="url(#p6c0d3a62c0)" d="M 613.343035 152.2 
L 614.731998 152.2 
L 614.731998 46.011321 
L 613.343035 46.011321 
z
" style="fill:#348abd;opacity:0.2;"/>
   </g>
   <g id="patch_306">
    <path clip-path="url(#p6c0d3a62c0)" d="M 615.079238 152.2 
L 616.468201 152.2 
L 616.468201 47.710378 
L 615.079238 47.710378 
z
" style="fill:#348abd;opacity:0.2;"/>
   </g>
   <g id="patch_307">
    <path clip-path="url(#p6c0d3a62c0)" d="M 616.815441 152.2 
L 618.204404 152.2 
L 618.204404 54.694865 
L 616.815441 54.694865 
z
" style="fill:#348abd;opacity:0.2;"/>
   </g>
   <g id="patch_308">
    <path clip-path="url(#p6c0d3a62c0)" d="M 618.551644 152.2 
L 619.940607 152.2 
L 619.940607 42.363762 
L 618.551644 42.363762 
z
" style="fill:#348abd;opacity:0.2;"/>
   </g>
   <g id="patch_309">
    <path clip-path="url(#p6c0d3a62c0)" d="M 620.287847 152.2 
L 621.67681 152.2 
L 621.67681 38.965649 
L 620.287847 38.965649 
z
" style="fill:#348abd;opacity:0.2;"/>
   </g>
   <g id="patch_310">
    <path clip-path="url(#p6c0d3a62c0)" d="M 622.02405 152.2 
L 623.413013 152.2 
L 623.413013 36.711223 
L 622.02405 36.711223 
z
" style="fill:#348abd;opacity:0.2;"/>
   </g>
   <g id="patch_311">
    <path clip-path="url(#p6c0d3a62c0)" d="M 623.760253 152.2 
L 625.149216 152.2 
L 625.149216 37.854909 
L 623.760253 37.854909 
z
" style="fill:#348abd;opacity:0.2;"/>
   </g>
   <g id="patch_312">
    <path clip-path="url(#p6c0d3a62c0)" d="M 625.496456 152.2 
L 626.885419 152.2 
L 626.885419 35.049818 
L 625.496456 35.049818 
z
" style="fill:#348abd;opacity:0.2;"/>
   </g>
   <g id="patch_313">
    <path clip-path="url(#p6c0d3a62c0)" d="M 627.232659 152.2 
L 628.621622 152.2 
L 628.621622 38.833867 
L 627.232659 38.833867 
z
" style="fill:#348abd;opacity:0.2;"/>
   </g>
   <g id="patch_314">
    <path clip-path="url(#p6c0d3a62c0)" d="M 628.968862 152.2 
L 630.357825 152.2 
L 630.357825 42.100197 
L 628.968862 42.100197 
z
" style="fill:#348abd;opacity:0.2;"/>
   </g>
   <g id="patch_315">
    <path clip-path="url(#p6c0d3a62c0)" d="M 630.705065 152.2 
L 632.094028 152.2 
L 632.094028 33.619034 
L 630.705065 33.619034 
z
" style="fill:#348abd;opacity:0.2;"/>
   </g>
   <g id="patch_316">
    <path clip-path="url(#p6c0d3a62c0)" d="M 632.441268 152.2 
L 633.830231 152.2 
L 633.830231 23.867108 
L 632.441268 23.867108 
z
" style="fill:#348abd;opacity:0.2;"/>
   </g>
   <g id="patch_317">
    <path clip-path="url(#p6c0d3a62c0)" d="M 634.177471 152.2 
L 635.566434 152.2 
L 635.566434 26.022698 
L 634.177471 26.022698 
z
" style="fill:#348abd;opacity:0.2;"/>
   </g>
   <g id="patch_318">
    <path clip-path="url(#p6c0d3a62c0)" d="M 635.913674 152.2 
L 637.302637 152.2 
L 637.302637 27.994733 
L 635.913674 27.994733 
z
" style="fill:#348abd;opacity:0.2;"/>
   </g>
   <g id="patch_319">
    <path clip-path="url(#p6c0d3a62c0)" d="M 637.649877 152.2 
L 639.03884 152.2 
L 639.03884 29.613779 
L 637.649877 29.613779 
z
" style="fill:#348abd;opacity:0.2;"/>
   </g>
   <g id="patch_320">
    <path clip-path="url(#p6c0d3a62c0)" d="M 639.38608 152.2 
L 640.775043 152.2 
L 640.775043 29.237257 
L 639.38608 29.237257 
z
" style="fill:#348abd;opacity:0.2;"/>
   </g>
   <g id="patch_321">
    <path clip-path="url(#p6c0d3a62c0)" d="M 641.122283 152.2 
L 642.511246 152.2 
L 642.511246 34.334426 
L 641.122283 34.334426 
z
" style="fill:#348abd;opacity:0.2;"/>
   </g>
   <g id="patch_322">
    <path clip-path="url(#p6c0d3a62c0)" d="M 642.858486 152.2 
L 644.247448 152.2 
L 644.247448 21.22204 
L 642.858486 21.22204 
z
" style="fill:#348abd;opacity:0.2;"/>
   </g>
   <g id="patch_323">
    <path clip-path="url(#p6c0d3a62c0)" d="M 644.594689 152.2 
L 645.983651 152.2 
L 645.983651 24.756642 
L 644.594689 24.756642 
z
" style="fill:#348abd;opacity:0.2;"/>
   </g>
   <g id="patch_324">
    <path clip-path="url(#p6c0d3a62c0)" d="M 646.330892 152.2 
L 647.719854 152.2 
L 647.719854 18.299286 
L 646.330892 18.299286 
z
" style="fill:#348abd;opacity:0.2;"/>
   </g>
   <g id="patch_325">
    <path clip-path="url(#p6c0d3a62c0)" d="M 648.067095 152.2 
L 649.456057 152.2 
L 649.456057 17.117948 
L 648.067095 17.117948 
z
" style="fill:#348abd;opacity:0.2;"/>
   </g>
   <g id="patch_326">
    <path clip-path="url(#p6c0d3a62c0)" d="M 649.803298 152.2 
L 651.19226 152.2 
L 651.19226 21.367942 
L 649.803298 21.367942 
z
" style="fill:#348abd;opacity:0.2;"/>
   </g>
   <g id="patch_327">
    <path clip-path="url(#p6c0d3a62c0)" d="M 651.539501 152.2 
L 652.928463 152.2 
L 652.928463 30.997498 
L 651.539501 30.997498 
z
" style="fill:#348abd;opacity:0.2;"/>
   </g>
   <g id="patch_328">
    <path clip-path="url(#p6c0d3a62c0)" d="M 653.275704 152.2 
L 654.664666 152.2 
L 654.664666 30.592736 
L 653.275704 30.592736 
z
" style="fill:#348abd;opacity:0.2;"/>
   </g>
   <g id="patch_329">
    <path clip-path="url(#p6c0d3a62c0)" d="M 655.011907 152.2 
L 656.400869 152.2 
L 656.400869 22.478683 
L 655.011907 22.478683 
z
" style="fill:#348abd;opacity:0.2;"/>
   </g>
   <g id="patch_330">
    <path clip-path="url(#p6c0d3a62c0)" d="M 656.74811 152.2 
L 658.137072 152.2 
L 658.137072 19.447679 
L 656.74811 19.447679 
z
" style="fill:#348abd;opacity:0.2;"/>
   </g>
   <g id="patch_331">
    <path clip-path="url(#p6c0d3a62c0)" d="M 658.484313 152.2 
L 659.873275 152.2 
L 659.873275 21.692693 
L 658.484313 21.692693 
z
" style="fill:#348abd;opacity:0.2;"/>
   </g>
   <g id="patch_332">
    <path clip-path="url(#p6c0d3a62c0)" d="M 660.220516 152.2 
L 661.609478 152.2 
L 661.609478 22.059802 
L 660.220516 22.059802 
z
" style="fill:#348abd;opacity:0.2;"/>
   </g>
   <g id="patch_333">
    <path clip-path="url(#p6c0d3a62c0)" d="M 661.956719 152.2 
L 663.345681 152.2 
L 663.345681 25.584991 
L 661.956719 25.584991 
z
" style="fill:#348abd;opacity:0.2;"/>
   </g>
   <g id="patch_334">
    <path clip-path="url(#p6c0d3a62c0)" d="M 663.692922 152.2 
L 665.081884 152.2 
L 665.081884 28.583049 
L 663.692922 28.583049 
z
" style="fill:#348abd;opacity:0.2;"/>
   </g>
   <g id="patch_335">
    <path clip-path="url(#p6c0d3a62c0)" d="M 665.429125 152.2 
L 666.818087 152.2 
L 666.818087 29.481996 
L 665.429125 29.481996 
z
" style="fill:#348abd;opacity:0.2;"/>
   </g>
   <g id="patch_336">
    <path clip-path="url(#p6c0d3a62c0)" d="M 667.165328 152.2 
L 668.55429 152.2 
L 668.55429 21.419714 
L 667.165328 21.419714 
z
" style="fill:#348abd;opacity:0.2;"/>
   </g>
   <g id="patch_337">
    <path clip-path="url(#p6c0d3a62c0)" d="M 668.901531 152.2 
L 670.290493 152.2 
L 670.290493 19.871266 
L 668.901531 19.871266 
z
" style="fill:#348abd;opacity:0.2;"/>
   </g>
   <g id="patch_338">
    <path clip-path="url(#p6c0d3a62c0)" d="M 670.637734 152.2 
L 672.026696 152.2 
L 672.026696 21.490312 
L 670.637734 21.490312 
z
" style="fill:#348abd;opacity:0.2;"/>
   </g>
   <g id="patch_339">
    <path clip-path="url(#p6c0d3a62c0)" d="M 672.373937 152.2 
L 673.762899 152.2 
L 673.762899 18.016894 
L 672.373937 18.016894 
z
" style="fill:#348abd;opacity:0.2;"/>
   </g>
   <g id="patch_340">
    <path clip-path="url(#p6c0d3a62c0)" d="M 674.11014 152.2 
L 675.499102 152.2 
L 675.499102 16.101338 
L 674.11014 16.101338 
z
" style="fill:#348abd;opacity:0.2;"/>
   </g>
   <g id="patch_341">
    <path clip-path="url(#p6c0d3a62c0)" d="M 675.846343 152.2 
L 677.235305 152.2 
L 677.235305 18.817004 
L 675.846343 18.817004 
z
" style="fill:#348abd;opacity:0.2;"/>
   </g>
   <g id="patch_342">
    <path clip-path="url(#p6c0d3a62c0)" d="M 677.582546 152.2 
L 678.971508 152.2 
L 678.971508 25.999165 
L 677.582546 25.999165 
z
" style="fill:#348abd;opacity:0.2;"/>
   </g>
   <g id="patch_343">
    <path clip-path="url(#p6c0d3a62c0)" d="M 679.318749 152.2 
L 680.707711 152.2 
L 680.707711 13.362138 
L 679.318749 13.362138 
z
" style="fill:#348abd;opacity:0.2;"/>
   </g>
   <g id="patch_344">
    <path clip-path="url(#p6c0d3a62c0)" d="M 681.054952 152.2 
L 682.443914 152.2 
L 682.443914 17.61684 
L 681.054952 17.61684 
z
" style="fill:#348abd;opacity:0.2;"/>
   </g>
   <g id="patch_345">
    <path clip-path="url(#p6c0d3a62c0)" d="M 682.791155 152.2 
L 684.180117 152.2 
L 684.180117 16.496686 
L 682.791155 16.496686 
z
" style="fill:#348abd;opacity:0.2;"/>
   </g>
   <g id="patch_346">
    <path clip-path="url(#p6c0d3a62c0)" d="M 684.527358 152.2 
L 685.91632 152.2 
L 685.91632 21.127909 
L 684.527358 21.127909 
z
" style="fill:#348abd;opacity:0.2;"/>
   </g>
   <g id="patch_347">
    <path clip-path="url(#p6c0d3a62c0)" d="M 686.263561 152.2 
L 687.652523 152.2 
L 687.652523 23.415282 
L 686.263561 23.415282 
z
" style="fill:#348abd;opacity:0.2;"/>
   </g>
   <g id="patch_348">
    <path clip-path="url(#p6c0d3a62c0)" d="M 687.999764 152.2 
L 689.388726 152.2 
L 689.388726 27.062841 
L 687.999764 27.062841 
z
" style="fill:#348abd;opacity:0.2;"/>
   </g>
   <g id="patch_349">
    <path clip-path="url(#p6c0d3a62c0)" d="M 689.735967 152.2 
L 691.124929 152.2 
L 691.124929 29.383159 
L 689.735967 29.383159 
z
" style="fill:#348abd;opacity:0.2;"/>
   </g>
   <g id="patch_350">
    <path clip-path="url(#p6c0d3a62c0)" d="M 691.47217 152.2 
L 692.861132 152.2 
L 692.861132 23.575304 
L 691.47217 23.575304 
z
" style="fill:#348abd;opacity:0.2;"/>
   </g>
   <g id="patch_351">
    <path clip-path="url(#p6c0d3a62c0)" d="M 693.208373 152.2 
L 694.597335 152.2 
L 694.597335 26.945178 
L 693.208373 26.945178 
z
" style="fill:#348abd;opacity:0.2;"/>
   </g>
   <g id="patch_352">
    <path clip-path="url(#p6c0d3a62c0)" d="M 694.944576 152.2 
L 696.333538 152.2 
L 696.333538 30.122084 
L 694.944576 30.122084 
z
" style="fill:#348abd;opacity:0.2;"/>
   </g>
   <g id="patch_353">
    <path clip-path="url(#p6c0d3a62c0)" d="M 696.680779 152.2 
L 698.069741 152.2 
L 698.069741 39.972846 
L 696.680779 39.972846 
z
" style="fill:#348abd;opacity:0.2;"/>
   </g>
   <g id="patch_354">
    <path clip-path="url(#p6c0d3a62c0)" d="M 698.416982 152.2 
L 699.805944 152.2 
L 699.805944 43.879264 
L 698.416982 43.879264 
z
" style="fill:#348abd;opacity:0.2;"/>
   </g>
   <g id="patch_355">
    <path clip-path="url(#p6c0d3a62c0)" d="M 700.153185 152.2 
L 701.542147 152.2 
L 701.542147 39.455128 
L 700.153185 39.455128 
z
" style="fill:#348abd;opacity:0.2;"/>
   </g>
   <g id="patch_356">
    <path clip-path="url(#p6c0d3a62c0)" d="M 701.889388 152.2 
L 703.27835 152.2 
L 703.27835 39.704574 
L 701.889388 39.704574 
z
" style="fill:#348abd;opacity:0.2;"/>
   </g>
   <g id="patch_357">
    <path clip-path="url(#p6c0d3a62c0)" d="M 703.625591 152.2 
L 705.014553 152.2 
L 705.014553 42.923839 
L 703.625591 42.923839 
z
" style="fill:#348abd;opacity:0.2;"/>
   </g>
   <g id="patch_358">
    <path clip-path="url(#p6c0d3a62c0)" d="M 705.361794 152.2 
L 706.750756 152.2 
L 706.750756 42.396708 
L 705.361794 42.396708 
z
" style="fill:#348abd;opacity:0.2;"/>
   </g>
   <g id="patch_359">
    <path clip-path="url(#p6c0d3a62c0)" d="M 707.097997 152.2 
L 708.486959 152.2 
L 708.486959 43.893384 
L 707.097997 43.893384 
z
" style="fill:#348abd;opacity:0.2;"/>
   </g>
   <g id="patch_360">
    <path clip-path="url(#p6c0d3a62c0)" d="M 708.8342 152.2 
L 710.223162 152.2 
L 710.223162 46.114865 
L 708.8342 46.114865 
z
" style="fill:#348abd;opacity:0.2;"/>
   </g>
   <g id="patch_361">
    <path clip-path="url(#p6c0d3a62c0)" d="M 710.570403 152.2 
L 711.959365 152.2 
L 711.959365 43.865145 
L 710.570403 43.865145 
z
" style="fill:#348abd;opacity:0.2;"/>
   </g>
   <g id="patch_362">
    <path clip-path="url(#p6c0d3a62c0)" d="M 712.306606 152.2 
L 713.695568 152.2 
L 713.695568 45.564201 
L 712.306606 45.564201 
z
" style="fill:#348abd;opacity:0.2;"/>
   </g>
   <g id="patch_363">
    <path clip-path="url(#p6c0d3a62c0)" d="M 714.042809 152.2 
L 715.431771 152.2 
L 715.431771 46.096039 
L 714.042809 46.096039 
z
" style="fill:#348abd;opacity:0.2;"/>
   </g>
   <g id="patch_364">
    <path clip-path="url(#p6c0d3a62c0)" d="M 715.779012 152.2 
L 717.167974 152.2 
L 717.167974 37.817257 
L 715.779012 37.817257 
z
" style="fill:#348abd;opacity:0.2;"/>
   </g>
   <g id="patch_365">
    <path clip-path="url(#p6c0d3a62c0)" d="M 717.515215 152.2 
L 718.904177 152.2 
L 718.904177 37.859615 
L 717.515215 37.859615 
z
" style="fill:#348abd;opacity:0.2;"/>
   </g>
   <g id="patch_366">
    <path clip-path="url(#p6c0d3a62c0)" d="M 719.251418 152.2 
L 720.64038 152.2 
L 720.64038 40.796489 
L 719.251418 40.796489 
z
" style="fill:#348abd;opacity:0.2;"/>
   </g>
   <g id="patch_367">
    <path clip-path="url(#p6c0d3a62c0)" d="M 720.98762 152.2 
L 722.376583 152.2 
L 722.376583 43.1121 
L 720.98762 43.1121 
z
" style="fill:#348abd;opacity:0.2;"/>
   </g>
   <g id="patch_368">
    <path clip-path="url(#p6c0d3a62c0)" d="M 722.723823 152.2 
L 724.112786 152.2 
L 724.112786 46.260767 
L 722.723823 46.260767 
z
" style="fill:#348abd;opacity:0.2;"/>
   </g>
   <g id="patch_369">
    <path clip-path="url(#p6c0d3a62c0)" d="M 724.460026 152.2 
L 725.848989 152.2 
L 725.848989 51.282632 
L 724.460026 51.282632 
z
" style="fill:#348abd;opacity:0.2;"/>
   </g>
   <g id="patch_370">
    <path clip-path="url(#p6c0d3a62c0)" d="M 726.196229 152.2 
L 727.585192 152.2 
L 727.585192 54.275984 
L 726.196229 54.275984 
z
" style="fill:#348abd;opacity:0.2;"/>
   </g>
   <g id="patch_371">
    <path clip-path="url(#p6c0d3a62c0)" d="M 727.932432 152.2 
L 729.321395 152.2 
L 729.321395 50.802567 
L 727.932432 50.802567 
z
" style="fill:#348abd;opacity:0.2;"/>
   </g>
   <g id="patch_372">
    <path clip-path="url(#p6c0d3a62c0)" d="M 729.668635 152.2 
L 731.057598 152.2 
L 731.057598 52.50633 
L 729.668635 52.50633 
z
" style="fill:#348abd;opacity:0.2;"/>
   </g>
   <g id="patch_373">
    <path clip-path="url(#p6c0d3a62c0)" d="M 731.404838 152.2 
L 732.793801 152.2 
L 732.793801 55.316127 
L 731.404838 55.316127 
z
" style="fill:#348abd;opacity:0.2;"/>
   </g>
   <g id="patch_374">
    <path clip-path="url(#p6c0d3a62c0)" d="M 733.141041 152.2 
L 734.530004 152.2 
L 734.530004 54.304223 
L 733.141041 54.304223 
z
" style="fill:#348abd;opacity:0.2;"/>
   </g>
   <g id="patch_375">
    <path clip-path="url(#p6c0d3a62c0)" d="M 734.877244 152.2 
L 736.266207 152.2 
L 736.266207 62.78068 
L 734.877244 62.78068 
z
" style="fill:#348abd;opacity:0.2;"/>
   </g>
   <g id="patch_376">
    <path clip-path="url(#p6c0d3a62c0)" d="M 736.613447 152.2 
L 738.00241 152.2 
L 738.00241 67.567218 
L 736.613447 67.567218 
z
" style="fill:#348abd;opacity:0.2;"/>
   </g>
   <g id="patch_377">
    <path clip-path="url(#p6c0d3a62c0)" d="M 738.34965 152.2 
L 739.738613 152.2 
L 739.738613 70.0052 
L 738.34965 70.0052 
z
" style="fill:#348abd;opacity:0.2;"/>
   </g>
   <g id="patch_378">
    <path clip-path="url(#p6c0d3a62c0)" d="M 740.085853 152.2 
L 741.474816 152.2 
L 741.474816 63.453713 
L 740.085853 63.453713 
z
" style="fill:#348abd;opacity:0.2;"/>
   </g>
   <g id="patch_379">
    <path clip-path="url(#p6c0d3a62c0)" d="M 741.822056 152.2 
L 743.211019 152.2 
L 743.211019 62.935995 
L 741.822056 62.935995 
z
" style="fill:#348abd;opacity:0.2;"/>
   </g>
   <g id="patch_380">
    <path clip-path="url(#p6c0d3a62c0)" d="M 743.558259 152.2 
L 744.947222 152.2 
L 744.947222 63.947899 
L 743.558259 63.947899 
z
" style="fill:#348abd;opacity:0.2;"/>
   </g>
   <g id="patch_381">
    <path clip-path="url(#p6c0d3a62c0)" d="M 745.294462 152.2 
L 746.683425 152.2 
L 746.683425 67.091859 
L 745.294462 67.091859 
z
" style="fill:#348abd;opacity:0.2;"/>
   </g>
   <g id="patch_382">
    <path clip-path="url(#p6c0d3a62c0)" d="M 747.030665 152.2 
L 748.419628 152.2 
L 748.419628 70.348776 
L 747.030665 70.348776 
z
" style="fill:#348abd;opacity:0.2;"/>
   </g>
   <g id="patch_383">
    <path clip-path="url(#p6c0d3a62c0)" d="M 748.766868 152.2 
L 750.155831 152.2 
L 750.155831 74.984706 
L 748.766868 74.984706 
z
" style="fill:#348abd;opacity:0.2;"/>
   </g>
   <g id="patch_384">
    <path clip-path="url(#p6c0d3a62c0)" d="M 750.503071 152.2 
L 751.892034 152.2 
L 751.892034 75.850707 
L 750.503071 75.850707 
z
" style="fill:#348abd;opacity:0.2;"/>
   </g>
   <g id="patch_385">
    <path clip-path="url(#p6c0d3a62c0)" d="M 752.239274 152.2 
L 753.628237 152.2 
L 753.628237 74.716434 
L 752.239274 74.716434 
z
" style="fill:#348abd;opacity:0.2;"/>
   </g>
   <g id="patch_386">
    <path clip-path="url(#p6c0d3a62c0)" d="M 753.975477 152.2 
L 755.36444 152.2 
L 755.36444 74.805858 
L 753.975477 74.805858 
z
" style="fill:#348abd;opacity:0.2;"/>
   </g>
   <g id="patch_387">
    <path clip-path="url(#p6c0d3a62c0)" d="M 755.71168 152.2 
L 757.100643 152.2 
L 757.100643 75.111782 
L 755.71168 75.111782 
z
" style="fill:#348abd;opacity:0.2;"/>
   </g>
   <g id="patch_388">
    <path clip-path="url(#p6c0d3a62c0)" d="M 757.447883 152.2 
L 758.836846 152.2 
L 758.836846 77.79921 
L 757.447883 77.79921 
z
" style="fill:#348abd;opacity:0.2;"/>
   </g>
   <g id="patch_389">
    <path clip-path="url(#p6c0d3a62c0)" d="M 759.184086 152.2 
L 760.573049 152.2 
L 760.573049 78.302808 
L 759.184086 78.302808 
z
" style="fill:#348abd;opacity:0.2;"/>
   </g>
   <g id="patch_390">
    <path clip-path="url(#p6c0d3a62c0)" d="M 760.920289 152.2 
L 762.309252 152.2 
L 762.309252 82.505737 
L 760.920289 82.505737 
z
" style="fill:#348abd;opacity:0.2;"/>
   </g>
   <g id="patch_391">
    <path clip-path="url(#p6c0d3a62c0)" d="M 762.656492 152.2 
L 764.045455 152.2 
L 764.045455 85.094328 
L 762.656492 85.094328 
z
" style="fill:#348abd;opacity:0.2;"/>
   </g>
   <g id="line2d_36">
    <path clip-path="url(#p6c0d3a62c0)" d="M 107.066245 152.198987 
L 188.667785 152.0834 
L 199.085003 151.828988 
L 204.293612 151.509254 
L 207.766018 151.16012 
L 212.974627 150.421498 
L 218.183236 149.461688 
L 221.655642 148.644954 
L 225.128048 147.51548 
L 228.600454 145.988678 
L 232.07286 143.959132 
L 233.809063 142.770243 
L 235.545266 141.408405 
L 239.017672 138.183744 
L 244.22628 132.983627 
L 245.962483 131.408578 
L 247.698686 130.032958 
L 251.171092 127.912073 
L 254.643498 126.286275 
L 258.115904 124.623585 
L 259.852107 123.545889 
L 261.58831 122.111438 
L 263.324513 120.370841 
L 265.060716 118.291646 
L 268.533122 113.205673 
L 270.269325 110.504505 
L 272.005528 108.01157 
L 273.741731 105.889375 
L 275.477934 104.148367 
L 277.214137 102.771763 
L 278.95034 101.880711 
L 280.686543 101.452584 
L 282.422746 101.302771 
L 284.158949 101.413185 
L 285.895152 101.72539 
L 287.631355 102.368791 
L 291.103761 104.228894 
L 298.048573 108.163332 
L 299.784776 108.802879 
L 303.257182 109.715318 
L 306.729588 110.291882 
L 308.465791 110.576402 
L 315.410603 111.14876 
L 318.883009 111.108089 
L 325.827821 110.880055 
L 332.772633 110.914013 
L 336.245039 111.018447 
L 339.717445 111.310094 
L 343.189851 111.957247 
L 346.662257 112.944688 
L 357.079475 116.322096 
L 367.496692 119.708193 
L 370.969098 120.353954 
L 374.441504 120.70422 
L 386.594925 121.360381 
L 395.27594 121.80486 
L 398.748346 122.220435 
L 402.220752 122.813116 
L 410.901767 124.485133 
L 417.846579 125.531621 
L 426.527594 126.654485 
L 436.944812 127.69978 
L 447.36203 128.534989 
L 461.251654 129.595642 
L 468.196466 129.880785 
L 473.405075 129.845068 
L 478.613684 129.504402 
L 489.030902 128.456707 
L 499.448119 127.187074 
L 504.656728 126.392897 
L 509.865337 125.307686 
L 513.337743 124.361028 
L 516.810149 123.073758 
L 518.546352 122.248435 
L 520.282555 121.2827 
L 522.018758 120.182622 
L 525.491164 117.620624 
L 528.96357 114.735624 
L 532.435976 111.509241 
L 537.644585 106.146485 
L 549.798006 93.208043 
L 553.270412 89.841777 
L 556.742818 86.718361 
L 561.951427 82.553571 
L 567.160036 78.714922 
L 570.632442 76.758022 
L 574.104848 75.227042 
L 577.577254 73.764273 
L 579.313457 72.982399 
L 581.04966 72.049255 
L 584.522066 69.648961 
L 587.994472 66.817306 
L 589.730675 65.343692 
L 593.203081 62.039669 
L 598.41169 57.828411 
L 601.884096 55.281234 
L 614.037517 47.497977 
L 617.509923 44.848252 
L 622.718531 40.410596 
L 629.663343 34.283078 
L 633.135749 31.52437 
L 636.608155 29.303154 
L 641.816764 26.201379 
L 643.552967 25.358978 
L 647.025373 24.108871 
L 648.761576 23.701298 
L 650.497779 23.571566 
L 657.442591 24.021931 
L 660.914997 24.225771 
L 662.6512 24.133175 
L 664.387403 23.829937 
L 666.123606 23.36267 
L 667.859809 22.775838 
L 671.332215 21.190197 
L 673.068418 20.308405 
L 674.804621 19.57819 
L 676.540824 19.167994 
L 678.277027 19.120682 
L 680.01323 19.302652 
L 681.749433 19.843278 
L 683.485636 20.635963 
L 685.221839 21.745551 
L 686.958042 23.137904 
L 688.694245 24.817495 
L 690.430448 26.680281 
L 693.902854 30.874056 
L 697.37526 35.345724 
L 699.111463 37.368901 
L 700.847666 39.058021 
L 702.583869 40.5512 
L 704.320072 41.85379 
L 706.056275 42.70482 
L 707.792478 43.16975 
L 709.528681 43.308501 
L 716.473493 42.980379 
L 718.209696 43.334835 
L 719.945899 44.10392 
L 721.682102 45.268132 
L 723.418305 46.745787 
L 725.154508 48.489813 
L 728.626914 52.499431 
L 732.09932 56.612713 
L 735.571726 60.41363 
L 737.307929 62.112567 
L 739.044132 63.635251 
L 752.933755 74.47208 
L 752.933755 74.47208 
" style="fill:none;stroke:#348abd;stroke-linecap:square;stroke-width:3;"/>
   </g>
   <g id="line2d_37">
    <path clip-path="url(#p6c0d3a62c0)" d="M 752.933755 73.879793 
L 754.669958 74.775326 
L 756.406161 75.89258 
L 758.142364 76.897388 
L 759.878567 77.758444 
L 761.61477 78.49823 
L 763.350973 79.08975 
" style="fill:none;stroke:#348abd;stroke-dasharray:11.1,4.8;stroke-dashoffset:0;stroke-opacity:0.7;stroke-width:3;"/>
   </g>
   <g id="patch_392">
    <path d="M 62.55 152.2 
L 62.55 13.362138 
" style="fill:none;stroke:#ffffff;stroke-linecap:square;stroke-linejoin:miter;"/>
   </g>
   <g id="patch_393">
    <path d="M 797.45 152.2 
L 797.45 13.362138 
" style="fill:none;stroke:#ffffff;stroke-linecap:square;stroke-linejoin:miter;"/>
   </g>
   <g id="patch_394">
    <path d="M 62.55 152.2 
L 797.45 152.2 
" style="fill:none;stroke:#ffffff;stroke-linecap:square;stroke-linejoin:miter;"/>
   </g>
   <g id="patch_395">
    <path d="M 62.55 13.362138 
L 797.45 13.362138 
" style="fill:none;stroke:#ffffff;stroke-linecap:square;stroke-linejoin:miter;"/>
   </g>
   <g id="legend_1">
    <g id="patch_396">
     <path d="M 69.55 50.718388 
L 278.367188 50.718388 
Q 280.367188 50.718388 280.367188 48.718388 
L 280.367188 20.362138 
Q 280.367188 18.362138 278.367188 18.362138 
L 69.55 18.362138 
Q 67.55 18.362138 67.55 20.362138 
L 67.55 48.718388 
Q 67.55 50.718388 69.55 50.718388 
z
" style="fill:#e5e5e5;opacity:0.8;stroke:#cccccc;stroke-linejoin:miter;stroke-width:0.5;"/>
    </g>
    <g id="line2d_38">
     <path d="M 71.55 26.460576 
L 91.55 26.460576 
" style="fill:none;stroke:#348abd;stroke-linecap:square;stroke-width:3;"/>
    </g>
    <g id="line2d_39"/>
    <g id="text_20">
     <text style="font-family:DejaVu Sans;font-size:10px;font-stretch:normal;font-style:normal;font-weight:normal;text-anchor:start;" transform="rotate(-0, 99.55, 29.960576)" x="99.55" y="29.960576">Russia new cases (rolling 7d mean)</text>
    </g>
    <g id="patch_397">
     <path d="M 71.55 44.638701 
L 91.55 44.638701 
L 91.55 37.638701 
L 71.55 37.638701 
z
" style="fill:#348abd;opacity:0.2;"/>
    </g>
    <g id="text_21">
     <text style="font-family:DejaVu Sans;font-size:10px;font-stretch:normal;font-style:normal;font-weight:normal;text-anchor:start;" transform="rotate(-0, 99.55, 44.638701)" x="99.55" y="44.638701">Russia new cases</text>
    </g>
   </g>
  </g>
 </g>
 <defs>
  <clipPath id="p6c0d3a62c0">
   <rect height="138.837862" width="734.9" x="62.55" y="13.362138"/>
  </clipPath>
 </defs>
</svg>
