<?xml version="1.0" encoding="utf-8" standalone="no"?>
<!DOCTYPE svg PUBLIC "-//W3C//DTD SVG 1.1//EN"
  "http://www.w3.org/Graphics/SVG/1.1/DTD/svg11.dtd">
<!-- Created with matplotlib (https://matplotlib.org/) -->
<svg height="180pt" version="1.1" viewBox="0 0 720 180" width="720pt" xmlns="http://www.w3.org/2000/svg" xmlns:xlink="http://www.w3.org/1999/xlink">
 <defs>
  <style type="text/css">
*{stroke-linecap:butt;stroke-linejoin:round;}
  </style>
 </defs>
 <g id="figure_1">
  <g id="patch_1">
   <path d="M 0 180 
L 720 180 
L 720 0 
L 0 0 
z
" style="fill:#ffffff;"/>
  </g>
  <g id="axes_1">
   <g id="patch_2">
    <path d="M 90 157.5 
L 648 157.5 
L 648 21.6 
L 90 21.6 
z
" style="fill:#e5e5e5;"/>
   </g>
   <g id="matplotlib.axis_1">
    <g id="xtick_1">
     <g id="line2d_1">
      <path clip-path="url(#p28e37d54ff)" d="M 136.412297 157.5 
L 136.412297 21.6 
" style="fill:none;stroke:#ffffff;stroke-linecap:square;stroke-width:0.8;"/>
     </g>
     <g id="line2d_2">
      <defs>
       <path d="M 0 0 
L 0 3.5 
" id="m54d5f24090" style="stroke:#555555;stroke-width:0.8;"/>
      </defs>
      <g>
       <use style="fill:#555555;stroke:#555555;stroke-width:0.8;" x="136.412297" xlink:href="#m54d5f24090" y="157.5"/>
      </g>
     </g>
     <g id="text_1">
      <!-- 2020-02 -->
      <defs>
       <path d="M 19.1875 8.296875 
L 53.609375 8.296875 
L 53.609375 0 
L 7.328125 0 
L 7.328125 8.296875 
Q 12.9375 14.109375 22.625 23.890625 
Q 32.328125 33.6875 34.8125 36.53125 
Q 39.546875 41.84375 41.421875 45.53125 
Q 43.3125 49.21875 43.3125 52.78125 
Q 43.3125 58.59375 39.234375 62.25 
Q 35.15625 65.921875 28.609375 65.921875 
Q 23.96875 65.921875 18.8125 64.3125 
Q 13.671875 62.703125 7.8125 59.421875 
L 7.8125 69.390625 
Q 13.765625 71.78125 18.9375 73 
Q 24.125 74.21875 28.421875 74.21875 
Q 39.75 74.21875 46.484375 68.546875 
Q 53.21875 62.890625 53.21875 53.421875 
Q 53.21875 48.921875 51.53125 44.890625 
Q 49.859375 40.875 45.40625 35.40625 
Q 44.1875 33.984375 37.640625 27.21875 
Q 31.109375 20.453125 19.1875 8.296875 
z
" id="DejaVuSans-50"/>
       <path d="M 31.78125 66.40625 
Q 24.171875 66.40625 20.328125 58.90625 
Q 16.5 51.421875 16.5 36.375 
Q 16.5 21.390625 20.328125 13.890625 
Q 24.171875 6.390625 31.78125 6.390625 
Q 39.453125 6.390625 43.28125 13.890625 
Q 47.125 21.390625 47.125 36.375 
Q 47.125 51.421875 43.28125 58.90625 
Q 39.453125 66.40625 31.78125 66.40625 
z
M 31.78125 74.21875 
Q 44.046875 74.21875 50.515625 64.515625 
Q 56.984375 54.828125 56.984375 36.375 
Q 56.984375 17.96875 50.515625 8.265625 
Q 44.046875 -1.421875 31.78125 -1.421875 
Q 19.53125 -1.421875 13.0625 8.265625 
Q 6.59375 17.96875 6.59375 36.375 
Q 6.59375 54.828125 13.0625 64.515625 
Q 19.53125 74.21875 31.78125 74.21875 
z
" id="DejaVuSans-48"/>
       <path d="M 4.890625 31.390625 
L 31.203125 31.390625 
L 31.203125 23.390625 
L 4.890625 23.390625 
z
" id="DejaVuSans-45"/>
      </defs>
      <g style="fill:#555555;" transform="translate(115.520891 172.098437)scale(0.1 -0.1)">
       <use xlink:href="#DejaVuSans-50"/>
       <use x="63.623047" xlink:href="#DejaVuSans-48"/>
       <use x="127.246094" xlink:href="#DejaVuSans-50"/>
       <use x="190.869141" xlink:href="#DejaVuSans-48"/>
       <use x="254.492188" xlink:href="#DejaVuSans-45"/>
       <use x="290.576172" xlink:href="#DejaVuSans-48"/>
       <use x="354.199219" xlink:href="#DejaVuSans-50"/>
      </g>
     </g>
    </g>
    <g id="xtick_2">
     <g id="line2d_3">
      <path clip-path="url(#p28e37d54ff)" d="M 197.453414 157.5 
L 197.453414 21.6 
" style="fill:none;stroke:#ffffff;stroke-linecap:square;stroke-width:0.8;"/>
     </g>
     <g id="line2d_4">
      <g>
       <use style="fill:#555555;stroke:#555555;stroke-width:0.8;" x="197.453414" xlink:href="#m54d5f24090" y="157.5"/>
      </g>
     </g>
     <g id="text_2">
      <!-- 2020-03 -->
      <defs>
       <path d="M 40.578125 39.3125 
Q 47.65625 37.796875 51.625 33 
Q 55.609375 28.21875 55.609375 21.1875 
Q 55.609375 10.40625 48.1875 4.484375 
Q 40.765625 -1.421875 27.09375 -1.421875 
Q 22.515625 -1.421875 17.65625 -0.515625 
Q 12.796875 0.390625 7.625 2.203125 
L 7.625 11.71875 
Q 11.71875 9.328125 16.59375 8.109375 
Q 21.484375 6.890625 26.8125 6.890625 
Q 36.078125 6.890625 40.9375 10.546875 
Q 45.796875 14.203125 45.796875 21.1875 
Q 45.796875 27.640625 41.28125 31.265625 
Q 36.765625 34.90625 28.71875 34.90625 
L 20.21875 34.90625 
L 20.21875 43.015625 
L 29.109375 43.015625 
Q 36.375 43.015625 40.234375 45.921875 
Q 44.09375 48.828125 44.09375 54.296875 
Q 44.09375 59.90625 40.109375 62.90625 
Q 36.140625 65.921875 28.71875 65.921875 
Q 24.65625 65.921875 20.015625 65.03125 
Q 15.375 64.15625 9.8125 62.3125 
L 9.8125 71.09375 
Q 15.4375 72.65625 20.34375 73.4375 
Q 25.25 74.21875 29.59375 74.21875 
Q 40.828125 74.21875 47.359375 69.109375 
Q 53.90625 64.015625 53.90625 55.328125 
Q 53.90625 49.265625 50.4375 45.09375 
Q 46.96875 40.921875 40.578125 39.3125 
z
" id="DejaVuSans-51"/>
      </defs>
      <g style="fill:#555555;" transform="translate(176.562008 172.098437)scale(0.1 -0.1)">
       <use xlink:href="#DejaVuSans-50"/>
       <use x="63.623047" xlink:href="#DejaVuSans-48"/>
       <use x="127.246094" xlink:href="#DejaVuSans-50"/>
       <use x="190.869141" xlink:href="#DejaVuSans-48"/>
       <use x="254.492188" xlink:href="#DejaVuSans-45"/>
       <use x="290.576172" xlink:href="#DejaVuSans-48"/>
       <use x="354.199219" xlink:href="#DejaVuSans-51"/>
      </g>
     </g>
    </g>
    <g id="xtick_3">
     <g id="line2d_5">
      <path clip-path="url(#p28e37d54ff)" d="M 262.704263 157.5 
L 262.704263 21.6 
" style="fill:none;stroke:#ffffff;stroke-linecap:square;stroke-width:0.8;"/>
     </g>
     <g id="line2d_6">
      <g>
       <use style="fill:#555555;stroke:#555555;stroke-width:0.8;" x="262.704263" xlink:href="#m54d5f24090" y="157.5"/>
      </g>
     </g>
     <g id="text_3">
      <!-- 2020-04 -->
      <defs>
       <path d="M 37.796875 64.3125 
L 12.890625 25.390625 
L 37.796875 25.390625 
z
M 35.203125 72.90625 
L 47.609375 72.90625 
L 47.609375 25.390625 
L 58.015625 25.390625 
L 58.015625 17.1875 
L 47.609375 17.1875 
L 47.609375 0 
L 37.796875 0 
L 37.796875 17.1875 
L 4.890625 17.1875 
L 4.890625 26.703125 
z
" id="DejaVuSans-52"/>
      </defs>
      <g style="fill:#555555;" transform="translate(241.812856 172.098437)scale(0.1 -0.1)">
       <use xlink:href="#DejaVuSans-50"/>
       <use x="63.623047" xlink:href="#DejaVuSans-48"/>
       <use x="127.246094" xlink:href="#DejaVuSans-50"/>
       <use x="190.869141" xlink:href="#DejaVuSans-48"/>
       <use x="254.492188" xlink:href="#DejaVuSans-45"/>
       <use x="290.576172" xlink:href="#DejaVuSans-48"/>
       <use x="354.199219" xlink:href="#DejaVuSans-52"/>
      </g>
     </g>
    </g>
    <g id="xtick_4">
     <g id="line2d_7">
      <path clip-path="url(#p28e37d54ff)" d="M 325.850245 157.5 
L 325.850245 21.6 
" style="fill:none;stroke:#ffffff;stroke-linecap:square;stroke-width:0.8;"/>
     </g>
     <g id="line2d_8">
      <g>
       <use style="fill:#555555;stroke:#555555;stroke-width:0.8;" x="325.850245" xlink:href="#m54d5f24090" y="157.5"/>
      </g>
     </g>
     <g id="text_4">
      <!-- 2020-05 -->
      <defs>
       <path d="M 10.796875 72.90625 
L 49.515625 72.90625 
L 49.515625 64.59375 
L 19.828125 64.59375 
L 19.828125 46.734375 
Q 21.96875 47.46875 24.109375 47.828125 
Q 26.265625 48.1875 28.421875 48.1875 
Q 40.625 48.1875 47.75 41.5 
Q 54.890625 34.8125 54.890625 23.390625 
Q 54.890625 11.625 47.5625 5.09375 
Q 40.234375 -1.421875 26.90625 -1.421875 
Q 22.3125 -1.421875 17.546875 -0.640625 
Q 12.796875 0.140625 7.71875 1.703125 
L 7.71875 11.625 
Q 12.109375 9.234375 16.796875 8.0625 
Q 21.484375 6.890625 26.703125 6.890625 
Q 35.15625 6.890625 40.078125 11.328125 
Q 45.015625 15.765625 45.015625 23.390625 
Q 45.015625 31 40.078125 35.4375 
Q 35.15625 39.890625 26.703125 39.890625 
Q 22.75 39.890625 18.8125 39.015625 
Q 14.890625 38.140625 10.796875 36.28125 
z
" id="DejaVuSans-53"/>
      </defs>
      <g style="fill:#555555;" transform="translate(304.958839 172.098437)scale(0.1 -0.1)">
       <use xlink:href="#DejaVuSans-50"/>
       <use x="63.623047" xlink:href="#DejaVuSans-48"/>
       <use x="127.246094" xlink:href="#DejaVuSans-50"/>
       <use x="190.869141" xlink:href="#DejaVuSans-48"/>
       <use x="254.492188" xlink:href="#DejaVuSans-45"/>
       <use x="290.576172" xlink:href="#DejaVuSans-48"/>
       <use x="354.199219" xlink:href="#DejaVuSans-53"/>
      </g>
     </g>
    </g>
    <g id="xtick_5">
     <g id="line2d_9">
      <path clip-path="url(#p28e37d54ff)" d="M 391.101094 157.5 
L 391.101094 21.6 
" style="fill:none;stroke:#ffffff;stroke-linecap:square;stroke-width:0.8;"/>
     </g>
     <g id="line2d_10">
      <g>
       <use style="fill:#555555;stroke:#555555;stroke-width:0.8;" x="391.101094" xlink:href="#m54d5f24090" y="157.5"/>
      </g>
     </g>
     <g id="text_5">
      <!-- 2020-06 -->
      <defs>
       <path d="M 33.015625 40.375 
Q 26.375 40.375 22.484375 35.828125 
Q 18.609375 31.296875 18.609375 23.390625 
Q 18.609375 15.53125 22.484375 10.953125 
Q 26.375 6.390625 33.015625 6.390625 
Q 39.65625 6.390625 43.53125 10.953125 
Q 47.40625 15.53125 47.40625 23.390625 
Q 47.40625 31.296875 43.53125 35.828125 
Q 39.65625 40.375 33.015625 40.375 
z
M 52.59375 71.296875 
L 52.59375 62.3125 
Q 48.875 64.0625 45.09375 64.984375 
Q 41.3125 65.921875 37.59375 65.921875 
Q 27.828125 65.921875 22.671875 59.328125 
Q 17.53125 52.734375 16.796875 39.40625 
Q 19.671875 43.65625 24.015625 45.921875 
Q 28.375 48.1875 33.59375 48.1875 
Q 44.578125 48.1875 50.953125 41.515625 
Q 57.328125 34.859375 57.328125 23.390625 
Q 57.328125 12.15625 50.6875 5.359375 
Q 44.046875 -1.421875 33.015625 -1.421875 
Q 20.359375 -1.421875 13.671875 8.265625 
Q 6.984375 17.96875 6.984375 36.375 
Q 6.984375 53.65625 15.1875 63.9375 
Q 23.390625 74.21875 37.203125 74.21875 
Q 40.921875 74.21875 44.703125 73.484375 
Q 48.484375 72.75 52.59375 71.296875 
z
" id="DejaVuSans-54"/>
      </defs>
      <g style="fill:#555555;" transform="translate(370.209688 172.098437)scale(0.1 -0.1)">
       <use xlink:href="#DejaVuSans-50"/>
       <use x="63.623047" xlink:href="#DejaVuSans-48"/>
       <use x="127.246094" xlink:href="#DejaVuSans-50"/>
       <use x="190.869141" xlink:href="#DejaVuSans-48"/>
       <use x="254.492188" xlink:href="#DejaVuSans-45"/>
       <use x="290.576172" xlink:href="#DejaVuSans-48"/>
       <use x="354.199219" xlink:href="#DejaVuSans-54"/>
      </g>
     </g>
    </g>
    <g id="xtick_6">
     <g id="line2d_11">
      <path clip-path="url(#p28e37d54ff)" d="M 454.247077 157.5 
L 454.247077 21.6 
" style="fill:none;stroke:#ffffff;stroke-linecap:square;stroke-width:0.8;"/>
     </g>
     <g id="line2d_12">
      <g>
       <use style="fill:#555555;stroke:#555555;stroke-width:0.8;" x="454.247077" xlink:href="#m54d5f24090" y="157.5"/>
      </g>
     </g>
     <g id="text_6">
      <!-- 2020-07 -->
      <defs>
       <path d="M 8.203125 72.90625 
L 55.078125 72.90625 
L 55.078125 68.703125 
L 28.609375 0 
L 18.3125 0 
L 43.21875 64.59375 
L 8.203125 64.59375 
z
" id="DejaVuSans-55"/>
      </defs>
      <g style="fill:#555555;" transform="translate(433.35567 172.098437)scale(0.1 -0.1)">
       <use xlink:href="#DejaVuSans-50"/>
       <use x="63.623047" xlink:href="#DejaVuSans-48"/>
       <use x="127.246094" xlink:href="#DejaVuSans-50"/>
       <use x="190.869141" xlink:href="#DejaVuSans-48"/>
       <use x="254.492188" xlink:href="#DejaVuSans-45"/>
       <use x="290.576172" xlink:href="#DejaVuSans-48"/>
       <use x="354.199219" xlink:href="#DejaVuSans-55"/>
      </g>
     </g>
    </g>
    <g id="xtick_7">
     <g id="line2d_13">
      <path clip-path="url(#p28e37d54ff)" d="M 519.497925 157.5 
L 519.497925 21.6 
" style="fill:none;stroke:#ffffff;stroke-linecap:square;stroke-width:0.8;"/>
     </g>
     <g id="line2d_14">
      <g>
       <use style="fill:#555555;stroke:#555555;stroke-width:0.8;" x="519.497925" xlink:href="#m54d5f24090" y="157.5"/>
      </g>
     </g>
     <g id="text_7">
      <!-- 2020-08 -->
      <defs>
       <path d="M 31.78125 34.625 
Q 24.75 34.625 20.71875 30.859375 
Q 16.703125 27.09375 16.703125 20.515625 
Q 16.703125 13.921875 20.71875 10.15625 
Q 24.75 6.390625 31.78125 6.390625 
Q 38.8125 6.390625 42.859375 10.171875 
Q 46.921875 13.96875 46.921875 20.515625 
Q 46.921875 27.09375 42.890625 30.859375 
Q 38.875 34.625 31.78125 34.625 
z
M 21.921875 38.8125 
Q 15.578125 40.375 12.03125 44.71875 
Q 8.5 49.078125 8.5 55.328125 
Q 8.5 64.0625 14.71875 69.140625 
Q 20.953125 74.21875 31.78125 74.21875 
Q 42.671875 74.21875 48.875 69.140625 
Q 55.078125 64.0625 55.078125 55.328125 
Q 55.078125 49.078125 51.53125 44.71875 
Q 48 40.375 41.703125 38.8125 
Q 48.828125 37.15625 52.796875 32.3125 
Q 56.78125 27.484375 56.78125 20.515625 
Q 56.78125 9.90625 50.3125 4.234375 
Q 43.84375 -1.421875 31.78125 -1.421875 
Q 19.734375 -1.421875 13.25 4.234375 
Q 6.78125 9.90625 6.78125 20.515625 
Q 6.78125 27.484375 10.78125 32.3125 
Q 14.796875 37.15625 21.921875 38.8125 
z
M 18.3125 54.390625 
Q 18.3125 48.734375 21.84375 45.5625 
Q 25.390625 42.390625 31.78125 42.390625 
Q 38.140625 42.390625 41.71875 45.5625 
Q 45.3125 48.734375 45.3125 54.390625 
Q 45.3125 60.0625 41.71875 63.234375 
Q 38.140625 66.40625 31.78125 66.40625 
Q 25.390625 66.40625 21.84375 63.234375 
Q 18.3125 60.0625 18.3125 54.390625 
z
" id="DejaVuSans-56"/>
      </defs>
      <g style="fill:#555555;" transform="translate(498.606519 172.098437)scale(0.1 -0.1)">
       <use xlink:href="#DejaVuSans-50"/>
       <use x="63.623047" xlink:href="#DejaVuSans-48"/>
       <use x="127.246094" xlink:href="#DejaVuSans-50"/>
       <use x="190.869141" xlink:href="#DejaVuSans-48"/>
       <use x="254.492188" xlink:href="#DejaVuSans-45"/>
       <use x="290.576172" xlink:href="#DejaVuSans-48"/>
       <use x="354.199219" xlink:href="#DejaVuSans-56"/>
      </g>
     </g>
    </g>
    <g id="xtick_8">
     <g id="line2d_15">
      <path clip-path="url(#p28e37d54ff)" d="M 584.748774 157.5 
L 584.748774 21.6 
" style="fill:none;stroke:#ffffff;stroke-linecap:square;stroke-width:0.8;"/>
     </g>
     <g id="line2d_16">
      <g>
       <use style="fill:#555555;stroke:#555555;stroke-width:0.8;" x="584.748774" xlink:href="#m54d5f24090" y="157.5"/>
      </g>
     </g>
     <g id="text_8">
      <!-- 2020-09 -->
      <defs>
       <path d="M 10.984375 1.515625 
L 10.984375 10.5 
Q 14.703125 8.734375 18.5 7.8125 
Q 22.3125 6.890625 25.984375 6.890625 
Q 35.75 6.890625 40.890625 13.453125 
Q 46.046875 20.015625 46.78125 33.40625 
Q 43.953125 29.203125 39.59375 26.953125 
Q 35.25 24.703125 29.984375 24.703125 
Q 19.046875 24.703125 12.671875 31.3125 
Q 6.296875 37.9375 6.296875 49.421875 
Q 6.296875 60.640625 12.9375 67.421875 
Q 19.578125 74.21875 30.609375 74.21875 
Q 43.265625 74.21875 49.921875 64.515625 
Q 56.59375 54.828125 56.59375 36.375 
Q 56.59375 19.140625 48.40625 8.859375 
Q 40.234375 -1.421875 26.421875 -1.421875 
Q 22.703125 -1.421875 18.890625 -0.6875 
Q 15.09375 0.046875 10.984375 1.515625 
z
M 30.609375 32.421875 
Q 37.25 32.421875 41.125 36.953125 
Q 45.015625 41.5 45.015625 49.421875 
Q 45.015625 57.28125 41.125 61.84375 
Q 37.25 66.40625 30.609375 66.40625 
Q 23.96875 66.40625 20.09375 61.84375 
Q 16.21875 57.28125 16.21875 49.421875 
Q 16.21875 41.5 20.09375 36.953125 
Q 23.96875 32.421875 30.609375 32.421875 
z
" id="DejaVuSans-57"/>
      </defs>
      <g style="fill:#555555;" transform="translate(563.857368 172.098437)scale(0.1 -0.1)">
       <use xlink:href="#DejaVuSans-50"/>
       <use x="63.623047" xlink:href="#DejaVuSans-48"/>
       <use x="127.246094" xlink:href="#DejaVuSans-50"/>
       <use x="190.869141" xlink:href="#DejaVuSans-48"/>
       <use x="254.492188" xlink:href="#DejaVuSans-45"/>
       <use x="290.576172" xlink:href="#DejaVuSans-48"/>
       <use x="354.199219" xlink:href="#DejaVuSans-57"/>
      </g>
     </g>
    </g>
    <g id="xtick_9">
     <g id="line2d_17">
      <path clip-path="url(#p28e37d54ff)" d="M 647.894757 157.5 
L 647.894757 21.6 
" style="fill:none;stroke:#ffffff;stroke-linecap:square;stroke-width:0.8;"/>
     </g>
     <g id="line2d_18">
      <g>
       <use style="fill:#555555;stroke:#555555;stroke-width:0.8;" x="647.894757" xlink:href="#m54d5f24090" y="157.5"/>
      </g>
     </g>
     <g id="text_9">
      <!-- 2020-10 -->
      <defs>
       <path d="M 12.40625 8.296875 
L 28.515625 8.296875 
L 28.515625 63.921875 
L 10.984375 60.40625 
L 10.984375 69.390625 
L 28.421875 72.90625 
L 38.28125 72.90625 
L 38.28125 8.296875 
L 54.390625 8.296875 
L 54.390625 0 
L 12.40625 0 
z
" id="DejaVuSans-49"/>
      </defs>
      <g style="fill:#555555;" transform="translate(627.00335 172.098437)scale(0.1 -0.1)">
       <use xlink:href="#DejaVuSans-50"/>
       <use x="63.623047" xlink:href="#DejaVuSans-48"/>
       <use x="127.246094" xlink:href="#DejaVuSans-50"/>
       <use x="190.869141" xlink:href="#DejaVuSans-48"/>
       <use x="254.492188" xlink:href="#DejaVuSans-45"/>
       <use x="290.576172" xlink:href="#DejaVuSans-49"/>
       <use x="354.199219" xlink:href="#DejaVuSans-48"/>
      </g>
     </g>
    </g>
   </g>
   <g id="matplotlib.axis_2">
    <g id="ytick_1">
     <g id="line2d_19">
      <path clip-path="url(#p28e37d54ff)" d="M 90 157.5 
L 648 157.5 
" style="fill:none;stroke:#ffffff;stroke-linecap:square;stroke-width:0.8;"/>
     </g>
     <g id="line2d_20">
      <defs>
       <path d="M 0 0 
L -3.5 0 
" id="me82b55b14e" style="stroke:#555555;stroke-width:0.8;"/>
      </defs>
      <g>
       <use style="fill:#555555;stroke:#555555;stroke-width:0.8;" x="90" xlink:href="#me82b55b14e" y="157.5"/>
      </g>
     </g>
     <g id="line2d_21">
      <defs>
       <path d="M 0 0 
L 3.5 0 
" id="mbf8896292e" style="stroke:#555555;stroke-width:0.8;"/>
      </defs>
      <g>
       <use style="fill:#555555;stroke:#555555;stroke-width:0.8;" x="648" xlink:href="#mbf8896292e" y="157.5"/>
      </g>
     </g>
     <g id="text_10">
      <!-- 0 -->
      <g style="fill:#555555;" transform="translate(76.6375 161.299219)scale(0.1 -0.1)">
       <use xlink:href="#DejaVuSans-48"/>
      </g>
     </g>
     <g id="text_11">
      <!-- 0 -->
      <g style="fill:#555555;" transform="translate(655 161.299219)scale(0.1 -0.1)">
       <use xlink:href="#DejaVuSans-48"/>
      </g>
     </g>
    </g>
    <g id="ytick_2">
     <g id="line2d_22">
      <path clip-path="url(#p28e37d54ff)" d="M 90 127.082004 
L 648 127.082004 
" style="fill:none;stroke:#ffffff;stroke-linecap:square;stroke-width:0.8;"/>
     </g>
     <g id="line2d_23">
      <g>
       <use style="fill:#555555;stroke:#555555;stroke-width:0.8;" x="90" xlink:href="#me82b55b14e" y="127.082004"/>
      </g>
     </g>
     <g id="line2d_24">
      <g>
       <use style="fill:#555555;stroke:#555555;stroke-width:0.8;" x="648" xlink:href="#mbf8896292e" y="127.082004"/>
      </g>
     </g>
     <g id="text_12">
      <!-- 200 -->
      <g style="fill:#555555;" transform="translate(63.9125 130.881223)scale(0.1 -0.1)">
       <use xlink:href="#DejaVuSans-50"/>
       <use x="63.623047" xlink:href="#DejaVuSans-48"/>
       <use x="127.246094" xlink:href="#DejaVuSans-48"/>
      </g>
     </g>
     <g id="text_13">
      <!-- 200 -->
      <g style="fill:#555555;" transform="translate(655 130.881223)scale(0.1 -0.1)">
       <use xlink:href="#DejaVuSans-50"/>
       <use x="63.623047" xlink:href="#DejaVuSans-48"/>
       <use x="127.246094" xlink:href="#DejaVuSans-48"/>
      </g>
     </g>
    </g>
    <g id="ytick_3">
     <g id="line2d_25">
      <path clip-path="url(#p28e37d54ff)" d="M 90 96.664009 
L 648 96.664009 
" style="fill:none;stroke:#ffffff;stroke-linecap:square;stroke-width:0.8;"/>
     </g>
     <g id="line2d_26">
      <g>
       <use style="fill:#555555;stroke:#555555;stroke-width:0.8;" x="90" xlink:href="#me82b55b14e" y="96.664009"/>
      </g>
     </g>
     <g id="line2d_27">
      <g>
       <use style="fill:#555555;stroke:#555555;stroke-width:0.8;" x="648" xlink:href="#mbf8896292e" y="96.664009"/>
      </g>
     </g>
     <g id="text_14">
      <!-- 400 -->
      <g style="fill:#555555;" transform="translate(63.9125 100.463227)scale(0.1 -0.1)">
       <use xlink:href="#DejaVuSans-52"/>
       <use x="63.623047" xlink:href="#DejaVuSans-48"/>
       <use x="127.246094" xlink:href="#DejaVuSans-48"/>
      </g>
     </g>
     <g id="text_15">
      <!-- 400 -->
      <g style="fill:#555555;" transform="translate(655 100.463227)scale(0.1 -0.1)">
       <use xlink:href="#DejaVuSans-52"/>
       <use x="63.623047" xlink:href="#DejaVuSans-48"/>
       <use x="127.246094" xlink:href="#DejaVuSans-48"/>
      </g>
     </g>
    </g>
    <g id="ytick_4">
     <g id="line2d_28">
      <path clip-path="url(#p28e37d54ff)" d="M 90 66.246013 
L 648 66.246013 
" style="fill:none;stroke:#ffffff;stroke-linecap:square;stroke-width:0.8;"/>
     </g>
     <g id="line2d_29">
      <g>
       <use style="fill:#555555;stroke:#555555;stroke-width:0.8;" x="90" xlink:href="#me82b55b14e" y="66.246013"/>
      </g>
     </g>
     <g id="line2d_30">
      <g>
       <use style="fill:#555555;stroke:#555555;stroke-width:0.8;" x="648" xlink:href="#mbf8896292e" y="66.246013"/>
      </g>
     </g>
     <g id="text_16">
      <!-- 600 -->
      <g style="fill:#555555;" transform="translate(63.9125 70.045232)scale(0.1 -0.1)">
       <use xlink:href="#DejaVuSans-54"/>
       <use x="63.623047" xlink:href="#DejaVuSans-48"/>
       <use x="127.246094" xlink:href="#DejaVuSans-48"/>
      </g>
     </g>
     <g id="text_17">
      <!-- 600 -->
      <g style="fill:#555555;" transform="translate(655 70.045232)scale(0.1 -0.1)">
       <use xlink:href="#DejaVuSans-54"/>
       <use x="63.623047" xlink:href="#DejaVuSans-48"/>
       <use x="127.246094" xlink:href="#DejaVuSans-48"/>
      </g>
     </g>
    </g>
    <g id="ytick_5">
     <g id="line2d_31">
      <path clip-path="url(#p28e37d54ff)" d="M 90 35.828017 
L 648 35.828017 
" style="fill:none;stroke:#ffffff;stroke-linecap:square;stroke-width:0.8;"/>
     </g>
     <g id="line2d_32">
      <g>
       <use style="fill:#555555;stroke:#555555;stroke-width:0.8;" x="90" xlink:href="#me82b55b14e" y="35.828017"/>
      </g>
     </g>
     <g id="line2d_33">
      <g>
       <use style="fill:#555555;stroke:#555555;stroke-width:0.8;" x="648" xlink:href="#mbf8896292e" y="35.828017"/>
      </g>
     </g>
     <g id="text_18">
      <!-- 800 -->
      <g style="fill:#555555;" transform="translate(63.9125 39.627236)scale(0.1 -0.1)">
       <use xlink:href="#DejaVuSans-56"/>
       <use x="63.623047" xlink:href="#DejaVuSans-48"/>
       <use x="127.246094" xlink:href="#DejaVuSans-48"/>
      </g>
     </g>
     <g id="text_19">
      <!-- 800 -->
      <g style="fill:#555555;" transform="translate(655 39.627236)scale(0.1 -0.1)">
       <use xlink:href="#DejaVuSans-56"/>
       <use x="63.623047" xlink:href="#DejaVuSans-48"/>
       <use x="127.246094" xlink:href="#DejaVuSans-48"/>
      </g>
     </g>
    </g>
    <g id="text_20">
     <!-- daily change -->
     <defs>
      <path d="M 45.40625 46.390625 
L 45.40625 75.984375 
L 54.390625 75.984375 
L 54.390625 0 
L 45.40625 0 
L 45.40625 8.203125 
Q 42.578125 3.328125 38.25 0.953125 
Q 33.9375 -1.421875 27.875 -1.421875 
Q 17.96875 -1.421875 11.734375 6.484375 
Q 5.515625 14.40625 5.515625 27.296875 
Q 5.515625 40.1875 11.734375 48.09375 
Q 17.96875 56 27.875 56 
Q 33.9375 56 38.25 53.625 
Q 42.578125 51.265625 45.40625 46.390625 
z
M 14.796875 27.296875 
Q 14.796875 17.390625 18.875 11.75 
Q 22.953125 6.109375 30.078125 6.109375 
Q 37.203125 6.109375 41.296875 11.75 
Q 45.40625 17.390625 45.40625 27.296875 
Q 45.40625 37.203125 41.296875 42.84375 
Q 37.203125 48.484375 30.078125 48.484375 
Q 22.953125 48.484375 18.875 42.84375 
Q 14.796875 37.203125 14.796875 27.296875 
z
" id="DejaVuSans-100"/>
      <path d="M 34.28125 27.484375 
Q 23.390625 27.484375 19.1875 25 
Q 14.984375 22.515625 14.984375 16.5 
Q 14.984375 11.71875 18.140625 8.90625 
Q 21.296875 6.109375 26.703125 6.109375 
Q 34.1875 6.109375 38.703125 11.40625 
Q 43.21875 16.703125 43.21875 25.484375 
L 43.21875 27.484375 
z
M 52.203125 31.203125 
L 52.203125 0 
L 43.21875 0 
L 43.21875 8.296875 
Q 40.140625 3.328125 35.546875 0.953125 
Q 30.953125 -1.421875 24.3125 -1.421875 
Q 15.921875 -1.421875 10.953125 3.296875 
Q 6 8.015625 6 15.921875 
Q 6 25.140625 12.171875 29.828125 
Q 18.359375 34.515625 30.609375 34.515625 
L 43.21875 34.515625 
L 43.21875 35.40625 
Q 43.21875 41.609375 39.140625 45 
Q 35.0625 48.390625 27.6875 48.390625 
Q 23 48.390625 18.546875 47.265625 
Q 14.109375 46.140625 10.015625 43.890625 
L 10.015625 52.203125 
Q 14.9375 54.109375 19.578125 55.046875 
Q 24.21875 56 28.609375 56 
Q 40.484375 56 46.34375 49.84375 
Q 52.203125 43.703125 52.203125 31.203125 
z
" id="DejaVuSans-97"/>
      <path d="M 9.421875 54.6875 
L 18.40625 54.6875 
L 18.40625 0 
L 9.421875 0 
z
M 9.421875 75.984375 
L 18.40625 75.984375 
L 18.40625 64.59375 
L 9.421875 64.59375 
z
" id="DejaVuSans-105"/>
      <path d="M 9.421875 75.984375 
L 18.40625 75.984375 
L 18.40625 0 
L 9.421875 0 
z
" id="DejaVuSans-108"/>
      <path d="M 32.171875 -5.078125 
Q 28.375 -14.84375 24.75 -17.8125 
Q 21.140625 -20.796875 15.09375 -20.796875 
L 7.90625 -20.796875 
L 7.90625 -13.28125 
L 13.1875 -13.28125 
Q 16.890625 -13.28125 18.9375 -11.515625 
Q 21 -9.765625 23.484375 -3.21875 
L 25.09375 0.875 
L 2.984375 54.6875 
L 12.5 54.6875 
L 29.59375 11.921875 
L 46.6875 54.6875 
L 56.203125 54.6875 
z
" id="DejaVuSans-121"/>
      <path id="DejaVuSans-32"/>
      <path d="M 48.78125 52.59375 
L 48.78125 44.1875 
Q 44.96875 46.296875 41.140625 47.34375 
Q 37.3125 48.390625 33.40625 48.390625 
Q 24.65625 48.390625 19.8125 42.84375 
Q 14.984375 37.3125 14.984375 27.296875 
Q 14.984375 17.28125 19.8125 11.734375 
Q 24.65625 6.203125 33.40625 6.203125 
Q 37.3125 6.203125 41.140625 7.25 
Q 44.96875 8.296875 48.78125 10.40625 
L 48.78125 2.09375 
Q 45.015625 0.34375 40.984375 -0.53125 
Q 36.96875 -1.421875 32.421875 -1.421875 
Q 20.0625 -1.421875 12.78125 6.34375 
Q 5.515625 14.109375 5.515625 27.296875 
Q 5.515625 40.671875 12.859375 48.328125 
Q 20.21875 56 33.015625 56 
Q 37.15625 56 41.109375 55.140625 
Q 45.0625 54.296875 48.78125 52.59375 
z
" id="DejaVuSans-99"/>
      <path d="M 54.890625 33.015625 
L 54.890625 0 
L 45.90625 0 
L 45.90625 32.71875 
Q 45.90625 40.484375 42.875 44.328125 
Q 39.84375 48.1875 33.796875 48.1875 
Q 26.515625 48.1875 22.3125 43.546875 
Q 18.109375 38.921875 18.109375 30.90625 
L 18.109375 0 
L 9.078125 0 
L 9.078125 75.984375 
L 18.109375 75.984375 
L 18.109375 46.1875 
Q 21.34375 51.125 25.703125 53.5625 
Q 30.078125 56 35.796875 56 
Q 45.21875 56 50.046875 50.171875 
Q 54.890625 44.34375 54.890625 33.015625 
z
" id="DejaVuSans-104"/>
      <path d="M 54.890625 33.015625 
L 54.890625 0 
L 45.90625 0 
L 45.90625 32.71875 
Q 45.90625 40.484375 42.875 44.328125 
Q 39.84375 48.1875 33.796875 48.1875 
Q 26.515625 48.1875 22.3125 43.546875 
Q 18.109375 38.921875 18.109375 30.90625 
L 18.109375 0 
L 9.078125 0 
L 9.078125 54.6875 
L 18.109375 54.6875 
L 18.109375 46.1875 
Q 21.34375 51.125 25.703125 53.5625 
Q 30.078125 56 35.796875 56 
Q 45.21875 56 50.046875 50.171875 
Q 54.890625 44.34375 54.890625 33.015625 
z
" id="DejaVuSans-110"/>
      <path d="M 45.40625 27.984375 
Q 45.40625 37.75 41.375 43.109375 
Q 37.359375 48.484375 30.078125 48.484375 
Q 22.859375 48.484375 18.828125 43.109375 
Q 14.796875 37.75 14.796875 27.984375 
Q 14.796875 18.265625 18.828125 12.890625 
Q 22.859375 7.515625 30.078125 7.515625 
Q 37.359375 7.515625 41.375 12.890625 
Q 45.40625 18.265625 45.40625 27.984375 
z
M 54.390625 6.78125 
Q 54.390625 -7.171875 48.1875 -13.984375 
Q 42 -20.796875 29.203125 -20.796875 
Q 24.46875 -20.796875 20.265625 -20.09375 
Q 16.0625 -19.390625 12.109375 -17.921875 
L 12.109375 -9.1875 
Q 16.0625 -11.328125 19.921875 -12.34375 
Q 23.78125 -13.375 27.78125 -13.375 
Q 36.625 -13.375 41.015625 -8.765625 
Q 45.40625 -4.15625 45.40625 5.171875 
L 45.40625 9.625 
Q 42.625 4.78125 38.28125 2.390625 
Q 33.9375 0 27.875 0 
Q 17.828125 0 11.671875 7.65625 
Q 5.515625 15.328125 5.515625 27.984375 
Q 5.515625 40.671875 11.671875 48.328125 
Q 17.828125 56 27.875 56 
Q 33.9375 56 38.28125 53.609375 
Q 42.625 51.21875 45.40625 46.390625 
L 45.40625 54.6875 
L 54.390625 54.6875 
z
" id="DejaVuSans-103"/>
      <path d="M 56.203125 29.59375 
L 56.203125 25.203125 
L 14.890625 25.203125 
Q 15.484375 15.921875 20.484375 11.0625 
Q 25.484375 6.203125 34.421875 6.203125 
Q 39.59375 6.203125 44.453125 7.46875 
Q 49.3125 8.734375 54.109375 11.28125 
L 54.109375 2.78125 
Q 49.265625 0.734375 44.1875 -0.34375 
Q 39.109375 -1.421875 33.890625 -1.421875 
Q 20.796875 -1.421875 13.15625 6.1875 
Q 5.515625 13.8125 5.515625 26.8125 
Q 5.515625 40.234375 12.765625 48.109375 
Q 20.015625 56 32.328125 56 
Q 43.359375 56 49.78125 48.890625 
Q 56.203125 41.796875 56.203125 29.59375 
z
M 47.21875 32.234375 
Q 47.125 39.59375 43.09375 43.984375 
Q 39.0625 48.390625 32.421875 48.390625 
Q 24.90625 48.390625 20.390625 44.140625 
Q 15.875 39.890625 15.1875 32.171875 
z
" id="DejaVuSans-101"/>
     </defs>
     <g style="fill:#555555;" transform="translate(57.416875 127.909687)rotate(-90)scale(0.12 -0.12)">
      <use xlink:href="#DejaVuSans-100"/>
      <use x="63.476562" xlink:href="#DejaVuSans-97"/>
      <use x="124.755859" xlink:href="#DejaVuSans-105"/>
      <use x="152.539062" xlink:href="#DejaVuSans-108"/>
      <use x="180.322266" xlink:href="#DejaVuSans-121"/>
      <use x="239.501953" xlink:href="#DejaVuSans-32"/>
      <use x="271.289062" xlink:href="#DejaVuSans-99"/>
      <use x="326.269531" xlink:href="#DejaVuSans-104"/>
      <use x="389.648438" xlink:href="#DejaVuSans-97"/>
      <use x="450.927734" xlink:href="#DejaVuSans-110"/>
      <use x="514.306641" xlink:href="#DejaVuSans-103"/>
      <use x="577.783203" xlink:href="#DejaVuSans-101"/>
     </g>
    </g>
   </g>
   <g id="patch_3">
    <path clip-path="url(#p28e37d54ff)" d="M 116.626556 157.5 
L 118.310449 157.5 
L 118.310449 157.5 
L 116.626556 157.5 
z
" style="fill:#348abd;opacity:0.2;"/>
   </g>
   <g id="patch_4">
    <path clip-path="url(#p28e37d54ff)" d="M 118.731422 157.5 
L 120.415315 157.5 
L 120.415315 157.34791 
L 118.731422 157.34791 
z
" style="fill:#348abd;opacity:0.2;"/>
   </g>
   <g id="patch_5">
    <path clip-path="url(#p28e37d54ff)" d="M 120.836288 157.5 
L 122.520181 157.5 
L 122.520181 157.5 
L 120.836288 157.5 
z
" style="fill:#348abd;opacity:0.2;"/>
   </g>
   <g id="patch_6">
    <path clip-path="url(#p28e37d54ff)" d="M 122.941154 157.5 
L 124.625047 157.5 
L 124.625047 157.34791 
L 122.941154 157.34791 
z
" style="fill:#348abd;opacity:0.2;"/>
   </g>
   <g id="patch_7">
    <path clip-path="url(#p28e37d54ff)" d="M 125.04602 157.5 
L 126.729913 157.5 
L 126.729913 157.34791 
L 125.04602 157.34791 
z
" style="fill:#348abd;opacity:0.2;"/>
   </g>
   <g id="patch_8">
    <path clip-path="url(#p28e37d54ff)" d="M 127.150886 157.5 
L 128.834779 157.5 
L 128.834779 157.5 
L 127.150886 157.5 
z
" style="fill:#348abd;opacity:0.2;"/>
   </g>
   <g id="patch_9">
    <path clip-path="url(#p28e37d54ff)" d="M 129.255753 157.5 
L 130.939645 157.5 
L 130.939645 157.5 
L 129.255753 157.5 
z
" style="fill:#348abd;opacity:0.2;"/>
   </g>
   <g id="patch_10">
    <path clip-path="url(#p28e37d54ff)" d="M 131.360619 157.5 
L 133.044512 157.5 
L 133.044512 157.5 
L 131.360619 157.5 
z
" style="fill:#348abd;opacity:0.2;"/>
   </g>
   <g id="patch_11">
    <path clip-path="url(#p28e37d54ff)" d="M 133.465485 157.5 
L 135.149378 157.5 
L 135.149378 156.43537 
L 133.465485 156.43537 
z
" style="fill:#348abd;opacity:0.2;"/>
   </g>
   <g id="patch_12">
    <path clip-path="url(#p28e37d54ff)" d="M 135.570351 157.5 
L 137.254244 157.5 
L 137.254244 157.34791 
L 135.570351 157.34791 
z
" style="fill:#348abd;opacity:0.2;"/>
   </g>
   <g id="patch_13">
    <path clip-path="url(#p28e37d54ff)" d="M 137.675217 157.5 
L 139.35911 157.5 
L 139.35911 157.04373 
L 137.675217 157.04373 
z
" style="fill:#348abd;opacity:0.2;"/>
   </g>
   <g id="patch_14">
    <path clip-path="url(#p28e37d54ff)" d="M 139.780083 157.5 
L 141.463976 157.5 
L 141.463976 157.5 
L 139.780083 157.5 
z
" style="fill:#348abd;opacity:0.2;"/>
   </g>
   <g id="patch_15">
    <path clip-path="url(#p28e37d54ff)" d="M 141.884949 157.5 
L 143.568842 157.5 
L 143.568842 157.34791 
L 141.884949 157.34791 
z
" style="fill:#348abd;opacity:0.2;"/>
   </g>
   <g id="patch_16">
    <path clip-path="url(#p28e37d54ff)" d="M 143.989815 157.5 
L 145.673708 157.5 
L 145.673708 157.04373 
L 143.989815 157.04373 
z
" style="fill:#348abd;opacity:0.2;"/>
   </g>
   <g id="patch_17">
    <path clip-path="url(#p28e37d54ff)" d="M 146.094681 157.5 
L 147.778574 157.5 
L 147.778574 156.89164 
L 146.094681 156.89164 
z
" style="fill:#348abd;opacity:0.2;"/>
   </g>
   <g id="patch_18">
    <path clip-path="url(#p28e37d54ff)" d="M 148.199547 157.5 
L 149.88344 157.5 
L 149.88344 157.34791 
L 148.199547 157.34791 
z
" style="fill:#348abd;opacity:0.2;"/>
   </g>
   <g id="patch_19">
    <path clip-path="url(#p28e37d54ff)" d="M 150.304413 157.5 
L 151.988306 157.5 
L 151.988306 157.5 
L 150.304413 157.5 
z
" style="fill:#348abd;opacity:0.2;"/>
   </g>
   <g id="patch_20">
    <path clip-path="url(#p28e37d54ff)" d="M 152.40928 157.5 
L 154.093172 157.5 
L 154.093172 157.34791 
L 152.40928 157.34791 
z
" style="fill:#348abd;opacity:0.2;"/>
   </g>
   <g id="patch_21">
    <path clip-path="url(#p28e37d54ff)" d="M 154.514146 157.5 
L 156.198038 157.5 
L 156.198038 157.19582 
L 154.514146 157.19582 
z
" style="fill:#348abd;opacity:0.2;"/>
   </g>
   <g id="patch_22">
    <path clip-path="url(#p28e37d54ff)" d="M 156.619012 157.5 
L 158.302905 157.5 
L 158.302905 157.34791 
L 156.619012 157.34791 
z
" style="fill:#348abd;opacity:0.2;"/>
   </g>
   <g id="patch_23">
    <path clip-path="url(#p28e37d54ff)" d="M 158.723878 157.5 
L 160.407771 157.5 
L 160.407771 157.5 
L 158.723878 157.5 
z
" style="fill:#348abd;opacity:0.2;"/>
   </g>
   <g id="patch_24">
    <path clip-path="url(#p28e37d54ff)" d="M 160.828744 157.5 
L 162.512637 157.5 
L 162.512637 157.5 
L 160.828744 157.5 
z
" style="fill:#348abd;opacity:0.2;"/>
   </g>
   <g id="patch_25">
    <path clip-path="url(#p28e37d54ff)" d="M 162.93361 157.5 
L 164.617503 157.5 
L 164.617503 157.5 
L 162.93361 157.5 
z
" style="fill:#348abd;opacity:0.2;"/>
   </g>
   <g id="patch_26">
    <path clip-path="url(#p28e37d54ff)" d="M 165.038476 157.5 
L 166.722369 157.5 
L 166.722369 157.5 
L 165.038476 157.5 
z
" style="fill:#348abd;opacity:0.2;"/>
   </g>
   <g id="patch_27">
    <path clip-path="url(#p28e37d54ff)" d="M 167.143342 157.5 
L 168.827235 157.5 
L 168.827235 157.34791 
L 167.143342 157.34791 
z
" style="fill:#348abd;opacity:0.2;"/>
   </g>
   <g id="patch_28">
    <path clip-path="url(#p28e37d54ff)" d="M 169.248208 157.5 
L 170.932101 157.5 
L 170.932101 157.34791 
L 169.248208 157.34791 
z
" style="fill:#348abd;opacity:0.2;"/>
   </g>
   <g id="patch_29">
    <path clip-path="url(#p28e37d54ff)" d="M 171.353074 157.5 
L 173.036967 157.5 
L 173.036967 157.34791 
L 171.353074 157.34791 
z
" style="fill:#348abd;opacity:0.2;"/>
   </g>
   <g id="patch_30">
    <path clip-path="url(#p28e37d54ff)" d="M 173.45794 157.5 
L 175.141833 157.5 
L 175.141833 157.5 
L 173.45794 157.5 
z
" style="fill:#348abd;opacity:0.2;"/>
   </g>
   <g id="patch_31">
    <path clip-path="url(#p28e37d54ff)" d="M 175.562806 157.5 
L 177.246699 157.5 
L 177.246699 146.397432 
L 175.562806 146.397432 
z
" style="fill:#348abd;opacity:0.2;"/>
   </g>
   <g id="patch_32">
    <path clip-path="url(#p28e37d54ff)" d="M 177.667673 157.5 
L 179.351565 157.5 
L 179.351565 142.291002 
L 177.667673 142.291002 
z
" style="fill:#348abd;opacity:0.2;"/>
   </g>
   <g id="patch_33">
    <path clip-path="url(#p28e37d54ff)" d="M 179.772539 157.5 
L 181.456432 157.5 
L 181.456432 122.671395 
L 179.772539 122.671395 
z
" style="fill:#348abd;opacity:0.2;"/>
   </g>
   <g id="patch_34">
    <path clip-path="url(#p28e37d54ff)" d="M 181.877405 157.5 
L 183.561298 157.5 
L 183.561298 131.796794 
L 181.877405 131.796794 
z
" style="fill:#348abd;opacity:0.2;"/>
   </g>
   <g id="patch_35">
    <path clip-path="url(#p28e37d54ff)" d="M 183.982271 157.5 
L 185.666164 157.5 
L 185.666164 122.367215 
L 183.982271 122.367215 
z
" style="fill:#348abd;opacity:0.2;"/>
   </g>
   <g id="patch_36">
    <path clip-path="url(#p28e37d54ff)" d="M 186.087137 157.5 
L 187.77103 157.5 
L 187.77103 135.599043 
L 186.087137 135.599043 
z
" style="fill:#348abd;opacity:0.2;"/>
   </g>
   <g id="patch_37">
    <path clip-path="url(#p28e37d54ff)" d="M 188.192003 157.5 
L 189.875896 157.5 
L 189.875896 114.306446 
L 188.192003 114.306446 
z
" style="fill:#348abd;opacity:0.2;"/>
   </g>
   <g id="patch_38">
    <path clip-path="url(#p28e37d54ff)" d="M 190.296869 157.5 
L 191.980762 157.5 
L 191.980762 80.694561 
L 190.296869 80.694561 
z
" style="fill:#348abd;opacity:0.2;"/>
   </g>
   <g id="patch_39">
    <path clip-path="url(#p28e37d54ff)" d="M 192.401735 157.5 
L 194.085628 157.5 
L 194.085628 70.656622 
L 192.401735 70.656622 
z
" style="fill:#348abd;opacity:0.2;"/>
   </g>
   <g id="patch_40">
    <path clip-path="url(#p28e37d54ff)" d="M 194.506601 157.5 
L 196.190494 157.5 
L 196.190494 33.850848 
L 194.506601 33.850848 
z
" style="fill:#348abd;opacity:0.2;"/>
   </g>
   <g id="patch_41">
    <path clip-path="url(#p28e37d54ff)" d="M 196.611467 157.5 
L 198.29536 157.5 
L 198.29536 68.375273 
L 196.611467 68.375273 
z
" style="fill:#348abd;opacity:0.2;"/>
   </g>
   <g id="patch_42">
    <path clip-path="url(#p28e37d54ff)" d="M 198.716333 157.5 
L 200.400226 157.5 
L 200.400226 66.398103 
L 198.716333 66.398103 
z
" style="fill:#348abd;opacity:0.2;"/>
   </g>
   <g id="patch_43">
    <path clip-path="url(#p28e37d54ff)" d="M 200.8212 157.5 
L 202.505092 157.5 
L 202.505092 28.071429 
L 200.8212 28.071429 
z
" style="fill:#348abd;opacity:0.2;"/>
   </g>
   <g id="patch_44">
    <path clip-path="url(#p28e37d54ff)" d="M 202.926066 157.5 
L 204.609959 157.5 
L 204.609959 91.340859 
L 202.926066 91.340859 
z
" style="fill:#348abd;opacity:0.2;"/>
   </g>
   <g id="patch_45">
    <path clip-path="url(#p28e37d54ff)" d="M 205.030932 157.5 
L 206.714825 157.5 
L 206.714825 86.47398 
L 205.030932 86.47398 
z
" style="fill:#348abd;opacity:0.2;"/>
   </g>
   <g id="patch_46">
    <path clip-path="url(#p28e37d54ff)" d="M 207.135798 157.5 
L 208.819691 157.5 
L 208.819691 80.694561 
L 207.135798 80.694561 
z
" style="fill:#348abd;opacity:0.2;"/>
   </g>
   <g id="patch_47">
    <path clip-path="url(#p28e37d54ff)" d="M 209.240664 157.5 
L 210.924557 157.5 
L 210.924557 89.36369 
L 209.240664 89.36369 
z
" style="fill:#348abd;opacity:0.2;"/>
   </g>
   <g id="patch_48">
    <path clip-path="url(#p28e37d54ff)" d="M 211.34553 157.5 
L 213.029423 157.5 
L 213.029423 115.979436 
L 211.34553 115.979436 
z
" style="fill:#348abd;opacity:0.2;"/>
   </g>
   <g id="patch_49">
    <path clip-path="url(#p28e37d54ff)" d="M 213.450396 157.5 
L 215.134289 157.5 
L 215.134289 132.557244 
L 213.450396 132.557244 
z
" style="fill:#348abd;opacity:0.2;"/>
   </g>
   <g id="patch_50">
    <path clip-path="url(#p28e37d54ff)" d="M 215.555262 157.5 
L 217.239155 157.5 
L 217.239155 152.176851 
L 215.555262 152.176851 
z
" style="fill:#348abd;opacity:0.2;"/>
   </g>
   <g id="patch_51">
    <path clip-path="url(#p28e37d54ff)" d="M 217.660128 157.5 
L 219.344021 157.5 
L 219.344021 120.694225 
L 217.660128 120.694225 
z
" style="fill:#348abd;opacity:0.2;"/>
   </g>
   <g id="patch_52">
    <path clip-path="url(#p28e37d54ff)" d="M 219.764994 157.5 
L 221.448887 157.5 
L 221.448887 140.161742 
L 219.764994 140.161742 
z
" style="fill:#348abd;opacity:0.2;"/>
   </g>
   <g id="patch_53">
    <path clip-path="url(#p28e37d54ff)" d="M 221.86986 157.5 
L 223.553753 157.5 
L 223.553753 140.770102 
L 221.86986 140.770102 
z
" style="fill:#348abd;opacity:0.2;"/>
   </g>
   <g id="patch_54">
    <path clip-path="url(#p28e37d54ff)" d="M 223.974727 157.5 
L 225.658619 157.5 
L 225.658619 141.226372 
L 223.974727 141.226372 
z
" style="fill:#348abd;opacity:0.2;"/>
   </g>
   <g id="patch_55">
    <path clip-path="url(#p28e37d54ff)" d="M 226.079593 157.5 
L 227.763485 157.5 
L 227.763485 145.941162 
L 226.079593 145.941162 
z
" style="fill:#348abd;opacity:0.2;"/>
   </g>
   <g id="patch_56">
    <path clip-path="url(#p28e37d54ff)" d="M 228.184459 157.5 
L 229.868352 157.5 
L 229.868352 146.245342 
L 228.184459 146.245342 
z
" style="fill:#348abd;opacity:0.2;"/>
   </g>
   <g id="patch_57">
    <path clip-path="url(#p28e37d54ff)" d="M 230.289325 157.5 
L 231.973218 157.5 
L 231.973218 144.724442 
L 230.289325 144.724442 
z
" style="fill:#348abd;opacity:0.2;"/>
   </g>
   <g id="patch_58">
    <path clip-path="url(#p28e37d54ff)" d="M 232.394191 157.5 
L 234.078084 157.5 
L 234.078084 143.355632 
L 232.394191 143.355632 
z
" style="fill:#348abd;opacity:0.2;"/>
   </g>
   <g id="patch_59">
    <path clip-path="url(#p28e37d54ff)" d="M 234.499057 157.5 
L 236.18295 157.5 
L 236.18295 134.382323 
L 234.499057 134.382323 
z
" style="fill:#348abd;opacity:0.2;"/>
   </g>
   <g id="patch_60">
    <path clip-path="url(#p28e37d54ff)" d="M 236.603923 157.5 
L 238.287816 157.5 
L 238.287816 144.268172 
L 236.603923 144.268172 
z
" style="fill:#348abd;opacity:0.2;"/>
   </g>
   <g id="patch_61">
    <path clip-path="url(#p28e37d54ff)" d="M 238.708789 157.5 
L 240.392682 157.5 
L 240.392682 135.142773 
L 238.708789 135.142773 
z
" style="fill:#348abd;opacity:0.2;"/>
   </g>
   <g id="patch_62">
    <path clip-path="url(#p28e37d54ff)" d="M 240.813655 157.5 
L 242.497548 157.5 
L 242.497548 132.861424 
L 240.813655 132.861424 
z
" style="fill:#348abd;opacity:0.2;"/>
   </g>
   <g id="patch_63">
    <path clip-path="url(#p28e37d54ff)" d="M 242.918521 157.5 
L 244.602414 157.5 
L 244.602414 157.5 
L 242.918521 157.5 
z
" style="fill:#348abd;opacity:0.2;"/>
   </g>
   <g id="patch_64">
    <path clip-path="url(#p28e37d54ff)" d="M 245.023387 157.5 
L 246.70728 157.5 
L 246.70728 145.941162 
L 245.023387 145.941162 
z
" style="fill:#348abd;opacity:0.2;"/>
   </g>
   <g id="patch_65">
    <path clip-path="url(#p28e37d54ff)" d="M 247.128253 157.5 
L 248.812146 157.5 
L 248.812146 142.291002 
L 247.128253 142.291002 
z
" style="fill:#348abd;opacity:0.2;"/>
   </g>
   <g id="patch_66">
    <path clip-path="url(#p28e37d54ff)" d="M 249.23312 157.5 
L 250.917012 157.5 
L 250.917012 141.682642 
L 249.23312 141.682642 
z
" style="fill:#348abd;opacity:0.2;"/>
   </g>
   <g id="patch_67">
    <path clip-path="url(#p28e37d54ff)" d="M 251.337986 157.5 
L 253.021879 157.5 
L 253.021879 143.659812 
L 251.337986 143.659812 
z
" style="fill:#348abd;opacity:0.2;"/>
   </g>
   <g id="patch_68">
    <path clip-path="url(#p28e37d54ff)" d="M 253.442852 157.5 
L 255.126745 157.5 
L 255.126745 135.294863 
L 253.442852 135.294863 
z
" style="fill:#348abd;opacity:0.2;"/>
   </g>
   <g id="patch_69">
    <path clip-path="url(#p28e37d54ff)" d="M 255.547718 157.5 
L 257.231611 157.5 
L 257.231611 141.530552 
L 255.547718 141.530552 
z
" style="fill:#348abd;opacity:0.2;"/>
   </g>
   <g id="patch_70">
    <path clip-path="url(#p28e37d54ff)" d="M 257.652584 157.5 
L 259.336477 157.5 
L 259.336477 145.636982 
L 257.652584 145.636982 
z
" style="fill:#348abd;opacity:0.2;"/>
   </g>
   <g id="patch_71">
    <path clip-path="url(#p28e37d54ff)" d="M 259.75745 157.5 
L 261.441343 157.5 
L 261.441343 138.488753 
L 259.75745 138.488753 
z
" style="fill:#348abd;opacity:0.2;"/>
   </g>
   <g id="patch_72">
    <path clip-path="url(#p28e37d54ff)" d="M 261.862316 157.5 
L 263.546209 157.5 
L 263.546209 142.138912 
L 261.862316 142.138912 
z
" style="fill:#348abd;opacity:0.2;"/>
   </g>
   <g id="patch_73">
    <path clip-path="url(#p28e37d54ff)" d="M 263.967182 157.5 
L 265.651075 157.5 
L 265.651075 143.963992 
L 263.967182 143.963992 
z
" style="fill:#348abd;opacity:0.2;"/>
   </g>
   <g id="patch_74">
    <path clip-path="url(#p28e37d54ff)" d="M 266.072048 157.5 
L 267.755941 157.5 
L 267.755941 144.420262 
L 266.072048 144.420262 
z
" style="fill:#348abd;opacity:0.2;"/>
   </g>
   <g id="patch_75">
    <path clip-path="url(#p28e37d54ff)" d="M 268.176914 157.5 
L 269.860807 157.5 
L 269.860807 143.203542 
L 268.176914 143.203542 
z
" style="fill:#348abd;opacity:0.2;"/>
   </g>
   <g id="patch_76">
    <path clip-path="url(#p28e37d54ff)" d="M 270.28178 157.5 
L 271.965673 157.5 
L 271.965673 145.180712 
L 270.28178 145.180712 
z
" style="fill:#348abd;opacity:0.2;"/>
   </g>
   <g id="patch_77">
    <path clip-path="url(#p28e37d54ff)" d="M 272.386647 157.5 
L 274.070539 157.5 
L 274.070539 150.351771 
L 272.386647 150.351771 
z
" style="fill:#348abd;opacity:0.2;"/>
   </g>
   <g id="patch_78">
    <path clip-path="url(#p28e37d54ff)" d="M 274.491513 157.5 
L 276.175406 157.5 
L 276.175406 150.351771 
L 274.491513 150.351771 
z
" style="fill:#348abd;opacity:0.2;"/>
   </g>
   <g id="patch_79">
    <path clip-path="url(#p28e37d54ff)" d="M 276.596379 157.5 
L 278.280272 157.5 
L 278.280272 149.439231 
L 276.596379 149.439231 
z
" style="fill:#348abd;opacity:0.2;"/>
   </g>
   <g id="patch_80">
    <path clip-path="url(#p28e37d54ff)" d="M 278.701245 157.5 
L 280.385138 157.5 
L 280.385138 151.568491 
L 278.701245 151.568491 
z
" style="fill:#348abd;opacity:0.2;"/>
   </g>
   <g id="patch_81">
    <path clip-path="url(#p28e37d54ff)" d="M 280.806111 157.5 
L 282.490004 157.5 
L 282.490004 153.393571 
L 280.806111 153.393571 
z
" style="fill:#348abd;opacity:0.2;"/>
   </g>
   <g id="patch_82">
    <path clip-path="url(#p28e37d54ff)" d="M 282.910977 157.5 
L 284.59487 157.5 
L 284.59487 152.937301 
L 282.910977 152.937301 
z
" style="fill:#348abd;opacity:0.2;"/>
   </g>
   <g id="patch_83">
    <path clip-path="url(#p28e37d54ff)" d="M 285.015843 157.5 
L 286.699736 157.5 
L 286.699736 152.633121 
L 285.015843 152.633121 
z
" style="fill:#348abd;opacity:0.2;"/>
   </g>
   <g id="patch_84">
    <path clip-path="url(#p28e37d54ff)" d="M 287.120709 157.5 
L 288.804602 157.5 
L 288.804602 153.697751 
L 287.120709 153.697751 
z
" style="fill:#348abd;opacity:0.2;"/>
   </g>
   <g id="patch_85">
    <path clip-path="url(#p28e37d54ff)" d="M 289.225575 157.5 
L 290.909468 157.5 
L 290.909468 153.393571 
L 289.225575 153.393571 
z
" style="fill:#348abd;opacity:0.2;"/>
   </g>
   <g id="patch_86">
    <path clip-path="url(#p28e37d54ff)" d="M 291.330441 157.5 
L 293.014334 157.5 
L 293.014334 153.393571 
L 291.330441 153.393571 
z
" style="fill:#348abd;opacity:0.2;"/>
   </g>
   <g id="patch_87">
    <path clip-path="url(#p28e37d54ff)" d="M 293.435307 157.5 
L 295.1192 157.5 
L 295.1192 154.15402 
L 293.435307 154.15402 
z
" style="fill:#348abd;opacity:0.2;"/>
   </g>
   <g id="patch_88">
    <path clip-path="url(#p28e37d54ff)" d="M 295.540174 157.5 
L 297.224066 157.5 
L 297.224066 154.15402 
L 295.540174 154.15402 
z
" style="fill:#348abd;opacity:0.2;"/>
   </g>
   <g id="patch_89">
    <path clip-path="url(#p28e37d54ff)" d="M 297.64504 157.5 
L 299.328932 157.5 
L 299.328932 154.76238 
L 297.64504 154.76238 
z
" style="fill:#348abd;opacity:0.2;"/>
   </g>
   <g id="patch_90">
    <path clip-path="url(#p28e37d54ff)" d="M 299.749906 157.5 
L 301.433799 157.5 
L 301.433799 156.28328 
L 299.749906 156.28328 
z
" style="fill:#348abd;opacity:0.2;"/>
   </g>
   <g id="patch_91">
    <path clip-path="url(#p28e37d54ff)" d="M 301.854772 157.5 
L 303.538665 157.5 
L 303.538665 155.52283 
L 301.854772 155.52283 
z
" style="fill:#348abd;opacity:0.2;"/>
   </g>
   <g id="patch_92">
    <path clip-path="url(#p28e37d54ff)" d="M 303.959638 157.5 
L 305.643531 157.5 
L 305.643531 156.13119 
L 303.959638 156.13119 
z
" style="fill:#348abd;opacity:0.2;"/>
   </g>
   <g id="patch_93">
    <path clip-path="url(#p28e37d54ff)" d="M 306.064504 157.5 
L 307.748397 157.5 
L 307.748397 155.82701 
L 306.064504 155.82701 
z
" style="fill:#348abd;opacity:0.2;"/>
   </g>
   <g id="patch_94">
    <path clip-path="url(#p28e37d54ff)" d="M 308.16937 157.5 
L 309.853263 157.5 
L 309.853263 155.37074 
L 308.16937 155.37074 
z
" style="fill:#348abd;opacity:0.2;"/>
   </g>
   <g id="patch_95">
    <path clip-path="url(#p28e37d54ff)" d="M 310.274236 157.5 
L 311.958129 157.5 
L 311.958129 155.9791 
L 310.274236 155.9791 
z
" style="fill:#348abd;opacity:0.2;"/>
   </g>
   <g id="patch_96">
    <path clip-path="url(#p28e37d54ff)" d="M 312.379102 157.5 
L 314.062995 157.5 
L 314.062995 155.9791 
L 312.379102 155.9791 
z
" style="fill:#348abd;opacity:0.2;"/>
   </g>
   <g id="patch_97">
    <path clip-path="url(#p28e37d54ff)" d="M 314.483968 157.5 
L 316.167861 157.5 
L 316.167861 155.9791 
L 314.483968 155.9791 
z
" style="fill:#348abd;opacity:0.2;"/>
   </g>
   <g id="patch_98">
    <path clip-path="url(#p28e37d54ff)" d="M 316.588834 157.5 
L 318.272727 157.5 
L 318.272727 155.37074 
L 316.588834 155.37074 
z
" style="fill:#348abd;opacity:0.2;"/>
   </g>
   <g id="patch_99">
    <path clip-path="url(#p28e37d54ff)" d="M 318.6937 157.5 
L 320.377593 157.5 
L 320.377593 156.13119 
L 318.6937 156.13119 
z
" style="fill:#348abd;opacity:0.2;"/>
   </g>
   <g id="patch_100">
    <path clip-path="url(#p28e37d54ff)" d="M 320.798567 157.5 
L 322.482459 157.5 
L 322.482459 156.89164 
L 320.798567 156.89164 
z
" style="fill:#348abd;opacity:0.2;"/>
   </g>
   <g id="patch_101">
    <path clip-path="url(#p28e37d54ff)" d="M 322.903433 157.5 
L 324.587326 157.5 
L 324.587326 156.13119 
L 322.903433 156.13119 
z
" style="fill:#348abd;opacity:0.2;"/>
   </g>
   <g id="patch_102">
    <path clip-path="url(#p28e37d54ff)" d="M 325.008299 157.5 
L 326.692192 157.5 
L 326.692192 156.58746 
L 325.008299 156.58746 
z
" style="fill:#348abd;opacity:0.2;"/>
   </g>
   <g id="patch_103">
    <path clip-path="url(#p28e37d54ff)" d="M 327.113165 157.5 
L 328.797058 157.5 
L 328.797058 155.52283 
L 327.113165 155.52283 
z
" style="fill:#348abd;opacity:0.2;"/>
   </g>
   <g id="patch_104">
    <path clip-path="url(#p28e37d54ff)" d="M 329.218031 157.5 
L 330.901924 157.5 
L 330.901924 156.28328 
L 329.218031 156.28328 
z
" style="fill:#348abd;opacity:0.2;"/>
   </g>
   <g id="patch_105">
    <path clip-path="url(#p28e37d54ff)" d="M 331.322897 157.5 
L 333.00679 157.5 
L 333.00679 157.04373 
L 331.322897 157.04373 
z
" style="fill:#348abd;opacity:0.2;"/>
   </g>
   <g id="patch_106">
    <path clip-path="url(#p28e37d54ff)" d="M 333.427763 157.5 
L 335.111656 157.5 
L 335.111656 157.19582 
L 333.427763 157.19582 
z
" style="fill:#348abd;opacity:0.2;"/>
   </g>
   <g id="patch_107">
    <path clip-path="url(#p28e37d54ff)" d="M 335.532629 157.5 
L 337.216522 157.5 
L 337.216522 156.89164 
L 335.532629 156.89164 
z
" style="fill:#348abd;opacity:0.2;"/>
   </g>
   <g id="patch_108">
    <path clip-path="url(#p28e37d54ff)" d="M 337.637495 157.5 
L 339.321388 157.5 
L 339.321388 155.67492 
L 337.637495 155.67492 
z
" style="fill:#348abd;opacity:0.2;"/>
   </g>
   <g id="patch_109">
    <path clip-path="url(#p28e37d54ff)" d="M 339.742361 157.5 
L 341.426254 157.5 
L 341.426254 154.76238 
L 339.742361 154.76238 
z
" style="fill:#348abd;opacity:0.2;"/>
   </g>
   <g id="patch_110">
    <path clip-path="url(#p28e37d54ff)" d="M 341.847227 157.5 
L 343.53112 157.5 
L 343.53112 152.328941 
L 341.847227 152.328941 
z
" style="fill:#348abd;opacity:0.2;"/>
   </g>
   <g id="patch_111">
    <path clip-path="url(#p28e37d54ff)" d="M 343.952094 157.5 
L 345.635986 157.5 
L 345.635986 152.176851 
L 343.952094 152.176851 
z
" style="fill:#348abd;opacity:0.2;"/>
   </g>
   <g id="patch_112">
    <path clip-path="url(#p28e37d54ff)" d="M 346.05696 157.5 
L 347.740853 157.5 
L 347.740853 153.393571 
L 346.05696 153.393571 
z
" style="fill:#348abd;opacity:0.2;"/>
   </g>
   <g id="patch_113">
    <path clip-path="url(#p28e37d54ff)" d="M 348.161826 157.5 
L 349.845719 157.5 
L 349.845719 153.545661 
L 348.161826 153.545661 
z
" style="fill:#348abd;opacity:0.2;"/>
   </g>
   <g id="patch_114">
    <path clip-path="url(#p28e37d54ff)" d="M 350.266692 157.5 
L 351.950585 157.5 
L 351.950585 153.089391 
L 350.266692 153.089391 
z
" style="fill:#348abd;opacity:0.2;"/>
   </g>
   <g id="patch_115">
    <path clip-path="url(#p28e37d54ff)" d="M 352.371558 157.5 
L 354.055451 157.5 
L 354.055451 153.393571 
L 352.371558 153.393571 
z
" style="fill:#348abd;opacity:0.2;"/>
   </g>
   <g id="patch_116">
    <path clip-path="url(#p28e37d54ff)" d="M 354.476424 157.5 
L 356.160317 157.5 
L 356.160317 154.61029 
L 354.476424 154.61029 
z
" style="fill:#348abd;opacity:0.2;"/>
   </g>
   <g id="patch_117">
    <path clip-path="url(#p28e37d54ff)" d="M 356.58129 157.5 
L 358.265183 157.5 
L 358.265183 155.52283 
L 356.58129 155.52283 
z
" style="fill:#348abd;opacity:0.2;"/>
   </g>
   <g id="patch_118">
    <path clip-path="url(#p28e37d54ff)" d="M 358.686156 157.5 
L 360.370049 157.5 
L 360.370049 155.21865 
L 358.686156 155.21865 
z
" style="fill:#348abd;opacity:0.2;"/>
   </g>
   <g id="patch_119">
    <path clip-path="url(#p28e37d54ff)" d="M 360.791022 157.5 
L 362.474915 157.5 
L 362.474915 155.52283 
L 360.791022 155.52283 
z
" style="fill:#348abd;opacity:0.2;"/>
   </g>
   <g id="patch_120">
    <path clip-path="url(#p28e37d54ff)" d="M 362.895888 157.5 
L 364.579781 157.5 
L 364.579781 152.633121 
L 362.895888 152.633121 
z
" style="fill:#348abd;opacity:0.2;"/>
   </g>
   <g id="patch_121">
    <path clip-path="url(#p28e37d54ff)" d="M 365.000754 157.5 
L 366.684647 157.5 
L 366.684647 155.67492 
L 365.000754 155.67492 
z
" style="fill:#348abd;opacity:0.2;"/>
   </g>
   <g id="patch_122">
    <path clip-path="url(#p28e37d54ff)" d="M 367.105621 157.5 
L 368.789513 157.5 
L 368.789513 154.4582 
L 367.105621 154.4582 
z
" style="fill:#348abd;opacity:0.2;"/>
   </g>
   <g id="patch_123">
    <path clip-path="url(#p28e37d54ff)" d="M 369.210487 157.5 
L 370.894379 157.5 
L 370.894379 154.001931 
L 369.210487 154.001931 
z
" style="fill:#348abd;opacity:0.2;"/>
   </g>
   <g id="patch_124">
    <path clip-path="url(#p28e37d54ff)" d="M 371.315353 157.5 
L 372.999246 157.5 
L 372.999246 153.697751 
L 371.315353 153.697751 
z
" style="fill:#348abd;opacity:0.2;"/>
   </g>
   <g id="patch_125">
    <path clip-path="url(#p28e37d54ff)" d="M 373.420219 157.5 
L 375.104112 157.5 
L 375.104112 155.06656 
L 373.420219 155.06656 
z
" style="fill:#348abd;opacity:0.2;"/>
   </g>
   <g id="patch_126">
    <path clip-path="url(#p28e37d54ff)" d="M 375.525085 157.5 
L 377.208978 157.5 
L 377.208978 154.61029 
L 375.525085 154.61029 
z
" style="fill:#348abd;opacity:0.2;"/>
   </g>
   <g id="patch_127">
    <path clip-path="url(#p28e37d54ff)" d="M 377.629951 157.5 
L 379.313844 157.5 
L 379.313844 151.416401 
L 377.629951 151.416401 
z
" style="fill:#348abd;opacity:0.2;"/>
   </g>
   <g id="patch_128">
    <path clip-path="url(#p28e37d54ff)" d="M 379.734817 157.5 
L 381.41871 157.5 
L 381.41871 145.484892 
L 379.734817 145.484892 
z
" style="fill:#348abd;opacity:0.2;"/>
   </g>
   <g id="patch_129">
    <path clip-path="url(#p28e37d54ff)" d="M 381.839683 157.5 
L 383.523576 157.5 
L 383.523576 148.678781 
L 381.839683 148.678781 
z
" style="fill:#348abd;opacity:0.2;"/>
   </g>
   <g id="patch_130">
    <path clip-path="url(#p28e37d54ff)" d="M 383.944549 157.5 
L 385.628442 157.5 
L 385.628442 151.568491 
L 383.944549 151.568491 
z
" style="fill:#348abd;opacity:0.2;"/>
   </g>
   <g id="patch_131">
    <path clip-path="url(#p28e37d54ff)" d="M 386.049415 157.5 
L 387.733308 157.5 
L 387.733308 153.393571 
L 386.049415 153.393571 
z
" style="fill:#348abd;opacity:0.2;"/>
   </g>
   <g id="patch_132">
    <path clip-path="url(#p28e37d54ff)" d="M 388.154281 157.5 
L 389.838174 157.5 
L 389.838174 152.176851 
L 388.154281 152.176851 
z
" style="fill:#348abd;opacity:0.2;"/>
   </g>
   <g id="patch_133">
    <path clip-path="url(#p28e37d54ff)" d="M 390.259147 157.5 
L 391.94304 157.5 
L 391.94304 151.720581 
L 390.259147 151.720581 
z
" style="fill:#348abd;opacity:0.2;"/>
   </g>
   <g id="patch_134">
    <path clip-path="url(#p28e37d54ff)" d="M 392.364014 157.5 
L 394.047906 157.5 
L 394.047906 150.047591 
L 392.364014 150.047591 
z
" style="fill:#348abd;opacity:0.2;"/>
   </g>
   <g id="patch_135">
    <path clip-path="url(#p28e37d54ff)" d="M 394.46888 157.5 
L 396.152773 157.5 
L 396.152773 151.568491 
L 394.46888 151.568491 
z
" style="fill:#348abd;opacity:0.2;"/>
   </g>
   <g id="patch_136">
    <path clip-path="url(#p28e37d54ff)" d="M 396.573746 157.5 
L 398.257639 157.5 
L 398.257639 151.568491 
L 396.573746 151.568491 
z
" style="fill:#348abd;opacity:0.2;"/>
   </g>
   <g id="patch_137">
    <path clip-path="url(#p28e37d54ff)" d="M 398.678612 157.5 
L 400.362505 157.5 
L 400.362505 149.743411 
L 398.678612 149.743411 
z
" style="fill:#348abd;opacity:0.2;"/>
   </g>
   <g id="patch_138">
    <path clip-path="url(#p28e37d54ff)" d="M 400.783478 157.5 
L 402.467371 157.5 
L 402.467371 148.830871 
L 400.783478 148.830871 
z
" style="fill:#348abd;opacity:0.2;"/>
   </g>
   <g id="patch_139">
    <path clip-path="url(#p28e37d54ff)" d="M 402.888344 157.5 
L 404.572237 157.5 
L 404.572237 151.720581 
L 402.888344 151.720581 
z
" style="fill:#348abd;opacity:0.2;"/>
   </g>
   <g id="patch_140">
    <path clip-path="url(#p28e37d54ff)" d="M 404.99321 157.5 
L 406.677103 157.5 
L 406.677103 151.720581 
L 404.99321 151.720581 
z
" style="fill:#348abd;opacity:0.2;"/>
   </g>
   <g id="patch_141">
    <path clip-path="url(#p28e37d54ff)" d="M 407.098076 157.5 
L 408.781969 157.5 
L 408.781969 149.895501 
L 407.098076 149.895501 
z
" style="fill:#348abd;opacity:0.2;"/>
   </g>
   <g id="patch_142">
    <path clip-path="url(#p28e37d54ff)" d="M 409.202942 157.5 
L 410.886835 157.5 
L 410.886835 150.655951 
L 409.202942 150.655951 
z
" style="fill:#348abd;opacity:0.2;"/>
   </g>
   <g id="patch_143">
    <path clip-path="url(#p28e37d54ff)" d="M 411.307808 157.5 
L 412.991701 157.5 
L 412.991701 148.982961 
L 411.307808 148.982961 
z
" style="fill:#348abd;opacity:0.2;"/>
   </g>
   <g id="patch_144">
    <path clip-path="url(#p28e37d54ff)" d="M 413.412674 157.5 
L 415.096567 157.5 
L 415.096567 150.199681 
L 413.412674 150.199681 
z
" style="fill:#348abd;opacity:0.2;"/>
   </g>
   <g id="patch_145">
    <path clip-path="url(#p28e37d54ff)" d="M 415.517541 157.5 
L 417.201433 157.5 
L 417.201433 152.328941 
L 415.517541 152.328941 
z
" style="fill:#348abd;opacity:0.2;"/>
   </g>
   <g id="patch_146">
    <path clip-path="url(#p28e37d54ff)" d="M 417.622407 157.5 
L 419.3063 157.5 
L 419.3063 152.024761 
L 417.622407 152.024761 
z
" style="fill:#348abd;opacity:0.2;"/>
   </g>
   <g id="patch_147">
    <path clip-path="url(#p28e37d54ff)" d="M 419.727273 157.5 
L 421.411166 157.5 
L 421.411166 152.328941 
L 419.727273 152.328941 
z
" style="fill:#348abd;opacity:0.2;"/>
   </g>
   <g id="patch_148">
    <path clip-path="url(#p28e37d54ff)" d="M 421.832139 157.5 
L 423.516032 157.5 
L 423.516032 150.960131 
L 421.832139 150.960131 
z
" style="fill:#348abd;opacity:0.2;"/>
   </g>
   <g id="patch_149">
    <path clip-path="url(#p28e37d54ff)" d="M 423.937005 157.5 
L 425.620898 157.5 
L 425.620898 148.526691 
L 423.937005 148.526691 
z
" style="fill:#348abd;opacity:0.2;"/>
   </g>
   <g id="patch_150">
    <path clip-path="url(#p28e37d54ff)" d="M 426.041871 157.5 
L 427.725764 157.5 
L 427.725764 150.047591 
L 426.041871 150.047591 
z
" style="fill:#348abd;opacity:0.2;"/>
   </g>
   <g id="patch_151">
    <path clip-path="url(#p28e37d54ff)" d="M 428.146737 157.5 
L 429.83063 157.5 
L 429.83063 147.309971 
L 428.146737 147.309971 
z
" style="fill:#348abd;opacity:0.2;"/>
   </g>
   <g id="patch_152">
    <path clip-path="url(#p28e37d54ff)" d="M 430.251603 157.5 
L 431.935496 157.5 
L 431.935496 150.199681 
L 430.251603 150.199681 
z
" style="fill:#348abd;opacity:0.2;"/>
   </g>
   <g id="patch_153">
    <path clip-path="url(#p28e37d54ff)" d="M 432.356469 157.5 
L 434.040362 157.5 
L 434.040362 154.91447 
L 432.356469 154.91447 
z
" style="fill:#348abd;opacity:0.2;"/>
   </g>
   <g id="patch_154">
    <path clip-path="url(#p28e37d54ff)" d="M 434.461335 157.5 
L 436.145228 157.5 
L 436.145228 150.503861 
L 434.461335 150.503861 
z
" style="fill:#348abd;opacity:0.2;"/>
   </g>
   <g id="patch_155">
    <path clip-path="url(#p28e37d54ff)" d="M 436.566201 157.5 
L 438.250094 157.5 
L 438.250094 149.743411 
L 436.566201 149.743411 
z
" style="fill:#348abd;opacity:0.2;"/>
   </g>
   <g id="patch_156">
    <path clip-path="url(#p28e37d54ff)" d="M 438.671068 157.5 
L 440.35496 157.5 
L 440.35496 153.241481 
L 438.671068 153.241481 
z
" style="fill:#348abd;opacity:0.2;"/>
   </g>
   <g id="patch_157">
    <path clip-path="url(#p28e37d54ff)" d="M 440.775934 157.5 
L 442.459826 157.5 
L 442.459826 151.568491 
L 440.775934 151.568491 
z
" style="fill:#348abd;opacity:0.2;"/>
   </g>
   <g id="patch_158">
    <path clip-path="url(#p28e37d54ff)" d="M 442.8808 157.5 
L 444.564693 157.5 
L 444.564693 149.743411 
L 442.8808 149.743411 
z
" style="fill:#348abd;opacity:0.2;"/>
   </g>
   <g id="patch_159">
    <path clip-path="url(#p28e37d54ff)" d="M 444.985666 157.5 
L 446.669559 157.5 
L 446.669559 148.070421 
L 444.985666 148.070421 
z
" style="fill:#348abd;opacity:0.2;"/>
   </g>
   <g id="patch_160">
    <path clip-path="url(#p28e37d54ff)" d="M 447.090532 157.5 
L 448.774425 157.5 
L 448.774425 151.112221 
L 447.090532 151.112221 
z
" style="fill:#348abd;opacity:0.2;"/>
   </g>
   <g id="patch_161">
    <path clip-path="url(#p28e37d54ff)" d="M 449.195398 157.5 
L 450.879291 157.5 
L 450.879291 150.960131 
L 449.195398 150.960131 
z
" style="fill:#348abd;opacity:0.2;"/>
   </g>
   <g id="patch_162">
    <path clip-path="url(#p28e37d54ff)" d="M 451.300264 157.5 
L 452.984157 157.5 
L 452.984157 149.895501 
L 451.300264 149.895501 
z
" style="fill:#348abd;opacity:0.2;"/>
   </g>
   <g id="patch_163">
    <path clip-path="url(#p28e37d54ff)" d="M 453.40513 157.5 
L 455.089023 157.5 
L 455.089023 149.287141 
L 453.40513 149.287141 
z
" style="fill:#348abd;opacity:0.2;"/>
   </g>
   <g id="patch_164">
    <path clip-path="url(#p28e37d54ff)" d="M 455.509996 157.5 
L 457.193889 157.5 
L 457.193889 147.918331 
L 455.509996 147.918331 
z
" style="fill:#348abd;opacity:0.2;"/>
   </g>
   <g id="patch_165">
    <path clip-path="url(#p28e37d54ff)" d="M 457.614862 157.5 
L 459.298755 157.5 
L 459.298755 147.918331 
L 457.614862 147.918331 
z
" style="fill:#348abd;opacity:0.2;"/>
   </g>
   <g id="patch_166">
    <path clip-path="url(#p28e37d54ff)" d="M 459.719728 157.5 
L 461.403621 157.5 
L 461.403621 148.222511 
L 459.719728 148.222511 
z
" style="fill:#348abd;opacity:0.2;"/>
   </g>
   <g id="patch_167">
    <path clip-path="url(#p28e37d54ff)" d="M 461.824594 157.5 
L 463.508487 157.5 
L 463.508487 150.503861 
L 461.824594 150.503861 
z
" style="fill:#348abd;opacity:0.2;"/>
   </g>
   <g id="patch_168">
    <path clip-path="url(#p28e37d54ff)" d="M 463.929461 157.5 
L 465.613353 157.5 
L 465.613353 150.808041 
L 463.929461 150.808041 
z
" style="fill:#348abd;opacity:0.2;"/>
   </g>
   <g id="patch_169">
    <path clip-path="url(#p28e37d54ff)" d="M 466.034327 157.5 
L 467.71822 157.5 
L 467.71822 147.918331 
L 466.034327 147.918331 
z
" style="fill:#348abd;opacity:0.2;"/>
   </g>
   <g id="patch_170">
    <path clip-path="url(#p28e37d54ff)" d="M 468.139193 157.5 
L 469.823086 157.5 
L 469.823086 150.047591 
L 468.139193 150.047591 
z
" style="fill:#348abd;opacity:0.2;"/>
   </g>
   <g id="patch_171">
    <path clip-path="url(#p28e37d54ff)" d="M 470.244059 157.5 
L 471.927952 157.5 
L 471.927952 150.655951 
L 470.244059 150.655951 
z
" style="fill:#348abd;opacity:0.2;"/>
   </g>
   <g id="patch_172">
    <path clip-path="url(#p28e37d54ff)" d="M 472.348925 157.5 
L 474.032818 157.5 
L 474.032818 152.176851 
L 472.348925 152.176851 
z
" style="fill:#348abd;opacity:0.2;"/>
   </g>
   <g id="patch_173">
    <path clip-path="url(#p28e37d54ff)" d="M 474.453791 157.5 
L 476.137684 157.5 
L 476.137684 150.808041 
L 474.453791 150.808041 
z
" style="fill:#348abd;opacity:0.2;"/>
   </g>
   <g id="patch_174">
    <path clip-path="url(#p28e37d54ff)" d="M 476.558657 157.5 
L 478.24255 157.5 
L 478.24255 148.070421 
L 476.558657 148.070421 
z
" style="fill:#348abd;opacity:0.2;"/>
   </g>
   <g id="patch_175">
    <path clip-path="url(#p28e37d54ff)" d="M 478.663523 157.5 
L 480.347416 157.5 
L 480.347416 152.481031 
L 478.663523 152.481031 
z
" style="fill:#348abd;opacity:0.2;"/>
   </g>
   <g id="patch_176">
    <path clip-path="url(#p28e37d54ff)" d="M 480.768389 157.5 
L 482.452282 157.5 
L 482.452282 151.568491 
L 480.768389 151.568491 
z
" style="fill:#348abd;opacity:0.2;"/>
   </g>
   <g id="patch_177">
    <path clip-path="url(#p28e37d54ff)" d="M 482.873255 157.5 
L 484.557148 157.5 
L 484.557148 148.222511 
L 482.873255 148.222511 
z
" style="fill:#348abd;opacity:0.2;"/>
   </g>
   <g id="patch_178">
    <path clip-path="url(#p28e37d54ff)" d="M 484.978121 157.5 
L 486.662014 157.5 
L 486.662014 148.374601 
L 484.978121 148.374601 
z
" style="fill:#348abd;opacity:0.2;"/>
   </g>
   <g id="patch_179">
    <path clip-path="url(#p28e37d54ff)" d="M 487.082988 157.5 
L 488.76688 157.5 
L 488.76688 151.568491 
L 487.082988 151.568491 
z
" style="fill:#348abd;opacity:0.2;"/>
   </g>
   <g id="patch_180">
    <path clip-path="url(#p28e37d54ff)" d="M 489.187854 157.5 
L 490.871747 157.5 
L 490.871747 152.328941 
L 489.187854 152.328941 
z
" style="fill:#348abd;opacity:0.2;"/>
   </g>
   <g id="patch_181">
    <path clip-path="url(#p28e37d54ff)" d="M 491.29272 157.5 
L 492.976613 157.5 
L 492.976613 153.545661 
L 491.29272 153.545661 
z
" style="fill:#348abd;opacity:0.2;"/>
   </g>
   <g id="patch_182">
    <path clip-path="url(#p28e37d54ff)" d="M 493.397586 157.5 
L 495.081479 157.5 
L 495.081479 150.655951 
L 493.397586 150.655951 
z
" style="fill:#348abd;opacity:0.2;"/>
   </g>
   <g id="patch_183">
    <path clip-path="url(#p28e37d54ff)" d="M 495.502452 157.5 
L 497.186345 157.5 
L 497.186345 147.918331 
L 495.502452 147.918331 
z
" style="fill:#348abd;opacity:0.2;"/>
   </g>
   <g id="patch_184">
    <path clip-path="url(#p28e37d54ff)" d="M 497.607318 157.5 
L 499.291211 157.5 
L 499.291211 148.526691 
L 497.607318 148.526691 
z
" style="fill:#348abd;opacity:0.2;"/>
   </g>
   <g id="patch_185">
    <path clip-path="url(#p28e37d54ff)" d="M 499.712184 157.5 
L 501.396077 157.5 
L 501.396077 151.264311 
L 499.712184 151.264311 
z
" style="fill:#348abd;opacity:0.2;"/>
   </g>
   <g id="patch_186">
    <path clip-path="url(#p28e37d54ff)" d="M 501.81705 157.5 
L 503.500943 157.5 
L 503.500943 140.313832 
L 501.81705 140.313832 
z
" style="fill:#348abd;opacity:0.2;"/>
   </g>
   <g id="patch_187">
    <path clip-path="url(#p28e37d54ff)" d="M 503.921916 157.5 
L 505.605809 157.5 
L 505.605809 148.678781 
L 503.921916 148.678781 
z
" style="fill:#348abd;opacity:0.2;"/>
   </g>
   <g id="patch_188">
    <path clip-path="url(#p28e37d54ff)" d="M 506.026782 157.5 
L 507.710675 157.5 
L 507.710675 153.697751 
L 506.026782 153.697751 
z
" style="fill:#348abd;opacity:0.2;"/>
   </g>
   <g id="patch_189">
    <path clip-path="url(#p28e37d54ff)" d="M 508.131648 157.5 
L 509.815541 157.5 
L 509.815541 153.241481 
L 508.131648 153.241481 
z
" style="fill:#348abd;opacity:0.2;"/>
   </g>
   <g id="patch_190">
    <path clip-path="url(#p28e37d54ff)" d="M 510.236515 157.5 
L 511.920407 157.5 
L 511.920407 150.199681 
L 510.236515 150.199681 
z
" style="fill:#348abd;opacity:0.2;"/>
   </g>
   <g id="patch_191">
    <path clip-path="url(#p28e37d54ff)" d="M 512.341381 157.5 
L 514.025273 157.5 
L 514.025273 154.76238 
L 512.341381 154.76238 
z
" style="fill:#348abd;opacity:0.2;"/>
   </g>
   <g id="patch_192">
    <path clip-path="url(#p28e37d54ff)" d="M 514.446247 157.5 
L 516.13014 157.5 
L 516.13014 152.024761 
L 514.446247 152.024761 
z
" style="fill:#348abd;opacity:0.2;"/>
   </g>
   <g id="patch_193">
    <path clip-path="url(#p28e37d54ff)" d="M 516.551113 157.5 
L 518.235006 157.5 
L 518.235006 152.785211 
L 516.551113 152.785211 
z
" style="fill:#348abd;opacity:0.2;"/>
   </g>
   <g id="patch_194">
    <path clip-path="url(#p28e37d54ff)" d="M 518.655979 157.5 
L 520.339872 157.5 
L 520.339872 152.937301 
L 518.655979 152.937301 
z
" style="fill:#348abd;opacity:0.2;"/>
   </g>
   <g id="patch_195">
    <path clip-path="url(#p28e37d54ff)" d="M 520.760845 157.5 
L 522.444738 157.5 
L 522.444738 154.001931 
L 520.760845 154.001931 
z
" style="fill:#348abd;opacity:0.2;"/>
   </g>
   <g id="patch_196">
    <path clip-path="url(#p28e37d54ff)" d="M 522.865711 157.5 
L 524.549604 157.5 
L 524.549604 152.328941 
L 522.865711 152.328941 
z
" style="fill:#348abd;opacity:0.2;"/>
   </g>
   <g id="patch_197">
    <path clip-path="url(#p28e37d54ff)" d="M 524.970577 157.5 
L 526.65447 157.5 
L 526.65447 152.481031 
L 524.970577 152.481031 
z
" style="fill:#348abd;opacity:0.2;"/>
   </g>
   <g id="patch_198">
    <path clip-path="url(#p28e37d54ff)" d="M 527.075443 157.5 
L 528.759336 157.5 
L 528.759336 150.960131 
L 527.075443 150.960131 
z
" style="fill:#348abd;opacity:0.2;"/>
   </g>
   <g id="patch_199">
    <path clip-path="url(#p28e37d54ff)" d="M 529.180309 157.5 
L 530.864202 157.5 
L 530.864202 154.4582 
L 529.180309 154.4582 
z
" style="fill:#348abd;opacity:0.2;"/>
   </g>
   <g id="patch_200">
    <path clip-path="url(#p28e37d54ff)" d="M 531.285175 157.5 
L 532.969068 157.5 
L 532.969068 150.960131 
L 531.285175 150.960131 
z
" style="fill:#348abd;opacity:0.2;"/>
   </g>
   <g id="patch_201">
    <path clip-path="url(#p28e37d54ff)" d="M 533.390041 157.5 
L 535.073934 157.5 
L 535.073934 152.024761 
L 533.390041 152.024761 
z
" style="fill:#348abd;opacity:0.2;"/>
   </g>
   <g id="patch_202">
    <path clip-path="url(#p28e37d54ff)" d="M 535.494908 157.5 
L 537.1788 157.5 
L 537.1788 153.241481 
L 535.494908 153.241481 
z
" style="fill:#348abd;opacity:0.2;"/>
   </g>
   <g id="patch_203">
    <path clip-path="url(#p28e37d54ff)" d="M 537.599774 157.5 
L 539.283667 157.5 
L 539.283667 152.328941 
L 537.599774 152.328941 
z
" style="fill:#348abd;opacity:0.2;"/>
   </g>
   <g id="patch_204">
    <path clip-path="url(#p28e37d54ff)" d="M 539.70464 157.5 
L 541.388533 157.5 
L 541.388533 149.287141 
L 539.70464 149.287141 
z
" style="fill:#348abd;opacity:0.2;"/>
   </g>
   <g id="patch_205">
    <path clip-path="url(#p28e37d54ff)" d="M 541.809506 157.5 
L 543.493399 157.5 
L 543.493399 148.982961 
L 541.809506 148.982961 
z
" style="fill:#348abd;opacity:0.2;"/>
   </g>
   <g id="patch_206">
    <path clip-path="url(#p28e37d54ff)" d="M 543.914372 157.5 
L 545.598265 157.5 
L 545.598265 141.834732 
L 543.914372 141.834732 
z
" style="fill:#348abd;opacity:0.2;"/>
   </g>
   <g id="patch_207">
    <path clip-path="url(#p28e37d54ff)" d="M 546.019238 157.5 
L 547.703131 157.5 
L 547.703131 132.253064 
L 546.019238 132.253064 
z
" style="fill:#348abd;opacity:0.2;"/>
   </g>
   <g id="patch_208">
    <path clip-path="url(#p28e37d54ff)" d="M 548.124104 157.5 
L 549.807997 157.5 
L 549.807997 115.066896 
L 548.124104 115.066896 
z
" style="fill:#348abd;opacity:0.2;"/>
   </g>
   <g id="patch_209">
    <path clip-path="url(#p28e37d54ff)" d="M 550.22897 157.5 
L 551.912863 157.5 
L 551.912863 127.538274 
L 550.22897 127.538274 
z
" style="fill:#348abd;opacity:0.2;"/>
   </g>
   <g id="patch_210">
    <path clip-path="url(#p28e37d54ff)" d="M 552.333836 157.5 
L 554.017729 157.5 
L 554.017729 120.085865 
L 552.333836 120.085865 
z
" style="fill:#348abd;opacity:0.2;"/>
   </g>
   <g id="patch_211">
    <path clip-path="url(#p28e37d54ff)" d="M 554.438702 157.5 
L 556.122595 157.5 
L 556.122595 112.329276 
L 554.438702 112.329276 
z
" style="fill:#348abd;opacity:0.2;"/>
   </g>
   <g id="patch_212">
    <path clip-path="url(#p28e37d54ff)" d="M 556.543568 157.5 
L 558.227461 157.5 
L 558.227461 113.698086 
L 556.543568 113.698086 
z
" style="fill:#348abd;opacity:0.2;"/>
   </g>
   <g id="patch_213">
    <path clip-path="url(#p28e37d54ff)" d="M 558.648435 157.5 
L 560.332327 157.5 
L 560.332327 108.222847 
L 558.648435 108.222847 
z
" style="fill:#348abd;opacity:0.2;"/>
   </g>
   <g id="patch_214">
    <path clip-path="url(#p28e37d54ff)" d="M 560.753301 157.5 
L 562.437194 157.5 
L 562.437194 107.006127 
L 560.753301 107.006127 
z
" style="fill:#348abd;opacity:0.2;"/>
   </g>
   <g id="patch_215">
    <path clip-path="url(#p28e37d54ff)" d="M 562.858167 157.5 
L 564.54206 157.5 
L 564.54206 97.120279 
L 562.858167 97.120279 
z
" style="fill:#348abd;opacity:0.2;"/>
   </g>
   <g id="patch_216">
    <path clip-path="url(#p28e37d54ff)" d="M 564.963033 157.5 
L 566.646926 157.5 
L 566.646926 117.044066 
L 564.963033 117.044066 
z
" style="fill:#348abd;opacity:0.2;"/>
   </g>
   <g id="patch_217">
    <path clip-path="url(#p28e37d54ff)" d="M 567.067899 157.5 
L 568.751792 157.5 
L 568.751792 114.914806 
L 567.067899 114.914806 
z
" style="fill:#348abd;opacity:0.2;"/>
   </g>
   <g id="patch_218">
    <path clip-path="url(#p28e37d54ff)" d="M 569.172765 157.5 
L 570.856658 157.5 
L 570.856658 108.831207 
L 569.172765 108.831207 
z
" style="fill:#348abd;opacity:0.2;"/>
   </g>
   <g id="patch_219">
    <path clip-path="url(#p28e37d54ff)" d="M 571.277631 157.5 
L 572.961524 157.5 
L 572.961524 90.42832 
L 571.277631 90.42832 
z
" style="fill:#348abd;opacity:0.2;"/>
   </g>
   <g id="patch_220">
    <path clip-path="url(#p28e37d54ff)" d="M 573.382497 157.5 
L 575.06639 157.5 
L 575.06639 101.074618 
L 573.382497 101.074618 
z
" style="fill:#348abd;opacity:0.2;"/>
   </g>
   <g id="patch_221">
    <path clip-path="url(#p28e37d54ff)" d="M 575.487363 157.5 
L 577.171256 157.5 
L 577.171256 108.374937 
L 575.487363 108.374937 
z
" style="fill:#348abd;opacity:0.2;"/>
   </g>
   <g id="patch_222">
    <path clip-path="url(#p28e37d54ff)" d="M 577.592229 157.5 
L 579.276122 157.5 
L 579.276122 112.025097 
L 577.592229 112.025097 
z
" style="fill:#348abd;opacity:0.2;"/>
   </g>
   <g id="patch_223">
    <path clip-path="url(#p28e37d54ff)" d="M 579.697095 157.5 
L 581.380988 157.5 
L 581.380988 119.781685 
L 579.697095 119.781685 
z
" style="fill:#348abd;opacity:0.2;"/>
   </g>
   <g id="patch_224">
    <path clip-path="url(#p28e37d54ff)" d="M 581.801962 157.5 
L 583.485854 157.5 
L 583.485854 121.758855 
L 581.801962 121.758855 
z
" style="fill:#348abd;opacity:0.2;"/>
   </g>
   <g id="patch_225">
    <path clip-path="url(#p28e37d54ff)" d="M 583.906828 157.5 
L 585.59072 157.5 
L 585.59072 116.891976 
L 583.906828 116.891976 
z
" style="fill:#348abd;opacity:0.2;"/>
   </g>
   <g id="patch_226">
    <path clip-path="url(#p28e37d54ff)" d="M 586.011694 157.5 
L 587.695587 157.5 
L 587.695587 127.842454 
L 586.011694 127.842454 
z
" style="fill:#348abd;opacity:0.2;"/>
   </g>
   <g id="patch_227">
    <path clip-path="url(#p28e37d54ff)" d="M 588.11656 157.5 
L 589.800453 157.5 
L 589.800453 127.386184 
L 588.11656 127.386184 
z
" style="fill:#348abd;opacity:0.2;"/>
   </g>
   <g id="patch_228">
    <path clip-path="url(#p28e37d54ff)" d="M 590.221426 157.5 
L 591.905319 157.5 
L 591.905319 131.948884 
L 590.221426 131.948884 
z
" style="fill:#348abd;opacity:0.2;"/>
   </g>
   <g id="patch_229">
    <path clip-path="url(#p28e37d54ff)" d="M 592.326292 157.5 
L 594.010185 157.5 
L 594.010185 132.100974 
L 592.326292 132.100974 
z
" style="fill:#348abd;opacity:0.2;"/>
   </g>
   <g id="patch_230">
    <path clip-path="url(#p28e37d54ff)" d="M 594.431158 157.5 
L 596.115051 157.5 
L 596.115051 139.401293 
L 594.431158 139.401293 
z
" style="fill:#348abd;opacity:0.2;"/>
   </g>
   <g id="patch_231">
    <path clip-path="url(#p28e37d54ff)" d="M 596.536024 157.5 
L 598.219917 157.5 
L 598.219917 136.815763 
L 596.536024 136.815763 
z
" style="fill:#348abd;opacity:0.2;"/>
   </g>
   <g id="patch_232">
    <path clip-path="url(#p28e37d54ff)" d="M 598.64089 157.5 
L 600.324783 157.5 
L 600.324783 133.773963 
L 598.64089 133.773963 
z
" style="fill:#348abd;opacity:0.2;"/>
   </g>
   <g id="patch_233">
    <path clip-path="url(#p28e37d54ff)" d="M 600.745756 157.5 
L 602.429649 157.5 
L 602.429649 133.926053 
L 600.745756 133.926053 
z
" style="fill:#348abd;opacity:0.2;"/>
   </g>
   <g id="patch_234">
    <path clip-path="url(#p28e37d54ff)" d="M 602.850622 157.5 
L 604.534515 157.5 
L 604.534515 130.732164 
L 602.850622 130.732164 
z
" style="fill:#348abd;opacity:0.2;"/>
   </g>
   <g id="patch_235">
    <path clip-path="url(#p28e37d54ff)" d="M 604.955488 157.5 
L 606.639381 157.5 
L 606.639381 136.815763 
L 604.955488 136.815763 
z
" style="fill:#348abd;opacity:0.2;"/>
   </g>
   <g id="patch_236">
    <path clip-path="url(#p28e37d54ff)" d="M 607.060355 157.5 
L 608.744247 157.5 
L 608.744247 139.097113 
L 607.060355 139.097113 
z
" style="fill:#348abd;opacity:0.2;"/>
   </g>
   <g id="patch_237">
    <path clip-path="url(#p28e37d54ff)" d="M 609.165221 157.5 
L 610.849114 157.5 
L 610.849114 140.922192 
L 609.165221 140.922192 
z
" style="fill:#348abd;opacity:0.2;"/>
   </g>
   <g id="patch_238">
    <path clip-path="url(#p28e37d54ff)" d="M 611.270087 157.5 
L 612.95398 157.5 
L 612.95398 141.378462 
L 611.270087 141.378462 
z
" style="fill:#348abd;opacity:0.2;"/>
   </g>
   <g id="patch_239">
    <path clip-path="url(#p28e37d54ff)" d="M 613.374953 157.5 
L 615.058846 157.5 
L 615.058846 140.313832 
L 613.374953 140.313832 
z
" style="fill:#348abd;opacity:0.2;"/>
   </g>
   <g id="patch_240">
    <path clip-path="url(#p28e37d54ff)" d="M 615.479819 157.5 
L 617.163712 157.5 
L 617.163712 134.230233 
L 615.479819 134.230233 
z
" style="fill:#348abd;opacity:0.2;"/>
   </g>
   <g id="patch_241">
    <path clip-path="url(#p28e37d54ff)" d="M 617.584685 157.5 
L 619.268578 157.5 
L 619.268578 138.336663 
L 617.584685 138.336663 
z
" style="fill:#348abd;opacity:0.2;"/>
   </g>
   <g id="patch_242">
    <path clip-path="url(#p28e37d54ff)" d="M 619.689551 157.5 
L 621.373444 157.5 
L 621.373444 140.770102 
L 619.689551 140.770102 
z
" style="fill:#348abd;opacity:0.2;"/>
   </g>
   <g id="patch_243">
    <path clip-path="url(#p28e37d54ff)" d="M 621.794417 157.5 
L 623.47831 157.5 
L 623.47831 145.028622 
L 621.794417 145.028622 
z
" style="fill:#348abd;opacity:0.2;"/>
   </g>
   <g id="line2d_34">
    <path clip-path="url(#p28e37d54ff)" d="M 117.468502 157.42307 
L 134.307431 157.242809 
L 144.831762 157.221818 
L 161.67069 157.313556 
L 163.775556 157.040208 
L 165.880422 156.335033 
L 167.985289 155.149315 
L 170.090155 153.329553 
L 172.195021 150.939804 
L 174.299887 147.849366 
L 176.404753 143.886085 
L 178.509619 138.956417 
L 180.614485 132.914725 
L 182.719351 125.889638 
L 184.824217 118.098511 
L 193.243682 82.7438 
L 195.348548 76.556492 
L 197.453414 72.667378 
L 199.55828 71.528493 
L 201.663146 73.512429 
L 203.768012 77.819794 
L 205.872878 84.472942 
L 207.977744 92.399952 
L 212.187476 109.58149 
L 214.292343 117.517603 
L 216.397209 124.413087 
L 218.502075 130.203055 
L 220.606941 134.362878 
L 222.711807 137.66911 
L 224.816673 139.902578 
L 226.921539 141.091468 
L 229.026405 141.648158 
L 231.131271 141.831574 
L 239.550736 141.96011 
L 245.865334 142.507568 
L 250.075066 142.40621 
L 256.389664 142.073736 
L 258.49453 142.155642 
L 260.599396 142.408162 
L 262.704263 142.949149 
L 264.809129 143.705699 
L 266.913995 144.608716 
L 271.123727 146.750997 
L 277.438325 149.966808 
L 279.543191 150.853473 
L 281.648057 151.612396 
L 285.85779 152.760843 
L 290.067522 153.537087 
L 298.486986 154.825753 
L 302.696718 155.338789 
L 309.011316 155.76676 
L 323.745379 156.250009 
L 327.955111 156.30112 
L 332.164843 156.084187 
L 336.374576 155.506962 
L 342.689174 154.301346 
L 344.79404 154.015271 
L 349.003772 153.790653 
L 353.213504 153.983038 
L 359.528103 154.457067 
L 363.737835 154.516288 
L 367.947567 154.139754 
L 372.157299 153.358751 
L 380.576763 151.529914 
L 382.68163 151.272318 
L 386.891362 151.104814 
L 397.415692 150.917018 
L 403.73029 150.598514 
L 410.044889 150.669509 
L 416.359487 150.771988 
L 420.569219 150.696237 
L 426.883817 150.537056 
L 439.513014 150.823891 
L 443.722746 150.537598 
L 454.247077 149.43083 
L 458.456809 149.278328 
L 462.666541 149.46039 
L 468.981139 150.007552 
L 473.190871 150.299963 
L 483.715202 150.55295 
L 487.924934 150.513513 
L 492.134666 150.182246 
L 498.449264 149.520995 
L 500.554131 149.475749 
L 502.658997 149.626904 
L 504.763863 149.92954 
L 508.973595 150.971157 
L 513.183327 151.978786 
L 515.288193 152.350802 
L 519.497925 152.717154 
L 523.707657 152.648257 
L 527.91739 152.432232 
L 530.022256 152.167059 
L 532.127122 151.696425 
L 534.231988 150.74184 
L 536.336854 149.303383 
L 538.44172 147.25749 
L 540.546586 144.534096 
L 542.651452 141.157153 
L 544.756318 137.231037 
L 551.070917 124.280351 
L 553.175783 120.48499 
L 555.280649 117.182587 
L 557.385515 114.314043 
L 559.490381 111.965613 
L 561.595247 110.120679 
L 563.700113 108.833269 
L 565.804979 107.958825 
L 567.909845 107.483813 
L 570.014711 107.38497 
L 572.119578 107.894028 
L 574.224444 108.998375 
L 576.32931 110.803475 
L 578.434176 113.108529 
L 582.643908 118.627404 
L 586.85364 124.528991 
L 588.958506 127.19096 
L 591.063372 129.372071 
L 593.168238 131.187484 
L 595.273104 132.635909 
L 597.377971 133.791719 
L 599.482837 134.724414 
L 603.692569 136.114405 
L 612.112033 138.506636 
L 614.216899 138.955994 
L 618.426631 139.502341 
L 622.636364 139.77245 
L 622.636364 139.77245 
" style="fill:none;stroke:#348abd;stroke-linecap:square;stroke-width:3;"/>
   </g>
   <g id="patch_244">
    <path d="M 90 157.5 
L 90 21.6 
" style="fill:none;stroke:#ffffff;stroke-linecap:square;stroke-linejoin:miter;"/>
   </g>
   <g id="patch_245">
    <path d="M 648 157.5 
L 648 21.6 
" style="fill:none;stroke:#ffffff;stroke-linecap:square;stroke-linejoin:miter;"/>
   </g>
   <g id="patch_246">
    <path d="M 90 157.5 
L 648 157.5 
" style="fill:none;stroke:#ffffff;stroke-linecap:square;stroke-linejoin:miter;"/>
   </g>
   <g id="patch_247">
    <path d="M 90 21.6 
L 648 21.6 
" style="fill:none;stroke:#ffffff;stroke-linecap:square;stroke-linejoin:miter;"/>
   </g>
   <g id="legend_1">
    <g id="patch_248">
     <path d="M 400.58125 58.95625 
L 641 58.95625 
Q 643 58.95625 643 56.95625 
L 643 28.6 
Q 643 26.6 641 26.6 
L 400.58125 26.6 
Q 398.58125 26.6 398.58125 28.6 
L 398.58125 56.95625 
Q 398.58125 58.95625 400.58125 58.95625 
z
" style="fill:#e5e5e5;opacity:0.8;stroke:#cccccc;stroke-linejoin:miter;stroke-width:0.5;"/>
    </g>
    <g id="line2d_35">
     <path d="M 402.58125 34.698438 
L 422.58125 34.698438 
" style="fill:none;stroke:#348abd;stroke-linecap:square;stroke-width:3;"/>
    </g>
    <g id="line2d_36"/>
    <g id="text_21">
     <!-- Korea, South new cases (rolling 7d mean) -->
     <defs>
      <path d="M 9.8125 72.90625 
L 19.671875 72.90625 
L 19.671875 42.09375 
L 52.390625 72.90625 
L 65.09375 72.90625 
L 28.90625 38.921875 
L 67.671875 0 
L 54.6875 0 
L 19.671875 35.109375 
L 19.671875 0 
L 9.8125 0 
z
" id="DejaVuSans-75"/>
      <path d="M 30.609375 48.390625 
Q 23.390625 48.390625 19.1875 42.75 
Q 14.984375 37.109375 14.984375 27.296875 
Q 14.984375 17.484375 19.15625 11.84375 
Q 23.34375 6.203125 30.609375 6.203125 
Q 37.796875 6.203125 41.984375 11.859375 
Q 46.1875 17.53125 46.1875 27.296875 
Q 46.1875 37.015625 41.984375 42.703125 
Q 37.796875 48.390625 30.609375 48.390625 
z
M 30.609375 56 
Q 42.328125 56 49.015625 48.375 
Q 55.71875 40.765625 55.71875 27.296875 
Q 55.71875 13.875 49.015625 6.21875 
Q 42.328125 -1.421875 30.609375 -1.421875 
Q 18.84375 -1.421875 12.171875 6.21875 
Q 5.515625 13.875 5.515625 27.296875 
Q 5.515625 40.765625 12.171875 48.375 
Q 18.84375 56 30.609375 56 
z
" id="DejaVuSans-111"/>
      <path d="M 41.109375 46.296875 
Q 39.59375 47.171875 37.8125 47.578125 
Q 36.03125 48 33.890625 48 
Q 26.265625 48 22.1875 43.046875 
Q 18.109375 38.09375 18.109375 28.8125 
L 18.109375 0 
L 9.078125 0 
L 9.078125 54.6875 
L 18.109375 54.6875 
L 18.109375 46.1875 
Q 20.953125 51.171875 25.484375 53.578125 
Q 30.03125 56 36.53125 56 
Q 37.453125 56 38.578125 55.875 
Q 39.703125 55.765625 41.0625 55.515625 
z
" id="DejaVuSans-114"/>
      <path d="M 11.71875 12.40625 
L 22.015625 12.40625 
L 22.015625 4 
L 14.015625 -11.625 
L 7.71875 -11.625 
L 11.71875 4 
z
" id="DejaVuSans-44"/>
      <path d="M 53.515625 70.515625 
L 53.515625 60.890625 
Q 47.90625 63.578125 42.921875 64.890625 
Q 37.9375 66.21875 33.296875 66.21875 
Q 25.25 66.21875 20.875 63.09375 
Q 16.5 59.96875 16.5 54.203125 
Q 16.5 49.359375 19.40625 46.890625 
Q 22.3125 44.4375 30.421875 42.921875 
L 36.375 41.703125 
Q 47.40625 39.59375 52.65625 34.296875 
Q 57.90625 29 57.90625 20.125 
Q 57.90625 9.515625 50.796875 4.046875 
Q 43.703125 -1.421875 29.984375 -1.421875 
Q 24.8125 -1.421875 18.96875 -0.25 
Q 13.140625 0.921875 6.890625 3.21875 
L 6.890625 13.375 
Q 12.890625 10.015625 18.65625 8.296875 
Q 24.421875 6.59375 29.984375 6.59375 
Q 38.421875 6.59375 43.015625 9.90625 
Q 47.609375 13.234375 47.609375 19.390625 
Q 47.609375 24.75 44.3125 27.78125 
Q 41.015625 30.8125 33.5 32.328125 
L 27.484375 33.5 
Q 16.453125 35.6875 11.515625 40.375 
Q 6.59375 45.0625 6.59375 53.421875 
Q 6.59375 63.09375 13.40625 68.65625 
Q 20.21875 74.21875 32.171875 74.21875 
Q 37.3125 74.21875 42.625 73.28125 
Q 47.953125 72.359375 53.515625 70.515625 
z
" id="DejaVuSans-83"/>
      <path d="M 8.5 21.578125 
L 8.5 54.6875 
L 17.484375 54.6875 
L 17.484375 21.921875 
Q 17.484375 14.15625 20.5 10.265625 
Q 23.53125 6.390625 29.59375 6.390625 
Q 36.859375 6.390625 41.078125 11.03125 
Q 45.3125 15.671875 45.3125 23.6875 
L 45.3125 54.6875 
L 54.296875 54.6875 
L 54.296875 0 
L 45.3125 0 
L 45.3125 8.40625 
Q 42.046875 3.421875 37.71875 1 
Q 33.40625 -1.421875 27.6875 -1.421875 
Q 18.265625 -1.421875 13.375 4.4375 
Q 8.5 10.296875 8.5 21.578125 
z
M 31.109375 56 
z
" id="DejaVuSans-117"/>
      <path d="M 18.3125 70.21875 
L 18.3125 54.6875 
L 36.8125 54.6875 
L 36.8125 47.703125 
L 18.3125 47.703125 
L 18.3125 18.015625 
Q 18.3125 11.328125 20.140625 9.421875 
Q 21.96875 7.515625 27.59375 7.515625 
L 36.8125 7.515625 
L 36.8125 0 
L 27.59375 0 
Q 17.1875 0 13.234375 3.875 
Q 9.28125 7.765625 9.28125 18.015625 
L 9.28125 47.703125 
L 2.6875 47.703125 
L 2.6875 54.6875 
L 9.28125 54.6875 
L 9.28125 70.21875 
z
" id="DejaVuSans-116"/>
      <path d="M 4.203125 54.6875 
L 13.1875 54.6875 
L 24.421875 12.015625 
L 35.59375 54.6875 
L 46.1875 54.6875 
L 57.421875 12.015625 
L 68.609375 54.6875 
L 77.59375 54.6875 
L 63.28125 0 
L 52.6875 0 
L 40.921875 44.828125 
L 29.109375 0 
L 18.5 0 
z
" id="DejaVuSans-119"/>
      <path d="M 44.28125 53.078125 
L 44.28125 44.578125 
Q 40.484375 46.53125 36.375 47.5 
Q 32.28125 48.484375 27.875 48.484375 
Q 21.1875 48.484375 17.84375 46.4375 
Q 14.5 44.390625 14.5 40.28125 
Q 14.5 37.15625 16.890625 35.375 
Q 19.28125 33.59375 26.515625 31.984375 
L 29.59375 31.296875 
Q 39.15625 29.25 43.1875 25.515625 
Q 47.21875 21.78125 47.21875 15.09375 
Q 47.21875 7.46875 41.1875 3.015625 
Q 35.15625 -1.421875 24.609375 -1.421875 
Q 20.21875 -1.421875 15.453125 -0.5625 
Q 10.6875 0.296875 5.421875 2 
L 5.421875 11.28125 
Q 10.40625 8.6875 15.234375 7.390625 
Q 20.0625 6.109375 24.8125 6.109375 
Q 31.15625 6.109375 34.5625 8.28125 
Q 37.984375 10.453125 37.984375 14.40625 
Q 37.984375 18.0625 35.515625 20.015625 
Q 33.0625 21.96875 24.703125 23.78125 
L 21.578125 24.515625 
Q 13.234375 26.265625 9.515625 29.90625 
Q 5.8125 33.546875 5.8125 39.890625 
Q 5.8125 47.609375 11.28125 51.796875 
Q 16.75 56 26.8125 56 
Q 31.78125 56 36.171875 55.265625 
Q 40.578125 54.546875 44.28125 53.078125 
z
" id="DejaVuSans-115"/>
      <path d="M 31 75.875 
Q 24.46875 64.65625 21.28125 53.65625 
Q 18.109375 42.671875 18.109375 31.390625 
Q 18.109375 20.125 21.3125 9.0625 
Q 24.515625 -2 31 -13.1875 
L 23.1875 -13.1875 
Q 15.875 -1.703125 12.234375 9.375 
Q 8.59375 20.453125 8.59375 31.390625 
Q 8.59375 42.28125 12.203125 53.3125 
Q 15.828125 64.359375 23.1875 75.875 
z
" id="DejaVuSans-40"/>
      <path d="M 52 44.1875 
Q 55.375 50.25 60.0625 53.125 
Q 64.75 56 71.09375 56 
Q 79.640625 56 84.28125 50.015625 
Q 88.921875 44.046875 88.921875 33.015625 
L 88.921875 0 
L 79.890625 0 
L 79.890625 32.71875 
Q 79.890625 40.578125 77.09375 44.375 
Q 74.3125 48.1875 68.609375 48.1875 
Q 61.625 48.1875 57.5625 43.546875 
Q 53.515625 38.921875 53.515625 30.90625 
L 53.515625 0 
L 44.484375 0 
L 44.484375 32.71875 
Q 44.484375 40.625 41.703125 44.40625 
Q 38.921875 48.1875 33.109375 48.1875 
Q 26.21875 48.1875 22.15625 43.53125 
Q 18.109375 38.875 18.109375 30.90625 
L 18.109375 0 
L 9.078125 0 
L 9.078125 54.6875 
L 18.109375 54.6875 
L 18.109375 46.1875 
Q 21.1875 51.21875 25.484375 53.609375 
Q 29.78125 56 35.6875 56 
Q 41.65625 56 45.828125 52.96875 
Q 50 49.953125 52 44.1875 
z
" id="DejaVuSans-109"/>
      <path d="M 8.015625 75.875 
L 15.828125 75.875 
Q 23.140625 64.359375 26.78125 53.3125 
Q 30.421875 42.28125 30.421875 31.390625 
Q 30.421875 20.453125 26.78125 9.375 
Q 23.140625 -1.703125 15.828125 -13.1875 
L 8.015625 -13.1875 
Q 14.5 -2 17.703125 9.0625 
Q 20.90625 20.125 20.90625 31.390625 
Q 20.90625 42.671875 17.703125 53.65625 
Q 14.5 64.65625 8.015625 75.875 
z
" id="DejaVuSans-41"/>
     </defs>
     <g transform="translate(430.58125 38.198438)scale(0.1 -0.1)">
      <use xlink:href="#DejaVuSans-75"/>
      <use x="60.576172" xlink:href="#DejaVuSans-111"/>
      <use x="121.757812" xlink:href="#DejaVuSans-114"/>
      <use x="160.621094" xlink:href="#DejaVuSans-101"/>
      <use x="222.144531" xlink:href="#DejaVuSans-97"/>
      <use x="283.423828" xlink:href="#DejaVuSans-44"/>
      <use x="315.210938" xlink:href="#DejaVuSans-32"/>
      <use x="346.998047" xlink:href="#DejaVuSans-83"/>
      <use x="410.474609" xlink:href="#DejaVuSans-111"/>
      <use x="471.65625" xlink:href="#DejaVuSans-117"/>
      <use x="535.035156" xlink:href="#DejaVuSans-116"/>
      <use x="574.244141" xlink:href="#DejaVuSans-104"/>
      <use x="637.623047" xlink:href="#DejaVuSans-32"/>
      <use x="669.410156" xlink:href="#DejaVuSans-110"/>
      <use x="732.789062" xlink:href="#DejaVuSans-101"/>
      <use x="794.3125" xlink:href="#DejaVuSans-119"/>
      <use x="876.099609" xlink:href="#DejaVuSans-32"/>
      <use x="907.886719" xlink:href="#DejaVuSans-99"/>
      <use x="962.867188" xlink:href="#DejaVuSans-97"/>
      <use x="1024.146484" xlink:href="#DejaVuSans-115"/>
      <use x="1076.246094" xlink:href="#DejaVuSans-101"/>
      <use x="1137.769531" xlink:href="#DejaVuSans-115"/>
      <use x="1189.869141" xlink:href="#DejaVuSans-32"/>
      <use x="1221.65625" xlink:href="#DejaVuSans-40"/>
      <use x="1260.669922" xlink:href="#DejaVuSans-114"/>
      <use x="1299.533203" xlink:href="#DejaVuSans-111"/>
      <use x="1360.714844" xlink:href="#DejaVuSans-108"/>
      <use x="1388.498047" xlink:href="#DejaVuSans-108"/>
      <use x="1416.28125" xlink:href="#DejaVuSans-105"/>
      <use x="1444.064453" xlink:href="#DejaVuSans-110"/>
      <use x="1507.443359" xlink:href="#DejaVuSans-103"/>
      <use x="1570.919922" xlink:href="#DejaVuSans-32"/>
      <use x="1602.707031" xlink:href="#DejaVuSans-55"/>
      <use x="1666.330078" xlink:href="#DejaVuSans-100"/>
      <use x="1729.806641" xlink:href="#DejaVuSans-32"/>
      <use x="1761.59375" xlink:href="#DejaVuSans-109"/>
      <use x="1859.005859" xlink:href="#DejaVuSans-101"/>
      <use x="1920.529297" xlink:href="#DejaVuSans-97"/>
      <use x="1981.808594" xlink:href="#DejaVuSans-110"/>
      <use x="2045.1875" xlink:href="#DejaVuSans-41"/>
     </g>
    </g>
    <g id="patch_249">
     <path d="M 402.58125 52.876563 
L 422.58125 52.876563 
L 422.58125 45.876563 
L 402.58125 45.876563 
z
" style="fill:#348abd;opacity:0.2;"/>
    </g>
    <g id="text_22">
     <!-- Korea, South new cases -->
     <g transform="translate(430.58125 52.876563)scale(0.1 -0.1)">
      <use xlink:href="#DejaVuSans-75"/>
      <use x="60.576172" xlink:href="#DejaVuSans-111"/>
      <use x="121.757812" xlink:href="#DejaVuSans-114"/>
      <use x="160.621094" xlink:href="#DejaVuSans-101"/>
      <use x="222.144531" xlink:href="#DejaVuSans-97"/>
      <use x="283.423828" xlink:href="#DejaVuSans-44"/>
      <use x="315.210938" xlink:href="#DejaVuSans-32"/>
      <use x="346.998047" xlink:href="#DejaVuSans-83"/>
      <use x="410.474609" xlink:href="#DejaVuSans-111"/>
      <use x="471.65625" xlink:href="#DejaVuSans-117"/>
      <use x="535.035156" xlink:href="#DejaVuSans-116"/>
      <use x="574.244141" xlink:href="#DejaVuSans-104"/>
      <use x="637.623047" xlink:href="#DejaVuSans-32"/>
      <use x="669.410156" xlink:href="#DejaVuSans-110"/>
      <use x="732.789062" xlink:href="#DejaVuSans-101"/>
      <use x="794.3125" xlink:href="#DejaVuSans-119"/>
      <use x="876.099609" xlink:href="#DejaVuSans-32"/>
      <use x="907.886719" xlink:href="#DejaVuSans-99"/>
      <use x="962.867188" xlink:href="#DejaVuSans-97"/>
      <use x="1024.146484" xlink:href="#DejaVuSans-115"/>
      <use x="1076.246094" xlink:href="#DejaVuSans-101"/>
      <use x="1137.769531" xlink:href="#DejaVuSans-115"/>
     </g>
    </g>
   </g>
  </g>
 </g>
 <defs>
  <clipPath id="p28e37d54ff">
   <rect height="135.9" width="558" x="90" y="21.6"/>
  </clipPath>
 </defs>
</svg>
