<?xml version="1.0" encoding="utf-8" standalone="no"?>
<!DOCTYPE svg PUBLIC "-//W3C//DTD SVG 1.1//EN"
  "http://www.w3.org/Graphics/SVG/1.1/DTD/svg11.dtd">
<!-- Created with matplotlib (https://matplotlib.org/) -->
<svg height="432pt" version="1.1" viewBox="0 0 720 432" width="720pt" xmlns="http://www.w3.org/2000/svg" xmlns:xlink="http://www.w3.org/1999/xlink">
 <defs>
  <style type="text/css">
*{stroke-linecap:butt;stroke-linejoin:round;}
  </style>
 </defs>
 <g id="figure_1">
  <g id="patch_1">
   <path d="M 0 432 
L 720 432 
L 720 0 
L 0 0 
z
" style="fill:#ffffff;"/>
  </g>
  <g id="axes_1">
   <g id="patch_2">
    <path d="M 86.625 388 
L 665.375 388 
L 665.375 221.378965 
L 86.625 221.378965 
z
" style="fill:#e5e5e5;"/>
   </g>
   <g id="matplotlib.axis_1">
    <g id="xtick_1">
     <g id="line2d_1">
      <path clip-path="url(#p3553365cf7)" d="M 89.292665 388 
L 89.292665 221.378965 
" style="fill:none;stroke:#ffffff;stroke-linecap:square;stroke-width:0.8;"/>
     </g>
     <g id="line2d_2">
      <defs>
       <path d="M 0 0 
L 0 3.5 
" id="mef8de13dc6" style="stroke:#555555;stroke-width:0.8;"/>
      </defs>
      <g>
       <use style="fill:#555555;stroke:#555555;stroke-width:0.8;" x="89.292665" xlink:href="#mef8de13dc6" y="388"/>
      </g>
     </g>
     <g id="text_1">
      <!-- 0 -->
      <defs>
       <path d="M 31.78125 66.40625 
Q 24.171875 66.40625 20.328125 58.90625 
Q 16.5 51.421875 16.5 36.375 
Q 16.5 21.390625 20.328125 13.890625 
Q 24.171875 6.390625 31.78125 6.390625 
Q 39.453125 6.390625 43.28125 13.890625 
Q 47.125 21.390625 47.125 36.375 
Q 47.125 51.421875 43.28125 58.90625 
Q 39.453125 66.40625 31.78125 66.40625 
z
M 31.78125 74.21875 
Q 44.046875 74.21875 50.515625 64.515625 
Q 56.984375 54.828125 56.984375 36.375 
Q 56.984375 17.96875 50.515625 8.265625 
Q 44.046875 -1.421875 31.78125 -1.421875 
Q 19.53125 -1.421875 13.0625 8.265625 
Q 6.59375 17.96875 6.59375 36.375 
Q 6.59375 54.828125 13.0625 64.515625 
Q 19.53125 74.21875 31.78125 74.21875 
z
" id="DejaVuSans-48"/>
      </defs>
      <g style="fill:#555555;" transform="translate(86.111415 402.598437)scale(0.1 -0.1)">
       <use xlink:href="#DejaVuSans-48"/>
      </g>
     </g>
    </g>
    <g id="xtick_2">
     <g id="line2d_3">
      <path clip-path="url(#p3553365cf7)" d="M 155.984299 388 
L 155.984299 221.378965 
" style="fill:none;stroke:#ffffff;stroke-linecap:square;stroke-width:0.8;"/>
     </g>
     <g id="line2d_4">
      <g>
       <use style="fill:#555555;stroke:#555555;stroke-width:0.8;" x="155.984299" xlink:href="#mef8de13dc6" y="388"/>
      </g>
     </g>
     <g id="text_2">
      <!-- 25 -->
      <defs>
       <path d="M 19.1875 8.296875 
L 53.609375 8.296875 
L 53.609375 0 
L 7.328125 0 
L 7.328125 8.296875 
Q 12.9375 14.109375 22.625 23.890625 
Q 32.328125 33.6875 34.8125 36.53125 
Q 39.546875 41.84375 41.421875 45.53125 
Q 43.3125 49.21875 43.3125 52.78125 
Q 43.3125 58.59375 39.234375 62.25 
Q 35.15625 65.921875 28.609375 65.921875 
Q 23.96875 65.921875 18.8125 64.3125 
Q 13.671875 62.703125 7.8125 59.421875 
L 7.8125 69.390625 
Q 13.765625 71.78125 18.9375 73 
Q 24.125 74.21875 28.421875 74.21875 
Q 39.75 74.21875 46.484375 68.546875 
Q 53.21875 62.890625 53.21875 53.421875 
Q 53.21875 48.921875 51.53125 44.890625 
Q 49.859375 40.875 45.40625 35.40625 
Q 44.1875 33.984375 37.640625 27.21875 
Q 31.109375 20.453125 19.1875 8.296875 
z
" id="DejaVuSans-50"/>
       <path d="M 10.796875 72.90625 
L 49.515625 72.90625 
L 49.515625 64.59375 
L 19.828125 64.59375 
L 19.828125 46.734375 
Q 21.96875 47.46875 24.109375 47.828125 
Q 26.265625 48.1875 28.421875 48.1875 
Q 40.625 48.1875 47.75 41.5 
Q 54.890625 34.8125 54.890625 23.390625 
Q 54.890625 11.625 47.5625 5.09375 
Q 40.234375 -1.421875 26.90625 -1.421875 
Q 22.3125 -1.421875 17.546875 -0.640625 
Q 12.796875 0.140625 7.71875 1.703125 
L 7.71875 11.625 
Q 12.109375 9.234375 16.796875 8.0625 
Q 21.484375 6.890625 26.703125 6.890625 
Q 35.15625 6.890625 40.078125 11.328125 
Q 45.015625 15.765625 45.015625 23.390625 
Q 45.015625 31 40.078125 35.4375 
Q 35.15625 39.890625 26.703125 39.890625 
Q 22.75 39.890625 18.8125 39.015625 
Q 14.890625 38.140625 10.796875 36.28125 
z
" id="DejaVuSans-53"/>
      </defs>
      <g style="fill:#555555;" transform="translate(149.621799 402.598437)scale(0.1 -0.1)">
       <use xlink:href="#DejaVuSans-50"/>
       <use x="63.623047" xlink:href="#DejaVuSans-53"/>
      </g>
     </g>
    </g>
    <g id="xtick_3">
     <g id="line2d_5">
      <path clip-path="url(#p3553365cf7)" d="M 222.675933 388 
L 222.675933 221.378965 
" style="fill:none;stroke:#ffffff;stroke-linecap:square;stroke-width:0.8;"/>
     </g>
     <g id="line2d_6">
      <g>
       <use style="fill:#555555;stroke:#555555;stroke-width:0.8;" x="222.675933" xlink:href="#mef8de13dc6" y="388"/>
      </g>
     </g>
     <g id="text_3">
      <!-- 50 -->
      <g style="fill:#555555;" transform="translate(216.313433 402.598437)scale(0.1 -0.1)">
       <use xlink:href="#DejaVuSans-53"/>
       <use x="63.623047" xlink:href="#DejaVuSans-48"/>
      </g>
     </g>
    </g>
    <g id="xtick_4">
     <g id="line2d_7">
      <path clip-path="url(#p3553365cf7)" d="M 289.367567 388 
L 289.367567 221.378965 
" style="fill:none;stroke:#ffffff;stroke-linecap:square;stroke-width:0.8;"/>
     </g>
     <g id="line2d_8">
      <g>
       <use style="fill:#555555;stroke:#555555;stroke-width:0.8;" x="289.367567" xlink:href="#mef8de13dc6" y="388"/>
      </g>
     </g>
     <g id="text_4">
      <!-- 75 -->
      <defs>
       <path d="M 8.203125 72.90625 
L 55.078125 72.90625 
L 55.078125 68.703125 
L 28.609375 0 
L 18.3125 0 
L 43.21875 64.59375 
L 8.203125 64.59375 
z
" id="DejaVuSans-55"/>
      </defs>
      <g style="fill:#555555;" transform="translate(283.005067 402.598437)scale(0.1 -0.1)">
       <use xlink:href="#DejaVuSans-55"/>
       <use x="63.623047" xlink:href="#DejaVuSans-53"/>
      </g>
     </g>
    </g>
    <g id="xtick_5">
     <g id="line2d_9">
      <path clip-path="url(#p3553365cf7)" d="M 356.059201 388 
L 356.059201 221.378965 
" style="fill:none;stroke:#ffffff;stroke-linecap:square;stroke-width:0.8;"/>
     </g>
     <g id="line2d_10">
      <g>
       <use style="fill:#555555;stroke:#555555;stroke-width:0.8;" x="356.059201" xlink:href="#mef8de13dc6" y="388"/>
      </g>
     </g>
     <g id="text_5">
      <!-- 100 -->
      <defs>
       <path d="M 12.40625 8.296875 
L 28.515625 8.296875 
L 28.515625 63.921875 
L 10.984375 60.40625 
L 10.984375 69.390625 
L 28.421875 72.90625 
L 38.28125 72.90625 
L 38.28125 8.296875 
L 54.390625 8.296875 
L 54.390625 0 
L 12.40625 0 
z
" id="DejaVuSans-49"/>
      </defs>
      <g style="fill:#555555;" transform="translate(346.515451 402.598437)scale(0.1 -0.1)">
       <use xlink:href="#DejaVuSans-49"/>
       <use x="63.623047" xlink:href="#DejaVuSans-48"/>
       <use x="127.246094" xlink:href="#DejaVuSans-48"/>
      </g>
     </g>
    </g>
    <g id="xtick_6">
     <g id="line2d_11">
      <path clip-path="url(#p3553365cf7)" d="M 422.750835 388 
L 422.750835 221.378965 
" style="fill:none;stroke:#ffffff;stroke-linecap:square;stroke-width:0.8;"/>
     </g>
     <g id="line2d_12">
      <g>
       <use style="fill:#555555;stroke:#555555;stroke-width:0.8;" x="422.750835" xlink:href="#mef8de13dc6" y="388"/>
      </g>
     </g>
     <g id="text_6">
      <!-- 125 -->
      <g style="fill:#555555;" transform="translate(413.207085 402.598437)scale(0.1 -0.1)">
       <use xlink:href="#DejaVuSans-49"/>
       <use x="63.623047" xlink:href="#DejaVuSans-50"/>
       <use x="127.246094" xlink:href="#DejaVuSans-53"/>
      </g>
     </g>
    </g>
    <g id="xtick_7">
     <g id="line2d_13">
      <path clip-path="url(#p3553365cf7)" d="M 489.442469 388 
L 489.442469 221.378965 
" style="fill:none;stroke:#ffffff;stroke-linecap:square;stroke-width:0.8;"/>
     </g>
     <g id="line2d_14">
      <g>
       <use style="fill:#555555;stroke:#555555;stroke-width:0.8;" x="489.442469" xlink:href="#mef8de13dc6" y="388"/>
      </g>
     </g>
     <g id="text_7">
      <!-- 150 -->
      <g style="fill:#555555;" transform="translate(479.898719 402.598437)scale(0.1 -0.1)">
       <use xlink:href="#DejaVuSans-49"/>
       <use x="63.623047" xlink:href="#DejaVuSans-53"/>
       <use x="127.246094" xlink:href="#DejaVuSans-48"/>
      </g>
     </g>
    </g>
    <g id="xtick_8">
     <g id="line2d_15">
      <path clip-path="url(#p3553365cf7)" d="M 556.134103 388 
L 556.134103 221.378965 
" style="fill:none;stroke:#ffffff;stroke-linecap:square;stroke-width:0.8;"/>
     </g>
     <g id="line2d_16">
      <g>
       <use style="fill:#555555;stroke:#555555;stroke-width:0.8;" x="556.134103" xlink:href="#mef8de13dc6" y="388"/>
      </g>
     </g>
     <g id="text_8">
      <!-- 175 -->
      <g style="fill:#555555;" transform="translate(546.590353 402.598437)scale(0.1 -0.1)">
       <use xlink:href="#DejaVuSans-49"/>
       <use x="63.623047" xlink:href="#DejaVuSans-55"/>
       <use x="127.246094" xlink:href="#DejaVuSans-53"/>
      </g>
     </g>
    </g>
    <g id="xtick_9">
     <g id="line2d_17">
      <path clip-path="url(#p3553365cf7)" d="M 622.825737 388 
L 622.825737 221.378965 
" style="fill:none;stroke:#ffffff;stroke-linecap:square;stroke-width:0.8;"/>
     </g>
     <g id="line2d_18">
      <g>
       <use style="fill:#555555;stroke:#555555;stroke-width:0.8;" x="622.825737" xlink:href="#mef8de13dc6" y="388"/>
      </g>
     </g>
     <g id="text_9">
      <!-- 200 -->
      <g style="fill:#555555;" transform="translate(613.281987 402.598437)scale(0.1 -0.1)">
       <use xlink:href="#DejaVuSans-50"/>
       <use x="63.623047" xlink:href="#DejaVuSans-48"/>
       <use x="127.246094" xlink:href="#DejaVuSans-48"/>
      </g>
     </g>
    </g>
    <g id="text_10">
     <!-- days since 3 deaths -->
     <defs>
      <path d="M 45.40625 46.390625 
L 45.40625 75.984375 
L 54.390625 75.984375 
L 54.390625 0 
L 45.40625 0 
L 45.40625 8.203125 
Q 42.578125 3.328125 38.25 0.953125 
Q 33.9375 -1.421875 27.875 -1.421875 
Q 17.96875 -1.421875 11.734375 6.484375 
Q 5.515625 14.40625 5.515625 27.296875 
Q 5.515625 40.1875 11.734375 48.09375 
Q 17.96875 56 27.875 56 
Q 33.9375 56 38.25 53.625 
Q 42.578125 51.265625 45.40625 46.390625 
z
M 14.796875 27.296875 
Q 14.796875 17.390625 18.875 11.75 
Q 22.953125 6.109375 30.078125 6.109375 
Q 37.203125 6.109375 41.296875 11.75 
Q 45.40625 17.390625 45.40625 27.296875 
Q 45.40625 37.203125 41.296875 42.84375 
Q 37.203125 48.484375 30.078125 48.484375 
Q 22.953125 48.484375 18.875 42.84375 
Q 14.796875 37.203125 14.796875 27.296875 
z
" id="DejaVuSans-100"/>
      <path d="M 34.28125 27.484375 
Q 23.390625 27.484375 19.1875 25 
Q 14.984375 22.515625 14.984375 16.5 
Q 14.984375 11.71875 18.140625 8.90625 
Q 21.296875 6.109375 26.703125 6.109375 
Q 34.1875 6.109375 38.703125 11.40625 
Q 43.21875 16.703125 43.21875 25.484375 
L 43.21875 27.484375 
z
M 52.203125 31.203125 
L 52.203125 0 
L 43.21875 0 
L 43.21875 8.296875 
Q 40.140625 3.328125 35.546875 0.953125 
Q 30.953125 -1.421875 24.3125 -1.421875 
Q 15.921875 -1.421875 10.953125 3.296875 
Q 6 8.015625 6 15.921875 
Q 6 25.140625 12.171875 29.828125 
Q 18.359375 34.515625 30.609375 34.515625 
L 43.21875 34.515625 
L 43.21875 35.40625 
Q 43.21875 41.609375 39.140625 45 
Q 35.0625 48.390625 27.6875 48.390625 
Q 23 48.390625 18.546875 47.265625 
Q 14.109375 46.140625 10.015625 43.890625 
L 10.015625 52.203125 
Q 14.9375 54.109375 19.578125 55.046875 
Q 24.21875 56 28.609375 56 
Q 40.484375 56 46.34375 49.84375 
Q 52.203125 43.703125 52.203125 31.203125 
z
" id="DejaVuSans-97"/>
      <path d="M 32.171875 -5.078125 
Q 28.375 -14.84375 24.75 -17.8125 
Q 21.140625 -20.796875 15.09375 -20.796875 
L 7.90625 -20.796875 
L 7.90625 -13.28125 
L 13.1875 -13.28125 
Q 16.890625 -13.28125 18.9375 -11.515625 
Q 21 -9.765625 23.484375 -3.21875 
L 25.09375 0.875 
L 2.984375 54.6875 
L 12.5 54.6875 
L 29.59375 11.921875 
L 46.6875 54.6875 
L 56.203125 54.6875 
z
" id="DejaVuSans-121"/>
      <path d="M 44.28125 53.078125 
L 44.28125 44.578125 
Q 40.484375 46.53125 36.375 47.5 
Q 32.28125 48.484375 27.875 48.484375 
Q 21.1875 48.484375 17.84375 46.4375 
Q 14.5 44.390625 14.5 40.28125 
Q 14.5 37.15625 16.890625 35.375 
Q 19.28125 33.59375 26.515625 31.984375 
L 29.59375 31.296875 
Q 39.15625 29.25 43.1875 25.515625 
Q 47.21875 21.78125 47.21875 15.09375 
Q 47.21875 7.46875 41.1875 3.015625 
Q 35.15625 -1.421875 24.609375 -1.421875 
Q 20.21875 -1.421875 15.453125 -0.5625 
Q 10.6875 0.296875 5.421875 2 
L 5.421875 11.28125 
Q 10.40625 8.6875 15.234375 7.390625 
Q 20.0625 6.109375 24.8125 6.109375 
Q 31.15625 6.109375 34.5625 8.28125 
Q 37.984375 10.453125 37.984375 14.40625 
Q 37.984375 18.0625 35.515625 20.015625 
Q 33.0625 21.96875 24.703125 23.78125 
L 21.578125 24.515625 
Q 13.234375 26.265625 9.515625 29.90625 
Q 5.8125 33.546875 5.8125 39.890625 
Q 5.8125 47.609375 11.28125 51.796875 
Q 16.75 56 26.8125 56 
Q 31.78125 56 36.171875 55.265625 
Q 40.578125 54.546875 44.28125 53.078125 
z
" id="DejaVuSans-115"/>
      <path id="DejaVuSans-32"/>
      <path d="M 9.421875 54.6875 
L 18.40625 54.6875 
L 18.40625 0 
L 9.421875 0 
z
M 9.421875 75.984375 
L 18.40625 75.984375 
L 18.40625 64.59375 
L 9.421875 64.59375 
z
" id="DejaVuSans-105"/>
      <path d="M 54.890625 33.015625 
L 54.890625 0 
L 45.90625 0 
L 45.90625 32.71875 
Q 45.90625 40.484375 42.875 44.328125 
Q 39.84375 48.1875 33.796875 48.1875 
Q 26.515625 48.1875 22.3125 43.546875 
Q 18.109375 38.921875 18.109375 30.90625 
L 18.109375 0 
L 9.078125 0 
L 9.078125 54.6875 
L 18.109375 54.6875 
L 18.109375 46.1875 
Q 21.34375 51.125 25.703125 53.5625 
Q 30.078125 56 35.796875 56 
Q 45.21875 56 50.046875 50.171875 
Q 54.890625 44.34375 54.890625 33.015625 
z
" id="DejaVuSans-110"/>
      <path d="M 48.78125 52.59375 
L 48.78125 44.1875 
Q 44.96875 46.296875 41.140625 47.34375 
Q 37.3125 48.390625 33.40625 48.390625 
Q 24.65625 48.390625 19.8125 42.84375 
Q 14.984375 37.3125 14.984375 27.296875 
Q 14.984375 17.28125 19.8125 11.734375 
Q 24.65625 6.203125 33.40625 6.203125 
Q 37.3125 6.203125 41.140625 7.25 
Q 44.96875 8.296875 48.78125 10.40625 
L 48.78125 2.09375 
Q 45.015625 0.34375 40.984375 -0.53125 
Q 36.96875 -1.421875 32.421875 -1.421875 
Q 20.0625 -1.421875 12.78125 6.34375 
Q 5.515625 14.109375 5.515625 27.296875 
Q 5.515625 40.671875 12.859375 48.328125 
Q 20.21875 56 33.015625 56 
Q 37.15625 56 41.109375 55.140625 
Q 45.0625 54.296875 48.78125 52.59375 
z
" id="DejaVuSans-99"/>
      <path d="M 56.203125 29.59375 
L 56.203125 25.203125 
L 14.890625 25.203125 
Q 15.484375 15.921875 20.484375 11.0625 
Q 25.484375 6.203125 34.421875 6.203125 
Q 39.59375 6.203125 44.453125 7.46875 
Q 49.3125 8.734375 54.109375 11.28125 
L 54.109375 2.78125 
Q 49.265625 0.734375 44.1875 -0.34375 
Q 39.109375 -1.421875 33.890625 -1.421875 
Q 20.796875 -1.421875 13.15625 6.1875 
Q 5.515625 13.8125 5.515625 26.8125 
Q 5.515625 40.234375 12.765625 48.109375 
Q 20.015625 56 32.328125 56 
Q 43.359375 56 49.78125 48.890625 
Q 56.203125 41.796875 56.203125 29.59375 
z
M 47.21875 32.234375 
Q 47.125 39.59375 43.09375 43.984375 
Q 39.0625 48.390625 32.421875 48.390625 
Q 24.90625 48.390625 20.390625 44.140625 
Q 15.875 39.890625 15.1875 32.171875 
z
" id="DejaVuSans-101"/>
      <path d="M 40.578125 39.3125 
Q 47.65625 37.796875 51.625 33 
Q 55.609375 28.21875 55.609375 21.1875 
Q 55.609375 10.40625 48.1875 4.484375 
Q 40.765625 -1.421875 27.09375 -1.421875 
Q 22.515625 -1.421875 17.65625 -0.515625 
Q 12.796875 0.390625 7.625 2.203125 
L 7.625 11.71875 
Q 11.71875 9.328125 16.59375 8.109375 
Q 21.484375 6.890625 26.8125 6.890625 
Q 36.078125 6.890625 40.9375 10.546875 
Q 45.796875 14.203125 45.796875 21.1875 
Q 45.796875 27.640625 41.28125 31.265625 
Q 36.765625 34.90625 28.71875 34.90625 
L 20.21875 34.90625 
L 20.21875 43.015625 
L 29.109375 43.015625 
Q 36.375 43.015625 40.234375 45.921875 
Q 44.09375 48.828125 44.09375 54.296875 
Q 44.09375 59.90625 40.109375 62.90625 
Q 36.140625 65.921875 28.71875 65.921875 
Q 24.65625 65.921875 20.015625 65.03125 
Q 15.375 64.15625 9.8125 62.3125 
L 9.8125 71.09375 
Q 15.4375 72.65625 20.34375 73.4375 
Q 25.25 74.21875 29.59375 74.21875 
Q 40.828125 74.21875 47.359375 69.109375 
Q 53.90625 64.015625 53.90625 55.328125 
Q 53.90625 49.265625 50.4375 45.09375 
Q 46.96875 40.921875 40.578125 39.3125 
z
" id="DejaVuSans-51"/>
      <path d="M 18.3125 70.21875 
L 18.3125 54.6875 
L 36.8125 54.6875 
L 36.8125 47.703125 
L 18.3125 47.703125 
L 18.3125 18.015625 
Q 18.3125 11.328125 20.140625 9.421875 
Q 21.96875 7.515625 27.59375 7.515625 
L 36.8125 7.515625 
L 36.8125 0 
L 27.59375 0 
Q 17.1875 0 13.234375 3.875 
Q 9.28125 7.765625 9.28125 18.015625 
L 9.28125 47.703125 
L 2.6875 47.703125 
L 2.6875 54.6875 
L 9.28125 54.6875 
L 9.28125 70.21875 
z
" id="DejaVuSans-116"/>
      <path d="M 54.890625 33.015625 
L 54.890625 0 
L 45.90625 0 
L 45.90625 32.71875 
Q 45.90625 40.484375 42.875 44.328125 
Q 39.84375 48.1875 33.796875 48.1875 
Q 26.515625 48.1875 22.3125 43.546875 
Q 18.109375 38.921875 18.109375 30.90625 
L 18.109375 0 
L 9.078125 0 
L 9.078125 75.984375 
L 18.109375 75.984375 
L 18.109375 46.1875 
Q 21.34375 51.125 25.703125 53.5625 
Q 30.078125 56 35.796875 56 
Q 45.21875 56 50.046875 50.171875 
Q 54.890625 44.34375 54.890625 33.015625 
z
" id="DejaVuSans-104"/>
     </defs>
     <g style="fill:#555555;" transform="translate(316.255 417.79625)scale(0.12 -0.12)">
      <use xlink:href="#DejaVuSans-100"/>
      <use x="63.476562" xlink:href="#DejaVuSans-97"/>
      <use x="124.755859" xlink:href="#DejaVuSans-121"/>
      <use x="183.935547" xlink:href="#DejaVuSans-115"/>
      <use x="236.035156" xlink:href="#DejaVuSans-32"/>
      <use x="267.822266" xlink:href="#DejaVuSans-115"/>
      <use x="319.921875" xlink:href="#DejaVuSans-105"/>
      <use x="347.705078" xlink:href="#DejaVuSans-110"/>
      <use x="411.083984" xlink:href="#DejaVuSans-99"/>
      <use x="466.064453" xlink:href="#DejaVuSans-101"/>
      <use x="527.587891" xlink:href="#DejaVuSans-32"/>
      <use x="559.375" xlink:href="#DejaVuSans-51"/>
      <use x="622.998047" xlink:href="#DejaVuSans-32"/>
      <use x="654.785156" xlink:href="#DejaVuSans-100"/>
      <use x="718.261719" xlink:href="#DejaVuSans-101"/>
      <use x="779.785156" xlink:href="#DejaVuSans-97"/>
      <use x="841.064453" xlink:href="#DejaVuSans-116"/>
      <use x="880.273438" xlink:href="#DejaVuSans-104"/>
      <use x="943.652344" xlink:href="#DejaVuSans-115"/>
     </g>
    </g>
   </g>
   <g id="matplotlib.axis_2">
    <g id="ytick_1">
     <g id="line2d_19">
      <path clip-path="url(#p3553365cf7)" d="M 86.625 388 
L 665.375 388 
" style="fill:none;stroke:#ffffff;stroke-linecap:square;stroke-width:0.8;"/>
     </g>
     <g id="line2d_20">
      <defs>
       <path d="M 0 0 
L -3.5 0 
" id="ma28cecf2d3" style="stroke:#555555;stroke-width:0.8;"/>
      </defs>
      <g>
       <use style="fill:#555555;stroke:#555555;stroke-width:0.8;" x="86.625" xlink:href="#ma28cecf2d3" y="388"/>
      </g>
     </g>
     <g id="line2d_21">
      <defs>
       <path d="M 0 0 
L 3.5 0 
" id="me06c83cafa" style="stroke:#555555;stroke-width:0.8;"/>
      </defs>
      <g>
       <use style="fill:#555555;stroke:#555555;stroke-width:0.8;" x="665.375" xlink:href="#me06c83cafa" y="388"/>
      </g>
     </g>
     <g id="text_11">
      <!-- 0.01 -->
      <defs>
       <path d="M 10.6875 12.40625 
L 21 12.40625 
L 21 0 
L 10.6875 0 
z
" id="DejaVuSans-46"/>
      </defs>
      <g style="fill:#555555;" transform="translate(57.359375 391.799219)scale(0.1 -0.1)">
       <use xlink:href="#DejaVuSans-48"/>
       <use x="63.623047" xlink:href="#DejaVuSans-46"/>
       <use x="95.410156" xlink:href="#DejaVuSans-48"/>
       <use x="159.033203" xlink:href="#DejaVuSans-49"/>
      </g>
     </g>
     <g id="text_12">
      <!-- 0.01 -->
      <g style="fill:#555555;" transform="translate(672.375 391.799219)scale(0.1 -0.1)">
       <use xlink:href="#DejaVuSans-48"/>
       <use x="63.623047" xlink:href="#DejaVuSans-46"/>
       <use x="95.410156" xlink:href="#DejaVuSans-48"/>
       <use x="159.033203" xlink:href="#DejaVuSans-49"/>
      </g>
     </g>
    </g>
    <g id="ytick_2">
     <g id="line2d_22">
      <path clip-path="url(#p3553365cf7)" d="M 86.625 358.032584 
L 665.375 358.032584 
" style="fill:none;stroke:#ffffff;stroke-linecap:square;stroke-width:0.8;"/>
     </g>
     <g id="line2d_23">
      <g>
       <use style="fill:#555555;stroke:#555555;stroke-width:0.8;" x="86.625" xlink:href="#ma28cecf2d3" y="358.032584"/>
      </g>
     </g>
     <g id="line2d_24">
      <g>
       <use style="fill:#555555;stroke:#555555;stroke-width:0.8;" x="665.375" xlink:href="#me06c83cafa" y="358.032584"/>
      </g>
     </g>
     <g id="text_13">
      <!-- 0.1 -->
      <g style="fill:#555555;" transform="translate(63.721875 361.831803)scale(0.1 -0.1)">
       <use xlink:href="#DejaVuSans-48"/>
       <use x="63.623047" xlink:href="#DejaVuSans-46"/>
       <use x="95.410156" xlink:href="#DejaVuSans-49"/>
      </g>
     </g>
     <g id="text_14">
      <!-- 0.1 -->
      <g style="fill:#555555;" transform="translate(672.375 361.831803)scale(0.1 -0.1)">
       <use xlink:href="#DejaVuSans-48"/>
       <use x="63.623047" xlink:href="#DejaVuSans-46"/>
       <use x="95.410156" xlink:href="#DejaVuSans-49"/>
      </g>
     </g>
    </g>
    <g id="ytick_3">
     <g id="line2d_25">
      <path clip-path="url(#p3553365cf7)" d="M 86.625 328.065168 
L 665.375 328.065168 
" style="fill:none;stroke:#ffffff;stroke-linecap:square;stroke-width:0.8;"/>
     </g>
     <g id="line2d_26">
      <g>
       <use style="fill:#555555;stroke:#555555;stroke-width:0.8;" x="86.625" xlink:href="#ma28cecf2d3" y="328.065168"/>
      </g>
     </g>
     <g id="line2d_27">
      <g>
       <use style="fill:#555555;stroke:#555555;stroke-width:0.8;" x="665.375" xlink:href="#me06c83cafa" y="328.065168"/>
      </g>
     </g>
     <g id="text_15">
      <!-- 1 -->
      <g style="fill:#555555;" transform="translate(73.2625 331.864387)scale(0.1 -0.1)">
       <use xlink:href="#DejaVuSans-49"/>
      </g>
     </g>
     <g id="text_16">
      <!-- 1 -->
      <g style="fill:#555555;" transform="translate(672.375 331.864387)scale(0.1 -0.1)">
       <use xlink:href="#DejaVuSans-49"/>
      </g>
     </g>
    </g>
    <g id="ytick_4">
     <g id="line2d_28">
      <path clip-path="url(#p3553365cf7)" d="M 86.625 298.097752 
L 665.375 298.097752 
" style="fill:none;stroke:#ffffff;stroke-linecap:square;stroke-width:0.8;"/>
     </g>
     <g id="line2d_29">
      <g>
       <use style="fill:#555555;stroke:#555555;stroke-width:0.8;" x="86.625" xlink:href="#ma28cecf2d3" y="298.097752"/>
      </g>
     </g>
     <g id="line2d_30">
      <g>
       <use style="fill:#555555;stroke:#555555;stroke-width:0.8;" x="665.375" xlink:href="#me06c83cafa" y="298.097752"/>
      </g>
     </g>
     <g id="text_17">
      <!-- 10 -->
      <g style="fill:#555555;" transform="translate(66.9 301.896971)scale(0.1 -0.1)">
       <use xlink:href="#DejaVuSans-49"/>
       <use x="63.623047" xlink:href="#DejaVuSans-48"/>
      </g>
     </g>
     <g id="text_18">
      <!-- 10 -->
      <g style="fill:#555555;" transform="translate(672.375 301.896971)scale(0.1 -0.1)">
       <use xlink:href="#DejaVuSans-49"/>
       <use x="63.623047" xlink:href="#DejaVuSans-48"/>
      </g>
     </g>
    </g>
    <g id="ytick_5">
     <g id="line2d_31">
      <path clip-path="url(#p3553365cf7)" d="M 86.625 268.130336 
L 665.375 268.130336 
" style="fill:none;stroke:#ffffff;stroke-linecap:square;stroke-width:0.8;"/>
     </g>
     <g id="line2d_32">
      <g>
       <use style="fill:#555555;stroke:#555555;stroke-width:0.8;" x="86.625" xlink:href="#ma28cecf2d3" y="268.130336"/>
      </g>
     </g>
     <g id="line2d_33">
      <g>
       <use style="fill:#555555;stroke:#555555;stroke-width:0.8;" x="665.375" xlink:href="#me06c83cafa" y="268.130336"/>
      </g>
     </g>
     <g id="text_19">
      <!-- 100 -->
      <g style="fill:#555555;" transform="translate(60.5375 271.929555)scale(0.1 -0.1)">
       <use xlink:href="#DejaVuSans-49"/>
       <use x="63.623047" xlink:href="#DejaVuSans-48"/>
       <use x="127.246094" xlink:href="#DejaVuSans-48"/>
      </g>
     </g>
     <g id="text_20">
      <!-- 100 -->
      <g style="fill:#555555;" transform="translate(672.375 271.929555)scale(0.1 -0.1)">
       <use xlink:href="#DejaVuSans-49"/>
       <use x="63.623047" xlink:href="#DejaVuSans-48"/>
       <use x="127.246094" xlink:href="#DejaVuSans-48"/>
      </g>
     </g>
    </g>
    <g id="ytick_6">
     <g id="line2d_34">
      <path clip-path="url(#p3553365cf7)" d="M 86.625 238.16292 
L 665.375 238.16292 
" style="fill:none;stroke:#ffffff;stroke-linecap:square;stroke-width:0.8;"/>
     </g>
     <g id="line2d_35">
      <g>
       <use style="fill:#555555;stroke:#555555;stroke-width:0.8;" x="86.625" xlink:href="#ma28cecf2d3" y="238.16292"/>
      </g>
     </g>
     <g id="line2d_36">
      <g>
       <use style="fill:#555555;stroke:#555555;stroke-width:0.8;" x="665.375" xlink:href="#me06c83cafa" y="238.16292"/>
      </g>
     </g>
     <g id="text_21">
      <!-- 1000 -->
      <g style="fill:#555555;" transform="translate(54.175 241.962139)scale(0.1 -0.1)">
       <use xlink:href="#DejaVuSans-49"/>
       <use x="63.623047" xlink:href="#DejaVuSans-48"/>
       <use x="127.246094" xlink:href="#DejaVuSans-48"/>
       <use x="190.869141" xlink:href="#DejaVuSans-48"/>
      </g>
     </g>
     <g id="text_22">
      <!-- 1000 -->
      <g style="fill:#555555;" transform="translate(672.375 241.962139)scale(0.1 -0.1)">
       <use xlink:href="#DejaVuSans-49"/>
       <use x="63.623047" xlink:href="#DejaVuSans-48"/>
       <use x="127.246094" xlink:href="#DejaVuSans-48"/>
       <use x="190.869141" xlink:href="#DejaVuSans-48"/>
      </g>
     </g>
    </g>
    <g id="ytick_7">
     <g id="line2d_37">
      <defs>
       <path d="M 0 0 
L -2 0 
" id="m8872e70046" style="stroke:#555555;stroke-width:0.6;"/>
      </defs>
      <g>
       <use style="fill:#555555;stroke:#555555;stroke-width:0.6;" x="86.625" xlink:href="#m8872e70046" y="378.978909"/>
      </g>
     </g>
     <g id="line2d_38">
      <defs>
       <path d="M 0 0 
L 2 0 
" id="maaa5f57a0d" style="stroke:#555555;stroke-width:0.6;"/>
      </defs>
      <g>
       <use style="fill:#555555;stroke:#555555;stroke-width:0.6;" x="665.375" xlink:href="#maaa5f57a0d" y="378.978909"/>
      </g>
     </g>
    </g>
    <g id="ytick_8">
     <g id="line2d_39">
      <g>
       <use style="fill:#555555;stroke:#555555;stroke-width:0.6;" x="86.625" xlink:href="#m8872e70046" y="373.701909"/>
      </g>
     </g>
     <g id="line2d_40">
      <g>
       <use style="fill:#555555;stroke:#555555;stroke-width:0.6;" x="665.375" xlink:href="#maaa5f57a0d" y="373.701909"/>
      </g>
     </g>
    </g>
    <g id="ytick_9">
     <g id="line2d_41">
      <g>
       <use style="fill:#555555;stroke:#555555;stroke-width:0.6;" x="86.625" xlink:href="#m8872e70046" y="369.957818"/>
      </g>
     </g>
     <g id="line2d_42">
      <g>
       <use style="fill:#555555;stroke:#555555;stroke-width:0.6;" x="665.375" xlink:href="#maaa5f57a0d" y="369.957818"/>
      </g>
     </g>
    </g>
    <g id="ytick_10">
     <g id="line2d_43">
      <g>
       <use style="fill:#555555;stroke:#555555;stroke-width:0.6;" x="86.625" xlink:href="#m8872e70046" y="367.053675"/>
      </g>
     </g>
     <g id="line2d_44">
      <g>
       <use style="fill:#555555;stroke:#555555;stroke-width:0.6;" x="665.375" xlink:href="#maaa5f57a0d" y="367.053675"/>
      </g>
     </g>
    </g>
    <g id="ytick_11">
     <g id="line2d_45">
      <g>
       <use style="fill:#555555;stroke:#555555;stroke-width:0.6;" x="86.625" xlink:href="#m8872e70046" y="364.680818"/>
      </g>
     </g>
     <g id="line2d_46">
      <g>
       <use style="fill:#555555;stroke:#555555;stroke-width:0.6;" x="665.375" xlink:href="#maaa5f57a0d" y="364.680818"/>
      </g>
     </g>
    </g>
    <g id="ytick_12">
     <g id="line2d_47">
      <g>
       <use style="fill:#555555;stroke:#555555;stroke-width:0.6;" x="86.625" xlink:href="#m8872e70046" y="362.674595"/>
      </g>
     </g>
     <g id="line2d_48">
      <g>
       <use style="fill:#555555;stroke:#555555;stroke-width:0.6;" x="665.375" xlink:href="#maaa5f57a0d" y="362.674595"/>
      </g>
     </g>
    </g>
    <g id="ytick_13">
     <g id="line2d_49">
      <g>
       <use style="fill:#555555;stroke:#555555;stroke-width:0.6;" x="86.625" xlink:href="#m8872e70046" y="360.936727"/>
      </g>
     </g>
     <g id="line2d_50">
      <g>
       <use style="fill:#555555;stroke:#555555;stroke-width:0.6;" x="665.375" xlink:href="#maaa5f57a0d" y="360.936727"/>
      </g>
     </g>
    </g>
    <g id="ytick_14">
     <g id="line2d_51">
      <g>
       <use style="fill:#555555;stroke:#555555;stroke-width:0.6;" x="86.625" xlink:href="#m8872e70046" y="359.403818"/>
      </g>
     </g>
     <g id="line2d_52">
      <g>
       <use style="fill:#555555;stroke:#555555;stroke-width:0.6;" x="665.375" xlink:href="#maaa5f57a0d" y="359.403818"/>
      </g>
     </g>
    </g>
    <g id="ytick_15">
     <g id="line2d_53">
      <g>
       <use style="fill:#555555;stroke:#555555;stroke-width:0.6;" x="86.625" xlink:href="#m8872e70046" y="349.011493"/>
      </g>
     </g>
     <g id="line2d_54">
      <g>
       <use style="fill:#555555;stroke:#555555;stroke-width:0.6;" x="665.375" xlink:href="#maaa5f57a0d" y="349.011493"/>
      </g>
     </g>
    </g>
    <g id="ytick_16">
     <g id="line2d_55">
      <g>
       <use style="fill:#555555;stroke:#555555;stroke-width:0.6;" x="86.625" xlink:href="#m8872e70046" y="343.734493"/>
      </g>
     </g>
     <g id="line2d_56">
      <g>
       <use style="fill:#555555;stroke:#555555;stroke-width:0.6;" x="665.375" xlink:href="#maaa5f57a0d" y="343.734493"/>
      </g>
     </g>
    </g>
    <g id="ytick_17">
     <g id="line2d_57">
      <g>
       <use style="fill:#555555;stroke:#555555;stroke-width:0.6;" x="86.625" xlink:href="#m8872e70046" y="339.990402"/>
      </g>
     </g>
     <g id="line2d_58">
      <g>
       <use style="fill:#555555;stroke:#555555;stroke-width:0.6;" x="665.375" xlink:href="#maaa5f57a0d" y="339.990402"/>
      </g>
     </g>
    </g>
    <g id="ytick_18">
     <g id="line2d_59">
      <g>
       <use style="fill:#555555;stroke:#555555;stroke-width:0.6;" x="86.625" xlink:href="#m8872e70046" y="337.086259"/>
      </g>
     </g>
     <g id="line2d_60">
      <g>
       <use style="fill:#555555;stroke:#555555;stroke-width:0.6;" x="665.375" xlink:href="#maaa5f57a0d" y="337.086259"/>
      </g>
     </g>
    </g>
    <g id="ytick_19">
     <g id="line2d_61">
      <g>
       <use style="fill:#555555;stroke:#555555;stroke-width:0.6;" x="86.625" xlink:href="#m8872e70046" y="334.713402"/>
      </g>
     </g>
     <g id="line2d_62">
      <g>
       <use style="fill:#555555;stroke:#555555;stroke-width:0.6;" x="665.375" xlink:href="#maaa5f57a0d" y="334.713402"/>
      </g>
     </g>
    </g>
    <g id="ytick_20">
     <g id="line2d_63">
      <g>
       <use style="fill:#555555;stroke:#555555;stroke-width:0.6;" x="86.625" xlink:href="#m8872e70046" y="332.70718"/>
      </g>
     </g>
     <g id="line2d_64">
      <g>
       <use style="fill:#555555;stroke:#555555;stroke-width:0.6;" x="665.375" xlink:href="#maaa5f57a0d" y="332.70718"/>
      </g>
     </g>
    </g>
    <g id="ytick_21">
     <g id="line2d_65">
      <g>
       <use style="fill:#555555;stroke:#555555;stroke-width:0.6;" x="86.625" xlink:href="#m8872e70046" y="330.969311"/>
      </g>
     </g>
     <g id="line2d_66">
      <g>
       <use style="fill:#555555;stroke:#555555;stroke-width:0.6;" x="665.375" xlink:href="#maaa5f57a0d" y="330.969311"/>
      </g>
     </g>
    </g>
    <g id="ytick_22">
     <g id="line2d_67">
      <g>
       <use style="fill:#555555;stroke:#555555;stroke-width:0.6;" x="86.625" xlink:href="#m8872e70046" y="329.436402"/>
      </g>
     </g>
     <g id="line2d_68">
      <g>
       <use style="fill:#555555;stroke:#555555;stroke-width:0.6;" x="665.375" xlink:href="#maaa5f57a0d" y="329.436402"/>
      </g>
     </g>
    </g>
    <g id="ytick_23">
     <g id="line2d_69">
      <g>
       <use style="fill:#555555;stroke:#555555;stroke-width:0.6;" x="86.625" xlink:href="#m8872e70046" y="319.044077"/>
      </g>
     </g>
     <g id="line2d_70">
      <g>
       <use style="fill:#555555;stroke:#555555;stroke-width:0.6;" x="665.375" xlink:href="#maaa5f57a0d" y="319.044077"/>
      </g>
     </g>
    </g>
    <g id="ytick_24">
     <g id="line2d_71">
      <g>
       <use style="fill:#555555;stroke:#555555;stroke-width:0.6;" x="86.625" xlink:href="#m8872e70046" y="313.767077"/>
      </g>
     </g>
     <g id="line2d_72">
      <g>
       <use style="fill:#555555;stroke:#555555;stroke-width:0.6;" x="665.375" xlink:href="#maaa5f57a0d" y="313.767077"/>
      </g>
     </g>
    </g>
    <g id="ytick_25">
     <g id="line2d_73">
      <g>
       <use style="fill:#555555;stroke:#555555;stroke-width:0.6;" x="86.625" xlink:href="#m8872e70046" y="310.022986"/>
      </g>
     </g>
     <g id="line2d_74">
      <g>
       <use style="fill:#555555;stroke:#555555;stroke-width:0.6;" x="665.375" xlink:href="#maaa5f57a0d" y="310.022986"/>
      </g>
     </g>
    </g>
    <g id="ytick_26">
     <g id="line2d_75">
      <g>
       <use style="fill:#555555;stroke:#555555;stroke-width:0.6;" x="86.625" xlink:href="#m8872e70046" y="307.118843"/>
      </g>
     </g>
     <g id="line2d_76">
      <g>
       <use style="fill:#555555;stroke:#555555;stroke-width:0.6;" x="665.375" xlink:href="#maaa5f57a0d" y="307.118843"/>
      </g>
     </g>
    </g>
    <g id="ytick_27">
     <g id="line2d_77">
      <g>
       <use style="fill:#555555;stroke:#555555;stroke-width:0.6;" x="86.625" xlink:href="#m8872e70046" y="304.745986"/>
      </g>
     </g>
     <g id="line2d_78">
      <g>
       <use style="fill:#555555;stroke:#555555;stroke-width:0.6;" x="665.375" xlink:href="#maaa5f57a0d" y="304.745986"/>
      </g>
     </g>
    </g>
    <g id="ytick_28">
     <g id="line2d_79">
      <g>
       <use style="fill:#555555;stroke:#555555;stroke-width:0.6;" x="86.625" xlink:href="#m8872e70046" y="302.739764"/>
      </g>
     </g>
     <g id="line2d_80">
      <g>
       <use style="fill:#555555;stroke:#555555;stroke-width:0.6;" x="665.375" xlink:href="#maaa5f57a0d" y="302.739764"/>
      </g>
     </g>
    </g>
    <g id="ytick_29">
     <g id="line2d_81">
      <g>
       <use style="fill:#555555;stroke:#555555;stroke-width:0.6;" x="86.625" xlink:href="#m8872e70046" y="301.001895"/>
      </g>
     </g>
     <g id="line2d_82">
      <g>
       <use style="fill:#555555;stroke:#555555;stroke-width:0.6;" x="665.375" xlink:href="#maaa5f57a0d" y="301.001895"/>
      </g>
     </g>
    </g>
    <g id="ytick_30">
     <g id="line2d_83">
      <g>
       <use style="fill:#555555;stroke:#555555;stroke-width:0.6;" x="86.625" xlink:href="#m8872e70046" y="299.468986"/>
      </g>
     </g>
     <g id="line2d_84">
      <g>
       <use style="fill:#555555;stroke:#555555;stroke-width:0.6;" x="665.375" xlink:href="#maaa5f57a0d" y="299.468986"/>
      </g>
     </g>
    </g>
    <g id="ytick_31">
     <g id="line2d_85">
      <g>
       <use style="fill:#555555;stroke:#555555;stroke-width:0.6;" x="86.625" xlink:href="#m8872e70046" y="289.076661"/>
      </g>
     </g>
     <g id="line2d_86">
      <g>
       <use style="fill:#555555;stroke:#555555;stroke-width:0.6;" x="665.375" xlink:href="#maaa5f57a0d" y="289.076661"/>
      </g>
     </g>
    </g>
    <g id="ytick_32">
     <g id="line2d_87">
      <g>
       <use style="fill:#555555;stroke:#555555;stroke-width:0.6;" x="86.625" xlink:href="#m8872e70046" y="283.799661"/>
      </g>
     </g>
     <g id="line2d_88">
      <g>
       <use style="fill:#555555;stroke:#555555;stroke-width:0.6;" x="665.375" xlink:href="#maaa5f57a0d" y="283.799661"/>
      </g>
     </g>
    </g>
    <g id="ytick_33">
     <g id="line2d_89">
      <g>
       <use style="fill:#555555;stroke:#555555;stroke-width:0.6;" x="86.625" xlink:href="#m8872e70046" y="280.05557"/>
      </g>
     </g>
     <g id="line2d_90">
      <g>
       <use style="fill:#555555;stroke:#555555;stroke-width:0.6;" x="665.375" xlink:href="#maaa5f57a0d" y="280.05557"/>
      </g>
     </g>
    </g>
    <g id="ytick_34">
     <g id="line2d_91">
      <g>
       <use style="fill:#555555;stroke:#555555;stroke-width:0.6;" x="86.625" xlink:href="#m8872e70046" y="277.151427"/>
      </g>
     </g>
     <g id="line2d_92">
      <g>
       <use style="fill:#555555;stroke:#555555;stroke-width:0.6;" x="665.375" xlink:href="#maaa5f57a0d" y="277.151427"/>
      </g>
     </g>
    </g>
    <g id="ytick_35">
     <g id="line2d_93">
      <g>
       <use style="fill:#555555;stroke:#555555;stroke-width:0.6;" x="86.625" xlink:href="#m8872e70046" y="274.77857"/>
      </g>
     </g>
     <g id="line2d_94">
      <g>
       <use style="fill:#555555;stroke:#555555;stroke-width:0.6;" x="665.375" xlink:href="#maaa5f57a0d" y="274.77857"/>
      </g>
     </g>
    </g>
    <g id="ytick_36">
     <g id="line2d_95">
      <g>
       <use style="fill:#555555;stroke:#555555;stroke-width:0.6;" x="86.625" xlink:href="#m8872e70046" y="272.772348"/>
      </g>
     </g>
     <g id="line2d_96">
      <g>
       <use style="fill:#555555;stroke:#555555;stroke-width:0.6;" x="665.375" xlink:href="#maaa5f57a0d" y="272.772348"/>
      </g>
     </g>
    </g>
    <g id="ytick_37">
     <g id="line2d_97">
      <g>
       <use style="fill:#555555;stroke:#555555;stroke-width:0.6;" x="86.625" xlink:href="#m8872e70046" y="271.034479"/>
      </g>
     </g>
     <g id="line2d_98">
      <g>
       <use style="fill:#555555;stroke:#555555;stroke-width:0.6;" x="665.375" xlink:href="#maaa5f57a0d" y="271.034479"/>
      </g>
     </g>
    </g>
    <g id="ytick_38">
     <g id="line2d_99">
      <g>
       <use style="fill:#555555;stroke:#555555;stroke-width:0.6;" x="86.625" xlink:href="#m8872e70046" y="269.50157"/>
      </g>
     </g>
     <g id="line2d_100">
      <g>
       <use style="fill:#555555;stroke:#555555;stroke-width:0.6;" x="665.375" xlink:href="#maaa5f57a0d" y="269.50157"/>
      </g>
     </g>
    </g>
    <g id="ytick_39">
     <g id="line2d_101">
      <g>
       <use style="fill:#555555;stroke:#555555;stroke-width:0.6;" x="86.625" xlink:href="#m8872e70046" y="259.109245"/>
      </g>
     </g>
     <g id="line2d_102">
      <g>
       <use style="fill:#555555;stroke:#555555;stroke-width:0.6;" x="665.375" xlink:href="#maaa5f57a0d" y="259.109245"/>
      </g>
     </g>
    </g>
    <g id="ytick_40">
     <g id="line2d_103">
      <g>
       <use style="fill:#555555;stroke:#555555;stroke-width:0.6;" x="86.625" xlink:href="#m8872e70046" y="253.832245"/>
      </g>
     </g>
     <g id="line2d_104">
      <g>
       <use style="fill:#555555;stroke:#555555;stroke-width:0.6;" x="665.375" xlink:href="#maaa5f57a0d" y="253.832245"/>
      </g>
     </g>
    </g>
    <g id="ytick_41">
     <g id="line2d_105">
      <g>
       <use style="fill:#555555;stroke:#555555;stroke-width:0.6;" x="86.625" xlink:href="#m8872e70046" y="250.088154"/>
      </g>
     </g>
     <g id="line2d_106">
      <g>
       <use style="fill:#555555;stroke:#555555;stroke-width:0.6;" x="665.375" xlink:href="#maaa5f57a0d" y="250.088154"/>
      </g>
     </g>
    </g>
    <g id="ytick_42">
     <g id="line2d_107">
      <g>
       <use style="fill:#555555;stroke:#555555;stroke-width:0.6;" x="86.625" xlink:href="#m8872e70046" y="247.184011"/>
      </g>
     </g>
     <g id="line2d_108">
      <g>
       <use style="fill:#555555;stroke:#555555;stroke-width:0.6;" x="665.375" xlink:href="#maaa5f57a0d" y="247.184011"/>
      </g>
     </g>
    </g>
    <g id="ytick_43">
     <g id="line2d_109">
      <g>
       <use style="fill:#555555;stroke:#555555;stroke-width:0.6;" x="86.625" xlink:href="#m8872e70046" y="244.811154"/>
      </g>
     </g>
     <g id="line2d_110">
      <g>
       <use style="fill:#555555;stroke:#555555;stroke-width:0.6;" x="665.375" xlink:href="#maaa5f57a0d" y="244.811154"/>
      </g>
     </g>
    </g>
    <g id="ytick_44">
     <g id="line2d_111">
      <g>
       <use style="fill:#555555;stroke:#555555;stroke-width:0.6;" x="86.625" xlink:href="#m8872e70046" y="242.804932"/>
      </g>
     </g>
     <g id="line2d_112">
      <g>
       <use style="fill:#555555;stroke:#555555;stroke-width:0.6;" x="665.375" xlink:href="#maaa5f57a0d" y="242.804932"/>
      </g>
     </g>
    </g>
    <g id="ytick_45">
     <g id="line2d_113">
      <g>
       <use style="fill:#555555;stroke:#555555;stroke-width:0.6;" x="86.625" xlink:href="#m8872e70046" y="241.067063"/>
      </g>
     </g>
     <g id="line2d_114">
      <g>
       <use style="fill:#555555;stroke:#555555;stroke-width:0.6;" x="665.375" xlink:href="#maaa5f57a0d" y="241.067063"/>
      </g>
     </g>
    </g>
    <g id="ytick_46">
     <g id="line2d_115">
      <g>
       <use style="fill:#555555;stroke:#555555;stroke-width:0.6;" x="86.625" xlink:href="#m8872e70046" y="239.534154"/>
      </g>
     </g>
     <g id="line2d_116">
      <g>
       <use style="fill:#555555;stroke:#555555;stroke-width:0.6;" x="665.375" xlink:href="#maaa5f57a0d" y="239.534154"/>
      </g>
     </g>
    </g>
    <g id="ytick_47">
     <g id="line2d_117">
      <g>
       <use style="fill:#555555;stroke:#555555;stroke-width:0.6;" x="86.625" xlink:href="#m8872e70046" y="229.141829"/>
      </g>
     </g>
     <g id="line2d_118">
      <g>
       <use style="fill:#555555;stroke:#555555;stroke-width:0.6;" x="665.375" xlink:href="#maaa5f57a0d" y="229.141829"/>
      </g>
     </g>
    </g>
    <g id="ytick_48">
     <g id="line2d_119">
      <g>
       <use style="fill:#555555;stroke:#555555;stroke-width:0.6;" x="86.625" xlink:href="#m8872e70046" y="223.864829"/>
      </g>
     </g>
     <g id="line2d_120">
      <g>
       <use style="fill:#555555;stroke:#555555;stroke-width:0.6;" x="665.375" xlink:href="#maaa5f57a0d" y="223.864829"/>
      </g>
     </g>
    </g>
    <g id="text_23">
     <!-- daily new deaths -->
     <defs>
      <path d="M 9.421875 75.984375 
L 18.40625 75.984375 
L 18.40625 0 
L 9.421875 0 
z
" id="DejaVuSans-108"/>
      <path d="M 4.203125 54.6875 
L 13.1875 54.6875 
L 24.421875 12.015625 
L 35.59375 54.6875 
L 46.1875 54.6875 
L 57.421875 12.015625 
L 68.609375 54.6875 
L 77.59375 54.6875 
L 63.28125 0 
L 52.6875 0 
L 40.921875 44.828125 
L 29.109375 0 
L 18.5 0 
z
" id="DejaVuSans-119"/>
     </defs>
     <g style="fill:#555555;" transform="translate(34.242 355.733545)rotate(-90)scale(0.12 -0.12)">
      <use xlink:href="#DejaVuSans-100"/>
      <use x="63.476562" xlink:href="#DejaVuSans-97"/>
      <use x="124.755859" xlink:href="#DejaVuSans-105"/>
      <use x="152.539062" xlink:href="#DejaVuSans-108"/>
      <use x="180.322266" xlink:href="#DejaVuSans-121"/>
      <use x="239.501953" xlink:href="#DejaVuSans-32"/>
      <use x="271.289062" xlink:href="#DejaVuSans-110"/>
      <use x="334.667969" xlink:href="#DejaVuSans-101"/>
      <use x="396.191406" xlink:href="#DejaVuSans-119"/>
      <use x="477.978516" xlink:href="#DejaVuSans-32"/>
      <use x="509.765625" xlink:href="#DejaVuSans-100"/>
      <use x="573.242188" xlink:href="#DejaVuSans-101"/>
      <use x="634.765625" xlink:href="#DejaVuSans-97"/>
      <use x="696.044922" xlink:href="#DejaVuSans-116"/>
      <use x="735.253906" xlink:href="#DejaVuSans-104"/>
      <use x="798.632812" xlink:href="#DejaVuSans-115"/>
     </g>
     <!-- (rolling 7-day mean) -->
     <defs>
      <path d="M 31 75.875 
Q 24.46875 64.65625 21.28125 53.65625 
Q 18.109375 42.671875 18.109375 31.390625 
Q 18.109375 20.125 21.3125 9.0625 
Q 24.515625 -2 31 -13.1875 
L 23.1875 -13.1875 
Q 15.875 -1.703125 12.234375 9.375 
Q 8.59375 20.453125 8.59375 31.390625 
Q 8.59375 42.28125 12.203125 53.3125 
Q 15.828125 64.359375 23.1875 75.875 
z
" id="DejaVuSans-40"/>
      <path d="M 41.109375 46.296875 
Q 39.59375 47.171875 37.8125 47.578125 
Q 36.03125 48 33.890625 48 
Q 26.265625 48 22.1875 43.046875 
Q 18.109375 38.09375 18.109375 28.8125 
L 18.109375 0 
L 9.078125 0 
L 9.078125 54.6875 
L 18.109375 54.6875 
L 18.109375 46.1875 
Q 20.953125 51.171875 25.484375 53.578125 
Q 30.03125 56 36.53125 56 
Q 37.453125 56 38.578125 55.875 
Q 39.703125 55.765625 41.0625 55.515625 
z
" id="DejaVuSans-114"/>
      <path d="M 30.609375 48.390625 
Q 23.390625 48.390625 19.1875 42.75 
Q 14.984375 37.109375 14.984375 27.296875 
Q 14.984375 17.484375 19.15625 11.84375 
Q 23.34375 6.203125 30.609375 6.203125 
Q 37.796875 6.203125 41.984375 11.859375 
Q 46.1875 17.53125 46.1875 27.296875 
Q 46.1875 37.015625 41.984375 42.703125 
Q 37.796875 48.390625 30.609375 48.390625 
z
M 30.609375 56 
Q 42.328125 56 49.015625 48.375 
Q 55.71875 40.765625 55.71875 27.296875 
Q 55.71875 13.875 49.015625 6.21875 
Q 42.328125 -1.421875 30.609375 -1.421875 
Q 18.84375 -1.421875 12.171875 6.21875 
Q 5.515625 13.875 5.515625 27.296875 
Q 5.515625 40.765625 12.171875 48.375 
Q 18.84375 56 30.609375 56 
z
" id="DejaVuSans-111"/>
      <path d="M 45.40625 27.984375 
Q 45.40625 37.75 41.375 43.109375 
Q 37.359375 48.484375 30.078125 48.484375 
Q 22.859375 48.484375 18.828125 43.109375 
Q 14.796875 37.75 14.796875 27.984375 
Q 14.796875 18.265625 18.828125 12.890625 
Q 22.859375 7.515625 30.078125 7.515625 
Q 37.359375 7.515625 41.375 12.890625 
Q 45.40625 18.265625 45.40625 27.984375 
z
M 54.390625 6.78125 
Q 54.390625 -7.171875 48.1875 -13.984375 
Q 42 -20.796875 29.203125 -20.796875 
Q 24.46875 -20.796875 20.265625 -20.09375 
Q 16.0625 -19.390625 12.109375 -17.921875 
L 12.109375 -9.1875 
Q 16.0625 -11.328125 19.921875 -12.34375 
Q 23.78125 -13.375 27.78125 -13.375 
Q 36.625 -13.375 41.015625 -8.765625 
Q 45.40625 -4.15625 45.40625 5.171875 
L 45.40625 9.625 
Q 42.625 4.78125 38.28125 2.390625 
Q 33.9375 0 27.875 0 
Q 17.828125 0 11.671875 7.65625 
Q 5.515625 15.328125 5.515625 27.984375 
Q 5.515625 40.671875 11.671875 48.328125 
Q 17.828125 56 27.875 56 
Q 33.9375 56 38.28125 53.609375 
Q 42.625 51.21875 45.40625 46.390625 
L 45.40625 54.6875 
L 54.390625 54.6875 
z
" id="DejaVuSans-103"/>
      <path d="M 4.890625 31.390625 
L 31.203125 31.390625 
L 31.203125 23.390625 
L 4.890625 23.390625 
z
" id="DejaVuSans-45"/>
      <path d="M 52 44.1875 
Q 55.375 50.25 60.0625 53.125 
Q 64.75 56 71.09375 56 
Q 79.640625 56 84.28125 50.015625 
Q 88.921875 44.046875 88.921875 33.015625 
L 88.921875 0 
L 79.890625 0 
L 79.890625 32.71875 
Q 79.890625 40.578125 77.09375 44.375 
Q 74.3125 48.1875 68.609375 48.1875 
Q 61.625 48.1875 57.5625 43.546875 
Q 53.515625 38.921875 53.515625 30.90625 
L 53.515625 0 
L 44.484375 0 
L 44.484375 32.71875 
Q 44.484375 40.625 41.703125 44.40625 
Q 38.921875 48.1875 33.109375 48.1875 
Q 26.21875 48.1875 22.15625 43.53125 
Q 18.109375 38.875 18.109375 30.90625 
L 18.109375 0 
L 9.078125 0 
L 9.078125 54.6875 
L 18.109375 54.6875 
L 18.109375 46.1875 
Q 21.1875 51.21875 25.484375 53.609375 
Q 29.78125 56 35.6875 56 
Q 41.65625 56 45.828125 52.96875 
Q 50 49.953125 52 44.1875 
z
" id="DejaVuSans-109"/>
      <path d="M 8.015625 75.875 
L 15.828125 75.875 
Q 23.140625 64.359375 26.78125 53.3125 
Q 30.421875 42.28125 30.421875 31.390625 
Q 30.421875 20.453125 26.78125 9.375 
Q 23.140625 -1.703125 15.828125 -13.1875 
L 8.015625 -13.1875 
Q 14.5 -2 17.703125 9.0625 
Q 20.90625 20.125 20.90625 31.390625 
Q 20.90625 42.671875 17.703125 53.65625 
Q 14.5 64.65625 8.015625 75.875 
z
" id="DejaVuSans-41"/>
     </defs>
     <g style="fill:#555555;" transform="translate(47.679375 365.835108)rotate(-90)scale(0.12 -0.12)">
      <use xlink:href="#DejaVuSans-40"/>
      <use x="39.013672" xlink:href="#DejaVuSans-114"/>
      <use x="77.876953" xlink:href="#DejaVuSans-111"/>
      <use x="139.058594" xlink:href="#DejaVuSans-108"/>
      <use x="166.841797" xlink:href="#DejaVuSans-108"/>
      <use x="194.625" xlink:href="#DejaVuSans-105"/>
      <use x="222.408203" xlink:href="#DejaVuSans-110"/>
      <use x="285.787109" xlink:href="#DejaVuSans-103"/>
      <use x="349.263672" xlink:href="#DejaVuSans-32"/>
      <use x="381.050781" xlink:href="#DejaVuSans-55"/>
      <use x="444.673828" xlink:href="#DejaVuSans-45"/>
      <use x="480.757812" xlink:href="#DejaVuSans-100"/>
      <use x="544.234375" xlink:href="#DejaVuSans-97"/>
      <use x="605.513672" xlink:href="#DejaVuSans-121"/>
      <use x="664.693359" xlink:href="#DejaVuSans-32"/>
      <use x="696.480469" xlink:href="#DejaVuSans-109"/>
      <use x="793.892578" xlink:href="#DejaVuSans-101"/>
      <use x="855.416016" xlink:href="#DejaVuSans-97"/>
      <use x="916.695312" xlink:href="#DejaVuSans-110"/>
      <use x="980.074219" xlink:href="#DejaVuSans-41"/>
     </g>
    </g>
   </g>
   <g id="line2d_121">
    <path clip-path="url(#p3553365cf7)" d="M 54.605923 433 
L 54.613016 353.390573 
L 57.280681 344.369481 
L 59.948346 344.369481 
L 62.616012 330.07139 
L 65.283677 326.327299 
L 67.951342 323.423157 
L 70.619008 321.050299 
L 73.286673 321.050299 
L 75.954339 322.182725 
L 78.622004 319.044077 
L 81.289669 322.182725 
L 83.957335 314.402065 
L 86.625 315.773299 
L 89.292665 312.583108 
L 91.960331 313.161634 
L 94.627996 309.566283 
L 97.295661 310.022986 
L 99.963327 307.884634 
L 102.630992 311.497923 
L 105.298658 310.987478 
L 107.966323 311.497923 
L 110.633988 308.698316 
L 113.301654 312.029208 
L 115.969319 310.022986 
L 118.636984 311.497923 
L 121.30465 313.161634 
L 123.972315 310.496299 
L 126.63998 312.029208 
L 129.307646 311.497923 
L 131.975311 310.022986 
L 134.642976 309.125065 
L 137.310642 306.752208 
L 139.978307 306.752208 
L 145.313638 304.745986 
L 147.981303 305.380974 
L 150.648969 303.848065 
L 153.316634 304.745986 
L 155.984299 305.059608 
L 158.651965 303.28212 
L 161.31963 304.745986 
L 163.987295 305.710478 
L 166.654961 306.04854 
L 169.322626 307.118843 
L 174.657957 308.698316 
L 177.325622 310.022986 
L 179.993288 309.125065 
L 182.660953 307.118843 
L 185.328618 307.118843 
L 187.996284 307.496107 
L 190.663949 307.496107 
L 193.331614 308.698316 
L 195.99928 308.698316 
L 198.666945 309.125065 
L 201.334611 311.497923 
L 204.002276 311.497923 
L 206.669941 313.161634 
L 214.672937 315.069631 
L 217.340603 318.146157 
L 220.008268 320.008569 
L 222.675933 322.182725 
L 225.343599 323.423157 
L 228.011264 323.423157 
L 230.678929 324.79439 
L 233.346595 326.327299 
L 236.01426 324.79439 
L 238.681926 324.79439 
L 241.349591 326.327299 
L 244.017256 323.423157 
L 246.684922 326.327299 
L 249.352587 324.79439 
L 252.020252 323.423157 
L 254.687918 324.79439 
L 257.355583 324.79439 
L 260.023248 326.327299 
L 262.690914 330.07139 
L 265.358579 330.07139 
L 268.026245 335.34839 
L 278.696906 335.34839 
L 281.364571 330.07139 
L 284.032237 330.07139 
L 286.699902 328.065168 
L 289.367567 332.444248 
L 292.035233 335.34839 
L 305.37356 335.34839 
L 308.041225 330.07139 
L 310.70889 330.07139 
L 313.376556 332.444248 
L 316.044221 332.444248 
L 318.711886 339.092481 
L 321.379552 335.34839 
L 324.047217 335.34839 
L 326.714882 339.092481 
L 329.382548 335.34839 
L 337.385544 335.34839 
L 340.053209 339.092481 
L 342.720875 344.369481 
L 345.38854 344.369481 
L 348.056205 339.092481 
L 350.723871 339.092481 
L 353.391536 335.34839 
L 364.062198 335.34839 
L 366.729863 339.092481 
L 369.397528 335.34839 
L 372.065194 339.092481 
L 382.735855 339.092481 
L 385.40352 344.369481 
L 398.741847 344.369481 
L 401.409513 353.390573 
L 404.077178 353.390573 
L 404.084271 433 
M 412.073081 433 
L 412.080174 353.390573 
L 414.747839 353.390573 
L 417.415505 344.369481 
L 420.08317 339.092481 
L 422.750835 339.092481 
L 425.418501 332.444248 
L 428.086166 330.07139 
L 430.753832 332.444248 
L 433.421497 330.07139 
L 436.089162 332.444248 
L 438.756828 335.34839 
L 444.092158 335.34839 
L 446.759824 332.444248 
L 449.427489 330.07139 
L 452.095154 330.07139 
L 454.76282 328.065168 
L 457.430485 328.065168 
L 460.09815 326.327299 
L 462.765816 330.07139 
L 465.433481 332.444248 
L 468.101147 335.34839 
L 470.768812 339.092481 
L 473.436477 339.092481 
L 476.104143 335.34839 
L 478.771808 339.092481 
L 489.442469 339.092481 
L 492.110135 344.369481 
L 494.7778 353.390573 
L 497.445466 344.369481 
L 502.780796 344.369481 
L 505.448462 339.092481 
L 508.116127 335.34839 
L 513.451458 335.34839 
L 516.119123 339.092481 
L 518.786788 339.092481 
L 521.454454 344.369481 
L 524.122119 353.390573 
L 524.129212 433 
M 532.118022 433 
L 532.125115 353.390573 
L 534.792781 353.390573 
L 540.128111 335.34839 
L 550.798773 335.34839 
L 553.466438 330.07139 
L 556.134103 330.07139 
L 558.801769 328.065168 
L 561.469434 321.050299 
L 564.1371 319.044077 
L 566.804765 318.146157 
L 569.47243 319.044077 
L 572.140096 319.044077 
L 574.807761 317.306208 
L 577.475426 318.146157 
L 580.143092 321.050299 
L 582.810757 322.182725 
L 585.478422 321.050299 
L 588.146088 316.517198 
L 590.813753 315.773299 
L 593.481419 316.517198 
L 596.149084 315.069631 
L 598.816749 313.161634 
L 601.484415 312.029208 
L 604.15208 310.496299 
L 606.819745 310.987478 
L 609.487411 312.583108 
L 612.155076 310.987478 
L 614.822741 310.496299 
L 617.490407 312.583108 
L 620.158072 311.497923 
L 628.161068 311.497923 
L 628.161068 311.497923 
" style="fill:none;stroke:#e24a33;stroke-linecap:square;stroke-width:4;"/>
   </g>
   <g id="line2d_122">
    <defs>
     <path d="M 0 3 
C 0.795609 3 1.55874 2.683901 2.12132 2.12132 
C 2.683901 1.55874 3 0.795609 3 0 
C 3 -0.795609 2.683901 -1.55874 2.12132 -2.12132 
C 1.55874 -2.683901 0.795609 -3 0 -3 
C -0.795609 -3 -1.55874 -2.683901 -2.12132 -2.12132 
C -2.683901 -1.55874 -3 -0.795609 -3 0 
C -3 0.795609 -2.683901 1.55874 -2.12132 2.12132 
C -1.55874 2.683901 -0.795609 3 0 3 
z
" id="m2675f6ad9d" style="stroke:#e24a33;"/>
    </defs>
    <g clip-path="url(#p3553365cf7)">
     <use style="fill:#e24a33;stroke:#e24a33;" x="628.161068" xlink:href="#m2675f6ad9d" y="311.497923"/>
    </g>
   </g>
   <g id="line2d_123">
    <path clip-path="url(#p3553365cf7)" d="M 67.943448 433 
L 67.951342 344.369481 
L 70.619008 344.369481 
L 73.286673 339.092481 
L 75.954339 339.092481 
L 78.622004 328.065168 
L 81.289669 324.79439 
L 83.957335 322.182725 
L 86.625 318.146157 
L 89.292665 313.161634 
L 91.960331 311.497923 
L 94.627996 305.059608 
L 97.295661 300.103974 
L 99.963327 297.199832 
L 102.630992 295.880761 
L 105.298658 292.697389 
L 107.966323 289.744227 
L 110.633988 285.9513 
L 113.301654 283.017944 
L 115.969319 280.290075 
L 121.30465 274.202739 
L 126.63998 269.75186 
L 129.307646 267.872611 
L 131.975311 265.757479 
L 134.642976 264.390894 
L 137.310642 263.345945 
L 139.978307 262.840947 
L 142.645973 261.500708 
L 145.313638 260.678227 
L 147.981303 258.842409 
L 150.648969 258.211325 
L 153.316634 258.280922 
L 155.984299 260.154075 
L 158.651965 258.760698 
L 161.31963 259.258841 
L 163.987295 260.29587 
L 166.654961 258.607742 
L 169.322626 258.697498 
L 174.657957 256.407465 
L 177.325622 257.667551 
L 179.993288 256.829683 
L 182.660953 256.287167 
L 185.328618 258.430064 
L 187.996284 258.013281 
L 190.663949 259.035087 
L 193.331614 258.94298 
L 195.99928 259.202541 
L 198.666945 260.439228 
L 201.334611 260.265355 
L 204.002276 261.246269 
L 206.669941 262.87815 
L 209.337607 263.804486 
L 214.672937 265.004975 
L 217.340603 265.345732 
L 220.008268 268.526753 
L 222.675933 266.262967 
L 225.343599 266.906817 
L 228.011264 266.822471 
L 236.01426 268.739321 
L 238.681926 267.319471 
L 241.349591 270.443833 
L 244.017256 272.719335 
L 246.684922 275.843562 
L 252.020252 275.643332 
L 254.687918 277.452358 
L 257.355583 277.414359 
L 260.023248 279.916869 
L 262.690914 278.358436 
L 265.358579 277.877839 
L 268.026245 278.196257 
L 270.69391 278.277094 
L 276.029241 279.554066 
L 278.696906 279.870961 
L 281.364571 280.6743 
L 284.032237 280.242835 
L 286.699902 280.577175 
L 292.035233 281.740426 
L 294.702898 285.033897 
L 297.370563 286.247101 
L 300.038229 286.938309 
L 305.37356 288.800721 
L 308.041225 288.619959 
L 310.70889 289.076661 
L 313.376556 286.322114 
L 316.044221 288.178741 
L 321.379552 290.551598 
L 326.714882 291.524101 
L 329.382548 291.980804 
L 332.050213 295.724895 
L 334.717879 293.586543 
L 337.385544 293.071042 
L 340.053209 292.945295 
L 342.720875 293.198016 
L 345.38854 294.261029 
L 348.056205 294.540926 
L 350.723871 294.261029 
L 353.391536 296.85732 
L 356.059201 299.062244 
L 358.726867 296.689387 
L 361.394532 297.551601 
L 364.062198 297.551601 
L 366.729863 296.85732 
L 369.397528 297.027449 
L 372.065194 298.667829 
L 374.732859 298.863543 
L 377.400524 303.848065 
L 380.06819 301.966387 
L 382.735855 301.2364 
L 385.40352 303.562017 
L 388.071186 304.745986 
L 390.738851 302.219107 
L 393.406516 302.219107 
L 396.074182 301.71848 
L 398.741847 302.476832 
L 401.409513 303.008117 
L 404.077178 301.966387 
L 406.744843 303.562017 
L 409.412509 307.496107 
L 412.080174 309.125065 
L 417.415505 313.767077 
L 420.08317 313.767077 
L 422.750835 314.402065 
L 430.753832 312.583108 
L 433.421497 308.285117 
L 436.089162 307.884634 
L 441.424493 308.698316 
L 449.427489 307.496107 
L 452.095154 310.496299 
L 454.76282 309.125065 
L 457.430485 309.125065 
L 460.09815 309.566283 
L 462.765816 308.285117 
L 465.433481 304.140543 
L 468.101147 306.395619 
L 470.768812 303.008117 
L 473.436477 303.28212 
L 478.771808 302.739764 
L 481.439473 303.848065 
L 484.107139 307.496107 
L 486.774804 306.752208 
L 494.7778 307.884634 
L 500.113131 307.884634 
L 502.780796 306.752208 
L 505.448462 303.562017 
L 508.116127 306.752208 
L 510.783792 306.395619 
L 513.451458 305.380974 
L 518.786788 305.380974 
L 521.454454 306.752208 
L 524.122119 310.496299 
L 526.789785 312.029208 
L 529.45745 310.496299 
L 532.125115 311.497923 
L 534.792781 310.496299 
L 537.460446 310.987478 
L 540.128111 306.395619 
L 542.795777 308.285117 
L 545.463442 306.395619 
L 548.131107 309.125065 
L 550.798773 309.125065 
L 553.466438 310.022986 
L 556.134103 309.566283 
L 558.801769 314.402065 
L 561.469434 312.583108 
L 564.1371 313.767077 
L 566.804765 312.583108 
L 572.140096 311.497923 
L 574.807761 308.698316 
L 580.143092 308.698316 
L 582.810757 306.04854 
L 585.478422 306.752208 
L 593.481419 306.752208 
L 593.481419 306.752208 
" style="fill:none;stroke:#348abd;stroke-linecap:square;stroke-opacity:0.4;stroke-width:2;"/>
   </g>
   <g id="line2d_124">
    <defs>
     <path d="M 0 3 
C 0.795609 3 1.55874 2.683901 2.12132 2.12132 
C 2.683901 1.55874 3 0.795609 3 0 
C 3 -0.795609 2.683901 -1.55874 2.12132 -2.12132 
C 1.55874 -2.683901 0.795609 -3 0 -3 
C -0.795609 -3 -1.55874 -2.683901 -2.12132 -2.12132 
C -2.683901 -1.55874 -3 -0.795609 -3 0 
C -3 0.795609 -2.683901 1.55874 -2.12132 2.12132 
C -1.55874 2.683901 -0.795609 3 0 3 
z
" id="m3c2a0b2231" style="stroke:#348abd;stroke-opacity:0.4;"/>
    </defs>
    <g clip-path="url(#p3553365cf7)">
     <use style="fill:#348abd;fill-opacity:0.4;stroke:#348abd;stroke-opacity:0.4;" x="593.481419" xlink:href="#m3c2a0b2231" y="306.752208"/>
    </g>
   </g>
   <g id="line2d_125">
    <path clip-path="url(#p3553365cf7)" d="M -1 352.011008 
L 1.259708 344.369481 
L 17.265701 344.369481 
L 19.933366 353.390573 
L 27.936362 353.390573 
L 27.943455 433 
M 35.931464 433 
L 35.939358 344.369481 
L 38.607024 339.092481 
L 41.274689 339.092481 
L 43.942354 335.34839 
L 51.94535 335.34839 
L 54.613016 339.092481 
L 57.280681 344.369481 
L 59.948346 328.065168 
L 62.616012 330.07139 
L 65.283677 328.065168 
L 67.951342 324.79439 
L 70.619008 323.423157 
L 73.286673 323.423157 
L 75.954339 321.050299 
L 78.622004 322.182725 
L 81.289669 318.146157 
L 83.957335 317.306208 
L 86.625 315.069631 
L 89.292665 312.583108 
L 91.960331 310.496299 
L 94.627996 309.125065 
L 97.295661 310.496299 
L 99.963327 310.987478 
L 102.630992 310.496299 
L 105.298658 311.497923 
L 107.966323 313.767077 
L 110.633988 316.517198 
L 113.301654 320.008569 
L 115.969319 321.050299 
L 118.636984 321.050299 
L 121.30465 323.423157 
L 123.972315 328.065168 
L 126.63998 330.07139 
L 129.307646 332.444248 
L 131.975311 335.34839 
L 134.642976 321.050299 
L 137.310642 320.008569 
L 139.978307 320.008569 
L 142.645973 317.306208 
L 145.313638 317.306208 
L 147.981303 313.161634 
L 150.648969 312.029208 
L 153.316634 315.773299 
L 155.984299 319.044077 
L 158.651965 319.044077 
L 161.31963 321.050299 
L 163.987295 320.008569 
L 166.654961 326.327299 
L 169.322626 330.07139 
L 171.990292 335.34839 
L 174.657957 335.34839 
L 177.325622 339.092481 
L 179.993288 344.369481 
L 182.660953 353.390573 
L 195.99928 353.390573 
L 198.666945 344.369481 
L 206.669941 344.369481 
L 209.337607 339.092481 
L 212.005272 339.092481 
L 214.672937 335.34839 
L 217.340603 339.092481 
L 225.343599 339.092481 
L 228.011264 344.369481 
L 230.678929 344.369481 
L 233.346595 353.390573 
L 236.01426 353.390573 
L 236.021353 433 
M 297.363471 433 
L 297.370563 353.390573 
L 300.038229 344.369481 
L 313.376556 344.369481 
L 316.044221 353.390573 
L 316.051314 433 
M 329.374654 433 
L 329.382548 344.369481 
L 340.053209 344.369481 
L 342.720875 339.092481 
L 345.38854 335.34839 
L 348.056205 344.369481 
L 350.723871 344.369481 
L 353.391536 332.444248 
L 356.059201 328.065168 
L 358.726867 323.423157 
L 361.394532 322.182725 
L 364.062198 319.044077 
L 366.729863 318.146157 
L 369.397528 315.773299 
L 372.065194 316.517198 
L 374.732859 314.402065 
L 377.400524 312.583108 
L 380.06819 310.496299 
L 382.735855 307.884634 
L 385.40352 306.04854 
L 388.071186 305.059608 
L 393.406516 301.001895 
L 396.074182 300.77154 
L 398.741847 301.001895 
L 401.409513 301.71848 
L 404.077178 300.103974 
L 409.412509 297.913144 
L 412.080174 298.863543 
L 414.747839 298.097752 
L 417.415505 296.85732 
L 420.08317 295.268192 
L 422.750835 294.540926 
L 425.418501 293.586543 
L 428.086166 292.820752 
L 430.753832 292.697389 
L 433.421497 292.334165 
L 436.089162 293.32624 
L 438.756828 293.32624 
L 441.424493 292.454117 
L 444.092158 292.575185 
L 446.759824 293.718672 
L 449.427489 293.198016 
L 452.095154 293.852158 
L 454.76282 292.697389 
L 457.430485 292.697389 
L 462.765816 295.268192 
L 465.433481 293.586543 
L 468.101147 292.334165 
L 470.768812 292.097528 
L 473.436477 291.636783 
L 476.104143 292.334165 
L 478.771808 289.549974 
L 481.439473 289.842451 
L 484.107139 291.750449 
L 486.774804 292.697389 
L 489.442469 287.836229 
L 494.7778 288.892052 
L 497.445466 292.215309 
L 500.113131 291.865117 
L 502.780796 291.301623 
L 505.448462 292.215309 
L 508.116127 300.103974 
L 510.783792 301.2364 
L 513.451458 300.77154 
L 516.119123 301.475208 
L 518.786788 303.562017 
L 521.454454 304.439744 
L 524.122119 304.140543 
L 526.789785 305.380974 
L 529.45745 305.059608 
L 532.125115 305.710478 
L 540.128111 305.710478 
L 540.128111 305.710478 
" style="fill:none;stroke:#988ed5;stroke-linecap:square;stroke-opacity:0.4;stroke-width:2;"/>
   </g>
   <g id="line2d_126">
    <defs>
     <path d="M 0 3 
C 0.795609 3 1.55874 2.683901 2.12132 2.12132 
C 2.683901 1.55874 3 0.795609 3 0 
C 3 -0.795609 2.683901 -1.55874 2.12132 -2.12132 
C 1.55874 -2.683901 0.795609 -3 0 -3 
C -0.795609 -3 -1.55874 -2.683901 -2.12132 -2.12132 
C -2.683901 -1.55874 -3 -0.795609 -3 0 
C -3 0.795609 -2.683901 1.55874 -2.12132 2.12132 
C -1.55874 2.683901 -0.795609 3 0 3 
z
" id="me6e5625728" style="stroke:#988ed5;stroke-opacity:0.4;"/>
    </defs>
    <g clip-path="url(#p3553365cf7)">
     <use style="fill:#988ed5;fill-opacity:0.4;stroke:#988ed5;stroke-opacity:0.4;" x="540.128111" xlink:href="#me6e5625728" y="305.710478"/>
    </g>
   </g>
   <g id="line2d_127">
    <path clip-path="url(#p3553365cf7)" d="M 41.267596 433 
L 41.274689 353.390573 
L 43.942354 344.369481 
L 46.61002 339.092481 
L 49.277685 339.092481 
L 51.94535 335.34839 
L 54.613016 332.444248 
L 57.280681 332.444248 
L 59.948346 335.34839 
L 62.616012 339.092481 
L 65.283677 344.369481 
L 67.951342 335.34839 
L 70.619008 335.34839 
L 73.286673 332.444248 
L 75.954339 324.79439 
L 78.622004 322.182725 
L 81.289669 322.182725 
L 83.957335 320.008569 
L 86.625 318.146157 
L 89.292665 312.583108 
L 91.960331 312.583108 
L 94.627996 309.566283 
L 97.295661 305.059608 
L 99.963327 301.2364 
L 102.630992 299.888851 
L 105.298658 297.731117 
L 107.966323 297.027449 
L 110.633988 293.987026 
L 113.301654 291.524101 
L 115.969319 291.412387 
L 118.636984 292.215309 
L 121.30465 290.141653 
L 123.972315 289.263926 
L 126.63998 289.263926 
L 129.307646 289.646738 
L 131.975311 290.345011 
L 134.642976 289.076661 
L 137.310642 288.092264 
L 142.645973 290.242935 
L 145.313638 289.549974 
L 150.648969 289.076661 
L 153.316634 289.076661 
L 155.984299 287.177117 
L 158.651965 286.024623 
L 161.31963 286.172518 
L 163.987295 285.662073 
L 166.654961 284.764153 
L 169.322626 284.565451 
L 171.990292 285.102215 
L 174.657957 287.585134 
L 177.325622 289.076661 
L 179.993288 288.800721 
L 182.660953 289.453925 
L 185.328618 291.082883 
L 187.996284 292.334165 
L 190.663949 292.097528 
L 193.331614 290.551598 
L 195.99928 290.974877 
L 198.666945 290.86776 
L 201.334611 291.865117 
L 204.002276 290.761517 
L 206.669941 290.242935 
L 209.337607 290.242935 
L 212.005272 289.941423 
L 214.672937 290.041153 
L 217.340603 290.551598 
L 220.008268 290.551598 
L 222.675933 292.334165 
L 225.343599 293.32624 
L 228.011264 294.972391 
L 230.678929 297.199832 
L 233.346595 296.689387 
L 236.01426 297.913144 
L 238.681926 297.913144 
L 241.349591 297.027449 
L 244.017256 298.863543 
L 246.684922 298.863543 
L 249.352587 298.285017 
L 252.020252 298.475016 
L 254.687918 298.475016 
L 257.355583 298.667829 
L 260.023248 298.475016 
L 262.690914 295.268192 
L 265.358579 296.523592 
L 268.026245 295.418653 
L 270.69391 294.540926 
L 273.361575 294.400225 
L 278.696906 294.683164 
L 281.364571 294.683164 
L 284.032237 293.718672 
L 286.699902 295.570873 
L 289.367567 295.724895 
L 292.035233 294.826974 
L 294.702898 294.826974 
L 297.370563 294.972391 
L 300.038229 296.359883 
L 302.705894 293.32624 
L 305.37356 291.980804 
L 308.041225 292.334165 
L 310.70889 292.334165 
L 313.376556 293.071042 
L 316.044221 293.071042 
L 318.711886 292.215309 
L 321.379552 293.987026 
L 324.047217 294.123307 
L 326.714882 294.972391 
L 329.382548 296.038517 
L 334.717879 295.119451 
L 337.385544 296.198208 
L 340.053209 296.359883 
L 342.720875 296.689387 
L 345.38854 296.85732 
L 348.056205 296.523592 
L 350.723871 296.85732 
L 353.391536 299.062244 
L 356.059201 299.062244 
L 358.726867 300.322714 
L 361.394532 301.2364 
L 364.062198 301.001895 
L 366.729863 301.475208 
L 369.397528 301.2364 
L 372.065194 300.103974 
L 374.732859 301.966387 
L 377.400524 301.475208 
L 380.06819 302.476832 
L 382.735855 302.476832 
L 385.40352 301.71848 
L 388.071186 302.219107 
L 390.738851 303.008117 
L 393.406516 303.008117 
L 396.074182 303.562017 
L 398.741847 304.439744 
L 401.409513 303.562017 
L 404.077178 303.28212 
L 406.744843 302.739764 
L 409.412509 303.562017 
L 412.080174 301.966387 
L 414.747839 300.545192 
L 417.415505 299.888851 
L 420.08317 300.77154 
L 422.750835 300.103974 
L 425.418501 301.001895 
L 428.086166 301.001895 
L 430.753832 299.677225 
L 433.421497 299.062244 
L 436.089162 297.913144 
L 438.756828 296.523592 
L 441.424493 297.027449 
L 444.092158 296.85732 
L 446.759824 295.880761 
L 449.427489 297.374528 
L 452.095154 298.097752 
L 454.76282 297.913144 
L 457.430485 298.285017 
L 460.09815 298.097752 
L 462.765816 297.027449 
L 465.433481 297.199832 
L 468.101147 295.880761 
L 470.768812 296.198208 
L 473.436477 296.359883 
L 476.104143 296.038517 
L 478.771808 296.689387 
L 481.439473 297.199832 
L 484.107139 296.198208 
L 486.774804 296.198208 
L 489.442469 295.570873 
L 492.110135 296.359883 
L 494.7778 296.198208 
L 497.445466 296.689387 
L 500.113131 296.523592 
L 502.780796 296.198208 
L 505.448462 295.724895 
L 508.116127 296.038517 
L 510.783792 296.038517 
L 513.451458 296.198208 
L 516.119123 295.268192 
L 518.786788 295.570873 
L 521.454454 296.689387 
L 524.122119 298.285017 
L 526.789785 298.667829 
L 529.45745 298.285017 
L 532.125115 298.285017 
L 534.792781 298.475016 
L 540.128111 294.683164 
L 542.795777 294.826974 
L 545.463442 294.261029 
L 548.131107 293.32624 
L 550.798773 293.455741 
L 558.801769 293.455741 
L 558.801769 293.455741 
" style="fill:none;stroke:#777777;stroke-linecap:square;stroke-opacity:0.4;stroke-width:2;"/>
   </g>
   <g id="line2d_128">
    <defs>
     <path d="M 0 3 
C 0.795609 3 1.55874 2.683901 2.12132 2.12132 
C 2.683901 1.55874 3 0.795609 3 0 
C 3 -0.795609 2.683901 -1.55874 2.12132 -2.12132 
C 1.55874 -2.683901 0.795609 -3 0 -3 
C -0.795609 -3 -1.55874 -2.683901 -2.12132 -2.12132 
C -2.683901 -1.55874 -3 -0.795609 -3 0 
C -3 0.795609 -2.683901 1.55874 -2.12132 2.12132 
C -1.55874 2.683901 -0.795609 3 0 3 
z
" id="m87709271aa" style="stroke:#777777;stroke-opacity:0.4;"/>
    </defs>
    <g clip-path="url(#p3553365cf7)">
     <use style="fill:#777777;fill-opacity:0.4;stroke:#777777;stroke-opacity:0.4;" x="558.801769" xlink:href="#m87709271aa" y="293.455741"/>
    </g>
   </g>
   <g id="line2d_129">
    <path clip-path="url(#p3553365cf7)" d="M 49.270592 433 
L 49.277685 353.390573 
L 54.613016 335.34839 
L 57.280681 335.34839 
L 59.948346 332.444248 
L 65.283677 320.008569 
L 70.619008 322.182725 
L 73.286673 321.050299 
L 75.954339 318.146157 
L 78.622004 315.773299 
L 81.289669 315.773299 
L 83.957335 317.306208 
L 86.625 314.402065 
L 89.292665 312.583108 
L 91.960331 312.029208 
L 99.963327 313.767077 
L 102.630992 313.161634 
L 107.966323 313.161634 
L 110.633988 314.402065 
L 115.969319 313.161634 
L 118.636984 311.497923 
L 121.30465 312.029208 
L 123.972315 312.029208 
L 126.63998 310.987478 
L 129.307646 309.566283 
L 131.975311 309.125065 
L 134.642976 309.125065 
L 137.310642 310.496299 
L 139.978307 310.022986 
L 145.313638 310.022986 
L 147.981303 310.496299 
L 153.316634 309.566283 
L 155.984299 308.285117 
L 158.651965 308.285117 
L 161.31963 307.118843 
L 163.987295 307.496107 
L 166.654961 307.118843 
L 169.322626 307.118843 
L 171.990292 307.496107 
L 174.657957 307.496107 
L 177.325622 306.752208 
L 179.993288 307.884634 
L 182.660953 307.884634 
L 185.328618 307.496107 
L 193.331614 307.496107 
L 195.99928 307.884634 
L 198.666945 307.884634 
L 201.334611 307.118843 
L 204.002276 307.496107 
L 206.669941 307.496107 
L 212.005272 306.752208 
L 214.672937 306.752208 
L 220.008268 307.496107 
L 222.675933 307.496107 
L 225.343599 307.118843 
L 228.011264 307.496107 
L 230.678929 307.496107 
L 233.346595 306.752208 
L 236.01426 305.710478 
L 238.681926 305.380974 
L 241.349591 305.380974 
L 244.017256 305.710478 
L 246.684922 305.380974 
L 249.352587 305.710478 
L 252.020252 306.752208 
L 257.355583 306.752208 
L 260.023248 306.04854 
L 265.358579 305.380974 
L 268.026245 306.04854 
L 270.69391 305.710478 
L 273.361575 305.710478 
L 276.029241 306.04854 
L 278.696906 306.752208 
L 281.364571 306.752208 
L 284.032237 307.496107 
L 286.699902 306.395619 
L 292.035233 307.118843 
L 294.702898 306.752208 
L 297.370563 306.04854 
L 300.038229 305.710478 
L 302.705894 305.059608 
L 305.37356 305.380974 
L 310.70889 304.140543 
L 313.376556 303.848065 
L 316.044221 304.140543 
L 318.711886 304.745986 
L 321.379552 305.059608 
L 324.047217 305.059608 
L 326.714882 305.710478 
L 334.717879 306.752208 
L 337.385544 306.395619 
L 342.720875 307.118843 
L 345.38854 307.118843 
L 348.056205 307.884634 
L 350.723871 307.884634 
L 353.391536 307.496107 
L 356.059201 307.884634 
L 358.726867 307.118843 
L 364.062198 307.118843 
L 366.729863 306.752208 
L 372.065194 307.496107 
L 374.732859 307.118843 
L 377.400524 307.884634 
L 382.735855 307.884634 
L 388.071186 309.566283 
L 390.738851 310.496299 
L 393.406516 312.029208 
L 398.741847 314.402065 
L 401.409513 315.773299 
L 406.744843 315.773299 
L 412.080174 314.402065 
L 414.747839 315.773299 
L 417.415505 312.583108 
L 422.750835 311.497923 
L 425.418501 310.496299 
L 430.753832 309.566283 
L 433.421497 307.496107 
L 436.089162 308.285117 
L 438.756828 307.884634 
L 441.424493 307.118843 
L 449.427489 307.118843 
L 452.095154 307.496107 
L 454.76282 307.496107 
L 457.430485 307.118843 
L 460.09815 307.496107 
L 470.768812 307.496107 
L 473.436477 307.118843 
L 481.439473 307.118843 
L 486.774804 306.395619 
L 489.442469 305.710478 
L 492.110135 305.710478 
L 494.7778 305.380974 
L 497.445466 305.380974 
L 500.113131 305.059608 
L 502.780796 305.710478 
L 505.448462 307.118843 
L 508.116127 308.285117 
L 516.119123 308.285117 
L 516.119123 308.285117 
" style="fill:none;stroke:#fbc15e;stroke-linecap:square;stroke-opacity:0.4;stroke-width:2;"/>
   </g>
   <g id="line2d_130">
    <defs>
     <path d="M 0 3 
C 0.795609 3 1.55874 2.683901 2.12132 2.12132 
C 2.683901 1.55874 3 0.795609 3 0 
C 3 -0.795609 2.683901 -1.55874 2.12132 -2.12132 
C 1.55874 -2.683901 0.795609 -3 0 -3 
C -0.795609 -3 -1.55874 -2.683901 -2.12132 -2.12132 
C -2.683901 -1.55874 -3 -0.795609 -3 0 
C -3 0.795609 -2.683901 1.55874 -2.12132 2.12132 
C -1.55874 2.683901 -0.795609 3 0 3 
z
" id="m590c844c49" style="stroke:#fbc15e;stroke-opacity:0.4;"/>
    </defs>
    <g clip-path="url(#p3553365cf7)">
     <use style="fill:#fbc15e;fill-opacity:0.4;stroke:#fbc15e;stroke-opacity:0.4;" x="516.119123" xlink:href="#m590c844c49" y="308.285117"/>
    </g>
   </g>
   <g id="line2d_131">
    <path clip-path="url(#p3553365cf7)" d="M 57.273588 433 
L 57.280681 353.390573 
L 62.616012 353.390573 
L 65.283677 344.369481 
L 67.951342 344.369481 
L 70.619008 339.092481 
L 73.286673 335.34839 
L 75.954339 339.092481 
L 78.622004 323.423157 
L 81.289669 321.050299 
L 86.625 321.050299 
L 89.292665 312.029208 
L 91.960331 312.029208 
L 94.627996 306.395619 
L 97.295661 304.439744 
L 99.963327 299.677225 
L 102.630992 295.724895 
L 105.298658 292.697389 
L 107.966323 294.123307 
L 110.633988 290.551598 
L 113.301654 288.178741 
L 115.969319 286.024623 
L 121.30465 284.305149 
L 123.972315 282.116133 
L 126.63998 278.688985 
L 129.307646 277.721504 
L 131.975311 277.338692 
L 134.642976 276.784792 
L 137.310642 275.348647 
L 139.978307 274.934436 
L 142.645973 275.219788 
L 145.313638 275.809975 
L 147.981303 275.187771 
L 150.648969 275.02886 
L 153.316634 275.060487 
L 155.984299 276.428203 
L 158.651965 275.709733 
L 163.987295 277.040348 
L 171.990292 278.115919 
L 174.657957 277.838579 
L 177.325622 279.734203 
L 179.993288 279.554066 
L 182.660953 278.985267 
L 185.328618 280.528883 
L 187.996284 280.625647 
L 190.663949 280.920332 
L 193.331614 282.559229 
L 195.99928 283.372912 
L 198.666945 282.280531 
L 204.002276 283.986926 
L 206.669941 285.239938 
L 209.337607 286.938309 
L 212.005272 287.097026 
L 214.672937 288.006358 
L 217.340603 291.191793 
L 220.008268 293.987026 
L 222.675933 294.972391 
L 225.343599 297.551601 
L 228.011264 298.285017 
L 230.678929 298.475016 
L 233.346595 297.913144 
L 236.01426 299.888851 
L 238.681926 297.731117 
L 241.349591 299.062244 
L 244.017256 299.677225 
L 249.352587 302.739764 
L 252.020252 303.008117 
L 254.687918 305.059608 
L 257.355583 312.029208 
L 260.023248 313.161634 
L 262.690914 310.987478 
L 265.358579 311.497923 
L 268.026245 310.987478 
L 270.69391 311.497923 
L 273.361575 310.496299 
L 276.029241 312.029208 
L 278.696906 311.497923 
L 281.364571 313.767077 
L 284.032237 317.306208 
L 286.699902 319.044077 
L 289.367567 319.044077 
L 292.035233 328.065168 
L 294.702898 332.444248 
L 297.370563 335.34839 
L 300.038229 344.369481 
L 305.37356 344.369481 
L 308.041225 353.390573 
L 310.70889 339.092481 
L 313.376556 319.044077 
L 318.711886 317.306208 
L 321.379552 316.517198 
L 326.714882 316.517198 
L 329.382548 317.306208 
L 332.050213 314.402065 
L 334.717879 314.402065 
L 340.053209 315.773299 
L 345.38854 315.773299 
L 348.056205 316.517198 
L 350.723871 344.369481 
L 356.059201 344.369481 
L 358.726867 330.07139 
L 366.729863 330.07139 
L 369.397528 328.065168 
L 374.732859 328.065168 
L 377.400524 339.092481 
L 388.071186 339.092481 
L 390.738851 353.390573 
L 396.074182 353.390573 
L 398.741847 339.092481 
L 404.077178 339.092481 
L 406.744843 344.369481 
L 409.412509 344.369481 
L 412.080174 339.092481 
L 414.747839 339.092481 
L 417.415505 353.390573 
L 420.08317 353.390573 
L 422.750835 339.092481 
L 425.418501 335.34839 
L 428.086166 335.34839 
L 430.753832 330.07139 
L 433.421497 326.327299 
L 438.756828 326.327299 
L 441.424493 328.065168 
L 444.092158 330.07139 
L 446.759824 328.065168 
L 449.427489 332.444248 
L 452.095154 335.34839 
L 457.430485 335.34839 
L 460.09815 339.092481 
L 462.765816 339.092481 
L 465.433481 332.444248 
L 476.104143 332.444248 
L 478.771808 330.07139 
L 481.439473 324.79439 
L 484.107139 328.065168 
L 486.774804 330.07139 
L 489.442469 332.444248 
L 494.7778 332.444248 
L 497.445466 335.34839 
L 500.113131 344.369481 
L 502.780796 332.444248 
L 505.448462 328.065168 
L 508.116127 324.79439 
L 510.783792 324.79439 
L 513.451458 323.423157 
L 518.786788 323.423157 
L 521.454454 328.065168 
L 524.122119 332.444248 
L 526.789785 335.34839 
L 529.45745 332.444248 
L 532.125115 335.34839 
L 534.792781 332.444248 
L 537.460446 324.79439 
L 540.128111 326.327299 
L 542.795777 323.423157 
L 545.463442 324.79439 
L 548.131107 326.327299 
L 553.466438 326.327299 
L 556.134103 328.065168 
L 558.801769 326.327299 
L 561.469434 328.065168 
L 566.804765 328.065168 
L 569.47243 326.327299 
L 572.140096 322.182725 
L 574.807761 323.423157 
L 577.475426 314.402065 
L 580.143092 313.161634 
L 582.810757 311.497923 
L 593.481419 311.497923 
L 593.481419 311.497923 
" style="fill:none;stroke:#8eba42;stroke-linecap:square;stroke-opacity:0.4;stroke-width:2;"/>
   </g>
   <g id="line2d_132">
    <defs>
     <path d="M 0 3 
C 0.795609 3 1.55874 2.683901 2.12132 2.12132 
C 2.683901 1.55874 3 0.795609 3 0 
C 3 -0.795609 2.683901 -1.55874 2.12132 -2.12132 
C 1.55874 -2.683901 0.795609 -3 0 -3 
C -0.795609 -3 -1.55874 -2.683901 -2.12132 -2.12132 
C -2.683901 -1.55874 -3 -0.795609 -3 0 
C -3 0.795609 -2.683901 1.55874 -2.12132 2.12132 
C -1.55874 2.683901 -0.795609 3 0 3 
z
" id="md9e036b628" style="stroke:#8eba42;stroke-opacity:0.4;"/>
    </defs>
    <g clip-path="url(#p3553365cf7)">
     <use style="fill:#8eba42;fill-opacity:0.4;stroke:#8eba42;stroke-opacity:0.4;" x="593.481419" xlink:href="#md9e036b628" y="311.497923"/>
    </g>
   </g>
   <g id="line2d_133">
    <path clip-path="url(#p3553365cf7)" d="M 59.941254 433 
L 59.948346 353.390573 
L 62.616012 353.390573 
L 65.283677 330.07139 
L 67.951342 328.065168 
L 70.619008 322.182725 
L 73.286673 321.050299 
L 75.954339 319.044077 
L 78.622004 317.306208 
L 81.289669 314.402065 
L 83.957335 317.306208 
L 86.625 313.767077 
L 89.292665 313.161634 
L 91.960331 308.698316 
L 94.627996 306.395619 
L 97.295661 305.059608 
L 99.963327 302.739764 
L 102.630992 297.199832 
L 105.298658 292.945295 
L 107.966323 287.502501 
L 113.301654 278.605557 
L 115.969319 275.251883 
L 118.636984 272.431561 
L 123.972315 265.315744 
L 129.307646 258.491976 
L 134.642976 251.970246 
L 137.310642 249.63594 
L 139.978307 247.553621 
L 142.645973 244.663258 
L 145.313638 242.294486 
L 147.981303 239.761299 
L 150.648969 238.046312 
L 158.651965 233.475437 
L 161.31963 231.678207 
L 163.987295 230.621973 
L 169.322626 229.099137 
L 171.990292 228.558292 
L 177.325622 228.208384 
L 179.993288 228.309145 
L 182.660953 227.911542 
L 187.996284 228.062111 
L 190.663949 228.198869 
L 198.666945 227.814641 
L 201.334611 227.962388 
L 204.002276 227.715955 
L 206.669941 227.665232 
L 209.337607 227.884506 
L 212.005272 228.402786 
L 214.672937 229.051044 
L 217.340603 229.337584 
L 220.008268 229.25574 
L 222.675933 229.394331 
L 225.343599 229.646029 
L 228.011264 229.651828 
L 233.346595 229.986736 
L 236.01426 229.910578 
L 238.681926 230.066337 
L 241.349591 230.459462 
L 246.684922 230.822453 
L 252.020252 231.413197 
L 257.355583 232.926888 
L 268.026245 233.72686 
L 270.69391 233.519607 
L 273.361575 233.617575 
L 276.029241 233.933436 
L 278.696906 234.716906 
L 281.364571 235.355819 
L 286.699902 235.725151 
L 289.367567 236.724555 
L 292.035233 238.297479 
L 297.370563 238.386072 
L 300.038229 238.545927 
L 302.705894 238.828529 
L 305.37356 238.909006 
L 308.041225 238.467657 
L 310.70889 237.716993 
L 313.376556 238.669053 
L 316.044221 238.972165 
L 318.711886 239.468215 
L 321.379552 240.108548 
L 324.047217 240.421012 
L 326.714882 241.002152 
L 337.385544 242.11693 
L 340.053209 241.867408 
L 350.723871 243.231504 
L 358.726867 244.577755 
L 364.062198 244.663258 
L 369.397528 244.589936 
L 372.065194 245.108914 
L 374.732859 245.278042 
L 377.400524 245.603263 
L 382.735855 245.682541 
L 385.40352 246.439699 
L 388.071186 246.669991 
L 390.738851 246.055615 
L 393.406516 245.909819 
L 396.074182 246.741678 
L 398.741847 246.687876 
L 401.409513 246.766862 
L 404.077178 244.777112 
L 406.744843 244.265003 
L 409.412509 243.469702 
L 412.080174 243.01917 
L 414.747839 241.919412 
L 417.415505 241.501871 
L 420.08317 241.473067 
L 422.750835 242.202869 
L 425.418501 241.939278 
L 428.086166 242.089247 
L 430.753832 241.825461 
L 433.421497 241.394183 
L 436.089162 241.422813 
L 441.424493 240.662073 
L 444.092158 240.115027 
L 449.427489 239.374009 
L 454.76282 239.260236 
L 457.430485 238.088762 
L 462.765816 237.225149 
L 468.101147 236.83993 
L 470.768812 236.482115 
L 473.436477 236.595352 
L 476.104143 237.606077 
L 486.774804 237.622119 
L 489.442469 237.690072 
L 492.110135 237.497864 
L 494.7778 237.503165 
L 497.445466 238.070289 
L 500.113131 237.8343 
L 502.780796 238.170359 
L 505.448462 237.992984 
L 508.116127 238.072135 
L 510.783792 237.961825 
L 513.451458 238.110965 
L 516.119123 237.636395 
L 518.786788 237.910665 
L 521.454454 237.894263 
L 524.122119 238.325688 
L 526.789785 238.423955 
L 529.45745 238.655529 
L 532.125115 238.663255 
L 537.460446 239.083437 
L 540.128111 239.019737 
L 542.795777 239.288587 
L 545.463442 239.337331 
L 548.131107 239.625369 
L 550.798773 239.355657 
L 556.134103 240.069744 
L 561.469434 240.171312 
L 564.1371 240.556618 
L 566.804765 240.350436 
L 569.47243 241.041523 
L 572.140096 242.570664 
L 574.807761 242.185129 
L 577.475426 242.604621 
L 580.143092 241.971625 
L 585.478422 242.207942 
L 588.146088 241.820535 
L 590.813753 239.894416 
L 593.481419 240.379061 
L 596.149084 240.46088 
L 598.816749 241.087996 
L 604.15208 241.146321 
L 609.487411 241.146321 
L 609.487411 241.146321 
" style="fill:none;stroke:#ffb5b8;stroke-linecap:square;stroke-opacity:0.4;stroke-width:2;"/>
   </g>
   <g id="line2d_134">
    <defs>
     <path d="M 0 3 
C 0.795609 3 1.55874 2.683901 2.12132 2.12132 
C 2.683901 1.55874 3 0.795609 3 0 
C 3 -0.795609 2.683901 -1.55874 2.12132 -2.12132 
C 1.55874 -2.683901 0.795609 -3 0 -3 
C -0.795609 -3 -1.55874 -2.683901 -2.12132 -2.12132 
C -2.683901 -1.55874 -3 -0.795609 -3 0 
C -3 0.795609 -2.683901 1.55874 -2.12132 2.12132 
C -1.55874 2.683901 -0.795609 3 0 3 
z
" id="md63375e081" style="stroke:#ffb5b8;stroke-opacity:0.4;"/>
    </defs>
    <g clip-path="url(#p3553365cf7)">
     <use style="fill:#ffb5b8;fill-opacity:0.4;stroke:#ffb5b8;stroke-opacity:0.4;" x="609.487411" xlink:href="#md63375e081" y="241.146321"/>
    </g>
   </g>
   <g id="patch_3">
    <path d="M 86.625 388 
L 86.625 221.378965 
" style="fill:none;stroke:#ffffff;stroke-linecap:square;stroke-linejoin:miter;"/>
   </g>
   <g id="patch_4">
    <path d="M 665.375 388 
L 665.375 221.378965 
" style="fill:none;stroke:#ffffff;stroke-linecap:square;stroke-linejoin:miter;"/>
   </g>
   <g id="patch_5">
    <path d="M 86.625 388 
L 665.375 388 
" style="fill:none;stroke:#ffffff;stroke-linecap:square;stroke-linejoin:miter;"/>
   </g>
   <g id="patch_6">
    <path d="M 86.625 221.378965 
L 665.375 221.378965 
" style="fill:none;stroke:#ffffff;stroke-linecap:square;stroke-linejoin:miter;"/>
   </g>
   <g id="text_24">
    <!-- Korea, South -->
    <defs>
     <path d="M 9.8125 72.90625 
L 19.671875 72.90625 
L 19.671875 42.09375 
L 52.390625 72.90625 
L 65.09375 72.90625 
L 28.90625 38.921875 
L 67.671875 0 
L 54.6875 0 
L 19.671875 35.109375 
L 19.671875 0 
L 9.8125 0 
z
" id="DejaVuSans-75"/>
     <path d="M 11.71875 12.40625 
L 22.015625 12.40625 
L 22.015625 4 
L 14.015625 -11.625 
L 7.71875 -11.625 
L 11.71875 4 
z
" id="DejaVuSans-44"/>
     <path d="M 53.515625 70.515625 
L 53.515625 60.890625 
Q 47.90625 63.578125 42.921875 64.890625 
Q 37.9375 66.21875 33.296875 66.21875 
Q 25.25 66.21875 20.875 63.09375 
Q 16.5 59.96875 16.5 54.203125 
Q 16.5 49.359375 19.40625 46.890625 
Q 22.3125 44.4375 30.421875 42.921875 
L 36.375 41.703125 
Q 47.40625 39.59375 52.65625 34.296875 
Q 57.90625 29 57.90625 20.125 
Q 57.90625 9.515625 50.796875 4.046875 
Q 43.703125 -1.421875 29.984375 -1.421875 
Q 24.8125 -1.421875 18.96875 -0.25 
Q 13.140625 0.921875 6.890625 3.21875 
L 6.890625 13.375 
Q 12.890625 10.015625 18.65625 8.296875 
Q 24.421875 6.59375 29.984375 6.59375 
Q 38.421875 6.59375 43.015625 9.90625 
Q 47.609375 13.234375 47.609375 19.390625 
Q 47.609375 24.75 44.3125 27.78125 
Q 41.015625 30.8125 33.5 32.328125 
L 27.484375 33.5 
Q 16.453125 35.6875 11.515625 40.375 
Q 6.59375 45.0625 6.59375 53.421875 
Q 6.59375 63.09375 13.40625 68.65625 
Q 20.21875 74.21875 32.171875 74.21875 
Q 37.3125 74.21875 42.625 73.28125 
Q 47.953125 72.359375 53.515625 70.515625 
z
" id="DejaVuSans-83"/>
     <path d="M 8.5 21.578125 
L 8.5 54.6875 
L 17.484375 54.6875 
L 17.484375 21.921875 
Q 17.484375 14.15625 20.5 10.265625 
Q 23.53125 6.390625 29.59375 6.390625 
Q 36.859375 6.390625 41.078125 11.03125 
Q 45.3125 15.671875 45.3125 23.6875 
L 45.3125 54.6875 
L 54.296875 54.6875 
L 54.296875 0 
L 45.3125 0 
L 45.3125 8.40625 
Q 42.046875 3.421875 37.71875 1 
Q 33.40625 -1.421875 27.6875 -1.421875 
Q 18.265625 -1.421875 13.375 4.4375 
Q 8.5 10.296875 8.5 21.578125 
z
M 31.109375 56 
z
" id="DejaVuSans-117"/>
    </defs>
    <g transform="translate(633.496399 311.497923)scale(0.1 -0.1)">
     <use xlink:href="#DejaVuSans-75"/>
     <use x="60.576172" xlink:href="#DejaVuSans-111"/>
     <use x="121.757812" xlink:href="#DejaVuSans-114"/>
     <use x="160.621094" xlink:href="#DejaVuSans-101"/>
     <use x="222.144531" xlink:href="#DejaVuSans-97"/>
     <use x="283.423828" xlink:href="#DejaVuSans-44"/>
     <use x="315.210938" xlink:href="#DejaVuSans-32"/>
     <use x="346.998047" xlink:href="#DejaVuSans-83"/>
     <use x="410.474609" xlink:href="#DejaVuSans-111"/>
     <use x="471.65625" xlink:href="#DejaVuSans-117"/>
     <use x="535.035156" xlink:href="#DejaVuSans-116"/>
     <use x="574.244141" xlink:href="#DejaVuSans-104"/>
    </g>
   </g>
   <g id="text_25">
    <!-- Germany -->
    <defs>
     <path d="M 59.515625 10.40625 
L 59.515625 29.984375 
L 43.40625 29.984375 
L 43.40625 38.09375 
L 69.28125 38.09375 
L 69.28125 6.78125 
Q 63.578125 2.734375 56.6875 0.65625 
Q 49.8125 -1.421875 42 -1.421875 
Q 24.90625 -1.421875 15.25 8.5625 
Q 5.609375 18.5625 5.609375 36.375 
Q 5.609375 54.25 15.25 64.234375 
Q 24.90625 74.21875 42 74.21875 
Q 49.125 74.21875 55.546875 72.453125 
Q 61.96875 70.703125 67.390625 67.28125 
L 67.390625 56.78125 
Q 61.921875 61.421875 55.765625 63.765625 
Q 49.609375 66.109375 42.828125 66.109375 
Q 29.4375 66.109375 22.71875 58.640625 
Q 16.015625 51.171875 16.015625 36.375 
Q 16.015625 21.625 22.71875 14.15625 
Q 29.4375 6.6875 42.828125 6.6875 
Q 48.046875 6.6875 52.140625 7.59375 
Q 56.25 8.5 59.515625 10.40625 
z
" id="DejaVuSans-71"/>
    </defs>
    <g transform="translate(598.816749 306.752208)scale(0.1 -0.1)">
     <use xlink:href="#DejaVuSans-71"/>
     <use x="77.490234" xlink:href="#DejaVuSans-101"/>
     <use x="139.013672" xlink:href="#DejaVuSans-114"/>
     <use x="178.376953" xlink:href="#DejaVuSans-109"/>
     <use x="275.789062" xlink:href="#DejaVuSans-97"/>
     <use x="337.068359" xlink:href="#DejaVuSans-110"/>
     <use x="400.447266" xlink:href="#DejaVuSans-121"/>
    </g>
   </g>
   <g id="text_26">
    <!-- Australia -->
    <defs>
     <path d="M 34.1875 63.1875 
L 20.796875 26.90625 
L 47.609375 26.90625 
z
M 28.609375 72.90625 
L 39.796875 72.90625 
L 67.578125 0 
L 57.328125 0 
L 50.6875 18.703125 
L 17.828125 18.703125 
L 11.1875 0 
L 0.78125 0 
z
" id="DejaVuSans-65"/>
    </defs>
    <g transform="translate(545.463442 305.710478)scale(0.1 -0.1)">
     <use xlink:href="#DejaVuSans-65"/>
     <use x="68.408203" xlink:href="#DejaVuSans-117"/>
     <use x="131.787109" xlink:href="#DejaVuSans-115"/>
     <use x="183.886719" xlink:href="#DejaVuSans-116"/>
     <use x="223.095703" xlink:href="#DejaVuSans-114"/>
     <use x="264.208984" xlink:href="#DejaVuSans-97"/>
     <use x="325.488281" xlink:href="#DejaVuSans-108"/>
     <use x="353.271484" xlink:href="#DejaVuSans-105"/>
     <use x="381.054688" xlink:href="#DejaVuSans-97"/>
    </g>
   </g>
   <g id="text_27">
    <!-- Poland -->
    <defs>
     <path d="M 19.671875 64.796875 
L 19.671875 37.40625 
L 32.078125 37.40625 
Q 38.96875 37.40625 42.71875 40.96875 
Q 46.484375 44.53125 46.484375 51.125 
Q 46.484375 57.671875 42.71875 61.234375 
Q 38.96875 64.796875 32.078125 64.796875 
z
M 9.8125 72.90625 
L 32.078125 72.90625 
Q 44.34375 72.90625 50.609375 67.359375 
Q 56.890625 61.8125 56.890625 51.125 
Q 56.890625 40.328125 50.609375 34.8125 
Q 44.34375 29.296875 32.078125 29.296875 
L 19.671875 29.296875 
L 19.671875 0 
L 9.8125 0 
z
" id="DejaVuSans-80"/>
    </defs>
    <g transform="translate(564.1371 293.455741)scale(0.1 -0.1)">
     <use xlink:href="#DejaVuSans-80"/>
     <use x="56.677734" xlink:href="#DejaVuSans-111"/>
     <use x="117.859375" xlink:href="#DejaVuSans-108"/>
     <use x="145.642578" xlink:href="#DejaVuSans-97"/>
     <use x="206.921875" xlink:href="#DejaVuSans-110"/>
     <use x="270.300781" xlink:href="#DejaVuSans-100"/>
    </g>
   </g>
   <g id="text_28">
    <!-- Belarus -->
    <defs>
     <path d="M 19.671875 34.8125 
L 19.671875 8.109375 
L 35.5 8.109375 
Q 43.453125 8.109375 47.28125 11.40625 
Q 51.125 14.703125 51.125 21.484375 
Q 51.125 28.328125 47.28125 31.5625 
Q 43.453125 34.8125 35.5 34.8125 
z
M 19.671875 64.796875 
L 19.671875 42.828125 
L 34.28125 42.828125 
Q 41.5 42.828125 45.03125 45.53125 
Q 48.578125 48.25 48.578125 53.8125 
Q 48.578125 59.328125 45.03125 62.0625 
Q 41.5 64.796875 34.28125 64.796875 
z
M 9.8125 72.90625 
L 35.015625 72.90625 
Q 46.296875 72.90625 52.390625 68.21875 
Q 58.5 63.53125 58.5 54.890625 
Q 58.5 48.1875 55.375 44.234375 
Q 52.25 40.28125 46.1875 39.3125 
Q 53.46875 37.75 57.5 32.78125 
Q 61.53125 27.828125 61.53125 20.40625 
Q 61.53125 10.640625 54.890625 5.3125 
Q 48.25 0 35.984375 0 
L 9.8125 0 
z
" id="DejaVuSans-66"/>
    </defs>
    <g transform="translate(521.454454 308.285117)scale(0.1 -0.1)">
     <use xlink:href="#DejaVuSans-66"/>
     <use x="68.603516" xlink:href="#DejaVuSans-101"/>
     <use x="130.126953" xlink:href="#DejaVuSans-108"/>
     <use x="157.910156" xlink:href="#DejaVuSans-97"/>
     <use x="219.189453" xlink:href="#DejaVuSans-114"/>
     <use x="260.302734" xlink:href="#DejaVuSans-117"/>
     <use x="323.681641" xlink:href="#DejaVuSans-115"/>
    </g>
   </g>
   <g id="text_29">
    <!-- Switzerland -->
    <defs>
     <path d="M 5.515625 54.6875 
L 48.1875 54.6875 
L 48.1875 46.484375 
L 14.40625 7.171875 
L 48.1875 7.171875 
L 48.1875 0 
L 4.296875 0 
L 4.296875 8.203125 
L 38.09375 47.515625 
L 5.515625 47.515625 
z
" id="DejaVuSans-122"/>
    </defs>
    <g transform="translate(598.816749 311.497923)scale(0.1 -0.1)">
     <use xlink:href="#DejaVuSans-83"/>
     <use x="63.476562" xlink:href="#DejaVuSans-119"/>
     <use x="145.263672" xlink:href="#DejaVuSans-105"/>
     <use x="173.046875" xlink:href="#DejaVuSans-116"/>
     <use x="212.255859" xlink:href="#DejaVuSans-122"/>
     <use x="264.746094" xlink:href="#DejaVuSans-101"/>
     <use x="326.269531" xlink:href="#DejaVuSans-114"/>
     <use x="367.382812" xlink:href="#DejaVuSans-108"/>
     <use x="395.166016" xlink:href="#DejaVuSans-97"/>
     <use x="456.445312" xlink:href="#DejaVuSans-110"/>
     <use x="519.824219" xlink:href="#DejaVuSans-100"/>
    </g>
   </g>
   <g id="text_30">
    <!-- US -->
    <defs>
     <path d="M 8.6875 72.90625 
L 18.609375 72.90625 
L 18.609375 28.609375 
Q 18.609375 16.890625 22.84375 11.734375 
Q 27.09375 6.59375 36.625 6.59375 
Q 46.09375 6.59375 50.34375 11.734375 
Q 54.59375 16.890625 54.59375 28.609375 
L 54.59375 72.90625 
L 64.5 72.90625 
L 64.5 27.390625 
Q 64.5 13.140625 57.4375 5.859375 
Q 50.390625 -1.421875 36.625 -1.421875 
Q 22.796875 -1.421875 15.734375 5.859375 
Q 8.6875 13.140625 8.6875 27.390625 
z
" id="DejaVuSans-85"/>
    </defs>
    <g transform="translate(614.822741 241.146321)scale(0.1 -0.1)">
     <use xlink:href="#DejaVuSans-85"/>
     <use x="73.193359" xlink:href="#DejaVuSans-83"/>
    </g>
   </g>
  </g>
 </g>
 <defs>
  <clipPath id="p3553365cf7">
   <rect height="166.621035" width="578.75" x="86.625" y="221.378965"/>
  </clipPath>
 </defs>
</svg>
