<?xml version="1.0" encoding="utf-8" standalone="no"?>
<!DOCTYPE svg PUBLIC "-//W3C//DTD SVG 1.1//EN"
  "http://www.w3.org/Graphics/SVG/1.1/DTD/svg11.dtd">
<!-- Created with matplotlib (https://matplotlib.org/) -->
<svg height="180pt" version="1.1" viewBox="0 0 720 180" width="720pt" xmlns="http://www.w3.org/2000/svg" xmlns:xlink="http://www.w3.org/1999/xlink">
 <defs>
  <style type="text/css">
*{stroke-linecap:butt;stroke-linejoin:round;}
  </style>
 </defs>
 <g id="figure_1">
  <g id="patch_1">
   <path d="M 0 180 
L 720 180 
L 720 0 
L 0 0 
z
" style="fill:#ffffff;"/>
  </g>
  <g id="axes_1">
   <g id="patch_2">
    <path d="M 90 157.5 
L 648 157.5 
L 648 21.6 
L 90 21.6 
z
" style="fill:#e5e5e5;"/>
   </g>
   <g id="matplotlib.axis_1">
    <g id="xtick_1">
     <g id="line2d_1">
      <path clip-path="url(#p72ff95d52c)" d="M 137.041958 157.5 
L 137.041958 21.6 
" style="fill:none;stroke:#ffffff;stroke-linecap:square;stroke-width:0.8;"/>
     </g>
     <g id="line2d_2">
      <defs>
       <path d="M 0 0 
L 0 3.5 
" id="m990d94721f" style="stroke:#555555;stroke-width:0.8;"/>
      </defs>
      <g>
       <use style="fill:#555555;stroke:#555555;stroke-width:0.8;" x="137.041958" xlink:href="#m990d94721f" y="157.5"/>
      </g>
     </g>
     <g id="text_1">
      <!-- 2020-02 -->
      <defs>
       <path d="M 19.1875 8.296875 
L 53.609375 8.296875 
L 53.609375 0 
L 7.328125 0 
L 7.328125 8.296875 
Q 12.9375 14.109375 22.625 23.890625 
Q 32.328125 33.6875 34.8125 36.53125 
Q 39.546875 41.84375 41.421875 45.53125 
Q 43.3125 49.21875 43.3125 52.78125 
Q 43.3125 58.59375 39.234375 62.25 
Q 35.15625 65.921875 28.609375 65.921875 
Q 23.96875 65.921875 18.8125 64.3125 
Q 13.671875 62.703125 7.8125 59.421875 
L 7.8125 69.390625 
Q 13.765625 71.78125 18.9375 73 
Q 24.125 74.21875 28.421875 74.21875 
Q 39.75 74.21875 46.484375 68.546875 
Q 53.21875 62.890625 53.21875 53.421875 
Q 53.21875 48.921875 51.53125 44.890625 
Q 49.859375 40.875 45.40625 35.40625 
Q 44.1875 33.984375 37.640625 27.21875 
Q 31.109375 20.453125 19.1875 8.296875 
z
" id="DejaVuSans-50"/>
       <path d="M 31.78125 66.40625 
Q 24.171875 66.40625 20.328125 58.90625 
Q 16.5 51.421875 16.5 36.375 
Q 16.5 21.390625 20.328125 13.890625 
Q 24.171875 6.390625 31.78125 6.390625 
Q 39.453125 6.390625 43.28125 13.890625 
Q 47.125 21.390625 47.125 36.375 
Q 47.125 51.421875 43.28125 58.90625 
Q 39.453125 66.40625 31.78125 66.40625 
z
M 31.78125 74.21875 
Q 44.046875 74.21875 50.515625 64.515625 
Q 56.984375 54.828125 56.984375 36.375 
Q 56.984375 17.96875 50.515625 8.265625 
Q 44.046875 -1.421875 31.78125 -1.421875 
Q 19.53125 -1.421875 13.0625 8.265625 
Q 6.59375 17.96875 6.59375 36.375 
Q 6.59375 54.828125 13.0625 64.515625 
Q 19.53125 74.21875 31.78125 74.21875 
z
" id="DejaVuSans-48"/>
       <path d="M 4.890625 31.390625 
L 31.203125 31.390625 
L 31.203125 23.390625 
L 4.890625 23.390625 
z
" id="DejaVuSans-45"/>
      </defs>
      <g style="fill:#555555;" transform="translate(116.150552 172.098437)scale(0.1 -0.1)">
       <use xlink:href="#DejaVuSans-50"/>
       <use x="63.623047" xlink:href="#DejaVuSans-48"/>
       <use x="127.246094" xlink:href="#DejaVuSans-50"/>
       <use x="190.869141" xlink:href="#DejaVuSans-48"/>
       <use x="254.492188" xlink:href="#DejaVuSans-45"/>
       <use x="290.576172" xlink:href="#DejaVuSans-48"/>
       <use x="354.199219" xlink:href="#DejaVuSans-50"/>
      </g>
     </g>
    </g>
    <g id="xtick_2">
     <g id="line2d_3">
      <path clip-path="url(#p72ff95d52c)" d="M 199.909091 157.5 
L 199.909091 21.6 
" style="fill:none;stroke:#ffffff;stroke-linecap:square;stroke-width:0.8;"/>
     </g>
     <g id="line2d_4">
      <g>
       <use style="fill:#555555;stroke:#555555;stroke-width:0.8;" x="199.909091" xlink:href="#m990d94721f" y="157.5"/>
      </g>
     </g>
     <g id="text_2">
      <!-- 2020-03 -->
      <defs>
       <path d="M 40.578125 39.3125 
Q 47.65625 37.796875 51.625 33 
Q 55.609375 28.21875 55.609375 21.1875 
Q 55.609375 10.40625 48.1875 4.484375 
Q 40.765625 -1.421875 27.09375 -1.421875 
Q 22.515625 -1.421875 17.65625 -0.515625 
Q 12.796875 0.390625 7.625 2.203125 
L 7.625 11.71875 
Q 11.71875 9.328125 16.59375 8.109375 
Q 21.484375 6.890625 26.8125 6.890625 
Q 36.078125 6.890625 40.9375 10.546875 
Q 45.796875 14.203125 45.796875 21.1875 
Q 45.796875 27.640625 41.28125 31.265625 
Q 36.765625 34.90625 28.71875 34.90625 
L 20.21875 34.90625 
L 20.21875 43.015625 
L 29.109375 43.015625 
Q 36.375 43.015625 40.234375 45.921875 
Q 44.09375 48.828125 44.09375 54.296875 
Q 44.09375 59.90625 40.109375 62.90625 
Q 36.140625 65.921875 28.71875 65.921875 
Q 24.65625 65.921875 20.015625 65.03125 
Q 15.375 64.15625 9.8125 62.3125 
L 9.8125 71.09375 
Q 15.4375 72.65625 20.34375 73.4375 
Q 25.25 74.21875 29.59375 74.21875 
Q 40.828125 74.21875 47.359375 69.109375 
Q 53.90625 64.015625 53.90625 55.328125 
Q 53.90625 49.265625 50.4375 45.09375 
Q 46.96875 40.921875 40.578125 39.3125 
z
" id="DejaVuSans-51"/>
      </defs>
      <g style="fill:#555555;" transform="translate(179.017685 172.098437)scale(0.1 -0.1)">
       <use xlink:href="#DejaVuSans-50"/>
       <use x="63.623047" xlink:href="#DejaVuSans-48"/>
       <use x="127.246094" xlink:href="#DejaVuSans-50"/>
       <use x="190.869141" xlink:href="#DejaVuSans-48"/>
       <use x="254.492188" xlink:href="#DejaVuSans-45"/>
       <use x="290.576172" xlink:href="#DejaVuSans-48"/>
       <use x="354.199219" xlink:href="#DejaVuSans-51"/>
      </g>
     </g>
    </g>
    <g id="xtick_3">
     <g id="line2d_5">
      <path clip-path="url(#p72ff95d52c)" d="M 267.111888 157.5 
L 267.111888 21.6 
" style="fill:none;stroke:#ffffff;stroke-linecap:square;stroke-width:0.8;"/>
     </g>
     <g id="line2d_6">
      <g>
       <use style="fill:#555555;stroke:#555555;stroke-width:0.8;" x="267.111888" xlink:href="#m990d94721f" y="157.5"/>
      </g>
     </g>
     <g id="text_3">
      <!-- 2020-04 -->
      <defs>
       <path d="M 37.796875 64.3125 
L 12.890625 25.390625 
L 37.796875 25.390625 
z
M 35.203125 72.90625 
L 47.609375 72.90625 
L 47.609375 25.390625 
L 58.015625 25.390625 
L 58.015625 17.1875 
L 47.609375 17.1875 
L 47.609375 0 
L 37.796875 0 
L 37.796875 17.1875 
L 4.890625 17.1875 
L 4.890625 26.703125 
z
" id="DejaVuSans-52"/>
      </defs>
      <g style="fill:#555555;" transform="translate(246.220482 172.098437)scale(0.1 -0.1)">
       <use xlink:href="#DejaVuSans-50"/>
       <use x="63.623047" xlink:href="#DejaVuSans-48"/>
       <use x="127.246094" xlink:href="#DejaVuSans-50"/>
       <use x="190.869141" xlink:href="#DejaVuSans-48"/>
       <use x="254.492188" xlink:href="#DejaVuSans-45"/>
       <use x="290.576172" xlink:href="#DejaVuSans-48"/>
       <use x="354.199219" xlink:href="#DejaVuSans-52"/>
      </g>
     </g>
    </g>
    <g id="xtick_4">
     <g id="line2d_7">
      <path clip-path="url(#p72ff95d52c)" d="M 332.146853 157.5 
L 332.146853 21.6 
" style="fill:none;stroke:#ffffff;stroke-linecap:square;stroke-width:0.8;"/>
     </g>
     <g id="line2d_8">
      <g>
       <use style="fill:#555555;stroke:#555555;stroke-width:0.8;" x="332.146853" xlink:href="#m990d94721f" y="157.5"/>
      </g>
     </g>
     <g id="text_4">
      <!-- 2020-05 -->
      <defs>
       <path d="M 10.796875 72.90625 
L 49.515625 72.90625 
L 49.515625 64.59375 
L 19.828125 64.59375 
L 19.828125 46.734375 
Q 21.96875 47.46875 24.109375 47.828125 
Q 26.265625 48.1875 28.421875 48.1875 
Q 40.625 48.1875 47.75 41.5 
Q 54.890625 34.8125 54.890625 23.390625 
Q 54.890625 11.625 47.5625 5.09375 
Q 40.234375 -1.421875 26.90625 -1.421875 
Q 22.3125 -1.421875 17.546875 -0.640625 
Q 12.796875 0.140625 7.71875 1.703125 
L 7.71875 11.625 
Q 12.109375 9.234375 16.796875 8.0625 
Q 21.484375 6.890625 26.703125 6.890625 
Q 35.15625 6.890625 40.078125 11.328125 
Q 45.015625 15.765625 45.015625 23.390625 
Q 45.015625 31 40.078125 35.4375 
Q 35.15625 39.890625 26.703125 39.890625 
Q 22.75 39.890625 18.8125 39.015625 
Q 14.890625 38.140625 10.796875 36.28125 
z
" id="DejaVuSans-53"/>
      </defs>
      <g style="fill:#555555;" transform="translate(311.255447 172.098437)scale(0.1 -0.1)">
       <use xlink:href="#DejaVuSans-50"/>
       <use x="63.623047" xlink:href="#DejaVuSans-48"/>
       <use x="127.246094" xlink:href="#DejaVuSans-50"/>
       <use x="190.869141" xlink:href="#DejaVuSans-48"/>
       <use x="254.492188" xlink:href="#DejaVuSans-45"/>
       <use x="290.576172" xlink:href="#DejaVuSans-48"/>
       <use x="354.199219" xlink:href="#DejaVuSans-53"/>
      </g>
     </g>
    </g>
    <g id="xtick_5">
     <g id="line2d_9">
      <path clip-path="url(#p72ff95d52c)" d="M 399.34965 157.5 
L 399.34965 21.6 
" style="fill:none;stroke:#ffffff;stroke-linecap:square;stroke-width:0.8;"/>
     </g>
     <g id="line2d_10">
      <g>
       <use style="fill:#555555;stroke:#555555;stroke-width:0.8;" x="399.34965" xlink:href="#m990d94721f" y="157.5"/>
      </g>
     </g>
     <g id="text_5">
      <!-- 2020-06 -->
      <defs>
       <path d="M 33.015625 40.375 
Q 26.375 40.375 22.484375 35.828125 
Q 18.609375 31.296875 18.609375 23.390625 
Q 18.609375 15.53125 22.484375 10.953125 
Q 26.375 6.390625 33.015625 6.390625 
Q 39.65625 6.390625 43.53125 10.953125 
Q 47.40625 15.53125 47.40625 23.390625 
Q 47.40625 31.296875 43.53125 35.828125 
Q 39.65625 40.375 33.015625 40.375 
z
M 52.59375 71.296875 
L 52.59375 62.3125 
Q 48.875 64.0625 45.09375 64.984375 
Q 41.3125 65.921875 37.59375 65.921875 
Q 27.828125 65.921875 22.671875 59.328125 
Q 17.53125 52.734375 16.796875 39.40625 
Q 19.671875 43.65625 24.015625 45.921875 
Q 28.375 48.1875 33.59375 48.1875 
Q 44.578125 48.1875 50.953125 41.515625 
Q 57.328125 34.859375 57.328125 23.390625 
Q 57.328125 12.15625 50.6875 5.359375 
Q 44.046875 -1.421875 33.015625 -1.421875 
Q 20.359375 -1.421875 13.671875 8.265625 
Q 6.984375 17.96875 6.984375 36.375 
Q 6.984375 53.65625 15.1875 63.9375 
Q 23.390625 74.21875 37.203125 74.21875 
Q 40.921875 74.21875 44.703125 73.484375 
Q 48.484375 72.75 52.59375 71.296875 
z
" id="DejaVuSans-54"/>
      </defs>
      <g style="fill:#555555;" transform="translate(378.458244 172.098437)scale(0.1 -0.1)">
       <use xlink:href="#DejaVuSans-50"/>
       <use x="63.623047" xlink:href="#DejaVuSans-48"/>
       <use x="127.246094" xlink:href="#DejaVuSans-50"/>
       <use x="190.869141" xlink:href="#DejaVuSans-48"/>
       <use x="254.492188" xlink:href="#DejaVuSans-45"/>
       <use x="290.576172" xlink:href="#DejaVuSans-48"/>
       <use x="354.199219" xlink:href="#DejaVuSans-54"/>
      </g>
     </g>
    </g>
    <g id="xtick_6">
     <g id="line2d_11">
      <path clip-path="url(#p72ff95d52c)" d="M 464.384615 157.5 
L 464.384615 21.6 
" style="fill:none;stroke:#ffffff;stroke-linecap:square;stroke-width:0.8;"/>
     </g>
     <g id="line2d_12">
      <g>
       <use style="fill:#555555;stroke:#555555;stroke-width:0.8;" x="464.384615" xlink:href="#m990d94721f" y="157.5"/>
      </g>
     </g>
     <g id="text_6">
      <!-- 2020-07 -->
      <defs>
       <path d="M 8.203125 72.90625 
L 55.078125 72.90625 
L 55.078125 68.703125 
L 28.609375 0 
L 18.3125 0 
L 43.21875 64.59375 
L 8.203125 64.59375 
z
" id="DejaVuSans-55"/>
      </defs>
      <g style="fill:#555555;" transform="translate(443.493209 172.098437)scale(0.1 -0.1)">
       <use xlink:href="#DejaVuSans-50"/>
       <use x="63.623047" xlink:href="#DejaVuSans-48"/>
       <use x="127.246094" xlink:href="#DejaVuSans-50"/>
       <use x="190.869141" xlink:href="#DejaVuSans-48"/>
       <use x="254.492188" xlink:href="#DejaVuSans-45"/>
       <use x="290.576172" xlink:href="#DejaVuSans-48"/>
       <use x="354.199219" xlink:href="#DejaVuSans-55"/>
      </g>
     </g>
    </g>
    <g id="xtick_7">
     <g id="line2d_13">
      <path clip-path="url(#p72ff95d52c)" d="M 531.587413 157.5 
L 531.587413 21.6 
" style="fill:none;stroke:#ffffff;stroke-linecap:square;stroke-width:0.8;"/>
     </g>
     <g id="line2d_14">
      <g>
       <use style="fill:#555555;stroke:#555555;stroke-width:0.8;" x="531.587413" xlink:href="#m990d94721f" y="157.5"/>
      </g>
     </g>
     <g id="text_7">
      <!-- 2020-08 -->
      <defs>
       <path d="M 31.78125 34.625 
Q 24.75 34.625 20.71875 30.859375 
Q 16.703125 27.09375 16.703125 20.515625 
Q 16.703125 13.921875 20.71875 10.15625 
Q 24.75 6.390625 31.78125 6.390625 
Q 38.8125 6.390625 42.859375 10.171875 
Q 46.921875 13.96875 46.921875 20.515625 
Q 46.921875 27.09375 42.890625 30.859375 
Q 38.875 34.625 31.78125 34.625 
z
M 21.921875 38.8125 
Q 15.578125 40.375 12.03125 44.71875 
Q 8.5 49.078125 8.5 55.328125 
Q 8.5 64.0625 14.71875 69.140625 
Q 20.953125 74.21875 31.78125 74.21875 
Q 42.671875 74.21875 48.875 69.140625 
Q 55.078125 64.0625 55.078125 55.328125 
Q 55.078125 49.078125 51.53125 44.71875 
Q 48 40.375 41.703125 38.8125 
Q 48.828125 37.15625 52.796875 32.3125 
Q 56.78125 27.484375 56.78125 20.515625 
Q 56.78125 9.90625 50.3125 4.234375 
Q 43.84375 -1.421875 31.78125 -1.421875 
Q 19.734375 -1.421875 13.25 4.234375 
Q 6.78125 9.90625 6.78125 20.515625 
Q 6.78125 27.484375 10.78125 32.3125 
Q 14.796875 37.15625 21.921875 38.8125 
z
M 18.3125 54.390625 
Q 18.3125 48.734375 21.84375 45.5625 
Q 25.390625 42.390625 31.78125 42.390625 
Q 38.140625 42.390625 41.71875 45.5625 
Q 45.3125 48.734375 45.3125 54.390625 
Q 45.3125 60.0625 41.71875 63.234375 
Q 38.140625 66.40625 31.78125 66.40625 
Q 25.390625 66.40625 21.84375 63.234375 
Q 18.3125 60.0625 18.3125 54.390625 
z
" id="DejaVuSans-56"/>
      </defs>
      <g style="fill:#555555;" transform="translate(510.696006 172.098437)scale(0.1 -0.1)">
       <use xlink:href="#DejaVuSans-50"/>
       <use x="63.623047" xlink:href="#DejaVuSans-48"/>
       <use x="127.246094" xlink:href="#DejaVuSans-50"/>
       <use x="190.869141" xlink:href="#DejaVuSans-48"/>
       <use x="254.492188" xlink:href="#DejaVuSans-45"/>
       <use x="290.576172" xlink:href="#DejaVuSans-48"/>
       <use x="354.199219" xlink:href="#DejaVuSans-56"/>
      </g>
     </g>
    </g>
    <g id="xtick_8">
     <g id="line2d_15">
      <path clip-path="url(#p72ff95d52c)" d="M 598.79021 157.5 
L 598.79021 21.6 
" style="fill:none;stroke:#ffffff;stroke-linecap:square;stroke-width:0.8;"/>
     </g>
     <g id="line2d_16">
      <g>
       <use style="fill:#555555;stroke:#555555;stroke-width:0.8;" x="598.79021" xlink:href="#m990d94721f" y="157.5"/>
      </g>
     </g>
     <g id="text_8">
      <!-- 2020-09 -->
      <defs>
       <path d="M 10.984375 1.515625 
L 10.984375 10.5 
Q 14.703125 8.734375 18.5 7.8125 
Q 22.3125 6.890625 25.984375 6.890625 
Q 35.75 6.890625 40.890625 13.453125 
Q 46.046875 20.015625 46.78125 33.40625 
Q 43.953125 29.203125 39.59375 26.953125 
Q 35.25 24.703125 29.984375 24.703125 
Q 19.046875 24.703125 12.671875 31.3125 
Q 6.296875 37.9375 6.296875 49.421875 
Q 6.296875 60.640625 12.9375 67.421875 
Q 19.578125 74.21875 30.609375 74.21875 
Q 43.265625 74.21875 49.921875 64.515625 
Q 56.59375 54.828125 56.59375 36.375 
Q 56.59375 19.140625 48.40625 8.859375 
Q 40.234375 -1.421875 26.421875 -1.421875 
Q 22.703125 -1.421875 18.890625 -0.6875 
Q 15.09375 0.046875 10.984375 1.515625 
z
M 30.609375 32.421875 
Q 37.25 32.421875 41.125 36.953125 
Q 45.015625 41.5 45.015625 49.421875 
Q 45.015625 57.28125 41.125 61.84375 
Q 37.25 66.40625 30.609375 66.40625 
Q 23.96875 66.40625 20.09375 61.84375 
Q 16.21875 57.28125 16.21875 49.421875 
Q 16.21875 41.5 20.09375 36.953125 
Q 23.96875 32.421875 30.609375 32.421875 
z
" id="DejaVuSans-57"/>
      </defs>
      <g style="fill:#555555;" transform="translate(577.898804 172.098437)scale(0.1 -0.1)">
       <use xlink:href="#DejaVuSans-50"/>
       <use x="63.623047" xlink:href="#DejaVuSans-48"/>
       <use x="127.246094" xlink:href="#DejaVuSans-50"/>
       <use x="190.869141" xlink:href="#DejaVuSans-48"/>
       <use x="254.492188" xlink:href="#DejaVuSans-45"/>
       <use x="290.576172" xlink:href="#DejaVuSans-48"/>
       <use x="354.199219" xlink:href="#DejaVuSans-57"/>
      </g>
     </g>
    </g>
   </g>
   <g id="matplotlib.axis_2">
    <g id="ytick_1">
     <g id="line2d_17">
      <path clip-path="url(#p72ff95d52c)" d="M 90 157.5 
L 648 157.5 
" style="fill:none;stroke:#ffffff;stroke-linecap:square;stroke-width:0.8;"/>
     </g>
     <g id="line2d_18">
      <defs>
       <path d="M 0 0 
L -3.5 0 
" id="mfaeaecf39d" style="stroke:#555555;stroke-width:0.8;"/>
      </defs>
      <g>
       <use style="fill:#555555;stroke:#555555;stroke-width:0.8;" x="90" xlink:href="#mfaeaecf39d" y="157.5"/>
      </g>
     </g>
     <g id="line2d_19">
      <defs>
       <path d="M 0 0 
L 3.5 0 
" id="mb09cd3f0c7" style="stroke:#555555;stroke-width:0.8;"/>
      </defs>
      <g>
       <use style="fill:#555555;stroke:#555555;stroke-width:0.8;" x="648" xlink:href="#mb09cd3f0c7" y="157.5"/>
      </g>
     </g>
     <g id="text_9">
      <!-- 0 -->
      <g style="fill:#555555;" transform="translate(76.6375 161.299219)scale(0.1 -0.1)">
       <use xlink:href="#DejaVuSans-48"/>
      </g>
     </g>
     <g id="text_10">
      <!-- 0 -->
      <g style="fill:#555555;" transform="translate(655 161.299219)scale(0.1 -0.1)">
       <use xlink:href="#DejaVuSans-48"/>
      </g>
     </g>
    </g>
    <g id="ytick_2">
     <g id="line2d_20">
      <path clip-path="url(#p72ff95d52c)" d="M 90 133.967532 
L 648 133.967532 
" style="fill:none;stroke:#ffffff;stroke-linecap:square;stroke-width:0.8;"/>
     </g>
     <g id="line2d_21">
      <g>
       <use style="fill:#555555;stroke:#555555;stroke-width:0.8;" x="90" xlink:href="#mfaeaecf39d" y="133.967532"/>
      </g>
     </g>
     <g id="line2d_22">
      <g>
       <use style="fill:#555555;stroke:#555555;stroke-width:0.8;" x="648" xlink:href="#mb09cd3f0c7" y="133.967532"/>
      </g>
     </g>
     <g id="text_11">
      <!-- 2 -->
      <g style="fill:#555555;" transform="translate(76.6375 137.766751)scale(0.1 -0.1)">
       <use xlink:href="#DejaVuSans-50"/>
      </g>
     </g>
     <g id="text_12">
      <!-- 2 -->
      <g style="fill:#555555;" transform="translate(655 137.766751)scale(0.1 -0.1)">
       <use xlink:href="#DejaVuSans-50"/>
      </g>
     </g>
    </g>
    <g id="ytick_3">
     <g id="line2d_23">
      <path clip-path="url(#p72ff95d52c)" d="M 90 110.435065 
L 648 110.435065 
" style="fill:none;stroke:#ffffff;stroke-linecap:square;stroke-width:0.8;"/>
     </g>
     <g id="line2d_24">
      <g>
       <use style="fill:#555555;stroke:#555555;stroke-width:0.8;" x="90" xlink:href="#mfaeaecf39d" y="110.435065"/>
      </g>
     </g>
     <g id="line2d_25">
      <g>
       <use style="fill:#555555;stroke:#555555;stroke-width:0.8;" x="648" xlink:href="#mb09cd3f0c7" y="110.435065"/>
      </g>
     </g>
     <g id="text_13">
      <!-- 4 -->
      <g style="fill:#555555;" transform="translate(76.6375 114.234284)scale(0.1 -0.1)">
       <use xlink:href="#DejaVuSans-52"/>
      </g>
     </g>
     <g id="text_14">
      <!-- 4 -->
      <g style="fill:#555555;" transform="translate(655 114.234284)scale(0.1 -0.1)">
       <use xlink:href="#DejaVuSans-52"/>
      </g>
     </g>
    </g>
    <g id="ytick_4">
     <g id="line2d_26">
      <path clip-path="url(#p72ff95d52c)" d="M 90 86.902597 
L 648 86.902597 
" style="fill:none;stroke:#ffffff;stroke-linecap:square;stroke-width:0.8;"/>
     </g>
     <g id="line2d_27">
      <g>
       <use style="fill:#555555;stroke:#555555;stroke-width:0.8;" x="90" xlink:href="#mfaeaecf39d" y="86.902597"/>
      </g>
     </g>
     <g id="line2d_28">
      <g>
       <use style="fill:#555555;stroke:#555555;stroke-width:0.8;" x="648" xlink:href="#mb09cd3f0c7" y="86.902597"/>
      </g>
     </g>
     <g id="text_15">
      <!-- 6 -->
      <g style="fill:#555555;" transform="translate(76.6375 90.701816)scale(0.1 -0.1)">
       <use xlink:href="#DejaVuSans-54"/>
      </g>
     </g>
     <g id="text_16">
      <!-- 6 -->
      <g style="fill:#555555;" transform="translate(655 90.701816)scale(0.1 -0.1)">
       <use xlink:href="#DejaVuSans-54"/>
      </g>
     </g>
    </g>
    <g id="ytick_5">
     <g id="line2d_29">
      <path clip-path="url(#p72ff95d52c)" d="M 90 63.37013 
L 648 63.37013 
" style="fill:none;stroke:#ffffff;stroke-linecap:square;stroke-width:0.8;"/>
     </g>
     <g id="line2d_30">
      <g>
       <use style="fill:#555555;stroke:#555555;stroke-width:0.8;" x="90" xlink:href="#mfaeaecf39d" y="63.37013"/>
      </g>
     </g>
     <g id="line2d_31">
      <g>
       <use style="fill:#555555;stroke:#555555;stroke-width:0.8;" x="648" xlink:href="#mb09cd3f0c7" y="63.37013"/>
      </g>
     </g>
     <g id="text_17">
      <!-- 8 -->
      <g style="fill:#555555;" transform="translate(76.6375 67.169349)scale(0.1 -0.1)">
       <use xlink:href="#DejaVuSans-56"/>
      </g>
     </g>
     <g id="text_18">
      <!-- 8 -->
      <g style="fill:#555555;" transform="translate(655 67.169349)scale(0.1 -0.1)">
       <use xlink:href="#DejaVuSans-56"/>
      </g>
     </g>
    </g>
    <g id="ytick_6">
     <g id="line2d_32">
      <path clip-path="url(#p72ff95d52c)" d="M 90 39.837662 
L 648 39.837662 
" style="fill:none;stroke:#ffffff;stroke-linecap:square;stroke-width:0.8;"/>
     </g>
     <g id="line2d_33">
      <g>
       <use style="fill:#555555;stroke:#555555;stroke-width:0.8;" x="90" xlink:href="#mfaeaecf39d" y="39.837662"/>
      </g>
     </g>
     <g id="line2d_34">
      <g>
       <use style="fill:#555555;stroke:#555555;stroke-width:0.8;" x="648" xlink:href="#mb09cd3f0c7" y="39.837662"/>
      </g>
     </g>
     <g id="text_19">
      <!-- 10 -->
      <defs>
       <path d="M 12.40625 8.296875 
L 28.515625 8.296875 
L 28.515625 63.921875 
L 10.984375 60.40625 
L 10.984375 69.390625 
L 28.421875 72.90625 
L 38.28125 72.90625 
L 38.28125 8.296875 
L 54.390625 8.296875 
L 54.390625 0 
L 12.40625 0 
z
" id="DejaVuSans-49"/>
      </defs>
      <g style="fill:#555555;" transform="translate(70.275 43.636881)scale(0.1 -0.1)">
       <use xlink:href="#DejaVuSans-49"/>
       <use x="63.623047" xlink:href="#DejaVuSans-48"/>
      </g>
     </g>
     <g id="text_20">
      <!-- 10 -->
      <g style="fill:#555555;" transform="translate(655 43.636881)scale(0.1 -0.1)">
       <use xlink:href="#DejaVuSans-49"/>
       <use x="63.623047" xlink:href="#DejaVuSans-48"/>
      </g>
     </g>
    </g>
    <g id="text_21">
     <!-- daily change -->
     <defs>
      <path d="M 45.40625 46.390625 
L 45.40625 75.984375 
L 54.390625 75.984375 
L 54.390625 0 
L 45.40625 0 
L 45.40625 8.203125 
Q 42.578125 3.328125 38.25 0.953125 
Q 33.9375 -1.421875 27.875 -1.421875 
Q 17.96875 -1.421875 11.734375 6.484375 
Q 5.515625 14.40625 5.515625 27.296875 
Q 5.515625 40.1875 11.734375 48.09375 
Q 17.96875 56 27.875 56 
Q 33.9375 56 38.25 53.625 
Q 42.578125 51.265625 45.40625 46.390625 
z
M 14.796875 27.296875 
Q 14.796875 17.390625 18.875 11.75 
Q 22.953125 6.109375 30.078125 6.109375 
Q 37.203125 6.109375 41.296875 11.75 
Q 45.40625 17.390625 45.40625 27.296875 
Q 45.40625 37.203125 41.296875 42.84375 
Q 37.203125 48.484375 30.078125 48.484375 
Q 22.953125 48.484375 18.875 42.84375 
Q 14.796875 37.203125 14.796875 27.296875 
z
" id="DejaVuSans-100"/>
      <path d="M 34.28125 27.484375 
Q 23.390625 27.484375 19.1875 25 
Q 14.984375 22.515625 14.984375 16.5 
Q 14.984375 11.71875 18.140625 8.90625 
Q 21.296875 6.109375 26.703125 6.109375 
Q 34.1875 6.109375 38.703125 11.40625 
Q 43.21875 16.703125 43.21875 25.484375 
L 43.21875 27.484375 
z
M 52.203125 31.203125 
L 52.203125 0 
L 43.21875 0 
L 43.21875 8.296875 
Q 40.140625 3.328125 35.546875 0.953125 
Q 30.953125 -1.421875 24.3125 -1.421875 
Q 15.921875 -1.421875 10.953125 3.296875 
Q 6 8.015625 6 15.921875 
Q 6 25.140625 12.171875 29.828125 
Q 18.359375 34.515625 30.609375 34.515625 
L 43.21875 34.515625 
L 43.21875 35.40625 
Q 43.21875 41.609375 39.140625 45 
Q 35.0625 48.390625 27.6875 48.390625 
Q 23 48.390625 18.546875 47.265625 
Q 14.109375 46.140625 10.015625 43.890625 
L 10.015625 52.203125 
Q 14.9375 54.109375 19.578125 55.046875 
Q 24.21875 56 28.609375 56 
Q 40.484375 56 46.34375 49.84375 
Q 52.203125 43.703125 52.203125 31.203125 
z
" id="DejaVuSans-97"/>
      <path d="M 9.421875 54.6875 
L 18.40625 54.6875 
L 18.40625 0 
L 9.421875 0 
z
M 9.421875 75.984375 
L 18.40625 75.984375 
L 18.40625 64.59375 
L 9.421875 64.59375 
z
" id="DejaVuSans-105"/>
      <path d="M 9.421875 75.984375 
L 18.40625 75.984375 
L 18.40625 0 
L 9.421875 0 
z
" id="DejaVuSans-108"/>
      <path d="M 32.171875 -5.078125 
Q 28.375 -14.84375 24.75 -17.8125 
Q 21.140625 -20.796875 15.09375 -20.796875 
L 7.90625 -20.796875 
L 7.90625 -13.28125 
L 13.1875 -13.28125 
Q 16.890625 -13.28125 18.9375 -11.515625 
Q 21 -9.765625 23.484375 -3.21875 
L 25.09375 0.875 
L 2.984375 54.6875 
L 12.5 54.6875 
L 29.59375 11.921875 
L 46.6875 54.6875 
L 56.203125 54.6875 
z
" id="DejaVuSans-121"/>
      <path id="DejaVuSans-32"/>
      <path d="M 48.78125 52.59375 
L 48.78125 44.1875 
Q 44.96875 46.296875 41.140625 47.34375 
Q 37.3125 48.390625 33.40625 48.390625 
Q 24.65625 48.390625 19.8125 42.84375 
Q 14.984375 37.3125 14.984375 27.296875 
Q 14.984375 17.28125 19.8125 11.734375 
Q 24.65625 6.203125 33.40625 6.203125 
Q 37.3125 6.203125 41.140625 7.25 
Q 44.96875 8.296875 48.78125 10.40625 
L 48.78125 2.09375 
Q 45.015625 0.34375 40.984375 -0.53125 
Q 36.96875 -1.421875 32.421875 -1.421875 
Q 20.0625 -1.421875 12.78125 6.34375 
Q 5.515625 14.109375 5.515625 27.296875 
Q 5.515625 40.671875 12.859375 48.328125 
Q 20.21875 56 33.015625 56 
Q 37.15625 56 41.109375 55.140625 
Q 45.0625 54.296875 48.78125 52.59375 
z
" id="DejaVuSans-99"/>
      <path d="M 54.890625 33.015625 
L 54.890625 0 
L 45.90625 0 
L 45.90625 32.71875 
Q 45.90625 40.484375 42.875 44.328125 
Q 39.84375 48.1875 33.796875 48.1875 
Q 26.515625 48.1875 22.3125 43.546875 
Q 18.109375 38.921875 18.109375 30.90625 
L 18.109375 0 
L 9.078125 0 
L 9.078125 75.984375 
L 18.109375 75.984375 
L 18.109375 46.1875 
Q 21.34375 51.125 25.703125 53.5625 
Q 30.078125 56 35.796875 56 
Q 45.21875 56 50.046875 50.171875 
Q 54.890625 44.34375 54.890625 33.015625 
z
" id="DejaVuSans-104"/>
      <path d="M 54.890625 33.015625 
L 54.890625 0 
L 45.90625 0 
L 45.90625 32.71875 
Q 45.90625 40.484375 42.875 44.328125 
Q 39.84375 48.1875 33.796875 48.1875 
Q 26.515625 48.1875 22.3125 43.546875 
Q 18.109375 38.921875 18.109375 30.90625 
L 18.109375 0 
L 9.078125 0 
L 9.078125 54.6875 
L 18.109375 54.6875 
L 18.109375 46.1875 
Q 21.34375 51.125 25.703125 53.5625 
Q 30.078125 56 35.796875 56 
Q 45.21875 56 50.046875 50.171875 
Q 54.890625 44.34375 54.890625 33.015625 
z
" id="DejaVuSans-110"/>
      <path d="M 45.40625 27.984375 
Q 45.40625 37.75 41.375 43.109375 
Q 37.359375 48.484375 30.078125 48.484375 
Q 22.859375 48.484375 18.828125 43.109375 
Q 14.796875 37.75 14.796875 27.984375 
Q 14.796875 18.265625 18.828125 12.890625 
Q 22.859375 7.515625 30.078125 7.515625 
Q 37.359375 7.515625 41.375 12.890625 
Q 45.40625 18.265625 45.40625 27.984375 
z
M 54.390625 6.78125 
Q 54.390625 -7.171875 48.1875 -13.984375 
Q 42 -20.796875 29.203125 -20.796875 
Q 24.46875 -20.796875 20.265625 -20.09375 
Q 16.0625 -19.390625 12.109375 -17.921875 
L 12.109375 -9.1875 
Q 16.0625 -11.328125 19.921875 -12.34375 
Q 23.78125 -13.375 27.78125 -13.375 
Q 36.625 -13.375 41.015625 -8.765625 
Q 45.40625 -4.15625 45.40625 5.171875 
L 45.40625 9.625 
Q 42.625 4.78125 38.28125 2.390625 
Q 33.9375 0 27.875 0 
Q 17.828125 0 11.671875 7.65625 
Q 5.515625 15.328125 5.515625 27.984375 
Q 5.515625 40.671875 11.671875 48.328125 
Q 17.828125 56 27.875 56 
Q 33.9375 56 38.28125 53.609375 
Q 42.625 51.21875 45.40625 46.390625 
L 45.40625 54.6875 
L 54.390625 54.6875 
z
" id="DejaVuSans-103"/>
      <path d="M 56.203125 29.59375 
L 56.203125 25.203125 
L 14.890625 25.203125 
Q 15.484375 15.921875 20.484375 11.0625 
Q 25.484375 6.203125 34.421875 6.203125 
Q 39.59375 6.203125 44.453125 7.46875 
Q 49.3125 8.734375 54.109375 11.28125 
L 54.109375 2.78125 
Q 49.265625 0.734375 44.1875 -0.34375 
Q 39.109375 -1.421875 33.890625 -1.421875 
Q 20.796875 -1.421875 13.15625 6.1875 
Q 5.515625 13.8125 5.515625 26.8125 
Q 5.515625 40.234375 12.765625 48.109375 
Q 20.015625 56 32.328125 56 
Q 43.359375 56 49.78125 48.890625 
Q 56.203125 41.796875 56.203125 29.59375 
z
M 47.21875 32.234375 
Q 47.125 39.59375 43.09375 43.984375 
Q 39.0625 48.390625 32.421875 48.390625 
Q 24.90625 48.390625 20.390625 44.140625 
Q 15.875 39.890625 15.1875 32.171875 
z
" id="DejaVuSans-101"/>
     </defs>
     <g style="fill:#555555;" transform="translate(63.779375 127.909687)rotate(-90)scale(0.12 -0.12)">
      <use xlink:href="#DejaVuSans-100"/>
      <use x="63.476562" xlink:href="#DejaVuSans-97"/>
      <use x="124.755859" xlink:href="#DejaVuSans-105"/>
      <use x="152.539062" xlink:href="#DejaVuSans-108"/>
      <use x="180.322266" xlink:href="#DejaVuSans-121"/>
      <use x="239.501953" xlink:href="#DejaVuSans-32"/>
      <use x="271.289062" xlink:href="#DejaVuSans-99"/>
      <use x="326.269531" xlink:href="#DejaVuSans-104"/>
      <use x="389.648438" xlink:href="#DejaVuSans-97"/>
      <use x="450.927734" xlink:href="#DejaVuSans-110"/>
      <use x="514.306641" xlink:href="#DejaVuSans-103"/>
      <use x="577.783203" xlink:href="#DejaVuSans-101"/>
     </g>
    </g>
   </g>
   <g id="patch_3">
    <path clip-path="url(#p72ff95d52c)" d="M 116.664336 157.5 
L 118.398601 157.5 
L 118.398601 157.5 
L 116.664336 157.5 
z
" style="fill:#e24a33;opacity:0.2;"/>
   </g>
   <g id="patch_4">
    <path clip-path="url(#p72ff95d52c)" d="M 118.832168 157.5 
L 120.566434 157.5 
L 120.566434 157.5 
L 118.832168 157.5 
z
" style="fill:#e24a33;opacity:0.2;"/>
   </g>
   <g id="patch_5">
    <path clip-path="url(#p72ff95d52c)" d="M 121 157.5 
L 122.734266 157.5 
L 122.734266 157.5 
L 121 157.5 
z
" style="fill:#e24a33;opacity:0.2;"/>
   </g>
   <g id="patch_6">
    <path clip-path="url(#p72ff95d52c)" d="M 123.167832 157.5 
L 124.902098 157.5 
L 124.902098 157.5 
L 123.167832 157.5 
z
" style="fill:#e24a33;opacity:0.2;"/>
   </g>
   <g id="patch_7">
    <path clip-path="url(#p72ff95d52c)" d="M 125.335664 157.5 
L 127.06993 157.5 
L 127.06993 157.5 
L 125.335664 157.5 
z
" style="fill:#e24a33;opacity:0.2;"/>
   </g>
   <g id="patch_8">
    <path clip-path="url(#p72ff95d52c)" d="M 127.503497 157.5 
L 129.237762 157.5 
L 129.237762 157.5 
L 127.503497 157.5 
z
" style="fill:#e24a33;opacity:0.2;"/>
   </g>
   <g id="patch_9">
    <path clip-path="url(#p72ff95d52c)" d="M 129.671329 157.5 
L 131.405594 157.5 
L 131.405594 157.5 
L 129.671329 157.5 
z
" style="fill:#e24a33;opacity:0.2;"/>
   </g>
   <g id="patch_10">
    <path clip-path="url(#p72ff95d52c)" d="M 131.839161 157.5 
L 133.573427 157.5 
L 133.573427 157.5 
L 131.839161 157.5 
z
" style="fill:#e24a33;opacity:0.2;"/>
   </g>
   <g id="patch_11">
    <path clip-path="url(#p72ff95d52c)" d="M 134.006993 157.5 
L 135.741259 157.5 
L 135.741259 157.5 
L 134.006993 157.5 
z
" style="fill:#e24a33;opacity:0.2;"/>
   </g>
   <g id="patch_12">
    <path clip-path="url(#p72ff95d52c)" d="M 136.174825 157.5 
L 137.909091 157.5 
L 137.909091 157.5 
L 136.174825 157.5 
z
" style="fill:#e24a33;opacity:0.2;"/>
   </g>
   <g id="patch_13">
    <path clip-path="url(#p72ff95d52c)" d="M 138.342657 157.5 
L 140.076923 157.5 
L 140.076923 157.5 
L 138.342657 157.5 
z
" style="fill:#e24a33;opacity:0.2;"/>
   </g>
   <g id="patch_14">
    <path clip-path="url(#p72ff95d52c)" d="M 140.51049 157.5 
L 142.244755 157.5 
L 142.244755 157.5 
L 140.51049 157.5 
z
" style="fill:#e24a33;opacity:0.2;"/>
   </g>
   <g id="patch_15">
    <path clip-path="url(#p72ff95d52c)" d="M 142.678322 157.5 
L 144.412587 157.5 
L 144.412587 157.5 
L 142.678322 157.5 
z
" style="fill:#e24a33;opacity:0.2;"/>
   </g>
   <g id="patch_16">
    <path clip-path="url(#p72ff95d52c)" d="M 144.846154 157.5 
L 146.58042 157.5 
L 146.58042 157.5 
L 144.846154 157.5 
z
" style="fill:#e24a33;opacity:0.2;"/>
   </g>
   <g id="patch_17">
    <path clip-path="url(#p72ff95d52c)" d="M 147.013986 157.5 
L 148.748252 157.5 
L 148.748252 157.5 
L 147.013986 157.5 
z
" style="fill:#e24a33;opacity:0.2;"/>
   </g>
   <g id="patch_18">
    <path clip-path="url(#p72ff95d52c)" d="M 149.181818 157.5 
L 150.916084 157.5 
L 150.916084 157.5 
L 149.181818 157.5 
z
" style="fill:#e24a33;opacity:0.2;"/>
   </g>
   <g id="patch_19">
    <path clip-path="url(#p72ff95d52c)" d="M 151.34965 157.5 
L 153.083916 157.5 
L 153.083916 157.5 
L 151.34965 157.5 
z
" style="fill:#e24a33;opacity:0.2;"/>
   </g>
   <g id="patch_20">
    <path clip-path="url(#p72ff95d52c)" d="M 153.517483 157.5 
L 155.251748 157.5 
L 155.251748 157.5 
L 153.517483 157.5 
z
" style="fill:#e24a33;opacity:0.2;"/>
   </g>
   <g id="patch_21">
    <path clip-path="url(#p72ff95d52c)" d="M 155.685315 157.5 
L 157.41958 157.5 
L 157.41958 157.5 
L 155.685315 157.5 
z
" style="fill:#e24a33;opacity:0.2;"/>
   </g>
   <g id="patch_22">
    <path clip-path="url(#p72ff95d52c)" d="M 157.853147 157.5 
L 159.587413 157.5 
L 159.587413 157.5 
L 157.853147 157.5 
z
" style="fill:#e24a33;opacity:0.2;"/>
   </g>
   <g id="patch_23">
    <path clip-path="url(#p72ff95d52c)" d="M 160.020979 157.5 
L 161.755245 157.5 
L 161.755245 157.5 
L 160.020979 157.5 
z
" style="fill:#e24a33;opacity:0.2;"/>
   </g>
   <g id="patch_24">
    <path clip-path="url(#p72ff95d52c)" d="M 162.188811 157.5 
L 163.923077 157.5 
L 163.923077 157.5 
L 162.188811 157.5 
z
" style="fill:#e24a33;opacity:0.2;"/>
   </g>
   <g id="patch_25">
    <path clip-path="url(#p72ff95d52c)" d="M 164.356643 157.5 
L 166.090909 157.5 
L 166.090909 157.5 
L 164.356643 157.5 
z
" style="fill:#e24a33;opacity:0.2;"/>
   </g>
   <g id="patch_26">
    <path clip-path="url(#p72ff95d52c)" d="M 166.524476 157.5 
L 168.258741 157.5 
L 168.258741 157.5 
L 166.524476 157.5 
z
" style="fill:#e24a33;opacity:0.2;"/>
   </g>
   <g id="patch_27">
    <path clip-path="url(#p72ff95d52c)" d="M 168.692308 157.5 
L 170.426573 157.5 
L 170.426573 157.5 
L 168.692308 157.5 
z
" style="fill:#e24a33;opacity:0.2;"/>
   </g>
   <g id="patch_28">
    <path clip-path="url(#p72ff95d52c)" d="M 170.86014 157.5 
L 172.594406 157.5 
L 172.594406 157.5 
L 170.86014 157.5 
z
" style="fill:#e24a33;opacity:0.2;"/>
   </g>
   <g id="patch_29">
    <path clip-path="url(#p72ff95d52c)" d="M 173.027972 157.5 
L 174.762238 157.5 
L 174.762238 157.5 
L 173.027972 157.5 
z
" style="fill:#e24a33;opacity:0.2;"/>
   </g>
   <g id="patch_30">
    <path clip-path="url(#p72ff95d52c)" d="M 175.195804 157.5 
L 176.93007 157.5 
L 176.93007 157.5 
L 175.195804 157.5 
z
" style="fill:#e24a33;opacity:0.2;"/>
   </g>
   <g id="patch_31">
    <path clip-path="url(#p72ff95d52c)" d="M 177.363636 157.5 
L 179.097902 157.5 
L 179.097902 145.733766 
L 177.363636 145.733766 
z
" style="fill:#e24a33;opacity:0.2;"/>
   </g>
   <g id="patch_32">
    <path clip-path="url(#p72ff95d52c)" d="M 179.531469 157.5 
L 181.265734 157.5 
L 181.265734 145.733766 
L 179.531469 145.733766 
z
" style="fill:#e24a33;opacity:0.2;"/>
   </g>
   <g id="patch_33">
    <path clip-path="url(#p72ff95d52c)" d="M 181.699301 157.5 
L 183.433566 157.5 
L 183.433566 157.5 
L 181.699301 157.5 
z
" style="fill:#e24a33;opacity:0.2;"/>
   </g>
   <g id="patch_34">
    <path clip-path="url(#p72ff95d52c)" d="M 183.867133 157.5 
L 185.601399 157.5 
L 185.601399 110.435065 
L 183.867133 110.435065 
z
" style="fill:#e24a33;opacity:0.2;"/>
   </g>
   <g id="patch_35">
    <path clip-path="url(#p72ff95d52c)" d="M 186.034965 157.5 
L 187.769231 157.5 
L 187.769231 133.967532 
L 186.034965 133.967532 
z
" style="fill:#e24a33;opacity:0.2;"/>
   </g>
   <g id="patch_36">
    <path clip-path="url(#p72ff95d52c)" d="M 188.202797 157.5 
L 189.937063 157.5 
L 189.937063 133.967532 
L 188.202797 133.967532 
z
" style="fill:#e24a33;opacity:0.2;"/>
   </g>
   <g id="patch_37">
    <path clip-path="url(#p72ff95d52c)" d="M 190.370629 157.5 
L 192.104895 157.5 
L 192.104895 133.967532 
L 190.370629 133.967532 
z
" style="fill:#e24a33;opacity:0.2;"/>
   </g>
   <g id="patch_38">
    <path clip-path="url(#p72ff95d52c)" d="M 192.538462 157.5 
L 194.272727 157.5 
L 194.272727 145.733766 
L 192.538462 145.733766 
z
" style="fill:#e24a33;opacity:0.2;"/>
   </g>
   <g id="patch_39">
    <path clip-path="url(#p72ff95d52c)" d="M 194.706294 157.5 
L 196.440559 157.5 
L 196.440559 157.5 
L 194.706294 157.5 
z
" style="fill:#e24a33;opacity:0.2;"/>
   </g>
   <g id="patch_40">
    <path clip-path="url(#p72ff95d52c)" d="M 196.874126 157.5 
L 198.608392 157.5 
L 198.608392 122.201299 
L 196.874126 122.201299 
z
" style="fill:#e24a33;opacity:0.2;"/>
   </g>
   <g id="patch_41">
    <path clip-path="url(#p72ff95d52c)" d="M 199.041958 157.5 
L 200.776224 157.5 
L 200.776224 145.733766 
L 199.041958 145.733766 
z
" style="fill:#e24a33;opacity:0.2;"/>
   </g>
   <g id="patch_42">
    <path clip-path="url(#p72ff95d52c)" d="M 201.20979 157.5 
L 202.944056 157.5 
L 202.944056 28.071429 
L 201.20979 28.071429 
z
" style="fill:#e24a33;opacity:0.2;"/>
   </g>
   <g id="patch_43">
    <path clip-path="url(#p72ff95d52c)" d="M 203.377622 157.5 
L 205.111888 157.5 
L 205.111888 157.5 
L 203.377622 157.5 
z
" style="fill:#e24a33;opacity:0.2;"/>
   </g>
   <g id="patch_44">
    <path clip-path="url(#p72ff95d52c)" d="M 205.545455 157.5 
L 207.27972 157.5 
L 207.27972 75.136364 
L 205.545455 75.136364 
z
" style="fill:#e24a33;opacity:0.2;"/>
   </g>
   <g id="patch_45">
    <path clip-path="url(#p72ff95d52c)" d="M 207.713287 157.5 
L 209.447552 157.5 
L 209.447552 157.5 
L 207.713287 157.5 
z
" style="fill:#e24a33;opacity:0.2;"/>
   </g>
   <g id="patch_46">
    <path clip-path="url(#p72ff95d52c)" d="M 209.881119 157.5 
L 211.615385 157.5 
L 211.615385 75.136364 
L 209.881119 75.136364 
z
" style="fill:#e24a33;opacity:0.2;"/>
   </g>
   <g id="patch_47">
    <path clip-path="url(#p72ff95d52c)" d="M 212.048951 157.5 
L 213.783217 157.5 
L 213.783217 133.967532 
L 212.048951 133.967532 
z
" style="fill:#e24a33;opacity:0.2;"/>
   </g>
   <g id="patch_48">
    <path clip-path="url(#p72ff95d52c)" d="M 214.216783 157.5 
L 215.951049 157.5 
L 215.951049 86.902597 
L 214.216783 86.902597 
z
" style="fill:#e24a33;opacity:0.2;"/>
   </g>
   <g id="patch_49">
    <path clip-path="url(#p72ff95d52c)" d="M 216.384615 157.5 
L 218.118881 157.5 
L 218.118881 122.201299 
L 216.384615 122.201299 
z
" style="fill:#e24a33;opacity:0.2;"/>
   </g>
   <g id="patch_50">
    <path clip-path="url(#p72ff95d52c)" d="M 218.552448 157.5 
L 220.286713 157.5 
L 220.286713 145.733766 
L 218.552448 145.733766 
z
" style="fill:#e24a33;opacity:0.2;"/>
   </g>
   <g id="patch_51">
    <path clip-path="url(#p72ff95d52c)" d="M 220.72028 157.5 
L 222.454545 157.5 
L 222.454545 86.902597 
L 220.72028 86.902597 
z
" style="fill:#e24a33;opacity:0.2;"/>
   </g>
   <g id="patch_52">
    <path clip-path="url(#p72ff95d52c)" d="M 222.888112 157.5 
L 224.622378 157.5 
L 224.622378 86.902597 
L 222.888112 86.902597 
z
" style="fill:#e24a33;opacity:0.2;"/>
   </g>
   <g id="patch_53">
    <path clip-path="url(#p72ff95d52c)" d="M 225.055944 157.5 
L 226.79021 157.5 
L 226.79021 157.5 
L 225.055944 157.5 
z
" style="fill:#e24a33;opacity:0.2;"/>
   </g>
   <g id="patch_54">
    <path clip-path="url(#p72ff95d52c)" d="M 227.223776 157.5 
L 228.958042 157.5 
L 228.958042 86.902597 
L 227.223776 86.902597 
z
" style="fill:#e24a33;opacity:0.2;"/>
   </g>
   <g id="patch_55">
    <path clip-path="url(#p72ff95d52c)" d="M 229.391608 157.5 
L 231.125874 157.5 
L 231.125874 122.201299 
L 229.391608 122.201299 
z
" style="fill:#e24a33;opacity:0.2;"/>
   </g>
   <g id="patch_56">
    <path clip-path="url(#p72ff95d52c)" d="M 231.559441 157.5 
L 233.293706 157.5 
L 233.293706 157.5 
L 231.559441 157.5 
z
" style="fill:#e24a33;opacity:0.2;"/>
   </g>
   <g id="patch_57">
    <path clip-path="url(#p72ff95d52c)" d="M 233.727273 157.5 
L 235.461538 157.5 
L 235.461538 86.902597 
L 233.727273 86.902597 
z
" style="fill:#e24a33;opacity:0.2;"/>
   </g>
   <g id="patch_58">
    <path clip-path="url(#p72ff95d52c)" d="M 235.895105 157.5 
L 237.629371 157.5 
L 237.629371 122.201299 
L 235.895105 122.201299 
z
" style="fill:#e24a33;opacity:0.2;"/>
   </g>
   <g id="patch_59">
    <path clip-path="url(#p72ff95d52c)" d="M 238.062937 157.5 
L 239.797203 157.5 
L 239.797203 75.136364 
L 238.062937 75.136364 
z
" style="fill:#e24a33;opacity:0.2;"/>
   </g>
   <g id="patch_60">
    <path clip-path="url(#p72ff95d52c)" d="M 240.230769 157.5 
L 241.965035 157.5 
L 241.965035 122.201299 
L 240.230769 122.201299 
z
" style="fill:#e24a33;opacity:0.2;"/>
   </g>
   <g id="patch_61">
    <path clip-path="url(#p72ff95d52c)" d="M 242.398601 157.5 
L 244.132867 157.5 
L 244.132867 63.37013 
L 242.398601 63.37013 
z
" style="fill:#e24a33;opacity:0.2;"/>
   </g>
   <g id="patch_62">
    <path clip-path="url(#p72ff95d52c)" d="M 244.566434 157.5 
L 246.300699 157.5 
L 246.300699 51.603896 
L 244.566434 51.603896 
z
" style="fill:#e24a33;opacity:0.2;"/>
   </g>
   <g id="patch_63">
    <path clip-path="url(#p72ff95d52c)" d="M 246.734266 157.5 
L 248.468531 157.5 
L 248.468531 157.5 
L 246.734266 157.5 
z
" style="fill:#e24a33;opacity:0.2;"/>
   </g>
   <g id="patch_64">
    <path clip-path="url(#p72ff95d52c)" d="M 248.902098 157.5 
L 250.636364 157.5 
L 250.636364 51.603896 
L 248.902098 51.603896 
z
" style="fill:#e24a33;opacity:0.2;"/>
   </g>
   <g id="patch_65">
    <path clip-path="url(#p72ff95d52c)" d="M 251.06993 157.5 
L 252.804196 157.5 
L 252.804196 86.902597 
L 251.06993 86.902597 
z
" style="fill:#e24a33;opacity:0.2;"/>
   </g>
   <g id="patch_66">
    <path clip-path="url(#p72ff95d52c)" d="M 253.237762 157.5 
L 254.972028 157.5 
L 254.972028 98.668831 
L 253.237762 98.668831 
z
" style="fill:#e24a33;opacity:0.2;"/>
   </g>
   <g id="patch_67">
    <path clip-path="url(#p72ff95d52c)" d="M 255.405594 157.5 
L 257.13986 157.5 
L 257.13986 63.37013 
L 255.405594 63.37013 
z
" style="fill:#e24a33;opacity:0.2;"/>
   </g>
   <g id="patch_68">
    <path clip-path="url(#p72ff95d52c)" d="M 257.573427 157.5 
L 259.307692 157.5 
L 259.307692 98.668831 
L 257.573427 98.668831 
z
" style="fill:#e24a33;opacity:0.2;"/>
   </g>
   <g id="patch_69">
    <path clip-path="url(#p72ff95d52c)" d="M 259.741259 157.5 
L 261.475524 157.5 
L 261.475524 63.37013 
L 259.741259 63.37013 
z
" style="fill:#e24a33;opacity:0.2;"/>
   </g>
   <g id="patch_70">
    <path clip-path="url(#p72ff95d52c)" d="M 261.909091 157.5 
L 263.643357 157.5 
L 263.643357 86.902597 
L 261.909091 86.902597 
z
" style="fill:#e24a33;opacity:0.2;"/>
   </g>
   <g id="patch_71">
    <path clip-path="url(#p72ff95d52c)" d="M 264.076923 157.5 
L 265.811189 157.5 
L 265.811189 110.435065 
L 264.076923 110.435065 
z
" style="fill:#e24a33;opacity:0.2;"/>
   </g>
   <g id="patch_72">
    <path clip-path="url(#p72ff95d52c)" d="M 266.244755 157.5 
L 267.979021 157.5 
L 267.979021 122.201299 
L 266.244755 122.201299 
z
" style="fill:#e24a33;opacity:0.2;"/>
   </g>
   <g id="patch_73">
    <path clip-path="url(#p72ff95d52c)" d="M 268.412587 157.5 
L 270.146853 157.5 
L 270.146853 110.435065 
L 268.412587 110.435065 
z
" style="fill:#e24a33;opacity:0.2;"/>
   </g>
   <g id="patch_74">
    <path clip-path="url(#p72ff95d52c)" d="M 270.58042 157.5 
L 272.314685 157.5 
L 272.314685 98.668831 
L 270.58042 98.668831 
z
" style="fill:#e24a33;opacity:0.2;"/>
   </g>
   <g id="patch_75">
    <path clip-path="url(#p72ff95d52c)" d="M 272.748252 157.5 
L 274.482517 157.5 
L 274.482517 122.201299 
L 272.748252 122.201299 
z
" style="fill:#e24a33;opacity:0.2;"/>
   </g>
   <g id="patch_76">
    <path clip-path="url(#p72ff95d52c)" d="M 274.916084 157.5 
L 276.65035 157.5 
L 276.65035 86.902597 
L 274.916084 86.902597 
z
" style="fill:#e24a33;opacity:0.2;"/>
   </g>
   <g id="patch_77">
    <path clip-path="url(#p72ff95d52c)" d="M 277.083916 157.5 
L 278.818182 157.5 
L 278.818182 122.201299 
L 277.083916 122.201299 
z
" style="fill:#e24a33;opacity:0.2;"/>
   </g>
   <g id="patch_78">
    <path clip-path="url(#p72ff95d52c)" d="M 279.251748 157.5 
L 280.986014 157.5 
L 280.986014 86.902597 
L 279.251748 86.902597 
z
" style="fill:#e24a33;opacity:0.2;"/>
   </g>
   <g id="patch_79">
    <path clip-path="url(#p72ff95d52c)" d="M 281.41958 157.5 
L 283.153846 157.5 
L 283.153846 63.37013 
L 281.41958 63.37013 
z
" style="fill:#e24a33;opacity:0.2;"/>
   </g>
   <g id="patch_80">
    <path clip-path="url(#p72ff95d52c)" d="M 283.587413 157.5 
L 285.321678 157.5 
L 285.321678 110.435065 
L 283.587413 110.435065 
z
" style="fill:#e24a33;opacity:0.2;"/>
   </g>
   <g id="patch_81">
    <path clip-path="url(#p72ff95d52c)" d="M 285.755245 157.5 
L 287.48951 157.5 
L 287.48951 110.435065 
L 285.755245 110.435065 
z
" style="fill:#e24a33;opacity:0.2;"/>
   </g>
   <g id="patch_82">
    <path clip-path="url(#p72ff95d52c)" d="M 287.923077 157.5 
L 289.657343 157.5 
L 289.657343 122.201299 
L 287.923077 122.201299 
z
" style="fill:#e24a33;opacity:0.2;"/>
   </g>
   <g id="patch_83">
    <path clip-path="url(#p72ff95d52c)" d="M 290.090909 157.5 
L 291.825175 157.5 
L 291.825175 122.201299 
L 290.090909 122.201299 
z
" style="fill:#e24a33;opacity:0.2;"/>
   </g>
   <g id="patch_84">
    <path clip-path="url(#p72ff95d52c)" d="M 292.258741 157.5 
L 293.993007 157.5 
L 293.993007 122.201299 
L 292.258741 122.201299 
z
" style="fill:#e24a33;opacity:0.2;"/>
   </g>
   <g id="patch_85">
    <path clip-path="url(#p72ff95d52c)" d="M 294.426573 157.5 
L 296.160839 157.5 
L 296.160839 98.668831 
L 294.426573 98.668831 
z
" style="fill:#e24a33;opacity:0.2;"/>
   </g>
   <g id="patch_86">
    <path clip-path="url(#p72ff95d52c)" d="M 296.594406 157.5 
L 298.328671 157.5 
L 298.328671 122.201299 
L 296.594406 122.201299 
z
" style="fill:#e24a33;opacity:0.2;"/>
   </g>
   <g id="patch_87">
    <path clip-path="url(#p72ff95d52c)" d="M 298.762238 157.5 
L 300.496503 157.5 
L 300.496503 110.435065 
L 298.762238 110.435065 
z
" style="fill:#e24a33;opacity:0.2;"/>
   </g>
   <g id="patch_88">
    <path clip-path="url(#p72ff95d52c)" d="M 300.93007 157.5 
L 302.664336 157.5 
L 302.664336 145.733766 
L 300.93007 145.733766 
z
" style="fill:#e24a33;opacity:0.2;"/>
   </g>
   <g id="patch_89">
    <path clip-path="url(#p72ff95d52c)" d="M 303.097902 157.5 
L 304.832168 157.5 
L 304.832168 133.967532 
L 303.097902 133.967532 
z
" style="fill:#e24a33;opacity:0.2;"/>
   </g>
   <g id="patch_90">
    <path clip-path="url(#p72ff95d52c)" d="M 305.265734 157.5 
L 307 157.5 
L 307 133.967532 
L 305.265734 133.967532 
z
" style="fill:#e24a33;opacity:0.2;"/>
   </g>
   <g id="patch_91">
    <path clip-path="url(#p72ff95d52c)" d="M 307.433566 157.5 
L 309.167832 157.5 
L 309.167832 133.967532 
L 307.433566 133.967532 
z
" style="fill:#e24a33;opacity:0.2;"/>
   </g>
   <g id="patch_92">
    <path clip-path="url(#p72ff95d52c)" d="M 309.601399 157.5 
L 311.335664 157.5 
L 311.335664 145.733766 
L 309.601399 145.733766 
z
" style="fill:#e24a33;opacity:0.2;"/>
   </g>
   <g id="patch_93">
    <path clip-path="url(#p72ff95d52c)" d="M 311.769231 157.5 
L 313.503497 157.5 
L 313.503497 145.733766 
L 311.769231 145.733766 
z
" style="fill:#e24a33;opacity:0.2;"/>
   </g>
   <g id="patch_94">
    <path clip-path="url(#p72ff95d52c)" d="M 313.937063 157.5 
L 315.671329 157.5 
L 315.671329 133.967532 
L 313.937063 133.967532 
z
" style="fill:#e24a33;opacity:0.2;"/>
   </g>
   <g id="patch_95">
    <path clip-path="url(#p72ff95d52c)" d="M 316.104895 157.5 
L 317.839161 157.5 
L 317.839161 157.5 
L 316.104895 157.5 
z
" style="fill:#e24a33;opacity:0.2;"/>
   </g>
   <g id="patch_96">
    <path clip-path="url(#p72ff95d52c)" d="M 318.272727 157.5 
L 320.006993 157.5 
L 320.006993 133.967532 
L 318.272727 133.967532 
z
" style="fill:#e24a33;opacity:0.2;"/>
   </g>
   <g id="patch_97">
    <path clip-path="url(#p72ff95d52c)" d="M 320.440559 157.5 
L 322.174825 157.5 
L 322.174825 145.733766 
L 320.440559 145.733766 
z
" style="fill:#e24a33;opacity:0.2;"/>
   </g>
   <g id="patch_98">
    <path clip-path="url(#p72ff95d52c)" d="M 322.608392 157.5 
L 324.342657 157.5 
L 324.342657 145.733766 
L 322.608392 145.733766 
z
" style="fill:#e24a33;opacity:0.2;"/>
   </g>
   <g id="patch_99">
    <path clip-path="url(#p72ff95d52c)" d="M 324.776224 157.5 
L 326.51049 157.5 
L 326.51049 133.967532 
L 324.776224 133.967532 
z
" style="fill:#e24a33;opacity:0.2;"/>
   </g>
   <g id="patch_100">
    <path clip-path="url(#p72ff95d52c)" d="M 326.944056 157.5 
L 328.678322 157.5 
L 328.678322 145.733766 
L 326.944056 145.733766 
z
" style="fill:#e24a33;opacity:0.2;"/>
   </g>
   <g id="patch_101">
    <path clip-path="url(#p72ff95d52c)" d="M 329.111888 157.5 
L 330.846154 157.5 
L 330.846154 145.733766 
L 329.111888 145.733766 
z
" style="fill:#e24a33;opacity:0.2;"/>
   </g>
   <g id="patch_102">
    <path clip-path="url(#p72ff95d52c)" d="M 331.27972 157.5 
L 333.013986 157.5 
L 333.013986 133.967532 
L 331.27972 133.967532 
z
" style="fill:#e24a33;opacity:0.2;"/>
   </g>
   <g id="patch_103">
    <path clip-path="url(#p72ff95d52c)" d="M 333.447552 157.5 
L 335.181818 157.5 
L 335.181818 157.5 
L 333.447552 157.5 
z
" style="fill:#e24a33;opacity:0.2;"/>
   </g>
   <g id="patch_104">
    <path clip-path="url(#p72ff95d52c)" d="M 335.615385 157.5 
L 337.34965 157.5 
L 337.34965 133.967532 
L 335.615385 133.967532 
z
" style="fill:#e24a33;opacity:0.2;"/>
   </g>
   <g id="patch_105">
    <path clip-path="url(#p72ff95d52c)" d="M 337.783217 157.5 
L 339.517483 157.5 
L 339.517483 133.967532 
L 337.783217 133.967532 
z
" style="fill:#e24a33;opacity:0.2;"/>
   </g>
   <g id="patch_106">
    <path clip-path="url(#p72ff95d52c)" d="M 339.951049 157.5 
L 341.685315 157.5 
L 341.685315 145.733766 
L 339.951049 145.733766 
z
" style="fill:#e24a33;opacity:0.2;"/>
   </g>
   <g id="patch_107">
    <path clip-path="url(#p72ff95d52c)" d="M 342.118881 157.5 
L 343.853147 157.5 
L 343.853147 145.733766 
L 342.118881 145.733766 
z
" style="fill:#e24a33;opacity:0.2;"/>
   </g>
   <g id="patch_108">
    <path clip-path="url(#p72ff95d52c)" d="M 344.286713 157.5 
L 346.020979 157.5 
L 346.020979 157.5 
L 344.286713 157.5 
z
" style="fill:#e24a33;opacity:0.2;"/>
   </g>
   <g id="patch_109">
    <path clip-path="url(#p72ff95d52c)" d="M 346.454545 157.5 
L 348.188811 157.5 
L 348.188811 157.5 
L 346.454545 157.5 
z
" style="fill:#e24a33;opacity:0.2;"/>
   </g>
   <g id="patch_110">
    <path clip-path="url(#p72ff95d52c)" d="M 348.622378 157.5 
L 350.356643 157.5 
L 350.356643 157.5 
L 348.622378 157.5 
z
" style="fill:#e24a33;opacity:0.2;"/>
   </g>
   <g id="patch_111">
    <path clip-path="url(#p72ff95d52c)" d="M 350.79021 157.5 
L 352.524476 157.5 
L 352.524476 157.5 
L 350.79021 157.5 
z
" style="fill:#e24a33;opacity:0.2;"/>
   </g>
   <g id="patch_112">
    <path clip-path="url(#p72ff95d52c)" d="M 352.958042 157.5 
L 354.692308 157.5 
L 354.692308 133.967532 
L 352.958042 133.967532 
z
" style="fill:#e24a33;opacity:0.2;"/>
   </g>
   <g id="patch_113">
    <path clip-path="url(#p72ff95d52c)" d="M 355.125874 157.5 
L 356.86014 157.5 
L 356.86014 145.733766 
L 355.125874 145.733766 
z
" style="fill:#e24a33;opacity:0.2;"/>
   </g>
   <g id="patch_114">
    <path clip-path="url(#p72ff95d52c)" d="M 357.293706 157.5 
L 359.027972 157.5 
L 359.027972 145.733766 
L 357.293706 145.733766 
z
" style="fill:#e24a33;opacity:0.2;"/>
   </g>
   <g id="patch_115">
    <path clip-path="url(#p72ff95d52c)" d="M 359.461538 157.5 
L 361.195804 157.5 
L 361.195804 157.5 
L 359.461538 157.5 
z
" style="fill:#e24a33;opacity:0.2;"/>
   </g>
   <g id="patch_116">
    <path clip-path="url(#p72ff95d52c)" d="M 361.629371 157.5 
L 363.363636 157.5 
L 363.363636 133.967532 
L 361.629371 133.967532 
z
" style="fill:#e24a33;opacity:0.2;"/>
   </g>
   <g id="patch_117">
    <path clip-path="url(#p72ff95d52c)" d="M 363.797203 157.5 
L 365.531469 157.5 
L 365.531469 157.5 
L 363.797203 157.5 
z
" style="fill:#e24a33;opacity:0.2;"/>
   </g>
   <g id="patch_118">
    <path clip-path="url(#p72ff95d52c)" d="M 365.965035 157.5 
L 367.699301 157.5 
L 367.699301 145.733766 
L 365.965035 145.733766 
z
" style="fill:#e24a33;opacity:0.2;"/>
   </g>
   <g id="patch_119">
    <path clip-path="url(#p72ff95d52c)" d="M 368.132867 157.5 
L 369.867133 157.5 
L 369.867133 157.5 
L 368.132867 157.5 
z
" style="fill:#e24a33;opacity:0.2;"/>
   </g>
   <g id="patch_120">
    <path clip-path="url(#p72ff95d52c)" d="M 370.300699 157.5 
L 372.034965 157.5 
L 372.034965 157.5 
L 370.300699 157.5 
z
" style="fill:#e24a33;opacity:0.2;"/>
   </g>
   <g id="patch_121">
    <path clip-path="url(#p72ff95d52c)" d="M 372.468531 157.5 
L 374.202797 157.5 
L 374.202797 145.733766 
L 372.468531 145.733766 
z
" style="fill:#e24a33;opacity:0.2;"/>
   </g>
   <g id="patch_122">
    <path clip-path="url(#p72ff95d52c)" d="M 374.636364 157.5 
L 376.370629 157.5 
L 376.370629 157.5 
L 374.636364 157.5 
z
" style="fill:#e24a33;opacity:0.2;"/>
   </g>
   <g id="patch_123">
    <path clip-path="url(#p72ff95d52c)" d="M 376.804196 157.5 
L 378.538462 157.5 
L 378.538462 133.967532 
L 376.804196 133.967532 
z
" style="fill:#e24a33;opacity:0.2;"/>
   </g>
   <g id="patch_124">
    <path clip-path="url(#p72ff95d52c)" d="M 378.972028 157.5 
L 380.706294 157.5 
L 380.706294 157.5 
L 378.972028 157.5 
z
" style="fill:#e24a33;opacity:0.2;"/>
   </g>
   <g id="patch_125">
    <path clip-path="url(#p72ff95d52c)" d="M 381.13986 157.5 
L 382.874126 157.5 
L 382.874126 145.733766 
L 381.13986 145.733766 
z
" style="fill:#e24a33;opacity:0.2;"/>
   </g>
   <g id="patch_126">
    <path clip-path="url(#p72ff95d52c)" d="M 383.307692 157.5 
L 385.041958 157.5 
L 385.041958 133.967532 
L 383.307692 133.967532 
z
" style="fill:#e24a33;opacity:0.2;"/>
   </g>
   <g id="patch_127">
    <path clip-path="url(#p72ff95d52c)" d="M 385.475524 157.5 
L 387.20979 157.5 
L 387.20979 157.5 
L 385.475524 157.5 
z
" style="fill:#e24a33;opacity:0.2;"/>
   </g>
   <g id="patch_128">
    <path clip-path="url(#p72ff95d52c)" d="M 387.643357 157.5 
L 389.377622 157.5 
L 389.377622 157.5 
L 387.643357 157.5 
z
" style="fill:#e24a33;opacity:0.2;"/>
   </g>
   <g id="patch_129">
    <path clip-path="url(#p72ff95d52c)" d="M 389.811189 157.5 
L 391.545455 157.5 
L 391.545455 157.5 
L 389.811189 157.5 
z
" style="fill:#e24a33;opacity:0.2;"/>
   </g>
   <g id="patch_130">
    <path clip-path="url(#p72ff95d52c)" d="M 391.979021 157.5 
L 393.713287 157.5 
L 393.713287 157.5 
L 391.979021 157.5 
z
" style="fill:#e24a33;opacity:0.2;"/>
   </g>
   <g id="patch_131">
    <path clip-path="url(#p72ff95d52c)" d="M 394.146853 157.5 
L 395.881119 157.5 
L 395.881119 145.733766 
L 394.146853 145.733766 
z
" style="fill:#e24a33;opacity:0.2;"/>
   </g>
   <g id="patch_132">
    <path clip-path="url(#p72ff95d52c)" d="M 396.314685 157.5 
L 398.048951 157.5 
L 398.048951 145.733766 
L 396.314685 145.733766 
z
" style="fill:#e24a33;opacity:0.2;"/>
   </g>
   <g id="patch_133">
    <path clip-path="url(#p72ff95d52c)" d="M 398.482517 157.5 
L 400.216783 157.5 
L 400.216783 145.733766 
L 398.482517 145.733766 
z
" style="fill:#e24a33;opacity:0.2;"/>
   </g>
   <g id="patch_134">
    <path clip-path="url(#p72ff95d52c)" d="M 400.65035 157.5 
L 402.384615 157.5 
L 402.384615 145.733766 
L 400.65035 145.733766 
z
" style="fill:#e24a33;opacity:0.2;"/>
   </g>
   <g id="patch_135">
    <path clip-path="url(#p72ff95d52c)" d="M 402.818182 157.5 
L 404.552448 157.5 
L 404.552448 157.5 
L 402.818182 157.5 
z
" style="fill:#e24a33;opacity:0.2;"/>
   </g>
   <g id="patch_136">
    <path clip-path="url(#p72ff95d52c)" d="M 404.986014 157.5 
L 406.72028 157.5 
L 406.72028 157.5 
L 404.986014 157.5 
z
" style="fill:#e24a33;opacity:0.2;"/>
   </g>
   <g id="patch_137">
    <path clip-path="url(#p72ff95d52c)" d="M 407.153846 157.5 
L 408.888112 157.5 
L 408.888112 157.5 
L 407.153846 157.5 
z
" style="fill:#e24a33;opacity:0.2;"/>
   </g>
   <g id="patch_138">
    <path clip-path="url(#p72ff95d52c)" d="M 409.321678 157.5 
L 411.055944 157.5 
L 411.055944 157.5 
L 409.321678 157.5 
z
" style="fill:#e24a33;opacity:0.2;"/>
   </g>
   <g id="patch_139">
    <path clip-path="url(#p72ff95d52c)" d="M 411.48951 157.5 
L 413.223776 157.5 
L 413.223776 157.5 
L 411.48951 157.5 
z
" style="fill:#e24a33;opacity:0.2;"/>
   </g>
   <g id="patch_140">
    <path clip-path="url(#p72ff95d52c)" d="M 413.657343 157.5 
L 415.391608 157.5 
L 415.391608 145.733766 
L 413.657343 145.733766 
z
" style="fill:#e24a33;opacity:0.2;"/>
   </g>
   <g id="patch_141">
    <path clip-path="url(#p72ff95d52c)" d="M 415.825175 157.5 
L 417.559441 157.5 
L 417.559441 133.967532 
L 415.825175 133.967532 
z
" style="fill:#e24a33;opacity:0.2;"/>
   </g>
   <g id="patch_142">
    <path clip-path="url(#p72ff95d52c)" d="M 417.993007 157.5 
L 419.727273 157.5 
L 419.727273 157.5 
L 417.993007 157.5 
z
" style="fill:#e24a33;opacity:0.2;"/>
   </g>
   <g id="patch_143">
    <path clip-path="url(#p72ff95d52c)" d="M 420.160839 157.5 
L 421.895105 157.5 
L 421.895105 145.733766 
L 420.160839 145.733766 
z
" style="fill:#e24a33;opacity:0.2;"/>
   </g>
   <g id="patch_144">
    <path clip-path="url(#p72ff95d52c)" d="M 422.328671 157.5 
L 424.062937 157.5 
L 424.062937 157.5 
L 422.328671 157.5 
z
" style="fill:#e24a33;opacity:0.2;"/>
   </g>
   <g id="patch_145">
    <path clip-path="url(#p72ff95d52c)" d="M 424.496503 157.5 
L 426.230769 157.5 
L 426.230769 157.5 
L 424.496503 157.5 
z
" style="fill:#e24a33;opacity:0.2;"/>
   </g>
   <g id="patch_146">
    <path clip-path="url(#p72ff95d52c)" d="M 426.664336 157.5 
L 428.398601 157.5 
L 428.398601 157.5 
L 426.664336 157.5 
z
" style="fill:#e24a33;opacity:0.2;"/>
   </g>
   <g id="patch_147">
    <path clip-path="url(#p72ff95d52c)" d="M 428.832168 157.5 
L 430.566434 157.5 
L 430.566434 145.733766 
L 428.832168 145.733766 
z
" style="fill:#e24a33;opacity:0.2;"/>
   </g>
   <g id="patch_148">
    <path clip-path="url(#p72ff95d52c)" d="M 431 157.5 
L 432.734266 157.5 
L 432.734266 145.733766 
L 431 145.733766 
z
" style="fill:#e24a33;opacity:0.2;"/>
   </g>
   <g id="patch_149">
    <path clip-path="url(#p72ff95d52c)" d="M 433.167832 157.5 
L 434.902098 157.5 
L 434.902098 145.733766 
L 433.167832 145.733766 
z
" style="fill:#e24a33;opacity:0.2;"/>
   </g>
   <g id="patch_150">
    <path clip-path="url(#p72ff95d52c)" d="M 435.335664 157.5 
L 437.06993 157.5 
L 437.06993 157.5 
L 435.335664 157.5 
z
" style="fill:#e24a33;opacity:0.2;"/>
   </g>
   <g id="patch_151">
    <path clip-path="url(#p72ff95d52c)" d="M 437.503497 157.5 
L 439.237762 157.5 
L 439.237762 157.5 
L 437.503497 157.5 
z
" style="fill:#e24a33;opacity:0.2;"/>
   </g>
   <g id="patch_152">
    <path clip-path="url(#p72ff95d52c)" d="M 439.671329 157.5 
L 441.405594 157.5 
L 441.405594 157.5 
L 439.671329 157.5 
z
" style="fill:#e24a33;opacity:0.2;"/>
   </g>
   <g id="patch_153">
    <path clip-path="url(#p72ff95d52c)" d="M 441.839161 157.5 
L 443.573427 157.5 
L 443.573427 157.5 
L 441.839161 157.5 
z
" style="fill:#e24a33;opacity:0.2;"/>
   </g>
   <g id="patch_154">
    <path clip-path="url(#p72ff95d52c)" d="M 444.006993 157.5 
L 445.741259 157.5 
L 445.741259 145.733766 
L 444.006993 145.733766 
z
" style="fill:#e24a33;opacity:0.2;"/>
   </g>
   <g id="patch_155">
    <path clip-path="url(#p72ff95d52c)" d="M 446.174825 157.5 
L 447.909091 157.5 
L 447.909091 157.5 
L 446.174825 157.5 
z
" style="fill:#e24a33;opacity:0.2;"/>
   </g>
   <g id="patch_156">
    <path clip-path="url(#p72ff95d52c)" d="M 448.342657 157.5 
L 450.076923 157.5 
L 450.076923 145.733766 
L 448.342657 145.733766 
z
" style="fill:#e24a33;opacity:0.2;"/>
   </g>
   <g id="patch_157">
    <path clip-path="url(#p72ff95d52c)" d="M 450.51049 157.5 
L 452.244755 157.5 
L 452.244755 157.5 
L 450.51049 157.5 
z
" style="fill:#e24a33;opacity:0.2;"/>
   </g>
   <g id="patch_158">
    <path clip-path="url(#p72ff95d52c)" d="M 452.678322 157.5 
L 454.412587 157.5 
L 454.412587 157.5 
L 452.678322 157.5 
z
" style="fill:#e24a33;opacity:0.2;"/>
   </g>
   <g id="patch_159">
    <path clip-path="url(#p72ff95d52c)" d="M 454.846154 157.5 
L 456.58042 157.5 
L 456.58042 157.5 
L 454.846154 157.5 
z
" style="fill:#e24a33;opacity:0.2;"/>
   </g>
   <g id="patch_160">
    <path clip-path="url(#p72ff95d52c)" d="M 457.013986 157.5 
L 458.748252 157.5 
L 458.748252 157.5 
L 457.013986 157.5 
z
" style="fill:#e24a33;opacity:0.2;"/>
   </g>
   <g id="patch_161">
    <path clip-path="url(#p72ff95d52c)" d="M 459.181818 157.5 
L 460.916084 157.5 
L 460.916084 157.5 
L 459.181818 157.5 
z
" style="fill:#e24a33;opacity:0.2;"/>
   </g>
   <g id="patch_162">
    <path clip-path="url(#p72ff95d52c)" d="M 461.34965 157.5 
L 463.083916 157.5 
L 463.083916 157.5 
L 461.34965 157.5 
z
" style="fill:#e24a33;opacity:0.2;"/>
   </g>
   <g id="patch_163">
    <path clip-path="url(#p72ff95d52c)" d="M 463.517483 157.5 
L 465.251748 157.5 
L 465.251748 157.5 
L 463.517483 157.5 
z
" style="fill:#e24a33;opacity:0.2;"/>
   </g>
   <g id="patch_164">
    <path clip-path="url(#p72ff95d52c)" d="M 465.685315 157.5 
L 467.41958 157.5 
L 467.41958 157.5 
L 465.685315 157.5 
z
" style="fill:#e24a33;opacity:0.2;"/>
   </g>
   <g id="patch_165">
    <path clip-path="url(#p72ff95d52c)" d="M 467.853147 157.5 
L 469.587413 157.5 
L 469.587413 145.733766 
L 467.853147 145.733766 
z
" style="fill:#e24a33;opacity:0.2;"/>
   </g>
   <g id="patch_166">
    <path clip-path="url(#p72ff95d52c)" d="M 470.020979 157.5 
L 471.755245 157.5 
L 471.755245 157.5 
L 470.020979 157.5 
z
" style="fill:#e24a33;opacity:0.2;"/>
   </g>
   <g id="patch_167">
    <path clip-path="url(#p72ff95d52c)" d="M 472.188811 157.5 
L 473.923077 157.5 
L 473.923077 145.733766 
L 472.188811 145.733766 
z
" style="fill:#e24a33;opacity:0.2;"/>
   </g>
   <g id="patch_168">
    <path clip-path="url(#p72ff95d52c)" d="M 474.356643 157.5 
L 476.090909 157.5 
L 476.090909 145.733766 
L 474.356643 145.733766 
z
" style="fill:#e24a33;opacity:0.2;"/>
   </g>
   <g id="patch_169">
    <path clip-path="url(#p72ff95d52c)" d="M 476.524476 157.5 
L 478.258741 157.5 
L 478.258741 157.5 
L 476.524476 157.5 
z
" style="fill:#e24a33;opacity:0.2;"/>
   </g>
   <g id="patch_170">
    <path clip-path="url(#p72ff95d52c)" d="M 478.692308 157.5 
L 480.426573 157.5 
L 480.426573 133.967532 
L 478.692308 133.967532 
z
" style="fill:#e24a33;opacity:0.2;"/>
   </g>
   <g id="patch_171">
    <path clip-path="url(#p72ff95d52c)" d="M 480.86014 157.5 
L 482.594406 157.5 
L 482.594406 145.733766 
L 480.86014 145.733766 
z
" style="fill:#e24a33;opacity:0.2;"/>
   </g>
   <g id="patch_172">
    <path clip-path="url(#p72ff95d52c)" d="M 483.027972 157.5 
L 484.762238 157.5 
L 484.762238 157.5 
L 483.027972 157.5 
z
" style="fill:#e24a33;opacity:0.2;"/>
   </g>
   <g id="patch_173">
    <path clip-path="url(#p72ff95d52c)" d="M 485.195804 157.5 
L 486.93007 157.5 
L 486.93007 145.733766 
L 485.195804 145.733766 
z
" style="fill:#e24a33;opacity:0.2;"/>
   </g>
   <g id="patch_174">
    <path clip-path="url(#p72ff95d52c)" d="M 487.363636 157.5 
L 489.097902 157.5 
L 489.097902 157.5 
L 487.363636 157.5 
z
" style="fill:#e24a33;opacity:0.2;"/>
   </g>
   <g id="patch_175">
    <path clip-path="url(#p72ff95d52c)" d="M 489.531469 157.5 
L 491.265734 157.5 
L 491.265734 157.5 
L 489.531469 157.5 
z
" style="fill:#e24a33;opacity:0.2;"/>
   </g>
   <g id="patch_176">
    <path clip-path="url(#p72ff95d52c)" d="M 491.699301 157.5 
L 493.433566 157.5 
L 493.433566 157.5 
L 491.699301 157.5 
z
" style="fill:#e24a33;opacity:0.2;"/>
   </g>
   <g id="patch_177">
    <path clip-path="url(#p72ff95d52c)" d="M 493.867133 157.5 
L 495.601399 157.5 
L 495.601399 133.967532 
L 493.867133 133.967532 
z
" style="fill:#e24a33;opacity:0.2;"/>
   </g>
   <g id="patch_178">
    <path clip-path="url(#p72ff95d52c)" d="M 496.034965 157.5 
L 497.769231 157.5 
L 497.769231 133.967532 
L 496.034965 133.967532 
z
" style="fill:#e24a33;opacity:0.2;"/>
   </g>
   <g id="patch_179">
    <path clip-path="url(#p72ff95d52c)" d="M 498.202797 157.5 
L 499.937063 157.5 
L 499.937063 145.733766 
L 498.202797 145.733766 
z
" style="fill:#e24a33;opacity:0.2;"/>
   </g>
   <g id="patch_180">
    <path clip-path="url(#p72ff95d52c)" d="M 500.370629 157.5 
L 502.104895 157.5 
L 502.104895 145.733766 
L 500.370629 145.733766 
z
" style="fill:#e24a33;opacity:0.2;"/>
   </g>
   <g id="patch_181">
    <path clip-path="url(#p72ff95d52c)" d="M 502.538462 157.5 
L 504.272727 157.5 
L 504.272727 145.733766 
L 502.538462 145.733766 
z
" style="fill:#e24a33;opacity:0.2;"/>
   </g>
   <g id="patch_182">
    <path clip-path="url(#p72ff95d52c)" d="M 504.706294 157.5 
L 506.440559 157.5 
L 506.440559 157.5 
L 504.706294 157.5 
z
" style="fill:#e24a33;opacity:0.2;"/>
   </g>
   <g id="patch_183">
    <path clip-path="url(#p72ff95d52c)" d="M 506.874126 157.5 
L 508.608392 157.5 
L 508.608392 145.733766 
L 506.874126 145.733766 
z
" style="fill:#e24a33;opacity:0.2;"/>
   </g>
   <g id="patch_184">
    <path clip-path="url(#p72ff95d52c)" d="M 509.041958 157.5 
L 510.776224 157.5 
L 510.776224 157.5 
L 509.041958 157.5 
z
" style="fill:#e24a33;opacity:0.2;"/>
   </g>
   <g id="patch_185">
    <path clip-path="url(#p72ff95d52c)" d="M 511.20979 157.5 
L 512.944056 157.5 
L 512.944056 145.733766 
L 511.20979 145.733766 
z
" style="fill:#e24a33;opacity:0.2;"/>
   </g>
   <g id="patch_186">
    <path clip-path="url(#p72ff95d52c)" d="M 513.377622 157.5 
L 515.111888 157.5 
L 515.111888 157.5 
L 513.377622 157.5 
z
" style="fill:#e24a33;opacity:0.2;"/>
   </g>
   <g id="patch_187">
    <path clip-path="url(#p72ff95d52c)" d="M 515.545455 157.5 
L 517.27972 157.5 
L 517.27972 157.5 
L 515.545455 157.5 
z
" style="fill:#e24a33;opacity:0.2;"/>
   </g>
   <g id="patch_188">
    <path clip-path="url(#p72ff95d52c)" d="M 517.713287 157.5 
L 519.447552 157.5 
L 519.447552 145.733766 
L 517.713287 145.733766 
z
" style="fill:#e24a33;opacity:0.2;"/>
   </g>
   <g id="patch_189">
    <path clip-path="url(#p72ff95d52c)" d="M 519.881119 157.5 
L 521.615385 157.5 
L 521.615385 145.733766 
L 519.881119 145.733766 
z
" style="fill:#e24a33;opacity:0.2;"/>
   </g>
   <g id="patch_190">
    <path clip-path="url(#p72ff95d52c)" d="M 522.048951 157.5 
L 523.783217 157.5 
L 523.783217 157.5 
L 522.048951 157.5 
z
" style="fill:#e24a33;opacity:0.2;"/>
   </g>
   <g id="patch_191">
    <path clip-path="url(#p72ff95d52c)" d="M 524.216783 157.5 
L 525.951049 157.5 
L 525.951049 157.5 
L 524.216783 157.5 
z
" style="fill:#e24a33;opacity:0.2;"/>
   </g>
   <g id="patch_192">
    <path clip-path="url(#p72ff95d52c)" d="M 526.384615 157.5 
L 528.118881 157.5 
L 528.118881 145.733766 
L 526.384615 145.733766 
z
" style="fill:#e24a33;opacity:0.2;"/>
   </g>
   <g id="patch_193">
    <path clip-path="url(#p72ff95d52c)" d="M 528.552448 157.5 
L 530.286713 157.5 
L 530.286713 157.5 
L 528.552448 157.5 
z
" style="fill:#e24a33;opacity:0.2;"/>
   </g>
   <g id="patch_194">
    <path clip-path="url(#p72ff95d52c)" d="M 530.72028 157.5 
L 532.454545 157.5 
L 532.454545 157.5 
L 530.72028 157.5 
z
" style="fill:#e24a33;opacity:0.2;"/>
   </g>
   <g id="patch_195">
    <path clip-path="url(#p72ff95d52c)" d="M 532.888112 157.5 
L 534.622378 157.5 
L 534.622378 157.5 
L 532.888112 157.5 
z
" style="fill:#e24a33;opacity:0.2;"/>
   </g>
   <g id="patch_196">
    <path clip-path="url(#p72ff95d52c)" d="M 535.055944 157.5 
L 536.79021 157.5 
L 536.79021 157.5 
L 535.055944 157.5 
z
" style="fill:#e24a33;opacity:0.2;"/>
   </g>
   <g id="patch_197">
    <path clip-path="url(#p72ff95d52c)" d="M 537.223776 157.5 
L 538.958042 157.5 
L 538.958042 145.733766 
L 537.223776 145.733766 
z
" style="fill:#e24a33;opacity:0.2;"/>
   </g>
   <g id="patch_198">
    <path clip-path="url(#p72ff95d52c)" d="M 539.391608 157.5 
L 541.125874 157.5 
L 541.125874 157.5 
L 539.391608 157.5 
z
" style="fill:#e24a33;opacity:0.2;"/>
   </g>
   <g id="patch_199">
    <path clip-path="url(#p72ff95d52c)" d="M 541.559441 157.5 
L 543.293706 157.5 
L 543.293706 145.733766 
L 541.559441 145.733766 
z
" style="fill:#e24a33;opacity:0.2;"/>
   </g>
   <g id="patch_200">
    <path clip-path="url(#p72ff95d52c)" d="M 543.727273 157.5 
L 545.461538 157.5 
L 545.461538 145.733766 
L 543.727273 145.733766 
z
" style="fill:#e24a33;opacity:0.2;"/>
   </g>
   <g id="patch_201">
    <path clip-path="url(#p72ff95d52c)" d="M 545.895105 157.5 
L 547.629371 157.5 
L 547.629371 145.733766 
L 545.895105 145.733766 
z
" style="fill:#e24a33;opacity:0.2;"/>
   </g>
   <g id="patch_202">
    <path clip-path="url(#p72ff95d52c)" d="M 548.062937 157.5 
L 549.797203 157.5 
L 549.797203 157.5 
L 548.062937 157.5 
z
" style="fill:#e24a33;opacity:0.2;"/>
   </g>
   <g id="patch_203">
    <path clip-path="url(#p72ff95d52c)" d="M 550.230769 157.5 
L 551.965035 157.5 
L 551.965035 157.5 
L 550.230769 157.5 
z
" style="fill:#e24a33;opacity:0.2;"/>
   </g>
   <g id="patch_204">
    <path clip-path="url(#p72ff95d52c)" d="M 552.398601 157.5 
L 554.132867 157.5 
L 554.132867 157.5 
L 552.398601 157.5 
z
" style="fill:#e24a33;opacity:0.2;"/>
   </g>
   <g id="patch_205">
    <path clip-path="url(#p72ff95d52c)" d="M 554.566434 157.5 
L 556.300699 157.5 
L 556.300699 157.5 
L 554.566434 157.5 
z
" style="fill:#e24a33;opacity:0.2;"/>
   </g>
   <g id="patch_206">
    <path clip-path="url(#p72ff95d52c)" d="M 556.734266 157.5 
L 558.468531 157.5 
L 558.468531 157.5 
L 556.734266 157.5 
z
" style="fill:#e24a33;opacity:0.2;"/>
   </g>
   <g id="patch_207">
    <path clip-path="url(#p72ff95d52c)" d="M 558.902098 157.5 
L 560.636364 157.5 
L 560.636364 157.5 
L 558.902098 157.5 
z
" style="fill:#e24a33;opacity:0.2;"/>
   </g>
   <g id="patch_208">
    <path clip-path="url(#p72ff95d52c)" d="M 561.06993 157.5 
L 562.804196 157.5 
L 562.804196 157.5 
L 561.06993 157.5 
z
" style="fill:#e24a33;opacity:0.2;"/>
   </g>
   <g id="patch_209">
    <path clip-path="url(#p72ff95d52c)" d="M 563.237762 157.5 
L 564.972028 157.5 
L 564.972028 157.5 
L 563.237762 157.5 
z
" style="fill:#e24a33;opacity:0.2;"/>
   </g>
   <g id="patch_210">
    <path clip-path="url(#p72ff95d52c)" d="M 565.405594 157.5 
L 567.13986 157.5 
L 567.13986 145.733766 
L 565.405594 145.733766 
z
" style="fill:#e24a33;opacity:0.2;"/>
   </g>
   <g id="patch_211">
    <path clip-path="url(#p72ff95d52c)" d="M 567.573427 157.5 
L 569.307692 157.5 
L 569.307692 157.5 
L 567.573427 157.5 
z
" style="fill:#e24a33;opacity:0.2;"/>
   </g>
   <g id="patch_212">
    <path clip-path="url(#p72ff95d52c)" d="M 569.741259 157.5 
L 571.475524 157.5 
L 571.475524 145.733766 
L 569.741259 145.733766 
z
" style="fill:#e24a33;opacity:0.2;"/>
   </g>
   <g id="patch_213">
    <path clip-path="url(#p72ff95d52c)" d="M 571.909091 157.5 
L 573.643357 157.5 
L 573.643357 133.967532 
L 571.909091 133.967532 
z
" style="fill:#e24a33;opacity:0.2;"/>
   </g>
   <g id="patch_214">
    <path clip-path="url(#p72ff95d52c)" d="M 574.076923 157.5 
L 575.811189 157.5 
L 575.811189 157.5 
L 574.076923 157.5 
z
" style="fill:#e24a33;opacity:0.2;"/>
   </g>
   <g id="patch_215">
    <path clip-path="url(#p72ff95d52c)" d="M 576.244755 157.5 
L 577.979021 157.5 
L 577.979021 157.5 
L 576.244755 157.5 
z
" style="fill:#e24a33;opacity:0.2;"/>
   </g>
   <g id="patch_216">
    <path clip-path="url(#p72ff95d52c)" d="M 578.412587 157.5 
L 580.146853 157.5 
L 580.146853 157.5 
L 578.412587 157.5 
z
" style="fill:#e24a33;opacity:0.2;"/>
   </g>
   <g id="patch_217">
    <path clip-path="url(#p72ff95d52c)" d="M 580.58042 157.5 
L 582.314685 157.5 
L 582.314685 145.733766 
L 580.58042 145.733766 
z
" style="fill:#e24a33;opacity:0.2;"/>
   </g>
   <g id="patch_218">
    <path clip-path="url(#p72ff95d52c)" d="M 582.748252 157.5 
L 584.482517 157.5 
L 584.482517 133.967532 
L 582.748252 133.967532 
z
" style="fill:#e24a33;opacity:0.2;"/>
   </g>
   <g id="patch_219">
    <path clip-path="url(#p72ff95d52c)" d="M 584.916084 157.5 
L 586.65035 157.5 
L 586.65035 145.733766 
L 584.916084 145.733766 
z
" style="fill:#e24a33;opacity:0.2;"/>
   </g>
   <g id="patch_220">
    <path clip-path="url(#p72ff95d52c)" d="M 587.083916 157.5 
L 588.818182 157.5 
L 588.818182 122.201299 
L 587.083916 122.201299 
z
" style="fill:#e24a33;opacity:0.2;"/>
   </g>
   <g id="patch_221">
    <path clip-path="url(#p72ff95d52c)" d="M 589.251748 157.5 
L 590.986014 157.5 
L 590.986014 98.668831 
L 589.251748 98.668831 
z
" style="fill:#e24a33;opacity:0.2;"/>
   </g>
   <g id="patch_222">
    <path clip-path="url(#p72ff95d52c)" d="M 591.41958 157.5 
L 593.153846 157.5 
L 593.153846 133.967532 
L 591.41958 133.967532 
z
" style="fill:#e24a33;opacity:0.2;"/>
   </g>
   <g id="patch_223">
    <path clip-path="url(#p72ff95d52c)" d="M 593.587413 157.5 
L 595.321678 157.5 
L 595.321678 145.733766 
L 593.587413 145.733766 
z
" style="fill:#e24a33;opacity:0.2;"/>
   </g>
   <g id="patch_224">
    <path clip-path="url(#p72ff95d52c)" d="M 595.755245 157.5 
L 597.48951 157.5 
L 597.48951 157.5 
L 595.755245 157.5 
z
" style="fill:#e24a33;opacity:0.2;"/>
   </g>
   <g id="patch_225">
    <path clip-path="url(#p72ff95d52c)" d="M 597.923077 157.5 
L 599.657343 157.5 
L 599.657343 133.967532 
L 597.923077 133.967532 
z
" style="fill:#e24a33;opacity:0.2;"/>
   </g>
   <g id="patch_226">
    <path clip-path="url(#p72ff95d52c)" d="M 600.090909 157.5 
L 601.825175 157.5 
L 601.825175 122.201299 
L 600.090909 122.201299 
z
" style="fill:#e24a33;opacity:0.2;"/>
   </g>
   <g id="patch_227">
    <path clip-path="url(#p72ff95d52c)" d="M 602.258741 157.5 
L 603.993007 157.5 
L 603.993007 133.967532 
L 602.258741 133.967532 
z
" style="fill:#e24a33;opacity:0.2;"/>
   </g>
   <g id="patch_228">
    <path clip-path="url(#p72ff95d52c)" d="M 604.426573 157.5 
L 606.160839 157.5 
L 606.160839 133.967532 
L 604.426573 133.967532 
z
" style="fill:#e24a33;opacity:0.2;"/>
   </g>
   <g id="patch_229">
    <path clip-path="url(#p72ff95d52c)" d="M 606.594406 157.5 
L 608.328671 157.5 
L 608.328671 145.733766 
L 606.594406 145.733766 
z
" style="fill:#e24a33;opacity:0.2;"/>
   </g>
   <g id="patch_230">
    <path clip-path="url(#p72ff95d52c)" d="M 608.762238 157.5 
L 610.496503 157.5 
L 610.496503 133.967532 
L 608.762238 133.967532 
z
" style="fill:#e24a33;opacity:0.2;"/>
   </g>
   <g id="patch_231">
    <path clip-path="url(#p72ff95d52c)" d="M 610.93007 157.5 
L 612.664336 157.5 
L 612.664336 98.668831 
L 610.93007 98.668831 
z
" style="fill:#e24a33;opacity:0.2;"/>
   </g>
   <g id="patch_232">
    <path clip-path="url(#p72ff95d52c)" d="M 613.097902 157.5 
L 614.832168 157.5 
L 614.832168 122.201299 
L 613.097902 122.201299 
z
" style="fill:#e24a33;opacity:0.2;"/>
   </g>
   <g id="patch_233">
    <path clip-path="url(#p72ff95d52c)" d="M 615.265734 157.5 
L 617 157.5 
L 617 133.967532 
L 615.265734 133.967532 
z
" style="fill:#e24a33;opacity:0.2;"/>
   </g>
   <g id="patch_234">
    <path clip-path="url(#p72ff95d52c)" d="M 617.433566 157.5 
L 619.167832 157.5 
L 619.167832 110.435065 
L 617.433566 110.435065 
z
" style="fill:#e24a33;opacity:0.2;"/>
   </g>
   <g id="patch_235">
    <path clip-path="url(#p72ff95d52c)" d="M 619.601399 157.5 
L 621.335664 157.5 
L 621.335664 98.668831 
L 619.601399 98.668831 
z
" style="fill:#e24a33;opacity:0.2;"/>
   </g>
   <g id="patch_236">
    <path clip-path="url(#p72ff95d52c)" d="M 621.769231 157.5 
L 623.503497 157.5 
L 623.503497 122.201299 
L 621.769231 122.201299 
z
" style="fill:#e24a33;opacity:0.2;"/>
   </g>
   <g id="line2d_35">
    <path clip-path="url(#p72ff95d52c)" d="M 117.531469 157.5 
L 163.055944 157.394154 
L 167.391608 156.76983 
L 169.559441 155.896737 
L 171.727273 154.559398 
L 173.895105 152.709736 
L 176.062937 150.349501 
L 182.566434 142.619911 
L 184.734266 140.636153 
L 186.902098 138.141965 
L 189.06993 136.157192 
L 193.405594 131.344277 
L 195.573427 128.166976 
L 197.741259 124.746955 
L 199.909091 120.669599 
L 202.076923 117.601033 
L 204.244755 114.727424 
L 206.412587 113.29832 
L 208.58042 111.701682 
L 212.916084 111.280795 
L 215.083916 111.943766 
L 219.41958 113.643883 
L 223.755245 114.490782 
L 228.090909 114.57667 
L 230.258741 112.985462 
L 232.426573 111.133941 
L 234.594406 108.231632 
L 236.762238 104.471836 
L 238.93007 101.107598 
L 241.097902 97.093621 
L 243.265734 93.672834 
L 247.601399 88.504313 
L 249.769231 87.146226 
L 251.937063 86.432096 
L 254.104895 86.528013 
L 256.272727 87.586087 
L 258.440559 89.174487 
L 260.608392 91.787397 
L 264.944056 97.68436 
L 267.111888 100.397829 
L 269.27972 102.029562 
L 271.447552 102.863639 
L 273.615385 103.05995 
L 275.783217 102.951727 
L 277.951049 102.713856 
L 280.118881 102.670065 
L 282.286713 103.337164 
L 284.454545 104.773436 
L 286.622378 107.252129 
L 290.958042 112.905809 
L 295.293706 118.834663 
L 301.797203 128.2167 
L 303.965035 131.225533 
L 308.300699 136.576146 
L 310.468531 138.719981 
L 312.636364 140.405102 
L 314.804196 141.535969 
L 316.972028 142.10575 
L 319.13986 142.509376 
L 321.307692 142.665847 
L 325.643357 142.551308 
L 327.811189 142.385899 
L 329.979021 142.42783 
L 334.314685 143.170924 
L 338.65035 145.132441 
L 345.153846 148.723154 
L 347.321678 149.416724 
L 349.48951 149.728418 
L 358.160839 148.837607 
L 360.328671 148.861083 
L 362.496503 149.06369 
L 364.664336 149.390399 
L 366.832168 149.890109 
L 369 150.091049 
L 371.167832 150.146582 
L 373.335664 149.945954 
L 375.503497 149.615015 
L 379.839161 149.480864 
L 382.006993 149.582168 
L 386.342657 150.21634 
L 388.51049 150.652136 
L 390.678322 150.964142 
L 397.181818 151.350449 
L 403.685315 152.195323 
L 405.853147 152.384329 
L 408.020979 152.43433 
L 410.188811 152.333027 
L 412.356643 152.107933 
L 416.692308 151.456295 
L 418.86014 151.194602 
L 423.195804 151.281992 
L 431.867133 152.251168 
L 440.538462 153.426505 
L 444.874126 153.98206 
L 449.20979 154.71223 
L 455.713287 155.800654 
L 457.881119 155.95227 
L 460.048951 155.846424 
L 462.216783 155.538649 
L 464.384615 154.789857 
L 468.72028 152.650565 
L 470.888112 151.452064 
L 473.055944 150.487118 
L 475.223776 149.779947 
L 477.391608 149.394464 
L 481.727273 149.301707 
L 486.062937 149.421944 
L 490.398601 148.727696 
L 494.734266 147.3828 
L 496.902098 146.975022 
L 499.06993 146.900244 
L 501.237762 147.286038 
L 505.573427 148.783541 
L 509.909091 150.597593 
L 512.076923 151.377763 
L 514.244755 151.832015 
L 522.916084 152.975806 
L 527.251748 153.670054 
L 529.41958 153.821671 
L 531.587413 153.751912 
L 533.755245 153.508363 
L 540.258741 152.218322 
L 542.426573 152.080619 
L 544.594406 152.223854 
L 546.762238 152.687476 
L 553.265734 154.983094 
L 555.433566 155.484105 
L 557.601399 155.478573 
L 559.769231 155.170798 
L 561.937063 154.533385 
L 566.272727 152.773877 
L 568.440559 151.76308 
L 572.776224 149.945954 
L 574.944056 148.561775 
L 577.111888 146.848203 
L 579.27972 144.668592 
L 585.783217 137.538548 
L 587.951049 135.644107 
L 590.118881 134.420437 
L 592.286713 133.909662 
L 594.454545 134.145388 
L 596.622378 134.217483 
L 598.79021 134.077695 
L 600.958042 133.634985 
L 603.125874 132.70458 
L 605.293706 131.286956 
L 607.461538 129.230345 
L 611.797203 123.999011 
L 613.965035 121.647002 
L 616.132867 120.15034 
L 620.468531 117.665019 
L 622.636364 116.791068 
L 622.636364 116.791068 
" style="fill:none;stroke:#e24a33;stroke-linecap:square;stroke-width:3;"/>
   </g>
   <g id="patch_237">
    <path d="M 90 157.5 
L 90 21.6 
" style="fill:none;stroke:#ffffff;stroke-linecap:square;stroke-linejoin:miter;"/>
   </g>
   <g id="patch_238">
    <path d="M 648 157.5 
L 648 21.6 
" style="fill:none;stroke:#ffffff;stroke-linecap:square;stroke-linejoin:miter;"/>
   </g>
   <g id="patch_239">
    <path d="M 90 157.5 
L 648 157.5 
" style="fill:none;stroke:#ffffff;stroke-linecap:square;stroke-linejoin:miter;"/>
   </g>
   <g id="patch_240">
    <path d="M 90 21.6 
L 648 21.6 
" style="fill:none;stroke:#ffffff;stroke-linecap:square;stroke-linejoin:miter;"/>
   </g>
   <g id="legend_1">
    <g id="patch_241">
     <path d="M 394.682812 58.95625 
L 641 58.95625 
Q 643 58.95625 643 56.95625 
L 643 28.6 
Q 643 26.6 641 26.6 
L 394.682812 26.6 
Q 392.682812 26.6 392.682812 28.6 
L 392.682812 56.95625 
Q 392.682812 58.95625 394.682812 58.95625 
z
" style="fill:#e5e5e5;opacity:0.8;stroke:#cccccc;stroke-linejoin:miter;stroke-width:0.5;"/>
    </g>
    <g id="line2d_36">
     <path d="M 396.682812 34.698438 
L 416.682812 34.698438 
" style="fill:none;stroke:#e24a33;stroke-linecap:square;stroke-width:3;"/>
    </g>
    <g id="line2d_37"/>
    <g id="text_22">
     <!-- Korea, South new deaths (rolling 7d mean) -->
     <defs>
      <path d="M 9.8125 72.90625 
L 19.671875 72.90625 
L 19.671875 42.09375 
L 52.390625 72.90625 
L 65.09375 72.90625 
L 28.90625 38.921875 
L 67.671875 0 
L 54.6875 0 
L 19.671875 35.109375 
L 19.671875 0 
L 9.8125 0 
z
" id="DejaVuSans-75"/>
      <path d="M 30.609375 48.390625 
Q 23.390625 48.390625 19.1875 42.75 
Q 14.984375 37.109375 14.984375 27.296875 
Q 14.984375 17.484375 19.15625 11.84375 
Q 23.34375 6.203125 30.609375 6.203125 
Q 37.796875 6.203125 41.984375 11.859375 
Q 46.1875 17.53125 46.1875 27.296875 
Q 46.1875 37.015625 41.984375 42.703125 
Q 37.796875 48.390625 30.609375 48.390625 
z
M 30.609375 56 
Q 42.328125 56 49.015625 48.375 
Q 55.71875 40.765625 55.71875 27.296875 
Q 55.71875 13.875 49.015625 6.21875 
Q 42.328125 -1.421875 30.609375 -1.421875 
Q 18.84375 -1.421875 12.171875 6.21875 
Q 5.515625 13.875 5.515625 27.296875 
Q 5.515625 40.765625 12.171875 48.375 
Q 18.84375 56 30.609375 56 
z
" id="DejaVuSans-111"/>
      <path d="M 41.109375 46.296875 
Q 39.59375 47.171875 37.8125 47.578125 
Q 36.03125 48 33.890625 48 
Q 26.265625 48 22.1875 43.046875 
Q 18.109375 38.09375 18.109375 28.8125 
L 18.109375 0 
L 9.078125 0 
L 9.078125 54.6875 
L 18.109375 54.6875 
L 18.109375 46.1875 
Q 20.953125 51.171875 25.484375 53.578125 
Q 30.03125 56 36.53125 56 
Q 37.453125 56 38.578125 55.875 
Q 39.703125 55.765625 41.0625 55.515625 
z
" id="DejaVuSans-114"/>
      <path d="M 11.71875 12.40625 
L 22.015625 12.40625 
L 22.015625 4 
L 14.015625 -11.625 
L 7.71875 -11.625 
L 11.71875 4 
z
" id="DejaVuSans-44"/>
      <path d="M 53.515625 70.515625 
L 53.515625 60.890625 
Q 47.90625 63.578125 42.921875 64.890625 
Q 37.9375 66.21875 33.296875 66.21875 
Q 25.25 66.21875 20.875 63.09375 
Q 16.5 59.96875 16.5 54.203125 
Q 16.5 49.359375 19.40625 46.890625 
Q 22.3125 44.4375 30.421875 42.921875 
L 36.375 41.703125 
Q 47.40625 39.59375 52.65625 34.296875 
Q 57.90625 29 57.90625 20.125 
Q 57.90625 9.515625 50.796875 4.046875 
Q 43.703125 -1.421875 29.984375 -1.421875 
Q 24.8125 -1.421875 18.96875 -0.25 
Q 13.140625 0.921875 6.890625 3.21875 
L 6.890625 13.375 
Q 12.890625 10.015625 18.65625 8.296875 
Q 24.421875 6.59375 29.984375 6.59375 
Q 38.421875 6.59375 43.015625 9.90625 
Q 47.609375 13.234375 47.609375 19.390625 
Q 47.609375 24.75 44.3125 27.78125 
Q 41.015625 30.8125 33.5 32.328125 
L 27.484375 33.5 
Q 16.453125 35.6875 11.515625 40.375 
Q 6.59375 45.0625 6.59375 53.421875 
Q 6.59375 63.09375 13.40625 68.65625 
Q 20.21875 74.21875 32.171875 74.21875 
Q 37.3125 74.21875 42.625 73.28125 
Q 47.953125 72.359375 53.515625 70.515625 
z
" id="DejaVuSans-83"/>
      <path d="M 8.5 21.578125 
L 8.5 54.6875 
L 17.484375 54.6875 
L 17.484375 21.921875 
Q 17.484375 14.15625 20.5 10.265625 
Q 23.53125 6.390625 29.59375 6.390625 
Q 36.859375 6.390625 41.078125 11.03125 
Q 45.3125 15.671875 45.3125 23.6875 
L 45.3125 54.6875 
L 54.296875 54.6875 
L 54.296875 0 
L 45.3125 0 
L 45.3125 8.40625 
Q 42.046875 3.421875 37.71875 1 
Q 33.40625 -1.421875 27.6875 -1.421875 
Q 18.265625 -1.421875 13.375 4.4375 
Q 8.5 10.296875 8.5 21.578125 
z
M 31.109375 56 
z
" id="DejaVuSans-117"/>
      <path d="M 18.3125 70.21875 
L 18.3125 54.6875 
L 36.8125 54.6875 
L 36.8125 47.703125 
L 18.3125 47.703125 
L 18.3125 18.015625 
Q 18.3125 11.328125 20.140625 9.421875 
Q 21.96875 7.515625 27.59375 7.515625 
L 36.8125 7.515625 
L 36.8125 0 
L 27.59375 0 
Q 17.1875 0 13.234375 3.875 
Q 9.28125 7.765625 9.28125 18.015625 
L 9.28125 47.703125 
L 2.6875 47.703125 
L 2.6875 54.6875 
L 9.28125 54.6875 
L 9.28125 70.21875 
z
" id="DejaVuSans-116"/>
      <path d="M 4.203125 54.6875 
L 13.1875 54.6875 
L 24.421875 12.015625 
L 35.59375 54.6875 
L 46.1875 54.6875 
L 57.421875 12.015625 
L 68.609375 54.6875 
L 77.59375 54.6875 
L 63.28125 0 
L 52.6875 0 
L 40.921875 44.828125 
L 29.109375 0 
L 18.5 0 
z
" id="DejaVuSans-119"/>
      <path d="M 44.28125 53.078125 
L 44.28125 44.578125 
Q 40.484375 46.53125 36.375 47.5 
Q 32.28125 48.484375 27.875 48.484375 
Q 21.1875 48.484375 17.84375 46.4375 
Q 14.5 44.390625 14.5 40.28125 
Q 14.5 37.15625 16.890625 35.375 
Q 19.28125 33.59375 26.515625 31.984375 
L 29.59375 31.296875 
Q 39.15625 29.25 43.1875 25.515625 
Q 47.21875 21.78125 47.21875 15.09375 
Q 47.21875 7.46875 41.1875 3.015625 
Q 35.15625 -1.421875 24.609375 -1.421875 
Q 20.21875 -1.421875 15.453125 -0.5625 
Q 10.6875 0.296875 5.421875 2 
L 5.421875 11.28125 
Q 10.40625 8.6875 15.234375 7.390625 
Q 20.0625 6.109375 24.8125 6.109375 
Q 31.15625 6.109375 34.5625 8.28125 
Q 37.984375 10.453125 37.984375 14.40625 
Q 37.984375 18.0625 35.515625 20.015625 
Q 33.0625 21.96875 24.703125 23.78125 
L 21.578125 24.515625 
Q 13.234375 26.265625 9.515625 29.90625 
Q 5.8125 33.546875 5.8125 39.890625 
Q 5.8125 47.609375 11.28125 51.796875 
Q 16.75 56 26.8125 56 
Q 31.78125 56 36.171875 55.265625 
Q 40.578125 54.546875 44.28125 53.078125 
z
" id="DejaVuSans-115"/>
      <path d="M 31 75.875 
Q 24.46875 64.65625 21.28125 53.65625 
Q 18.109375 42.671875 18.109375 31.390625 
Q 18.109375 20.125 21.3125 9.0625 
Q 24.515625 -2 31 -13.1875 
L 23.1875 -13.1875 
Q 15.875 -1.703125 12.234375 9.375 
Q 8.59375 20.453125 8.59375 31.390625 
Q 8.59375 42.28125 12.203125 53.3125 
Q 15.828125 64.359375 23.1875 75.875 
z
" id="DejaVuSans-40"/>
      <path d="M 52 44.1875 
Q 55.375 50.25 60.0625 53.125 
Q 64.75 56 71.09375 56 
Q 79.640625 56 84.28125 50.015625 
Q 88.921875 44.046875 88.921875 33.015625 
L 88.921875 0 
L 79.890625 0 
L 79.890625 32.71875 
Q 79.890625 40.578125 77.09375 44.375 
Q 74.3125 48.1875 68.609375 48.1875 
Q 61.625 48.1875 57.5625 43.546875 
Q 53.515625 38.921875 53.515625 30.90625 
L 53.515625 0 
L 44.484375 0 
L 44.484375 32.71875 
Q 44.484375 40.625 41.703125 44.40625 
Q 38.921875 48.1875 33.109375 48.1875 
Q 26.21875 48.1875 22.15625 43.53125 
Q 18.109375 38.875 18.109375 30.90625 
L 18.109375 0 
L 9.078125 0 
L 9.078125 54.6875 
L 18.109375 54.6875 
L 18.109375 46.1875 
Q 21.1875 51.21875 25.484375 53.609375 
Q 29.78125 56 35.6875 56 
Q 41.65625 56 45.828125 52.96875 
Q 50 49.953125 52 44.1875 
z
" id="DejaVuSans-109"/>
      <path d="M 8.015625 75.875 
L 15.828125 75.875 
Q 23.140625 64.359375 26.78125 53.3125 
Q 30.421875 42.28125 30.421875 31.390625 
Q 30.421875 20.453125 26.78125 9.375 
Q 23.140625 -1.703125 15.828125 -13.1875 
L 8.015625 -13.1875 
Q 14.5 -2 17.703125 9.0625 
Q 20.90625 20.125 20.90625 31.390625 
Q 20.90625 42.671875 17.703125 53.65625 
Q 14.5 64.65625 8.015625 75.875 
z
" id="DejaVuSans-41"/>
     </defs>
     <g transform="translate(424.682812 38.198438)scale(0.1 -0.1)">
      <use xlink:href="#DejaVuSans-75"/>
      <use x="60.576172" xlink:href="#DejaVuSans-111"/>
      <use x="121.757812" xlink:href="#DejaVuSans-114"/>
      <use x="160.621094" xlink:href="#DejaVuSans-101"/>
      <use x="222.144531" xlink:href="#DejaVuSans-97"/>
      <use x="283.423828" xlink:href="#DejaVuSans-44"/>
      <use x="315.210938" xlink:href="#DejaVuSans-32"/>
      <use x="346.998047" xlink:href="#DejaVuSans-83"/>
      <use x="410.474609" xlink:href="#DejaVuSans-111"/>
      <use x="471.65625" xlink:href="#DejaVuSans-117"/>
      <use x="535.035156" xlink:href="#DejaVuSans-116"/>
      <use x="574.244141" xlink:href="#DejaVuSans-104"/>
      <use x="637.623047" xlink:href="#DejaVuSans-32"/>
      <use x="669.410156" xlink:href="#DejaVuSans-110"/>
      <use x="732.789062" xlink:href="#DejaVuSans-101"/>
      <use x="794.3125" xlink:href="#DejaVuSans-119"/>
      <use x="876.099609" xlink:href="#DejaVuSans-32"/>
      <use x="907.886719" xlink:href="#DejaVuSans-100"/>
      <use x="971.363281" xlink:href="#DejaVuSans-101"/>
      <use x="1032.886719" xlink:href="#DejaVuSans-97"/>
      <use x="1094.166016" xlink:href="#DejaVuSans-116"/>
      <use x="1133.375" xlink:href="#DejaVuSans-104"/>
      <use x="1196.753906" xlink:href="#DejaVuSans-115"/>
      <use x="1248.853516" xlink:href="#DejaVuSans-32"/>
      <use x="1280.640625" xlink:href="#DejaVuSans-40"/>
      <use x="1319.654297" xlink:href="#DejaVuSans-114"/>
      <use x="1358.517578" xlink:href="#DejaVuSans-111"/>
      <use x="1419.699219" xlink:href="#DejaVuSans-108"/>
      <use x="1447.482422" xlink:href="#DejaVuSans-108"/>
      <use x="1475.265625" xlink:href="#DejaVuSans-105"/>
      <use x="1503.048828" xlink:href="#DejaVuSans-110"/>
      <use x="1566.427734" xlink:href="#DejaVuSans-103"/>
      <use x="1629.904297" xlink:href="#DejaVuSans-32"/>
      <use x="1661.691406" xlink:href="#DejaVuSans-55"/>
      <use x="1725.314453" xlink:href="#DejaVuSans-100"/>
      <use x="1788.791016" xlink:href="#DejaVuSans-32"/>
      <use x="1820.578125" xlink:href="#DejaVuSans-109"/>
      <use x="1917.990234" xlink:href="#DejaVuSans-101"/>
      <use x="1979.513672" xlink:href="#DejaVuSans-97"/>
      <use x="2040.792969" xlink:href="#DejaVuSans-110"/>
      <use x="2104.171875" xlink:href="#DejaVuSans-41"/>
     </g>
    </g>
    <g id="patch_242">
     <path d="M 396.682812 52.876563 
L 416.682812 52.876563 
L 416.682812 45.876563 
L 396.682812 45.876563 
z
" style="fill:#e24a33;opacity:0.2;"/>
    </g>
    <g id="text_23">
     <!-- Korea, South new deaths -->
     <g transform="translate(424.682812 52.876563)scale(0.1 -0.1)">
      <use xlink:href="#DejaVuSans-75"/>
      <use x="60.576172" xlink:href="#DejaVuSans-111"/>
      <use x="121.757812" xlink:href="#DejaVuSans-114"/>
      <use x="160.621094" xlink:href="#DejaVuSans-101"/>
      <use x="222.144531" xlink:href="#DejaVuSans-97"/>
      <use x="283.423828" xlink:href="#DejaVuSans-44"/>
      <use x="315.210938" xlink:href="#DejaVuSans-32"/>
      <use x="346.998047" xlink:href="#DejaVuSans-83"/>
      <use x="410.474609" xlink:href="#DejaVuSans-111"/>
      <use x="471.65625" xlink:href="#DejaVuSans-117"/>
      <use x="535.035156" xlink:href="#DejaVuSans-116"/>
      <use x="574.244141" xlink:href="#DejaVuSans-104"/>
      <use x="637.623047" xlink:href="#DejaVuSans-32"/>
      <use x="669.410156" xlink:href="#DejaVuSans-110"/>
      <use x="732.789062" xlink:href="#DejaVuSans-101"/>
      <use x="794.3125" xlink:href="#DejaVuSans-119"/>
      <use x="876.099609" xlink:href="#DejaVuSans-32"/>
      <use x="907.886719" xlink:href="#DejaVuSans-100"/>
      <use x="971.363281" xlink:href="#DejaVuSans-101"/>
      <use x="1032.886719" xlink:href="#DejaVuSans-97"/>
      <use x="1094.166016" xlink:href="#DejaVuSans-116"/>
      <use x="1133.375" xlink:href="#DejaVuSans-104"/>
      <use x="1196.753906" xlink:href="#DejaVuSans-115"/>
     </g>
    </g>
   </g>
  </g>
 </g>
 <defs>
  <clipPath id="p72ff95d52c">
   <rect height="135.9" width="558" x="90" y="21.6"/>
  </clipPath>
 </defs>
</svg>
