<?xml version="1.0" encoding="utf-8" standalone="no"?>
<!DOCTYPE svg PUBLIC "-//W3C//DTD SVG 1.1//EN"
  "http://www.w3.org/Graphics/SVG/1.1/DTD/svg11.dtd">
<svg height="432pt" version="1.1" viewBox="0 0 720 432" width="720pt" xmlns="http://www.w3.org/2000/svg" xmlns:xlink="http://www.w3.org/1999/xlink">
 <metadata>
  <rdf:RDF xmlns:cc="http://creativecommons.org/ns#" xmlns:dc="http://purl.org/dc/elements/1.1/" xmlns:rdf="http://www.w3.org/1999/02/22-rdf-syntax-ns#">
   <cc:Work>
    <dc:type rdf:resource="http://purl.org/dc/dcmitype/StillImage"/>
    <dc:date>2021-07-27T13:02:22.501096</dc:date>
    <dc:format>image/svg+xml</dc:format>
    <dc:creator>
     <cc:Agent>
      <dc:title>Matplotlib v3.4.2, https://matplotlib.org/</dc:title>
     </cc:Agent>
    </dc:creator>
   </cc:Work>
  </rdf:RDF>
 </metadata>
 <defs>
  <style type="text/css">*{stroke-linecap:butt;stroke-linejoin:round;}</style>
 </defs>
 <g id="figure_1">
  <g id="patch_1">
   <path d="M 0 432 
L 720 432 
L 720 0 
L 0 0 
z
" style="fill:#ffffff;"/>
  </g>
  <g id="axes_1">
   <g id="patch_2">
    <path d="M 90 200.094545 
L 648 200.094545 
L 648 51.84 
L 90 51.84 
z
" style="fill:#e5e5e5;"/>
   </g>
   <g id="matplotlib.axis_1">
    <g id="xtick_1">
     <g id="line2d_1">
      <path clip-path="url(#p7d65da05e0)" d="M 92.179325 200.094545 
L 92.179325 51.84 
" style="fill:none;stroke:#ffffff;stroke-linecap:square;stroke-width:0.8;"/>
     </g>
     <g id="line2d_2">
      <defs>
       <path d="M 0 0 
L 0 3.5 
" id="mf13f48374a" style="stroke:#555555;stroke-width:0.8;"/>
      </defs>
      <g>
       <use style="fill:#555555;stroke:#555555;stroke-width:0.8;" x="92.179325" xlink:href="#mf13f48374a" y="200.094545"/>
      </g>
     </g>
     <g id="text_1">
      <text style="fill:#555555;font-family:DejaVu Sans;font-size:10px;font-stretch:normal;font-style:normal;font-weight:normal;text-anchor:middle;" transform="rotate(-0, 92.179325, 214.692983)" x="92.179325" y="214.692983">2020-01</text>
     </g>
    </g>
    <g id="xtick_2">
     <g id="line2d_3">
      <path clip-path="url(#p7d65da05e0)" d="M 147.821672 200.094545 
L 147.821672 51.84 
" style="fill:none;stroke:#ffffff;stroke-linecap:square;stroke-width:0.8;"/>
     </g>
     <g id="line2d_4">
      <g>
       <use style="fill:#555555;stroke:#555555;stroke-width:0.8;" x="147.821672" xlink:href="#mf13f48374a" y="200.094545"/>
      </g>
     </g>
     <g id="text_2">
      <text style="fill:#555555;font-family:DejaVu Sans;font-size:10px;font-stretch:normal;font-style:normal;font-weight:normal;text-anchor:middle;" transform="rotate(-0, 147.821672, 214.692983)" x="147.821672" y="214.692983">2020-03</text>
     </g>
    </g>
    <g id="xtick_3">
     <g id="line2d_5">
      <path clip-path="url(#p7d65da05e0)" d="M 204.391391 200.094545 
L 204.391391 51.84 
" style="fill:none;stroke:#ffffff;stroke-linecap:square;stroke-width:0.8;"/>
     </g>
     <g id="line2d_6">
      <g>
       <use style="fill:#555555;stroke:#555555;stroke-width:0.8;" x="204.391391" xlink:href="#mf13f48374a" y="200.094545"/>
      </g>
     </g>
     <g id="text_3">
      <text style="fill:#555555;font-family:DejaVu Sans;font-size:10px;font-stretch:normal;font-style:normal;font-weight:normal;text-anchor:middle;" transform="rotate(-0, 204.391391, 214.692983)" x="204.391391" y="214.692983">2020-05</text>
     </g>
    </g>
    <g id="xtick_4">
     <g id="line2d_7">
      <path clip-path="url(#p7d65da05e0)" d="M 260.96111 200.094545 
L 260.96111 51.84 
" style="fill:none;stroke:#ffffff;stroke-linecap:square;stroke-width:0.8;"/>
     </g>
     <g id="line2d_8">
      <g>
       <use style="fill:#555555;stroke:#555555;stroke-width:0.8;" x="260.96111" xlink:href="#mf13f48374a" y="200.094545"/>
      </g>
     </g>
     <g id="text_4">
      <text style="fill:#555555;font-family:DejaVu Sans;font-size:10px;font-stretch:normal;font-style:normal;font-weight:normal;text-anchor:middle;" transform="rotate(-0, 260.96111, 214.692983)" x="260.96111" y="214.692983">2020-07</text>
     </g>
    </g>
    <g id="xtick_5">
     <g id="line2d_9">
      <path clip-path="url(#p7d65da05e0)" d="M 318.458202 200.094545 
L 318.458202 51.84 
" style="fill:none;stroke:#ffffff;stroke-linecap:square;stroke-width:0.8;"/>
     </g>
     <g id="line2d_10">
      <g>
       <use style="fill:#555555;stroke:#555555;stroke-width:0.8;" x="318.458202" xlink:href="#mf13f48374a" y="200.094545"/>
      </g>
     </g>
     <g id="text_5">
      <text style="fill:#555555;font-family:DejaVu Sans;font-size:10px;font-stretch:normal;font-style:normal;font-weight:normal;text-anchor:middle;" transform="rotate(-0, 318.458202, 214.692983)" x="318.458202" y="214.692983">2020-09</text>
     </g>
    </g>
    <g id="xtick_6">
     <g id="line2d_11">
      <path clip-path="url(#p7d65da05e0)" d="M 375.027921 200.094545 
L 375.027921 51.84 
" style="fill:none;stroke:#ffffff;stroke-linecap:square;stroke-width:0.8;"/>
     </g>
     <g id="line2d_12">
      <g>
       <use style="fill:#555555;stroke:#555555;stroke-width:0.8;" x="375.027921" xlink:href="#mf13f48374a" y="200.094545"/>
      </g>
     </g>
     <g id="text_6">
      <text style="fill:#555555;font-family:DejaVu Sans;font-size:10px;font-stretch:normal;font-style:normal;font-weight:normal;text-anchor:middle;" transform="rotate(-0, 375.027921, 214.692983)" x="375.027921" y="214.692983">2020-11</text>
     </g>
    </g>
    <g id="xtick_7">
     <g id="line2d_13">
      <path clip-path="url(#p7d65da05e0)" d="M 431.59764 200.094545 
L 431.59764 51.84 
" style="fill:none;stroke:#ffffff;stroke-linecap:square;stroke-width:0.8;"/>
     </g>
     <g id="line2d_14">
      <g>
       <use style="fill:#555555;stroke:#555555;stroke-width:0.8;" x="431.59764" xlink:href="#mf13f48374a" y="200.094545"/>
      </g>
     </g>
     <g id="text_7">
      <text style="fill:#555555;font-family:DejaVu Sans;font-size:10px;font-stretch:normal;font-style:normal;font-weight:normal;text-anchor:middle;" transform="rotate(-0, 431.59764, 214.692983)" x="431.59764" y="214.692983">2021-01</text>
     </g>
    </g>
    <g id="xtick_8">
     <g id="line2d_15">
      <path clip-path="url(#p7d65da05e0)" d="M 486.312614 200.094545 
L 486.312614 51.84 
" style="fill:none;stroke:#ffffff;stroke-linecap:square;stroke-width:0.8;"/>
     </g>
     <g id="line2d_16">
      <g>
       <use style="fill:#555555;stroke:#555555;stroke-width:0.8;" x="486.312614" xlink:href="#mf13f48374a" y="200.094545"/>
      </g>
     </g>
     <g id="text_8">
      <text style="fill:#555555;font-family:DejaVu Sans;font-size:10px;font-stretch:normal;font-style:normal;font-weight:normal;text-anchor:middle;" transform="rotate(-0, 486.312614, 214.692983)" x="486.312614" y="214.692983">2021-03</text>
     </g>
    </g>
    <g id="xtick_9">
     <g id="line2d_17">
      <path clip-path="url(#p7d65da05e0)" d="M 542.882333 200.094545 
L 542.882333 51.84 
" style="fill:none;stroke:#ffffff;stroke-linecap:square;stroke-width:0.8;"/>
     </g>
     <g id="line2d_18">
      <g>
       <use style="fill:#555555;stroke:#555555;stroke-width:0.8;" x="542.882333" xlink:href="#mf13f48374a" y="200.094545"/>
      </g>
     </g>
     <g id="text_9">
      <text style="fill:#555555;font-family:DejaVu Sans;font-size:10px;font-stretch:normal;font-style:normal;font-weight:normal;text-anchor:middle;" transform="rotate(-0, 542.882333, 214.692983)" x="542.882333" y="214.692983">2021-05</text>
     </g>
    </g>
    <g id="xtick_10">
     <g id="line2d_19">
      <path clip-path="url(#p7d65da05e0)" d="M 599.452053 200.094545 
L 599.452053 51.84 
" style="fill:none;stroke:#ffffff;stroke-linecap:square;stroke-width:0.8;"/>
     </g>
     <g id="line2d_20">
      <g>
       <use style="fill:#555555;stroke:#555555;stroke-width:0.8;" x="599.452053" xlink:href="#mf13f48374a" y="200.094545"/>
      </g>
     </g>
     <g id="text_10">
      <text style="fill:#555555;font-family:DejaVu Sans;font-size:10px;font-stretch:normal;font-style:normal;font-weight:normal;text-anchor:middle;" transform="rotate(-0, 599.452053, 214.692983)" x="599.452053" y="214.692983">2021-07</text>
     </g>
    </g>
   </g>
   <g id="matplotlib.axis_2">
    <g id="ytick_1">
     <g id="line2d_21">
      <path clip-path="url(#p7d65da05e0)" d="M 90 164.389375 
L 648 164.389375 
" style="fill:none;stroke:#ffffff;stroke-linecap:square;stroke-width:0.8;"/>
     </g>
     <g id="line2d_22">
      <defs>
       <path d="M 0 0 
L -3.5 0 
" id="ma97a4b05d0" style="stroke:#555555;stroke-width:0.8;"/>
      </defs>
      <g>
       <use style="fill:#555555;stroke:#555555;stroke-width:0.8;" x="90" xlink:href="#ma97a4b05d0" y="164.389375"/>
      </g>
     </g>
     <g id="line2d_23">
      <defs>
       <path d="M 0 0 
L 3.5 0 
" id="m363261db5c" style="stroke:#555555;stroke-width:0.8;"/>
      </defs>
      <g>
       <use style="fill:#555555;stroke:#555555;stroke-width:0.8;" x="648" xlink:href="#m363261db5c" y="164.389375"/>
      </g>
     </g>
     <g id="text_11">
      <text style="fill:#555555;font-family:DejaVu Sans;font-size:10px;font-stretch:normal;font-style:normal;font-weight:normal;text-anchor:end;" transform="rotate(-0, 83, 168.188594)" x="83" y="168.188594">0.001</text>
     </g>
     <g id="text_12">
      <text style="fill:#555555;font-family:DejaVu Sans;font-size:10px;font-stretch:normal;font-style:normal;font-weight:normal;text-anchor:start;" transform="rotate(-0, 655, 168.188594)" x="655" y="168.188594">0.001</text>
     </g>
    </g>
    <g id="ytick_2">
     <g id="line2d_24">
      <path clip-path="url(#p7d65da05e0)" d="M 90 121.882756 
L 648 121.882756 
" style="fill:none;stroke:#ffffff;stroke-linecap:square;stroke-width:0.8;"/>
     </g>
     <g id="line2d_25">
      <g>
       <use style="fill:#555555;stroke:#555555;stroke-width:0.8;" x="90" xlink:href="#ma97a4b05d0" y="121.882756"/>
      </g>
     </g>
     <g id="line2d_26">
      <g>
       <use style="fill:#555555;stroke:#555555;stroke-width:0.8;" x="648" xlink:href="#m363261db5c" y="121.882756"/>
      </g>
     </g>
     <g id="text_13">
      <text style="fill:#555555;font-family:DejaVu Sans;font-size:10px;font-stretch:normal;font-style:normal;font-weight:normal;text-anchor:end;" transform="rotate(-0, 83, 125.681975)" x="83" y="125.681975">0.1</text>
     </g>
     <g id="text_14">
      <text style="fill:#555555;font-family:DejaVu Sans;font-size:10px;font-stretch:normal;font-style:normal;font-weight:normal;text-anchor:start;" transform="rotate(-0, 655, 125.681975)" x="655" y="125.681975">0.1</text>
     </g>
    </g>
    <g id="ytick_3">
     <g id="line2d_27">
      <path clip-path="url(#p7d65da05e0)" d="M 90 79.376136 
L 648 79.376136 
" style="fill:none;stroke:#ffffff;stroke-linecap:square;stroke-width:0.8;"/>
     </g>
     <g id="line2d_28">
      <g>
       <use style="fill:#555555;stroke:#555555;stroke-width:0.8;" x="90" xlink:href="#ma97a4b05d0" y="79.376136"/>
      </g>
     </g>
     <g id="line2d_29">
      <g>
       <use style="fill:#555555;stroke:#555555;stroke-width:0.8;" x="648" xlink:href="#m363261db5c" y="79.376136"/>
      </g>
     </g>
     <g id="text_15">
      <text style="fill:#555555;font-family:DejaVu Sans;font-size:10px;font-stretch:normal;font-style:normal;font-weight:normal;text-anchor:end;" transform="rotate(-0, 83, 83.175355)" x="83" y="83.175355">10</text>
     </g>
     <g id="text_16">
      <text style="fill:#555555;font-family:DejaVu Sans;font-size:10px;font-stretch:normal;font-style:normal;font-weight:normal;text-anchor:start;" transform="rotate(-0, 655, 83.175355)" x="655" y="83.175355">10</text>
     </g>
    </g>
    <g id="text_17">
     <text style="fill:#555555;font-family:DejaVu Sans;font-size:12px;font-stretch:normal;font-style:normal;font-weight:normal;" transform="translate(21.0015 173.472273)rotate(-90)">daily new cases</text>
     <text style="fill:#555555;font-family:DejaVu Sans;font-size:12px;font-stretch:normal;font-style:normal;font-weight:normal;" transform="translate(34.438875 175.47571)rotate(-90)">per 100K people</text>
     <text style="fill:#555555;font-family:DejaVu Sans;font-size:12px;font-stretch:normal;font-style:normal;font-weight:normal;" transform="translate(47.87625 187.112898)rotate(-90)">(rolling 7-day mean)</text>
    </g>
   </g>
   <g id="line2d_30">
    <path clip-path="url(#p7d65da05e0)" d="M 115.363636 166.043588 
L 116.291009 166.043588 
L 117.218381 155.903182 
L 118.145754 154.930684 
L 119.073126 153.24782 
L 120.000499 154.050952 
L 120.927871 153.24782 
L 122.782616 149.006247 
L 123.709988 152.509011 
L 124.637361 153.24782 
L 125.564733 154.930684 
L 126.492106 153.24782 
L 127.419478 153.24782 
L 128.346851 155.903182 
L 129.274223 161.328568 
L 130.201595 163.388226 
L 132.05634 163.388226 
L 132.983713 166.043588 
L 134.838458 166.043588 
L 135.76583 136.21048 
L 137.620575 120.766945 
L 139.47532 114.449175 
L 140.402692 112.936458 
L 141.330065 110.513283 
L 142.257437 107.734925 
L 144.112182 103.198223 
L 145.039555 101.880319 
L 145.966927 100.855545 
L 146.894299 99.158197 
L 147.821672 98.83286 
L 149.676417 99.055698 
L 151.531162 100.657375 
L 152.458534 101.85385 
L 153.385907 104.628428 
L 154.313279 105.427594 
L 155.240651 107.096627 
L 158.022769 113.94589 
L 158.950141 114.981492 
L 159.877514 114.40331 
L 160.804886 116.287366 
L 161.732259 115.769139 
L 162.659631 116.079314 
L 163.587003 115.546398 
L 164.514376 114.495268 
L 165.441748 115.392344 
L 166.369121 115.494761 
L 167.296493 115.405084 
L 168.223866 116.03826 
L 170.078611 115.997388 
L 171.005983 116.806701 
L 171.933355 115.716244 
L 172.860728 115.091741 
L 173.7881 115.079426 
L 174.715473 115.265901 
L 175.642845 115.328906 
L 176.570218 116.010992 
L 178.424963 116.791874 
L 179.352335 118.026511 
L 181.20708 119.856187 
L 182.134452 121.162751 
L 183.989197 124.340101 
L 185.843942 125.869845 
L 186.771315 126.961959 
L 187.698687 127.752938 
L 188.626059 127.999091 
L 189.553432 128.618107 
L 190.480804 129.996593 
L 191.408177 130.77161 
L 193.262922 133.404541 
L 194.190294 134.150821 
L 195.117667 135.397233 
L 196.045039 136.332736 
L 196.972412 136.089822 
L 197.899784 135.970721 
L 198.827156 135.970721 
L 199.754529 136.838627 
L 201.609274 138.089738 
L 202.536646 137.653585 
L 203.464019 137.942052 
L 204.391391 139.713243 
L 205.318764 141.047756 
L 206.246136 141.047756 
L 207.173508 140.452053 
L 208.100881 138.392394 
L 209.955626 132.967009 
L 210.882998 131.114779 
L 212.737743 128.200852 
L 213.665116 127.465966 
L 214.592488 127.418992 
L 217.374605 130.440743 
L 218.301978 130.058749 
L 219.22935 131.184971 
L 220.156723 131.691854 
L 221.084095 131.398808 
L 222.011468 130.57167 
L 222.93884 130.505974 
L 224.793585 129.632196 
L 225.720957 126.316227 
L 226.64833 124.857817 
L 227.575702 124.306597 
L 228.503075 124.239953 
L 230.35782 123.05737 
L 231.285192 122.798159 
L 232.212564 124.010416 
L 233.139937 124.647233 
L 234.067309 124.239953 
L 234.994682 123.294055 
L 236.849427 123.204585 
L 237.776799 123.174954 
L 238.704172 122.999135 
L 239.631544 122.518434 
L 240.558916 122.601465 
L 241.486289 123.264135 
L 243.341034 123.445125 
L 244.268406 123.660866 
L 245.195779 123.234312 
L 246.123151 123.445125 
L 247.050524 122.883756 
L 247.977896 122.490923 
L 248.905268 123.028207 
L 249.832641 122.68525 
L 250.760013 122.463493 
L 251.687386 123.354186 
L 252.614758 123.660866 
L 253.542131 124.173786 
L 254.469503 123.723443 
L 255.396876 122.970155 
L 257.25162 123.086626 
L 259.106365 121.72679 
L 260.033738 121.428213 
L 260.96111 121.452729 
L 262.815855 121.330796 
L 263.743228 121.021109 
L 264.6706 121.138993 
L 265.597972 121.576294 
L 266.525345 122.300603 
L 267.452717 122.769802 
L 268.38009 122.327552 
L 269.307462 122.629309 
L 270.234835 123.324072 
L 272.08958 122.546028 
L 273.016952 122.436144 
L 273.944324 122.713348 
L 274.871697 123.786448 
L 275.799069 123.414712 
L 276.726442 122.713348 
L 277.653814 122.769802 
L 278.581187 123.324072 
L 279.508559 121.330796 
L 280.435932 120.766945 
L 281.363304 120.789763 
L 283.218049 121.551449 
L 284.145421 122.629309 
L 285.072794 122.769802 
L 286.000166 125.444058 
L 286.927539 126.569125 
L 287.854911 126.654988 
L 288.782284 126.399759 
L 289.709656 127.051573 
L 290.637028 125.989461 
L 291.564401 126.654988 
L 292.491773 126.151398 
L 294.346518 125.712732 
L 295.273891 125.712732 
L 296.201263 124.929093 
L 297.128636 124.475344 
L 298.98338 119.256613 
L 299.910753 115.456221 
L 302.69287 109.695155 
L 303.620243 108.225341 
L 304.547615 107.014076 
L 305.474988 106.198539 
L 306.40236 105.65973 
L 307.329732 105.358647 
L 309.184477 105.117127 
L 310.11185 104.49845 
L 311.039222 104.316435 
L 311.966595 104.351012 
L 312.893967 104.736151 
L 314.748712 104.992505 
L 315.676084 105.213823 
L 316.603457 106.316846 
L 320.312947 109.66088 
L 321.240319 110.364406 
L 322.167692 111.222748 
L 323.095064 111.552728 
L 324.949809 112.01778 
L 325.877181 112.433299 
L 326.804554 112.526159 
L 327.731926 112.810479 
L 328.659299 113.233912 
L 329.586671 113.254087 
L 330.514044 113.773358 
L 331.441416 114.055383 
L 333.296161 114.95717 
L 334.223533 115.520543 
L 335.150906 115.559353 
L 336.078278 115.929668 
L 337.005651 116.093039 
L 337.933023 116.791874 
L 338.860396 116.601251 
L 340.71514 117.247404 
L 341.642513 117.200825 
L 343.497258 118.877496 
L 344.42463 118.621086 
L 345.352003 119.198743 
L 346.279375 118.766733 
L 347.206748 118.111583 
L 348.13412 118.094506 
L 351.84361 118.549115 
L 353.698355 117.677534 
L 354.625727 118.180209 
L 355.5531 117.677534 
L 356.480472 117.7924 
L 357.407844 117.775902 
L 358.335217 117.247404 
L 359.262589 117.580202 
L 360.189962 118.319012 
L 361.117334 118.197446 
L 362.044707 117.858685 
L 362.972079 116.217493 
L 363.899452 116.161973 
L 364.826824 116.58675 
L 365.754196 115.983805 
L 366.681569 115.585317 
L 368.536314 115.354229 
L 369.463686 115.889274 
L 371.318431 114.495268 
L 373.173176 114.908718 
L 374.100548 114.729253 
L 375.027921 114.729253 
L 375.955293 114.369061 
L 376.882666 114.80062 
L 378.737411 114.244556 
L 381.519528 113.478976 
L 382.4469 113.014846 
L 383.374273 111.938626 
L 384.301645 111.386264 
L 385.229018 110.618945 
L 387.083763 108.607995 
L 388.011135 107.461337 
L 389.86588 105.730971 
L 390.793252 105.201153 
L 391.720625 105.000761 
L 392.647997 104.518027 
L 393.57537 104.251474 
L 394.502742 103.380054 
L 395.430115 102.692559 
L 400.066977 101.052677 
L 400.994349 101.16919 
L 402.849094 100.755928 
L 406.558584 99.027548 
L 407.485956 98.75906 
L 408.413329 98.635975 
L 410.268074 97.171191 
L 411.195446 96.990836 
L 412.122819 96.50777 
L 413.977564 95.355201 
L 414.904936 94.827376 
L 418.614426 94.337209 
L 420.469171 94.358045 
L 421.396543 94.132671 
L 422.323916 94.035224 
L 424.17866 94.346319 
L 425.106033 94.119957 
L 426.960778 94.193942 
L 427.88815 94.464253 
L 429.742895 95.330543 
L 430.670268 95.028447 
L 431.59764 95.503075 
L 432.525012 95.816807 
L 433.452385 95.969223 
L 434.379757 96.540741 
L 435.30713 96.848023 
L 436.234502 96.824151 
L 437.161875 97.849783 
L 438.089247 98.194914 
L 439.01662 98.761161 
L 439.943992 99.531885 
L 440.871364 99.902308 
L 441.798737 100.050876 
L 442.726109 100.407964 
L 443.653482 100.562416 
L 447.362972 102.219273 
L 449.217716 103.106951 
L 450.145089 102.946886 
L 451.072461 103.053287 
L 451.999834 102.561632 
L 453.854579 101.883265 
L 454.781951 101.809904 
L 455.709324 101.918686 
L 456.636696 102.323743 
L 457.564068 102.379534 
L 458.491441 102.654046 
L 459.418813 102.802559 
L 460.346186 103.133901 
L 461.273558 103.345471 
L 463.128303 103.335121 
L 464.983048 103.537301 
L 466.837793 103.235668 
L 468.692538 103.502125 
L 469.61991 103.311017 
L 472.402028 101.883265 
L 473.3294 101.429135 
L 475.184145 100.948258 
L 476.111517 100.980261 
L 477.03889 101.248608 
L 477.966262 101.763257 
L 478.893635 102.441921 
L 479.821007 102.940277 
L 481.675752 103.311017 
L 482.603124 103.232258 
L 484.457869 103.269841 
L 485.385242 103.174473 
L 487.239987 103.140651 
L 488.167359 102.936974 
L 489.094732 102.966743 
L 490.022104 102.625267 
L 491.876849 102.413795 
L 493.731594 101.918686 
L 495.586339 101.687956 
L 496.513711 101.930523 
L 498.368456 101.99292 
L 501.150573 102.191815 
L 502.077946 102.106912 
L 505.787436 102.243748 
L 507.64218 102.004853 
L 508.569553 102.082796 
L 512.279043 101.063453 
L 514.133788 100.802981 
L 515.06116 100.572635 
L 515.988532 100.478539 
L 517.843277 99.723395 
L 521.552767 98.761161 
L 523.407512 98.498163 
L 530.826492 98.451324 
L 532.681236 97.947357 
L 537.318099 98.15942 
L 539.172844 98.767465 
L 541.027588 98.873171 
L 541.954961 98.809602 
L 544.737078 99.54331 
L 545.664451 99.375649 
L 549.373941 99.690812 
L 550.301313 99.368916 
L 551.228685 98.883809 
L 552.156058 98.926482 
L 553.08343 98.828627 
L 554.010803 98.50429 
L 555.865548 98.433061 
L 556.79292 98.574014 
L 557.720293 98.965058 
L 559.575037 99.051362 
L 560.50241 99.22864 
L 561.429782 99.255195 
L 562.357155 99.153812 
L 564.2119 99.134105 
L 566.994017 99.926109 
L 568.848762 100.11633 
L 569.776134 99.990681 
L 570.703507 99.73506 
L 571.630879 99.255195 
L 573.485624 98.967205 
L 574.412997 98.977952 
L 576.267741 99.297398 
L 579.977231 100.508952 
L 582.759349 101.052677 
L 586.468838 101.593257 
L 587.396211 101.533496 
L 590.178328 100.727291 
L 592.033073 99.810064 
L 595.742563 98.402702 
L 596.669935 98.022674 
L 598.52468 97.544671 
L 600.379425 96.902822 
L 603.161542 94.737284 
L 605.016287 93.274361 
L 607.798405 91.982618 
L 609.653149 91.449996 
L 611.507894 91.258861 
L 617.999501 90.377859 
L 618.926874 90.322123 
L 619.854246 91.466184 
L 622.636364 91.466184 
L 622.636364 91.466184 
" style="fill:none;stroke:#348abd;stroke-linecap:square;stroke-width:4;"/>
   </g>
   <g id="line2d_31">
    <defs>
     <path d="M 0 3 
C 0.795609 3 1.55874 2.683901 2.12132 2.12132 
C 2.683901 1.55874 3 0.795609 3 0 
C 3 -0.795609 2.683901 -1.55874 2.12132 -2.12132 
C 1.55874 -2.683901 0.795609 -3 0 -3 
C -0.795609 -3 -1.55874 -2.683901 -2.12132 -2.12132 
C -2.683901 -1.55874 -3 -0.795609 -3 0 
C -3 0.795609 -2.683901 1.55874 -2.12132 2.12132 
C -1.55874 2.683901 -0.795609 3 0 3 
z
" id="m4754b14b4e" style="stroke:#348abd;"/>
    </defs>
    <g clip-path="url(#p7d65da05e0)">
     <use style="fill:#348abd;stroke:#348abd;" x="622.636364" xlink:href="#m4754b14b4e" y="91.466184"/>
    </g>
   </g>
   <g id="line2d_32">
    <path clip-path="url(#p7d65da05e0)" d="M 115.363636 167.921651 
L 116.291009 167.921651 
L 117.218381 165.861992 
L 118.145754 161.523767 
L 119.073126 159.464109 
L 120.000499 158.584377 
L 120.927871 161.523767 
L 123.709988 161.523767 
L 124.637361 165.861992 
L 125.564733 167.921651 
L 126.492106 174.319535 
L 127.419478 167.921651 
L 129.274223 167.921651 
L 130.201595 170.577012 
L 131.128968 170.577012 
L 132.05634 174.319535 
L 132.983713 174.319535 
L 132.995039 433 
M 140.391643 433 
L 140.402692 180.717418 
L 141.330065 158.584377 
L 142.257437 149.323703 
L 143.18481 148.728 
L 144.112182 142.475476 
L 145.039555 137.001383 
L 146.894299 132.836835 
L 147.821672 130.324379 
L 148.749044 124.619595 
L 149.676417 121.340126 
L 150.603789 119.989646 
L 151.531162 117.827995 
L 152.458534 116.801895 
L 153.385907 114.81696 
L 154.313279 112.357639 
L 155.240651 112.642368 
L 156.168024 106.801713 
L 159.877514 97.997526 
L 160.804886 95.325317 
L 161.732259 93.112262 
L 162.659631 91.266689 
L 164.514376 89.741928 
L 165.441748 88.517636 
L 166.369121 87.72825 
L 167.296493 87.248114 
L 168.223866 85.999084 
L 169.151238 85.254272 
L 170.078611 84.014687 
L 171.005983 83.572797 
L 172.860728 83.184324 
L 173.7881 82.782589 
L 174.715473 82.71297 
L 175.642845 82.842193 
L 176.570218 83.285928 
L 177.49759 83.375061 
L 178.424963 83.756377 
L 180.279707 84.029788 
L 181.20708 84.576427 
L 183.061825 85.935442 
L 184.91657 86.640095 
L 185.843942 87.741095 
L 187.698687 89.531941 
L 188.626059 89.6706 
L 189.553432 90.058884 
L 190.480804 90.62892 
L 191.408177 90.810179 
L 192.335549 90.843372 
L 193.262922 91.426727 
L 194.190294 91.700182 
L 195.117667 92.864679 
L 196.045039 93.161885 
L 196.972412 93.581235 
L 197.899784 94.260528 
L 198.827156 94.317539 
L 199.754529 94.916367 
L 201.609274 96.597027 
L 204.391391 98.490925 
L 205.318764 98.871934 
L 206.246136 99.507358 
L 207.173508 99.79326 
L 208.100881 99.664783 
L 209.955626 100.094239 
L 210.882998 99.788948 
L 212.737743 100.518184 
L 213.665116 102.013876 
L 214.592488 102.781835 
L 215.51986 103.223439 
L 216.447233 103.095096 
L 217.374605 104.219592 
L 218.301978 102.857657 
L 219.22935 103.334584 
L 220.156723 102.986781 
L 221.084095 103.121859 
L 222.93884 104.25682 
L 223.866212 104.049339 
L 224.793585 105.602271 
L 225.720957 106.661489 
L 226.64833 106.293774 
L 227.575702 106.186832 
L 228.503075 106.212731 
L 230.35782 106.835562 
L 231.285192 107.861653 
L 232.212564 108.148589 
L 234.067309 110.55038 
L 234.994682 109.42743 
L 235.922054 109.11043 
L 236.849427 108.444731 
L 237.776799 108.042574 
L 239.631544 109.600501 
L 240.558916 109.261553 
L 241.486289 111.445339 
L 242.413661 111.697672 
L 243.341034 112.776353 
L 244.268406 111.813248 
L 245.195779 110.18872 
L 246.123151 106.437335 
L 247.050524 106.595171 
L 248.905268 104.747585 
L 249.832641 103.965376 
L 250.760013 103.650049 
L 251.687386 103.565298 
L 252.614758 105.252921 
L 253.542131 104.789479 
L 254.469503 104.664363 
L 255.396876 105.604969 
L 256.324248 106.010363 
L 257.25162 107.00984 
L 258.178993 106.749642 
L 259.106365 106.820161 
L 260.033738 107.640376 
L 260.96111 107.653841 
L 261.888483 107.355532 
L 262.815855 106.749642 
L 264.6706 107.434143 
L 265.597972 108.028531 
L 266.525345 108.309928 
L 267.452717 108.459423 
L 268.38009 108.892139 
L 269.307462 110.039204 
L 270.234835 110.0523 
L 271.162207 109.717711 
L 273.016952 107.745247 
L 273.944324 107.731648 
L 274.871697 107.401307 
L 275.799069 106.381404 
L 277.653814 105.699888 
L 278.581187 105.578027 
L 279.508559 105.1908 
L 280.435932 104.509717 
L 281.363304 104.319984 
L 282.290676 104.6668 
L 283.218049 104.184826 
L 284.145421 103.55881 
L 285.072794 102.763968 
L 286.000166 102.525125 
L 286.927539 102.620313 
L 287.854911 102.966485 
L 288.782284 102.10391 
L 289.709656 101.881353 
L 290.637028 101.110571 
L 291.564401 101.215621 
L 292.491773 100.736893 
L 294.346518 100.315179 
L 296.201263 99.384149 
L 297.128636 99.337511 
L 298.056008 98.68265 
L 298.98338 98.24336 
L 299.910753 98.255521 
L 300.838125 98.09388 
L 302.69287 97.117795 
L 304.547615 96.665403 
L 306.40236 96.301852 
L 307.329732 96.190266 
L 311.966595 96.577729 
L 314.748712 97.010839 
L 315.676084 97.2784 
L 316.603457 97.312397 
L 318.458202 97.58445 
L 319.385574 97.510067 
L 320.312947 97.288257 
L 321.240319 96.858968 
L 323.095064 96.654143 
L 324.022436 96.365093 
L 324.949809 96.224382 
L 326.804554 95.695876 
L 327.731926 96.084821 
L 329.586671 95.310269 
L 331.441416 94.404523 
L 332.368788 93.933281 
L 335.150906 93.720148 
L 336.078278 93.902097 
L 337.933023 93.670402 
L 338.860396 93.949295 
L 339.787768 93.738034 
L 340.71514 93.232232 
L 341.642513 93.24071 
L 342.569885 92.672614 
L 346.279375 91.818778 
L 347.206748 91.341757 
L 348.13412 90.995069 
L 349.061492 90.164638 
L 349.988865 89.122609 
L 350.916237 88.375937 
L 352.770982 87.344627 
L 353.698355 86.142427 
L 354.625727 85.506418 
L 355.5531 84.586662 
L 357.407844 83.069727 
L 358.335217 82.635355 
L 359.262589 82.378855 
L 360.189962 81.983062 
L 362.044707 80.235472 
L 362.972079 80.52819 
L 364.826824 78.694474 
L 365.754196 77.872249 
L 368.536314 76.316555 
L 369.463686 74.974979 
L 370.391059 74.41531 
L 372.245804 73.856782 
L 373.173176 72.818913 
L 374.100548 73.264801 
L 375.027921 72.101188 
L 376.882666 71.595368 
L 377.810038 71.590763 
L 378.737411 71.459401 
L 379.664783 72.802839 
L 380.592156 71.440463 
L 381.519528 72.065978 
L 382.4469 71.91208 
L 384.301645 71.914955 
L 385.229018 72.743272 
L 386.15639 72.144942 
L 387.083763 72.167689 
L 388.011135 72.072609 
L 390.793252 72.153789 
L 392.647997 72.079318 
L 393.57537 72.811568 
L 394.502742 72.143863 
L 396.357487 72.425908 
L 399.139604 72.533337 
L 400.066977 71.924287 
L 400.994349 72.609841 
L 401.921722 72.486664 
L 402.849094 72.855724 
L 403.776467 71.948185 
L 404.703839 71.4207 
L 405.631212 72.022525 
L 406.558584 71.708853 
L 407.485956 71.58528 
L 409.340701 70.299414 
L 410.268074 70.55814 
L 411.195446 70.330962 
L 412.122819 70.272374 
L 413.050191 70.008415 
L 413.977564 69.58178 
L 414.904936 69.721996 
L 415.832308 69.416713 
L 416.759681 69.42276 
L 417.687053 69.876176 
L 418.614426 69.18286 
L 420.469171 69.010165 
L 421.396543 69.20218 
L 422.323916 70.964342 
L 423.251288 71.496589 
L 424.17866 71.10587 
L 425.106033 71.449594 
L 426.033405 72.635281 
L 426.960778 71.543489 
L 427.88815 72.034594 
L 428.815523 72.036228 
L 431.59764 72.497189 
L 432.525012 72.581002 
L 433.452385 74.44395 
L 434.379757 72.314661 
L 435.30713 71.149401 
L 436.234502 70.410337 
L 437.161875 70.988604 
L 438.089247 71.027634 
L 439.01662 70.47977 
L 439.943992 70.545858 
L 440.871364 72.123828 
L 442.726109 73.555795 
L 443.653482 72.712867 
L 444.580854 72.902356 
L 445.508227 74.152174 
L 446.435599 73.850034 
L 447.362972 75.055438 
L 448.290344 74.31954 
L 451.999834 75.177658 
L 452.927206 76.619509 
L 453.854579 75.878804 
L 454.781951 76.267764 
L 455.709324 75.712975 
L 456.636696 76.757243 
L 457.564068 76.783232 
L 458.491441 76.987134 
L 459.418813 77.377865 
L 461.273558 77.878804 
L 462.200931 79.151748 
L 463.128303 78.284201 
L 464.983048 78.858173 
L 466.837793 79.854111 
L 468.692538 80.503973 
L 469.61991 80.835656 
L 472.402028 80.653854 
L 474.256772 80.695519 
L 477.03889 80.376811 
L 477.966262 80.398938 
L 479.821007 79.992547 
L 489.094732 79.421694 
L 490.949476 79.390589 
L 491.876849 77.893535 
L 492.804221 78.830539 
L 493.731594 78.369183 
L 495.586339 77.718424 
L 496.513711 77.53432 
L 497.441084 76.232544 
L 498.368456 77.877466 
L 499.295828 75.147349 
L 501.150573 74.509297 
L 502.077946 75.305263 
L 503.005318 75.132927 
L 503.932691 74.811622 
L 504.860063 73.386793 
L 505.787436 73.969811 
L 506.714808 73.524017 
L 507.64218 73.266425 
L 509.496925 73.026421 
L 510.424298 72.81435 
L 512.279043 72.637025 
L 513.206415 72.997041 
L 514.133788 74.168721 
L 515.06116 73.431482 
L 515.988532 73.795365 
L 516.915905 75.293828 
L 517.843277 74.766812 
L 518.77065 74.407957 
L 519.698022 73.709107 
L 520.625395 72.5084 
L 521.552767 73.094541 
L 522.48014 72.593146 
L 523.407512 71.077262 
L 524.334884 71.029991 
L 526.189629 71.124712 
L 527.117002 71.030628 
L 528.971747 71.179658 
L 529.899119 71.052574 
L 530.826492 71.494981 
L 531.753864 71.062288 
L 532.681236 71.164775 
L 533.608609 71.545914 
L 534.535981 70.636632 
L 536.390726 71.343188 
L 537.318099 71.089054 
L 539.172844 72.136749 
L 540.100216 71.845927 
L 541.027588 72.318836 
L 542.882333 72.485246 
L 544.737078 73.435119 
L 545.664451 73.372164 
L 546.591823 73.827489 
L 547.519196 74.617493 
L 548.446568 74.44884 
L 549.373941 74.865529 
L 550.301313 76.540691 
L 552.156058 77.645985 
L 553.08343 78.429211 
L 554.010803 77.476363 
L 554.938175 77.728293 
L 555.865548 79.480081 
L 556.79292 78.674178 
L 558.647665 79.463225 
L 559.575037 79.615564 
L 560.50241 80.015626 
L 561.429782 80.545502 
L 562.357155 81.484517 
L 563.284527 83.07983 
L 564.2119 84.013647 
L 566.994017 85.547482 
L 567.921389 85.585028 
L 569.776134 85.272141 
L 572.558252 88.317291 
L 574.412997 89.114017 
L 575.340369 89.451891 
L 576.267741 90.347765 
L 579.977231 92.340376 
L 580.904604 92.713912 
L 581.831976 93.474054 
L 582.759349 94.911283 
L 583.686721 96.624521 
L 584.614093 98.009368 
L 590.178328 101.658756 
L 591.105701 101.984667 
L 592.033073 102.960406 
L 593.887818 103.687236 
L 594.81519 103.945067 
L 595.742563 104.718127 
L 596.669935 104.058462 
L 598.52468 104.381221 
L 601.306797 103.764274 
L 604.088915 102.624219 
L 605.016287 101.910236 
L 606.871032 101.352468 
L 607.798405 100.832925 
L 608.725777 99.869763 
L 611.507894 97.661719 
L 613.362639 96.743582 
L 614.290012 96.144651 
L 615.217384 96.117583 
L 616.144757 95.661818 
L 617.999501 95.152424 
L 618.926874 95.009211 
L 619.854246 94.640843 
L 622.636364 94.640843 
L 622.636364 94.640843 
" style="fill:none;stroke:#348abd;stroke-linecap:square;stroke-opacity:0.4;stroke-width:2;"/>
   </g>
   <g id="line2d_33">
    <defs>
     <path d="M 0 3 
C 0.795609 3 1.55874 2.683901 2.12132 2.12132 
C 2.683901 1.55874 3 0.795609 3 0 
C 3 -0.795609 2.683901 -1.55874 2.12132 -2.12132 
C 1.55874 -2.683901 0.795609 -3 0 -3 
C -0.795609 -3 -1.55874 -2.683901 -2.12132 -2.12132 
C -2.683901 -1.55874 -3 -0.795609 -3 0 
C -3 0.795609 -2.683901 1.55874 -2.12132 2.12132 
C -1.55874 2.683901 -0.795609 3 0 3 
z
" id="ma622c8f6cf" style="stroke:#348abd;stroke-opacity:0.4;"/>
    </defs>
    <g clip-path="url(#p7d65da05e0)">
     <use style="fill:#348abd;fill-opacity:0.4;stroke:#348abd;stroke-opacity:0.4;" x="622.636364" xlink:href="#ma622c8f6cf" y="94.640843"/>
    </g>
   </g>
   <g id="line2d_34">
    <path clip-path="url(#p7d65da05e0)" d="M 115.363636 153.184632 
L 116.291009 149.44211 
L 117.218381 149.44211 
L 118.145754 146.786748 
L 119.073126 150.52927 
L 120.000499 151.761791 
L 120.927871 150.52927 
L 121.855243 151.761791 
L 122.782616 154.867495 
L 123.709988 153.184632 
L 124.637361 159.582516 
L 126.492106 159.582516 
L 127.419478 163.325038 
L 128.346851 163.325038 
L 129.274223 169.722921 
L 129.285748 433 
M 144.099739 433 
L 144.112182 148.469612 
L 145.039555 146.786748 
L 145.966927 144.72709 
L 147.821672 136.393444 
L 148.749044 135.673844 
L 149.676417 134.586684 
L 150.603789 136.147291 
L 151.531162 133.800661 
L 152.458534 131.778753 
L 154.313279 129.749408 
L 155.240651 130.121144 
L 156.168024 124.110598 
L 157.095396 121.438768 
L 158.022769 119.896826 
L 158.950141 117.517013 
L 159.877514 115.785866 
L 161.732259 111.430935 
L 162.659631 110.817514 
L 163.587003 107.783484 
L 164.514376 103.888577 
L 165.441748 103.505886 
L 166.369121 101.671034 
L 167.296493 100.558141 
L 168.223866 98.988173 
L 170.078611 97.254149 
L 171.005983 97.74861 
L 171.933355 96.867156 
L 172.860728 97.450234 
L 173.7881 97.512837 
L 174.715473 98.251031 
L 175.642845 98.740081 
L 176.570218 99.990103 
L 177.49759 101.048916 
L 178.424963 102.62294 
L 179.352335 103.289189 
L 181.20708 106.037131 
L 182.134452 107.090623 
L 184.91657 111.414259 
L 185.843942 111.998861 
L 187.698687 115.548166 
L 189.553432 118.220926 
L 190.480804 117.231029 
L 191.408177 117.980274 
L 192.335549 119.528388 
L 193.262922 120.280585 
L 194.190294 120.818418 
L 195.117667 123.171123 
L 196.972412 126.854287 
L 197.899784 127.402777 
L 199.754529 127.216302 
L 200.681901 126.854287 
L 201.609274 127.124458 
L 203.464019 126.505937 
L 204.391391 125.083096 
L 205.318764 124.723899 
L 206.246136 123.979671 
L 207.173508 123.660255 
L 208.100881 124.110598 
L 209.028253 124.110598 
L 209.955626 125.083096 
L 210.882998 125.305521 
L 211.810371 126.765959 
L 212.737743 127.689749 
L 214.592488 125.767127 
L 215.51986 126.765959 
L 216.447233 126.678469 
L 217.374605 127.402777 
L 218.301978 127.98593 
L 219.22935 127.98593 
L 221.084095 131.335619 
L 222.011468 130.508481 
L 222.93884 131.931322 
L 223.866212 132.24424 
L 224.793585 130.912788 
L 225.720957 130.641292 
L 226.64833 130.508481 
L 227.575702 128.716383 
L 228.503075 129.509649 
L 229.430447 128.396229 
L 230.35782 127.689749 
L 231.285192 128.1888 
L 232.212564 128.1888 
L 233.139937 129.048043 
L 234.067309 130.776042 
L 234.994682 130.912788 
L 235.922054 131.480979 
L 236.849427 134.383814 
L 237.776799 134.586684 
L 238.704172 134.586684 
L 239.631544 135.223501 
L 240.558916 135.223501 
L 241.486289 131.778753 
L 243.341034 129.27596 
L 244.268406 127.593097 
L 245.195779 126.678469 
L 246.123151 125.533438 
L 247.050524 125.767127 
L 247.977896 124.044902 
L 248.905268 124.176764 
L 250.760013 123.412449 
L 252.614758 121.48826 
L 253.542131 121.291865 
L 254.469503 119.731258 
L 255.396876 117.388814 
L 257.25162 114.443639 
L 258.178993 113.478083 
L 259.106365 112.91238 
L 260.033738 109.812277 
L 260.96111 108.532605 
L 261.888483 107.805996 
L 262.815855 106.722593 
L 263.743228 106.282278 
L 264.6706 105.468801 
L 265.597972 103.484692 
L 266.525345 103.591154 
L 267.452717 103.16566 
L 268.38009 102.877088 
L 270.234835 101.619 
L 271.162207 100.776556 
L 272.08958 100.239914 
L 273.016952 100.097037 
L 273.944324 99.542062 
L 275.799069 98.782382 
L 276.726442 97.855363 
L 277.653814 97.535034 
L 278.581187 98.029559 
L 279.508559 97.472281 
L 280.435932 97.139886 
L 281.363304 96.24436 
L 282.290676 96.21542 
L 283.218049 96.836199 
L 285.072794 94.920506 
L 286.000166 94.859323 
L 286.927539 94.420867 
L 287.854911 94.713573 
L 288.782284 94.594297 
L 289.709656 93.4889 
L 291.564401 94.75185 
L 292.491773 94.618569 
L 293.419146 95.258667 
L 295.273891 95.87504 
L 296.201263 96.856825 
L 297.128636 97.624359 
L 298.056008 97.616882 
L 299.910753 98.672799 
L 300.838125 98.850471 
L 301.765498 99.292275 
L 302.69287 100.225031 
L 303.620243 100.146055 
L 304.547615 101.257207 
L 305.474988 101.817131 
L 306.40236 102.073956 
L 307.329732 103.145232 
L 309.184477 104.165466 
L 310.11185 105.20149 
L 311.039222 105.592107 
L 312.893967 107.365856 
L 313.82134 107.671737 
L 314.748712 108.423514 
L 315.676084 109.007978 
L 316.603457 108.905844 
L 319.385574 110.555756 
L 320.312947 111.070846 
L 321.240319 111.414259 
L 322.167692 111.616388 
L 323.095064 112.834323 
L 324.022436 113.796032 
L 325.877181 115.065597 
L 327.731926 115.240464 
L 328.659299 116.684345 
L 329.586671 117.420697 
L 330.514044 117.168663 
L 331.441416 117.77888 
L 333.296161 119.938687 
L 334.223533 120.680993 
L 335.150906 121.099563 
L 336.078278 122.48284 
L 337.005651 124.176764 
L 337.933023 124.723899 
L 338.860396 123.979671 
L 339.787768 124.653707 
L 340.71514 126.088209 
L 341.642513 126.678469 
L 342.569885 125.846356 
L 343.497258 126.420865 
L 344.42463 126.765959 
L 345.352003 127.689749 
L 346.279375 126.854287 
L 347.206748 125.688571 
L 348.13412 126.943468 
L 349.988865 125.767127 
L 352.770982 124.310537 
L 353.698355 124.310537 
L 354.625727 123.111765 
L 356.480472 123.786698 
L 357.407844 124.514904 
L 358.335217 125.010129 
L 359.262589 126.006886 
L 360.189962 127.689749 
L 361.117334 126.678469 
L 362.044707 127.124458 
L 362.972079 126.765959 
L 363.899452 125.767127 
L 364.826824 125.305521 
L 365.754196 125.083096 
L 366.681569 124.514904 
L 367.608941 126.33657 
L 369.463686 126.943468 
L 370.391059 128.1888 
L 371.318431 129.048043 
L 373.173176 130.377554 
L 374.100548 130.641292 
L 375.027921 131.192512 
L 375.955293 131.192512 
L 376.882666 130.912788 
L 377.810038 131.480979 
L 378.737411 131.335619 
L 379.664783 132.086455 
L 380.592156 133.800661 
L 381.519528 134.586684 
L 382.4469 137.733503 
L 383.374273 138.329206 
L 384.301645 133.076352 
L 385.229018 128.825618 
L 386.15639 128.291932 
L 387.083763 126.678469 
L 388.011135 126.33657 
L 389.86588 125.230782 
L 390.793252 126.33657 
L 391.720625 128.716383 
L 392.647997 128.716383 
L 393.57537 129.749408 
L 394.502742 129.27596 
L 395.430115 129.161298 
L 396.357487 129.27596 
L 397.28486 130.377554 
L 398.212232 130.776042 
L 400.066977 130.508481 
L 400.994349 129.995561 
L 401.921722 129.749408 
L 402.849094 130.508481 
L 403.776467 130.121144 
L 404.703839 130.508481 
L 405.631212 129.871664 
L 406.558584 130.508481 
L 407.485956 131.778753 
L 408.413329 131.628666 
L 409.340701 130.641292 
L 410.268074 131.192512 
L 411.195446 131.192512 
L 412.122819 131.778753 
L 413.050191 130.912788 
L 413.977564 130.248459 
L 414.904936 129.048043 
L 415.832308 127.124458 
L 416.759681 124.243408 
L 417.687053 122.820568 
L 418.614426 122.264363 
L 419.541798 121.946049 
L 420.469171 121.291865 
L 422.323916 122.264363 
L 423.251288 124.110598 
L 424.17866 124.176764 
L 425.106033 124.794629 
L 426.033405 123.850575 
L 426.960778 123.914897 
L 427.88815 123.412449 
L 429.742895 121.998345 
L 430.670268 122.48284 
L 431.59764 122.427734 
L 433.452385 124.044902 
L 434.379757 123.72326 
L 435.30713 125.38087 
L 436.234502 126.253039 
L 437.161875 126.33657 
L 438.089247 125.767127 
L 439.01662 126.006886 
L 439.943992 126.006886 
L 440.871364 127.402777 
L 441.798737 126.591799 
L 442.726109 126.088209 
L 443.653482 126.591799 
L 444.580854 127.497446 
L 445.508227 128.1888 
L 446.435599 128.291932 
L 447.362972 128.608427 
L 449.217716 132.24424 
L 450.145089 132.56814 
L 451.072461 133.800661 
L 451.999834 134.383814 
L 453.854579 134.794113 
L 454.781951 134.383814 
L 455.709324 134.586684 
L 456.636696 135.445927 
L 457.564068 135.00631 
L 458.491441 135.00631 
L 459.418813 134.794113 
L 461.273558 135.223501 
L 462.200931 135.673844 
L 463.128303 135.907532 
L 464.055676 136.393444 
L 464.983048 135.223501 
L 465.91042 135.445927 
L 466.837793 134.586684 
L 467.765165 134.794113 
L 468.692538 134.185308 
L 469.61991 135.00631 
L 470.547283 134.586684 
L 471.474655 135.673844 
L 472.402028 137.449474 
L 473.3294 138.026549 
L 474.256772 138.966024 
L 475.184145 138.966024 
L 477.03889 137.733503 
L 477.966262 138.966024 
L 478.893635 136.906365 
L 479.821007 135.907532 
L 480.74838 134.586684 
L 481.675752 134.794113 
L 482.603124 133.990981 
L 483.530497 133.800661 
L 484.457869 132.404769 
L 486.312614 131.335619 
L 488.167359 131.335619 
L 489.094732 130.776042 
L 490.022104 129.871664 
L 490.949476 129.509649 
L 491.876849 128.93616 
L 492.804221 129.161298 
L 493.731594 128.93616 
L 495.586339 128.825618 
L 496.513711 129.749408 
L 497.441084 129.27596 
L 498.368456 129.749408 
L 499.295828 129.161298 
L 501.150573 129.392065 
L 503.005318 129.995561 
L 503.932691 130.912788 
L 504.860063 131.335619 
L 505.787436 132.56814 
L 506.714808 131.931322 
L 507.64218 131.480979 
L 508.569553 130.508481 
L 509.496925 128.716383 
L 510.424298 128.93616 
L 511.35167 127.98593 
L 512.279043 127.787424 
L 513.206415 128.291932 
L 514.133788 128.291932 
L 515.06116 129.161298 
L 515.988532 130.641292 
L 516.915905 129.871664 
L 517.843277 131.480979 
L 518.77065 132.404769 
L 519.698022 132.734454 
L 520.625395 132.404769 
L 521.552767 131.628666 
L 522.48014 131.335619 
L 523.407512 130.377554 
L 524.334884 128.825618 
L 525.262257 127.787424 
L 527.117002 126.006886 
L 528.044374 126.006886 
L 528.971747 125.010129 
L 530.826492 125.156643 
L 531.753864 123.230866 
L 532.681236 123.230866 
L 533.608609 123.850575 
L 534.535981 123.660255 
L 536.390726 122.103834 
L 537.318099 121.842338 
L 538.245471 122.878077 
L 539.172844 122.994181 
L 540.100216 122.820568 
L 541.027588 122.994181 
L 541.954961 124.584045 
L 542.882333 125.926272 
L 543.809706 126.253039 
L 544.737078 127.689749 
L 545.664451 127.689749 
L 546.591823 127.402777 
L 548.446568 128.396229 
L 549.373941 129.161298 
L 550.301313 130.377554 
L 552.156058 132.24424 
L 553.08343 133.076352 
L 554.010803 134.185308 
L 554.938175 134.586684 
L 555.865548 134.383814 
L 556.79292 135.673844 
L 557.720293 135.223501 
L 558.647665 135.907532 
L 559.575037 137.733503 
L 560.50241 135.445927 
L 561.429782 134.383814 
L 562.357155 132.90382 
L 563.284527 130.776042 
L 564.2119 129.871664 
L 565.139272 129.27596 
L 566.066645 128.291932 
L 566.994017 128.608427 
L 567.921389 128.291932 
L 568.848762 129.509649 
L 569.776134 129.995561 
L 570.703507 130.912788 
L 571.630879 129.995561 
L 572.558252 129.62875 
L 573.485624 128.608427 
L 574.412997 128.501718 
L 575.340369 128.608427 
L 576.267741 128.396229 
L 577.195114 128.501718 
L 578.122486 129.62875 
L 579.049859 129.871664 
L 580.904604 130.776042 
L 581.831976 129.749408 
L 582.759349 129.749408 
L 583.686721 129.161298 
L 584.614093 128.396229 
L 585.541466 128.93616 
L 586.468838 127.886144 
L 588.323583 127.787424 
L 589.250956 126.943468 
L 590.178328 125.926272 
L 591.105701 124.446278 
L 592.033073 122.427734 
L 592.960445 122.157034 
L 593.887818 121.099563 
L 594.81519 119.855155 
L 597.597308 117.812142 
L 598.52468 118.612246 
L 599.452053 117.845525 
L 600.379425 118.014272 
L 601.306797 118.432314 
L 602.23417 118.396745 
L 603.161542 118.151526 
L 604.088915 117.679808 
L 605.94366 114.036358 
L 607.798405 111.183903 
L 608.725777 110.525444 
L 610.580522 108.544806 
L 611.507894 108.034196 
L 613.362639 108.057329 
L 614.290012 107.605332 
L 615.217384 106.803119 
L 616.144757 106.378327 
L 617.999501 105.789264 
L 618.926874 105.37306 
L 619.854246 104.705123 
L 622.636364 104.705123 
L 622.636364 104.705123 
" style="fill:none;stroke:#988ed5;stroke-linecap:square;stroke-opacity:0.4;stroke-width:2;"/>
   </g>
   <g id="line2d_35">
    <defs>
     <path d="M 0 3 
C 0.795609 3 1.55874 2.683901 2.12132 2.12132 
C 2.683901 1.55874 3 0.795609 3 0 
C 3 -0.795609 2.683901 -1.55874 2.12132 -2.12132 
C 1.55874 -2.683901 0.795609 -3 0 -3 
C -0.795609 -3 -1.55874 -2.683901 -2.12132 -2.12132 
C -2.683901 -1.55874 -3 -0.795609 -3 0 
C -3 0.795609 -2.683901 1.55874 -2.12132 2.12132 
C -1.55874 2.683901 -0.795609 3 0 3 
z
" id="m6e4dbc8a59" style="stroke:#988ed5;stroke-opacity:0.4;"/>
    </defs>
    <g clip-path="url(#p7d65da05e0)">
     <use style="fill:#988ed5;fill-opacity:0.4;stroke:#988ed5;stroke-opacity:0.4;" x="622.636364" xlink:href="#m6e4dbc8a59" y="104.705123"/>
    </g>
   </g>
   <g id="line2d_36">
    <path clip-path="url(#p7d65da05e0)" d="M 147.810305 433 
L 147.821672 173.382181 
L 148.749044 173.382181 
L 149.676417 158.526755 
L 150.603789 158.526755 
L 151.531162 151.24914 
L 152.458534 147.790646 
L 154.313279 141.988466 
L 155.240651 137.65024 
L 156.168024 135.140239 
L 157.095396 131.062037 
L 158.022769 130.165196 
L 158.950141 126.479827 
L 159.877514 123.767313 
L 160.804886 123.597946 
L 161.732259 120.552374 
L 162.659631 119.129533 
L 164.514376 115.747302 
L 165.441748 114.778389 
L 166.369121 113.41568 
L 167.296493 111.681911 
L 168.223866 110.950204 
L 169.151238 109.960668 
L 170.078611 108.725754 
L 171.005983 107.726492 
L 171.933355 107.158076 
L 173.7881 105.861288 
L 175.642845 103.252101 
L 176.570218 103.275275 
L 177.49759 102.178323 
L 178.424963 101.704463 
L 179.352335 101.029104 
L 180.279707 100.623394 
L 181.20708 100.700313 
L 182.134452 100.902636 
L 183.061825 100.355734 
L 183.989197 100.902636 
L 184.91657 101.0875 
L 185.843942 101.720134 
L 186.771315 101.630387 
L 187.698687 101.763367 
L 188.626059 101.449661 
L 189.553432 101.595505 
L 190.480804 100.756659 
L 191.408177 100.595582 
L 192.335549 100.612955 
L 193.262922 100.848962 
L 194.190294 100.827579 
L 195.117667 101.116837 
L 196.045039 101.050959 
L 196.972412 101.814723 
L 197.899784 101.898291 
L 198.827156 101.688819 
L 199.754529 101.272406 
L 200.681901 101.673201 
L 201.609274 102.290255 
L 202.536646 102.765239 
L 203.464019 102.880121 
L 204.391391 102.756461 
L 205.318764 102.290255 
L 206.246136 102.774026 
L 208.100881 102.092193 
L 210.882998 101.854423 
L 211.810371 101.201705 
L 212.737743 101.298591 
L 214.592488 100.626876 
L 216.447233 101.043668 
L 217.374605 100.949408 
L 218.301978 101.747623 
L 219.22935 101.036383 
L 220.156723 101.061906 
L 222.011468 100.543659 
L 222.93884 100.128559 
L 223.866212 100.298414 
L 224.793585 100.098906 
L 226.64833 100.516085 
L 227.575702 101.032743 
L 228.503075 100.661773 
L 229.430447 101.313587 
L 230.35782 101.040025 
L 231.285192 101.850445 
L 232.212564 102.286085 
L 234.067309 102.116719 
L 234.994682 101.483996 
L 235.922054 100.201447 
L 236.849427 99.497243 
L 237.776799 98.987655 
L 240.558916 98.981824 
L 241.486289 99.386957 
L 243.341034 100.703824 
L 244.268406 100.679271 
L 245.195779 99.926191 
L 247.050524 100.321973 
L 247.977896 100.792051 
L 248.905268 101.02183 
L 250.760013 101.806803 
L 251.687386 102.686535 
L 254.469503 102.800435 
L 255.396876 103.335801 
L 257.25162 103.864483 
L 259.106365 103.100594 
L 260.96111 103.201322 
L 261.888483 103.028022 
L 262.815855 103.219754 
L 263.743228 103.137095 
L 265.597972 104.171263 
L 267.452717 104.186616 
L 268.38009 103.500756 
L 269.307462 103.064237 
L 271.162207 103.077854 
L 273.944324 102.24034 
L 275.799069 102.374052 
L 277.653814 101.385154 
L 279.508559 100.693294 
L 280.435932 99.87147 
L 284.145421 98.731683 
L 286.000166 97.671668 
L 287.854911 97.229758 
L 288.782284 96.673159 
L 289.709656 96.277773 
L 294.346518 94.958954 
L 295.273891 94.87639 
L 296.201263 95.120574 
L 298.98338 94.776061 
L 300.838125 94.966497 
L 301.765498 95.011882 
L 303.620243 94.887605 
L 304.547615 94.97027 
L 307.329732 94.623947 
L 308.257105 94.709776 
L 309.184477 94.410138 
L 310.11185 94.420801 
L 311.039222 94.209856 
L 312.893967 94.660372 
L 313.82134 94.569577 
L 314.748712 94.653076 
L 315.676084 95.049874 
L 316.603457 95.308537 
L 317.530829 95.863221 
L 318.458202 96.073485 
L 324.022436 98.535229 
L 324.949809 98.80859 
L 326.804554 98.524128 
L 327.731926 98.318425 
L 329.586671 97.331563 
L 330.514044 96.558133 
L 331.441416 96.199826 
L 333.296161 94.605788 
L 334.223533 93.956159 
L 335.150906 93.77865 
L 336.078278 93.178283 
L 337.005651 92.724907 
L 337.933023 91.57189 
L 338.860396 90.841522 
L 340.71514 89.709693 
L 345.352003 86.563823 
L 347.206748 85.637286 
L 348.13412 85.032748 
L 349.061492 84.143901 
L 351.84361 80.483308 
L 354.625727 77.937202 
L 356.480472 75.973074 
L 357.407844 75.284672 
L 359.262589 73.522751 
L 360.189962 72.969068 
L 361.117334 72.261932 
L 362.972079 71.122709 
L 363.899452 70.314663 
L 365.754196 69.418214 
L 366.681569 69.097052 
L 371.318431 65.372585 
L 373.173176 64.584488 
L 374.100548 64.37197 
L 379.664783 62.07463 
L 380.592156 61.754673 
L 381.519528 61.727396 
L 383.374273 62.12158 
L 386.15639 62.457089 
L 388.011135 63.129597 
L 388.938508 63.052488 
L 390.793252 63.229201 
L 391.720625 63.474645 
L 392.647997 63.843644 
L 393.57537 63.003644 
L 394.502742 63.275238 
L 398.212232 65.149188 
L 399.139604 65.867595 
L 400.066977 68.000553 
L 401.921722 68.348365 
L 402.849094 68.787796 
L 404.703839 69.364828 
L 408.413329 69.959228 
L 412.122819 70.058231 
L 413.050191 70.242369 
L 413.977564 70.205014 
L 415.832308 70.72123 
L 420.469171 70.814599 
L 421.396543 70.655847 
L 422.323916 70.920902 
L 423.251288 71.85422 
L 424.17866 72.617186 
L 425.106033 72.858527 
L 427.88815 72.653946 
L 431.59764 71.53738 
L 432.525012 71.541554 
L 433.452385 71.329319 
L 434.379757 71.527401 
L 435.30713 71.850519 
L 437.161875 70.817631 
L 438.089247 70.751975 
L 439.01662 71.058391 
L 439.943992 71.808834 
L 440.871364 72.226698 
L 441.798737 72.356879 
L 443.653482 73.502447 
L 444.580854 73.789143 
L 445.508227 73.885505 
L 448.290344 75.094745 
L 449.217716 75.285343 
L 450.145089 75.604843 
L 451.999834 75.826291 
L 454.781951 75.959109 
L 455.709324 76.096551 
L 457.564068 76.102659 
L 461.273558 76.354348 
L 464.055676 76.343556 
L 464.983048 76.425948 
L 466.837793 76.256177 
L 468.692538 76.024545 
L 469.61991 75.878139 
L 470.547283 75.851703 
L 471.474655 75.575944 
L 473.3294 74.738024 
L 475.184145 73.869951 
L 477.03889 73.301642 
L 477.966262 73.100345 
L 479.821007 72.016186 
L 482.603124 70.645694 
L 484.457869 70.309965 
L 487.239987 68.980979 
L 490.022104 68.159065 
L 491.876849 67.794709 
L 492.804221 67.230335 
L 493.731594 66.950332 
L 494.658966 66.403985 
L 497.441084 65.364946 
L 498.368456 64.789523 
L 501.150573 63.538262 
L 503.005318 63.034675 
L 503.932691 62.89655 
L 505.787436 62.186772 
L 506.714808 61.704514 
L 509.496925 60.959251 
L 511.35167 60.669601 
L 512.279043 60.6191 
L 515.06116 61.310942 
L 515.988532 61.664694 
L 516.915905 62.333495 
L 517.843277 63.379266 
L 518.77065 63.844162 
L 521.552767 64.271451 
L 522.48014 64.130441 
L 524.334884 63.403991 
L 525.262257 63.831349 
L 528.044374 65.955413 
L 529.899119 66.689849 
L 530.826492 67.360973 
L 532.681236 68.943547 
L 534.535981 70.298882 
L 536.390726 71.312724 
L 539.172844 73.509825 
L 541.027588 74.614694 
L 541.954961 74.81316 
L 542.882333 75.569022 
L 543.809706 76.799369 
L 544.737078 77.341815 
L 545.664451 77.551563 
L 546.591823 78.052091 
L 548.446568 78.437959 
L 549.373941 78.189238 
L 550.301313 78.109925 
L 552.156058 80.064406 
L 554.010803 81.508856 
L 554.938175 81.921809 
L 555.865548 82.569716 
L 556.79292 83.513588 
L 557.720293 84.270916 
L 559.575037 86.210132 
L 560.50241 87.044464 
L 561.429782 87.496766 
L 562.357155 88.129326 
L 564.2119 90.087689 
L 566.994017 92.592688 
L 567.921389 92.928368 
L 568.848762 93.588228 
L 569.776134 94.625765 
L 572.558252 98.183794 
L 573.485624 98.926614 
L 574.412997 99.344422 
L 575.340369 99.919737 
L 576.267741 100.244789 
L 577.195114 100.891876 
L 578.122486 100.816906 
L 579.049859 101.46872 
L 579.977231 101.802846 
L 580.904604 102.014952 
L 581.831976 102.818084 
L 582.759349 104.341576 
L 584.614093 106.135534 
L 585.541466 106.576076 
L 586.468838 107.21479 
L 587.396211 107.696475 
L 588.323583 107.855164 
L 590.178328 109.084419 
L 591.105701 109.585405 
L 592.960445 110.897065 
L 593.887818 111.133199 
L 595.742563 112.654409 
L 597.597308 113.784937 
L 598.52468 113.655439 
L 600.379425 114.049515 
L 601.306797 114.461169 
L 603.161542 114.555196 
L 605.016287 115.30977 
L 606.871032 115.02367 
L 607.798405 115.040256 
L 608.725777 115.258633 
L 610.580522 114.79454 
L 611.507894 114.337272 
L 612.435267 114.291236 
L 613.362639 113.945721 
L 614.290012 113.813963 
L 615.217384 113.291226 
L 617.072129 112.822588 
L 618.926874 112.628805 
L 620.781619 112.539746 
L 622.636364 112.539746 
L 622.636364 112.539746 
" style="fill:none;stroke:#777777;stroke-linecap:square;stroke-opacity:0.4;stroke-width:2;"/>
   </g>
   <g id="line2d_37">
    <defs>
     <path d="M 0 3 
C 0.795609 3 1.55874 2.683901 2.12132 2.12132 
C 2.683901 1.55874 3 0.795609 3 0 
C 3 -0.795609 2.683901 -1.55874 2.12132 -2.12132 
C 1.55874 -2.683901 0.795609 -3 0 -3 
C -0.795609 -3 -1.55874 -2.683901 -2.12132 -2.12132 
C -2.683901 -1.55874 -3 -0.795609 -3 0 
C -3 0.795609 -2.683901 1.55874 -2.12132 2.12132 
C -1.55874 2.683901 -0.795609 3 0 3 
z
" id="m14ca368a2e" style="stroke:#777777;stroke-opacity:0.4;"/>
    </defs>
    <g clip-path="url(#p7d65da05e0)">
     <use style="fill:#777777;fill-opacity:0.4;stroke:#777777;stroke-opacity:0.4;" x="622.636364" xlink:href="#m14ca368a2e" y="112.539746"/>
    </g>
   </g>
   <g id="line2d_38">
    <path clip-path="url(#p7d65da05e0)" d="M 143.172889 433 
L 143.18481 160.574377 
L 146.894299 160.574377 
L 147.821672 144.036088 
L 148.749044 144.036088 
L 149.676417 145.718951 
L 152.458534 145.718951 
L 153.385907 141.380726 
L 154.313279 150.433971 
L 155.240651 144.036088 
L 156.168024 132.472841 
L 158.022769 132.472841 
L 158.950141 129.180662 
L 159.877514 130.15316 
L 160.804886 126.074957 
L 161.732259 126.758988 
L 162.659631 126.074957 
L 163.587003 124.652117 
L 164.514376 124.652117 
L 165.441748 125.43814 
L 166.369121 125.43814 
L 167.296493 127.757821 
L 168.223866 127.757821 
L 170.078611 133.895682 
L 171.005983 133.895682 
L 171.933355 121.22901 
L 172.860728 121.22901 
L 173.7881 120.480206 
L 174.715473 110.874437 
L 175.642845 109.355322 
L 177.49759 103.822815 
L 178.424963 102.366226 
L 181.20708 95.271086 
L 182.134452 92.304759 
L 183.061825 91.461134 
L 183.989197 90.343017 
L 186.771315 87.77737 
L 188.626059 87.317455 
L 189.553432 86.458139 
L 190.480804 85.995067 
L 193.262922 85.112478 
L 194.190294 84.448509 
L 195.117667 84.032536 
L 197.899784 81.912986 
L 199.754529 80.431292 
L 202.536646 79.917103 
L 204.391391 79.973502 
L 206.246136 80.163016 
L 209.028253 79.937841 
L 209.955626 79.872819 
L 211.810371 79.504746 
L 214.592488 79.355959 
L 222.011468 79.448318 
L 228.503075 79.660287 
L 234.994682 80.134188 
L 238.704172 80.353399 
L 239.631544 80.533545 
L 242.413661 81.346605 
L 248.905268 82.866116 
L 250.760013 83.750329 
L 252.614758 84.676125 
L 253.542131 85.573218 
L 256.324248 87.420291 
L 258.178993 88.434767 
L 259.106365 89.062547 
L 260.033738 89.190969 
L 261.888483 90.058988 
L 262.815855 90.352178 
L 263.743228 90.963171 
L 265.597972 91.846331 
L 267.452717 93.090405 
L 268.38009 93.854941 
L 269.307462 94.322045 
L 271.162207 94.986585 
L 272.08958 95.039741 
L 273.016952 95.302375 
L 273.944324 95.239903 
L 274.871697 95.420662 
L 275.799069 95.943112 
L 276.726442 96.112633 
L 279.508559 96.241849 
L 281.363304 96.479097 
L 282.290676 96.470201 
L 289.709656 97.952515 
L 293.419146 98.966873 
L 295.273891 99.095969 
L 298.056008 100.106628 
L 298.98338 100.186085 
L 299.910753 102.002915 
L 300.838125 100.566205 
L 301.765498 100.904966 
L 303.620243 100.119823 
L 305.474988 98.839558 
L 306.40236 97.029222 
L 307.329732 97.268484 
L 308.257105 96.311512 
L 309.184477 96.32901 
L 310.11185 95.341636 
L 311.039222 95.016922 
L 311.966595 94.866222 
L 312.893967 94.843828 
L 314.748712 95.146981 
L 315.676084 94.866222 
L 316.603457 95.388971 
L 317.530829 95.629354 
L 319.385574 95.605032 
L 320.312947 95.349508 
L 321.240319 95.224351 
L 322.167692 94.784374 
L 330.514044 93.735154 
L 332.368788 93.158479 
L 333.296161 93.065775 
L 334.223533 92.841007 
L 335.150906 92.757367 
L 336.078278 92.510901 
L 338.860396 91.246587 
L 342.569885 89.23147 
L 345.352003 88.127188 
L 346.279375 89.358165 
L 347.206748 87.477174 
L 348.13412 87.212491 
L 349.061492 87.070087 
L 350.916237 86.521474 
L 351.84361 87.927685 
L 352.770982 84.783294 
L 353.698355 85.788719 
L 356.480472 84.609462 
L 357.407844 84.202801 
L 358.335217 82.744717 
L 359.262589 83.647795 
L 362.972079 82.636807 
L 364.826824 82.117285 
L 365.754196 81.731105 
L 367.608941 80.749606 
L 371.318431 79.531671 
L 373.173176 79.267273 
L 380.592156 78.891637 
L 382.4469 78.644717 
L 384.301645 78.110046 
L 386.15639 77.408652 
L 388.938508 76.600541 
L 392.647997 75.529809 
L 395.430115 75.004168 
L 399.139604 74.543982 
L 401.921722 74.19358 
L 411.195446 73.042 
L 412.122819 73.00204 
L 413.050191 72.820561 
L 416.759681 72.96713 
L 420.469171 72.929575 
L 422.323916 72.888717 
L 425.106033 73.018143 
L 427.88815 73.018844 
L 431.59764 72.968524 
L 432.525012 73.354966 
L 438.089247 73.754501 
L 439.01662 73.413293 
L 444.580854 72.8825 
L 445.508227 73.145147 
L 450.145089 73.763613 
L 451.072461 74.453489 
L 451.999834 74.879877 
L 453.854579 75.064322 
L 457.564068 74.971206 
L 458.491441 75.100253 
L 460.346186 75.056454 
L 464.983048 75.500419 
L 466.837793 75.434633 
L 469.61991 75.564831 
L 470.547283 75.299065 
L 471.474655 74.798786 
L 473.3294 75.461987 
L 475.184145 75.597207 
L 476.111517 75.913928 
L 477.03889 75.871829 
L 479.821007 76.291722 
L 480.74838 76.352866 
L 481.675752 76.565484 
L 482.603124 76.539792 
L 484.457869 76.838071 
L 486.312614 76.822185 
L 488.167359 77.090586 
L 489.094732 77.387253 
L 490.022104 77.422192 
L 490.949476 77.19466 
L 491.876849 78.002401 
L 493.731594 78.796792 
L 495.586339 79.104604 
L 496.513711 79.081598 
L 497.441084 79.351783 
L 498.368456 78.661491 
L 499.295828 78.13807 
L 501.150573 77.661268 
L 502.077946 77.481099 
L 503.005318 77.440278 
L 504.860063 76.972603 
L 505.787436 77.094945 
L 506.714808 77.082964 
L 508.569553 77.352445 
L 512.279043 77.563288 
L 514.133788 77.133169 
L 515.06116 76.928611 
L 517.843277 76.815838 
L 520.625395 76.743164 
L 522.48014 76.962928 
L 524.334884 77.320002 
L 527.117002 77.551829 
L 530.826492 77.044946 
L 531.753864 77.101486 
L 532.681236 76.865671 
L 534.535981 76.817954 
L 536.390726 76.877373 
L 537.318099 76.944681 
L 538.245471 76.796825 
L 541.027588 77.491333 
L 542.882333 77.707738 
L 545.664451 78.13441 
L 548.446568 77.77202 
L 549.373941 77.719393 
L 550.301313 78.006009 
L 551.228685 78.477367 
L 552.156058 78.792861 
L 553.08343 78.800724 
L 554.010803 78.274525 
L 554.938175 77.895996 
L 556.79292 76.863545 
L 558.647665 75.606478 
L 559.575037 75.50684 
L 560.50241 75.857521 
L 563.284527 76.638843 
L 565.139272 77.242156 
L 566.066645 77.788454 
L 566.994017 77.87581 
L 567.921389 78.264622 
L 569.776134 78.849363 
L 571.630879 79.658848 
L 572.558252 79.855165 
L 573.485624 80.207191 
L 576.267741 80.489358 
L 577.195114 80.353399 
L 578.122486 80.600223 
L 580.904604 80.372034 
L 581.831976 80.522478 
L 582.759349 80.439117 
L 583.686721 80.585894 
L 587.396211 82.349288 
L 590.178328 82.894673 
L 592.960445 82.607055 
L 593.887818 82.674632 
L 595.742563 82.266849 
L 597.597308 81.286338 
L 599.452053 80.259252 
L 600.379425 79.997353 
L 607.798405 79.312895 
L 609.653149 79.455352 
L 610.580522 79.418831 
L 613.362639 79.64447 
L 615.217384 79.574344 
L 616.144757 79.463801 
L 617.072129 79.710792 
L 617.999501 79.653094 
L 619.854246 79.773222 
L 622.636364 79.773222 
L 622.636364 79.773222 
" style="fill:none;stroke:#fbc15e;stroke-linecap:square;stroke-opacity:0.4;stroke-width:2;"/>
   </g>
   <g id="line2d_39">
    <defs>
     <path d="M 0 3 
C 0.795609 3 1.55874 2.683901 2.12132 2.12132 
C 2.683901 1.55874 3 0.795609 3 0 
C 3 -0.795609 2.683901 -1.55874 2.12132 -2.12132 
C 1.55874 -2.683901 0.795609 -3 0 -3 
C -0.795609 -3 -1.55874 -2.683901 -2.12132 -2.12132 
C -2.683901 -1.55874 -3 -0.795609 -3 0 
C -3 0.795609 -2.683901 1.55874 -2.12132 2.12132 
C -1.55874 2.683901 -0.795609 3 0 3 
z
" id="mba09ed8538" style="stroke:#fbc15e;stroke-opacity:0.4;"/>
    </defs>
    <g clip-path="url(#p7d65da05e0)">
     <use style="fill:#fbc15e;fill-opacity:0.4;stroke:#fbc15e;stroke-opacity:0.4;" x="622.636364" xlink:href="#mba09ed8538" y="79.773222"/>
    </g>
   </g>
   <g id="line2d_40">
    <path clip-path="url(#p7d65da05e0)" d="M 140.390737 433 
L 140.402692 159.763506 
L 141.330065 159.763506 
L 142.257437 140.569855 
L 143.18481 140.569855 
L 144.112182 133.084811 
L 145.966927 125.264086 
L 146.894299 122.775039 
L 147.821672 118.332517 
L 148.749044 116.719053 
L 149.676417 110.58617 
L 151.531162 106.813825 
L 152.458534 106.180978 
L 154.313279 101.322509 
L 155.240651 101.725345 
L 156.168024 96.723177 
L 157.095396 95.199676 
L 158.022769 90.26066 
L 158.950141 90.44582 
L 159.877514 88.688279 
L 160.804886 88.015596 
L 161.732259 84.645662 
L 162.659631 82.856895 
L 163.587003 80.757779 
L 164.514376 80.655709 
L 165.441748 78.592551 
L 167.296493 76.962322 
L 171.005983 77.585827 
L 171.933355 77.876486 
L 172.860728 78.40826 
L 174.715473 78.021373 
L 176.570218 78.827855 
L 177.49759 79.057531 
L 178.424963 79.882231 
L 180.279707 80.248303 
L 182.134452 81.250246 
L 185.843942 83.969917 
L 186.771315 85.692463 
L 187.698687 86.900852 
L 188.626059 87.446883 
L 189.553432 88.327711 
L 190.480804 88.215877 
L 191.408177 88.493952 
L 192.335549 89.037433 
L 195.117667 91.671123 
L 196.045039 92.322796 
L 196.972412 93.433992 
L 197.899784 94.168145 
L 198.827156 94.313025 
L 201.609274 95.748684 
L 202.536646 96.743156 
L 203.464019 97.569044 
L 204.391391 97.869149 
L 205.318764 98.720679 
L 206.246136 99.937285 
L 207.173508 101.691095 
L 208.100881 102.364614 
L 209.028253 103.70812 
L 210.882998 105.357018 
L 211.810371 105.155807 
L 213.665116 106.043005 
L 214.592488 106.903584 
L 215.51986 106.491978 
L 216.447233 107.687603 
L 217.374605 108.689241 
L 218.301978 109.25338 
L 219.22935 108.985819 
L 220.156723 109.528929 
L 221.084095 111.187849 
L 222.011468 113.331583 
L 222.93884 113.576105 
L 223.866212 113.576105 
L 224.793585 113.955482 
L 225.720957 115.729156 
L 226.64833 117.074105 
L 227.575702 115.497424 
L 228.503075 115.574023 
L 229.430447 115.12368 
L 230.35782 115.197228 
L 231.285192 116.128794 
L 232.212564 115.807712 
L 233.139937 115.807712 
L 234.067309 116.546521 
L 234.994682 116.293623 
L 235.922054 116.984053 
L 236.849427 117.165043 
L 237.776799 116.04747 
L 238.704172 115.729156 
L 239.631544 114.764484 
L 240.558916 115.050714 
L 242.413661 113.392109 
L 245.195779 112.03893 
L 246.123151 113.15235 
L 247.050524 112.251128 
L 247.977896 113.576105 
L 248.905268 112.091524 
L 249.832641 111.882923 
L 250.760013 111.934633 
L 251.687386 111.381158 
L 252.614758 109.649587 
L 253.542131 108.762497 
L 254.469503 106.754466 
L 256.324248 105.907065 
L 257.25162 104.886114 
L 258.178993 102.874908 
L 260.033738 100.49068 
L 260.96111 100.079729 
L 262.815855 99.797005 
L 264.6706 100.022487 
L 266.525345 100.889388 
L 267.452717 100.43084 
L 268.38009 100.49068 
L 270.234835 100.022487 
L 271.162207 99.979787 
L 272.08958 99.243163 
L 273.944324 99.631437 
L 274.871697 99.190867 
L 275.799069 99.45536 
L 276.726442 98.959134 
L 277.653814 98.845414 
L 278.581187 99.164829 
L 279.508559 98.392081 
L 280.435932 97.948573 
L 281.363304 97.824068 
L 283.218049 97.320876 
L 284.145421 96.783244 
L 285.072794 95.802714 
L 286.000166 95.31032 
L 287.854911 94.810368 
L 289.709656 94.818483 
L 290.637028 94.916417 
L 292.491773 95.668226 
L 294.346518 95.5269 
L 295.273891 95.19122 
L 296.201263 94.721577 
L 297.128636 94.003182 
L 298.056008 93.617473 
L 298.98338 92.884696 
L 299.910753 92.428712 
L 300.838125 92.132728 
L 304.547615 91.533612 
L 306.40236 91.089501 
L 307.329732 90.68651 
L 308.257105 90.537259 
L 309.184477 90.511769 
L 312.893967 89.177353 
L 315.676084 89.020091 
L 317.530829 89.063507 
L 319.385574 88.580274 
L 320.312947 87.972963 
L 322.167692 87.755142 
L 323.095064 87.388625 
L 324.022436 87.240997 
L 324.949809 86.81177 
L 327.731926 86.356071 
L 330.514044 85.608278 
L 331.441416 85.728778 
L 332.368788 87.258874 
L 333.296161 89.137786 
L 334.223533 86.043369 
L 335.150906 86.134805 
L 336.078278 86.382071 
L 337.933023 87.251719 
L 339.787768 87.251719 
L 340.71514 88.444985 
L 341.642513 88.69664 
L 342.569885 88.806023 
L 344.42463 87.472487 
L 346.279375 87.472487 
L 347.206748 85.022681 
L 348.13412 83.776477 
L 349.061492 82.271611 
L 349.988865 81.058136 
L 350.916237 79.489934 
L 352.770982 79.489934 
L 353.698355 76.246006 
L 354.625727 75.470866 
L 355.5531 73.874732 
L 357.407844 71.609029 
L 359.262589 71.609029 
L 360.189962 68.961388 
L 361.117334 68.221327 
L 362.044707 67.038707 
L 362.972079 66.037114 
L 363.899452 64.849548 
L 365.754196 64.849548 
L 366.681569 62.443992 
L 370.391059 59.785103 
L 372.245804 59.785103 
L 373.173176 59.001024 
L 374.100548 58.971412 
L 375.027921 58.731204 
L 376.882666 58.578843 
L 378.737411 58.578843 
L 379.664783 59.349174 
L 380.592156 59.374614 
L 381.519528 59.694701 
L 383.374273 60.821916 
L 385.229018 60.821916 
L 386.15639 61.782583 
L 387.083763 62.109946 
L 389.86588 63.6007 
L 391.720625 63.6007 
L 392.647997 64.494288 
L 393.57537 64.591727 
L 394.502742 64.979929 
L 396.357487 65.349774 
L 398.212232 65.349774 
L 399.139604 65.67858 
L 400.066977 65.831488 
L 403.776467 65.857515 
L 404.703839 65.857515 
L 405.631212 65.502709 
L 410.268074 64.817081 
L 411.195446 64.817081 
L 412.122819 64.532957 
L 413.050191 64.530211 
L 413.977564 64.367247 
L 414.904936 64.362154 
L 415.832308 64.561377 
L 417.687053 64.561377 
L 418.614426 64.785668 
L 419.541798 64.784414 
L 420.469171 64.971926 
L 421.396543 65.023265 
L 422.323916 66.58987 
L 426.033405 66.587201 
L 426.960778 66.439352 
L 427.88815 66.631524 
L 430.670268 66.631524 
L 434.379757 67.27836 
L 435.30713 66.042502 
L 437.161875 66.042502 
L 438.089247 67.246781 
L 439.01662 67.738239 
L 440.871364 69.290078 
L 441.798737 69.720391 
L 443.653482 69.720391 
L 444.580854 70.74986 
L 445.508227 71.110462 
L 448.290344 71.611 
L 450.145089 71.611 
L 452.927206 72.48108 
L 453.854579 72.853755 
L 454.781951 73.035921 
L 456.636696 73.035921 
L 457.564068 73.463448 
L 458.491441 73.66721 
L 459.418813 74.023678 
L 460.346186 73.967541 
L 461.273558 74.253451 
L 463.128303 74.253451 
L 464.055676 74.696887 
L 466.837793 75.534957 
L 467.765165 75.873728 
L 469.61991 75.873728 
L 470.547283 76.747831 
L 474.256772 77.97937 
L 477.966262 77.946687 
L 478.893635 77.829979 
L 479.821007 77.894635 
L 481.675752 77.837714 
L 482.603124 77.837714 
L 483.530497 77.695659 
L 484.457869 77.696929 
L 485.385242 77.85062 
L 486.312614 77.781142 
L 487.239987 77.582063 
L 489.094732 77.582063 
L 490.949476 77.055455 
L 492.804221 76.532613 
L 493.731594 76.409164 
L 495.586339 76.409164 
L 496.513711 75.950145 
L 497.441084 75.88729 
L 500.223201 74.783556 
L 502.077946 74.783556 
L 503.932691 74.003225 
L 505.787436 73.619725 
L 506.714808 73.373958 
L 508.569553 73.373958 
L 509.496925 72.662592 
L 510.424298 72.604616 
L 511.35167 72.324335 
L 512.279043 72.379857 
L 513.206415 72.240266 
L 515.06116 72.240266 
L 515.988532 76.194054 
L 516.915905 73.411407 
L 517.843277 73.49965 
L 518.77065 73.119857 
L 519.698022 72.914079 
L 521.552767 72.914079 
L 522.48014 69.436314 
L 523.407512 70.950695 
L 524.334884 70.769028 
L 527.117002 71.096783 
L 528.044374 71.096783 
L 528.971747 71.527947 
L 529.899119 71.59328 
L 531.753864 71.512336 
L 533.608609 71.572323 
L 534.535981 71.572323 
L 535.463354 71.309212 
L 536.390726 71.313028 
L 537.318099 71.680234 
L 540.100216 72.004205 
L 541.027588 72.004205 
L 541.954961 72.967948 
L 542.882333 73.358069 
L 545.664451 74.178536 
L 547.519196 74.178536 
L 550.301313 74.90853 
L 551.228685 76.646393 
L 552.156058 75.829009 
L 554.010803 75.829009 
L 554.938175 76.968188 
L 555.865548 77.128017 
L 556.79292 77.110121 
L 557.720293 75.782442 
L 558.647665 78.527005 
L 559.575037 76.99287 
L 560.50241 76.99287 
L 561.429782 80.79857 
L 562.357155 78.415122 
L 563.284527 79.214885 
L 564.2119 79.528577 
L 565.139272 78.214133 
L 566.066645 79.987443 
L 566.994017 79.987443 
L 567.921389 77.545756 
L 568.848762 80.484052 
L 569.776134 80.976234 
L 571.630879 82.60706 
L 573.485624 82.60706 
L 574.412997 84.106251 
L 575.340369 84.977847 
L 576.267741 87.237425 
L 577.195114 86.188829 
L 578.122486 86.636145 
L 579.977231 86.636145 
L 580.904604 88.054526 
L 581.831976 88.810256 
L 582.759349 87.687411 
L 583.686721 90.801367 
L 584.614093 91.804854 
L 586.468838 91.804854 
L 587.396211 93.877699 
L 588.323583 94.745708 
L 589.250956 95.838911 
L 591.105701 97.183504 
L 592.960445 97.183504 
L 593.887818 98.634358 
L 594.81519 98.64664 
L 595.742563 98.959134 
L 597.597308 97.756858 
L 599.452053 97.756858 
L 600.379425 95.668226 
L 602.23417 93.247238 
L 603.161542 92.612246 
L 604.088915 91.613578 
L 605.94366 91.613578 
L 606.871032 89.689141 
L 608.725777 87.834795 
L 609.653149 86.71004 
L 610.580522 87.869143 
L 611.507894 85.762194 
L 612.435267 85.762194 
L 613.362639 83.751968 
L 616.144757 82.079717 
L 617.072129 80.591181 
L 617.999501 81.734998 
L 618.926874 81.734998 
L 619.854246 81.376161 
L 622.636364 81.376161 
L 622.636364 81.376161 
" style="fill:none;stroke:#8eba42;stroke-linecap:square;stroke-opacity:0.4;stroke-width:2;"/>
   </g>
   <g id="line2d_41">
    <defs>
     <path d="M 0 3 
C 0.795609 3 1.55874 2.683901 2.12132 2.12132 
C 2.683901 1.55874 3 0.795609 3 0 
C 3 -0.795609 2.683901 -1.55874 2.12132 -2.12132 
C 1.55874 -2.683901 0.795609 -3 0 -3 
C -0.795609 -3 -1.55874 -2.683901 -2.12132 -2.12132 
C -2.683901 -1.55874 -3 -0.795609 -3 0 
C -3 0.795609 -2.683901 1.55874 -2.12132 2.12132 
C -1.55874 2.683901 -0.795609 3 0 3 
z
" id="m0423559d2a" style="stroke:#8eba42;stroke-opacity:0.4;"/>
    </defs>
    <g clip-path="url(#p7d65da05e0)">
     <use style="fill:#8eba42;fill-opacity:0.4;stroke:#8eba42;stroke-opacity:0.4;" x="622.636364" xlink:href="#m0423559d2a" y="81.376161"/>
    </g>
   </g>
   <g id="line2d_42">
    <path clip-path="url(#p7d65da05e0)" d="M 115.363636 178.500277 
L 116.291009 178.500277 
L 117.218381 176.817413 
L 118.145754 176.817413 
L 119.073126 183.215297 
L 120.000499 176.817413 
L 120.927871 176.817413 
L 121.855243 178.500277 
L 122.782616 176.817413 
L 123.709988 180.559935 
L 125.564733 180.559935 
L 126.492106 193.355702 
L 127.419478 186.957819 
L 132.983713 186.957819 
L 133.911085 193.355702 
L 134.838458 193.355702 
L 134.84896 433 
M 136.682423 433 
L 136.693203 186.957819 
L 141.330065 186.957819 
L 142.257437 183.215297 
L 143.18481 193.355702 
L 144.112182 173.074891 
L 145.039555 167.764168 
L 145.966927 159.540314 
L 146.894299 155.877021 
L 147.821672 151.719589 
L 148.749044 146.115621 
L 149.676417 143.571468 
L 150.603789 138.575471 
L 151.531162 136.236817 
L 152.458534 135.300401 
L 153.385907 132.783063 
L 154.313279 129.233759 
L 155.240651 126.476893 
L 156.168024 123.281338 
L 157.095396 120.865398 
L 158.022769 120.451827 
L 158.950141 116.605919 
L 160.804886 110.376774 
L 162.659631 103.014508 
L 163.587003 100.635708 
L 164.514376 97.697374 
L 165.441748 95.216465 
L 168.223866 89.990203 
L 170.078611 87.18304 
L 171.933355 85.417759 
L 174.715473 82.185056 
L 176.570218 80.854746 
L 178.424963 79.946782 
L 179.352335 79.758617 
L 180.279707 79.802565 
L 182.134452 79.561953 
L 186.771315 80.335959 
L 187.698687 80.603586 
L 190.480804 80.774625 
L 191.408177 80.641424 
L 192.335549 80.775137 
L 194.190294 80.449675 
L 195.117667 80.48296 
L 196.972412 80.353072 
L 197.899784 80.628763 
L 199.754529 80.804758 
L 200.681901 81.012993 
L 201.609274 80.890516 
L 203.464019 81.139006 
L 205.318764 81.124194 
L 207.173508 81.303233 
L 208.100881 81.710396 
L 209.028253 81.823022 
L 210.882998 82.375888 
L 211.810371 82.464999 
L 212.737743 82.699269 
L 214.592488 82.855999 
L 216.447233 82.941467 
L 217.374605 82.761203 
L 218.301978 82.874397 
L 219.22935 82.741358 
L 221.084095 82.865048 
L 222.011468 83.044095 
L 222.93884 82.944058 
L 223.866212 83.166263 
L 224.793585 83.24602 
L 226.64833 83.722081 
L 229.430447 83.577859 
L 230.35782 83.656941 
L 232.212564 83.458936 
L 236.849427 83.652805 
L 237.776799 83.853368 
L 243.341034 83.256738 
L 248.905268 81.258613 
L 250.760013 80.075441 
L 252.614758 79.226567 
L 253.542131 78.674206 
L 254.469503 78.344487 
L 255.396876 77.802938 
L 257.25162 77.198671 
L 259.106365 76.231605 
L 262.815855 75.638061 
L 263.743228 75.265526 
L 265.597972 74.909147 
L 267.452717 74.173803 
L 268.38009 74.000569 
L 269.307462 73.653434 
L 271.162207 73.328502 
L 272.08958 73.054969 
L 275.799069 72.817782 
L 276.726442 72.888655 
L 277.653814 72.83946 
L 278.581187 72.986918 
L 281.363304 73.029881 
L 282.290676 73.137645 
L 285.072794 73.091625 
L 286.927539 73.366304 
L 289.709656 73.973737 
L 290.637028 74.370131 
L 293.419146 74.837667 
L 295.273891 74.781395 
L 296.201263 75.047227 
L 297.128636 75.007899 
L 298.056008 75.210389 
L 298.98338 75.0579 
L 304.547615 76.22287 
L 305.474988 76.704276 
L 310.11185 77.191814 
L 311.966595 77.212654 
L 320.312947 77.350094 
L 324.022436 78.791677 
L 325.877181 78.968802 
L 326.804554 78.848805 
L 328.659299 78.015325 
L 329.586671 77.844884 
L 330.514044 77.542253 
L 333.296161 77.325351 
L 334.223533 76.782239 
L 339.787768 76.693496 
L 340.71514 77.267142 
L 342.569885 77.145464 
L 343.497258 77.191245 
L 345.352003 76.863609 
L 346.279375 76.918339 
L 347.206748 76.733687 
L 348.13412 76.675228 
L 349.988865 75.969284 
L 350.916237 75.929691 
L 356.480472 74.864975 
L 357.407844 74.556849 
L 359.262589 74.434388 
L 360.189962 73.845704 
L 361.117334 73.634357 
L 362.044707 73.558973 
L 363.899452 73.056826 
L 364.826824 72.546309 
L 365.754196 72.304369 
L 366.681569 72.311943 
L 370.391059 71.20702 
L 371.318431 71.092331 
L 372.245804 70.420854 
L 373.173176 70.15324 
L 374.100548 69.439505 
L 375.027921 69.103175 
L 375.955293 68.612173 
L 377.810038 67.817836 
L 378.737411 67.701077 
L 379.664783 67.311493 
L 380.592156 67.168498 
L 384.301645 65.510005 
L 385.229018 65.323141 
L 386.15639 64.961921 
L 389.86588 64.199572 
L 394.502742 63.781637 
L 395.430115 64.384476 
L 396.357487 64.309068 
L 397.28486 64.49696 
L 400.066977 64.557773 
L 400.994349 64.402445 
L 401.921722 63.565235 
L 402.849094 63.388589 
L 403.776467 62.972231 
L 406.558584 62.249181 
L 408.413329 62.077061 
L 412.122819 61.97897 
L 413.050191 62.073413 
L 414.904936 61.876175 
L 415.832308 61.805864 
L 416.759681 61.960415 
L 419.541798 61.999633 
L 420.469171 62.103894 
L 421.396543 62.390099 
L 422.323916 63.424216 
L 423.251288 63.183483 
L 425.106033 63.584873 
L 426.960778 63.538857 
L 428.815523 62.862697 
L 429.742895 62.38028 
L 430.670268 62.049785 
L 431.59764 61.989637 
L 434.379757 61.404337 
L 435.30713 60.63052 
L 436.234502 60.840298 
L 437.161875 60.815822 
L 438.089247 60.652992 
L 439.943992 60.830579 
L 441.798737 61.355308 
L 442.726109 61.697343 
L 443.653482 61.90893 
L 445.508227 62.674597 
L 450.145089 64.232952 
L 451.072461 64.170481 
L 456.636696 65.444659 
L 457.564068 65.59362 
L 459.418813 66.193459 
L 461.273558 66.963392 
L 462.200931 67.371558 
L 463.128303 67.619097 
L 464.055676 68.131771 
L 466.837793 68.931536 
L 467.765165 69.391391 
L 468.692538 69.624374 
L 469.61991 69.973337 
L 471.474655 71.027308 
L 472.402028 71.443306 
L 473.3294 72.071765 
L 475.184145 72.747292 
L 476.111517 72.904423 
L 477.03889 72.867177 
L 478.893635 72.587112 
L 479.821007 72.442609 
L 481.675752 72.614197 
L 482.603124 72.72509 
L 483.530497 72.687415 
L 484.457869 72.986397 
L 486.312614 73.333367 
L 490.022104 74.224144 
L 490.949476 74.211121 
L 492.804221 74.557989 
L 495.586339 74.870108 
L 496.513711 74.588911 
L 497.441084 74.676506 
L 499.295828 74.693623 
L 502.077946 74.737829 
L 503.005318 74.862275 
L 503.932691 74.870132 
L 504.860063 74.214598 
L 505.787436 74.051971 
L 506.714808 73.705056 
L 508.569553 73.349894 
L 509.496925 72.985576 
L 510.424298 72.831834 
L 511.35167 73.237971 
L 512.279043 73.002795 
L 513.206415 73.154314 
L 514.133788 73.145772 
L 515.06116 73.312117 
L 515.988532 73.144937 
L 516.915905 73.160333 
L 517.843277 72.993349 
L 518.77065 72.977828 
L 519.698022 72.724739 
L 520.625395 72.658278 
L 521.552767 72.440966 
L 522.48014 72.580382 
L 523.407512 72.25476 
L 525.262257 72.351553 
L 526.189629 72.401028 
L 527.117002 72.671025 
L 528.971747 72.794918 
L 530.826492 73.393936 
L 531.753864 73.542281 
L 532.681236 73.925804 
L 533.608609 73.904475 
L 534.535981 74.127678 
L 535.463354 74.605294 
L 538.245471 75.269372 
L 541.027588 75.671623 
L 541.954961 75.593641 
L 545.664451 76.753939 
L 548.446568 77.818781 
L 550.301313 78.374025 
L 551.228685 78.720874 
L 556.79292 80.163064 
L 557.720293 80.512607 
L 558.647665 81.184413 
L 559.575037 81.636324 
L 564.2119 82.716955 
L 565.139272 83.073619 
L 566.994017 83.945815 
L 567.921389 85.365461 
L 568.848762 85.350081 
L 569.776134 85.906171 
L 570.703507 86.611951 
L 571.630879 87.061781 
L 572.558252 86.888111 
L 573.485624 87.009839 
L 574.412997 86.160548 
L 575.340369 87.02871 
L 576.267741 86.871418 
L 577.195114 87.289579 
L 578.122486 86.577394 
L 579.049859 87.087031 
L 579.977231 87.144238 
L 581.831976 87.569308 
L 582.759349 88.195013 
L 584.614093 89.097153 
L 585.541466 89.063712 
L 587.396211 89.211328 
L 589.250956 89.252541 
L 591.105701 88.625467 
L 592.033073 88.759104 
L 592.960445 88.756008 
L 593.887818 88.456948 
L 595.742563 88.340788 
L 596.669935 88.169763 
L 597.597308 87.550076 
L 598.52468 87.802271 
L 599.452053 87.824534 
L 600.379425 88.83273 
L 601.306797 87.498601 
L 602.23417 86.597237 
L 603.161542 86.119906 
L 604.088915 84.708683 
L 605.016287 84.407064 
L 605.94366 84.238328 
L 606.871032 82.429385 
L 607.798405 82.307621 
L 609.653149 81.404038 
L 610.580522 79.972106 
L 612.435267 79.562688 
L 616.144757 76.759272 
L 617.072129 75.639929 
L 617.999501 75.262347 
L 618.926874 75.16894 
L 619.854246 74.267854 
L 622.636364 74.267854 
L 622.636364 74.267854 
" style="fill:none;stroke:#ffb5b8;stroke-linecap:square;stroke-opacity:0.4;stroke-width:2;"/>
   </g>
   <g id="line2d_43">
    <defs>
     <path d="M 0 3 
C 0.795609 3 1.55874 2.683901 2.12132 2.12132 
C 2.683901 1.55874 3 0.795609 3 0 
C 3 -0.795609 2.683901 -1.55874 2.12132 -2.12132 
C 1.55874 -2.683901 0.795609 -3 0 -3 
C -0.795609 -3 -1.55874 -2.683901 -2.12132 -2.12132 
C -2.683901 -1.55874 -3 -0.795609 -3 0 
C -3 0.795609 -2.683901 1.55874 -2.12132 2.12132 
C -1.55874 2.683901 -0.795609 3 0 3 
z
" id="meff17953a8" style="stroke:#ffb5b8;stroke-opacity:0.4;"/>
    </defs>
    <g clip-path="url(#p7d65da05e0)">
     <use style="fill:#ffb5b8;fill-opacity:0.4;stroke:#ffb5b8;stroke-opacity:0.4;" x="622.636364" xlink:href="#meff17953a8" y="74.267854"/>
    </g>
   </g>
   <g id="patch_3">
    <path d="M 90 200.094545 
L 90 51.84 
" style="fill:none;stroke:#ffffff;stroke-linecap:square;stroke-linejoin:miter;"/>
   </g>
   <g id="patch_4">
    <path d="M 648 200.094545 
L 648 51.84 
" style="fill:none;stroke:#ffffff;stroke-linecap:square;stroke-linejoin:miter;"/>
   </g>
   <g id="patch_5">
    <path d="M 90 200.094545 
L 648 200.094545 
" style="fill:none;stroke:#ffffff;stroke-linecap:square;stroke-linejoin:miter;"/>
   </g>
   <g id="patch_6">
    <path d="M 90 51.84 
L 648 51.84 
" style="fill:none;stroke:#ffffff;stroke-linecap:square;stroke-linejoin:miter;"/>
   </g>
   <g id="legend_1">
    <g id="patch_7">
     <path d="M 97 162.586875 
L 192.7625 162.586875 
Q 194.7625 162.586875 194.7625 160.586875 
L 194.7625 58.84 
Q 194.7625 56.84 192.7625 56.84 
L 97 56.84 
Q 95 56.84 95 58.84 
L 95 160.586875 
Q 95 162.586875 97 162.586875 
z
" style="fill:#e5e5e5;opacity:0.8;stroke:#cccccc;stroke-linejoin:miter;stroke-width:0.5;"/>
    </g>
    <g id="line2d_44">
     <path d="M 99 64.938437 
L 119 64.938437 
" style="fill:none;stroke:#348abd;stroke-linecap:square;stroke-width:4;"/>
    </g>
    <g id="line2d_45"/>
    <g id="text_18">
     <text style="font-family:DejaVu Sans;font-size:10px;font-stretch:normal;font-style:normal;font-weight:normal;text-anchor:start;" transform="rotate(-0, 127, 68.438437)" x="127" y="68.438437">Korea, South</text>
    </g>
    <g id="line2d_46">
     <path d="M 99 79.616562 
L 119 79.616562 
" style="fill:none;stroke:#348abd;stroke-linecap:square;stroke-opacity:0.4;stroke-width:2;"/>
    </g>
    <g id="line2d_47"/>
    <g id="text_19">
     <text style="font-family:DejaVu Sans;font-size:10px;font-stretch:normal;font-style:normal;font-weight:normal;text-anchor:start;" transform="rotate(-0, 127, 83.116562)" x="127" y="83.116562">Germany</text>
    </g>
    <g id="line2d_48">
     <path d="M 99 94.294687 
L 119 94.294687 
" style="fill:none;stroke:#988ed5;stroke-linecap:square;stroke-opacity:0.4;stroke-width:2;"/>
    </g>
    <g id="line2d_49"/>
    <g id="text_20">
     <text style="font-family:DejaVu Sans;font-size:10px;font-stretch:normal;font-style:normal;font-weight:normal;text-anchor:start;" transform="rotate(-0, 127, 97.794687)" x="127" y="97.794687">Australia</text>
    </g>
    <g id="line2d_50">
     <path d="M 99 108.972812 
L 119 108.972812 
" style="fill:none;stroke:#777777;stroke-linecap:square;stroke-opacity:0.4;stroke-width:2;"/>
    </g>
    <g id="line2d_51"/>
    <g id="text_21">
     <text style="font-family:DejaVu Sans;font-size:10px;font-stretch:normal;font-style:normal;font-weight:normal;text-anchor:start;" transform="rotate(-0, 127, 112.472812)" x="127" y="112.472812">Poland</text>
    </g>
    <g id="line2d_52">
     <path d="M 99 123.650937 
L 119 123.650937 
" style="fill:none;stroke:#fbc15e;stroke-linecap:square;stroke-opacity:0.4;stroke-width:2;"/>
    </g>
    <g id="line2d_53"/>
    <g id="text_22">
     <text style="font-family:DejaVu Sans;font-size:10px;font-stretch:normal;font-style:normal;font-weight:normal;text-anchor:start;" transform="rotate(-0, 127, 127.150937)" x="127" y="127.150937">Belarus</text>
    </g>
    <g id="line2d_54">
     <path d="M 99 138.329062 
L 119 138.329062 
" style="fill:none;stroke:#8eba42;stroke-linecap:square;stroke-opacity:0.4;stroke-width:2;"/>
    </g>
    <g id="line2d_55"/>
    <g id="text_23">
     <text style="font-family:DejaVu Sans;font-size:10px;font-stretch:normal;font-style:normal;font-weight:normal;text-anchor:start;" transform="rotate(-0, 127, 141.829062)" x="127" y="141.829062">Switzerland</text>
    </g>
    <g id="line2d_56">
     <path d="M 99 153.007187 
L 119 153.007187 
" style="fill:none;stroke:#ffb5b8;stroke-linecap:square;stroke-opacity:0.4;stroke-width:2;"/>
    </g>
    <g id="line2d_57"/>
    <g id="text_24">
     <text style="font-family:DejaVu Sans;font-size:10px;font-stretch:normal;font-style:normal;font-weight:normal;text-anchor:start;" transform="rotate(-0, 127, 156.507187)" x="127" y="156.507187">US</text>
    </g>
   </g>
  </g>
 </g>
 <defs>
  <clipPath id="p7d65da05e0">
   <rect height="148.254545" width="558" x="90" y="51.84"/>
  </clipPath>
 </defs>
</svg>
