<?xml version="1.0" encoding="utf-8" standalone="no"?>
<!DOCTYPE svg PUBLIC "-//W3C//DTD SVG 1.1//EN"
  "http://www.w3.org/Graphics/SVG/1.1/DTD/svg11.dtd">
<!-- Created with matplotlib (https://matplotlib.org/) -->
<svg height="432pt" version="1.1" viewBox="0 0 720 432" width="720pt" xmlns="http://www.w3.org/2000/svg" xmlns:xlink="http://www.w3.org/1999/xlink">
 <defs>
  <style type="text/css">
*{stroke-linecap:butt;stroke-linejoin:round;}
  </style>
 </defs>
 <g id="figure_1">
  <g id="patch_1">
   <path d="M 0 432 
L 720 432 
L 720 0 
L 0 0 
z
" style="fill:#ffffff;"/>
  </g>
  <g id="axes_1">
   <g id="patch_2">
    <path d="M 90 378 
L 648 378 
L 648 229.745455 
L 90 229.745455 
z
" style="fill:#e5e5e5;"/>
   </g>
   <g id="matplotlib.axis_1">
    <g id="xtick_1">
     <g id="line2d_1">
      <path clip-path="url(#pea8d5e9608)" d="M 92.062847 378 
L 92.062847 229.745455 
" style="fill:none;stroke:#ffffff;stroke-linecap:square;stroke-width:0.8;"/>
     </g>
     <g id="line2d_2">
      <defs>
       <path d="M 0 0 
L 0 3.5 
" id="m0c099a2654" style="stroke:#555555;stroke-width:0.8;"/>
      </defs>
      <g>
       <use style="fill:#555555;stroke:#555555;stroke-width:0.8;" x="92.062847" xlink:href="#m0c099a2654" y="378"/>
      </g>
     </g>
     <g id="text_1">
      <!-- 0 -->
      <defs>
       <path d="M 31.78125 66.40625 
Q 24.171875 66.40625 20.328125 58.90625 
Q 16.5 51.421875 16.5 36.375 
Q 16.5 21.390625 20.328125 13.890625 
Q 24.171875 6.390625 31.78125 6.390625 
Q 39.453125 6.390625 43.28125 13.890625 
Q 47.125 21.390625 47.125 36.375 
Q 47.125 51.421875 43.28125 58.90625 
Q 39.453125 66.40625 31.78125 66.40625 
z
M 31.78125 74.21875 
Q 44.046875 74.21875 50.515625 64.515625 
Q 56.984375 54.828125 56.984375 36.375 
Q 56.984375 17.96875 50.515625 8.265625 
Q 44.046875 -1.421875 31.78125 -1.421875 
Q 19.53125 -1.421875 13.0625 8.265625 
Q 6.59375 17.96875 6.59375 36.375 
Q 6.59375 54.828125 13.0625 64.515625 
Q 19.53125 74.21875 31.78125 74.21875 
z
" id="DejaVuSans-48"/>
      </defs>
      <g style="fill:#555555;" transform="translate(88.881597 392.598437)scale(0.1 -0.1)">
       <use xlink:href="#DejaVuSans-48"/>
      </g>
     </g>
    </g>
    <g id="xtick_2">
     <g id="line2d_3">
      <path clip-path="url(#pea8d5e9608)" d="M 195.205176 378 
L 195.205176 229.745455 
" style="fill:none;stroke:#ffffff;stroke-linecap:square;stroke-width:0.8;"/>
     </g>
     <g id="line2d_4">
      <g>
       <use style="fill:#555555;stroke:#555555;stroke-width:0.8;" x="195.205176" xlink:href="#m0c099a2654" y="378"/>
      </g>
     </g>
     <g id="text_2">
      <!-- 50 -->
      <defs>
       <path d="M 10.796875 72.90625 
L 49.515625 72.90625 
L 49.515625 64.59375 
L 19.828125 64.59375 
L 19.828125 46.734375 
Q 21.96875 47.46875 24.109375 47.828125 
Q 26.265625 48.1875 28.421875 48.1875 
Q 40.625 48.1875 47.75 41.5 
Q 54.890625 34.8125 54.890625 23.390625 
Q 54.890625 11.625 47.5625 5.09375 
Q 40.234375 -1.421875 26.90625 -1.421875 
Q 22.3125 -1.421875 17.546875 -0.640625 
Q 12.796875 0.140625 7.71875 1.703125 
L 7.71875 11.625 
Q 12.109375 9.234375 16.796875 8.0625 
Q 21.484375 6.890625 26.703125 6.890625 
Q 35.15625 6.890625 40.078125 11.328125 
Q 45.015625 15.765625 45.015625 23.390625 
Q 45.015625 31 40.078125 35.4375 
Q 35.15625 39.890625 26.703125 39.890625 
Q 22.75 39.890625 18.8125 39.015625 
Q 14.890625 38.140625 10.796875 36.28125 
z
" id="DejaVuSans-53"/>
      </defs>
      <g style="fill:#555555;" transform="translate(188.842676 392.598437)scale(0.1 -0.1)">
       <use xlink:href="#DejaVuSans-53"/>
       <use x="63.623047" xlink:href="#DejaVuSans-48"/>
      </g>
     </g>
    </g>
    <g id="xtick_3">
     <g id="line2d_5">
      <path clip-path="url(#pea8d5e9608)" d="M 298.347505 378 
L 298.347505 229.745455 
" style="fill:none;stroke:#ffffff;stroke-linecap:square;stroke-width:0.8;"/>
     </g>
     <g id="line2d_6">
      <g>
       <use style="fill:#555555;stroke:#555555;stroke-width:0.8;" x="298.347505" xlink:href="#m0c099a2654" y="378"/>
      </g>
     </g>
     <g id="text_3">
      <!-- 100 -->
      <defs>
       <path d="M 12.40625 8.296875 
L 28.515625 8.296875 
L 28.515625 63.921875 
L 10.984375 60.40625 
L 10.984375 69.390625 
L 28.421875 72.90625 
L 38.28125 72.90625 
L 38.28125 8.296875 
L 54.390625 8.296875 
L 54.390625 0 
L 12.40625 0 
z
" id="DejaVuSans-49"/>
      </defs>
      <g style="fill:#555555;" transform="translate(288.803755 392.598437)scale(0.1 -0.1)">
       <use xlink:href="#DejaVuSans-49"/>
       <use x="63.623047" xlink:href="#DejaVuSans-48"/>
       <use x="127.246094" xlink:href="#DejaVuSans-48"/>
      </g>
     </g>
    </g>
    <g id="xtick_4">
     <g id="line2d_7">
      <path clip-path="url(#pea8d5e9608)" d="M 401.489834 378 
L 401.489834 229.745455 
" style="fill:none;stroke:#ffffff;stroke-linecap:square;stroke-width:0.8;"/>
     </g>
     <g id="line2d_8">
      <g>
       <use style="fill:#555555;stroke:#555555;stroke-width:0.8;" x="401.489834" xlink:href="#m0c099a2654" y="378"/>
      </g>
     </g>
     <g id="text_4">
      <!-- 150 -->
      <g style="fill:#555555;" transform="translate(391.946084 392.598437)scale(0.1 -0.1)">
       <use xlink:href="#DejaVuSans-49"/>
       <use x="63.623047" xlink:href="#DejaVuSans-53"/>
       <use x="127.246094" xlink:href="#DejaVuSans-48"/>
      </g>
     </g>
    </g>
    <g id="xtick_5">
     <g id="line2d_9">
      <path clip-path="url(#pea8d5e9608)" d="M 504.632163 378 
L 504.632163 229.745455 
" style="fill:none;stroke:#ffffff;stroke-linecap:square;stroke-width:0.8;"/>
     </g>
     <g id="line2d_10">
      <g>
       <use style="fill:#555555;stroke:#555555;stroke-width:0.8;" x="504.632163" xlink:href="#m0c099a2654" y="378"/>
      </g>
     </g>
     <g id="text_5">
      <!-- 200 -->
      <defs>
       <path d="M 19.1875 8.296875 
L 53.609375 8.296875 
L 53.609375 0 
L 7.328125 0 
L 7.328125 8.296875 
Q 12.9375 14.109375 22.625 23.890625 
Q 32.328125 33.6875 34.8125 36.53125 
Q 39.546875 41.84375 41.421875 45.53125 
Q 43.3125 49.21875 43.3125 52.78125 
Q 43.3125 58.59375 39.234375 62.25 
Q 35.15625 65.921875 28.609375 65.921875 
Q 23.96875 65.921875 18.8125 64.3125 
Q 13.671875 62.703125 7.8125 59.421875 
L 7.8125 69.390625 
Q 13.765625 71.78125 18.9375 73 
Q 24.125 74.21875 28.421875 74.21875 
Q 39.75 74.21875 46.484375 68.546875 
Q 53.21875 62.890625 53.21875 53.421875 
Q 53.21875 48.921875 51.53125 44.890625 
Q 49.859375 40.875 45.40625 35.40625 
Q 44.1875 33.984375 37.640625 27.21875 
Q 31.109375 20.453125 19.1875 8.296875 
z
" id="DejaVuSans-50"/>
      </defs>
      <g style="fill:#555555;" transform="translate(495.088413 392.598437)scale(0.1 -0.1)">
       <use xlink:href="#DejaVuSans-50"/>
       <use x="63.623047" xlink:href="#DejaVuSans-48"/>
       <use x="127.246094" xlink:href="#DejaVuSans-48"/>
      </g>
     </g>
    </g>
    <g id="xtick_6">
     <g id="line2d_11">
      <path clip-path="url(#pea8d5e9608)" d="M 607.774492 378 
L 607.774492 229.745455 
" style="fill:none;stroke:#ffffff;stroke-linecap:square;stroke-width:0.8;"/>
     </g>
     <g id="line2d_12">
      <g>
       <use style="fill:#555555;stroke:#555555;stroke-width:0.8;" x="607.774492" xlink:href="#m0c099a2654" y="378"/>
      </g>
     </g>
     <g id="text_6">
      <!-- 250 -->
      <g style="fill:#555555;" transform="translate(598.230742 392.598437)scale(0.1 -0.1)">
       <use xlink:href="#DejaVuSans-50"/>
       <use x="63.623047" xlink:href="#DejaVuSans-53"/>
       <use x="127.246094" xlink:href="#DejaVuSans-48"/>
      </g>
     </g>
    </g>
    <g id="text_7">
     <!-- days since 3 deaths -->
     <defs>
      <path d="M 45.40625 46.390625 
L 45.40625 75.984375 
L 54.390625 75.984375 
L 54.390625 0 
L 45.40625 0 
L 45.40625 8.203125 
Q 42.578125 3.328125 38.25 0.953125 
Q 33.9375 -1.421875 27.875 -1.421875 
Q 17.96875 -1.421875 11.734375 6.484375 
Q 5.515625 14.40625 5.515625 27.296875 
Q 5.515625 40.1875 11.734375 48.09375 
Q 17.96875 56 27.875 56 
Q 33.9375 56 38.25 53.625 
Q 42.578125 51.265625 45.40625 46.390625 
z
M 14.796875 27.296875 
Q 14.796875 17.390625 18.875 11.75 
Q 22.953125 6.109375 30.078125 6.109375 
Q 37.203125 6.109375 41.296875 11.75 
Q 45.40625 17.390625 45.40625 27.296875 
Q 45.40625 37.203125 41.296875 42.84375 
Q 37.203125 48.484375 30.078125 48.484375 
Q 22.953125 48.484375 18.875 42.84375 
Q 14.796875 37.203125 14.796875 27.296875 
z
" id="DejaVuSans-100"/>
      <path d="M 34.28125 27.484375 
Q 23.390625 27.484375 19.1875 25 
Q 14.984375 22.515625 14.984375 16.5 
Q 14.984375 11.71875 18.140625 8.90625 
Q 21.296875 6.109375 26.703125 6.109375 
Q 34.1875 6.109375 38.703125 11.40625 
Q 43.21875 16.703125 43.21875 25.484375 
L 43.21875 27.484375 
z
M 52.203125 31.203125 
L 52.203125 0 
L 43.21875 0 
L 43.21875 8.296875 
Q 40.140625 3.328125 35.546875 0.953125 
Q 30.953125 -1.421875 24.3125 -1.421875 
Q 15.921875 -1.421875 10.953125 3.296875 
Q 6 8.015625 6 15.921875 
Q 6 25.140625 12.171875 29.828125 
Q 18.359375 34.515625 30.609375 34.515625 
L 43.21875 34.515625 
L 43.21875 35.40625 
Q 43.21875 41.609375 39.140625 45 
Q 35.0625 48.390625 27.6875 48.390625 
Q 23 48.390625 18.546875 47.265625 
Q 14.109375 46.140625 10.015625 43.890625 
L 10.015625 52.203125 
Q 14.9375 54.109375 19.578125 55.046875 
Q 24.21875 56 28.609375 56 
Q 40.484375 56 46.34375 49.84375 
Q 52.203125 43.703125 52.203125 31.203125 
z
" id="DejaVuSans-97"/>
      <path d="M 32.171875 -5.078125 
Q 28.375 -14.84375 24.75 -17.8125 
Q 21.140625 -20.796875 15.09375 -20.796875 
L 7.90625 -20.796875 
L 7.90625 -13.28125 
L 13.1875 -13.28125 
Q 16.890625 -13.28125 18.9375 -11.515625 
Q 21 -9.765625 23.484375 -3.21875 
L 25.09375 0.875 
L 2.984375 54.6875 
L 12.5 54.6875 
L 29.59375 11.921875 
L 46.6875 54.6875 
L 56.203125 54.6875 
z
" id="DejaVuSans-121"/>
      <path d="M 44.28125 53.078125 
L 44.28125 44.578125 
Q 40.484375 46.53125 36.375 47.5 
Q 32.28125 48.484375 27.875 48.484375 
Q 21.1875 48.484375 17.84375 46.4375 
Q 14.5 44.390625 14.5 40.28125 
Q 14.5 37.15625 16.890625 35.375 
Q 19.28125 33.59375 26.515625 31.984375 
L 29.59375 31.296875 
Q 39.15625 29.25 43.1875 25.515625 
Q 47.21875 21.78125 47.21875 15.09375 
Q 47.21875 7.46875 41.1875 3.015625 
Q 35.15625 -1.421875 24.609375 -1.421875 
Q 20.21875 -1.421875 15.453125 -0.5625 
Q 10.6875 0.296875 5.421875 2 
L 5.421875 11.28125 
Q 10.40625 8.6875 15.234375 7.390625 
Q 20.0625 6.109375 24.8125 6.109375 
Q 31.15625 6.109375 34.5625 8.28125 
Q 37.984375 10.453125 37.984375 14.40625 
Q 37.984375 18.0625 35.515625 20.015625 
Q 33.0625 21.96875 24.703125 23.78125 
L 21.578125 24.515625 
Q 13.234375 26.265625 9.515625 29.90625 
Q 5.8125 33.546875 5.8125 39.890625 
Q 5.8125 47.609375 11.28125 51.796875 
Q 16.75 56 26.8125 56 
Q 31.78125 56 36.171875 55.265625 
Q 40.578125 54.546875 44.28125 53.078125 
z
" id="DejaVuSans-115"/>
      <path id="DejaVuSans-32"/>
      <path d="M 9.421875 54.6875 
L 18.40625 54.6875 
L 18.40625 0 
L 9.421875 0 
z
M 9.421875 75.984375 
L 18.40625 75.984375 
L 18.40625 64.59375 
L 9.421875 64.59375 
z
" id="DejaVuSans-105"/>
      <path d="M 54.890625 33.015625 
L 54.890625 0 
L 45.90625 0 
L 45.90625 32.71875 
Q 45.90625 40.484375 42.875 44.328125 
Q 39.84375 48.1875 33.796875 48.1875 
Q 26.515625 48.1875 22.3125 43.546875 
Q 18.109375 38.921875 18.109375 30.90625 
L 18.109375 0 
L 9.078125 0 
L 9.078125 54.6875 
L 18.109375 54.6875 
L 18.109375 46.1875 
Q 21.34375 51.125 25.703125 53.5625 
Q 30.078125 56 35.796875 56 
Q 45.21875 56 50.046875 50.171875 
Q 54.890625 44.34375 54.890625 33.015625 
z
" id="DejaVuSans-110"/>
      <path d="M 48.78125 52.59375 
L 48.78125 44.1875 
Q 44.96875 46.296875 41.140625 47.34375 
Q 37.3125 48.390625 33.40625 48.390625 
Q 24.65625 48.390625 19.8125 42.84375 
Q 14.984375 37.3125 14.984375 27.296875 
Q 14.984375 17.28125 19.8125 11.734375 
Q 24.65625 6.203125 33.40625 6.203125 
Q 37.3125 6.203125 41.140625 7.25 
Q 44.96875 8.296875 48.78125 10.40625 
L 48.78125 2.09375 
Q 45.015625 0.34375 40.984375 -0.53125 
Q 36.96875 -1.421875 32.421875 -1.421875 
Q 20.0625 -1.421875 12.78125 6.34375 
Q 5.515625 14.109375 5.515625 27.296875 
Q 5.515625 40.671875 12.859375 48.328125 
Q 20.21875 56 33.015625 56 
Q 37.15625 56 41.109375 55.140625 
Q 45.0625 54.296875 48.78125 52.59375 
z
" id="DejaVuSans-99"/>
      <path d="M 56.203125 29.59375 
L 56.203125 25.203125 
L 14.890625 25.203125 
Q 15.484375 15.921875 20.484375 11.0625 
Q 25.484375 6.203125 34.421875 6.203125 
Q 39.59375 6.203125 44.453125 7.46875 
Q 49.3125 8.734375 54.109375 11.28125 
L 54.109375 2.78125 
Q 49.265625 0.734375 44.1875 -0.34375 
Q 39.109375 -1.421875 33.890625 -1.421875 
Q 20.796875 -1.421875 13.15625 6.1875 
Q 5.515625 13.8125 5.515625 26.8125 
Q 5.515625 40.234375 12.765625 48.109375 
Q 20.015625 56 32.328125 56 
Q 43.359375 56 49.78125 48.890625 
Q 56.203125 41.796875 56.203125 29.59375 
z
M 47.21875 32.234375 
Q 47.125 39.59375 43.09375 43.984375 
Q 39.0625 48.390625 32.421875 48.390625 
Q 24.90625 48.390625 20.390625 44.140625 
Q 15.875 39.890625 15.1875 32.171875 
z
" id="DejaVuSans-101"/>
      <path d="M 40.578125 39.3125 
Q 47.65625 37.796875 51.625 33 
Q 55.609375 28.21875 55.609375 21.1875 
Q 55.609375 10.40625 48.1875 4.484375 
Q 40.765625 -1.421875 27.09375 -1.421875 
Q 22.515625 -1.421875 17.65625 -0.515625 
Q 12.796875 0.390625 7.625 2.203125 
L 7.625 11.71875 
Q 11.71875 9.328125 16.59375 8.109375 
Q 21.484375 6.890625 26.8125 6.890625 
Q 36.078125 6.890625 40.9375 10.546875 
Q 45.796875 14.203125 45.796875 21.1875 
Q 45.796875 27.640625 41.28125 31.265625 
Q 36.765625 34.90625 28.71875 34.90625 
L 20.21875 34.90625 
L 20.21875 43.015625 
L 29.109375 43.015625 
Q 36.375 43.015625 40.234375 45.921875 
Q 44.09375 48.828125 44.09375 54.296875 
Q 44.09375 59.90625 40.109375 62.90625 
Q 36.140625 65.921875 28.71875 65.921875 
Q 24.65625 65.921875 20.015625 65.03125 
Q 15.375 64.15625 9.8125 62.3125 
L 9.8125 71.09375 
Q 15.4375 72.65625 20.34375 73.4375 
Q 25.25 74.21875 29.59375 74.21875 
Q 40.828125 74.21875 47.359375 69.109375 
Q 53.90625 64.015625 53.90625 55.328125 
Q 53.90625 49.265625 50.4375 45.09375 
Q 46.96875 40.921875 40.578125 39.3125 
z
" id="DejaVuSans-51"/>
      <path d="M 18.3125 70.21875 
L 18.3125 54.6875 
L 36.8125 54.6875 
L 36.8125 47.703125 
L 18.3125 47.703125 
L 18.3125 18.015625 
Q 18.3125 11.328125 20.140625 9.421875 
Q 21.96875 7.515625 27.59375 7.515625 
L 36.8125 7.515625 
L 36.8125 0 
L 27.59375 0 
Q 17.1875 0 13.234375 3.875 
Q 9.28125 7.765625 9.28125 18.015625 
L 9.28125 47.703125 
L 2.6875 47.703125 
L 2.6875 54.6875 
L 9.28125 54.6875 
L 9.28125 70.21875 
z
" id="DejaVuSans-116"/>
      <path d="M 54.890625 33.015625 
L 54.890625 0 
L 45.90625 0 
L 45.90625 32.71875 
Q 45.90625 40.484375 42.875 44.328125 
Q 39.84375 48.1875 33.796875 48.1875 
Q 26.515625 48.1875 22.3125 43.546875 
Q 18.109375 38.921875 18.109375 30.90625 
L 18.109375 0 
L 9.078125 0 
L 9.078125 75.984375 
L 18.109375 75.984375 
L 18.109375 46.1875 
Q 21.34375 51.125 25.703125 53.5625 
Q 30.078125 56 35.796875 56 
Q 45.21875 56 50.046875 50.171875 
Q 54.890625 44.34375 54.890625 33.015625 
z
" id="DejaVuSans-104"/>
     </defs>
     <g style="fill:#555555;" transform="translate(309.255 407.79625)scale(0.12 -0.12)">
      <use xlink:href="#DejaVuSans-100"/>
      <use x="63.476562" xlink:href="#DejaVuSans-97"/>
      <use x="124.755859" xlink:href="#DejaVuSans-121"/>
      <use x="183.935547" xlink:href="#DejaVuSans-115"/>
      <use x="236.035156" xlink:href="#DejaVuSans-32"/>
      <use x="267.822266" xlink:href="#DejaVuSans-115"/>
      <use x="319.921875" xlink:href="#DejaVuSans-105"/>
      <use x="347.705078" xlink:href="#DejaVuSans-110"/>
      <use x="411.083984" xlink:href="#DejaVuSans-99"/>
      <use x="466.064453" xlink:href="#DejaVuSans-101"/>
      <use x="527.587891" xlink:href="#DejaVuSans-32"/>
      <use x="559.375" xlink:href="#DejaVuSans-51"/>
      <use x="622.998047" xlink:href="#DejaVuSans-32"/>
      <use x="654.785156" xlink:href="#DejaVuSans-100"/>
      <use x="718.261719" xlink:href="#DejaVuSans-101"/>
      <use x="779.785156" xlink:href="#DejaVuSans-97"/>
      <use x="841.064453" xlink:href="#DejaVuSans-116"/>
      <use x="880.273438" xlink:href="#DejaVuSans-104"/>
      <use x="943.652344" xlink:href="#DejaVuSans-115"/>
     </g>
    </g>
   </g>
   <g id="matplotlib.axis_2">
    <g id="ytick_1">
     <g id="line2d_13">
      <path clip-path="url(#pea8d5e9608)" d="M 90 378 
L 648 378 
" style="fill:none;stroke:#ffffff;stroke-linecap:square;stroke-width:0.8;"/>
     </g>
     <g id="line2d_14">
      <defs>
       <path d="M 0 0 
L -3.5 0 
" id="mabaaca6cea" style="stroke:#555555;stroke-width:0.8;"/>
      </defs>
      <g>
       <use style="fill:#555555;stroke:#555555;stroke-width:0.8;" x="90" xlink:href="#mabaaca6cea" y="378"/>
      </g>
     </g>
     <g id="line2d_15">
      <defs>
       <path d="M 0 0 
L 3.5 0 
" id="m4224fc6ec9" style="stroke:#555555;stroke-width:0.8;"/>
      </defs>
      <g>
       <use style="fill:#555555;stroke:#555555;stroke-width:0.8;" x="648" xlink:href="#m4224fc6ec9" y="378"/>
      </g>
     </g>
     <g id="text_8">
      <!-- 0.01 -->
      <defs>
       <path d="M 10.6875 12.40625 
L 21 12.40625 
L 21 0 
L 10.6875 0 
z
" id="DejaVuSans-46"/>
      </defs>
      <g style="fill:#555555;" transform="translate(60.734375 381.799219)scale(0.1 -0.1)">
       <use xlink:href="#DejaVuSans-48"/>
       <use x="63.623047" xlink:href="#DejaVuSans-46"/>
       <use x="95.410156" xlink:href="#DejaVuSans-48"/>
       <use x="159.033203" xlink:href="#DejaVuSans-49"/>
      </g>
     </g>
     <g id="text_9">
      <!-- 0.01 -->
      <g style="fill:#555555;" transform="translate(655 381.799219)scale(0.1 -0.1)">
       <use xlink:href="#DejaVuSans-48"/>
       <use x="63.623047" xlink:href="#DejaVuSans-46"/>
       <use x="95.410156" xlink:href="#DejaVuSans-48"/>
       <use x="159.033203" xlink:href="#DejaVuSans-49"/>
      </g>
     </g>
    </g>
    <g id="ytick_2">
     <g id="line2d_16">
      <path clip-path="url(#pea8d5e9608)" d="M 90 308.356809 
L 648 308.356809 
" style="fill:none;stroke:#ffffff;stroke-linecap:square;stroke-width:0.8;"/>
     </g>
     <g id="line2d_17">
      <g>
       <use style="fill:#555555;stroke:#555555;stroke-width:0.8;" x="90" xlink:href="#mabaaca6cea" y="308.356809"/>
      </g>
     </g>
     <g id="line2d_18">
      <g>
       <use style="fill:#555555;stroke:#555555;stroke-width:0.8;" x="648" xlink:href="#m4224fc6ec9" y="308.356809"/>
      </g>
     </g>
     <g id="text_10">
      <!-- 0.1 -->
      <g style="fill:#555555;" transform="translate(67.096875 312.156028)scale(0.1 -0.1)">
       <use xlink:href="#DejaVuSans-48"/>
       <use x="63.623047" xlink:href="#DejaVuSans-46"/>
       <use x="95.410156" xlink:href="#DejaVuSans-49"/>
      </g>
     </g>
     <g id="text_11">
      <!-- 0.1 -->
      <g style="fill:#555555;" transform="translate(655 312.156028)scale(0.1 -0.1)">
       <use xlink:href="#DejaVuSans-48"/>
       <use x="63.623047" xlink:href="#DejaVuSans-46"/>
       <use x="95.410156" xlink:href="#DejaVuSans-49"/>
      </g>
     </g>
    </g>
    <g id="ytick_3">
     <g id="line2d_19">
      <path clip-path="url(#pea8d5e9608)" d="M 90 238.713619 
L 648 238.713619 
" style="fill:none;stroke:#ffffff;stroke-linecap:square;stroke-width:0.8;"/>
     </g>
     <g id="line2d_20">
      <g>
       <use style="fill:#555555;stroke:#555555;stroke-width:0.8;" x="90" xlink:href="#mabaaca6cea" y="238.713619"/>
      </g>
     </g>
     <g id="line2d_21">
      <g>
       <use style="fill:#555555;stroke:#555555;stroke-width:0.8;" x="648" xlink:href="#m4224fc6ec9" y="238.713619"/>
      </g>
     </g>
     <g id="text_12">
      <!-- 1 -->
      <g style="fill:#555555;" transform="translate(76.6375 242.512837)scale(0.1 -0.1)">
       <use xlink:href="#DejaVuSans-49"/>
      </g>
     </g>
     <g id="text_13">
      <!-- 1 -->
      <g style="fill:#555555;" transform="translate(655 242.512837)scale(0.1 -0.1)">
       <use xlink:href="#DejaVuSans-49"/>
      </g>
     </g>
    </g>
    <g id="ytick_4">
     <g id="line2d_22">
      <defs>
       <path d="M 0 0 
L -2 0 
" id="m21da761f5a" style="stroke:#555555;stroke-width:0.6;"/>
      </defs>
      <g>
       <use style="fill:#555555;stroke:#555555;stroke-width:0.6;" x="90" xlink:href="#m21da761f5a" y="357.035311"/>
      </g>
     </g>
     <g id="line2d_23">
      <defs>
       <path d="M 0 0 
L 2 0 
" id="m3224fb1045" style="stroke:#555555;stroke-width:0.6;"/>
      </defs>
      <g>
       <use style="fill:#555555;stroke:#555555;stroke-width:0.6;" x="648" xlink:href="#m3224fb1045" y="357.035311"/>
      </g>
     </g>
    </g>
    <g id="ytick_5">
     <g id="line2d_24">
      <g>
       <use style="fill:#555555;stroke:#555555;stroke-width:0.6;" x="90" xlink:href="#m21da761f5a" y="344.771753"/>
      </g>
     </g>
     <g id="line2d_25">
      <g>
       <use style="fill:#555555;stroke:#555555;stroke-width:0.6;" x="648" xlink:href="#m3224fb1045" y="344.771753"/>
      </g>
     </g>
    </g>
    <g id="ytick_6">
     <g id="line2d_26">
      <g>
       <use style="fill:#555555;stroke:#555555;stroke-width:0.6;" x="90" xlink:href="#m21da761f5a" y="336.070621"/>
      </g>
     </g>
     <g id="line2d_27">
      <g>
       <use style="fill:#555555;stroke:#555555;stroke-width:0.6;" x="648" xlink:href="#m3224fb1045" y="336.070621"/>
      </g>
     </g>
    </g>
    <g id="ytick_7">
     <g id="line2d_28">
      <g>
       <use style="fill:#555555;stroke:#555555;stroke-width:0.6;" x="90" xlink:href="#m21da761f5a" y="329.321499"/>
      </g>
     </g>
     <g id="line2d_29">
      <g>
       <use style="fill:#555555;stroke:#555555;stroke-width:0.6;" x="648" xlink:href="#m3224fb1045" y="329.321499"/>
      </g>
     </g>
    </g>
    <g id="ytick_8">
     <g id="line2d_30">
      <g>
       <use style="fill:#555555;stroke:#555555;stroke-width:0.6;" x="90" xlink:href="#m21da761f5a" y="323.807064"/>
      </g>
     </g>
     <g id="line2d_31">
      <g>
       <use style="fill:#555555;stroke:#555555;stroke-width:0.6;" x="648" xlink:href="#m3224fb1045" y="323.807064"/>
      </g>
     </g>
    </g>
    <g id="ytick_9">
     <g id="line2d_32">
      <g>
       <use style="fill:#555555;stroke:#555555;stroke-width:0.6;" x="90" xlink:href="#m21da761f5a" y="319.144676"/>
      </g>
     </g>
     <g id="line2d_33">
      <g>
       <use style="fill:#555555;stroke:#555555;stroke-width:0.6;" x="648" xlink:href="#m3224fb1045" y="319.144676"/>
      </g>
     </g>
    </g>
    <g id="ytick_10">
     <g id="line2d_34">
      <g>
       <use style="fill:#555555;stroke:#555555;stroke-width:0.6;" x="90" xlink:href="#m21da761f5a" y="315.105932"/>
      </g>
     </g>
     <g id="line2d_35">
      <g>
       <use style="fill:#555555;stroke:#555555;stroke-width:0.6;" x="648" xlink:href="#m3224fb1045" y="315.105932"/>
      </g>
     </g>
    </g>
    <g id="ytick_11">
     <g id="line2d_36">
      <g>
       <use style="fill:#555555;stroke:#555555;stroke-width:0.6;" x="90" xlink:href="#m21da761f5a" y="311.543507"/>
      </g>
     </g>
     <g id="line2d_37">
      <g>
       <use style="fill:#555555;stroke:#555555;stroke-width:0.6;" x="648" xlink:href="#m3224fb1045" y="311.543507"/>
      </g>
     </g>
    </g>
    <g id="ytick_12">
     <g id="line2d_38">
      <g>
       <use style="fill:#555555;stroke:#555555;stroke-width:0.6;" x="90" xlink:href="#m21da761f5a" y="287.39212"/>
      </g>
     </g>
     <g id="line2d_39">
      <g>
       <use style="fill:#555555;stroke:#555555;stroke-width:0.6;" x="648" xlink:href="#m3224fb1045" y="287.39212"/>
      </g>
     </g>
    </g>
    <g id="ytick_13">
     <g id="line2d_40">
      <g>
       <use style="fill:#555555;stroke:#555555;stroke-width:0.6;" x="90" xlink:href="#m21da761f5a" y="275.128563"/>
      </g>
     </g>
     <g id="line2d_41">
      <g>
       <use style="fill:#555555;stroke:#555555;stroke-width:0.6;" x="648" xlink:href="#m3224fb1045" y="275.128563"/>
      </g>
     </g>
    </g>
    <g id="ytick_14">
     <g id="line2d_42">
      <g>
       <use style="fill:#555555;stroke:#555555;stroke-width:0.6;" x="90" xlink:href="#m21da761f5a" y="266.42743"/>
      </g>
     </g>
     <g id="line2d_43">
      <g>
       <use style="fill:#555555;stroke:#555555;stroke-width:0.6;" x="648" xlink:href="#m3224fb1045" y="266.42743"/>
      </g>
     </g>
    </g>
    <g id="ytick_15">
     <g id="line2d_44">
      <g>
       <use style="fill:#555555;stroke:#555555;stroke-width:0.6;" x="90" xlink:href="#m21da761f5a" y="259.678308"/>
      </g>
     </g>
     <g id="line2d_45">
      <g>
       <use style="fill:#555555;stroke:#555555;stroke-width:0.6;" x="648" xlink:href="#m3224fb1045" y="259.678308"/>
      </g>
     </g>
    </g>
    <g id="ytick_16">
     <g id="line2d_46">
      <g>
       <use style="fill:#555555;stroke:#555555;stroke-width:0.6;" x="90" xlink:href="#m21da761f5a" y="254.163873"/>
      </g>
     </g>
     <g id="line2d_47">
      <g>
       <use style="fill:#555555;stroke:#555555;stroke-width:0.6;" x="648" xlink:href="#m3224fb1045" y="254.163873"/>
      </g>
     </g>
    </g>
    <g id="ytick_17">
     <g id="line2d_48">
      <g>
       <use style="fill:#555555;stroke:#555555;stroke-width:0.6;" x="90" xlink:href="#m21da761f5a" y="249.501485"/>
      </g>
     </g>
     <g id="line2d_49">
      <g>
       <use style="fill:#555555;stroke:#555555;stroke-width:0.6;" x="648" xlink:href="#m3224fb1045" y="249.501485"/>
      </g>
     </g>
    </g>
    <g id="ytick_18">
     <g id="line2d_50">
      <g>
       <use style="fill:#555555;stroke:#555555;stroke-width:0.6;" x="90" xlink:href="#m21da761f5a" y="245.462741"/>
      </g>
     </g>
     <g id="line2d_51">
      <g>
       <use style="fill:#555555;stroke:#555555;stroke-width:0.6;" x="648" xlink:href="#m3224fb1045" y="245.462741"/>
      </g>
     </g>
    </g>
    <g id="ytick_19">
     <g id="line2d_52">
      <g>
       <use style="fill:#555555;stroke:#555555;stroke-width:0.6;" x="90" xlink:href="#m21da761f5a" y="241.900316"/>
      </g>
     </g>
     <g id="line2d_53">
      <g>
       <use style="fill:#555555;stroke:#555555;stroke-width:0.6;" x="648" xlink:href="#m3224fb1045" y="241.900316"/>
      </g>
     </g>
    </g>
    <g id="text_14">
     <!-- daily new deaths -->
     <defs>
      <path d="M 9.421875 75.984375 
L 18.40625 75.984375 
L 18.40625 0 
L 9.421875 0 
z
" id="DejaVuSans-108"/>
      <path d="M 4.203125 54.6875 
L 13.1875 54.6875 
L 24.421875 12.015625 
L 35.59375 54.6875 
L 46.1875 54.6875 
L 57.421875 12.015625 
L 68.609375 54.6875 
L 77.59375 54.6875 
L 63.28125 0 
L 52.6875 0 
L 40.921875 44.828125 
L 29.109375 0 
L 18.5 0 
z
" id="DejaVuSans-119"/>
     </defs>
     <g style="fill:#555555;" transform="translate(27.364 354.91679)rotate(-90)scale(0.12 -0.12)">
      <use xlink:href="#DejaVuSans-100"/>
      <use x="63.476562" xlink:href="#DejaVuSans-97"/>
      <use x="124.755859" xlink:href="#DejaVuSans-105"/>
      <use x="152.539062" xlink:href="#DejaVuSans-108"/>
      <use x="180.322266" xlink:href="#DejaVuSans-121"/>
      <use x="239.501953" xlink:href="#DejaVuSans-32"/>
      <use x="271.289062" xlink:href="#DejaVuSans-110"/>
      <use x="334.667969" xlink:href="#DejaVuSans-101"/>
      <use x="396.191406" xlink:href="#DejaVuSans-119"/>
      <use x="477.978516" xlink:href="#DejaVuSans-32"/>
      <use x="509.765625" xlink:href="#DejaVuSans-100"/>
      <use x="573.242188" xlink:href="#DejaVuSans-101"/>
      <use x="634.765625" xlink:href="#DejaVuSans-97"/>
      <use x="696.044922" xlink:href="#DejaVuSans-116"/>
      <use x="735.253906" xlink:href="#DejaVuSans-104"/>
      <use x="798.632812" xlink:href="#DejaVuSans-115"/>
     </g>
     <!-- per 100K people -->
     <defs>
      <path d="M 18.109375 8.203125 
L 18.109375 -20.796875 
L 9.078125 -20.796875 
L 9.078125 54.6875 
L 18.109375 54.6875 
L 18.109375 46.390625 
Q 20.953125 51.265625 25.265625 53.625 
Q 29.59375 56 35.59375 56 
Q 45.5625 56 51.78125 48.09375 
Q 58.015625 40.1875 58.015625 27.296875 
Q 58.015625 14.40625 51.78125 6.484375 
Q 45.5625 -1.421875 35.59375 -1.421875 
Q 29.59375 -1.421875 25.265625 0.953125 
Q 20.953125 3.328125 18.109375 8.203125 
z
M 48.6875 27.296875 
Q 48.6875 37.203125 44.609375 42.84375 
Q 40.53125 48.484375 33.40625 48.484375 
Q 26.265625 48.484375 22.1875 42.84375 
Q 18.109375 37.203125 18.109375 27.296875 
Q 18.109375 17.390625 22.1875 11.75 
Q 26.265625 6.109375 33.40625 6.109375 
Q 40.53125 6.109375 44.609375 11.75 
Q 48.6875 17.390625 48.6875 27.296875 
z
" id="DejaVuSans-112"/>
      <path d="M 41.109375 46.296875 
Q 39.59375 47.171875 37.8125 47.578125 
Q 36.03125 48 33.890625 48 
Q 26.265625 48 22.1875 43.046875 
Q 18.109375 38.09375 18.109375 28.8125 
L 18.109375 0 
L 9.078125 0 
L 9.078125 54.6875 
L 18.109375 54.6875 
L 18.109375 46.1875 
Q 20.953125 51.171875 25.484375 53.578125 
Q 30.03125 56 36.53125 56 
Q 37.453125 56 38.578125 55.875 
Q 39.703125 55.765625 41.0625 55.515625 
z
" id="DejaVuSans-114"/>
      <path d="M 9.8125 72.90625 
L 19.671875 72.90625 
L 19.671875 42.09375 
L 52.390625 72.90625 
L 65.09375 72.90625 
L 28.90625 38.921875 
L 67.671875 0 
L 54.6875 0 
L 19.671875 35.109375 
L 19.671875 0 
L 9.8125 0 
z
" id="DejaVuSans-75"/>
      <path d="M 30.609375 48.390625 
Q 23.390625 48.390625 19.1875 42.75 
Q 14.984375 37.109375 14.984375 27.296875 
Q 14.984375 17.484375 19.15625 11.84375 
Q 23.34375 6.203125 30.609375 6.203125 
Q 37.796875 6.203125 41.984375 11.859375 
Q 46.1875 17.53125 46.1875 27.296875 
Q 46.1875 37.015625 41.984375 42.703125 
Q 37.796875 48.390625 30.609375 48.390625 
z
M 30.609375 56 
Q 42.328125 56 49.015625 48.375 
Q 55.71875 40.765625 55.71875 27.296875 
Q 55.71875 13.875 49.015625 6.21875 
Q 42.328125 -1.421875 30.609375 -1.421875 
Q 18.84375 -1.421875 12.171875 6.21875 
Q 5.515625 13.875 5.515625 27.296875 
Q 5.515625 40.765625 12.171875 48.375 
Q 18.84375 56 30.609375 56 
z
" id="DejaVuSans-111"/>
     </defs>
     <g style="fill:#555555;" transform="translate(40.801375 353.381165)rotate(-90)scale(0.12 -0.12)">
      <use xlink:href="#DejaVuSans-112"/>
      <use x="63.476562" xlink:href="#DejaVuSans-101"/>
      <use x="125" xlink:href="#DejaVuSans-114"/>
      <use x="166.113281" xlink:href="#DejaVuSans-32"/>
      <use x="197.900391" xlink:href="#DejaVuSans-49"/>
      <use x="261.523438" xlink:href="#DejaVuSans-48"/>
      <use x="325.146484" xlink:href="#DejaVuSans-48"/>
      <use x="388.769531" xlink:href="#DejaVuSans-75"/>
      <use x="454.345703" xlink:href="#DejaVuSans-32"/>
      <use x="486.132812" xlink:href="#DejaVuSans-112"/>
      <use x="549.609375" xlink:href="#DejaVuSans-101"/>
      <use x="611.132812" xlink:href="#DejaVuSans-111"/>
      <use x="672.314453" xlink:href="#DejaVuSans-112"/>
      <use x="735.791016" xlink:href="#DejaVuSans-108"/>
      <use x="763.574219" xlink:href="#DejaVuSans-101"/>
     </g>
     <!-- (rolling 7-day mean) -->
     <defs>
      <path d="M 31 75.875 
Q 24.46875 64.65625 21.28125 53.65625 
Q 18.109375 42.671875 18.109375 31.390625 
Q 18.109375 20.125 21.3125 9.0625 
Q 24.515625 -2 31 -13.1875 
L 23.1875 -13.1875 
Q 15.875 -1.703125 12.234375 9.375 
Q 8.59375 20.453125 8.59375 31.390625 
Q 8.59375 42.28125 12.203125 53.3125 
Q 15.828125 64.359375 23.1875 75.875 
z
" id="DejaVuSans-40"/>
      <path d="M 45.40625 27.984375 
Q 45.40625 37.75 41.375 43.109375 
Q 37.359375 48.484375 30.078125 48.484375 
Q 22.859375 48.484375 18.828125 43.109375 
Q 14.796875 37.75 14.796875 27.984375 
Q 14.796875 18.265625 18.828125 12.890625 
Q 22.859375 7.515625 30.078125 7.515625 
Q 37.359375 7.515625 41.375 12.890625 
Q 45.40625 18.265625 45.40625 27.984375 
z
M 54.390625 6.78125 
Q 54.390625 -7.171875 48.1875 -13.984375 
Q 42 -20.796875 29.203125 -20.796875 
Q 24.46875 -20.796875 20.265625 -20.09375 
Q 16.0625 -19.390625 12.109375 -17.921875 
L 12.109375 -9.1875 
Q 16.0625 -11.328125 19.921875 -12.34375 
Q 23.78125 -13.375 27.78125 -13.375 
Q 36.625 -13.375 41.015625 -8.765625 
Q 45.40625 -4.15625 45.40625 5.171875 
L 45.40625 9.625 
Q 42.625 4.78125 38.28125 2.390625 
Q 33.9375 0 27.875 0 
Q 17.828125 0 11.671875 7.65625 
Q 5.515625 15.328125 5.515625 27.984375 
Q 5.515625 40.671875 11.671875 48.328125 
Q 17.828125 56 27.875 56 
Q 33.9375 56 38.28125 53.609375 
Q 42.625 51.21875 45.40625 46.390625 
L 45.40625 54.6875 
L 54.390625 54.6875 
z
" id="DejaVuSans-103"/>
      <path d="M 8.203125 72.90625 
L 55.078125 72.90625 
L 55.078125 68.703125 
L 28.609375 0 
L 18.3125 0 
L 43.21875 64.59375 
L 8.203125 64.59375 
z
" id="DejaVuSans-55"/>
      <path d="M 4.890625 31.390625 
L 31.203125 31.390625 
L 31.203125 23.390625 
L 4.890625 23.390625 
z
" id="DejaVuSans-45"/>
      <path d="M 52 44.1875 
Q 55.375 50.25 60.0625 53.125 
Q 64.75 56 71.09375 56 
Q 79.640625 56 84.28125 50.015625 
Q 88.921875 44.046875 88.921875 33.015625 
L 88.921875 0 
L 79.890625 0 
L 79.890625 32.71875 
Q 79.890625 40.578125 77.09375 44.375 
Q 74.3125 48.1875 68.609375 48.1875 
Q 61.625 48.1875 57.5625 43.546875 
Q 53.515625 38.921875 53.515625 30.90625 
L 53.515625 0 
L 44.484375 0 
L 44.484375 32.71875 
Q 44.484375 40.625 41.703125 44.40625 
Q 38.921875 48.1875 33.109375 48.1875 
Q 26.21875 48.1875 22.15625 43.53125 
Q 18.109375 38.875 18.109375 30.90625 
L 18.109375 0 
L 9.078125 0 
L 9.078125 54.6875 
L 18.109375 54.6875 
L 18.109375 46.1875 
Q 21.1875 51.21875 25.484375 53.609375 
Q 29.78125 56 35.6875 56 
Q 41.65625 56 45.828125 52.96875 
Q 50 49.953125 52 44.1875 
z
" id="DejaVuSans-109"/>
      <path d="M 8.015625 75.875 
L 15.828125 75.875 
Q 23.140625 64.359375 26.78125 53.3125 
Q 30.421875 42.28125 30.421875 31.390625 
Q 30.421875 20.453125 26.78125 9.375 
Q 23.140625 -1.703125 15.828125 -13.1875 
L 8.015625 -13.1875 
Q 14.5 -2 17.703125 9.0625 
Q 20.90625 20.125 20.90625 31.390625 
Q 20.90625 42.671875 17.703125 53.65625 
Q 14.5 64.65625 8.015625 75.875 
z
" id="DejaVuSans-41"/>
     </defs>
     <g style="fill:#555555;" transform="translate(54.23875 365.018352)rotate(-90)scale(0.12 -0.12)">
      <use xlink:href="#DejaVuSans-40"/>
      <use x="39.013672" xlink:href="#DejaVuSans-114"/>
      <use x="77.876953" xlink:href="#DejaVuSans-111"/>
      <use x="139.058594" xlink:href="#DejaVuSans-108"/>
      <use x="166.841797" xlink:href="#DejaVuSans-108"/>
      <use x="194.625" xlink:href="#DejaVuSans-105"/>
      <use x="222.408203" xlink:href="#DejaVuSans-110"/>
      <use x="285.787109" xlink:href="#DejaVuSans-103"/>
      <use x="349.263672" xlink:href="#DejaVuSans-32"/>
      <use x="381.050781" xlink:href="#DejaVuSans-55"/>
      <use x="444.673828" xlink:href="#DejaVuSans-45"/>
      <use x="480.757812" xlink:href="#DejaVuSans-100"/>
      <use x="544.234375" xlink:href="#DejaVuSans-97"/>
      <use x="605.513672" xlink:href="#DejaVuSans-121"/>
      <use x="664.693359" xlink:href="#DejaVuSans-32"/>
      <use x="696.480469" xlink:href="#DejaVuSans-109"/>
      <use x="793.892578" xlink:href="#DejaVuSans-101"/>
      <use x="855.416016" xlink:href="#DejaVuSans-97"/>
      <use x="916.695312" xlink:href="#DejaVuSans-110"/>
      <use x="980.074219" xlink:href="#DejaVuSans-41"/>
     </g>
    </g>
   </g>
   <g id="line2d_54">
    <path clip-path="url(#pea8d5e9608)" d="M 71.378449 433 
L 71.434381 432.099052 
L 73.497227 423.39792 
L 75.560074 416.648798 
L 77.622921 411.134363 
L 79.685767 411.134363 
L 81.748614 413.766079 
L 83.81146 406.471975 
L 85.874307 413.766079 
L 87.937153 395.684108 
L 90 398.870806 
L 92.062847 391.456917 
L 94.125693 392.80139 
L 96.18854 384.445926 
L 98.251386 385.507286 
L 100.314233 380.537832 
L 102.377079 388.934986 
L 104.439926 387.74873 
L 106.502773 388.934986 
L 108.565619 382.428802 
L 110.628466 390.169674 
L 112.691312 385.507286 
L 114.754159 388.934986 
L 116.817006 392.80139 
L 118.879852 386.607249 
L 120.942699 390.169674 
L 123.005545 388.934986 
L 125.068392 385.507286 
L 127.131238 383.420551 
L 129.194085 377.906117 
L 131.256932 377.906117 
L 133.319778 375.485173 
L 135.382625 373.243728 
L 137.445471 374.719419 
L 139.508318 371.156994 
L 141.571165 373.243728 
L 143.634011 373.972575 
L 145.696858 369.841758 
L 147.759704 373.243728 
L 149.822551 375.485173 
L 151.885397 376.270818 
L 153.948244 378.758163 
L 158.073937 382.428802 
L 160.136784 385.507286 
L 162.19963 383.420551 
L 164.262477 378.758163 
L 166.325323 378.758163 
L 168.38817 379.63491 
L 170.451017 379.63491 
L 172.513863 382.428802 
L 174.57671 382.428802 
L 176.639556 383.420551 
L 178.702403 388.934986 
L 180.76525 388.934986 
L 182.828096 392.80139 
L 186.953789 395.684108 
L 189.016636 397.235507 
L 191.079482 404.385241 
L 193.142329 408.713419 
L 195.205176 413.766079 
L 197.268022 416.648798 
L 199.330869 416.648798 
L 201.393715 419.835495 
L 203.456562 423.39792 
L 205.519409 419.835495 
L 207.582255 419.835495 
L 209.645102 423.39792 
L 211.707948 416.648798 
L 213.770795 423.39792 
L 215.833641 419.835495 
L 217.896488 416.648798 
L 219.959335 419.835495 
L 222.022181 419.835495 
L 224.085028 423.39792 
L 226.147874 432.099052 
L 228.210721 432.099052 
L 228.362269 433 
M 240.436252 433 
L 240.5878 432.099052 
L 242.650647 432.099052 
L 244.713494 427.436664 
L 245.841184 433 
M 261.064718 433 
L 261.216266 432.099052 
L 263.279113 432.099052 
L 263.61614 433 
M 353.707335 433 
L 354.044362 432.099052 
L 354.38139 433 
M 357.833028 433 
L 358.170055 432.099052 
L 358.507083 433 
M 370.210107 433 
L 370.547135 432.099052 
L 372.609982 432.099052 
L 374.672828 427.436664 
L 376.735675 427.436664 
L 378.798521 423.39792 
L 380.861368 432.099052 
L 381.198395 433 
M 450.846604 433 
L 450.998152 432.099052 
L 453.060998 432.099052 
L 455.123845 427.436664 
L 457.186691 411.134363 
L 459.249538 406.471975 
L 461.312384 404.385241 
L 463.375231 406.471975 
L 465.438078 406.471975 
L 467.500924 402.433231 
L 469.563771 404.385241 
L 471.626617 411.134363 
L 473.689464 413.766079 
L 475.752311 411.134363 
L 477.815157 400.5996 
L 479.878004 398.870806 
L 481.94085 400.5996 
L 484.003697 397.235507 
L 486.066543 392.80139 
L 488.12939 390.169674 
L 490.192237 386.607249 
L 492.255083 387.74873 
L 494.31793 391.456917 
L 496.380776 387.74873 
L 498.443623 386.607249 
L 500.50647 391.456917 
L 502.569316 388.934986 
L 504.632163 392.80139 
L 506.695009 394.208418 
L 510.820702 394.208418 
L 512.883549 398.870806 
L 514.946396 394.208418 
L 517.009242 398.870806 
L 519.072089 394.208418 
L 521.134935 397.235507 
L 523.197782 388.934986 
L 525.260628 392.80139 
L 527.323475 394.208418 
L 529.386322 394.208418 
L 531.449168 395.684108 
L 533.512015 402.433231 
L 535.574861 404.385241 
L 537.637708 411.134363 
L 541.763401 411.134363 
L 543.826248 416.648798 
L 545.889094 413.766079 
L 547.951941 413.766079 
L 550.014787 411.134363 
L 552.077634 408.713419 
L 554.140481 411.134363 
L 556.203327 408.713419 
L 558.266174 408.713419 
L 560.32902 411.134363 
L 562.391867 413.766079 
L 564.454713 408.713419 
L 566.51756 411.134363 
L 568.580407 406.471975 
L 572.7061 406.471975 
L 574.768946 408.713419 
L 578.89464 408.713419 
L 580.957486 413.766079 
L 583.020333 419.835495 
L 585.083179 423.39792 
L 587.146026 427.436664 
L 589.208872 419.835495 
L 591.271719 413.766079 
L 593.334566 411.134363 
L 595.397412 408.713419 
L 601.585952 408.713419 
L 603.648799 411.134363 
L 605.711645 411.134363 
L 607.774492 408.713419 
L 613.963031 408.713419 
L 613.963031 408.713419 
" style="fill:none;stroke:#e24a33;stroke-linecap:square;stroke-width:4;"/>
   </g>
   <g id="line2d_55">
    <defs>
     <path d="M 0 3 
C 0.795609 3 1.55874 2.683901 2.12132 2.12132 
C 2.683901 1.55874 3 0.795609 3 0 
C 3 -0.795609 2.683901 -1.55874 2.12132 -2.12132 
C 1.55874 -2.683901 0.795609 -3 0 -3 
C -0.795609 -3 -1.55874 -2.683901 -2.12132 -2.12132 
C -2.683901 -1.55874 -3 -0.795609 -3 0 
C -3 0.795609 -2.683901 1.55874 -2.12132 2.12132 
C -1.55874 2.683901 -0.795609 3 0 3 
z
" id="m10410aae45" style="stroke:#e24a33;"/>
    </defs>
    <g clip-path="url(#pea8d5e9608)">
     <use style="fill:#e24a33;stroke:#e24a33;" x="613.963031" xlink:href="#m10410aae45" y="408.713419"/>
    </g>
   </g>
   <g id="line2d_56">
    <path clip-path="url(#pea8d5e9608)" d="M 86.448933 433 
L 87.937153 428.621279 
L 90 419.24044 
L 92.062847 407.656589 
L 94.125693 403.790185 
L 96.18854 388.827774 
L 98.251386 377.311061 
L 100.314233 370.561939 
L 102.377079 367.496466 
L 104.439926 360.098425 
L 106.502773 353.235383 
L 108.565619 344.420759 
L 110.628466 337.603745 
L 112.691312 331.264276 
L 116.817006 317.117527 
L 120.942699 306.773845 
L 123.005545 302.406539 
L 125.068392 297.491048 
L 127.131238 294.315154 
L 129.194085 291.88673 
L 131.256932 290.713134 
L 133.319778 287.598467 
L 135.382625 285.68705 
L 137.445471 281.420677 
L 139.508318 279.954059 
L 141.571165 280.115801 
L 143.634011 284.468939 
L 145.696858 281.230784 
L 147.759704 282.388448 
L 149.822551 284.798467 
L 151.885397 280.875317 
L 153.948244 281.083909 
L 156.011091 278.286939 
L 158.073937 275.761955 
L 160.136784 278.690349 
L 162.19963 276.743174 
L 164.262477 275.482386 
L 166.325323 280.462401 
L 168.38817 279.493812 
L 170.451017 281.868453 
L 172.513863 281.654399 
L 174.57671 282.257609 
L 176.639556 285.131625 
L 178.702403 284.727551 
L 180.76525 287.00716 
L 182.828096 290.799591 
L 184.890943 292.952364 
L 186.953789 294.250388 
L 189.016636 295.742257 
L 191.079482 296.534164 
L 193.142329 303.926741 
L 195.205176 298.665784 
L 197.268022 300.16207 
L 199.330869 299.96605 
L 205.519409 304.420742 
L 207.582255 301.121061 
L 209.645102 308.381966 
L 211.707948 313.670149 
L 213.770795 320.93074 
L 215.833641 320.774834 
L 217.896488 320.465413 
L 219.959335 324.669525 
L 222.022181 324.581216 
L 224.085028 330.396958 
L 226.147874 326.775216 
L 228.210721 325.658326 
L 230.273567 326.398318 
L 232.336414 326.58618 
L 236.462107 329.553819 
L 238.524954 330.290271 
L 240.5878 332.157201 
L 242.650647 331.154491 
L 244.713494 331.931487 
L 248.839187 334.634838 
L 250.902033 342.288746 
L 252.96488 345.108189 
L 255.027726 346.714531 
L 259.15342 351.042709 
L 261.216266 350.622624 
L 263.279113 351.683984 
L 265.341959 345.282516 
L 267.404806 349.597249 
L 271.530499 355.111684 
L 273.593346 356.346372 
L 277.719039 358.433106 
L 279.781885 367.134239 
L 281.844732 362.164786 
L 283.907579 360.966781 
L 285.970425 360.67455 
L 288.033272 361.261863 
L 290.096118 363.732269 
L 292.158965 364.382738 
L 294.221811 363.732269 
L 296.284658 369.765955 
L 298.347505 374.890117 
L 300.410351 369.375683 
L 302.473198 371.379439 
L 304.536044 371.379439 
L 306.598891 369.765955 
L 308.661738 370.161328 
L 310.724584 373.973512 
L 312.787431 374.428343 
L 314.850277 386.012194 
L 316.913124 381.63924 
L 318.97597 379.942777 
L 321.038817 385.347427 
L 323.101664 388.098928 
L 325.16451 382.226553 
L 327.227357 382.226553 
L 329.290203 381.063115 
L 331.35305 382.825496 
L 333.415896 384.060184 
L 335.478743 381.63924 
L 337.54159 385.347427 
L 339.604436 394.49011 
L 341.667283 398.275751 
L 345.792976 409.063618 
L 347.855823 409.063618 
L 349.918669 410.539308 
L 354.044362 407.656589 
L 356.107209 406.312117 
L 358.170055 396.323741 
L 360.232902 395.393032 
L 364.358595 397.284001 
L 370.547135 394.49011 
L 372.609982 401.462448 
L 374.672828 398.275751 
L 376.735675 398.275751 
L 378.798521 399.301125 
L 380.861368 396.323741 
L 382.924214 386.6919 
L 384.987061 391.932616 
L 387.049908 384.060184 
L 389.112754 384.696958 
L 393.238447 383.43654 
L 395.301294 386.012194 
L 397.36414 394.49011 
L 399.426987 392.761316 
L 405.615527 395.393032 
L 409.74122 395.393032 
L 411.804067 392.761316 
L 413.866913 385.347427 
L 415.92976 392.761316 
L 417.992606 391.932616 
L 420.055453 389.574618 
L 424.181146 389.574618 
L 426.243993 392.761316 
L 428.306839 401.462448 
L 430.369686 405.024873 
L 432.432532 401.462448 
L 434.495379 403.790185 
L 436.558226 401.462448 
L 438.621072 402.603929 
L 440.683919 391.932616 
L 442.746765 396.323741 
L 444.809612 391.932616 
L 446.872458 398.275751 
L 448.935305 398.275751 
L 450.998152 400.362485 
L 453.060998 399.301125 
L 455.123845 410.539308 
L 457.186691 406.312117 
L 459.249538 409.063618 
L 461.312384 406.312117 
L 465.438078 403.790185 
L 467.500924 397.284001 
L 471.626617 397.284001 
L 473.689464 391.126018 
L 475.752311 392.761316 
L 477.815157 392.761316 
L 479.878004 394.49011 
L 481.94085 391.126018 
L 484.003697 382.825496 
L 486.066543 377.311061 
L 488.12939 374.890117 
L 490.192237 372.21965 
L 492.255083 370.967927 
L 494.31793 369.375683 
L 496.380776 369.375683 
L 498.443623 371.796627 
L 500.50647 371.379439 
L 502.569316 373.973512 
L 504.632163 371.796627 
L 506.695009 373.08387 
L 508.757856 366.422543 
L 510.820702 367.496466 
L 512.883549 366.072879 
L 514.946396 366.776298 
L 517.009242 368.234202 
L 519.072089 365.385448 
L 521.134935 364.055755 
L 523.197782 366.422543 
L 525.260628 357.371747 
L 527.323475 353.008823 
L 529.386322 350.622624 
L 531.449168 345.108189 
L 533.512015 346.714531 
L 535.574861 345.457854 
L 537.637708 340.595163 
L 539.700555 340.896117 
L 541.763401 341.661871 
L 543.826248 337.87623 
L 545.889094 340.149273 
L 547.951941 334.146995 
L 550.014787 332.498964 
L 552.077634 334.26822 
L 554.140481 335.507969 
L 556.203327 327.934936 
L 558.266174 324.405369 
L 560.32902 318.96408 
L 562.391867 316.503728 
L 564.454713 316.301865 
L 566.51756 308.797721 
L 568.580407 307.870183 
L 570.643253 301.694844 
L 572.7061 298.778291 
L 574.768946 297.168711 
L 576.831793 298.109441 
L 578.89464 296.814543 
L 580.957486 301.365636 
L 587.146026 301.365636 
L 587.146026 301.365636 
" style="fill:none;stroke:#348abd;stroke-linecap:square;stroke-opacity:0.4;stroke-width:2;"/>
   </g>
   <g id="line2d_57">
    <defs>
     <path d="M 0 3 
C 0.795609 3 1.55874 2.683901 2.12132 2.12132 
C 2.683901 1.55874 3 0.795609 3 0 
C 3 -0.795609 2.683901 -1.55874 2.12132 -2.12132 
C 1.55874 -2.683901 0.795609 -3 0 -3 
C -0.795609 -3 -1.55874 -2.683901 -2.12132 -2.12132 
C -2.683901 -1.55874 -3 -0.795609 -3 0 
C -3 0.795609 -2.683901 1.55874 -2.12132 2.12132 
C -1.55874 2.683901 -0.795609 3 0 3 
z
" id="m8d3f5b5166" style="stroke:#348abd;stroke-opacity:0.4;"/>
    </defs>
    <g clip-path="url(#pea8d5e9608)">
     <use style="fill:#348abd;fill-opacity:0.4;stroke:#348abd;stroke-opacity:0.4;" x="587.146026" xlink:href="#m8d3f5b5166" y="301.365636"/>
    </g>
   </g>
   <g id="line2d_58">
    <path clip-path="url(#pea8d5e9608)" d="M 52.682385 433 
L 52.868762 431.891995 
L 54.931608 431.891995 
L 56.994455 423.190863 
L 63.182994 423.190863 
L 65.432218 433 
M 67.91602 433 
L 69.371534 406.264918 
L 71.434381 410.927306 
L 73.497227 406.264918 
L 75.560074 398.663748 
L 77.622921 395.477051 
L 79.685767 395.477051 
L 81.748614 389.962616 
L 83.81146 392.594332 
L 85.874307 383.213494 
L 87.937153 381.261484 
L 90 376.063761 
L 92.062847 370.28517 
L 94.125693 365.435502 
L 96.18854 362.248804 
L 98.251386 365.435502 
L 100.314233 366.576983 
L 102.377079 365.435502 
L 104.439926 367.763239 
L 106.502773 373.036671 
L 108.565619 379.427853 
L 110.628466 387.541672 
L 112.691312 389.962616 
L 114.754159 389.962616 
L 116.817006 395.477051 
L 118.879852 406.264918 
L 120.942699 410.927306 
L 123.005545 416.44174 
L 125.068392 423.190863 
L 127.131238 389.962616 
L 129.194085 387.541672 
L 131.256932 387.541672 
L 133.319778 381.261484 
L 135.382625 381.261484 
L 137.445471 371.629643 
L 139.508318 368.997927 
L 141.571165 377.699059 
L 143.634011 385.300228 
L 145.696858 385.300228 
L 147.759704 389.962616 
L 149.822551 387.541672 
L 151.885397 402.226173 
L 153.948244 410.927306 
L 156.011091 423.190863 
L 158.073937 423.190863 
L 160.323161 433 
M 184.704566 433 
L 184.890943 431.891995 
L 186.953789 431.891995 
L 189.016636 423.190863 
L 191.079482 431.891995 
L 197.268022 431.891995 
L 197.454399 433 
M 287.846895 433 
L 288.033272 431.891995 
L 290.096118 423.190863 
L 291.061301 433 
M 295.052162 433 
L 296.284658 416.44174 
L 298.347505 406.264918 
L 300.410351 395.477051 
L 302.473198 392.594332 
L 304.536044 385.300228 
L 306.598891 383.213494 
L 308.661738 377.699059 
L 310.724584 379.427853 
L 312.787431 374.512361 
L 314.850277 370.28517 
L 316.913124 365.435502 
L 318.97597 359.366086 
L 321.038817 355.099071 
L 323.101664 352.800828 
L 327.227357 343.370849 
L 329.290203 342.835514 
L 331.35305 343.370849 
L 333.415896 345.036168 
L 335.478743 341.284115 
L 337.54159 338.863171 
L 339.604436 336.192703 
L 341.667283 338.401396 
L 343.730129 336.621727 
L 345.792976 333.739008 
L 347.855823 330.045932 
L 349.918669 328.355791 
L 351.981516 326.137839 
L 354.044362 324.35817 
L 356.107209 324.071479 
L 358.170055 323.227359 
L 360.232902 325.532906 
L 362.295749 325.532906 
L 364.358595 323.506123 
L 366.421442 323.78748 
L 368.484288 326.444904 
L 370.547135 325.234917 
L 372.609982 326.755119 
L 374.672828 324.071479 
L 376.735675 324.071479 
L 380.861368 330.045932 
L 382.924214 326.137839 
L 384.987061 323.227359 
L 387.049908 322.677423 
L 389.112754 321.606669 
L 391.175601 323.227359 
L 393.238447 316.757001 
L 395.301294 317.436707 
L 397.36414 321.870825 
L 399.426987 324.071479 
L 401.489834 312.774319 
L 405.615527 315.228014 
L 407.678373 322.951141 
L 409.74122 322.137308 
L 411.804067 320.827768 
L 413.866913 322.951141 
L 415.92976 341.284115 
L 417.992606 343.915831 
L 420.055453 342.835514 
L 422.118299 344.470812 
L 424.181146 349.320481 
L 426.243993 351.360286 
L 428.306839 350.664953 
L 430.369686 353.547672 
L 432.432532 352.800828 
L 434.495379 354.313426 
L 436.558226 357.586416 
L 438.621072 355.099071 
L 440.683919 357.586416 
L 442.746765 363.274179 
L 444.809612 360.296794 
L 446.872458 366.576983 
L 448.935305 370.28517 
L 450.998152 368.997927 
L 453.060998 364.335539 
L 455.123845 365.435502 
L 457.186691 365.435502 
L 459.249538 373.036671 
L 461.312384 370.28517 
L 463.375231 371.629643 
L 465.438078 376.063761 
L 467.500924 387.541672 
L 469.563771 392.594332 
L 471.626617 398.663748 
L 473.689464 406.264918 
L 475.752311 423.190863 
L 481.94085 423.190863 
L 484.003697 406.264918 
L 490.192237 406.264918 
L 492.255083 410.927306 
L 494.31793 406.264918 
L 496.380776 410.927306 
L 497.22097 433 
L 497.22097 433 
" style="fill:none;stroke:#988ed5;stroke-linecap:square;stroke-opacity:0.4;stroke-width:2;"/>
   </g>
   <g id="line2d_59">
    <defs>
     <path d="M 0 3 
C 0.795609 3 1.55874 2.683901 2.12132 2.12132 
C 2.683901 1.55874 3 0.795609 3 0 
C 3 -0.795609 2.683901 -1.55874 2.12132 -2.12132 
C 1.55874 -2.683901 0.795609 -3 0 -3 
C -0.795609 -3 -1.55874 -2.683901 -2.12132 -2.12132 
C -2.683901 -1.55874 -3 -0.795609 -3 0 
C -3 0.795609 -2.683901 1.55874 -2.12132 2.12132 
C -1.55874 2.683901 -0.795609 3 0 3 
z
" id="m7e3413f5ce" style="stroke:#988ed5;stroke-opacity:0.4;"/>
    </defs>
    <g clip-path="url(#pea8d5e9608)"/>
   </g>
   <g id="line2d_60">
    <path clip-path="url(#pea8d5e9608)" d="M 63.849788 433 
L 65.245841 428.432462 
L 67.308688 428.432462 
L 68.70474 433 
M 78.289715 433 
L 79.685767 428.432462 
L 81.748614 410.65447 
L 83.81146 404.585054 
L 85.874307 404.585054 
L 87.937153 399.532394 
L 90 395.204216 
L 92.062847 382.275892 
L 94.125693 382.275892 
L 96.18854 375.264901 
L 98.251386 364.79155 
L 100.314233 355.906553 
L 102.377079 352.774897 
L 104.439926 347.760402 
L 106.502773 346.125104 
L 108.565619 339.05927 
L 110.628466 333.335522 
L 112.691312 333.075901 
L 114.754159 334.941863 
L 116.817006 330.122762 
L 118.879852 328.082956 
L 120.942699 328.082956 
L 123.005545 328.972598 
L 125.068392 330.59536 
L 127.131238 327.647759 
L 129.194085 325.360056 
L 133.319778 330.358138 
L 135.382625 328.747723 
L 137.445471 328.082956 
L 139.508318 327.647759 
L 141.571165 327.647759 
L 143.634011 323.233288 
L 145.696858 320.554933 
L 147.759704 320.898637 
L 149.822551 319.712381 
L 151.885397 317.625646 
L 153.948244 317.163872 
L 156.011091 318.411292 
L 158.073937 324.181505 
L 160.136784 327.647759 
L 162.19963 327.006485 
L 164.262477 328.524506 
L 166.325323 332.310147 
L 168.38817 335.218081 
L 170.451017 334.668145 
L 172.513863 331.07546 
L 174.57671 332.059145 
L 176.639556 331.810208 
L 178.702403 334.12803 
L 180.76525 331.563303 
L 182.828096 330.358138 
L 184.890943 330.358138 
L 186.953789 329.657435 
L 189.016636 329.889203 
L 191.079482 331.07546 
L 193.142329 331.07546 
L 195.205176 335.218081 
L 197.268022 337.523628 
L 199.330869 341.349224 
L 201.393715 346.525714 
L 203.456562 345.339458 
L 205.519409 348.183425 
L 207.582255 348.183425 
L 209.645102 346.125104 
L 211.707948 350.392118 
L 213.770795 350.392118 
L 215.833641 349.047646 
L 217.896488 349.489196 
L 219.959335 349.489196 
L 222.022181 349.937288 
L 224.085028 349.489196 
L 226.147874 342.036654 
L 228.210721 344.954158 
L 230.273567 342.386319 
L 232.336414 340.346513 
L 234.399261 340.01953 
L 238.524954 340.67707 
L 240.5878 340.67707 
L 242.650647 338.435626 
L 244.713494 342.740073 
L 246.77634 343.098014 
L 248.839187 341.01128 
L 250.902033 341.01128 
L 252.96488 341.349224 
L 255.027726 344.573705 
L 257.090573 337.523628 
L 259.15342 334.396882 
L 261.216266 335.218081 
L 263.279113 335.218081 
L 265.341959 336.930557 
L 267.404806 336.930557 
L 269.467652 334.941863 
L 271.530499 339.05927 
L 273.593346 339.375981 
L 275.656192 341.349224 
L 277.719039 343.82686 
L 281.844732 341.690986 
L 283.907579 344.197977 
L 285.970425 344.573705 
L 288.033272 345.339458 
L 290.096118 345.72973 
L 292.158965 344.954158 
L 294.221811 345.72973 
L 296.284658 350.853893 
L 298.347505 350.853893 
L 300.410351 353.783179 
L 302.473198 355.906553 
L 304.536044 355.361571 
L 306.598891 356.461535 
L 308.661738 355.906553 
L 310.724584 353.274837 
L 312.787431 357.603015 
L 314.850277 356.461535 
L 316.913124 358.789271 
L 318.97597 358.789271 
L 321.038817 357.02689 
L 323.101664 358.190328 
L 325.16451 360.023959 
L 327.227357 360.023959 
L 329.290203 361.311203 
L 331.35305 363.351008 
L 333.415896 361.311203 
L 335.478743 360.660734 
L 337.54159 359.400316 
L 339.604436 361.311203 
L 341.667283 357.603015 
L 343.730129 354.300211 
L 345.792976 352.774897 
L 347.855823 354.826236 
L 349.918669 353.274837 
L 351.981516 355.361571 
L 354.044362 355.361571 
L 356.107209 352.283087 
L 358.170055 350.853893 
L 360.232902 348.183425 
L 362.295749 344.954158 
L 364.358595 346.125104 
L 366.421442 345.72973 
L 368.484288 343.460242 
L 370.547135 346.931702 
L 372.609982 348.612449 
L 374.672828 348.183425 
L 376.735675 349.047646 
L 378.798521 348.612449 
L 380.861368 346.125104 
L 382.924214 346.525714 
L 384.987061 343.460242 
L 387.049908 344.197977 
L 389.112754 344.573705 
L 391.175601 343.82686 
L 393.238447 345.339458 
L 395.301294 346.525714 
L 397.36414 344.197977 
L 399.426987 344.197977 
L 401.489834 342.740073 
L 403.55268 344.573705 
L 405.615527 344.197977 
L 407.678373 345.339458 
L 409.74122 344.954158 
L 411.804067 344.197977 
L 413.866913 343.098014 
L 415.92976 343.82686 
L 417.992606 343.82686 
L 420.055453 344.197977 
L 422.118299 342.036654 
L 424.181146 342.740073 
L 426.243993 345.339458 
L 428.306839 349.047646 
L 430.369686 349.937288 
L 432.432532 349.047646 
L 434.495379 349.047646 
L 436.558226 349.489196 
L 440.683919 340.67707 
L 442.746765 341.01128 
L 444.809612 339.696044 
L 446.872458 337.523628 
L 448.935305 337.824582 
L 450.998152 336.348892 
L 453.060998 339.375981 
L 455.123845 341.349224 
L 457.186691 335.778202 
L 459.249538 333.335522 
L 461.312384 331.810208 
L 463.375231 327.218736 
L 465.438078 327.864575 
L 467.500924 325.763338 
L 469.563771 322.313896 
L 471.626617 321.953825 
L 473.689464 321.071965 
L 475.752311 320.384534 
L 477.815157 320.04659 
L 479.878004 317.163872 
L 481.94085 315.097511 
L 484.003697 312.111212 
L 486.066543 306.791284 
L 488.12939 302.268599 
L 490.192237 300.020487 
L 492.255083 298.417135 
L 496.380776 297.446602 
L 498.443623 297.129891 
L 500.50647 294.061572 
L 502.569316 292.943822 
L 504.632163 287.901716 
L 506.695009 286.153577 
L 508.757856 285.236154 
L 510.820702 284.918889 
L 512.883549 282.639897 
L 514.946396 281.964527 
L 517.009242 278.497665 
L 519.072089 277.617272 
L 521.134935 273.926571 
L 523.197782 272.567791 
L 525.260628 272.428249 
L 527.323475 271.570402 
L 529.386322 268.241943 
L 531.449168 264.484839 
L 533.512015 263.200942 
L 535.574861 260.714947 
L 537.637708 259.216761 
L 539.700555 258.177897 
L 541.763401 256.181106 
L 543.826248 253.478283 
L 545.889094 252.256991 
L 547.951941 248.200387 
L 550.014787 247.141182 
L 554.140481 244.749262 
L 560.32902 244.749262 
L 560.32902 244.749262 
" style="fill:none;stroke:#777777;stroke-linecap:square;stroke-opacity:0.4;stroke-width:2;"/>
   </g>
   <g id="line2d_61">
    <defs>
     <path d="M 0 3 
C 0.795609 3 1.55874 2.683901 2.12132 2.12132 
C 2.683901 1.55874 3 0.795609 3 0 
C 3 -0.795609 2.683901 -1.55874 2.12132 -2.12132 
C 1.55874 -2.683901 0.795609 -3 0 -3 
C -0.795609 -3 -1.55874 -2.683901 -2.12132 -2.12132 
C -2.683901 -1.55874 -3 -0.795609 -3 0 
C -3 0.795609 -2.683901 1.55874 -2.12132 2.12132 
C -1.55874 2.683901 -0.795609 3 0 3 
z
" id="mf8ac9993bb" style="stroke:#777777;stroke-opacity:0.4;"/>
    </defs>
    <g clip-path="url(#pea8d5e9608)">
     <use style="fill:#777777;fill-opacity:0.4;stroke:#777777;stroke-opacity:0.4;" x="560.32902" xlink:href="#mf8ac9993bb" y="244.749262"/>
    </g>
   </g>
   <g id="line2d_62">
    <path clip-path="url(#pea8d5e9608)" d="M 61.330927 433 
L 65.245841 393.212765 
L 67.308688 393.212765 
L 69.371534 386.463642 
L 73.497227 357.563574 
L 75.560074 359.984518 
L 77.622921 362.616234 
L 79.685767 359.984518 
L 81.748614 353.235396 
L 83.81146 347.720961 
L 85.874307 347.720961 
L 87.937153 351.283386 
L 90 344.534263 
L 92.062847 340.307072 
L 94.125693 339.019829 
L 98.251386 341.651545 
L 100.314233 343.058573 
L 102.377079 341.651545 
L 106.502773 341.651545 
L 108.565619 344.534263 
L 112.691312 341.651545 
L 114.754159 337.785141 
L 116.817006 339.019829 
L 118.879852 339.019829 
L 120.942699 336.598885 
L 123.005545 333.296081 
L 125.068392 332.270706 
L 127.131238 332.270706 
L 129.194085 335.457404 
L 131.256932 334.357441 
L 135.382625 334.357441 
L 137.445471 335.457404 
L 141.571165 333.296081 
L 143.634011 330.318696 
L 145.696858 330.318696 
L 147.759704 327.608318 
L 149.822551 328.485065 
L 151.885397 327.608318 
L 153.948244 327.608318 
L 156.011091 328.485065 
L 158.073937 328.485065 
L 160.136784 326.756272 
L 162.19963 329.387988 
L 164.262477 329.387988 
L 166.325323 328.485065 
L 172.513863 328.485065 
L 174.57671 329.387988 
L 176.639556 329.387988 
L 178.702403 327.608318 
L 180.76525 328.485065 
L 182.828096 328.485065 
L 186.953789 326.756272 
L 189.016636 326.756272 
L 193.142329 328.485065 
L 195.205176 328.485065 
L 197.268022 327.608318 
L 199.330869 328.485065 
L 201.393715 328.485065 
L 203.456562 326.756272 
L 205.519409 324.335328 
L 207.582255 323.569574 
L 209.645102 323.569574 
L 211.707948 324.335328 
L 213.770795 323.569574 
L 215.833641 324.335328 
L 217.896488 326.756272 
L 222.022181 326.756272 
L 224.085028 325.120973 
L 228.210721 323.569574 
L 230.273567 325.120973 
L 232.336414 324.335328 
L 234.399261 324.335328 
L 236.462107 325.120973 
L 238.524954 326.756272 
L 240.5878 326.756272 
L 242.650647 328.485065 
L 244.713494 325.927572 
L 248.839187 327.608318 
L 250.902033 326.756272 
L 252.96488 325.120973 
L 255.027726 324.335328 
L 257.090573 322.82273 
L 259.15342 323.569574 
L 263.279113 320.686855 
L 265.341959 320.007149 
L 267.404806 320.686855 
L 269.467652 322.093884 
L 271.530499 322.82273 
L 273.593346 322.82273 
L 275.656192 324.335328 
L 281.844732 326.756272 
L 283.907579 325.927572 
L 288.033272 327.608318 
L 290.096118 327.608318 
L 292.158965 329.387988 
L 294.221811 329.387988 
L 296.284658 328.485065 
L 298.347505 329.387988 
L 300.410351 327.608318 
L 304.536044 327.608318 
L 306.598891 326.756272 
L 310.724584 328.485065 
L 312.787431 327.608318 
L 314.850277 329.387988 
L 318.97597 329.387988 
L 323.101664 333.296081 
L 325.16451 335.457404 
L 327.227357 339.019829 
L 329.290203 341.651545 
L 331.35305 344.534263 
L 333.415896 347.720961 
L 337.54159 347.720961 
L 341.667283 344.534263 
L 343.730129 347.720961 
L 345.792976 340.307072 
L 349.918669 337.785141 
L 351.981516 335.457404 
L 356.107209 333.296081 
L 358.170055 328.485065 
L 360.232902 330.318696 
L 362.295749 329.387988 
L 364.358595 327.608318 
L 370.547135 327.608318 
L 372.609982 328.485065 
L 374.672828 328.485065 
L 376.735675 327.608318 
L 378.798521 328.485065 
L 387.049908 328.485065 
L 389.112754 327.608318 
L 395.301294 327.608318 
L 399.426987 325.927572 
L 401.489834 324.335328 
L 403.55268 324.335328 
L 405.615527 323.569574 
L 407.678373 323.569574 
L 409.74122 322.82273 
L 411.804067 324.335328 
L 413.866913 327.608318 
L 415.92976 330.318696 
L 417.992606 332.270706 
L 420.055453 333.296081 
L 422.118299 332.270706 
L 424.181146 333.296081 
L 426.243993 331.278957 
L 428.306839 328.485065 
L 430.369686 325.927572 
L 432.432532 325.120973 
L 434.495379 325.927572 
L 442.746765 325.927572 
L 444.809612 325.120973 
L 446.872458 329.387988 
L 448.935305 323.569574 
L 450.998152 323.569574 
L 453.060998 322.82273 
L 457.186691 322.82273 
L 459.249538 328.485065 
L 461.312384 320.007149 
L 463.375231 324.335328 
L 469.563771 326.756272 
L 471.626617 326.756272 
L 473.689464 323.569574 
L 475.752311 329.387988 
L 481.94085 332.270706 
L 484.003697 333.296081 
L 486.066543 339.019829 
L 488.12939 334.357441 
L 498.443623 334.357441 
L 500.50647 330.318696 
L 502.569316 335.457404 
L 504.632163 334.357441 
L 506.695009 334.357441 
L 510.820702 336.598885 
L 514.946396 339.019829 
L 517.009242 339.019829 
L 519.072089 341.651545 
L 527.323475 341.651545 
L 527.323475 341.651545 
" style="fill:none;stroke:#fbc15e;stroke-linecap:square;stroke-opacity:0.4;stroke-width:2;"/>
   </g>
   <g id="line2d_63">
    <defs>
     <path d="M 0 3 
C 0.795609 3 1.55874 2.683901 2.12132 2.12132 
C 2.683901 1.55874 3 0.795609 3 0 
C 3 -0.795609 2.683901 -1.55874 2.12132 -2.12132 
C 1.55874 -2.683901 0.795609 -3 0 -3 
C -0.795609 -3 -1.55874 -2.683901 -2.12132 -2.12132 
C -2.683901 -1.55874 -3 -0.795609 -3 0 
C -3 0.795609 -2.683901 1.55874 -2.12132 2.12132 
C -1.55874 2.683901 -0.795609 3 0 3 
z
" id="m5f698eb579" style="stroke:#fbc15e;stroke-opacity:0.4;"/>
    </defs>
    <g clip-path="url(#pea8d5e9608)">
     <use style="fill:#fbc15e;fill-opacity:0.4;stroke:#fbc15e;stroke-opacity:0.4;" x="527.323475" xlink:href="#m5f698eb579" y="341.651545"/>
    </g>
   </g>
   <g id="line2d_64">
    <path clip-path="url(#pea8d5e9608)" d="M 67.308672 433 
L 67.308688 432.485068 
L 71.434381 432.485068 
L 73.497227 411.520378 
L 75.560074 411.520378 
L 77.622921 399.256821 
L 79.685767 390.555689 
L 81.748614 399.256821 
L 83.81146 362.841877 
L 85.874307 357.327442 
L 90 357.327442 
L 92.062847 336.362753 
L 94.125693 336.362753 
L 96.18854 323.270496 
L 98.251386 318.725113 
L 100.314233 307.657191 
L 102.377079 298.472118 
L 104.439926 291.436305 
L 106.502773 294.750086 
L 108.565619 286.449564 
L 110.628466 280.935129 
L 112.691312 275.929037 
L 116.817006 271.933043 
L 118.879852 266.845849 
L 120.942699 258.881281 
L 123.005545 256.632891 
L 125.068392 255.743248 
L 127.131238 254.456005 
L 129.194085 251.118456 
L 131.256932 250.155845 
L 133.319778 250.818992 
L 135.382625 252.190566 
L 137.445471 250.744587 
L 139.508318 250.375282 
L 141.571165 250.448783 
L 143.634011 253.627305 
L 145.696858 251.957607 
L 147.759704 253.383059 
L 149.822551 255.049908 
L 151.885397 255.831044 
L 153.948244 256.814003 
L 156.011091 257.549496 
L 158.073937 256.904967 
L 160.136784 261.31033 
L 162.19963 260.891698 
L 164.262477 259.569829 
L 166.325323 263.157137 
L 168.38817 263.382013 
L 170.451017 264.06685 
L 172.513863 267.875588 
L 174.57671 269.766557 
L 176.639556 267.227905 
L 180.76525 271.193503 
L 182.828096 274.105459 
L 184.890943 278.05241 
L 186.953789 278.421264 
L 189.016636 280.534519 
L 191.079482 287.937355 
L 193.142329 294.433374 
L 195.205176 296.723328 
L 197.268022 302.717318 
L 199.330869 304.42175 
L 201.393715 304.8633 
L 203.456562 303.557529 
L 205.519409 308.149002 
L 207.582255 303.134506 
L 209.645102 306.227997 
L 211.707948 307.657191 
L 215.833641 314.77442 
L 217.896488 315.398064 
L 219.959335 320.165654 
L 222.022181 336.362753 
L 224.085028 338.994469 
L 226.147874 333.941809 
L 228.210721 335.128065 
L 230.273567 333.941809 
L 232.336414 335.128065 
L 234.399261 332.800328 
L 236.462107 336.362753 
L 238.524954 335.128065 
L 240.5878 340.401497 
L 242.650647 348.62631 
L 244.713494 352.665054 
L 246.77634 352.665054 
L 248.839187 373.629744 
L 250.902033 383.806566 
L 252.96488 390.555689 
L 255.027726 411.520378 
L 259.15342 411.520378 
L 261.216266 432.485068 
L 263.279113 399.256821 
L 265.341959 352.665054 
L 269.467652 348.62631 
L 271.530499 346.792679 
L 275.656192 346.792679 
L 277.719039 348.62631 
L 279.781885 341.877188 
L 281.844732 341.877188 
L 285.970425 345.063885 
L 290.096118 345.063885 
L 292.158965 346.792679 
L 294.221811 411.520378 
L 298.347505 411.520378 
L 300.410351 378.292132 
L 306.598891 378.292132 
L 308.661738 373.629744 
L 312.787431 373.629744 
L 314.850277 399.256821 
L 323.101664 399.256821 
L 325.16451 432.485068 
L 329.290203 432.485068 
L 331.35305 399.256821 
L 335.478743 399.256821 
L 337.54159 411.520378 
L 339.604436 411.520378 
L 341.667283 399.256821 
L 343.730129 399.256821 
L 345.792976 432.485068 
L 347.855823 432.485068 
L 349.918669 399.256821 
L 351.981516 390.555689 
L 354.044362 390.555689 
L 356.107209 378.292132 
L 358.170055 369.591 
L 362.295749 369.591 
L 364.358595 373.629744 
L 366.421442 378.292132 
L 368.484288 373.629744 
L 370.547135 383.806566 
L 372.609982 390.555689 
L 376.735675 390.555689 
L 378.798521 399.256821 
L 380.861368 399.256821 
L 382.924214 383.806566 
L 391.175601 383.806566 
L 393.238447 378.292132 
L 395.301294 366.028575 
L 397.36414 373.629744 
L 399.426987 378.292132 
L 401.489834 383.806566 
L 405.615527 383.806566 
L 407.678373 390.555689 
L 409.74122 411.520378 
L 411.804067 383.806566 
L 413.866913 373.629744 
L 415.92976 366.028575 
L 417.992606 366.028575 
L 420.055453 362.841877 
L 424.181146 362.841877 
L 426.243993 373.629744 
L 428.306839 383.806566 
L 430.369686 390.555689 
L 432.432532 383.806566 
L 434.495379 390.555689 
L 436.558226 383.806566 
L 438.621072 366.028575 
L 440.683919 369.591 
L 442.746765 362.841877 
L 444.809612 366.028575 
L 446.872458 369.591 
L 450.998152 369.591 
L 453.060998 373.629744 
L 455.123845 369.591 
L 457.186691 373.629744 
L 461.312384 373.629744 
L 463.375231 369.591 
L 465.438078 359.959158 
L 467.500924 362.841877 
L 469.563771 341.877188 
L 471.626617 338.994469 
L 473.689464 335.128065 
L 475.752311 335.128065 
L 477.815157 336.362753 
L 481.94085 333.941809 
L 484.003697 340.401497 
L 486.066543 343.428587 
L 492.255083 343.428587 
L 494.31793 350.57832 
L 496.380776 350.57832 
L 500.50647 354.906498 
L 502.569316 359.959158 
L 504.632163 357.327442 
L 506.695009 354.906498 
L 508.757856 354.906498 
L 510.820702 357.327442 
L 512.883549 369.591 
L 514.946396 354.906498 
L 517.009242 354.906498 
L 519.072089 357.327442 
L 521.134935 359.959158 
L 523.197782 345.063885 
L 527.323475 332.800328 
L 529.386322 331.700365 
L 531.449168 325.827989 
L 533.512015 325.827989 
L 535.574861 324.951242 
L 537.637708 319.436808 
L 539.700555 319.436808 
L 539.703922 433 
M 554.139843 433 
L 554.140481 411.520378 
L 556.203327 287.937355 
L 558.266174 280.139145 
L 560.32902 270.758307 
L 562.391867 269.90626 
L 564.454713 266.343835 
L 566.51756 260.684536 
L 568.580407 257.642703 
L 570.643253 251.497005 
L 572.7061 249.222927 
L 574.768946 248.871638 
L 576.831793 247.572755 
L 578.89464 247.976935 
L 580.957486 244.64141 
L 587.146026 244.64141 
L 587.146026 244.64141 
" style="fill:none;stroke:#8eba42;stroke-linecap:square;stroke-opacity:0.4;stroke-width:2;"/>
   </g>
   <g id="line2d_65">
    <defs>
     <path d="M 0 3 
C 0.795609 3 1.55874 2.683901 2.12132 2.12132 
C 2.683901 1.55874 3 0.795609 3 0 
C 3 -0.795609 2.683901 -1.55874 2.12132 -2.12132 
C 1.55874 -2.683901 0.795609 -3 0 -3 
C -0.795609 -3 -1.55874 -2.683901 -2.12132 -2.12132 
C -2.683901 -1.55874 -3 -0.795609 -3 0 
C -3 0.795609 -2.683901 1.55874 -2.12132 2.12132 
C -1.55874 2.683901 -0.795609 3 0 3 
z
" id="ma4ce69f801" style="stroke:#8eba42;stroke-opacity:0.4;"/>
    </defs>
    <g clip-path="url(#pea8d5e9608)">
     <use style="fill:#8eba42;fill-opacity:0.4;stroke:#8eba42;stroke-opacity:0.4;" x="587.146026" xlink:href="#ma4ce69f801" y="244.64141"/>
    </g>
   </g>
   <g id="line2d_66">
    <path clip-path="url(#pea8d5e9608)" d="M 96.418389 433 
L 98.251386 430.24111 
L 100.314233 424.849875 
L 102.377079 411.975274 
L 104.439926 402.087886 
L 106.502773 389.439028 
L 110.628466 368.762853 
L 112.691312 360.894447 
L 114.754159 354.354638 
L 118.879852 337.843023 
L 123.005545 321.99902 
L 127.131238 306.875838 
L 129.194085 301.448945 
L 131.256932 296.608169 
L 133.319778 289.867941 
L 135.382625 284.377238 
L 137.445471 278.495088 
L 139.508318 274.521768 
L 143.634011 267.329443 
L 145.696858 263.891129 
L 147.759704 259.721144 
L 149.822551 257.260423 
L 153.948244 253.711722 
L 156.011091 252.448624 
L 160.136784 251.635613 
L 162.19963 251.875811 
L 164.262477 250.951796 
L 166.325323 251.054177 
L 170.451017 251.639634 
L 172.513863 251.389329 
L 174.57671 250.914474 
L 176.639556 250.7266 
L 178.702403 251.069959 
L 180.76525 250.491451 
L 182.828096 250.373594 
L 184.890943 250.883081 
L 186.953789 252.087306 
L 189.016636 253.59352 
L 191.079482 254.259288 
L 193.142329 254.069125 
L 195.205176 254.182641 
L 197.268022 254.792391 
L 199.330869 254.816949 
L 201.393715 255.341877 
L 203.456562 255.693893 
L 205.519409 255.549391 
L 207.582255 255.945548 
L 209.645102 257.108258 
L 213.770795 257.760927 
L 215.833641 258.274861 
L 217.896488 259.050953 
L 222.022181 262.572622 
L 224.085028 263.011625 
L 226.147874 263.237966 
L 228.210721 264.063469 
L 230.273567 264.494052 
L 232.336414 264.00894 
L 234.399261 264.273414 
L 236.462107 264.971446 
L 238.524954 266.80703 
L 240.5878 268.255508 
L 244.713494 269.246793 
L 246.77634 271.553088 
L 248.839187 275.158268 
L 250.902033 275.167021 
L 252.96488 275.294224 
L 255.027726 275.665721 
L 257.090573 276.42269 
L 259.15342 276.073393 
L 261.216266 275.070878 
L 263.279113 273.35348 
L 265.341959 275.581291 
L 267.404806 276.340674 
L 273.593346 280.059349 
L 275.656192 281.546361 
L 279.781885 282.73132 
L 281.844732 283.580637 
L 283.907579 284.046681 
L 285.970425 283.673273 
L 292.158965 285.855006 
L 300.410351 289.939191 
L 302.473198 290.103706 
L 304.536044 290.07503 
L 308.661738 289.76138 
L 310.724584 290.917866 
L 312.787431 291.310913 
L 314.850277 292.174051 
L 318.97597 292.289478 
L 321.038817 293.782906 
L 323.101664 294.347039 
L 325.16451 292.952017 
L 327.227357 292.622831 
L 329.290203 294.545752 
L 331.35305 294.421404 
L 333.415896 294.603957 
L 335.478743 290.283548 
L 337.54159 289.060406 
L 339.604436 287.205995 
L 341.667283 286.161943 
L 343.730129 283.557522 
L 345.792976 282.585531 
L 347.855823 282.563164 
L 349.918669 284.217411 
L 351.981516 283.603769 
L 354.044362 283.935343 
L 356.107209 283.310148 
L 358.170055 282.3404 
L 360.232902 282.407057 
L 362.295749 281.56258 
L 364.358595 280.594041 
L 366.421442 279.312253 
L 368.484288 278.563573 
L 370.547135 277.590154 
L 374.672828 277.330452 
L 376.735675 274.603287 
L 378.798521 273.477404 
L 380.861368 272.596281 
L 384.987061 271.650347 
L 387.049908 270.820173 
L 389.112754 271.082899 
L 391.175601 273.440173 
L 393.238447 273.427773 
L 395.301294 273.664247 
L 397.36414 273.489824 
L 401.489834 273.685079 
L 403.55268 273.238274 
L 405.615527 273.242381 
L 407.678373 274.560355 
L 409.74122 274.016139 
L 411.804067 274.792915 
L 413.866913 274.389233 
L 415.92976 274.586107 
L 417.992606 274.329569 
L 420.055453 274.680718 
L 422.118299 273.57691 
L 424.181146 274.219074 
L 426.243993 274.176684 
L 428.306839 275.171399 
L 430.369686 275.373447 
L 432.432532 275.911458 
L 434.495379 275.942878 
L 436.558226 276.340674 
L 438.621072 276.914874 
L 440.683919 276.766838 
L 442.746765 277.391635 
L 444.809612 277.542769 
L 446.872458 278.213007 
L 448.935305 277.471831 
L 453.060998 279.12708 
L 455.123845 279.35244 
L 457.186691 279.382616 
L 459.249538 280.265875 
L 461.312384 279.787856 
L 463.375231 281.492361 
L 465.438078 285.061531 
L 467.500924 284.252855 
L 469.563771 285.158823 
L 471.626617 283.696476 
L 473.689464 284.111327 
L 475.752311 284.258767 
L 477.815157 283.356018 
L 479.878004 278.839072 
L 481.94085 279.879788 
L 484.003697 280.110848 
L 486.066543 281.56258 
L 488.12939 281.573398 
L 490.192237 282.401497 
L 492.255083 282.395937 
L 494.31793 284.520018 
L 496.380776 283.830243 
L 498.443623 283.580637 
L 500.50647 283.563299 
L 504.632163 283.172953 
L 506.695009 283.789469 
L 508.757856 283.812761 
L 510.820702 284.687452 
L 512.883549 285.006941 
L 517.009242 285.495672 
L 519.072089 285.031191 
L 521.134935 284.146647 
L 523.197782 285.409572 
L 525.260628 285.606733 
L 527.323475 284.946401 
L 529.386322 284.633533 
L 531.449168 285.067602 
L 533.512015 284.723452 
L 535.574861 285.582017 
L 537.637708 284.982711 
L 539.700555 284.591662 
L 541.763401 285.471047 
L 543.826248 285.886183 
L 545.889094 285.30535 
L 547.951941 285.366613 
L 554.140481 282.985321 
L 558.266174 282.551987 
L 560.32902 281.411541 
L 562.391867 281.660077 
L 566.51756 281.202413 
L 568.580407 281.910673 
L 570.643253 281.234492 
L 572.7061 280.904633 
L 574.768946 280.9735 
L 576.831793 280.683207 
L 578.89464 280.604517 
L 580.957486 279.864446 
L 583.020333 279.317274 
L 585.083179 278.368313 
L 587.146026 277.61862 
L 589.208872 277.021725 
L 591.271719 276.729941 
L 593.334566 276.308839 
L 599.523105 276.308839 
L 599.523105 276.308839 
" style="fill:none;stroke:#ffb5b8;stroke-linecap:square;stroke-opacity:0.4;stroke-width:2;"/>
   </g>
   <g id="line2d_67">
    <defs>
     <path d="M 0 3 
C 0.795609 3 1.55874 2.683901 2.12132 2.12132 
C 2.683901 1.55874 3 0.795609 3 0 
C 3 -0.795609 2.683901 -1.55874 2.12132 -2.12132 
C 1.55874 -2.683901 0.795609 -3 0 -3 
C -0.795609 -3 -1.55874 -2.683901 -2.12132 -2.12132 
C -2.683901 -1.55874 -3 -0.795609 -3 0 
C -3 0.795609 -2.683901 1.55874 -2.12132 2.12132 
C -1.55874 2.683901 -0.795609 3 0 3 
z
" id="m8538767170" style="stroke:#ffb5b8;stroke-opacity:0.4;"/>
    </defs>
    <g clip-path="url(#pea8d5e9608)">
     <use style="fill:#ffb5b8;fill-opacity:0.4;stroke:#ffb5b8;stroke-opacity:0.4;" x="599.523105" xlink:href="#m8538767170" y="276.308839"/>
    </g>
   </g>
   <g id="patch_3">
    <path d="M 90 378 
L 90 229.745455 
" style="fill:none;stroke:#ffffff;stroke-linecap:square;stroke-linejoin:miter;"/>
   </g>
   <g id="patch_4">
    <path d="M 648 378 
L 648 229.745455 
" style="fill:none;stroke:#ffffff;stroke-linecap:square;stroke-linejoin:miter;"/>
   </g>
   <g id="patch_5">
    <path d="M 90 378 
L 648 378 
" style="fill:none;stroke:#ffffff;stroke-linecap:square;stroke-linejoin:miter;"/>
   </g>
   <g id="patch_6">
    <path d="M 90 229.745455 
L 648 229.745455 
" style="fill:none;stroke:#ffffff;stroke-linecap:square;stroke-linejoin:miter;"/>
   </g>
   <g id="text_15">
    <!-- Germany -->
    <defs>
     <path d="M 59.515625 10.40625 
L 59.515625 29.984375 
L 43.40625 29.984375 
L 43.40625 38.09375 
L 69.28125 38.09375 
L 69.28125 6.78125 
Q 63.578125 2.734375 56.6875 0.65625 
Q 49.8125 -1.421875 42 -1.421875 
Q 24.90625 -1.421875 15.25 8.5625 
Q 5.609375 18.5625 5.609375 36.375 
Q 5.609375 54.25 15.25 64.234375 
Q 24.90625 74.21875 42 74.21875 
Q 49.125 74.21875 55.546875 72.453125 
Q 61.96875 70.703125 67.390625 67.28125 
L 67.390625 56.78125 
Q 61.921875 61.421875 55.765625 63.765625 
Q 49.609375 66.109375 42.828125 66.109375 
Q 29.4375 66.109375 22.71875 58.640625 
Q 16.015625 51.171875 16.015625 36.375 
Q 16.015625 21.625 22.71875 14.15625 
Q 29.4375 6.6875 42.828125 6.6875 
Q 48.046875 6.6875 52.140625 7.59375 
Q 56.25 8.5 59.515625 10.40625 
z
" id="DejaVuSans-71"/>
    </defs>
    <g transform="translate(591.271719 301.365636)scale(0.1 -0.1)">
     <use xlink:href="#DejaVuSans-71"/>
     <use x="77.490234" xlink:href="#DejaVuSans-101"/>
     <use x="139.013672" xlink:href="#DejaVuSans-114"/>
     <use x="178.376953" xlink:href="#DejaVuSans-109"/>
     <use x="275.789062" xlink:href="#DejaVuSans-97"/>
     <use x="337.068359" xlink:href="#DejaVuSans-110"/>
     <use x="400.447266" xlink:href="#DejaVuSans-121"/>
    </g>
   </g>
   <g id="text_16">
    <!-- Poland -->
    <defs>
     <path d="M 19.671875 64.796875 
L 19.671875 37.40625 
L 32.078125 37.40625 
Q 38.96875 37.40625 42.71875 40.96875 
Q 46.484375 44.53125 46.484375 51.125 
Q 46.484375 57.671875 42.71875 61.234375 
Q 38.96875 64.796875 32.078125 64.796875 
z
M 9.8125 72.90625 
L 32.078125 72.90625 
Q 44.34375 72.90625 50.609375 67.359375 
Q 56.890625 61.8125 56.890625 51.125 
Q 56.890625 40.328125 50.609375 34.8125 
Q 44.34375 29.296875 32.078125 29.296875 
L 19.671875 29.296875 
L 19.671875 0 
L 9.8125 0 
z
" id="DejaVuSans-80"/>
    </defs>
    <g transform="translate(564.454713 244.749262)scale(0.1 -0.1)">
     <use xlink:href="#DejaVuSans-80"/>
     <use x="56.677734" xlink:href="#DejaVuSans-111"/>
     <use x="117.859375" xlink:href="#DejaVuSans-108"/>
     <use x="145.642578" xlink:href="#DejaVuSans-97"/>
     <use x="206.921875" xlink:href="#DejaVuSans-110"/>
     <use x="270.300781" xlink:href="#DejaVuSans-100"/>
    </g>
   </g>
   <g id="text_17">
    <!-- Belarus -->
    <defs>
     <path d="M 19.671875 34.8125 
L 19.671875 8.109375 
L 35.5 8.109375 
Q 43.453125 8.109375 47.28125 11.40625 
Q 51.125 14.703125 51.125 21.484375 
Q 51.125 28.328125 47.28125 31.5625 
Q 43.453125 34.8125 35.5 34.8125 
z
M 19.671875 64.796875 
L 19.671875 42.828125 
L 34.28125 42.828125 
Q 41.5 42.828125 45.03125 45.53125 
Q 48.578125 48.25 48.578125 53.8125 
Q 48.578125 59.328125 45.03125 62.0625 
Q 41.5 64.796875 34.28125 64.796875 
z
M 9.8125 72.90625 
L 35.015625 72.90625 
Q 46.296875 72.90625 52.390625 68.21875 
Q 58.5 63.53125 58.5 54.890625 
Q 58.5 48.1875 55.375 44.234375 
Q 52.25 40.28125 46.1875 39.3125 
Q 53.46875 37.75 57.5 32.78125 
Q 61.53125 27.828125 61.53125 20.40625 
Q 61.53125 10.640625 54.890625 5.3125 
Q 48.25 0 35.984375 0 
L 9.8125 0 
z
" id="DejaVuSans-66"/>
     <path d="M 8.5 21.578125 
L 8.5 54.6875 
L 17.484375 54.6875 
L 17.484375 21.921875 
Q 17.484375 14.15625 20.5 10.265625 
Q 23.53125 6.390625 29.59375 6.390625 
Q 36.859375 6.390625 41.078125 11.03125 
Q 45.3125 15.671875 45.3125 23.6875 
L 45.3125 54.6875 
L 54.296875 54.6875 
L 54.296875 0 
L 45.3125 0 
L 45.3125 8.40625 
Q 42.046875 3.421875 37.71875 1 
Q 33.40625 -1.421875 27.6875 -1.421875 
Q 18.265625 -1.421875 13.375 4.4375 
Q 8.5 10.296875 8.5 21.578125 
z
M 31.109375 56 
z
" id="DejaVuSans-117"/>
    </defs>
    <g transform="translate(531.449168 341.651545)scale(0.1 -0.1)">
     <use xlink:href="#DejaVuSans-66"/>
     <use x="68.603516" xlink:href="#DejaVuSans-101"/>
     <use x="130.126953" xlink:href="#DejaVuSans-108"/>
     <use x="157.910156" xlink:href="#DejaVuSans-97"/>
     <use x="219.189453" xlink:href="#DejaVuSans-114"/>
     <use x="260.302734" xlink:href="#DejaVuSans-117"/>
     <use x="323.681641" xlink:href="#DejaVuSans-115"/>
    </g>
   </g>
   <g id="text_18">
    <!-- Switzerland -->
    <defs>
     <path d="M 53.515625 70.515625 
L 53.515625 60.890625 
Q 47.90625 63.578125 42.921875 64.890625 
Q 37.9375 66.21875 33.296875 66.21875 
Q 25.25 66.21875 20.875 63.09375 
Q 16.5 59.96875 16.5 54.203125 
Q 16.5 49.359375 19.40625 46.890625 
Q 22.3125 44.4375 30.421875 42.921875 
L 36.375 41.703125 
Q 47.40625 39.59375 52.65625 34.296875 
Q 57.90625 29 57.90625 20.125 
Q 57.90625 9.515625 50.796875 4.046875 
Q 43.703125 -1.421875 29.984375 -1.421875 
Q 24.8125 -1.421875 18.96875 -0.25 
Q 13.140625 0.921875 6.890625 3.21875 
L 6.890625 13.375 
Q 12.890625 10.015625 18.65625 8.296875 
Q 24.421875 6.59375 29.984375 6.59375 
Q 38.421875 6.59375 43.015625 9.90625 
Q 47.609375 13.234375 47.609375 19.390625 
Q 47.609375 24.75 44.3125 27.78125 
Q 41.015625 30.8125 33.5 32.328125 
L 27.484375 33.5 
Q 16.453125 35.6875 11.515625 40.375 
Q 6.59375 45.0625 6.59375 53.421875 
Q 6.59375 63.09375 13.40625 68.65625 
Q 20.21875 74.21875 32.171875 74.21875 
Q 37.3125 74.21875 42.625 73.28125 
Q 47.953125 72.359375 53.515625 70.515625 
z
" id="DejaVuSans-83"/>
     <path d="M 5.515625 54.6875 
L 48.1875 54.6875 
L 48.1875 46.484375 
L 14.40625 7.171875 
L 48.1875 7.171875 
L 48.1875 0 
L 4.296875 0 
L 4.296875 8.203125 
L 38.09375 47.515625 
L 5.515625 47.515625 
z
" id="DejaVuSans-122"/>
    </defs>
    <g transform="translate(591.271719 244.64141)scale(0.1 -0.1)">
     <use xlink:href="#DejaVuSans-83"/>
     <use x="63.476562" xlink:href="#DejaVuSans-119"/>
     <use x="145.263672" xlink:href="#DejaVuSans-105"/>
     <use x="173.046875" xlink:href="#DejaVuSans-116"/>
     <use x="212.255859" xlink:href="#DejaVuSans-122"/>
     <use x="264.746094" xlink:href="#DejaVuSans-101"/>
     <use x="326.269531" xlink:href="#DejaVuSans-114"/>
     <use x="367.382812" xlink:href="#DejaVuSans-108"/>
     <use x="395.166016" xlink:href="#DejaVuSans-97"/>
     <use x="456.445312" xlink:href="#DejaVuSans-110"/>
     <use x="519.824219" xlink:href="#DejaVuSans-100"/>
    </g>
   </g>
   <g id="text_19">
    <!-- US -->
    <defs>
     <path d="M 8.6875 72.90625 
L 18.609375 72.90625 
L 18.609375 28.609375 
Q 18.609375 16.890625 22.84375 11.734375 
Q 27.09375 6.59375 36.625 6.59375 
Q 46.09375 6.59375 50.34375 11.734375 
Q 54.59375 16.890625 54.59375 28.609375 
L 54.59375 72.90625 
L 64.5 72.90625 
L 64.5 27.390625 
Q 64.5 13.140625 57.4375 5.859375 
Q 50.390625 -1.421875 36.625 -1.421875 
Q 22.796875 -1.421875 15.734375 5.859375 
Q 8.6875 13.140625 8.6875 27.390625 
z
" id="DejaVuSans-85"/>
    </defs>
    <g transform="translate(603.648799 276.308839)scale(0.1 -0.1)">
     <use xlink:href="#DejaVuSans-85"/>
     <use x="73.193359" xlink:href="#DejaVuSans-83"/>
    </g>
   </g>
  </g>
 </g>
 <defs>
  <clipPath id="pea8d5e9608">
   <rect height="148.254545" width="558" x="90" y="229.745455"/>
  </clipPath>
 </defs>
</svg>
