<?xml version="1.0" encoding="utf-8" standalone="no"?>
<!DOCTYPE svg PUBLIC "-//W3C//DTD SVG 1.1//EN"
  "http://www.w3.org/Graphics/SVG/1.1/DTD/svg11.dtd">
<!-- Created with matplotlib (https://matplotlib.org/) -->
<svg height="180pt" version="1.1" viewBox="0 0 720 180" width="720pt" xmlns="http://www.w3.org/2000/svg" xmlns:xlink="http://www.w3.org/1999/xlink">
 <defs>
  <style type="text/css">
*{stroke-linecap:butt;stroke-linejoin:round;}
  </style>
 </defs>
 <g id="figure_1">
  <g id="patch_1">
   <path d="M 0 180 
L 720 180 
L 720 0 
L 0 0 
z
" style="fill:#ffffff;"/>
  </g>
  <g id="axes_1">
   <g id="patch_2">
    <path d="M 90 157.5 
L 648 157.5 
L 648 21.6 
L 90 21.6 
z
" style="fill:#e5e5e5;"/>
   </g>
   <g id="matplotlib.axis_1">
    <g id="xtick_1">
     <g id="line2d_1">
      <path clip-path="url(#p1fa7af2260)" d="M 134.362615 157.5 
L 134.362615 21.6 
" style="fill:none;stroke:#ffffff;stroke-linecap:square;stroke-width:0.8;"/>
     </g>
     <g id="line2d_2">
      <defs>
       <path d="M 0 0 
L 0 3.5 
" id="me247c3cb45" style="stroke:#555555;stroke-width:0.8;"/>
      </defs>
      <g>
       <use style="fill:#555555;stroke:#555555;stroke-width:0.8;" x="134.362615" xlink:href="#me247c3cb45" y="157.5"/>
      </g>
     </g>
     <g id="text_1">
      <!-- 2020-02 -->
      <defs>
       <path d="M 19.1875 8.296875 
L 53.609375 8.296875 
L 53.609375 0 
L 7.328125 0 
L 7.328125 8.296875 
Q 12.9375 14.109375 22.625 23.890625 
Q 32.328125 33.6875 34.8125 36.53125 
Q 39.546875 41.84375 41.421875 45.53125 
Q 43.3125 49.21875 43.3125 52.78125 
Q 43.3125 58.59375 39.234375 62.25 
Q 35.15625 65.921875 28.609375 65.921875 
Q 23.96875 65.921875 18.8125 64.3125 
Q 13.671875 62.703125 7.8125 59.421875 
L 7.8125 69.390625 
Q 13.765625 71.78125 18.9375 73 
Q 24.125 74.21875 28.421875 74.21875 
Q 39.75 74.21875 46.484375 68.546875 
Q 53.21875 62.890625 53.21875 53.421875 
Q 53.21875 48.921875 51.53125 44.890625 
Q 49.859375 40.875 45.40625 35.40625 
Q 44.1875 33.984375 37.640625 27.21875 
Q 31.109375 20.453125 19.1875 8.296875 
z
" id="DejaVuSans-50"/>
       <path d="M 31.78125 66.40625 
Q 24.171875 66.40625 20.328125 58.90625 
Q 16.5 51.421875 16.5 36.375 
Q 16.5 21.390625 20.328125 13.890625 
Q 24.171875 6.390625 31.78125 6.390625 
Q 39.453125 6.390625 43.28125 13.890625 
Q 47.125 21.390625 47.125 36.375 
Q 47.125 51.421875 43.28125 58.90625 
Q 39.453125 66.40625 31.78125 66.40625 
z
M 31.78125 74.21875 
Q 44.046875 74.21875 50.515625 64.515625 
Q 56.984375 54.828125 56.984375 36.375 
Q 56.984375 17.96875 50.515625 8.265625 
Q 44.046875 -1.421875 31.78125 -1.421875 
Q 19.53125 -1.421875 13.0625 8.265625 
Q 6.59375 17.96875 6.59375 36.375 
Q 6.59375 54.828125 13.0625 64.515625 
Q 19.53125 74.21875 31.78125 74.21875 
z
" id="DejaVuSans-48"/>
       <path d="M 4.890625 31.390625 
L 31.203125 31.390625 
L 31.203125 23.390625 
L 4.890625 23.390625 
z
" id="DejaVuSans-45"/>
      </defs>
      <g style="fill:#555555;" transform="translate(113.471209 172.098437)scale(0.1 -0.1)">
       <use xlink:href="#DejaVuSans-50"/>
       <use x="63.623047" xlink:href="#DejaVuSans-48"/>
       <use x="127.246094" xlink:href="#DejaVuSans-50"/>
       <use x="190.869141" xlink:href="#DejaVuSans-48"/>
       <use x="254.492188" xlink:href="#DejaVuSans-45"/>
       <use x="290.576172" xlink:href="#DejaVuSans-48"/>
       <use x="354.199219" xlink:href="#DejaVuSans-50"/>
      </g>
     </g>
    </g>
    <g id="xtick_2">
     <g id="line2d_3">
      <path clip-path="url(#p1fa7af2260)" d="M 189.459653 157.5 
L 189.459653 21.6 
" style="fill:none;stroke:#ffffff;stroke-linecap:square;stroke-width:0.8;"/>
     </g>
     <g id="line2d_4">
      <g>
       <use style="fill:#555555;stroke:#555555;stroke-width:0.8;" x="189.459653" xlink:href="#me247c3cb45" y="157.5"/>
      </g>
     </g>
     <g id="text_2">
      <!-- 2020-03 -->
      <defs>
       <path d="M 40.578125 39.3125 
Q 47.65625 37.796875 51.625 33 
Q 55.609375 28.21875 55.609375 21.1875 
Q 55.609375 10.40625 48.1875 4.484375 
Q 40.765625 -1.421875 27.09375 -1.421875 
Q 22.515625 -1.421875 17.65625 -0.515625 
Q 12.796875 0.390625 7.625 2.203125 
L 7.625 11.71875 
Q 11.71875 9.328125 16.59375 8.109375 
Q 21.484375 6.890625 26.8125 6.890625 
Q 36.078125 6.890625 40.9375 10.546875 
Q 45.796875 14.203125 45.796875 21.1875 
Q 45.796875 27.640625 41.28125 31.265625 
Q 36.765625 34.90625 28.71875 34.90625 
L 20.21875 34.90625 
L 20.21875 43.015625 
L 29.109375 43.015625 
Q 36.375 43.015625 40.234375 45.921875 
Q 44.09375 48.828125 44.09375 54.296875 
Q 44.09375 59.90625 40.109375 62.90625 
Q 36.140625 65.921875 28.71875 65.921875 
Q 24.65625 65.921875 20.015625 65.03125 
Q 15.375 64.15625 9.8125 62.3125 
L 9.8125 71.09375 
Q 15.4375 72.65625 20.34375 73.4375 
Q 25.25 74.21875 29.59375 74.21875 
Q 40.828125 74.21875 47.359375 69.109375 
Q 53.90625 64.015625 53.90625 55.328125 
Q 53.90625 49.265625 50.4375 45.09375 
Q 46.96875 40.921875 40.578125 39.3125 
z
" id="DejaVuSans-51"/>
      </defs>
      <g style="fill:#555555;" transform="translate(168.568246 172.098437)scale(0.1 -0.1)">
       <use xlink:href="#DejaVuSans-50"/>
       <use x="63.623047" xlink:href="#DejaVuSans-48"/>
       <use x="127.246094" xlink:href="#DejaVuSans-50"/>
       <use x="190.869141" xlink:href="#DejaVuSans-48"/>
       <use x="254.492188" xlink:href="#DejaVuSans-45"/>
       <use x="290.576172" xlink:href="#DejaVuSans-48"/>
       <use x="354.199219" xlink:href="#DejaVuSans-51"/>
      </g>
     </g>
    </g>
    <g id="xtick_3">
     <g id="line2d_5">
      <path clip-path="url(#p1fa7af2260)" d="M 248.356486 157.5 
L 248.356486 21.6 
" style="fill:none;stroke:#ffffff;stroke-linecap:square;stroke-width:0.8;"/>
     </g>
     <g id="line2d_6">
      <g>
       <use style="fill:#555555;stroke:#555555;stroke-width:0.8;" x="248.356486" xlink:href="#me247c3cb45" y="157.5"/>
      </g>
     </g>
     <g id="text_3">
      <!-- 2020-04 -->
      <defs>
       <path d="M 37.796875 64.3125 
L 12.890625 25.390625 
L 37.796875 25.390625 
z
M 35.203125 72.90625 
L 47.609375 72.90625 
L 47.609375 25.390625 
L 58.015625 25.390625 
L 58.015625 17.1875 
L 47.609375 17.1875 
L 47.609375 0 
L 37.796875 0 
L 37.796875 17.1875 
L 4.890625 17.1875 
L 4.890625 26.703125 
z
" id="DejaVuSans-52"/>
      </defs>
      <g style="fill:#555555;" transform="translate(227.46508 172.098437)scale(0.1 -0.1)">
       <use xlink:href="#DejaVuSans-50"/>
       <use x="63.623047" xlink:href="#DejaVuSans-48"/>
       <use x="127.246094" xlink:href="#DejaVuSans-50"/>
       <use x="190.869141" xlink:href="#DejaVuSans-48"/>
       <use x="254.492188" xlink:href="#DejaVuSans-45"/>
       <use x="290.576172" xlink:href="#DejaVuSans-48"/>
       <use x="354.199219" xlink:href="#DejaVuSans-52"/>
      </g>
     </g>
    </g>
    <g id="xtick_4">
     <g id="line2d_7">
      <path clip-path="url(#p1fa7af2260)" d="M 305.353422 157.5 
L 305.353422 21.6 
" style="fill:none;stroke:#ffffff;stroke-linecap:square;stroke-width:0.8;"/>
     </g>
     <g id="line2d_8">
      <g>
       <use style="fill:#555555;stroke:#555555;stroke-width:0.8;" x="305.353422" xlink:href="#me247c3cb45" y="157.5"/>
      </g>
     </g>
     <g id="text_4">
      <!-- 2020-05 -->
      <defs>
       <path d="M 10.796875 72.90625 
L 49.515625 72.90625 
L 49.515625 64.59375 
L 19.828125 64.59375 
L 19.828125 46.734375 
Q 21.96875 47.46875 24.109375 47.828125 
Q 26.265625 48.1875 28.421875 48.1875 
Q 40.625 48.1875 47.75 41.5 
Q 54.890625 34.8125 54.890625 23.390625 
Q 54.890625 11.625 47.5625 5.09375 
Q 40.234375 -1.421875 26.90625 -1.421875 
Q 22.3125 -1.421875 17.546875 -0.640625 
Q 12.796875 0.140625 7.71875 1.703125 
L 7.71875 11.625 
Q 12.109375 9.234375 16.796875 8.0625 
Q 21.484375 6.890625 26.703125 6.890625 
Q 35.15625 6.890625 40.078125 11.328125 
Q 45.015625 15.765625 45.015625 23.390625 
Q 45.015625 31 40.078125 35.4375 
Q 35.15625 39.890625 26.703125 39.890625 
Q 22.75 39.890625 18.8125 39.015625 
Q 14.890625 38.140625 10.796875 36.28125 
z
" id="DejaVuSans-53"/>
      </defs>
      <g style="fill:#555555;" transform="translate(284.462016 172.098437)scale(0.1 -0.1)">
       <use xlink:href="#DejaVuSans-50"/>
       <use x="63.623047" xlink:href="#DejaVuSans-48"/>
       <use x="127.246094" xlink:href="#DejaVuSans-50"/>
       <use x="190.869141" xlink:href="#DejaVuSans-48"/>
       <use x="254.492188" xlink:href="#DejaVuSans-45"/>
       <use x="290.576172" xlink:href="#DejaVuSans-48"/>
       <use x="354.199219" xlink:href="#DejaVuSans-53"/>
      </g>
     </g>
    </g>
    <g id="xtick_5">
     <g id="line2d_9">
      <path clip-path="url(#p1fa7af2260)" d="M 364.250255 157.5 
L 364.250255 21.6 
" style="fill:none;stroke:#ffffff;stroke-linecap:square;stroke-width:0.8;"/>
     </g>
     <g id="line2d_10">
      <g>
       <use style="fill:#555555;stroke:#555555;stroke-width:0.8;" x="364.250255" xlink:href="#me247c3cb45" y="157.5"/>
      </g>
     </g>
     <g id="text_5">
      <!-- 2020-06 -->
      <defs>
       <path d="M 33.015625 40.375 
Q 26.375 40.375 22.484375 35.828125 
Q 18.609375 31.296875 18.609375 23.390625 
Q 18.609375 15.53125 22.484375 10.953125 
Q 26.375 6.390625 33.015625 6.390625 
Q 39.65625 6.390625 43.53125 10.953125 
Q 47.40625 15.53125 47.40625 23.390625 
Q 47.40625 31.296875 43.53125 35.828125 
Q 39.65625 40.375 33.015625 40.375 
z
M 52.59375 71.296875 
L 52.59375 62.3125 
Q 48.875 64.0625 45.09375 64.984375 
Q 41.3125 65.921875 37.59375 65.921875 
Q 27.828125 65.921875 22.671875 59.328125 
Q 17.53125 52.734375 16.796875 39.40625 
Q 19.671875 43.65625 24.015625 45.921875 
Q 28.375 48.1875 33.59375 48.1875 
Q 44.578125 48.1875 50.953125 41.515625 
Q 57.328125 34.859375 57.328125 23.390625 
Q 57.328125 12.15625 50.6875 5.359375 
Q 44.046875 -1.421875 33.015625 -1.421875 
Q 20.359375 -1.421875 13.671875 8.265625 
Q 6.984375 17.96875 6.984375 36.375 
Q 6.984375 53.65625 15.1875 63.9375 
Q 23.390625 74.21875 37.203125 74.21875 
Q 40.921875 74.21875 44.703125 73.484375 
Q 48.484375 72.75 52.59375 71.296875 
z
" id="DejaVuSans-54"/>
      </defs>
      <g style="fill:#555555;" transform="translate(343.358849 172.098437)scale(0.1 -0.1)">
       <use xlink:href="#DejaVuSans-50"/>
       <use x="63.623047" xlink:href="#DejaVuSans-48"/>
       <use x="127.246094" xlink:href="#DejaVuSans-50"/>
       <use x="190.869141" xlink:href="#DejaVuSans-48"/>
       <use x="254.492188" xlink:href="#DejaVuSans-45"/>
       <use x="290.576172" xlink:href="#DejaVuSans-48"/>
       <use x="354.199219" xlink:href="#DejaVuSans-54"/>
      </g>
     </g>
    </g>
    <g id="xtick_6">
     <g id="line2d_11">
      <path clip-path="url(#p1fa7af2260)" d="M 421.247191 157.5 
L 421.247191 21.6 
" style="fill:none;stroke:#ffffff;stroke-linecap:square;stroke-width:0.8;"/>
     </g>
     <g id="line2d_12">
      <g>
       <use style="fill:#555555;stroke:#555555;stroke-width:0.8;" x="421.247191" xlink:href="#me247c3cb45" y="157.5"/>
      </g>
     </g>
     <g id="text_6">
      <!-- 2020-07 -->
      <defs>
       <path d="M 8.203125 72.90625 
L 55.078125 72.90625 
L 55.078125 68.703125 
L 28.609375 0 
L 18.3125 0 
L 43.21875 64.59375 
L 8.203125 64.59375 
z
" id="DejaVuSans-55"/>
      </defs>
      <g style="fill:#555555;" transform="translate(400.355785 172.098437)scale(0.1 -0.1)">
       <use xlink:href="#DejaVuSans-50"/>
       <use x="63.623047" xlink:href="#DejaVuSans-48"/>
       <use x="127.246094" xlink:href="#DejaVuSans-50"/>
       <use x="190.869141" xlink:href="#DejaVuSans-48"/>
       <use x="254.492188" xlink:href="#DejaVuSans-45"/>
       <use x="290.576172" xlink:href="#DejaVuSans-48"/>
       <use x="354.199219" xlink:href="#DejaVuSans-55"/>
      </g>
     </g>
    </g>
    <g id="xtick_7">
     <g id="line2d_13">
      <path clip-path="url(#p1fa7af2260)" d="M 480.144025 157.5 
L 480.144025 21.6 
" style="fill:none;stroke:#ffffff;stroke-linecap:square;stroke-width:0.8;"/>
     </g>
     <g id="line2d_14">
      <g>
       <use style="fill:#555555;stroke:#555555;stroke-width:0.8;" x="480.144025" xlink:href="#me247c3cb45" y="157.5"/>
      </g>
     </g>
     <g id="text_7">
      <!-- 2020-08 -->
      <defs>
       <path d="M 31.78125 34.625 
Q 24.75 34.625 20.71875 30.859375 
Q 16.703125 27.09375 16.703125 20.515625 
Q 16.703125 13.921875 20.71875 10.15625 
Q 24.75 6.390625 31.78125 6.390625 
Q 38.8125 6.390625 42.859375 10.171875 
Q 46.921875 13.96875 46.921875 20.515625 
Q 46.921875 27.09375 42.890625 30.859375 
Q 38.875 34.625 31.78125 34.625 
z
M 21.921875 38.8125 
Q 15.578125 40.375 12.03125 44.71875 
Q 8.5 49.078125 8.5 55.328125 
Q 8.5 64.0625 14.71875 69.140625 
Q 20.953125 74.21875 31.78125 74.21875 
Q 42.671875 74.21875 48.875 69.140625 
Q 55.078125 64.0625 55.078125 55.328125 
Q 55.078125 49.078125 51.53125 44.71875 
Q 48 40.375 41.703125 38.8125 
Q 48.828125 37.15625 52.796875 32.3125 
Q 56.78125 27.484375 56.78125 20.515625 
Q 56.78125 9.90625 50.3125 4.234375 
Q 43.84375 -1.421875 31.78125 -1.421875 
Q 19.734375 -1.421875 13.25 4.234375 
Q 6.78125 9.90625 6.78125 20.515625 
Q 6.78125 27.484375 10.78125 32.3125 
Q 14.796875 37.15625 21.921875 38.8125 
z
M 18.3125 54.390625 
Q 18.3125 48.734375 21.84375 45.5625 
Q 25.390625 42.390625 31.78125 42.390625 
Q 38.140625 42.390625 41.71875 45.5625 
Q 45.3125 48.734375 45.3125 54.390625 
Q 45.3125 60.0625 41.71875 63.234375 
Q 38.140625 66.40625 31.78125 66.40625 
Q 25.390625 66.40625 21.84375 63.234375 
Q 18.3125 60.0625 18.3125 54.390625 
z
" id="DejaVuSans-56"/>
      </defs>
      <g style="fill:#555555;" transform="translate(459.252618 172.098437)scale(0.1 -0.1)">
       <use xlink:href="#DejaVuSans-50"/>
       <use x="63.623047" xlink:href="#DejaVuSans-48"/>
       <use x="127.246094" xlink:href="#DejaVuSans-50"/>
       <use x="190.869141" xlink:href="#DejaVuSans-48"/>
       <use x="254.492188" xlink:href="#DejaVuSans-45"/>
       <use x="290.576172" xlink:href="#DejaVuSans-48"/>
       <use x="354.199219" xlink:href="#DejaVuSans-56"/>
      </g>
     </g>
    </g>
    <g id="xtick_8">
     <g id="line2d_15">
      <path clip-path="url(#p1fa7af2260)" d="M 539.040858 157.5 
L 539.040858 21.6 
" style="fill:none;stroke:#ffffff;stroke-linecap:square;stroke-width:0.8;"/>
     </g>
     <g id="line2d_16">
      <g>
       <use style="fill:#555555;stroke:#555555;stroke-width:0.8;" x="539.040858" xlink:href="#me247c3cb45" y="157.5"/>
      </g>
     </g>
     <g id="text_8">
      <!-- 2020-09 -->
      <defs>
       <path d="M 10.984375 1.515625 
L 10.984375 10.5 
Q 14.703125 8.734375 18.5 7.8125 
Q 22.3125 6.890625 25.984375 6.890625 
Q 35.75 6.890625 40.890625 13.453125 
Q 46.046875 20.015625 46.78125 33.40625 
Q 43.953125 29.203125 39.59375 26.953125 
Q 35.25 24.703125 29.984375 24.703125 
Q 19.046875 24.703125 12.671875 31.3125 
Q 6.296875 37.9375 6.296875 49.421875 
Q 6.296875 60.640625 12.9375 67.421875 
Q 19.578125 74.21875 30.609375 74.21875 
Q 43.265625 74.21875 49.921875 64.515625 
Q 56.59375 54.828125 56.59375 36.375 
Q 56.59375 19.140625 48.40625 8.859375 
Q 40.234375 -1.421875 26.421875 -1.421875 
Q 22.703125 -1.421875 18.890625 -0.6875 
Q 15.09375 0.046875 10.984375 1.515625 
z
M 30.609375 32.421875 
Q 37.25 32.421875 41.125 36.953125 
Q 45.015625 41.5 45.015625 49.421875 
Q 45.015625 57.28125 41.125 61.84375 
Q 37.25 66.40625 30.609375 66.40625 
Q 23.96875 66.40625 20.09375 61.84375 
Q 16.21875 57.28125 16.21875 49.421875 
Q 16.21875 41.5 20.09375 36.953125 
Q 23.96875 32.421875 30.609375 32.421875 
z
" id="DejaVuSans-57"/>
      </defs>
      <g style="fill:#555555;" transform="translate(518.149452 172.098437)scale(0.1 -0.1)">
       <use xlink:href="#DejaVuSans-50"/>
       <use x="63.623047" xlink:href="#DejaVuSans-48"/>
       <use x="127.246094" xlink:href="#DejaVuSans-50"/>
       <use x="190.869141" xlink:href="#DejaVuSans-48"/>
       <use x="254.492188" xlink:href="#DejaVuSans-45"/>
       <use x="290.576172" xlink:href="#DejaVuSans-48"/>
       <use x="354.199219" xlink:href="#DejaVuSans-57"/>
      </g>
     </g>
    </g>
    <g id="xtick_9">
     <g id="line2d_17">
      <path clip-path="url(#p1fa7af2260)" d="M 596.037794 157.5 
L 596.037794 21.6 
" style="fill:none;stroke:#ffffff;stroke-linecap:square;stroke-width:0.8;"/>
     </g>
     <g id="line2d_18">
      <g>
       <use style="fill:#555555;stroke:#555555;stroke-width:0.8;" x="596.037794" xlink:href="#me247c3cb45" y="157.5"/>
      </g>
     </g>
     <g id="text_9">
      <!-- 2020-10 -->
      <defs>
       <path d="M 12.40625 8.296875 
L 28.515625 8.296875 
L 28.515625 63.921875 
L 10.984375 60.40625 
L 10.984375 69.390625 
L 28.421875 72.90625 
L 38.28125 72.90625 
L 38.28125 8.296875 
L 54.390625 8.296875 
L 54.390625 0 
L 12.40625 0 
z
" id="DejaVuSans-49"/>
      </defs>
      <g style="fill:#555555;" transform="translate(575.146387 172.098437)scale(0.1 -0.1)">
       <use xlink:href="#DejaVuSans-50"/>
       <use x="63.623047" xlink:href="#DejaVuSans-48"/>
       <use x="127.246094" xlink:href="#DejaVuSans-50"/>
       <use x="190.869141" xlink:href="#DejaVuSans-48"/>
       <use x="254.492188" xlink:href="#DejaVuSans-45"/>
       <use x="290.576172" xlink:href="#DejaVuSans-49"/>
       <use x="354.199219" xlink:href="#DejaVuSans-48"/>
      </g>
     </g>
    </g>
   </g>
   <g id="matplotlib.axis_2">
    <g id="ytick_1">
     <g id="line2d_19">
      <path clip-path="url(#p1fa7af2260)" d="M 90 157.5 
L 648 157.5 
" style="fill:none;stroke:#ffffff;stroke-linecap:square;stroke-width:0.8;"/>
     </g>
     <g id="line2d_20">
      <defs>
       <path d="M 0 0 
L -3.5 0 
" id="mf42170902f" style="stroke:#555555;stroke-width:0.8;"/>
      </defs>
      <g>
       <use style="fill:#555555;stroke:#555555;stroke-width:0.8;" x="90" xlink:href="#mf42170902f" y="157.5"/>
      </g>
     </g>
     <g id="line2d_21">
      <defs>
       <path d="M 0 0 
L 3.5 0 
" id="m0482d68441" style="stroke:#555555;stroke-width:0.8;"/>
      </defs>
      <g>
       <use style="fill:#555555;stroke:#555555;stroke-width:0.8;" x="648" xlink:href="#m0482d68441" y="157.5"/>
      </g>
     </g>
     <g id="text_10">
      <!-- 0 -->
      <g style="fill:#555555;" transform="translate(76.6375 161.299219)scale(0.1 -0.1)">
       <use xlink:href="#DejaVuSans-48"/>
      </g>
     </g>
     <g id="text_11">
      <!-- 0 -->
      <g style="fill:#555555;" transform="translate(655 161.299219)scale(0.1 -0.1)">
       <use xlink:href="#DejaVuSans-48"/>
      </g>
     </g>
    </g>
    <g id="ytick_2">
     <g id="line2d_22">
      <path clip-path="url(#p1fa7af2260)" d="M 90 133.967532 
L 648 133.967532 
" style="fill:none;stroke:#ffffff;stroke-linecap:square;stroke-width:0.8;"/>
     </g>
     <g id="line2d_23">
      <g>
       <use style="fill:#555555;stroke:#555555;stroke-width:0.8;" x="90" xlink:href="#mf42170902f" y="133.967532"/>
      </g>
     </g>
     <g id="line2d_24">
      <g>
       <use style="fill:#555555;stroke:#555555;stroke-width:0.8;" x="648" xlink:href="#m0482d68441" y="133.967532"/>
      </g>
     </g>
     <g id="text_12">
      <!-- 2 -->
      <g style="fill:#555555;" transform="translate(76.6375 137.766751)scale(0.1 -0.1)">
       <use xlink:href="#DejaVuSans-50"/>
      </g>
     </g>
     <g id="text_13">
      <!-- 2 -->
      <g style="fill:#555555;" transform="translate(655 137.766751)scale(0.1 -0.1)">
       <use xlink:href="#DejaVuSans-50"/>
      </g>
     </g>
    </g>
    <g id="ytick_3">
     <g id="line2d_25">
      <path clip-path="url(#p1fa7af2260)" d="M 90 110.435065 
L 648 110.435065 
" style="fill:none;stroke:#ffffff;stroke-linecap:square;stroke-width:0.8;"/>
     </g>
     <g id="line2d_26">
      <g>
       <use style="fill:#555555;stroke:#555555;stroke-width:0.8;" x="90" xlink:href="#mf42170902f" y="110.435065"/>
      </g>
     </g>
     <g id="line2d_27">
      <g>
       <use style="fill:#555555;stroke:#555555;stroke-width:0.8;" x="648" xlink:href="#m0482d68441" y="110.435065"/>
      </g>
     </g>
     <g id="text_14">
      <!-- 4 -->
      <g style="fill:#555555;" transform="translate(76.6375 114.234284)scale(0.1 -0.1)">
       <use xlink:href="#DejaVuSans-52"/>
      </g>
     </g>
     <g id="text_15">
      <!-- 4 -->
      <g style="fill:#555555;" transform="translate(655 114.234284)scale(0.1 -0.1)">
       <use xlink:href="#DejaVuSans-52"/>
      </g>
     </g>
    </g>
    <g id="ytick_4">
     <g id="line2d_28">
      <path clip-path="url(#p1fa7af2260)" d="M 90 86.902597 
L 648 86.902597 
" style="fill:none;stroke:#ffffff;stroke-linecap:square;stroke-width:0.8;"/>
     </g>
     <g id="line2d_29">
      <g>
       <use style="fill:#555555;stroke:#555555;stroke-width:0.8;" x="90" xlink:href="#mf42170902f" y="86.902597"/>
      </g>
     </g>
     <g id="line2d_30">
      <g>
       <use style="fill:#555555;stroke:#555555;stroke-width:0.8;" x="648" xlink:href="#m0482d68441" y="86.902597"/>
      </g>
     </g>
     <g id="text_16">
      <!-- 6 -->
      <g style="fill:#555555;" transform="translate(76.6375 90.701816)scale(0.1 -0.1)">
       <use xlink:href="#DejaVuSans-54"/>
      </g>
     </g>
     <g id="text_17">
      <!-- 6 -->
      <g style="fill:#555555;" transform="translate(655 90.701816)scale(0.1 -0.1)">
       <use xlink:href="#DejaVuSans-54"/>
      </g>
     </g>
    </g>
    <g id="ytick_5">
     <g id="line2d_31">
      <path clip-path="url(#p1fa7af2260)" d="M 90 63.37013 
L 648 63.37013 
" style="fill:none;stroke:#ffffff;stroke-linecap:square;stroke-width:0.8;"/>
     </g>
     <g id="line2d_32">
      <g>
       <use style="fill:#555555;stroke:#555555;stroke-width:0.8;" x="90" xlink:href="#mf42170902f" y="63.37013"/>
      </g>
     </g>
     <g id="line2d_33">
      <g>
       <use style="fill:#555555;stroke:#555555;stroke-width:0.8;" x="648" xlink:href="#m0482d68441" y="63.37013"/>
      </g>
     </g>
     <g id="text_18">
      <!-- 8 -->
      <g style="fill:#555555;" transform="translate(76.6375 67.169349)scale(0.1 -0.1)">
       <use xlink:href="#DejaVuSans-56"/>
      </g>
     </g>
     <g id="text_19">
      <!-- 8 -->
      <g style="fill:#555555;" transform="translate(655 67.169349)scale(0.1 -0.1)">
       <use xlink:href="#DejaVuSans-56"/>
      </g>
     </g>
    </g>
    <g id="ytick_6">
     <g id="line2d_34">
      <path clip-path="url(#p1fa7af2260)" d="M 90 39.837662 
L 648 39.837662 
" style="fill:none;stroke:#ffffff;stroke-linecap:square;stroke-width:0.8;"/>
     </g>
     <g id="line2d_35">
      <g>
       <use style="fill:#555555;stroke:#555555;stroke-width:0.8;" x="90" xlink:href="#mf42170902f" y="39.837662"/>
      </g>
     </g>
     <g id="line2d_36">
      <g>
       <use style="fill:#555555;stroke:#555555;stroke-width:0.8;" x="648" xlink:href="#m0482d68441" y="39.837662"/>
      </g>
     </g>
     <g id="text_20">
      <!-- 10 -->
      <g style="fill:#555555;" transform="translate(70.275 43.636881)scale(0.1 -0.1)">
       <use xlink:href="#DejaVuSans-49"/>
       <use x="63.623047" xlink:href="#DejaVuSans-48"/>
      </g>
     </g>
     <g id="text_21">
      <!-- 10 -->
      <g style="fill:#555555;" transform="translate(655 43.636881)scale(0.1 -0.1)">
       <use xlink:href="#DejaVuSans-49"/>
       <use x="63.623047" xlink:href="#DejaVuSans-48"/>
      </g>
     </g>
    </g>
    <g id="text_22">
     <!-- daily change -->
     <defs>
      <path d="M 45.40625 46.390625 
L 45.40625 75.984375 
L 54.390625 75.984375 
L 54.390625 0 
L 45.40625 0 
L 45.40625 8.203125 
Q 42.578125 3.328125 38.25 0.953125 
Q 33.9375 -1.421875 27.875 -1.421875 
Q 17.96875 -1.421875 11.734375 6.484375 
Q 5.515625 14.40625 5.515625 27.296875 
Q 5.515625 40.1875 11.734375 48.09375 
Q 17.96875 56 27.875 56 
Q 33.9375 56 38.25 53.625 
Q 42.578125 51.265625 45.40625 46.390625 
z
M 14.796875 27.296875 
Q 14.796875 17.390625 18.875 11.75 
Q 22.953125 6.109375 30.078125 6.109375 
Q 37.203125 6.109375 41.296875 11.75 
Q 45.40625 17.390625 45.40625 27.296875 
Q 45.40625 37.203125 41.296875 42.84375 
Q 37.203125 48.484375 30.078125 48.484375 
Q 22.953125 48.484375 18.875 42.84375 
Q 14.796875 37.203125 14.796875 27.296875 
z
" id="DejaVuSans-100"/>
      <path d="M 34.28125 27.484375 
Q 23.390625 27.484375 19.1875 25 
Q 14.984375 22.515625 14.984375 16.5 
Q 14.984375 11.71875 18.140625 8.90625 
Q 21.296875 6.109375 26.703125 6.109375 
Q 34.1875 6.109375 38.703125 11.40625 
Q 43.21875 16.703125 43.21875 25.484375 
L 43.21875 27.484375 
z
M 52.203125 31.203125 
L 52.203125 0 
L 43.21875 0 
L 43.21875 8.296875 
Q 40.140625 3.328125 35.546875 0.953125 
Q 30.953125 -1.421875 24.3125 -1.421875 
Q 15.921875 -1.421875 10.953125 3.296875 
Q 6 8.015625 6 15.921875 
Q 6 25.140625 12.171875 29.828125 
Q 18.359375 34.515625 30.609375 34.515625 
L 43.21875 34.515625 
L 43.21875 35.40625 
Q 43.21875 41.609375 39.140625 45 
Q 35.0625 48.390625 27.6875 48.390625 
Q 23 48.390625 18.546875 47.265625 
Q 14.109375 46.140625 10.015625 43.890625 
L 10.015625 52.203125 
Q 14.9375 54.109375 19.578125 55.046875 
Q 24.21875 56 28.609375 56 
Q 40.484375 56 46.34375 49.84375 
Q 52.203125 43.703125 52.203125 31.203125 
z
" id="DejaVuSans-97"/>
      <path d="M 9.421875 54.6875 
L 18.40625 54.6875 
L 18.40625 0 
L 9.421875 0 
z
M 9.421875 75.984375 
L 18.40625 75.984375 
L 18.40625 64.59375 
L 9.421875 64.59375 
z
" id="DejaVuSans-105"/>
      <path d="M 9.421875 75.984375 
L 18.40625 75.984375 
L 18.40625 0 
L 9.421875 0 
z
" id="DejaVuSans-108"/>
      <path d="M 32.171875 -5.078125 
Q 28.375 -14.84375 24.75 -17.8125 
Q 21.140625 -20.796875 15.09375 -20.796875 
L 7.90625 -20.796875 
L 7.90625 -13.28125 
L 13.1875 -13.28125 
Q 16.890625 -13.28125 18.9375 -11.515625 
Q 21 -9.765625 23.484375 -3.21875 
L 25.09375 0.875 
L 2.984375 54.6875 
L 12.5 54.6875 
L 29.59375 11.921875 
L 46.6875 54.6875 
L 56.203125 54.6875 
z
" id="DejaVuSans-121"/>
      <path id="DejaVuSans-32"/>
      <path d="M 48.78125 52.59375 
L 48.78125 44.1875 
Q 44.96875 46.296875 41.140625 47.34375 
Q 37.3125 48.390625 33.40625 48.390625 
Q 24.65625 48.390625 19.8125 42.84375 
Q 14.984375 37.3125 14.984375 27.296875 
Q 14.984375 17.28125 19.8125 11.734375 
Q 24.65625 6.203125 33.40625 6.203125 
Q 37.3125 6.203125 41.140625 7.25 
Q 44.96875 8.296875 48.78125 10.40625 
L 48.78125 2.09375 
Q 45.015625 0.34375 40.984375 -0.53125 
Q 36.96875 -1.421875 32.421875 -1.421875 
Q 20.0625 -1.421875 12.78125 6.34375 
Q 5.515625 14.109375 5.515625 27.296875 
Q 5.515625 40.671875 12.859375 48.328125 
Q 20.21875 56 33.015625 56 
Q 37.15625 56 41.109375 55.140625 
Q 45.0625 54.296875 48.78125 52.59375 
z
" id="DejaVuSans-99"/>
      <path d="M 54.890625 33.015625 
L 54.890625 0 
L 45.90625 0 
L 45.90625 32.71875 
Q 45.90625 40.484375 42.875 44.328125 
Q 39.84375 48.1875 33.796875 48.1875 
Q 26.515625 48.1875 22.3125 43.546875 
Q 18.109375 38.921875 18.109375 30.90625 
L 18.109375 0 
L 9.078125 0 
L 9.078125 75.984375 
L 18.109375 75.984375 
L 18.109375 46.1875 
Q 21.34375 51.125 25.703125 53.5625 
Q 30.078125 56 35.796875 56 
Q 45.21875 56 50.046875 50.171875 
Q 54.890625 44.34375 54.890625 33.015625 
z
" id="DejaVuSans-104"/>
      <path d="M 54.890625 33.015625 
L 54.890625 0 
L 45.90625 0 
L 45.90625 32.71875 
Q 45.90625 40.484375 42.875 44.328125 
Q 39.84375 48.1875 33.796875 48.1875 
Q 26.515625 48.1875 22.3125 43.546875 
Q 18.109375 38.921875 18.109375 30.90625 
L 18.109375 0 
L 9.078125 0 
L 9.078125 54.6875 
L 18.109375 54.6875 
L 18.109375 46.1875 
Q 21.34375 51.125 25.703125 53.5625 
Q 30.078125 56 35.796875 56 
Q 45.21875 56 50.046875 50.171875 
Q 54.890625 44.34375 54.890625 33.015625 
z
" id="DejaVuSans-110"/>
      <path d="M 45.40625 27.984375 
Q 45.40625 37.75 41.375 43.109375 
Q 37.359375 48.484375 30.078125 48.484375 
Q 22.859375 48.484375 18.828125 43.109375 
Q 14.796875 37.75 14.796875 27.984375 
Q 14.796875 18.265625 18.828125 12.890625 
Q 22.859375 7.515625 30.078125 7.515625 
Q 37.359375 7.515625 41.375 12.890625 
Q 45.40625 18.265625 45.40625 27.984375 
z
M 54.390625 6.78125 
Q 54.390625 -7.171875 48.1875 -13.984375 
Q 42 -20.796875 29.203125 -20.796875 
Q 24.46875 -20.796875 20.265625 -20.09375 
Q 16.0625 -19.390625 12.109375 -17.921875 
L 12.109375 -9.1875 
Q 16.0625 -11.328125 19.921875 -12.34375 
Q 23.78125 -13.375 27.78125 -13.375 
Q 36.625 -13.375 41.015625 -8.765625 
Q 45.40625 -4.15625 45.40625 5.171875 
L 45.40625 9.625 
Q 42.625 4.78125 38.28125 2.390625 
Q 33.9375 0 27.875 0 
Q 17.828125 0 11.671875 7.65625 
Q 5.515625 15.328125 5.515625 27.984375 
Q 5.515625 40.671875 11.671875 48.328125 
Q 17.828125 56 27.875 56 
Q 33.9375 56 38.28125 53.609375 
Q 42.625 51.21875 45.40625 46.390625 
L 45.40625 54.6875 
L 54.390625 54.6875 
z
" id="DejaVuSans-103"/>
      <path d="M 56.203125 29.59375 
L 56.203125 25.203125 
L 14.890625 25.203125 
Q 15.484375 15.921875 20.484375 11.0625 
Q 25.484375 6.203125 34.421875 6.203125 
Q 39.59375 6.203125 44.453125 7.46875 
Q 49.3125 8.734375 54.109375 11.28125 
L 54.109375 2.78125 
Q 49.265625 0.734375 44.1875 -0.34375 
Q 39.109375 -1.421875 33.890625 -1.421875 
Q 20.796875 -1.421875 13.15625 6.1875 
Q 5.515625 13.8125 5.515625 26.8125 
Q 5.515625 40.234375 12.765625 48.109375 
Q 20.015625 56 32.328125 56 
Q 43.359375 56 49.78125 48.890625 
Q 56.203125 41.796875 56.203125 29.59375 
z
M 47.21875 32.234375 
Q 47.125 39.59375 43.09375 43.984375 
Q 39.0625 48.390625 32.421875 48.390625 
Q 24.90625 48.390625 20.390625 44.140625 
Q 15.875 39.890625 15.1875 32.171875 
z
" id="DejaVuSans-101"/>
     </defs>
     <g style="fill:#555555;" transform="translate(63.779375 127.909687)rotate(-90)scale(0.12 -0.12)">
      <use xlink:href="#DejaVuSans-100"/>
      <use x="63.476562" xlink:href="#DejaVuSans-97"/>
      <use x="124.755859" xlink:href="#DejaVuSans-105"/>
      <use x="152.539062" xlink:href="#DejaVuSans-108"/>
      <use x="180.322266" xlink:href="#DejaVuSans-121"/>
      <use x="239.501953" xlink:href="#DejaVuSans-32"/>
      <use x="271.289062" xlink:href="#DejaVuSans-99"/>
      <use x="326.269531" xlink:href="#DejaVuSans-104"/>
      <use x="389.648438" xlink:href="#DejaVuSans-97"/>
      <use x="450.927734" xlink:href="#DejaVuSans-110"/>
      <use x="514.306641" xlink:href="#DejaVuSans-103"/>
      <use x="577.783203" xlink:href="#DejaVuSans-101"/>
     </g>
    </g>
   </g>
   <g id="patch_3">
    <path clip-path="url(#p1fa7af2260)" d="M 116.503575 157.5 
L 118.023493 157.5 
L 118.023493 157.5 
L 116.503575 157.5 
z
" style="fill:#e24a33;opacity:0.2;"/>
   </g>
   <g id="patch_4">
    <path clip-path="url(#p1fa7af2260)" d="M 118.403473 157.5 
L 119.923391 157.5 
L 119.923391 157.5 
L 118.403473 157.5 
z
" style="fill:#e24a33;opacity:0.2;"/>
   </g>
   <g id="patch_5">
    <path clip-path="url(#p1fa7af2260)" d="M 120.303371 157.5 
L 121.823289 157.5 
L 121.823289 157.5 
L 120.303371 157.5 
z
" style="fill:#e24a33;opacity:0.2;"/>
   </g>
   <g id="patch_6">
    <path clip-path="url(#p1fa7af2260)" d="M 122.203269 157.5 
L 123.723187 157.5 
L 123.723187 157.5 
L 122.203269 157.5 
z
" style="fill:#e24a33;opacity:0.2;"/>
   </g>
   <g id="patch_7">
    <path clip-path="url(#p1fa7af2260)" d="M 124.103166 157.5 
L 125.623085 157.5 
L 125.623085 157.5 
L 124.103166 157.5 
z
" style="fill:#e24a33;opacity:0.2;"/>
   </g>
   <g id="patch_8">
    <path clip-path="url(#p1fa7af2260)" d="M 126.003064 157.5 
L 127.522983 157.5 
L 127.522983 157.5 
L 126.003064 157.5 
z
" style="fill:#e24a33;opacity:0.2;"/>
   </g>
   <g id="patch_9">
    <path clip-path="url(#p1fa7af2260)" d="M 127.902962 157.5 
L 129.42288 157.5 
L 129.42288 157.5 
L 127.902962 157.5 
z
" style="fill:#e24a33;opacity:0.2;"/>
   </g>
   <g id="patch_10">
    <path clip-path="url(#p1fa7af2260)" d="M 129.80286 157.5 
L 131.322778 157.5 
L 131.322778 157.5 
L 129.80286 157.5 
z
" style="fill:#e24a33;opacity:0.2;"/>
   </g>
   <g id="patch_11">
    <path clip-path="url(#p1fa7af2260)" d="M 131.702758 157.5 
L 133.222676 157.5 
L 133.222676 157.5 
L 131.702758 157.5 
z
" style="fill:#e24a33;opacity:0.2;"/>
   </g>
   <g id="patch_12">
    <path clip-path="url(#p1fa7af2260)" d="M 133.602656 157.5 
L 135.122574 157.5 
L 135.122574 157.5 
L 133.602656 157.5 
z
" style="fill:#e24a33;opacity:0.2;"/>
   </g>
   <g id="patch_13">
    <path clip-path="url(#p1fa7af2260)" d="M 135.502554 157.5 
L 137.022472 157.5 
L 137.022472 157.5 
L 135.502554 157.5 
z
" style="fill:#e24a33;opacity:0.2;"/>
   </g>
   <g id="patch_14">
    <path clip-path="url(#p1fa7af2260)" d="M 137.402451 157.5 
L 138.92237 157.5 
L 138.92237 157.5 
L 137.402451 157.5 
z
" style="fill:#e24a33;opacity:0.2;"/>
   </g>
   <g id="patch_15">
    <path clip-path="url(#p1fa7af2260)" d="M 139.302349 157.5 
L 140.822268 157.5 
L 140.822268 157.5 
L 139.302349 157.5 
z
" style="fill:#e24a33;opacity:0.2;"/>
   </g>
   <g id="patch_16">
    <path clip-path="url(#p1fa7af2260)" d="M 141.202247 157.5 
L 142.722165 157.5 
L 142.722165 157.5 
L 141.202247 157.5 
z
" style="fill:#e24a33;opacity:0.2;"/>
   </g>
   <g id="patch_17">
    <path clip-path="url(#p1fa7af2260)" d="M 143.102145 157.5 
L 144.622063 157.5 
L 144.622063 157.5 
L 143.102145 157.5 
z
" style="fill:#e24a33;opacity:0.2;"/>
   </g>
   <g id="patch_18">
    <path clip-path="url(#p1fa7af2260)" d="M 145.002043 157.5 
L 146.521961 157.5 
L 146.521961 157.5 
L 145.002043 157.5 
z
" style="fill:#e24a33;opacity:0.2;"/>
   </g>
   <g id="patch_19">
    <path clip-path="url(#p1fa7af2260)" d="M 146.901941 157.5 
L 148.421859 157.5 
L 148.421859 157.5 
L 146.901941 157.5 
z
" style="fill:#e24a33;opacity:0.2;"/>
   </g>
   <g id="patch_20">
    <path clip-path="url(#p1fa7af2260)" d="M 148.801839 157.5 
L 150.321757 157.5 
L 150.321757 157.5 
L 148.801839 157.5 
z
" style="fill:#e24a33;opacity:0.2;"/>
   </g>
   <g id="patch_21">
    <path clip-path="url(#p1fa7af2260)" d="M 150.701736 157.5 
L 152.221655 157.5 
L 152.221655 157.5 
L 150.701736 157.5 
z
" style="fill:#e24a33;opacity:0.2;"/>
   </g>
   <g id="patch_22">
    <path clip-path="url(#p1fa7af2260)" d="M 152.601634 157.5 
L 154.121553 157.5 
L 154.121553 157.5 
L 152.601634 157.5 
z
" style="fill:#e24a33;opacity:0.2;"/>
   </g>
   <g id="patch_23">
    <path clip-path="url(#p1fa7af2260)" d="M 154.501532 157.5 
L 156.02145 157.5 
L 156.02145 157.5 
L 154.501532 157.5 
z
" style="fill:#e24a33;opacity:0.2;"/>
   </g>
   <g id="patch_24">
    <path clip-path="url(#p1fa7af2260)" d="M 156.40143 157.5 
L 157.921348 157.5 
L 157.921348 157.5 
L 156.40143 157.5 
z
" style="fill:#e24a33;opacity:0.2;"/>
   </g>
   <g id="patch_25">
    <path clip-path="url(#p1fa7af2260)" d="M 158.301328 157.5 
L 159.821246 157.5 
L 159.821246 157.5 
L 158.301328 157.5 
z
" style="fill:#e24a33;opacity:0.2;"/>
   </g>
   <g id="patch_26">
    <path clip-path="url(#p1fa7af2260)" d="M 160.201226 157.5 
L 161.721144 157.5 
L 161.721144 157.5 
L 160.201226 157.5 
z
" style="fill:#e24a33;opacity:0.2;"/>
   </g>
   <g id="patch_27">
    <path clip-path="url(#p1fa7af2260)" d="M 162.101124 157.5 
L 163.621042 157.5 
L 163.621042 157.5 
L 162.101124 157.5 
z
" style="fill:#e24a33;opacity:0.2;"/>
   </g>
   <g id="patch_28">
    <path clip-path="url(#p1fa7af2260)" d="M 164.001021 157.5 
L 165.52094 157.5 
L 165.52094 157.5 
L 164.001021 157.5 
z
" style="fill:#e24a33;opacity:0.2;"/>
   </g>
   <g id="patch_29">
    <path clip-path="url(#p1fa7af2260)" d="M 165.900919 157.5 
L 167.420838 157.5 
L 167.420838 157.5 
L 165.900919 157.5 
z
" style="fill:#e24a33;opacity:0.2;"/>
   </g>
   <g id="patch_30">
    <path clip-path="url(#p1fa7af2260)" d="M 167.800817 157.5 
L 169.320735 157.5 
L 169.320735 157.5 
L 167.800817 157.5 
z
" style="fill:#e24a33;opacity:0.2;"/>
   </g>
   <g id="patch_31">
    <path clip-path="url(#p1fa7af2260)" d="M 169.700715 157.5 
L 171.220633 157.5 
L 171.220633 145.733766 
L 169.700715 145.733766 
z
" style="fill:#e24a33;opacity:0.2;"/>
   </g>
   <g id="patch_32">
    <path clip-path="url(#p1fa7af2260)" d="M 171.600613 157.5 
L 173.120531 157.5 
L 173.120531 145.733766 
L 171.600613 145.733766 
z
" style="fill:#e24a33;opacity:0.2;"/>
   </g>
   <g id="patch_33">
    <path clip-path="url(#p1fa7af2260)" d="M 173.500511 157.5 
L 175.020429 157.5 
L 175.020429 157.5 
L 173.500511 157.5 
z
" style="fill:#e24a33;opacity:0.2;"/>
   </g>
   <g id="patch_34">
    <path clip-path="url(#p1fa7af2260)" d="M 175.400409 157.5 
L 176.920327 157.5 
L 176.920327 110.435065 
L 175.400409 110.435065 
z
" style="fill:#e24a33;opacity:0.2;"/>
   </g>
   <g id="patch_35">
    <path clip-path="url(#p1fa7af2260)" d="M 177.300306 157.5 
L 178.820225 157.5 
L 178.820225 133.967532 
L 177.300306 133.967532 
z
" style="fill:#e24a33;opacity:0.2;"/>
   </g>
   <g id="patch_36">
    <path clip-path="url(#p1fa7af2260)" d="M 179.200204 157.5 
L 180.720123 157.5 
L 180.720123 133.967532 
L 179.200204 133.967532 
z
" style="fill:#e24a33;opacity:0.2;"/>
   </g>
   <g id="patch_37">
    <path clip-path="url(#p1fa7af2260)" d="M 181.100102 157.5 
L 182.62002 157.5 
L 182.62002 133.967532 
L 181.100102 133.967532 
z
" style="fill:#e24a33;opacity:0.2;"/>
   </g>
   <g id="patch_38">
    <path clip-path="url(#p1fa7af2260)" d="M 183 157.5 
L 184.519918 157.5 
L 184.519918 145.733766 
L 183 145.733766 
z
" style="fill:#e24a33;opacity:0.2;"/>
   </g>
   <g id="patch_39">
    <path clip-path="url(#p1fa7af2260)" d="M 184.899898 157.5 
L 186.419816 157.5 
L 186.419816 157.5 
L 184.899898 157.5 
z
" style="fill:#e24a33;opacity:0.2;"/>
   </g>
   <g id="patch_40">
    <path clip-path="url(#p1fa7af2260)" d="M 186.799796 157.5 
L 188.319714 157.5 
L 188.319714 122.201299 
L 186.799796 122.201299 
z
" style="fill:#e24a33;opacity:0.2;"/>
   </g>
   <g id="patch_41">
    <path clip-path="url(#p1fa7af2260)" d="M 188.699694 157.5 
L 190.219612 157.5 
L 190.219612 145.733766 
L 188.699694 145.733766 
z
" style="fill:#e24a33;opacity:0.2;"/>
   </g>
   <g id="patch_42">
    <path clip-path="url(#p1fa7af2260)" d="M 190.599591 157.5 
L 192.11951 157.5 
L 192.11951 28.071429 
L 190.599591 28.071429 
z
" style="fill:#e24a33;opacity:0.2;"/>
   </g>
   <g id="patch_43">
    <path clip-path="url(#p1fa7af2260)" d="M 192.499489 157.5 
L 194.019408 157.5 
L 194.019408 157.5 
L 192.499489 157.5 
z
" style="fill:#e24a33;opacity:0.2;"/>
   </g>
   <g id="patch_44">
    <path clip-path="url(#p1fa7af2260)" d="M 194.399387 157.5 
L 195.919305 157.5 
L 195.919305 75.136364 
L 194.399387 75.136364 
z
" style="fill:#e24a33;opacity:0.2;"/>
   </g>
   <g id="patch_45">
    <path clip-path="url(#p1fa7af2260)" d="M 196.299285 157.5 
L 197.819203 157.5 
L 197.819203 157.5 
L 196.299285 157.5 
z
" style="fill:#e24a33;opacity:0.2;"/>
   </g>
   <g id="patch_46">
    <path clip-path="url(#p1fa7af2260)" d="M 198.199183 157.5 
L 199.719101 157.5 
L 199.719101 75.136364 
L 198.199183 75.136364 
z
" style="fill:#e24a33;opacity:0.2;"/>
   </g>
   <g id="patch_47">
    <path clip-path="url(#p1fa7af2260)" d="M 200.099081 157.5 
L 201.618999 157.5 
L 201.618999 133.967532 
L 200.099081 133.967532 
z
" style="fill:#e24a33;opacity:0.2;"/>
   </g>
   <g id="patch_48">
    <path clip-path="url(#p1fa7af2260)" d="M 201.998979 157.5 
L 203.518897 157.5 
L 203.518897 86.902597 
L 201.998979 86.902597 
z
" style="fill:#e24a33;opacity:0.2;"/>
   </g>
   <g id="patch_49">
    <path clip-path="url(#p1fa7af2260)" d="M 203.898876 157.5 
L 205.418795 157.5 
L 205.418795 122.201299 
L 203.898876 122.201299 
z
" style="fill:#e24a33;opacity:0.2;"/>
   </g>
   <g id="patch_50">
    <path clip-path="url(#p1fa7af2260)" d="M 205.798774 157.5 
L 207.318693 157.5 
L 207.318693 145.733766 
L 205.798774 145.733766 
z
" style="fill:#e24a33;opacity:0.2;"/>
   </g>
   <g id="patch_51">
    <path clip-path="url(#p1fa7af2260)" d="M 207.698672 157.5 
L 209.21859 157.5 
L 209.21859 86.902597 
L 207.698672 86.902597 
z
" style="fill:#e24a33;opacity:0.2;"/>
   </g>
   <g id="patch_52">
    <path clip-path="url(#p1fa7af2260)" d="M 209.59857 157.5 
L 211.118488 157.5 
L 211.118488 86.902597 
L 209.59857 86.902597 
z
" style="fill:#e24a33;opacity:0.2;"/>
   </g>
   <g id="patch_53">
    <path clip-path="url(#p1fa7af2260)" d="M 211.498468 157.5 
L 213.018386 157.5 
L 213.018386 157.5 
L 211.498468 157.5 
z
" style="fill:#e24a33;opacity:0.2;"/>
   </g>
   <g id="patch_54">
    <path clip-path="url(#p1fa7af2260)" d="M 213.398366 157.5 
L 214.918284 157.5 
L 214.918284 86.902597 
L 213.398366 86.902597 
z
" style="fill:#e24a33;opacity:0.2;"/>
   </g>
   <g id="patch_55">
    <path clip-path="url(#p1fa7af2260)" d="M 215.298264 157.5 
L 216.818182 157.5 
L 216.818182 122.201299 
L 215.298264 122.201299 
z
" style="fill:#e24a33;opacity:0.2;"/>
   </g>
   <g id="patch_56">
    <path clip-path="url(#p1fa7af2260)" d="M 217.198161 157.5 
L 218.71808 157.5 
L 218.71808 157.5 
L 217.198161 157.5 
z
" style="fill:#e24a33;opacity:0.2;"/>
   </g>
   <g id="patch_57">
    <path clip-path="url(#p1fa7af2260)" d="M 219.098059 157.5 
L 220.617978 157.5 
L 220.617978 86.902597 
L 219.098059 86.902597 
z
" style="fill:#e24a33;opacity:0.2;"/>
   </g>
   <g id="patch_58">
    <path clip-path="url(#p1fa7af2260)" d="M 220.997957 157.5 
L 222.517875 157.5 
L 222.517875 122.201299 
L 220.997957 122.201299 
z
" style="fill:#e24a33;opacity:0.2;"/>
   </g>
   <g id="patch_59">
    <path clip-path="url(#p1fa7af2260)" d="M 222.897855 157.5 
L 224.417773 157.5 
L 224.417773 75.136364 
L 222.897855 75.136364 
z
" style="fill:#e24a33;opacity:0.2;"/>
   </g>
   <g id="patch_60">
    <path clip-path="url(#p1fa7af2260)" d="M 224.797753 157.5 
L 226.317671 157.5 
L 226.317671 122.201299 
L 224.797753 122.201299 
z
" style="fill:#e24a33;opacity:0.2;"/>
   </g>
   <g id="patch_61">
    <path clip-path="url(#p1fa7af2260)" d="M 226.697651 157.5 
L 228.217569 157.5 
L 228.217569 63.37013 
L 226.697651 63.37013 
z
" style="fill:#e24a33;opacity:0.2;"/>
   </g>
   <g id="patch_62">
    <path clip-path="url(#p1fa7af2260)" d="M 228.597549 157.5 
L 230.117467 157.5 
L 230.117467 51.603896 
L 228.597549 51.603896 
z
" style="fill:#e24a33;opacity:0.2;"/>
   </g>
   <g id="patch_63">
    <path clip-path="url(#p1fa7af2260)" d="M 230.497446 157.5 
L 232.017365 157.5 
L 232.017365 157.5 
L 230.497446 157.5 
z
" style="fill:#e24a33;opacity:0.2;"/>
   </g>
   <g id="patch_64">
    <path clip-path="url(#p1fa7af2260)" d="M 232.397344 157.5 
L 233.917263 157.5 
L 233.917263 51.603896 
L 232.397344 51.603896 
z
" style="fill:#e24a33;opacity:0.2;"/>
   </g>
   <g id="patch_65">
    <path clip-path="url(#p1fa7af2260)" d="M 234.297242 157.5 
L 235.81716 157.5 
L 235.81716 86.902597 
L 234.297242 86.902597 
z
" style="fill:#e24a33;opacity:0.2;"/>
   </g>
   <g id="patch_66">
    <path clip-path="url(#p1fa7af2260)" d="M 236.19714 157.5 
L 237.717058 157.5 
L 237.717058 98.668831 
L 236.19714 98.668831 
z
" style="fill:#e24a33;opacity:0.2;"/>
   </g>
   <g id="patch_67">
    <path clip-path="url(#p1fa7af2260)" d="M 238.097038 157.5 
L 239.616956 157.5 
L 239.616956 63.37013 
L 238.097038 63.37013 
z
" style="fill:#e24a33;opacity:0.2;"/>
   </g>
   <g id="patch_68">
    <path clip-path="url(#p1fa7af2260)" d="M 239.996936 157.5 
L 241.516854 157.5 
L 241.516854 98.668831 
L 239.996936 98.668831 
z
" style="fill:#e24a33;opacity:0.2;"/>
   </g>
   <g id="patch_69">
    <path clip-path="url(#p1fa7af2260)" d="M 241.896834 157.5 
L 243.416752 157.5 
L 243.416752 63.37013 
L 241.896834 63.37013 
z
" style="fill:#e24a33;opacity:0.2;"/>
   </g>
   <g id="patch_70">
    <path clip-path="url(#p1fa7af2260)" d="M 243.796731 157.5 
L 245.31665 157.5 
L 245.31665 86.902597 
L 243.796731 86.902597 
z
" style="fill:#e24a33;opacity:0.2;"/>
   </g>
   <g id="patch_71">
    <path clip-path="url(#p1fa7af2260)" d="M 245.696629 157.5 
L 247.216547 157.5 
L 247.216547 110.435065 
L 245.696629 110.435065 
z
" style="fill:#e24a33;opacity:0.2;"/>
   </g>
   <g id="patch_72">
    <path clip-path="url(#p1fa7af2260)" d="M 247.596527 157.5 
L 249.116445 157.5 
L 249.116445 122.201299 
L 247.596527 122.201299 
z
" style="fill:#e24a33;opacity:0.2;"/>
   </g>
   <g id="patch_73">
    <path clip-path="url(#p1fa7af2260)" d="M 249.496425 157.5 
L 251.016343 157.5 
L 251.016343 110.435065 
L 249.496425 110.435065 
z
" style="fill:#e24a33;opacity:0.2;"/>
   </g>
   <g id="patch_74">
    <path clip-path="url(#p1fa7af2260)" d="M 251.396323 157.5 
L 252.916241 157.5 
L 252.916241 98.668831 
L 251.396323 98.668831 
z
" style="fill:#e24a33;opacity:0.2;"/>
   </g>
   <g id="patch_75">
    <path clip-path="url(#p1fa7af2260)" d="M 253.296221 157.5 
L 254.816139 157.5 
L 254.816139 122.201299 
L 253.296221 122.201299 
z
" style="fill:#e24a33;opacity:0.2;"/>
   </g>
   <g id="patch_76">
    <path clip-path="url(#p1fa7af2260)" d="M 255.196118 157.5 
L 256.716037 157.5 
L 256.716037 86.902597 
L 255.196118 86.902597 
z
" style="fill:#e24a33;opacity:0.2;"/>
   </g>
   <g id="patch_77">
    <path clip-path="url(#p1fa7af2260)" d="M 257.096016 157.5 
L 258.615935 157.5 
L 258.615935 122.201299 
L 257.096016 122.201299 
z
" style="fill:#e24a33;opacity:0.2;"/>
   </g>
   <g id="patch_78">
    <path clip-path="url(#p1fa7af2260)" d="M 258.995914 157.5 
L 260.515832 157.5 
L 260.515832 86.902597 
L 258.995914 86.902597 
z
" style="fill:#e24a33;opacity:0.2;"/>
   </g>
   <g id="patch_79">
    <path clip-path="url(#p1fa7af2260)" d="M 260.895812 157.5 
L 262.41573 157.5 
L 262.41573 63.37013 
L 260.895812 63.37013 
z
" style="fill:#e24a33;opacity:0.2;"/>
   </g>
   <g id="patch_80">
    <path clip-path="url(#p1fa7af2260)" d="M 262.79571 157.5 
L 264.315628 157.5 
L 264.315628 110.435065 
L 262.79571 110.435065 
z
" style="fill:#e24a33;opacity:0.2;"/>
   </g>
   <g id="patch_81">
    <path clip-path="url(#p1fa7af2260)" d="M 264.695608 157.5 
L 266.215526 157.5 
L 266.215526 110.435065 
L 264.695608 110.435065 
z
" style="fill:#e24a33;opacity:0.2;"/>
   </g>
   <g id="patch_82">
    <path clip-path="url(#p1fa7af2260)" d="M 266.595506 157.5 
L 268.115424 157.5 
L 268.115424 122.201299 
L 266.595506 122.201299 
z
" style="fill:#e24a33;opacity:0.2;"/>
   </g>
   <g id="patch_83">
    <path clip-path="url(#p1fa7af2260)" d="M 268.495403 157.5 
L 270.015322 157.5 
L 270.015322 122.201299 
L 268.495403 122.201299 
z
" style="fill:#e24a33;opacity:0.2;"/>
   </g>
   <g id="patch_84">
    <path clip-path="url(#p1fa7af2260)" d="M 270.395301 157.5 
L 271.91522 157.5 
L 271.91522 122.201299 
L 270.395301 122.201299 
z
" style="fill:#e24a33;opacity:0.2;"/>
   </g>
   <g id="patch_85">
    <path clip-path="url(#p1fa7af2260)" d="M 272.295199 157.5 
L 273.815117 157.5 
L 273.815117 98.668831 
L 272.295199 98.668831 
z
" style="fill:#e24a33;opacity:0.2;"/>
   </g>
   <g id="patch_86">
    <path clip-path="url(#p1fa7af2260)" d="M 274.195097 157.5 
L 275.715015 157.5 
L 275.715015 122.201299 
L 274.195097 122.201299 
z
" style="fill:#e24a33;opacity:0.2;"/>
   </g>
   <g id="patch_87">
    <path clip-path="url(#p1fa7af2260)" d="M 276.094995 157.5 
L 277.614913 157.5 
L 277.614913 110.435065 
L 276.094995 110.435065 
z
" style="fill:#e24a33;opacity:0.2;"/>
   </g>
   <g id="patch_88">
    <path clip-path="url(#p1fa7af2260)" d="M 277.994893 157.5 
L 279.514811 157.5 
L 279.514811 145.733766 
L 277.994893 145.733766 
z
" style="fill:#e24a33;opacity:0.2;"/>
   </g>
   <g id="patch_89">
    <path clip-path="url(#p1fa7af2260)" d="M 279.894791 157.5 
L 281.414709 157.5 
L 281.414709 133.967532 
L 279.894791 133.967532 
z
" style="fill:#e24a33;opacity:0.2;"/>
   </g>
   <g id="patch_90">
    <path clip-path="url(#p1fa7af2260)" d="M 281.794688 157.5 
L 283.314607 157.5 
L 283.314607 133.967532 
L 281.794688 133.967532 
z
" style="fill:#e24a33;opacity:0.2;"/>
   </g>
   <g id="patch_91">
    <path clip-path="url(#p1fa7af2260)" d="M 283.694586 157.5 
L 285.214505 157.5 
L 285.214505 133.967532 
L 283.694586 133.967532 
z
" style="fill:#e24a33;opacity:0.2;"/>
   </g>
   <g id="patch_92">
    <path clip-path="url(#p1fa7af2260)" d="M 285.594484 157.5 
L 287.114402 157.5 
L 287.114402 145.733766 
L 285.594484 145.733766 
z
" style="fill:#e24a33;opacity:0.2;"/>
   </g>
   <g id="patch_93">
    <path clip-path="url(#p1fa7af2260)" d="M 287.494382 157.5 
L 289.0143 157.5 
L 289.0143 145.733766 
L 287.494382 145.733766 
z
" style="fill:#e24a33;opacity:0.2;"/>
   </g>
   <g id="patch_94">
    <path clip-path="url(#p1fa7af2260)" d="M 289.39428 157.5 
L 290.914198 157.5 
L 290.914198 133.967532 
L 289.39428 133.967532 
z
" style="fill:#e24a33;opacity:0.2;"/>
   </g>
   <g id="patch_95">
    <path clip-path="url(#p1fa7af2260)" d="M 291.294178 157.5 
L 292.814096 157.5 
L 292.814096 157.5 
L 291.294178 157.5 
z
" style="fill:#e24a33;opacity:0.2;"/>
   </g>
   <g id="patch_96">
    <path clip-path="url(#p1fa7af2260)" d="M 293.194076 157.5 
L 294.713994 157.5 
L 294.713994 133.967532 
L 293.194076 133.967532 
z
" style="fill:#e24a33;opacity:0.2;"/>
   </g>
   <g id="patch_97">
    <path clip-path="url(#p1fa7af2260)" d="M 295.093973 157.5 
L 296.613892 157.5 
L 296.613892 145.733766 
L 295.093973 145.733766 
z
" style="fill:#e24a33;opacity:0.2;"/>
   </g>
   <g id="patch_98">
    <path clip-path="url(#p1fa7af2260)" d="M 296.993871 157.5 
L 298.51379 157.5 
L 298.51379 145.733766 
L 296.993871 145.733766 
z
" style="fill:#e24a33;opacity:0.2;"/>
   </g>
   <g id="patch_99">
    <path clip-path="url(#p1fa7af2260)" d="M 298.893769 157.5 
L 300.413687 157.5 
L 300.413687 133.967532 
L 298.893769 133.967532 
z
" style="fill:#e24a33;opacity:0.2;"/>
   </g>
   <g id="patch_100">
    <path clip-path="url(#p1fa7af2260)" d="M 300.793667 157.5 
L 302.313585 157.5 
L 302.313585 145.733766 
L 300.793667 145.733766 
z
" style="fill:#e24a33;opacity:0.2;"/>
   </g>
   <g id="patch_101">
    <path clip-path="url(#p1fa7af2260)" d="M 302.693565 157.5 
L 304.213483 157.5 
L 304.213483 145.733766 
L 302.693565 145.733766 
z
" style="fill:#e24a33;opacity:0.2;"/>
   </g>
   <g id="patch_102">
    <path clip-path="url(#p1fa7af2260)" d="M 304.593463 157.5 
L 306.113381 157.5 
L 306.113381 133.967532 
L 304.593463 133.967532 
z
" style="fill:#e24a33;opacity:0.2;"/>
   </g>
   <g id="patch_103">
    <path clip-path="url(#p1fa7af2260)" d="M 306.493361 157.5 
L 308.013279 157.5 
L 308.013279 157.5 
L 306.493361 157.5 
z
" style="fill:#e24a33;opacity:0.2;"/>
   </g>
   <g id="patch_104">
    <path clip-path="url(#p1fa7af2260)" d="M 308.393258 157.5 
L 309.913177 157.5 
L 309.913177 133.967532 
L 308.393258 133.967532 
z
" style="fill:#e24a33;opacity:0.2;"/>
   </g>
   <g id="patch_105">
    <path clip-path="url(#p1fa7af2260)" d="M 310.293156 157.5 
L 311.813075 157.5 
L 311.813075 133.967532 
L 310.293156 133.967532 
z
" style="fill:#e24a33;opacity:0.2;"/>
   </g>
   <g id="patch_106">
    <path clip-path="url(#p1fa7af2260)" d="M 312.193054 157.5 
L 313.712972 157.5 
L 313.712972 145.733766 
L 312.193054 145.733766 
z
" style="fill:#e24a33;opacity:0.2;"/>
   </g>
   <g id="patch_107">
    <path clip-path="url(#p1fa7af2260)" d="M 314.092952 157.5 
L 315.61287 157.5 
L 315.61287 145.733766 
L 314.092952 145.733766 
z
" style="fill:#e24a33;opacity:0.2;"/>
   </g>
   <g id="patch_108">
    <path clip-path="url(#p1fa7af2260)" d="M 315.99285 157.5 
L 317.512768 157.5 
L 317.512768 157.5 
L 315.99285 157.5 
z
" style="fill:#e24a33;opacity:0.2;"/>
   </g>
   <g id="patch_109">
    <path clip-path="url(#p1fa7af2260)" d="M 317.892748 157.5 
L 319.412666 157.5 
L 319.412666 157.5 
L 317.892748 157.5 
z
" style="fill:#e24a33;opacity:0.2;"/>
   </g>
   <g id="patch_110">
    <path clip-path="url(#p1fa7af2260)" d="M 319.792646 157.5 
L 321.312564 157.5 
L 321.312564 157.5 
L 319.792646 157.5 
z
" style="fill:#e24a33;opacity:0.2;"/>
   </g>
   <g id="patch_111">
    <path clip-path="url(#p1fa7af2260)" d="M 321.692543 157.5 
L 323.212462 157.5 
L 323.212462 157.5 
L 321.692543 157.5 
z
" style="fill:#e24a33;opacity:0.2;"/>
   </g>
   <g id="patch_112">
    <path clip-path="url(#p1fa7af2260)" d="M 323.592441 157.5 
L 325.11236 157.5 
L 325.11236 133.967532 
L 323.592441 133.967532 
z
" style="fill:#e24a33;opacity:0.2;"/>
   </g>
   <g id="patch_113">
    <path clip-path="url(#p1fa7af2260)" d="M 325.492339 157.5 
L 327.012257 157.5 
L 327.012257 145.733766 
L 325.492339 145.733766 
z
" style="fill:#e24a33;opacity:0.2;"/>
   </g>
   <g id="patch_114">
    <path clip-path="url(#p1fa7af2260)" d="M 327.392237 157.5 
L 328.912155 157.5 
L 328.912155 145.733766 
L 327.392237 145.733766 
z
" style="fill:#e24a33;opacity:0.2;"/>
   </g>
   <g id="patch_115">
    <path clip-path="url(#p1fa7af2260)" d="M 329.292135 157.5 
L 330.812053 157.5 
L 330.812053 157.5 
L 329.292135 157.5 
z
" style="fill:#e24a33;opacity:0.2;"/>
   </g>
   <g id="patch_116">
    <path clip-path="url(#p1fa7af2260)" d="M 331.192033 157.5 
L 332.711951 157.5 
L 332.711951 133.967532 
L 331.192033 133.967532 
z
" style="fill:#e24a33;opacity:0.2;"/>
   </g>
   <g id="patch_117">
    <path clip-path="url(#p1fa7af2260)" d="M 333.091931 157.5 
L 334.611849 157.5 
L 334.611849 157.5 
L 333.091931 157.5 
z
" style="fill:#e24a33;opacity:0.2;"/>
   </g>
   <g id="patch_118">
    <path clip-path="url(#p1fa7af2260)" d="M 334.991828 157.5 
L 336.511747 157.5 
L 336.511747 145.733766 
L 334.991828 145.733766 
z
" style="fill:#e24a33;opacity:0.2;"/>
   </g>
   <g id="patch_119">
    <path clip-path="url(#p1fa7af2260)" d="M 336.891726 157.5 
L 338.411645 157.5 
L 338.411645 157.5 
L 336.891726 157.5 
z
" style="fill:#e24a33;opacity:0.2;"/>
   </g>
   <g id="patch_120">
    <path clip-path="url(#p1fa7af2260)" d="M 338.791624 157.5 
L 340.311542 157.5 
L 340.311542 157.5 
L 338.791624 157.5 
z
" style="fill:#e24a33;opacity:0.2;"/>
   </g>
   <g id="patch_121">
    <path clip-path="url(#p1fa7af2260)" d="M 340.691522 157.5 
L 342.21144 157.5 
L 342.21144 145.733766 
L 340.691522 145.733766 
z
" style="fill:#e24a33;opacity:0.2;"/>
   </g>
   <g id="patch_122">
    <path clip-path="url(#p1fa7af2260)" d="M 342.59142 157.5 
L 344.111338 157.5 
L 344.111338 157.5 
L 342.59142 157.5 
z
" style="fill:#e24a33;opacity:0.2;"/>
   </g>
   <g id="patch_123">
    <path clip-path="url(#p1fa7af2260)" d="M 344.491318 157.5 
L 346.011236 157.5 
L 346.011236 133.967532 
L 344.491318 133.967532 
z
" style="fill:#e24a33;opacity:0.2;"/>
   </g>
   <g id="patch_124">
    <path clip-path="url(#p1fa7af2260)" d="M 346.391216 157.5 
L 347.911134 157.5 
L 347.911134 157.5 
L 346.391216 157.5 
z
" style="fill:#e24a33;opacity:0.2;"/>
   </g>
   <g id="patch_125">
    <path clip-path="url(#p1fa7af2260)" d="M 348.291113 157.5 
L 349.811032 157.5 
L 349.811032 145.733766 
L 348.291113 145.733766 
z
" style="fill:#e24a33;opacity:0.2;"/>
   </g>
   <g id="patch_126">
    <path clip-path="url(#p1fa7af2260)" d="M 350.191011 157.5 
L 351.71093 157.5 
L 351.71093 133.967532 
L 350.191011 133.967532 
z
" style="fill:#e24a33;opacity:0.2;"/>
   </g>
   <g id="patch_127">
    <path clip-path="url(#p1fa7af2260)" d="M 352.090909 157.5 
L 353.610827 157.5 
L 353.610827 157.5 
L 352.090909 157.5 
z
" style="fill:#e24a33;opacity:0.2;"/>
   </g>
   <g id="patch_128">
    <path clip-path="url(#p1fa7af2260)" d="M 353.990807 157.5 
L 355.510725 157.5 
L 355.510725 157.5 
L 353.990807 157.5 
z
" style="fill:#e24a33;opacity:0.2;"/>
   </g>
   <g id="patch_129">
    <path clip-path="url(#p1fa7af2260)" d="M 355.890705 157.5 
L 357.410623 157.5 
L 357.410623 157.5 
L 355.890705 157.5 
z
" style="fill:#e24a33;opacity:0.2;"/>
   </g>
   <g id="patch_130">
    <path clip-path="url(#p1fa7af2260)" d="M 357.790603 157.5 
L 359.310521 157.5 
L 359.310521 157.5 
L 357.790603 157.5 
z
" style="fill:#e24a33;opacity:0.2;"/>
   </g>
   <g id="patch_131">
    <path clip-path="url(#p1fa7af2260)" d="M 359.690501 157.5 
L 361.210419 157.5 
L 361.210419 145.733766 
L 359.690501 145.733766 
z
" style="fill:#e24a33;opacity:0.2;"/>
   </g>
   <g id="patch_132">
    <path clip-path="url(#p1fa7af2260)" d="M 361.590398 157.5 
L 363.110317 157.5 
L 363.110317 145.733766 
L 361.590398 145.733766 
z
" style="fill:#e24a33;opacity:0.2;"/>
   </g>
   <g id="patch_133">
    <path clip-path="url(#p1fa7af2260)" d="M 363.490296 157.5 
L 365.010215 157.5 
L 365.010215 145.733766 
L 363.490296 145.733766 
z
" style="fill:#e24a33;opacity:0.2;"/>
   </g>
   <g id="patch_134">
    <path clip-path="url(#p1fa7af2260)" d="M 365.390194 157.5 
L 366.910112 157.5 
L 366.910112 145.733766 
L 365.390194 145.733766 
z
" style="fill:#e24a33;opacity:0.2;"/>
   </g>
   <g id="patch_135">
    <path clip-path="url(#p1fa7af2260)" d="M 367.290092 157.5 
L 368.81001 157.5 
L 368.81001 157.5 
L 367.290092 157.5 
z
" style="fill:#e24a33;opacity:0.2;"/>
   </g>
   <g id="patch_136">
    <path clip-path="url(#p1fa7af2260)" d="M 369.18999 157.5 
L 370.709908 157.5 
L 370.709908 157.5 
L 369.18999 157.5 
z
" style="fill:#e24a33;opacity:0.2;"/>
   </g>
   <g id="patch_137">
    <path clip-path="url(#p1fa7af2260)" d="M 371.089888 157.5 
L 372.609806 157.5 
L 372.609806 157.5 
L 371.089888 157.5 
z
" style="fill:#e24a33;opacity:0.2;"/>
   </g>
   <g id="patch_138">
    <path clip-path="url(#p1fa7af2260)" d="M 372.989785 157.5 
L 374.509704 157.5 
L 374.509704 157.5 
L 372.989785 157.5 
z
" style="fill:#e24a33;opacity:0.2;"/>
   </g>
   <g id="patch_139">
    <path clip-path="url(#p1fa7af2260)" d="M 374.889683 157.5 
L 376.409602 157.5 
L 376.409602 157.5 
L 374.889683 157.5 
z
" style="fill:#e24a33;opacity:0.2;"/>
   </g>
   <g id="patch_140">
    <path clip-path="url(#p1fa7af2260)" d="M 376.789581 157.5 
L 378.309499 157.5 
L 378.309499 145.733766 
L 376.789581 145.733766 
z
" style="fill:#e24a33;opacity:0.2;"/>
   </g>
   <g id="patch_141">
    <path clip-path="url(#p1fa7af2260)" d="M 378.689479 157.5 
L 380.209397 157.5 
L 380.209397 133.967532 
L 378.689479 133.967532 
z
" style="fill:#e24a33;opacity:0.2;"/>
   </g>
   <g id="patch_142">
    <path clip-path="url(#p1fa7af2260)" d="M 380.589377 157.5 
L 382.109295 157.5 
L 382.109295 157.5 
L 380.589377 157.5 
z
" style="fill:#e24a33;opacity:0.2;"/>
   </g>
   <g id="patch_143">
    <path clip-path="url(#p1fa7af2260)" d="M 382.489275 157.5 
L 384.009193 157.5 
L 384.009193 145.733766 
L 382.489275 145.733766 
z
" style="fill:#e24a33;opacity:0.2;"/>
   </g>
   <g id="patch_144">
    <path clip-path="url(#p1fa7af2260)" d="M 384.389173 157.5 
L 385.909091 157.5 
L 385.909091 157.5 
L 384.389173 157.5 
z
" style="fill:#e24a33;opacity:0.2;"/>
   </g>
   <g id="patch_145">
    <path clip-path="url(#p1fa7af2260)" d="M 386.28907 157.5 
L 387.808989 157.5 
L 387.808989 157.5 
L 386.28907 157.5 
z
" style="fill:#e24a33;opacity:0.2;"/>
   </g>
   <g id="patch_146">
    <path clip-path="url(#p1fa7af2260)" d="M 388.188968 157.5 
L 389.708887 157.5 
L 389.708887 157.5 
L 388.188968 157.5 
z
" style="fill:#e24a33;opacity:0.2;"/>
   </g>
   <g id="patch_147">
    <path clip-path="url(#p1fa7af2260)" d="M 390.088866 157.5 
L 391.608784 157.5 
L 391.608784 145.733766 
L 390.088866 145.733766 
z
" style="fill:#e24a33;opacity:0.2;"/>
   </g>
   <g id="patch_148">
    <path clip-path="url(#p1fa7af2260)" d="M 391.988764 157.5 
L 393.508682 157.5 
L 393.508682 145.733766 
L 391.988764 145.733766 
z
" style="fill:#e24a33;opacity:0.2;"/>
   </g>
   <g id="patch_149">
    <path clip-path="url(#p1fa7af2260)" d="M 393.888662 157.5 
L 395.40858 157.5 
L 395.40858 145.733766 
L 393.888662 145.733766 
z
" style="fill:#e24a33;opacity:0.2;"/>
   </g>
   <g id="patch_150">
    <path clip-path="url(#p1fa7af2260)" d="M 395.78856 157.5 
L 397.308478 157.5 
L 397.308478 157.5 
L 395.78856 157.5 
z
" style="fill:#e24a33;opacity:0.2;"/>
   </g>
   <g id="patch_151">
    <path clip-path="url(#p1fa7af2260)" d="M 397.688458 157.5 
L 399.208376 157.5 
L 399.208376 157.5 
L 397.688458 157.5 
z
" style="fill:#e24a33;opacity:0.2;"/>
   </g>
   <g id="patch_152">
    <path clip-path="url(#p1fa7af2260)" d="M 399.588355 157.5 
L 401.108274 157.5 
L 401.108274 157.5 
L 399.588355 157.5 
z
" style="fill:#e24a33;opacity:0.2;"/>
   </g>
   <g id="patch_153">
    <path clip-path="url(#p1fa7af2260)" d="M 401.488253 157.5 
L 403.008172 157.5 
L 403.008172 157.5 
L 401.488253 157.5 
z
" style="fill:#e24a33;opacity:0.2;"/>
   </g>
   <g id="patch_154">
    <path clip-path="url(#p1fa7af2260)" d="M 403.388151 157.5 
L 404.908069 157.5 
L 404.908069 145.733766 
L 403.388151 145.733766 
z
" style="fill:#e24a33;opacity:0.2;"/>
   </g>
   <g id="patch_155">
    <path clip-path="url(#p1fa7af2260)" d="M 405.288049 157.5 
L 406.807967 157.5 
L 406.807967 157.5 
L 405.288049 157.5 
z
" style="fill:#e24a33;opacity:0.2;"/>
   </g>
   <g id="patch_156">
    <path clip-path="url(#p1fa7af2260)" d="M 407.187947 157.5 
L 408.707865 157.5 
L 408.707865 145.733766 
L 407.187947 145.733766 
z
" style="fill:#e24a33;opacity:0.2;"/>
   </g>
   <g id="patch_157">
    <path clip-path="url(#p1fa7af2260)" d="M 409.087845 157.5 
L 410.607763 157.5 
L 410.607763 157.5 
L 409.087845 157.5 
z
" style="fill:#e24a33;opacity:0.2;"/>
   </g>
   <g id="patch_158">
    <path clip-path="url(#p1fa7af2260)" d="M 410.987743 157.5 
L 412.507661 157.5 
L 412.507661 157.5 
L 410.987743 157.5 
z
" style="fill:#e24a33;opacity:0.2;"/>
   </g>
   <g id="patch_159">
    <path clip-path="url(#p1fa7af2260)" d="M 412.88764 157.5 
L 414.407559 157.5 
L 414.407559 157.5 
L 412.88764 157.5 
z
" style="fill:#e24a33;opacity:0.2;"/>
   </g>
   <g id="patch_160">
    <path clip-path="url(#p1fa7af2260)" d="M 414.787538 157.5 
L 416.307457 157.5 
L 416.307457 157.5 
L 414.787538 157.5 
z
" style="fill:#e24a33;opacity:0.2;"/>
   </g>
   <g id="patch_161">
    <path clip-path="url(#p1fa7af2260)" d="M 416.687436 157.5 
L 418.207354 157.5 
L 418.207354 157.5 
L 416.687436 157.5 
z
" style="fill:#e24a33;opacity:0.2;"/>
   </g>
   <g id="patch_162">
    <path clip-path="url(#p1fa7af2260)" d="M 418.587334 157.5 
L 420.107252 157.5 
L 420.107252 157.5 
L 418.587334 157.5 
z
" style="fill:#e24a33;opacity:0.2;"/>
   </g>
   <g id="patch_163">
    <path clip-path="url(#p1fa7af2260)" d="M 420.487232 157.5 
L 422.00715 157.5 
L 422.00715 157.5 
L 420.487232 157.5 
z
" style="fill:#e24a33;opacity:0.2;"/>
   </g>
   <g id="patch_164">
    <path clip-path="url(#p1fa7af2260)" d="M 422.38713 157.5 
L 423.907048 157.5 
L 423.907048 157.5 
L 422.38713 157.5 
z
" style="fill:#e24a33;opacity:0.2;"/>
   </g>
   <g id="patch_165">
    <path clip-path="url(#p1fa7af2260)" d="M 424.287028 157.5 
L 425.806946 157.5 
L 425.806946 145.733766 
L 424.287028 145.733766 
z
" style="fill:#e24a33;opacity:0.2;"/>
   </g>
   <g id="patch_166">
    <path clip-path="url(#p1fa7af2260)" d="M 426.186925 157.5 
L 427.706844 157.5 
L 427.706844 157.5 
L 426.186925 157.5 
z
" style="fill:#e24a33;opacity:0.2;"/>
   </g>
   <g id="patch_167">
    <path clip-path="url(#p1fa7af2260)" d="M 428.086823 157.5 
L 429.606742 157.5 
L 429.606742 145.733766 
L 428.086823 145.733766 
z
" style="fill:#e24a33;opacity:0.2;"/>
   </g>
   <g id="patch_168">
    <path clip-path="url(#p1fa7af2260)" d="M 429.986721 157.5 
L 431.506639 157.5 
L 431.506639 145.733766 
L 429.986721 145.733766 
z
" style="fill:#e24a33;opacity:0.2;"/>
   </g>
   <g id="patch_169">
    <path clip-path="url(#p1fa7af2260)" d="M 431.886619 157.5 
L 433.406537 157.5 
L 433.406537 157.5 
L 431.886619 157.5 
z
" style="fill:#e24a33;opacity:0.2;"/>
   </g>
   <g id="patch_170">
    <path clip-path="url(#p1fa7af2260)" d="M 433.786517 157.5 
L 435.306435 157.5 
L 435.306435 133.967532 
L 433.786517 133.967532 
z
" style="fill:#e24a33;opacity:0.2;"/>
   </g>
   <g id="patch_171">
    <path clip-path="url(#p1fa7af2260)" d="M 435.686415 157.5 
L 437.206333 157.5 
L 437.206333 145.733766 
L 435.686415 145.733766 
z
" style="fill:#e24a33;opacity:0.2;"/>
   </g>
   <g id="patch_172">
    <path clip-path="url(#p1fa7af2260)" d="M 437.586313 157.5 
L 439.106231 157.5 
L 439.106231 157.5 
L 437.586313 157.5 
z
" style="fill:#e24a33;opacity:0.2;"/>
   </g>
   <g id="patch_173">
    <path clip-path="url(#p1fa7af2260)" d="M 439.48621 157.5 
L 441.006129 157.5 
L 441.006129 145.733766 
L 439.48621 145.733766 
z
" style="fill:#e24a33;opacity:0.2;"/>
   </g>
   <g id="patch_174">
    <path clip-path="url(#p1fa7af2260)" d="M 441.386108 157.5 
L 442.906027 157.5 
L 442.906027 157.5 
L 441.386108 157.5 
z
" style="fill:#e24a33;opacity:0.2;"/>
   </g>
   <g id="patch_175">
    <path clip-path="url(#p1fa7af2260)" d="M 443.286006 157.5 
L 444.805924 157.5 
L 444.805924 157.5 
L 443.286006 157.5 
z
" style="fill:#e24a33;opacity:0.2;"/>
   </g>
   <g id="patch_176">
    <path clip-path="url(#p1fa7af2260)" d="M 445.185904 157.5 
L 446.705822 157.5 
L 446.705822 157.5 
L 445.185904 157.5 
z
" style="fill:#e24a33;opacity:0.2;"/>
   </g>
   <g id="patch_177">
    <path clip-path="url(#p1fa7af2260)" d="M 447.085802 157.5 
L 448.60572 157.5 
L 448.60572 133.967532 
L 447.085802 133.967532 
z
" style="fill:#e24a33;opacity:0.2;"/>
   </g>
   <g id="patch_178">
    <path clip-path="url(#p1fa7af2260)" d="M 448.9857 157.5 
L 450.505618 157.5 
L 450.505618 133.967532 
L 448.9857 133.967532 
z
" style="fill:#e24a33;opacity:0.2;"/>
   </g>
   <g id="patch_179">
    <path clip-path="url(#p1fa7af2260)" d="M 450.885598 157.5 
L 452.405516 157.5 
L 452.405516 145.733766 
L 450.885598 145.733766 
z
" style="fill:#e24a33;opacity:0.2;"/>
   </g>
   <g id="patch_180">
    <path clip-path="url(#p1fa7af2260)" d="M 452.785495 157.5 
L 454.305414 157.5 
L 454.305414 145.733766 
L 452.785495 145.733766 
z
" style="fill:#e24a33;opacity:0.2;"/>
   </g>
   <g id="patch_181">
    <path clip-path="url(#p1fa7af2260)" d="M 454.685393 157.5 
L 456.205312 157.5 
L 456.205312 145.733766 
L 454.685393 145.733766 
z
" style="fill:#e24a33;opacity:0.2;"/>
   </g>
   <g id="patch_182">
    <path clip-path="url(#p1fa7af2260)" d="M 456.585291 157.5 
L 458.105209 157.5 
L 458.105209 157.5 
L 456.585291 157.5 
z
" style="fill:#e24a33;opacity:0.2;"/>
   </g>
   <g id="patch_183">
    <path clip-path="url(#p1fa7af2260)" d="M 458.485189 157.5 
L 460.005107 157.5 
L 460.005107 145.733766 
L 458.485189 145.733766 
z
" style="fill:#e24a33;opacity:0.2;"/>
   </g>
   <g id="patch_184">
    <path clip-path="url(#p1fa7af2260)" d="M 460.385087 157.5 
L 461.905005 157.5 
L 461.905005 157.5 
L 460.385087 157.5 
z
" style="fill:#e24a33;opacity:0.2;"/>
   </g>
   <g id="patch_185">
    <path clip-path="url(#p1fa7af2260)" d="M 462.284985 157.5 
L 463.804903 157.5 
L 463.804903 145.733766 
L 462.284985 145.733766 
z
" style="fill:#e24a33;opacity:0.2;"/>
   </g>
   <g id="patch_186">
    <path clip-path="url(#p1fa7af2260)" d="M 464.184883 157.5 
L 465.704801 157.5 
L 465.704801 157.5 
L 464.184883 157.5 
z
" style="fill:#e24a33;opacity:0.2;"/>
   </g>
   <g id="patch_187">
    <path clip-path="url(#p1fa7af2260)" d="M 466.08478 157.5 
L 467.604699 157.5 
L 467.604699 157.5 
L 466.08478 157.5 
z
" style="fill:#e24a33;opacity:0.2;"/>
   </g>
   <g id="patch_188">
    <path clip-path="url(#p1fa7af2260)" d="M 467.984678 157.5 
L 469.504597 157.5 
L 469.504597 145.733766 
L 467.984678 145.733766 
z
" style="fill:#e24a33;opacity:0.2;"/>
   </g>
   <g id="patch_189">
    <path clip-path="url(#p1fa7af2260)" d="M 469.884576 157.5 
L 471.404494 157.5 
L 471.404494 145.733766 
L 469.884576 145.733766 
z
" style="fill:#e24a33;opacity:0.2;"/>
   </g>
   <g id="patch_190">
    <path clip-path="url(#p1fa7af2260)" d="M 471.784474 157.5 
L 473.304392 157.5 
L 473.304392 157.5 
L 471.784474 157.5 
z
" style="fill:#e24a33;opacity:0.2;"/>
   </g>
   <g id="patch_191">
    <path clip-path="url(#p1fa7af2260)" d="M 473.684372 157.5 
L 475.20429 157.5 
L 475.20429 157.5 
L 473.684372 157.5 
z
" style="fill:#e24a33;opacity:0.2;"/>
   </g>
   <g id="patch_192">
    <path clip-path="url(#p1fa7af2260)" d="M 475.58427 157.5 
L 477.104188 157.5 
L 477.104188 145.733766 
L 475.58427 145.733766 
z
" style="fill:#e24a33;opacity:0.2;"/>
   </g>
   <g id="patch_193">
    <path clip-path="url(#p1fa7af2260)" d="M 477.484168 157.5 
L 479.004086 157.5 
L 479.004086 157.5 
L 477.484168 157.5 
z
" style="fill:#e24a33;opacity:0.2;"/>
   </g>
   <g id="patch_194">
    <path clip-path="url(#p1fa7af2260)" d="M 479.384065 157.5 
L 480.903984 157.5 
L 480.903984 157.5 
L 479.384065 157.5 
z
" style="fill:#e24a33;opacity:0.2;"/>
   </g>
   <g id="patch_195">
    <path clip-path="url(#p1fa7af2260)" d="M 481.283963 157.5 
L 482.803882 157.5 
L 482.803882 157.5 
L 481.283963 157.5 
z
" style="fill:#e24a33;opacity:0.2;"/>
   </g>
   <g id="patch_196">
    <path clip-path="url(#p1fa7af2260)" d="M 483.183861 157.5 
L 484.703779 157.5 
L 484.703779 157.5 
L 483.183861 157.5 
z
" style="fill:#e24a33;opacity:0.2;"/>
   </g>
   <g id="patch_197">
    <path clip-path="url(#p1fa7af2260)" d="M 485.083759 157.5 
L 486.603677 157.5 
L 486.603677 145.733766 
L 485.083759 145.733766 
z
" style="fill:#e24a33;opacity:0.2;"/>
   </g>
   <g id="patch_198">
    <path clip-path="url(#p1fa7af2260)" d="M 486.983657 157.5 
L 488.503575 157.5 
L 488.503575 157.5 
L 486.983657 157.5 
z
" style="fill:#e24a33;opacity:0.2;"/>
   </g>
   <g id="patch_199">
    <path clip-path="url(#p1fa7af2260)" d="M 488.883555 157.5 
L 490.403473 157.5 
L 490.403473 145.733766 
L 488.883555 145.733766 
z
" style="fill:#e24a33;opacity:0.2;"/>
   </g>
   <g id="patch_200">
    <path clip-path="url(#p1fa7af2260)" d="M 490.783453 157.5 
L 492.303371 157.5 
L 492.303371 145.733766 
L 490.783453 145.733766 
z
" style="fill:#e24a33;opacity:0.2;"/>
   </g>
   <g id="patch_201">
    <path clip-path="url(#p1fa7af2260)" d="M 492.68335 157.5 
L 494.203269 157.5 
L 494.203269 145.733766 
L 492.68335 145.733766 
z
" style="fill:#e24a33;opacity:0.2;"/>
   </g>
   <g id="patch_202">
    <path clip-path="url(#p1fa7af2260)" d="M 494.583248 157.5 
L 496.103166 157.5 
L 496.103166 157.5 
L 494.583248 157.5 
z
" style="fill:#e24a33;opacity:0.2;"/>
   </g>
   <g id="patch_203">
    <path clip-path="url(#p1fa7af2260)" d="M 496.483146 157.5 
L 498.003064 157.5 
L 498.003064 157.5 
L 496.483146 157.5 
z
" style="fill:#e24a33;opacity:0.2;"/>
   </g>
   <g id="patch_204">
    <path clip-path="url(#p1fa7af2260)" d="M 498.383044 157.5 
L 499.902962 157.5 
L 499.902962 157.5 
L 498.383044 157.5 
z
" style="fill:#e24a33;opacity:0.2;"/>
   </g>
   <g id="patch_205">
    <path clip-path="url(#p1fa7af2260)" d="M 500.282942 157.5 
L 501.80286 157.5 
L 501.80286 157.5 
L 500.282942 157.5 
z
" style="fill:#e24a33;opacity:0.2;"/>
   </g>
   <g id="patch_206">
    <path clip-path="url(#p1fa7af2260)" d="M 502.18284 157.5 
L 503.702758 157.5 
L 503.702758 157.5 
L 502.18284 157.5 
z
" style="fill:#e24a33;opacity:0.2;"/>
   </g>
   <g id="patch_207">
    <path clip-path="url(#p1fa7af2260)" d="M 504.082737 157.5 
L 505.602656 157.5 
L 505.602656 157.5 
L 504.082737 157.5 
z
" style="fill:#e24a33;opacity:0.2;"/>
   </g>
   <g id="patch_208">
    <path clip-path="url(#p1fa7af2260)" d="M 505.982635 157.5 
L 507.502554 157.5 
L 507.502554 157.5 
L 505.982635 157.5 
z
" style="fill:#e24a33;opacity:0.2;"/>
   </g>
   <g id="patch_209">
    <path clip-path="url(#p1fa7af2260)" d="M 507.882533 157.5 
L 509.402451 157.5 
L 509.402451 157.5 
L 507.882533 157.5 
z
" style="fill:#e24a33;opacity:0.2;"/>
   </g>
   <g id="patch_210">
    <path clip-path="url(#p1fa7af2260)" d="M 509.782431 157.5 
L 511.302349 157.5 
L 511.302349 145.733766 
L 509.782431 145.733766 
z
" style="fill:#e24a33;opacity:0.2;"/>
   </g>
   <g id="patch_211">
    <path clip-path="url(#p1fa7af2260)" d="M 511.682329 157.5 
L 513.202247 157.5 
L 513.202247 157.5 
L 511.682329 157.5 
z
" style="fill:#e24a33;opacity:0.2;"/>
   </g>
   <g id="patch_212">
    <path clip-path="url(#p1fa7af2260)" d="M 513.582227 157.5 
L 515.102145 157.5 
L 515.102145 145.733766 
L 513.582227 145.733766 
z
" style="fill:#e24a33;opacity:0.2;"/>
   </g>
   <g id="patch_213">
    <path clip-path="url(#p1fa7af2260)" d="M 515.482125 157.5 
L 517.002043 157.5 
L 517.002043 133.967532 
L 515.482125 133.967532 
z
" style="fill:#e24a33;opacity:0.2;"/>
   </g>
   <g id="patch_214">
    <path clip-path="url(#p1fa7af2260)" d="M 517.382022 157.5 
L 518.901941 157.5 
L 518.901941 157.5 
L 517.382022 157.5 
z
" style="fill:#e24a33;opacity:0.2;"/>
   </g>
   <g id="patch_215">
    <path clip-path="url(#p1fa7af2260)" d="M 519.28192 157.5 
L 520.801839 157.5 
L 520.801839 157.5 
L 519.28192 157.5 
z
" style="fill:#e24a33;opacity:0.2;"/>
   </g>
   <g id="patch_216">
    <path clip-path="url(#p1fa7af2260)" d="M 521.181818 157.5 
L 522.701736 157.5 
L 522.701736 157.5 
L 521.181818 157.5 
z
" style="fill:#e24a33;opacity:0.2;"/>
   </g>
   <g id="patch_217">
    <path clip-path="url(#p1fa7af2260)" d="M 523.081716 157.5 
L 524.601634 157.5 
L 524.601634 145.733766 
L 523.081716 145.733766 
z
" style="fill:#e24a33;opacity:0.2;"/>
   </g>
   <g id="patch_218">
    <path clip-path="url(#p1fa7af2260)" d="M 524.981614 157.5 
L 526.501532 157.5 
L 526.501532 133.967532 
L 524.981614 133.967532 
z
" style="fill:#e24a33;opacity:0.2;"/>
   </g>
   <g id="patch_219">
    <path clip-path="url(#p1fa7af2260)" d="M 526.881512 157.5 
L 528.40143 157.5 
L 528.40143 145.733766 
L 526.881512 145.733766 
z
" style="fill:#e24a33;opacity:0.2;"/>
   </g>
   <g id="patch_220">
    <path clip-path="url(#p1fa7af2260)" d="M 528.78141 157.5 
L 530.301328 157.5 
L 530.301328 122.201299 
L 528.78141 122.201299 
z
" style="fill:#e24a33;opacity:0.2;"/>
   </g>
   <g id="patch_221">
    <path clip-path="url(#p1fa7af2260)" d="M 530.681307 157.5 
L 532.201226 157.5 
L 532.201226 98.668831 
L 530.681307 98.668831 
z
" style="fill:#e24a33;opacity:0.2;"/>
   </g>
   <g id="patch_222">
    <path clip-path="url(#p1fa7af2260)" d="M 532.581205 157.5 
L 534.101124 157.5 
L 534.101124 133.967532 
L 532.581205 133.967532 
z
" style="fill:#e24a33;opacity:0.2;"/>
   </g>
   <g id="patch_223">
    <path clip-path="url(#p1fa7af2260)" d="M 534.481103 157.5 
L 536.001021 157.5 
L 536.001021 145.733766 
L 534.481103 145.733766 
z
" style="fill:#e24a33;opacity:0.2;"/>
   </g>
   <g id="patch_224">
    <path clip-path="url(#p1fa7af2260)" d="M 536.381001 157.5 
L 537.900919 157.5 
L 537.900919 157.5 
L 536.381001 157.5 
z
" style="fill:#e24a33;opacity:0.2;"/>
   </g>
   <g id="patch_225">
    <path clip-path="url(#p1fa7af2260)" d="M 538.280899 157.5 
L 539.800817 157.5 
L 539.800817 133.967532 
L 538.280899 133.967532 
z
" style="fill:#e24a33;opacity:0.2;"/>
   </g>
   <g id="patch_226">
    <path clip-path="url(#p1fa7af2260)" d="M 540.180797 157.5 
L 541.700715 157.5 
L 541.700715 122.201299 
L 540.180797 122.201299 
z
" style="fill:#e24a33;opacity:0.2;"/>
   </g>
   <g id="patch_227">
    <path clip-path="url(#p1fa7af2260)" d="M 542.080695 157.5 
L 543.600613 157.5 
L 543.600613 133.967532 
L 542.080695 133.967532 
z
" style="fill:#e24a33;opacity:0.2;"/>
   </g>
   <g id="patch_228">
    <path clip-path="url(#p1fa7af2260)" d="M 543.980592 157.5 
L 545.500511 157.5 
L 545.500511 133.967532 
L 543.980592 133.967532 
z
" style="fill:#e24a33;opacity:0.2;"/>
   </g>
   <g id="patch_229">
    <path clip-path="url(#p1fa7af2260)" d="M 545.88049 157.5 
L 547.400409 157.5 
L 547.400409 145.733766 
L 545.88049 145.733766 
z
" style="fill:#e24a33;opacity:0.2;"/>
   </g>
   <g id="patch_230">
    <path clip-path="url(#p1fa7af2260)" d="M 547.780388 157.5 
L 549.300306 157.5 
L 549.300306 133.967532 
L 547.780388 133.967532 
z
" style="fill:#e24a33;opacity:0.2;"/>
   </g>
   <g id="patch_231">
    <path clip-path="url(#p1fa7af2260)" d="M 549.680286 157.5 
L 551.200204 157.5 
L 551.200204 98.668831 
L 549.680286 98.668831 
z
" style="fill:#e24a33;opacity:0.2;"/>
   </g>
   <g id="patch_232">
    <path clip-path="url(#p1fa7af2260)" d="M 551.580184 157.5 
L 553.100102 157.5 
L 553.100102 122.201299 
L 551.580184 122.201299 
z
" style="fill:#e24a33;opacity:0.2;"/>
   </g>
   <g id="patch_233">
    <path clip-path="url(#p1fa7af2260)" d="M 553.480082 157.5 
L 555 157.5 
L 555 133.967532 
L 553.480082 133.967532 
z
" style="fill:#e24a33;opacity:0.2;"/>
   </g>
   <g id="patch_234">
    <path clip-path="url(#p1fa7af2260)" d="M 555.37998 157.5 
L 556.899898 157.5 
L 556.899898 110.435065 
L 555.37998 110.435065 
z
" style="fill:#e24a33;opacity:0.2;"/>
   </g>
   <g id="patch_235">
    <path clip-path="url(#p1fa7af2260)" d="M 557.279877 157.5 
L 558.799796 157.5 
L 558.799796 98.668831 
L 557.279877 98.668831 
z
" style="fill:#e24a33;opacity:0.2;"/>
   </g>
   <g id="patch_236">
    <path clip-path="url(#p1fa7af2260)" d="M 559.179775 157.5 
L 560.699694 157.5 
L 560.699694 122.201299 
L 559.179775 122.201299 
z
" style="fill:#e24a33;opacity:0.2;"/>
   </g>
   <g id="patch_237">
    <path clip-path="url(#p1fa7af2260)" d="M 561.079673 157.5 
L 562.599591 157.5 
L 562.599591 98.668831 
L 561.079673 98.668831 
z
" style="fill:#e24a33;opacity:0.2;"/>
   </g>
   <g id="patch_238">
    <path clip-path="url(#p1fa7af2260)" d="M 562.979571 157.5 
L 564.499489 157.5 
L 564.499489 110.435065 
L 562.979571 110.435065 
z
" style="fill:#e24a33;opacity:0.2;"/>
   </g>
   <g id="patch_239">
    <path clip-path="url(#p1fa7af2260)" d="M 564.879469 157.5 
L 566.399387 157.5 
L 566.399387 157.5 
L 564.879469 157.5 
z
" style="fill:#e24a33;opacity:0.2;"/>
   </g>
   <g id="patch_240">
    <path clip-path="url(#p1fa7af2260)" d="M 566.779367 157.5 
L 568.299285 157.5 
L 568.299285 98.668831 
L 566.779367 98.668831 
z
" style="fill:#e24a33;opacity:0.2;"/>
   </g>
   <g id="patch_241">
    <path clip-path="url(#p1fa7af2260)" d="M 568.679265 157.5 
L 570.199183 157.5 
L 570.199183 98.668831 
L 568.679265 98.668831 
z
" style="fill:#e24a33;opacity:0.2;"/>
   </g>
   <g id="patch_242">
    <path clip-path="url(#p1fa7af2260)" d="M 570.579162 157.5 
L 572.099081 157.5 
L 572.099081 145.733766 
L 570.579162 145.733766 
z
" style="fill:#e24a33;opacity:0.2;"/>
   </g>
   <g id="patch_243">
    <path clip-path="url(#p1fa7af2260)" d="M 572.47906 157.5 
L 573.998979 157.5 
L 573.998979 98.668831 
L 572.47906 98.668831 
z
" style="fill:#e24a33;opacity:0.2;"/>
   </g>
   <g id="patch_244">
    <path clip-path="url(#p1fa7af2260)" d="M 574.378958 157.5 
L 575.898876 157.5 
L 575.898876 133.967532 
L 574.378958 133.967532 
z
" style="fill:#e24a33;opacity:0.2;"/>
   </g>
   <g id="patch_245">
    <path clip-path="url(#p1fa7af2260)" d="M 576.278856 157.5 
L 577.798774 157.5 
L 577.798774 122.201299 
L 576.278856 122.201299 
z
" style="fill:#e24a33;opacity:0.2;"/>
   </g>
   <g id="patch_246">
    <path clip-path="url(#p1fa7af2260)" d="M 578.178754 157.5 
L 579.698672 157.5 
L 579.698672 157.5 
L 578.178754 157.5 
z
" style="fill:#e24a33;opacity:0.2;"/>
   </g>
   <g id="patch_247">
    <path clip-path="url(#p1fa7af2260)" d="M 580.078652 157.5 
L 581.59857 157.5 
L 581.59857 98.668831 
L 580.078652 98.668831 
z
" style="fill:#e24a33;opacity:0.2;"/>
   </g>
   <g id="patch_248">
    <path clip-path="url(#p1fa7af2260)" d="M 581.97855 157.5 
L 583.498468 157.5 
L 583.498468 133.967532 
L 581.97855 133.967532 
z
" style="fill:#e24a33;opacity:0.2;"/>
   </g>
   <g id="patch_249">
    <path clip-path="url(#p1fa7af2260)" d="M 583.878447 157.5 
L 585.398366 157.5 
L 585.398366 110.435065 
L 583.878447 110.435065 
z
" style="fill:#e24a33;opacity:0.2;"/>
   </g>
   <g id="patch_250">
    <path clip-path="url(#p1fa7af2260)" d="M 585.778345 157.5 
L 587.298264 157.5 
L 587.298264 133.967532 
L 585.778345 133.967532 
z
" style="fill:#e24a33;opacity:0.2;"/>
   </g>
   <g id="patch_251">
    <path clip-path="url(#p1fa7af2260)" d="M 587.678243 157.5 
L 589.198161 157.5 
L 589.198161 98.668831 
L 587.678243 98.668831 
z
" style="fill:#e24a33;opacity:0.2;"/>
   </g>
   <g id="patch_252">
    <path clip-path="url(#p1fa7af2260)" d="M 589.578141 157.5 
L 591.098059 157.5 
L 591.098059 145.733766 
L 589.578141 145.733766 
z
" style="fill:#e24a33;opacity:0.2;"/>
   </g>
   <g id="patch_253">
    <path clip-path="url(#p1fa7af2260)" d="M 591.478039 157.5 
L 592.997957 157.5 
L 592.997957 86.902597 
L 591.478039 86.902597 
z
" style="fill:#e24a33;opacity:0.2;"/>
   </g>
   <g id="patch_254">
    <path clip-path="url(#p1fa7af2260)" d="M 593.377937 157.5 
L 594.897855 157.5 
L 594.897855 133.967532 
L 593.377937 133.967532 
z
" style="fill:#e24a33;opacity:0.2;"/>
   </g>
   <g id="patch_255">
    <path clip-path="url(#p1fa7af2260)" d="M 595.277835 157.5 
L 596.797753 157.5 
L 596.797753 145.733766 
L 595.277835 145.733766 
z
" style="fill:#e24a33;opacity:0.2;"/>
   </g>
   <g id="patch_256">
    <path clip-path="url(#p1fa7af2260)" d="M 597.177732 157.5 
L 598.697651 157.5 
L 598.697651 110.435065 
L 597.177732 110.435065 
z
" style="fill:#e24a33;opacity:0.2;"/>
   </g>
   <g id="patch_257">
    <path clip-path="url(#p1fa7af2260)" d="M 599.07763 157.5 
L 600.597549 157.5 
L 600.597549 145.733766 
L 599.07763 145.733766 
z
" style="fill:#e24a33;opacity:0.2;"/>
   </g>
   <g id="patch_258">
    <path clip-path="url(#p1fa7af2260)" d="M 600.977528 157.5 
L 602.497446 157.5 
L 602.497446 145.733766 
L 600.977528 145.733766 
z
" style="fill:#e24a33;opacity:0.2;"/>
   </g>
   <g id="patch_259">
    <path clip-path="url(#p1fa7af2260)" d="M 602.877426 157.5 
L 604.397344 157.5 
L 604.397344 157.5 
L 602.877426 157.5 
z
" style="fill:#e24a33;opacity:0.2;"/>
   </g>
   <g id="patch_260">
    <path clip-path="url(#p1fa7af2260)" d="M 604.777324 157.5 
L 606.297242 157.5 
L 606.297242 122.201299 
L 604.777324 122.201299 
z
" style="fill:#e24a33;opacity:0.2;"/>
   </g>
   <g id="patch_261">
    <path clip-path="url(#p1fa7af2260)" d="M 606.677222 157.5 
L 608.19714 157.5 
L 608.19714 133.967532 
L 606.677222 133.967532 
z
" style="fill:#e24a33;opacity:0.2;"/>
   </g>
   <g id="patch_262">
    <path clip-path="url(#p1fa7af2260)" d="M 608.57712 157.5 
L 610.097038 157.5 
L 610.097038 145.733766 
L 608.57712 145.733766 
z
" style="fill:#e24a33;opacity:0.2;"/>
   </g>
   <g id="patch_263">
    <path clip-path="url(#p1fa7af2260)" d="M 610.477017 157.5 
L 611.996936 157.5 
L 611.996936 133.967532 
L 610.477017 133.967532 
z
" style="fill:#e24a33;opacity:0.2;"/>
   </g>
   <g id="patch_264">
    <path clip-path="url(#p1fa7af2260)" d="M 612.376915 157.5 
L 613.896834 157.5 
L 613.896834 133.967532 
L 612.376915 133.967532 
z
" style="fill:#e24a33;opacity:0.2;"/>
   </g>
   <g id="patch_265">
    <path clip-path="url(#p1fa7af2260)" d="M 614.276813 157.5 
L 615.796731 157.5 
L 615.796731 145.733766 
L 614.276813 145.733766 
z
" style="fill:#e24a33;opacity:0.2;"/>
   </g>
   <g id="patch_266">
    <path clip-path="url(#p1fa7af2260)" d="M 616.176711 157.5 
L 617.696629 157.5 
L 617.696629 145.733766 
L 616.176711 145.733766 
z
" style="fill:#e24a33;opacity:0.2;"/>
   </g>
   <g id="patch_267">
    <path clip-path="url(#p1fa7af2260)" d="M 618.076609 157.5 
L 619.596527 157.5 
L 619.596527 110.435065 
L 618.076609 110.435065 
z
" style="fill:#e24a33;opacity:0.2;"/>
   </g>
   <g id="patch_268">
    <path clip-path="url(#p1fa7af2260)" d="M 619.976507 157.5 
L 621.496425 157.5 
L 621.496425 145.733766 
L 619.976507 145.733766 
z
" style="fill:#e24a33;opacity:0.2;"/>
   </g>
   <g id="patch_269">
    <path clip-path="url(#p1fa7af2260)" d="M 621.876404 157.5 
L 623.396323 157.5 
L 623.396323 133.967532 
L 621.876404 133.967532 
z
" style="fill:#e24a33;opacity:0.2;"/>
   </g>
   <g id="line2d_37">
    <path clip-path="url(#p1fa7af2260)" d="M 117.263534 157.5 
L 157.161389 157.394154 
L 160.961185 156.76983 
L 162.861083 155.896737 
L 164.760981 154.559398 
L 166.660878 152.709736 
L 168.560776 150.349501 
L 174.26047 142.619911 
L 176.160368 140.636153 
L 178.060266 138.141965 
L 179.960163 136.157192 
L 183.759959 131.344277 
L 185.659857 128.166976 
L 187.559755 124.746955 
L 189.459653 120.669599 
L 193.259448 114.727424 
L 195.159346 113.29832 
L 197.059244 111.701682 
L 200.85904 111.280795 
L 202.758938 111.943766 
L 206.558733 113.643883 
L 210.358529 114.490782 
L 214.158325 114.57667 
L 216.058223 112.985462 
L 217.958121 111.133941 
L 219.858018 108.231632 
L 221.757916 104.471836 
L 223.657814 101.107598 
L 225.557712 97.093621 
L 227.45761 93.672834 
L 231.257406 88.504313 
L 233.157303 87.146226 
L 235.057201 86.432096 
L 236.957099 86.528013 
L 238.856997 87.586087 
L 240.756895 89.174487 
L 242.656793 91.787397 
L 246.456588 97.68436 
L 248.356486 100.397829 
L 250.256384 102.029562 
L 252.156282 102.863639 
L 254.05618 103.05995 
L 255.956078 102.951727 
L 257.855975 102.713856 
L 259.755873 102.670065 
L 261.655771 103.337164 
L 263.555669 104.773436 
L 265.455567 107.252129 
L 269.255363 112.905809 
L 273.055158 118.834663 
L 278.754852 128.2167 
L 280.65475 131.225533 
L 284.454545 136.576146 
L 286.354443 138.719981 
L 288.254341 140.405102 
L 290.154239 141.535969 
L 292.054137 142.10575 
L 293.954035 142.509376 
L 295.853933 142.665847 
L 299.653728 142.551308 
L 301.553626 142.385899 
L 303.453524 142.42783 
L 307.25332 143.170924 
L 311.053115 145.132441 
L 316.752809 148.723154 
L 318.652707 149.416724 
L 320.552605 149.728418 
L 328.152196 148.837607 
L 330.052094 148.861083 
L 331.951992 149.06369 
L 333.85189 149.390399 
L 335.751788 149.890109 
L 337.651685 150.091049 
L 339.551583 150.146582 
L 341.451481 149.945954 
L 343.351379 149.615015 
L 347.151175 149.480864 
L 349.051073 149.582168 
L 352.850868 150.21634 
L 354.750766 150.652136 
L 356.650664 150.964142 
L 362.350358 151.350449 
L 368.050051 152.195323 
L 369.949949 152.384329 
L 371.849847 152.43433 
L 373.749745 152.333027 
L 375.649642 152.107933 
L 379.449438 151.456295 
L 381.349336 151.194602 
L 385.149132 151.281992 
L 392.748723 152.251168 
L 400.348315 153.426505 
L 404.14811 153.98206 
L 407.947906 154.71223 
L 413.6476 155.800654 
L 415.547497 155.95227 
L 417.447395 155.846424 
L 419.347293 155.538649 
L 421.247191 154.789857 
L 425.046987 152.650565 
L 426.946885 151.452064 
L 428.846782 150.487118 
L 430.74668 149.779947 
L 432.646578 149.394464 
L 436.446374 149.301707 
L 440.24617 149.421944 
L 444.045965 148.727696 
L 447.845761 147.3828 
L 449.745659 146.975022 
L 451.645557 146.900244 
L 453.545455 147.286038 
L 457.34525 148.783541 
L 461.145046 150.597593 
L 463.044944 151.377763 
L 464.944842 151.832015 
L 472.544433 152.975806 
L 476.344229 153.670054 
L 478.244127 153.821671 
L 480.144025 153.751912 
L 482.043922 153.508363 
L 487.743616 152.218322 
L 489.643514 152.080619 
L 491.543412 152.223854 
L 493.443309 152.687476 
L 499.143003 154.983094 
L 501.042901 155.484105 
L 502.942799 155.478573 
L 504.842697 155.170798 
L 506.742594 154.533385 
L 510.54239 152.773877 
L 512.442288 151.76308 
L 516.242084 149.945954 
L 518.141982 148.561775 
L 520.041879 146.848203 
L 521.941777 144.668592 
L 527.641471 137.538548 
L 529.541369 135.644107 
L 531.441267 134.420437 
L 533.341164 133.909662 
L 535.241062 134.145388 
L 537.14096 134.217483 
L 539.040858 134.077695 
L 540.940756 133.634985 
L 542.840654 132.70458 
L 544.740552 131.286956 
L 546.640449 129.230345 
L 550.440245 123.557937 
L 552.340143 121.187341 
L 554.240041 119.206213 
L 556.139939 117.409482 
L 558.039837 116.223201 
L 559.939734 115.466939 
L 561.839632 115.5375 
L 563.73953 116.14269 
L 567.539326 118.211355 
L 571.339122 120.654193 
L 573.239019 122.094829 
L 575.138917 122.82088 
L 577.038815 123.698012 
L 578.938713 123.551527 
L 582.738509 122.906723 
L 586.538304 121.98932 
L 588.438202 122.384886 
L 590.3381 123.067459 
L 592.237998 124.746112 
L 594.137896 126.691968 
L 597.937692 131.787098 
L 599.837589 133.990305 
L 601.737487 135.913755 
L 603.637385 137.28687 
L 605.537283 137.870564 
L 607.437181 138.161265 
L 611.236977 137.603427 
L 613.136874 137.246062 
L 615.036772 136.627033 
L 618.836568 135.940057 
L 622.636364 135.614019 
L 622.636364 135.614019 
" style="fill:none;stroke:#e24a33;stroke-linecap:square;stroke-width:3;"/>
   </g>
   <g id="patch_270">
    <path d="M 90 157.5 
L 90 21.6 
" style="fill:none;stroke:#ffffff;stroke-linecap:square;stroke-linejoin:miter;"/>
   </g>
   <g id="patch_271">
    <path d="M 648 157.5 
L 648 21.6 
" style="fill:none;stroke:#ffffff;stroke-linecap:square;stroke-linejoin:miter;"/>
   </g>
   <g id="patch_272">
    <path d="M 90 157.5 
L 648 157.5 
" style="fill:none;stroke:#ffffff;stroke-linecap:square;stroke-linejoin:miter;"/>
   </g>
   <g id="patch_273">
    <path d="M 90 21.6 
L 648 21.6 
" style="fill:none;stroke:#ffffff;stroke-linecap:square;stroke-linejoin:miter;"/>
   </g>
   <g id="legend_1">
    <g id="patch_274">
     <path d="M 394.682812 58.95625 
L 641 58.95625 
Q 643 58.95625 643 56.95625 
L 643 28.6 
Q 643 26.6 641 26.6 
L 394.682812 26.6 
Q 392.682812 26.6 392.682812 28.6 
L 392.682812 56.95625 
Q 392.682812 58.95625 394.682812 58.95625 
z
" style="fill:#e5e5e5;opacity:0.8;stroke:#cccccc;stroke-linejoin:miter;stroke-width:0.5;"/>
    </g>
    <g id="line2d_38">
     <path d="M 396.682812 34.698438 
L 416.682812 34.698438 
" style="fill:none;stroke:#e24a33;stroke-linecap:square;stroke-width:3;"/>
    </g>
    <g id="line2d_39"/>
    <g id="text_23">
     <!-- Korea, South new deaths (rolling 7d mean) -->
     <defs>
      <path d="M 9.8125 72.90625 
L 19.671875 72.90625 
L 19.671875 42.09375 
L 52.390625 72.90625 
L 65.09375 72.90625 
L 28.90625 38.921875 
L 67.671875 0 
L 54.6875 0 
L 19.671875 35.109375 
L 19.671875 0 
L 9.8125 0 
z
" id="DejaVuSans-75"/>
      <path d="M 30.609375 48.390625 
Q 23.390625 48.390625 19.1875 42.75 
Q 14.984375 37.109375 14.984375 27.296875 
Q 14.984375 17.484375 19.15625 11.84375 
Q 23.34375 6.203125 30.609375 6.203125 
Q 37.796875 6.203125 41.984375 11.859375 
Q 46.1875 17.53125 46.1875 27.296875 
Q 46.1875 37.015625 41.984375 42.703125 
Q 37.796875 48.390625 30.609375 48.390625 
z
M 30.609375 56 
Q 42.328125 56 49.015625 48.375 
Q 55.71875 40.765625 55.71875 27.296875 
Q 55.71875 13.875 49.015625 6.21875 
Q 42.328125 -1.421875 30.609375 -1.421875 
Q 18.84375 -1.421875 12.171875 6.21875 
Q 5.515625 13.875 5.515625 27.296875 
Q 5.515625 40.765625 12.171875 48.375 
Q 18.84375 56 30.609375 56 
z
" id="DejaVuSans-111"/>
      <path d="M 41.109375 46.296875 
Q 39.59375 47.171875 37.8125 47.578125 
Q 36.03125 48 33.890625 48 
Q 26.265625 48 22.1875 43.046875 
Q 18.109375 38.09375 18.109375 28.8125 
L 18.109375 0 
L 9.078125 0 
L 9.078125 54.6875 
L 18.109375 54.6875 
L 18.109375 46.1875 
Q 20.953125 51.171875 25.484375 53.578125 
Q 30.03125 56 36.53125 56 
Q 37.453125 56 38.578125 55.875 
Q 39.703125 55.765625 41.0625 55.515625 
z
" id="DejaVuSans-114"/>
      <path d="M 11.71875 12.40625 
L 22.015625 12.40625 
L 22.015625 4 
L 14.015625 -11.625 
L 7.71875 -11.625 
L 11.71875 4 
z
" id="DejaVuSans-44"/>
      <path d="M 53.515625 70.515625 
L 53.515625 60.890625 
Q 47.90625 63.578125 42.921875 64.890625 
Q 37.9375 66.21875 33.296875 66.21875 
Q 25.25 66.21875 20.875 63.09375 
Q 16.5 59.96875 16.5 54.203125 
Q 16.5 49.359375 19.40625 46.890625 
Q 22.3125 44.4375 30.421875 42.921875 
L 36.375 41.703125 
Q 47.40625 39.59375 52.65625 34.296875 
Q 57.90625 29 57.90625 20.125 
Q 57.90625 9.515625 50.796875 4.046875 
Q 43.703125 -1.421875 29.984375 -1.421875 
Q 24.8125 -1.421875 18.96875 -0.25 
Q 13.140625 0.921875 6.890625 3.21875 
L 6.890625 13.375 
Q 12.890625 10.015625 18.65625 8.296875 
Q 24.421875 6.59375 29.984375 6.59375 
Q 38.421875 6.59375 43.015625 9.90625 
Q 47.609375 13.234375 47.609375 19.390625 
Q 47.609375 24.75 44.3125 27.78125 
Q 41.015625 30.8125 33.5 32.328125 
L 27.484375 33.5 
Q 16.453125 35.6875 11.515625 40.375 
Q 6.59375 45.0625 6.59375 53.421875 
Q 6.59375 63.09375 13.40625 68.65625 
Q 20.21875 74.21875 32.171875 74.21875 
Q 37.3125 74.21875 42.625 73.28125 
Q 47.953125 72.359375 53.515625 70.515625 
z
" id="DejaVuSans-83"/>
      <path d="M 8.5 21.578125 
L 8.5 54.6875 
L 17.484375 54.6875 
L 17.484375 21.921875 
Q 17.484375 14.15625 20.5 10.265625 
Q 23.53125 6.390625 29.59375 6.390625 
Q 36.859375 6.390625 41.078125 11.03125 
Q 45.3125 15.671875 45.3125 23.6875 
L 45.3125 54.6875 
L 54.296875 54.6875 
L 54.296875 0 
L 45.3125 0 
L 45.3125 8.40625 
Q 42.046875 3.421875 37.71875 1 
Q 33.40625 -1.421875 27.6875 -1.421875 
Q 18.265625 -1.421875 13.375 4.4375 
Q 8.5 10.296875 8.5 21.578125 
z
M 31.109375 56 
z
" id="DejaVuSans-117"/>
      <path d="M 18.3125 70.21875 
L 18.3125 54.6875 
L 36.8125 54.6875 
L 36.8125 47.703125 
L 18.3125 47.703125 
L 18.3125 18.015625 
Q 18.3125 11.328125 20.140625 9.421875 
Q 21.96875 7.515625 27.59375 7.515625 
L 36.8125 7.515625 
L 36.8125 0 
L 27.59375 0 
Q 17.1875 0 13.234375 3.875 
Q 9.28125 7.765625 9.28125 18.015625 
L 9.28125 47.703125 
L 2.6875 47.703125 
L 2.6875 54.6875 
L 9.28125 54.6875 
L 9.28125 70.21875 
z
" id="DejaVuSans-116"/>
      <path d="M 4.203125 54.6875 
L 13.1875 54.6875 
L 24.421875 12.015625 
L 35.59375 54.6875 
L 46.1875 54.6875 
L 57.421875 12.015625 
L 68.609375 54.6875 
L 77.59375 54.6875 
L 63.28125 0 
L 52.6875 0 
L 40.921875 44.828125 
L 29.109375 0 
L 18.5 0 
z
" id="DejaVuSans-119"/>
      <path d="M 44.28125 53.078125 
L 44.28125 44.578125 
Q 40.484375 46.53125 36.375 47.5 
Q 32.28125 48.484375 27.875 48.484375 
Q 21.1875 48.484375 17.84375 46.4375 
Q 14.5 44.390625 14.5 40.28125 
Q 14.5 37.15625 16.890625 35.375 
Q 19.28125 33.59375 26.515625 31.984375 
L 29.59375 31.296875 
Q 39.15625 29.25 43.1875 25.515625 
Q 47.21875 21.78125 47.21875 15.09375 
Q 47.21875 7.46875 41.1875 3.015625 
Q 35.15625 -1.421875 24.609375 -1.421875 
Q 20.21875 -1.421875 15.453125 -0.5625 
Q 10.6875 0.296875 5.421875 2 
L 5.421875 11.28125 
Q 10.40625 8.6875 15.234375 7.390625 
Q 20.0625 6.109375 24.8125 6.109375 
Q 31.15625 6.109375 34.5625 8.28125 
Q 37.984375 10.453125 37.984375 14.40625 
Q 37.984375 18.0625 35.515625 20.015625 
Q 33.0625 21.96875 24.703125 23.78125 
L 21.578125 24.515625 
Q 13.234375 26.265625 9.515625 29.90625 
Q 5.8125 33.546875 5.8125 39.890625 
Q 5.8125 47.609375 11.28125 51.796875 
Q 16.75 56 26.8125 56 
Q 31.78125 56 36.171875 55.265625 
Q 40.578125 54.546875 44.28125 53.078125 
z
" id="DejaVuSans-115"/>
      <path d="M 31 75.875 
Q 24.46875 64.65625 21.28125 53.65625 
Q 18.109375 42.671875 18.109375 31.390625 
Q 18.109375 20.125 21.3125 9.0625 
Q 24.515625 -2 31 -13.1875 
L 23.1875 -13.1875 
Q 15.875 -1.703125 12.234375 9.375 
Q 8.59375 20.453125 8.59375 31.390625 
Q 8.59375 42.28125 12.203125 53.3125 
Q 15.828125 64.359375 23.1875 75.875 
z
" id="DejaVuSans-40"/>
      <path d="M 52 44.1875 
Q 55.375 50.25 60.0625 53.125 
Q 64.75 56 71.09375 56 
Q 79.640625 56 84.28125 50.015625 
Q 88.921875 44.046875 88.921875 33.015625 
L 88.921875 0 
L 79.890625 0 
L 79.890625 32.71875 
Q 79.890625 40.578125 77.09375 44.375 
Q 74.3125 48.1875 68.609375 48.1875 
Q 61.625 48.1875 57.5625 43.546875 
Q 53.515625 38.921875 53.515625 30.90625 
L 53.515625 0 
L 44.484375 0 
L 44.484375 32.71875 
Q 44.484375 40.625 41.703125 44.40625 
Q 38.921875 48.1875 33.109375 48.1875 
Q 26.21875 48.1875 22.15625 43.53125 
Q 18.109375 38.875 18.109375 30.90625 
L 18.109375 0 
L 9.078125 0 
L 9.078125 54.6875 
L 18.109375 54.6875 
L 18.109375 46.1875 
Q 21.1875 51.21875 25.484375 53.609375 
Q 29.78125 56 35.6875 56 
Q 41.65625 56 45.828125 52.96875 
Q 50 49.953125 52 44.1875 
z
" id="DejaVuSans-109"/>
      <path d="M 8.015625 75.875 
L 15.828125 75.875 
Q 23.140625 64.359375 26.78125 53.3125 
Q 30.421875 42.28125 30.421875 31.390625 
Q 30.421875 20.453125 26.78125 9.375 
Q 23.140625 -1.703125 15.828125 -13.1875 
L 8.015625 -13.1875 
Q 14.5 -2 17.703125 9.0625 
Q 20.90625 20.125 20.90625 31.390625 
Q 20.90625 42.671875 17.703125 53.65625 
Q 14.5 64.65625 8.015625 75.875 
z
" id="DejaVuSans-41"/>
     </defs>
     <g transform="translate(424.682812 38.198438)scale(0.1 -0.1)">
      <use xlink:href="#DejaVuSans-75"/>
      <use x="60.576172" xlink:href="#DejaVuSans-111"/>
      <use x="121.757812" xlink:href="#DejaVuSans-114"/>
      <use x="160.621094" xlink:href="#DejaVuSans-101"/>
      <use x="222.144531" xlink:href="#DejaVuSans-97"/>
      <use x="283.423828" xlink:href="#DejaVuSans-44"/>
      <use x="315.210938" xlink:href="#DejaVuSans-32"/>
      <use x="346.998047" xlink:href="#DejaVuSans-83"/>
      <use x="410.474609" xlink:href="#DejaVuSans-111"/>
      <use x="471.65625" xlink:href="#DejaVuSans-117"/>
      <use x="535.035156" xlink:href="#DejaVuSans-116"/>
      <use x="574.244141" xlink:href="#DejaVuSans-104"/>
      <use x="637.623047" xlink:href="#DejaVuSans-32"/>
      <use x="669.410156" xlink:href="#DejaVuSans-110"/>
      <use x="732.789062" xlink:href="#DejaVuSans-101"/>
      <use x="794.3125" xlink:href="#DejaVuSans-119"/>
      <use x="876.099609" xlink:href="#DejaVuSans-32"/>
      <use x="907.886719" xlink:href="#DejaVuSans-100"/>
      <use x="971.363281" xlink:href="#DejaVuSans-101"/>
      <use x="1032.886719" xlink:href="#DejaVuSans-97"/>
      <use x="1094.166016" xlink:href="#DejaVuSans-116"/>
      <use x="1133.375" xlink:href="#DejaVuSans-104"/>
      <use x="1196.753906" xlink:href="#DejaVuSans-115"/>
      <use x="1248.853516" xlink:href="#DejaVuSans-32"/>
      <use x="1280.640625" xlink:href="#DejaVuSans-40"/>
      <use x="1319.654297" xlink:href="#DejaVuSans-114"/>
      <use x="1358.517578" xlink:href="#DejaVuSans-111"/>
      <use x="1419.699219" xlink:href="#DejaVuSans-108"/>
      <use x="1447.482422" xlink:href="#DejaVuSans-108"/>
      <use x="1475.265625" xlink:href="#DejaVuSans-105"/>
      <use x="1503.048828" xlink:href="#DejaVuSans-110"/>
      <use x="1566.427734" xlink:href="#DejaVuSans-103"/>
      <use x="1629.904297" xlink:href="#DejaVuSans-32"/>
      <use x="1661.691406" xlink:href="#DejaVuSans-55"/>
      <use x="1725.314453" xlink:href="#DejaVuSans-100"/>
      <use x="1788.791016" xlink:href="#DejaVuSans-32"/>
      <use x="1820.578125" xlink:href="#DejaVuSans-109"/>
      <use x="1917.990234" xlink:href="#DejaVuSans-101"/>
      <use x="1979.513672" xlink:href="#DejaVuSans-97"/>
      <use x="2040.792969" xlink:href="#DejaVuSans-110"/>
      <use x="2104.171875" xlink:href="#DejaVuSans-41"/>
     </g>
    </g>
    <g id="patch_275">
     <path d="M 396.682812 52.876563 
L 416.682812 52.876563 
L 416.682812 45.876563 
L 396.682812 45.876563 
z
" style="fill:#e24a33;opacity:0.2;"/>
    </g>
    <g id="text_24">
     <!-- Korea, South new deaths -->
     <g transform="translate(424.682812 52.876563)scale(0.1 -0.1)">
      <use xlink:href="#DejaVuSans-75"/>
      <use x="60.576172" xlink:href="#DejaVuSans-111"/>
      <use x="121.757812" xlink:href="#DejaVuSans-114"/>
      <use x="160.621094" xlink:href="#DejaVuSans-101"/>
      <use x="222.144531" xlink:href="#DejaVuSans-97"/>
      <use x="283.423828" xlink:href="#DejaVuSans-44"/>
      <use x="315.210938" xlink:href="#DejaVuSans-32"/>
      <use x="346.998047" xlink:href="#DejaVuSans-83"/>
      <use x="410.474609" xlink:href="#DejaVuSans-111"/>
      <use x="471.65625" xlink:href="#DejaVuSans-117"/>
      <use x="535.035156" xlink:href="#DejaVuSans-116"/>
      <use x="574.244141" xlink:href="#DejaVuSans-104"/>
      <use x="637.623047" xlink:href="#DejaVuSans-32"/>
      <use x="669.410156" xlink:href="#DejaVuSans-110"/>
      <use x="732.789062" xlink:href="#DejaVuSans-101"/>
      <use x="794.3125" xlink:href="#DejaVuSans-119"/>
      <use x="876.099609" xlink:href="#DejaVuSans-32"/>
      <use x="907.886719" xlink:href="#DejaVuSans-100"/>
      <use x="971.363281" xlink:href="#DejaVuSans-101"/>
      <use x="1032.886719" xlink:href="#DejaVuSans-97"/>
      <use x="1094.166016" xlink:href="#DejaVuSans-116"/>
      <use x="1133.375" xlink:href="#DejaVuSans-104"/>
      <use x="1196.753906" xlink:href="#DejaVuSans-115"/>
     </g>
    </g>
   </g>
  </g>
 </g>
 <defs>
  <clipPath id="p1fa7af2260">
   <rect height="135.9" width="558" x="90" y="21.6"/>
  </clipPath>
 </defs>
</svg>
