<?xml version="1.0" encoding="utf-8" standalone="no"?>
<!DOCTYPE svg PUBLIC "-//W3C//DTD SVG 1.1//EN"
  "http://www.w3.org/Graphics/SVG/1.1/DTD/svg11.dtd">
<!-- Created with matplotlib (https://matplotlib.org/) -->
<svg height="432pt" version="1.1" viewBox="0 0 720 432" width="720pt" xmlns="http://www.w3.org/2000/svg" xmlns:xlink="http://www.w3.org/1999/xlink">
 <defs>
  <style type="text/css">
*{stroke-linecap:butt;stroke-linejoin:round;}
  </style>
 </defs>
 <g id="figure_1">
  <g id="patch_1">
   <path d="M 0 432 
L 720 432 
L 720 0 
L 0 0 
z
" style="fill:#ffffff;"/>
  </g>
  <g id="axes_1">
   <g id="patch_2">
    <path d="M 90 378 
L 648 378 
L 648 229.745455 
L 90 229.745455 
z
" style="fill:#e5e5e5;"/>
   </g>
   <g id="matplotlib.axis_1">
    <g id="xtick_1">
     <g id="line2d_1">
      <path clip-path="url(#pd3b7f30945)" d="M 91.914237 378 
L 91.914237 229.745455 
" style="fill:none;stroke:#ffffff;stroke-linecap:square;stroke-width:0.8;"/>
     </g>
     <g id="line2d_2">
      <defs>
       <path d="M 0 0 
L 0 3.5 
" id="m7a33a21b4a" style="stroke:#555555;stroke-width:0.8;"/>
      </defs>
      <g>
       <use style="fill:#555555;stroke:#555555;stroke-width:0.8;" x="91.914237" xlink:href="#m7a33a21b4a" y="378"/>
      </g>
     </g>
     <g id="text_1">
      <!-- 0 -->
      <defs>
       <path d="M 31.78125 66.40625 
Q 24.171875 66.40625 20.328125 58.90625 
Q 16.5 51.421875 16.5 36.375 
Q 16.5 21.390625 20.328125 13.890625 
Q 24.171875 6.390625 31.78125 6.390625 
Q 39.453125 6.390625 43.28125 13.890625 
Q 47.125 21.390625 47.125 36.375 
Q 47.125 51.421875 43.28125 58.90625 
Q 39.453125 66.40625 31.78125 66.40625 
z
M 31.78125 74.21875 
Q 44.046875 74.21875 50.515625 64.515625 
Q 56.984375 54.828125 56.984375 36.375 
Q 56.984375 17.96875 50.515625 8.265625 
Q 44.046875 -1.421875 31.78125 -1.421875 
Q 19.53125 -1.421875 13.0625 8.265625 
Q 6.59375 17.96875 6.59375 36.375 
Q 6.59375 54.828125 13.0625 64.515625 
Q 19.53125 74.21875 31.78125 74.21875 
z
" id="DejaVuSans-48"/>
      </defs>
      <g style="fill:#555555;" transform="translate(88.732987 392.598437)scale(0.1 -0.1)">
       <use xlink:href="#DejaVuSans-48"/>
      </g>
     </g>
    </g>
    <g id="xtick_2">
     <g id="line2d_3">
      <path clip-path="url(#pd3b7f30945)" d="M 187.626072 378 
L 187.626072 229.745455 
" style="fill:none;stroke:#ffffff;stroke-linecap:square;stroke-width:0.8;"/>
     </g>
     <g id="line2d_4">
      <g>
       <use style="fill:#555555;stroke:#555555;stroke-width:0.8;" x="187.626072" xlink:href="#m7a33a21b4a" y="378"/>
      </g>
     </g>
     <g id="text_2">
      <!-- 50 -->
      <defs>
       <path d="M 10.796875 72.90625 
L 49.515625 72.90625 
L 49.515625 64.59375 
L 19.828125 64.59375 
L 19.828125 46.734375 
Q 21.96875 47.46875 24.109375 47.828125 
Q 26.265625 48.1875 28.421875 48.1875 
Q 40.625 48.1875 47.75 41.5 
Q 54.890625 34.8125 54.890625 23.390625 
Q 54.890625 11.625 47.5625 5.09375 
Q 40.234375 -1.421875 26.90625 -1.421875 
Q 22.3125 -1.421875 17.546875 -0.640625 
Q 12.796875 0.140625 7.71875 1.703125 
L 7.71875 11.625 
Q 12.109375 9.234375 16.796875 8.0625 
Q 21.484375 6.890625 26.703125 6.890625 
Q 35.15625 6.890625 40.078125 11.328125 
Q 45.015625 15.765625 45.015625 23.390625 
Q 45.015625 31 40.078125 35.4375 
Q 35.15625 39.890625 26.703125 39.890625 
Q 22.75 39.890625 18.8125 39.015625 
Q 14.890625 38.140625 10.796875 36.28125 
z
" id="DejaVuSans-53"/>
      </defs>
      <g style="fill:#555555;" transform="translate(181.263572 392.598437)scale(0.1 -0.1)">
       <use xlink:href="#DejaVuSans-53"/>
       <use x="63.623047" xlink:href="#DejaVuSans-48"/>
      </g>
     </g>
    </g>
    <g id="xtick_3">
     <g id="line2d_5">
      <path clip-path="url(#pd3b7f30945)" d="M 283.337907 378 
L 283.337907 229.745455 
" style="fill:none;stroke:#ffffff;stroke-linecap:square;stroke-width:0.8;"/>
     </g>
     <g id="line2d_6">
      <g>
       <use style="fill:#555555;stroke:#555555;stroke-width:0.8;" x="283.337907" xlink:href="#m7a33a21b4a" y="378"/>
      </g>
     </g>
     <g id="text_3">
      <!-- 100 -->
      <defs>
       <path d="M 12.40625 8.296875 
L 28.515625 8.296875 
L 28.515625 63.921875 
L 10.984375 60.40625 
L 10.984375 69.390625 
L 28.421875 72.90625 
L 38.28125 72.90625 
L 38.28125 8.296875 
L 54.390625 8.296875 
L 54.390625 0 
L 12.40625 0 
z
" id="DejaVuSans-49"/>
      </defs>
      <g style="fill:#555555;" transform="translate(273.794157 392.598437)scale(0.1 -0.1)">
       <use xlink:href="#DejaVuSans-49"/>
       <use x="63.623047" xlink:href="#DejaVuSans-48"/>
       <use x="127.246094" xlink:href="#DejaVuSans-48"/>
      </g>
     </g>
    </g>
    <g id="xtick_4">
     <g id="line2d_7">
      <path clip-path="url(#pd3b7f30945)" d="M 379.049743 378 
L 379.049743 229.745455 
" style="fill:none;stroke:#ffffff;stroke-linecap:square;stroke-width:0.8;"/>
     </g>
     <g id="line2d_8">
      <g>
       <use style="fill:#555555;stroke:#555555;stroke-width:0.8;" x="379.049743" xlink:href="#m7a33a21b4a" y="378"/>
      </g>
     </g>
     <g id="text_4">
      <!-- 150 -->
      <g style="fill:#555555;" transform="translate(369.505993 392.598437)scale(0.1 -0.1)">
       <use xlink:href="#DejaVuSans-49"/>
       <use x="63.623047" xlink:href="#DejaVuSans-53"/>
       <use x="127.246094" xlink:href="#DejaVuSans-48"/>
      </g>
     </g>
    </g>
    <g id="xtick_5">
     <g id="line2d_9">
      <path clip-path="url(#pd3b7f30945)" d="M 474.761578 378 
L 474.761578 229.745455 
" style="fill:none;stroke:#ffffff;stroke-linecap:square;stroke-width:0.8;"/>
     </g>
     <g id="line2d_10">
      <g>
       <use style="fill:#555555;stroke:#555555;stroke-width:0.8;" x="474.761578" xlink:href="#m7a33a21b4a" y="378"/>
      </g>
     </g>
     <g id="text_5">
      <!-- 200 -->
      <defs>
       <path d="M 19.1875 8.296875 
L 53.609375 8.296875 
L 53.609375 0 
L 7.328125 0 
L 7.328125 8.296875 
Q 12.9375 14.109375 22.625 23.890625 
Q 32.328125 33.6875 34.8125 36.53125 
Q 39.546875 41.84375 41.421875 45.53125 
Q 43.3125 49.21875 43.3125 52.78125 
Q 43.3125 58.59375 39.234375 62.25 
Q 35.15625 65.921875 28.609375 65.921875 
Q 23.96875 65.921875 18.8125 64.3125 
Q 13.671875 62.703125 7.8125 59.421875 
L 7.8125 69.390625 
Q 13.765625 71.78125 18.9375 73 
Q 24.125 74.21875 28.421875 74.21875 
Q 39.75 74.21875 46.484375 68.546875 
Q 53.21875 62.890625 53.21875 53.421875 
Q 53.21875 48.921875 51.53125 44.890625 
Q 49.859375 40.875 45.40625 35.40625 
Q 44.1875 33.984375 37.640625 27.21875 
Q 31.109375 20.453125 19.1875 8.296875 
z
" id="DejaVuSans-50"/>
      </defs>
      <g style="fill:#555555;" transform="translate(465.217828 392.598437)scale(0.1 -0.1)">
       <use xlink:href="#DejaVuSans-50"/>
       <use x="63.623047" xlink:href="#DejaVuSans-48"/>
       <use x="127.246094" xlink:href="#DejaVuSans-48"/>
      </g>
     </g>
    </g>
    <g id="xtick_6">
     <g id="line2d_11">
      <path clip-path="url(#pd3b7f30945)" d="M 570.473413 378 
L 570.473413 229.745455 
" style="fill:none;stroke:#ffffff;stroke-linecap:square;stroke-width:0.8;"/>
     </g>
     <g id="line2d_12">
      <g>
       <use style="fill:#555555;stroke:#555555;stroke-width:0.8;" x="570.473413" xlink:href="#m7a33a21b4a" y="378"/>
      </g>
     </g>
     <g id="text_6">
      <!-- 250 -->
      <g style="fill:#555555;" transform="translate(560.929663 392.598437)scale(0.1 -0.1)">
       <use xlink:href="#DejaVuSans-50"/>
       <use x="63.623047" xlink:href="#DejaVuSans-53"/>
       <use x="127.246094" xlink:href="#DejaVuSans-48"/>
      </g>
     </g>
    </g>
    <g id="text_7">
     <!-- days since 3 deaths -->
     <defs>
      <path d="M 45.40625 46.390625 
L 45.40625 75.984375 
L 54.390625 75.984375 
L 54.390625 0 
L 45.40625 0 
L 45.40625 8.203125 
Q 42.578125 3.328125 38.25 0.953125 
Q 33.9375 -1.421875 27.875 -1.421875 
Q 17.96875 -1.421875 11.734375 6.484375 
Q 5.515625 14.40625 5.515625 27.296875 
Q 5.515625 40.1875 11.734375 48.09375 
Q 17.96875 56 27.875 56 
Q 33.9375 56 38.25 53.625 
Q 42.578125 51.265625 45.40625 46.390625 
z
M 14.796875 27.296875 
Q 14.796875 17.390625 18.875 11.75 
Q 22.953125 6.109375 30.078125 6.109375 
Q 37.203125 6.109375 41.296875 11.75 
Q 45.40625 17.390625 45.40625 27.296875 
Q 45.40625 37.203125 41.296875 42.84375 
Q 37.203125 48.484375 30.078125 48.484375 
Q 22.953125 48.484375 18.875 42.84375 
Q 14.796875 37.203125 14.796875 27.296875 
z
" id="DejaVuSans-100"/>
      <path d="M 34.28125 27.484375 
Q 23.390625 27.484375 19.1875 25 
Q 14.984375 22.515625 14.984375 16.5 
Q 14.984375 11.71875 18.140625 8.90625 
Q 21.296875 6.109375 26.703125 6.109375 
Q 34.1875 6.109375 38.703125 11.40625 
Q 43.21875 16.703125 43.21875 25.484375 
L 43.21875 27.484375 
z
M 52.203125 31.203125 
L 52.203125 0 
L 43.21875 0 
L 43.21875 8.296875 
Q 40.140625 3.328125 35.546875 0.953125 
Q 30.953125 -1.421875 24.3125 -1.421875 
Q 15.921875 -1.421875 10.953125 3.296875 
Q 6 8.015625 6 15.921875 
Q 6 25.140625 12.171875 29.828125 
Q 18.359375 34.515625 30.609375 34.515625 
L 43.21875 34.515625 
L 43.21875 35.40625 
Q 43.21875 41.609375 39.140625 45 
Q 35.0625 48.390625 27.6875 48.390625 
Q 23 48.390625 18.546875 47.265625 
Q 14.109375 46.140625 10.015625 43.890625 
L 10.015625 52.203125 
Q 14.9375 54.109375 19.578125 55.046875 
Q 24.21875 56 28.609375 56 
Q 40.484375 56 46.34375 49.84375 
Q 52.203125 43.703125 52.203125 31.203125 
z
" id="DejaVuSans-97"/>
      <path d="M 32.171875 -5.078125 
Q 28.375 -14.84375 24.75 -17.8125 
Q 21.140625 -20.796875 15.09375 -20.796875 
L 7.90625 -20.796875 
L 7.90625 -13.28125 
L 13.1875 -13.28125 
Q 16.890625 -13.28125 18.9375 -11.515625 
Q 21 -9.765625 23.484375 -3.21875 
L 25.09375 0.875 
L 2.984375 54.6875 
L 12.5 54.6875 
L 29.59375 11.921875 
L 46.6875 54.6875 
L 56.203125 54.6875 
z
" id="DejaVuSans-121"/>
      <path d="M 44.28125 53.078125 
L 44.28125 44.578125 
Q 40.484375 46.53125 36.375 47.5 
Q 32.28125 48.484375 27.875 48.484375 
Q 21.1875 48.484375 17.84375 46.4375 
Q 14.5 44.390625 14.5 40.28125 
Q 14.5 37.15625 16.890625 35.375 
Q 19.28125 33.59375 26.515625 31.984375 
L 29.59375 31.296875 
Q 39.15625 29.25 43.1875 25.515625 
Q 47.21875 21.78125 47.21875 15.09375 
Q 47.21875 7.46875 41.1875 3.015625 
Q 35.15625 -1.421875 24.609375 -1.421875 
Q 20.21875 -1.421875 15.453125 -0.5625 
Q 10.6875 0.296875 5.421875 2 
L 5.421875 11.28125 
Q 10.40625 8.6875 15.234375 7.390625 
Q 20.0625 6.109375 24.8125 6.109375 
Q 31.15625 6.109375 34.5625 8.28125 
Q 37.984375 10.453125 37.984375 14.40625 
Q 37.984375 18.0625 35.515625 20.015625 
Q 33.0625 21.96875 24.703125 23.78125 
L 21.578125 24.515625 
Q 13.234375 26.265625 9.515625 29.90625 
Q 5.8125 33.546875 5.8125 39.890625 
Q 5.8125 47.609375 11.28125 51.796875 
Q 16.75 56 26.8125 56 
Q 31.78125 56 36.171875 55.265625 
Q 40.578125 54.546875 44.28125 53.078125 
z
" id="DejaVuSans-115"/>
      <path id="DejaVuSans-32"/>
      <path d="M 9.421875 54.6875 
L 18.40625 54.6875 
L 18.40625 0 
L 9.421875 0 
z
M 9.421875 75.984375 
L 18.40625 75.984375 
L 18.40625 64.59375 
L 9.421875 64.59375 
z
" id="DejaVuSans-105"/>
      <path d="M 54.890625 33.015625 
L 54.890625 0 
L 45.90625 0 
L 45.90625 32.71875 
Q 45.90625 40.484375 42.875 44.328125 
Q 39.84375 48.1875 33.796875 48.1875 
Q 26.515625 48.1875 22.3125 43.546875 
Q 18.109375 38.921875 18.109375 30.90625 
L 18.109375 0 
L 9.078125 0 
L 9.078125 54.6875 
L 18.109375 54.6875 
L 18.109375 46.1875 
Q 21.34375 51.125 25.703125 53.5625 
Q 30.078125 56 35.796875 56 
Q 45.21875 56 50.046875 50.171875 
Q 54.890625 44.34375 54.890625 33.015625 
z
" id="DejaVuSans-110"/>
      <path d="M 48.78125 52.59375 
L 48.78125 44.1875 
Q 44.96875 46.296875 41.140625 47.34375 
Q 37.3125 48.390625 33.40625 48.390625 
Q 24.65625 48.390625 19.8125 42.84375 
Q 14.984375 37.3125 14.984375 27.296875 
Q 14.984375 17.28125 19.8125 11.734375 
Q 24.65625 6.203125 33.40625 6.203125 
Q 37.3125 6.203125 41.140625 7.25 
Q 44.96875 8.296875 48.78125 10.40625 
L 48.78125 2.09375 
Q 45.015625 0.34375 40.984375 -0.53125 
Q 36.96875 -1.421875 32.421875 -1.421875 
Q 20.0625 -1.421875 12.78125 6.34375 
Q 5.515625 14.109375 5.515625 27.296875 
Q 5.515625 40.671875 12.859375 48.328125 
Q 20.21875 56 33.015625 56 
Q 37.15625 56 41.109375 55.140625 
Q 45.0625 54.296875 48.78125 52.59375 
z
" id="DejaVuSans-99"/>
      <path d="M 56.203125 29.59375 
L 56.203125 25.203125 
L 14.890625 25.203125 
Q 15.484375 15.921875 20.484375 11.0625 
Q 25.484375 6.203125 34.421875 6.203125 
Q 39.59375 6.203125 44.453125 7.46875 
Q 49.3125 8.734375 54.109375 11.28125 
L 54.109375 2.78125 
Q 49.265625 0.734375 44.1875 -0.34375 
Q 39.109375 -1.421875 33.890625 -1.421875 
Q 20.796875 -1.421875 13.15625 6.1875 
Q 5.515625 13.8125 5.515625 26.8125 
Q 5.515625 40.234375 12.765625 48.109375 
Q 20.015625 56 32.328125 56 
Q 43.359375 56 49.78125 48.890625 
Q 56.203125 41.796875 56.203125 29.59375 
z
M 47.21875 32.234375 
Q 47.125 39.59375 43.09375 43.984375 
Q 39.0625 48.390625 32.421875 48.390625 
Q 24.90625 48.390625 20.390625 44.140625 
Q 15.875 39.890625 15.1875 32.171875 
z
" id="DejaVuSans-101"/>
      <path d="M 40.578125 39.3125 
Q 47.65625 37.796875 51.625 33 
Q 55.609375 28.21875 55.609375 21.1875 
Q 55.609375 10.40625 48.1875 4.484375 
Q 40.765625 -1.421875 27.09375 -1.421875 
Q 22.515625 -1.421875 17.65625 -0.515625 
Q 12.796875 0.390625 7.625 2.203125 
L 7.625 11.71875 
Q 11.71875 9.328125 16.59375 8.109375 
Q 21.484375 6.890625 26.8125 6.890625 
Q 36.078125 6.890625 40.9375 10.546875 
Q 45.796875 14.203125 45.796875 21.1875 
Q 45.796875 27.640625 41.28125 31.265625 
Q 36.765625 34.90625 28.71875 34.90625 
L 20.21875 34.90625 
L 20.21875 43.015625 
L 29.109375 43.015625 
Q 36.375 43.015625 40.234375 45.921875 
Q 44.09375 48.828125 44.09375 54.296875 
Q 44.09375 59.90625 40.109375 62.90625 
Q 36.140625 65.921875 28.71875 65.921875 
Q 24.65625 65.921875 20.015625 65.03125 
Q 15.375 64.15625 9.8125 62.3125 
L 9.8125 71.09375 
Q 15.4375 72.65625 20.34375 73.4375 
Q 25.25 74.21875 29.59375 74.21875 
Q 40.828125 74.21875 47.359375 69.109375 
Q 53.90625 64.015625 53.90625 55.328125 
Q 53.90625 49.265625 50.4375 45.09375 
Q 46.96875 40.921875 40.578125 39.3125 
z
" id="DejaVuSans-51"/>
      <path d="M 18.3125 70.21875 
L 18.3125 54.6875 
L 36.8125 54.6875 
L 36.8125 47.703125 
L 18.3125 47.703125 
L 18.3125 18.015625 
Q 18.3125 11.328125 20.140625 9.421875 
Q 21.96875 7.515625 27.59375 7.515625 
L 36.8125 7.515625 
L 36.8125 0 
L 27.59375 0 
Q 17.1875 0 13.234375 3.875 
Q 9.28125 7.765625 9.28125 18.015625 
L 9.28125 47.703125 
L 2.6875 47.703125 
L 2.6875 54.6875 
L 9.28125 54.6875 
L 9.28125 70.21875 
z
" id="DejaVuSans-116"/>
      <path d="M 54.890625 33.015625 
L 54.890625 0 
L 45.90625 0 
L 45.90625 32.71875 
Q 45.90625 40.484375 42.875 44.328125 
Q 39.84375 48.1875 33.796875 48.1875 
Q 26.515625 48.1875 22.3125 43.546875 
Q 18.109375 38.921875 18.109375 30.90625 
L 18.109375 0 
L 9.078125 0 
L 9.078125 75.984375 
L 18.109375 75.984375 
L 18.109375 46.1875 
Q 21.34375 51.125 25.703125 53.5625 
Q 30.078125 56 35.796875 56 
Q 45.21875 56 50.046875 50.171875 
Q 54.890625 44.34375 54.890625 33.015625 
z
" id="DejaVuSans-104"/>
     </defs>
     <g style="fill:#555555;" transform="translate(309.255 407.79625)scale(0.12 -0.12)">
      <use xlink:href="#DejaVuSans-100"/>
      <use x="63.476562" xlink:href="#DejaVuSans-97"/>
      <use x="124.755859" xlink:href="#DejaVuSans-121"/>
      <use x="183.935547" xlink:href="#DejaVuSans-115"/>
      <use x="236.035156" xlink:href="#DejaVuSans-32"/>
      <use x="267.822266" xlink:href="#DejaVuSans-115"/>
      <use x="319.921875" xlink:href="#DejaVuSans-105"/>
      <use x="347.705078" xlink:href="#DejaVuSans-110"/>
      <use x="411.083984" xlink:href="#DejaVuSans-99"/>
      <use x="466.064453" xlink:href="#DejaVuSans-101"/>
      <use x="527.587891" xlink:href="#DejaVuSans-32"/>
      <use x="559.375" xlink:href="#DejaVuSans-51"/>
      <use x="622.998047" xlink:href="#DejaVuSans-32"/>
      <use x="654.785156" xlink:href="#DejaVuSans-100"/>
      <use x="718.261719" xlink:href="#DejaVuSans-101"/>
      <use x="779.785156" xlink:href="#DejaVuSans-97"/>
      <use x="841.064453" xlink:href="#DejaVuSans-116"/>
      <use x="880.273438" xlink:href="#DejaVuSans-104"/>
      <use x="943.652344" xlink:href="#DejaVuSans-115"/>
     </g>
    </g>
   </g>
   <g id="matplotlib.axis_2">
    <g id="ytick_1">
     <g id="line2d_13">
      <path clip-path="url(#pd3b7f30945)" d="M 90 378 
L 648 378 
" style="fill:none;stroke:#ffffff;stroke-linecap:square;stroke-width:0.8;"/>
     </g>
     <g id="line2d_14">
      <defs>
       <path d="M 0 0 
L -3.5 0 
" id="m49308c203e" style="stroke:#555555;stroke-width:0.8;"/>
      </defs>
      <g>
       <use style="fill:#555555;stroke:#555555;stroke-width:0.8;" x="90" xlink:href="#m49308c203e" y="378"/>
      </g>
     </g>
     <g id="line2d_15">
      <defs>
       <path d="M 0 0 
L 3.5 0 
" id="m4d206d92c8" style="stroke:#555555;stroke-width:0.8;"/>
      </defs>
      <g>
       <use style="fill:#555555;stroke:#555555;stroke-width:0.8;" x="648" xlink:href="#m4d206d92c8" y="378"/>
      </g>
     </g>
     <g id="text_8">
      <!-- 0.01 -->
      <defs>
       <path d="M 10.6875 12.40625 
L 21 12.40625 
L 21 0 
L 10.6875 0 
z
" id="DejaVuSans-46"/>
      </defs>
      <g style="fill:#555555;" transform="translate(60.734375 381.799219)scale(0.1 -0.1)">
       <use xlink:href="#DejaVuSans-48"/>
       <use x="63.623047" xlink:href="#DejaVuSans-46"/>
       <use x="95.410156" xlink:href="#DejaVuSans-48"/>
       <use x="159.033203" xlink:href="#DejaVuSans-49"/>
      </g>
     </g>
     <g id="text_9">
      <!-- 0.01 -->
      <g style="fill:#555555;" transform="translate(655 381.799219)scale(0.1 -0.1)">
       <use xlink:href="#DejaVuSans-48"/>
       <use x="63.623047" xlink:href="#DejaVuSans-46"/>
       <use x="95.410156" xlink:href="#DejaVuSans-48"/>
       <use x="159.033203" xlink:href="#DejaVuSans-49"/>
      </g>
     </g>
    </g>
    <g id="ytick_2">
     <g id="line2d_16">
      <path clip-path="url(#pd3b7f30945)" d="M 90 314.911108 
L 648 314.911108 
" style="fill:none;stroke:#ffffff;stroke-linecap:square;stroke-width:0.8;"/>
     </g>
     <g id="line2d_17">
      <g>
       <use style="fill:#555555;stroke:#555555;stroke-width:0.8;" x="90" xlink:href="#m49308c203e" y="314.911108"/>
      </g>
     </g>
     <g id="line2d_18">
      <g>
       <use style="fill:#555555;stroke:#555555;stroke-width:0.8;" x="648" xlink:href="#m4d206d92c8" y="314.911108"/>
      </g>
     </g>
     <g id="text_10">
      <!-- 0.1 -->
      <g style="fill:#555555;" transform="translate(67.096875 318.710327)scale(0.1 -0.1)">
       <use xlink:href="#DejaVuSans-48"/>
       <use x="63.623047" xlink:href="#DejaVuSans-46"/>
       <use x="95.410156" xlink:href="#DejaVuSans-49"/>
      </g>
     </g>
     <g id="text_11">
      <!-- 0.1 -->
      <g style="fill:#555555;" transform="translate(655 318.710327)scale(0.1 -0.1)">
       <use xlink:href="#DejaVuSans-48"/>
       <use x="63.623047" xlink:href="#DejaVuSans-46"/>
       <use x="95.410156" xlink:href="#DejaVuSans-49"/>
      </g>
     </g>
    </g>
    <g id="ytick_3">
     <g id="line2d_19">
      <path clip-path="url(#pd3b7f30945)" d="M 90 251.822217 
L 648 251.822217 
" style="fill:none;stroke:#ffffff;stroke-linecap:square;stroke-width:0.8;"/>
     </g>
     <g id="line2d_20">
      <g>
       <use style="fill:#555555;stroke:#555555;stroke-width:0.8;" x="90" xlink:href="#m49308c203e" y="251.822217"/>
      </g>
     </g>
     <g id="line2d_21">
      <g>
       <use style="fill:#555555;stroke:#555555;stroke-width:0.8;" x="648" xlink:href="#m4d206d92c8" y="251.822217"/>
      </g>
     </g>
     <g id="text_12">
      <!-- 1 -->
      <g style="fill:#555555;" transform="translate(76.6375 255.621435)scale(0.1 -0.1)">
       <use xlink:href="#DejaVuSans-49"/>
      </g>
     </g>
     <g id="text_13">
      <!-- 1 -->
      <g style="fill:#555555;" transform="translate(655 255.621435)scale(0.1 -0.1)">
       <use xlink:href="#DejaVuSans-49"/>
      </g>
     </g>
    </g>
    <g id="ytick_4">
     <g id="line2d_22">
      <defs>
       <path d="M 0 0 
L -2 0 
" id="mb9934a5cd3" style="stroke:#555555;stroke-width:0.6;"/>
      </defs>
      <g>
       <use style="fill:#555555;stroke:#555555;stroke-width:0.6;" x="90" xlink:href="#mb9934a5cd3" y="359.008351"/>
      </g>
     </g>
     <g id="line2d_23">
      <defs>
       <path d="M 0 0 
L 2 0 
" id="m608b16a16e" style="stroke:#555555;stroke-width:0.6;"/>
      </defs>
      <g>
       <use style="fill:#555555;stroke:#555555;stroke-width:0.6;" x="648" xlink:href="#m608b16a16e" y="359.008351"/>
      </g>
     </g>
    </g>
    <g id="ytick_5">
     <g id="line2d_24">
      <g>
       <use style="fill:#555555;stroke:#555555;stroke-width:0.6;" x="90" xlink:href="#mb9934a5cd3" y="347.898949"/>
      </g>
     </g>
     <g id="line2d_25">
      <g>
       <use style="fill:#555555;stroke:#555555;stroke-width:0.6;" x="648" xlink:href="#m608b16a16e" y="347.898949"/>
      </g>
     </g>
    </g>
    <g id="ytick_6">
     <g id="line2d_26">
      <g>
       <use style="fill:#555555;stroke:#555555;stroke-width:0.6;" x="90" xlink:href="#mb9934a5cd3" y="340.016702"/>
      </g>
     </g>
     <g id="line2d_27">
      <g>
       <use style="fill:#555555;stroke:#555555;stroke-width:0.6;" x="648" xlink:href="#m608b16a16e" y="340.016702"/>
      </g>
     </g>
    </g>
    <g id="ytick_7">
     <g id="line2d_28">
      <g>
       <use style="fill:#555555;stroke:#555555;stroke-width:0.6;" x="90" xlink:href="#mb9934a5cd3" y="333.902757"/>
      </g>
     </g>
     <g id="line2d_29">
      <g>
       <use style="fill:#555555;stroke:#555555;stroke-width:0.6;" x="648" xlink:href="#m608b16a16e" y="333.902757"/>
      </g>
     </g>
    </g>
    <g id="ytick_8">
     <g id="line2d_30">
      <g>
       <use style="fill:#555555;stroke:#555555;stroke-width:0.6;" x="90" xlink:href="#mb9934a5cd3" y="328.9073"/>
      </g>
     </g>
     <g id="line2d_31">
      <g>
       <use style="fill:#555555;stroke:#555555;stroke-width:0.6;" x="648" xlink:href="#m608b16a16e" y="328.9073"/>
      </g>
     </g>
    </g>
    <g id="ytick_9">
     <g id="line2d_32">
      <g>
       <use style="fill:#555555;stroke:#555555;stroke-width:0.6;" x="90" xlink:href="#mb9934a5cd3" y="324.683701"/>
      </g>
     </g>
     <g id="line2d_33">
      <g>
       <use style="fill:#555555;stroke:#555555;stroke-width:0.6;" x="648" xlink:href="#m608b16a16e" y="324.683701"/>
      </g>
     </g>
    </g>
    <g id="ytick_10">
     <g id="line2d_34">
      <g>
       <use style="fill:#555555;stroke:#555555;stroke-width:0.6;" x="90" xlink:href="#mb9934a5cd3" y="321.025054"/>
      </g>
     </g>
     <g id="line2d_35">
      <g>
       <use style="fill:#555555;stroke:#555555;stroke-width:0.6;" x="648" xlink:href="#m608b16a16e" y="321.025054"/>
      </g>
     </g>
    </g>
    <g id="ytick_11">
     <g id="line2d_36">
      <g>
       <use style="fill:#555555;stroke:#555555;stroke-width:0.6;" x="90" xlink:href="#mb9934a5cd3" y="317.797898"/>
      </g>
     </g>
     <g id="line2d_37">
      <g>
       <use style="fill:#555555;stroke:#555555;stroke-width:0.6;" x="648" xlink:href="#m608b16a16e" y="317.797898"/>
      </g>
     </g>
    </g>
    <g id="ytick_12">
     <g id="line2d_38">
      <g>
       <use style="fill:#555555;stroke:#555555;stroke-width:0.6;" x="90" xlink:href="#mb9934a5cd3" y="295.919459"/>
      </g>
     </g>
     <g id="line2d_39">
      <g>
       <use style="fill:#555555;stroke:#555555;stroke-width:0.6;" x="648" xlink:href="#m608b16a16e" y="295.919459"/>
      </g>
     </g>
    </g>
    <g id="ytick_13">
     <g id="line2d_40">
      <g>
       <use style="fill:#555555;stroke:#555555;stroke-width:0.6;" x="90" xlink:href="#mb9934a5cd3" y="284.810057"/>
      </g>
     </g>
     <g id="line2d_41">
      <g>
       <use style="fill:#555555;stroke:#555555;stroke-width:0.6;" x="648" xlink:href="#m608b16a16e" y="284.810057"/>
      </g>
     </g>
    </g>
    <g id="ytick_14">
     <g id="line2d_42">
      <g>
       <use style="fill:#555555;stroke:#555555;stroke-width:0.6;" x="90" xlink:href="#mb9934a5cd3" y="276.927811"/>
      </g>
     </g>
     <g id="line2d_43">
      <g>
       <use style="fill:#555555;stroke:#555555;stroke-width:0.6;" x="648" xlink:href="#m608b16a16e" y="276.927811"/>
      </g>
     </g>
    </g>
    <g id="ytick_15">
     <g id="line2d_44">
      <g>
       <use style="fill:#555555;stroke:#555555;stroke-width:0.6;" x="90" xlink:href="#mb9934a5cd3" y="270.813865"/>
      </g>
     </g>
     <g id="line2d_45">
      <g>
       <use style="fill:#555555;stroke:#555555;stroke-width:0.6;" x="648" xlink:href="#m608b16a16e" y="270.813865"/>
      </g>
     </g>
    </g>
    <g id="ytick_16">
     <g id="line2d_46">
      <g>
       <use style="fill:#555555;stroke:#555555;stroke-width:0.6;" x="90" xlink:href="#mb9934a5cd3" y="265.818408"/>
      </g>
     </g>
     <g id="line2d_47">
      <g>
       <use style="fill:#555555;stroke:#555555;stroke-width:0.6;" x="648" xlink:href="#m608b16a16e" y="265.818408"/>
      </g>
     </g>
    </g>
    <g id="ytick_17">
     <g id="line2d_48">
      <g>
       <use style="fill:#555555;stroke:#555555;stroke-width:0.6;" x="90" xlink:href="#mb9934a5cd3" y="261.59481"/>
      </g>
     </g>
     <g id="line2d_49">
      <g>
       <use style="fill:#555555;stroke:#555555;stroke-width:0.6;" x="648" xlink:href="#m608b16a16e" y="261.59481"/>
      </g>
     </g>
    </g>
    <g id="ytick_18">
     <g id="line2d_50">
      <g>
       <use style="fill:#555555;stroke:#555555;stroke-width:0.6;" x="90" xlink:href="#mb9934a5cd3" y="257.936162"/>
      </g>
     </g>
     <g id="line2d_51">
      <g>
       <use style="fill:#555555;stroke:#555555;stroke-width:0.6;" x="648" xlink:href="#m608b16a16e" y="257.936162"/>
      </g>
     </g>
    </g>
    <g id="ytick_19">
     <g id="line2d_52">
      <g>
       <use style="fill:#555555;stroke:#555555;stroke-width:0.6;" x="90" xlink:href="#mb9934a5cd3" y="254.709006"/>
      </g>
     </g>
     <g id="line2d_53">
      <g>
       <use style="fill:#555555;stroke:#555555;stroke-width:0.6;" x="648" xlink:href="#m608b16a16e" y="254.709006"/>
      </g>
     </g>
    </g>
    <g id="ytick_20">
     <g id="line2d_54">
      <g>
       <use style="fill:#555555;stroke:#555555;stroke-width:0.6;" x="90" xlink:href="#mb9934a5cd3" y="232.830568"/>
      </g>
     </g>
     <g id="line2d_55">
      <g>
       <use style="fill:#555555;stroke:#555555;stroke-width:0.6;" x="648" xlink:href="#m608b16a16e" y="232.830568"/>
      </g>
     </g>
    </g>
    <g id="text_14">
     <!-- daily new deaths -->
     <defs>
      <path d="M 9.421875 75.984375 
L 18.40625 75.984375 
L 18.40625 0 
L 9.421875 0 
z
" id="DejaVuSans-108"/>
      <path d="M 4.203125 54.6875 
L 13.1875 54.6875 
L 24.421875 12.015625 
L 35.59375 54.6875 
L 46.1875 54.6875 
L 57.421875 12.015625 
L 68.609375 54.6875 
L 77.59375 54.6875 
L 63.28125 0 
L 52.6875 0 
L 40.921875 44.828125 
L 29.109375 0 
L 18.5 0 
z
" id="DejaVuSans-119"/>
     </defs>
     <g style="fill:#555555;" transform="translate(27.364 354.91679)rotate(-90)scale(0.12 -0.12)">
      <use xlink:href="#DejaVuSans-100"/>
      <use x="63.476562" xlink:href="#DejaVuSans-97"/>
      <use x="124.755859" xlink:href="#DejaVuSans-105"/>
      <use x="152.539062" xlink:href="#DejaVuSans-108"/>
      <use x="180.322266" xlink:href="#DejaVuSans-121"/>
      <use x="239.501953" xlink:href="#DejaVuSans-32"/>
      <use x="271.289062" xlink:href="#DejaVuSans-110"/>
      <use x="334.667969" xlink:href="#DejaVuSans-101"/>
      <use x="396.191406" xlink:href="#DejaVuSans-119"/>
      <use x="477.978516" xlink:href="#DejaVuSans-32"/>
      <use x="509.765625" xlink:href="#DejaVuSans-100"/>
      <use x="573.242188" xlink:href="#DejaVuSans-101"/>
      <use x="634.765625" xlink:href="#DejaVuSans-97"/>
      <use x="696.044922" xlink:href="#DejaVuSans-116"/>
      <use x="735.253906" xlink:href="#DejaVuSans-104"/>
      <use x="798.632812" xlink:href="#DejaVuSans-115"/>
     </g>
     <!-- per 100K people -->
     <defs>
      <path d="M 18.109375 8.203125 
L 18.109375 -20.796875 
L 9.078125 -20.796875 
L 9.078125 54.6875 
L 18.109375 54.6875 
L 18.109375 46.390625 
Q 20.953125 51.265625 25.265625 53.625 
Q 29.59375 56 35.59375 56 
Q 45.5625 56 51.78125 48.09375 
Q 58.015625 40.1875 58.015625 27.296875 
Q 58.015625 14.40625 51.78125 6.484375 
Q 45.5625 -1.421875 35.59375 -1.421875 
Q 29.59375 -1.421875 25.265625 0.953125 
Q 20.953125 3.328125 18.109375 8.203125 
z
M 48.6875 27.296875 
Q 48.6875 37.203125 44.609375 42.84375 
Q 40.53125 48.484375 33.40625 48.484375 
Q 26.265625 48.484375 22.1875 42.84375 
Q 18.109375 37.203125 18.109375 27.296875 
Q 18.109375 17.390625 22.1875 11.75 
Q 26.265625 6.109375 33.40625 6.109375 
Q 40.53125 6.109375 44.609375 11.75 
Q 48.6875 17.390625 48.6875 27.296875 
z
" id="DejaVuSans-112"/>
      <path d="M 41.109375 46.296875 
Q 39.59375 47.171875 37.8125 47.578125 
Q 36.03125 48 33.890625 48 
Q 26.265625 48 22.1875 43.046875 
Q 18.109375 38.09375 18.109375 28.8125 
L 18.109375 0 
L 9.078125 0 
L 9.078125 54.6875 
L 18.109375 54.6875 
L 18.109375 46.1875 
Q 20.953125 51.171875 25.484375 53.578125 
Q 30.03125 56 36.53125 56 
Q 37.453125 56 38.578125 55.875 
Q 39.703125 55.765625 41.0625 55.515625 
z
" id="DejaVuSans-114"/>
      <path d="M 9.8125 72.90625 
L 19.671875 72.90625 
L 19.671875 42.09375 
L 52.390625 72.90625 
L 65.09375 72.90625 
L 28.90625 38.921875 
L 67.671875 0 
L 54.6875 0 
L 19.671875 35.109375 
L 19.671875 0 
L 9.8125 0 
z
" id="DejaVuSans-75"/>
      <path d="M 30.609375 48.390625 
Q 23.390625 48.390625 19.1875 42.75 
Q 14.984375 37.109375 14.984375 27.296875 
Q 14.984375 17.484375 19.15625 11.84375 
Q 23.34375 6.203125 30.609375 6.203125 
Q 37.796875 6.203125 41.984375 11.859375 
Q 46.1875 17.53125 46.1875 27.296875 
Q 46.1875 37.015625 41.984375 42.703125 
Q 37.796875 48.390625 30.609375 48.390625 
z
M 30.609375 56 
Q 42.328125 56 49.015625 48.375 
Q 55.71875 40.765625 55.71875 27.296875 
Q 55.71875 13.875 49.015625 6.21875 
Q 42.328125 -1.421875 30.609375 -1.421875 
Q 18.84375 -1.421875 12.171875 6.21875 
Q 5.515625 13.875 5.515625 27.296875 
Q 5.515625 40.765625 12.171875 48.375 
Q 18.84375 56 30.609375 56 
z
" id="DejaVuSans-111"/>
     </defs>
     <g style="fill:#555555;" transform="translate(40.801375 353.381165)rotate(-90)scale(0.12 -0.12)">
      <use xlink:href="#DejaVuSans-112"/>
      <use x="63.476562" xlink:href="#DejaVuSans-101"/>
      <use x="125" xlink:href="#DejaVuSans-114"/>
      <use x="166.113281" xlink:href="#DejaVuSans-32"/>
      <use x="197.900391" xlink:href="#DejaVuSans-49"/>
      <use x="261.523438" xlink:href="#DejaVuSans-48"/>
      <use x="325.146484" xlink:href="#DejaVuSans-48"/>
      <use x="388.769531" xlink:href="#DejaVuSans-75"/>
      <use x="454.345703" xlink:href="#DejaVuSans-32"/>
      <use x="486.132812" xlink:href="#DejaVuSans-112"/>
      <use x="549.609375" xlink:href="#DejaVuSans-101"/>
      <use x="611.132812" xlink:href="#DejaVuSans-111"/>
      <use x="672.314453" xlink:href="#DejaVuSans-112"/>
      <use x="735.791016" xlink:href="#DejaVuSans-108"/>
      <use x="763.574219" xlink:href="#DejaVuSans-101"/>
     </g>
     <!-- (rolling 7-day mean) -->
     <defs>
      <path d="M 31 75.875 
Q 24.46875 64.65625 21.28125 53.65625 
Q 18.109375 42.671875 18.109375 31.390625 
Q 18.109375 20.125 21.3125 9.0625 
Q 24.515625 -2 31 -13.1875 
L 23.1875 -13.1875 
Q 15.875 -1.703125 12.234375 9.375 
Q 8.59375 20.453125 8.59375 31.390625 
Q 8.59375 42.28125 12.203125 53.3125 
Q 15.828125 64.359375 23.1875 75.875 
z
" id="DejaVuSans-40"/>
      <path d="M 45.40625 27.984375 
Q 45.40625 37.75 41.375 43.109375 
Q 37.359375 48.484375 30.078125 48.484375 
Q 22.859375 48.484375 18.828125 43.109375 
Q 14.796875 37.75 14.796875 27.984375 
Q 14.796875 18.265625 18.828125 12.890625 
Q 22.859375 7.515625 30.078125 7.515625 
Q 37.359375 7.515625 41.375 12.890625 
Q 45.40625 18.265625 45.40625 27.984375 
z
M 54.390625 6.78125 
Q 54.390625 -7.171875 48.1875 -13.984375 
Q 42 -20.796875 29.203125 -20.796875 
Q 24.46875 -20.796875 20.265625 -20.09375 
Q 16.0625 -19.390625 12.109375 -17.921875 
L 12.109375 -9.1875 
Q 16.0625 -11.328125 19.921875 -12.34375 
Q 23.78125 -13.375 27.78125 -13.375 
Q 36.625 -13.375 41.015625 -8.765625 
Q 45.40625 -4.15625 45.40625 5.171875 
L 45.40625 9.625 
Q 42.625 4.78125 38.28125 2.390625 
Q 33.9375 0 27.875 0 
Q 17.828125 0 11.671875 7.65625 
Q 5.515625 15.328125 5.515625 27.984375 
Q 5.515625 40.671875 11.671875 48.328125 
Q 17.828125 56 27.875 56 
Q 33.9375 56 38.28125 53.609375 
Q 42.625 51.21875 45.40625 46.390625 
L 45.40625 54.6875 
L 54.390625 54.6875 
z
" id="DejaVuSans-103"/>
      <path d="M 8.203125 72.90625 
L 55.078125 72.90625 
L 55.078125 68.703125 
L 28.609375 0 
L 18.3125 0 
L 43.21875 64.59375 
L 8.203125 64.59375 
z
" id="DejaVuSans-55"/>
      <path d="M 4.890625 31.390625 
L 31.203125 31.390625 
L 31.203125 23.390625 
L 4.890625 23.390625 
z
" id="DejaVuSans-45"/>
      <path d="M 52 44.1875 
Q 55.375 50.25 60.0625 53.125 
Q 64.75 56 71.09375 56 
Q 79.640625 56 84.28125 50.015625 
Q 88.921875 44.046875 88.921875 33.015625 
L 88.921875 0 
L 79.890625 0 
L 79.890625 32.71875 
Q 79.890625 40.578125 77.09375 44.375 
Q 74.3125 48.1875 68.609375 48.1875 
Q 61.625 48.1875 57.5625 43.546875 
Q 53.515625 38.921875 53.515625 30.90625 
L 53.515625 0 
L 44.484375 0 
L 44.484375 32.71875 
Q 44.484375 40.625 41.703125 44.40625 
Q 38.921875 48.1875 33.109375 48.1875 
Q 26.21875 48.1875 22.15625 43.53125 
Q 18.109375 38.875 18.109375 30.90625 
L 18.109375 0 
L 9.078125 0 
L 9.078125 54.6875 
L 18.109375 54.6875 
L 18.109375 46.1875 
Q 21.1875 51.21875 25.484375 53.609375 
Q 29.78125 56 35.6875 56 
Q 41.65625 56 45.828125 52.96875 
Q 50 49.953125 52 44.1875 
z
" id="DejaVuSans-109"/>
      <path d="M 8.015625 75.875 
L 15.828125 75.875 
Q 23.140625 64.359375 26.78125 53.3125 
Q 30.421875 42.28125 30.421875 31.390625 
Q 30.421875 20.453125 26.78125 9.375 
Q 23.140625 -1.703125 15.828125 -13.1875 
L 8.015625 -13.1875 
Q 14.5 -2 17.703125 9.0625 
Q 20.90625 20.125 20.90625 31.390625 
Q 20.90625 42.671875 17.703125 53.65625 
Q 14.5 64.65625 8.015625 75.875 
z
" id="DejaVuSans-41"/>
     </defs>
     <g style="fill:#555555;" transform="translate(54.23875 365.018352)rotate(-90)scale(0.12 -0.12)">
      <use xlink:href="#DejaVuSans-40"/>
      <use x="39.013672" xlink:href="#DejaVuSans-114"/>
      <use x="77.876953" xlink:href="#DejaVuSans-111"/>
      <use x="139.058594" xlink:href="#DejaVuSans-108"/>
      <use x="166.841797" xlink:href="#DejaVuSans-108"/>
      <use x="194.625" xlink:href="#DejaVuSans-105"/>
      <use x="222.408203" xlink:href="#DejaVuSans-110"/>
      <use x="285.787109" xlink:href="#DejaVuSans-103"/>
      <use x="349.263672" xlink:href="#DejaVuSans-32"/>
      <use x="381.050781" xlink:href="#DejaVuSans-55"/>
      <use x="444.673828" xlink:href="#DejaVuSans-45"/>
      <use x="480.757812" xlink:href="#DejaVuSans-100"/>
      <use x="544.234375" xlink:href="#DejaVuSans-97"/>
      <use x="605.513672" xlink:href="#DejaVuSans-121"/>
      <use x="664.693359" xlink:href="#DejaVuSans-32"/>
      <use x="696.480469" xlink:href="#DejaVuSans-109"/>
      <use x="793.892578" xlink:href="#DejaVuSans-101"/>
      <use x="855.416016" xlink:href="#DejaVuSans-97"/>
      <use x="916.695312" xlink:href="#DejaVuSans-110"/>
      <use x="980.074219" xlink:href="#DejaVuSans-41"/>
     </g>
    </g>
   </g>
   <g id="line2d_56">
    <path clip-path="url(#pd3b7f30945)" d="M 72.390794 433 
L 72.77187 427.007652 
L 74.686106 419.125406 
L 76.600343 413.01146 
L 78.51458 408.016003 
L 80.428816 408.016003 
L 82.343053 410.400042 
L 84.25729 403.792405 
L 86.171527 410.400042 
L 88.085763 394.019812 
L 90 396.906601 
L 91.914237 390.190452 
L 93.828473 391.408393 
L 95.74271 383.839283 
L 97.656947 384.800756 
L 99.571184 380.298991 
L 101.48542 387.905866 
L 103.399657 386.831252 
L 105.313894 387.905866 
L 107.22813 382.011996 
L 109.142367 389.024355 
L 111.056604 384.800756 
L 112.97084 387.905866 
L 114.885077 391.408393 
L 116.799314 385.797199 
L 118.713551 389.024355 
L 120.627787 387.905866 
L 122.542024 384.800756 
L 124.456261 382.910409 
L 126.370497 377.914952 
L 128.284734 377.914952 
L 132.113208 373.691353 
L 134.027444 375.028163 
L 135.941681 371.801007 
L 137.855918 373.691353 
L 139.770154 374.351606 
L 141.684391 370.609551 
L 143.598628 373.691353 
L 145.512864 375.721849 
L 147.427101 376.433556 
L 149.341338 378.68681 
L 153.169811 382.011996 
L 155.084048 384.800756 
L 156.998285 382.910409 
L 158.912521 378.68681 
L 160.826758 378.68681 
L 162.740995 379.481045 
L 164.655232 379.481045 
L 166.569468 382.011996 
L 168.483705 382.011996 
L 170.397942 382.910409 
L 172.312178 387.905866 
L 174.226415 387.905866 
L 176.140652 391.408393 
L 179.969125 394.019812 
L 181.883362 395.425205 
L 183.797599 401.902058 
L 185.711835 405.822901 
L 187.626072 410.400042 
L 189.540309 413.01146 
L 191.454545 413.01146 
L 193.368782 415.89825 
L 195.283019 419.125406 
L 197.197256 415.89825 
L 199.111492 415.89825 
L 201.025729 419.125406 
L 202.939966 413.01146 
L 204.854202 419.125406 
L 206.768439 415.89825 
L 208.682676 413.01146 
L 210.596913 415.89825 
L 212.511149 415.89825 
L 214.425386 419.125406 
L 216.339623 427.007652 
L 218.253859 427.007652 
L 219.286388 433 
M 228.706751 433 
L 229.73928 427.007652 
L 231.653516 427.007652 
L 233.567753 422.784053 
L 235.79411 433 
M 247.849118 433 
L 248.881647 427.007652 
L 250.795883 427.007652 
L 252.71012 432.003109 
L 254.624357 432.003109 
L 254.7607 433 
M 332.971719 433 
L 333.108062 432.003109 
L 335.022298 427.007652 
L 336.936535 432.003109 
L 338.850772 427.007652 
L 341.077129 433 
M 348.109835 433 
L 348.421955 432.003109 
L 350.336192 427.007652 
L 352.250429 427.007652 
L 354.164666 422.784053 
L 356.078902 422.784053 
L 357.993139 419.125406 
L 359.907376 427.007652 
L 362.133732 433 
M 423.958895 433 
L 424.991424 427.007652 
L 426.90566 427.007652 
L 428.819897 422.784053 
L 430.734134 408.016003 
L 432.64837 403.792405 
L 434.562607 401.902058 
L 436.476844 403.792405 
L 438.391081 403.792405 
L 440.305317 400.133757 
L 442.219554 401.902058 
L 444.133791 408.016003 
L 446.048027 410.400042 
L 447.962264 408.016003 
L 449.876501 398.472693 
L 451.790738 396.906601 
L 453.704974 398.472693 
L 455.619211 395.425205 
L 457.533448 391.408393 
L 459.447684 389.024355 
L 461.361921 385.797199 
L 463.276158 386.831252 
L 465.190395 390.190452 
L 467.104631 386.831252 
L 469.018868 385.797199 
L 470.933105 390.190452 
L 472.847341 387.905866 
L 474.761578 391.408393 
L 476.675815 392.683002 
L 480.504288 392.683002 
L 482.418525 396.906601 
L 484.332762 392.683002 
L 486.246998 396.906601 
L 488.161235 392.683002 
L 490.075472 395.425205 
L 491.989708 387.905866 
L 493.903945 391.408393 
L 495.818182 392.683002 
L 497.732419 392.683002 
L 499.646655 394.019812 
L 501.560892 400.133757 
L 503.475129 401.902058 
L 505.389365 408.016003 
L 509.217839 408.016003 
L 511.132075 413.01146 
L 513.046312 410.400042 
L 514.960549 410.400042 
L 516.874786 408.016003 
L 518.789022 405.822901 
L 520.703259 408.016003 
L 522.617496 405.822901 
L 524.531732 405.822901 
L 526.445969 408.016003 
L 528.360206 410.400042 
L 530.274443 405.822901 
L 532.188679 408.016003 
L 534.102916 403.792405 
L 537.931389 403.792405 
L 539.845626 405.822901 
L 543.674099 405.822901 
L 545.588336 410.400042 
L 547.502573 415.89825 
L 549.41681 419.125406 
L 551.331046 422.784053 
L 553.245283 415.89825 
L 555.15952 410.400042 
L 557.073756 408.016003 
L 558.987993 405.822901 
L 564.730703 405.822901 
L 566.64494 408.016003 
L 568.559177 408.016003 
L 570.473413 405.822901 
L 572.38765 405.822901 
L 574.301887 408.016003 
L 576.216123 408.016003 
L 578.13036 401.902058 
L 580.044597 401.902058 
L 581.958834 403.792405 
L 583.87307 415.89825 
L 585.787307 415.89825 
L 587.701544 410.400042 
L 589.61578 405.822901 
L 591.530017 410.400042 
L 593.444254 408.016003 
L 595.358491 401.902058 
L 599.186964 398.472693 
L 601.101201 398.472693 
L 603.015437 401.902058 
L 604.929674 395.425205 
L 608.758148 398.472693 
L 614.500858 398.472693 
L 614.500858 398.472693 
" style="fill:none;stroke:#e24a33;stroke-linecap:square;stroke-width:4;"/>
   </g>
   <g id="line2d_57">
    <defs>
     <path d="M 0 3 
C 0.795609 3 1.55874 2.683901 2.12132 2.12132 
C 2.683901 1.55874 3 0.795609 3 0 
C 3 -0.795609 2.683901 -1.55874 2.12132 -2.12132 
C 1.55874 -2.683901 0.795609 -3 0 -3 
C -0.795609 -3 -1.55874 -2.683901 -2.12132 -2.12132 
C -2.683901 -1.55874 -3 -0.795609 -3 0 
C -3 0.795609 -2.683901 1.55874 -2.12132 2.12132 
C -1.55874 2.683901 -0.795609 3 0 3 
z
" id="mc83d9592b3" style="stroke:#e24a33;"/>
    </defs>
    <g clip-path="url(#pd3b7f30945)">
     <use style="fill:#e24a33;stroke:#e24a33;" x="614.500858" xlink:href="#mc83d9592b3" y="398.472693"/>
    </g>
   </g>
   <g id="line2d_58">
    <path clip-path="url(#pd3b7f30945)" d="M 85.158333 433 
L 86.171527 429.355388 
L 88.085763 423.85718 
L 90 415.359197 
L 91.914237 404.865532 
L 93.828473 401.363005 
L 95.74271 387.808745 
L 97.656947 377.375899 
L 99.571184 371.261954 
L 101.48542 368.484981 
L 103.399657 361.783188 
L 105.313894 355.566045 
L 107.22813 347.580987 
L 109.142367 341.40554 
L 111.056604 335.662695 
L 114.885077 322.847333 
L 118.713551 313.477121 
L 120.627787 309.520833 
L 122.542024 305.067952 
L 124.456261 302.190949 
L 126.370497 299.991071 
L 128.284734 298.927924 
L 130.198971 296.106387 
L 132.113208 294.374858 
L 134.027444 290.510004 
L 135.941681 289.181413 
L 137.855918 289.327933 
L 139.770154 293.271387 
L 141.684391 290.337982 
L 143.598628 291.386696 
L 145.512864 293.569902 
L 147.427101 290.01597 
L 149.341338 290.20493 
L 151.255575 287.671191 
L 153.169811 285.383839 
L 155.084048 288.036634 
L 156.998285 286.272713 
L 158.912521 285.130581 
L 160.826758 289.641914 
L 162.740995 288.764481 
L 164.655232 290.915639 
L 166.569468 290.72173 
L 168.483705 291.26817 
L 170.397942 293.871706 
L 172.312178 293.50566 
L 174.226415 295.570729 
L 176.140652 299.006245 
L 178.054889 300.956415 
L 179.969125 302.132279 
L 181.883362 303.483744 
L 183.797599 304.201122 
L 185.711835 310.897965 
L 187.626072 306.13213 
L 189.540309 307.487596 
L 191.454545 307.310025 
L 197.197256 311.345474 
L 199.111492 308.356335 
L 201.025729 314.933898 
L 202.939966 319.724396 
L 204.854202 326.301674 
L 206.768439 326.160441 
L 208.682676 325.88014 
L 210.596913 329.688592 
L 212.511149 329.608595 
L 214.425386 334.877002 
L 216.339623 331.596112 
L 218.253859 330.584335 
L 220.168096 331.254685 
L 222.082333 331.424866 
L 225.910806 334.113213 
L 227.825043 334.780356 
L 229.73928 336.471585 
L 231.653516 335.563242 
L 233.567753 336.267112 
L 237.396226 338.716045 
L 239.310463 345.649624 
L 241.2247 348.203722 
L 243.138937 349.658886 
L 246.96741 353.579729 
L 248.881647 353.199179 
L 250.795883 354.160652 
L 252.71012 348.361643 
L 254.624357 352.270305 
L 258.45283 357.265762 
L 260.367067 358.38425 
L 264.19554 360.274597 
L 266.109777 368.156843 
L 268.024014 363.655078 
L 269.93825 362.569821 
L 271.852487 362.305093 
L 273.766724 362.837132 
L 275.680961 365.075041 
L 277.595197 365.664293 
L 279.509434 365.075041 
L 281.423671 370.540882 
L 283.337907 375.182796 
L 285.252144 370.187339 
L 287.166381 372.002517 
L 289.080617 372.002517 
L 290.994854 370.540882 
L 292.909091 370.899046 
L 294.823328 374.352455 
L 296.737564 374.764481 
L 298.651801 385.258146 
L 300.566038 381.296742 
L 302.480274 379.759938 
L 304.394511 384.655942 
L 306.308748 387.148492 
L 308.222985 381.828781 
L 310.137221 381.828781 
L 312.051458 380.774837 
L 313.965695 382.371356 
L 315.879931 383.489844 
L 317.794168 381.296742 
L 319.708405 384.655942 
L 321.622642 392.938183 
L 323.536878 396.367548 
L 327.365352 406.140141 
L 329.279588 406.140141 
L 331.193825 407.47695 
L 335.022298 404.865532 
L 336.936535 403.647591 
L 338.850772 394.599247 
L 340.765009 393.756129 
L 344.593482 395.469134 
L 350.336192 392.938183 
L 352.250429 399.254337 
L 354.164666 396.367548 
L 356.078902 396.367548 
L 357.993139 397.296422 
L 359.907376 394.599247 
L 361.821612 385.873883 
L 363.735849 390.621382 
L 365.650086 383.489844 
L 367.564322 384.06669 
L 371.392796 382.924893 
L 373.307033 385.258146 
L 375.221269 392.938183 
L 377.135506 391.372091 
L 382.878216 393.756129 
L 386.70669 393.756129 
L 388.620926 391.372091 
L 390.535163 384.655942 
L 392.4494 391.372091 
L 394.363636 390.621382 
L 396.277873 388.485302 
L 400.106346 388.485302 
L 402.020583 391.372091 
L 403.93482 399.254337 
L 405.849057 402.481493 
L 407.763293 399.254337 
L 409.67753 401.363005 
L 411.591767 399.254337 
L 413.506003 400.288391 
L 415.42024 390.621382 
L 417.334477 394.599247 
L 419.248714 390.621382 
L 421.16295 396.367548 
L 423.077187 396.367548 
L 424.991424 398.257894 
L 426.90566 397.296422 
L 428.819897 407.47695 
L 430.734134 403.647591 
L 432.64837 406.140141 
L 434.562607 403.647591 
L 438.391081 401.363005 
L 440.305317 395.469134 
L 444.133791 395.469134 
L 446.048027 389.890695 
L 447.962264 391.372091 
L 449.876501 391.372091 
L 451.790738 392.938183 
L 453.704974 389.890695 
L 455.619211 382.371356 
L 457.533448 377.375899 
L 459.447684 375.182796 
L 461.361921 372.763653 
L 463.276158 371.629733 
L 465.190395 370.187339 
L 467.104631 370.187339 
L 469.018868 372.380442 
L 470.933105 372.002517 
L 472.847341 374.352455 
L 474.761578 372.380442 
L 476.675815 373.54654 
L 478.590051 367.512128 
L 480.504288 368.484981 
L 482.418525 367.195371 
L 484.332762 367.832589 
L 486.246998 369.153286 
L 488.161235 366.572636 
L 490.075472 365.368083 
L 491.989708 367.512128 
L 493.903945 359.313124 
L 495.818182 355.360807 
L 497.732419 353.199179 
L 499.646655 348.203722 
L 501.560892 349.658886 
L 503.475129 348.520479 
L 505.389365 344.115428 
L 507.303602 344.388059 
L 509.217839 345.081745 
L 511.132075 341.652381 
L 513.046312 343.711502 
L 514.960549 338.274113 
L 516.874786 336.781183 
L 518.789022 338.38393 
L 520.703259 339.507003 
L 522.617496 332.646687 
L 524.531732 329.449297 
L 526.445969 324.520101 
L 528.360206 322.291299 
L 530.274443 322.108434 
L 532.188679 315.310524 
L 534.102916 314.47028 
L 536.017153 308.876118 
L 537.931389 306.234049 
L 539.845626 304.775951 
L 541.759863 305.628146 
L 543.674099 304.455114 
L 545.588336 308.577892 
L 547.502573 298.591098 
L 549.41681 299.08479 
L 551.331046 297.530353 
L 553.245283 296.129915 
L 555.15952 295.181433 
L 557.073756 295.272535 
L 558.987993 290.586806 
L 560.90223 291.9265 
L 562.816467 291.150155 
L 564.730703 290.185976 
L 566.64494 288.926874 
L 572.38765 286.954609 
L 574.301887 285.848923 
L 576.216123 283.8832 
L 578.13036 281.602227 
L 580.044597 280.053841 
L 583.87307 279.3559 
L 589.61578 279.3559 
L 589.61578 279.3559 
" style="fill:none;stroke:#348abd;stroke-linecap:square;stroke-opacity:0.4;stroke-width:2;"/>
   </g>
   <g id="line2d_59">
    <defs>
     <path d="M 0 3 
C 0.795609 3 1.55874 2.683901 2.12132 2.12132 
C 2.683901 1.55874 3 0.795609 3 0 
C 3 -0.795609 2.683901 -1.55874 2.12132 -2.12132 
C 1.55874 -2.683901 0.795609 -3 0 -3 
C -0.795609 -3 -1.55874 -2.683901 -2.12132 -2.12132 
C -2.683901 -1.55874 -3 -0.795609 -3 0 
C -3 0.795609 -2.683901 1.55874 -2.12132 2.12132 
C -1.55874 2.683901 -0.795609 3 0 3 
z
" id="m63500e96a0" style="stroke:#348abd;stroke-opacity:0.4;"/>
    </defs>
    <g clip-path="url(#pd3b7f30945)">
     <use style="fill:#348abd;fill-opacity:0.4;stroke:#348abd;stroke-opacity:0.4;" x="589.61578" xlink:href="#m63500e96a0" y="279.3559"/>
    </g>
   </g>
   <g id="line2d_60">
    <path clip-path="url(#pd3b7f30945)" d="M 54.478891 433 
L 55.543739 426.820081 
L 57.457976 426.820081 
L 59.372213 418.937835 
L 65.114923 418.937835 
L 67.02916 426.820081 
L 68.094008 433 
M 69.218306 433 
L 70.857633 403.604834 
L 72.77187 407.828433 
L 74.686106 403.604834 
L 76.600343 396.71903 
L 78.51458 393.832241 
L 80.428816 393.832241 
L 82.343053 388.836784 
L 84.25729 391.220822 
L 86.171527 382.722838 
L 88.085763 380.954537 
L 90 376.245985 
L 91.914237 371.011232 
L 93.828473 366.617979 
L 95.74271 363.73119 
L 97.656947 366.617979 
L 99.571184 367.652032 
L 101.48542 366.617979 
L 103.399657 368.726647 
L 105.313894 373.503783 
L 107.22813 379.293474 
L 109.142367 386.643681 
L 111.056604 388.836784 
L 112.97084 388.836784 
L 114.885077 393.832241 
L 116.799314 403.604834 
L 118.713551 407.828433 
L 120.627787 412.82389 
L 122.542024 418.937835 
L 124.456261 388.836784 
L 126.370497 386.643681 
L 128.284734 386.643681 
L 130.198971 380.954537 
L 132.113208 380.954537 
L 134.027444 372.229173 
L 135.941681 369.845135 
L 137.855918 377.727381 
L 139.770154 384.613185 
L 141.684391 384.613185 
L 143.598628 388.836784 
L 145.512864 386.643681 
L 147.427101 399.946186 
L 149.341338 407.828433 
L 151.255575 418.937835 
L 153.169811 418.937835 
L 155.084048 426.820081 
L 156.148896 433 
M 176.99004 433 
L 178.054889 426.820081 
L 179.969125 426.820081 
L 181.883362 418.937835 
L 183.797599 426.820081 
L 189.540309 426.820081 
L 190.605157 433 
M 272.701876 433 
L 273.766724 426.820081 
L 275.680961 418.937835 
L 277.098337 433 
M 279.885294 433 
L 281.423671 412.82389 
L 283.337907 403.604834 
L 285.252144 393.832241 
L 287.166381 391.220822 
L 289.080617 384.613185 
L 290.994854 382.722838 
L 292.909091 377.727381 
L 294.823328 379.293474 
L 296.737564 374.840592 
L 298.651801 371.011232 
L 300.566038 366.617979 
L 302.480274 361.119771 
L 304.394511 357.254336 
L 306.308748 355.172386 
L 310.137221 346.629887 
L 312.051458 346.144934 
L 313.965695 346.629887 
L 315.879931 348.138479 
L 317.794168 344.739541 
L 319.708405 342.546438 
L 321.622642 340.127295 
L 323.536878 342.128122 
L 325.451115 340.515942 
L 327.365352 337.904523 
L 329.279588 334.559012 
L 331.193825 333.027935 
L 333.108062 331.01872 
L 335.022298 329.40654 
L 336.936535 329.14683 
L 338.850772 328.382153 
L 340.765009 330.470718 
L 342.679245 330.470718 
L 344.593482 328.634681 
L 346.507719 328.889559 
L 348.421955 331.296886 
L 350.336192 330.200774 
L 352.250429 331.577906 
L 354.164666 329.14683 
L 356.078902 329.14683 
L 359.907376 334.559012 
L 361.821612 331.01872 
L 363.735849 328.382153 
L 365.650086 327.883973 
L 367.564322 326.91399 
L 369.478559 328.382153 
L 371.392796 322.520736 
L 373.307033 323.136473 
L 375.221269 327.153285 
L 377.135506 329.14683 
L 379.049743 318.912875 
L 382.878216 321.135646 
L 384.792453 328.13193 
L 386.70669 327.394689 
L 388.620926 326.208393 
L 390.535163 328.13193 
L 392.4494 344.739541 
L 394.363636 347.123579 
L 396.277873 346.144934 
L 398.19211 347.62633 
L 400.106346 352.019584 
L 402.020583 353.867418 
L 403.93482 353.237525 
L 405.849057 355.848943 
L 407.763293 355.172386 
L 409.67753 356.54263 
L 411.591767 359.507591 
L 413.506003 357.254336 
L 415.42024 359.507591 
L 417.334477 364.660064 
L 419.248714 361.962888 
L 421.16295 367.652032 
L 423.077187 371.011232 
L 424.991424 369.845135 
L 426.90566 365.621536 
L 428.819897 366.617979 
L 430.734134 366.617979 
L 432.64837 373.503783 
L 434.562607 371.011232 
L 436.476844 372.229173 
L 438.391081 376.245985 
L 440.305317 386.643681 
L 442.219554 391.220822 
L 444.133791 396.71903 
L 446.048027 403.604834 
L 447.962264 418.937835 
L 453.704974 418.937835 
L 455.619211 403.604834 
L 461.361921 403.604834 
L 463.276158 407.828433 
L 465.190395 403.604834 
L 467.104631 407.828433 
L 468.086128 433 
L 468.086128 433 
" style="fill:none;stroke:#988ed5;stroke-linecap:square;stroke-opacity:0.4;stroke-width:2;"/>
   </g>
   <g id="line2d_61">
    <defs>
     <path d="M 0 3 
C 0.795609 3 1.55874 2.683901 2.12132 2.12132 
C 2.683901 1.55874 3 0.795609 3 0 
C 3 -0.795609 2.683901 -1.55874 2.12132 -2.12132 
C 1.55874 -2.683901 0.795609 -3 0 -3 
C -0.795609 -3 -1.55874 -2.683901 -2.12132 -2.12132 
C -2.683901 -1.55874 -3 -0.795609 -3 0 
C -3 0.795609 -2.683901 1.55874 -2.12132 2.12132 
C -1.55874 2.683901 -0.795609 3 0 3 
z
" id="m074a1108b1" style="stroke:#988ed5;stroke-opacity:0.4;"/>
    </defs>
    <g clip-path="url(#pd3b7f30945)">
     <use style="fill:#988ed5;fill-opacity:0.4;stroke:#988ed5;stroke-opacity:0.4;" x="551.331046" xlink:href="#m074a1108b1" y="456.921133"/>
    </g>
   </g>
   <g id="line2d_62">
    <path clip-path="url(#pd3b7f30945)" d="M 64.337809 433 
L 65.114923 429.800079 
L 67.02916 423.686134 
L 68.943396 423.686134 
L 70.857633 429.800079 
L 71.634747 433 
M 76.277812 433 
L 76.600343 429.800079 
L 78.51458 429.800079 
L 80.428816 423.686134 
L 82.343053 407.581275 
L 84.25729 402.083067 
L 86.171527 402.083067 
L 88.085763 397.505925 
L 90 393.585083 
L 91.914237 381.873477 
L 93.828473 381.873477 
L 95.74271 375.522308 
L 97.656947 366.034631 
L 99.571184 357.985824 
L 101.48542 355.148896 
L 103.399657 350.606328 
L 105.313894 349.124932 
L 107.22813 342.724082 
L 109.142367 337.53901 
L 111.056604 337.303823 
L 112.97084 338.994175 
L 114.885077 334.628611 
L 116.799314 332.780777 
L 118.713551 332.780777 
L 120.627787 333.586693 
L 122.542024 335.056732 
L 124.456261 332.386538 
L 126.370497 330.314136 
L 130.198971 334.841835 
L 132.113208 333.382981 
L 134.027444 332.780777 
L 135.941681 332.386538 
L 137.855918 332.386538 
L 139.770154 328.387523 
L 141.684391 325.961235 
L 143.598628 326.272592 
L 145.512864 325.197978 
L 147.427101 323.307631 
L 149.341338 322.889315 
L 151.255575 324.019338 
L 153.169811 329.246502 
L 155.084048 332.386538 
L 156.998285 331.805615 
L 158.912521 333.180772 
L 160.826758 336.610136 
L 162.740995 339.244397 
L 164.655232 338.746217 
L 166.569468 335.491648 
L 168.483705 336.382756 
L 170.397942 336.157248 
L 172.312178 338.256933 
L 174.226415 335.93358 
L 176.140652 334.841835 
L 178.054889 334.841835 
L 179.969125 334.207077 
L 181.883362 334.417034 
L 183.797599 335.491648 
L 185.711835 335.491648 
L 187.626072 339.244397 
L 189.540309 341.332963 
L 191.454545 344.798522 
L 193.368782 349.48784 
L 195.283019 348.413225 
L 197.197256 350.989539 
L 199.111492 350.989539 
L 201.025729 349.124932 
L 202.939966 352.990367 
L 204.854202 352.990367 
L 206.768439 351.772426 
L 208.682676 352.172421 
L 210.596913 352.172421 
L 212.511149 352.578341 
L 214.425386 352.172421 
L 216.339623 345.421257 
L 218.253859 348.064187 
L 220.168096 345.738014 
L 222.082333 343.890179 
L 223.996569 343.593969 
L 227.825043 344.189627 
L 229.73928 344.189627 
L 231.653516 342.159131 
L 233.567753 346.058475 
L 235.48199 346.382729 
L 237.396226 344.492383 
L 239.310463 344.492383 
L 241.2247 344.798522 
L 243.138937 347.719539 
L 245.053173 341.332963 
L 246.96741 338.500483 
L 248.881647 339.244397 
L 250.795883 339.244397 
L 252.71012 340.795707 
L 254.624357 340.795707 
L 256.538593 338.994175 
L 258.45283 342.724082 
L 260.367067 343.010987 
L 262.281304 344.798522 
L 264.19554 347.042982 
L 268.024014 345.10812 
L 269.93825 347.379172 
L 271.852487 347.719539 
L 273.766724 348.413225 
L 275.680961 348.766768 
L 277.595197 348.064187 
L 279.509434 348.766768 
L 281.423671 353.408683 
L 283.337907 353.408683 
L 285.252144 356.062286 
L 287.166381 357.985824 
L 289.080617 357.492132 
L 290.994854 358.488575 
L 292.909091 357.985824 
L 294.823328 355.601785 
L 296.737564 359.522628 
L 298.651801 358.488575 
L 300.566038 360.597242 
L 302.480274 360.597242 
L 304.394511 359.000723 
L 306.308748 360.054667 
L 308.222985 361.715731 
L 310.137221 361.715731 
L 312.051458 362.881828 
L 313.965695 364.729662 
L 315.879931 362.881828 
L 317.794168 362.292576 
L 319.708405 361.150779 
L 321.622642 362.881828 
L 323.536878 359.522628 
L 325.451115 356.530659 
L 327.365352 355.148896 
L 329.279588 357.007178 
L 331.193825 355.601785 
L 333.108062 357.492132 
L 335.022298 357.492132 
L 336.936535 354.703372 
L 338.850772 353.408683 
L 340.765009 350.989539 
L 342.679245 348.064187 
L 344.593482 349.124932 
L 346.507719 348.766768 
L 348.421955 346.710867 
L 350.336192 349.855619 
L 352.250429 351.378187 
L 354.164666 350.989539 
L 356.078902 351.772426 
L 357.993139 351.378187 
L 359.907376 349.124932 
L 361.821612 349.48784 
L 363.735849 346.710867 
L 365.650086 347.379172 
L 367.564322 347.719539 
L 369.478559 347.042982 
L 371.392796 348.413225 
L 373.307033 349.48784 
L 375.221269 347.379172 
L 377.135506 347.379172 
L 379.049743 346.058475 
L 380.963979 347.719539 
L 382.878216 347.379172 
L 384.792453 348.413225 
L 386.70669 348.064187 
L 388.620926 347.379172 
L 390.535163 346.382729 
L 392.4494 347.042982 
L 394.363636 347.042982 
L 396.277873 347.379172 
L 398.19211 345.421257 
L 400.106346 346.058475 
L 402.020583 348.413225 
L 403.93482 351.772426 
L 405.849057 352.578341 
L 407.763293 351.772426 
L 409.67753 351.772426 
L 411.591767 352.172421 
L 415.42024 344.189627 
L 417.334477 344.492383 
L 419.248714 343.300927 
L 421.16295 341.332963 
L 423.077187 341.605594 
L 424.991424 340.268784 
L 426.90566 343.010987 
L 428.819897 344.798522 
L 430.734134 339.751804 
L 432.64837 337.53901 
L 434.562607 336.157248 
L 436.476844 331.997891 
L 438.391081 332.582948 
L 440.305317 330.679464 
L 442.219554 327.554658 
L 444.133791 327.228474 
L 446.048027 326.429608 
L 447.962264 325.806873 
L 449.876501 325.500734 
L 451.790738 322.889315 
L 453.704974 321.017426 
L 455.619211 318.312174 
L 457.533448 313.492918 
L 459.447684 309.395875 
L 461.361921 307.359339 
L 463.276158 305.906882 
L 467.104631 305.027689 
L 469.018868 304.740784 
L 470.933105 301.961232 
L 472.847341 300.948677 
L 474.761578 296.381096 
L 476.675815 294.797479 
L 478.590051 293.966398 
L 480.504288 293.678991 
L 482.418525 291.61448 
L 484.332762 291.002671 
L 486.246998 287.862085 
L 488.161235 287.064548 
L 490.075472 283.721188 
L 491.989708 282.490286 
L 493.903945 282.363877 
L 495.818182 281.586764 
L 497.732419 278.571555 
L 499.646655 275.168042 
L 501.560892 274.004975 
L 503.475129 271.752944 
L 505.389365 270.395756 
L 507.303602 269.454662 
L 509.217839 267.645794 
L 511.132075 265.197341 
L 513.046312 264.090988 
L 514.960549 260.416161 
L 516.874786 259.456641 
L 522.617496 256.019239 
L 524.531732 255.340624 
L 526.445969 256.444417 
L 528.360206 256.764591 
L 530.274443 254.427041 
L 532.188679 253.67541 
L 534.102916 254.009415 
L 536.017153 253.708628 
L 537.931389 251.855977 
L 539.845626 248.342683 
L 541.759863 246.519216 
L 545.588336 246.054454 
L 547.502573 245.945744 
L 549.41681 244.459516 
L 551.331046 243.903924 
L 555.15952 244.721635 
L 557.073756 244.52283 
L 558.987993 244.897785 
L 564.730703 244.897785 
L 564.730703 244.897785 
" style="fill:none;stroke:#777777;stroke-linecap:square;stroke-opacity:0.4;stroke-width:2;"/>
   </g>
   <g id="line2d_63">
    <defs>
     <path d="M 0 3 
C 0.795609 3 1.55874 2.683901 2.12132 2.12132 
C 2.683901 1.55874 3 0.795609 3 0 
C 3 -0.795609 2.683901 -1.55874 2.12132 -2.12132 
C 1.55874 -2.683901 0.795609 -3 0 -3 
C -0.795609 -3 -1.55874 -2.683901 -2.12132 -2.12132 
C -2.683901 -1.55874 -3 -0.795609 -3 0 
C -3 0.795609 -2.683901 1.55874 -2.12132 2.12132 
C -1.55874 2.683901 -0.795609 3 0 3 
z
" id="m602c6fdae8" style="stroke:#777777;stroke-opacity:0.4;"/>
    </defs>
    <g clip-path="url(#pd3b7f30945)">
     <use style="fill:#777777;fill-opacity:0.4;stroke:#777777;stroke-opacity:0.4;" x="564.730703" xlink:href="#m602c6fdae8" y="244.897785"/>
    </g>
   </g>
   <g id="line2d_64">
    <path clip-path="url(#pd3b7f30945)" d="M 63.200588 433 
L 63.200686 429.76435 
L 67.02916 391.781052 
L 68.943396 391.781052 
L 70.857633 385.667107 
L 74.686106 359.486898 
L 76.600343 361.680001 
L 78.51458 364.06404 
L 80.428816 361.680001 
L 82.343053 355.566056 
L 84.25729 350.570599 
L 86.171527 350.570599 
L 88.085763 353.797755 
L 90 347.683809 
L 91.914237 343.85445 
L 93.828473 342.688352 
L 97.656947 345.072391 
L 99.571184 346.347 
L 101.48542 345.072391 
L 105.313894 345.072391 
L 107.22813 347.683809 
L 111.056604 345.072391 
L 112.97084 341.569864 
L 114.885077 342.688352 
L 116.799314 342.688352 
L 118.713551 340.49525 
L 120.627787 337.503281 
L 122.542024 336.574407 
L 124.456261 336.574407 
L 126.370497 339.461196 
L 128.284734 338.464754 
L 132.113208 338.464754 
L 134.027444 339.461196 
L 137.855918 337.503281 
L 139.770154 334.806106 
L 141.684391 334.806106 
L 143.598628 332.350808 
L 145.512864 333.145042 
L 147.427101 332.350808 
L 149.341338 332.350808 
L 151.255575 333.145042 
L 153.169811 333.145042 
L 155.084048 331.57895 
L 156.998285 333.962988 
L 158.912521 333.962988 
L 160.826758 333.145042 
L 166.569468 333.145042 
L 168.483705 333.962988 
L 170.397942 333.962988 
L 172.312178 332.350808 
L 174.226415 333.145042 
L 176.140652 333.145042 
L 179.969125 331.57895 
L 181.883362 331.57895 
L 185.711835 333.145042 
L 187.626072 333.145042 
L 189.540309 332.350808 
L 191.454545 333.145042 
L 193.368782 333.145042 
L 195.283019 331.57895 
L 197.197256 329.385847 
L 199.111492 328.692161 
L 201.025729 328.692161 
L 202.939966 329.385847 
L 204.854202 328.692161 
L 206.768439 329.385847 
L 208.682676 331.57895 
L 212.511149 331.57895 
L 214.425386 330.097554 
L 218.253859 328.692161 
L 220.168096 330.097554 
L 222.082333 329.385847 
L 223.996569 329.385847 
L 225.910806 330.097554 
L 227.825043 331.57895 
L 229.73928 331.57895 
L 231.653516 333.145042 
L 233.567753 330.828241 
L 237.396226 332.350808 
L 239.310463 331.57895 
L 241.2247 330.097554 
L 243.138937 329.385847 
L 245.053173 328.015604 
L 246.96741 328.692161 
L 250.795883 326.080742 
L 252.71012 325.465005 
L 254.624357 326.080742 
L 256.538593 327.355351 
L 258.45283 328.015604 
L 260.367067 328.015604 
L 262.281304 329.385847 
L 268.024014 331.57895 
L 269.93825 330.828241 
L 273.766724 332.350808 
L 275.680961 332.350808 
L 277.595197 333.962988 
L 279.509434 333.962988 
L 281.423671 333.145042 
L 283.337907 333.962988 
L 285.252144 332.350808 
L 289.080617 332.350808 
L 290.994854 331.57895 
L 294.823328 333.145042 
L 296.737564 332.350808 
L 298.651801 333.962988 
L 302.480274 333.962988 
L 306.308748 337.503281 
L 308.222985 339.461196 
L 310.137221 342.688352 
L 312.051458 345.072391 
L 313.965695 347.683809 
L 315.879931 350.570599 
L 319.708405 350.570599 
L 323.536878 347.683809 
L 325.451115 350.570599 
L 327.365352 343.85445 
L 331.193825 341.569864 
L 333.108062 339.461196 
L 336.936535 337.503281 
L 338.850772 333.145042 
L 340.765009 334.806106 
L 342.679245 333.962988 
L 344.593482 332.350808 
L 350.336192 332.350808 
L 352.250429 333.145042 
L 354.164666 333.145042 
L 356.078902 332.350808 
L 357.993139 333.145042 
L 365.650086 333.145042 
L 367.564322 332.350808 
L 373.307033 332.350808 
L 377.135506 330.828241 
L 379.049743 329.385847 
L 380.963979 329.385847 
L 382.878216 328.692161 
L 384.792453 328.692161 
L 386.70669 328.015604 
L 388.620926 329.385847 
L 390.535163 332.350808 
L 392.4494 334.806106 
L 394.363636 336.574407 
L 396.277873 337.503281 
L 398.19211 336.574407 
L 400.106346 337.503281 
L 402.020583 335.675994 
L 403.93482 333.145042 
L 405.849057 330.828241 
L 407.763293 330.097554 
L 409.67753 330.828241 
L 417.334477 330.828241 
L 419.248714 330.097554 
L 421.16295 333.962988 
L 423.077187 328.692161 
L 424.991424 328.692161 
L 426.90566 328.015604 
L 430.734134 328.015604 
L 432.64837 333.145042 
L 434.562607 325.465005 
L 436.476844 329.385847 
L 442.219554 331.57895 
L 444.133791 331.57895 
L 446.048027 328.692161 
L 447.962264 333.962988 
L 453.704974 336.574407 
L 455.619211 337.503281 
L 457.533448 342.688352 
L 459.447684 338.464754 
L 469.018868 338.464754 
L 470.933105 334.806106 
L 472.847341 339.461196 
L 474.761578 338.464754 
L 476.675815 338.464754 
L 482.418525 341.569864 
L 484.332762 342.688352 
L 486.246998 342.688352 
L 488.161235 345.072391 
L 490.075472 345.072391 
L 491.989708 342.688352 
L 493.903945 339.461196 
L 495.818182 337.503281 
L 497.732419 334.806106 
L 499.646655 332.350808 
L 501.560892 329.385847 
L 503.475129 327.355351 
L 505.389365 326.080742 
L 507.303602 325.465005 
L 509.217839 324.273549 
L 511.132075 323.696704 
L 513.046312 322.578215 
L 514.960549 322.578215 
L 518.789022 321.503601 
L 520.703259 321.503601 
L 522.617496 320.469548 
L 524.531732 319.966797 
L 526.445969 320.469548 
L 528.360206 319.966797 
L 534.102916 319.966797 
L 534.102916 319.966797 
" style="fill:none;stroke:#fbc15e;stroke-linecap:square;stroke-opacity:0.4;stroke-width:2;"/>
   </g>
   <g id="line2d_65">
    <defs>
     <path d="M 0 3 
C 0.795609 3 1.55874 2.683901 2.12132 2.12132 
C 2.683901 1.55874 3 0.795609 3 0 
C 3 -0.795609 2.683901 -1.55874 2.12132 -2.12132 
C 1.55874 -2.683901 0.795609 -3 0 -3 
C -0.795609 -3 -1.55874 -2.683901 -2.12132 -2.12132 
C -2.683901 -1.55874 -3 -0.795609 -3 0 
C -3 0.795609 -2.683901 1.55874 -2.12132 2.12132 
C -1.55874 2.683901 -0.795609 3 0 3 
z
" id="mbbc547da22" style="stroke:#fbc15e;stroke-opacity:0.4;"/>
    </defs>
    <g clip-path="url(#pd3b7f30945)">
     <use style="fill:#fbc15e;fill-opacity:0.4;stroke:#fbc15e;stroke-opacity:0.4;" x="534.102916" xlink:href="#mbbc547da22" y="319.966797"/>
    </g>
   </g>
   <g id="line2d_66">
    <path clip-path="url(#pd3b7f30945)" d="M 68.943225 433 
L 68.943396 427.357339 
L 72.77187 427.357339 
L 74.686106 408.36569 
L 76.600343 408.36569 
L 78.51458 397.256287 
L 80.428816 389.374041 
L 82.343053 397.256287 
L 84.25729 364.268447 
L 86.171527 359.27299 
L 90 359.27299 
L 91.914237 340.281341 
L 93.828473 340.281341 
L 95.74271 328.42123 
L 97.656947 324.303624 
L 99.571184 314.277333 
L 101.48542 305.956691 
L 103.399657 299.583036 
L 105.313894 302.584948 
L 107.22813 295.06561 
L 109.142367 290.070153 
L 111.056604 285.535197 
L 114.885077 281.915276 
L 116.799314 277.306851 
L 118.713551 270.091848 
L 120.627787 268.05506 
L 122.542024 267.249144 
L 124.456261 266.083047 
L 126.370497 263.059603 
L 128.284734 262.187586 
L 130.198971 262.788322 
L 132.113208 264.030814 
L 134.027444 262.720919 
L 135.941681 262.386371 
L 137.855918 262.452955 
L 139.770154 265.332338 
L 141.684391 263.81978 
L 143.598628 265.111078 
L 145.512864 266.621056 
L 147.427101 267.328678 
L 149.341338 268.219127 
L 151.255575 268.885401 
L 153.169811 268.301531 
L 155.084048 272.292294 
L 156.998285 271.913061 
L 158.912521 270.715596 
L 160.826758 273.965293 
L 162.740995 274.169005 
L 164.655232 274.78939 
L 166.569468 278.239678 
L 168.483705 279.952683 
L 170.397942 277.65295 
L 174.226415 281.245336 
L 176.140652 283.88324 
L 178.054889 287.458734 
L 179.969125 287.792874 
L 181.883362 289.707245 
L 183.797599 296.413381 
L 185.711835 302.298043 
L 187.626072 304.372483 
L 189.540309 309.802364 
L 191.454545 311.346387 
L 193.368782 311.746382 
L 195.283019 310.563501 
L 197.197256 314.722858 
L 199.111492 310.18029 
L 201.025729 312.982644 
L 202.939966 314.277333 
L 206.768439 320.724741 
L 208.682676 321.289692 
L 210.596913 325.608592 
L 212.511149 340.281341 
L 214.425386 342.665379 
L 216.339623 338.088238 
L 218.253859 339.162853 
L 220.168096 338.088238 
L 222.082333 339.162853 
L 223.996569 337.054185 
L 225.910806 340.281341 
L 227.825043 339.162853 
L 229.73928 343.939989 
L 231.653516 351.390743 
L 233.567753 355.049391 
L 235.48199 355.049391 
L 237.396226 374.04104 
L 239.310463 383.260096 
L 241.2247 389.374041 
L 243.138937 408.36569 
L 246.96741 408.36569 
L 248.881647 427.357339 
L 250.795883 397.256287 
L 252.71012 355.049391 
L 256.538593 351.390743 
L 258.45283 349.72968 
L 262.281304 349.72968 
L 264.19554 351.390743 
L 266.109777 345.276798 
L 268.024014 345.276798 
L 271.852487 348.163587 
L 275.680961 348.163587 
L 277.595197 349.72968 
L 279.509434 408.36569 
L 283.337907 408.36569 
L 285.252144 378.264639 
L 290.994854 378.264639 
L 292.909091 374.04104 
L 296.737564 374.04104 
L 298.651801 397.256287 
L 306.308748 397.256287 
L 308.222985 427.357339 
L 312.051458 427.357339 
L 313.965695 397.256287 
L 317.794168 397.256287 
L 319.708405 408.36569 
L 321.622642 408.36569 
L 323.536878 397.256287 
L 325.451115 397.256287 
L 327.365352 427.357339 
L 329.279588 427.357339 
L 331.193825 397.256287 
L 333.108062 389.374041 
L 335.022298 389.374041 
L 336.936535 378.264639 
L 338.850772 370.382392 
L 342.679245 370.382392 
L 344.593482 374.04104 
L 346.507719 378.264639 
L 348.421955 374.04104 
L 350.336192 383.260096 
L 352.250429 389.374041 
L 356.078902 389.374041 
L 357.993139 397.256287 
L 359.907376 397.256287 
L 361.821612 383.260096 
L 369.478559 383.260096 
L 371.392796 378.264639 
L 373.307033 367.155236 
L 375.221269 374.04104 
L 377.135506 378.264639 
L 379.049743 383.260096 
L 382.878216 383.260096 
L 384.792453 389.374041 
L 386.70669 408.36569 
L 388.620926 383.260096 
L 390.535163 374.04104 
L 392.4494 367.155236 
L 394.363636 367.155236 
L 396.277873 364.268447 
L 400.106346 364.268447 
L 403.93482 383.260096 
L 405.849057 389.374041 
L 407.763293 383.260096 
L 409.67753 389.374041 
L 411.591767 383.260096 
L 413.506003 367.155236 
L 415.42024 370.382392 
L 417.334477 364.268447 
L 419.248714 367.155236 
L 421.16295 370.382392 
L 424.991424 370.382392 
L 426.90566 374.04104 
L 428.819897 370.382392 
L 430.734134 374.04104 
L 434.562607 374.04104 
L 436.476844 370.382392 
L 438.391081 361.657028 
L 440.305317 364.268447 
L 442.219554 345.276798 
L 444.133791 342.665379 
L 446.048027 339.162853 
L 447.962264 339.162853 
L 449.876501 340.281341 
L 453.704974 338.088238 
L 455.619211 343.939989 
L 457.533448 346.682191 
L 463.276158 346.682191 
L 465.190395 353.159044 
L 467.104631 353.159044 
L 470.933105 357.079887 
L 472.847341 361.657028 
L 474.761578 359.27299 
L 476.675815 357.079887 
L 478.590051 357.079887 
L 480.504288 359.27299 
L 482.418525 370.382392 
L 484.332762 357.079887 
L 486.246998 357.079887 
L 488.161235 359.27299 
L 490.075472 361.657028 
L 491.989708 348.163587 
L 495.818182 337.054185 
L 497.732419 336.057742 
L 499.646655 330.738031 
L 501.560892 330.738031 
L 503.475129 329.943797 
L 505.389365 324.94834 
L 507.303602 324.94834 
L 507.306884 433 
M 520.70251 433 
L 520.703259 408.36569 
L 522.617496 296.413381 
L 524.531732 289.349081 
L 526.445969 280.851097 
L 528.360206 280.079239 
L 530.274443 276.852083 
L 532.188679 271.725394 
L 534.102916 268.969836 
L 536.017153 263.402526 
L 537.931389 261.342467 
L 539.845626 261.024239 
L 541.759863 259.847597 
L 543.674099 260.213738 
L 545.588336 257.192129 
L 547.502573 254.872354 
L 549.41681 254.075231 
L 551.331046 252.640392 
L 553.245283 251.859475 
L 557.073756 252.224194 
L 558.987993 250.576633 
L 560.90223 249.851632 
L 562.816467 249.809577 
L 566.64494 248.778636 
L 568.559177 248.65749 
L 570.473413 248.376882 
L 572.38765 248.416793 
L 574.301887 250.147842 
L 576.216123 250.837165 
L 578.13036 250.750046 
L 580.044597 253.06301 
L 581.958834 252.547356 
L 583.87307 252.362226 
L 589.61578 252.362226 
L 589.61578 252.362226 
" style="fill:none;stroke:#8eba42;stroke-linecap:square;stroke-opacity:0.4;stroke-width:2;"/>
   </g>
   <g id="line2d_67">
    <defs>
     <path d="M 0 3 
C 0.795609 3 1.55874 2.683901 2.12132 2.12132 
C 2.683901 1.55874 3 0.795609 3 0 
C 3 -0.795609 2.683901 -1.55874 2.12132 -2.12132 
C 1.55874 -2.683901 0.795609 -3 0 -3 
C -0.795609 -3 -1.55874 -2.683901 -2.12132 -2.12132 
C -2.683901 -1.55874 -3 -0.795609 -3 0 
C -3 0.795609 -2.683901 1.55874 -2.12132 2.12132 
C -1.55874 2.683901 -0.795609 3 0 3 
z
" id="mde46da5e52" style="stroke:#8eba42;stroke-opacity:0.4;"/>
    </defs>
    <g clip-path="url(#pd3b7f30945)">
     <use style="fill:#8eba42;fill-opacity:0.4;stroke:#8eba42;stroke-opacity:0.4;" x="589.61578" xlink:href="#mde46da5e52" y="252.362226"/>
    </g>
   </g>
   <g id="line2d_68">
    <path clip-path="url(#pd3b7f30945)" d="M 93.825408 433 
L 93.828473 432.984955 
L 95.74271 428.137202 
L 97.656947 425.324565 
L 99.571184 420.440714 
L 101.48542 408.777774 
L 103.399657 399.820913 
L 105.313894 388.362472 
L 109.142367 369.544787 
L 111.056604 362.504295 
L 112.97084 356.579964 
L 116.799314 341.590824 
L 120.627787 327.120608 
L 124.456261 313.501723 
L 126.370497 308.540141 
L 128.284734 304.131548 
L 130.198971 298.040057 
L 134.027444 287.753723 
L 135.941681 284.144172 
L 139.770154 277.686855 
L 141.684391 274.572912 
L 143.598628 270.814625 
L 145.512864 268.592841 
L 147.427101 267.067314 
L 149.341338 265.39126 
L 151.255575 264.277684 
L 153.169811 263.819211 
L 155.084048 263.522625 
L 156.998285 263.734669 
L 158.912521 262.922876 
L 160.826758 263.012095 
L 164.655232 263.533553 
L 166.569468 263.323054 
L 168.483705 262.889049 
L 170.397942 262.732918 
L 172.312178 263.026397 
L 174.226415 262.500377 
L 176.140652 262.383095 
L 178.054889 262.851709 
L 179.969125 263.933575 
L 181.883362 265.288135 
L 183.797599 265.879033 
L 185.711835 265.702985 
L 187.626072 265.801749 
L 189.540309 266.367566 
L 191.454545 266.399907 
L 193.368782 266.87114 
L 195.283019 267.175291 
L 197.197256 267.054882 
L 199.111492 267.436605 
L 201.025729 268.490055 
L 204.854202 269.085856 
L 206.768439 269.5425 
L 208.682676 270.268836 
L 212.511149 273.425331 
L 214.425386 273.820215 
L 216.339623 274.054556 
L 218.253859 274.786328 
L 220.168096 275.187534 
L 222.082333 274.731447 
L 223.996569 274.973749 
L 225.910806 275.620177 
L 227.825043 277.262664 
L 229.73928 278.55231 
L 233.567753 279.439485 
L 235.48199 281.500798 
L 237.396226 284.706466 
L 241.2247 284.856794 
L 243.138937 285.216159 
L 245.053173 285.949345 
L 246.96741 285.649628 
L 248.881647 284.765708 
L 250.795883 283.284312 
L 252.71012 285.280542 
L 254.624357 286.007201 
L 258.45283 288.184795 
L 260.367067 289.318778 
L 262.281304 290.658155 
L 269.93825 292.963424 
L 271.852487 292.561111 
L 275.680961 293.863259 
L 277.595197 294.470607 
L 285.252144 298.330408 
L 287.166381 298.460447 
L 289.080617 298.45393 
L 292.909091 298.155829 
L 294.823328 299.227092 
L 296.737564 299.503275 
L 298.651801 300.216585 
L 302.480274 300.3629 
L 304.394511 301.752854 
L 306.308748 302.227311 
L 308.222985 300.948963 
L 310.137221 300.679088 
L 312.051458 302.377279 
L 313.965695 302.294695 
L 315.879931 302.42243 
L 317.794168 298.506107 
L 319.708405 297.411914 
L 321.622642 295.721348 
L 323.536878 294.782254 
L 325.451115 292.466685 
L 327.365352 291.580437 
L 329.279588 291.544969 
L 331.193825 293.038183 
L 333.108062 292.461449 
L 335.022298 292.713929 
L 336.936535 292.128387 
L 338.850772 291.267877 
L 340.765009 291.308007 
L 344.593482 289.66644 
L 346.507719 288.518276 
L 348.421955 287.881891 
L 350.336192 287.022804 
L 354.164666 286.783433 
L 356.078902 284.361473 
L 357.993139 283.3368 
L 359.907376 282.556187 
L 363.735849 281.708649 
L 365.650086 280.938067 
L 367.564322 281.186744 
L 369.478559 283.276821 
L 371.392796 283.258105 
L 373.307033 283.464693 
L 375.221269 283.344307 
L 379.049743 283.460923 
L 380.963979 283.067923 
L 382.878216 283.112553 
L 384.792453 284.275899 
L 386.70669 283.77562 
L 388.620926 284.486423 
L 390.535163 284.078546 
L 392.4494 284.279783 
L 394.363636 284.051569 
L 396.277873 284.365369 
L 398.19211 283.359326 
L 400.106346 284.024618 
L 402.020583 283.970796 
L 403.93482 284.876636 
L 405.849057 285.059855 
L 407.763293 285.543667 
L 409.67753 285.551803 
L 413.506003 286.394666 
L 415.42024 286.28579 
L 417.334477 286.872952 
L 419.248714 286.958481 
L 421.16295 287.577918 
L 423.077187 286.924238 
L 426.90566 288.423226 
L 428.819897 288.590916 
L 430.734134 288.60001 
L 432.64837 289.492058 
L 434.562607 289.035472 
L 436.476844 290.550515 
L 438.391081 293.753267 
L 440.305317 293.048879 
L 442.219554 293.918422 
L 444.133791 292.608446 
L 446.048027 292.931447 
L 447.962264 293.05958 
L 449.876501 292.278804 
L 451.790738 288.216167 
L 453.704974 289.104866 
L 455.619211 289.295446 
L 457.533448 290.648352 
L 459.447684 290.62386 
L 461.361921 291.34317 
L 463.276158 291.338144 
L 465.190395 292.703362 
L 467.104631 292.102537 
L 469.018868 291.840243 
L 470.933105 291.794216 
L 474.761578 291.428753 
L 478.590051 292.534849 
L 480.504288 293.387976 
L 482.418525 293.747779 
L 484.332762 293.808208 
L 486.246998 294.179183 
L 488.161235 293.808208 
L 490.075472 293.043531 
L 491.989708 294.190335 
L 493.903945 294.257339 
L 495.818182 293.632783 
L 497.732419 293.431337 
L 499.646655 293.714873 
L 501.560892 293.317659 
L 503.475129 294.001374 
L 505.389365 293.480201 
L 507.303602 293.097066 
L 509.217839 293.890827 
L 511.132075 294.223816 
L 513.046312 293.572739 
L 514.960549 293.540043 
L 520.703259 291.338144 
L 524.531732 290.948931 
L 526.445969 290.01857 
L 528.360206 290.259084 
L 532.188679 289.975501 
L 534.102916 290.692493 
L 536.017153 290.124136 
L 537.931389 289.756421 
L 539.845626 289.99942 
L 543.674099 289.66644 
L 545.588336 286.954198 
L 547.502573 286.60104 
L 551.331046 285.159947 
L 553.245283 284.670983 
L 555.15952 284.416069 
L 557.073756 283.81378 
L 558.987993 284.549113 
L 560.90223 283.310543 
L 562.816467 283.090229 
L 564.730703 283.228185 
L 566.64494 282.302052 
L 568.559177 281.751117 
L 570.473413 281.588678 
L 572.38765 280.515011 
L 574.301887 278.923539 
L 576.216123 276.544559 
L 578.13036 274.407161 
L 580.044597 273.953117 
L 581.958834 273.183331 
L 583.87307 272.723478 
L 585.787307 271.590625 
L 587.701544 270.629911 
L 589.61578 272.472422 
L 591.530017 273.79901 
L 593.444254 274.442401 
L 595.358491 274.698571 
L 601.101201 274.698571 
L 601.101201 274.698571 
" style="fill:none;stroke:#ffb5b8;stroke-linecap:square;stroke-opacity:0.4;stroke-width:2;"/>
   </g>
   <g id="line2d_69">
    <defs>
     <path d="M 0 3 
C 0.795609 3 1.55874 2.683901 2.12132 2.12132 
C 2.683901 1.55874 3 0.795609 3 0 
C 3 -0.795609 2.683901 -1.55874 2.12132 -2.12132 
C 1.55874 -2.683901 0.795609 -3 0 -3 
C -0.795609 -3 -1.55874 -2.683901 -2.12132 -2.12132 
C -2.683901 -1.55874 -3 -0.795609 -3 0 
C -3 0.795609 -2.683901 1.55874 -2.12132 2.12132 
C -1.55874 2.683901 -0.795609 3 0 3 
z
" id="m8963bb5b60" style="stroke:#ffb5b8;stroke-opacity:0.4;"/>
    </defs>
    <g clip-path="url(#pd3b7f30945)">
     <use style="fill:#ffb5b8;fill-opacity:0.4;stroke:#ffb5b8;stroke-opacity:0.4;" x="601.101201" xlink:href="#m8963bb5b60" y="274.698571"/>
    </g>
   </g>
   <g id="patch_3">
    <path d="M 90 378 
L 90 229.745455 
" style="fill:none;stroke:#ffffff;stroke-linecap:square;stroke-linejoin:miter;"/>
   </g>
   <g id="patch_4">
    <path d="M 648 378 
L 648 229.745455 
" style="fill:none;stroke:#ffffff;stroke-linecap:square;stroke-linejoin:miter;"/>
   </g>
   <g id="patch_5">
    <path d="M 90 378 
L 648 378 
" style="fill:none;stroke:#ffffff;stroke-linecap:square;stroke-linejoin:miter;"/>
   </g>
   <g id="patch_6">
    <path d="M 90 229.745455 
L 648 229.745455 
" style="fill:none;stroke:#ffffff;stroke-linecap:square;stroke-linejoin:miter;"/>
   </g>
   <g id="text_15">
    <!-- Germany -->
    <defs>
     <path d="M 59.515625 10.40625 
L 59.515625 29.984375 
L 43.40625 29.984375 
L 43.40625 38.09375 
L 69.28125 38.09375 
L 69.28125 6.78125 
Q 63.578125 2.734375 56.6875 0.65625 
Q 49.8125 -1.421875 42 -1.421875 
Q 24.90625 -1.421875 15.25 8.5625 
Q 5.609375 18.5625 5.609375 36.375 
Q 5.609375 54.25 15.25 64.234375 
Q 24.90625 74.21875 42 74.21875 
Q 49.125 74.21875 55.546875 72.453125 
Q 61.96875 70.703125 67.390625 67.28125 
L 67.390625 56.78125 
Q 61.921875 61.421875 55.765625 63.765625 
Q 49.609375 66.109375 42.828125 66.109375 
Q 29.4375 66.109375 22.71875 58.640625 
Q 16.015625 51.171875 16.015625 36.375 
Q 16.015625 21.625 22.71875 14.15625 
Q 29.4375 6.6875 42.828125 6.6875 
Q 48.046875 6.6875 52.140625 7.59375 
Q 56.25 8.5 59.515625 10.40625 
z
" id="DejaVuSans-71"/>
    </defs>
    <g transform="translate(593.444254 279.3559)scale(0.1 -0.1)">
     <use xlink:href="#DejaVuSans-71"/>
     <use x="77.490234" xlink:href="#DejaVuSans-101"/>
     <use x="139.013672" xlink:href="#DejaVuSans-114"/>
     <use x="178.376953" xlink:href="#DejaVuSans-109"/>
     <use x="275.789062" xlink:href="#DejaVuSans-97"/>
     <use x="337.068359" xlink:href="#DejaVuSans-110"/>
     <use x="400.447266" xlink:href="#DejaVuSans-121"/>
    </g>
   </g>
   <g id="text_16">
    <!-- Poland -->
    <defs>
     <path d="M 19.671875 64.796875 
L 19.671875 37.40625 
L 32.078125 37.40625 
Q 38.96875 37.40625 42.71875 40.96875 
Q 46.484375 44.53125 46.484375 51.125 
Q 46.484375 57.671875 42.71875 61.234375 
Q 38.96875 64.796875 32.078125 64.796875 
z
M 9.8125 72.90625 
L 32.078125 72.90625 
Q 44.34375 72.90625 50.609375 67.359375 
Q 56.890625 61.8125 56.890625 51.125 
Q 56.890625 40.328125 50.609375 34.8125 
Q 44.34375 29.296875 32.078125 29.296875 
L 19.671875 29.296875 
L 19.671875 0 
L 9.8125 0 
z
" id="DejaVuSans-80"/>
    </defs>
    <g transform="translate(568.559177 244.897785)scale(0.1 -0.1)">
     <use xlink:href="#DejaVuSans-80"/>
     <use x="56.677734" xlink:href="#DejaVuSans-111"/>
     <use x="117.859375" xlink:href="#DejaVuSans-108"/>
     <use x="145.642578" xlink:href="#DejaVuSans-97"/>
     <use x="206.921875" xlink:href="#DejaVuSans-110"/>
     <use x="270.300781" xlink:href="#DejaVuSans-100"/>
    </g>
   </g>
   <g id="text_17">
    <!-- Belarus -->
    <defs>
     <path d="M 19.671875 34.8125 
L 19.671875 8.109375 
L 35.5 8.109375 
Q 43.453125 8.109375 47.28125 11.40625 
Q 51.125 14.703125 51.125 21.484375 
Q 51.125 28.328125 47.28125 31.5625 
Q 43.453125 34.8125 35.5 34.8125 
z
M 19.671875 64.796875 
L 19.671875 42.828125 
L 34.28125 42.828125 
Q 41.5 42.828125 45.03125 45.53125 
Q 48.578125 48.25 48.578125 53.8125 
Q 48.578125 59.328125 45.03125 62.0625 
Q 41.5 64.796875 34.28125 64.796875 
z
M 9.8125 72.90625 
L 35.015625 72.90625 
Q 46.296875 72.90625 52.390625 68.21875 
Q 58.5 63.53125 58.5 54.890625 
Q 58.5 48.1875 55.375 44.234375 
Q 52.25 40.28125 46.1875 39.3125 
Q 53.46875 37.75 57.5 32.78125 
Q 61.53125 27.828125 61.53125 20.40625 
Q 61.53125 10.640625 54.890625 5.3125 
Q 48.25 0 35.984375 0 
L 9.8125 0 
z
" id="DejaVuSans-66"/>
     <path d="M 8.5 21.578125 
L 8.5 54.6875 
L 17.484375 54.6875 
L 17.484375 21.921875 
Q 17.484375 14.15625 20.5 10.265625 
Q 23.53125 6.390625 29.59375 6.390625 
Q 36.859375 6.390625 41.078125 11.03125 
Q 45.3125 15.671875 45.3125 23.6875 
L 45.3125 54.6875 
L 54.296875 54.6875 
L 54.296875 0 
L 45.3125 0 
L 45.3125 8.40625 
Q 42.046875 3.421875 37.71875 1 
Q 33.40625 -1.421875 27.6875 -1.421875 
Q 18.265625 -1.421875 13.375 4.4375 
Q 8.5 10.296875 8.5 21.578125 
z
M 31.109375 56 
z
" id="DejaVuSans-117"/>
    </defs>
    <g transform="translate(537.931389 319.966797)scale(0.1 -0.1)">
     <use xlink:href="#DejaVuSans-66"/>
     <use x="68.603516" xlink:href="#DejaVuSans-101"/>
     <use x="130.126953" xlink:href="#DejaVuSans-108"/>
     <use x="157.910156" xlink:href="#DejaVuSans-97"/>
     <use x="219.189453" xlink:href="#DejaVuSans-114"/>
     <use x="260.302734" xlink:href="#DejaVuSans-117"/>
     <use x="323.681641" xlink:href="#DejaVuSans-115"/>
    </g>
   </g>
   <g id="text_18">
    <!-- Switzerland -->
    <defs>
     <path d="M 53.515625 70.515625 
L 53.515625 60.890625 
Q 47.90625 63.578125 42.921875 64.890625 
Q 37.9375 66.21875 33.296875 66.21875 
Q 25.25 66.21875 20.875 63.09375 
Q 16.5 59.96875 16.5 54.203125 
Q 16.5 49.359375 19.40625 46.890625 
Q 22.3125 44.4375 30.421875 42.921875 
L 36.375 41.703125 
Q 47.40625 39.59375 52.65625 34.296875 
Q 57.90625 29 57.90625 20.125 
Q 57.90625 9.515625 50.796875 4.046875 
Q 43.703125 -1.421875 29.984375 -1.421875 
Q 24.8125 -1.421875 18.96875 -0.25 
Q 13.140625 0.921875 6.890625 3.21875 
L 6.890625 13.375 
Q 12.890625 10.015625 18.65625 8.296875 
Q 24.421875 6.59375 29.984375 6.59375 
Q 38.421875 6.59375 43.015625 9.90625 
Q 47.609375 13.234375 47.609375 19.390625 
Q 47.609375 24.75 44.3125 27.78125 
Q 41.015625 30.8125 33.5 32.328125 
L 27.484375 33.5 
Q 16.453125 35.6875 11.515625 40.375 
Q 6.59375 45.0625 6.59375 53.421875 
Q 6.59375 63.09375 13.40625 68.65625 
Q 20.21875 74.21875 32.171875 74.21875 
Q 37.3125 74.21875 42.625 73.28125 
Q 47.953125 72.359375 53.515625 70.515625 
z
" id="DejaVuSans-83"/>
     <path d="M 5.515625 54.6875 
L 48.1875 54.6875 
L 48.1875 46.484375 
L 14.40625 7.171875 
L 48.1875 7.171875 
L 48.1875 0 
L 4.296875 0 
L 4.296875 8.203125 
L 38.09375 47.515625 
L 5.515625 47.515625 
z
" id="DejaVuSans-122"/>
    </defs>
    <g transform="translate(593.444254 252.362226)scale(0.1 -0.1)">
     <use xlink:href="#DejaVuSans-83"/>
     <use x="63.476562" xlink:href="#DejaVuSans-119"/>
     <use x="145.263672" xlink:href="#DejaVuSans-105"/>
     <use x="173.046875" xlink:href="#DejaVuSans-116"/>
     <use x="212.255859" xlink:href="#DejaVuSans-122"/>
     <use x="264.746094" xlink:href="#DejaVuSans-101"/>
     <use x="326.269531" xlink:href="#DejaVuSans-114"/>
     <use x="367.382812" xlink:href="#DejaVuSans-108"/>
     <use x="395.166016" xlink:href="#DejaVuSans-97"/>
     <use x="456.445312" xlink:href="#DejaVuSans-110"/>
     <use x="519.824219" xlink:href="#DejaVuSans-100"/>
    </g>
   </g>
   <g id="text_19">
    <!-- US -->
    <defs>
     <path d="M 8.6875 72.90625 
L 18.609375 72.90625 
L 18.609375 28.609375 
Q 18.609375 16.890625 22.84375 11.734375 
Q 27.09375 6.59375 36.625 6.59375 
Q 46.09375 6.59375 50.34375 11.734375 
Q 54.59375 16.890625 54.59375 28.609375 
L 54.59375 72.90625 
L 64.5 72.90625 
L 64.5 27.390625 
Q 64.5 13.140625 57.4375 5.859375 
Q 50.390625 -1.421875 36.625 -1.421875 
Q 22.796875 -1.421875 15.734375 5.859375 
Q 8.6875 13.140625 8.6875 27.390625 
z
" id="DejaVuSans-85"/>
    </defs>
    <g transform="translate(604.929674 274.698571)scale(0.1 -0.1)">
     <use xlink:href="#DejaVuSans-85"/>
     <use x="73.193359" xlink:href="#DejaVuSans-83"/>
    </g>
   </g>
  </g>
 </g>
 <defs>
  <clipPath id="pd3b7f30945">
   <rect height="148.254545" width="558" x="90" y="229.745455"/>
  </clipPath>
 </defs>
</svg>
