<?xml version="1.0" encoding="utf-8" standalone="no"?>
<!DOCTYPE svg PUBLIC "-//W3C//DTD SVG 1.1//EN"
  "http://www.w3.org/Graphics/SVG/1.1/DTD/svg11.dtd">
<!-- Created with matplotlib (https://matplotlib.org/) -->
<svg height="180pt" version="1.1" viewBox="0 0 720 180" width="720pt" xmlns="http://www.w3.org/2000/svg" xmlns:xlink="http://www.w3.org/1999/xlink">
 <defs>
  <style type="text/css">
*{stroke-linecap:butt;stroke-linejoin:round;}
  </style>
 </defs>
 <g id="figure_1">
  <g id="patch_1">
   <path d="M 0 180 
L 720 180 
L 720 0 
L 0 0 
z
" style="fill:#ffffff;"/>
  </g>
  <g id="axes_1">
   <g id="patch_2">
    <path d="M 90 157.5 
L 648 157.5 
L 648 21.6 
L 90 21.6 
z
" style="fill:#e5e5e5;"/>
   </g>
   <g id="matplotlib.axis_1">
    <g id="xtick_1">
     <g id="line2d_1">
      <path clip-path="url(#ped5bbaca34)" d="M 136.767549 157.5 
L 136.767549 21.6 
" style="fill:none;stroke:#ffffff;stroke-linecap:square;stroke-width:0.8;"/>
     </g>
     <g id="line2d_2">
      <defs>
       <path d="M 0 0 
L 0 3.5 
" id="mab6925db2a" style="stroke:#555555;stroke-width:0.8;"/>
      </defs>
      <g>
       <use style="fill:#555555;stroke:#555555;stroke-width:0.8;" x="136.767549" xlink:href="#mab6925db2a" y="157.5"/>
      </g>
     </g>
     <g id="text_1">
      <!-- 2020-02 -->
      <defs>
       <path d="M 19.1875 8.296875 
L 53.609375 8.296875 
L 53.609375 0 
L 7.328125 0 
L 7.328125 8.296875 
Q 12.9375 14.109375 22.625 23.890625 
Q 32.328125 33.6875 34.8125 36.53125 
Q 39.546875 41.84375 41.421875 45.53125 
Q 43.3125 49.21875 43.3125 52.78125 
Q 43.3125 58.59375 39.234375 62.25 
Q 35.15625 65.921875 28.609375 65.921875 
Q 23.96875 65.921875 18.8125 64.3125 
Q 13.671875 62.703125 7.8125 59.421875 
L 7.8125 69.390625 
Q 13.765625 71.78125 18.9375 73 
Q 24.125 74.21875 28.421875 74.21875 
Q 39.75 74.21875 46.484375 68.546875 
Q 53.21875 62.890625 53.21875 53.421875 
Q 53.21875 48.921875 51.53125 44.890625 
Q 49.859375 40.875 45.40625 35.40625 
Q 44.1875 33.984375 37.640625 27.21875 
Q 31.109375 20.453125 19.1875 8.296875 
z
" id="DejaVuSans-50"/>
       <path d="M 31.78125 66.40625 
Q 24.171875 66.40625 20.328125 58.90625 
Q 16.5 51.421875 16.5 36.375 
Q 16.5 21.390625 20.328125 13.890625 
Q 24.171875 6.390625 31.78125 6.390625 
Q 39.453125 6.390625 43.28125 13.890625 
Q 47.125 21.390625 47.125 36.375 
Q 47.125 51.421875 43.28125 58.90625 
Q 39.453125 66.40625 31.78125 66.40625 
z
M 31.78125 74.21875 
Q 44.046875 74.21875 50.515625 64.515625 
Q 56.984375 54.828125 56.984375 36.375 
Q 56.984375 17.96875 50.515625 8.265625 
Q 44.046875 -1.421875 31.78125 -1.421875 
Q 19.53125 -1.421875 13.0625 8.265625 
Q 6.59375 17.96875 6.59375 36.375 
Q 6.59375 54.828125 13.0625 64.515625 
Q 19.53125 74.21875 31.78125 74.21875 
z
" id="DejaVuSans-48"/>
       <path d="M 4.890625 31.390625 
L 31.203125 31.390625 
L 31.203125 23.390625 
L 4.890625 23.390625 
z
" id="DejaVuSans-45"/>
      </defs>
      <g style="fill:#555555;" transform="translate(115.876143 172.098437)scale(0.1 -0.1)">
       <use xlink:href="#DejaVuSans-50"/>
       <use x="63.623047" xlink:href="#DejaVuSans-48"/>
       <use x="127.246094" xlink:href="#DejaVuSans-50"/>
       <use x="190.869141" xlink:href="#DejaVuSans-48"/>
       <use x="254.492188" xlink:href="#DejaVuSans-45"/>
       <use x="290.576172" xlink:href="#DejaVuSans-48"/>
       <use x="354.199219" xlink:href="#DejaVuSans-50"/>
      </g>
     </g>
    </g>
    <g id="xtick_2">
     <g id="line2d_3">
      <path clip-path="url(#ped5bbaca34)" d="M 198.838895 157.5 
L 198.838895 21.6 
" style="fill:none;stroke:#ffffff;stroke-linecap:square;stroke-width:0.8;"/>
     </g>
     <g id="line2d_4">
      <g>
       <use style="fill:#555555;stroke:#555555;stroke-width:0.8;" x="198.838895" xlink:href="#mab6925db2a" y="157.5"/>
      </g>
     </g>
     <g id="text_2">
      <!-- 2020-03 -->
      <defs>
       <path d="M 40.578125 39.3125 
Q 47.65625 37.796875 51.625 33 
Q 55.609375 28.21875 55.609375 21.1875 
Q 55.609375 10.40625 48.1875 4.484375 
Q 40.765625 -1.421875 27.09375 -1.421875 
Q 22.515625 -1.421875 17.65625 -0.515625 
Q 12.796875 0.390625 7.625 2.203125 
L 7.625 11.71875 
Q 11.71875 9.328125 16.59375 8.109375 
Q 21.484375 6.890625 26.8125 6.890625 
Q 36.078125 6.890625 40.9375 10.546875 
Q 45.796875 14.203125 45.796875 21.1875 
Q 45.796875 27.640625 41.28125 31.265625 
Q 36.765625 34.90625 28.71875 34.90625 
L 20.21875 34.90625 
L 20.21875 43.015625 
L 29.109375 43.015625 
Q 36.375 43.015625 40.234375 45.921875 
Q 44.09375 48.828125 44.09375 54.296875 
Q 44.09375 59.90625 40.109375 62.90625 
Q 36.140625 65.921875 28.71875 65.921875 
Q 24.65625 65.921875 20.015625 65.03125 
Q 15.375 64.15625 9.8125 62.3125 
L 9.8125 71.09375 
Q 15.4375 72.65625 20.34375 73.4375 
Q 25.25 74.21875 29.59375 74.21875 
Q 40.828125 74.21875 47.359375 69.109375 
Q 53.90625 64.015625 53.90625 55.328125 
Q 53.90625 49.265625 50.4375 45.09375 
Q 46.96875 40.921875 40.578125 39.3125 
z
" id="DejaVuSans-51"/>
      </defs>
      <g style="fill:#555555;" transform="translate(177.947489 172.098437)scale(0.1 -0.1)">
       <use xlink:href="#DejaVuSans-50"/>
       <use x="63.623047" xlink:href="#DejaVuSans-48"/>
       <use x="127.246094" xlink:href="#DejaVuSans-50"/>
       <use x="190.869141" xlink:href="#DejaVuSans-48"/>
       <use x="254.492188" xlink:href="#DejaVuSans-45"/>
       <use x="290.576172" xlink:href="#DejaVuSans-48"/>
       <use x="354.199219" xlink:href="#DejaVuSans-51"/>
      </g>
     </g>
    </g>
    <g id="xtick_3">
     <g id="line2d_5">
      <path clip-path="url(#ped5bbaca34)" d="M 265.191024 157.5 
L 265.191024 21.6 
" style="fill:none;stroke:#ffffff;stroke-linecap:square;stroke-width:0.8;"/>
     </g>
     <g id="line2d_6">
      <g>
       <use style="fill:#555555;stroke:#555555;stroke-width:0.8;" x="265.191024" xlink:href="#mab6925db2a" y="157.5"/>
      </g>
     </g>
     <g id="text_3">
      <!-- 2020-04 -->
      <defs>
       <path d="M 37.796875 64.3125 
L 12.890625 25.390625 
L 37.796875 25.390625 
z
M 35.203125 72.90625 
L 47.609375 72.90625 
L 47.609375 25.390625 
L 58.015625 25.390625 
L 58.015625 17.1875 
L 47.609375 17.1875 
L 47.609375 0 
L 37.796875 0 
L 37.796875 17.1875 
L 4.890625 17.1875 
L 4.890625 26.703125 
z
" id="DejaVuSans-52"/>
      </defs>
      <g style="fill:#555555;" transform="translate(244.299618 172.098437)scale(0.1 -0.1)">
       <use xlink:href="#DejaVuSans-50"/>
       <use x="63.623047" xlink:href="#DejaVuSans-48"/>
       <use x="127.246094" xlink:href="#DejaVuSans-50"/>
       <use x="190.869141" xlink:href="#DejaVuSans-48"/>
       <use x="254.492188" xlink:href="#DejaVuSans-45"/>
       <use x="290.576172" xlink:href="#DejaVuSans-48"/>
       <use x="354.199219" xlink:href="#DejaVuSans-52"/>
      </g>
     </g>
    </g>
    <g id="xtick_4">
     <g id="line2d_7">
      <path clip-path="url(#ped5bbaca34)" d="M 329.402762 157.5 
L 329.402762 21.6 
" style="fill:none;stroke:#ffffff;stroke-linecap:square;stroke-width:0.8;"/>
     </g>
     <g id="line2d_8">
      <g>
       <use style="fill:#555555;stroke:#555555;stroke-width:0.8;" x="329.402762" xlink:href="#mab6925db2a" y="157.5"/>
      </g>
     </g>
     <g id="text_4">
      <!-- 2020-05 -->
      <defs>
       <path d="M 10.796875 72.90625 
L 49.515625 72.90625 
L 49.515625 64.59375 
L 19.828125 64.59375 
L 19.828125 46.734375 
Q 21.96875 47.46875 24.109375 47.828125 
Q 26.265625 48.1875 28.421875 48.1875 
Q 40.625 48.1875 47.75 41.5 
Q 54.890625 34.8125 54.890625 23.390625 
Q 54.890625 11.625 47.5625 5.09375 
Q 40.234375 -1.421875 26.90625 -1.421875 
Q 22.3125 -1.421875 17.546875 -0.640625 
Q 12.796875 0.140625 7.71875 1.703125 
L 7.71875 11.625 
Q 12.109375 9.234375 16.796875 8.0625 
Q 21.484375 6.890625 26.703125 6.890625 
Q 35.15625 6.890625 40.078125 11.328125 
Q 45.015625 15.765625 45.015625 23.390625 
Q 45.015625 31 40.078125 35.4375 
Q 35.15625 39.890625 26.703125 39.890625 
Q 22.75 39.890625 18.8125 39.015625 
Q 14.890625 38.140625 10.796875 36.28125 
z
" id="DejaVuSans-53"/>
      </defs>
      <g style="fill:#555555;" transform="translate(308.511356 172.098437)scale(0.1 -0.1)">
       <use xlink:href="#DejaVuSans-50"/>
       <use x="63.623047" xlink:href="#DejaVuSans-48"/>
       <use x="127.246094" xlink:href="#DejaVuSans-50"/>
       <use x="190.869141" xlink:href="#DejaVuSans-48"/>
       <use x="254.492188" xlink:href="#DejaVuSans-45"/>
       <use x="290.576172" xlink:href="#DejaVuSans-48"/>
       <use x="354.199219" xlink:href="#DejaVuSans-53"/>
      </g>
     </g>
    </g>
    <g id="xtick_5">
     <g id="line2d_9">
      <path clip-path="url(#ped5bbaca34)" d="M 395.754891 157.5 
L 395.754891 21.6 
" style="fill:none;stroke:#ffffff;stroke-linecap:square;stroke-width:0.8;"/>
     </g>
     <g id="line2d_10">
      <g>
       <use style="fill:#555555;stroke:#555555;stroke-width:0.8;" x="395.754891" xlink:href="#mab6925db2a" y="157.5"/>
      </g>
     </g>
     <g id="text_5">
      <!-- 2020-06 -->
      <defs>
       <path d="M 33.015625 40.375 
Q 26.375 40.375 22.484375 35.828125 
Q 18.609375 31.296875 18.609375 23.390625 
Q 18.609375 15.53125 22.484375 10.953125 
Q 26.375 6.390625 33.015625 6.390625 
Q 39.65625 6.390625 43.53125 10.953125 
Q 47.40625 15.53125 47.40625 23.390625 
Q 47.40625 31.296875 43.53125 35.828125 
Q 39.65625 40.375 33.015625 40.375 
z
M 52.59375 71.296875 
L 52.59375 62.3125 
Q 48.875 64.0625 45.09375 64.984375 
Q 41.3125 65.921875 37.59375 65.921875 
Q 27.828125 65.921875 22.671875 59.328125 
Q 17.53125 52.734375 16.796875 39.40625 
Q 19.671875 43.65625 24.015625 45.921875 
Q 28.375 48.1875 33.59375 48.1875 
Q 44.578125 48.1875 50.953125 41.515625 
Q 57.328125 34.859375 57.328125 23.390625 
Q 57.328125 12.15625 50.6875 5.359375 
Q 44.046875 -1.421875 33.015625 -1.421875 
Q 20.359375 -1.421875 13.671875 8.265625 
Q 6.984375 17.96875 6.984375 36.375 
Q 6.984375 53.65625 15.1875 63.9375 
Q 23.390625 74.21875 37.203125 74.21875 
Q 40.921875 74.21875 44.703125 73.484375 
Q 48.484375 72.75 52.59375 71.296875 
z
" id="DejaVuSans-54"/>
      </defs>
      <g style="fill:#555555;" transform="translate(374.863484 172.098437)scale(0.1 -0.1)">
       <use xlink:href="#DejaVuSans-50"/>
       <use x="63.623047" xlink:href="#DejaVuSans-48"/>
       <use x="127.246094" xlink:href="#DejaVuSans-50"/>
       <use x="190.869141" xlink:href="#DejaVuSans-48"/>
       <use x="254.492188" xlink:href="#DejaVuSans-45"/>
       <use x="290.576172" xlink:href="#DejaVuSans-48"/>
       <use x="354.199219" xlink:href="#DejaVuSans-54"/>
      </g>
     </g>
    </g>
    <g id="xtick_6">
     <g id="line2d_11">
      <path clip-path="url(#ped5bbaca34)" d="M 459.966628 157.5 
L 459.966628 21.6 
" style="fill:none;stroke:#ffffff;stroke-linecap:square;stroke-width:0.8;"/>
     </g>
     <g id="line2d_12">
      <g>
       <use style="fill:#555555;stroke:#555555;stroke-width:0.8;" x="459.966628" xlink:href="#mab6925db2a" y="157.5"/>
      </g>
     </g>
     <g id="text_6">
      <!-- 2020-07 -->
      <defs>
       <path d="M 8.203125 72.90625 
L 55.078125 72.90625 
L 55.078125 68.703125 
L 28.609375 0 
L 18.3125 0 
L 43.21875 64.59375 
L 8.203125 64.59375 
z
" id="DejaVuSans-55"/>
      </defs>
      <g style="fill:#555555;" transform="translate(439.075222 172.098437)scale(0.1 -0.1)">
       <use xlink:href="#DejaVuSans-50"/>
       <use x="63.623047" xlink:href="#DejaVuSans-48"/>
       <use x="127.246094" xlink:href="#DejaVuSans-50"/>
       <use x="190.869141" xlink:href="#DejaVuSans-48"/>
       <use x="254.492188" xlink:href="#DejaVuSans-45"/>
       <use x="290.576172" xlink:href="#DejaVuSans-48"/>
       <use x="354.199219" xlink:href="#DejaVuSans-55"/>
      </g>
     </g>
    </g>
    <g id="xtick_7">
     <g id="line2d_13">
      <path clip-path="url(#ped5bbaca34)" d="M 526.318757 157.5 
L 526.318757 21.6 
" style="fill:none;stroke:#ffffff;stroke-linecap:square;stroke-width:0.8;"/>
     </g>
     <g id="line2d_14">
      <g>
       <use style="fill:#555555;stroke:#555555;stroke-width:0.8;" x="526.318757" xlink:href="#mab6925db2a" y="157.5"/>
      </g>
     </g>
     <g id="text_7">
      <!-- 2020-08 -->
      <defs>
       <path d="M 31.78125 34.625 
Q 24.75 34.625 20.71875 30.859375 
Q 16.703125 27.09375 16.703125 20.515625 
Q 16.703125 13.921875 20.71875 10.15625 
Q 24.75 6.390625 31.78125 6.390625 
Q 38.8125 6.390625 42.859375 10.171875 
Q 46.921875 13.96875 46.921875 20.515625 
Q 46.921875 27.09375 42.890625 30.859375 
Q 38.875 34.625 31.78125 34.625 
z
M 21.921875 38.8125 
Q 15.578125 40.375 12.03125 44.71875 
Q 8.5 49.078125 8.5 55.328125 
Q 8.5 64.0625 14.71875 69.140625 
Q 20.953125 74.21875 31.78125 74.21875 
Q 42.671875 74.21875 48.875 69.140625 
Q 55.078125 64.0625 55.078125 55.328125 
Q 55.078125 49.078125 51.53125 44.71875 
Q 48 40.375 41.703125 38.8125 
Q 48.828125 37.15625 52.796875 32.3125 
Q 56.78125 27.484375 56.78125 20.515625 
Q 56.78125 9.90625 50.3125 4.234375 
Q 43.84375 -1.421875 31.78125 -1.421875 
Q 19.734375 -1.421875 13.25 4.234375 
Q 6.78125 9.90625 6.78125 20.515625 
Q 6.78125 27.484375 10.78125 32.3125 
Q 14.796875 37.15625 21.921875 38.8125 
z
M 18.3125 54.390625 
Q 18.3125 48.734375 21.84375 45.5625 
Q 25.390625 42.390625 31.78125 42.390625 
Q 38.140625 42.390625 41.71875 45.5625 
Q 45.3125 48.734375 45.3125 54.390625 
Q 45.3125 60.0625 41.71875 63.234375 
Q 38.140625 66.40625 31.78125 66.40625 
Q 25.390625 66.40625 21.84375 63.234375 
Q 18.3125 60.0625 18.3125 54.390625 
z
" id="DejaVuSans-56"/>
      </defs>
      <g style="fill:#555555;" transform="translate(505.427351 172.098437)scale(0.1 -0.1)">
       <use xlink:href="#DejaVuSans-50"/>
       <use x="63.623047" xlink:href="#DejaVuSans-48"/>
       <use x="127.246094" xlink:href="#DejaVuSans-50"/>
       <use x="190.869141" xlink:href="#DejaVuSans-48"/>
       <use x="254.492188" xlink:href="#DejaVuSans-45"/>
       <use x="290.576172" xlink:href="#DejaVuSans-48"/>
       <use x="354.199219" xlink:href="#DejaVuSans-56"/>
      </g>
     </g>
    </g>
    <g id="xtick_8">
     <g id="line2d_15">
      <path clip-path="url(#ped5bbaca34)" d="M 592.670886 157.5 
L 592.670886 21.6 
" style="fill:none;stroke:#ffffff;stroke-linecap:square;stroke-width:0.8;"/>
     </g>
     <g id="line2d_16">
      <g>
       <use style="fill:#555555;stroke:#555555;stroke-width:0.8;" x="592.670886" xlink:href="#mab6925db2a" y="157.5"/>
      </g>
     </g>
     <g id="text_8">
      <!-- 2020-09 -->
      <defs>
       <path d="M 10.984375 1.515625 
L 10.984375 10.5 
Q 14.703125 8.734375 18.5 7.8125 
Q 22.3125 6.890625 25.984375 6.890625 
Q 35.75 6.890625 40.890625 13.453125 
Q 46.046875 20.015625 46.78125 33.40625 
Q 43.953125 29.203125 39.59375 26.953125 
Q 35.25 24.703125 29.984375 24.703125 
Q 19.046875 24.703125 12.671875 31.3125 
Q 6.296875 37.9375 6.296875 49.421875 
Q 6.296875 60.640625 12.9375 67.421875 
Q 19.578125 74.21875 30.609375 74.21875 
Q 43.265625 74.21875 49.921875 64.515625 
Q 56.59375 54.828125 56.59375 36.375 
Q 56.59375 19.140625 48.40625 8.859375 
Q 40.234375 -1.421875 26.421875 -1.421875 
Q 22.703125 -1.421875 18.890625 -0.6875 
Q 15.09375 0.046875 10.984375 1.515625 
z
M 30.609375 32.421875 
Q 37.25 32.421875 41.125 36.953125 
Q 45.015625 41.5 45.015625 49.421875 
Q 45.015625 57.28125 41.125 61.84375 
Q 37.25 66.40625 30.609375 66.40625 
Q 23.96875 66.40625 20.09375 61.84375 
Q 16.21875 57.28125 16.21875 49.421875 
Q 16.21875 41.5 20.09375 36.953125 
Q 23.96875 32.421875 30.609375 32.421875 
z
" id="DejaVuSans-57"/>
      </defs>
      <g style="fill:#555555;" transform="translate(571.77948 172.098437)scale(0.1 -0.1)">
       <use xlink:href="#DejaVuSans-50"/>
       <use x="63.623047" xlink:href="#DejaVuSans-48"/>
       <use x="127.246094" xlink:href="#DejaVuSans-50"/>
       <use x="190.869141" xlink:href="#DejaVuSans-48"/>
       <use x="254.492188" xlink:href="#DejaVuSans-45"/>
       <use x="290.576172" xlink:href="#DejaVuSans-48"/>
       <use x="354.199219" xlink:href="#DejaVuSans-57"/>
      </g>
     </g>
    </g>
   </g>
   <g id="matplotlib.axis_2">
    <g id="ytick_1">
     <g id="line2d_17">
      <path clip-path="url(#ped5bbaca34)" d="M 90 156.997589 
L 648 156.997589 
" style="fill:none;stroke:#ffffff;stroke-linecap:square;stroke-width:0.8;"/>
     </g>
     <g id="line2d_18">
      <defs>
       <path d="M 0 0 
L -3.5 0 
" id="me0bc063b59" style="stroke:#555555;stroke-width:0.8;"/>
      </defs>
      <g>
       <use style="fill:#555555;stroke:#555555;stroke-width:0.8;" x="90" xlink:href="#me0bc063b59" y="156.997589"/>
      </g>
     </g>
     <g id="line2d_19">
      <defs>
       <path d="M 0 0 
L 3.5 0 
" id="maf244372e3" style="stroke:#555555;stroke-width:0.8;"/>
      </defs>
      <g>
       <use style="fill:#555555;stroke:#555555;stroke-width:0.8;" x="648" xlink:href="#maf244372e3" y="156.997589"/>
      </g>
     </g>
     <g id="text_9">
      <!-- 0.6 -->
      <defs>
       <path d="M 10.6875 12.40625 
L 21 12.40625 
L 21 0 
L 10.6875 0 
z
" id="DejaVuSans-46"/>
      </defs>
      <g style="fill:#555555;" transform="translate(67.096875 160.796807)scale(0.1 -0.1)">
       <use xlink:href="#DejaVuSans-48"/>
       <use x="63.623047" xlink:href="#DejaVuSans-46"/>
       <use x="95.410156" xlink:href="#DejaVuSans-54"/>
      </g>
     </g>
     <g id="text_10">
      <!-- 0.6 -->
      <g style="fill:#555555;" transform="translate(655 160.796807)scale(0.1 -0.1)">
       <use xlink:href="#DejaVuSans-48"/>
       <use x="63.623047" xlink:href="#DejaVuSans-46"/>
       <use x="95.410156" xlink:href="#DejaVuSans-54"/>
      </g>
     </g>
    </g>
    <g id="ytick_2">
     <g id="line2d_20">
      <path clip-path="url(#ped5bbaca34)" d="M 90 118.45004 
L 648 118.45004 
" style="fill:none;stroke:#ffffff;stroke-linecap:square;stroke-width:0.8;"/>
     </g>
     <g id="line2d_21">
      <g>
       <use style="fill:#555555;stroke:#555555;stroke-width:0.8;" x="90" xlink:href="#me0bc063b59" y="118.45004"/>
      </g>
     </g>
     <g id="line2d_22">
      <g>
       <use style="fill:#555555;stroke:#555555;stroke-width:0.8;" x="648" xlink:href="#maf244372e3" y="118.45004"/>
      </g>
     </g>
     <g id="text_11">
      <!-- 0.8 -->
      <g style="fill:#555555;" transform="translate(67.096875 122.249259)scale(0.1 -0.1)">
       <use xlink:href="#DejaVuSans-48"/>
       <use x="63.623047" xlink:href="#DejaVuSans-46"/>
       <use x="95.410156" xlink:href="#DejaVuSans-56"/>
      </g>
     </g>
     <g id="text_12">
      <!-- 0.8 -->
      <g style="fill:#555555;" transform="translate(655 122.249259)scale(0.1 -0.1)">
       <use xlink:href="#DejaVuSans-48"/>
       <use x="63.623047" xlink:href="#DejaVuSans-46"/>
       <use x="95.410156" xlink:href="#DejaVuSans-56"/>
      </g>
     </g>
    </g>
    <g id="ytick_3">
     <g id="line2d_23">
      <path clip-path="url(#ped5bbaca34)" d="M 90 79.902491 
L 648 79.902491 
" style="fill:none;stroke:#ffffff;stroke-linecap:square;stroke-width:0.8;"/>
     </g>
     <g id="line2d_24">
      <g>
       <use style="fill:#555555;stroke:#555555;stroke-width:0.8;" x="90" xlink:href="#me0bc063b59" y="79.902491"/>
      </g>
     </g>
     <g id="line2d_25">
      <g>
       <use style="fill:#555555;stroke:#555555;stroke-width:0.8;" x="648" xlink:href="#maf244372e3" y="79.902491"/>
      </g>
     </g>
     <g id="text_13">
      <!-- 1.0 -->
      <defs>
       <path d="M 12.40625 8.296875 
L 28.515625 8.296875 
L 28.515625 63.921875 
L 10.984375 60.40625 
L 10.984375 69.390625 
L 28.421875 72.90625 
L 38.28125 72.90625 
L 38.28125 8.296875 
L 54.390625 8.296875 
L 54.390625 0 
L 12.40625 0 
z
" id="DejaVuSans-49"/>
      </defs>
      <g style="fill:#555555;" transform="translate(67.096875 83.70171)scale(0.1 -0.1)">
       <use xlink:href="#DejaVuSans-49"/>
       <use x="63.623047" xlink:href="#DejaVuSans-46"/>
       <use x="95.410156" xlink:href="#DejaVuSans-48"/>
      </g>
     </g>
     <g id="text_14">
      <!-- 1.0 -->
      <g style="fill:#555555;" transform="translate(655 83.70171)scale(0.1 -0.1)">
       <use xlink:href="#DejaVuSans-49"/>
       <use x="63.623047" xlink:href="#DejaVuSans-46"/>
       <use x="95.410156" xlink:href="#DejaVuSans-48"/>
      </g>
     </g>
    </g>
    <g id="ytick_4">
     <g id="line2d_26">
      <path clip-path="url(#ped5bbaca34)" d="M 90 41.354942 
L 648 41.354942 
" style="fill:none;stroke:#ffffff;stroke-linecap:square;stroke-width:0.8;"/>
     </g>
     <g id="line2d_27">
      <g>
       <use style="fill:#555555;stroke:#555555;stroke-width:0.8;" x="90" xlink:href="#me0bc063b59" y="41.354942"/>
      </g>
     </g>
     <g id="line2d_28">
      <g>
       <use style="fill:#555555;stroke:#555555;stroke-width:0.8;" x="648" xlink:href="#maf244372e3" y="41.354942"/>
      </g>
     </g>
     <g id="text_15">
      <!-- 1.2 -->
      <g style="fill:#555555;" transform="translate(67.096875 45.154161)scale(0.1 -0.1)">
       <use xlink:href="#DejaVuSans-49"/>
       <use x="63.623047" xlink:href="#DejaVuSans-46"/>
       <use x="95.410156" xlink:href="#DejaVuSans-50"/>
      </g>
     </g>
     <g id="text_16">
      <!-- 1.2 -->
      <g style="fill:#555555;" transform="translate(655 45.154161)scale(0.1 -0.1)">
       <use xlink:href="#DejaVuSans-49"/>
       <use x="63.623047" xlink:href="#DejaVuSans-46"/>
       <use x="95.410156" xlink:href="#DejaVuSans-50"/>
      </g>
     </g>
    </g>
    <g id="text_17">
     <!-- R &amp; growth factor -->
     <defs>
      <path d="M 44.390625 34.1875 
Q 47.5625 33.109375 50.5625 29.59375 
Q 53.5625 26.078125 56.59375 19.921875 
L 66.609375 0 
L 56 0 
L 46.6875 18.703125 
Q 43.0625 26.03125 39.671875 28.421875 
Q 36.28125 30.8125 30.421875 30.8125 
L 19.671875 30.8125 
L 19.671875 0 
L 9.8125 0 
L 9.8125 72.90625 
L 32.078125 72.90625 
Q 44.578125 72.90625 50.734375 67.671875 
Q 56.890625 62.453125 56.890625 51.90625 
Q 56.890625 45.015625 53.6875 40.46875 
Q 50.484375 35.9375 44.390625 34.1875 
z
M 19.671875 64.796875 
L 19.671875 38.921875 
L 32.078125 38.921875 
Q 39.203125 38.921875 42.84375 42.21875 
Q 46.484375 45.515625 46.484375 51.90625 
Q 46.484375 58.296875 42.84375 61.546875 
Q 39.203125 64.796875 32.078125 64.796875 
z
" id="DejaVuSans-82"/>
      <path id="DejaVuSans-32"/>
      <path d="M 24.3125 39.203125 
Q 19.875 35.25 17.796875 31.3125 
Q 15.71875 27.390625 15.71875 23.09375 
Q 15.71875 15.96875 20.890625 11.234375 
Q 26.078125 6.5 33.890625 6.5 
Q 38.53125 6.5 42.578125 8.03125 
Q 46.625 9.578125 50.203125 12.703125 
z
M 31.203125 44.671875 
L 56 19.28125 
Q 58.890625 23.640625 60.5 28.59375 
Q 62.109375 33.546875 62.40625 39.109375 
L 71.484375 39.109375 
Q 70.90625 32.671875 68.359375 26.359375 
Q 65.828125 20.0625 61.28125 13.921875 
L 74.90625 0 
L 62.59375 0 
L 55.609375 7.171875 
Q 50.53125 2.828125 44.96875 0.703125 
Q 39.40625 -1.421875 33.015625 -1.421875 
Q 21.234375 -1.421875 13.765625 5.296875 
Q 6.296875 12.015625 6.296875 22.515625 
Q 6.296875 28.765625 9.5625 34.25 
Q 12.84375 39.75 19.390625 44.578125 
Q 17.046875 47.65625 15.8125 50.703125 
Q 14.59375 53.765625 14.59375 56.6875 
Q 14.59375 64.59375 20.015625 69.40625 
Q 25.4375 74.21875 34.421875 74.21875 
Q 38.484375 74.21875 42.5 73.34375 
Q 46.53125 72.46875 50.6875 70.703125 
L 50.6875 61.8125 
Q 46.4375 64.109375 42.578125 65.296875 
Q 38.71875 66.5 35.40625 66.5 
Q 30.28125 66.5 27.078125 63.78125 
Q 23.875 61.078125 23.875 56.78125 
Q 23.875 54.296875 25.3125 51.78125 
Q 26.765625 49.265625 31.203125 44.671875 
z
" id="DejaVuSans-38"/>
      <path d="M 45.40625 27.984375 
Q 45.40625 37.75 41.375 43.109375 
Q 37.359375 48.484375 30.078125 48.484375 
Q 22.859375 48.484375 18.828125 43.109375 
Q 14.796875 37.75 14.796875 27.984375 
Q 14.796875 18.265625 18.828125 12.890625 
Q 22.859375 7.515625 30.078125 7.515625 
Q 37.359375 7.515625 41.375 12.890625 
Q 45.40625 18.265625 45.40625 27.984375 
z
M 54.390625 6.78125 
Q 54.390625 -7.171875 48.1875 -13.984375 
Q 42 -20.796875 29.203125 -20.796875 
Q 24.46875 -20.796875 20.265625 -20.09375 
Q 16.0625 -19.390625 12.109375 -17.921875 
L 12.109375 -9.1875 
Q 16.0625 -11.328125 19.921875 -12.34375 
Q 23.78125 -13.375 27.78125 -13.375 
Q 36.625 -13.375 41.015625 -8.765625 
Q 45.40625 -4.15625 45.40625 5.171875 
L 45.40625 9.625 
Q 42.625 4.78125 38.28125 2.390625 
Q 33.9375 0 27.875 0 
Q 17.828125 0 11.671875 7.65625 
Q 5.515625 15.328125 5.515625 27.984375 
Q 5.515625 40.671875 11.671875 48.328125 
Q 17.828125 56 27.875 56 
Q 33.9375 56 38.28125 53.609375 
Q 42.625 51.21875 45.40625 46.390625 
L 45.40625 54.6875 
L 54.390625 54.6875 
z
" id="DejaVuSans-103"/>
      <path d="M 41.109375 46.296875 
Q 39.59375 47.171875 37.8125 47.578125 
Q 36.03125 48 33.890625 48 
Q 26.265625 48 22.1875 43.046875 
Q 18.109375 38.09375 18.109375 28.8125 
L 18.109375 0 
L 9.078125 0 
L 9.078125 54.6875 
L 18.109375 54.6875 
L 18.109375 46.1875 
Q 20.953125 51.171875 25.484375 53.578125 
Q 30.03125 56 36.53125 56 
Q 37.453125 56 38.578125 55.875 
Q 39.703125 55.765625 41.0625 55.515625 
z
" id="DejaVuSans-114"/>
      <path d="M 30.609375 48.390625 
Q 23.390625 48.390625 19.1875 42.75 
Q 14.984375 37.109375 14.984375 27.296875 
Q 14.984375 17.484375 19.15625 11.84375 
Q 23.34375 6.203125 30.609375 6.203125 
Q 37.796875 6.203125 41.984375 11.859375 
Q 46.1875 17.53125 46.1875 27.296875 
Q 46.1875 37.015625 41.984375 42.703125 
Q 37.796875 48.390625 30.609375 48.390625 
z
M 30.609375 56 
Q 42.328125 56 49.015625 48.375 
Q 55.71875 40.765625 55.71875 27.296875 
Q 55.71875 13.875 49.015625 6.21875 
Q 42.328125 -1.421875 30.609375 -1.421875 
Q 18.84375 -1.421875 12.171875 6.21875 
Q 5.515625 13.875 5.515625 27.296875 
Q 5.515625 40.765625 12.171875 48.375 
Q 18.84375 56 30.609375 56 
z
" id="DejaVuSans-111"/>
      <path d="M 4.203125 54.6875 
L 13.1875 54.6875 
L 24.421875 12.015625 
L 35.59375 54.6875 
L 46.1875 54.6875 
L 57.421875 12.015625 
L 68.609375 54.6875 
L 77.59375 54.6875 
L 63.28125 0 
L 52.6875 0 
L 40.921875 44.828125 
L 29.109375 0 
L 18.5 0 
z
" id="DejaVuSans-119"/>
      <path d="M 18.3125 70.21875 
L 18.3125 54.6875 
L 36.8125 54.6875 
L 36.8125 47.703125 
L 18.3125 47.703125 
L 18.3125 18.015625 
Q 18.3125 11.328125 20.140625 9.421875 
Q 21.96875 7.515625 27.59375 7.515625 
L 36.8125 7.515625 
L 36.8125 0 
L 27.59375 0 
Q 17.1875 0 13.234375 3.875 
Q 9.28125 7.765625 9.28125 18.015625 
L 9.28125 47.703125 
L 2.6875 47.703125 
L 2.6875 54.6875 
L 9.28125 54.6875 
L 9.28125 70.21875 
z
" id="DejaVuSans-116"/>
      <path d="M 54.890625 33.015625 
L 54.890625 0 
L 45.90625 0 
L 45.90625 32.71875 
Q 45.90625 40.484375 42.875 44.328125 
Q 39.84375 48.1875 33.796875 48.1875 
Q 26.515625 48.1875 22.3125 43.546875 
Q 18.109375 38.921875 18.109375 30.90625 
L 18.109375 0 
L 9.078125 0 
L 9.078125 75.984375 
L 18.109375 75.984375 
L 18.109375 46.1875 
Q 21.34375 51.125 25.703125 53.5625 
Q 30.078125 56 35.796875 56 
Q 45.21875 56 50.046875 50.171875 
Q 54.890625 44.34375 54.890625 33.015625 
z
" id="DejaVuSans-104"/>
      <path d="M 37.109375 75.984375 
L 37.109375 68.5 
L 28.515625 68.5 
Q 23.6875 68.5 21.796875 66.546875 
Q 19.921875 64.59375 19.921875 59.515625 
L 19.921875 54.6875 
L 34.71875 54.6875 
L 34.71875 47.703125 
L 19.921875 47.703125 
L 19.921875 0 
L 10.890625 0 
L 10.890625 47.703125 
L 2.296875 47.703125 
L 2.296875 54.6875 
L 10.890625 54.6875 
L 10.890625 58.5 
Q 10.890625 67.625 15.140625 71.796875 
Q 19.390625 75.984375 28.609375 75.984375 
z
" id="DejaVuSans-102"/>
      <path d="M 34.28125 27.484375 
Q 23.390625 27.484375 19.1875 25 
Q 14.984375 22.515625 14.984375 16.5 
Q 14.984375 11.71875 18.140625 8.90625 
Q 21.296875 6.109375 26.703125 6.109375 
Q 34.1875 6.109375 38.703125 11.40625 
Q 43.21875 16.703125 43.21875 25.484375 
L 43.21875 27.484375 
z
M 52.203125 31.203125 
L 52.203125 0 
L 43.21875 0 
L 43.21875 8.296875 
Q 40.140625 3.328125 35.546875 0.953125 
Q 30.953125 -1.421875 24.3125 -1.421875 
Q 15.921875 -1.421875 10.953125 3.296875 
Q 6 8.015625 6 15.921875 
Q 6 25.140625 12.171875 29.828125 
Q 18.359375 34.515625 30.609375 34.515625 
L 43.21875 34.515625 
L 43.21875 35.40625 
Q 43.21875 41.609375 39.140625 45 
Q 35.0625 48.390625 27.6875 48.390625 
Q 23 48.390625 18.546875 47.265625 
Q 14.109375 46.140625 10.015625 43.890625 
L 10.015625 52.203125 
Q 14.9375 54.109375 19.578125 55.046875 
Q 24.21875 56 28.609375 56 
Q 40.484375 56 46.34375 49.84375 
Q 52.203125 43.703125 52.203125 31.203125 
z
" id="DejaVuSans-97"/>
      <path d="M 48.78125 52.59375 
L 48.78125 44.1875 
Q 44.96875 46.296875 41.140625 47.34375 
Q 37.3125 48.390625 33.40625 48.390625 
Q 24.65625 48.390625 19.8125 42.84375 
Q 14.984375 37.3125 14.984375 27.296875 
Q 14.984375 17.28125 19.8125 11.734375 
Q 24.65625 6.203125 33.40625 6.203125 
Q 37.3125 6.203125 41.140625 7.25 
Q 44.96875 8.296875 48.78125 10.40625 
L 48.78125 2.09375 
Q 45.015625 0.34375 40.984375 -0.53125 
Q 36.96875 -1.421875 32.421875 -1.421875 
Q 20.0625 -1.421875 12.78125 6.34375 
Q 5.515625 14.109375 5.515625 27.296875 
Q 5.515625 40.671875 12.859375 48.328125 
Q 20.21875 56 33.015625 56 
Q 37.15625 56 41.109375 55.140625 
Q 45.0625 54.296875 48.78125 52.59375 
z
" id="DejaVuSans-99"/>
     </defs>
     <g style="fill:#555555;" transform="translate(47.163875 142.570312)rotate(-90)scale(0.12 -0.12)">
      <use xlink:href="#DejaVuSans-82"/>
      <use x="69.482422" xlink:href="#DejaVuSans-32"/>
      <use x="101.269531" xlink:href="#DejaVuSans-38"/>
      <use x="179.248047" xlink:href="#DejaVuSans-32"/>
      <use x="211.035156" xlink:href="#DejaVuSans-103"/>
      <use x="274.511719" xlink:href="#DejaVuSans-114"/>
      <use x="313.375" xlink:href="#DejaVuSans-111"/>
      <use x="374.556641" xlink:href="#DejaVuSans-119"/>
      <use x="456.34375" xlink:href="#DejaVuSans-116"/>
      <use x="495.552734" xlink:href="#DejaVuSans-104"/>
      <use x="558.931641" xlink:href="#DejaVuSans-32"/>
      <use x="590.71875" xlink:href="#DejaVuSans-102"/>
      <use x="625.923828" xlink:href="#DejaVuSans-97"/>
      <use x="687.203125" xlink:href="#DejaVuSans-99"/>
      <use x="742.183594" xlink:href="#DejaVuSans-116"/>
      <use x="781.392578" xlink:href="#DejaVuSans-111"/>
      <use x="842.574219" xlink:href="#DejaVuSans-114"/>
     </g>
     <!-- (based on cases) -->
     <defs>
      <path d="M 31 75.875 
Q 24.46875 64.65625 21.28125 53.65625 
Q 18.109375 42.671875 18.109375 31.390625 
Q 18.109375 20.125 21.3125 9.0625 
Q 24.515625 -2 31 -13.1875 
L 23.1875 -13.1875 
Q 15.875 -1.703125 12.234375 9.375 
Q 8.59375 20.453125 8.59375 31.390625 
Q 8.59375 42.28125 12.203125 53.3125 
Q 15.828125 64.359375 23.1875 75.875 
z
" id="DejaVuSans-40"/>
      <path d="M 48.6875 27.296875 
Q 48.6875 37.203125 44.609375 42.84375 
Q 40.53125 48.484375 33.40625 48.484375 
Q 26.265625 48.484375 22.1875 42.84375 
Q 18.109375 37.203125 18.109375 27.296875 
Q 18.109375 17.390625 22.1875 11.75 
Q 26.265625 6.109375 33.40625 6.109375 
Q 40.53125 6.109375 44.609375 11.75 
Q 48.6875 17.390625 48.6875 27.296875 
z
M 18.109375 46.390625 
Q 20.953125 51.265625 25.265625 53.625 
Q 29.59375 56 35.59375 56 
Q 45.5625 56 51.78125 48.09375 
Q 58.015625 40.1875 58.015625 27.296875 
Q 58.015625 14.40625 51.78125 6.484375 
Q 45.5625 -1.421875 35.59375 -1.421875 
Q 29.59375 -1.421875 25.265625 0.953125 
Q 20.953125 3.328125 18.109375 8.203125 
L 18.109375 0 
L 9.078125 0 
L 9.078125 75.984375 
L 18.109375 75.984375 
z
" id="DejaVuSans-98"/>
      <path d="M 44.28125 53.078125 
L 44.28125 44.578125 
Q 40.484375 46.53125 36.375 47.5 
Q 32.28125 48.484375 27.875 48.484375 
Q 21.1875 48.484375 17.84375 46.4375 
Q 14.5 44.390625 14.5 40.28125 
Q 14.5 37.15625 16.890625 35.375 
Q 19.28125 33.59375 26.515625 31.984375 
L 29.59375 31.296875 
Q 39.15625 29.25 43.1875 25.515625 
Q 47.21875 21.78125 47.21875 15.09375 
Q 47.21875 7.46875 41.1875 3.015625 
Q 35.15625 -1.421875 24.609375 -1.421875 
Q 20.21875 -1.421875 15.453125 -0.5625 
Q 10.6875 0.296875 5.421875 2 
L 5.421875 11.28125 
Q 10.40625 8.6875 15.234375 7.390625 
Q 20.0625 6.109375 24.8125 6.109375 
Q 31.15625 6.109375 34.5625 8.28125 
Q 37.984375 10.453125 37.984375 14.40625 
Q 37.984375 18.0625 35.515625 20.015625 
Q 33.0625 21.96875 24.703125 23.78125 
L 21.578125 24.515625 
Q 13.234375 26.265625 9.515625 29.90625 
Q 5.8125 33.546875 5.8125 39.890625 
Q 5.8125 47.609375 11.28125 51.796875 
Q 16.75 56 26.8125 56 
Q 31.78125 56 36.171875 55.265625 
Q 40.578125 54.546875 44.28125 53.078125 
z
" id="DejaVuSans-115"/>
      <path d="M 56.203125 29.59375 
L 56.203125 25.203125 
L 14.890625 25.203125 
Q 15.484375 15.921875 20.484375 11.0625 
Q 25.484375 6.203125 34.421875 6.203125 
Q 39.59375 6.203125 44.453125 7.46875 
Q 49.3125 8.734375 54.109375 11.28125 
L 54.109375 2.78125 
Q 49.265625 0.734375 44.1875 -0.34375 
Q 39.109375 -1.421875 33.890625 -1.421875 
Q 20.796875 -1.421875 13.15625 6.1875 
Q 5.515625 13.8125 5.515625 26.8125 
Q 5.515625 40.234375 12.765625 48.109375 
Q 20.015625 56 32.328125 56 
Q 43.359375 56 49.78125 48.890625 
Q 56.203125 41.796875 56.203125 29.59375 
z
M 47.21875 32.234375 
Q 47.125 39.59375 43.09375 43.984375 
Q 39.0625 48.390625 32.421875 48.390625 
Q 24.90625 48.390625 20.390625 44.140625 
Q 15.875 39.890625 15.1875 32.171875 
z
" id="DejaVuSans-101"/>
      <path d="M 45.40625 46.390625 
L 45.40625 75.984375 
L 54.390625 75.984375 
L 54.390625 0 
L 45.40625 0 
L 45.40625 8.203125 
Q 42.578125 3.328125 38.25 0.953125 
Q 33.9375 -1.421875 27.875 -1.421875 
Q 17.96875 -1.421875 11.734375 6.484375 
Q 5.515625 14.40625 5.515625 27.296875 
Q 5.515625 40.1875 11.734375 48.09375 
Q 17.96875 56 27.875 56 
Q 33.9375 56 38.25 53.625 
Q 42.578125 51.265625 45.40625 46.390625 
z
M 14.796875 27.296875 
Q 14.796875 17.390625 18.875 11.75 
Q 22.953125 6.109375 30.078125 6.109375 
Q 37.203125 6.109375 41.296875 11.75 
Q 45.40625 17.390625 45.40625 27.296875 
Q 45.40625 37.203125 41.296875 42.84375 
Q 37.203125 48.484375 30.078125 48.484375 
Q 22.953125 48.484375 18.875 42.84375 
Q 14.796875 37.203125 14.796875 27.296875 
z
" id="DejaVuSans-100"/>
      <path d="M 54.890625 33.015625 
L 54.890625 0 
L 45.90625 0 
L 45.90625 32.71875 
Q 45.90625 40.484375 42.875 44.328125 
Q 39.84375 48.1875 33.796875 48.1875 
Q 26.515625 48.1875 22.3125 43.546875 
Q 18.109375 38.921875 18.109375 30.90625 
L 18.109375 0 
L 9.078125 0 
L 9.078125 54.6875 
L 18.109375 54.6875 
L 18.109375 46.1875 
Q 21.34375 51.125 25.703125 53.5625 
Q 30.078125 56 35.796875 56 
Q 45.21875 56 50.046875 50.171875 
Q 54.890625 44.34375 54.890625 33.015625 
z
" id="DejaVuSans-110"/>
      <path d="M 8.015625 75.875 
L 15.828125 75.875 
Q 23.140625 64.359375 26.78125 53.3125 
Q 30.421875 42.28125 30.421875 31.390625 
Q 30.421875 20.453125 26.78125 9.375 
Q 23.140625 -1.703125 15.828125 -13.1875 
L 8.015625 -13.1875 
Q 14.5 -2 17.703125 9.0625 
Q 20.90625 20.125 20.90625 31.390625 
Q 20.90625 42.671875 17.703125 53.65625 
Q 14.5 64.65625 8.015625 75.875 
z
" id="DejaVuSans-41"/>
     </defs>
     <g style="fill:#555555;" transform="translate(60.60125 140.550938)rotate(-90)scale(0.12 -0.12)">
      <use xlink:href="#DejaVuSans-40"/>
      <use x="39.013672" xlink:href="#DejaVuSans-98"/>
      <use x="102.490234" xlink:href="#DejaVuSans-97"/>
      <use x="163.769531" xlink:href="#DejaVuSans-115"/>
      <use x="215.869141" xlink:href="#DejaVuSans-101"/>
      <use x="277.392578" xlink:href="#DejaVuSans-100"/>
      <use x="340.869141" xlink:href="#DejaVuSans-32"/>
      <use x="372.65625" xlink:href="#DejaVuSans-111"/>
      <use x="433.837891" xlink:href="#DejaVuSans-110"/>
      <use x="497.216797" xlink:href="#DejaVuSans-32"/>
      <use x="529.003906" xlink:href="#DejaVuSans-99"/>
      <use x="583.984375" xlink:href="#DejaVuSans-97"/>
      <use x="645.263672" xlink:href="#DejaVuSans-115"/>
      <use x="697.363281" xlink:href="#DejaVuSans-101"/>
      <use x="758.886719" xlink:href="#DejaVuSans-115"/>
      <use x="810.986328" xlink:href="#DejaVuSans-41"/>
     </g>
    </g>
   </g>
   <g id="line2d_29">
    <defs>
     <path d="M 0 3 
C 0.795609 3 1.55874 2.683901 2.12132 2.12132 
C 2.683901 1.55874 3 0.795609 3 0 
C 3 -0.795609 2.683901 -1.55874 2.12132 -2.12132 
C 1.55874 -2.683901 0.795609 -3 0 -3 
C -0.795609 -3 -1.55874 -2.683901 -2.12132 -2.12132 
C -2.683901 -1.55874 -3 -0.795609 -3 0 
C -3 0.795609 -2.683901 1.55874 -2.12132 2.12132 
C -1.55874 2.683901 -0.795609 3 0 3 
z
" id="m3e9e886c34" style="stroke:#348abd;stroke-opacity:0.3;"/>
    </defs>
    <g clip-path="url(#ped5bbaca34)">
     <use style="fill:#348abd;fill-opacity:0.3;stroke:#348abd;stroke-opacity:0.3;" x="119.644419" xlink:href="#m3e9e886c34" y="83.807195"/>
     <use style="fill:#348abd;fill-opacity:0.3;stroke:#348abd;stroke-opacity:0.3;" x="121.78481" xlink:href="#m3e9e886c34" y="88.377104"/>
     <use style="fill:#348abd;fill-opacity:0.3;stroke:#348abd;stroke-opacity:0.3;" x="123.925201" xlink:href="#m3e9e886c34" y="95.526958"/>
     <use style="fill:#348abd;fill-opacity:0.3;stroke:#348abd;stroke-opacity:0.3;" x="125.073401" xlink:href="#m3e9e886c34" y="-1"/>
     <use style="fill:#348abd;fill-opacity:0.3;stroke:#348abd;stroke-opacity:0.3;" x="127.615648" xlink:href="#m3e9e886c34" y="-1"/>
     <use style="fill:#348abd;fill-opacity:0.3;stroke:#348abd;stroke-opacity:0.3;" x="128.205984" xlink:href="#m3e9e886c34" y="30.767162"/>
     <use style="fill:#348abd;fill-opacity:0.3;stroke:#348abd;stroke-opacity:0.3;" x="130.346375" xlink:href="#m3e9e886c34" y="22.271497"/>
     <use style="fill:#348abd;fill-opacity:0.3;stroke:#348abd;stroke-opacity:0.3;" x="132.486766" xlink:href="#m3e9e886c34" y="49.259892"/>
     <use style="fill:#348abd;fill-opacity:0.3;stroke:#348abd;stroke-opacity:0.3;" x="134.627158" xlink:href="#m3e9e886c34" y="62.794005"/>
     <use style="fill:#348abd;fill-opacity:0.3;stroke:#348abd;stroke-opacity:0.3;" x="136.767549" xlink:href="#m3e9e886c34" y="60.42121"/>
     <use style="fill:#348abd;fill-opacity:0.3;stroke:#348abd;stroke-opacity:0.3;" x="138.90794" xlink:href="#m3e9e886c34" y="56.139276"/>
     <use style="fill:#348abd;fill-opacity:0.3;stroke:#348abd;stroke-opacity:0.3;" x="141.048331" xlink:href="#m3e9e886c34" y="76.361353"/>
     <use style="fill:#348abd;fill-opacity:0.3;stroke:#348abd;stroke-opacity:0.3;" x="143.188723" xlink:href="#m3e9e886c34" y="87.242956"/>
     <use style="fill:#348abd;fill-opacity:0.3;stroke:#348abd;stroke-opacity:0.3;" x="145.329114" xlink:href="#m3e9e886c34" y="113.533417"/>
     <use style="fill:#348abd;fill-opacity:0.3;stroke:#348abd;stroke-opacity:0.3;" x="147.469505" xlink:href="#m3e9e886c34" y="78.620441"/>
     <use style="fill:#348abd;fill-opacity:0.3;stroke:#348abd;stroke-opacity:0.3;" x="149.609896" xlink:href="#m3e9e886c34" y="97.539804"/>
     <use style="fill:#348abd;fill-opacity:0.3;stroke:#348abd;stroke-opacity:0.3;" x="151.750288" xlink:href="#m3e9e886c34" y="92.803499"/>
     <use style="fill:#348abd;fill-opacity:0.3;stroke:#348abd;stroke-opacity:0.3;" x="153.890679" xlink:href="#m3e9e886c34" y="107.816231"/>
     <use style="fill:#348abd;fill-opacity:0.3;stroke:#348abd;stroke-opacity:0.3;" x="156.03107" xlink:href="#m3e9e886c34" y="127.418874"/>
     <use style="fill:#348abd;fill-opacity:0.3;stroke:#348abd;stroke-opacity:0.3;" x="158.171461" xlink:href="#m3e9e886c34" y="143.881625"/>
     <use style="fill:#348abd;fill-opacity:0.3;stroke:#348abd;stroke-opacity:0.3;" x="160.311853" xlink:href="#m3e9e886c34" y="105.202691"/>
     <use style="fill:#348abd;fill-opacity:0.3;stroke:#348abd;stroke-opacity:0.3;" x="162.452244" xlink:href="#m3e9e886c34" y="86.526431"/>
     <use style="fill:#348abd;fill-opacity:0.3;stroke:#348abd;stroke-opacity:0.3;" x="164.592635" xlink:href="#m3e9e886c34" y="90.84335"/>
     <use style="fill:#348abd;fill-opacity:0.3;stroke:#348abd;stroke-opacity:0.3;" x="166.733026" xlink:href="#m3e9e886c34" y="108.559431"/>
     <use style="fill:#348abd;fill-opacity:0.3;stroke:#348abd;stroke-opacity:0.3;" x="166.843645" xlink:href="#m3e9e886c34" y="-1"/>
     <use style="fill:#348abd;fill-opacity:0.3;stroke:#348abd;stroke-opacity:0.3;" x="178.507599" xlink:href="#m3e9e886c34" y="-1"/>
     <use style="fill:#348abd;fill-opacity:0.3;stroke:#348abd;stroke-opacity:0.3;" x="179.575374" xlink:href="#m3e9e886c34" y="19.979258"/>
     <use style="fill:#348abd;fill-opacity:0.3;stroke:#348abd;stroke-opacity:0.3;" x="181.715765" xlink:href="#m3e9e886c34" y="23.77395"/>
     <use style="fill:#348abd;fill-opacity:0.3;stroke:#348abd;stroke-opacity:0.3;" x="183.856157" xlink:href="#m3e9e886c34" y="19.421781"/>
     <use style="fill:#348abd;fill-opacity:0.3;stroke:#348abd;stroke-opacity:0.3;" x="185.996548" xlink:href="#m3e9e886c34" y="25.419217"/>
     <use style="fill:#348abd;fill-opacity:0.3;stroke:#348abd;stroke-opacity:0.3;" x="188.136939" xlink:href="#m3e9e886c34" y="23.187082"/>
     <use style="fill:#348abd;fill-opacity:0.3;stroke:#348abd;stroke-opacity:0.3;" x="190.27733" xlink:href="#m3e9e886c34" y="38.217787"/>
     <use style="fill:#348abd;fill-opacity:0.3;stroke:#348abd;stroke-opacity:0.3;" x="192.417722" xlink:href="#m3e9e886c34" y="47.094325"/>
     <use style="fill:#348abd;fill-opacity:0.3;stroke:#348abd;stroke-opacity:0.3;" x="194.558113" xlink:href="#m3e9e886c34" y="45.338062"/>
     <use style="fill:#348abd;fill-opacity:0.3;stroke:#348abd;stroke-opacity:0.3;" x="196.698504" xlink:href="#m3e9e886c34" y="62.490904"/>
     <use style="fill:#348abd;fill-opacity:0.3;stroke:#348abd;stroke-opacity:0.3;" x="198.838895" xlink:href="#m3e9e886c34" y="68.430716"/>
     <use style="fill:#348abd;fill-opacity:0.3;stroke:#348abd;stroke-opacity:0.3;" x="200.979287" xlink:href="#m3e9e886c34" y="76.808357"/>
     <use style="fill:#348abd;fill-opacity:0.3;stroke:#348abd;stroke-opacity:0.3;" x="203.119678" xlink:href="#m3e9e886c34" y="85.287967"/>
     <use style="fill:#348abd;fill-opacity:0.3;stroke:#348abd;stroke-opacity:0.3;" x="205.260069" xlink:href="#m3e9e886c34" y="92.347674"/>
     <use style="fill:#348abd;fill-opacity:0.3;stroke:#348abd;stroke-opacity:0.3;" x="207.40046" xlink:href="#m3e9e886c34" y="101.39415"/>
     <use style="fill:#348abd;fill-opacity:0.3;stroke:#348abd;stroke-opacity:0.3;" x="209.540852" xlink:href="#m3e9e886c34" y="104.92701"/>
     <use style="fill:#348abd;fill-opacity:0.3;stroke:#348abd;stroke-opacity:0.3;" x="211.681243" xlink:href="#m3e9e886c34" y="106.624595"/>
     <use style="fill:#348abd;fill-opacity:0.3;stroke:#348abd;stroke-opacity:0.3;" x="213.821634" xlink:href="#m3e9e886c34" y="118.358846"/>
     <use style="fill:#348abd;fill-opacity:0.3;stroke:#348abd;stroke-opacity:0.3;" x="215.962025" xlink:href="#m3e9e886c34" y="111.647432"/>
     <use style="fill:#348abd;fill-opacity:0.3;stroke:#348abd;stroke-opacity:0.3;" x="218.102417" xlink:href="#m3e9e886c34" y="115.765078"/>
     <use style="fill:#348abd;fill-opacity:0.3;stroke:#348abd;stroke-opacity:0.3;" x="220.242808" xlink:href="#m3e9e886c34" y="119.463755"/>
     <use style="fill:#348abd;fill-opacity:0.3;stroke:#348abd;stroke-opacity:0.3;" x="222.383199" xlink:href="#m3e9e886c34" y="116.555828"/>
     <use style="fill:#348abd;fill-opacity:0.3;stroke:#348abd;stroke-opacity:0.3;" x="224.52359" xlink:href="#m3e9e886c34" y="104.229317"/>
     <use style="fill:#348abd;fill-opacity:0.3;stroke:#348abd;stroke-opacity:0.3;" x="226.663982" xlink:href="#m3e9e886c34" y="94.952547"/>
     <use style="fill:#348abd;fill-opacity:0.3;stroke:#348abd;stroke-opacity:0.3;" x="228.804373" xlink:href="#m3e9e886c34" y="78.140005"/>
     <use style="fill:#348abd;fill-opacity:0.3;stroke:#348abd;stroke-opacity:0.3;" x="230.944764" xlink:href="#m3e9e886c34" y="97.51085"/>
     <use style="fill:#348abd;fill-opacity:0.3;stroke:#348abd;stroke-opacity:0.3;" x="233.085155" xlink:href="#m3e9e886c34" y="73.502783"/>
     <use style="fill:#348abd;fill-opacity:0.3;stroke:#348abd;stroke-opacity:0.3;" x="235.225547" xlink:href="#m3e9e886c34" y="67.067155"/>
     <use style="fill:#348abd;fill-opacity:0.3;stroke:#348abd;stroke-opacity:0.3;" x="237.365938" xlink:href="#m3e9e886c34" y="82.519301"/>
     <use style="fill:#348abd;fill-opacity:0.3;stroke:#348abd;stroke-opacity:0.3;" x="239.506329" xlink:href="#m3e9e886c34" y="78.484016"/>
     <use style="fill:#348abd;fill-opacity:0.3;stroke:#348abd;stroke-opacity:0.3;" x="241.64672" xlink:href="#m3e9e886c34" y="81.092918"/>
     <use style="fill:#348abd;fill-opacity:0.3;stroke:#348abd;stroke-opacity:0.3;" x="243.787112" xlink:href="#m3e9e886c34" y="84.702051"/>
     <use style="fill:#348abd;fill-opacity:0.3;stroke:#348abd;stroke-opacity:0.3;" x="245.927503" xlink:href="#m3e9e886c34" y="87.648644"/>
     <use style="fill:#348abd;fill-opacity:0.3;stroke:#348abd;stroke-opacity:0.3;" x="248.067894" xlink:href="#m3e9e886c34" y="84.408856"/>
     <use style="fill:#348abd;fill-opacity:0.3;stroke:#348abd;stroke-opacity:0.3;" x="250.208285" xlink:href="#m3e9e886c34" y="76.869295"/>
     <use style="fill:#348abd;fill-opacity:0.3;stroke:#348abd;stroke-opacity:0.3;" x="252.348677" xlink:href="#m3e9e886c34" y="82.566503"/>
     <use style="fill:#348abd;fill-opacity:0.3;stroke:#348abd;stroke-opacity:0.3;" x="254.489068" xlink:href="#m3e9e886c34" y="76.311405"/>
     <use style="fill:#348abd;fill-opacity:0.3;stroke:#348abd;stroke-opacity:0.3;" x="256.629459" xlink:href="#m3e9e886c34" y="64.777868"/>
     <use style="fill:#348abd;fill-opacity:0.3;stroke:#348abd;stroke-opacity:0.3;" x="258.76985" xlink:href="#m3e9e886c34" y="78.35395"/>
     <use style="fill:#348abd;fill-opacity:0.3;stroke:#348abd;stroke-opacity:0.3;" x="260.910242" xlink:href="#m3e9e886c34" y="83.037341"/>
     <use style="fill:#348abd;fill-opacity:0.3;stroke:#348abd;stroke-opacity:0.3;" x="263.050633" xlink:href="#m3e9e886c34" y="83.923238"/>
     <use style="fill:#348abd;fill-opacity:0.3;stroke:#348abd;stroke-opacity:0.3;" x="265.191024" xlink:href="#m3e9e886c34" y="85.010521"/>
     <use style="fill:#348abd;fill-opacity:0.3;stroke:#348abd;stroke-opacity:0.3;" x="267.331415" xlink:href="#m3e9e886c34" y="94.338993"/>
     <use style="fill:#348abd;fill-opacity:0.3;stroke:#348abd;stroke-opacity:0.3;" x="269.471807" xlink:href="#m3e9e886c34" y="92.627727"/>
     <use style="fill:#348abd;fill-opacity:0.3;stroke:#348abd;stroke-opacity:0.3;" x="271.612198" xlink:href="#m3e9e886c34" y="92.533885"/>
     <use style="fill:#348abd;fill-opacity:0.3;stroke:#348abd;stroke-opacity:0.3;" x="273.752589" xlink:href="#m3e9e886c34" y="101.706488"/>
     <use style="fill:#348abd;fill-opacity:0.3;stroke:#348abd;stroke-opacity:0.3;" x="275.89298" xlink:href="#m3e9e886c34" y="102.830838"/>
     <use style="fill:#348abd;fill-opacity:0.3;stroke:#348abd;stroke-opacity:0.3;" x="278.033372" xlink:href="#m3e9e886c34" y="103.698431"/>
     <use style="fill:#348abd;fill-opacity:0.3;stroke:#348abd;stroke-opacity:0.3;" x="280.173763" xlink:href="#m3e9e886c34" y="104.631903"/>
     <use style="fill:#348abd;fill-opacity:0.3;stroke:#348abd;stroke-opacity:0.3;" x="282.314154" xlink:href="#m3e9e886c34" y="107.577435"/>
     <use style="fill:#348abd;fill-opacity:0.3;stroke:#348abd;stroke-opacity:0.3;" x="284.454545" xlink:href="#m3e9e886c34" y="103.938968"/>
     <use style="fill:#348abd;fill-opacity:0.3;stroke:#348abd;stroke-opacity:0.3;" x="286.594937" xlink:href="#m3e9e886c34" y="95.049145"/>
     <use style="fill:#348abd;fill-opacity:0.3;stroke:#348abd;stroke-opacity:0.3;" x="288.735328" xlink:href="#m3e9e886c34" y="95.849071"/>
     <use style="fill:#348abd;fill-opacity:0.3;stroke:#348abd;stroke-opacity:0.3;" x="290.875719" xlink:href="#m3e9e886c34" y="96.323449"/>
     <use style="fill:#348abd;fill-opacity:0.3;stroke:#348abd;stroke-opacity:0.3;" x="293.01611" xlink:href="#m3e9e886c34" y="92.431281"/>
     <use style="fill:#348abd;fill-opacity:0.3;stroke:#348abd;stroke-opacity:0.3;" x="295.156502" xlink:href="#m3e9e886c34" y="94.157299"/>
     <use style="fill:#348abd;fill-opacity:0.3;stroke:#348abd;stroke-opacity:0.3;" x="297.296893" xlink:href="#m3e9e886c34" y="97.138992"/>
     <use style="fill:#348abd;fill-opacity:0.3;stroke:#348abd;stroke-opacity:0.3;" x="299.437284" xlink:href="#m3e9e886c34" y="102.5582"/>
     <use style="fill:#348abd;fill-opacity:0.3;stroke:#348abd;stroke-opacity:0.3;" x="301.577675" xlink:href="#m3e9e886c34" y="101.669022"/>
     <use style="fill:#348abd;fill-opacity:0.3;stroke:#348abd;stroke-opacity:0.3;" x="303.718067" xlink:href="#m3e9e886c34" y="102.031355"/>
     <use style="fill:#348abd;fill-opacity:0.3;stroke:#348abd;stroke-opacity:0.3;" x="305.858458" xlink:href="#m3e9e886c34" y="102.725579"/>
     <use style="fill:#348abd;fill-opacity:0.3;stroke:#348abd;stroke-opacity:0.3;" x="307.998849" xlink:href="#m3e9e886c34" y="97.203152"/>
     <use style="fill:#348abd;fill-opacity:0.3;stroke:#348abd;stroke-opacity:0.3;" x="310.139241" xlink:href="#m3e9e886c34" y="94.104704"/>
     <use style="fill:#348abd;fill-opacity:0.3;stroke:#348abd;stroke-opacity:0.3;" x="312.279632" xlink:href="#m3e9e886c34" y="83.906074"/>
     <use style="fill:#348abd;fill-opacity:0.3;stroke:#348abd;stroke-opacity:0.3;" x="314.420023" xlink:href="#m3e9e886c34" y="78.727586"/>
     <use style="fill:#348abd;fill-opacity:0.3;stroke:#348abd;stroke-opacity:0.3;" x="316.560414" xlink:href="#m3e9e886c34" y="89.732398"/>
     <use style="fill:#348abd;fill-opacity:0.3;stroke:#348abd;stroke-opacity:0.3;" x="318.700806" xlink:href="#m3e9e886c34" y="84.826529"/>
     <use style="fill:#348abd;fill-opacity:0.3;stroke:#348abd;stroke-opacity:0.3;" x="320.841197" xlink:href="#m3e9e886c34" y="91.764365"/>
     <use style="fill:#348abd;fill-opacity:0.3;stroke:#348abd;stroke-opacity:0.3;" x="322.981588" xlink:href="#m3e9e886c34" y="87.646709"/>
     <use style="fill:#348abd;fill-opacity:0.3;stroke:#348abd;stroke-opacity:0.3;" x="325.121979" xlink:href="#m3e9e886c34" y="86.31346"/>
     <use style="fill:#348abd;fill-opacity:0.3;stroke:#348abd;stroke-opacity:0.3;" x="327.262371" xlink:href="#m3e9e886c34" y="91.878551"/>
     <use style="fill:#348abd;fill-opacity:0.3;stroke:#348abd;stroke-opacity:0.3;" x="329.402762" xlink:href="#m3e9e886c34" y="95.697083"/>
     <use style="fill:#348abd;fill-opacity:0.3;stroke:#348abd;stroke-opacity:0.3;" x="331.543153" xlink:href="#m3e9e886c34" y="100.757943"/>
     <use style="fill:#348abd;fill-opacity:0.3;stroke:#348abd;stroke-opacity:0.3;" x="333.683544" xlink:href="#m3e9e886c34" y="83.478949"/>
     <use style="fill:#348abd;fill-opacity:0.3;stroke:#348abd;stroke-opacity:0.3;" x="335.823936" xlink:href="#m3e9e886c34" y="62.006783"/>
     <use style="fill:#348abd;fill-opacity:0.3;stroke:#348abd;stroke-opacity:0.3;" x="337.964327" xlink:href="#m3e9e886c34" y="32.634803"/>
     <use style="fill:#348abd;fill-opacity:0.3;stroke:#348abd;stroke-opacity:0.3;" x="340.104718" xlink:href="#m3e9e886c34" y="17.516725"/>
     <use style="fill:#348abd;fill-opacity:0.3;stroke:#348abd;stroke-opacity:0.3;" x="342.245109" xlink:href="#m3e9e886c34" y="31.73871"/>
     <use style="fill:#348abd;fill-opacity:0.3;stroke:#348abd;stroke-opacity:0.3;" x="344.385501" xlink:href="#m3e9e886c34" y="34.80906"/>
     <use style="fill:#348abd;fill-opacity:0.3;stroke:#348abd;stroke-opacity:0.3;" x="346.525892" xlink:href="#m3e9e886c34" y="41.986242"/>
     <use style="fill:#348abd;fill-opacity:0.3;stroke:#348abd;stroke-opacity:0.3;" x="348.666283" xlink:href="#m3e9e886c34" y="54.552089"/>
     <use style="fill:#348abd;fill-opacity:0.3;stroke:#348abd;stroke-opacity:0.3;" x="350.806674" xlink:href="#m3e9e886c34" y="68.679069"/>
     <use style="fill:#348abd;fill-opacity:0.3;stroke:#348abd;stroke-opacity:0.3;" x="352.947066" xlink:href="#m3e9e886c34" y="81.748902"/>
     <use style="fill:#348abd;fill-opacity:0.3;stroke:#348abd;stroke-opacity:0.3;" x="355.087457" xlink:href="#m3e9e886c34" y="89.102612"/>
     <use style="fill:#348abd;fill-opacity:0.3;stroke:#348abd;stroke-opacity:0.3;" x="357.227848" xlink:href="#m3e9e886c34" y="99.01585"/>
     <use style="fill:#348abd;fill-opacity:0.3;stroke:#348abd;stroke-opacity:0.3;" x="359.368239" xlink:href="#m3e9e886c34" y="91.377143"/>
     <use style="fill:#348abd;fill-opacity:0.3;stroke:#348abd;stroke-opacity:0.3;" x="361.508631" xlink:href="#m3e9e886c34" y="93.903181"/>
     <use style="fill:#348abd;fill-opacity:0.3;stroke:#348abd;stroke-opacity:0.3;" x="363.649022" xlink:href="#m3e9e886c34" y="88.188811"/>
     <use style="fill:#348abd;fill-opacity:0.3;stroke:#348abd;stroke-opacity:0.3;" x="365.789413" xlink:href="#m3e9e886c34" y="83.847658"/>
     <use style="fill:#348abd;fill-opacity:0.3;stroke:#348abd;stroke-opacity:0.3;" x="367.929804" xlink:href="#m3e9e886c34" y="76.877324"/>
     <use style="fill:#348abd;fill-opacity:0.3;stroke:#348abd;stroke-opacity:0.3;" x="370.070196" xlink:href="#m3e9e886c34" y="75.846413"/>
     <use style="fill:#348abd;fill-opacity:0.3;stroke:#348abd;stroke-opacity:0.3;" x="372.210587" xlink:href="#m3e9e886c34" y="73.613466"/>
     <use style="fill:#348abd;fill-opacity:0.3;stroke:#348abd;stroke-opacity:0.3;" x="374.350978" xlink:href="#m3e9e886c34" y="64.531402"/>
     <use style="fill:#348abd;fill-opacity:0.3;stroke:#348abd;stroke-opacity:0.3;" x="376.491369" xlink:href="#m3e9e886c34" y="39.380827"/>
     <use style="fill:#348abd;fill-opacity:0.3;stroke:#348abd;stroke-opacity:0.3;" x="378.631761" xlink:href="#m3e9e886c34" y="49.798132"/>
     <use style="fill:#348abd;fill-opacity:0.3;stroke:#348abd;stroke-opacity:0.3;" x="380.772152" xlink:href="#m3e9e886c34" y="48.830429"/>
     <use style="fill:#348abd;fill-opacity:0.3;stroke:#348abd;stroke-opacity:0.3;" x="382.912543" xlink:href="#m3e9e886c34" y="60.768956"/>
     <use style="fill:#348abd;fill-opacity:0.3;stroke:#348abd;stroke-opacity:0.3;" x="385.052934" xlink:href="#m3e9e886c34" y="66.434677"/>
     <use style="fill:#348abd;fill-opacity:0.3;stroke:#348abd;stroke-opacity:0.3;" x="387.193326" xlink:href="#m3e9e886c34" y="73.214237"/>
     <use style="fill:#348abd;fill-opacity:0.3;stroke:#348abd;stroke-opacity:0.3;" x="389.333717" xlink:href="#m3e9e886c34" y="74.547403"/>
     <use style="fill:#348abd;fill-opacity:0.3;stroke:#348abd;stroke-opacity:0.3;" x="391.474108" xlink:href="#m3e9e886c34" y="81.230336"/>
     <use style="fill:#348abd;fill-opacity:0.3;stroke:#348abd;stroke-opacity:0.3;" x="393.614499" xlink:href="#m3e9e886c34" y="86.478036"/>
     <use style="fill:#348abd;fill-opacity:0.3;stroke:#348abd;stroke-opacity:0.3;" x="395.754891" xlink:href="#m3e9e886c34" y="88.241028"/>
     <use style="fill:#348abd;fill-opacity:0.3;stroke:#348abd;stroke-opacity:0.3;" x="397.895282" xlink:href="#m3e9e886c34" y="75.907367"/>
     <use style="fill:#348abd;fill-opacity:0.3;stroke:#348abd;stroke-opacity:0.3;" x="400.035673" xlink:href="#m3e9e886c34" y="74.028638"/>
     <use style="fill:#348abd;fill-opacity:0.3;stroke:#348abd;stroke-opacity:0.3;" x="402.176064" xlink:href="#m3e9e886c34" y="73.556273"/>
     <use style="fill:#348abd;fill-opacity:0.3;stroke:#348abd;stroke-opacity:0.3;" x="404.316456" xlink:href="#m3e9e886c34" y="74.972617"/>
     <use style="fill:#348abd;fill-opacity:0.3;stroke:#348abd;stroke-opacity:0.3;" x="406.456847" xlink:href="#m3e9e886c34" y="77.886877"/>
     <use style="fill:#348abd;fill-opacity:0.3;stroke:#348abd;stroke-opacity:0.3;" x="408.597238" xlink:href="#m3e9e886c34" y="77.768214"/>
     <use style="fill:#348abd;fill-opacity:0.3;stroke:#348abd;stroke-opacity:0.3;" x="410.737629" xlink:href="#m3e9e886c34" y="76.779713"/>
     <use style="fill:#348abd;fill-opacity:0.3;stroke:#348abd;stroke-opacity:0.3;" x="412.878021" xlink:href="#m3e9e886c34" y="80.645915"/>
     <use style="fill:#348abd;fill-opacity:0.3;stroke:#348abd;stroke-opacity:0.3;" x="415.018412" xlink:href="#m3e9e886c34" y="83.965755"/>
     <use style="fill:#348abd;fill-opacity:0.3;stroke:#348abd;stroke-opacity:0.3;" x="417.158803" xlink:href="#m3e9e886c34" y="86.620895"/>
     <use style="fill:#348abd;fill-opacity:0.3;stroke:#348abd;stroke-opacity:0.3;" x="419.299194" xlink:href="#m3e9e886c34" y="82.246468"/>
     <use style="fill:#348abd;fill-opacity:0.3;stroke:#348abd;stroke-opacity:0.3;" x="421.439586" xlink:href="#m3e9e886c34" y="78.899931"/>
     <use style="fill:#348abd;fill-opacity:0.3;stroke:#348abd;stroke-opacity:0.3;" x="423.579977" xlink:href="#m3e9e886c34" y="81.34607"/>
     <use style="fill:#348abd;fill-opacity:0.3;stroke:#348abd;stroke-opacity:0.3;" x="425.720368" xlink:href="#m3e9e886c34" y="72.365319"/>
     <use style="fill:#348abd;fill-opacity:0.3;stroke:#348abd;stroke-opacity:0.3;" x="427.860759" xlink:href="#m3e9e886c34" y="75.183755"/>
     <use style="fill:#348abd;fill-opacity:0.3;stroke:#348abd;stroke-opacity:0.3;" x="430.001151" xlink:href="#m3e9e886c34" y="80.510246"/>
     <use style="fill:#348abd;fill-opacity:0.3;stroke:#348abd;stroke-opacity:0.3;" x="432.141542" xlink:href="#m3e9e886c34" y="75.462169"/>
     <use style="fill:#348abd;fill-opacity:0.3;stroke:#348abd;stroke-opacity:0.3;" x="434.281933" xlink:href="#m3e9e886c34" y="78.113444"/>
     <use style="fill:#348abd;fill-opacity:0.3;stroke:#348abd;stroke-opacity:0.3;" x="436.422325" xlink:href="#m3e9e886c34" y="85.588232"/>
     <use style="fill:#348abd;fill-opacity:0.3;stroke:#348abd;stroke-opacity:0.3;" x="438.562716" xlink:href="#m3e9e886c34" y="87.651525"/>
     <use style="fill:#348abd;fill-opacity:0.3;stroke:#348abd;stroke-opacity:0.3;" x="440.703107" xlink:href="#m3e9e886c34" y="87.154861"/>
     <use style="fill:#348abd;fill-opacity:0.3;stroke:#348abd;stroke-opacity:0.3;" x="442.843498" xlink:href="#m3e9e886c34" y="78.273572"/>
     <use style="fill:#348abd;fill-opacity:0.3;stroke:#348abd;stroke-opacity:0.3;" x="444.98389" xlink:href="#m3e9e886c34" y="82.112619"/>
     <use style="fill:#348abd;fill-opacity:0.3;stroke:#348abd;stroke-opacity:0.3;" x="447.124281" xlink:href="#m3e9e886c34" y="75.336707"/>
     <use style="fill:#348abd;fill-opacity:0.3;stroke:#348abd;stroke-opacity:0.3;" x="449.264672" xlink:href="#m3e9e886c34" y="68.41792"/>
     <use style="fill:#348abd;fill-opacity:0.3;stroke:#348abd;stroke-opacity:0.3;" x="451.405063" xlink:href="#m3e9e886c34" y="75.367709"/>
     <use style="fill:#348abd;fill-opacity:0.3;stroke:#348abd;stroke-opacity:0.3;" x="453.545455" xlink:href="#m3e9e886c34" y="73.664135"/>
     <use style="fill:#348abd;fill-opacity:0.3;stroke:#348abd;stroke-opacity:0.3;" x="455.685846" xlink:href="#m3e9e886c34" y="68.940899"/>
     <use style="fill:#348abd;fill-opacity:0.3;stroke:#348abd;stroke-opacity:0.3;" x="457.826237" xlink:href="#m3e9e886c34" y="71.993905"/>
     <use style="fill:#348abd;fill-opacity:0.3;stroke:#348abd;stroke-opacity:0.3;" x="459.966628" xlink:href="#m3e9e886c34" y="77.159697"/>
     <use style="fill:#348abd;fill-opacity:0.3;stroke:#348abd;stroke-opacity:0.3;" x="462.10702" xlink:href="#m3e9e886c34" y="80.311515"/>
     <use style="fill:#348abd;fill-opacity:0.3;stroke:#348abd;stroke-opacity:0.3;" x="464.247411" xlink:href="#m3e9e886c34" y="74.935561"/>
     <use style="fill:#348abd;fill-opacity:0.3;stroke:#348abd;stroke-opacity:0.3;" x="466.387802" xlink:href="#m3e9e886c34" y="79.641822"/>
     <use style="fill:#348abd;fill-opacity:0.3;stroke:#348abd;stroke-opacity:0.3;" x="468.528193" xlink:href="#m3e9e886c34" y="83.423138"/>
     <use style="fill:#348abd;fill-opacity:0.3;stroke:#348abd;stroke-opacity:0.3;" x="470.668585" xlink:href="#m3e9e886c34" y="87.433405"/>
     <use style="fill:#348abd;fill-opacity:0.3;stroke:#348abd;stroke-opacity:0.3;" x="472.808976" xlink:href="#m3e9e886c34" y="88.340208"/>
     <use style="fill:#348abd;fill-opacity:0.3;stroke:#348abd;stroke-opacity:0.3;" x="474.949367" xlink:href="#m3e9e886c34" y="83.733423"/>
     <use style="fill:#348abd;fill-opacity:0.3;stroke:#348abd;stroke-opacity:0.3;" x="477.089758" xlink:href="#m3e9e886c34" y="87.541904"/>
     <use style="fill:#348abd;fill-opacity:0.3;stroke:#348abd;stroke-opacity:0.3;" x="479.23015" xlink:href="#m3e9e886c34" y="83.976993"/>
     <use style="fill:#348abd;fill-opacity:0.3;stroke:#348abd;stroke-opacity:0.3;" x="481.370541" xlink:href="#m3e9e886c34" y="78.525259"/>
     <use style="fill:#348abd;fill-opacity:0.3;stroke:#348abd;stroke-opacity:0.3;" x="483.510932" xlink:href="#m3e9e886c34" y="79.501987"/>
     <use style="fill:#348abd;fill-opacity:0.3;stroke:#348abd;stroke-opacity:0.3;" x="485.651323" xlink:href="#m3e9e886c34" y="78.900498"/>
     <use style="fill:#348abd;fill-opacity:0.3;stroke:#348abd;stroke-opacity:0.3;" x="487.791715" xlink:href="#m3e9e886c34" y="80.189747"/>
     <use style="fill:#348abd;fill-opacity:0.3;stroke:#348abd;stroke-opacity:0.3;" x="489.932106" xlink:href="#m3e9e886c34" y="83.076203"/>
     <use style="fill:#348abd;fill-opacity:0.3;stroke:#348abd;stroke-opacity:0.3;" x="492.072497" xlink:href="#m3e9e886c34" y="84.077689"/>
     <use style="fill:#348abd;fill-opacity:0.3;stroke:#348abd;stroke-opacity:0.3;" x="494.212888" xlink:href="#m3e9e886c34" y="83.077928"/>
     <use style="fill:#348abd;fill-opacity:0.3;stroke:#348abd;stroke-opacity:0.3;" x="496.35328" xlink:href="#m3e9e886c34" y="75.175125"/>
     <use style="fill:#348abd;fill-opacity:0.3;stroke:#348abd;stroke-opacity:0.3;" x="498.493671" xlink:href="#m3e9e886c34" y="78.95337"/>
     <use style="fill:#348abd;fill-opacity:0.3;stroke:#348abd;stroke-opacity:0.3;" x="500.634062" xlink:href="#m3e9e886c34" y="62.490613"/>
     <use style="fill:#348abd;fill-opacity:0.3;stroke:#348abd;stroke-opacity:0.3;" x="502.774453" xlink:href="#m3e9e886c34" y="67.524476"/>
     <use style="fill:#348abd;fill-opacity:0.3;stroke:#348abd;stroke-opacity:0.3;" x="504.914845" xlink:href="#m3e9e886c34" y="71.481155"/>
     <use style="fill:#348abd;fill-opacity:0.3;stroke:#348abd;stroke-opacity:0.3;" x="507.055236" xlink:href="#m3e9e886c34" y="76.60112"/>
     <use style="fill:#348abd;fill-opacity:0.3;stroke:#348abd;stroke-opacity:0.3;" x="509.195627" xlink:href="#m3e9e886c34" y="78.80058"/>
     <use style="fill:#348abd;fill-opacity:0.3;stroke:#348abd;stroke-opacity:0.3;" x="511.336018" xlink:href="#m3e9e886c34" y="93.201953"/>
     <use style="fill:#348abd;fill-opacity:0.3;stroke:#348abd;stroke-opacity:0.3;" x="513.47641" xlink:href="#m3e9e886c34" y="97.869189"/>
     <use style="fill:#348abd;fill-opacity:0.3;stroke:#348abd;stroke-opacity:0.3;" x="515.616801" xlink:href="#m3e9e886c34" y="99.93249"/>
     <use style="fill:#348abd;fill-opacity:0.3;stroke:#348abd;stroke-opacity:0.3;" x="517.757192" xlink:href="#m3e9e886c34" y="97.072198"/>
     <use style="fill:#348abd;fill-opacity:0.3;stroke:#348abd;stroke-opacity:0.3;" x="519.897583" xlink:href="#m3e9e886c34" y="111.703966"/>
     <use style="fill:#348abd;fill-opacity:0.3;stroke:#348abd;stroke-opacity:0.3;" x="522.037975" xlink:href="#m3e9e886c34" y="90.266141"/>
     <use style="fill:#348abd;fill-opacity:0.3;stroke:#348abd;stroke-opacity:0.3;" x="524.178366" xlink:href="#m3e9e886c34" y="78.862949"/>
     <use style="fill:#348abd;fill-opacity:0.3;stroke:#348abd;stroke-opacity:0.3;" x="526.318757" xlink:href="#m3e9e886c34" y="75.684214"/>
     <use style="fill:#348abd;fill-opacity:0.3;stroke:#348abd;stroke-opacity:0.3;" x="528.459148" xlink:href="#m3e9e886c34" y="86.610044"/>
     <use style="fill:#348abd;fill-opacity:0.3;stroke:#348abd;stroke-opacity:0.3;" x="530.59954" xlink:href="#m3e9e886c34" y="69.687015"/>
     <use style="fill:#348abd;fill-opacity:0.3;stroke:#348abd;stroke-opacity:0.3;" x="532.739931" xlink:href="#m3e9e886c34" y="76.89996"/>
     <use style="fill:#348abd;fill-opacity:0.3;stroke:#348abd;stroke-opacity:0.3;" x="534.880322" xlink:href="#m3e9e886c34" y="77.784562"/>
     <use style="fill:#348abd;fill-opacity:0.3;stroke:#348abd;stroke-opacity:0.3;" x="537.020713" xlink:href="#m3e9e886c34" y="77.008813"/>
     <use style="fill:#348abd;fill-opacity:0.3;stroke:#348abd;stroke-opacity:0.3;" x="539.161105" xlink:href="#m3e9e886c34" y="69.275763"/>
     <use style="fill:#348abd;fill-opacity:0.3;stroke:#348abd;stroke-opacity:0.3;" x="541.301496" xlink:href="#m3e9e886c34" y="69.676574"/>
     <use style="fill:#348abd;fill-opacity:0.3;stroke:#348abd;stroke-opacity:0.3;" x="543.441887" xlink:href="#m3e9e886c34" y="51.065"/>
     <use style="fill:#348abd;fill-opacity:0.3;stroke:#348abd;stroke-opacity:0.3;" x="545.582278" xlink:href="#m3e9e886c34" y="29.813184"/>
     <use style="fill:#348abd;fill-opacity:0.3;stroke:#348abd;stroke-opacity:0.3;" x="547.661348" xlink:href="#m3e9e886c34" y="-1"/>
     <use style="fill:#348abd;fill-opacity:0.3;stroke:#348abd;stroke-opacity:0.3;" x="547.801285" xlink:href="#m3e9e886c34" y="-1"/>
     <use style="fill:#348abd;fill-opacity:0.3;stroke:#348abd;stroke-opacity:0.3;" x="549.863061" xlink:href="#m3e9e886c34" y="22.835307"/>
     <use style="fill:#348abd;fill-opacity:0.3;stroke:#348abd;stroke-opacity:0.3;" x="552.003452" xlink:href="#m3e9e886c34" y="24.540829"/>
     <use style="fill:#348abd;fill-opacity:0.3;stroke:#348abd;stroke-opacity:0.3;" x="554.143843" xlink:href="#m3e9e886c34" y="29.986554"/>
     <use style="fill:#348abd;fill-opacity:0.3;stroke:#348abd;stroke-opacity:0.3;" x="556.284235" xlink:href="#m3e9e886c34" y="41.544404"/>
     <use style="fill:#348abd;fill-opacity:0.3;stroke:#348abd;stroke-opacity:0.3;" x="558.424626" xlink:href="#m3e9e886c34" y="49.041059"/>
     <use style="fill:#348abd;fill-opacity:0.3;stroke:#348abd;stroke-opacity:0.3;" x="560.565017" xlink:href="#m3e9e886c34" y="55.361879"/>
     <use style="fill:#348abd;fill-opacity:0.3;stroke:#348abd;stroke-opacity:0.3;" x="562.705409" xlink:href="#m3e9e886c34" y="59.024116"/>
     <use style="fill:#348abd;fill-opacity:0.3;stroke:#348abd;stroke-opacity:0.3;" x="564.8458" xlink:href="#m3e9e886c34" y="69.190386"/>
     <use style="fill:#348abd;fill-opacity:0.3;stroke:#348abd;stroke-opacity:0.3;" x="566.986191" xlink:href="#m3e9e886c34" y="74.865169"/>
     <use style="fill:#348abd;fill-opacity:0.3;stroke:#348abd;stroke-opacity:0.3;" x="569.126582" xlink:href="#m3e9e886c34" y="73.31275"/>
     <use style="fill:#348abd;fill-opacity:0.3;stroke:#348abd;stroke-opacity:0.3;" x="571.266974" xlink:href="#m3e9e886c34" y="72.515533"/>
     <use style="fill:#348abd;fill-opacity:0.3;stroke:#348abd;stroke-opacity:0.3;" x="573.407365" xlink:href="#m3e9e886c34" y="75.816322"/>
     <use style="fill:#348abd;fill-opacity:0.3;stroke:#348abd;stroke-opacity:0.3;" x="575.547756" xlink:href="#m3e9e886c34" y="76.845239"/>
     <use style="fill:#348abd;fill-opacity:0.3;stroke:#348abd;stroke-opacity:0.3;" x="577.688147" xlink:href="#m3e9e886c34" y="78.982575"/>
     <use style="fill:#348abd;fill-opacity:0.3;stroke:#348abd;stroke-opacity:0.3;" x="579.828539" xlink:href="#m3e9e886c34" y="81.897803"/>
     <use style="fill:#348abd;fill-opacity:0.3;stroke:#348abd;stroke-opacity:0.3;" x="581.96893" xlink:href="#m3e9e886c34" y="86.056292"/>
     <use style="fill:#348abd;fill-opacity:0.3;stroke:#348abd;stroke-opacity:0.3;" x="584.109321" xlink:href="#m3e9e886c34" y="84.055099"/>
     <use style="fill:#348abd;fill-opacity:0.3;stroke:#348abd;stroke-opacity:0.3;" x="586.249712" xlink:href="#m3e9e886c34" y="89.629453"/>
     <use style="fill:#348abd;fill-opacity:0.3;stroke:#348abd;stroke-opacity:0.3;" x="588.390104" xlink:href="#m3e9e886c34" y="93.038591"/>
     <use style="fill:#348abd;fill-opacity:0.3;stroke:#348abd;stroke-opacity:0.3;" x="590.530495" xlink:href="#m3e9e886c34" y="98.449298"/>
     <use style="fill:#348abd;fill-opacity:0.3;stroke:#348abd;stroke-opacity:0.3;" x="592.670886" xlink:href="#m3e9e886c34" y="96.173008"/>
     <use style="fill:#348abd;fill-opacity:0.3;stroke:#348abd;stroke-opacity:0.3;" x="594.811277" xlink:href="#m3e9e886c34" y="97.002183"/>
     <use style="fill:#348abd;fill-opacity:0.3;stroke:#348abd;stroke-opacity:0.3;" x="596.951669" xlink:href="#m3e9e886c34" y="96.59859"/>
     <use style="fill:#348abd;fill-opacity:0.3;stroke:#348abd;stroke-opacity:0.3;" x="599.09206" xlink:href="#m3e9e886c34" y="93.897569"/>
     <use style="fill:#348abd;fill-opacity:0.3;stroke:#348abd;stroke-opacity:0.3;" x="601.232451" xlink:href="#m3e9e886c34" y="92.681321"/>
     <use style="fill:#348abd;fill-opacity:0.3;stroke:#348abd;stroke-opacity:0.3;" x="603.372842" xlink:href="#m3e9e886c34" y="90.599793"/>
     <use style="fill:#348abd;fill-opacity:0.3;stroke:#348abd;stroke-opacity:0.3;" x="605.513234" xlink:href="#m3e9e886c34" y="85.835477"/>
     <use style="fill:#348abd;fill-opacity:0.3;stroke:#348abd;stroke-opacity:0.3;" x="607.653625" xlink:href="#m3e9e886c34" y="85.656547"/>
     <use style="fill:#348abd;fill-opacity:0.3;stroke:#348abd;stroke-opacity:0.3;" x="609.794016" xlink:href="#m3e9e886c34" y="84.708311"/>
     <use style="fill:#348abd;fill-opacity:0.3;stroke:#348abd;stroke-opacity:0.3;" x="611.934407" xlink:href="#m3e9e886c34" y="86.364767"/>
     <use style="fill:#348abd;fill-opacity:0.3;stroke:#348abd;stroke-opacity:0.3;" x="614.074799" xlink:href="#m3e9e886c34" y="85.079695"/>
     <use style="fill:#348abd;fill-opacity:0.3;stroke:#348abd;stroke-opacity:0.3;" x="616.21519" xlink:href="#m3e9e886c34" y="86.457577"/>
     <use style="fill:#348abd;fill-opacity:0.3;stroke:#348abd;stroke-opacity:0.3;" x="618.355581" xlink:href="#m3e9e886c34" y="88.358516"/>
     <use style="fill:#348abd;fill-opacity:0.3;stroke:#348abd;stroke-opacity:0.3;" x="620.495972" xlink:href="#m3e9e886c34" y="88.055228"/>
     <use style="fill:#348abd;fill-opacity:0.3;stroke:#348abd;stroke-opacity:0.3;" x="622.636364" xlink:href="#m3e9e886c34" y="90.040381"/>
    </g>
   </g>
   <g id="line2d_30">
    <path clip-path="url(#ped5bbaca34)" d="M 117.504028 87.433325 
L 119.644419 68.3572 
L 121.78481 55.578862 
L 123.925201 40.846326 
L 126.065593 29.683194 
L 128.205984 24.382021 
L 130.346375 28.182874 
L 132.486766 36.83737 
L 134.627158 52.281498 
L 136.767549 59.888734 
L 138.90794 69.305766 
L 143.188723 83.815141 
L 145.329114 89.411321 
L 147.469505 93.766057 
L 149.609896 97.845583 
L 151.750288 104.286061 
L 153.890679 109.84015 
L 156.03107 114.405585 
L 158.171461 113.81557 
L 160.311853 110.466163 
L 161.866488 -1 
M 180.552127 -1 
L 181.715765 11.317063 
L 183.856157 20.369563 
L 185.996548 26.450697 
L 188.136939 30.714702 
L 190.27733 36.684097 
L 192.417722 43.927215 
L 194.558113 51.691685 
L 200.979287 76.504948 
L 203.119678 84.697163 
L 207.40046 98.382405 
L 209.540852 103.782379 
L 211.681243 108.151135 
L 213.821634 111.627755 
L 215.962025 113.951698 
L 218.102417 114.678169 
L 220.242808 113.385206 
L 222.383199 108.78469 
L 224.52359 103.726118 
L 228.804373 89.770835 
L 230.944764 84.331768 
L 233.085155 80.498116 
L 235.225547 78.489203 
L 237.365938 78.638933 
L 239.506329 79.363216 
L 241.64672 81.578535 
L 243.787112 83.019556 
L 245.927503 83.197085 
L 248.067894 82.585023 
L 252.348677 78.257898 
L 254.489068 76.68559 
L 256.629459 76.483148 
L 258.76985 77.882838 
L 260.910242 80.499416 
L 265.191024 87.382825 
L 271.612198 96.142854 
L 273.752589 98.931026 
L 275.89298 101.285448 
L 278.033372 103.19192 
L 280.173763 103.811163 
L 282.314154 103.015326 
L 284.454545 101.416736 
L 288.735328 97.103541 
L 290.875719 95.631253 
L 293.01611 95.461956 
L 295.156502 96.427558 
L 297.296893 97.866595 
L 299.437284 99.486152 
L 301.577675 100.612076 
L 303.718067 100.631477 
L 305.858458 98.939409 
L 312.279632 88.755019 
L 314.420023 86.839806 
L 316.560414 86.36111 
L 318.700806 86.695256 
L 320.841197 87.768484 
L 327.262371 91.557315 
L 329.402762 90.174066 
L 331.543153 84.461389 
L 333.683544 73.577803 
L 337.964327 46.832158 
L 340.104718 37.555001 
L 342.245109 34.796759 
L 344.385501 38.137263 
L 346.525892 46.242451 
L 352.947066 77.242998 
L 355.087457 85.124631 
L 357.227848 89.847038 
L 359.368239 91.395872 
L 361.508631 90.152418 
L 363.649022 87.279643 
L 367.929804 79.393231 
L 372.210587 67.295179 
L 374.350978 60.783495 
L 376.491369 55.9487 
L 378.631761 53.834102 
L 380.772152 55.173003 
L 382.912543 59.232025 
L 385.052934 65.273845 
L 389.333717 76.062153 
L 391.474108 79.413326 
L 393.614499 81.060082 
L 395.754891 80.779795 
L 397.895282 79.286511 
L 400.035673 77.427602 
L 402.176064 76.118056 
L 404.316456 75.693355 
L 406.456847 76.518586 
L 408.597238 77.752395 
L 412.878021 80.866414 
L 415.018412 81.881493 
L 417.158803 82.424544 
L 419.299194 81.744287 
L 423.579977 78.788548 
L 425.720368 77.450222 
L 427.860759 76.97256 
L 430.001151 77.564836 
L 432.141542 78.859238 
L 434.281933 81.026508 
L 436.422325 82.564804 
L 438.562716 83.440089 
L 440.703107 83.226055 
L 442.843498 81.365494 
L 447.124281 76.410279 
L 449.264672 74.273671 
L 451.405063 73.107459 
L 453.545455 72.544267 
L 455.685846 73.104662 
L 457.826237 74.149084 
L 459.966628 75.335698 
L 462.10702 76.927704 
L 468.528193 82.802258 
L 470.668585 84.466051 
L 472.808976 85.623161 
L 474.949367 85.468052 
L 477.089758 84.486798 
L 481.370541 81.46447 
L 483.510932 80.692549 
L 485.651323 80.478623 
L 487.791715 80.999672 
L 489.932106 81.364512 
L 492.072497 81.296765 
L 494.212888 79.573552 
L 496.35328 76.924702 
L 498.493671 73.97101 
L 500.634062 71.865725 
L 502.774453 71.334692 
L 504.914845 73.532129 
L 507.055236 77.532544 
L 509.195627 83.359141 
L 513.47641 94.247189 
L 515.616801 97.493453 
L 517.757192 98.071438 
L 519.897583 95.479695 
L 522.037975 91.582328 
L 524.178366 86.385312 
L 526.318757 82.111795 
L 528.459148 78.648031 
L 530.59954 77.294992 
L 534.880322 75.341576 
L 537.020713 72.372733 
L 539.161105 67.321551 
L 541.301496 57.333119 
L 545.582278 34.52561 
L 547.72267 26.530555 
L 549.863061 23.586714 
L 552.003452 26.104813 
L 554.143843 32.254989 
L 556.284235 40.266012 
L 560.565017 54.444321 
L 562.705409 60.808471 
L 564.8458 65.881197 
L 566.986191 69.800901 
L 569.126582 72.48995 
L 571.266974 74.393002 
L 573.407365 75.829848 
L 575.547756 77.549781 
L 577.688147 79.545261 
L 581.96893 84.266359 
L 588.390104 92.441859 
L 590.530495 94.497817 
L 592.670886 95.791465 
L 594.811277 95.96859 
L 596.951669 95.300175 
L 599.09206 93.749428 
L 601.232451 91.942734 
L 603.372842 89.88 
L 605.513234 88.062309 
L 607.653625 86.702978 
L 609.794016 85.937551 
L 611.934407 85.825861 
L 614.074799 86.217879 
L 618.355581 87.530874 
L 622.636364 88.6418 
L 622.636364 88.6418 
" style="fill:none;stroke:#348abd;stroke-linecap:square;stroke-opacity:0.7;stroke-width:3;"/>
   </g>
   <g id="line2d_31">
    <path clip-path="url(#ped5bbaca34)" d="M 134.544467 -1 
L 134.627158 1.588479 
L 136.767549 31.989181 
L 141.048331 111.205456 
L 143.188723 119.209324 
L 145.329114 130.076651 
L 147.469505 138.241228 
L 149.609896 153.277244 
L 151.767786 181 
M 158.827352 181 
L 160.311853 165.187375 
L 160.798584 -1 
M 195.267389 -1 
L 196.698504 33.057821 
L 198.838895 70.76496 
L 203.119678 127.551966 
L 205.260069 145.042342 
L 207.40046 160.625363 
L 209.540852 174.57162 
L 211.852136 181 
M 219.214035 181 
L 220.242808 177.476511 
L 222.383199 160.294179 
L 224.52359 138.457354 
L 226.663982 121.128845 
L 228.804373 93.292387 
L 230.944764 77.594642 
L 233.085155 65.815547 
L 235.225547 59.539035 
L 237.365938 79.20392 
L 239.506329 89.588222 
L 241.64672 98.04127 
L 243.787112 103.835772 
L 245.927503 93.322683 
L 250.208285 70.072937 
L 252.348677 56.143969 
L 254.489068 58.415315 
L 256.629459 70.300787 
L 258.76985 83.116856 
L 260.910242 97.092893 
L 263.050633 109.556431 
L 265.191024 117.637768 
L 267.331415 127.008145 
L 269.471807 138.026644 
L 271.612198 146.013895 
L 273.752589 154.613449 
L 275.89298 160.413933 
L 278.033372 161.950338 
L 280.173763 160.1819 
L 282.314154 153.948977 
L 286.594937 137.628432 
L 288.735328 132.38283 
L 290.875719 130.726543 
L 293.01611 134.946232 
L 295.156502 142.835172 
L 299.437284 154.943332 
L 301.577675 155.628555 
L 303.718067 148.515931 
L 305.858458 138.71521 
L 310.139241 105.864537 
L 312.279632 99.553149 
L 314.420023 101.01828 
L 316.560414 107.707621 
L 318.700806 111.880539 
L 320.841197 115.073848 
L 322.981588 116.842506 
L 325.121979 121.596467 
L 327.262371 127.11202 
L 329.402762 116.247865 
L 331.543153 80.412272 
L 333.852589 -1 
M 347.585487 -1 
L 348.666283 32.173527 
L 350.806674 80.876758 
L 352.947066 111.244974 
L 355.087457 127.000017 
L 357.227848 130.351178 
L 359.368239 122.321251 
L 361.508631 110.317211 
L 363.649022 92.356096 
L 365.789413 73.227415 
L 367.929804 59.037862 
L 370.070196 30.809923 
L 372.027622 -1 
M 382.279159 -1 
L 385.052934 46.293969 
L 387.193326 71.909982 
L 389.333717 88.282504 
L 391.474108 94.975139 
L 393.614499 88.504318 
L 395.754891 74.64176 
L 397.895282 62.366133 
L 400.035673 58.757459 
L 402.176064 61.448433 
L 404.316456 66.842071 
L 406.456847 72.607119 
L 408.597238 75.580933 
L 410.737629 82.602406 
L 412.878021 90.356044 
L 415.018412 91.795671 
L 417.158803 92.50128 
L 419.299194 86.175093 
L 421.439586 73.77921 
L 423.579977 68.38116 
L 425.720368 61.099433 
L 427.860759 61.771303 
L 430.001151 74.41913 
L 432.141542 83.277732 
L 434.281933 96.005795 
L 436.422325 103.622981 
L 438.562716 97.270999 
L 440.703107 88.539379 
L 444.98389 58.870047 
L 447.124281 54.036681 
L 449.264672 49.762836 
L 451.405063 48.15822 
L 453.545455 50.039312 
L 455.685846 53.784432 
L 457.826237 59.660883 
L 459.966628 66.857157 
L 462.10702 74.742751 
L 464.247411 83.147693 
L 466.387802 93.869484 
L 468.528193 100.968279 
L 470.668585 104.462345 
L 472.808976 104.579059 
L 474.949367 98.31465 
L 477.089758 93.130604 
L 479.23015 86.19858 
L 481.370541 77.662155 
L 483.510932 78.76664 
L 485.651323 82.031649 
L 487.791715 86.353241 
L 489.932106 91.222233 
L 492.072497 87.388619 
L 494.212888 72.441278 
L 498.493671 38.667067 
L 500.634062 26.763307 
L 502.774453 40.168936 
L 507.055236 91.30401 
L 509.195627 120.114909 
L 511.336018 139.18762 
L 513.47641 147.382471 
L 515.616801 151.576471 
L 517.757192 141.975565 
L 519.897583 121.649302 
L 522.037975 103.610266 
L 524.178366 83.520504 
L 526.318757 69.650963 
L 528.459148 69.317977 
L 530.59954 64.569826 
L 532.739931 60.403122 
L 534.880322 59.135886 
L 537.020713 39.415004 
L 539.141757 -1 
M 560.815109 -1 
L 562.705409 23.153353 
L 564.8458 40.873774 
L 566.986191 52.382099 
L 569.126582 58.643768 
L 571.266974 62.598594 
L 573.407365 69.062469 
L 575.547756 76.756319 
L 577.688147 85.473083 
L 581.96893 106.859392 
L 586.249712 128.414826 
L 588.390104 134.607957 
L 590.530495 137.48065 
L 592.670886 138.226226 
L 594.811277 135.863247 
L 596.951669 131.99023 
L 599.09206 125.88336 
L 603.372842 107.604938 
L 605.513234 101.588857 
L 607.653625 99.64825 
L 607.653625 99.64825 
" style="fill:none;stroke:#8eba42;stroke-linecap:square;stroke-width:4.5;"/>
   </g>
   <g id="line2d_32">
    <path clip-path="url(#ped5bbaca34)" d="M 115.363636 79.902491 
L 622.636364 79.902491 
" style="fill:none;stroke:#777777;stroke-linecap:square;stroke-width:1.5;"/>
   </g>
   <g id="patch_3">
    <path d="M 90 157.5 
L 90 21.6 
" style="fill:none;stroke:#ffffff;stroke-linecap:square;stroke-linejoin:miter;"/>
   </g>
   <g id="patch_4">
    <path d="M 648 157.5 
L 648 21.6 
" style="fill:none;stroke:#ffffff;stroke-linecap:square;stroke-linejoin:miter;"/>
   </g>
   <g id="patch_5">
    <path d="M 90 157.5 
L 648 157.5 
" style="fill:none;stroke:#ffffff;stroke-linecap:square;stroke-linejoin:miter;"/>
   </g>
   <g id="patch_6">
    <path d="M 90 21.6 
L 648 21.6 
" style="fill:none;stroke:#ffffff;stroke-linecap:square;stroke-linejoin:miter;"/>
   </g>
   <g id="legend_1">
    <g id="patch_7">
     <path d="M 342.745313 152.5 
L 641 152.5 
Q 643 152.5 643 150.5 
L 643 107.465625 
Q 643 105.465625 641 105.465625 
L 342.745313 105.465625 
Q 340.745313 105.465625 340.745313 107.465625 
L 340.745313 150.5 
Q 340.745313 152.5 342.745313 152.5 
z
" style="fill:#e5e5e5;opacity:0.8;stroke:#cccccc;stroke-linejoin:miter;stroke-width:0.5;"/>
    </g>
    <g id="line2d_33"/>
    <g id="line2d_34">
     <g>
      <use style="fill:#348abd;fill-opacity:0.3;stroke:#348abd;stroke-opacity:0.3;" x="354.745313" xlink:href="#m3e9e886c34" y="113.564063"/>
     </g>
    </g>
    <g id="text_18">
     <!-- Korea, South cases daily growth factor  -->
     <defs>
      <path d="M 9.8125 72.90625 
L 19.671875 72.90625 
L 19.671875 42.09375 
L 52.390625 72.90625 
L 65.09375 72.90625 
L 28.90625 38.921875 
L 67.671875 0 
L 54.6875 0 
L 19.671875 35.109375 
L 19.671875 0 
L 9.8125 0 
z
" id="DejaVuSans-75"/>
      <path d="M 11.71875 12.40625 
L 22.015625 12.40625 
L 22.015625 4 
L 14.015625 -11.625 
L 7.71875 -11.625 
L 11.71875 4 
z
" id="DejaVuSans-44"/>
      <path d="M 53.515625 70.515625 
L 53.515625 60.890625 
Q 47.90625 63.578125 42.921875 64.890625 
Q 37.9375 66.21875 33.296875 66.21875 
Q 25.25 66.21875 20.875 63.09375 
Q 16.5 59.96875 16.5 54.203125 
Q 16.5 49.359375 19.40625 46.890625 
Q 22.3125 44.4375 30.421875 42.921875 
L 36.375 41.703125 
Q 47.40625 39.59375 52.65625 34.296875 
Q 57.90625 29 57.90625 20.125 
Q 57.90625 9.515625 50.796875 4.046875 
Q 43.703125 -1.421875 29.984375 -1.421875 
Q 24.8125 -1.421875 18.96875 -0.25 
Q 13.140625 0.921875 6.890625 3.21875 
L 6.890625 13.375 
Q 12.890625 10.015625 18.65625 8.296875 
Q 24.421875 6.59375 29.984375 6.59375 
Q 38.421875 6.59375 43.015625 9.90625 
Q 47.609375 13.234375 47.609375 19.390625 
Q 47.609375 24.75 44.3125 27.78125 
Q 41.015625 30.8125 33.5 32.328125 
L 27.484375 33.5 
Q 16.453125 35.6875 11.515625 40.375 
Q 6.59375 45.0625 6.59375 53.421875 
Q 6.59375 63.09375 13.40625 68.65625 
Q 20.21875 74.21875 32.171875 74.21875 
Q 37.3125 74.21875 42.625 73.28125 
Q 47.953125 72.359375 53.515625 70.515625 
z
" id="DejaVuSans-83"/>
      <path d="M 8.5 21.578125 
L 8.5 54.6875 
L 17.484375 54.6875 
L 17.484375 21.921875 
Q 17.484375 14.15625 20.5 10.265625 
Q 23.53125 6.390625 29.59375 6.390625 
Q 36.859375 6.390625 41.078125 11.03125 
Q 45.3125 15.671875 45.3125 23.6875 
L 45.3125 54.6875 
L 54.296875 54.6875 
L 54.296875 0 
L 45.3125 0 
L 45.3125 8.40625 
Q 42.046875 3.421875 37.71875 1 
Q 33.40625 -1.421875 27.6875 -1.421875 
Q 18.265625 -1.421875 13.375 4.4375 
Q 8.5 10.296875 8.5 21.578125 
z
M 31.109375 56 
z
" id="DejaVuSans-117"/>
      <path d="M 9.421875 54.6875 
L 18.40625 54.6875 
L 18.40625 0 
L 9.421875 0 
z
M 9.421875 75.984375 
L 18.40625 75.984375 
L 18.40625 64.59375 
L 9.421875 64.59375 
z
" id="DejaVuSans-105"/>
      <path d="M 9.421875 75.984375 
L 18.40625 75.984375 
L 18.40625 0 
L 9.421875 0 
z
" id="DejaVuSans-108"/>
      <path d="M 32.171875 -5.078125 
Q 28.375 -14.84375 24.75 -17.8125 
Q 21.140625 -20.796875 15.09375 -20.796875 
L 7.90625 -20.796875 
L 7.90625 -13.28125 
L 13.1875 -13.28125 
Q 16.890625 -13.28125 18.9375 -11.515625 
Q 21 -9.765625 23.484375 -3.21875 
L 25.09375 0.875 
L 2.984375 54.6875 
L 12.5 54.6875 
L 29.59375 11.921875 
L 46.6875 54.6875 
L 56.203125 54.6875 
z
" id="DejaVuSans-121"/>
     </defs>
     <g transform="translate(372.745313 117.064063)scale(0.1 -0.1)">
      <use xlink:href="#DejaVuSans-75"/>
      <use x="60.576172" xlink:href="#DejaVuSans-111"/>
      <use x="121.757812" xlink:href="#DejaVuSans-114"/>
      <use x="160.621094" xlink:href="#DejaVuSans-101"/>
      <use x="222.144531" xlink:href="#DejaVuSans-97"/>
      <use x="283.423828" xlink:href="#DejaVuSans-44"/>
      <use x="315.210938" xlink:href="#DejaVuSans-32"/>
      <use x="346.998047" xlink:href="#DejaVuSans-83"/>
      <use x="410.474609" xlink:href="#DejaVuSans-111"/>
      <use x="471.65625" xlink:href="#DejaVuSans-117"/>
      <use x="535.035156" xlink:href="#DejaVuSans-116"/>
      <use x="574.244141" xlink:href="#DejaVuSans-104"/>
      <use x="637.623047" xlink:href="#DejaVuSans-32"/>
      <use x="669.410156" xlink:href="#DejaVuSans-99"/>
      <use x="724.390625" xlink:href="#DejaVuSans-97"/>
      <use x="785.669922" xlink:href="#DejaVuSans-115"/>
      <use x="837.769531" xlink:href="#DejaVuSans-101"/>
      <use x="899.292969" xlink:href="#DejaVuSans-115"/>
      <use x="951.392578" xlink:href="#DejaVuSans-32"/>
      <use x="983.179688" xlink:href="#DejaVuSans-100"/>
      <use x="1046.65625" xlink:href="#DejaVuSans-97"/>
      <use x="1107.935547" xlink:href="#DejaVuSans-105"/>
      <use x="1135.71875" xlink:href="#DejaVuSans-108"/>
      <use x="1163.501953" xlink:href="#DejaVuSans-121"/>
      <use x="1222.681641" xlink:href="#DejaVuSans-32"/>
      <use x="1254.46875" xlink:href="#DejaVuSans-103"/>
      <use x="1317.945312" xlink:href="#DejaVuSans-114"/>
      <use x="1356.808594" xlink:href="#DejaVuSans-111"/>
      <use x="1417.990234" xlink:href="#DejaVuSans-119"/>
      <use x="1499.777344" xlink:href="#DejaVuSans-116"/>
      <use x="1538.986328" xlink:href="#DejaVuSans-104"/>
      <use x="1602.365234" xlink:href="#DejaVuSans-32"/>
      <use x="1634.152344" xlink:href="#DejaVuSans-102"/>
      <use x="1669.357422" xlink:href="#DejaVuSans-97"/>
      <use x="1730.636719" xlink:href="#DejaVuSans-99"/>
      <use x="1785.617188" xlink:href="#DejaVuSans-116"/>
      <use x="1824.826172" xlink:href="#DejaVuSans-111"/>
      <use x="1886.007812" xlink:href="#DejaVuSans-114"/>
      <use x="1927.121094" xlink:href="#DejaVuSans-32"/>
     </g>
    </g>
    <g id="line2d_35">
     <path d="M 344.745313 128.242188 
L 364.745313 128.242188 
" style="fill:none;stroke:#348abd;stroke-linecap:square;stroke-opacity:0.7;stroke-width:3;"/>
    </g>
    <g id="line2d_36"/>
    <g id="text_19">
     <!-- Korea, South cases daily growth factor (rolling mean) -->
     <defs>
      <path d="M 52 44.1875 
Q 55.375 50.25 60.0625 53.125 
Q 64.75 56 71.09375 56 
Q 79.640625 56 84.28125 50.015625 
Q 88.921875 44.046875 88.921875 33.015625 
L 88.921875 0 
L 79.890625 0 
L 79.890625 32.71875 
Q 79.890625 40.578125 77.09375 44.375 
Q 74.3125 48.1875 68.609375 48.1875 
Q 61.625 48.1875 57.5625 43.546875 
Q 53.515625 38.921875 53.515625 30.90625 
L 53.515625 0 
L 44.484375 0 
L 44.484375 32.71875 
Q 44.484375 40.625 41.703125 44.40625 
Q 38.921875 48.1875 33.109375 48.1875 
Q 26.21875 48.1875 22.15625 43.53125 
Q 18.109375 38.875 18.109375 30.90625 
L 18.109375 0 
L 9.078125 0 
L 9.078125 54.6875 
L 18.109375 54.6875 
L 18.109375 46.1875 
Q 21.1875 51.21875 25.484375 53.609375 
Q 29.78125 56 35.6875 56 
Q 41.65625 56 45.828125 52.96875 
Q 50 49.953125 52 44.1875 
z
" id="DejaVuSans-109"/>
     </defs>
     <g transform="translate(372.745313 131.742188)scale(0.1 -0.1)">
      <use xlink:href="#DejaVuSans-75"/>
      <use x="60.576172" xlink:href="#DejaVuSans-111"/>
      <use x="121.757812" xlink:href="#DejaVuSans-114"/>
      <use x="160.621094" xlink:href="#DejaVuSans-101"/>
      <use x="222.144531" xlink:href="#DejaVuSans-97"/>
      <use x="283.423828" xlink:href="#DejaVuSans-44"/>
      <use x="315.210938" xlink:href="#DejaVuSans-32"/>
      <use x="346.998047" xlink:href="#DejaVuSans-83"/>
      <use x="410.474609" xlink:href="#DejaVuSans-111"/>
      <use x="471.65625" xlink:href="#DejaVuSans-117"/>
      <use x="535.035156" xlink:href="#DejaVuSans-116"/>
      <use x="574.244141" xlink:href="#DejaVuSans-104"/>
      <use x="637.623047" xlink:href="#DejaVuSans-32"/>
      <use x="669.410156" xlink:href="#DejaVuSans-99"/>
      <use x="724.390625" xlink:href="#DejaVuSans-97"/>
      <use x="785.669922" xlink:href="#DejaVuSans-115"/>
      <use x="837.769531" xlink:href="#DejaVuSans-101"/>
      <use x="899.292969" xlink:href="#DejaVuSans-115"/>
      <use x="951.392578" xlink:href="#DejaVuSans-32"/>
      <use x="983.179688" xlink:href="#DejaVuSans-100"/>
      <use x="1046.65625" xlink:href="#DejaVuSans-97"/>
      <use x="1107.935547" xlink:href="#DejaVuSans-105"/>
      <use x="1135.71875" xlink:href="#DejaVuSans-108"/>
      <use x="1163.501953" xlink:href="#DejaVuSans-121"/>
      <use x="1222.681641" xlink:href="#DejaVuSans-32"/>
      <use x="1254.46875" xlink:href="#DejaVuSans-103"/>
      <use x="1317.945312" xlink:href="#DejaVuSans-114"/>
      <use x="1356.808594" xlink:href="#DejaVuSans-111"/>
      <use x="1417.990234" xlink:href="#DejaVuSans-119"/>
      <use x="1499.777344" xlink:href="#DejaVuSans-116"/>
      <use x="1538.986328" xlink:href="#DejaVuSans-104"/>
      <use x="1602.365234" xlink:href="#DejaVuSans-32"/>
      <use x="1634.152344" xlink:href="#DejaVuSans-102"/>
      <use x="1669.357422" xlink:href="#DejaVuSans-97"/>
      <use x="1730.636719" xlink:href="#DejaVuSans-99"/>
      <use x="1785.617188" xlink:href="#DejaVuSans-116"/>
      <use x="1824.826172" xlink:href="#DejaVuSans-111"/>
      <use x="1886.007812" xlink:href="#DejaVuSans-114"/>
      <use x="1927.121094" xlink:href="#DejaVuSans-32"/>
      <use x="1958.908203" xlink:href="#DejaVuSans-40"/>
      <use x="1997.921875" xlink:href="#DejaVuSans-114"/>
      <use x="2036.785156" xlink:href="#DejaVuSans-111"/>
      <use x="2097.966797" xlink:href="#DejaVuSans-108"/>
      <use x="2125.75" xlink:href="#DejaVuSans-108"/>
      <use x="2153.533203" xlink:href="#DejaVuSans-105"/>
      <use x="2181.316406" xlink:href="#DejaVuSans-110"/>
      <use x="2244.695312" xlink:href="#DejaVuSans-103"/>
      <use x="2308.171875" xlink:href="#DejaVuSans-32"/>
      <use x="2339.958984" xlink:href="#DejaVuSans-109"/>
      <use x="2437.371094" xlink:href="#DejaVuSans-101"/>
      <use x="2498.894531" xlink:href="#DejaVuSans-97"/>
      <use x="2560.173828" xlink:href="#DejaVuSans-110"/>
      <use x="2623.552734" xlink:href="#DejaVuSans-41"/>
     </g>
    </g>
    <g id="line2d_37">
     <path d="M 344.745313 142.920312 
L 364.745313 142.920312 
" style="fill:none;stroke:#8eba42;stroke-linecap:square;stroke-width:4.5;"/>
    </g>
    <g id="line2d_38"/>
    <g id="text_20">
     <!-- Korea, South estimated R (using cases) -->
     <g transform="translate(372.745313 146.420312)scale(0.1 -0.1)">
      <use xlink:href="#DejaVuSans-75"/>
      <use x="60.576172" xlink:href="#DejaVuSans-111"/>
      <use x="121.757812" xlink:href="#DejaVuSans-114"/>
      <use x="160.621094" xlink:href="#DejaVuSans-101"/>
      <use x="222.144531" xlink:href="#DejaVuSans-97"/>
      <use x="283.423828" xlink:href="#DejaVuSans-44"/>
      <use x="315.210938" xlink:href="#DejaVuSans-32"/>
      <use x="346.998047" xlink:href="#DejaVuSans-83"/>
      <use x="410.474609" xlink:href="#DejaVuSans-111"/>
      <use x="471.65625" xlink:href="#DejaVuSans-117"/>
      <use x="535.035156" xlink:href="#DejaVuSans-116"/>
      <use x="574.244141" xlink:href="#DejaVuSans-104"/>
      <use x="637.623047" xlink:href="#DejaVuSans-32"/>
      <use x="669.410156" xlink:href="#DejaVuSans-101"/>
      <use x="730.933594" xlink:href="#DejaVuSans-115"/>
      <use x="783.033203" xlink:href="#DejaVuSans-116"/>
      <use x="822.242188" xlink:href="#DejaVuSans-105"/>
      <use x="850.025391" xlink:href="#DejaVuSans-109"/>
      <use x="947.4375" xlink:href="#DejaVuSans-97"/>
      <use x="1008.716797" xlink:href="#DejaVuSans-116"/>
      <use x="1047.925781" xlink:href="#DejaVuSans-101"/>
      <use x="1109.449219" xlink:href="#DejaVuSans-100"/>
      <use x="1172.925781" xlink:href="#DejaVuSans-32"/>
      <use x="1204.712891" xlink:href="#DejaVuSans-82"/>
      <use x="1274.195312" xlink:href="#DejaVuSans-32"/>
      <use x="1305.982422" xlink:href="#DejaVuSans-40"/>
      <use x="1344.996094" xlink:href="#DejaVuSans-117"/>
      <use x="1408.375" xlink:href="#DejaVuSans-115"/>
      <use x="1460.474609" xlink:href="#DejaVuSans-105"/>
      <use x="1488.257812" xlink:href="#DejaVuSans-110"/>
      <use x="1551.636719" xlink:href="#DejaVuSans-103"/>
      <use x="1615.113281" xlink:href="#DejaVuSans-32"/>
      <use x="1646.900391" xlink:href="#DejaVuSans-99"/>
      <use x="1701.880859" xlink:href="#DejaVuSans-97"/>
      <use x="1763.160156" xlink:href="#DejaVuSans-115"/>
      <use x="1815.259766" xlink:href="#DejaVuSans-101"/>
      <use x="1876.783203" xlink:href="#DejaVuSans-115"/>
      <use x="1928.882812" xlink:href="#DejaVuSans-41"/>
     </g>
    </g>
   </g>
  </g>
 </g>
 <defs>
  <clipPath id="ped5bbaca34">
   <rect height="135.9" width="558" x="90" y="21.6"/>
  </clipPath>
 </defs>
</svg>
