<?xml version="1.0" encoding="utf-8" standalone="no"?>
<!DOCTYPE svg PUBLIC "-//W3C//DTD SVG 1.1//EN"
  "http://www.w3.org/Graphics/SVG/1.1/DTD/svg11.dtd">
<!-- Created with matplotlib (https://matplotlib.org/) -->
<svg height="180pt" version="1.1" viewBox="0 0 720 180" width="720pt" xmlns="http://www.w3.org/2000/svg" xmlns:xlink="http://www.w3.org/1999/xlink">
 <defs>
  <style type="text/css">
*{stroke-linecap:butt;stroke-linejoin:round;}
  </style>
 </defs>
 <g id="figure_1">
  <g id="patch_1">
   <path d="M 0 180 
L 720 180 
L 720 0 
L 0 0 
z
" style="fill:#ffffff;"/>
  </g>
  <g id="axes_1">
   <g id="patch_2">
    <path d="M 90 157.5 
L 648 157.5 
L 648 21.6 
L 90 21.6 
z
" style="fill:#e5e5e5;"/>
   </g>
   <g id="matplotlib.axis_1">
    <g id="xtick_1">
     <g id="line2d_1">
      <path clip-path="url(#p153166f217)" d="M 139.869565 157.5 
L 139.869565 21.6 
" style="fill:none;stroke:#ffffff;stroke-linecap:square;stroke-width:0.8;"/>
     </g>
     <g id="line2d_2">
      <defs>
       <path d="M 0 0 
L 0 3.5 
" id="m0c92a9990e" style="stroke:#555555;stroke-width:0.8;"/>
      </defs>
      <g>
       <use style="fill:#555555;stroke:#555555;stroke-width:0.8;" x="139.869565" xlink:href="#m0c92a9990e" y="157.5"/>
      </g>
     </g>
     <g id="text_1">
      <!-- 2020-02 -->
      <defs>
       <path d="M 19.1875 8.296875 
L 53.609375 8.296875 
L 53.609375 0 
L 7.328125 0 
L 7.328125 8.296875 
Q 12.9375 14.109375 22.625 23.890625 
Q 32.328125 33.6875 34.8125 36.53125 
Q 39.546875 41.84375 41.421875 45.53125 
Q 43.3125 49.21875 43.3125 52.78125 
Q 43.3125 58.59375 39.234375 62.25 
Q 35.15625 65.921875 28.609375 65.921875 
Q 23.96875 65.921875 18.8125 64.3125 
Q 13.671875 62.703125 7.8125 59.421875 
L 7.8125 69.390625 
Q 13.765625 71.78125 18.9375 73 
Q 24.125 74.21875 28.421875 74.21875 
Q 39.75 74.21875 46.484375 68.546875 
Q 53.21875 62.890625 53.21875 53.421875 
Q 53.21875 48.921875 51.53125 44.890625 
Q 49.859375 40.875 45.40625 35.40625 
Q 44.1875 33.984375 37.640625 27.21875 
Q 31.109375 20.453125 19.1875 8.296875 
z
" id="DejaVuSans-50"/>
       <path d="M 31.78125 66.40625 
Q 24.171875 66.40625 20.328125 58.90625 
Q 16.5 51.421875 16.5 36.375 
Q 16.5 21.390625 20.328125 13.890625 
Q 24.171875 6.390625 31.78125 6.390625 
Q 39.453125 6.390625 43.28125 13.890625 
Q 47.125 21.390625 47.125 36.375 
Q 47.125 51.421875 43.28125 58.90625 
Q 39.453125 66.40625 31.78125 66.40625 
z
M 31.78125 74.21875 
Q 44.046875 74.21875 50.515625 64.515625 
Q 56.984375 54.828125 56.984375 36.375 
Q 56.984375 17.96875 50.515625 8.265625 
Q 44.046875 -1.421875 31.78125 -1.421875 
Q 19.53125 -1.421875 13.0625 8.265625 
Q 6.59375 17.96875 6.59375 36.375 
Q 6.59375 54.828125 13.0625 64.515625 
Q 19.53125 74.21875 31.78125 74.21875 
z
" id="DejaVuSans-48"/>
       <path d="M 4.890625 31.390625 
L 31.203125 31.390625 
L 31.203125 23.390625 
L 4.890625 23.390625 
z
" id="DejaVuSans-45"/>
      </defs>
      <g style="fill:#555555;" transform="translate(118.978159 172.098437)scale(0.1 -0.1)">
       <use xlink:href="#DejaVuSans-50"/>
       <use x="63.623047" xlink:href="#DejaVuSans-48"/>
       <use x="127.246094" xlink:href="#DejaVuSans-50"/>
       <use x="190.869141" xlink:href="#DejaVuSans-48"/>
       <use x="254.492188" xlink:href="#DejaVuSans-45"/>
       <use x="290.576172" xlink:href="#DejaVuSans-48"/>
       <use x="354.199219" xlink:href="#DejaVuSans-50"/>
      </g>
     </g>
    </g>
    <g id="xtick_2">
     <g id="line2d_3">
      <path clip-path="url(#p153166f217)" d="M 210.936759 157.5 
L 210.936759 21.6 
" style="fill:none;stroke:#ffffff;stroke-linecap:square;stroke-width:0.8;"/>
     </g>
     <g id="line2d_4">
      <g>
       <use style="fill:#555555;stroke:#555555;stroke-width:0.8;" x="210.936759" xlink:href="#m0c92a9990e" y="157.5"/>
      </g>
     </g>
     <g id="text_2">
      <!-- 2020-03 -->
      <defs>
       <path d="M 40.578125 39.3125 
Q 47.65625 37.796875 51.625 33 
Q 55.609375 28.21875 55.609375 21.1875 
Q 55.609375 10.40625 48.1875 4.484375 
Q 40.765625 -1.421875 27.09375 -1.421875 
Q 22.515625 -1.421875 17.65625 -0.515625 
Q 12.796875 0.390625 7.625 2.203125 
L 7.625 11.71875 
Q 11.71875 9.328125 16.59375 8.109375 
Q 21.484375 6.890625 26.8125 6.890625 
Q 36.078125 6.890625 40.9375 10.546875 
Q 45.796875 14.203125 45.796875 21.1875 
Q 45.796875 27.640625 41.28125 31.265625 
Q 36.765625 34.90625 28.71875 34.90625 
L 20.21875 34.90625 
L 20.21875 43.015625 
L 29.109375 43.015625 
Q 36.375 43.015625 40.234375 45.921875 
Q 44.09375 48.828125 44.09375 54.296875 
Q 44.09375 59.90625 40.109375 62.90625 
Q 36.140625 65.921875 28.71875 65.921875 
Q 24.65625 65.921875 20.015625 65.03125 
Q 15.375 64.15625 9.8125 62.3125 
L 9.8125 71.09375 
Q 15.4375 72.65625 20.34375 73.4375 
Q 25.25 74.21875 29.59375 74.21875 
Q 40.828125 74.21875 47.359375 69.109375 
Q 53.90625 64.015625 53.90625 55.328125 
Q 53.90625 49.265625 50.4375 45.09375 
Q 46.96875 40.921875 40.578125 39.3125 
z
" id="DejaVuSans-51"/>
      </defs>
      <g style="fill:#555555;" transform="translate(190.045353 172.098437)scale(0.1 -0.1)">
       <use xlink:href="#DejaVuSans-50"/>
       <use x="63.623047" xlink:href="#DejaVuSans-48"/>
       <use x="127.246094" xlink:href="#DejaVuSans-50"/>
       <use x="190.869141" xlink:href="#DejaVuSans-48"/>
       <use x="254.492188" xlink:href="#DejaVuSans-45"/>
       <use x="290.576172" xlink:href="#DejaVuSans-48"/>
       <use x="354.199219" xlink:href="#DejaVuSans-51"/>
      </g>
     </g>
    </g>
    <g id="xtick_3">
     <g id="line2d_5">
      <path clip-path="url(#p153166f217)" d="M 286.905138 157.5 
L 286.905138 21.6 
" style="fill:none;stroke:#ffffff;stroke-linecap:square;stroke-width:0.8;"/>
     </g>
     <g id="line2d_6">
      <g>
       <use style="fill:#555555;stroke:#555555;stroke-width:0.8;" x="286.905138" xlink:href="#m0c92a9990e" y="157.5"/>
      </g>
     </g>
     <g id="text_3">
      <!-- 2020-04 -->
      <defs>
       <path d="M 37.796875 64.3125 
L 12.890625 25.390625 
L 37.796875 25.390625 
z
M 35.203125 72.90625 
L 47.609375 72.90625 
L 47.609375 25.390625 
L 58.015625 25.390625 
L 58.015625 17.1875 
L 47.609375 17.1875 
L 47.609375 0 
L 37.796875 0 
L 37.796875 17.1875 
L 4.890625 17.1875 
L 4.890625 26.703125 
z
" id="DejaVuSans-52"/>
      </defs>
      <g style="fill:#555555;" transform="translate(266.013732 172.098437)scale(0.1 -0.1)">
       <use xlink:href="#DejaVuSans-50"/>
       <use x="63.623047" xlink:href="#DejaVuSans-48"/>
       <use x="127.246094" xlink:href="#DejaVuSans-50"/>
       <use x="190.869141" xlink:href="#DejaVuSans-48"/>
       <use x="254.492188" xlink:href="#DejaVuSans-45"/>
       <use x="290.576172" xlink:href="#DejaVuSans-48"/>
       <use x="354.199219" xlink:href="#DejaVuSans-52"/>
      </g>
     </g>
    </g>
    <g id="xtick_4">
     <g id="line2d_7">
      <path clip-path="url(#p153166f217)" d="M 360.422925 157.5 
L 360.422925 21.6 
" style="fill:none;stroke:#ffffff;stroke-linecap:square;stroke-width:0.8;"/>
     </g>
     <g id="line2d_8">
      <g>
       <use style="fill:#555555;stroke:#555555;stroke-width:0.8;" x="360.422925" xlink:href="#m0c92a9990e" y="157.5"/>
      </g>
     </g>
     <g id="text_4">
      <!-- 2020-05 -->
      <defs>
       <path d="M 10.796875 72.90625 
L 49.515625 72.90625 
L 49.515625 64.59375 
L 19.828125 64.59375 
L 19.828125 46.734375 
Q 21.96875 47.46875 24.109375 47.828125 
Q 26.265625 48.1875 28.421875 48.1875 
Q 40.625 48.1875 47.75 41.5 
Q 54.890625 34.8125 54.890625 23.390625 
Q 54.890625 11.625 47.5625 5.09375 
Q 40.234375 -1.421875 26.90625 -1.421875 
Q 22.3125 -1.421875 17.546875 -0.640625 
Q 12.796875 0.140625 7.71875 1.703125 
L 7.71875 11.625 
Q 12.109375 9.234375 16.796875 8.0625 
Q 21.484375 6.890625 26.703125 6.890625 
Q 35.15625 6.890625 40.078125 11.328125 
Q 45.015625 15.765625 45.015625 23.390625 
Q 45.015625 31 40.078125 35.4375 
Q 35.15625 39.890625 26.703125 39.890625 
Q 22.75 39.890625 18.8125 39.015625 
Q 14.890625 38.140625 10.796875 36.28125 
z
" id="DejaVuSans-53"/>
      </defs>
      <g style="fill:#555555;" transform="translate(339.531519 172.098437)scale(0.1 -0.1)">
       <use xlink:href="#DejaVuSans-50"/>
       <use x="63.623047" xlink:href="#DejaVuSans-48"/>
       <use x="127.246094" xlink:href="#DejaVuSans-50"/>
       <use x="190.869141" xlink:href="#DejaVuSans-48"/>
       <use x="254.492188" xlink:href="#DejaVuSans-45"/>
       <use x="290.576172" xlink:href="#DejaVuSans-48"/>
       <use x="354.199219" xlink:href="#DejaVuSans-53"/>
      </g>
     </g>
    </g>
    <g id="xtick_5">
     <g id="line2d_9">
      <path clip-path="url(#p153166f217)" d="M 436.391304 157.5 
L 436.391304 21.6 
" style="fill:none;stroke:#ffffff;stroke-linecap:square;stroke-width:0.8;"/>
     </g>
     <g id="line2d_10">
      <g>
       <use style="fill:#555555;stroke:#555555;stroke-width:0.8;" x="436.391304" xlink:href="#m0c92a9990e" y="157.5"/>
      </g>
     </g>
     <g id="text_5">
      <!-- 2020-06 -->
      <defs>
       <path d="M 33.015625 40.375 
Q 26.375 40.375 22.484375 35.828125 
Q 18.609375 31.296875 18.609375 23.390625 
Q 18.609375 15.53125 22.484375 10.953125 
Q 26.375 6.390625 33.015625 6.390625 
Q 39.65625 6.390625 43.53125 10.953125 
Q 47.40625 15.53125 47.40625 23.390625 
Q 47.40625 31.296875 43.53125 35.828125 
Q 39.65625 40.375 33.015625 40.375 
z
M 52.59375 71.296875 
L 52.59375 62.3125 
Q 48.875 64.0625 45.09375 64.984375 
Q 41.3125 65.921875 37.59375 65.921875 
Q 27.828125 65.921875 22.671875 59.328125 
Q 17.53125 52.734375 16.796875 39.40625 
Q 19.671875 43.65625 24.015625 45.921875 
Q 28.375 48.1875 33.59375 48.1875 
Q 44.578125 48.1875 50.953125 41.515625 
Q 57.328125 34.859375 57.328125 23.390625 
Q 57.328125 12.15625 50.6875 5.359375 
Q 44.046875 -1.421875 33.015625 -1.421875 
Q 20.359375 -1.421875 13.671875 8.265625 
Q 6.984375 17.96875 6.984375 36.375 
Q 6.984375 53.65625 15.1875 63.9375 
Q 23.390625 74.21875 37.203125 74.21875 
Q 40.921875 74.21875 44.703125 73.484375 
Q 48.484375 72.75 52.59375 71.296875 
z
" id="DejaVuSans-54"/>
      </defs>
      <g style="fill:#555555;" transform="translate(415.499898 172.098437)scale(0.1 -0.1)">
       <use xlink:href="#DejaVuSans-50"/>
       <use x="63.623047" xlink:href="#DejaVuSans-48"/>
       <use x="127.246094" xlink:href="#DejaVuSans-50"/>
       <use x="190.869141" xlink:href="#DejaVuSans-48"/>
       <use x="254.492188" xlink:href="#DejaVuSans-45"/>
       <use x="290.576172" xlink:href="#DejaVuSans-48"/>
       <use x="354.199219" xlink:href="#DejaVuSans-54"/>
      </g>
     </g>
    </g>
    <g id="xtick_6">
     <g id="line2d_11">
      <path clip-path="url(#p153166f217)" d="M 509.909091 157.5 
L 509.909091 21.6 
" style="fill:none;stroke:#ffffff;stroke-linecap:square;stroke-width:0.8;"/>
     </g>
     <g id="line2d_12">
      <g>
       <use style="fill:#555555;stroke:#555555;stroke-width:0.8;" x="509.909091" xlink:href="#m0c92a9990e" y="157.5"/>
      </g>
     </g>
     <g id="text_6">
      <!-- 2020-07 -->
      <defs>
       <path d="M 8.203125 72.90625 
L 55.078125 72.90625 
L 55.078125 68.703125 
L 28.609375 0 
L 18.3125 0 
L 43.21875 64.59375 
L 8.203125 64.59375 
z
" id="DejaVuSans-55"/>
      </defs>
      <g style="fill:#555555;" transform="translate(489.017685 172.098437)scale(0.1 -0.1)">
       <use xlink:href="#DejaVuSans-50"/>
       <use x="63.623047" xlink:href="#DejaVuSans-48"/>
       <use x="127.246094" xlink:href="#DejaVuSans-50"/>
       <use x="190.869141" xlink:href="#DejaVuSans-48"/>
       <use x="254.492188" xlink:href="#DejaVuSans-45"/>
       <use x="290.576172" xlink:href="#DejaVuSans-48"/>
       <use x="354.199219" xlink:href="#DejaVuSans-55"/>
      </g>
     </g>
    </g>
    <g id="xtick_7">
     <g id="line2d_13">
      <path clip-path="url(#p153166f217)" d="M 585.87747 157.5 
L 585.87747 21.6 
" style="fill:none;stroke:#ffffff;stroke-linecap:square;stroke-width:0.8;"/>
     </g>
     <g id="line2d_14">
      <g>
       <use style="fill:#555555;stroke:#555555;stroke-width:0.8;" x="585.87747" xlink:href="#m0c92a9990e" y="157.5"/>
      </g>
     </g>
     <g id="text_7">
      <!-- 2020-08 -->
      <defs>
       <path d="M 31.78125 34.625 
Q 24.75 34.625 20.71875 30.859375 
Q 16.703125 27.09375 16.703125 20.515625 
Q 16.703125 13.921875 20.71875 10.15625 
Q 24.75 6.390625 31.78125 6.390625 
Q 38.8125 6.390625 42.859375 10.171875 
Q 46.921875 13.96875 46.921875 20.515625 
Q 46.921875 27.09375 42.890625 30.859375 
Q 38.875 34.625 31.78125 34.625 
z
M 21.921875 38.8125 
Q 15.578125 40.375 12.03125 44.71875 
Q 8.5 49.078125 8.5 55.328125 
Q 8.5 64.0625 14.71875 69.140625 
Q 20.953125 74.21875 31.78125 74.21875 
Q 42.671875 74.21875 48.875 69.140625 
Q 55.078125 64.0625 55.078125 55.328125 
Q 55.078125 49.078125 51.53125 44.71875 
Q 48 40.375 41.703125 38.8125 
Q 48.828125 37.15625 52.796875 32.3125 
Q 56.78125 27.484375 56.78125 20.515625 
Q 56.78125 9.90625 50.3125 4.234375 
Q 43.84375 -1.421875 31.78125 -1.421875 
Q 19.734375 -1.421875 13.25 4.234375 
Q 6.78125 9.90625 6.78125 20.515625 
Q 6.78125 27.484375 10.78125 32.3125 
Q 14.796875 37.15625 21.921875 38.8125 
z
M 18.3125 54.390625 
Q 18.3125 48.734375 21.84375 45.5625 
Q 25.390625 42.390625 31.78125 42.390625 
Q 38.140625 42.390625 41.71875 45.5625 
Q 45.3125 48.734375 45.3125 54.390625 
Q 45.3125 60.0625 41.71875 63.234375 
Q 38.140625 66.40625 31.78125 66.40625 
Q 25.390625 66.40625 21.84375 63.234375 
Q 18.3125 60.0625 18.3125 54.390625 
z
" id="DejaVuSans-56"/>
      </defs>
      <g style="fill:#555555;" transform="translate(564.986064 172.098437)scale(0.1 -0.1)">
       <use xlink:href="#DejaVuSans-50"/>
       <use x="63.623047" xlink:href="#DejaVuSans-48"/>
       <use x="127.246094" xlink:href="#DejaVuSans-50"/>
       <use x="190.869141" xlink:href="#DejaVuSans-48"/>
       <use x="254.492188" xlink:href="#DejaVuSans-45"/>
       <use x="290.576172" xlink:href="#DejaVuSans-48"/>
       <use x="354.199219" xlink:href="#DejaVuSans-56"/>
      </g>
     </g>
    </g>
   </g>
   <g id="matplotlib.axis_2">
    <g id="ytick_1">
     <g id="line2d_15">
      <path clip-path="url(#p153166f217)" d="M 90 151.322727 
L 648 151.322727 
" style="fill:none;stroke:#ffffff;stroke-linecap:square;stroke-width:0.8;"/>
     </g>
     <g id="line2d_16">
      <defs>
       <path d="M 0 0 
L -3.5 0 
" id="ma0cf244449" style="stroke:#555555;stroke-width:0.8;"/>
      </defs>
      <g>
       <use style="fill:#555555;stroke:#555555;stroke-width:0.8;" x="90" xlink:href="#ma0cf244449" y="151.322727"/>
      </g>
     </g>
     <g id="line2d_17">
      <defs>
       <path d="M 0 0 
L 3.5 0 
" id="m46553b3ee7" style="stroke:#555555;stroke-width:0.8;"/>
      </defs>
      <g>
       <use style="fill:#555555;stroke:#555555;stroke-width:0.8;" x="648" xlink:href="#m46553b3ee7" y="151.322727"/>
      </g>
     </g>
     <g id="text_8">
      <!-- 1 -->
      <defs>
       <path d="M 12.40625 8.296875 
L 28.515625 8.296875 
L 28.515625 63.921875 
L 10.984375 60.40625 
L 10.984375 69.390625 
L 28.421875 72.90625 
L 38.28125 72.90625 
L 38.28125 8.296875 
L 54.390625 8.296875 
L 54.390625 0 
L 12.40625 0 
z
" id="DejaVuSans-49"/>
      </defs>
      <g style="fill:#555555;" transform="translate(76.6375 155.121946)scale(0.1 -0.1)">
       <use xlink:href="#DejaVuSans-49"/>
      </g>
     </g>
     <g id="text_9">
      <!-- 1 -->
      <g style="fill:#555555;" transform="translate(655 155.121946)scale(0.1 -0.1)">
       <use xlink:href="#DejaVuSans-49"/>
      </g>
     </g>
    </g>
    <g id="ytick_2">
     <g id="line2d_18">
      <path clip-path="url(#p153166f217)" d="M 90 121.842228 
L 648 121.842228 
" style="fill:none;stroke:#ffffff;stroke-linecap:square;stroke-width:0.8;"/>
     </g>
     <g id="line2d_19">
      <g>
       <use style="fill:#555555;stroke:#555555;stroke-width:0.8;" x="90" xlink:href="#ma0cf244449" y="121.842228"/>
      </g>
     </g>
     <g id="line2d_20">
      <g>
       <use style="fill:#555555;stroke:#555555;stroke-width:0.8;" x="648" xlink:href="#m46553b3ee7" y="121.842228"/>
      </g>
     </g>
     <g id="text_10">
      <!-- 10 -->
      <g style="fill:#555555;" transform="translate(70.275 125.641447)scale(0.1 -0.1)">
       <use xlink:href="#DejaVuSans-49"/>
       <use x="63.623047" xlink:href="#DejaVuSans-48"/>
      </g>
     </g>
     <g id="text_11">
      <!-- 10 -->
      <g style="fill:#555555;" transform="translate(655 125.641447)scale(0.1 -0.1)">
       <use xlink:href="#DejaVuSans-49"/>
       <use x="63.623047" xlink:href="#DejaVuSans-48"/>
      </g>
     </g>
    </g>
    <g id="ytick_3">
     <g id="line2d_21">
      <path clip-path="url(#p153166f217)" d="M 90 92.361729 
L 648 92.361729 
" style="fill:none;stroke:#ffffff;stroke-linecap:square;stroke-width:0.8;"/>
     </g>
     <g id="line2d_22">
      <g>
       <use style="fill:#555555;stroke:#555555;stroke-width:0.8;" x="90" xlink:href="#ma0cf244449" y="92.361729"/>
      </g>
     </g>
     <g id="line2d_23">
      <g>
       <use style="fill:#555555;stroke:#555555;stroke-width:0.8;" x="648" xlink:href="#m46553b3ee7" y="92.361729"/>
      </g>
     </g>
     <g id="text_12">
      <!-- 100 -->
      <g style="fill:#555555;" transform="translate(63.9125 96.160948)scale(0.1 -0.1)">
       <use xlink:href="#DejaVuSans-49"/>
       <use x="63.623047" xlink:href="#DejaVuSans-48"/>
       <use x="127.246094" xlink:href="#DejaVuSans-48"/>
      </g>
     </g>
     <g id="text_13">
      <!-- 100 -->
      <g style="fill:#555555;" transform="translate(655 96.160948)scale(0.1 -0.1)">
       <use xlink:href="#DejaVuSans-49"/>
       <use x="63.623047" xlink:href="#DejaVuSans-48"/>
       <use x="127.246094" xlink:href="#DejaVuSans-48"/>
      </g>
     </g>
    </g>
    <g id="ytick_4">
     <g id="line2d_24">
      <path clip-path="url(#p153166f217)" d="M 90 62.88123 
L 648 62.88123 
" style="fill:none;stroke:#ffffff;stroke-linecap:square;stroke-width:0.8;"/>
     </g>
     <g id="line2d_25">
      <g>
       <use style="fill:#555555;stroke:#555555;stroke-width:0.8;" x="90" xlink:href="#ma0cf244449" y="62.88123"/>
      </g>
     </g>
     <g id="line2d_26">
      <g>
       <use style="fill:#555555;stroke:#555555;stroke-width:0.8;" x="648" xlink:href="#m46553b3ee7" y="62.88123"/>
      </g>
     </g>
     <g id="text_14">
      <!-- 1000 -->
      <g style="fill:#555555;" transform="translate(57.55 66.680448)scale(0.1 -0.1)">
       <use xlink:href="#DejaVuSans-49"/>
       <use x="63.623047" xlink:href="#DejaVuSans-48"/>
       <use x="127.246094" xlink:href="#DejaVuSans-48"/>
       <use x="190.869141" xlink:href="#DejaVuSans-48"/>
      </g>
     </g>
     <g id="text_15">
      <!-- 1000 -->
      <g style="fill:#555555;" transform="translate(655 66.680448)scale(0.1 -0.1)">
       <use xlink:href="#DejaVuSans-49"/>
       <use x="63.623047" xlink:href="#DejaVuSans-48"/>
       <use x="127.246094" xlink:href="#DejaVuSans-48"/>
       <use x="190.869141" xlink:href="#DejaVuSans-48"/>
      </g>
     </g>
    </g>
    <g id="ytick_5">
     <g id="line2d_27">
      <path clip-path="url(#p153166f217)" d="M 90 33.40073 
L 648 33.40073 
" style="fill:none;stroke:#ffffff;stroke-linecap:square;stroke-width:0.8;"/>
     </g>
     <g id="line2d_28">
      <g>
       <use style="fill:#555555;stroke:#555555;stroke-width:0.8;" x="90" xlink:href="#ma0cf244449" y="33.40073"/>
      </g>
     </g>
     <g id="line2d_29">
      <g>
       <use style="fill:#555555;stroke:#555555;stroke-width:0.8;" x="648" xlink:href="#m46553b3ee7" y="33.40073"/>
      </g>
     </g>
     <g id="text_16">
      <!-- 10000 -->
      <g style="fill:#555555;" transform="translate(51.1875 37.199949)scale(0.1 -0.1)">
       <use xlink:href="#DejaVuSans-49"/>
       <use x="63.623047" xlink:href="#DejaVuSans-48"/>
       <use x="127.246094" xlink:href="#DejaVuSans-48"/>
       <use x="190.869141" xlink:href="#DejaVuSans-48"/>
       <use x="254.492188" xlink:href="#DejaVuSans-48"/>
      </g>
     </g>
     <g id="text_17">
      <!-- 10000 -->
      <g style="fill:#555555;" transform="translate(655 37.199949)scale(0.1 -0.1)">
       <use xlink:href="#DejaVuSans-49"/>
       <use x="63.623047" xlink:href="#DejaVuSans-48"/>
       <use x="127.246094" xlink:href="#DejaVuSans-48"/>
       <use x="190.869141" xlink:href="#DejaVuSans-48"/>
       <use x="254.492188" xlink:href="#DejaVuSans-48"/>
      </g>
     </g>
    </g>
    <g id="ytick_6">
     <g id="line2d_30">
      <defs>
       <path d="M 0 0 
L -2 0 
" id="mad21a112ea" style="stroke:#555555;stroke-width:0.6;"/>
      </defs>
      <g>
       <use style="fill:#555555;stroke:#555555;stroke-width:0.6;" x="90" xlink:href="#mad21a112ea" y="155.889314"/>
      </g>
     </g>
     <g id="line2d_31">
      <defs>
       <path d="M 0 0 
L 2 0 
" id="m9b6b751e23" style="stroke:#555555;stroke-width:0.6;"/>
      </defs>
      <g>
       <use style="fill:#555555;stroke:#555555;stroke-width:0.6;" x="648" xlink:href="#m9b6b751e23" y="155.889314"/>
      </g>
     </g>
    </g>
    <g id="ytick_7">
     <g id="line2d_32">
      <g>
       <use style="fill:#555555;stroke:#555555;stroke-width:0.6;" x="90" xlink:href="#mad21a112ea" y="154.179683"/>
      </g>
     </g>
     <g id="line2d_33">
      <g>
       <use style="fill:#555555;stroke:#555555;stroke-width:0.6;" x="648" xlink:href="#m9b6b751e23" y="154.179683"/>
      </g>
     </g>
    </g>
    <g id="ytick_8">
     <g id="line2d_34">
      <g>
       <use style="fill:#555555;stroke:#555555;stroke-width:0.6;" x="90" xlink:href="#mad21a112ea" y="152.671681"/>
      </g>
     </g>
     <g id="line2d_35">
      <g>
       <use style="fill:#555555;stroke:#555555;stroke-width:0.6;" x="648" xlink:href="#m9b6b751e23" y="152.671681"/>
      </g>
     </g>
    </g>
    <g id="ytick_9">
     <g id="line2d_36">
      <g>
       <use style="fill:#555555;stroke:#555555;stroke-width:0.6;" x="90" xlink:href="#mad21a112ea" y="142.448213"/>
      </g>
     </g>
     <g id="line2d_37">
      <g>
       <use style="fill:#555555;stroke:#555555;stroke-width:0.6;" x="648" xlink:href="#m9b6b751e23" y="142.448213"/>
      </g>
     </g>
    </g>
    <g id="ytick_10">
     <g id="line2d_38">
      <g>
       <use style="fill:#555555;stroke:#555555;stroke-width:0.6;" x="90" xlink:href="#mad21a112ea" y="137.256954"/>
      </g>
     </g>
     <g id="line2d_39">
      <g>
       <use style="fill:#555555;stroke:#555555;stroke-width:0.6;" x="648" xlink:href="#m9b6b751e23" y="137.256954"/>
      </g>
     </g>
    </g>
    <g id="ytick_11">
     <g id="line2d_40">
      <g>
       <use style="fill:#555555;stroke:#555555;stroke-width:0.6;" x="90" xlink:href="#mad21a112ea" y="133.573698"/>
      </g>
     </g>
     <g id="line2d_41">
      <g>
       <use style="fill:#555555;stroke:#555555;stroke-width:0.6;" x="648" xlink:href="#m9b6b751e23" y="133.573698"/>
      </g>
     </g>
    </g>
    <g id="ytick_12">
     <g id="line2d_42">
      <g>
       <use style="fill:#555555;stroke:#555555;stroke-width:0.6;" x="90" xlink:href="#mad21a112ea" y="130.716743"/>
      </g>
     </g>
     <g id="line2d_43">
      <g>
       <use style="fill:#555555;stroke:#555555;stroke-width:0.6;" x="648" xlink:href="#m9b6b751e23" y="130.716743"/>
      </g>
     </g>
    </g>
    <g id="ytick_13">
     <g id="line2d_44">
      <g>
       <use style="fill:#555555;stroke:#555555;stroke-width:0.6;" x="90" xlink:href="#mad21a112ea" y="128.38244"/>
      </g>
     </g>
     <g id="line2d_45">
      <g>
       <use style="fill:#555555;stroke:#555555;stroke-width:0.6;" x="648" xlink:href="#m9b6b751e23" y="128.38244"/>
      </g>
     </g>
    </g>
    <g id="ytick_14">
     <g id="line2d_46">
      <g>
       <use style="fill:#555555;stroke:#555555;stroke-width:0.6;" x="90" xlink:href="#mad21a112ea" y="126.408815"/>
      </g>
     </g>
     <g id="line2d_47">
      <g>
       <use style="fill:#555555;stroke:#555555;stroke-width:0.6;" x="648" xlink:href="#m9b6b751e23" y="126.408815"/>
      </g>
     </g>
    </g>
    <g id="ytick_15">
     <g id="line2d_48">
      <g>
       <use style="fill:#555555;stroke:#555555;stroke-width:0.6;" x="90" xlink:href="#mad21a112ea" y="124.699184"/>
      </g>
     </g>
     <g id="line2d_49">
      <g>
       <use style="fill:#555555;stroke:#555555;stroke-width:0.6;" x="648" xlink:href="#m9b6b751e23" y="124.699184"/>
      </g>
     </g>
    </g>
    <g id="ytick_16">
     <g id="line2d_50">
      <g>
       <use style="fill:#555555;stroke:#555555;stroke-width:0.6;" x="90" xlink:href="#mad21a112ea" y="123.191182"/>
      </g>
     </g>
     <g id="line2d_51">
      <g>
       <use style="fill:#555555;stroke:#555555;stroke-width:0.6;" x="648" xlink:href="#m9b6b751e23" y="123.191182"/>
      </g>
     </g>
    </g>
    <g id="ytick_17">
     <g id="line2d_52">
      <g>
       <use style="fill:#555555;stroke:#555555;stroke-width:0.6;" x="90" xlink:href="#mad21a112ea" y="112.967714"/>
      </g>
     </g>
     <g id="line2d_53">
      <g>
       <use style="fill:#555555;stroke:#555555;stroke-width:0.6;" x="648" xlink:href="#m9b6b751e23" y="112.967714"/>
      </g>
     </g>
    </g>
    <g id="ytick_18">
     <g id="line2d_54">
      <g>
       <use style="fill:#555555;stroke:#555555;stroke-width:0.6;" x="90" xlink:href="#mad21a112ea" y="107.776455"/>
      </g>
     </g>
     <g id="line2d_55">
      <g>
       <use style="fill:#555555;stroke:#555555;stroke-width:0.6;" x="648" xlink:href="#m9b6b751e23" y="107.776455"/>
      </g>
     </g>
    </g>
    <g id="ytick_19">
     <g id="line2d_56">
      <g>
       <use style="fill:#555555;stroke:#555555;stroke-width:0.6;" x="90" xlink:href="#mad21a112ea" y="104.093199"/>
      </g>
     </g>
     <g id="line2d_57">
      <g>
       <use style="fill:#555555;stroke:#555555;stroke-width:0.6;" x="648" xlink:href="#m9b6b751e23" y="104.093199"/>
      </g>
     </g>
    </g>
    <g id="ytick_20">
     <g id="line2d_58">
      <g>
       <use style="fill:#555555;stroke:#555555;stroke-width:0.6;" x="90" xlink:href="#mad21a112ea" y="101.236243"/>
      </g>
     </g>
     <g id="line2d_59">
      <g>
       <use style="fill:#555555;stroke:#555555;stroke-width:0.6;" x="648" xlink:href="#m9b6b751e23" y="101.236243"/>
      </g>
     </g>
    </g>
    <g id="ytick_21">
     <g id="line2d_60">
      <g>
       <use style="fill:#555555;stroke:#555555;stroke-width:0.6;" x="90" xlink:href="#mad21a112ea" y="98.901941"/>
      </g>
     </g>
     <g id="line2d_61">
      <g>
       <use style="fill:#555555;stroke:#555555;stroke-width:0.6;" x="648" xlink:href="#m9b6b751e23" y="98.901941"/>
      </g>
     </g>
    </g>
    <g id="ytick_22">
     <g id="line2d_62">
      <g>
       <use style="fill:#555555;stroke:#555555;stroke-width:0.6;" x="90" xlink:href="#mad21a112ea" y="96.928316"/>
      </g>
     </g>
     <g id="line2d_63">
      <g>
       <use style="fill:#555555;stroke:#555555;stroke-width:0.6;" x="648" xlink:href="#m9b6b751e23" y="96.928316"/>
      </g>
     </g>
    </g>
    <g id="ytick_23">
     <g id="line2d_64">
      <g>
       <use style="fill:#555555;stroke:#555555;stroke-width:0.6;" x="90" xlink:href="#mad21a112ea" y="95.218684"/>
      </g>
     </g>
     <g id="line2d_65">
      <g>
       <use style="fill:#555555;stroke:#555555;stroke-width:0.6;" x="648" xlink:href="#m9b6b751e23" y="95.218684"/>
      </g>
     </g>
    </g>
    <g id="ytick_24">
     <g id="line2d_66">
      <g>
       <use style="fill:#555555;stroke:#555555;stroke-width:0.6;" x="90" xlink:href="#mad21a112ea" y="93.710683"/>
      </g>
     </g>
     <g id="line2d_67">
      <g>
       <use style="fill:#555555;stroke:#555555;stroke-width:0.6;" x="648" xlink:href="#m9b6b751e23" y="93.710683"/>
      </g>
     </g>
    </g>
    <g id="ytick_25">
     <g id="line2d_68">
      <g>
       <use style="fill:#555555;stroke:#555555;stroke-width:0.6;" x="90" xlink:href="#mad21a112ea" y="83.487214"/>
      </g>
     </g>
     <g id="line2d_69">
      <g>
       <use style="fill:#555555;stroke:#555555;stroke-width:0.6;" x="648" xlink:href="#m9b6b751e23" y="83.487214"/>
      </g>
     </g>
    </g>
    <g id="ytick_26">
     <g id="line2d_70">
      <g>
       <use style="fill:#555555;stroke:#555555;stroke-width:0.6;" x="90" xlink:href="#mad21a112ea" y="78.295956"/>
      </g>
     </g>
     <g id="line2d_71">
      <g>
       <use style="fill:#555555;stroke:#555555;stroke-width:0.6;" x="648" xlink:href="#m9b6b751e23" y="78.295956"/>
      </g>
     </g>
    </g>
    <g id="ytick_27">
     <g id="line2d_72">
      <g>
       <use style="fill:#555555;stroke:#555555;stroke-width:0.6;" x="90" xlink:href="#mad21a112ea" y="74.6127"/>
      </g>
     </g>
     <g id="line2d_73">
      <g>
       <use style="fill:#555555;stroke:#555555;stroke-width:0.6;" x="648" xlink:href="#m9b6b751e23" y="74.6127"/>
      </g>
     </g>
    </g>
    <g id="ytick_28">
     <g id="line2d_74">
      <g>
       <use style="fill:#555555;stroke:#555555;stroke-width:0.6;" x="90" xlink:href="#mad21a112ea" y="71.755744"/>
      </g>
     </g>
     <g id="line2d_75">
      <g>
       <use style="fill:#555555;stroke:#555555;stroke-width:0.6;" x="648" xlink:href="#m9b6b751e23" y="71.755744"/>
      </g>
     </g>
    </g>
    <g id="ytick_29">
     <g id="line2d_76">
      <g>
       <use style="fill:#555555;stroke:#555555;stroke-width:0.6;" x="90" xlink:href="#mad21a112ea" y="69.421442"/>
      </g>
     </g>
     <g id="line2d_77">
      <g>
       <use style="fill:#555555;stroke:#555555;stroke-width:0.6;" x="648" xlink:href="#m9b6b751e23" y="69.421442"/>
      </g>
     </g>
    </g>
    <g id="ytick_30">
     <g id="line2d_78">
      <g>
       <use style="fill:#555555;stroke:#555555;stroke-width:0.6;" x="90" xlink:href="#mad21a112ea" y="67.447817"/>
      </g>
     </g>
     <g id="line2d_79">
      <g>
       <use style="fill:#555555;stroke:#555555;stroke-width:0.6;" x="648" xlink:href="#m9b6b751e23" y="67.447817"/>
      </g>
     </g>
    </g>
    <g id="ytick_31">
     <g id="line2d_80">
      <g>
       <use style="fill:#555555;stroke:#555555;stroke-width:0.6;" x="90" xlink:href="#mad21a112ea" y="65.738185"/>
      </g>
     </g>
     <g id="line2d_81">
      <g>
       <use style="fill:#555555;stroke:#555555;stroke-width:0.6;" x="648" xlink:href="#m9b6b751e23" y="65.738185"/>
      </g>
     </g>
    </g>
    <g id="ytick_32">
     <g id="line2d_82">
      <g>
       <use style="fill:#555555;stroke:#555555;stroke-width:0.6;" x="90" xlink:href="#mad21a112ea" y="64.230183"/>
      </g>
     </g>
     <g id="line2d_83">
      <g>
       <use style="fill:#555555;stroke:#555555;stroke-width:0.6;" x="648" xlink:href="#m9b6b751e23" y="64.230183"/>
      </g>
     </g>
    </g>
    <g id="ytick_33">
     <g id="line2d_84">
      <g>
       <use style="fill:#555555;stroke:#555555;stroke-width:0.6;" x="90" xlink:href="#mad21a112ea" y="54.006715"/>
      </g>
     </g>
     <g id="line2d_85">
      <g>
       <use style="fill:#555555;stroke:#555555;stroke-width:0.6;" x="648" xlink:href="#m9b6b751e23" y="54.006715"/>
      </g>
     </g>
    </g>
    <g id="ytick_34">
     <g id="line2d_86">
      <g>
       <use style="fill:#555555;stroke:#555555;stroke-width:0.6;" x="90" xlink:href="#mad21a112ea" y="48.815457"/>
      </g>
     </g>
     <g id="line2d_87">
      <g>
       <use style="fill:#555555;stroke:#555555;stroke-width:0.6;" x="648" xlink:href="#m9b6b751e23" y="48.815457"/>
      </g>
     </g>
    </g>
    <g id="ytick_35">
     <g id="line2d_88">
      <g>
       <use style="fill:#555555;stroke:#555555;stroke-width:0.6;" x="90" xlink:href="#mad21a112ea" y="45.132201"/>
      </g>
     </g>
     <g id="line2d_89">
      <g>
       <use style="fill:#555555;stroke:#555555;stroke-width:0.6;" x="648" xlink:href="#m9b6b751e23" y="45.132201"/>
      </g>
     </g>
    </g>
    <g id="ytick_36">
     <g id="line2d_90">
      <g>
       <use style="fill:#555555;stroke:#555555;stroke-width:0.6;" x="90" xlink:href="#mad21a112ea" y="42.275245"/>
      </g>
     </g>
     <g id="line2d_91">
      <g>
       <use style="fill:#555555;stroke:#555555;stroke-width:0.6;" x="648" xlink:href="#m9b6b751e23" y="42.275245"/>
      </g>
     </g>
    </g>
    <g id="ytick_37">
     <g id="line2d_92">
      <g>
       <use style="fill:#555555;stroke:#555555;stroke-width:0.6;" x="90" xlink:href="#mad21a112ea" y="39.940942"/>
      </g>
     </g>
     <g id="line2d_93">
      <g>
       <use style="fill:#555555;stroke:#555555;stroke-width:0.6;" x="648" xlink:href="#m9b6b751e23" y="39.940942"/>
      </g>
     </g>
    </g>
    <g id="ytick_38">
     <g id="line2d_94">
      <g>
       <use style="fill:#555555;stroke:#555555;stroke-width:0.6;" x="90" xlink:href="#mad21a112ea" y="37.967318"/>
      </g>
     </g>
     <g id="line2d_95">
      <g>
       <use style="fill:#555555;stroke:#555555;stroke-width:0.6;" x="648" xlink:href="#m9b6b751e23" y="37.967318"/>
      </g>
     </g>
    </g>
    <g id="ytick_39">
     <g id="line2d_96">
      <g>
       <use style="fill:#555555;stroke:#555555;stroke-width:0.6;" x="90" xlink:href="#mad21a112ea" y="36.257686"/>
      </g>
     </g>
     <g id="line2d_97">
      <g>
       <use style="fill:#555555;stroke:#555555;stroke-width:0.6;" x="648" xlink:href="#m9b6b751e23" y="36.257686"/>
      </g>
     </g>
    </g>
    <g id="ytick_40">
     <g id="line2d_98">
      <g>
       <use style="fill:#555555;stroke:#555555;stroke-width:0.6;" x="90" xlink:href="#mad21a112ea" y="34.749684"/>
      </g>
     </g>
     <g id="line2d_99">
      <g>
       <use style="fill:#555555;stroke:#555555;stroke-width:0.6;" x="648" xlink:href="#m9b6b751e23" y="34.749684"/>
      </g>
     </g>
    </g>
    <g id="ytick_41">
     <g id="line2d_100">
      <g>
       <use style="fill:#555555;stroke:#555555;stroke-width:0.6;" x="90" xlink:href="#mad21a112ea" y="24.526216"/>
      </g>
     </g>
     <g id="line2d_101">
      <g>
       <use style="fill:#555555;stroke:#555555;stroke-width:0.6;" x="648" xlink:href="#m9b6b751e23" y="24.526216"/>
      </g>
     </g>
    </g>
    <g id="text_18">
     <!-- total numbers -->
     <defs>
      <path d="M 18.3125 70.21875 
L 18.3125 54.6875 
L 36.8125 54.6875 
L 36.8125 47.703125 
L 18.3125 47.703125 
L 18.3125 18.015625 
Q 18.3125 11.328125 20.140625 9.421875 
Q 21.96875 7.515625 27.59375 7.515625 
L 36.8125 7.515625 
L 36.8125 0 
L 27.59375 0 
Q 17.1875 0 13.234375 3.875 
Q 9.28125 7.765625 9.28125 18.015625 
L 9.28125 47.703125 
L 2.6875 47.703125 
L 2.6875 54.6875 
L 9.28125 54.6875 
L 9.28125 70.21875 
z
" id="DejaVuSans-116"/>
      <path d="M 30.609375 48.390625 
Q 23.390625 48.390625 19.1875 42.75 
Q 14.984375 37.109375 14.984375 27.296875 
Q 14.984375 17.484375 19.15625 11.84375 
Q 23.34375 6.203125 30.609375 6.203125 
Q 37.796875 6.203125 41.984375 11.859375 
Q 46.1875 17.53125 46.1875 27.296875 
Q 46.1875 37.015625 41.984375 42.703125 
Q 37.796875 48.390625 30.609375 48.390625 
z
M 30.609375 56 
Q 42.328125 56 49.015625 48.375 
Q 55.71875 40.765625 55.71875 27.296875 
Q 55.71875 13.875 49.015625 6.21875 
Q 42.328125 -1.421875 30.609375 -1.421875 
Q 18.84375 -1.421875 12.171875 6.21875 
Q 5.515625 13.875 5.515625 27.296875 
Q 5.515625 40.765625 12.171875 48.375 
Q 18.84375 56 30.609375 56 
z
" id="DejaVuSans-111"/>
      <path d="M 34.28125 27.484375 
Q 23.390625 27.484375 19.1875 25 
Q 14.984375 22.515625 14.984375 16.5 
Q 14.984375 11.71875 18.140625 8.90625 
Q 21.296875 6.109375 26.703125 6.109375 
Q 34.1875 6.109375 38.703125 11.40625 
Q 43.21875 16.703125 43.21875 25.484375 
L 43.21875 27.484375 
z
M 52.203125 31.203125 
L 52.203125 0 
L 43.21875 0 
L 43.21875 8.296875 
Q 40.140625 3.328125 35.546875 0.953125 
Q 30.953125 -1.421875 24.3125 -1.421875 
Q 15.921875 -1.421875 10.953125 3.296875 
Q 6 8.015625 6 15.921875 
Q 6 25.140625 12.171875 29.828125 
Q 18.359375 34.515625 30.609375 34.515625 
L 43.21875 34.515625 
L 43.21875 35.40625 
Q 43.21875 41.609375 39.140625 45 
Q 35.0625 48.390625 27.6875 48.390625 
Q 23 48.390625 18.546875 47.265625 
Q 14.109375 46.140625 10.015625 43.890625 
L 10.015625 52.203125 
Q 14.9375 54.109375 19.578125 55.046875 
Q 24.21875 56 28.609375 56 
Q 40.484375 56 46.34375 49.84375 
Q 52.203125 43.703125 52.203125 31.203125 
z
" id="DejaVuSans-97"/>
      <path d="M 9.421875 75.984375 
L 18.40625 75.984375 
L 18.40625 0 
L 9.421875 0 
z
" id="DejaVuSans-108"/>
      <path id="DejaVuSans-32"/>
      <path d="M 54.890625 33.015625 
L 54.890625 0 
L 45.90625 0 
L 45.90625 32.71875 
Q 45.90625 40.484375 42.875 44.328125 
Q 39.84375 48.1875 33.796875 48.1875 
Q 26.515625 48.1875 22.3125 43.546875 
Q 18.109375 38.921875 18.109375 30.90625 
L 18.109375 0 
L 9.078125 0 
L 9.078125 54.6875 
L 18.109375 54.6875 
L 18.109375 46.1875 
Q 21.34375 51.125 25.703125 53.5625 
Q 30.078125 56 35.796875 56 
Q 45.21875 56 50.046875 50.171875 
Q 54.890625 44.34375 54.890625 33.015625 
z
" id="DejaVuSans-110"/>
      <path d="M 8.5 21.578125 
L 8.5 54.6875 
L 17.484375 54.6875 
L 17.484375 21.921875 
Q 17.484375 14.15625 20.5 10.265625 
Q 23.53125 6.390625 29.59375 6.390625 
Q 36.859375 6.390625 41.078125 11.03125 
Q 45.3125 15.671875 45.3125 23.6875 
L 45.3125 54.6875 
L 54.296875 54.6875 
L 54.296875 0 
L 45.3125 0 
L 45.3125 8.40625 
Q 42.046875 3.421875 37.71875 1 
Q 33.40625 -1.421875 27.6875 -1.421875 
Q 18.265625 -1.421875 13.375 4.4375 
Q 8.5 10.296875 8.5 21.578125 
z
M 31.109375 56 
z
" id="DejaVuSans-117"/>
      <path d="M 52 44.1875 
Q 55.375 50.25 60.0625 53.125 
Q 64.75 56 71.09375 56 
Q 79.640625 56 84.28125 50.015625 
Q 88.921875 44.046875 88.921875 33.015625 
L 88.921875 0 
L 79.890625 0 
L 79.890625 32.71875 
Q 79.890625 40.578125 77.09375 44.375 
Q 74.3125 48.1875 68.609375 48.1875 
Q 61.625 48.1875 57.5625 43.546875 
Q 53.515625 38.921875 53.515625 30.90625 
L 53.515625 0 
L 44.484375 0 
L 44.484375 32.71875 
Q 44.484375 40.625 41.703125 44.40625 
Q 38.921875 48.1875 33.109375 48.1875 
Q 26.21875 48.1875 22.15625 43.53125 
Q 18.109375 38.875 18.109375 30.90625 
L 18.109375 0 
L 9.078125 0 
L 9.078125 54.6875 
L 18.109375 54.6875 
L 18.109375 46.1875 
Q 21.1875 51.21875 25.484375 53.609375 
Q 29.78125 56 35.6875 56 
Q 41.65625 56 45.828125 52.96875 
Q 50 49.953125 52 44.1875 
z
" id="DejaVuSans-109"/>
      <path d="M 48.6875 27.296875 
Q 48.6875 37.203125 44.609375 42.84375 
Q 40.53125 48.484375 33.40625 48.484375 
Q 26.265625 48.484375 22.1875 42.84375 
Q 18.109375 37.203125 18.109375 27.296875 
Q 18.109375 17.390625 22.1875 11.75 
Q 26.265625 6.109375 33.40625 6.109375 
Q 40.53125 6.109375 44.609375 11.75 
Q 48.6875 17.390625 48.6875 27.296875 
z
M 18.109375 46.390625 
Q 20.953125 51.265625 25.265625 53.625 
Q 29.59375 56 35.59375 56 
Q 45.5625 56 51.78125 48.09375 
Q 58.015625 40.1875 58.015625 27.296875 
Q 58.015625 14.40625 51.78125 6.484375 
Q 45.5625 -1.421875 35.59375 -1.421875 
Q 29.59375 -1.421875 25.265625 0.953125 
Q 20.953125 3.328125 18.109375 8.203125 
L 18.109375 0 
L 9.078125 0 
L 9.078125 75.984375 
L 18.109375 75.984375 
z
" id="DejaVuSans-98"/>
      <path d="M 56.203125 29.59375 
L 56.203125 25.203125 
L 14.890625 25.203125 
Q 15.484375 15.921875 20.484375 11.0625 
Q 25.484375 6.203125 34.421875 6.203125 
Q 39.59375 6.203125 44.453125 7.46875 
Q 49.3125 8.734375 54.109375 11.28125 
L 54.109375 2.78125 
Q 49.265625 0.734375 44.1875 -0.34375 
Q 39.109375 -1.421875 33.890625 -1.421875 
Q 20.796875 -1.421875 13.15625 6.1875 
Q 5.515625 13.8125 5.515625 26.8125 
Q 5.515625 40.234375 12.765625 48.109375 
Q 20.015625 56 32.328125 56 
Q 43.359375 56 49.78125 48.890625 
Q 56.203125 41.796875 56.203125 29.59375 
z
M 47.21875 32.234375 
Q 47.125 39.59375 43.09375 43.984375 
Q 39.0625 48.390625 32.421875 48.390625 
Q 24.90625 48.390625 20.390625 44.140625 
Q 15.875 39.890625 15.1875 32.171875 
z
" id="DejaVuSans-101"/>
      <path d="M 41.109375 46.296875 
Q 39.59375 47.171875 37.8125 47.578125 
Q 36.03125 48 33.890625 48 
Q 26.265625 48 22.1875 43.046875 
Q 18.109375 38.09375 18.109375 28.8125 
L 18.109375 0 
L 9.078125 0 
L 9.078125 54.6875 
L 18.109375 54.6875 
L 18.109375 46.1875 
Q 20.953125 51.171875 25.484375 53.578125 
Q 30.03125 56 36.53125 56 
Q 37.453125 56 38.578125 55.875 
Q 39.703125 55.765625 41.0625 55.515625 
z
" id="DejaVuSans-114"/>
      <path d="M 44.28125 53.078125 
L 44.28125 44.578125 
Q 40.484375 46.53125 36.375 47.5 
Q 32.28125 48.484375 27.875 48.484375 
Q 21.1875 48.484375 17.84375 46.4375 
Q 14.5 44.390625 14.5 40.28125 
Q 14.5 37.15625 16.890625 35.375 
Q 19.28125 33.59375 26.515625 31.984375 
L 29.59375 31.296875 
Q 39.15625 29.25 43.1875 25.515625 
Q 47.21875 21.78125 47.21875 15.09375 
Q 47.21875 7.46875 41.1875 3.015625 
Q 35.15625 -1.421875 24.609375 -1.421875 
Q 20.21875 -1.421875 15.453125 -0.5625 
Q 10.6875 0.296875 5.421875 2 
L 5.421875 11.28125 
Q 10.40625 8.6875 15.234375 7.390625 
Q 20.0625 6.109375 24.8125 6.109375 
Q 31.15625 6.109375 34.5625 8.28125 
Q 37.984375 10.453125 37.984375 14.40625 
Q 37.984375 18.0625 35.515625 20.015625 
Q 33.0625 21.96875 24.703125 23.78125 
L 21.578125 24.515625 
Q 13.234375 26.265625 9.515625 29.90625 
Q 5.8125 33.546875 5.8125 39.890625 
Q 5.8125 47.609375 11.28125 51.796875 
Q 16.75 56 26.8125 56 
Q 31.78125 56 36.171875 55.265625 
Q 40.578125 54.546875 44.28125 53.078125 
z
" id="DejaVuSans-115"/>
     </defs>
     <g style="fill:#555555;" transform="translate(44.691875 131.71875)rotate(-90)scale(0.12 -0.12)">
      <use xlink:href="#DejaVuSans-116"/>
      <use x="39.208984" xlink:href="#DejaVuSans-111"/>
      <use x="100.390625" xlink:href="#DejaVuSans-116"/>
      <use x="139.599609" xlink:href="#DejaVuSans-97"/>
      <use x="200.878906" xlink:href="#DejaVuSans-108"/>
      <use x="228.662109" xlink:href="#DejaVuSans-32"/>
      <use x="260.449219" xlink:href="#DejaVuSans-110"/>
      <use x="323.828125" xlink:href="#DejaVuSans-117"/>
      <use x="387.207031" xlink:href="#DejaVuSans-109"/>
      <use x="484.619141" xlink:href="#DejaVuSans-98"/>
      <use x="548.095703" xlink:href="#DejaVuSans-101"/>
      <use x="609.619141" xlink:href="#DejaVuSans-114"/>
      <use x="650.732422" xlink:href="#DejaVuSans-115"/>
     </g>
    </g>
   </g>
   <g id="line2d_102">
    <path clip-path="url(#p153166f217)" d="M 115.363636 151.322727 
L 117.814229 151.322727 
L 117.814229 142.448213 
L 122.715415 142.448213 
L 122.715415 137.256954 
L 125.166008 137.256954 
L 125.166008 133.573698 
L 134.968379 133.573698 
L 134.968379 120.621951 
L 137.418972 120.621951 
L 137.418972 119.507925 
L 139.869565 119.507925 
L 139.869565 116.65097 
L 144.770751 116.65097 
L 144.770751 115.824669 
L 147.221344 115.824669 
L 147.221344 113.624433 
L 149.671937 113.624433 
L 149.671937 111.178311 
L 152.12253 111.178311 
L 152.12253 110.633411 
L 157.023715 110.633411 
L 157.023715 110.110758 
L 159.474308 110.110758 
L 159.474308 109.125409 
L 161.924901 109.125409 
L 161.924901 108.659786 
L 174.177866 108.659786 
L 174.177866 108.210504 
L 176.628458 108.210504 
L 176.628458 107.776455 
L 179.079051 107.776455 
L 179.079051 107.35664 
L 183.980237 107.35664 
L 183.980237 91.859578 
L 186.43083 91.859578 
L 186.43083 83.233677 
L 188.881423 83.233677 
L 188.881423 73.597748 
L 191.332016 73.597748 
L 191.332016 69.378835 
L 193.782609 69.378835 
L 193.782609 65.220655 
L 196.233202 65.220655 
L 196.233202 63.179143 
L 198.683794 63.179143 
L 198.683794 59.912099 
L 201.134387 59.912099 
L 201.134387 55.599821 
L 203.58498 55.599821 
L 203.58498 52.012987 
L 206.035573 52.012987 
L 206.035573 48.190786 
L 208.486166 48.190786 
L 208.486166 46.006389 
L 210.936759 46.006389 
L 210.936759 44.102473 
L 213.387352 44.102473 
L 213.387352 41.80761 
L 215.837945 41.80761 
L 215.837945 40.776351 
L 218.288538 40.776351 
L 218.288538 39.754526 
L 220.73913 39.754526 
L 220.73913 38.734252 
L 223.189723 38.734252 
L 223.189723 37.892546 
L 225.640316 37.892546 
L 225.640316 37.40551 
L 228.090909 37.40551 
L 228.090909 37.121598 
L 232.992095 37.061814 
L 232.992095 36.655914 
L 235.442688 36.655914 
L 235.442688 36.469074 
L 237.893281 36.469074 
L 237.893281 36.291339 
L 240.343874 36.291339 
L 240.343874 36.120786 
L 242.794466 36.120786 
L 242.794466 36.001011 
L 245.245059 36.001011 
L 245.245059 35.885455 
L 247.695652 35.885455 
L 247.695652 35.755535 
L 250.146245 35.755535 
L 250.146245 35.613216 
L 252.596838 35.613216 
L 252.596838 35.383961 
L 255.047431 35.383961 
L 255.047431 35.254567 
L 257.498024 35.254567 
L 257.498024 35.038864 
L 259.948617 35.038864 
L 259.948617 34.805285 
L 267.300395 34.697157 
L 267.300395 34.556259 
L 269.750988 34.556259 
L 269.750988 34.411352 
L 272.201581 34.411352 
L 272.201581 34.28589 
L 274.652174 34.28589 
L 274.652174 34.087134 
L 277.102767 34.087134 
L 277.102767 33.946076 
L 282.003953 33.842287 
L 282.003953 33.677693 
L 284.454545 33.677693 
L 284.454545 33.54623 
L 286.905138 33.54623 
L 286.905138 33.431495 
L 291.806324 33.321596 
L 291.806324 33.202542 
L 296.70751 33.100834 
L 296.70751 33.042187 
L 301.608696 32.983807 
L 301.608696 32.918292 
L 308.960474 32.837173 
L 308.960474 32.80047 
L 318.762846 32.698258 
L 318.762846 32.665576 
L 335.916996 32.55484 
L 335.916996 32.541663 
L 360.422925 32.439113 
L 360.422925 32.423683 
L 380.027668 32.327955 
L 380.027668 32.286811 
L 389.83004 32.190933 
L 389.83004 32.15952 
L 404.533597 32.053057 
L 404.533597 32.039236 
L 416.786561 31.942902 
L 416.786561 31.921212 
L 421.687747 31.875669 
L 421.687747 31.786195 
L 429.039526 31.677183 
L 429.039526 31.647004 
L 436.391304 31.565763 
L 436.391304 31.511519 
L 443.743083 31.425643 
L 443.743083 31.369802 
L 451.094862 31.266432 
L 451.094862 31.225316 
L 458.44664 31.123101 
L 458.44664 31.063227 
L 465.798419 30.976058 
L 465.798419 30.937975 
L 473.150198 30.856899 
L 473.150198 30.79512 
L 478.051383 30.744039 
L 478.051383 30.674521 
L 485.403162 30.607437 
L 485.403162 30.560173 
L 492.754941 30.479409 
L 492.754941 30.439725 
L 497.656126 30.388015 
L 497.656126 30.325432 
L 505.007905 30.240127 
L 505.007905 30.190212 
L 509.909091 30.136521 
L 509.909091 30.074165 
L 514.810277 30.012112 
L 514.810277 29.952313 
L 522.162055 29.864593 
L 522.162055 29.803544 
L 529.513834 29.712994 
L 529.513834 29.679441 
L 536.865613 29.578357 
L 536.865613 29.54705 
L 544.217391 29.452645 
L 544.217391 29.396334 
L 554.019763 29.303959 
L 554.019763 29.262189 
L 558.920949 29.20394 
L 558.920949 29.149629 
L 563.822134 29.112022 
L 563.822134 29.008943 
L 573.624506 28.908489 
L 573.624506 28.865293 
L 585.87747 28.762391 
L 585.87747 28.741909 
L 595.679842 28.644404 
L 595.679842 28.626756 
L 605.482213 28.532746 
L 605.482213 28.503018 
L 612.833992 28.407309 
L 612.833992 28.318334 
L 615.284585 28.318334 
L 615.284585 28.176227 
L 617.735178 28.176227 
L 617.735178 27.940881 
L 620.185771 27.940881 
L 620.185771 27.777273 
L 622.636364 27.777273 
L 622.636364 27.777273 
" style="fill:none;stroke:#348abd;stroke-linecap:square;stroke-width:3;"/>
   </g>
   <g id="line2d_103">
    <path clip-path="url(#p153166f217)" d="M 183.980237 181 
L 183.980237 151.322727 
L 186.43083 151.322727 
L 186.43083 142.448213 
L 191.332016 142.448213 
L 191.332016 128.38244 
L 193.782609 128.38244 
L 193.782609 124.699184 
L 196.233202 124.699184 
L 196.233202 121.842228 
L 198.683794 121.842228 
L 198.683794 119.507925 
L 201.134387 119.507925 
L 201.134387 118.483121 
L 206.035573 118.483121 
L 206.035573 115.824669 
L 208.486166 115.824669 
L 208.486166 115.048479 
L 210.936759 115.048479 
L 210.936759 108.659786 
L 215.837945 108.659786 
L 215.837945 105.802831 
L 220.73913 105.802831 
L 220.73913 103.468528 
L 223.189723 103.468528 
L 223.189723 102.872922 
L 225.640316 102.872922 
L 225.640316 101.236243 
L 228.090909 101.236243 
L 228.090909 100.490214 
L 230.541502 100.490214 
L 230.541502 100.250894 
L 232.992095 100.250894 
L 232.992095 98.901941 
L 235.442688 98.901941 
L 235.442688 97.681664 
L 240.343874 97.681664 
L 240.343874 96.567638 
L 242.794466 96.567638 
L 242.794466 96.044985 
L 247.695652 96.044985 
L 247.695652 95.059636 
L 250.146245 95.059636 
L 250.146245 94.594013 
L 252.596838 94.594013 
L 252.596838 93.569209 
L 255.047431 93.569209 
L 255.047431 93.153933 
L 257.498024 93.153933 
L 257.498024 92.108191 
L 259.948617 92.108191 
L 259.948617 91.025585 
L 264.849802 91.025585 
L 264.849802 90.027426 
L 267.300395 90.027426 
L 267.300395 89.402755 
L 269.750988 89.402755 
L 269.750988 88.904513 
L 272.201581 88.904513 
L 272.201581 88.145581 
L 274.652174 88.145581 
L 274.652174 87.693124 
L 277.102767 87.693124 
L 277.102767 87.000889 
L 279.55336 87.000889 
L 279.55336 86.505219 
L 282.003953 86.505219 
L 282.003953 86.185122 
L 284.454545 86.185122 
L 284.454545 85.950194 
L 286.905138 85.950194 
L 286.905138 85.643515 
L 289.355731 85.643515 
L 289.355731 85.270217 
L 291.806324 85.270217 
L 291.806324 85.051353 
L 294.256917 85.051353 
L 294.256917 84.62454 
L 296.70751 84.62454 
L 296.70751 84.416353 
L 299.158103 84.416353 
L 299.158103 84.009867 
L 301.608696 84.009867 
L 301.608696 83.487214 
L 304.059289 83.487214 
L 304.059289 83.233677 
L 306.509881 83.233677 
L 306.509881 82.985063 
L 308.960474 82.985063 
L 308.960474 82.80172 
L 311.411067 82.80172 
L 311.411067 82.620966 
L 313.86166 82.620966 
L 313.86166 82.442728 
L 316.312253 82.442728 
L 316.312253 82.15107 
L 318.762846 82.15107 
L 318.762846 81.979212 
L 321.213439 81.979212 
L 321.213439 81.753599 
L 326.114625 81.697812 
L 326.114625 81.586961 
L 331.01581 81.477061 
L 331.01581 81.368097 
L 338.367589 81.260052 
L 338.367589 81.152912 
L 345.719368 81.04666 
L 345.719368 80.993863 
L 350.620553 80.941283 
L 350.620553 80.836767 
L 357.972332 80.733096 
L 357.972332 80.630259 
L 365.324111 80.528241 
L 365.324111 80.427029 
L 382.478261 80.326611 
L 382.478261 80.226974 
L 392.280632 80.128107 
L 392.280632 80.029998 
L 409.434783 79.932635 
L 409.434783 79.836006 
L 416.786561 79.787964 
L 416.786561 79.692417 
L 433.940711 79.597578 
L 433.940711 79.550421 
L 453.545455 79.456624 
L 453.545455 79.363509 
L 470.699605 79.271067 
L 470.699605 79.225094 
L 490.304348 79.133643 
L 490.304348 79.08816 
L 519.711462 78.997678 
L 519.711462 78.952675 
L 527.063241 78.863142 
L 527.063241 78.818609 
L 541.766798 78.77423 
L 541.766798 78.685932 
L 546.667984 78.598238 
L 546.667984 78.554616 
L 556.470356 78.467814 
L 556.470356 78.424633 
L 571.173913 78.338705 
L 571.173913 78.295956 
L 595.679842 78.210885 
L 595.679842 78.16856 
L 622.636364 78.084328 
L 622.636364 78.084328 
" style="fill:none;stroke:#e24a33;stroke-linecap:square;stroke-width:3;"/>
   </g>
   <g id="patch_3">
    <path d="M 90 157.5 
L 90 21.6 
" style="fill:none;stroke:#ffffff;stroke-linecap:square;stroke-linejoin:miter;"/>
   </g>
   <g id="patch_4">
    <path d="M 648 157.5 
L 648 21.6 
" style="fill:none;stroke:#ffffff;stroke-linecap:square;stroke-linejoin:miter;"/>
   </g>
   <g id="patch_5">
    <path d="M 90 157.5 
L 648 157.5 
" style="fill:none;stroke:#ffffff;stroke-linecap:square;stroke-linejoin:miter;"/>
   </g>
   <g id="patch_6">
    <path d="M 90 21.6 
L 648 21.6 
" style="fill:none;stroke:#ffffff;stroke-linecap:square;stroke-linejoin:miter;"/>
   </g>
   <g id="legend_1">
    <g id="patch_7">
     <path d="M 507.9625 152.5 
L 641 152.5 
Q 643 152.5 643 150.5 
L 643 122.14375 
Q 643 120.14375 641 120.14375 
L 507.9625 120.14375 
Q 505.9625 120.14375 505.9625 122.14375 
L 505.9625 150.5 
Q 505.9625 152.5 507.9625 152.5 
z
" style="fill:#e5e5e5;opacity:0.8;stroke:#cccccc;stroke-linejoin:miter;stroke-width:0.5;"/>
    </g>
    <g id="line2d_104">
     <path d="M 509.9625 128.242188 
L 529.9625 128.242188 
" style="fill:none;stroke:#348abd;stroke-linecap:square;stroke-width:3;"/>
    </g>
    <g id="line2d_105"/>
    <g id="text_19">
     <!-- Korea, South cases -->
     <defs>
      <path d="M 9.8125 72.90625 
L 19.671875 72.90625 
L 19.671875 42.09375 
L 52.390625 72.90625 
L 65.09375 72.90625 
L 28.90625 38.921875 
L 67.671875 0 
L 54.6875 0 
L 19.671875 35.109375 
L 19.671875 0 
L 9.8125 0 
z
" id="DejaVuSans-75"/>
      <path d="M 11.71875 12.40625 
L 22.015625 12.40625 
L 22.015625 4 
L 14.015625 -11.625 
L 7.71875 -11.625 
L 11.71875 4 
z
" id="DejaVuSans-44"/>
      <path d="M 53.515625 70.515625 
L 53.515625 60.890625 
Q 47.90625 63.578125 42.921875 64.890625 
Q 37.9375 66.21875 33.296875 66.21875 
Q 25.25 66.21875 20.875 63.09375 
Q 16.5 59.96875 16.5 54.203125 
Q 16.5 49.359375 19.40625 46.890625 
Q 22.3125 44.4375 30.421875 42.921875 
L 36.375 41.703125 
Q 47.40625 39.59375 52.65625 34.296875 
Q 57.90625 29 57.90625 20.125 
Q 57.90625 9.515625 50.796875 4.046875 
Q 43.703125 -1.421875 29.984375 -1.421875 
Q 24.8125 -1.421875 18.96875 -0.25 
Q 13.140625 0.921875 6.890625 3.21875 
L 6.890625 13.375 
Q 12.890625 10.015625 18.65625 8.296875 
Q 24.421875 6.59375 29.984375 6.59375 
Q 38.421875 6.59375 43.015625 9.90625 
Q 47.609375 13.234375 47.609375 19.390625 
Q 47.609375 24.75 44.3125 27.78125 
Q 41.015625 30.8125 33.5 32.328125 
L 27.484375 33.5 
Q 16.453125 35.6875 11.515625 40.375 
Q 6.59375 45.0625 6.59375 53.421875 
Q 6.59375 63.09375 13.40625 68.65625 
Q 20.21875 74.21875 32.171875 74.21875 
Q 37.3125 74.21875 42.625 73.28125 
Q 47.953125 72.359375 53.515625 70.515625 
z
" id="DejaVuSans-83"/>
      <path d="M 54.890625 33.015625 
L 54.890625 0 
L 45.90625 0 
L 45.90625 32.71875 
Q 45.90625 40.484375 42.875 44.328125 
Q 39.84375 48.1875 33.796875 48.1875 
Q 26.515625 48.1875 22.3125 43.546875 
Q 18.109375 38.921875 18.109375 30.90625 
L 18.109375 0 
L 9.078125 0 
L 9.078125 75.984375 
L 18.109375 75.984375 
L 18.109375 46.1875 
Q 21.34375 51.125 25.703125 53.5625 
Q 30.078125 56 35.796875 56 
Q 45.21875 56 50.046875 50.171875 
Q 54.890625 44.34375 54.890625 33.015625 
z
" id="DejaVuSans-104"/>
      <path d="M 48.78125 52.59375 
L 48.78125 44.1875 
Q 44.96875 46.296875 41.140625 47.34375 
Q 37.3125 48.390625 33.40625 48.390625 
Q 24.65625 48.390625 19.8125 42.84375 
Q 14.984375 37.3125 14.984375 27.296875 
Q 14.984375 17.28125 19.8125 11.734375 
Q 24.65625 6.203125 33.40625 6.203125 
Q 37.3125 6.203125 41.140625 7.25 
Q 44.96875 8.296875 48.78125 10.40625 
L 48.78125 2.09375 
Q 45.015625 0.34375 40.984375 -0.53125 
Q 36.96875 -1.421875 32.421875 -1.421875 
Q 20.0625 -1.421875 12.78125 6.34375 
Q 5.515625 14.109375 5.515625 27.296875 
Q 5.515625 40.671875 12.859375 48.328125 
Q 20.21875 56 33.015625 56 
Q 37.15625 56 41.109375 55.140625 
Q 45.0625 54.296875 48.78125 52.59375 
z
" id="DejaVuSans-99"/>
     </defs>
     <g transform="translate(537.9625 131.742188)scale(0.1 -0.1)">
      <use xlink:href="#DejaVuSans-75"/>
      <use x="60.576172" xlink:href="#DejaVuSans-111"/>
      <use x="121.757812" xlink:href="#DejaVuSans-114"/>
      <use x="160.621094" xlink:href="#DejaVuSans-101"/>
      <use x="222.144531" xlink:href="#DejaVuSans-97"/>
      <use x="283.423828" xlink:href="#DejaVuSans-44"/>
      <use x="315.210938" xlink:href="#DejaVuSans-32"/>
      <use x="346.998047" xlink:href="#DejaVuSans-83"/>
      <use x="410.474609" xlink:href="#DejaVuSans-111"/>
      <use x="471.65625" xlink:href="#DejaVuSans-117"/>
      <use x="535.035156" xlink:href="#DejaVuSans-116"/>
      <use x="574.244141" xlink:href="#DejaVuSans-104"/>
      <use x="637.623047" xlink:href="#DejaVuSans-32"/>
      <use x="669.410156" xlink:href="#DejaVuSans-99"/>
      <use x="724.390625" xlink:href="#DejaVuSans-97"/>
      <use x="785.669922" xlink:href="#DejaVuSans-115"/>
      <use x="837.769531" xlink:href="#DejaVuSans-101"/>
      <use x="899.292969" xlink:href="#DejaVuSans-115"/>
     </g>
    </g>
    <g id="line2d_106">
     <path d="M 509.9625 142.920312 
L 529.9625 142.920312 
" style="fill:none;stroke:#e24a33;stroke-linecap:square;stroke-width:3;"/>
    </g>
    <g id="line2d_107"/>
    <g id="text_20">
     <!-- Korea, South deaths -->
     <defs>
      <path d="M 45.40625 46.390625 
L 45.40625 75.984375 
L 54.390625 75.984375 
L 54.390625 0 
L 45.40625 0 
L 45.40625 8.203125 
Q 42.578125 3.328125 38.25 0.953125 
Q 33.9375 -1.421875 27.875 -1.421875 
Q 17.96875 -1.421875 11.734375 6.484375 
Q 5.515625 14.40625 5.515625 27.296875 
Q 5.515625 40.1875 11.734375 48.09375 
Q 17.96875 56 27.875 56 
Q 33.9375 56 38.25 53.625 
Q 42.578125 51.265625 45.40625 46.390625 
z
M 14.796875 27.296875 
Q 14.796875 17.390625 18.875 11.75 
Q 22.953125 6.109375 30.078125 6.109375 
Q 37.203125 6.109375 41.296875 11.75 
Q 45.40625 17.390625 45.40625 27.296875 
Q 45.40625 37.203125 41.296875 42.84375 
Q 37.203125 48.484375 30.078125 48.484375 
Q 22.953125 48.484375 18.875 42.84375 
Q 14.796875 37.203125 14.796875 27.296875 
z
" id="DejaVuSans-100"/>
     </defs>
     <g transform="translate(537.9625 146.420312)scale(0.1 -0.1)">
      <use xlink:href="#DejaVuSans-75"/>
      <use x="60.576172" xlink:href="#DejaVuSans-111"/>
      <use x="121.757812" xlink:href="#DejaVuSans-114"/>
      <use x="160.621094" xlink:href="#DejaVuSans-101"/>
      <use x="222.144531" xlink:href="#DejaVuSans-97"/>
      <use x="283.423828" xlink:href="#DejaVuSans-44"/>
      <use x="315.210938" xlink:href="#DejaVuSans-32"/>
      <use x="346.998047" xlink:href="#DejaVuSans-83"/>
      <use x="410.474609" xlink:href="#DejaVuSans-111"/>
      <use x="471.65625" xlink:href="#DejaVuSans-117"/>
      <use x="535.035156" xlink:href="#DejaVuSans-116"/>
      <use x="574.244141" xlink:href="#DejaVuSans-104"/>
      <use x="637.623047" xlink:href="#DejaVuSans-32"/>
      <use x="669.410156" xlink:href="#DejaVuSans-100"/>
      <use x="732.886719" xlink:href="#DejaVuSans-101"/>
      <use x="794.410156" xlink:href="#DejaVuSans-97"/>
      <use x="855.689453" xlink:href="#DejaVuSans-116"/>
      <use x="894.898438" xlink:href="#DejaVuSans-104"/>
      <use x="958.277344" xlink:href="#DejaVuSans-115"/>
     </g>
    </g>
   </g>
  </g>
 </g>
 <defs>
  <clipPath id="p153166f217">
   <rect height="135.9" width="558" x="90" y="21.6"/>
  </clipPath>
 </defs>
</svg>
