<?xml version="1.0" encoding="utf-8" standalone="no"?>
<!DOCTYPE svg PUBLIC "-//W3C//DTD SVG 1.1//EN"
  "http://www.w3.org/Graphics/SVG/1.1/DTD/svg11.dtd">
<!-- Created with matplotlib (https://matplotlib.org/) -->
<svg height="180pt" version="1.1" viewBox="0 0 864 180" width="864pt" xmlns="http://www.w3.org/2000/svg" xmlns:xlink="http://www.w3.org/1999/xlink">
 <defs>
  <style type="text/css">
*{stroke-linecap:butt;stroke-linejoin:round;}
  </style>
 </defs>
 <g id="figure_1">
  <g id="patch_1">
   <path d="M 0 180 
L 864 180 
L 864 0 
L 0 0 
z
" style="fill:#ffffff;"/>
  </g>
  <g id="axes_1">
   <g id="patch_2">
    <path d="M 66.175 152.2 
L 814.825 152.2 
L 814.825 10.8 
L 66.175 10.8 
z
" style="fill:#e5e5e5;"/>
   </g>
   <g id="matplotlib.axis_1">
    <g id="xtick_1">
     <g id="line2d_1">
      <path clip-path="url(#p6c1b6a5c98)" d="M 130.991622 152.2 
L 130.991622 10.8 
" style="fill:none;stroke:#ffffff;stroke-linecap:square;stroke-width:0.8;"/>
     </g>
     <g id="line2d_2">
      <defs>
       <path d="M 0 0 
L 0 3.5 
" id="m700a3ad1f6" style="stroke:#555555;stroke-width:0.8;"/>
      </defs>
      <g>
       <use style="fill:#555555;stroke:#555555;stroke-width:0.8;" x="130.991622" xlink:href="#m700a3ad1f6" y="152.2"/>
      </g>
     </g>
     <g id="text_1">
      <!-- 2020-02 -->
      <defs>
       <path d="M 19.1875 8.296875 
L 53.609375 8.296875 
L 53.609375 0 
L 7.328125 0 
L 7.328125 8.296875 
Q 12.9375 14.109375 22.625 23.890625 
Q 32.328125 33.6875 34.8125 36.53125 
Q 39.546875 41.84375 41.421875 45.53125 
Q 43.3125 49.21875 43.3125 52.78125 
Q 43.3125 58.59375 39.234375 62.25 
Q 35.15625 65.921875 28.609375 65.921875 
Q 23.96875 65.921875 18.8125 64.3125 
Q 13.671875 62.703125 7.8125 59.421875 
L 7.8125 69.390625 
Q 13.765625 71.78125 18.9375 73 
Q 24.125 74.21875 28.421875 74.21875 
Q 39.75 74.21875 46.484375 68.546875 
Q 53.21875 62.890625 53.21875 53.421875 
Q 53.21875 48.921875 51.53125 44.890625 
Q 49.859375 40.875 45.40625 35.40625 
Q 44.1875 33.984375 37.640625 27.21875 
Q 31.109375 20.453125 19.1875 8.296875 
z
" id="DejaVuSans-50"/>
       <path d="M 31.78125 66.40625 
Q 24.171875 66.40625 20.328125 58.90625 
Q 16.5 51.421875 16.5 36.375 
Q 16.5 21.390625 20.328125 13.890625 
Q 24.171875 6.390625 31.78125 6.390625 
Q 39.453125 6.390625 43.28125 13.890625 
Q 47.125 21.390625 47.125 36.375 
Q 47.125 51.421875 43.28125 58.90625 
Q 39.453125 66.40625 31.78125 66.40625 
z
M 31.78125 74.21875 
Q 44.046875 74.21875 50.515625 64.515625 
Q 56.984375 54.828125 56.984375 36.375 
Q 56.984375 17.96875 50.515625 8.265625 
Q 44.046875 -1.421875 31.78125 -1.421875 
Q 19.53125 -1.421875 13.0625 8.265625 
Q 6.59375 17.96875 6.59375 36.375 
Q 6.59375 54.828125 13.0625 64.515625 
Q 19.53125 74.21875 31.78125 74.21875 
z
" id="DejaVuSans-48"/>
       <path d="M 4.890625 31.390625 
L 31.203125 31.390625 
L 31.203125 23.390625 
L 4.890625 23.390625 
z
" id="DejaVuSans-45"/>
      </defs>
      <g style="fill:#555555;" transform="translate(110.100216 166.798438)scale(0.1 -0.1)">
       <use xlink:href="#DejaVuSans-50"/>
       <use x="63.623047" xlink:href="#DejaVuSans-48"/>
       <use x="127.246094" xlink:href="#DejaVuSans-50"/>
       <use x="190.869141" xlink:href="#DejaVuSans-48"/>
       <use x="254.492188" xlink:href="#DejaVuSans-45"/>
       <use x="290.576172" xlink:href="#DejaVuSans-48"/>
       <use x="354.199219" xlink:href="#DejaVuSans-50"/>
      </g>
     </g>
    </g>
    <g id="xtick_2">
     <g id="line2d_3">
      <path clip-path="url(#p6c1b6a5c98)" d="M 225.973029 152.2 
L 225.973029 10.8 
" style="fill:none;stroke:#ffffff;stroke-linecap:square;stroke-width:0.8;"/>
     </g>
     <g id="line2d_4">
      <g>
       <use style="fill:#555555;stroke:#555555;stroke-width:0.8;" x="225.973029" xlink:href="#m700a3ad1f6" y="152.2"/>
      </g>
     </g>
     <g id="text_2">
      <!-- 2020-03 -->
      <defs>
       <path d="M 40.578125 39.3125 
Q 47.65625 37.796875 51.625 33 
Q 55.609375 28.21875 55.609375 21.1875 
Q 55.609375 10.40625 48.1875 4.484375 
Q 40.765625 -1.421875 27.09375 -1.421875 
Q 22.515625 -1.421875 17.65625 -0.515625 
Q 12.796875 0.390625 7.625 2.203125 
L 7.625 11.71875 
Q 11.71875 9.328125 16.59375 8.109375 
Q 21.484375 6.890625 26.8125 6.890625 
Q 36.078125 6.890625 40.9375 10.546875 
Q 45.796875 14.203125 45.796875 21.1875 
Q 45.796875 27.640625 41.28125 31.265625 
Q 36.765625 34.90625 28.71875 34.90625 
L 20.21875 34.90625 
L 20.21875 43.015625 
L 29.109375 43.015625 
Q 36.375 43.015625 40.234375 45.921875 
Q 44.09375 48.828125 44.09375 54.296875 
Q 44.09375 59.90625 40.109375 62.90625 
Q 36.140625 65.921875 28.71875 65.921875 
Q 24.65625 65.921875 20.015625 65.03125 
Q 15.375 64.15625 9.8125 62.3125 
L 9.8125 71.09375 
Q 15.4375 72.65625 20.34375 73.4375 
Q 25.25 74.21875 29.59375 74.21875 
Q 40.828125 74.21875 47.359375 69.109375 
Q 53.90625 64.015625 53.90625 55.328125 
Q 53.90625 49.265625 50.4375 45.09375 
Q 46.96875 40.921875 40.578125 39.3125 
z
" id="DejaVuSans-51"/>
      </defs>
      <g style="fill:#555555;" transform="translate(205.081623 166.798438)scale(0.1 -0.1)">
       <use xlink:href="#DejaVuSans-50"/>
       <use x="63.623047" xlink:href="#DejaVuSans-48"/>
       <use x="127.246094" xlink:href="#DejaVuSans-50"/>
       <use x="190.869141" xlink:href="#DejaVuSans-48"/>
       <use x="254.492188" xlink:href="#DejaVuSans-45"/>
       <use x="290.576172" xlink:href="#DejaVuSans-48"/>
       <use x="354.199219" xlink:href="#DejaVuSans-51"/>
      </g>
     </g>
    </g>
    <g id="xtick_3">
     <g id="line2d_5">
      <path clip-path="url(#p6c1b6a5c98)" d="M 327.504878 152.2 
L 327.504878 10.8 
" style="fill:none;stroke:#ffffff;stroke-linecap:square;stroke-width:0.8;"/>
     </g>
     <g id="line2d_6">
      <g>
       <use style="fill:#555555;stroke:#555555;stroke-width:0.8;" x="327.504878" xlink:href="#m700a3ad1f6" y="152.2"/>
      </g>
     </g>
     <g id="text_3">
      <!-- 2020-04 -->
      <defs>
       <path d="M 37.796875 64.3125 
L 12.890625 25.390625 
L 37.796875 25.390625 
z
M 35.203125 72.90625 
L 47.609375 72.90625 
L 47.609375 25.390625 
L 58.015625 25.390625 
L 58.015625 17.1875 
L 47.609375 17.1875 
L 47.609375 0 
L 37.796875 0 
L 37.796875 17.1875 
L 4.890625 17.1875 
L 4.890625 26.703125 
z
" id="DejaVuSans-52"/>
      </defs>
      <g style="fill:#555555;" transform="translate(306.613472 166.798438)scale(0.1 -0.1)">
       <use xlink:href="#DejaVuSans-50"/>
       <use x="63.623047" xlink:href="#DejaVuSans-48"/>
       <use x="127.246094" xlink:href="#DejaVuSans-50"/>
       <use x="190.869141" xlink:href="#DejaVuSans-48"/>
       <use x="254.492188" xlink:href="#DejaVuSans-45"/>
       <use x="290.576172" xlink:href="#DejaVuSans-48"/>
       <use x="354.199219" xlink:href="#DejaVuSans-52"/>
      </g>
     </g>
    </g>
    <g id="xtick_4">
     <g id="line2d_7">
      <path clip-path="url(#p6c1b6a5c98)" d="M 425.761506 152.2 
L 425.761506 10.8 
" style="fill:none;stroke:#ffffff;stroke-linecap:square;stroke-width:0.8;"/>
     </g>
     <g id="line2d_8">
      <g>
       <use style="fill:#555555;stroke:#555555;stroke-width:0.8;" x="425.761506" xlink:href="#m700a3ad1f6" y="152.2"/>
      </g>
     </g>
     <g id="text_4">
      <!-- 2020-05 -->
      <defs>
       <path d="M 10.796875 72.90625 
L 49.515625 72.90625 
L 49.515625 64.59375 
L 19.828125 64.59375 
L 19.828125 46.734375 
Q 21.96875 47.46875 24.109375 47.828125 
Q 26.265625 48.1875 28.421875 48.1875 
Q 40.625 48.1875 47.75 41.5 
Q 54.890625 34.8125 54.890625 23.390625 
Q 54.890625 11.625 47.5625 5.09375 
Q 40.234375 -1.421875 26.90625 -1.421875 
Q 22.3125 -1.421875 17.546875 -0.640625 
Q 12.796875 0.140625 7.71875 1.703125 
L 7.71875 11.625 
Q 12.109375 9.234375 16.796875 8.0625 
Q 21.484375 6.890625 26.703125 6.890625 
Q 35.15625 6.890625 40.078125 11.328125 
Q 45.015625 15.765625 45.015625 23.390625 
Q 45.015625 31 40.078125 35.4375 
Q 35.15625 39.890625 26.703125 39.890625 
Q 22.75 39.890625 18.8125 39.015625 
Q 14.890625 38.140625 10.796875 36.28125 
z
" id="DejaVuSans-53"/>
      </defs>
      <g style="fill:#555555;" transform="translate(404.8701 166.798438)scale(0.1 -0.1)">
       <use xlink:href="#DejaVuSans-50"/>
       <use x="63.623047" xlink:href="#DejaVuSans-48"/>
       <use x="127.246094" xlink:href="#DejaVuSans-50"/>
       <use x="190.869141" xlink:href="#DejaVuSans-48"/>
       <use x="254.492188" xlink:href="#DejaVuSans-45"/>
       <use x="290.576172" xlink:href="#DejaVuSans-48"/>
       <use x="354.199219" xlink:href="#DejaVuSans-53"/>
      </g>
     </g>
    </g>
    <g id="xtick_5">
     <g id="line2d_9">
      <path clip-path="url(#p6c1b6a5c98)" d="M 527.293355 152.2 
L 527.293355 10.8 
" style="fill:none;stroke:#ffffff;stroke-linecap:square;stroke-width:0.8;"/>
     </g>
     <g id="line2d_10">
      <g>
       <use style="fill:#555555;stroke:#555555;stroke-width:0.8;" x="527.293355" xlink:href="#m700a3ad1f6" y="152.2"/>
      </g>
     </g>
     <g id="text_5">
      <!-- 2020-06 -->
      <defs>
       <path d="M 33.015625 40.375 
Q 26.375 40.375 22.484375 35.828125 
Q 18.609375 31.296875 18.609375 23.390625 
Q 18.609375 15.53125 22.484375 10.953125 
Q 26.375 6.390625 33.015625 6.390625 
Q 39.65625 6.390625 43.53125 10.953125 
Q 47.40625 15.53125 47.40625 23.390625 
Q 47.40625 31.296875 43.53125 35.828125 
Q 39.65625 40.375 33.015625 40.375 
z
M 52.59375 71.296875 
L 52.59375 62.3125 
Q 48.875 64.0625 45.09375 64.984375 
Q 41.3125 65.921875 37.59375 65.921875 
Q 27.828125 65.921875 22.671875 59.328125 
Q 17.53125 52.734375 16.796875 39.40625 
Q 19.671875 43.65625 24.015625 45.921875 
Q 28.375 48.1875 33.59375 48.1875 
Q 44.578125 48.1875 50.953125 41.515625 
Q 57.328125 34.859375 57.328125 23.390625 
Q 57.328125 12.15625 50.6875 5.359375 
Q 44.046875 -1.421875 33.015625 -1.421875 
Q 20.359375 -1.421875 13.671875 8.265625 
Q 6.984375 17.96875 6.984375 36.375 
Q 6.984375 53.65625 15.1875 63.9375 
Q 23.390625 74.21875 37.203125 74.21875 
Q 40.921875 74.21875 44.703125 73.484375 
Q 48.484375 72.75 52.59375 71.296875 
z
" id="DejaVuSans-54"/>
      </defs>
      <g style="fill:#555555;" transform="translate(506.401948 166.798438)scale(0.1 -0.1)">
       <use xlink:href="#DejaVuSans-50"/>
       <use x="63.623047" xlink:href="#DejaVuSans-48"/>
       <use x="127.246094" xlink:href="#DejaVuSans-50"/>
       <use x="190.869141" xlink:href="#DejaVuSans-48"/>
       <use x="254.492188" xlink:href="#DejaVuSans-45"/>
       <use x="290.576172" xlink:href="#DejaVuSans-48"/>
       <use x="354.199219" xlink:href="#DejaVuSans-54"/>
      </g>
     </g>
    </g>
    <g id="xtick_6">
     <g id="line2d_11">
      <path clip-path="url(#p6c1b6a5c98)" d="M 625.549983 152.2 
L 625.549983 10.8 
" style="fill:none;stroke:#ffffff;stroke-linecap:square;stroke-width:0.8;"/>
     </g>
     <g id="line2d_12">
      <g>
       <use style="fill:#555555;stroke:#555555;stroke-width:0.8;" x="625.549983" xlink:href="#m700a3ad1f6" y="152.2"/>
      </g>
     </g>
     <g id="text_6">
      <!-- 2020-07 -->
      <defs>
       <path d="M 8.203125 72.90625 
L 55.078125 72.90625 
L 55.078125 68.703125 
L 28.609375 0 
L 18.3125 0 
L 43.21875 64.59375 
L 8.203125 64.59375 
z
" id="DejaVuSans-55"/>
      </defs>
      <g style="fill:#555555;" transform="translate(604.658576 166.798438)scale(0.1 -0.1)">
       <use xlink:href="#DejaVuSans-50"/>
       <use x="63.623047" xlink:href="#DejaVuSans-48"/>
       <use x="127.246094" xlink:href="#DejaVuSans-50"/>
       <use x="190.869141" xlink:href="#DejaVuSans-48"/>
       <use x="254.492188" xlink:href="#DejaVuSans-45"/>
       <use x="290.576172" xlink:href="#DejaVuSans-48"/>
       <use x="354.199219" xlink:href="#DejaVuSans-55"/>
      </g>
     </g>
    </g>
    <g id="xtick_7">
     <g id="line2d_13">
      <path clip-path="url(#p6c1b6a5c98)" d="M 727.081831 152.2 
L 727.081831 10.8 
" style="fill:none;stroke:#ffffff;stroke-linecap:square;stroke-width:0.8;"/>
     </g>
     <g id="line2d_14">
      <g>
       <use style="fill:#555555;stroke:#555555;stroke-width:0.8;" x="727.081831" xlink:href="#m700a3ad1f6" y="152.2"/>
      </g>
     </g>
     <g id="text_7">
      <!-- 2020-08 -->
      <defs>
       <path d="M 31.78125 34.625 
Q 24.75 34.625 20.71875 30.859375 
Q 16.703125 27.09375 16.703125 20.515625 
Q 16.703125 13.921875 20.71875 10.15625 
Q 24.75 6.390625 31.78125 6.390625 
Q 38.8125 6.390625 42.859375 10.171875 
Q 46.921875 13.96875 46.921875 20.515625 
Q 46.921875 27.09375 42.890625 30.859375 
Q 38.875 34.625 31.78125 34.625 
z
M 21.921875 38.8125 
Q 15.578125 40.375 12.03125 44.71875 
Q 8.5 49.078125 8.5 55.328125 
Q 8.5 64.0625 14.71875 69.140625 
Q 20.953125 74.21875 31.78125 74.21875 
Q 42.671875 74.21875 48.875 69.140625 
Q 55.078125 64.0625 55.078125 55.328125 
Q 55.078125 49.078125 51.53125 44.71875 
Q 48 40.375 41.703125 38.8125 
Q 48.828125 37.15625 52.796875 32.3125 
Q 56.78125 27.484375 56.78125 20.515625 
Q 56.78125 9.90625 50.3125 4.234375 
Q 43.84375 -1.421875 31.78125 -1.421875 
Q 19.734375 -1.421875 13.25 4.234375 
Q 6.78125 9.90625 6.78125 20.515625 
Q 6.78125 27.484375 10.78125 32.3125 
Q 14.796875 37.15625 21.921875 38.8125 
z
M 18.3125 54.390625 
Q 18.3125 48.734375 21.84375 45.5625 
Q 25.390625 42.390625 31.78125 42.390625 
Q 38.140625 42.390625 41.71875 45.5625 
Q 45.3125 48.734375 45.3125 54.390625 
Q 45.3125 60.0625 41.71875 63.234375 
Q 38.140625 66.40625 31.78125 66.40625 
Q 25.390625 66.40625 21.84375 63.234375 
Q 18.3125 60.0625 18.3125 54.390625 
z
" id="DejaVuSans-56"/>
      </defs>
      <g style="fill:#555555;" transform="translate(706.190425 166.798438)scale(0.1 -0.1)">
       <use xlink:href="#DejaVuSans-50"/>
       <use x="63.623047" xlink:href="#DejaVuSans-48"/>
       <use x="127.246094" xlink:href="#DejaVuSans-50"/>
       <use x="190.869141" xlink:href="#DejaVuSans-48"/>
       <use x="254.492188" xlink:href="#DejaVuSans-45"/>
       <use x="290.576172" xlink:href="#DejaVuSans-48"/>
       <use x="354.199219" xlink:href="#DejaVuSans-56"/>
      </g>
     </g>
    </g>
   </g>
   <g id="matplotlib.axis_2">
    <g id="ytick_1">
     <g id="line2d_15">
      <path clip-path="url(#p6c1b6a5c98)" d="M 66.175 152.2 
L 814.825 152.2 
" style="fill:none;stroke:#ffffff;stroke-linecap:square;stroke-width:0.8;"/>
     </g>
     <g id="line2d_16">
      <defs>
       <path d="M 0 0 
L -3.5 0 
" id="m0d02bb9025" style="stroke:#555555;stroke-width:0.8;"/>
      </defs>
      <g>
       <use style="fill:#555555;stroke:#555555;stroke-width:0.8;" x="66.175" xlink:href="#m0d02bb9025" y="152.2"/>
      </g>
     </g>
     <g id="line2d_17">
      <defs>
       <path d="M 0 0 
L 3.5 0 
" id="m7c5c799733" style="stroke:#555555;stroke-width:0.8;"/>
      </defs>
      <g>
       <use style="fill:#555555;stroke:#555555;stroke-width:0.8;" x="814.825" xlink:href="#m7c5c799733" y="152.2"/>
      </g>
     </g>
     <g id="text_8">
      <!-- 0 -->
      <g style="fill:#555555;" transform="translate(52.8125 155.999219)scale(0.1 -0.1)">
       <use xlink:href="#DejaVuSans-48"/>
      </g>
     </g>
     <g id="text_9">
      <!-- 0 -->
      <g style="fill:#555555;" transform="translate(821.825 155.999219)scale(0.1 -0.1)">
       <use xlink:href="#DejaVuSans-48"/>
      </g>
     </g>
    </g>
    <g id="ytick_2">
     <g id="line2d_18">
      <path clip-path="url(#p6c1b6a5c98)" d="M 66.175 112.000395 
L 814.825 112.000395 
" style="fill:none;stroke:#ffffff;stroke-linecap:square;stroke-width:0.8;"/>
     </g>
     <g id="line2d_19">
      <g>
       <use style="fill:#555555;stroke:#555555;stroke-width:0.8;" x="66.175" xlink:href="#m0d02bb9025" y="112.000395"/>
      </g>
     </g>
     <g id="line2d_20">
      <g>
       <use style="fill:#555555;stroke:#555555;stroke-width:0.8;" x="814.825" xlink:href="#m7c5c799733" y="112.000395"/>
      </g>
     </g>
     <g id="text_10">
      <!-- 20000 -->
      <g style="fill:#555555;" transform="translate(27.3625 115.799614)scale(0.1 -0.1)">
       <use xlink:href="#DejaVuSans-50"/>
       <use x="63.623047" xlink:href="#DejaVuSans-48"/>
       <use x="127.246094" xlink:href="#DejaVuSans-48"/>
       <use x="190.869141" xlink:href="#DejaVuSans-48"/>
       <use x="254.492188" xlink:href="#DejaVuSans-48"/>
      </g>
     </g>
     <g id="text_11">
      <!-- 20000 -->
      <g style="fill:#555555;" transform="translate(821.825 115.799614)scale(0.1 -0.1)">
       <use xlink:href="#DejaVuSans-50"/>
       <use x="63.623047" xlink:href="#DejaVuSans-48"/>
       <use x="127.246094" xlink:href="#DejaVuSans-48"/>
       <use x="190.869141" xlink:href="#DejaVuSans-48"/>
       <use x="254.492188" xlink:href="#DejaVuSans-48"/>
      </g>
     </g>
    </g>
    <g id="ytick_3">
     <g id="line2d_21">
      <path clip-path="url(#p6c1b6a5c98)" d="M 66.175 71.80079 
L 814.825 71.80079 
" style="fill:none;stroke:#ffffff;stroke-linecap:square;stroke-width:0.8;"/>
     </g>
     <g id="line2d_22">
      <g>
       <use style="fill:#555555;stroke:#555555;stroke-width:0.8;" x="66.175" xlink:href="#m0d02bb9025" y="71.80079"/>
      </g>
     </g>
     <g id="line2d_23">
      <g>
       <use style="fill:#555555;stroke:#555555;stroke-width:0.8;" x="814.825" xlink:href="#m7c5c799733" y="71.80079"/>
      </g>
     </g>
     <g id="text_12">
      <!-- 40000 -->
      <g style="fill:#555555;" transform="translate(27.3625 75.600009)scale(0.1 -0.1)">
       <use xlink:href="#DejaVuSans-52"/>
       <use x="63.623047" xlink:href="#DejaVuSans-48"/>
       <use x="127.246094" xlink:href="#DejaVuSans-48"/>
       <use x="190.869141" xlink:href="#DejaVuSans-48"/>
       <use x="254.492188" xlink:href="#DejaVuSans-48"/>
      </g>
     </g>
     <g id="text_13">
      <!-- 40000 -->
      <g style="fill:#555555;" transform="translate(821.825 75.600009)scale(0.1 -0.1)">
       <use xlink:href="#DejaVuSans-52"/>
       <use x="63.623047" xlink:href="#DejaVuSans-48"/>
       <use x="127.246094" xlink:href="#DejaVuSans-48"/>
       <use x="190.869141" xlink:href="#DejaVuSans-48"/>
       <use x="254.492188" xlink:href="#DejaVuSans-48"/>
      </g>
     </g>
    </g>
    <g id="ytick_4">
     <g id="line2d_24">
      <path clip-path="url(#p6c1b6a5c98)" d="M 66.175 31.601185 
L 814.825 31.601185 
" style="fill:none;stroke:#ffffff;stroke-linecap:square;stroke-width:0.8;"/>
     </g>
     <g id="line2d_25">
      <g>
       <use style="fill:#555555;stroke:#555555;stroke-width:0.8;" x="66.175" xlink:href="#m0d02bb9025" y="31.601185"/>
      </g>
     </g>
     <g id="line2d_26">
      <g>
       <use style="fill:#555555;stroke:#555555;stroke-width:0.8;" x="814.825" xlink:href="#m7c5c799733" y="31.601185"/>
      </g>
     </g>
     <g id="text_14">
      <!-- 60000 -->
      <g style="fill:#555555;" transform="translate(27.3625 35.400404)scale(0.1 -0.1)">
       <use xlink:href="#DejaVuSans-54"/>
       <use x="63.623047" xlink:href="#DejaVuSans-48"/>
       <use x="127.246094" xlink:href="#DejaVuSans-48"/>
       <use x="190.869141" xlink:href="#DejaVuSans-48"/>
       <use x="254.492188" xlink:href="#DejaVuSans-48"/>
      </g>
     </g>
     <g id="text_15">
      <!-- 60000 -->
      <g style="fill:#555555;" transform="translate(821.825 35.400404)scale(0.1 -0.1)">
       <use xlink:href="#DejaVuSans-54"/>
       <use x="63.623047" xlink:href="#DejaVuSans-48"/>
       <use x="127.246094" xlink:href="#DejaVuSans-48"/>
       <use x="190.869141" xlink:href="#DejaVuSans-48"/>
       <use x="254.492188" xlink:href="#DejaVuSans-48"/>
      </g>
     </g>
    </g>
    <g id="text_16">
     <!-- daily change -->
     <defs>
      <path d="M 45.40625 46.390625 
L 45.40625 75.984375 
L 54.390625 75.984375 
L 54.390625 0 
L 45.40625 0 
L 45.40625 8.203125 
Q 42.578125 3.328125 38.25 0.953125 
Q 33.9375 -1.421875 27.875 -1.421875 
Q 17.96875 -1.421875 11.734375 6.484375 
Q 5.515625 14.40625 5.515625 27.296875 
Q 5.515625 40.1875 11.734375 48.09375 
Q 17.96875 56 27.875 56 
Q 33.9375 56 38.25 53.625 
Q 42.578125 51.265625 45.40625 46.390625 
z
M 14.796875 27.296875 
Q 14.796875 17.390625 18.875 11.75 
Q 22.953125 6.109375 30.078125 6.109375 
Q 37.203125 6.109375 41.296875 11.75 
Q 45.40625 17.390625 45.40625 27.296875 
Q 45.40625 37.203125 41.296875 42.84375 
Q 37.203125 48.484375 30.078125 48.484375 
Q 22.953125 48.484375 18.875 42.84375 
Q 14.796875 37.203125 14.796875 27.296875 
z
" id="DejaVuSans-100"/>
      <path d="M 34.28125 27.484375 
Q 23.390625 27.484375 19.1875 25 
Q 14.984375 22.515625 14.984375 16.5 
Q 14.984375 11.71875 18.140625 8.90625 
Q 21.296875 6.109375 26.703125 6.109375 
Q 34.1875 6.109375 38.703125 11.40625 
Q 43.21875 16.703125 43.21875 25.484375 
L 43.21875 27.484375 
z
M 52.203125 31.203125 
L 52.203125 0 
L 43.21875 0 
L 43.21875 8.296875 
Q 40.140625 3.328125 35.546875 0.953125 
Q 30.953125 -1.421875 24.3125 -1.421875 
Q 15.921875 -1.421875 10.953125 3.296875 
Q 6 8.015625 6 15.921875 
Q 6 25.140625 12.171875 29.828125 
Q 18.359375 34.515625 30.609375 34.515625 
L 43.21875 34.515625 
L 43.21875 35.40625 
Q 43.21875 41.609375 39.140625 45 
Q 35.0625 48.390625 27.6875 48.390625 
Q 23 48.390625 18.546875 47.265625 
Q 14.109375 46.140625 10.015625 43.890625 
L 10.015625 52.203125 
Q 14.9375 54.109375 19.578125 55.046875 
Q 24.21875 56 28.609375 56 
Q 40.484375 56 46.34375 49.84375 
Q 52.203125 43.703125 52.203125 31.203125 
z
" id="DejaVuSans-97"/>
      <path d="M 9.421875 54.6875 
L 18.40625 54.6875 
L 18.40625 0 
L 9.421875 0 
z
M 9.421875 75.984375 
L 18.40625 75.984375 
L 18.40625 64.59375 
L 9.421875 64.59375 
z
" id="DejaVuSans-105"/>
      <path d="M 9.421875 75.984375 
L 18.40625 75.984375 
L 18.40625 0 
L 9.421875 0 
z
" id="DejaVuSans-108"/>
      <path d="M 32.171875 -5.078125 
Q 28.375 -14.84375 24.75 -17.8125 
Q 21.140625 -20.796875 15.09375 -20.796875 
L 7.90625 -20.796875 
L 7.90625 -13.28125 
L 13.1875 -13.28125 
Q 16.890625 -13.28125 18.9375 -11.515625 
Q 21 -9.765625 23.484375 -3.21875 
L 25.09375 0.875 
L 2.984375 54.6875 
L 12.5 54.6875 
L 29.59375 11.921875 
L 46.6875 54.6875 
L 56.203125 54.6875 
z
" id="DejaVuSans-121"/>
      <path id="DejaVuSans-32"/>
      <path d="M 48.78125 52.59375 
L 48.78125 44.1875 
Q 44.96875 46.296875 41.140625 47.34375 
Q 37.3125 48.390625 33.40625 48.390625 
Q 24.65625 48.390625 19.8125 42.84375 
Q 14.984375 37.3125 14.984375 27.296875 
Q 14.984375 17.28125 19.8125 11.734375 
Q 24.65625 6.203125 33.40625 6.203125 
Q 37.3125 6.203125 41.140625 7.25 
Q 44.96875 8.296875 48.78125 10.40625 
L 48.78125 2.09375 
Q 45.015625 0.34375 40.984375 -0.53125 
Q 36.96875 -1.421875 32.421875 -1.421875 
Q 20.0625 -1.421875 12.78125 6.34375 
Q 5.515625 14.109375 5.515625 27.296875 
Q 5.515625 40.671875 12.859375 48.328125 
Q 20.21875 56 33.015625 56 
Q 37.15625 56 41.109375 55.140625 
Q 45.0625 54.296875 48.78125 52.59375 
z
" id="DejaVuSans-99"/>
      <path d="M 54.890625 33.015625 
L 54.890625 0 
L 45.90625 0 
L 45.90625 32.71875 
Q 45.90625 40.484375 42.875 44.328125 
Q 39.84375 48.1875 33.796875 48.1875 
Q 26.515625 48.1875 22.3125 43.546875 
Q 18.109375 38.921875 18.109375 30.90625 
L 18.109375 0 
L 9.078125 0 
L 9.078125 75.984375 
L 18.109375 75.984375 
L 18.109375 46.1875 
Q 21.34375 51.125 25.703125 53.5625 
Q 30.078125 56 35.796875 56 
Q 45.21875 56 50.046875 50.171875 
Q 54.890625 44.34375 54.890625 33.015625 
z
" id="DejaVuSans-104"/>
      <path d="M 54.890625 33.015625 
L 54.890625 0 
L 45.90625 0 
L 45.90625 32.71875 
Q 45.90625 40.484375 42.875 44.328125 
Q 39.84375 48.1875 33.796875 48.1875 
Q 26.515625 48.1875 22.3125 43.546875 
Q 18.109375 38.921875 18.109375 30.90625 
L 18.109375 0 
L 9.078125 0 
L 9.078125 54.6875 
L 18.109375 54.6875 
L 18.109375 46.1875 
Q 21.34375 51.125 25.703125 53.5625 
Q 30.078125 56 35.796875 56 
Q 45.21875 56 50.046875 50.171875 
Q 54.890625 44.34375 54.890625 33.015625 
z
" id="DejaVuSans-110"/>
      <path d="M 45.40625 27.984375 
Q 45.40625 37.75 41.375 43.109375 
Q 37.359375 48.484375 30.078125 48.484375 
Q 22.859375 48.484375 18.828125 43.109375 
Q 14.796875 37.75 14.796875 27.984375 
Q 14.796875 18.265625 18.828125 12.890625 
Q 22.859375 7.515625 30.078125 7.515625 
Q 37.359375 7.515625 41.375 12.890625 
Q 45.40625 18.265625 45.40625 27.984375 
z
M 54.390625 6.78125 
Q 54.390625 -7.171875 48.1875 -13.984375 
Q 42 -20.796875 29.203125 -20.796875 
Q 24.46875 -20.796875 20.265625 -20.09375 
Q 16.0625 -19.390625 12.109375 -17.921875 
L 12.109375 -9.1875 
Q 16.0625 -11.328125 19.921875 -12.34375 
Q 23.78125 -13.375 27.78125 -13.375 
Q 36.625 -13.375 41.015625 -8.765625 
Q 45.40625 -4.15625 45.40625 5.171875 
L 45.40625 9.625 
Q 42.625 4.78125 38.28125 2.390625 
Q 33.9375 0 27.875 0 
Q 17.828125 0 11.671875 7.65625 
Q 5.515625 15.328125 5.515625 27.984375 
Q 5.515625 40.671875 11.671875 48.328125 
Q 17.828125 56 27.875 56 
Q 33.9375 56 38.28125 53.609375 
Q 42.625 51.21875 45.40625 46.390625 
L 45.40625 54.6875 
L 54.390625 54.6875 
z
" id="DejaVuSans-103"/>
      <path d="M 56.203125 29.59375 
L 56.203125 25.203125 
L 14.890625 25.203125 
Q 15.484375 15.921875 20.484375 11.0625 
Q 25.484375 6.203125 34.421875 6.203125 
Q 39.59375 6.203125 44.453125 7.46875 
Q 49.3125 8.734375 54.109375 11.28125 
L 54.109375 2.78125 
Q 49.265625 0.734375 44.1875 -0.34375 
Q 39.109375 -1.421875 33.890625 -1.421875 
Q 20.796875 -1.421875 13.15625 6.1875 
Q 5.515625 13.8125 5.515625 26.8125 
Q 5.515625 40.234375 12.765625 48.109375 
Q 20.015625 56 32.328125 56 
Q 43.359375 56 49.78125 48.890625 
Q 56.203125 41.796875 56.203125 29.59375 
z
M 47.21875 32.234375 
Q 47.125 39.59375 43.09375 43.984375 
Q 39.0625 48.390625 32.421875 48.390625 
Q 24.90625 48.390625 20.390625 44.140625 
Q 15.875 39.890625 15.1875 32.171875 
z
" id="DejaVuSans-101"/>
     </defs>
     <g style="fill:#555555;" transform="translate(20.866875 119.859688)rotate(-90)scale(0.12 -0.12)">
      <use xlink:href="#DejaVuSans-100"/>
      <use x="63.476562" xlink:href="#DejaVuSans-97"/>
      <use x="124.755859" xlink:href="#DejaVuSans-105"/>
      <use x="152.539062" xlink:href="#DejaVuSans-108"/>
      <use x="180.322266" xlink:href="#DejaVuSans-121"/>
      <use x="239.501953" xlink:href="#DejaVuSans-32"/>
      <use x="271.289062" xlink:href="#DejaVuSans-99"/>
      <use x="326.269531" xlink:href="#DejaVuSans-104"/>
      <use x="389.648438" xlink:href="#DejaVuSans-97"/>
      <use x="450.927734" xlink:href="#DejaVuSans-110"/>
      <use x="514.306641" xlink:href="#DejaVuSans-103"/>
      <use x="577.783203" xlink:href="#DejaVuSans-101"/>
     </g>
    </g>
   </g>
   <g id="patch_3">
    <path clip-path="url(#p6c1b6a5c98)" d="M 100.204545 152.2 
L 102.824722 152.2 
L 102.824722 152.2 
L 100.204545 152.2 
z
" style="fill:#348abd;opacity:0.2;"/>
   </g>
   <g id="patch_4">
    <path clip-path="url(#p6c1b6a5c98)" d="M 103.479766 152.2 
L 106.099943 152.2 
L 106.099943 152.2 
L 103.479766 152.2 
z
" style="fill:#348abd;opacity:0.2;"/>
   </g>
   <g id="patch_5">
    <path clip-path="url(#p6c1b6a5c98)" d="M 106.754987 152.2 
L 109.375164 152.2 
L 109.375164 152.2 
L 106.754987 152.2 
z
" style="fill:#348abd;opacity:0.2;"/>
   </g>
   <g id="patch_6">
    <path clip-path="url(#p6c1b6a5c98)" d="M 110.030208 152.2 
L 112.650385 152.2 
L 112.650385 152.2 
L 110.030208 152.2 
z
" style="fill:#348abd;opacity:0.2;"/>
   </g>
   <g id="patch_7">
    <path clip-path="url(#p6c1b6a5c98)" d="M 113.305429 152.2 
L 115.925606 152.2 
L 115.925606 152.2 
L 113.305429 152.2 
z
" style="fill:#348abd;opacity:0.2;"/>
   </g>
   <g id="patch_8">
    <path clip-path="url(#p6c1b6a5c98)" d="M 116.58065 152.2 
L 119.200827 152.2 
L 119.200827 152.2 
L 116.58065 152.2 
z
" style="fill:#348abd;opacity:0.2;"/>
   </g>
   <g id="patch_9">
    <path clip-path="url(#p6c1b6a5c98)" d="M 119.855871 152.2 
L 122.476048 152.2 
L 122.476048 152.2 
L 119.855871 152.2 
z
" style="fill:#348abd;opacity:0.2;"/>
   </g>
   <g id="patch_10">
    <path clip-path="url(#p6c1b6a5c98)" d="M 123.131092 152.2 
L 125.751269 152.2 
L 125.751269 152.19799 
L 123.131092 152.19799 
z
" style="fill:#348abd;opacity:0.2;"/>
   </g>
   <g id="patch_11">
    <path clip-path="url(#p6c1b6a5c98)" d="M 126.406313 152.2 
L 129.02649 152.2 
L 129.02649 152.2 
L 126.406313 152.2 
z
" style="fill:#348abd;opacity:0.2;"/>
   </g>
   <g id="patch_12">
    <path clip-path="url(#p6c1b6a5c98)" d="M 129.681534 152.2 
L 132.301711 152.2 
L 132.301711 152.2 
L 129.681534 152.2 
z
" style="fill:#348abd;opacity:0.2;"/>
   </g>
   <g id="patch_13">
    <path clip-path="url(#p6c1b6a5c98)" d="M 132.956755 152.2 
L 135.576931 152.2 
L 135.576931 152.19799 
L 132.956755 152.19799 
z
" style="fill:#348abd;opacity:0.2;"/>
   </g>
   <g id="patch_14">
    <path clip-path="url(#p6c1b6a5c98)" d="M 136.231976 152.2 
L 138.852152 152.2 
L 138.852152 152.19799 
L 136.231976 152.19799 
z
" style="fill:#348abd;opacity:0.2;"/>
   </g>
   <g id="patch_15">
    <path clip-path="url(#p6c1b6a5c98)" d="M 139.507197 152.2 
L 142.127373 152.2 
L 142.127373 152.2 
L 139.507197 152.2 
z
" style="fill:#348abd;opacity:0.2;"/>
   </g>
   <g id="patch_16">
    <path clip-path="url(#p6c1b6a5c98)" d="M 142.782418 152.2 
L 145.402594 152.2 
L 145.402594 152.2 
L 142.782418 152.2 
z
" style="fill:#348abd;opacity:0.2;"/>
   </g>
   <g id="patch_17">
    <path clip-path="url(#p6c1b6a5c98)" d="M 146.057638 152.2 
L 148.677815 152.2 
L 148.677815 152.2 
L 146.057638 152.2 
z
" style="fill:#348abd;opacity:0.2;"/>
   </g>
   <g id="patch_18">
    <path clip-path="url(#p6c1b6a5c98)" d="M 149.332859 152.2 
L 151.953036 152.2 
L 151.953036 152.2 
L 149.332859 152.2 
z
" style="fill:#348abd;opacity:0.2;"/>
   </g>
   <g id="patch_19">
    <path clip-path="url(#p6c1b6a5c98)" d="M 152.60808 152.2 
L 155.228257 152.2 
L 155.228257 152.2 
L 152.60808 152.2 
z
" style="fill:#348abd;opacity:0.2;"/>
   </g>
   <g id="patch_20">
    <path clip-path="url(#p6c1b6a5c98)" d="M 155.883301 152.2 
L 158.503478 152.2 
L 158.503478 152.2 
L 155.883301 152.2 
z
" style="fill:#348abd;opacity:0.2;"/>
   </g>
   <g id="patch_21">
    <path clip-path="url(#p6c1b6a5c98)" d="M 159.158522 152.2 
L 161.778699 152.2 
L 161.778699 152.2 
L 159.158522 152.2 
z
" style="fill:#348abd;opacity:0.2;"/>
   </g>
   <g id="patch_22">
    <path clip-path="url(#p6c1b6a5c98)" d="M 162.433743 152.2 
L 165.05392 152.2 
L 165.05392 152.2 
L 162.433743 152.2 
z
" style="fill:#348abd;opacity:0.2;"/>
   </g>
   <g id="patch_23">
    <path clip-path="url(#p6c1b6a5c98)" d="M 165.708964 152.2 
L 168.329141 152.2 
L 168.329141 152.2 
L 165.708964 152.2 
z
" style="fill:#348abd;opacity:0.2;"/>
   </g>
   <g id="patch_24">
    <path clip-path="url(#p6c1b6a5c98)" d="M 168.984185 152.2 
L 171.604362 152.2 
L 171.604362 152.2 
L 168.984185 152.2 
z
" style="fill:#348abd;opacity:0.2;"/>
   </g>
   <g id="patch_25">
    <path clip-path="url(#p6c1b6a5c98)" d="M 172.259406 152.2 
L 174.879583 152.2 
L 174.879583 152.2 
L 172.259406 152.2 
z
" style="fill:#348abd;opacity:0.2;"/>
   </g>
   <g id="patch_26">
    <path clip-path="url(#p6c1b6a5c98)" d="M 175.534627 152.2 
L 178.154804 152.2 
L 178.154804 152.2 
L 175.534627 152.2 
z
" style="fill:#348abd;opacity:0.2;"/>
   </g>
   <g id="patch_27">
    <path clip-path="url(#p6c1b6a5c98)" d="M 178.809848 152.2 
L 181.430024 152.2 
L 181.430024 152.2 
L 178.809848 152.2 
z
" style="fill:#348abd;opacity:0.2;"/>
   </g>
   <g id="patch_28">
    <path clip-path="url(#p6c1b6a5c98)" d="M 182.085069 152.2 
L 184.705245 152.2 
L 184.705245 152.2 
L 182.085069 152.2 
z
" style="fill:#348abd;opacity:0.2;"/>
   </g>
   <g id="patch_29">
    <path clip-path="url(#p6c1b6a5c98)" d="M 185.36029 152.2 
L 187.980466 152.2 
L 187.980466 152.2 
L 185.36029 152.2 
z
" style="fill:#348abd;opacity:0.2;"/>
   </g>
   <g id="patch_30">
    <path clip-path="url(#p6c1b6a5c98)" d="M 188.635511 152.2 
L 191.255687 152.2 
L 191.255687 152.2 
L 188.635511 152.2 
z
" style="fill:#348abd;opacity:0.2;"/>
   </g>
   <g id="patch_31">
    <path clip-path="url(#p6c1b6a5c98)" d="M 191.910731 152.2 
L 194.530908 152.2 
L 194.530908 152.2 
L 191.910731 152.2 
z
" style="fill:#348abd;opacity:0.2;"/>
   </g>
   <g id="patch_32">
    <path clip-path="url(#p6c1b6a5c98)" d="M 195.185952 152.2 
L 197.806129 152.2 
L 197.806129 152.2 
L 195.185952 152.2 
z
" style="fill:#348abd;opacity:0.2;"/>
   </g>
   <g id="patch_33">
    <path clip-path="url(#p6c1b6a5c98)" d="M 198.461173 152.2 
L 201.08135 152.2 
L 201.08135 152.2 
L 198.461173 152.2 
z
" style="fill:#348abd;opacity:0.2;"/>
   </g>
   <g id="patch_34">
    <path clip-path="url(#p6c1b6a5c98)" d="M 201.736394 152.2 
L 204.356571 152.2 
L 204.356571 152.2 
L 201.736394 152.2 
z
" style="fill:#348abd;opacity:0.2;"/>
   </g>
   <g id="patch_35">
    <path clip-path="url(#p6c1b6a5c98)" d="M 205.011615 152.2 
L 207.631792 152.2 
L 207.631792 152.2 
L 205.011615 152.2 
z
" style="fill:#348abd;opacity:0.2;"/>
   </g>
   <g id="patch_36">
    <path clip-path="url(#p6c1b6a5c98)" d="M 208.286836 152.2 
L 210.907013 152.2 
L 210.907013 152.2 
L 208.286836 152.2 
z
" style="fill:#348abd;opacity:0.2;"/>
   </g>
   <g id="patch_37">
    <path clip-path="url(#p6c1b6a5c98)" d="M 211.562057 152.2 
L 214.182234 152.2 
L 214.182234 152.2 
L 211.562057 152.2 
z
" style="fill:#348abd;opacity:0.2;"/>
   </g>
   <g id="patch_38">
    <path clip-path="url(#p6c1b6a5c98)" d="M 214.837278 152.2 
L 217.457455 152.2 
L 217.457455 152.2 
L 214.837278 152.2 
z
" style="fill:#348abd;opacity:0.2;"/>
   </g>
   <g id="patch_39">
    <path clip-path="url(#p6c1b6a5c98)" d="M 218.112499 152.2 
L 220.732676 152.2 
L 220.732676 152.2 
L 218.112499 152.2 
z
" style="fill:#348abd;opacity:0.2;"/>
   </g>
   <g id="patch_40">
    <path clip-path="url(#p6c1b6a5c98)" d="M 221.38772 152.2 
L 224.007897 152.2 
L 224.007897 152.2 
L 221.38772 152.2 
z
" style="fill:#348abd;opacity:0.2;"/>
   </g>
   <g id="patch_41">
    <path clip-path="url(#p6c1b6a5c98)" d="M 224.662941 152.2 
L 227.283118 152.2 
L 227.283118 152.2 
L 224.662941 152.2 
z
" style="fill:#348abd;opacity:0.2;"/>
   </g>
   <g id="patch_42">
    <path clip-path="url(#p6c1b6a5c98)" d="M 227.938162 152.2 
L 230.558338 152.2 
L 230.558338 152.19598 
L 227.938162 152.19598 
z
" style="fill:#348abd;opacity:0.2;"/>
   </g>
   <g id="patch_43">
    <path clip-path="url(#p6c1b6a5c98)" d="M 231.213383 152.2 
L 233.833559 152.2 
L 233.833559 152.2 
L 231.213383 152.2 
z
" style="fill:#348abd;opacity:0.2;"/>
   </g>
   <g id="patch_44">
    <path clip-path="url(#p6c1b6a5c98)" d="M 234.488604 152.2 
L 237.10878 152.2 
L 237.10878 152.15377 
L 234.488604 152.15377 
z
" style="fill:#348abd;opacity:0.2;"/>
   </g>
   <g id="patch_45">
    <path clip-path="url(#p6c1b6a5c98)" d="M 237.763824 152.2 
L 240.384001 152.2 
L 240.384001 152.19598 
L 237.763824 152.19598 
z
" style="fill:#348abd;opacity:0.2;"/>
   </g>
   <g id="patch_46">
    <path clip-path="url(#p6c1b6a5c98)" d="M 241.039045 152.2 
L 243.659222 152.2 
L 243.659222 152.19799 
L 241.039045 152.19799 
z
" style="fill:#348abd;opacity:0.2;"/>
   </g>
   <g id="patch_47">
    <path clip-path="url(#p6c1b6a5c98)" d="M 244.314266 152.2 
L 246.934443 152.2 
L 246.934443 152.19397 
L 244.314266 152.19397 
z
" style="fill:#348abd;opacity:0.2;"/>
   </g>
   <g id="patch_48">
    <path clip-path="url(#p6c1b6a5c98)" d="M 247.589487 152.2 
L 250.209664 152.2 
L 250.209664 152.18995 
L 247.589487 152.18995 
z
" style="fill:#348abd;opacity:0.2;"/>
   </g>
   <g id="patch_49">
    <path clip-path="url(#p6c1b6a5c98)" d="M 250.864708 152.2 
L 253.484885 152.2 
L 253.484885 152.19196 
L 250.864708 152.19196 
z
" style="fill:#348abd;opacity:0.2;"/>
   </g>
   <g id="patch_50">
    <path clip-path="url(#p6c1b6a5c98)" d="M 254.139929 152.2 
L 256.760106 152.2 
L 256.760106 152.17387 
L 254.139929 152.17387 
z
" style="fill:#348abd;opacity:0.2;"/>
   </g>
   <g id="patch_51">
    <path clip-path="url(#p6c1b6a5c98)" d="M 257.41515 152.2 
L 260.035327 152.2 
L 260.035327 152.18794 
L 257.41515 152.18794 
z
" style="fill:#348abd;opacity:0.2;"/>
   </g>
   <g id="patch_52">
    <path clip-path="url(#p6c1b6a5c98)" d="M 260.690371 152.2 
L 263.310548 152.2 
L 263.310548 152.17789 
L 260.690371 152.17789 
z
" style="fill:#348abd;opacity:0.2;"/>
   </g>
   <g id="patch_53">
    <path clip-path="url(#p6c1b6a5c98)" d="M 263.965592 152.2 
L 266.585769 152.2 
L 266.585769 152.18191 
L 263.965592 152.18191 
z
" style="fill:#348abd;opacity:0.2;"/>
   </g>
   <g id="patch_54">
    <path clip-path="url(#p6c1b6a5c98)" d="M 267.240813 152.2 
L 269.86099 152.2 
L 269.86099 152.1598 
L 267.240813 152.1598 
z
" style="fill:#348abd;opacity:0.2;"/>
   </g>
   <g id="patch_55">
    <path clip-path="url(#p6c1b6a5c98)" d="M 270.516034 152.2 
L 273.136211 152.2 
L 273.136211 152.17789 
L 270.516034 152.17789 
z
" style="fill:#348abd;opacity:0.2;"/>
   </g>
   <g id="patch_56">
    <path clip-path="url(#p6c1b6a5c98)" d="M 273.791255 152.2 
L 276.411431 152.2 
L 276.411431 152.18794 
L 273.791255 152.18794 
z
" style="fill:#348abd;opacity:0.2;"/>
   </g>
   <g id="patch_57">
    <path clip-path="url(#p6c1b6a5c98)" d="M 277.066476 152.2 
L 279.686652 152.2 
L 279.686652 152.15377 
L 277.066476 152.15377 
z
" style="fill:#348abd;opacity:0.2;"/>
   </g>
   <g id="patch_58">
    <path clip-path="url(#p6c1b6a5c98)" d="M 280.341697 152.2 
L 282.961873 152.2 
L 282.961873 152.17186 
L 280.341697 152.17186 
z
" style="fill:#348abd;opacity:0.2;"/>
   </g>
   <g id="patch_59">
    <path clip-path="url(#p6c1b6a5c98)" d="M 283.616917 152.2 
L 286.237094 152.2 
L 286.237094 152.123621 
L 283.616917 152.123621 
z
" style="fill:#348abd;opacity:0.2;"/>
   </g>
   <g id="patch_60">
    <path clip-path="url(#p6c1b6a5c98)" d="M 286.892138 152.2 
L 289.512315 152.2 
L 289.512315 152.099501 
L 286.892138 152.099501 
z
" style="fill:#348abd;opacity:0.2;"/>
   </g>
   <g id="patch_61">
    <path clip-path="url(#p6c1b6a5c98)" d="M 290.167359 152.2 
L 292.787536 152.2 
L 292.787536 152.027142 
L 290.167359 152.027142 
z
" style="fill:#348abd;opacity:0.2;"/>
   </g>
   <g id="patch_62">
    <path clip-path="url(#p6c1b6a5c98)" d="M 293.44258 152.2 
L 296.062757 152.2 
L 296.062757 152.067341 
L 293.44258 152.067341 
z
" style="fill:#348abd;opacity:0.2;"/>
   </g>
   <g id="patch_63">
    <path clip-path="url(#p6c1b6a5c98)" d="M 296.717801 152.2 
L 299.337978 152.2 
L 299.337978 151.992972 
L 296.717801 151.992972 
z
" style="fill:#348abd;opacity:0.2;"/>
   </g>
   <g id="patch_64">
    <path clip-path="url(#p6c1b6a5c98)" d="M 299.993022 152.2 
L 302.613199 152.2 
L 302.613199 152.125631 
L 299.993022 152.125631 
z
" style="fill:#348abd;opacity:0.2;"/>
   </g>
   <g id="patch_65">
    <path clip-path="url(#p6c1b6a5c98)" d="M 303.268243 152.2 
L 305.88842 152.2 
L 305.88842 151.956792 
L 303.268243 151.956792 
z
" style="fill:#348abd;opacity:0.2;"/>
   </g>
   <g id="patch_66">
    <path clip-path="url(#p6c1b6a5c98)" d="M 306.543464 152.2 
L 309.163641 152.2 
L 309.163641 152.059301 
L 306.543464 152.059301 
z
" style="fill:#348abd;opacity:0.2;"/>
   </g>
   <g id="patch_67">
    <path clip-path="url(#p6c1b6a5c98)" d="M 309.818685 152.2 
L 312.438862 152.2 
L 312.438862 151.878403 
L 309.818685 151.878403 
z
" style="fill:#348abd;opacity:0.2;"/>
   </g>
   <g id="patch_68">
    <path clip-path="url(#p6c1b6a5c98)" d="M 313.093906 152.2 
L 315.714083 152.2 
L 315.714083 151.999002 
L 313.093906 151.999002 
z
" style="fill:#348abd;opacity:0.2;"/>
   </g>
   <g id="patch_69">
    <path clip-path="url(#p6c1b6a5c98)" d="M 316.369127 152.2 
L 318.989304 152.2 
L 318.989304 152.125631 
L 316.369127 152.125631 
z
" style="fill:#348abd;opacity:0.2;"/>
   </g>
   <g id="patch_70">
    <path clip-path="url(#p6c1b6a5c98)" d="M 319.644348 152.2 
L 322.264524 152.2 
L 322.264524 151.743734 
L 319.644348 151.743734 
z
" style="fill:#348abd;opacity:0.2;"/>
   </g>
   <g id="patch_71">
    <path clip-path="url(#p6c1b6a5c98)" d="M 322.919569 152.2 
L 325.539745 152.2 
L 325.539745 151.906543 
L 322.919569 151.906543 
z
" style="fill:#348abd;opacity:0.2;"/>
   </g>
   <g id="patch_72">
    <path clip-path="url(#p6c1b6a5c98)" d="M 326.19479 152.2 
L 328.814966 152.2 
L 328.814966 150.992002 
L 326.19479 150.992002 
z
" style="fill:#348abd;opacity:0.2;"/>
   </g>
   <g id="patch_73">
    <path clip-path="url(#p6c1b6a5c98)" d="M 329.47001 152.2 
L 332.090187 152.2 
L 332.090187 151.104561 
L 329.47001 151.104561 
z
" style="fill:#348abd;opacity:0.2;"/>
   </g>
   <g id="patch_74">
    <path clip-path="url(#p6c1b6a5c98)" d="M 332.745231 152.2 
L 335.365408 152.2 
L 335.365408 152.15176 
L 332.745231 152.15176 
z
" style="fill:#348abd;opacity:0.2;"/>
   </g>
   <g id="patch_75">
    <path clip-path="url(#p6c1b6a5c98)" d="M 336.020452 152.2 
L 338.640629 152.2 
L 338.640629 151.16486 
L 336.020452 151.16486 
z
" style="fill:#348abd;opacity:0.2;"/>
   </g>
   <g id="patch_76">
    <path clip-path="url(#p6c1b6a5c98)" d="M 339.295673 152.2 
L 341.91585 152.2 
L 341.91585 151.18295 
L 339.295673 151.18295 
z
" style="fill:#348abd;opacity:0.2;"/>
   </g>
   <g id="patch_77">
    <path clip-path="url(#p6c1b6a5c98)" d="M 342.570894 152.2 
L 345.191071 152.2 
L 345.191071 149.808124 
L 342.570894 149.808124 
z
" style="fill:#348abd;opacity:0.2;"/>
   </g>
   <g id="patch_78">
    <path clip-path="url(#p6c1b6a5c98)" d="M 345.846115 152.2 
L 348.466292 152.2 
L 348.466292 151.128681 
L 345.846115 151.128681 
z
" style="fill:#348abd;opacity:0.2;"/>
   </g>
   <g id="patch_79">
    <path clip-path="url(#p6c1b6a5c98)" d="M 349.121336 152.2 
L 351.741513 152.2 
L 351.741513 150.983962 
L 349.121336 150.983962 
z
" style="fill:#348abd;opacity:0.2;"/>
   </g>
   <g id="patch_80">
    <path clip-path="url(#p6c1b6a5c98)" d="M 352.396557 152.2 
L 355.016734 152.2 
L 355.016734 150.573926 
L 352.396557 150.573926 
z
" style="fill:#348abd;opacity:0.2;"/>
   </g>
   <g id="patch_81">
    <path clip-path="url(#p6c1b6a5c98)" d="M 355.671778 152.2 
L 358.291955 152.2 
L 358.291955 150.445287 
L 355.671778 150.445287 
z
" style="fill:#348abd;opacity:0.2;"/>
   </g>
   <g id="patch_82">
    <path clip-path="url(#p6c1b6a5c98)" d="M 358.946999 152.2 
L 361.567176 152.2 
L 361.567176 150.495537 
L 358.946999 150.495537 
z
" style="fill:#348abd;opacity:0.2;"/>
   </g>
   <g id="patch_83">
    <path clip-path="url(#p6c1b6a5c98)" d="M 362.22222 152.2 
L 364.842397 152.2 
L 364.842397 150.674425 
L 362.22222 150.674425 
z
" style="fill:#348abd;opacity:0.2;"/>
   </g>
   <g id="patch_84">
    <path clip-path="url(#p6c1b6a5c98)" d="M 365.497441 152.2 
L 368.117617 152.2 
L 368.117617 149.691545 
L 365.497441 149.691545 
z
" style="fill:#348abd;opacity:0.2;"/>
   </g>
   <g id="patch_85">
    <path clip-path="url(#p6c1b6a5c98)" d="M 368.772662 152.2 
L 371.392838 152.2 
L 371.392838 150.12168 
L 368.772662 150.12168 
z
" style="fill:#348abd;opacity:0.2;"/>
   </g>
   <g id="patch_86">
    <path clip-path="url(#p6c1b6a5c98)" d="M 372.047883 152.2 
L 374.668059 152.2 
L 374.668059 150.521666 
L 372.047883 150.521666 
z
" style="fill:#348abd;opacity:0.2;"/>
   </g>
   <g id="patch_87">
    <path clip-path="url(#p6c1b6a5c98)" d="M 375.323104 152.2 
L 377.94328 152.2 
L 377.94328 149.972942 
L 375.323104 149.972942 
z
" style="fill:#348abd;opacity:0.2;"/>
   </g>
   <g id="patch_88">
    <path clip-path="url(#p6c1b6a5c98)" d="M 378.598324 152.2 
L 381.218501 152.2 
L 381.218501 150.346798 
L 378.598324 150.346798 
z
" style="fill:#348abd;opacity:0.2;"/>
   </g>
   <g id="patch_89">
    <path clip-path="url(#p6c1b6a5c98)" d="M 381.873545 152.2 
L 384.493722 152.2 
L 384.493722 149.446327 
L 381.873545 149.446327 
z
" style="fill:#348abd;opacity:0.2;"/>
   </g>
   <g id="patch_90">
    <path clip-path="url(#p6c1b6a5c98)" d="M 385.148766 152.2 
L 387.768943 152.2 
L 387.768943 148.395107 
L 385.148766 148.395107 
z
" style="fill:#348abd;opacity:0.2;"/>
   </g>
   <g id="patch_91">
    <path clip-path="url(#p6c1b6a5c98)" d="M 388.423987 152.2 
L 391.044164 152.2 
L 391.044164 150.342778 
L 388.423987 150.342778 
z
" style="fill:#348abd;opacity:0.2;"/>
   </g>
   <g id="patch_92">
    <path clip-path="url(#p6c1b6a5c98)" d="M 391.699208 152.2 
L 394.319385 152.2 
L 394.319385 149.10262 
L 391.699208 149.10262 
z
" style="fill:#348abd;opacity:0.2;"/>
   </g>
   <g id="patch_93">
    <path clip-path="url(#p6c1b6a5c98)" d="M 394.974429 152.2 
L 397.594606 152.2 
L 397.594606 149.607125 
L 394.974429 149.607125 
z
" style="fill:#348abd;opacity:0.2;"/>
   </g>
   <g id="patch_94">
    <path clip-path="url(#p6c1b6a5c98)" d="M 398.24965 152.2 
L 400.869827 152.2 
L 400.869827 148.768964 
L 398.24965 148.768964 
z
" style="fill:#348abd;opacity:0.2;"/>
   </g>
   <g id="patch_95">
    <path clip-path="url(#p6c1b6a5c98)" d="M 401.524871 152.2 
L 404.145048 152.2 
L 404.145048 149.279499 
L 401.524871 149.279499 
z
" style="fill:#348abd;opacity:0.2;"/>
   </g>
   <g id="patch_96">
    <path clip-path="url(#p6c1b6a5c98)" d="M 404.800092 152.2 
L 407.420269 152.2 
L 407.420269 148.676505 
L 404.800092 148.676505 
z
" style="fill:#348abd;opacity:0.2;"/>
   </g>
   <g id="patch_97">
    <path clip-path="url(#p6c1b6a5c98)" d="M 408.075313 152.2 
L 410.69549 152.2 
L 410.69549 148.969962 
L 408.075313 148.969962 
z
" style="fill:#348abd;opacity:0.2;"/>
   </g>
   <g id="patch_98">
    <path clip-path="url(#p6c1b6a5c98)" d="M 411.350534 152.2 
L 413.97071 152.2 
L 413.97071 149.062421 
L 411.350534 149.062421 
z
" style="fill:#348abd;opacity:0.2;"/>
   </g>
   <g id="patch_99">
    <path clip-path="url(#p6c1b6a5c98)" d="M 414.625755 152.2 
L 417.245931 152.2 
L 417.245931 148.435307 
L 414.625755 148.435307 
z
" style="fill:#348abd;opacity:0.2;"/>
   </g>
   <g id="patch_100">
    <path clip-path="url(#p6c1b6a5c98)" d="M 417.900976 152.2 
L 420.521152 152.2 
L 420.521152 148.706654 
L 417.900976 148.706654 
z
" style="fill:#348abd;opacity:0.2;"/>
   </g>
   <g id="patch_101">
    <path clip-path="url(#p6c1b6a5c98)" d="M 421.176197 152.2 
L 423.796373 152.2 
L 423.796373 148.580026 
L 421.176197 148.580026 
z
" style="fill:#348abd;opacity:0.2;"/>
   </g>
   <g id="patch_102">
    <path clip-path="url(#p6c1b6a5c98)" d="M 424.451417 152.2 
L 427.071594 152.2 
L 427.071594 147.388107 
L 424.451417 147.388107 
z
" style="fill:#348abd;opacity:0.2;"/>
   </g>
   <g id="patch_103">
    <path clip-path="url(#p6c1b6a5c98)" d="M 427.726638 152.2 
L 430.346815 152.2 
L 430.346815 147.291628 
L 427.726638 147.291628 
z
" style="fill:#348abd;opacity:0.2;"/>
   </g>
   <g id="patch_104">
    <path clip-path="url(#p6c1b6a5c98)" d="M 431.001859 152.2 
L 433.622036 152.2 
L 433.622036 146.559995 
L 431.001859 146.559995 
z
" style="fill:#348abd;opacity:0.2;"/>
   </g>
   <g id="patch_105">
    <path clip-path="url(#p6c1b6a5c98)" d="M 434.27708 152.2 
L 436.897257 152.2 
L 436.897257 144.296758 
L 434.27708 144.296758 
z
" style="fill:#348abd;opacity:0.2;"/>
   </g>
   <g id="patch_106">
    <path clip-path="url(#p6c1b6a5c98)" d="M 437.552301 152.2 
L 440.172478 152.2 
L 440.172478 146.244429 
L 437.552301 146.244429 
z
" style="fill:#348abd;opacity:0.2;"/>
   </g>
   <g id="patch_107">
    <path clip-path="url(#p6c1b6a5c98)" d="M 440.827522 152.2 
L 443.447699 152.2 
L 443.447699 144.990201 
L 440.827522 144.990201 
z
" style="fill:#348abd;opacity:0.2;"/>
   </g>
   <g id="patch_108">
    <path clip-path="url(#p6c1b6a5c98)" d="M 444.102743 152.2 
L 446.72292 152.2 
L 446.72292 145.438426 
L 444.102743 145.438426 
z
" style="fill:#348abd;opacity:0.2;"/>
   </g>
   <g id="patch_109">
    <path clip-path="url(#p6c1b6a5c98)" d="M 447.377964 152.2 
L 449.998141 152.2 
L 449.998141 145.478626 
L 447.377964 145.478626 
z
" style="fill:#348abd;opacity:0.2;"/>
   </g>
   <g id="patch_110">
    <path clip-path="url(#p6c1b6a5c98)" d="M 450.653185 152.2 
L 453.273362 152.2 
L 453.273362 145.942931 
L 450.653185 145.942931 
z
" style="fill:#348abd;opacity:0.2;"/>
   </g>
   <g id="patch_111">
    <path clip-path="url(#p6c1b6a5c98)" d="M 453.928406 152.2 
L 456.548583 152.2 
L 456.548583 143.450556 
L 453.928406 143.450556 
z
" style="fill:#348abd;opacity:0.2;"/>
   </g>
   <g id="patch_112">
    <path clip-path="url(#p6c1b6a5c98)" d="M 457.203627 152.2 
L 459.823803 152.2 
L 459.823803 144.950001 
L 457.203627 144.950001 
z
" style="fill:#348abd;opacity:0.2;"/>
   </g>
   <g id="patch_113">
    <path clip-path="url(#p6c1b6a5c98)" d="M 460.478848 152.2 
L 463.099024 152.2 
L 463.099024 145.11683 
L 460.478848 145.11683 
z
" style="fill:#348abd;opacity:0.2;"/>
   </g>
   <g id="patch_114">
    <path clip-path="url(#p6c1b6a5c98)" d="M 463.754069 152.2 
L 466.374245 152.2 
L 466.374245 144.636444 
L 463.754069 144.636444 
z
" style="fill:#348abd;opacity:0.2;"/>
   </g>
   <g id="patch_115">
    <path clip-path="url(#p6c1b6a5c98)" d="M 467.02929 152.2 
L 469.649466 152.2 
L 469.649466 144.276658 
L 467.02929 144.276658 
z
" style="fill:#348abd;opacity:0.2;"/>
   </g>
   <g id="patch_116">
    <path clip-path="url(#p6c1b6a5c98)" d="M 470.30451 152.2 
L 472.924687 152.2 
L 472.924687 144.588205 
L 470.30451 144.588205 
z
" style="fill:#348abd;opacity:0.2;"/>
   </g>
   <g id="patch_117">
    <path clip-path="url(#p6c1b6a5c98)" d="M 473.579731 152.2 
L 476.199908 152.2 
L 476.199908 142.423456 
L 473.579731 142.423456 
z
" style="fill:#348abd;opacity:0.2;"/>
   </g>
   <g id="patch_118">
    <path clip-path="url(#p6c1b6a5c98)" d="M 476.854952 152.2 
L 479.475129 152.2 
L 479.475129 142.0496 
L 476.854952 142.0496 
z
" style="fill:#348abd;opacity:0.2;"/>
   </g>
   <g id="patch_119">
    <path clip-path="url(#p6c1b6a5c98)" d="M 480.130173 152.2 
L 482.75035 152.2 
L 482.75035 142.893791 
L 480.130173 142.893791 
z
" style="fill:#348abd;opacity:0.2;"/>
   </g>
   <g id="patch_120">
    <path clip-path="url(#p6c1b6a5c98)" d="M 483.405394 152.2 
L 486.025571 152.2 
L 486.025571 139.844651 
L 483.405394 139.844651 
z
" style="fill:#348abd;opacity:0.2;"/>
   </g>
   <g id="patch_121">
    <path clip-path="url(#p6c1b6a5c98)" d="M 486.680615 152.2 
L 489.300792 152.2 
L 489.300792 141.03858 
L 486.680615 141.03858 
z
" style="fill:#348abd;opacity:0.2;"/>
   </g>
   <g id="patch_122">
    <path clip-path="url(#p6c1b6a5c98)" d="M 489.955836 152.2 
L 492.576013 152.2 
L 492.576013 139.742142 
L 489.955836 139.742142 
z
" style="fill:#348abd;opacity:0.2;"/>
   </g>
   <g id="patch_123">
    <path clip-path="url(#p6c1b6a5c98)" d="M 493.231057 152.2 
L 495.851234 152.2 
L 495.851234 138.99845 
L 493.231057 138.99845 
z
" style="fill:#348abd;opacity:0.2;"/>
   </g>
   <g id="patch_124">
    <path clip-path="url(#p6c1b6a5c98)" d="M 496.506278 152.2 
L 499.126455 152.2 
L 499.126455 138.875841 
L 496.506278 138.875841 
z
" style="fill:#348abd;opacity:0.2;"/>
   </g>
   <g id="patch_125">
    <path clip-path="url(#p6c1b6a5c98)" d="M 499.781499 152.2 
L 502.401676 152.2 
L 502.401676 137.90301 
L 499.781499 137.90301 
z
" style="fill:#348abd;opacity:0.2;"/>
   </g>
   <g id="patch_126">
    <path clip-path="url(#p6c1b6a5c98)" d="M 503.05672 152.2 
L 505.676896 152.2 
L 505.676896 139.307987 
L 503.05672 139.307987 
z
" style="fill:#348abd;opacity:0.2;"/>
   </g>
   <g id="patch_127">
    <path clip-path="url(#p6c1b6a5c98)" d="M 506.331941 152.2 
L 508.952117 152.2 
L 508.952117 140.455685 
L 506.331941 140.455685 
z
" style="fill:#348abd;opacity:0.2;"/>
   </g>
   <g id="patch_128">
    <path clip-path="url(#p6c1b6a5c98)" d="M 509.607162 152.2 
L 512.227338 152.2 
L 512.227338 137.541214 
L 509.607162 137.541214 
z
" style="fill:#348abd;opacity:0.2;"/>
   </g>
   <g id="patch_129">
    <path clip-path="url(#p6c1b6a5c98)" d="M 512.882383 152.2 
L 515.502559 152.2 
L 515.502559 137.527144 
L 512.882383 137.527144 
z
" style="fill:#348abd;opacity:0.2;"/>
   </g>
   <g id="patch_130">
    <path clip-path="url(#p6c1b6a5c98)" d="M 516.157603 152.2 
L 518.77778 152.2 
L 518.77778 135.90911 
L 516.157603 135.90911 
z
" style="fill:#348abd;opacity:0.2;"/>
   </g>
   <g id="patch_131">
    <path clip-path="url(#p6c1b6a5c98)" d="M 519.432824 152.2 
L 522.053001 152.2 
L 522.053001 135.444805 
L 519.432824 135.444805 
z
" style="fill:#348abd;opacity:0.2;"/>
   </g>
   <g id="patch_132">
    <path clip-path="url(#p6c1b6a5c98)" d="M 522.708045 152.2 
L 525.328222 152.2 
L 525.328222 134.548353 
L 522.708045 134.548353 
z
" style="fill:#348abd;opacity:0.2;"/>
   </g>
   <g id="patch_133">
    <path clip-path="url(#p6c1b6a5c98)" d="M 525.983266 152.2 
L 528.603443 152.2 
L 528.603443 136.600543 
L 525.983266 136.600543 
z
" style="fill:#348abd;opacity:0.2;"/>
   </g>
   <g id="patch_134">
    <path clip-path="url(#p6c1b6a5c98)" d="M 529.258487 152.2 
L 531.878664 152.2 
L 531.878664 134.469964 
L 529.258487 134.469964 
z
" style="fill:#348abd;opacity:0.2;"/>
   </g>
   <g id="patch_135">
    <path clip-path="url(#p6c1b6a5c98)" d="M 532.533708 152.2 
L 535.153885 152.2 
L 535.153885 132.83786 
L 532.533708 132.83786 
z
" style="fill:#348abd;opacity:0.2;"/>
   </g>
   <g id="patch_136">
    <path clip-path="url(#p6c1b6a5c98)" d="M 535.808929 152.2 
L 538.429106 152.2 
L 538.429106 132.323305 
L 535.808929 132.323305 
z
" style="fill:#348abd;opacity:0.2;"/>
   </g>
   <g id="patch_137">
    <path clip-path="url(#p6c1b6a5c98)" d="M 539.08415 152.2 
L 541.704327 152.2 
L 541.704327 133.163477 
L 539.08415 133.163477 
z
" style="fill:#348abd;opacity:0.2;"/>
   </g>
   <g id="patch_138">
    <path clip-path="url(#p6c1b6a5c98)" d="M 542.359371 152.2 
L 544.979548 152.2 
L 544.979548 131.219826 
L 542.359371 131.219826 
z
" style="fill:#348abd;opacity:0.2;"/>
   </g>
   <g id="patch_139">
    <path clip-path="url(#p6c1b6a5c98)" d="M 545.634592 152.2 
L 548.254769 152.2 
L 548.254769 130.363575 
L 545.634592 130.363575 
z
" style="fill:#348abd;opacity:0.2;"/>
   </g>
   <g id="patch_140">
    <path clip-path="url(#p6c1b6a5c98)" d="M 548.909813 152.2 
L 551.52999 152.2 
L 551.52999 135.231747 
L 548.909813 135.231747 
z
" style="fill:#348abd;opacity:0.2;"/>
   </g>
   <g id="patch_141">
    <path clip-path="url(#p6c1b6a5c98)" d="M 552.185034 152.2 
L 554.80521 152.2 
L 554.80521 131.662022 
L 552.185034 131.662022 
z
" style="fill:#348abd;opacity:0.2;"/>
   </g>
   <g id="patch_142">
    <path clip-path="url(#p6c1b6a5c98)" d="M 555.460255 152.2 
L 558.080431 152.2 
L 558.080431 131.177617 
L 555.460255 131.177617 
z
" style="fill:#348abd;opacity:0.2;"/>
   </g>
   <g id="patch_143">
    <path clip-path="url(#p6c1b6a5c98)" d="M 558.735476 152.2 
L 561.355652 152.2 
L 561.355652 130.230916 
L 558.735476 130.230916 
z
" style="fill:#348abd;opacity:0.2;"/>
   </g>
   <g id="patch_144">
    <path clip-path="url(#p6c1b6a5c98)" d="M 562.010696 152.2 
L 564.630873 152.2 
L 564.630873 129.169646 
L 562.010696 129.169646 
z
" style="fill:#348abd;opacity:0.2;"/>
   </g>
   <g id="patch_145">
    <path clip-path="url(#p6c1b6a5c98)" d="M 565.285917 152.2 
L 567.906094 152.2 
L 567.906094 128.222946 
L 565.285917 128.222946 
z
" style="fill:#348abd;opacity:0.2;"/>
   </g>
   <g id="patch_146">
    <path clip-path="url(#p6c1b6a5c98)" d="M 568.561138 152.2 
L 571.181315 152.2 
L 571.181315 129.081207 
L 568.561138 129.081207 
z
" style="fill:#348abd;opacity:0.2;"/>
   </g>
   <g id="patch_147">
    <path clip-path="url(#p6c1b6a5c98)" d="M 571.836359 152.2 
L 574.456536 152.2 
L 574.456536 130.759541 
L 571.836359 130.759541 
z
" style="fill:#348abd;opacity:0.2;"/>
   </g>
   <g id="patch_148">
    <path clip-path="url(#p6c1b6a5c98)" d="M 575.11158 152.2 
L 577.731757 152.2 
L 577.731757 130.142477 
L 575.11158 130.142477 
z
" style="fill:#348abd;opacity:0.2;"/>
   </g>
   <g id="patch_149">
    <path clip-path="url(#p6c1b6a5c98)" d="M 578.386801 152.2 
L 581.006978 152.2 
L 581.006978 126.309444 
L 578.386801 126.309444 
z
" style="fill:#348abd;opacity:0.2;"/>
   </g>
   <g id="patch_150">
    <path clip-path="url(#p6c1b6a5c98)" d="M 581.662022 152.2 
L 584.282199 152.2 
L 584.282199 124.892408 
L 581.662022 124.892408 
z
" style="fill:#348abd;opacity:0.2;"/>
   </g>
   <g id="patch_151">
    <path clip-path="url(#p6c1b6a5c98)" d="M 584.937243 152.2 
L 587.55742 152.2 
L 587.55742 123.023127 
L 584.937243 123.023127 
z
" style="fill:#348abd;opacity:0.2;"/>
   </g>
   <g id="patch_152">
    <path clip-path="url(#p6c1b6a5c98)" d="M 588.212464 152.2 
L 590.832641 152.2 
L 590.832641 121.240274 
L 588.212464 121.240274 
z
" style="fill:#348abd;opacity:0.2;"/>
   </g>
   <g id="patch_153">
    <path clip-path="url(#p6c1b6a5c98)" d="M 591.487685 152.2 
L 594.107862 152.2 
L 594.107862 122.389983 
L 591.487685 122.389983 
z
" style="fill:#348abd;opacity:0.2;"/>
   </g>
   <g id="patch_154">
    <path clip-path="url(#p6c1b6a5c98)" d="M 594.762906 152.2 
L 597.383083 152.2 
L 597.383083 122.184965 
L 594.762906 122.184965 
z
" style="fill:#348abd;opacity:0.2;"/>
   </g>
   <g id="patch_155">
    <path clip-path="url(#p6c1b6a5c98)" d="M 598.038127 152.2 
L 600.658303 152.2 
L 600.658303 120.104635 
L 598.038127 120.104635 
z
" style="fill:#348abd;opacity:0.2;"/>
   </g>
   <g id="patch_156">
    <path clip-path="url(#p6c1b6a5c98)" d="M 601.313348 152.2 
L 603.933524 152.2 
L 603.933524 118.187114 
L 601.313348 118.187114 
z
" style="fill:#348abd;opacity:0.2;"/>
   </g>
   <g id="patch_157">
    <path clip-path="url(#p6c1b6a5c98)" d="M 604.588569 152.2 
L 607.208745 152.2 
L 607.208745 117.435382 
L 604.588569 117.435382 
z
" style="fill:#348abd;opacity:0.2;"/>
   </g>
   <g id="patch_158">
    <path clip-path="url(#p6c1b6a5c98)" d="M 607.863789 152.2 
L 610.483966 152.2 
L 610.483966 114.910846 
L 607.863789 114.910846 
z
" style="fill:#348abd;opacity:0.2;"/>
   </g>
   <g id="patch_159">
    <path clip-path="url(#p6c1b6a5c98)" d="M 611.13901 152.2 
L 613.759187 152.2 
L 613.759187 112.189333 
L 611.13901 112.189333 
z
" style="fill:#348abd;opacity:0.2;"/>
   </g>
   <g id="patch_160">
    <path clip-path="url(#p6c1b6a5c98)" d="M 614.414231 152.2 
L 617.034408 152.2 
L 617.034408 113.087794 
L 614.414231 113.087794 
z
" style="fill:#348abd;opacity:0.2;"/>
   </g>
   <g id="patch_161">
    <path clip-path="url(#p6c1b6a5c98)" d="M 617.689452 152.2 
L 620.309629 152.2 
L 620.309629 114.971146 
L 617.689452 114.971146 
z
" style="fill:#348abd;opacity:0.2;"/>
   </g>
   <g id="patch_162">
    <path clip-path="url(#p6c1b6a5c98)" d="M 620.964673 152.2 
L 623.58485 152.2 
L 623.58485 114.731958 
L 620.964673 114.731958 
z
" style="fill:#348abd;opacity:0.2;"/>
   </g>
   <g id="patch_163">
    <path clip-path="url(#p6c1b6a5c98)" d="M 624.239894 152.2 
L 626.860071 152.2 
L 626.860071 113.688778 
L 624.239894 113.688778 
z
" style="fill:#348abd;opacity:0.2;"/>
   </g>
   <g id="patch_164">
    <path clip-path="url(#p6c1b6a5c98)" d="M 627.515115 152.2 
L 630.135292 152.2 
L 630.135292 110.185383 
L 627.515115 110.185383 
z
" style="fill:#348abd;opacity:0.2;"/>
   </g>
   <g id="patch_165">
    <path clip-path="url(#p6c1b6a5c98)" d="M 630.790336 152.2 
L 633.410513 152.2 
L 633.410513 106.43074 
L 630.790336 106.43074 
z
" style="fill:#348abd;opacity:0.2;"/>
   </g>
   <g id="patch_166">
    <path clip-path="url(#p6c1b6a5c98)" d="M 634.065557 152.2 
L 636.685734 152.2 
L 636.685734 102.251991 
L 634.065557 102.251991 
z
" style="fill:#348abd;opacity:0.2;"/>
   </g>
   <g id="patch_167">
    <path clip-path="url(#p6c1b6a5c98)" d="M 637.340778 152.2 
L 639.960955 152.2 
L 639.960955 103.461999 
L 637.340778 103.461999 
z
" style="fill:#348abd;opacity:0.2;"/>
   </g>
   <g id="patch_168">
    <path clip-path="url(#p6c1b6a5c98)" d="M 640.615999 152.2 
L 643.236176 152.2 
L 643.236176 107.475929 
L 640.615999 107.475929 
z
" style="fill:#348abd;opacity:0.2;"/>
   </g>
   <g id="patch_169">
    <path clip-path="url(#p6c1b6a5c98)" d="M 643.89122 152.2 
L 646.511396 152.2 
L 646.511396 106.466919 
L 643.89122 106.466919 
z
" style="fill:#348abd;opacity:0.2;"/>
   </g>
   <g id="patch_170">
    <path clip-path="url(#p6c1b6a5c98)" d="M 647.166441 152.2 
L 649.786617 152.2 
L 649.786617 102.193701 
L 647.166441 102.193701 
z
" style="fill:#348abd;opacity:0.2;"/>
   </g>
   <g id="patch_171">
    <path clip-path="url(#p6c1b6a5c98)" d="M 650.441662 152.2 
L 653.061838 152.2 
L 653.061838 98.923464 
L 650.441662 98.923464 
z
" style="fill:#348abd;opacity:0.2;"/>
   </g>
   <g id="patch_172">
    <path clip-path="url(#p6c1b6a5c98)" d="M 653.716882 152.2 
L 656.337059 152.2 
L 656.337059 97.701396 
L 653.716882 97.701396 
z
" style="fill:#348abd;opacity:0.2;"/>
   </g>
   <g id="patch_173">
    <path clip-path="url(#p6c1b6a5c98)" d="M 656.992103 152.2 
L 659.61228 152.2 
L 659.61228 94.702505 
L 656.992103 94.702505 
z
" style="fill:#348abd;opacity:0.2;"/>
   </g>
   <g id="patch_174">
    <path clip-path="url(#p6c1b6a5c98)" d="M 660.267324 152.2 
L 662.887501 152.2 
L 662.887501 94.449248 
L 660.267324 94.449248 
z
" style="fill:#348abd;opacity:0.2;"/>
   </g>
   <g id="patch_175">
    <path clip-path="url(#p6c1b6a5c98)" d="M 663.542545 152.2 
L 666.162722 152.2 
L 666.162722 94.919583 
L 663.542545 94.919583 
z
" style="fill:#348abd;opacity:0.2;"/>
   </g>
   <g id="patch_176">
    <path clip-path="url(#p6c1b6a5c98)" d="M 666.817766 152.2 
L 669.437943 152.2 
L 669.437943 93.048291 
L 666.817766 93.048291 
z
" style="fill:#348abd;opacity:0.2;"/>
   </g>
   <g id="patch_177">
    <path clip-path="url(#p6c1b6a5c98)" d="M 670.092987 152.2 
L 672.713164 152.2 
L 672.713164 86.521885 
L 670.092987 86.521885 
z
" style="fill:#348abd;opacity:0.2;"/>
   </g>
   <g id="patch_178">
    <path clip-path="url(#p6c1b6a5c98)" d="M 673.368208 152.2 
L 675.988385 152.2 
L 675.988385 81.900941 
L 673.368208 81.900941 
z
" style="fill:#348abd;opacity:0.2;"/>
   </g>
   <g id="patch_179">
    <path clip-path="url(#p6c1b6a5c98)" d="M 676.643429 152.2 
L 679.263606 152.2 
L 679.263606 81.344176 
L 676.643429 81.344176 
z
" style="fill:#348abd;opacity:0.2;"/>
   </g>
   <g id="patch_180">
    <path clip-path="url(#p6c1b6a5c98)" d="M 679.91865 152.2 
L 682.538827 152.2 
L 682.538827 74.419794 
L 679.91865 74.419794 
z
" style="fill:#348abd;opacity:0.2;"/>
   </g>
   <g id="patch_181">
    <path clip-path="url(#p6c1b6a5c98)" d="M 683.193871 152.2 
L 685.814048 152.2 
L 685.814048 70.946548 
L 683.193871 70.946548 
z
" style="fill:#348abd;opacity:0.2;"/>
   </g>
   <g id="patch_182">
    <path clip-path="url(#p6c1b6a5c98)" d="M 686.469092 152.2 
L 689.089269 152.2 
L 689.089269 77.565413 
L 686.469092 77.565413 
z
" style="fill:#348abd;opacity:0.2;"/>
   </g>
   <g id="patch_183">
    <path clip-path="url(#p6c1b6a5c98)" d="M 689.744313 152.2 
L 692.364489 152.2 
L 692.364489 76.343345 
L 689.744313 76.343345 
z
" style="fill:#348abd;opacity:0.2;"/>
   </g>
   <g id="patch_184">
    <path clip-path="url(#p6c1b6a5c98)" d="M 693.019534 152.2 
L 695.63971 152.2 
L 695.63971 60.303703 
L 693.019534 60.303703 
z
" style="fill:#348abd;opacity:0.2;"/>
   </g>
   <g id="patch_185">
    <path clip-path="url(#p6c1b6a5c98)" d="M 696.294755 152.2 
L 698.914931 152.2 
L 698.914931 53.087874 
L 696.294755 53.087874 
z
" style="fill:#348abd;opacity:0.2;"/>
   </g>
   <g id="patch_186">
    <path clip-path="url(#p6c1b6a5c98)" d="M 699.569976 152.2 
L 702.190152 152.2 
L 702.190152 53.879806 
L 699.569976 53.879806 
z
" style="fill:#348abd;opacity:0.2;"/>
   </g>
   <g id="patch_187">
    <path clip-path="url(#p6c1b6a5c98)" d="M 702.845196 152.2 
L 705.465373 152.2 
L 705.465373 54.49285 
L 702.845196 54.49285 
z
" style="fill:#348abd;opacity:0.2;"/>
   </g>
   <g id="patch_188">
    <path clip-path="url(#p6c1b6a5c98)" d="M 706.120417 152.2 
L 708.740594 152.2 
L 708.740594 51.739177 
L 706.120417 51.739177 
z
" style="fill:#348abd;opacity:0.2;"/>
   </g>
   <g id="patch_189">
    <path clip-path="url(#p6c1b6a5c98)" d="M 709.395638 152.2 
L 712.015815 152.2 
L 712.015815 62.842308 
L 709.395638 62.842308 
z
" style="fill:#348abd;opacity:0.2;"/>
   </g>
   <g id="patch_190">
    <path clip-path="url(#p6c1b6a5c98)" d="M 712.670859 152.2 
L 715.291036 152.2 
L 715.291036 48.493059 
L 712.670859 48.493059 
z
" style="fill:#348abd;opacity:0.2;"/>
   </g>
   <g id="patch_191">
    <path clip-path="url(#p6c1b6a5c98)" d="M 715.94608 152.2 
L 718.566257 152.2 
L 718.566257 51.110053 
L 715.94608 51.110053 
z
" style="fill:#348abd;opacity:0.2;"/>
   </g>
   <g id="patch_192">
    <path clip-path="url(#p6c1b6a5c98)" d="M 719.221301 152.2 
L 721.841478 152.2 
L 721.841478 46.107213 
L 719.221301 46.107213 
z
" style="fill:#348abd;opacity:0.2;"/>
   </g>
   <g id="patch_193">
    <path clip-path="url(#p6c1b6a5c98)" d="M 722.496522 152.2 
L 725.116699 152.2 
L 725.116699 29.10479 
L 722.496522 29.10479 
z
" style="fill:#348abd;opacity:0.2;"/>
   </g>
   <g id="patch_194">
    <path clip-path="url(#p6c1b6a5c98)" d="M 725.771743 152.2 
L 728.39192 152.2 
L 728.39192 42.183731 
L 725.771743 42.183731 
z
" style="fill:#348abd;opacity:0.2;"/>
   </g>
   <g id="patch_195">
    <path clip-path="url(#p6c1b6a5c98)" d="M 729.046964 152.2 
L 731.667141 152.2 
L 731.667141 45.727326 
L 729.046964 45.727326 
z
" style="fill:#348abd;opacity:0.2;"/>
   </g>
   <g id="patch_196">
    <path clip-path="url(#p6c1b6a5c98)" d="M 732.322185 152.2 
L 734.942362 152.2 
L 734.942362 47.580528 
L 732.322185 47.580528 
z
" style="fill:#348abd;opacity:0.2;"/>
   </g>
   <g id="patch_197">
    <path clip-path="url(#p6c1b6a5c98)" d="M 735.597406 152.2 
L 738.217582 152.2 
L 738.217582 46.657947 
L 735.597406 46.657947 
z
" style="fill:#348abd;opacity:0.2;"/>
   </g>
   <g id="patch_198">
    <path clip-path="url(#p6c1b6a5c98)" d="M 738.872627 152.2 
L 741.492803 152.2 
L 741.492803 39.074292 
L 738.872627 39.074292 
z
" style="fill:#348abd;opacity:0.2;"/>
   </g>
   <g id="patch_199">
    <path clip-path="url(#p6c1b6a5c98)" d="M 742.147848 152.2 
L 744.768024 152.2 
L 744.768024 26.499855 
L 742.147848 26.499855 
z
" style="fill:#348abd;opacity:0.2;"/>
   </g>
   <g id="patch_200">
    <path clip-path="url(#p6c1b6a5c98)" d="M 745.423069 152.2 
L 748.043245 152.2 
L 748.043245 28.511845 
L 745.423069 28.511845 
z
" style="fill:#348abd;opacity:0.2;"/>
   </g>
   <g id="patch_201">
    <path clip-path="url(#p6c1b6a5c98)" d="M 748.698289 152.2 
L 751.318466 152.2 
L 751.318466 22.759282 
L 748.698289 22.759282 
z
" style="fill:#348abd;opacity:0.2;"/>
   </g>
   <g id="patch_202">
    <path clip-path="url(#p6c1b6a5c98)" d="M 751.97351 152.2 
L 754.593687 152.2 
L 754.593687 27.452586 
L 751.97351 27.452586 
z
" style="fill:#348abd;opacity:0.2;"/>
   </g>
   <g id="patch_203">
    <path clip-path="url(#p6c1b6a5c98)" d="M 755.248731 152.2 
L 757.868908 152.2 
L 757.868908 44.463049 
L 755.248731 44.463049 
z
" style="fill:#348abd;opacity:0.2;"/>
   </g>
   <g id="patch_204">
    <path clip-path="url(#p6c1b6a5c98)" d="M 758.523952 152.2 
L 761.144129 152.2 
L 761.144129 29.665574 
L 758.523952 29.665574 
z
" style="fill:#348abd;opacity:0.2;"/>
   </g>
   <g id="patch_205">
    <path clip-path="url(#p6c1b6a5c98)" d="M 761.799173 152.2 
L 764.41935 152.2 
L 764.41935 17.533333 
L 761.799173 17.533333 
z
" style="fill:#348abd;opacity:0.2;"/>
   </g>
   <g id="patch_206">
    <path clip-path="url(#p6c1b6a5c98)" d="M 765.074394 152.2 
L 767.694571 152.2 
L 767.694571 22.449745 
L 765.074394 22.449745 
z
" style="fill:#348abd;opacity:0.2;"/>
   </g>
   <g id="patch_207">
    <path clip-path="url(#p6c1b6a5c98)" d="M 768.349615 152.2 
L 770.969792 152.2 
L 770.969792 22.089959 
L 768.349615 22.089959 
z
" style="fill:#348abd;opacity:0.2;"/>
   </g>
   <g id="patch_208">
    <path clip-path="url(#p6c1b6a5c98)" d="M 771.624836 152.2 
L 774.245013 152.2 
L 774.245013 23.500965 
L 771.624836 23.500965 
z
" style="fill:#348abd;opacity:0.2;"/>
   </g>
   <g id="patch_209">
    <path clip-path="url(#p6c1b6a5c98)" d="M 774.900057 152.2 
L 777.520234 152.2 
L 777.520234 36.20203 
L 774.900057 36.20203 
z
" style="fill:#348abd;opacity:0.2;"/>
   </g>
   <g id="patch_210">
    <path clip-path="url(#p6c1b6a5c98)" d="M 778.175278 152.2 
L 780.795455 152.2 
L 780.795455 41.614907 
L 778.175278 41.614907 
z
" style="fill:#348abd;opacity:0.2;"/>
   </g>
   <g id="line2d_27">
    <path clip-path="url(#p6c1b6a5c98)" d="M 101.514634 152.2 
L 288.202227 152.106841 
L 317.679215 151.863778 
L 330.780099 151.474823 
L 353.706645 150.652299 
L 383.183634 149.762462 
L 402.834959 149.108124 
L 412.660622 148.782144 
L 419.211064 148.363734 
L 425.761506 147.639995 
L 435.587169 146.334192 
L 442.13761 145.666979 
L 448.688052 145.255757 
L 461.788936 144.668485 
L 468.339378 144.101861 
L 474.88982 143.235949 
L 481.440262 142.070684 
L 487.990703 140.813128 
L 494.541145 139.821114 
L 510.91725 137.952674 
L 517.467692 136.936855 
L 537.119017 133.407206 
L 543.669459 132.621941 
L 556.770343 131.148277 
L 566.596006 129.866307 
L 569.871227 129.31403 
L 576.421669 127.838287 
L 582.97211 125.901309 
L 589.522552 123.602273 
L 605.898657 117.642048 
L 612.449099 115.5905 
L 618.999541 113.699535 
L 625.549983 111.426187 
L 635.375645 107.559362 
L 651.75175 100.665788 
L 655.026971 99.09792 
L 658.302192 97.292706 
L 661.577413 95.257625 
L 664.852634 92.98717 
L 668.127855 90.484013 
L 674.678296 85.089017 
L 677.953517 82.231227 
L 681.228738 79.2176 
L 684.503959 75.977192 
L 694.329622 65.725325 
L 697.604843 62.640095 
L 700.880064 59.827719 
L 707.430506 54.965647 
L 710.705727 52.7861 
L 717.256169 48.825739 
L 723.80661 45.579536 
L 730.357052 42.738319 
L 736.907494 39.421022 
L 743.457936 35.776409 
L 753.283599 30.114548 
L 756.55882 28.641422 
L 759.834041 27.670242 
L 763.109262 27.280814 
L 766.384482 27.305246 
L 769.659703 27.50324 
L 772.934924 27.972492 
L 776.210145 28.835192 
L 779.485366 29.397883 
L 779.485366 29.397883 
" style="fill:none;stroke:#348abd;stroke-linecap:square;stroke-width:3;"/>
   </g>
   <g id="line2d_28">
    <defs>
     <path d="M 0 3 
C 0.795609 3 1.55874 2.683901 2.12132 2.12132 
C 2.683901 1.55874 3 0.795609 3 0 
C 3 -0.795609 2.683901 -1.55874 2.12132 -2.12132 
C 1.55874 -2.683901 0.795609 -3 0 -3 
C -0.795609 -3 -1.55874 -2.683901 -2.12132 -2.12132 
C -2.683901 -1.55874 -3 -0.795609 -3 0 
C -3 0.795609 -2.683901 1.55874 -2.12132 2.12132 
C -1.55874 2.683901 -0.795609 3 0 3 
z
" id="md94c30b821" style="stroke:#e24a33;stroke-opacity:0.001;"/>
    </defs>
    <g clip-path="url(#p6c1b6a5c98)">
     <use style="fill:#e24a33;fill-opacity:0.001;stroke:#e24a33;stroke-opacity:0.001;" x="440.5" xlink:href="#md94c30b821" y="81.5"/>
    </g>
   </g>
   <g id="patch_211">
    <path d="M 66.175 152.2 
L 66.175 10.8 
" style="fill:none;stroke:#ffffff;stroke-linecap:square;stroke-linejoin:miter;"/>
   </g>
   <g id="patch_212">
    <path d="M 814.825 152.2 
L 814.825 10.8 
" style="fill:none;stroke:#ffffff;stroke-linecap:square;stroke-linejoin:miter;"/>
   </g>
   <g id="patch_213">
    <path d="M 66.175 152.2 
L 814.825 152.2 
" style="fill:none;stroke:#ffffff;stroke-linecap:square;stroke-linejoin:miter;"/>
   </g>
   <g id="patch_214">
    <path d="M 66.175 10.8 
L 814.825 10.8 
" style="fill:none;stroke:#ffffff;stroke-linecap:square;stroke-linejoin:miter;"/>
   </g>
   <g id="legend_1">
    <g id="patch_215">
     <path d="M 73.175 62.834375 
L 258.484375 62.834375 
Q 260.484375 62.834375 260.484375 60.834375 
L 260.484375 17.8 
Q 260.484375 15.8 258.484375 15.8 
L 73.175 15.8 
Q 71.175 15.8 71.175 17.8 
L 71.175 60.834375 
Q 71.175 62.834375 73.175 62.834375 
z
" style="fill:#e5e5e5;opacity:0.8;stroke:#cccccc;stroke-linejoin:miter;stroke-width:0.5;"/>
    </g>
    <g id="patch_216">
     <path d="M 75.175 27.398438 
L 95.175 27.398438 
L 95.175 20.398438 
L 75.175 20.398438 
z
" style="fill:#348abd;opacity:0.2;"/>
    </g>
    <g id="text_17">
     <!-- India new cases -->
     <defs>
      <path d="M 9.8125 72.90625 
L 19.671875 72.90625 
L 19.671875 0 
L 9.8125 0 
z
" id="DejaVuSans-73"/>
      <path d="M 4.203125 54.6875 
L 13.1875 54.6875 
L 24.421875 12.015625 
L 35.59375 54.6875 
L 46.1875 54.6875 
L 57.421875 12.015625 
L 68.609375 54.6875 
L 77.59375 54.6875 
L 63.28125 0 
L 52.6875 0 
L 40.921875 44.828125 
L 29.109375 0 
L 18.5 0 
z
" id="DejaVuSans-119"/>
      <path d="M 44.28125 53.078125 
L 44.28125 44.578125 
Q 40.484375 46.53125 36.375 47.5 
Q 32.28125 48.484375 27.875 48.484375 
Q 21.1875 48.484375 17.84375 46.4375 
Q 14.5 44.390625 14.5 40.28125 
Q 14.5 37.15625 16.890625 35.375 
Q 19.28125 33.59375 26.515625 31.984375 
L 29.59375 31.296875 
Q 39.15625 29.25 43.1875 25.515625 
Q 47.21875 21.78125 47.21875 15.09375 
Q 47.21875 7.46875 41.1875 3.015625 
Q 35.15625 -1.421875 24.609375 -1.421875 
Q 20.21875 -1.421875 15.453125 -0.5625 
Q 10.6875 0.296875 5.421875 2 
L 5.421875 11.28125 
Q 10.40625 8.6875 15.234375 7.390625 
Q 20.0625 6.109375 24.8125 6.109375 
Q 31.15625 6.109375 34.5625 8.28125 
Q 37.984375 10.453125 37.984375 14.40625 
Q 37.984375 18.0625 35.515625 20.015625 
Q 33.0625 21.96875 24.703125 23.78125 
L 21.578125 24.515625 
Q 13.234375 26.265625 9.515625 29.90625 
Q 5.8125 33.546875 5.8125 39.890625 
Q 5.8125 47.609375 11.28125 51.796875 
Q 16.75 56 26.8125 56 
Q 31.78125 56 36.171875 55.265625 
Q 40.578125 54.546875 44.28125 53.078125 
z
" id="DejaVuSans-115"/>
     </defs>
     <g transform="translate(103.175 27.398438)scale(0.1 -0.1)">
      <use xlink:href="#DejaVuSans-73"/>
      <use x="29.492188" xlink:href="#DejaVuSans-110"/>
      <use x="92.871094" xlink:href="#DejaVuSans-100"/>
      <use x="156.347656" xlink:href="#DejaVuSans-105"/>
      <use x="184.130859" xlink:href="#DejaVuSans-97"/>
      <use x="245.410156" xlink:href="#DejaVuSans-32"/>
      <use x="277.197266" xlink:href="#DejaVuSans-110"/>
      <use x="340.576172" xlink:href="#DejaVuSans-101"/>
      <use x="402.099609" xlink:href="#DejaVuSans-119"/>
      <use x="483.886719" xlink:href="#DejaVuSans-32"/>
      <use x="515.673828" xlink:href="#DejaVuSans-99"/>
      <use x="570.654297" xlink:href="#DejaVuSans-97"/>
      <use x="631.933594" xlink:href="#DejaVuSans-115"/>
      <use x="684.033203" xlink:href="#DejaVuSans-101"/>
      <use x="745.556641" xlink:href="#DejaVuSans-115"/>
     </g>
    </g>
    <g id="line2d_29">
     <path d="M 75.175 38.576563 
L 95.175 38.576563 
" style="fill:none;stroke:#348abd;stroke-linecap:square;stroke-width:3;"/>
    </g>
    <g id="line2d_30"/>
    <g id="text_18">
     <!-- India new cases (rolling mean) -->
     <defs>
      <path d="M 31 75.875 
Q 24.46875 64.65625 21.28125 53.65625 
Q 18.109375 42.671875 18.109375 31.390625 
Q 18.109375 20.125 21.3125 9.0625 
Q 24.515625 -2 31 -13.1875 
L 23.1875 -13.1875 
Q 15.875 -1.703125 12.234375 9.375 
Q 8.59375 20.453125 8.59375 31.390625 
Q 8.59375 42.28125 12.203125 53.3125 
Q 15.828125 64.359375 23.1875 75.875 
z
" id="DejaVuSans-40"/>
      <path d="M 41.109375 46.296875 
Q 39.59375 47.171875 37.8125 47.578125 
Q 36.03125 48 33.890625 48 
Q 26.265625 48 22.1875 43.046875 
Q 18.109375 38.09375 18.109375 28.8125 
L 18.109375 0 
L 9.078125 0 
L 9.078125 54.6875 
L 18.109375 54.6875 
L 18.109375 46.1875 
Q 20.953125 51.171875 25.484375 53.578125 
Q 30.03125 56 36.53125 56 
Q 37.453125 56 38.578125 55.875 
Q 39.703125 55.765625 41.0625 55.515625 
z
" id="DejaVuSans-114"/>
      <path d="M 30.609375 48.390625 
Q 23.390625 48.390625 19.1875 42.75 
Q 14.984375 37.109375 14.984375 27.296875 
Q 14.984375 17.484375 19.15625 11.84375 
Q 23.34375 6.203125 30.609375 6.203125 
Q 37.796875 6.203125 41.984375 11.859375 
Q 46.1875 17.53125 46.1875 27.296875 
Q 46.1875 37.015625 41.984375 42.703125 
Q 37.796875 48.390625 30.609375 48.390625 
z
M 30.609375 56 
Q 42.328125 56 49.015625 48.375 
Q 55.71875 40.765625 55.71875 27.296875 
Q 55.71875 13.875 49.015625 6.21875 
Q 42.328125 -1.421875 30.609375 -1.421875 
Q 18.84375 -1.421875 12.171875 6.21875 
Q 5.515625 13.875 5.515625 27.296875 
Q 5.515625 40.765625 12.171875 48.375 
Q 18.84375 56 30.609375 56 
z
" id="DejaVuSans-111"/>
      <path d="M 52 44.1875 
Q 55.375 50.25 60.0625 53.125 
Q 64.75 56 71.09375 56 
Q 79.640625 56 84.28125 50.015625 
Q 88.921875 44.046875 88.921875 33.015625 
L 88.921875 0 
L 79.890625 0 
L 79.890625 32.71875 
Q 79.890625 40.578125 77.09375 44.375 
Q 74.3125 48.1875 68.609375 48.1875 
Q 61.625 48.1875 57.5625 43.546875 
Q 53.515625 38.921875 53.515625 30.90625 
L 53.515625 0 
L 44.484375 0 
L 44.484375 32.71875 
Q 44.484375 40.625 41.703125 44.40625 
Q 38.921875 48.1875 33.109375 48.1875 
Q 26.21875 48.1875 22.15625 43.53125 
Q 18.109375 38.875 18.109375 30.90625 
L 18.109375 0 
L 9.078125 0 
L 9.078125 54.6875 
L 18.109375 54.6875 
L 18.109375 46.1875 
Q 21.1875 51.21875 25.484375 53.609375 
Q 29.78125 56 35.6875 56 
Q 41.65625 56 45.828125 52.96875 
Q 50 49.953125 52 44.1875 
z
" id="DejaVuSans-109"/>
      <path d="M 8.015625 75.875 
L 15.828125 75.875 
Q 23.140625 64.359375 26.78125 53.3125 
Q 30.421875 42.28125 30.421875 31.390625 
Q 30.421875 20.453125 26.78125 9.375 
Q 23.140625 -1.703125 15.828125 -13.1875 
L 8.015625 -13.1875 
Q 14.5 -2 17.703125 9.0625 
Q 20.90625 20.125 20.90625 31.390625 
Q 20.90625 42.671875 17.703125 53.65625 
Q 14.5 64.65625 8.015625 75.875 
z
" id="DejaVuSans-41"/>
     </defs>
     <g transform="translate(103.175 42.076563)scale(0.1 -0.1)">
      <use xlink:href="#DejaVuSans-73"/>
      <use x="29.492188" xlink:href="#DejaVuSans-110"/>
      <use x="92.871094" xlink:href="#DejaVuSans-100"/>
      <use x="156.347656" xlink:href="#DejaVuSans-105"/>
      <use x="184.130859" xlink:href="#DejaVuSans-97"/>
      <use x="245.410156" xlink:href="#DejaVuSans-32"/>
      <use x="277.197266" xlink:href="#DejaVuSans-110"/>
      <use x="340.576172" xlink:href="#DejaVuSans-101"/>
      <use x="402.099609" xlink:href="#DejaVuSans-119"/>
      <use x="483.886719" xlink:href="#DejaVuSans-32"/>
      <use x="515.673828" xlink:href="#DejaVuSans-99"/>
      <use x="570.654297" xlink:href="#DejaVuSans-97"/>
      <use x="631.933594" xlink:href="#DejaVuSans-115"/>
      <use x="684.033203" xlink:href="#DejaVuSans-101"/>
      <use x="745.556641" xlink:href="#DejaVuSans-115"/>
      <use x="797.65625" xlink:href="#DejaVuSans-32"/>
      <use x="829.443359" xlink:href="#DejaVuSans-40"/>
      <use x="868.457031" xlink:href="#DejaVuSans-114"/>
      <use x="907.320312" xlink:href="#DejaVuSans-111"/>
      <use x="968.501953" xlink:href="#DejaVuSans-108"/>
      <use x="996.285156" xlink:href="#DejaVuSans-108"/>
      <use x="1024.068359" xlink:href="#DejaVuSans-105"/>
      <use x="1051.851562" xlink:href="#DejaVuSans-110"/>
      <use x="1115.230469" xlink:href="#DejaVuSans-103"/>
      <use x="1178.707031" xlink:href="#DejaVuSans-32"/>
      <use x="1210.494141" xlink:href="#DejaVuSans-109"/>
      <use x="1307.90625" xlink:href="#DejaVuSans-101"/>
      <use x="1369.429688" xlink:href="#DejaVuSans-97"/>
      <use x="1430.708984" xlink:href="#DejaVuSans-110"/>
      <use x="1494.087891" xlink:href="#DejaVuSans-41"/>
     </g>
    </g>
    <g id="line2d_31"/>
    <g id="line2d_32">
     <g>
      <use style="fill:#e24a33;fill-opacity:0.001;stroke:#e24a33;stroke-opacity:0.001;" x="85.175" xlink:href="#md94c30b821" y="53.254688"/>
     </g>
    </g>
    <g id="text_19">
     <!-- [last updated: 18/08/2020] -->
     <defs>
      <path d="M 8.59375 75.984375 
L 29.296875 75.984375 
L 29.296875 69 
L 17.578125 69 
L 17.578125 -6.203125 
L 29.296875 -6.203125 
L 29.296875 -13.1875 
L 8.59375 -13.1875 
z
" id="DejaVuSans-91"/>
      <path d="M 18.3125 70.21875 
L 18.3125 54.6875 
L 36.8125 54.6875 
L 36.8125 47.703125 
L 18.3125 47.703125 
L 18.3125 18.015625 
Q 18.3125 11.328125 20.140625 9.421875 
Q 21.96875 7.515625 27.59375 7.515625 
L 36.8125 7.515625 
L 36.8125 0 
L 27.59375 0 
Q 17.1875 0 13.234375 3.875 
Q 9.28125 7.765625 9.28125 18.015625 
L 9.28125 47.703125 
L 2.6875 47.703125 
L 2.6875 54.6875 
L 9.28125 54.6875 
L 9.28125 70.21875 
z
" id="DejaVuSans-116"/>
      <path d="M 8.5 21.578125 
L 8.5 54.6875 
L 17.484375 54.6875 
L 17.484375 21.921875 
Q 17.484375 14.15625 20.5 10.265625 
Q 23.53125 6.390625 29.59375 6.390625 
Q 36.859375 6.390625 41.078125 11.03125 
Q 45.3125 15.671875 45.3125 23.6875 
L 45.3125 54.6875 
L 54.296875 54.6875 
L 54.296875 0 
L 45.3125 0 
L 45.3125 8.40625 
Q 42.046875 3.421875 37.71875 1 
Q 33.40625 -1.421875 27.6875 -1.421875 
Q 18.265625 -1.421875 13.375 4.4375 
Q 8.5 10.296875 8.5 21.578125 
z
M 31.109375 56 
z
" id="DejaVuSans-117"/>
      <path d="M 18.109375 8.203125 
L 18.109375 -20.796875 
L 9.078125 -20.796875 
L 9.078125 54.6875 
L 18.109375 54.6875 
L 18.109375 46.390625 
Q 20.953125 51.265625 25.265625 53.625 
Q 29.59375 56 35.59375 56 
Q 45.5625 56 51.78125 48.09375 
Q 58.015625 40.1875 58.015625 27.296875 
Q 58.015625 14.40625 51.78125 6.484375 
Q 45.5625 -1.421875 35.59375 -1.421875 
Q 29.59375 -1.421875 25.265625 0.953125 
Q 20.953125 3.328125 18.109375 8.203125 
z
M 48.6875 27.296875 
Q 48.6875 37.203125 44.609375 42.84375 
Q 40.53125 48.484375 33.40625 48.484375 
Q 26.265625 48.484375 22.1875 42.84375 
Q 18.109375 37.203125 18.109375 27.296875 
Q 18.109375 17.390625 22.1875 11.75 
Q 26.265625 6.109375 33.40625 6.109375 
Q 40.53125 6.109375 44.609375 11.75 
Q 48.6875 17.390625 48.6875 27.296875 
z
" id="DejaVuSans-112"/>
      <path d="M 11.71875 12.40625 
L 22.015625 12.40625 
L 22.015625 0 
L 11.71875 0 
z
M 11.71875 51.703125 
L 22.015625 51.703125 
L 22.015625 39.3125 
L 11.71875 39.3125 
z
" id="DejaVuSans-58"/>
      <path d="M 12.40625 8.296875 
L 28.515625 8.296875 
L 28.515625 63.921875 
L 10.984375 60.40625 
L 10.984375 69.390625 
L 28.421875 72.90625 
L 38.28125 72.90625 
L 38.28125 8.296875 
L 54.390625 8.296875 
L 54.390625 0 
L 12.40625 0 
z
" id="DejaVuSans-49"/>
      <path d="M 25.390625 72.90625 
L 33.6875 72.90625 
L 8.296875 -9.28125 
L 0 -9.28125 
z
" id="DejaVuSans-47"/>
      <path d="M 30.421875 75.984375 
L 30.421875 -13.1875 
L 9.71875 -13.1875 
L 9.71875 -6.203125 
L 21.390625 -6.203125 
L 21.390625 69 
L 9.71875 69 
L 9.71875 75.984375 
z
" id="DejaVuSans-93"/>
     </defs>
     <g transform="translate(103.175 56.754688)scale(0.1 -0.1)">
      <use xlink:href="#DejaVuSans-91"/>
      <use x="39.013672" xlink:href="#DejaVuSans-108"/>
      <use x="66.796875" xlink:href="#DejaVuSans-97"/>
      <use x="128.076172" xlink:href="#DejaVuSans-115"/>
      <use x="180.175781" xlink:href="#DejaVuSans-116"/>
      <use x="219.384766" xlink:href="#DejaVuSans-32"/>
      <use x="251.171875" xlink:href="#DejaVuSans-117"/>
      <use x="314.550781" xlink:href="#DejaVuSans-112"/>
      <use x="378.027344" xlink:href="#DejaVuSans-100"/>
      <use x="441.503906" xlink:href="#DejaVuSans-97"/>
      <use x="502.783203" xlink:href="#DejaVuSans-116"/>
      <use x="541.992188" xlink:href="#DejaVuSans-101"/>
      <use x="603.515625" xlink:href="#DejaVuSans-100"/>
      <use x="666.992188" xlink:href="#DejaVuSans-58"/>
      <use x="700.683594" xlink:href="#DejaVuSans-32"/>
      <use x="732.470703" xlink:href="#DejaVuSans-49"/>
      <use x="796.09375" xlink:href="#DejaVuSans-56"/>
      <use x="859.716797" xlink:href="#DejaVuSans-47"/>
      <use x="893.408203" xlink:href="#DejaVuSans-48"/>
      <use x="957.03125" xlink:href="#DejaVuSans-56"/>
      <use x="1020.654297" xlink:href="#DejaVuSans-47"/>
      <use x="1054.345703" xlink:href="#DejaVuSans-50"/>
      <use x="1117.96875" xlink:href="#DejaVuSans-48"/>
      <use x="1181.591797" xlink:href="#DejaVuSans-50"/>
      <use x="1245.214844" xlink:href="#DejaVuSans-48"/>
      <use x="1308.837891" xlink:href="#DejaVuSans-93"/>
     </g>
    </g>
   </g>
  </g>
 </g>
 <defs>
  <clipPath id="p6c1b6a5c98">
   <rect height="141.4" width="748.65" x="66.175" y="10.8"/>
  </clipPath>
 </defs>
</svg>
