<?xml version="1.0" encoding="utf-8" standalone="no"?>
<!DOCTYPE svg PUBLIC "-//W3C//DTD SVG 1.1//EN"
  "http://www.w3.org/Graphics/SVG/1.1/DTD/svg11.dtd">
<!-- Created with matplotlib (https://matplotlib.org/) -->
<svg height="180pt" version="1.1" viewBox="0 0 720 180" width="720pt" xmlns="http://www.w3.org/2000/svg" xmlns:xlink="http://www.w3.org/1999/xlink">
 <defs>
  <style type="text/css">
*{stroke-linecap:butt;stroke-linejoin:round;}
  </style>
 </defs>
 <g id="figure_1">
  <g id="patch_1">
   <path d="M 0 180 
L 720 180 
L 720 0 
L 0 0 
z
" style="fill:#ffffff;"/>
  </g>
  <g id="axes_1">
   <g id="patch_2">
    <path d="M 90 157.5 
L 648 157.5 
L 648 21.6 
L 90 21.6 
z
" style="fill:#e5e5e5;"/>
   </g>
   <g id="matplotlib.axis_1">
    <g id="xtick_1">
     <g id="line2d_1">
      <path clip-path="url(#p8a61f23aa9)" d="M 139.751748 157.5 
L 139.751748 21.6 
" style="fill:none;stroke:#ffffff;stroke-linecap:square;stroke-width:0.8;"/>
     </g>
     <g id="line2d_2">
      <defs>
       <path d="M 0 0 
L 0 3.5 
" id="m418ef637c5" style="stroke:#555555;stroke-width:0.8;"/>
      </defs>
      <g>
       <use style="fill:#555555;stroke:#555555;stroke-width:0.8;" x="139.751748" xlink:href="#m418ef637c5" y="157.5"/>
      </g>
     </g>
     <g id="text_1">
      <!-- 2020-02 -->
      <defs>
       <path d="M 19.1875 8.296875 
L 53.609375 8.296875 
L 53.609375 0 
L 7.328125 0 
L 7.328125 8.296875 
Q 12.9375 14.109375 22.625 23.890625 
Q 32.328125 33.6875 34.8125 36.53125 
Q 39.546875 41.84375 41.421875 45.53125 
Q 43.3125 49.21875 43.3125 52.78125 
Q 43.3125 58.59375 39.234375 62.25 
Q 35.15625 65.921875 28.609375 65.921875 
Q 23.96875 65.921875 18.8125 64.3125 
Q 13.671875 62.703125 7.8125 59.421875 
L 7.8125 69.390625 
Q 13.765625 71.78125 18.9375 73 
Q 24.125 74.21875 28.421875 74.21875 
Q 39.75 74.21875 46.484375 68.546875 
Q 53.21875 62.890625 53.21875 53.421875 
Q 53.21875 48.921875 51.53125 44.890625 
Q 49.859375 40.875 45.40625 35.40625 
Q 44.1875 33.984375 37.640625 27.21875 
Q 31.109375 20.453125 19.1875 8.296875 
z
" id="DejaVuSans-50"/>
       <path d="M 31.78125 66.40625 
Q 24.171875 66.40625 20.328125 58.90625 
Q 16.5 51.421875 16.5 36.375 
Q 16.5 21.390625 20.328125 13.890625 
Q 24.171875 6.390625 31.78125 6.390625 
Q 39.453125 6.390625 43.28125 13.890625 
Q 47.125 21.390625 47.125 36.375 
Q 47.125 51.421875 43.28125 58.90625 
Q 39.453125 66.40625 31.78125 66.40625 
z
M 31.78125 74.21875 
Q 44.046875 74.21875 50.515625 64.515625 
Q 56.984375 54.828125 56.984375 36.375 
Q 56.984375 17.96875 50.515625 8.265625 
Q 44.046875 -1.421875 31.78125 -1.421875 
Q 19.53125 -1.421875 13.0625 8.265625 
Q 6.59375 17.96875 6.59375 36.375 
Q 6.59375 54.828125 13.0625 64.515625 
Q 19.53125 74.21875 31.78125 74.21875 
z
" id="DejaVuSans-48"/>
       <path d="M 4.890625 31.390625 
L 31.203125 31.390625 
L 31.203125 23.390625 
L 4.890625 23.390625 
z
" id="DejaVuSans-45"/>
      </defs>
      <g style="fill:#555555;" transform="translate(118.860342 172.098437)scale(0.1 -0.1)">
       <use xlink:href="#DejaVuSans-50"/>
       <use x="63.623047" xlink:href="#DejaVuSans-48"/>
       <use x="127.246094" xlink:href="#DejaVuSans-50"/>
       <use x="190.869141" xlink:href="#DejaVuSans-48"/>
       <use x="254.492188" xlink:href="#DejaVuSans-45"/>
       <use x="290.576172" xlink:href="#DejaVuSans-48"/>
       <use x="354.199219" xlink:href="#DejaVuSans-50"/>
      </g>
     </g>
    </g>
    <g id="xtick_2">
     <g id="line2d_3">
      <path clip-path="url(#p8a61f23aa9)" d="M 210.477273 157.5 
L 210.477273 21.6 
" style="fill:none;stroke:#ffffff;stroke-linecap:square;stroke-width:0.8;"/>
     </g>
     <g id="line2d_4">
      <g>
       <use style="fill:#555555;stroke:#555555;stroke-width:0.8;" x="210.477273" xlink:href="#m418ef637c5" y="157.5"/>
      </g>
     </g>
     <g id="text_2">
      <!-- 2020-03 -->
      <defs>
       <path d="M 40.578125 39.3125 
Q 47.65625 37.796875 51.625 33 
Q 55.609375 28.21875 55.609375 21.1875 
Q 55.609375 10.40625 48.1875 4.484375 
Q 40.765625 -1.421875 27.09375 -1.421875 
Q 22.515625 -1.421875 17.65625 -0.515625 
Q 12.796875 0.390625 7.625 2.203125 
L 7.625 11.71875 
Q 11.71875 9.328125 16.59375 8.109375 
Q 21.484375 6.890625 26.8125 6.890625 
Q 36.078125 6.890625 40.9375 10.546875 
Q 45.796875 14.203125 45.796875 21.1875 
Q 45.796875 27.640625 41.28125 31.265625 
Q 36.765625 34.90625 28.71875 34.90625 
L 20.21875 34.90625 
L 20.21875 43.015625 
L 29.109375 43.015625 
Q 36.375 43.015625 40.234375 45.921875 
Q 44.09375 48.828125 44.09375 54.296875 
Q 44.09375 59.90625 40.109375 62.90625 
Q 36.140625 65.921875 28.71875 65.921875 
Q 24.65625 65.921875 20.015625 65.03125 
Q 15.375 64.15625 9.8125 62.3125 
L 9.8125 71.09375 
Q 15.4375 72.65625 20.34375 73.4375 
Q 25.25 74.21875 29.59375 74.21875 
Q 40.828125 74.21875 47.359375 69.109375 
Q 53.90625 64.015625 53.90625 55.328125 
Q 53.90625 49.265625 50.4375 45.09375 
Q 46.96875 40.921875 40.578125 39.3125 
z
" id="DejaVuSans-51"/>
      </defs>
      <g style="fill:#555555;" transform="translate(189.585866 172.098437)scale(0.1 -0.1)">
       <use xlink:href="#DejaVuSans-50"/>
       <use x="63.623047" xlink:href="#DejaVuSans-48"/>
       <use x="127.246094" xlink:href="#DejaVuSans-50"/>
       <use x="190.869141" xlink:href="#DejaVuSans-48"/>
       <use x="254.492188" xlink:href="#DejaVuSans-45"/>
       <use x="290.576172" xlink:href="#DejaVuSans-48"/>
       <use x="354.199219" xlink:href="#DejaVuSans-51"/>
      </g>
     </g>
    </g>
    <g id="xtick_3">
     <g id="line2d_5">
      <path clip-path="url(#p8a61f23aa9)" d="M 286.08042 157.5 
L 286.08042 21.6 
" style="fill:none;stroke:#ffffff;stroke-linecap:square;stroke-width:0.8;"/>
     </g>
     <g id="line2d_6">
      <g>
       <use style="fill:#555555;stroke:#555555;stroke-width:0.8;" x="286.08042" xlink:href="#m418ef637c5" y="157.5"/>
      </g>
     </g>
     <g id="text_3">
      <!-- 2020-04 -->
      <defs>
       <path d="M 37.796875 64.3125 
L 12.890625 25.390625 
L 37.796875 25.390625 
z
M 35.203125 72.90625 
L 47.609375 72.90625 
L 47.609375 25.390625 
L 58.015625 25.390625 
L 58.015625 17.1875 
L 47.609375 17.1875 
L 47.609375 0 
L 37.796875 0 
L 37.796875 17.1875 
L 4.890625 17.1875 
L 4.890625 26.703125 
z
" id="DejaVuSans-52"/>
      </defs>
      <g style="fill:#555555;" transform="translate(265.189013 172.098437)scale(0.1 -0.1)">
       <use xlink:href="#DejaVuSans-50"/>
       <use x="63.623047" xlink:href="#DejaVuSans-48"/>
       <use x="127.246094" xlink:href="#DejaVuSans-50"/>
       <use x="190.869141" xlink:href="#DejaVuSans-48"/>
       <use x="254.492188" xlink:href="#DejaVuSans-45"/>
       <use x="290.576172" xlink:href="#DejaVuSans-48"/>
       <use x="354.199219" xlink:href="#DejaVuSans-52"/>
      </g>
     </g>
    </g>
    <g id="xtick_4">
     <g id="line2d_7">
      <path clip-path="url(#p8a61f23aa9)" d="M 359.244755 157.5 
L 359.244755 21.6 
" style="fill:none;stroke:#ffffff;stroke-linecap:square;stroke-width:0.8;"/>
     </g>
     <g id="line2d_8">
      <g>
       <use style="fill:#555555;stroke:#555555;stroke-width:0.8;" x="359.244755" xlink:href="#m418ef637c5" y="157.5"/>
      </g>
     </g>
     <g id="text_4">
      <!-- 2020-05 -->
      <defs>
       <path d="M 10.796875 72.90625 
L 49.515625 72.90625 
L 49.515625 64.59375 
L 19.828125 64.59375 
L 19.828125 46.734375 
Q 21.96875 47.46875 24.109375 47.828125 
Q 26.265625 48.1875 28.421875 48.1875 
Q 40.625 48.1875 47.75 41.5 
Q 54.890625 34.8125 54.890625 23.390625 
Q 54.890625 11.625 47.5625 5.09375 
Q 40.234375 -1.421875 26.90625 -1.421875 
Q 22.3125 -1.421875 17.546875 -0.640625 
Q 12.796875 0.140625 7.71875 1.703125 
L 7.71875 11.625 
Q 12.109375 9.234375 16.796875 8.0625 
Q 21.484375 6.890625 26.703125 6.890625 
Q 35.15625 6.890625 40.078125 11.328125 
Q 45.015625 15.765625 45.015625 23.390625 
Q 45.015625 31 40.078125 35.4375 
Q 35.15625 39.890625 26.703125 39.890625 
Q 22.75 39.890625 18.8125 39.015625 
Q 14.890625 38.140625 10.796875 36.28125 
z
" id="DejaVuSans-53"/>
      </defs>
      <g style="fill:#555555;" transform="translate(338.353349 172.098437)scale(0.1 -0.1)">
       <use xlink:href="#DejaVuSans-50"/>
       <use x="63.623047" xlink:href="#DejaVuSans-48"/>
       <use x="127.246094" xlink:href="#DejaVuSans-50"/>
       <use x="190.869141" xlink:href="#DejaVuSans-48"/>
       <use x="254.492188" xlink:href="#DejaVuSans-45"/>
       <use x="290.576172" xlink:href="#DejaVuSans-48"/>
       <use x="354.199219" xlink:href="#DejaVuSans-53"/>
      </g>
     </g>
    </g>
    <g id="xtick_5">
     <g id="line2d_9">
      <path clip-path="url(#p8a61f23aa9)" d="M 434.847902 157.5 
L 434.847902 21.6 
" style="fill:none;stroke:#ffffff;stroke-linecap:square;stroke-width:0.8;"/>
     </g>
     <g id="line2d_10">
      <g>
       <use style="fill:#555555;stroke:#555555;stroke-width:0.8;" x="434.847902" xlink:href="#m418ef637c5" y="157.5"/>
      </g>
     </g>
     <g id="text_5">
      <!-- 2020-06 -->
      <defs>
       <path d="M 33.015625 40.375 
Q 26.375 40.375 22.484375 35.828125 
Q 18.609375 31.296875 18.609375 23.390625 
Q 18.609375 15.53125 22.484375 10.953125 
Q 26.375 6.390625 33.015625 6.390625 
Q 39.65625 6.390625 43.53125 10.953125 
Q 47.40625 15.53125 47.40625 23.390625 
Q 47.40625 31.296875 43.53125 35.828125 
Q 39.65625 40.375 33.015625 40.375 
z
M 52.59375 71.296875 
L 52.59375 62.3125 
Q 48.875 64.0625 45.09375 64.984375 
Q 41.3125 65.921875 37.59375 65.921875 
Q 27.828125 65.921875 22.671875 59.328125 
Q 17.53125 52.734375 16.796875 39.40625 
Q 19.671875 43.65625 24.015625 45.921875 
Q 28.375 48.1875 33.59375 48.1875 
Q 44.578125 48.1875 50.953125 41.515625 
Q 57.328125 34.859375 57.328125 23.390625 
Q 57.328125 12.15625 50.6875 5.359375 
Q 44.046875 -1.421875 33.015625 -1.421875 
Q 20.359375 -1.421875 13.671875 8.265625 
Q 6.984375 17.96875 6.984375 36.375 
Q 6.984375 53.65625 15.1875 63.9375 
Q 23.390625 74.21875 37.203125 74.21875 
Q 40.921875 74.21875 44.703125 73.484375 
Q 48.484375 72.75 52.59375 71.296875 
z
" id="DejaVuSans-54"/>
      </defs>
      <g style="fill:#555555;" transform="translate(413.956496 172.098437)scale(0.1 -0.1)">
       <use xlink:href="#DejaVuSans-50"/>
       <use x="63.623047" xlink:href="#DejaVuSans-48"/>
       <use x="127.246094" xlink:href="#DejaVuSans-50"/>
       <use x="190.869141" xlink:href="#DejaVuSans-48"/>
       <use x="254.492188" xlink:href="#DejaVuSans-45"/>
       <use x="290.576172" xlink:href="#DejaVuSans-48"/>
       <use x="354.199219" xlink:href="#DejaVuSans-54"/>
      </g>
     </g>
    </g>
    <g id="xtick_6">
     <g id="line2d_11">
      <path clip-path="url(#p8a61f23aa9)" d="M 508.012238 157.5 
L 508.012238 21.6 
" style="fill:none;stroke:#ffffff;stroke-linecap:square;stroke-width:0.8;"/>
     </g>
     <g id="line2d_12">
      <g>
       <use style="fill:#555555;stroke:#555555;stroke-width:0.8;" x="508.012238" xlink:href="#m418ef637c5" y="157.5"/>
      </g>
     </g>
     <g id="text_6">
      <!-- 2020-07 -->
      <defs>
       <path d="M 8.203125 72.90625 
L 55.078125 72.90625 
L 55.078125 68.703125 
L 28.609375 0 
L 18.3125 0 
L 43.21875 64.59375 
L 8.203125 64.59375 
z
" id="DejaVuSans-55"/>
      </defs>
      <g style="fill:#555555;" transform="translate(487.120832 172.098437)scale(0.1 -0.1)">
       <use xlink:href="#DejaVuSans-50"/>
       <use x="63.623047" xlink:href="#DejaVuSans-48"/>
       <use x="127.246094" xlink:href="#DejaVuSans-50"/>
       <use x="190.869141" xlink:href="#DejaVuSans-48"/>
       <use x="254.492188" xlink:href="#DejaVuSans-45"/>
       <use x="290.576172" xlink:href="#DejaVuSans-48"/>
       <use x="354.199219" xlink:href="#DejaVuSans-55"/>
      </g>
     </g>
    </g>
    <g id="xtick_7">
     <g id="line2d_13">
      <path clip-path="url(#p8a61f23aa9)" d="M 583.615385 157.5 
L 583.615385 21.6 
" style="fill:none;stroke:#ffffff;stroke-linecap:square;stroke-width:0.8;"/>
     </g>
     <g id="line2d_14">
      <g>
       <use style="fill:#555555;stroke:#555555;stroke-width:0.8;" x="583.615385" xlink:href="#m418ef637c5" y="157.5"/>
      </g>
     </g>
     <g id="text_7">
      <!-- 2020-08 -->
      <defs>
       <path d="M 31.78125 34.625 
Q 24.75 34.625 20.71875 30.859375 
Q 16.703125 27.09375 16.703125 20.515625 
Q 16.703125 13.921875 20.71875 10.15625 
Q 24.75 6.390625 31.78125 6.390625 
Q 38.8125 6.390625 42.859375 10.171875 
Q 46.921875 13.96875 46.921875 20.515625 
Q 46.921875 27.09375 42.890625 30.859375 
Q 38.875 34.625 31.78125 34.625 
z
M 21.921875 38.8125 
Q 15.578125 40.375 12.03125 44.71875 
Q 8.5 49.078125 8.5 55.328125 
Q 8.5 64.0625 14.71875 69.140625 
Q 20.953125 74.21875 31.78125 74.21875 
Q 42.671875 74.21875 48.875 69.140625 
Q 55.078125 64.0625 55.078125 55.328125 
Q 55.078125 49.078125 51.53125 44.71875 
Q 48 40.375 41.703125 38.8125 
Q 48.828125 37.15625 52.796875 32.3125 
Q 56.78125 27.484375 56.78125 20.515625 
Q 56.78125 9.90625 50.3125 4.234375 
Q 43.84375 -1.421875 31.78125 -1.421875 
Q 19.734375 -1.421875 13.25 4.234375 
Q 6.78125 9.90625 6.78125 20.515625 
Q 6.78125 27.484375 10.78125 32.3125 
Q 14.796875 37.15625 21.921875 38.8125 
z
M 18.3125 54.390625 
Q 18.3125 48.734375 21.84375 45.5625 
Q 25.390625 42.390625 31.78125 42.390625 
Q 38.140625 42.390625 41.71875 45.5625 
Q 45.3125 48.734375 45.3125 54.390625 
Q 45.3125 60.0625 41.71875 63.234375 
Q 38.140625 66.40625 31.78125 66.40625 
Q 25.390625 66.40625 21.84375 63.234375 
Q 18.3125 60.0625 18.3125 54.390625 
z
" id="DejaVuSans-56"/>
      </defs>
      <g style="fill:#555555;" transform="translate(562.723978 172.098437)scale(0.1 -0.1)">
       <use xlink:href="#DejaVuSans-50"/>
       <use x="63.623047" xlink:href="#DejaVuSans-48"/>
       <use x="127.246094" xlink:href="#DejaVuSans-50"/>
       <use x="190.869141" xlink:href="#DejaVuSans-48"/>
       <use x="254.492188" xlink:href="#DejaVuSans-45"/>
       <use x="290.576172" xlink:href="#DejaVuSans-48"/>
       <use x="354.199219" xlink:href="#DejaVuSans-56"/>
      </g>
     </g>
    </g>
   </g>
   <g id="matplotlib.axis_2">
    <g id="ytick_1">
     <g id="line2d_15">
      <path clip-path="url(#p8a61f23aa9)" d="M 90 157.5 
L 648 157.5 
" style="fill:none;stroke:#ffffff;stroke-linecap:square;stroke-width:0.8;"/>
     </g>
     <g id="line2d_16">
      <defs>
       <path d="M 0 0 
L -3.5 0 
" id="m18783307dd" style="stroke:#555555;stroke-width:0.8;"/>
      </defs>
      <g>
       <use style="fill:#555555;stroke:#555555;stroke-width:0.8;" x="90" xlink:href="#m18783307dd" y="157.5"/>
      </g>
     </g>
     <g id="line2d_17">
      <defs>
       <path d="M 0 0 
L 3.5 0 
" id="m7a817e42e7" style="stroke:#555555;stroke-width:0.8;"/>
      </defs>
      <g>
       <use style="fill:#555555;stroke:#555555;stroke-width:0.8;" x="648" xlink:href="#m7a817e42e7" y="157.5"/>
      </g>
     </g>
     <g id="text_8">
      <!-- 0 -->
      <g style="fill:#555555;" transform="translate(76.6375 161.299219)scale(0.1 -0.1)">
       <use xlink:href="#DejaVuSans-48"/>
      </g>
     </g>
     <g id="text_9">
      <!-- 0 -->
      <g style="fill:#555555;" transform="translate(655 161.299219)scale(0.1 -0.1)">
       <use xlink:href="#DejaVuSans-48"/>
      </g>
     </g>
    </g>
    <g id="ytick_2">
     <g id="line2d_18">
      <path clip-path="url(#p8a61f23aa9)" d="M 90 133.967532 
L 648 133.967532 
" style="fill:none;stroke:#ffffff;stroke-linecap:square;stroke-width:0.8;"/>
     </g>
     <g id="line2d_19">
      <g>
       <use style="fill:#555555;stroke:#555555;stroke-width:0.8;" x="90" xlink:href="#m18783307dd" y="133.967532"/>
      </g>
     </g>
     <g id="line2d_20">
      <g>
       <use style="fill:#555555;stroke:#555555;stroke-width:0.8;" x="648" xlink:href="#m7a817e42e7" y="133.967532"/>
      </g>
     </g>
     <g id="text_10">
      <!-- 2 -->
      <g style="fill:#555555;" transform="translate(76.6375 137.766751)scale(0.1 -0.1)">
       <use xlink:href="#DejaVuSans-50"/>
      </g>
     </g>
     <g id="text_11">
      <!-- 2 -->
      <g style="fill:#555555;" transform="translate(655 137.766751)scale(0.1 -0.1)">
       <use xlink:href="#DejaVuSans-50"/>
      </g>
     </g>
    </g>
    <g id="ytick_3">
     <g id="line2d_21">
      <path clip-path="url(#p8a61f23aa9)" d="M 90 110.435065 
L 648 110.435065 
" style="fill:none;stroke:#ffffff;stroke-linecap:square;stroke-width:0.8;"/>
     </g>
     <g id="line2d_22">
      <g>
       <use style="fill:#555555;stroke:#555555;stroke-width:0.8;" x="90" xlink:href="#m18783307dd" y="110.435065"/>
      </g>
     </g>
     <g id="line2d_23">
      <g>
       <use style="fill:#555555;stroke:#555555;stroke-width:0.8;" x="648" xlink:href="#m7a817e42e7" y="110.435065"/>
      </g>
     </g>
     <g id="text_12">
      <!-- 4 -->
      <g style="fill:#555555;" transform="translate(76.6375 114.234284)scale(0.1 -0.1)">
       <use xlink:href="#DejaVuSans-52"/>
      </g>
     </g>
     <g id="text_13">
      <!-- 4 -->
      <g style="fill:#555555;" transform="translate(655 114.234284)scale(0.1 -0.1)">
       <use xlink:href="#DejaVuSans-52"/>
      </g>
     </g>
    </g>
    <g id="ytick_4">
     <g id="line2d_24">
      <path clip-path="url(#p8a61f23aa9)" d="M 90 86.902597 
L 648 86.902597 
" style="fill:none;stroke:#ffffff;stroke-linecap:square;stroke-width:0.8;"/>
     </g>
     <g id="line2d_25">
      <g>
       <use style="fill:#555555;stroke:#555555;stroke-width:0.8;" x="90" xlink:href="#m18783307dd" y="86.902597"/>
      </g>
     </g>
     <g id="line2d_26">
      <g>
       <use style="fill:#555555;stroke:#555555;stroke-width:0.8;" x="648" xlink:href="#m7a817e42e7" y="86.902597"/>
      </g>
     </g>
     <g id="text_14">
      <!-- 6 -->
      <g style="fill:#555555;" transform="translate(76.6375 90.701816)scale(0.1 -0.1)">
       <use xlink:href="#DejaVuSans-54"/>
      </g>
     </g>
     <g id="text_15">
      <!-- 6 -->
      <g style="fill:#555555;" transform="translate(655 90.701816)scale(0.1 -0.1)">
       <use xlink:href="#DejaVuSans-54"/>
      </g>
     </g>
    </g>
    <g id="ytick_5">
     <g id="line2d_27">
      <path clip-path="url(#p8a61f23aa9)" d="M 90 63.37013 
L 648 63.37013 
" style="fill:none;stroke:#ffffff;stroke-linecap:square;stroke-width:0.8;"/>
     </g>
     <g id="line2d_28">
      <g>
       <use style="fill:#555555;stroke:#555555;stroke-width:0.8;" x="90" xlink:href="#m18783307dd" y="63.37013"/>
      </g>
     </g>
     <g id="line2d_29">
      <g>
       <use style="fill:#555555;stroke:#555555;stroke-width:0.8;" x="648" xlink:href="#m7a817e42e7" y="63.37013"/>
      </g>
     </g>
     <g id="text_16">
      <!-- 8 -->
      <g style="fill:#555555;" transform="translate(76.6375 67.169349)scale(0.1 -0.1)">
       <use xlink:href="#DejaVuSans-56"/>
      </g>
     </g>
     <g id="text_17">
      <!-- 8 -->
      <g style="fill:#555555;" transform="translate(655 67.169349)scale(0.1 -0.1)">
       <use xlink:href="#DejaVuSans-56"/>
      </g>
     </g>
    </g>
    <g id="ytick_6">
     <g id="line2d_30">
      <path clip-path="url(#p8a61f23aa9)" d="M 90 39.837662 
L 648 39.837662 
" style="fill:none;stroke:#ffffff;stroke-linecap:square;stroke-width:0.8;"/>
     </g>
     <g id="line2d_31">
      <g>
       <use style="fill:#555555;stroke:#555555;stroke-width:0.8;" x="90" xlink:href="#m18783307dd" y="39.837662"/>
      </g>
     </g>
     <g id="line2d_32">
      <g>
       <use style="fill:#555555;stroke:#555555;stroke-width:0.8;" x="648" xlink:href="#m7a817e42e7" y="39.837662"/>
      </g>
     </g>
     <g id="text_18">
      <!-- 10 -->
      <defs>
       <path d="M 12.40625 8.296875 
L 28.515625 8.296875 
L 28.515625 63.921875 
L 10.984375 60.40625 
L 10.984375 69.390625 
L 28.421875 72.90625 
L 38.28125 72.90625 
L 38.28125 8.296875 
L 54.390625 8.296875 
L 54.390625 0 
L 12.40625 0 
z
" id="DejaVuSans-49"/>
      </defs>
      <g style="fill:#555555;" transform="translate(70.275 43.636881)scale(0.1 -0.1)">
       <use xlink:href="#DejaVuSans-49"/>
       <use x="63.623047" xlink:href="#DejaVuSans-48"/>
      </g>
     </g>
     <g id="text_19">
      <!-- 10 -->
      <g style="fill:#555555;" transform="translate(655 43.636881)scale(0.1 -0.1)">
       <use xlink:href="#DejaVuSans-49"/>
       <use x="63.623047" xlink:href="#DejaVuSans-48"/>
      </g>
     </g>
    </g>
    <g id="text_20">
     <!-- daily change -->
     <defs>
      <path d="M 45.40625 46.390625 
L 45.40625 75.984375 
L 54.390625 75.984375 
L 54.390625 0 
L 45.40625 0 
L 45.40625 8.203125 
Q 42.578125 3.328125 38.25 0.953125 
Q 33.9375 -1.421875 27.875 -1.421875 
Q 17.96875 -1.421875 11.734375 6.484375 
Q 5.515625 14.40625 5.515625 27.296875 
Q 5.515625 40.1875 11.734375 48.09375 
Q 17.96875 56 27.875 56 
Q 33.9375 56 38.25 53.625 
Q 42.578125 51.265625 45.40625 46.390625 
z
M 14.796875 27.296875 
Q 14.796875 17.390625 18.875 11.75 
Q 22.953125 6.109375 30.078125 6.109375 
Q 37.203125 6.109375 41.296875 11.75 
Q 45.40625 17.390625 45.40625 27.296875 
Q 45.40625 37.203125 41.296875 42.84375 
Q 37.203125 48.484375 30.078125 48.484375 
Q 22.953125 48.484375 18.875 42.84375 
Q 14.796875 37.203125 14.796875 27.296875 
z
" id="DejaVuSans-100"/>
      <path d="M 34.28125 27.484375 
Q 23.390625 27.484375 19.1875 25 
Q 14.984375 22.515625 14.984375 16.5 
Q 14.984375 11.71875 18.140625 8.90625 
Q 21.296875 6.109375 26.703125 6.109375 
Q 34.1875 6.109375 38.703125 11.40625 
Q 43.21875 16.703125 43.21875 25.484375 
L 43.21875 27.484375 
z
M 52.203125 31.203125 
L 52.203125 0 
L 43.21875 0 
L 43.21875 8.296875 
Q 40.140625 3.328125 35.546875 0.953125 
Q 30.953125 -1.421875 24.3125 -1.421875 
Q 15.921875 -1.421875 10.953125 3.296875 
Q 6 8.015625 6 15.921875 
Q 6 25.140625 12.171875 29.828125 
Q 18.359375 34.515625 30.609375 34.515625 
L 43.21875 34.515625 
L 43.21875 35.40625 
Q 43.21875 41.609375 39.140625 45 
Q 35.0625 48.390625 27.6875 48.390625 
Q 23 48.390625 18.546875 47.265625 
Q 14.109375 46.140625 10.015625 43.890625 
L 10.015625 52.203125 
Q 14.9375 54.109375 19.578125 55.046875 
Q 24.21875 56 28.609375 56 
Q 40.484375 56 46.34375 49.84375 
Q 52.203125 43.703125 52.203125 31.203125 
z
" id="DejaVuSans-97"/>
      <path d="M 9.421875 54.6875 
L 18.40625 54.6875 
L 18.40625 0 
L 9.421875 0 
z
M 9.421875 75.984375 
L 18.40625 75.984375 
L 18.40625 64.59375 
L 9.421875 64.59375 
z
" id="DejaVuSans-105"/>
      <path d="M 9.421875 75.984375 
L 18.40625 75.984375 
L 18.40625 0 
L 9.421875 0 
z
" id="DejaVuSans-108"/>
      <path d="M 32.171875 -5.078125 
Q 28.375 -14.84375 24.75 -17.8125 
Q 21.140625 -20.796875 15.09375 -20.796875 
L 7.90625 -20.796875 
L 7.90625 -13.28125 
L 13.1875 -13.28125 
Q 16.890625 -13.28125 18.9375 -11.515625 
Q 21 -9.765625 23.484375 -3.21875 
L 25.09375 0.875 
L 2.984375 54.6875 
L 12.5 54.6875 
L 29.59375 11.921875 
L 46.6875 54.6875 
L 56.203125 54.6875 
z
" id="DejaVuSans-121"/>
      <path id="DejaVuSans-32"/>
      <path d="M 48.78125 52.59375 
L 48.78125 44.1875 
Q 44.96875 46.296875 41.140625 47.34375 
Q 37.3125 48.390625 33.40625 48.390625 
Q 24.65625 48.390625 19.8125 42.84375 
Q 14.984375 37.3125 14.984375 27.296875 
Q 14.984375 17.28125 19.8125 11.734375 
Q 24.65625 6.203125 33.40625 6.203125 
Q 37.3125 6.203125 41.140625 7.25 
Q 44.96875 8.296875 48.78125 10.40625 
L 48.78125 2.09375 
Q 45.015625 0.34375 40.984375 -0.53125 
Q 36.96875 -1.421875 32.421875 -1.421875 
Q 20.0625 -1.421875 12.78125 6.34375 
Q 5.515625 14.109375 5.515625 27.296875 
Q 5.515625 40.671875 12.859375 48.328125 
Q 20.21875 56 33.015625 56 
Q 37.15625 56 41.109375 55.140625 
Q 45.0625 54.296875 48.78125 52.59375 
z
" id="DejaVuSans-99"/>
      <path d="M 54.890625 33.015625 
L 54.890625 0 
L 45.90625 0 
L 45.90625 32.71875 
Q 45.90625 40.484375 42.875 44.328125 
Q 39.84375 48.1875 33.796875 48.1875 
Q 26.515625 48.1875 22.3125 43.546875 
Q 18.109375 38.921875 18.109375 30.90625 
L 18.109375 0 
L 9.078125 0 
L 9.078125 75.984375 
L 18.109375 75.984375 
L 18.109375 46.1875 
Q 21.34375 51.125 25.703125 53.5625 
Q 30.078125 56 35.796875 56 
Q 45.21875 56 50.046875 50.171875 
Q 54.890625 44.34375 54.890625 33.015625 
z
" id="DejaVuSans-104"/>
      <path d="M 54.890625 33.015625 
L 54.890625 0 
L 45.90625 0 
L 45.90625 32.71875 
Q 45.90625 40.484375 42.875 44.328125 
Q 39.84375 48.1875 33.796875 48.1875 
Q 26.515625 48.1875 22.3125 43.546875 
Q 18.109375 38.921875 18.109375 30.90625 
L 18.109375 0 
L 9.078125 0 
L 9.078125 54.6875 
L 18.109375 54.6875 
L 18.109375 46.1875 
Q 21.34375 51.125 25.703125 53.5625 
Q 30.078125 56 35.796875 56 
Q 45.21875 56 50.046875 50.171875 
Q 54.890625 44.34375 54.890625 33.015625 
z
" id="DejaVuSans-110"/>
      <path d="M 45.40625 27.984375 
Q 45.40625 37.75 41.375 43.109375 
Q 37.359375 48.484375 30.078125 48.484375 
Q 22.859375 48.484375 18.828125 43.109375 
Q 14.796875 37.75 14.796875 27.984375 
Q 14.796875 18.265625 18.828125 12.890625 
Q 22.859375 7.515625 30.078125 7.515625 
Q 37.359375 7.515625 41.375 12.890625 
Q 45.40625 18.265625 45.40625 27.984375 
z
M 54.390625 6.78125 
Q 54.390625 -7.171875 48.1875 -13.984375 
Q 42 -20.796875 29.203125 -20.796875 
Q 24.46875 -20.796875 20.265625 -20.09375 
Q 16.0625 -19.390625 12.109375 -17.921875 
L 12.109375 -9.1875 
Q 16.0625 -11.328125 19.921875 -12.34375 
Q 23.78125 -13.375 27.78125 -13.375 
Q 36.625 -13.375 41.015625 -8.765625 
Q 45.40625 -4.15625 45.40625 5.171875 
L 45.40625 9.625 
Q 42.625 4.78125 38.28125 2.390625 
Q 33.9375 0 27.875 0 
Q 17.828125 0 11.671875 7.65625 
Q 5.515625 15.328125 5.515625 27.984375 
Q 5.515625 40.671875 11.671875 48.328125 
Q 17.828125 56 27.875 56 
Q 33.9375 56 38.28125 53.609375 
Q 42.625 51.21875 45.40625 46.390625 
L 45.40625 54.6875 
L 54.390625 54.6875 
z
" id="DejaVuSans-103"/>
      <path d="M 56.203125 29.59375 
L 56.203125 25.203125 
L 14.890625 25.203125 
Q 15.484375 15.921875 20.484375 11.0625 
Q 25.484375 6.203125 34.421875 6.203125 
Q 39.59375 6.203125 44.453125 7.46875 
Q 49.3125 8.734375 54.109375 11.28125 
L 54.109375 2.78125 
Q 49.265625 0.734375 44.1875 -0.34375 
Q 39.109375 -1.421875 33.890625 -1.421875 
Q 20.796875 -1.421875 13.15625 6.1875 
Q 5.515625 13.8125 5.515625 26.8125 
Q 5.515625 40.234375 12.765625 48.109375 
Q 20.015625 56 32.328125 56 
Q 43.359375 56 49.78125 48.890625 
Q 56.203125 41.796875 56.203125 29.59375 
z
M 47.21875 32.234375 
Q 47.125 39.59375 43.09375 43.984375 
Q 39.0625 48.390625 32.421875 48.390625 
Q 24.90625 48.390625 20.390625 44.140625 
Q 15.875 39.890625 15.1875 32.171875 
z
" id="DejaVuSans-101"/>
     </defs>
     <g style="fill:#555555;" transform="translate(63.779375 127.909687)rotate(-90)scale(0.12 -0.12)">
      <use xlink:href="#DejaVuSans-100"/>
      <use x="63.476562" xlink:href="#DejaVuSans-97"/>
      <use x="124.755859" xlink:href="#DejaVuSans-105"/>
      <use x="152.539062" xlink:href="#DejaVuSans-108"/>
      <use x="180.322266" xlink:href="#DejaVuSans-121"/>
      <use x="239.501953" xlink:href="#DejaVuSans-32"/>
      <use x="271.289062" xlink:href="#DejaVuSans-99"/>
      <use x="326.269531" xlink:href="#DejaVuSans-104"/>
      <use x="389.648438" xlink:href="#DejaVuSans-97"/>
      <use x="450.927734" xlink:href="#DejaVuSans-110"/>
      <use x="514.306641" xlink:href="#DejaVuSans-103"/>
      <use x="577.783203" xlink:href="#DejaVuSans-101"/>
     </g>
    </g>
   </g>
   <g id="patch_3">
    <path clip-path="url(#p8a61f23aa9)" d="M 116.826923 157.5 
L 118.777972 157.5 
L 118.777972 157.5 
L 116.826923 157.5 
z
" style="fill:#e24a33;opacity:0.2;"/>
   </g>
   <g id="patch_4">
    <path clip-path="url(#p8a61f23aa9)" d="M 119.265734 157.5 
L 121.216783 157.5 
L 121.216783 157.5 
L 119.265734 157.5 
z
" style="fill:#e24a33;opacity:0.2;"/>
   </g>
   <g id="patch_5">
    <path clip-path="url(#p8a61f23aa9)" d="M 121.704545 157.5 
L 123.655594 157.5 
L 123.655594 157.5 
L 121.704545 157.5 
z
" style="fill:#e24a33;opacity:0.2;"/>
   </g>
   <g id="patch_6">
    <path clip-path="url(#p8a61f23aa9)" d="M 124.143357 157.5 
L 126.094406 157.5 
L 126.094406 157.5 
L 124.143357 157.5 
z
" style="fill:#e24a33;opacity:0.2;"/>
   </g>
   <g id="patch_7">
    <path clip-path="url(#p8a61f23aa9)" d="M 126.582168 157.5 
L 128.533217 157.5 
L 128.533217 157.5 
L 126.582168 157.5 
z
" style="fill:#e24a33;opacity:0.2;"/>
   </g>
   <g id="patch_8">
    <path clip-path="url(#p8a61f23aa9)" d="M 129.020979 157.5 
L 130.972028 157.5 
L 130.972028 157.5 
L 129.020979 157.5 
z
" style="fill:#e24a33;opacity:0.2;"/>
   </g>
   <g id="patch_9">
    <path clip-path="url(#p8a61f23aa9)" d="M 131.45979 157.5 
L 133.410839 157.5 
L 133.410839 157.5 
L 131.45979 157.5 
z
" style="fill:#e24a33;opacity:0.2;"/>
   </g>
   <g id="patch_10">
    <path clip-path="url(#p8a61f23aa9)" d="M 133.898601 157.5 
L 135.84965 157.5 
L 135.84965 157.5 
L 133.898601 157.5 
z
" style="fill:#e24a33;opacity:0.2;"/>
   </g>
   <g id="patch_11">
    <path clip-path="url(#p8a61f23aa9)" d="M 136.337413 157.5 
L 138.288462 157.5 
L 138.288462 157.5 
L 136.337413 157.5 
z
" style="fill:#e24a33;opacity:0.2;"/>
   </g>
   <g id="patch_12">
    <path clip-path="url(#p8a61f23aa9)" d="M 138.776224 157.5 
L 140.727273 157.5 
L 140.727273 157.5 
L 138.776224 157.5 
z
" style="fill:#e24a33;opacity:0.2;"/>
   </g>
   <g id="patch_13">
    <path clip-path="url(#p8a61f23aa9)" d="M 141.215035 157.5 
L 143.166084 157.5 
L 143.166084 157.5 
L 141.215035 157.5 
z
" style="fill:#e24a33;opacity:0.2;"/>
   </g>
   <g id="patch_14">
    <path clip-path="url(#p8a61f23aa9)" d="M 143.653846 157.5 
L 145.604895 157.5 
L 145.604895 157.5 
L 143.653846 157.5 
z
" style="fill:#e24a33;opacity:0.2;"/>
   </g>
   <g id="patch_15">
    <path clip-path="url(#p8a61f23aa9)" d="M 146.092657 157.5 
L 148.043706 157.5 
L 148.043706 157.5 
L 146.092657 157.5 
z
" style="fill:#e24a33;opacity:0.2;"/>
   </g>
   <g id="patch_16">
    <path clip-path="url(#p8a61f23aa9)" d="M 148.531469 157.5 
L 150.482517 157.5 
L 150.482517 157.5 
L 148.531469 157.5 
z
" style="fill:#e24a33;opacity:0.2;"/>
   </g>
   <g id="patch_17">
    <path clip-path="url(#p8a61f23aa9)" d="M 150.97028 157.5 
L 152.921329 157.5 
L 152.921329 157.5 
L 150.97028 157.5 
z
" style="fill:#e24a33;opacity:0.2;"/>
   </g>
   <g id="patch_18">
    <path clip-path="url(#p8a61f23aa9)" d="M 153.409091 157.5 
L 155.36014 157.5 
L 155.36014 157.5 
L 153.409091 157.5 
z
" style="fill:#e24a33;opacity:0.2;"/>
   </g>
   <g id="patch_19">
    <path clip-path="url(#p8a61f23aa9)" d="M 155.847902 157.5 
L 157.798951 157.5 
L 157.798951 157.5 
L 155.847902 157.5 
z
" style="fill:#e24a33;opacity:0.2;"/>
   </g>
   <g id="patch_20">
    <path clip-path="url(#p8a61f23aa9)" d="M 158.286713 157.5 
L 160.237762 157.5 
L 160.237762 157.5 
L 158.286713 157.5 
z
" style="fill:#e24a33;opacity:0.2;"/>
   </g>
   <g id="patch_21">
    <path clip-path="url(#p8a61f23aa9)" d="M 160.725524 157.5 
L 162.676573 157.5 
L 162.676573 157.5 
L 160.725524 157.5 
z
" style="fill:#e24a33;opacity:0.2;"/>
   </g>
   <g id="patch_22">
    <path clip-path="url(#p8a61f23aa9)" d="M 163.164336 157.5 
L 165.115385 157.5 
L 165.115385 157.5 
L 163.164336 157.5 
z
" style="fill:#e24a33;opacity:0.2;"/>
   </g>
   <g id="patch_23">
    <path clip-path="url(#p8a61f23aa9)" d="M 165.603147 157.5 
L 167.554196 157.5 
L 167.554196 157.5 
L 165.603147 157.5 
z
" style="fill:#e24a33;opacity:0.2;"/>
   </g>
   <g id="patch_24">
    <path clip-path="url(#p8a61f23aa9)" d="M 168.041958 157.5 
L 169.993007 157.5 
L 169.993007 157.5 
L 168.041958 157.5 
z
" style="fill:#e24a33;opacity:0.2;"/>
   </g>
   <g id="patch_25">
    <path clip-path="url(#p8a61f23aa9)" d="M 170.480769 157.5 
L 172.431818 157.5 
L 172.431818 157.5 
L 170.480769 157.5 
z
" style="fill:#e24a33;opacity:0.2;"/>
   </g>
   <g id="patch_26">
    <path clip-path="url(#p8a61f23aa9)" d="M 172.91958 157.5 
L 174.870629 157.5 
L 174.870629 157.5 
L 172.91958 157.5 
z
" style="fill:#e24a33;opacity:0.2;"/>
   </g>
   <g id="patch_27">
    <path clip-path="url(#p8a61f23aa9)" d="M 175.358392 157.5 
L 177.309441 157.5 
L 177.309441 157.5 
L 175.358392 157.5 
z
" style="fill:#e24a33;opacity:0.2;"/>
   </g>
   <g id="patch_28">
    <path clip-path="url(#p8a61f23aa9)" d="M 177.797203 157.5 
L 179.748252 157.5 
L 179.748252 157.5 
L 177.797203 157.5 
z
" style="fill:#e24a33;opacity:0.2;"/>
   </g>
   <g id="patch_29">
    <path clip-path="url(#p8a61f23aa9)" d="M 180.236014 157.5 
L 182.187063 157.5 
L 182.187063 157.5 
L 180.236014 157.5 
z
" style="fill:#e24a33;opacity:0.2;"/>
   </g>
   <g id="patch_30">
    <path clip-path="url(#p8a61f23aa9)" d="M 182.674825 157.5 
L 184.625874 157.5 
L 184.625874 157.5 
L 182.674825 157.5 
z
" style="fill:#e24a33;opacity:0.2;"/>
   </g>
   <g id="patch_31">
    <path clip-path="url(#p8a61f23aa9)" d="M 185.113636 157.5 
L 187.064685 157.5 
L 187.064685 145.733766 
L 185.113636 145.733766 
z
" style="fill:#e24a33;opacity:0.2;"/>
   </g>
   <g id="patch_32">
    <path clip-path="url(#p8a61f23aa9)" d="M 187.552448 157.5 
L 189.503497 157.5 
L 189.503497 145.733766 
L 187.552448 145.733766 
z
" style="fill:#e24a33;opacity:0.2;"/>
   </g>
   <g id="patch_33">
    <path clip-path="url(#p8a61f23aa9)" d="M 189.991259 157.5 
L 191.942308 157.5 
L 191.942308 157.5 
L 189.991259 157.5 
z
" style="fill:#e24a33;opacity:0.2;"/>
   </g>
   <g id="patch_34">
    <path clip-path="url(#p8a61f23aa9)" d="M 192.43007 157.5 
L 194.381119 157.5 
L 194.381119 110.435065 
L 192.43007 110.435065 
z
" style="fill:#e24a33;opacity:0.2;"/>
   </g>
   <g id="patch_35">
    <path clip-path="url(#p8a61f23aa9)" d="M 194.868881 157.5 
L 196.81993 157.5 
L 196.81993 133.967532 
L 194.868881 133.967532 
z
" style="fill:#e24a33;opacity:0.2;"/>
   </g>
   <g id="patch_36">
    <path clip-path="url(#p8a61f23aa9)" d="M 197.307692 157.5 
L 199.258741 157.5 
L 199.258741 133.967532 
L 197.307692 133.967532 
z
" style="fill:#e24a33;opacity:0.2;"/>
   </g>
   <g id="patch_37">
    <path clip-path="url(#p8a61f23aa9)" d="M 199.746503 157.5 
L 201.697552 157.5 
L 201.697552 133.967532 
L 199.746503 133.967532 
z
" style="fill:#e24a33;opacity:0.2;"/>
   </g>
   <g id="patch_38">
    <path clip-path="url(#p8a61f23aa9)" d="M 202.185315 157.5 
L 204.136364 157.5 
L 204.136364 145.733766 
L 202.185315 145.733766 
z
" style="fill:#e24a33;opacity:0.2;"/>
   </g>
   <g id="patch_39">
    <path clip-path="url(#p8a61f23aa9)" d="M 204.624126 157.5 
L 206.575175 157.5 
L 206.575175 157.5 
L 204.624126 157.5 
z
" style="fill:#e24a33;opacity:0.2;"/>
   </g>
   <g id="patch_40">
    <path clip-path="url(#p8a61f23aa9)" d="M 207.062937 157.5 
L 209.013986 157.5 
L 209.013986 122.201299 
L 207.062937 122.201299 
z
" style="fill:#e24a33;opacity:0.2;"/>
   </g>
   <g id="patch_41">
    <path clip-path="url(#p8a61f23aa9)" d="M 209.501748 157.5 
L 211.452797 157.5 
L 211.452797 145.733766 
L 209.501748 145.733766 
z
" style="fill:#e24a33;opacity:0.2;"/>
   </g>
   <g id="patch_42">
    <path clip-path="url(#p8a61f23aa9)" d="M 211.940559 157.5 
L 213.891608 157.5 
L 213.891608 28.071429 
L 211.940559 28.071429 
z
" style="fill:#e24a33;opacity:0.2;"/>
   </g>
   <g id="patch_43">
    <path clip-path="url(#p8a61f23aa9)" d="M 214.379371 157.5 
L 216.33042 157.5 
L 216.33042 157.5 
L 214.379371 157.5 
z
" style="fill:#e24a33;opacity:0.2;"/>
   </g>
   <g id="patch_44">
    <path clip-path="url(#p8a61f23aa9)" d="M 216.818182 157.5 
L 218.769231 157.5 
L 218.769231 75.136364 
L 216.818182 75.136364 
z
" style="fill:#e24a33;opacity:0.2;"/>
   </g>
   <g id="patch_45">
    <path clip-path="url(#p8a61f23aa9)" d="M 219.256993 157.5 
L 221.208042 157.5 
L 221.208042 157.5 
L 219.256993 157.5 
z
" style="fill:#e24a33;opacity:0.2;"/>
   </g>
   <g id="patch_46">
    <path clip-path="url(#p8a61f23aa9)" d="M 221.695804 157.5 
L 223.646853 157.5 
L 223.646853 75.136364 
L 221.695804 75.136364 
z
" style="fill:#e24a33;opacity:0.2;"/>
   </g>
   <g id="patch_47">
    <path clip-path="url(#p8a61f23aa9)" d="M 224.134615 157.5 
L 226.085664 157.5 
L 226.085664 133.967532 
L 224.134615 133.967532 
z
" style="fill:#e24a33;opacity:0.2;"/>
   </g>
   <g id="patch_48">
    <path clip-path="url(#p8a61f23aa9)" d="M 226.573427 157.5 
L 228.524476 157.5 
L 228.524476 86.902597 
L 226.573427 86.902597 
z
" style="fill:#e24a33;opacity:0.2;"/>
   </g>
   <g id="patch_49">
    <path clip-path="url(#p8a61f23aa9)" d="M 229.012238 157.5 
L 230.963287 157.5 
L 230.963287 122.201299 
L 229.012238 122.201299 
z
" style="fill:#e24a33;opacity:0.2;"/>
   </g>
   <g id="patch_50">
    <path clip-path="url(#p8a61f23aa9)" d="M 231.451049 157.5 
L 233.402098 157.5 
L 233.402098 145.733766 
L 231.451049 145.733766 
z
" style="fill:#e24a33;opacity:0.2;"/>
   </g>
   <g id="patch_51">
    <path clip-path="url(#p8a61f23aa9)" d="M 233.88986 157.5 
L 235.840909 157.5 
L 235.840909 86.902597 
L 233.88986 86.902597 
z
" style="fill:#e24a33;opacity:0.2;"/>
   </g>
   <g id="patch_52">
    <path clip-path="url(#p8a61f23aa9)" d="M 236.328671 157.5 
L 238.27972 157.5 
L 238.27972 86.902597 
L 236.328671 86.902597 
z
" style="fill:#e24a33;opacity:0.2;"/>
   </g>
   <g id="patch_53">
    <path clip-path="url(#p8a61f23aa9)" d="M 238.767483 157.5 
L 240.718531 157.5 
L 240.718531 157.5 
L 238.767483 157.5 
z
" style="fill:#e24a33;opacity:0.2;"/>
   </g>
   <g id="patch_54">
    <path clip-path="url(#p8a61f23aa9)" d="M 241.206294 157.5 
L 243.157343 157.5 
L 243.157343 86.902597 
L 241.206294 86.902597 
z
" style="fill:#e24a33;opacity:0.2;"/>
   </g>
   <g id="patch_55">
    <path clip-path="url(#p8a61f23aa9)" d="M 243.645105 157.5 
L 245.596154 157.5 
L 245.596154 122.201299 
L 243.645105 122.201299 
z
" style="fill:#e24a33;opacity:0.2;"/>
   </g>
   <g id="patch_56">
    <path clip-path="url(#p8a61f23aa9)" d="M 246.083916 157.5 
L 248.034965 157.5 
L 248.034965 157.5 
L 246.083916 157.5 
z
" style="fill:#e24a33;opacity:0.2;"/>
   </g>
   <g id="patch_57">
    <path clip-path="url(#p8a61f23aa9)" d="M 248.522727 157.5 
L 250.473776 157.5 
L 250.473776 86.902597 
L 248.522727 86.902597 
z
" style="fill:#e24a33;opacity:0.2;"/>
   </g>
   <g id="patch_58">
    <path clip-path="url(#p8a61f23aa9)" d="M 250.961538 157.5 
L 252.912587 157.5 
L 252.912587 122.201299 
L 250.961538 122.201299 
z
" style="fill:#e24a33;opacity:0.2;"/>
   </g>
   <g id="patch_59">
    <path clip-path="url(#p8a61f23aa9)" d="M 253.40035 157.5 
L 255.351399 157.5 
L 255.351399 75.136364 
L 253.40035 75.136364 
z
" style="fill:#e24a33;opacity:0.2;"/>
   </g>
   <g id="patch_60">
    <path clip-path="url(#p8a61f23aa9)" d="M 255.839161 157.5 
L 257.79021 157.5 
L 257.79021 122.201299 
L 255.839161 122.201299 
z
" style="fill:#e24a33;opacity:0.2;"/>
   </g>
   <g id="patch_61">
    <path clip-path="url(#p8a61f23aa9)" d="M 258.277972 157.5 
L 260.229021 157.5 
L 260.229021 63.37013 
L 258.277972 63.37013 
z
" style="fill:#e24a33;opacity:0.2;"/>
   </g>
   <g id="patch_62">
    <path clip-path="url(#p8a61f23aa9)" d="M 260.716783 157.5 
L 262.667832 157.5 
L 262.667832 51.603896 
L 260.716783 51.603896 
z
" style="fill:#e24a33;opacity:0.2;"/>
   </g>
   <g id="patch_63">
    <path clip-path="url(#p8a61f23aa9)" d="M 263.155594 157.5 
L 265.106643 157.5 
L 265.106643 157.5 
L 263.155594 157.5 
z
" style="fill:#e24a33;opacity:0.2;"/>
   </g>
   <g id="patch_64">
    <path clip-path="url(#p8a61f23aa9)" d="M 265.594406 157.5 
L 267.545455 157.5 
L 267.545455 51.603896 
L 265.594406 51.603896 
z
" style="fill:#e24a33;opacity:0.2;"/>
   </g>
   <g id="patch_65">
    <path clip-path="url(#p8a61f23aa9)" d="M 268.033217 157.5 
L 269.984266 157.5 
L 269.984266 86.902597 
L 268.033217 86.902597 
z
" style="fill:#e24a33;opacity:0.2;"/>
   </g>
   <g id="patch_66">
    <path clip-path="url(#p8a61f23aa9)" d="M 270.472028 157.5 
L 272.423077 157.5 
L 272.423077 98.668831 
L 270.472028 98.668831 
z
" style="fill:#e24a33;opacity:0.2;"/>
   </g>
   <g id="patch_67">
    <path clip-path="url(#p8a61f23aa9)" d="M 272.910839 157.5 
L 274.861888 157.5 
L 274.861888 63.37013 
L 272.910839 63.37013 
z
" style="fill:#e24a33;opacity:0.2;"/>
   </g>
   <g id="patch_68">
    <path clip-path="url(#p8a61f23aa9)" d="M 275.34965 157.5 
L 277.300699 157.5 
L 277.300699 98.668831 
L 275.34965 98.668831 
z
" style="fill:#e24a33;opacity:0.2;"/>
   </g>
   <g id="patch_69">
    <path clip-path="url(#p8a61f23aa9)" d="M 277.788462 157.5 
L 279.73951 157.5 
L 279.73951 63.37013 
L 277.788462 63.37013 
z
" style="fill:#e24a33;opacity:0.2;"/>
   </g>
   <g id="patch_70">
    <path clip-path="url(#p8a61f23aa9)" d="M 280.227273 157.5 
L 282.178322 157.5 
L 282.178322 86.902597 
L 280.227273 86.902597 
z
" style="fill:#e24a33;opacity:0.2;"/>
   </g>
   <g id="patch_71">
    <path clip-path="url(#p8a61f23aa9)" d="M 282.666084 157.5 
L 284.617133 157.5 
L 284.617133 110.435065 
L 282.666084 110.435065 
z
" style="fill:#e24a33;opacity:0.2;"/>
   </g>
   <g id="patch_72">
    <path clip-path="url(#p8a61f23aa9)" d="M 285.104895 157.5 
L 287.055944 157.5 
L 287.055944 122.201299 
L 285.104895 122.201299 
z
" style="fill:#e24a33;opacity:0.2;"/>
   </g>
   <g id="patch_73">
    <path clip-path="url(#p8a61f23aa9)" d="M 287.543706 157.5 
L 289.494755 157.5 
L 289.494755 110.435065 
L 287.543706 110.435065 
z
" style="fill:#e24a33;opacity:0.2;"/>
   </g>
   <g id="patch_74">
    <path clip-path="url(#p8a61f23aa9)" d="M 289.982517 157.5 
L 291.933566 157.5 
L 291.933566 98.668831 
L 289.982517 98.668831 
z
" style="fill:#e24a33;opacity:0.2;"/>
   </g>
   <g id="patch_75">
    <path clip-path="url(#p8a61f23aa9)" d="M 292.421329 157.5 
L 294.372378 157.5 
L 294.372378 122.201299 
L 292.421329 122.201299 
z
" style="fill:#e24a33;opacity:0.2;"/>
   </g>
   <g id="patch_76">
    <path clip-path="url(#p8a61f23aa9)" d="M 294.86014 157.5 
L 296.811189 157.5 
L 296.811189 86.902597 
L 294.86014 86.902597 
z
" style="fill:#e24a33;opacity:0.2;"/>
   </g>
   <g id="patch_77">
    <path clip-path="url(#p8a61f23aa9)" d="M 297.298951 157.5 
L 299.25 157.5 
L 299.25 122.201299 
L 297.298951 122.201299 
z
" style="fill:#e24a33;opacity:0.2;"/>
   </g>
   <g id="patch_78">
    <path clip-path="url(#p8a61f23aa9)" d="M 299.737762 157.5 
L 301.688811 157.5 
L 301.688811 86.902597 
L 299.737762 86.902597 
z
" style="fill:#e24a33;opacity:0.2;"/>
   </g>
   <g id="patch_79">
    <path clip-path="url(#p8a61f23aa9)" d="M 302.176573 157.5 
L 304.127622 157.5 
L 304.127622 63.37013 
L 302.176573 63.37013 
z
" style="fill:#e24a33;opacity:0.2;"/>
   </g>
   <g id="patch_80">
    <path clip-path="url(#p8a61f23aa9)" d="M 304.615385 157.5 
L 306.566434 157.5 
L 306.566434 110.435065 
L 304.615385 110.435065 
z
" style="fill:#e24a33;opacity:0.2;"/>
   </g>
   <g id="patch_81">
    <path clip-path="url(#p8a61f23aa9)" d="M 307.054196 157.5 
L 309.005245 157.5 
L 309.005245 110.435065 
L 307.054196 110.435065 
z
" style="fill:#e24a33;opacity:0.2;"/>
   </g>
   <g id="patch_82">
    <path clip-path="url(#p8a61f23aa9)" d="M 309.493007 157.5 
L 311.444056 157.5 
L 311.444056 122.201299 
L 309.493007 122.201299 
z
" style="fill:#e24a33;opacity:0.2;"/>
   </g>
   <g id="patch_83">
    <path clip-path="url(#p8a61f23aa9)" d="M 311.931818 157.5 
L 313.882867 157.5 
L 313.882867 122.201299 
L 311.931818 122.201299 
z
" style="fill:#e24a33;opacity:0.2;"/>
   </g>
   <g id="patch_84">
    <path clip-path="url(#p8a61f23aa9)" d="M 314.370629 157.5 
L 316.321678 157.5 
L 316.321678 122.201299 
L 314.370629 122.201299 
z
" style="fill:#e24a33;opacity:0.2;"/>
   </g>
   <g id="patch_85">
    <path clip-path="url(#p8a61f23aa9)" d="M 316.809441 157.5 
L 318.76049 157.5 
L 318.76049 98.668831 
L 316.809441 98.668831 
z
" style="fill:#e24a33;opacity:0.2;"/>
   </g>
   <g id="patch_86">
    <path clip-path="url(#p8a61f23aa9)" d="M 319.248252 157.5 
L 321.199301 157.5 
L 321.199301 122.201299 
L 319.248252 122.201299 
z
" style="fill:#e24a33;opacity:0.2;"/>
   </g>
   <g id="patch_87">
    <path clip-path="url(#p8a61f23aa9)" d="M 321.687063 157.5 
L 323.638112 157.5 
L 323.638112 110.435065 
L 321.687063 110.435065 
z
" style="fill:#e24a33;opacity:0.2;"/>
   </g>
   <g id="patch_88">
    <path clip-path="url(#p8a61f23aa9)" d="M 324.125874 157.5 
L 326.076923 157.5 
L 326.076923 145.733766 
L 324.125874 145.733766 
z
" style="fill:#e24a33;opacity:0.2;"/>
   </g>
   <g id="patch_89">
    <path clip-path="url(#p8a61f23aa9)" d="M 326.564685 157.5 
L 328.515734 157.5 
L 328.515734 133.967532 
L 326.564685 133.967532 
z
" style="fill:#e24a33;opacity:0.2;"/>
   </g>
   <g id="patch_90">
    <path clip-path="url(#p8a61f23aa9)" d="M 329.003497 157.5 
L 330.954545 157.5 
L 330.954545 133.967532 
L 329.003497 133.967532 
z
" style="fill:#e24a33;opacity:0.2;"/>
   </g>
   <g id="patch_91">
    <path clip-path="url(#p8a61f23aa9)" d="M 331.442308 157.5 
L 333.393357 157.5 
L 333.393357 133.967532 
L 331.442308 133.967532 
z
" style="fill:#e24a33;opacity:0.2;"/>
   </g>
   <g id="patch_92">
    <path clip-path="url(#p8a61f23aa9)" d="M 333.881119 157.5 
L 335.832168 157.5 
L 335.832168 145.733766 
L 333.881119 145.733766 
z
" style="fill:#e24a33;opacity:0.2;"/>
   </g>
   <g id="patch_93">
    <path clip-path="url(#p8a61f23aa9)" d="M 336.31993 157.5 
L 338.270979 157.5 
L 338.270979 145.733766 
L 336.31993 145.733766 
z
" style="fill:#e24a33;opacity:0.2;"/>
   </g>
   <g id="patch_94">
    <path clip-path="url(#p8a61f23aa9)" d="M 338.758741 157.5 
L 340.70979 157.5 
L 340.70979 133.967532 
L 338.758741 133.967532 
z
" style="fill:#e24a33;opacity:0.2;"/>
   </g>
   <g id="patch_95">
    <path clip-path="url(#p8a61f23aa9)" d="M 341.197552 157.5 
L 343.148601 157.5 
L 343.148601 157.5 
L 341.197552 157.5 
z
" style="fill:#e24a33;opacity:0.2;"/>
   </g>
   <g id="patch_96">
    <path clip-path="url(#p8a61f23aa9)" d="M 343.636364 157.5 
L 345.587413 157.5 
L 345.587413 133.967532 
L 343.636364 133.967532 
z
" style="fill:#e24a33;opacity:0.2;"/>
   </g>
   <g id="patch_97">
    <path clip-path="url(#p8a61f23aa9)" d="M 346.075175 157.5 
L 348.026224 157.5 
L 348.026224 145.733766 
L 346.075175 145.733766 
z
" style="fill:#e24a33;opacity:0.2;"/>
   </g>
   <g id="patch_98">
    <path clip-path="url(#p8a61f23aa9)" d="M 348.513986 157.5 
L 350.465035 157.5 
L 350.465035 145.733766 
L 348.513986 145.733766 
z
" style="fill:#e24a33;opacity:0.2;"/>
   </g>
   <g id="patch_99">
    <path clip-path="url(#p8a61f23aa9)" d="M 350.952797 157.5 
L 352.903846 157.5 
L 352.903846 133.967532 
L 350.952797 133.967532 
z
" style="fill:#e24a33;opacity:0.2;"/>
   </g>
   <g id="patch_100">
    <path clip-path="url(#p8a61f23aa9)" d="M 353.391608 157.5 
L 355.342657 157.5 
L 355.342657 145.733766 
L 353.391608 145.733766 
z
" style="fill:#e24a33;opacity:0.2;"/>
   </g>
   <g id="patch_101">
    <path clip-path="url(#p8a61f23aa9)" d="M 355.83042 157.5 
L 357.781469 157.5 
L 357.781469 145.733766 
L 355.83042 145.733766 
z
" style="fill:#e24a33;opacity:0.2;"/>
   </g>
   <g id="patch_102">
    <path clip-path="url(#p8a61f23aa9)" d="M 358.269231 157.5 
L 360.22028 157.5 
L 360.22028 133.967532 
L 358.269231 133.967532 
z
" style="fill:#e24a33;opacity:0.2;"/>
   </g>
   <g id="patch_103">
    <path clip-path="url(#p8a61f23aa9)" d="M 360.708042 157.5 
L 362.659091 157.5 
L 362.659091 157.5 
L 360.708042 157.5 
z
" style="fill:#e24a33;opacity:0.2;"/>
   </g>
   <g id="patch_104">
    <path clip-path="url(#p8a61f23aa9)" d="M 363.146853 157.5 
L 365.097902 157.5 
L 365.097902 133.967532 
L 363.146853 133.967532 
z
" style="fill:#e24a33;opacity:0.2;"/>
   </g>
   <g id="patch_105">
    <path clip-path="url(#p8a61f23aa9)" d="M 365.585664 157.5 
L 367.536713 157.5 
L 367.536713 133.967532 
L 365.585664 133.967532 
z
" style="fill:#e24a33;opacity:0.2;"/>
   </g>
   <g id="patch_106">
    <path clip-path="url(#p8a61f23aa9)" d="M 368.024476 157.5 
L 369.975524 157.5 
L 369.975524 145.733766 
L 368.024476 145.733766 
z
" style="fill:#e24a33;opacity:0.2;"/>
   </g>
   <g id="patch_107">
    <path clip-path="url(#p8a61f23aa9)" d="M 370.463287 157.5 
L 372.414336 157.5 
L 372.414336 145.733766 
L 370.463287 145.733766 
z
" style="fill:#e24a33;opacity:0.2;"/>
   </g>
   <g id="patch_108">
    <path clip-path="url(#p8a61f23aa9)" d="M 372.902098 157.5 
L 374.853147 157.5 
L 374.853147 157.5 
L 372.902098 157.5 
z
" style="fill:#e24a33;opacity:0.2;"/>
   </g>
   <g id="patch_109">
    <path clip-path="url(#p8a61f23aa9)" d="M 375.340909 157.5 
L 377.291958 157.5 
L 377.291958 157.5 
L 375.340909 157.5 
z
" style="fill:#e24a33;opacity:0.2;"/>
   </g>
   <g id="patch_110">
    <path clip-path="url(#p8a61f23aa9)" d="M 377.77972 157.5 
L 379.730769 157.5 
L 379.730769 157.5 
L 377.77972 157.5 
z
" style="fill:#e24a33;opacity:0.2;"/>
   </g>
   <g id="patch_111">
    <path clip-path="url(#p8a61f23aa9)" d="M 380.218531 157.5 
L 382.16958 157.5 
L 382.16958 157.5 
L 380.218531 157.5 
z
" style="fill:#e24a33;opacity:0.2;"/>
   </g>
   <g id="patch_112">
    <path clip-path="url(#p8a61f23aa9)" d="M 382.657343 157.5 
L 384.608392 157.5 
L 384.608392 133.967532 
L 382.657343 133.967532 
z
" style="fill:#e24a33;opacity:0.2;"/>
   </g>
   <g id="patch_113">
    <path clip-path="url(#p8a61f23aa9)" d="M 385.096154 157.5 
L 387.047203 157.5 
L 387.047203 145.733766 
L 385.096154 145.733766 
z
" style="fill:#e24a33;opacity:0.2;"/>
   </g>
   <g id="patch_114">
    <path clip-path="url(#p8a61f23aa9)" d="M 387.534965 157.5 
L 389.486014 157.5 
L 389.486014 145.733766 
L 387.534965 145.733766 
z
" style="fill:#e24a33;opacity:0.2;"/>
   </g>
   <g id="patch_115">
    <path clip-path="url(#p8a61f23aa9)" d="M 389.973776 157.5 
L 391.924825 157.5 
L 391.924825 157.5 
L 389.973776 157.5 
z
" style="fill:#e24a33;opacity:0.2;"/>
   </g>
   <g id="patch_116">
    <path clip-path="url(#p8a61f23aa9)" d="M 392.412587 157.5 
L 394.363636 157.5 
L 394.363636 133.967532 
L 392.412587 133.967532 
z
" style="fill:#e24a33;opacity:0.2;"/>
   </g>
   <g id="patch_117">
    <path clip-path="url(#p8a61f23aa9)" d="M 394.851399 157.5 
L 396.802448 157.5 
L 396.802448 157.5 
L 394.851399 157.5 
z
" style="fill:#e24a33;opacity:0.2;"/>
   </g>
   <g id="patch_118">
    <path clip-path="url(#p8a61f23aa9)" d="M 397.29021 157.5 
L 399.241259 157.5 
L 399.241259 145.733766 
L 397.29021 145.733766 
z
" style="fill:#e24a33;opacity:0.2;"/>
   </g>
   <g id="patch_119">
    <path clip-path="url(#p8a61f23aa9)" d="M 399.729021 157.5 
L 401.68007 157.5 
L 401.68007 157.5 
L 399.729021 157.5 
z
" style="fill:#e24a33;opacity:0.2;"/>
   </g>
   <g id="patch_120">
    <path clip-path="url(#p8a61f23aa9)" d="M 402.167832 157.5 
L 404.118881 157.5 
L 404.118881 157.5 
L 402.167832 157.5 
z
" style="fill:#e24a33;opacity:0.2;"/>
   </g>
   <g id="patch_121">
    <path clip-path="url(#p8a61f23aa9)" d="M 404.606643 157.5 
L 406.557692 157.5 
L 406.557692 145.733766 
L 404.606643 145.733766 
z
" style="fill:#e24a33;opacity:0.2;"/>
   </g>
   <g id="patch_122">
    <path clip-path="url(#p8a61f23aa9)" d="M 407.045455 157.5 
L 408.996503 157.5 
L 408.996503 157.5 
L 407.045455 157.5 
z
" style="fill:#e24a33;opacity:0.2;"/>
   </g>
   <g id="patch_123">
    <path clip-path="url(#p8a61f23aa9)" d="M 409.484266 157.5 
L 411.435315 157.5 
L 411.435315 133.967532 
L 409.484266 133.967532 
z
" style="fill:#e24a33;opacity:0.2;"/>
   </g>
   <g id="patch_124">
    <path clip-path="url(#p8a61f23aa9)" d="M 411.923077 157.5 
L 413.874126 157.5 
L 413.874126 157.5 
L 411.923077 157.5 
z
" style="fill:#e24a33;opacity:0.2;"/>
   </g>
   <g id="patch_125">
    <path clip-path="url(#p8a61f23aa9)" d="M 414.361888 157.5 
L 416.312937 157.5 
L 416.312937 145.733766 
L 414.361888 145.733766 
z
" style="fill:#e24a33;opacity:0.2;"/>
   </g>
   <g id="patch_126">
    <path clip-path="url(#p8a61f23aa9)" d="M 416.800699 157.5 
L 418.751748 157.5 
L 418.751748 133.967532 
L 416.800699 133.967532 
z
" style="fill:#e24a33;opacity:0.2;"/>
   </g>
   <g id="patch_127">
    <path clip-path="url(#p8a61f23aa9)" d="M 419.23951 157.5 
L 421.190559 157.5 
L 421.190559 157.5 
L 419.23951 157.5 
z
" style="fill:#e24a33;opacity:0.2;"/>
   </g>
   <g id="patch_128">
    <path clip-path="url(#p8a61f23aa9)" d="M 421.678322 157.5 
L 423.629371 157.5 
L 423.629371 157.5 
L 421.678322 157.5 
z
" style="fill:#e24a33;opacity:0.2;"/>
   </g>
   <g id="patch_129">
    <path clip-path="url(#p8a61f23aa9)" d="M 424.117133 157.5 
L 426.068182 157.5 
L 426.068182 157.5 
L 424.117133 157.5 
z
" style="fill:#e24a33;opacity:0.2;"/>
   </g>
   <g id="patch_130">
    <path clip-path="url(#p8a61f23aa9)" d="M 426.555944 157.5 
L 428.506993 157.5 
L 428.506993 157.5 
L 426.555944 157.5 
z
" style="fill:#e24a33;opacity:0.2;"/>
   </g>
   <g id="patch_131">
    <path clip-path="url(#p8a61f23aa9)" d="M 428.994755 157.5 
L 430.945804 157.5 
L 430.945804 145.733766 
L 428.994755 145.733766 
z
" style="fill:#e24a33;opacity:0.2;"/>
   </g>
   <g id="patch_132">
    <path clip-path="url(#p8a61f23aa9)" d="M 431.433566 157.5 
L 433.384615 157.5 
L 433.384615 145.733766 
L 431.433566 145.733766 
z
" style="fill:#e24a33;opacity:0.2;"/>
   </g>
   <g id="patch_133">
    <path clip-path="url(#p8a61f23aa9)" d="M 433.872378 157.5 
L 435.823427 157.5 
L 435.823427 145.733766 
L 433.872378 145.733766 
z
" style="fill:#e24a33;opacity:0.2;"/>
   </g>
   <g id="patch_134">
    <path clip-path="url(#p8a61f23aa9)" d="M 436.311189 157.5 
L 438.262238 157.5 
L 438.262238 145.733766 
L 436.311189 145.733766 
z
" style="fill:#e24a33;opacity:0.2;"/>
   </g>
   <g id="patch_135">
    <path clip-path="url(#p8a61f23aa9)" d="M 438.75 157.5 
L 440.701049 157.5 
L 440.701049 157.5 
L 438.75 157.5 
z
" style="fill:#e24a33;opacity:0.2;"/>
   </g>
   <g id="patch_136">
    <path clip-path="url(#p8a61f23aa9)" d="M 441.188811 157.5 
L 443.13986 157.5 
L 443.13986 157.5 
L 441.188811 157.5 
z
" style="fill:#e24a33;opacity:0.2;"/>
   </g>
   <g id="patch_137">
    <path clip-path="url(#p8a61f23aa9)" d="M 443.627622 157.5 
L 445.578671 157.5 
L 445.578671 157.5 
L 443.627622 157.5 
z
" style="fill:#e24a33;opacity:0.2;"/>
   </g>
   <g id="patch_138">
    <path clip-path="url(#p8a61f23aa9)" d="M 446.066434 157.5 
L 448.017483 157.5 
L 448.017483 157.5 
L 446.066434 157.5 
z
" style="fill:#e24a33;opacity:0.2;"/>
   </g>
   <g id="patch_139">
    <path clip-path="url(#p8a61f23aa9)" d="M 448.505245 157.5 
L 450.456294 157.5 
L 450.456294 157.5 
L 448.505245 157.5 
z
" style="fill:#e24a33;opacity:0.2;"/>
   </g>
   <g id="patch_140">
    <path clip-path="url(#p8a61f23aa9)" d="M 450.944056 157.5 
L 452.895105 157.5 
L 452.895105 145.733766 
L 450.944056 145.733766 
z
" style="fill:#e24a33;opacity:0.2;"/>
   </g>
   <g id="patch_141">
    <path clip-path="url(#p8a61f23aa9)" d="M 453.382867 157.5 
L 455.333916 157.5 
L 455.333916 133.967532 
L 453.382867 133.967532 
z
" style="fill:#e24a33;opacity:0.2;"/>
   </g>
   <g id="patch_142">
    <path clip-path="url(#p8a61f23aa9)" d="M 455.821678 157.5 
L 457.772727 157.5 
L 457.772727 157.5 
L 455.821678 157.5 
z
" style="fill:#e24a33;opacity:0.2;"/>
   </g>
   <g id="patch_143">
    <path clip-path="url(#p8a61f23aa9)" d="M 458.26049 157.5 
L 460.211538 157.5 
L 460.211538 145.733766 
L 458.26049 145.733766 
z
" style="fill:#e24a33;opacity:0.2;"/>
   </g>
   <g id="patch_144">
    <path clip-path="url(#p8a61f23aa9)" d="M 460.699301 157.5 
L 462.65035 157.5 
L 462.65035 157.5 
L 460.699301 157.5 
z
" style="fill:#e24a33;opacity:0.2;"/>
   </g>
   <g id="patch_145">
    <path clip-path="url(#p8a61f23aa9)" d="M 463.138112 157.5 
L 465.089161 157.5 
L 465.089161 157.5 
L 463.138112 157.5 
z
" style="fill:#e24a33;opacity:0.2;"/>
   </g>
   <g id="patch_146">
    <path clip-path="url(#p8a61f23aa9)" d="M 465.576923 157.5 
L 467.527972 157.5 
L 467.527972 157.5 
L 465.576923 157.5 
z
" style="fill:#e24a33;opacity:0.2;"/>
   </g>
   <g id="patch_147">
    <path clip-path="url(#p8a61f23aa9)" d="M 468.015734 157.5 
L 469.966783 157.5 
L 469.966783 145.733766 
L 468.015734 145.733766 
z
" style="fill:#e24a33;opacity:0.2;"/>
   </g>
   <g id="patch_148">
    <path clip-path="url(#p8a61f23aa9)" d="M 470.454545 157.5 
L 472.405594 157.5 
L 472.405594 145.733766 
L 470.454545 145.733766 
z
" style="fill:#e24a33;opacity:0.2;"/>
   </g>
   <g id="patch_149">
    <path clip-path="url(#p8a61f23aa9)" d="M 472.893357 157.5 
L 474.844406 157.5 
L 474.844406 145.733766 
L 472.893357 145.733766 
z
" style="fill:#e24a33;opacity:0.2;"/>
   </g>
   <g id="patch_150">
    <path clip-path="url(#p8a61f23aa9)" d="M 475.332168 157.5 
L 477.283217 157.5 
L 477.283217 157.5 
L 475.332168 157.5 
z
" style="fill:#e24a33;opacity:0.2;"/>
   </g>
   <g id="patch_151">
    <path clip-path="url(#p8a61f23aa9)" d="M 477.770979 157.5 
L 479.722028 157.5 
L 479.722028 157.5 
L 477.770979 157.5 
z
" style="fill:#e24a33;opacity:0.2;"/>
   </g>
   <g id="patch_152">
    <path clip-path="url(#p8a61f23aa9)" d="M 480.20979 157.5 
L 482.160839 157.5 
L 482.160839 157.5 
L 480.20979 157.5 
z
" style="fill:#e24a33;opacity:0.2;"/>
   </g>
   <g id="patch_153">
    <path clip-path="url(#p8a61f23aa9)" d="M 482.648601 157.5 
L 484.59965 157.5 
L 484.59965 157.5 
L 482.648601 157.5 
z
" style="fill:#e24a33;opacity:0.2;"/>
   </g>
   <g id="patch_154">
    <path clip-path="url(#p8a61f23aa9)" d="M 485.087413 157.5 
L 487.038462 157.5 
L 487.038462 145.733766 
L 485.087413 145.733766 
z
" style="fill:#e24a33;opacity:0.2;"/>
   </g>
   <g id="patch_155">
    <path clip-path="url(#p8a61f23aa9)" d="M 487.526224 157.5 
L 489.477273 157.5 
L 489.477273 157.5 
L 487.526224 157.5 
z
" style="fill:#e24a33;opacity:0.2;"/>
   </g>
   <g id="patch_156">
    <path clip-path="url(#p8a61f23aa9)" d="M 489.965035 157.5 
L 491.916084 157.5 
L 491.916084 145.733766 
L 489.965035 145.733766 
z
" style="fill:#e24a33;opacity:0.2;"/>
   </g>
   <g id="patch_157">
    <path clip-path="url(#p8a61f23aa9)" d="M 492.403846 157.5 
L 494.354895 157.5 
L 494.354895 157.5 
L 492.403846 157.5 
z
" style="fill:#e24a33;opacity:0.2;"/>
   </g>
   <g id="patch_158">
    <path clip-path="url(#p8a61f23aa9)" d="M 494.842657 157.5 
L 496.793706 157.5 
L 496.793706 157.5 
L 494.842657 157.5 
z
" style="fill:#e24a33;opacity:0.2;"/>
   </g>
   <g id="patch_159">
    <path clip-path="url(#p8a61f23aa9)" d="M 497.281469 157.5 
L 499.232517 157.5 
L 499.232517 157.5 
L 497.281469 157.5 
z
" style="fill:#e24a33;opacity:0.2;"/>
   </g>
   <g id="patch_160">
    <path clip-path="url(#p8a61f23aa9)" d="M 499.72028 157.5 
L 501.671329 157.5 
L 501.671329 157.5 
L 499.72028 157.5 
z
" style="fill:#e24a33;opacity:0.2;"/>
   </g>
   <g id="patch_161">
    <path clip-path="url(#p8a61f23aa9)" d="M 502.159091 157.5 
L 504.11014 157.5 
L 504.11014 157.5 
L 502.159091 157.5 
z
" style="fill:#e24a33;opacity:0.2;"/>
   </g>
   <g id="patch_162">
    <path clip-path="url(#p8a61f23aa9)" d="M 504.597902 157.5 
L 506.548951 157.5 
L 506.548951 157.5 
L 504.597902 157.5 
z
" style="fill:#e24a33;opacity:0.2;"/>
   </g>
   <g id="patch_163">
    <path clip-path="url(#p8a61f23aa9)" d="M 507.036713 157.5 
L 508.987762 157.5 
L 508.987762 157.5 
L 507.036713 157.5 
z
" style="fill:#e24a33;opacity:0.2;"/>
   </g>
   <g id="patch_164">
    <path clip-path="url(#p8a61f23aa9)" d="M 509.475524 157.5 
L 511.426573 157.5 
L 511.426573 157.5 
L 509.475524 157.5 
z
" style="fill:#e24a33;opacity:0.2;"/>
   </g>
   <g id="patch_165">
    <path clip-path="url(#p8a61f23aa9)" d="M 511.914336 157.5 
L 513.865385 157.5 
L 513.865385 145.733766 
L 511.914336 145.733766 
z
" style="fill:#e24a33;opacity:0.2;"/>
   </g>
   <g id="patch_166">
    <path clip-path="url(#p8a61f23aa9)" d="M 514.353147 157.5 
L 516.304196 157.5 
L 516.304196 157.5 
L 514.353147 157.5 
z
" style="fill:#e24a33;opacity:0.2;"/>
   </g>
   <g id="patch_167">
    <path clip-path="url(#p8a61f23aa9)" d="M 516.791958 157.5 
L 518.743007 157.5 
L 518.743007 145.733766 
L 516.791958 145.733766 
z
" style="fill:#e24a33;opacity:0.2;"/>
   </g>
   <g id="patch_168">
    <path clip-path="url(#p8a61f23aa9)" d="M 519.230769 157.5 
L 521.181818 157.5 
L 521.181818 145.733766 
L 519.230769 145.733766 
z
" style="fill:#e24a33;opacity:0.2;"/>
   </g>
   <g id="patch_169">
    <path clip-path="url(#p8a61f23aa9)" d="M 521.66958 157.5 
L 523.620629 157.5 
L 523.620629 157.5 
L 521.66958 157.5 
z
" style="fill:#e24a33;opacity:0.2;"/>
   </g>
   <g id="patch_170">
    <path clip-path="url(#p8a61f23aa9)" d="M 524.108392 157.5 
L 526.059441 157.5 
L 526.059441 133.967532 
L 524.108392 133.967532 
z
" style="fill:#e24a33;opacity:0.2;"/>
   </g>
   <g id="patch_171">
    <path clip-path="url(#p8a61f23aa9)" d="M 526.547203 157.5 
L 528.498252 157.5 
L 528.498252 145.733766 
L 526.547203 145.733766 
z
" style="fill:#e24a33;opacity:0.2;"/>
   </g>
   <g id="patch_172">
    <path clip-path="url(#p8a61f23aa9)" d="M 528.986014 157.5 
L 530.937063 157.5 
L 530.937063 157.5 
L 528.986014 157.5 
z
" style="fill:#e24a33;opacity:0.2;"/>
   </g>
   <g id="patch_173">
    <path clip-path="url(#p8a61f23aa9)" d="M 531.424825 157.5 
L 533.375874 157.5 
L 533.375874 145.733766 
L 531.424825 145.733766 
z
" style="fill:#e24a33;opacity:0.2;"/>
   </g>
   <g id="patch_174">
    <path clip-path="url(#p8a61f23aa9)" d="M 533.863636 157.5 
L 535.814685 157.5 
L 535.814685 157.5 
L 533.863636 157.5 
z
" style="fill:#e24a33;opacity:0.2;"/>
   </g>
   <g id="patch_175">
    <path clip-path="url(#p8a61f23aa9)" d="M 536.302448 157.5 
L 538.253497 157.5 
L 538.253497 157.5 
L 536.302448 157.5 
z
" style="fill:#e24a33;opacity:0.2;"/>
   </g>
   <g id="patch_176">
    <path clip-path="url(#p8a61f23aa9)" d="M 538.741259 157.5 
L 540.692308 157.5 
L 540.692308 157.5 
L 538.741259 157.5 
z
" style="fill:#e24a33;opacity:0.2;"/>
   </g>
   <g id="patch_177">
    <path clip-path="url(#p8a61f23aa9)" d="M 541.18007 157.5 
L 543.131119 157.5 
L 543.131119 133.967532 
L 541.18007 133.967532 
z
" style="fill:#e24a33;opacity:0.2;"/>
   </g>
   <g id="patch_178">
    <path clip-path="url(#p8a61f23aa9)" d="M 543.618881 157.5 
L 545.56993 157.5 
L 545.56993 133.967532 
L 543.618881 133.967532 
z
" style="fill:#e24a33;opacity:0.2;"/>
   </g>
   <g id="patch_179">
    <path clip-path="url(#p8a61f23aa9)" d="M 546.057692 157.5 
L 548.008741 157.5 
L 548.008741 145.733766 
L 546.057692 145.733766 
z
" style="fill:#e24a33;opacity:0.2;"/>
   </g>
   <g id="patch_180">
    <path clip-path="url(#p8a61f23aa9)" d="M 548.496503 157.5 
L 550.447552 157.5 
L 550.447552 145.733766 
L 548.496503 145.733766 
z
" style="fill:#e24a33;opacity:0.2;"/>
   </g>
   <g id="patch_181">
    <path clip-path="url(#p8a61f23aa9)" d="M 550.935315 157.5 
L 552.886364 157.5 
L 552.886364 145.733766 
L 550.935315 145.733766 
z
" style="fill:#e24a33;opacity:0.2;"/>
   </g>
   <g id="patch_182">
    <path clip-path="url(#p8a61f23aa9)" d="M 553.374126 157.5 
L 555.325175 157.5 
L 555.325175 157.5 
L 553.374126 157.5 
z
" style="fill:#e24a33;opacity:0.2;"/>
   </g>
   <g id="patch_183">
    <path clip-path="url(#p8a61f23aa9)" d="M 555.812937 157.5 
L 557.763986 157.5 
L 557.763986 145.733766 
L 555.812937 145.733766 
z
" style="fill:#e24a33;opacity:0.2;"/>
   </g>
   <g id="patch_184">
    <path clip-path="url(#p8a61f23aa9)" d="M 558.251748 157.5 
L 560.202797 157.5 
L 560.202797 157.5 
L 558.251748 157.5 
z
" style="fill:#e24a33;opacity:0.2;"/>
   </g>
   <g id="patch_185">
    <path clip-path="url(#p8a61f23aa9)" d="M 560.690559 157.5 
L 562.641608 157.5 
L 562.641608 145.733766 
L 560.690559 145.733766 
z
" style="fill:#e24a33;opacity:0.2;"/>
   </g>
   <g id="patch_186">
    <path clip-path="url(#p8a61f23aa9)" d="M 563.129371 157.5 
L 565.08042 157.5 
L 565.08042 157.5 
L 563.129371 157.5 
z
" style="fill:#e24a33;opacity:0.2;"/>
   </g>
   <g id="patch_187">
    <path clip-path="url(#p8a61f23aa9)" d="M 565.568182 157.5 
L 567.519231 157.5 
L 567.519231 157.5 
L 565.568182 157.5 
z
" style="fill:#e24a33;opacity:0.2;"/>
   </g>
   <g id="patch_188">
    <path clip-path="url(#p8a61f23aa9)" d="M 568.006993 157.5 
L 569.958042 157.5 
L 569.958042 145.733766 
L 568.006993 145.733766 
z
" style="fill:#e24a33;opacity:0.2;"/>
   </g>
   <g id="patch_189">
    <path clip-path="url(#p8a61f23aa9)" d="M 570.445804 157.5 
L 572.396853 157.5 
L 572.396853 145.733766 
L 570.445804 145.733766 
z
" style="fill:#e24a33;opacity:0.2;"/>
   </g>
   <g id="patch_190">
    <path clip-path="url(#p8a61f23aa9)" d="M 572.884615 157.5 
L 574.835664 157.5 
L 574.835664 157.5 
L 572.884615 157.5 
z
" style="fill:#e24a33;opacity:0.2;"/>
   </g>
   <g id="patch_191">
    <path clip-path="url(#p8a61f23aa9)" d="M 575.323427 157.5 
L 577.274476 157.5 
L 577.274476 157.5 
L 575.323427 157.5 
z
" style="fill:#e24a33;opacity:0.2;"/>
   </g>
   <g id="patch_192">
    <path clip-path="url(#p8a61f23aa9)" d="M 577.762238 157.5 
L 579.713287 157.5 
L 579.713287 145.733766 
L 577.762238 145.733766 
z
" style="fill:#e24a33;opacity:0.2;"/>
   </g>
   <g id="patch_193">
    <path clip-path="url(#p8a61f23aa9)" d="M 580.201049 157.5 
L 582.152098 157.5 
L 582.152098 157.5 
L 580.201049 157.5 
z
" style="fill:#e24a33;opacity:0.2;"/>
   </g>
   <g id="patch_194">
    <path clip-path="url(#p8a61f23aa9)" d="M 582.63986 157.5 
L 584.590909 157.5 
L 584.590909 157.5 
L 582.63986 157.5 
z
" style="fill:#e24a33;opacity:0.2;"/>
   </g>
   <g id="patch_195">
    <path clip-path="url(#p8a61f23aa9)" d="M 585.078671 157.5 
L 587.02972 157.5 
L 587.02972 157.5 
L 585.078671 157.5 
z
" style="fill:#e24a33;opacity:0.2;"/>
   </g>
   <g id="patch_196">
    <path clip-path="url(#p8a61f23aa9)" d="M 587.517483 157.5 
L 589.468531 157.5 
L 589.468531 157.5 
L 587.517483 157.5 
z
" style="fill:#e24a33;opacity:0.2;"/>
   </g>
   <g id="patch_197">
    <path clip-path="url(#p8a61f23aa9)" d="M 589.956294 157.5 
L 591.907343 157.5 
L 591.907343 145.733766 
L 589.956294 145.733766 
z
" style="fill:#e24a33;opacity:0.2;"/>
   </g>
   <g id="patch_198">
    <path clip-path="url(#p8a61f23aa9)" d="M 592.395105 157.5 
L 594.346154 157.5 
L 594.346154 157.5 
L 592.395105 157.5 
z
" style="fill:#e24a33;opacity:0.2;"/>
   </g>
   <g id="patch_199">
    <path clip-path="url(#p8a61f23aa9)" d="M 594.833916 157.5 
L 596.784965 157.5 
L 596.784965 145.733766 
L 594.833916 145.733766 
z
" style="fill:#e24a33;opacity:0.2;"/>
   </g>
   <g id="patch_200">
    <path clip-path="url(#p8a61f23aa9)" d="M 597.272727 157.5 
L 599.223776 157.5 
L 599.223776 145.733766 
L 597.272727 145.733766 
z
" style="fill:#e24a33;opacity:0.2;"/>
   </g>
   <g id="patch_201">
    <path clip-path="url(#p8a61f23aa9)" d="M 599.711538 157.5 
L 601.662587 157.5 
L 601.662587 145.733766 
L 599.711538 145.733766 
z
" style="fill:#e24a33;opacity:0.2;"/>
   </g>
   <g id="patch_202">
    <path clip-path="url(#p8a61f23aa9)" d="M 602.15035 157.5 
L 604.101399 157.5 
L 604.101399 157.5 
L 602.15035 157.5 
z
" style="fill:#e24a33;opacity:0.2;"/>
   </g>
   <g id="patch_203">
    <path clip-path="url(#p8a61f23aa9)" d="M 604.589161 157.5 
L 606.54021 157.5 
L 606.54021 157.5 
L 604.589161 157.5 
z
" style="fill:#e24a33;opacity:0.2;"/>
   </g>
   <g id="patch_204">
    <path clip-path="url(#p8a61f23aa9)" d="M 607.027972 157.5 
L 608.979021 157.5 
L 608.979021 157.5 
L 607.027972 157.5 
z
" style="fill:#e24a33;opacity:0.2;"/>
   </g>
   <g id="patch_205">
    <path clip-path="url(#p8a61f23aa9)" d="M 609.466783 157.5 
L 611.417832 157.5 
L 611.417832 157.5 
L 609.466783 157.5 
z
" style="fill:#e24a33;opacity:0.2;"/>
   </g>
   <g id="patch_206">
    <path clip-path="url(#p8a61f23aa9)" d="M 611.905594 157.5 
L 613.856643 157.5 
L 613.856643 157.5 
L 611.905594 157.5 
z
" style="fill:#e24a33;opacity:0.2;"/>
   </g>
   <g id="patch_207">
    <path clip-path="url(#p8a61f23aa9)" d="M 614.344406 157.5 
L 616.295455 157.5 
L 616.295455 157.5 
L 614.344406 157.5 
z
" style="fill:#e24a33;opacity:0.2;"/>
   </g>
   <g id="patch_208">
    <path clip-path="url(#p8a61f23aa9)" d="M 616.783217 157.5 
L 618.734266 157.5 
L 618.734266 157.5 
L 616.783217 157.5 
z
" style="fill:#e24a33;opacity:0.2;"/>
   </g>
   <g id="patch_209">
    <path clip-path="url(#p8a61f23aa9)" d="M 619.222028 157.5 
L 621.173077 157.5 
L 621.173077 157.5 
L 619.222028 157.5 
z
" style="fill:#e24a33;opacity:0.2;"/>
   </g>
   <g id="patch_210">
    <path clip-path="url(#p8a61f23aa9)" d="M 621.660839 157.5 
L 623.611888 157.5 
L 623.611888 145.733766 
L 621.660839 145.733766 
z
" style="fill:#e24a33;opacity:0.2;"/>
   </g>
   <g id="line2d_33">
    <path clip-path="url(#p8a61f23aa9)" d="M 117.802448 157.5 
L 171.456294 157.5 
L 173.895105 157.337803 
L 176.333916 156.890244 
L 178.772727 156.220999 
L 181.211538 154.77146 
L 183.65035 152.618375 
L 186.089161 149.761115 
L 188.527972 146.274506 
L 190.966783 143.014843 
L 193.405594 140.388874 
L 195.844406 138.518675 
L 198.283217 137.656019 
L 200.722028 135.915202 
L 203.160839 133.95374 
L 205.59965 130.752378 
L 210.477273 123.008626 
L 212.916084 118.598399 
L 215.354895 114.721087 
L 217.793706 111.592175 
L 220.232517 110.249049 
L 222.671329 110.622446 
L 225.11014 111.255128 
L 227.548951 112.387208 
L 229.987762 112.546824 
L 232.426573 112.462208 
L 234.865385 113.490386 
L 237.304196 114.160756 
L 239.743007 115.556995 
L 242.181818 115.678436 
L 244.620629 115.409297 
L 247.059441 114.209563 
L 251.937063 107.66363 
L 254.375874 102.973689 
L 256.814685 98.003491 
L 259.253497 94.577424 
L 261.692308 90.793527 
L 264.131119 88.688658 
L 266.56993 87.116655 
L 269.008741 85.720955 
L 273.886364 85.208079 
L 276.325175 86.743389 
L 278.763986 89.117384 
L 281.202797 92.298987 
L 283.641608 96.474864 
L 286.08042 100.14571 
L 288.519231 103.381169 
L 290.958042 104.973097 
L 293.396853 104.897298 
L 295.835664 103.444798 
L 298.274476 101.609654 
L 300.713287 100.836872 
L 303.152098 101.232648 
L 305.590909 102.933908 
L 308.02972 105.275305 
L 310.468531 107.960139 
L 315.346154 114.585668 
L 317.784965 117.785791 
L 320.223776 120.660831 
L 322.662587 123.215883 
L 325.101399 126.197548 
L 327.54021 129.531704 
L 329.979021 133.05742 
L 332.417832 136.280925 
L 334.856643 138.760345 
L 337.295455 140.54693 
L 339.734266 141.639701 
L 342.173077 142.326327 
L 344.611888 142.773887 
L 351.928322 142.648332 
L 359.244755 142.087261 
L 361.683566 142.297528 
L 364.122378 142.858599 
L 366.561189 143.933286 
L 371.438811 147.234452 
L 373.877622 148.765177 
L 376.316434 149.902365 
L 378.755245 150.425109 
L 381.194056 150.455096 
L 383.632867 149.878279 
L 388.51049 148.168602 
L 390.949301 147.940964 
L 393.388112 148.309764 
L 398.265734 150.028482 
L 400.704545 150.575263 
L 403.143357 150.812478 
L 408.020979 149.905316 
L 412.898601 148.724335 
L 415.337413 148.918906 
L 417.776224 149.368843 
L 420.215035 150.196631 
L 422.653846 150.878008 
L 427.531469 151.343563 
L 432.409091 151.058762 
L 434.847902 151.112785 
L 437.286713 151.383155 
L 442.164336 152.682053 
L 444.603147 153.08393 
L 447.041958 152.985411 
L 454.358392 151.226911 
L 456.797203 150.950589 
L 459.236014 150.929643 
L 461.674825 151.055812 
L 471.43007 152.183907 
L 473.868881 152.307074 
L 481.185315 153.276815 
L 483.624126 153.708679 
L 488.501748 154.144196 
L 493.379371 154.576762 
L 500.695804 156.344166 
L 503.134615 156.604881 
L 505.573427 156.344166 
L 508.012238 155.641932 
L 510.451049 154.702317 
L 512.88986 153.420928 
L 517.767483 150.677269 
L 520.206294 149.411575 
L 522.645105 148.741716 
L 525.083916 148.585472 
L 527.522727 148.984961 
L 529.961538 149.665635 
L 532.40035 149.9805 
L 534.839161 150.031484 
L 537.277972 149.485495 
L 544.594406 146.592106 
L 547.033217 146.06111 
L 549.472028 146.103842 
L 551.910839 146.776089 
L 559.227273 150.84493 
L 561.666084 151.586194 
L 564.104895 151.887253 
L 573.86014 152.610521 
L 578.737762 153.583125 
L 581.176573 154.098514 
L 583.615385 154.377924 
L 586.054196 154.231423 
L 588.493007 153.708679 
L 593.370629 152.064443 
L 595.809441 151.539399 
L 598.248252 151.383155 
L 600.687063 151.800026 
L 603.125874 152.610521 
L 610.442308 155.896606 
L 612.881119 156.426603 
L 615.31993 156.427378 
L 617.758741 156.01206 
L 620.197552 155.415613 
L 622.636364 155.045655 
L 622.636364 155.045655 
" style="fill:none;stroke:#e24a33;stroke-linecap:square;stroke-width:3;"/>
   </g>
   <g id="patch_211">
    <path d="M 90 157.5 
L 90 21.6 
" style="fill:none;stroke:#ffffff;stroke-linecap:square;stroke-linejoin:miter;"/>
   </g>
   <g id="patch_212">
    <path d="M 648 157.5 
L 648 21.6 
" style="fill:none;stroke:#ffffff;stroke-linecap:square;stroke-linejoin:miter;"/>
   </g>
   <g id="patch_213">
    <path d="M 90 157.5 
L 648 157.5 
" style="fill:none;stroke:#ffffff;stroke-linecap:square;stroke-linejoin:miter;"/>
   </g>
   <g id="patch_214">
    <path d="M 90 21.6 
L 648 21.6 
" style="fill:none;stroke:#ffffff;stroke-linecap:square;stroke-linejoin:miter;"/>
   </g>
   <g id="legend_1">
    <g id="patch_215">
     <path d="M 410.571875 58.95625 
L 641 58.95625 
Q 643 58.95625 643 56.95625 
L 643 28.6 
Q 643 26.6 641 26.6 
L 410.571875 26.6 
Q 408.571875 26.6 408.571875 28.6 
L 408.571875 56.95625 
Q 408.571875 58.95625 410.571875 58.95625 
z
" style="fill:#e5e5e5;opacity:0.8;stroke:#cccccc;stroke-linejoin:miter;stroke-width:0.5;"/>
    </g>
    <g id="line2d_34">
     <path d="M 412.571875 34.698438 
L 432.571875 34.698438 
" style="fill:none;stroke:#e24a33;stroke-linecap:square;stroke-width:3;"/>
    </g>
    <g id="line2d_35"/>
    <g id="text_21">
     <!-- Korea, South new deaths (rolling mean) -->
     <defs>
      <path d="M 9.8125 72.90625 
L 19.671875 72.90625 
L 19.671875 42.09375 
L 52.390625 72.90625 
L 65.09375 72.90625 
L 28.90625 38.921875 
L 67.671875 0 
L 54.6875 0 
L 19.671875 35.109375 
L 19.671875 0 
L 9.8125 0 
z
" id="DejaVuSans-75"/>
      <path d="M 30.609375 48.390625 
Q 23.390625 48.390625 19.1875 42.75 
Q 14.984375 37.109375 14.984375 27.296875 
Q 14.984375 17.484375 19.15625 11.84375 
Q 23.34375 6.203125 30.609375 6.203125 
Q 37.796875 6.203125 41.984375 11.859375 
Q 46.1875 17.53125 46.1875 27.296875 
Q 46.1875 37.015625 41.984375 42.703125 
Q 37.796875 48.390625 30.609375 48.390625 
z
M 30.609375 56 
Q 42.328125 56 49.015625 48.375 
Q 55.71875 40.765625 55.71875 27.296875 
Q 55.71875 13.875 49.015625 6.21875 
Q 42.328125 -1.421875 30.609375 -1.421875 
Q 18.84375 -1.421875 12.171875 6.21875 
Q 5.515625 13.875 5.515625 27.296875 
Q 5.515625 40.765625 12.171875 48.375 
Q 18.84375 56 30.609375 56 
z
" id="DejaVuSans-111"/>
      <path d="M 41.109375 46.296875 
Q 39.59375 47.171875 37.8125 47.578125 
Q 36.03125 48 33.890625 48 
Q 26.265625 48 22.1875 43.046875 
Q 18.109375 38.09375 18.109375 28.8125 
L 18.109375 0 
L 9.078125 0 
L 9.078125 54.6875 
L 18.109375 54.6875 
L 18.109375 46.1875 
Q 20.953125 51.171875 25.484375 53.578125 
Q 30.03125 56 36.53125 56 
Q 37.453125 56 38.578125 55.875 
Q 39.703125 55.765625 41.0625 55.515625 
z
" id="DejaVuSans-114"/>
      <path d="M 11.71875 12.40625 
L 22.015625 12.40625 
L 22.015625 4 
L 14.015625 -11.625 
L 7.71875 -11.625 
L 11.71875 4 
z
" id="DejaVuSans-44"/>
      <path d="M 53.515625 70.515625 
L 53.515625 60.890625 
Q 47.90625 63.578125 42.921875 64.890625 
Q 37.9375 66.21875 33.296875 66.21875 
Q 25.25 66.21875 20.875 63.09375 
Q 16.5 59.96875 16.5 54.203125 
Q 16.5 49.359375 19.40625 46.890625 
Q 22.3125 44.4375 30.421875 42.921875 
L 36.375 41.703125 
Q 47.40625 39.59375 52.65625 34.296875 
Q 57.90625 29 57.90625 20.125 
Q 57.90625 9.515625 50.796875 4.046875 
Q 43.703125 -1.421875 29.984375 -1.421875 
Q 24.8125 -1.421875 18.96875 -0.25 
Q 13.140625 0.921875 6.890625 3.21875 
L 6.890625 13.375 
Q 12.890625 10.015625 18.65625 8.296875 
Q 24.421875 6.59375 29.984375 6.59375 
Q 38.421875 6.59375 43.015625 9.90625 
Q 47.609375 13.234375 47.609375 19.390625 
Q 47.609375 24.75 44.3125 27.78125 
Q 41.015625 30.8125 33.5 32.328125 
L 27.484375 33.5 
Q 16.453125 35.6875 11.515625 40.375 
Q 6.59375 45.0625 6.59375 53.421875 
Q 6.59375 63.09375 13.40625 68.65625 
Q 20.21875 74.21875 32.171875 74.21875 
Q 37.3125 74.21875 42.625 73.28125 
Q 47.953125 72.359375 53.515625 70.515625 
z
" id="DejaVuSans-83"/>
      <path d="M 8.5 21.578125 
L 8.5 54.6875 
L 17.484375 54.6875 
L 17.484375 21.921875 
Q 17.484375 14.15625 20.5 10.265625 
Q 23.53125 6.390625 29.59375 6.390625 
Q 36.859375 6.390625 41.078125 11.03125 
Q 45.3125 15.671875 45.3125 23.6875 
L 45.3125 54.6875 
L 54.296875 54.6875 
L 54.296875 0 
L 45.3125 0 
L 45.3125 8.40625 
Q 42.046875 3.421875 37.71875 1 
Q 33.40625 -1.421875 27.6875 -1.421875 
Q 18.265625 -1.421875 13.375 4.4375 
Q 8.5 10.296875 8.5 21.578125 
z
M 31.109375 56 
z
" id="DejaVuSans-117"/>
      <path d="M 18.3125 70.21875 
L 18.3125 54.6875 
L 36.8125 54.6875 
L 36.8125 47.703125 
L 18.3125 47.703125 
L 18.3125 18.015625 
Q 18.3125 11.328125 20.140625 9.421875 
Q 21.96875 7.515625 27.59375 7.515625 
L 36.8125 7.515625 
L 36.8125 0 
L 27.59375 0 
Q 17.1875 0 13.234375 3.875 
Q 9.28125 7.765625 9.28125 18.015625 
L 9.28125 47.703125 
L 2.6875 47.703125 
L 2.6875 54.6875 
L 9.28125 54.6875 
L 9.28125 70.21875 
z
" id="DejaVuSans-116"/>
      <path d="M 4.203125 54.6875 
L 13.1875 54.6875 
L 24.421875 12.015625 
L 35.59375 54.6875 
L 46.1875 54.6875 
L 57.421875 12.015625 
L 68.609375 54.6875 
L 77.59375 54.6875 
L 63.28125 0 
L 52.6875 0 
L 40.921875 44.828125 
L 29.109375 0 
L 18.5 0 
z
" id="DejaVuSans-119"/>
      <path d="M 44.28125 53.078125 
L 44.28125 44.578125 
Q 40.484375 46.53125 36.375 47.5 
Q 32.28125 48.484375 27.875 48.484375 
Q 21.1875 48.484375 17.84375 46.4375 
Q 14.5 44.390625 14.5 40.28125 
Q 14.5 37.15625 16.890625 35.375 
Q 19.28125 33.59375 26.515625 31.984375 
L 29.59375 31.296875 
Q 39.15625 29.25 43.1875 25.515625 
Q 47.21875 21.78125 47.21875 15.09375 
Q 47.21875 7.46875 41.1875 3.015625 
Q 35.15625 -1.421875 24.609375 -1.421875 
Q 20.21875 -1.421875 15.453125 -0.5625 
Q 10.6875 0.296875 5.421875 2 
L 5.421875 11.28125 
Q 10.40625 8.6875 15.234375 7.390625 
Q 20.0625 6.109375 24.8125 6.109375 
Q 31.15625 6.109375 34.5625 8.28125 
Q 37.984375 10.453125 37.984375 14.40625 
Q 37.984375 18.0625 35.515625 20.015625 
Q 33.0625 21.96875 24.703125 23.78125 
L 21.578125 24.515625 
Q 13.234375 26.265625 9.515625 29.90625 
Q 5.8125 33.546875 5.8125 39.890625 
Q 5.8125 47.609375 11.28125 51.796875 
Q 16.75 56 26.8125 56 
Q 31.78125 56 36.171875 55.265625 
Q 40.578125 54.546875 44.28125 53.078125 
z
" id="DejaVuSans-115"/>
      <path d="M 31 75.875 
Q 24.46875 64.65625 21.28125 53.65625 
Q 18.109375 42.671875 18.109375 31.390625 
Q 18.109375 20.125 21.3125 9.0625 
Q 24.515625 -2 31 -13.1875 
L 23.1875 -13.1875 
Q 15.875 -1.703125 12.234375 9.375 
Q 8.59375 20.453125 8.59375 31.390625 
Q 8.59375 42.28125 12.203125 53.3125 
Q 15.828125 64.359375 23.1875 75.875 
z
" id="DejaVuSans-40"/>
      <path d="M 52 44.1875 
Q 55.375 50.25 60.0625 53.125 
Q 64.75 56 71.09375 56 
Q 79.640625 56 84.28125 50.015625 
Q 88.921875 44.046875 88.921875 33.015625 
L 88.921875 0 
L 79.890625 0 
L 79.890625 32.71875 
Q 79.890625 40.578125 77.09375 44.375 
Q 74.3125 48.1875 68.609375 48.1875 
Q 61.625 48.1875 57.5625 43.546875 
Q 53.515625 38.921875 53.515625 30.90625 
L 53.515625 0 
L 44.484375 0 
L 44.484375 32.71875 
Q 44.484375 40.625 41.703125 44.40625 
Q 38.921875 48.1875 33.109375 48.1875 
Q 26.21875 48.1875 22.15625 43.53125 
Q 18.109375 38.875 18.109375 30.90625 
L 18.109375 0 
L 9.078125 0 
L 9.078125 54.6875 
L 18.109375 54.6875 
L 18.109375 46.1875 
Q 21.1875 51.21875 25.484375 53.609375 
Q 29.78125 56 35.6875 56 
Q 41.65625 56 45.828125 52.96875 
Q 50 49.953125 52 44.1875 
z
" id="DejaVuSans-109"/>
      <path d="M 8.015625 75.875 
L 15.828125 75.875 
Q 23.140625 64.359375 26.78125 53.3125 
Q 30.421875 42.28125 30.421875 31.390625 
Q 30.421875 20.453125 26.78125 9.375 
Q 23.140625 -1.703125 15.828125 -13.1875 
L 8.015625 -13.1875 
Q 14.5 -2 17.703125 9.0625 
Q 20.90625 20.125 20.90625 31.390625 
Q 20.90625 42.671875 17.703125 53.65625 
Q 14.5 64.65625 8.015625 75.875 
z
" id="DejaVuSans-41"/>
     </defs>
     <g transform="translate(440.571875 38.198438)scale(0.1 -0.1)">
      <use xlink:href="#DejaVuSans-75"/>
      <use x="60.576172" xlink:href="#DejaVuSans-111"/>
      <use x="121.757812" xlink:href="#DejaVuSans-114"/>
      <use x="160.621094" xlink:href="#DejaVuSans-101"/>
      <use x="222.144531" xlink:href="#DejaVuSans-97"/>
      <use x="283.423828" xlink:href="#DejaVuSans-44"/>
      <use x="315.210938" xlink:href="#DejaVuSans-32"/>
      <use x="346.998047" xlink:href="#DejaVuSans-83"/>
      <use x="410.474609" xlink:href="#DejaVuSans-111"/>
      <use x="471.65625" xlink:href="#DejaVuSans-117"/>
      <use x="535.035156" xlink:href="#DejaVuSans-116"/>
      <use x="574.244141" xlink:href="#DejaVuSans-104"/>
      <use x="637.623047" xlink:href="#DejaVuSans-32"/>
      <use x="669.410156" xlink:href="#DejaVuSans-110"/>
      <use x="732.789062" xlink:href="#DejaVuSans-101"/>
      <use x="794.3125" xlink:href="#DejaVuSans-119"/>
      <use x="876.099609" xlink:href="#DejaVuSans-32"/>
      <use x="907.886719" xlink:href="#DejaVuSans-100"/>
      <use x="971.363281" xlink:href="#DejaVuSans-101"/>
      <use x="1032.886719" xlink:href="#DejaVuSans-97"/>
      <use x="1094.166016" xlink:href="#DejaVuSans-116"/>
      <use x="1133.375" xlink:href="#DejaVuSans-104"/>
      <use x="1196.753906" xlink:href="#DejaVuSans-115"/>
      <use x="1248.853516" xlink:href="#DejaVuSans-32"/>
      <use x="1280.640625" xlink:href="#DejaVuSans-40"/>
      <use x="1319.654297" xlink:href="#DejaVuSans-114"/>
      <use x="1358.517578" xlink:href="#DejaVuSans-111"/>
      <use x="1419.699219" xlink:href="#DejaVuSans-108"/>
      <use x="1447.482422" xlink:href="#DejaVuSans-108"/>
      <use x="1475.265625" xlink:href="#DejaVuSans-105"/>
      <use x="1503.048828" xlink:href="#DejaVuSans-110"/>
      <use x="1566.427734" xlink:href="#DejaVuSans-103"/>
      <use x="1629.904297" xlink:href="#DejaVuSans-32"/>
      <use x="1661.691406" xlink:href="#DejaVuSans-109"/>
      <use x="1759.103516" xlink:href="#DejaVuSans-101"/>
      <use x="1820.626953" xlink:href="#DejaVuSans-97"/>
      <use x="1881.90625" xlink:href="#DejaVuSans-110"/>
      <use x="1945.285156" xlink:href="#DejaVuSans-41"/>
     </g>
    </g>
    <g id="patch_216">
     <path d="M 412.571875 52.876563 
L 432.571875 52.876563 
L 432.571875 45.876563 
L 412.571875 45.876563 
z
" style="fill:#e24a33;opacity:0.2;"/>
    </g>
    <g id="text_22">
     <!-- Korea, South new deaths -->
     <g transform="translate(440.571875 52.876563)scale(0.1 -0.1)">
      <use xlink:href="#DejaVuSans-75"/>
      <use x="60.576172" xlink:href="#DejaVuSans-111"/>
      <use x="121.757812" xlink:href="#DejaVuSans-114"/>
      <use x="160.621094" xlink:href="#DejaVuSans-101"/>
      <use x="222.144531" xlink:href="#DejaVuSans-97"/>
      <use x="283.423828" xlink:href="#DejaVuSans-44"/>
      <use x="315.210938" xlink:href="#DejaVuSans-32"/>
      <use x="346.998047" xlink:href="#DejaVuSans-83"/>
      <use x="410.474609" xlink:href="#DejaVuSans-111"/>
      <use x="471.65625" xlink:href="#DejaVuSans-117"/>
      <use x="535.035156" xlink:href="#DejaVuSans-116"/>
      <use x="574.244141" xlink:href="#DejaVuSans-104"/>
      <use x="637.623047" xlink:href="#DejaVuSans-32"/>
      <use x="669.410156" xlink:href="#DejaVuSans-110"/>
      <use x="732.789062" xlink:href="#DejaVuSans-101"/>
      <use x="794.3125" xlink:href="#DejaVuSans-119"/>
      <use x="876.099609" xlink:href="#DejaVuSans-32"/>
      <use x="907.886719" xlink:href="#DejaVuSans-100"/>
      <use x="971.363281" xlink:href="#DejaVuSans-101"/>
      <use x="1032.886719" xlink:href="#DejaVuSans-97"/>
      <use x="1094.166016" xlink:href="#DejaVuSans-116"/>
      <use x="1133.375" xlink:href="#DejaVuSans-104"/>
      <use x="1196.753906" xlink:href="#DejaVuSans-115"/>
     </g>
    </g>
   </g>
  </g>
 </g>
 <defs>
  <clipPath id="p8a61f23aa9">
   <rect height="135.9" width="558" x="90" y="21.6"/>
  </clipPath>
 </defs>
</svg>
