<?xml version="1.0" encoding="utf-8" standalone="no"?>
<!DOCTYPE svg PUBLIC "-//W3C//DTD SVG 1.1//EN"
  "http://www.w3.org/Graphics/SVG/1.1/DTD/svg11.dtd">
<!-- Created with matplotlib (https://matplotlib.org/) -->
<svg height="180pt" version="1.1" viewBox="0 0 720 180" width="720pt" xmlns="http://www.w3.org/2000/svg" xmlns:xlink="http://www.w3.org/1999/xlink">
 <defs>
  <style type="text/css">
*{stroke-linecap:butt;stroke-linejoin:round;}
  </style>
 </defs>
 <g id="figure_1">
  <g id="patch_1">
   <path d="M 0 180 
L 720 180 
L 720 0 
L 0 0 
z
" style="fill:#ffffff;"/>
  </g>
  <g id="axes_1">
   <g id="patch_2">
    <path d="M 90 157.5 
L 648 157.5 
L 648 21.6 
L 90 21.6 
z
" style="fill:#e5e5e5;"/>
   </g>
   <g id="matplotlib.axis_1">
    <g id="xtick_1">
     <g id="line2d_1">
      <path clip-path="url(#pdb075edcda)" d="M 139.751748 157.5 
L 139.751748 21.6 
" style="fill:none;stroke:#ffffff;stroke-linecap:square;stroke-width:0.8;"/>
     </g>
     <g id="line2d_2">
      <defs>
       <path d="M 0 0 
L 0 3.5 
" id="m2705cfdda9" style="stroke:#555555;stroke-width:0.8;"/>
      </defs>
      <g>
       <use style="fill:#555555;stroke:#555555;stroke-width:0.8;" x="139.751748" xlink:href="#m2705cfdda9" y="157.5"/>
      </g>
     </g>
     <g id="text_1">
      <!-- 2020-02 -->
      <defs>
       <path d="M 19.1875 8.296875 
L 53.609375 8.296875 
L 53.609375 0 
L 7.328125 0 
L 7.328125 8.296875 
Q 12.9375 14.109375 22.625 23.890625 
Q 32.328125 33.6875 34.8125 36.53125 
Q 39.546875 41.84375 41.421875 45.53125 
Q 43.3125 49.21875 43.3125 52.78125 
Q 43.3125 58.59375 39.234375 62.25 
Q 35.15625 65.921875 28.609375 65.921875 
Q 23.96875 65.921875 18.8125 64.3125 
Q 13.671875 62.703125 7.8125 59.421875 
L 7.8125 69.390625 
Q 13.765625 71.78125 18.9375 73 
Q 24.125 74.21875 28.421875 74.21875 
Q 39.75 74.21875 46.484375 68.546875 
Q 53.21875 62.890625 53.21875 53.421875 
Q 53.21875 48.921875 51.53125 44.890625 
Q 49.859375 40.875 45.40625 35.40625 
Q 44.1875 33.984375 37.640625 27.21875 
Q 31.109375 20.453125 19.1875 8.296875 
z
" id="DejaVuSans-50"/>
       <path d="M 31.78125 66.40625 
Q 24.171875 66.40625 20.328125 58.90625 
Q 16.5 51.421875 16.5 36.375 
Q 16.5 21.390625 20.328125 13.890625 
Q 24.171875 6.390625 31.78125 6.390625 
Q 39.453125 6.390625 43.28125 13.890625 
Q 47.125 21.390625 47.125 36.375 
Q 47.125 51.421875 43.28125 58.90625 
Q 39.453125 66.40625 31.78125 66.40625 
z
M 31.78125 74.21875 
Q 44.046875 74.21875 50.515625 64.515625 
Q 56.984375 54.828125 56.984375 36.375 
Q 56.984375 17.96875 50.515625 8.265625 
Q 44.046875 -1.421875 31.78125 -1.421875 
Q 19.53125 -1.421875 13.0625 8.265625 
Q 6.59375 17.96875 6.59375 36.375 
Q 6.59375 54.828125 13.0625 64.515625 
Q 19.53125 74.21875 31.78125 74.21875 
z
" id="DejaVuSans-48"/>
       <path d="M 4.890625 31.390625 
L 31.203125 31.390625 
L 31.203125 23.390625 
L 4.890625 23.390625 
z
" id="DejaVuSans-45"/>
      </defs>
      <g style="fill:#555555;" transform="translate(118.860342 172.098437)scale(0.1 -0.1)">
       <use xlink:href="#DejaVuSans-50"/>
       <use x="63.623047" xlink:href="#DejaVuSans-48"/>
       <use x="127.246094" xlink:href="#DejaVuSans-50"/>
       <use x="190.869141" xlink:href="#DejaVuSans-48"/>
       <use x="254.492188" xlink:href="#DejaVuSans-45"/>
       <use x="290.576172" xlink:href="#DejaVuSans-48"/>
       <use x="354.199219" xlink:href="#DejaVuSans-50"/>
      </g>
     </g>
    </g>
    <g id="xtick_2">
     <g id="line2d_3">
      <path clip-path="url(#pdb075edcda)" d="M 210.477273 157.5 
L 210.477273 21.6 
" style="fill:none;stroke:#ffffff;stroke-linecap:square;stroke-width:0.8;"/>
     </g>
     <g id="line2d_4">
      <g>
       <use style="fill:#555555;stroke:#555555;stroke-width:0.8;" x="210.477273" xlink:href="#m2705cfdda9" y="157.5"/>
      </g>
     </g>
     <g id="text_2">
      <!-- 2020-03 -->
      <defs>
       <path d="M 40.578125 39.3125 
Q 47.65625 37.796875 51.625 33 
Q 55.609375 28.21875 55.609375 21.1875 
Q 55.609375 10.40625 48.1875 4.484375 
Q 40.765625 -1.421875 27.09375 -1.421875 
Q 22.515625 -1.421875 17.65625 -0.515625 
Q 12.796875 0.390625 7.625 2.203125 
L 7.625 11.71875 
Q 11.71875 9.328125 16.59375 8.109375 
Q 21.484375 6.890625 26.8125 6.890625 
Q 36.078125 6.890625 40.9375 10.546875 
Q 45.796875 14.203125 45.796875 21.1875 
Q 45.796875 27.640625 41.28125 31.265625 
Q 36.765625 34.90625 28.71875 34.90625 
L 20.21875 34.90625 
L 20.21875 43.015625 
L 29.109375 43.015625 
Q 36.375 43.015625 40.234375 45.921875 
Q 44.09375 48.828125 44.09375 54.296875 
Q 44.09375 59.90625 40.109375 62.90625 
Q 36.140625 65.921875 28.71875 65.921875 
Q 24.65625 65.921875 20.015625 65.03125 
Q 15.375 64.15625 9.8125 62.3125 
L 9.8125 71.09375 
Q 15.4375 72.65625 20.34375 73.4375 
Q 25.25 74.21875 29.59375 74.21875 
Q 40.828125 74.21875 47.359375 69.109375 
Q 53.90625 64.015625 53.90625 55.328125 
Q 53.90625 49.265625 50.4375 45.09375 
Q 46.96875 40.921875 40.578125 39.3125 
z
" id="DejaVuSans-51"/>
      </defs>
      <g style="fill:#555555;" transform="translate(189.585866 172.098437)scale(0.1 -0.1)">
       <use xlink:href="#DejaVuSans-50"/>
       <use x="63.623047" xlink:href="#DejaVuSans-48"/>
       <use x="127.246094" xlink:href="#DejaVuSans-50"/>
       <use x="190.869141" xlink:href="#DejaVuSans-48"/>
       <use x="254.492188" xlink:href="#DejaVuSans-45"/>
       <use x="290.576172" xlink:href="#DejaVuSans-48"/>
       <use x="354.199219" xlink:href="#DejaVuSans-51"/>
      </g>
     </g>
    </g>
    <g id="xtick_3">
     <g id="line2d_5">
      <path clip-path="url(#pdb075edcda)" d="M 286.08042 157.5 
L 286.08042 21.6 
" style="fill:none;stroke:#ffffff;stroke-linecap:square;stroke-width:0.8;"/>
     </g>
     <g id="line2d_6">
      <g>
       <use style="fill:#555555;stroke:#555555;stroke-width:0.8;" x="286.08042" xlink:href="#m2705cfdda9" y="157.5"/>
      </g>
     </g>
     <g id="text_3">
      <!-- 2020-04 -->
      <defs>
       <path d="M 37.796875 64.3125 
L 12.890625 25.390625 
L 37.796875 25.390625 
z
M 35.203125 72.90625 
L 47.609375 72.90625 
L 47.609375 25.390625 
L 58.015625 25.390625 
L 58.015625 17.1875 
L 47.609375 17.1875 
L 47.609375 0 
L 37.796875 0 
L 37.796875 17.1875 
L 4.890625 17.1875 
L 4.890625 26.703125 
z
" id="DejaVuSans-52"/>
      </defs>
      <g style="fill:#555555;" transform="translate(265.189013 172.098437)scale(0.1 -0.1)">
       <use xlink:href="#DejaVuSans-50"/>
       <use x="63.623047" xlink:href="#DejaVuSans-48"/>
       <use x="127.246094" xlink:href="#DejaVuSans-50"/>
       <use x="190.869141" xlink:href="#DejaVuSans-48"/>
       <use x="254.492188" xlink:href="#DejaVuSans-45"/>
       <use x="290.576172" xlink:href="#DejaVuSans-48"/>
       <use x="354.199219" xlink:href="#DejaVuSans-52"/>
      </g>
     </g>
    </g>
    <g id="xtick_4">
     <g id="line2d_7">
      <path clip-path="url(#pdb075edcda)" d="M 359.244755 157.5 
L 359.244755 21.6 
" style="fill:none;stroke:#ffffff;stroke-linecap:square;stroke-width:0.8;"/>
     </g>
     <g id="line2d_8">
      <g>
       <use style="fill:#555555;stroke:#555555;stroke-width:0.8;" x="359.244755" xlink:href="#m2705cfdda9" y="157.5"/>
      </g>
     </g>
     <g id="text_4">
      <!-- 2020-05 -->
      <defs>
       <path d="M 10.796875 72.90625 
L 49.515625 72.90625 
L 49.515625 64.59375 
L 19.828125 64.59375 
L 19.828125 46.734375 
Q 21.96875 47.46875 24.109375 47.828125 
Q 26.265625 48.1875 28.421875 48.1875 
Q 40.625 48.1875 47.75 41.5 
Q 54.890625 34.8125 54.890625 23.390625 
Q 54.890625 11.625 47.5625 5.09375 
Q 40.234375 -1.421875 26.90625 -1.421875 
Q 22.3125 -1.421875 17.546875 -0.640625 
Q 12.796875 0.140625 7.71875 1.703125 
L 7.71875 11.625 
Q 12.109375 9.234375 16.796875 8.0625 
Q 21.484375 6.890625 26.703125 6.890625 
Q 35.15625 6.890625 40.078125 11.328125 
Q 45.015625 15.765625 45.015625 23.390625 
Q 45.015625 31 40.078125 35.4375 
Q 35.15625 39.890625 26.703125 39.890625 
Q 22.75 39.890625 18.8125 39.015625 
Q 14.890625 38.140625 10.796875 36.28125 
z
" id="DejaVuSans-53"/>
      </defs>
      <g style="fill:#555555;" transform="translate(338.353349 172.098437)scale(0.1 -0.1)">
       <use xlink:href="#DejaVuSans-50"/>
       <use x="63.623047" xlink:href="#DejaVuSans-48"/>
       <use x="127.246094" xlink:href="#DejaVuSans-50"/>
       <use x="190.869141" xlink:href="#DejaVuSans-48"/>
       <use x="254.492188" xlink:href="#DejaVuSans-45"/>
       <use x="290.576172" xlink:href="#DejaVuSans-48"/>
       <use x="354.199219" xlink:href="#DejaVuSans-53"/>
      </g>
     </g>
    </g>
    <g id="xtick_5">
     <g id="line2d_9">
      <path clip-path="url(#pdb075edcda)" d="M 434.847902 157.5 
L 434.847902 21.6 
" style="fill:none;stroke:#ffffff;stroke-linecap:square;stroke-width:0.8;"/>
     </g>
     <g id="line2d_10">
      <g>
       <use style="fill:#555555;stroke:#555555;stroke-width:0.8;" x="434.847902" xlink:href="#m2705cfdda9" y="157.5"/>
      </g>
     </g>
     <g id="text_5">
      <!-- 2020-06 -->
      <defs>
       <path d="M 33.015625 40.375 
Q 26.375 40.375 22.484375 35.828125 
Q 18.609375 31.296875 18.609375 23.390625 
Q 18.609375 15.53125 22.484375 10.953125 
Q 26.375 6.390625 33.015625 6.390625 
Q 39.65625 6.390625 43.53125 10.953125 
Q 47.40625 15.53125 47.40625 23.390625 
Q 47.40625 31.296875 43.53125 35.828125 
Q 39.65625 40.375 33.015625 40.375 
z
M 52.59375 71.296875 
L 52.59375 62.3125 
Q 48.875 64.0625 45.09375 64.984375 
Q 41.3125 65.921875 37.59375 65.921875 
Q 27.828125 65.921875 22.671875 59.328125 
Q 17.53125 52.734375 16.796875 39.40625 
Q 19.671875 43.65625 24.015625 45.921875 
Q 28.375 48.1875 33.59375 48.1875 
Q 44.578125 48.1875 50.953125 41.515625 
Q 57.328125 34.859375 57.328125 23.390625 
Q 57.328125 12.15625 50.6875 5.359375 
Q 44.046875 -1.421875 33.015625 -1.421875 
Q 20.359375 -1.421875 13.671875 8.265625 
Q 6.984375 17.96875 6.984375 36.375 
Q 6.984375 53.65625 15.1875 63.9375 
Q 23.390625 74.21875 37.203125 74.21875 
Q 40.921875 74.21875 44.703125 73.484375 
Q 48.484375 72.75 52.59375 71.296875 
z
" id="DejaVuSans-54"/>
      </defs>
      <g style="fill:#555555;" transform="translate(413.956496 172.098437)scale(0.1 -0.1)">
       <use xlink:href="#DejaVuSans-50"/>
       <use x="63.623047" xlink:href="#DejaVuSans-48"/>
       <use x="127.246094" xlink:href="#DejaVuSans-50"/>
       <use x="190.869141" xlink:href="#DejaVuSans-48"/>
       <use x="254.492188" xlink:href="#DejaVuSans-45"/>
       <use x="290.576172" xlink:href="#DejaVuSans-48"/>
       <use x="354.199219" xlink:href="#DejaVuSans-54"/>
      </g>
     </g>
    </g>
    <g id="xtick_6">
     <g id="line2d_11">
      <path clip-path="url(#pdb075edcda)" d="M 508.012238 157.5 
L 508.012238 21.6 
" style="fill:none;stroke:#ffffff;stroke-linecap:square;stroke-width:0.8;"/>
     </g>
     <g id="line2d_12">
      <g>
       <use style="fill:#555555;stroke:#555555;stroke-width:0.8;" x="508.012238" xlink:href="#m2705cfdda9" y="157.5"/>
      </g>
     </g>
     <g id="text_6">
      <!-- 2020-07 -->
      <defs>
       <path d="M 8.203125 72.90625 
L 55.078125 72.90625 
L 55.078125 68.703125 
L 28.609375 0 
L 18.3125 0 
L 43.21875 64.59375 
L 8.203125 64.59375 
z
" id="DejaVuSans-55"/>
      </defs>
      <g style="fill:#555555;" transform="translate(487.120832 172.098437)scale(0.1 -0.1)">
       <use xlink:href="#DejaVuSans-50"/>
       <use x="63.623047" xlink:href="#DejaVuSans-48"/>
       <use x="127.246094" xlink:href="#DejaVuSans-50"/>
       <use x="190.869141" xlink:href="#DejaVuSans-48"/>
       <use x="254.492188" xlink:href="#DejaVuSans-45"/>
       <use x="290.576172" xlink:href="#DejaVuSans-48"/>
       <use x="354.199219" xlink:href="#DejaVuSans-55"/>
      </g>
     </g>
    </g>
    <g id="xtick_7">
     <g id="line2d_13">
      <path clip-path="url(#pdb075edcda)" d="M 583.615385 157.5 
L 583.615385 21.6 
" style="fill:none;stroke:#ffffff;stroke-linecap:square;stroke-width:0.8;"/>
     </g>
     <g id="line2d_14">
      <g>
       <use style="fill:#555555;stroke:#555555;stroke-width:0.8;" x="583.615385" xlink:href="#m2705cfdda9" y="157.5"/>
      </g>
     </g>
     <g id="text_7">
      <!-- 2020-08 -->
      <defs>
       <path d="M 31.78125 34.625 
Q 24.75 34.625 20.71875 30.859375 
Q 16.703125 27.09375 16.703125 20.515625 
Q 16.703125 13.921875 20.71875 10.15625 
Q 24.75 6.390625 31.78125 6.390625 
Q 38.8125 6.390625 42.859375 10.171875 
Q 46.921875 13.96875 46.921875 20.515625 
Q 46.921875 27.09375 42.890625 30.859375 
Q 38.875 34.625 31.78125 34.625 
z
M 21.921875 38.8125 
Q 15.578125 40.375 12.03125 44.71875 
Q 8.5 49.078125 8.5 55.328125 
Q 8.5 64.0625 14.71875 69.140625 
Q 20.953125 74.21875 31.78125 74.21875 
Q 42.671875 74.21875 48.875 69.140625 
Q 55.078125 64.0625 55.078125 55.328125 
Q 55.078125 49.078125 51.53125 44.71875 
Q 48 40.375 41.703125 38.8125 
Q 48.828125 37.15625 52.796875 32.3125 
Q 56.78125 27.484375 56.78125 20.515625 
Q 56.78125 9.90625 50.3125 4.234375 
Q 43.84375 -1.421875 31.78125 -1.421875 
Q 19.734375 -1.421875 13.25 4.234375 
Q 6.78125 9.90625 6.78125 20.515625 
Q 6.78125 27.484375 10.78125 32.3125 
Q 14.796875 37.15625 21.921875 38.8125 
z
M 18.3125 54.390625 
Q 18.3125 48.734375 21.84375 45.5625 
Q 25.390625 42.390625 31.78125 42.390625 
Q 38.140625 42.390625 41.71875 45.5625 
Q 45.3125 48.734375 45.3125 54.390625 
Q 45.3125 60.0625 41.71875 63.234375 
Q 38.140625 66.40625 31.78125 66.40625 
Q 25.390625 66.40625 21.84375 63.234375 
Q 18.3125 60.0625 18.3125 54.390625 
z
" id="DejaVuSans-56"/>
      </defs>
      <g style="fill:#555555;" transform="translate(562.723978 172.098437)scale(0.1 -0.1)">
       <use xlink:href="#DejaVuSans-50"/>
       <use x="63.623047" xlink:href="#DejaVuSans-48"/>
       <use x="127.246094" xlink:href="#DejaVuSans-50"/>
       <use x="190.869141" xlink:href="#DejaVuSans-48"/>
       <use x="254.492188" xlink:href="#DejaVuSans-45"/>
       <use x="290.576172" xlink:href="#DejaVuSans-48"/>
       <use x="354.199219" xlink:href="#DejaVuSans-56"/>
      </g>
     </g>
    </g>
   </g>
   <g id="matplotlib.axis_2">
    <g id="ytick_1">
     <g id="line2d_15">
      <path clip-path="url(#pdb075edcda)" d="M 90 131.08183 
L 648 131.08183 
" style="fill:none;stroke:#ffffff;stroke-linecap:square;stroke-width:0.8;"/>
     </g>
     <g id="line2d_16">
      <defs>
       <path d="M 0 0 
L -3.5 0 
" id="m109e4ca9f2" style="stroke:#555555;stroke-width:0.8;"/>
      </defs>
      <g>
       <use style="fill:#555555;stroke:#555555;stroke-width:0.8;" x="90" xlink:href="#m109e4ca9f2" y="131.08183"/>
      </g>
     </g>
     <g id="line2d_17">
      <defs>
       <path d="M 0 0 
L 3.5 0 
" id="m5a496b2305" style="stroke:#555555;stroke-width:0.8;"/>
      </defs>
      <g>
       <use style="fill:#555555;stroke:#555555;stroke-width:0.8;" x="648" xlink:href="#m5a496b2305" y="131.08183"/>
      </g>
     </g>
     <g id="text_8">
      <!-- 1.0 -->
      <defs>
       <path d="M 12.40625 8.296875 
L 28.515625 8.296875 
L 28.515625 63.921875 
L 10.984375 60.40625 
L 10.984375 69.390625 
L 28.421875 72.90625 
L 38.28125 72.90625 
L 38.28125 8.296875 
L 54.390625 8.296875 
L 54.390625 0 
L 12.40625 0 
z
" id="DejaVuSans-49"/>
       <path d="M 10.6875 12.40625 
L 21 12.40625 
L 21 0 
L 10.6875 0 
z
" id="DejaVuSans-46"/>
      </defs>
      <g style="fill:#555555;" transform="translate(67.096875 134.881049)scale(0.1 -0.1)">
       <use xlink:href="#DejaVuSans-49"/>
       <use x="63.623047" xlink:href="#DejaVuSans-46"/>
       <use x="95.410156" xlink:href="#DejaVuSans-48"/>
      </g>
     </g>
     <g id="text_9">
      <!-- 1.0 -->
      <g style="fill:#555555;" transform="translate(655 134.881049)scale(0.1 -0.1)">
       <use xlink:href="#DejaVuSans-49"/>
       <use x="63.623047" xlink:href="#DejaVuSans-46"/>
       <use x="95.410156" xlink:href="#DejaVuSans-48"/>
      </g>
     </g>
    </g>
    <g id="ytick_2">
     <g id="line2d_18">
      <path clip-path="url(#pdb075edcda)" d="M 90 103.088954 
L 648 103.088954 
" style="fill:none;stroke:#ffffff;stroke-linecap:square;stroke-width:0.8;"/>
     </g>
     <g id="line2d_19">
      <g>
       <use style="fill:#555555;stroke:#555555;stroke-width:0.8;" x="90" xlink:href="#m109e4ca9f2" y="103.088954"/>
      </g>
     </g>
     <g id="line2d_20">
      <g>
       <use style="fill:#555555;stroke:#555555;stroke-width:0.8;" x="648" xlink:href="#m5a496b2305" y="103.088954"/>
      </g>
     </g>
     <g id="text_10">
      <!-- 1.5 -->
      <g style="fill:#555555;" transform="translate(67.096875 106.888173)scale(0.1 -0.1)">
       <use xlink:href="#DejaVuSans-49"/>
       <use x="63.623047" xlink:href="#DejaVuSans-46"/>
       <use x="95.410156" xlink:href="#DejaVuSans-53"/>
      </g>
     </g>
     <g id="text_11">
      <!-- 1.5 -->
      <g style="fill:#555555;" transform="translate(655 106.888173)scale(0.1 -0.1)">
       <use xlink:href="#DejaVuSans-49"/>
       <use x="63.623047" xlink:href="#DejaVuSans-46"/>
       <use x="95.410156" xlink:href="#DejaVuSans-53"/>
      </g>
     </g>
    </g>
    <g id="ytick_3">
     <g id="line2d_21">
      <path clip-path="url(#pdb075edcda)" d="M 90 75.096078 
L 648 75.096078 
" style="fill:none;stroke:#ffffff;stroke-linecap:square;stroke-width:0.8;"/>
     </g>
     <g id="line2d_22">
      <g>
       <use style="fill:#555555;stroke:#555555;stroke-width:0.8;" x="90" xlink:href="#m109e4ca9f2" y="75.096078"/>
      </g>
     </g>
     <g id="line2d_23">
      <g>
       <use style="fill:#555555;stroke:#555555;stroke-width:0.8;" x="648" xlink:href="#m5a496b2305" y="75.096078"/>
      </g>
     </g>
     <g id="text_12">
      <!-- 2.0 -->
      <g style="fill:#555555;" transform="translate(67.096875 78.895297)scale(0.1 -0.1)">
       <use xlink:href="#DejaVuSans-50"/>
       <use x="63.623047" xlink:href="#DejaVuSans-46"/>
       <use x="95.410156" xlink:href="#DejaVuSans-48"/>
      </g>
     </g>
     <g id="text_13">
      <!-- 2.0 -->
      <g style="fill:#555555;" transform="translate(655 78.895297)scale(0.1 -0.1)">
       <use xlink:href="#DejaVuSans-50"/>
       <use x="63.623047" xlink:href="#DejaVuSans-46"/>
       <use x="95.410156" xlink:href="#DejaVuSans-48"/>
      </g>
     </g>
    </g>
    <g id="ytick_4">
     <g id="line2d_24">
      <path clip-path="url(#pdb075edcda)" d="M 90 47.103202 
L 648 47.103202 
" style="fill:none;stroke:#ffffff;stroke-linecap:square;stroke-width:0.8;"/>
     </g>
     <g id="line2d_25">
      <g>
       <use style="fill:#555555;stroke:#555555;stroke-width:0.8;" x="90" xlink:href="#m109e4ca9f2" y="47.103202"/>
      </g>
     </g>
     <g id="line2d_26">
      <g>
       <use style="fill:#555555;stroke:#555555;stroke-width:0.8;" x="648" xlink:href="#m5a496b2305" y="47.103202"/>
      </g>
     </g>
     <g id="text_14">
      <!-- 2.5 -->
      <g style="fill:#555555;" transform="translate(67.096875 50.902421)scale(0.1 -0.1)">
       <use xlink:href="#DejaVuSans-50"/>
       <use x="63.623047" xlink:href="#DejaVuSans-46"/>
       <use x="95.410156" xlink:href="#DejaVuSans-53"/>
      </g>
     </g>
     <g id="text_15">
      <!-- 2.5 -->
      <g style="fill:#555555;" transform="translate(655 50.902421)scale(0.1 -0.1)">
       <use xlink:href="#DejaVuSans-50"/>
       <use x="63.623047" xlink:href="#DejaVuSans-46"/>
       <use x="95.410156" xlink:href="#DejaVuSans-53"/>
      </g>
     </g>
    </g>
    <g id="text_16">
     <!-- R &amp; growth factor -->
     <defs>
      <path d="M 44.390625 34.1875 
Q 47.5625 33.109375 50.5625 29.59375 
Q 53.5625 26.078125 56.59375 19.921875 
L 66.609375 0 
L 56 0 
L 46.6875 18.703125 
Q 43.0625 26.03125 39.671875 28.421875 
Q 36.28125 30.8125 30.421875 30.8125 
L 19.671875 30.8125 
L 19.671875 0 
L 9.8125 0 
L 9.8125 72.90625 
L 32.078125 72.90625 
Q 44.578125 72.90625 50.734375 67.671875 
Q 56.890625 62.453125 56.890625 51.90625 
Q 56.890625 45.015625 53.6875 40.46875 
Q 50.484375 35.9375 44.390625 34.1875 
z
M 19.671875 64.796875 
L 19.671875 38.921875 
L 32.078125 38.921875 
Q 39.203125 38.921875 42.84375 42.21875 
Q 46.484375 45.515625 46.484375 51.90625 
Q 46.484375 58.296875 42.84375 61.546875 
Q 39.203125 64.796875 32.078125 64.796875 
z
" id="DejaVuSans-82"/>
      <path id="DejaVuSans-32"/>
      <path d="M 24.3125 39.203125 
Q 19.875 35.25 17.796875 31.3125 
Q 15.71875 27.390625 15.71875 23.09375 
Q 15.71875 15.96875 20.890625 11.234375 
Q 26.078125 6.5 33.890625 6.5 
Q 38.53125 6.5 42.578125 8.03125 
Q 46.625 9.578125 50.203125 12.703125 
z
M 31.203125 44.671875 
L 56 19.28125 
Q 58.890625 23.640625 60.5 28.59375 
Q 62.109375 33.546875 62.40625 39.109375 
L 71.484375 39.109375 
Q 70.90625 32.671875 68.359375 26.359375 
Q 65.828125 20.0625 61.28125 13.921875 
L 74.90625 0 
L 62.59375 0 
L 55.609375 7.171875 
Q 50.53125 2.828125 44.96875 0.703125 
Q 39.40625 -1.421875 33.015625 -1.421875 
Q 21.234375 -1.421875 13.765625 5.296875 
Q 6.296875 12.015625 6.296875 22.515625 
Q 6.296875 28.765625 9.5625 34.25 
Q 12.84375 39.75 19.390625 44.578125 
Q 17.046875 47.65625 15.8125 50.703125 
Q 14.59375 53.765625 14.59375 56.6875 
Q 14.59375 64.59375 20.015625 69.40625 
Q 25.4375 74.21875 34.421875 74.21875 
Q 38.484375 74.21875 42.5 73.34375 
Q 46.53125 72.46875 50.6875 70.703125 
L 50.6875 61.8125 
Q 46.4375 64.109375 42.578125 65.296875 
Q 38.71875 66.5 35.40625 66.5 
Q 30.28125 66.5 27.078125 63.78125 
Q 23.875 61.078125 23.875 56.78125 
Q 23.875 54.296875 25.3125 51.78125 
Q 26.765625 49.265625 31.203125 44.671875 
z
" id="DejaVuSans-38"/>
      <path d="M 45.40625 27.984375 
Q 45.40625 37.75 41.375 43.109375 
Q 37.359375 48.484375 30.078125 48.484375 
Q 22.859375 48.484375 18.828125 43.109375 
Q 14.796875 37.75 14.796875 27.984375 
Q 14.796875 18.265625 18.828125 12.890625 
Q 22.859375 7.515625 30.078125 7.515625 
Q 37.359375 7.515625 41.375 12.890625 
Q 45.40625 18.265625 45.40625 27.984375 
z
M 54.390625 6.78125 
Q 54.390625 -7.171875 48.1875 -13.984375 
Q 42 -20.796875 29.203125 -20.796875 
Q 24.46875 -20.796875 20.265625 -20.09375 
Q 16.0625 -19.390625 12.109375 -17.921875 
L 12.109375 -9.1875 
Q 16.0625 -11.328125 19.921875 -12.34375 
Q 23.78125 -13.375 27.78125 -13.375 
Q 36.625 -13.375 41.015625 -8.765625 
Q 45.40625 -4.15625 45.40625 5.171875 
L 45.40625 9.625 
Q 42.625 4.78125 38.28125 2.390625 
Q 33.9375 0 27.875 0 
Q 17.828125 0 11.671875 7.65625 
Q 5.515625 15.328125 5.515625 27.984375 
Q 5.515625 40.671875 11.671875 48.328125 
Q 17.828125 56 27.875 56 
Q 33.9375 56 38.28125 53.609375 
Q 42.625 51.21875 45.40625 46.390625 
L 45.40625 54.6875 
L 54.390625 54.6875 
z
" id="DejaVuSans-103"/>
      <path d="M 41.109375 46.296875 
Q 39.59375 47.171875 37.8125 47.578125 
Q 36.03125 48 33.890625 48 
Q 26.265625 48 22.1875 43.046875 
Q 18.109375 38.09375 18.109375 28.8125 
L 18.109375 0 
L 9.078125 0 
L 9.078125 54.6875 
L 18.109375 54.6875 
L 18.109375 46.1875 
Q 20.953125 51.171875 25.484375 53.578125 
Q 30.03125 56 36.53125 56 
Q 37.453125 56 38.578125 55.875 
Q 39.703125 55.765625 41.0625 55.515625 
z
" id="DejaVuSans-114"/>
      <path d="M 30.609375 48.390625 
Q 23.390625 48.390625 19.1875 42.75 
Q 14.984375 37.109375 14.984375 27.296875 
Q 14.984375 17.484375 19.15625 11.84375 
Q 23.34375 6.203125 30.609375 6.203125 
Q 37.796875 6.203125 41.984375 11.859375 
Q 46.1875 17.53125 46.1875 27.296875 
Q 46.1875 37.015625 41.984375 42.703125 
Q 37.796875 48.390625 30.609375 48.390625 
z
M 30.609375 56 
Q 42.328125 56 49.015625 48.375 
Q 55.71875 40.765625 55.71875 27.296875 
Q 55.71875 13.875 49.015625 6.21875 
Q 42.328125 -1.421875 30.609375 -1.421875 
Q 18.84375 -1.421875 12.171875 6.21875 
Q 5.515625 13.875 5.515625 27.296875 
Q 5.515625 40.765625 12.171875 48.375 
Q 18.84375 56 30.609375 56 
z
" id="DejaVuSans-111"/>
      <path d="M 4.203125 54.6875 
L 13.1875 54.6875 
L 24.421875 12.015625 
L 35.59375 54.6875 
L 46.1875 54.6875 
L 57.421875 12.015625 
L 68.609375 54.6875 
L 77.59375 54.6875 
L 63.28125 0 
L 52.6875 0 
L 40.921875 44.828125 
L 29.109375 0 
L 18.5 0 
z
" id="DejaVuSans-119"/>
      <path d="M 18.3125 70.21875 
L 18.3125 54.6875 
L 36.8125 54.6875 
L 36.8125 47.703125 
L 18.3125 47.703125 
L 18.3125 18.015625 
Q 18.3125 11.328125 20.140625 9.421875 
Q 21.96875 7.515625 27.59375 7.515625 
L 36.8125 7.515625 
L 36.8125 0 
L 27.59375 0 
Q 17.1875 0 13.234375 3.875 
Q 9.28125 7.765625 9.28125 18.015625 
L 9.28125 47.703125 
L 2.6875 47.703125 
L 2.6875 54.6875 
L 9.28125 54.6875 
L 9.28125 70.21875 
z
" id="DejaVuSans-116"/>
      <path d="M 54.890625 33.015625 
L 54.890625 0 
L 45.90625 0 
L 45.90625 32.71875 
Q 45.90625 40.484375 42.875 44.328125 
Q 39.84375 48.1875 33.796875 48.1875 
Q 26.515625 48.1875 22.3125 43.546875 
Q 18.109375 38.921875 18.109375 30.90625 
L 18.109375 0 
L 9.078125 0 
L 9.078125 75.984375 
L 18.109375 75.984375 
L 18.109375 46.1875 
Q 21.34375 51.125 25.703125 53.5625 
Q 30.078125 56 35.796875 56 
Q 45.21875 56 50.046875 50.171875 
Q 54.890625 44.34375 54.890625 33.015625 
z
" id="DejaVuSans-104"/>
      <path d="M 37.109375 75.984375 
L 37.109375 68.5 
L 28.515625 68.5 
Q 23.6875 68.5 21.796875 66.546875 
Q 19.921875 64.59375 19.921875 59.515625 
L 19.921875 54.6875 
L 34.71875 54.6875 
L 34.71875 47.703125 
L 19.921875 47.703125 
L 19.921875 0 
L 10.890625 0 
L 10.890625 47.703125 
L 2.296875 47.703125 
L 2.296875 54.6875 
L 10.890625 54.6875 
L 10.890625 58.5 
Q 10.890625 67.625 15.140625 71.796875 
Q 19.390625 75.984375 28.609375 75.984375 
z
" id="DejaVuSans-102"/>
      <path d="M 34.28125 27.484375 
Q 23.390625 27.484375 19.1875 25 
Q 14.984375 22.515625 14.984375 16.5 
Q 14.984375 11.71875 18.140625 8.90625 
Q 21.296875 6.109375 26.703125 6.109375 
Q 34.1875 6.109375 38.703125 11.40625 
Q 43.21875 16.703125 43.21875 25.484375 
L 43.21875 27.484375 
z
M 52.203125 31.203125 
L 52.203125 0 
L 43.21875 0 
L 43.21875 8.296875 
Q 40.140625 3.328125 35.546875 0.953125 
Q 30.953125 -1.421875 24.3125 -1.421875 
Q 15.921875 -1.421875 10.953125 3.296875 
Q 6 8.015625 6 15.921875 
Q 6 25.140625 12.171875 29.828125 
Q 18.359375 34.515625 30.609375 34.515625 
L 43.21875 34.515625 
L 43.21875 35.40625 
Q 43.21875 41.609375 39.140625 45 
Q 35.0625 48.390625 27.6875 48.390625 
Q 23 48.390625 18.546875 47.265625 
Q 14.109375 46.140625 10.015625 43.890625 
L 10.015625 52.203125 
Q 14.9375 54.109375 19.578125 55.046875 
Q 24.21875 56 28.609375 56 
Q 40.484375 56 46.34375 49.84375 
Q 52.203125 43.703125 52.203125 31.203125 
z
" id="DejaVuSans-97"/>
      <path d="M 48.78125 52.59375 
L 48.78125 44.1875 
Q 44.96875 46.296875 41.140625 47.34375 
Q 37.3125 48.390625 33.40625 48.390625 
Q 24.65625 48.390625 19.8125 42.84375 
Q 14.984375 37.3125 14.984375 27.296875 
Q 14.984375 17.28125 19.8125 11.734375 
Q 24.65625 6.203125 33.40625 6.203125 
Q 37.3125 6.203125 41.140625 7.25 
Q 44.96875 8.296875 48.78125 10.40625 
L 48.78125 2.09375 
Q 45.015625 0.34375 40.984375 -0.53125 
Q 36.96875 -1.421875 32.421875 -1.421875 
Q 20.0625 -1.421875 12.78125 6.34375 
Q 5.515625 14.109375 5.515625 27.296875 
Q 5.515625 40.671875 12.859375 48.328125 
Q 20.21875 56 33.015625 56 
Q 37.15625 56 41.109375 55.140625 
Q 45.0625 54.296875 48.78125 52.59375 
z
" id="DejaVuSans-99"/>
     </defs>
     <g style="fill:#555555;" transform="translate(47.163875 142.570312)rotate(-90)scale(0.12 -0.12)">
      <use xlink:href="#DejaVuSans-82"/>
      <use x="69.482422" xlink:href="#DejaVuSans-32"/>
      <use x="101.269531" xlink:href="#DejaVuSans-38"/>
      <use x="179.248047" xlink:href="#DejaVuSans-32"/>
      <use x="211.035156" xlink:href="#DejaVuSans-103"/>
      <use x="274.511719" xlink:href="#DejaVuSans-114"/>
      <use x="313.375" xlink:href="#DejaVuSans-111"/>
      <use x="374.556641" xlink:href="#DejaVuSans-119"/>
      <use x="456.34375" xlink:href="#DejaVuSans-116"/>
      <use x="495.552734" xlink:href="#DejaVuSans-104"/>
      <use x="558.931641" xlink:href="#DejaVuSans-32"/>
      <use x="590.71875" xlink:href="#DejaVuSans-102"/>
      <use x="625.923828" xlink:href="#DejaVuSans-97"/>
      <use x="687.203125" xlink:href="#DejaVuSans-99"/>
      <use x="742.183594" xlink:href="#DejaVuSans-116"/>
      <use x="781.392578" xlink:href="#DejaVuSans-111"/>
      <use x="842.574219" xlink:href="#DejaVuSans-114"/>
     </g>
     <!-- (based on cases) -->
     <defs>
      <path d="M 31 75.875 
Q 24.46875 64.65625 21.28125 53.65625 
Q 18.109375 42.671875 18.109375 31.390625 
Q 18.109375 20.125 21.3125 9.0625 
Q 24.515625 -2 31 -13.1875 
L 23.1875 -13.1875 
Q 15.875 -1.703125 12.234375 9.375 
Q 8.59375 20.453125 8.59375 31.390625 
Q 8.59375 42.28125 12.203125 53.3125 
Q 15.828125 64.359375 23.1875 75.875 
z
" id="DejaVuSans-40"/>
      <path d="M 48.6875 27.296875 
Q 48.6875 37.203125 44.609375 42.84375 
Q 40.53125 48.484375 33.40625 48.484375 
Q 26.265625 48.484375 22.1875 42.84375 
Q 18.109375 37.203125 18.109375 27.296875 
Q 18.109375 17.390625 22.1875 11.75 
Q 26.265625 6.109375 33.40625 6.109375 
Q 40.53125 6.109375 44.609375 11.75 
Q 48.6875 17.390625 48.6875 27.296875 
z
M 18.109375 46.390625 
Q 20.953125 51.265625 25.265625 53.625 
Q 29.59375 56 35.59375 56 
Q 45.5625 56 51.78125 48.09375 
Q 58.015625 40.1875 58.015625 27.296875 
Q 58.015625 14.40625 51.78125 6.484375 
Q 45.5625 -1.421875 35.59375 -1.421875 
Q 29.59375 -1.421875 25.265625 0.953125 
Q 20.953125 3.328125 18.109375 8.203125 
L 18.109375 0 
L 9.078125 0 
L 9.078125 75.984375 
L 18.109375 75.984375 
z
" id="DejaVuSans-98"/>
      <path d="M 44.28125 53.078125 
L 44.28125 44.578125 
Q 40.484375 46.53125 36.375 47.5 
Q 32.28125 48.484375 27.875 48.484375 
Q 21.1875 48.484375 17.84375 46.4375 
Q 14.5 44.390625 14.5 40.28125 
Q 14.5 37.15625 16.890625 35.375 
Q 19.28125 33.59375 26.515625 31.984375 
L 29.59375 31.296875 
Q 39.15625 29.25 43.1875 25.515625 
Q 47.21875 21.78125 47.21875 15.09375 
Q 47.21875 7.46875 41.1875 3.015625 
Q 35.15625 -1.421875 24.609375 -1.421875 
Q 20.21875 -1.421875 15.453125 -0.5625 
Q 10.6875 0.296875 5.421875 2 
L 5.421875 11.28125 
Q 10.40625 8.6875 15.234375 7.390625 
Q 20.0625 6.109375 24.8125 6.109375 
Q 31.15625 6.109375 34.5625 8.28125 
Q 37.984375 10.453125 37.984375 14.40625 
Q 37.984375 18.0625 35.515625 20.015625 
Q 33.0625 21.96875 24.703125 23.78125 
L 21.578125 24.515625 
Q 13.234375 26.265625 9.515625 29.90625 
Q 5.8125 33.546875 5.8125 39.890625 
Q 5.8125 47.609375 11.28125 51.796875 
Q 16.75 56 26.8125 56 
Q 31.78125 56 36.171875 55.265625 
Q 40.578125 54.546875 44.28125 53.078125 
z
" id="DejaVuSans-115"/>
      <path d="M 56.203125 29.59375 
L 56.203125 25.203125 
L 14.890625 25.203125 
Q 15.484375 15.921875 20.484375 11.0625 
Q 25.484375 6.203125 34.421875 6.203125 
Q 39.59375 6.203125 44.453125 7.46875 
Q 49.3125 8.734375 54.109375 11.28125 
L 54.109375 2.78125 
Q 49.265625 0.734375 44.1875 -0.34375 
Q 39.109375 -1.421875 33.890625 -1.421875 
Q 20.796875 -1.421875 13.15625 6.1875 
Q 5.515625 13.8125 5.515625 26.8125 
Q 5.515625 40.234375 12.765625 48.109375 
Q 20.015625 56 32.328125 56 
Q 43.359375 56 49.78125 48.890625 
Q 56.203125 41.796875 56.203125 29.59375 
z
M 47.21875 32.234375 
Q 47.125 39.59375 43.09375 43.984375 
Q 39.0625 48.390625 32.421875 48.390625 
Q 24.90625 48.390625 20.390625 44.140625 
Q 15.875 39.890625 15.1875 32.171875 
z
" id="DejaVuSans-101"/>
      <path d="M 45.40625 46.390625 
L 45.40625 75.984375 
L 54.390625 75.984375 
L 54.390625 0 
L 45.40625 0 
L 45.40625 8.203125 
Q 42.578125 3.328125 38.25 0.953125 
Q 33.9375 -1.421875 27.875 -1.421875 
Q 17.96875 -1.421875 11.734375 6.484375 
Q 5.515625 14.40625 5.515625 27.296875 
Q 5.515625 40.1875 11.734375 48.09375 
Q 17.96875 56 27.875 56 
Q 33.9375 56 38.25 53.625 
Q 42.578125 51.265625 45.40625 46.390625 
z
M 14.796875 27.296875 
Q 14.796875 17.390625 18.875 11.75 
Q 22.953125 6.109375 30.078125 6.109375 
Q 37.203125 6.109375 41.296875 11.75 
Q 45.40625 17.390625 45.40625 27.296875 
Q 45.40625 37.203125 41.296875 42.84375 
Q 37.203125 48.484375 30.078125 48.484375 
Q 22.953125 48.484375 18.875 42.84375 
Q 14.796875 37.203125 14.796875 27.296875 
z
" id="DejaVuSans-100"/>
      <path d="M 54.890625 33.015625 
L 54.890625 0 
L 45.90625 0 
L 45.90625 32.71875 
Q 45.90625 40.484375 42.875 44.328125 
Q 39.84375 48.1875 33.796875 48.1875 
Q 26.515625 48.1875 22.3125 43.546875 
Q 18.109375 38.921875 18.109375 30.90625 
L 18.109375 0 
L 9.078125 0 
L 9.078125 54.6875 
L 18.109375 54.6875 
L 18.109375 46.1875 
Q 21.34375 51.125 25.703125 53.5625 
Q 30.078125 56 35.796875 56 
Q 45.21875 56 50.046875 50.171875 
Q 54.890625 44.34375 54.890625 33.015625 
z
" id="DejaVuSans-110"/>
      <path d="M 8.015625 75.875 
L 15.828125 75.875 
Q 23.140625 64.359375 26.78125 53.3125 
Q 30.421875 42.28125 30.421875 31.390625 
Q 30.421875 20.453125 26.78125 9.375 
Q 23.140625 -1.703125 15.828125 -13.1875 
L 8.015625 -13.1875 
Q 14.5 -2 17.703125 9.0625 
Q 20.90625 20.125 20.90625 31.390625 
Q 20.90625 42.671875 17.703125 53.65625 
Q 14.5 64.65625 8.015625 75.875 
z
" id="DejaVuSans-41"/>
     </defs>
     <g style="fill:#555555;" transform="translate(60.60125 140.550938)rotate(-90)scale(0.12 -0.12)">
      <use xlink:href="#DejaVuSans-40"/>
      <use x="39.013672" xlink:href="#DejaVuSans-98"/>
      <use x="102.490234" xlink:href="#DejaVuSans-97"/>
      <use x="163.769531" xlink:href="#DejaVuSans-115"/>
      <use x="215.869141" xlink:href="#DejaVuSans-101"/>
      <use x="277.392578" xlink:href="#DejaVuSans-100"/>
      <use x="340.869141" xlink:href="#DejaVuSans-32"/>
      <use x="372.65625" xlink:href="#DejaVuSans-111"/>
      <use x="433.837891" xlink:href="#DejaVuSans-110"/>
      <use x="497.216797" xlink:href="#DejaVuSans-32"/>
      <use x="529.003906" xlink:href="#DejaVuSans-99"/>
      <use x="583.984375" xlink:href="#DejaVuSans-97"/>
      <use x="645.263672" xlink:href="#DejaVuSans-115"/>
      <use x="697.363281" xlink:href="#DejaVuSans-101"/>
      <use x="758.886719" xlink:href="#DejaVuSans-115"/>
      <use x="810.986328" xlink:href="#DejaVuSans-41"/>
     </g>
    </g>
   </g>
   <g id="line2d_27">
    <defs>
     <path d="M 0 3 
C 0.795609 3 1.55874 2.683901 2.12132 2.12132 
C 2.683901 1.55874 3 0.795609 3 0 
C 3 -0.795609 2.683901 -1.55874 2.12132 -2.12132 
C 1.55874 -2.683901 0.795609 -3 0 -3 
C -0.795609 -3 -1.55874 -2.683901 -2.12132 -2.12132 
C -2.683901 -1.55874 -3 -0.795609 -3 0 
C -3 0.795609 -2.683901 1.55874 -2.12132 2.12132 
C -1.55874 2.683901 -0.795609 3 0 3 
z
" id="m8a75f9087c" style="stroke:#348abd;stroke-opacity:0.3;"/>
    </defs>
    <g clip-path="url(#pdb075edcda)">
     <use style="fill:#348abd;fill-opacity:0.3;stroke:#348abd;stroke-opacity:0.3;" x="120.241259" xlink:href="#m8a75f9087c" y="132.216054"/>
     <use style="fill:#348abd;fill-opacity:0.3;stroke:#348abd;stroke-opacity:0.3;" x="122.68007" xlink:href="#m8a75f9087c" y="133.543505"/>
     <use style="fill:#348abd;fill-opacity:0.3;stroke:#348abd;stroke-opacity:0.3;" x="125.118881" xlink:href="#m8a75f9087c" y="135.620368"/>
     <use style="fill:#348abd;fill-opacity:0.3;stroke:#348abd;stroke-opacity:0.3;" x="127.557692" xlink:href="#m8a75f9087c" y="83.352456"/>
     <use style="fill:#348abd;fill-opacity:0.3;stroke:#348abd;stroke-opacity:0.3;" x="129.996503" xlink:href="#m8a75f9087c" y="116.80918"/>
     <use style="fill:#348abd;fill-opacity:0.3;stroke:#348abd;stroke-opacity:0.3;" x="132.435315" xlink:href="#m8a75f9087c" y="114.341391"/>
     <use style="fill:#348abd;fill-opacity:0.3;stroke:#348abd;stroke-opacity:0.3;" x="134.874126" xlink:href="#m8a75f9087c" y="122.18088"/>
     <use style="fill:#348abd;fill-opacity:0.3;stroke:#348abd;stroke-opacity:0.3;" x="137.312937" xlink:href="#m8a75f9087c" y="126.11222"/>
     <use style="fill:#348abd;fill-opacity:0.3;stroke:#348abd;stroke-opacity:0.3;" x="139.751748" xlink:href="#m8a75f9087c" y="125.422979"/>
     <use style="fill:#348abd;fill-opacity:0.3;stroke:#348abd;stroke-opacity:0.3;" x="142.190559" xlink:href="#m8a75f9087c" y="124.179179"/>
     <use style="fill:#348abd;fill-opacity:0.3;stroke:#348abd;stroke-opacity:0.3;" x="144.629371" xlink:href="#m8a75f9087c" y="130.053213"/>
     <use style="fill:#348abd;fill-opacity:0.3;stroke:#348abd;stroke-opacity:0.3;" x="147.068182" xlink:href="#m8a75f9087c" y="133.214062"/>
     <use style="fill:#348abd;fill-opacity:0.3;stroke:#348abd;stroke-opacity:0.3;" x="149.506993" xlink:href="#m8a75f9087c" y="140.850818"/>
     <use style="fill:#348abd;fill-opacity:0.3;stroke:#348abd;stroke-opacity:0.3;" x="151.945804" xlink:href="#m8a75f9087c" y="130.709425"/>
     <use style="fill:#348abd;fill-opacity:0.3;stroke:#348abd;stroke-opacity:0.3;" x="154.384615" xlink:href="#m8a75f9087c" y="136.205052"/>
     <use style="fill:#348abd;fill-opacity:0.3;stroke:#348abd;stroke-opacity:0.3;" x="156.823427" xlink:href="#m8a75f9087c" y="134.829268"/>
     <use style="fill:#348abd;fill-opacity:0.3;stroke:#348abd;stroke-opacity:0.3;" x="159.262238" xlink:href="#m8a75f9087c" y="139.190111"/>
     <use style="fill:#348abd;fill-opacity:0.3;stroke:#348abd;stroke-opacity:0.3;" x="161.701049" xlink:href="#m8a75f9087c" y="144.884215"/>
     <use style="fill:#348abd;fill-opacity:0.3;stroke:#348abd;stroke-opacity:0.3;" x="164.13986" xlink:href="#m8a75f9087c" y="149.666254"/>
     <use style="fill:#348abd;fill-opacity:0.3;stroke:#348abd;stroke-opacity:0.3;" x="166.578671" xlink:href="#m8a75f9087c" y="138.430939"/>
     <use style="fill:#348abd;fill-opacity:0.3;stroke:#348abd;stroke-opacity:0.3;" x="169.017483" xlink:href="#m8a75f9087c" y="133.005928"/>
     <use style="fill:#348abd;fill-opacity:0.3;stroke:#348abd;stroke-opacity:0.3;" x="171.456294" xlink:href="#m8a75f9087c" y="134.259891"/>
     <use style="fill:#348abd;fill-opacity:0.3;stroke:#348abd;stroke-opacity:0.3;" x="173.895105" xlink:href="#m8a75f9087c" y="139.405993"/>
     <use style="fill:#348abd;fill-opacity:0.3;stroke:#348abd;stroke-opacity:0.3;" x="174.451187" xlink:href="#m8a75f9087c" y="-1"/>
     <use style="fill:#348abd;fill-opacity:0.3;stroke:#348abd;stroke-opacity:0.3;" x="178.595772" xlink:href="#m8a75f9087c" y="-1"/>
     <use style="fill:#348abd;fill-opacity:0.3;stroke:#348abd;stroke-opacity:0.3;" x="178.772727" xlink:href="#m8a75f9087c" y="36.19049"/>
     <use style="fill:#348abd;fill-opacity:0.3;stroke:#348abd;stroke-opacity:0.3;" x="181.211538" xlink:href="#m8a75f9087c" y="50.084763"/>
     <use style="fill:#348abd;fill-opacity:0.3;stroke:#348abd;stroke-opacity:0.3;" x="183.65035" xlink:href="#m8a75f9087c" y="93.794716"/>
     <use style="fill:#348abd;fill-opacity:0.3;stroke:#348abd;stroke-opacity:0.3;" x="186.089161" xlink:href="#m8a75f9087c" y="101.459962"/>
     <use style="fill:#348abd;fill-opacity:0.3;stroke:#348abd;stroke-opacity:0.3;" x="188.527972" xlink:href="#m8a75f9087c" y="113.675549"/>
     <use style="fill:#348abd;fill-opacity:0.3;stroke:#348abd;stroke-opacity:0.3;" x="190.966783" xlink:href="#m8a75f9087c" y="114.777818"/>
     <use style="fill:#348abd;fill-opacity:0.3;stroke:#348abd;stroke-opacity:0.3;" x="193.405594" xlink:href="#m8a75f9087c" y="113.513616"/>
     <use style="fill:#348abd;fill-opacity:0.3;stroke:#348abd;stroke-opacity:0.3;" x="195.844406" xlink:href="#m8a75f9087c" y="115.255729"/>
     <use style="fill:#348abd;fill-opacity:0.3;stroke:#348abd;stroke-opacity:0.3;" x="198.283217" xlink:href="#m8a75f9087c" y="114.607346"/>
     <use style="fill:#348abd;fill-opacity:0.3;stroke:#348abd;stroke-opacity:0.3;" x="200.722028" xlink:href="#m8a75f9087c" y="118.973411"/>
     <use style="fill:#348abd;fill-opacity:0.3;stroke:#348abd;stroke-opacity:0.3;" x="203.160839" xlink:href="#m8a75f9087c" y="121.551835"/>
     <use style="fill:#348abd;fill-opacity:0.3;stroke:#348abd;stroke-opacity:0.3;" x="205.59965" xlink:href="#m8a75f9087c" y="121.041682"/>
     <use style="fill:#348abd;fill-opacity:0.3;stroke:#348abd;stroke-opacity:0.3;" x="208.038462" xlink:href="#m8a75f9087c" y="126.024176"/>
     <use style="fill:#348abd;fill-opacity:0.3;stroke:#348abd;stroke-opacity:0.3;" x="210.477273" xlink:href="#m8a75f9087c" y="127.749551"/>
     <use style="fill:#348abd;fill-opacity:0.3;stroke:#348abd;stroke-opacity:0.3;" x="212.916084" xlink:href="#m8a75f9087c" y="130.183058"/>
     <use style="fill:#348abd;fill-opacity:0.3;stroke:#348abd;stroke-opacity:0.3;" x="215.354895" xlink:href="#m8a75f9087c" y="132.646183"/>
     <use style="fill:#348abd;fill-opacity:0.3;stroke:#348abd;stroke-opacity:0.3;" x="217.793706" xlink:href="#m8a75f9087c" y="134.696861"/>
     <use style="fill:#348abd;fill-opacity:0.3;stroke:#348abd;stroke-opacity:0.3;" x="220.232517" xlink:href="#m8a75f9087c" y="137.324648"/>
     <use style="fill:#348abd;fill-opacity:0.3;stroke:#348abd;stroke-opacity:0.3;" x="222.671329" xlink:href="#m8a75f9087c" y="138.35086"/>
     <use style="fill:#348abd;fill-opacity:0.3;stroke:#348abd;stroke-opacity:0.3;" x="225.11014" xlink:href="#m8a75f9087c" y="138.843969"/>
     <use style="fill:#348abd;fill-opacity:0.3;stroke:#348abd;stroke-opacity:0.3;" x="227.548951" xlink:href="#m8a75f9087c" y="142.252491"/>
     <use style="fill:#348abd;fill-opacity:0.3;stroke:#348abd;stroke-opacity:0.3;" x="229.987762" xlink:href="#m8a75f9087c" y="140.302984"/>
     <use style="fill:#348abd;fill-opacity:0.3;stroke:#348abd;stroke-opacity:0.3;" x="232.426573" xlink:href="#m8a75f9087c" y="141.499063"/>
     <use style="fill:#348abd;fill-opacity:0.3;stroke:#348abd;stroke-opacity:0.3;" x="234.865385" xlink:href="#m8a75f9087c" y="142.573441"/>
     <use style="fill:#348abd;fill-opacity:0.3;stroke:#348abd;stroke-opacity:0.3;" x="237.304196" xlink:href="#m8a75f9087c" y="141.728757"/>
     <use style="fill:#348abd;fill-opacity:0.3;stroke:#348abd;stroke-opacity:0.3;" x="239.743007" xlink:href="#m8a75f9087c" y="138.148197"/>
     <use style="fill:#348abd;fill-opacity:0.3;stroke:#348abd;stroke-opacity:0.3;" x="242.181818" xlink:href="#m8a75f9087c" y="135.453515"/>
     <use style="fill:#348abd;fill-opacity:0.3;stroke:#348abd;stroke-opacity:0.3;" x="244.620629" xlink:href="#m8a75f9087c" y="130.56987"/>
     <use style="fill:#348abd;fill-opacity:0.3;stroke:#348abd;stroke-opacity:0.3;" x="247.059441" xlink:href="#m8a75f9087c" y="136.196642"/>
     <use style="fill:#348abd;fill-opacity:0.3;stroke:#348abd;stroke-opacity:0.3;" x="249.498252" xlink:href="#m8a75f9087c" y="129.222866"/>
     <use style="fill:#348abd;fill-opacity:0.3;stroke:#348abd;stroke-opacity:0.3;" x="251.937063" xlink:href="#m8a75f9087c" y="127.353469"/>
     <use style="fill:#348abd;fill-opacity:0.3;stroke:#348abd;stroke-opacity:0.3;" x="254.375874" xlink:href="#m8a75f9087c" y="131.841951"/>
     <use style="fill:#348abd;fill-opacity:0.3;stroke:#348abd;stroke-opacity:0.3;" x="256.814685" xlink:href="#m8a75f9087c" y="130.669797"/>
     <use style="fill:#348abd;fill-opacity:0.3;stroke:#348abd;stroke-opacity:0.3;" x="259.253497" xlink:href="#m8a75f9087c" y="131.427621"/>
     <use style="fill:#348abd;fill-opacity:0.3;stroke:#348abd;stroke-opacity:0.3;" x="261.692308" xlink:href="#m8a75f9087c" y="132.475989"/>
     <use style="fill:#348abd;fill-opacity:0.3;stroke:#348abd;stroke-opacity:0.3;" x="264.131119" xlink:href="#m8a75f9087c" y="133.331904"/>
     <use style="fill:#348abd;fill-opacity:0.3;stroke:#348abd;stroke-opacity:0.3;" x="266.56993" xlink:href="#m8a75f9087c" y="132.390822"/>
     <use style="fill:#348abd;fill-opacity:0.3;stroke:#348abd;stroke-opacity:0.3;" x="269.008741" xlink:href="#m8a75f9087c" y="130.200759"/>
     <use style="fill:#348abd;fill-opacity:0.3;stroke:#348abd;stroke-opacity:0.3;" x="271.447552" xlink:href="#m8a75f9087c" y="131.855662"/>
     <use style="fill:#348abd;fill-opacity:0.3;stroke:#348abd;stroke-opacity:0.3;" x="273.886364" xlink:href="#m8a75f9087c" y="130.038705"/>
     <use style="fill:#348abd;fill-opacity:0.3;stroke:#348abd;stroke-opacity:0.3;" x="276.325175" xlink:href="#m8a75f9087c" y="126.688485"/>
     <use style="fill:#348abd;fill-opacity:0.3;stroke:#348abd;stroke-opacity:0.3;" x="278.763986" xlink:href="#m8a75f9087c" y="130.632016"/>
     <use style="fill:#348abd;fill-opacity:0.3;stroke:#348abd;stroke-opacity:0.3;" x="281.202797" xlink:href="#m8a75f9087c" y="131.99243"/>
     <use style="fill:#348abd;fill-opacity:0.3;stroke:#348abd;stroke-opacity:0.3;" x="283.641608" xlink:href="#m8a75f9087c" y="132.249762"/>
     <use style="fill:#348abd;fill-opacity:0.3;stroke:#348abd;stroke-opacity:0.3;" x="286.08042" xlink:href="#m8a75f9087c" y="132.565592"/>
     <use style="fill:#348abd;fill-opacity:0.3;stroke:#348abd;stroke-opacity:0.3;" x="288.519231" xlink:href="#m8a75f9087c" y="135.275292"/>
     <use style="fill:#348abd;fill-opacity:0.3;stroke:#348abd;stroke-opacity:0.3;" x="290.958042" xlink:href="#m8a75f9087c" y="134.77821"/>
     <use style="fill:#348abd;fill-opacity:0.3;stroke:#348abd;stroke-opacity:0.3;" x="293.396853" xlink:href="#m8a75f9087c" y="134.750951"/>
     <use style="fill:#348abd;fill-opacity:0.3;stroke:#348abd;stroke-opacity:0.3;" x="295.835664" xlink:href="#m8a75f9087c" y="137.415375"/>
     <use style="fill:#348abd;fill-opacity:0.3;stroke:#348abd;stroke-opacity:0.3;" x="298.274476" xlink:href="#m8a75f9087c" y="137.741972"/>
     <use style="fill:#348abd;fill-opacity:0.3;stroke:#348abd;stroke-opacity:0.3;" x="300.713287" xlink:href="#m8a75f9087c" y="137.993988"/>
     <use style="fill:#348abd;fill-opacity:0.3;stroke:#348abd;stroke-opacity:0.3;" x="303.152098" xlink:href="#m8a75f9087c" y="138.265139"/>
     <use style="fill:#348abd;fill-opacity:0.3;stroke:#348abd;stroke-opacity:0.3;" x="305.590909" xlink:href="#m8a75f9087c" y="139.120746"/>
     <use style="fill:#348abd;fill-opacity:0.3;stroke:#348abd;stroke-opacity:0.3;" x="308.02972" xlink:href="#m8a75f9087c" y="138.063858"/>
     <use style="fill:#348abd;fill-opacity:0.3;stroke:#348abd;stroke-opacity:0.3;" x="310.468531" xlink:href="#m8a75f9087c" y="135.481575"/>
     <use style="fill:#348abd;fill-opacity:0.3;stroke:#348abd;stroke-opacity:0.3;" x="312.907343" xlink:href="#m8a75f9087c" y="135.713934"/>
     <use style="fill:#348abd;fill-opacity:0.3;stroke:#348abd;stroke-opacity:0.3;" x="315.346154" xlink:href="#m8a75f9087c" y="135.85173"/>
     <use style="fill:#348abd;fill-opacity:0.3;stroke:#348abd;stroke-opacity:0.3;" x="317.784965" xlink:href="#m8a75f9087c" y="134.721147"/>
     <use style="fill:#348abd;fill-opacity:0.3;stroke:#348abd;stroke-opacity:0.3;" x="320.223776" xlink:href="#m8a75f9087c" y="135.222515"/>
     <use style="fill:#348abd;fill-opacity:0.3;stroke:#348abd;stroke-opacity:0.3;" x="322.662587" xlink:href="#m8a75f9087c" y="136.088626"/>
     <use style="fill:#348abd;fill-opacity:0.3;stroke:#348abd;stroke-opacity:0.3;" x="325.101399" xlink:href="#m8a75f9087c" y="137.662777"/>
     <use style="fill:#348abd;fill-opacity:0.3;stroke:#348abd;stroke-opacity:0.3;" x="327.54021" xlink:href="#m8a75f9087c" y="137.404492"/>
     <use style="fill:#348abd;fill-opacity:0.3;stroke:#348abd;stroke-opacity:0.3;" x="329.979021" xlink:href="#m8a75f9087c" y="137.509741"/>
     <use style="fill:#348abd;fill-opacity:0.3;stroke:#348abd;stroke-opacity:0.3;" x="332.417832" xlink:href="#m8a75f9087c" y="137.711397"/>
     <use style="fill:#348abd;fill-opacity:0.3;stroke:#348abd;stroke-opacity:0.3;" x="334.856643" xlink:href="#m8a75f9087c" y="136.107263"/>
     <use style="fill:#348abd;fill-opacity:0.3;stroke:#348abd;stroke-opacity:0.3;" x="337.295455" xlink:href="#m8a75f9087c" y="135.207237"/>
     <use style="fill:#348abd;fill-opacity:0.3;stroke:#348abd;stroke-opacity:0.3;" x="339.734266" xlink:href="#m8a75f9087c" y="132.244776"/>
     <use style="fill:#348abd;fill-opacity:0.3;stroke:#348abd;stroke-opacity:0.3;" x="342.173077" xlink:href="#m8a75f9087c" y="130.740548"/>
     <use style="fill:#348abd;fill-opacity:0.3;stroke:#348abd;stroke-opacity:0.3;" x="344.611888" xlink:href="#m8a75f9087c" y="133.937185"/>
     <use style="fill:#348abd;fill-opacity:0.3;stroke:#348abd;stroke-opacity:0.3;" x="347.050699" xlink:href="#m8a75f9087c" y="132.512147"/>
     <use style="fill:#348abd;fill-opacity:0.3;stroke:#348abd;stroke-opacity:0.3;" x="349.48951" xlink:href="#m8a75f9087c" y="134.527424"/>
     <use style="fill:#348abd;fill-opacity:0.3;stroke:#348abd;stroke-opacity:0.3;" x="351.928322" xlink:href="#m8a75f9087c" y="133.331342"/>
     <use style="fill:#348abd;fill-opacity:0.3;stroke:#348abd;stroke-opacity:0.3;" x="354.367133" xlink:href="#m8a75f9087c" y="132.944065"/>
     <use style="fill:#348abd;fill-opacity:0.3;stroke:#348abd;stroke-opacity:0.3;" x="356.805944" xlink:href="#m8a75f9087c" y="134.560592"/>
     <use style="fill:#348abd;fill-opacity:0.3;stroke:#348abd;stroke-opacity:0.3;" x="359.244755" xlink:href="#m8a75f9087c" y="135.669785"/>
     <use style="fill:#348abd;fill-opacity:0.3;stroke:#348abd;stroke-opacity:0.3;" x="361.683566" xlink:href="#m8a75f9087c" y="137.139845"/>
     <use style="fill:#348abd;fill-opacity:0.3;stroke:#348abd;stroke-opacity:0.3;" x="364.122378" xlink:href="#m8a75f9087c" y="132.120707"/>
     <use style="fill:#348abd;fill-opacity:0.3;stroke:#348abd;stroke-opacity:0.3;" x="366.561189" xlink:href="#m8a75f9087c" y="125.883551"/>
     <use style="fill:#348abd;fill-opacity:0.3;stroke:#348abd;stroke-opacity:0.3;" x="369" xlink:href="#m8a75f9087c" y="117.351686"/>
     <use style="fill:#348abd;fill-opacity:0.3;stroke:#348abd;stroke-opacity:0.3;" x="371.438811" xlink:href="#m8a75f9087c" y="112.960242"/>
     <use style="fill:#348abd;fill-opacity:0.3;stroke:#348abd;stroke-opacity:0.3;" x="373.877622" xlink:href="#m8a75f9087c" y="117.091392"/>
     <use style="fill:#348abd;fill-opacity:0.3;stroke:#348abd;stroke-opacity:0.3;" x="376.316434" xlink:href="#m8a75f9087c" y="117.983256"/>
     <use style="fill:#348abd;fill-opacity:0.3;stroke:#348abd;stroke-opacity:0.3;" x="378.755245" xlink:href="#m8a75f9087c" y="120.068057"/>
     <use style="fill:#348abd;fill-opacity:0.3;stroke:#348abd;stroke-opacity:0.3;" x="381.194056" xlink:href="#m8a75f9087c" y="123.718138"/>
     <use style="fill:#348abd;fill-opacity:0.3;stroke:#348abd;stroke-opacity:0.3;" x="383.632867" xlink:href="#m8a75f9087c" y="127.821692"/>
     <use style="fill:#348abd;fill-opacity:0.3;stroke:#348abd;stroke-opacity:0.3;" x="386.071678" xlink:href="#m8a75f9087c" y="131.618169"/>
     <use style="fill:#348abd;fill-opacity:0.3;stroke:#348abd;stroke-opacity:0.3;" x="388.51049" xlink:href="#m8a75f9087c" y="133.754248"/>
     <use style="fill:#348abd;fill-opacity:0.3;stroke:#348abd;stroke-opacity:0.3;" x="390.949301" xlink:href="#m8a75f9087c" y="136.633808"/>
     <use style="fill:#348abd;fill-opacity:0.3;stroke:#348abd;stroke-opacity:0.3;" x="393.388112" xlink:href="#m8a75f9087c" y="134.414945"/>
     <use style="fill:#348abd;fill-opacity:0.3;stroke:#348abd;stroke-opacity:0.3;" x="395.826923" xlink:href="#m8a75f9087c" y="135.148699"/>
     <use style="fill:#348abd;fill-opacity:0.3;stroke:#348abd;stroke-opacity:0.3;" x="398.265734" xlink:href="#m8a75f9087c" y="133.48881"/>
     <use style="fill:#348abd;fill-opacity:0.3;stroke:#348abd;stroke-opacity:0.3;" x="400.704545" xlink:href="#m8a75f9087c" y="132.227808"/>
     <use style="fill:#348abd;fill-opacity:0.3;stroke:#348abd;stroke-opacity:0.3;" x="403.143357" xlink:href="#m8a75f9087c" y="130.203091"/>
     <use style="fill:#348abd;fill-opacity:0.3;stroke:#348abd;stroke-opacity:0.3;" x="405.582168" xlink:href="#m8a75f9087c" y="129.903636"/>
     <use style="fill:#348abd;fill-opacity:0.3;stroke:#348abd;stroke-opacity:0.3;" x="408.020979" xlink:href="#m8a75f9087c" y="129.255017"/>
     <use style="fill:#348abd;fill-opacity:0.3;stroke:#348abd;stroke-opacity:0.3;" x="410.45979" xlink:href="#m8a75f9087c" y="126.616893"/>
     <use style="fill:#348abd;fill-opacity:0.3;stroke:#348abd;stroke-opacity:0.3;" x="412.898601" xlink:href="#m8a75f9087c" y="119.311246"/>
     <use style="fill:#348abd;fill-opacity:0.3;stroke:#348abd;stroke-opacity:0.3;" x="415.337413" xlink:href="#m8a75f9087c" y="122.337226"/>
     <use style="fill:#348abd;fill-opacity:0.3;stroke:#348abd;stroke-opacity:0.3;" x="417.776224" xlink:href="#m8a75f9087c" y="122.056132"/>
     <use style="fill:#348abd;fill-opacity:0.3;stroke:#348abd;stroke-opacity:0.3;" x="420.215035" xlink:href="#m8a75f9087c" y="125.523991"/>
     <use style="fill:#348abd;fill-opacity:0.3;stroke:#348abd;stroke-opacity:0.3;" x="422.653846" xlink:href="#m8a75f9087c" y="127.169749"/>
     <use style="fill:#348abd;fill-opacity:0.3;stroke:#348abd;stroke-opacity:0.3;" x="425.092657" xlink:href="#m8a75f9087c" y="129.139051"/>
     <use style="fill:#348abd;fill-opacity:0.3;stroke:#348abd;stroke-opacity:0.3;" x="427.531469" xlink:href="#m8a75f9087c" y="129.526304"/>
     <use style="fill:#348abd;fill-opacity:0.3;stroke:#348abd;stroke-opacity:0.3;" x="429.97028" xlink:href="#m8a75f9087c" y="131.467538"/>
     <use style="fill:#348abd;fill-opacity:0.3;stroke:#348abd;stroke-opacity:0.3;" x="432.409091" xlink:href="#m8a75f9087c" y="132.99187"/>
     <use style="fill:#348abd;fill-opacity:0.3;stroke:#348abd;stroke-opacity:0.3;" x="434.847902" xlink:href="#m8a75f9087c" y="133.503978"/>
     <use style="fill:#348abd;fill-opacity:0.3;stroke:#348abd;stroke-opacity:0.3;" x="437.286713" xlink:href="#m8a75f9087c" y="129.921341"/>
     <use style="fill:#348abd;fill-opacity:0.3;stroke:#348abd;stroke-opacity:0.3;" x="439.725524" xlink:href="#m8a75f9087c" y="129.375615"/>
     <use style="fill:#348abd;fill-opacity:0.3;stroke:#348abd;stroke-opacity:0.3;" x="442.164336" xlink:href="#m8a75f9087c" y="129.238404"/>
     <use style="fill:#348abd;fill-opacity:0.3;stroke:#348abd;stroke-opacity:0.3;" x="444.603147" xlink:href="#m8a75f9087c" y="129.649818"/>
     <use style="fill:#348abd;fill-opacity:0.3;stroke:#348abd;stroke-opacity:0.3;" x="447.041958" xlink:href="#m8a75f9087c" y="130.496342"/>
     <use style="fill:#348abd;fill-opacity:0.3;stroke:#348abd;stroke-opacity:0.3;" x="449.480769" xlink:href="#m8a75f9087c" y="130.461873"/>
     <use style="fill:#348abd;fill-opacity:0.3;stroke:#348abd;stroke-opacity:0.3;" x="451.91958" xlink:href="#m8a75f9087c" y="130.174737"/>
     <use style="fill:#348abd;fill-opacity:0.3;stroke:#348abd;stroke-opacity:0.3;" x="454.358392" xlink:href="#m8a75f9087c" y="131.297777"/>
     <use style="fill:#348abd;fill-opacity:0.3;stroke:#348abd;stroke-opacity:0.3;" x="456.797203" xlink:href="#m8a75f9087c" y="132.262112"/>
     <use style="fill:#348abd;fill-opacity:0.3;stroke:#348abd;stroke-opacity:0.3;" x="459.236014" xlink:href="#m8a75f9087c" y="133.033367"/>
     <use style="fill:#348abd;fill-opacity:0.3;stroke:#348abd;stroke-opacity:0.3;" x="461.674825" xlink:href="#m8a75f9087c" y="131.7627"/>
     <use style="fill:#348abd;fill-opacity:0.3;stroke:#348abd;stroke-opacity:0.3;" x="464.113636" xlink:href="#m8a75f9087c" y="130.79061"/>
     <use style="fill:#348abd;fill-opacity:0.3;stroke:#348abd;stroke-opacity:0.3;" x="466.552448" xlink:href="#m8a75f9087c" y="131.501156"/>
     <use style="fill:#348abd;fill-opacity:0.3;stroke:#348abd;stroke-opacity:0.3;" x="468.991259" xlink:href="#m8a75f9087c" y="128.89246"/>
     <use style="fill:#348abd;fill-opacity:0.3;stroke:#348abd;stroke-opacity:0.3;" x="471.43007" xlink:href="#m8a75f9087c" y="129.711149"/>
     <use style="fill:#348abd;fill-opacity:0.3;stroke:#348abd;stroke-opacity:0.3;" x="473.868881" xlink:href="#m8a75f9087c" y="131.258369"/>
     <use style="fill:#348abd;fill-opacity:0.3;stroke:#348abd;stroke-opacity:0.3;" x="476.307692" xlink:href="#m8a75f9087c" y="129.792022"/>
     <use style="fill:#348abd;fill-opacity:0.3;stroke:#348abd;stroke-opacity:0.3;" x="478.746503" xlink:href="#m8a75f9087c" y="130.562154"/>
     <use style="fill:#348abd;fill-opacity:0.3;stroke:#348abd;stroke-opacity:0.3;" x="481.185315" xlink:href="#m8a75f9087c" y="132.733403"/>
     <use style="fill:#348abd;fill-opacity:0.3;stroke:#348abd;stroke-opacity:0.3;" x="483.624126" xlink:href="#m8a75f9087c" y="133.332741"/>
     <use style="fill:#348abd;fill-opacity:0.3;stroke:#348abd;stroke-opacity:0.3;" x="486.062937" xlink:href="#m8a75f9087c" y="133.188472"/>
     <use style="fill:#348abd;fill-opacity:0.3;stroke:#348abd;stroke-opacity:0.3;" x="488.501748" xlink:href="#m8a75f9087c" y="130.608668"/>
     <use style="fill:#348abd;fill-opacity:0.3;stroke:#348abd;stroke-opacity:0.3;" x="490.940559" xlink:href="#m8a75f9087c" y="131.72382"/>
     <use style="fill:#348abd;fill-opacity:0.3;stroke:#348abd;stroke-opacity:0.3;" x="493.379371" xlink:href="#m8a75f9087c" y="129.755578"/>
     <use style="fill:#348abd;fill-opacity:0.3;stroke:#348abd;stroke-opacity:0.3;" x="495.818182" xlink:href="#m8a75f9087c" y="127.745834"/>
     <use style="fill:#348abd;fill-opacity:0.3;stroke:#348abd;stroke-opacity:0.3;" x="498.256993" xlink:href="#m8a75f9087c" y="129.764583"/>
     <use style="fill:#348abd;fill-opacity:0.3;stroke:#348abd;stroke-opacity:0.3;" x="500.695804" xlink:href="#m8a75f9087c" y="129.269735"/>
     <use style="fill:#348abd;fill-opacity:0.3;stroke:#348abd;stroke-opacity:0.3;" x="503.134615" xlink:href="#m8a75f9087c" y="127.897747"/>
     <use style="fill:#348abd;fill-opacity:0.3;stroke:#348abd;stroke-opacity:0.3;" x="505.573427" xlink:href="#m8a75f9087c" y="128.784573"/>
     <use style="fill:#348abd;fill-opacity:0.3;stroke:#348abd;stroke-opacity:0.3;" x="508.012238" xlink:href="#m8a75f9087c" y="130.285113"/>
     <use style="fill:#348abd;fill-opacity:0.3;stroke:#348abd;stroke-opacity:0.3;" x="510.451049" xlink:href="#m8a75f9087c" y="131.200642"/>
     <use style="fill:#348abd;fill-opacity:0.3;stroke:#348abd;stroke-opacity:0.3;" x="512.88986" xlink:href="#m8a75f9087c" y="129.639054"/>
     <use style="fill:#348abd;fill-opacity:0.3;stroke:#348abd;stroke-opacity:0.3;" x="515.328671" xlink:href="#m8a75f9087c" y="131.006112"/>
     <use style="fill:#348abd;fill-opacity:0.3;stroke:#348abd;stroke-opacity:0.3;" x="517.767483" xlink:href="#m8a75f9087c" y="132.104495"/>
     <use style="fill:#348abd;fill-opacity:0.3;stroke:#348abd;stroke-opacity:0.3;" x="520.206294" xlink:href="#m8a75f9087c" y="133.269383"/>
     <use style="fill:#348abd;fill-opacity:0.3;stroke:#348abd;stroke-opacity:0.3;" x="522.645105" xlink:href="#m8a75f9087c" y="133.532787"/>
     <use style="fill:#348abd;fill-opacity:0.3;stroke:#348abd;stroke-opacity:0.3;" x="525.083916" xlink:href="#m8a75f9087c" y="132.194625"/>
     <use style="fill:#348abd;fill-opacity:0.3;stroke:#348abd;stroke-opacity:0.3;" x="527.522727" xlink:href="#m8a75f9087c" y="133.300899"/>
     <use style="fill:#348abd;fill-opacity:0.3;stroke:#348abd;stroke-opacity:0.3;" x="529.961538" xlink:href="#m8a75f9087c" y="132.265377"/>
     <use style="fill:#348abd;fill-opacity:0.3;stroke:#348abd;stroke-opacity:0.3;" x="532.40035" xlink:href="#m8a75f9087c" y="130.681777"/>
     <use style="fill:#348abd;fill-opacity:0.3;stroke:#348abd;stroke-opacity:0.3;" x="534.839161" xlink:href="#m8a75f9087c" y="130.965493"/>
     <use style="fill:#348abd;fill-opacity:0.3;stroke:#348abd;stroke-opacity:0.3;" x="537.277972" xlink:href="#m8a75f9087c" y="130.790775"/>
     <use style="fill:#348abd;fill-opacity:0.3;stroke:#348abd;stroke-opacity:0.3;" x="539.716783" xlink:href="#m8a75f9087c" y="131.165271"/>
     <use style="fill:#348abd;fill-opacity:0.3;stroke:#348abd;stroke-opacity:0.3;" x="542.155594" xlink:href="#m8a75f9087c" y="132.003719"/>
     <use style="fill:#348abd;fill-opacity:0.3;stroke:#348abd;stroke-opacity:0.3;" x="544.594406" xlink:href="#m8a75f9087c" y="132.294626"/>
     <use style="fill:#348abd;fill-opacity:0.3;stroke:#348abd;stroke-opacity:0.3;" x="547.033217" xlink:href="#m8a75f9087c" y="132.004219"/>
     <use style="fill:#348abd;fill-opacity:0.3;stroke:#348abd;stroke-opacity:0.3;" x="549.472028" xlink:href="#m8a75f9087c" y="129.708642"/>
     <use style="fill:#348abd;fill-opacity:0.3;stroke:#348abd;stroke-opacity:0.3;" x="551.910839" xlink:href="#m8a75f9087c" y="130.806133"/>
     <use style="fill:#348abd;fill-opacity:0.3;stroke:#348abd;stroke-opacity:0.3;" x="554.34965" xlink:href="#m8a75f9087c" y="126.024092"/>
     <use style="fill:#348abd;fill-opacity:0.3;stroke:#348abd;stroke-opacity:0.3;" x="556.788462" xlink:href="#m8a75f9087c" y="127.48631"/>
     <use style="fill:#348abd;fill-opacity:0.3;stroke:#348abd;stroke-opacity:0.3;" x="559.227273" xlink:href="#m8a75f9087c" y="128.635631"/>
     <use style="fill:#348abd;fill-opacity:0.3;stroke:#348abd;stroke-opacity:0.3;" x="561.666084" xlink:href="#m8a75f9087c" y="130.12286"/>
     <use style="fill:#348abd;fill-opacity:0.3;stroke:#348abd;stroke-opacity:0.3;" x="564.104895" xlink:href="#m8a75f9087c" y="130.761751"/>
     <use style="fill:#348abd;fill-opacity:0.3;stroke:#348abd;stroke-opacity:0.3;" x="566.543706" xlink:href="#m8a75f9087c" y="134.945009"/>
     <use style="fill:#348abd;fill-opacity:0.3;stroke:#348abd;stroke-opacity:0.3;" x="568.982517" xlink:href="#m8a75f9087c" y="136.300731"/>
     <use style="fill:#348abd;fill-opacity:0.3;stroke:#348abd;stroke-opacity:0.3;" x="571.421329" xlink:href="#m8a75f9087c" y="136.900071"/>
     <use style="fill:#348abd;fill-opacity:0.3;stroke:#348abd;stroke-opacity:0.3;" x="573.86014" xlink:href="#m8a75f9087c" y="136.069224"/>
     <use style="fill:#348abd;fill-opacity:0.3;stroke:#348abd;stroke-opacity:0.3;" x="576.298951" xlink:href="#m8a75f9087c" y="140.319406"/>
     <use style="fill:#348abd;fill-opacity:0.3;stroke:#348abd;stroke-opacity:0.3;" x="578.737762" xlink:href="#m8a75f9087c" y="134.092225"/>
     <use style="fill:#348abd;fill-opacity:0.3;stroke:#348abd;stroke-opacity:0.3;" x="581.176573" xlink:href="#m8a75f9087c" y="130.779868"/>
     <use style="fill:#348abd;fill-opacity:0.3;stroke:#348abd;stroke-opacity:0.3;" x="583.615385" xlink:href="#m8a75f9087c" y="129.856521"/>
     <use style="fill:#348abd;fill-opacity:0.3;stroke:#348abd;stroke-opacity:0.3;" x="586.054196" xlink:href="#m8a75f9087c" y="133.030216"/>
     <use style="fill:#348abd;fill-opacity:0.3;stroke:#348abd;stroke-opacity:0.3;" x="588.493007" xlink:href="#m8a75f9087c" y="128.114476"/>
     <use style="fill:#348abd;fill-opacity:0.3;stroke:#348abd;stroke-opacity:0.3;" x="590.931818" xlink:href="#m8a75f9087c" y="130.209666"/>
     <use style="fill:#348abd;fill-opacity:0.3;stroke:#348abd;stroke-opacity:0.3;" x="593.370629" xlink:href="#m8a75f9087c" y="130.466622"/>
     <use style="fill:#348abd;fill-opacity:0.3;stroke:#348abd;stroke-opacity:0.3;" x="595.809441" xlink:href="#m8a75f9087c" y="130.241285"/>
     <use style="fill:#348abd;fill-opacity:0.3;stroke:#348abd;stroke-opacity:0.3;" x="598.248252" xlink:href="#m8a75f9087c" y="127.995017"/>
     <use style="fill:#348abd;fill-opacity:0.3;stroke:#348abd;stroke-opacity:0.3;" x="600.687063" xlink:href="#m8a75f9087c" y="128.111443"/>
     <use style="fill:#348abd;fill-opacity:0.3;stroke:#348abd;stroke-opacity:0.3;" x="603.125874" xlink:href="#m8a75f9087c" y="122.705222"/>
     <use style="fill:#348abd;fill-opacity:0.3;stroke:#348abd;stroke-opacity:0.3;" x="605.564685" xlink:href="#m8a75f9087c" y="116.532072"/>
     <use style="fill:#348abd;fill-opacity:0.3;stroke:#348abd;stroke-opacity:0.3;" x="608.003497" xlink:href="#m8a75f9087c" y="107.317576"/>
     <use style="fill:#348abd;fill-opacity:0.3;stroke:#348abd;stroke-opacity:0.3;" x="610.442308" xlink:href="#m8a75f9087c" y="114.505164"/>
     <use style="fill:#348abd;fill-opacity:0.3;stroke:#348abd;stroke-opacity:0.3;" x="612.881119" xlink:href="#m8a75f9087c" y="115.000578"/>
     <use style="fill:#348abd;fill-opacity:0.3;stroke:#348abd;stroke-opacity:0.3;" x="615.31993" xlink:href="#m8a75f9087c" y="120.609807"/>
     <use style="fill:#348abd;fill-opacity:0.3;stroke:#348abd;stroke-opacity:0.3;" x="617.758741" xlink:href="#m8a75f9087c" y="122.763781"/>
     <use style="fill:#348abd;fill-opacity:0.3;stroke:#348abd;stroke-opacity:0.3;" x="620.197552" xlink:href="#m8a75f9087c" y="124.706926"/>
     <use style="fill:#348abd;fill-opacity:0.3;stroke:#348abd;stroke-opacity:0.3;" x="622.636364" xlink:href="#m8a75f9087c" y="125.71227"/>
    </g>
   </g>
   <g id="line2d_28">
    <path clip-path="url(#pdb075edcda)" d="M 117.802448 133.269359 
L 120.241259 127.728196 
L 122.68007 124.016392 
L 125.118881 119.736939 
L 127.557692 116.494313 
L 129.996503 114.954448 
L 132.435315 116.058506 
L 134.874126 118.572432 
L 137.312937 123.058585 
L 139.751748 125.268308 
L 142.190559 128.003732 
L 147.068182 132.218362 
L 149.506993 133.84392 
L 154.384615 136.293874 
L 156.823427 138.16468 
L 159.262238 139.778012 
L 161.701049 141.104162 
L 164.13986 140.932777 
L 166.578671 139.959853 
L 171.456294 49.71067 
L 174.000706 -1 
M 180.794894 -1 
L 181.211538 4.227804 
L 183.65035 43.445513 
L 186.089161 93.605823 
L 188.527972 104.578371 
L 190.966783 111.159387 
L 193.405594 113.788924 
L 195.844406 115.555349 
L 198.283217 116.793942 
L 200.722028 118.52791 
L 203.160839 120.631864 
L 205.59965 122.887259 
L 212.916084 130.094924 
L 215.354895 132.474569 
L 220.232517 136.449808 
L 222.671329 138.018372 
L 225.11014 139.287392 
L 227.548951 140.297268 
L 229.987762 140.972319 
L 232.426573 141.183341 
L 234.865385 140.807766 
L 237.304196 139.471425 
L 239.743007 138.00203 
L 244.620629 133.948351 
L 247.059441 132.36843 
L 249.498252 131.254845 
L 251.937063 130.671304 
L 254.375874 130.714797 
L 256.814685 130.925184 
L 259.253497 131.568681 
L 261.692308 131.987264 
L 264.131119 132.038832 
L 266.56993 131.861042 
L 271.447552 130.604115 
L 273.886364 130.147396 
L 276.325175 130.088592 
L 278.763986 130.495169 
L 281.202797 131.255223 
L 288.519231 134.118242 
L 295.835664 136.609169 
L 298.274476 137.293073 
L 300.713287 137.846858 
L 303.152098 138.026733 
L 305.590909 137.795562 
L 308.02972 137.331209 
L 312.907343 136.078328 
L 315.346154 135.650663 
L 317.784965 135.601486 
L 320.223776 135.881971 
L 327.54021 137.097474 
L 329.979021 137.10311 
L 332.417832 136.611604 
L 339.734266 133.65328 
L 342.173077 133.096956 
L 344.611888 132.957906 
L 347.050699 133.054967 
L 351.928322 133.745909 
L 356.805944 134.467281 
L 359.244755 134.065479 
L 361.683566 132.406082 
L 364.122378 129.244658 
L 369 121.475681 
L 371.438811 118.780887 
L 373.877622 117.979683 
L 376.316434 118.95002 
L 378.755245 121.304385 
L 386.071678 130.30931 
L 388.51049 132.598738 
L 390.949301 133.970486 
L 393.388112 134.420385 
L 395.826923 134.059191 
L 398.265734 133.224718 
L 403.143357 130.933902 
L 408.020979 127.419704 
L 410.45979 125.528214 
L 412.898601 124.123821 
L 415.337413 123.50958 
L 417.776224 123.898499 
L 420.215035 125.077549 
L 422.653846 126.832555 
L 427.531469 129.966303 
L 429.97028 130.939739 
L 432.409091 131.418083 
L 434.847902 131.336666 
L 442.164336 129.982541 
L 444.603147 129.859176 
L 447.041958 130.098886 
L 451.91958 130.923164 
L 454.358392 131.361827 
L 456.797203 131.656683 
L 459.236014 131.814427 
L 461.674825 131.616828 
L 468.991259 130.369504 
L 471.43007 130.230755 
L 473.868881 130.402797 
L 476.307692 130.77879 
L 478.746503 131.40833 
L 481.185315 131.855169 
L 483.624126 132.109419 
L 486.062937 132.047247 
L 488.501748 131.506798 
L 495.818182 129.446791 
L 498.256993 129.108034 
L 500.695804 128.94444 
L 503.134615 129.107222 
L 508.012238 129.755285 
L 510.451049 130.217725 
L 517.767483 131.924144 
L 520.206294 132.407436 
L 522.645105 132.743549 
L 525.083916 132.698494 
L 527.522727 132.413463 
L 532.40035 131.535548 
L 534.839161 131.311323 
L 537.277972 131.249183 
L 542.155594 131.506513 
L 544.594406 131.486834 
L 547.033217 130.986281 
L 554.34965 128.74734 
L 556.788462 128.593087 
L 559.227273 129.231391 
L 561.666084 130.393417 
L 566.543706 133.666171 
L 568.982517 135.248625 
L 571.421329 136.191588 
L 573.86014 136.359479 
L 576.298951 135.606639 
L 578.737762 134.474546 
L 581.176573 132.964936 
L 583.615385 131.723581 
L 586.054196 130.717439 
L 588.493007 130.324413 
L 593.370629 129.756992 
L 595.809441 128.894614 
L 598.248252 127.427365 
L 600.687063 124.525962 
L 605.564685 117.90092 
L 608.003497 115.861104 
L 610.442308 115.449452 
L 612.881119 116.7748 
L 617.758741 121.418696 
L 620.197552 122.95814 
L 622.636364 124.172618 
L 622.636364 124.172618 
" style="fill:none;stroke:#348abd;stroke-linecap:square;stroke-opacity:0.7;stroke-width:3;"/>
   </g>
   <g id="line2d_29">
    <path clip-path="url(#pdb075edcda)" d="M 132.435315 65.935758 
L 134.874126 88.871214 
L 137.312937 108.333464 
L 139.751748 117.164148 
L 144.629371 140.174601 
L 147.068182 142.499535 
L 149.506993 145.656236 
L 151.945804 148.027852 
L 154.384615 152.395459 
L 156.823427 160.412058 
L 159.262238 164.840795 
L 161.701049 165.490937 
L 164.13986 162.477654 
L 166.578671 155.85507 
L 168.380708 -1 
M 187.806667 -1 
L 188.527972 13.638873 
L 190.966783 30.930258 
L 193.405594 38.643053 
L 195.844406 49.027423 
L 198.283217 58.087213 
L 203.160839 89.333661 
L 205.59965 102.6785 
L 208.038462 117.474563 
L 210.477273 128.427594 
L 212.916084 136.886716 
L 215.354895 144.922875 
L 217.793706 150.003415 
L 220.232517 154.529914 
L 222.671329 158.580971 
L 225.11014 160.288425 
L 227.548951 162.29036 
L 229.987762 163.125589 
L 232.426573 161.554174 
L 234.865385 159.424773 
L 237.304196 154.433713 
L 239.743007 148.090632 
L 242.181818 143.05711 
L 244.620629 134.971278 
L 247.059441 130.411455 
L 249.498252 126.989906 
L 251.937063 125.166728 
L 254.375874 130.878912 
L 256.814685 133.895306 
L 259.253497 136.350716 
L 261.692308 138.033882 
L 264.131119 134.980078 
L 269.008741 128.226577 
L 271.447552 124.180542 
L 273.886364 124.840314 
L 276.325175 128.292762 
L 278.763986 132.015527 
L 281.202797 136.075235 
L 283.641608 139.695598 
L 286.08042 142.043035 
L 288.519231 144.764908 
L 290.958042 147.965521 
L 293.396853 150.285628 
L 295.835664 152.783595 
L 298.274476 154.468498 
L 300.713287 154.914788 
L 303.152098 154.401098 
L 305.590909 152.590581 
L 310.468531 147.84985 
L 312.907343 146.326126 
L 315.346154 145.845014 
L 317.784965 147.070734 
L 320.223776 149.362284 
L 325.101399 152.879418 
L 327.54021 153.078459 
L 329.979021 151.01241 
L 332.417832 148.165533 
L 337.295455 138.62319 
L 339.734266 136.789881 
L 342.173077 137.215467 
L 344.611888 139.158562 
L 347.050699 140.370696 
L 349.48951 141.298277 
L 351.928322 141.81203 
L 354.367133 143.192943 
L 356.805944 144.795081 
L 359.244755 141.639301 
L 361.683566 131.22991 
L 364.122378 110.075926 
L 366.561189 78.493234 
L 369 50.354391 
L 371.438811 41.275004 
L 373.877622 53.934025 
L 378.755245 98.134466 
L 381.194056 117.217696 
L 383.632867 131.364832 
L 386.071678 140.186079 
L 388.51049 144.762547 
L 390.949301 145.73598 
L 393.388112 143.403476 
L 395.826923 139.916586 
L 398.265734 134.699308 
L 400.704545 129.142879 
L 403.143357 125.021149 
L 405.582168 116.821601 
L 410.45979 96.484146 
L 412.898601 87.245393 
L 415.337413 90.318463 
L 417.776224 100.036224 
L 422.653846 121.31935 
L 425.092657 128.760195 
L 427.531469 133.516025 
L 429.97028 135.460078 
L 432.409091 133.580457 
L 434.847902 129.553712 
L 437.286713 125.987933 
L 439.725524 124.939699 
L 442.164336 125.721363 
L 447.041958 128.962697 
L 449.480769 129.82652 
L 451.91958 131.866091 
L 454.358392 134.11834 
L 456.797203 134.536517 
L 459.236014 134.74148 
L 461.674825 132.903873 
L 464.113636 129.303162 
L 466.552448 127.735156 
L 468.991259 125.619987 
L 471.43007 125.815149 
L 473.868881 129.489043 
L 476.307692 132.062258 
L 478.746503 135.759459 
L 481.185315 137.972071 
L 483.624126 136.126971 
L 486.062937 133.590642 
L 490.940559 124.972403 
L 493.379371 123.568425 
L 495.818182 122.326974 
L 498.256993 121.860871 
L 500.695804 122.407284 
L 503.134615 123.495152 
L 505.573427 125.202122 
L 508.012238 127.292469 
L 512.88986 132.024484 
L 515.328671 135.138911 
L 517.767483 137.200943 
L 520.206294 138.215886 
L 522.645105 138.249789 
L 525.083916 136.430127 
L 527.522727 134.924284 
L 529.961538 132.910695 
L 532.40035 130.431066 
L 534.839161 130.751892 
L 537.277972 131.7003 
L 539.716783 132.95562 
L 542.155594 134.369947 
L 544.594406 133.256373 
L 547.033217 128.914524 
L 551.910839 119.103916 
L 554.34965 115.646155 
L 556.788462 119.540173 
L 561.666084 134.393701 
L 564.104895 142.762586 
L 566.543706 148.302757 
L 568.982517 150.683167 
L 571.421329 151.901425 
L 573.86014 149.112589 
L 576.298951 143.208291 
L 578.737762 137.968377 
L 581.176573 132.132777 
L 583.615385 128.104004 
L 586.054196 128.007279 
L 588.493007 126.628054 
L 590.931818 125.417725 
L 593.370629 125.049623 
L 595.809441 119.321174 
L 598.248252 107.474485 
L 600.687063 84.193907 
L 603.125874 53.304798 
L 605.564685 27.198575 
L 605.564685 27.198575 
" style="fill:none;stroke:#8eba42;stroke-linecap:square;stroke-width:4.5;"/>
   </g>
   <g id="line2d_30">
    <path clip-path="url(#pdb075edcda)" d="M 115.363636 131.08183 
L 622.636364 131.08183 
" style="fill:none;stroke:#777777;stroke-linecap:square;stroke-width:1.5;"/>
   </g>
   <g id="patch_3">
    <path d="M 90 157.5 
L 90 21.6 
" style="fill:none;stroke:#ffffff;stroke-linecap:square;stroke-linejoin:miter;"/>
   </g>
   <g id="patch_4">
    <path d="M 648 157.5 
L 648 21.6 
" style="fill:none;stroke:#ffffff;stroke-linecap:square;stroke-linejoin:miter;"/>
   </g>
   <g id="patch_5">
    <path d="M 90 157.5 
L 648 157.5 
" style="fill:none;stroke:#ffffff;stroke-linecap:square;stroke-linejoin:miter;"/>
   </g>
   <g id="patch_6">
    <path d="M 90 21.6 
L 648 21.6 
" style="fill:none;stroke:#ffffff;stroke-linecap:square;stroke-linejoin:miter;"/>
   </g>
   <g id="legend_1">
    <g id="patch_7">
     <path d="M 219.872656 73.634375 
L 518.127344 73.634375 
Q 520.127344 73.634375 520.127344 71.634375 
L 520.127344 28.6 
Q 520.127344 26.6 518.127344 26.6 
L 219.872656 26.6 
Q 217.872656 26.6 217.872656 28.6 
L 217.872656 71.634375 
Q 217.872656 73.634375 219.872656 73.634375 
z
" style="fill:#e5e5e5;opacity:0.8;stroke:#cccccc;stroke-linejoin:miter;stroke-width:0.5;"/>
    </g>
    <g id="line2d_31"/>
    <g id="line2d_32">
     <g>
      <use style="fill:#348abd;fill-opacity:0.3;stroke:#348abd;stroke-opacity:0.3;" x="231.872656" xlink:href="#m8a75f9087c" y="34.698438"/>
     </g>
    </g>
    <g id="text_17">
     <!-- Korea, South cases daily growth factor  -->
     <defs>
      <path d="M 9.8125 72.90625 
L 19.671875 72.90625 
L 19.671875 42.09375 
L 52.390625 72.90625 
L 65.09375 72.90625 
L 28.90625 38.921875 
L 67.671875 0 
L 54.6875 0 
L 19.671875 35.109375 
L 19.671875 0 
L 9.8125 0 
z
" id="DejaVuSans-75"/>
      <path d="M 11.71875 12.40625 
L 22.015625 12.40625 
L 22.015625 4 
L 14.015625 -11.625 
L 7.71875 -11.625 
L 11.71875 4 
z
" id="DejaVuSans-44"/>
      <path d="M 53.515625 70.515625 
L 53.515625 60.890625 
Q 47.90625 63.578125 42.921875 64.890625 
Q 37.9375 66.21875 33.296875 66.21875 
Q 25.25 66.21875 20.875 63.09375 
Q 16.5 59.96875 16.5 54.203125 
Q 16.5 49.359375 19.40625 46.890625 
Q 22.3125 44.4375 30.421875 42.921875 
L 36.375 41.703125 
Q 47.40625 39.59375 52.65625 34.296875 
Q 57.90625 29 57.90625 20.125 
Q 57.90625 9.515625 50.796875 4.046875 
Q 43.703125 -1.421875 29.984375 -1.421875 
Q 24.8125 -1.421875 18.96875 -0.25 
Q 13.140625 0.921875 6.890625 3.21875 
L 6.890625 13.375 
Q 12.890625 10.015625 18.65625 8.296875 
Q 24.421875 6.59375 29.984375 6.59375 
Q 38.421875 6.59375 43.015625 9.90625 
Q 47.609375 13.234375 47.609375 19.390625 
Q 47.609375 24.75 44.3125 27.78125 
Q 41.015625 30.8125 33.5 32.328125 
L 27.484375 33.5 
Q 16.453125 35.6875 11.515625 40.375 
Q 6.59375 45.0625 6.59375 53.421875 
Q 6.59375 63.09375 13.40625 68.65625 
Q 20.21875 74.21875 32.171875 74.21875 
Q 37.3125 74.21875 42.625 73.28125 
Q 47.953125 72.359375 53.515625 70.515625 
z
" id="DejaVuSans-83"/>
      <path d="M 8.5 21.578125 
L 8.5 54.6875 
L 17.484375 54.6875 
L 17.484375 21.921875 
Q 17.484375 14.15625 20.5 10.265625 
Q 23.53125 6.390625 29.59375 6.390625 
Q 36.859375 6.390625 41.078125 11.03125 
Q 45.3125 15.671875 45.3125 23.6875 
L 45.3125 54.6875 
L 54.296875 54.6875 
L 54.296875 0 
L 45.3125 0 
L 45.3125 8.40625 
Q 42.046875 3.421875 37.71875 1 
Q 33.40625 -1.421875 27.6875 -1.421875 
Q 18.265625 -1.421875 13.375 4.4375 
Q 8.5 10.296875 8.5 21.578125 
z
M 31.109375 56 
z
" id="DejaVuSans-117"/>
      <path d="M 9.421875 54.6875 
L 18.40625 54.6875 
L 18.40625 0 
L 9.421875 0 
z
M 9.421875 75.984375 
L 18.40625 75.984375 
L 18.40625 64.59375 
L 9.421875 64.59375 
z
" id="DejaVuSans-105"/>
      <path d="M 9.421875 75.984375 
L 18.40625 75.984375 
L 18.40625 0 
L 9.421875 0 
z
" id="DejaVuSans-108"/>
      <path d="M 32.171875 -5.078125 
Q 28.375 -14.84375 24.75 -17.8125 
Q 21.140625 -20.796875 15.09375 -20.796875 
L 7.90625 -20.796875 
L 7.90625 -13.28125 
L 13.1875 -13.28125 
Q 16.890625 -13.28125 18.9375 -11.515625 
Q 21 -9.765625 23.484375 -3.21875 
L 25.09375 0.875 
L 2.984375 54.6875 
L 12.5 54.6875 
L 29.59375 11.921875 
L 46.6875 54.6875 
L 56.203125 54.6875 
z
" id="DejaVuSans-121"/>
     </defs>
     <g transform="translate(249.872656 38.198438)scale(0.1 -0.1)">
      <use xlink:href="#DejaVuSans-75"/>
      <use x="60.576172" xlink:href="#DejaVuSans-111"/>
      <use x="121.757812" xlink:href="#DejaVuSans-114"/>
      <use x="160.621094" xlink:href="#DejaVuSans-101"/>
      <use x="222.144531" xlink:href="#DejaVuSans-97"/>
      <use x="283.423828" xlink:href="#DejaVuSans-44"/>
      <use x="315.210938" xlink:href="#DejaVuSans-32"/>
      <use x="346.998047" xlink:href="#DejaVuSans-83"/>
      <use x="410.474609" xlink:href="#DejaVuSans-111"/>
      <use x="471.65625" xlink:href="#DejaVuSans-117"/>
      <use x="535.035156" xlink:href="#DejaVuSans-116"/>
      <use x="574.244141" xlink:href="#DejaVuSans-104"/>
      <use x="637.623047" xlink:href="#DejaVuSans-32"/>
      <use x="669.410156" xlink:href="#DejaVuSans-99"/>
      <use x="724.390625" xlink:href="#DejaVuSans-97"/>
      <use x="785.669922" xlink:href="#DejaVuSans-115"/>
      <use x="837.769531" xlink:href="#DejaVuSans-101"/>
      <use x="899.292969" xlink:href="#DejaVuSans-115"/>
      <use x="951.392578" xlink:href="#DejaVuSans-32"/>
      <use x="983.179688" xlink:href="#DejaVuSans-100"/>
      <use x="1046.65625" xlink:href="#DejaVuSans-97"/>
      <use x="1107.935547" xlink:href="#DejaVuSans-105"/>
      <use x="1135.71875" xlink:href="#DejaVuSans-108"/>
      <use x="1163.501953" xlink:href="#DejaVuSans-121"/>
      <use x="1222.681641" xlink:href="#DejaVuSans-32"/>
      <use x="1254.46875" xlink:href="#DejaVuSans-103"/>
      <use x="1317.945312" xlink:href="#DejaVuSans-114"/>
      <use x="1356.808594" xlink:href="#DejaVuSans-111"/>
      <use x="1417.990234" xlink:href="#DejaVuSans-119"/>
      <use x="1499.777344" xlink:href="#DejaVuSans-116"/>
      <use x="1538.986328" xlink:href="#DejaVuSans-104"/>
      <use x="1602.365234" xlink:href="#DejaVuSans-32"/>
      <use x="1634.152344" xlink:href="#DejaVuSans-102"/>
      <use x="1669.357422" xlink:href="#DejaVuSans-97"/>
      <use x="1730.636719" xlink:href="#DejaVuSans-99"/>
      <use x="1785.617188" xlink:href="#DejaVuSans-116"/>
      <use x="1824.826172" xlink:href="#DejaVuSans-111"/>
      <use x="1886.007812" xlink:href="#DejaVuSans-114"/>
      <use x="1927.121094" xlink:href="#DejaVuSans-32"/>
     </g>
    </g>
    <g id="line2d_33">
     <path d="M 221.872656 49.376563 
L 241.872656 49.376563 
" style="fill:none;stroke:#348abd;stroke-linecap:square;stroke-opacity:0.7;stroke-width:3;"/>
    </g>
    <g id="line2d_34"/>
    <g id="text_18">
     <!-- Korea, South cases daily growth factor (rolling mean) -->
     <defs>
      <path d="M 52 44.1875 
Q 55.375 50.25 60.0625 53.125 
Q 64.75 56 71.09375 56 
Q 79.640625 56 84.28125 50.015625 
Q 88.921875 44.046875 88.921875 33.015625 
L 88.921875 0 
L 79.890625 0 
L 79.890625 32.71875 
Q 79.890625 40.578125 77.09375 44.375 
Q 74.3125 48.1875 68.609375 48.1875 
Q 61.625 48.1875 57.5625 43.546875 
Q 53.515625 38.921875 53.515625 30.90625 
L 53.515625 0 
L 44.484375 0 
L 44.484375 32.71875 
Q 44.484375 40.625 41.703125 44.40625 
Q 38.921875 48.1875 33.109375 48.1875 
Q 26.21875 48.1875 22.15625 43.53125 
Q 18.109375 38.875 18.109375 30.90625 
L 18.109375 0 
L 9.078125 0 
L 9.078125 54.6875 
L 18.109375 54.6875 
L 18.109375 46.1875 
Q 21.1875 51.21875 25.484375 53.609375 
Q 29.78125 56 35.6875 56 
Q 41.65625 56 45.828125 52.96875 
Q 50 49.953125 52 44.1875 
z
" id="DejaVuSans-109"/>
     </defs>
     <g transform="translate(249.872656 52.876563)scale(0.1 -0.1)">
      <use xlink:href="#DejaVuSans-75"/>
      <use x="60.576172" xlink:href="#DejaVuSans-111"/>
      <use x="121.757812" xlink:href="#DejaVuSans-114"/>
      <use x="160.621094" xlink:href="#DejaVuSans-101"/>
      <use x="222.144531" xlink:href="#DejaVuSans-97"/>
      <use x="283.423828" xlink:href="#DejaVuSans-44"/>
      <use x="315.210938" xlink:href="#DejaVuSans-32"/>
      <use x="346.998047" xlink:href="#DejaVuSans-83"/>
      <use x="410.474609" xlink:href="#DejaVuSans-111"/>
      <use x="471.65625" xlink:href="#DejaVuSans-117"/>
      <use x="535.035156" xlink:href="#DejaVuSans-116"/>
      <use x="574.244141" xlink:href="#DejaVuSans-104"/>
      <use x="637.623047" xlink:href="#DejaVuSans-32"/>
      <use x="669.410156" xlink:href="#DejaVuSans-99"/>
      <use x="724.390625" xlink:href="#DejaVuSans-97"/>
      <use x="785.669922" xlink:href="#DejaVuSans-115"/>
      <use x="837.769531" xlink:href="#DejaVuSans-101"/>
      <use x="899.292969" xlink:href="#DejaVuSans-115"/>
      <use x="951.392578" xlink:href="#DejaVuSans-32"/>
      <use x="983.179688" xlink:href="#DejaVuSans-100"/>
      <use x="1046.65625" xlink:href="#DejaVuSans-97"/>
      <use x="1107.935547" xlink:href="#DejaVuSans-105"/>
      <use x="1135.71875" xlink:href="#DejaVuSans-108"/>
      <use x="1163.501953" xlink:href="#DejaVuSans-121"/>
      <use x="1222.681641" xlink:href="#DejaVuSans-32"/>
      <use x="1254.46875" xlink:href="#DejaVuSans-103"/>
      <use x="1317.945312" xlink:href="#DejaVuSans-114"/>
      <use x="1356.808594" xlink:href="#DejaVuSans-111"/>
      <use x="1417.990234" xlink:href="#DejaVuSans-119"/>
      <use x="1499.777344" xlink:href="#DejaVuSans-116"/>
      <use x="1538.986328" xlink:href="#DejaVuSans-104"/>
      <use x="1602.365234" xlink:href="#DejaVuSans-32"/>
      <use x="1634.152344" xlink:href="#DejaVuSans-102"/>
      <use x="1669.357422" xlink:href="#DejaVuSans-97"/>
      <use x="1730.636719" xlink:href="#DejaVuSans-99"/>
      <use x="1785.617188" xlink:href="#DejaVuSans-116"/>
      <use x="1824.826172" xlink:href="#DejaVuSans-111"/>
      <use x="1886.007812" xlink:href="#DejaVuSans-114"/>
      <use x="1927.121094" xlink:href="#DejaVuSans-32"/>
      <use x="1958.908203" xlink:href="#DejaVuSans-40"/>
      <use x="1997.921875" xlink:href="#DejaVuSans-114"/>
      <use x="2036.785156" xlink:href="#DejaVuSans-111"/>
      <use x="2097.966797" xlink:href="#DejaVuSans-108"/>
      <use x="2125.75" xlink:href="#DejaVuSans-108"/>
      <use x="2153.533203" xlink:href="#DejaVuSans-105"/>
      <use x="2181.316406" xlink:href="#DejaVuSans-110"/>
      <use x="2244.695312" xlink:href="#DejaVuSans-103"/>
      <use x="2308.171875" xlink:href="#DejaVuSans-32"/>
      <use x="2339.958984" xlink:href="#DejaVuSans-109"/>
      <use x="2437.371094" xlink:href="#DejaVuSans-101"/>
      <use x="2498.894531" xlink:href="#DejaVuSans-97"/>
      <use x="2560.173828" xlink:href="#DejaVuSans-110"/>
      <use x="2623.552734" xlink:href="#DejaVuSans-41"/>
     </g>
    </g>
    <g id="line2d_35">
     <path d="M 221.872656 64.054688 
L 241.872656 64.054688 
" style="fill:none;stroke:#8eba42;stroke-linecap:square;stroke-width:4.5;"/>
    </g>
    <g id="line2d_36"/>
    <g id="text_19">
     <!-- Korea, South estimated R (using cases) -->
     <g transform="translate(249.872656 67.554688)scale(0.1 -0.1)">
      <use xlink:href="#DejaVuSans-75"/>
      <use x="60.576172" xlink:href="#DejaVuSans-111"/>
      <use x="121.757812" xlink:href="#DejaVuSans-114"/>
      <use x="160.621094" xlink:href="#DejaVuSans-101"/>
      <use x="222.144531" xlink:href="#DejaVuSans-97"/>
      <use x="283.423828" xlink:href="#DejaVuSans-44"/>
      <use x="315.210938" xlink:href="#DejaVuSans-32"/>
      <use x="346.998047" xlink:href="#DejaVuSans-83"/>
      <use x="410.474609" xlink:href="#DejaVuSans-111"/>
      <use x="471.65625" xlink:href="#DejaVuSans-117"/>
      <use x="535.035156" xlink:href="#DejaVuSans-116"/>
      <use x="574.244141" xlink:href="#DejaVuSans-104"/>
      <use x="637.623047" xlink:href="#DejaVuSans-32"/>
      <use x="669.410156" xlink:href="#DejaVuSans-101"/>
      <use x="730.933594" xlink:href="#DejaVuSans-115"/>
      <use x="783.033203" xlink:href="#DejaVuSans-116"/>
      <use x="822.242188" xlink:href="#DejaVuSans-105"/>
      <use x="850.025391" xlink:href="#DejaVuSans-109"/>
      <use x="947.4375" xlink:href="#DejaVuSans-97"/>
      <use x="1008.716797" xlink:href="#DejaVuSans-116"/>
      <use x="1047.925781" xlink:href="#DejaVuSans-101"/>
      <use x="1109.449219" xlink:href="#DejaVuSans-100"/>
      <use x="1172.925781" xlink:href="#DejaVuSans-32"/>
      <use x="1204.712891" xlink:href="#DejaVuSans-82"/>
      <use x="1274.195312" xlink:href="#DejaVuSans-32"/>
      <use x="1305.982422" xlink:href="#DejaVuSans-40"/>
      <use x="1344.996094" xlink:href="#DejaVuSans-117"/>
      <use x="1408.375" xlink:href="#DejaVuSans-115"/>
      <use x="1460.474609" xlink:href="#DejaVuSans-105"/>
      <use x="1488.257812" xlink:href="#DejaVuSans-110"/>
      <use x="1551.636719" xlink:href="#DejaVuSans-103"/>
      <use x="1615.113281" xlink:href="#DejaVuSans-32"/>
      <use x="1646.900391" xlink:href="#DejaVuSans-99"/>
      <use x="1701.880859" xlink:href="#DejaVuSans-97"/>
      <use x="1763.160156" xlink:href="#DejaVuSans-115"/>
      <use x="1815.259766" xlink:href="#DejaVuSans-101"/>
      <use x="1876.783203" xlink:href="#DejaVuSans-115"/>
      <use x="1928.882812" xlink:href="#DejaVuSans-41"/>
     </g>
    </g>
   </g>
  </g>
 </g>
 <defs>
  <clipPath id="pdb075edcda">
   <rect height="135.9" width="558" x="90" y="21.6"/>
  </clipPath>
 </defs>
</svg>
