<?xml version="1.0" encoding="utf-8" standalone="no"?>
<!DOCTYPE svg PUBLIC "-//W3C//DTD SVG 1.1//EN"
  "http://www.w3.org/Graphics/SVG/1.1/DTD/svg11.dtd">
<!-- Created with matplotlib (https://matplotlib.org/) -->
<svg height="180pt" version="1.1" viewBox="0 0 720 180" width="720pt" xmlns="http://www.w3.org/2000/svg" xmlns:xlink="http://www.w3.org/1999/xlink">
 <metadata>
  <rdf:RDF xmlns:cc="http://creativecommons.org/ns#" xmlns:dc="http://purl.org/dc/elements/1.1/" xmlns:rdf="http://www.w3.org/1999/02/22-rdf-syntax-ns#">
   <cc:Work>
    <dc:type rdf:resource="http://purl.org/dc/dcmitype/StillImage"/>
    <dc:date>2021-02-01T13:49:05.226082</dc:date>
    <dc:format>image/svg+xml</dc:format>
    <dc:creator>
     <cc:Agent>
      <dc:title>Matplotlib v3.3.4, https://matplotlib.org/</dc:title>
     </cc:Agent>
    </dc:creator>
   </cc:Work>
  </rdf:RDF>
 </metadata>
 <defs>
  <style type="text/css">*{stroke-linecap:butt;stroke-linejoin:round;}</style>
 </defs>
 <g id="figure_1">
  <g id="patch_1">
   <path d="M 0 180 
L 720 180 
L 720 0 
L 0 0 
z
" style="fill:#ffffff;"/>
  </g>
  <g id="axes_1">
   <g id="patch_2">
    <path d="M 90 157.5 
L 648 157.5 
L 648 21.6 
L 90 21.6 
z
" style="fill:#e5e5e5;"/>
   </g>
   <g id="matplotlib.axis_1">
    <g id="xtick_1">
     <g id="line2d_1">
      <path clip-path="url(#pd98e3e8bc7)" d="M 168.12 157.5 
L 168.12 21.6 
" style="fill:none;stroke:#ffffff;stroke-linecap:square;stroke-width:0.8;"/>
     </g>
     <g id="line2d_2">
      <defs>
       <path d="M 0 0 
L 0 3.5 
" id="m5562c4a3cc" style="stroke:#555555;stroke-width:0.8;"/>
      </defs>
      <g>
       <use style="fill:#555555;stroke:#555555;stroke-width:0.8;" x="168.12" xlink:href="#m5562c4a3cc" y="157.5"/>
      </g>
     </g>
     <g id="text_1">
      <text style="fill:#555555;font-family:DejaVu Sans;font-size:10px;font-stretch:normal;font-style:normal;font-weight:normal;text-anchor:middle;" transform="rotate(-0, 168.12, 172.098437)" x="168.12" y="172.098437">2020-03</text>
     </g>
    </g>
    <g id="xtick_2">
     <g id="line2d_3">
      <path clip-path="url(#pd98e3e8bc7)" d="M 250.636364 157.5 
L 250.636364 21.6 
" style="fill:none;stroke:#ffffff;stroke-linecap:square;stroke-width:0.8;"/>
     </g>
     <g id="line2d_4">
      <g>
       <use style="fill:#555555;stroke:#555555;stroke-width:0.8;" x="250.636364" xlink:href="#m5562c4a3cc" y="157.5"/>
      </g>
     </g>
     <g id="text_2">
      <text style="fill:#555555;font-family:DejaVu Sans;font-size:10px;font-stretch:normal;font-style:normal;font-weight:normal;text-anchor:middle;" transform="rotate(-0, 250.636364, 172.098437)" x="250.636364" y="172.098437">2020-05</text>
     </g>
    </g>
    <g id="xtick_3">
     <g id="line2d_5">
      <path clip-path="url(#pd98e3e8bc7)" d="M 333.152727 157.5 
L 333.152727 21.6 
" style="fill:none;stroke:#ffffff;stroke-linecap:square;stroke-width:0.8;"/>
     </g>
     <g id="line2d_6">
      <g>
       <use style="fill:#555555;stroke:#555555;stroke-width:0.8;" x="333.152727" xlink:href="#m5562c4a3cc" y="157.5"/>
      </g>
     </g>
     <g id="text_3">
      <text style="fill:#555555;font-family:DejaVu Sans;font-size:10px;font-stretch:normal;font-style:normal;font-weight:normal;text-anchor:middle;" transform="rotate(-0, 333.152727, 172.098437)" x="333.152727" y="172.098437">2020-07</text>
     </g>
    </g>
    <g id="xtick_4">
     <g id="line2d_7">
      <path clip-path="url(#pd98e3e8bc7)" d="M 417.021818 157.5 
L 417.021818 21.6 
" style="fill:none;stroke:#ffffff;stroke-linecap:square;stroke-width:0.8;"/>
     </g>
     <g id="line2d_8">
      <g>
       <use style="fill:#555555;stroke:#555555;stroke-width:0.8;" x="417.021818" xlink:href="#m5562c4a3cc" y="157.5"/>
      </g>
     </g>
     <g id="text_4">
      <text style="fill:#555555;font-family:DejaVu Sans;font-size:10px;font-stretch:normal;font-style:normal;font-weight:normal;text-anchor:middle;" transform="rotate(-0, 417.021818, 172.098437)" x="417.021818" y="172.098437">2020-09</text>
     </g>
    </g>
    <g id="xtick_5">
     <g id="line2d_9">
      <path clip-path="url(#pd98e3e8bc7)" d="M 499.538182 157.5 
L 499.538182 21.6 
" style="fill:none;stroke:#ffffff;stroke-linecap:square;stroke-width:0.8;"/>
     </g>
     <g id="line2d_10">
      <g>
       <use style="fill:#555555;stroke:#555555;stroke-width:0.8;" x="499.538182" xlink:href="#m5562c4a3cc" y="157.5"/>
      </g>
     </g>
     <g id="text_5">
      <text style="fill:#555555;font-family:DejaVu Sans;font-size:10px;font-stretch:normal;font-style:normal;font-weight:normal;text-anchor:middle;" transform="rotate(-0, 499.538182, 172.098437)" x="499.538182" y="172.098437">2020-11</text>
     </g>
    </g>
    <g id="xtick_6">
     <g id="line2d_11">
      <path clip-path="url(#pd98e3e8bc7)" d="M 582.054545 157.5 
L 582.054545 21.6 
" style="fill:none;stroke:#ffffff;stroke-linecap:square;stroke-width:0.8;"/>
     </g>
     <g id="line2d_12">
      <g>
       <use style="fill:#555555;stroke:#555555;stroke-width:0.8;" x="582.054545" xlink:href="#m5562c4a3cc" y="157.5"/>
      </g>
     </g>
     <g id="text_6">
      <text style="fill:#555555;font-family:DejaVu Sans;font-size:10px;font-stretch:normal;font-style:normal;font-weight:normal;text-anchor:middle;" transform="rotate(-0, 582.054545, 172.098437)" x="582.054545" y="172.098437">2021-01</text>
     </g>
    </g>
   </g>
   <g id="matplotlib.axis_2">
    <g id="ytick_1">
     <g id="line2d_13">
      <path clip-path="url(#pd98e3e8bc7)" d="M 90 126.083171 
L 648 126.083171 
" style="fill:none;stroke:#ffffff;stroke-linecap:square;stroke-width:0.8;"/>
     </g>
     <g id="line2d_14">
      <defs>
       <path d="M 0 0 
L -3.5 0 
" id="m1113c6a451" style="stroke:#555555;stroke-width:0.8;"/>
      </defs>
      <g>
       <use style="fill:#555555;stroke:#555555;stroke-width:0.8;" x="90" xlink:href="#m1113c6a451" y="126.083171"/>
      </g>
     </g>
     <g id="line2d_15">
      <defs>
       <path d="M 0 0 
L 3.5 0 
" id="mda45b99a5b" style="stroke:#555555;stroke-width:0.8;"/>
      </defs>
      <g>
       <use style="fill:#555555;stroke:#555555;stroke-width:0.8;" x="648" xlink:href="#mda45b99a5b" y="126.083171"/>
      </g>
     </g>
     <g id="text_7">
      <text style="fill:#555555;font-family:DejaVu Sans;font-size:10px;font-stretch:normal;font-style:normal;font-weight:normal;text-anchor:end;" transform="rotate(-0, 83, 129.88239)" x="83" y="129.88239">10</text>
     </g>
     <g id="text_8">
      <text style="fill:#555555;font-family:DejaVu Sans;font-size:10px;font-stretch:normal;font-style:normal;font-weight:normal;text-anchor:start;" transform="rotate(-0, 655, 129.88239)" x="655" y="129.88239">10</text>
     </g>
    </g>
    <g id="ytick_2">
     <g id="line2d_16">
      <path clip-path="url(#pd98e3e8bc7)" d="M 90 75.604059 
L 648 75.604059 
" style="fill:none;stroke:#ffffff;stroke-linecap:square;stroke-width:0.8;"/>
     </g>
     <g id="line2d_17">
      <g>
       <use style="fill:#555555;stroke:#555555;stroke-width:0.8;" x="90" xlink:href="#m1113c6a451" y="75.604059"/>
      </g>
     </g>
     <g id="line2d_18">
      <g>
       <use style="fill:#555555;stroke:#555555;stroke-width:0.8;" x="648" xlink:href="#mda45b99a5b" y="75.604059"/>
      </g>
     </g>
     <g id="text_9">
      <text style="fill:#555555;font-family:DejaVu Sans;font-size:10px;font-stretch:normal;font-style:normal;font-weight:normal;text-anchor:end;" transform="rotate(-0, 83, 79.403278)" x="83" y="79.403278">1000</text>
     </g>
     <g id="text_10">
      <text style="fill:#555555;font-family:DejaVu Sans;font-size:10px;font-stretch:normal;font-style:normal;font-weight:normal;text-anchor:start;" transform="rotate(-0, 655, 79.403278)" x="655" y="79.403278">1000</text>
     </g>
    </g>
    <g id="ytick_3">
     <g id="line2d_19">
      <path clip-path="url(#pd98e3e8bc7)" d="M 90 25.124947 
L 648 25.124947 
" style="fill:none;stroke:#ffffff;stroke-linecap:square;stroke-width:0.8;"/>
     </g>
     <g id="line2d_20">
      <g>
       <use style="fill:#555555;stroke:#555555;stroke-width:0.8;" x="90" xlink:href="#m1113c6a451" y="25.124947"/>
      </g>
     </g>
     <g id="line2d_21">
      <g>
       <use style="fill:#555555;stroke:#555555;stroke-width:0.8;" x="648" xlink:href="#mda45b99a5b" y="25.124947"/>
      </g>
     </g>
     <g id="text_11">
      <text style="fill:#555555;font-family:DejaVu Sans;font-size:10px;font-stretch:normal;font-style:normal;font-weight:normal;text-anchor:end;" transform="rotate(-0, 83, 28.924165)" x="83" y="28.924165">100000</text>
     </g>
     <g id="text_12">
      <text style="fill:#555555;font-family:DejaVu Sans;font-size:10px;font-stretch:normal;font-style:normal;font-weight:normal;text-anchor:start;" transform="rotate(-0, 655, 28.924165)" x="655" y="28.924165">100000</text>
     </g>
    </g>
    <g id="text_13">
     <text style="fill:#555555;font-family:DejaVu Sans;font-size:12px;font-stretch:normal;font-style:normal;font-weight:normal;text-anchor:middle;" transform="rotate(-90, 38.329375, 89.55)" x="38.329375" y="89.55">total numbers</text>
    </g>
   </g>
   <g id="line2d_22">
    <path clip-path="url(#pd98e3e8bc7)" d="M 115.363636 151.322727 
L 116.716364 151.322727 
L 116.716364 143.724864 
L 119.421818 143.724864 
L 119.421818 139.280399 
L 120.774545 139.280399 
L 120.774545 136.127 
L 126.185455 136.127 
L 126.185455 125.038438 
L 127.538182 125.038438 
L 127.538182 124.084672 
L 128.890909 124.084672 
L 128.890909 121.638706 
L 131.596364 121.638706 
L 131.596364 120.931273 
L 132.949091 120.931273 
L 132.949091 119.047554 
L 134.301818 119.047554 
L 134.301818 116.953321 
L 135.654545 116.953321 
L 135.654545 116.486808 
L 138.36 116.486808 
L 138.36 116.039342 
L 139.712727 116.039342 
L 139.712727 115.195741 
L 141.065455 115.195741 
L 141.065455 114.797101 
L 147.829091 114.797101 
L 147.829091 114.412451 
L 149.181818 114.412451 
L 149.181818 114.040842 
L 150.534545 114.040842 
L 150.534545 113.68142 
L 153.24 113.68142 
L 153.24 100.413701 
L 154.592727 100.413701 
L 154.592727 93.028687 
L 155.945455 93.028687 
L 155.945455 84.778943 
L 157.298182 84.778943 
L 157.298182 81.166946 
L 158.650909 81.166946 
L 158.650909 77.606944 
L 160.003636 77.606944 
L 160.003636 75.859116 
L 161.356364 75.859116 
L 161.356364 73.062055 
L 162.709091 73.062055 
L 162.709091 69.370123 
L 164.061818 69.370123 
L 164.061818 66.299277 
L 165.414545 66.299277 
L 165.414545 63.026922 
L 166.767273 63.026922 
L 166.767273 61.156764 
L 168.12 61.156764 
L 168.12 59.526737 
L 169.472727 59.526737 
L 169.472727 57.562004 
L 170.825455 57.562004 
L 170.825455 56.679097 
L 172.178182 56.679097 
L 172.178182 55.804267 
L 173.530909 55.804267 
L 173.530909 54.930766 
L 174.883636 54.930766 
L 174.883636 54.210144 
L 176.236364 54.210144 
L 176.236364 53.793171 
L 177.589091 53.793171 
L 177.589091 53.550102 
L 180.294545 53.498918 
L 180.294545 53.151409 
L 181.647273 53.151409 
L 181.647273 52.991447 
L 183 52.991447 
L 183 52.83928 
L 184.352727 52.83928 
L 184.352727 52.693262 
L 187.058182 52.590718 
L 187.058182 52.491785 
L 188.410909 52.491785 
L 188.410909 52.380554 
L 189.763636 52.380554 
L 189.763636 52.258709 
L 191.116364 52.258709 
L 191.116364 52.062434 
L 193.821818 51.951654 
L 193.821818 51.766981 
L 195.174545 51.766981 
L 195.174545 51.567004 
L 199.232727 51.47443 
L 199.232727 51.353802 
L 200.585455 51.353802 
L 200.585455 51.229741 
L 203.290909 51.122327 
L 203.290909 50.952163 
L 204.643636 50.952163 
L 204.643636 50.831397 
L 207.349091 50.742539 
L 207.349091 50.601623 
L 208.701818 50.601623 
L 208.701818 50.489072 
L 211.407273 50.390842 
L 211.407273 50.296752 
L 214.112727 50.194825 
L 214.112727 50.107748 
L 218.170909 50.007556 
L 218.170909 49.951465 
L 223.581818 49.850593 
L 223.581818 49.817174 
L 230.345455 49.712359 
L 230.345455 49.68966 
L 243.872727 49.58401 
L 243.872727 49.569728 
L 260.105455 49.480379 
L 260.105455 49.446052 
L 265.516364 49.357702 
L 265.516364 49.328742 
L 273.632727 49.242318 
L 273.632727 49.2107 
L 281.749091 49.116391 
L 281.749091 49.097822 
L 284.454545 49.05883 
L 284.454545 48.982228 
L 288.512727 48.888898 
L 288.512727 48.86306 
L 292.570909 48.793506 
L 292.570909 48.747065 
L 296.629091 48.673543 
L 296.629091 48.625736 
L 300.687273 48.537235 
L 300.687273 48.502034 
L 304.745455 48.414523 
L 304.745455 48.363263 
L 310.156364 48.256029 
L 310.156364 48.225325 
L 314.214545 48.133725 
L 314.214545 48.089992 
L 318.272727 47.988033 
L 318.272727 47.973041 
L 323.683636 47.86343 
L 323.683636 47.829455 
L 327.741818 47.731604 
L 327.741818 47.695456 
L 331.8 47.615836 
L 331.8 47.569869 
L 335.858182 47.463357 
L 335.858182 47.412161 
L 339.916364 47.337059 
L 339.916364 47.284793 
L 345.327273 47.178543 
L 345.327273 47.142537 
L 350.738182 47.033605 
L 350.738182 46.984372 
L 356.149091 46.877791 
L 356.149091 46.857076 
L 360.207273 46.771446 
L 360.207273 46.724947 
L 362.912727 46.69275 
L 362.912727 46.6045 
L 368.323636 46.518497 
L 368.323636 46.481515 
L 376.44 46.37588 
L 376.44 46.35001 
L 383.203636 46.244876 
L 383.203636 46.217811 
L 388.614545 46.131053 
L 388.614545 46.089414 
L 391.32 46.013239 
L 391.32 45.891575 
L 392.672727 45.891575 
L 392.672727 45.690085 
L 394.025455 45.690085 
L 394.025455 45.550012 
L 395.378182 45.550012 
L 395.378182 45.377576 
L 396.730909 45.377576 
L 396.730909 45.172942 
L 398.083636 45.172942 
L 398.083636 44.978091 
L 399.436364 44.978091 
L 399.436364 44.762947 
L 400.789091 44.762947 
L 400.789091 44.546785 
L 402.141818 44.546785 
L 402.141818 44.293776 
L 403.494545 44.293776 
L 403.494545 44.127464 
L 404.847273 44.127464 
L 404.847273 43.955082 
L 406.2 43.955082 
L 406.2 43.761338 
L 407.552727 43.761338 
L 407.552727 43.499825 
L 408.905455 43.499825 
L 408.905455 43.284553 
L 410.258182 43.284553 
L 410.258182 43.100515 
L 411.610909 43.100515 
L 411.610909 42.932862 
L 412.963636 42.932862 
L 412.963636 42.795725 
L 414.316364 42.795725 
L 414.316364 42.667342 
L 415.669091 42.667342 
L 415.669091 42.523277 
L 418.374545 42.419246 
L 418.374545 42.314614 
L 421.08 42.226612 
L 421.08 42.139829 
L 423.785455 42.078406 
L 423.785455 42.008627 
L 426.490909 41.92913 
L 426.490909 41.850709 
L 429.196364 41.762339 
L 429.196364 41.694537 
L 431.901818 41.634564 
L 431.901818 41.580818 
L 435.96 41.473624 
L 435.96 41.399352 
L 438.665455 41.338562 
L 438.665455 41.285766 
L 444.076364 41.184251 
L 444.076364 41.132191 
L 446.781818 41.073331 
L 446.781818 41.019925 
L 452.192727 40.924073 
L 452.192727 40.906483 
L 456.250909 40.818954 
L 456.250909 40.790084 
L 461.661818 40.693492 
L 461.661818 40.659522 
L 467.072727 40.552866 
L 467.072727 40.520669 
L 471.130909 40.451675 
L 471.130909 40.406508 
L 476.541818 40.305338 
L 476.541818 40.273422 
L 481.952727 40.175632 
L 481.952727 40.136327 
L 484.658182 40.085141 
L 484.658182 40.018826 
L 490.069091 39.909748 
L 490.069091 39.872646 
L 494.127273 39.777099 
L 494.127273 39.729637 
L 498.185455 39.626265 
L 498.185455 39.586418 
L 502.243636 39.507563 
L 502.243636 39.456793 
L 506.301818 39.362377 
L 506.301818 39.305077 
L 510.36 39.215124 
L 510.36 39.157403 
L 513.065455 39.101162 
L 513.065455 39.026489 
L 515.770909 38.946905 
L 515.770909 38.866742 
L 518.476364 38.781445 
L 518.476364 38.694538 
L 519.829091 38.694538 
L 519.829091 38.576857 
L 521.181818 38.576857 
L 521.181818 38.44933 
L 522.534545 38.44933 
L 522.534545 38.315964 
L 523.887273 38.315964 
L 523.887273 38.175906 
L 525.24 38.175906 
L 525.24 38.05757 
L 527.945455 37.961337 
L 527.945455 37.838638 
L 529.298182 37.838638 
L 529.298182 37.705894 
L 530.650909 37.705894 
L 530.650909 37.50635 
L 532.003636 37.50635 
L 532.003636 37.31504 
L 533.356364 37.31504 
L 533.356364 37.153582 
L 534.709091 37.153582 
L 534.709091 37.007099 
L 536.061818 37.007099 
L 536.061818 36.8856 
L 537.414545 36.8856 
L 537.414545 36.742 
L 538.767273 36.742 
L 538.767273 36.581536 
L 540.12 36.581536 
L 540.12 36.414481 
L 541.472727 36.414481 
L 541.472727 36.223049 
L 542.825455 36.223049 
L 542.825455 36.048554 
L 544.178182 36.048554 
L 544.178182 35.862771 
L 545.530909 35.862771 
L 545.530909 35.684678 
L 546.883636 35.684678 
L 546.883636 35.515372 
L 548.236364 35.515372 
L 548.236364 35.325543 
L 549.589091 35.325543 
L 549.589091 35.141953 
L 550.941818 35.141953 
L 550.941818 34.955473 
L 552.294545 34.955473 
L 552.294545 34.703085 
L 553.647273 34.703085 
L 553.647273 34.435853 
L 555 34.435853 
L 555 34.25335 
L 556.352727 34.25335 
L 556.352727 34.033735 
L 557.705455 34.033735 
L 557.705455 33.770569 
L 559.058182 33.770569 
L 559.058182 33.529371 
L 560.410909 33.529371 
L 560.410909 33.281595 
L 561.763636 33.281595 
L 561.763636 33.040876 
L 563.116364 33.040876 
L 563.116364 32.796499 
L 564.469091 32.796499 
L 564.469091 32.594006 
L 565.821818 32.594006 
L 565.821818 32.407321 
L 567.174545 32.407321 
L 567.174545 32.177567 
L 568.527273 32.177567 
L 568.527273 31.974417 
L 569.88 31.974417 
L 569.88 31.724012 
L 571.232727 31.724012 
L 571.232727 31.499768 
L 572.585455 31.499768 
L 572.585455 31.3112 
L 573.938182 31.3112 
L 573.938182 31.156563 
L 575.290909 31.156563 
L 575.290909 30.959751 
L 576.643636 30.959751 
L 576.643636 30.76586 
L 577.996364 30.76586 
L 577.996364 30.589947 
L 579.349091 30.589947 
L 579.349091 30.405804 
L 580.701818 30.405804 
L 580.701818 30.260546 
L 582.054545 30.260546 
L 582.054545 30.14713 
L 583.407273 30.14713 
L 583.407273 29.971755 
L 584.76 29.971755 
L 584.76 29.850472 
L 586.112727 29.850472 
L 586.112727 29.709846 
L 587.465455 29.709846 
L 587.465455 29.566233 
L 590.170909 29.456327 
L 590.170909 29.352508 
L 592.876364 29.245832 
L 592.876364 29.174229 
L 595.581818 29.08939 
L 595.581818 29.001456 
L 598.287273 28.921193 
L 598.287273 28.841976 
L 600.992727 28.753249 
L 600.992727 28.674171 
L 603.698182 28.615385 
L 603.698182 28.557363 
L 606.403636 28.497111 
L 606.403636 28.437633 
L 609.109091 28.386739 
L 609.109091 28.323452 
L 611.814545 28.266075 
L 611.814545 28.202463 
L 614.52 28.151202 
L 614.52 28.071458 
L 617.225455 28.00041 
L 617.225455 27.933783 
L 619.930909 27.869531 
L 619.930909 27.81966 
L 622.636364 27.777273 
L 622.636364 27.777273 
" style="fill:none;stroke:#348abd;stroke-linecap:square;stroke-width:3;"/>
   </g>
   <g id="line2d_23">
    <path clip-path="url(#pd98e3e8bc7)" d="M 153.24 181 
L 153.24 151.322727 
L 154.592727 151.322727 
L 154.592727 143.724864 
L 157.298182 143.724864 
L 157.298182 131.682535 
L 158.650909 131.682535 
L 158.650909 128.529137 
L 160.003636 128.529137 
L 160.003636 126.083171 
L 161.356364 126.083171 
L 161.356364 124.084672 
L 162.709091 124.084672 
L 162.709091 123.207291 
L 165.414545 123.207291 
L 165.414545 120.931273 
L 166.767273 120.931273 
L 166.767273 120.266743 
L 168.12 120.266743 
L 168.12 114.797101 
L 170.825455 114.797101 
L 170.825455 112.351135 
L 173.530909 112.351135 
L 173.530909 110.352636 
L 174.883636 110.352636 
L 174.883636 109.842711 
L 176.236364 109.842711 
L 176.236364 108.441478 
L 177.589091 108.441478 
L 177.589091 107.80277 
L 178.941818 107.80277 
L 178.941818 107.597878 
L 180.294545 107.597878 
L 180.294545 106.442979 
L 181.647273 106.442979 
L 181.647273 105.398246 
L 184.352727 105.398246 
L 184.352727 104.444479 
L 185.705455 104.444479 
L 185.705455 103.997013 
L 188.410909 103.997013 
L 188.410909 103.153412 
L 189.763636 103.153412 
L 189.763636 102.754772 
L 191.116364 102.754772 
L 191.116364 101.877392 
L 192.469091 101.877392 
L 192.469091 101.521856 
L 193.821818 101.521856 
L 193.821818 100.62655 
L 195.174545 100.62655 
L 195.174545 99.699683 
L 197.88 99.699683 
L 197.88 98.845115 
L 199.232727 98.845115 
L 199.232727 98.310307 
L 200.585455 98.310307 
L 200.585455 97.88374 
L 201.938182 97.88374 
L 201.938182 97.233985 
L 203.290909 97.233985 
L 203.290909 96.846616 
L 204.643636 96.846616 
L 204.643636 96.253964 
L 205.996364 96.253964 
L 205.996364 95.829598 
L 207.349091 95.829598 
L 207.349091 95.555549 
L 208.701818 95.555549 
L 208.701818 95.354417 
L 210.054545 95.354417 
L 210.054545 95.091856 
L 211.407273 95.091856 
L 211.407273 94.772259 
L 212.76 94.772259 
L 212.76 94.58488 
L 214.112727 94.58488 
L 214.112727 94.219466 
L 215.465455 94.219466 
L 215.465455 94.041228 
L 216.818182 94.041228 
L 216.818182 93.693218 
L 218.170909 93.693218 
L 218.170909 93.245752 
L 219.523636 93.245752 
L 219.523636 93.028687 
L 220.876364 93.028687 
L 220.876364 92.815838 
L 222.229091 92.815838 
L 222.229091 92.65887 
L 223.581818 92.65887 
L 223.581818 92.504118 
L 224.934545 92.504118 
L 224.934545 92.351521 
L 226.287273 92.351521 
L 226.287273 92.10182 
L 227.64 92.10182 
L 227.64 91.954685 
L 228.992727 91.954685 
L 228.992727 91.761527 
L 231.698182 91.713765 
L 231.698182 91.61886 
L 234.403636 91.524771 
L 234.403636 91.431482 
L 238.461818 91.33898 
L 238.461818 91.247252 
L 242.52 91.156286 
L 242.52 91.111084 
L 245.225455 91.066068 
L 245.225455 90.976586 
L 249.283636 90.88783 
L 249.283636 90.799786 
L 253.341818 90.712444 
L 253.341818 90.625792 
L 262.810909 90.539819 
L 262.810909 90.454516 
L 268.221818 90.369872 
L 268.221818 90.285876 
L 277.690909 90.202519 
L 277.690909 90.119791 
L 281.749091 90.07866 
L 281.749091 89.996858 
L 291.218182 89.915662 
L 291.218182 89.875289 
L 302.04 89.794985 
L 302.04 89.715265 
L 311.509091 89.636121 
L 311.509091 89.596763 
L 322.330909 89.518467 
L 322.330909 89.479527 
L 338.563636 89.402061 
L 338.563636 89.363533 
L 342.621818 89.286879 
L 342.621818 89.248752 
L 350.738182 89.210758 
L 350.738182 89.135162 
L 353.443636 89.060083 
L 353.443636 89.022736 
L 358.854545 88.948421 
L 358.854545 88.911452 
L 371.029091 88.801286 
L 371.029091 88.764809 
L 383.203636 88.6561 
L 383.203636 88.620102 
L 399.436364 88.548459 
L 399.436364 88.47728 
L 407.552727 88.371372 
L 407.552727 88.336296 
L 410.258182 88.231735 
L 410.258182 88.059653 
L 415.669091 87.957686 
L 415.669091 87.890231 
L 418.374545 87.78982 
L 418.374545 87.723387 
L 422.432727 87.624487 
L 422.432727 87.559045 
L 423.785455 87.559045 
L 423.785455 87.397131 
L 426.490909 87.301118 
L 426.490909 87.237574 
L 427.843636 87.237574 
L 427.843636 87.111579 
L 429.196364 87.111579 
L 429.196364 86.956096 
L 431.901818 86.863853 
L 431.901818 86.71182 
L 433.254545 86.71182 
L 433.254545 86.591694 
L 435.96 86.591694 
L 435.96 86.443364 
L 437.312727 86.443364 
L 437.312727 86.297015 
L 440.018182 86.267978 
L 440.018182 86.123937 
L 442.723636 86.066846 
L 442.723636 85.981764 
L 445.429091 85.981764 
L 445.429091 85.841411 
L 448.134545 85.785769 
L 448.134545 85.675326 
L 450.84 85.620519 
L 450.84 85.484688 
L 453.545455 85.457723 
L 453.545455 85.297309 
L 457.603636 85.217974 
L 457.603636 85.11308 
L 463.014545 85.061006 
L 463.014545 84.983357 
L 467.072727 84.906255 
L 467.072727 84.855152 
L 472.483636 84.753657 
L 472.483636 84.653093 
L 476.541818 84.578271 
L 476.541818 84.528672 
L 481.952727 84.430142 
L 481.952727 84.356821 
L 484.658182 84.283988 
L 484.658182 84.235699 
L 490.069091 84.187623 
L 490.069091 84.115901 
L 496.832727 84.020997 
L 496.832727 83.973851 
L 499.538182 83.926907 
L 499.538182 83.833618 
L 504.949091 83.741116 
L 504.949091 83.718112 
L 509.007273 83.649389 
L 509.007273 83.535798 
L 514.418182 83.468204 
L 514.418182 83.378723 
L 521.181818 83.289966 
L 521.181818 83.245856 
L 525.24 83.13635 
L 525.24 83.092853 
L 529.298182 82.984858 
L 529.298182 82.920568 
L 533.356364 82.856653 
L 533.356364 82.72993 
L 540.12 82.646255 
L 540.12 82.583915 
L 541.472727 82.583915 
L 541.472727 82.439819 
L 544.178182 82.358322 
L 544.178182 82.257294 
L 546.883636 82.177137 
L 546.883636 82.117402 
L 549.589091 82.038258 
L 549.589091 81.881664 
L 550.941818 81.881664 
L 550.941818 81.727275 
L 552.294545 81.727275 
L 552.294545 81.612895 
L 555 81.575031 
L 555 81.44353 
L 556.352727 81.44353 
L 556.352727 81.203423 
L 557.705455 81.203423 
L 557.705455 80.986358 
L 559.058182 80.986358 
L 559.058182 80.599238 
L 560.410909 80.599238 
L 560.410909 80.410687 
L 561.763636 80.410687 
L 561.763636 80.175311 
L 563.116364 80.175311 
L 563.116364 79.928607 
L 564.469091 79.928607 
L 564.469091 79.545079 
L 565.821818 79.545079 
L 565.821818 79.174517 
L 567.174545 79.174517 
L 567.174545 78.919415 
L 568.527273 78.919415 
L 568.527273 78.670115 
L 569.88 78.670115 
L 569.88 78.426359 
L 571.232727 78.426359 
L 571.232727 78.146359 
L 572.585455 78.146359 
L 572.585455 77.940955 
L 573.938182 77.940955 
L 573.938182 77.792735 
L 575.290909 77.792735 
L 575.290909 77.270042 
L 576.643636 77.270042 
L 576.643636 77.017755 
L 577.996364 77.017755 
L 577.996364 76.758958 
L 579.349091 76.758958 
L 579.349091 76.55384 
L 580.701818 76.55384 
L 580.701818 76.259003 
L 582.054545 76.259003 
L 582.054545 76.028713 
L 583.407273 76.028713 
L 583.407273 75.814329 
L 584.76 75.814329 
L 584.76 75.527596 
L 586.112727 75.527596 
L 586.112727 75.312026 
L 587.465455 75.312026 
L 587.465455 75.111088 
L 588.818182 75.111088 
L 588.818182 74.750313 
L 590.170909 74.750313 
L 590.170909 74.559326 
L 591.523636 74.559326 
L 591.523636 74.312992 
L 592.876364 74.312992 
L 592.876364 74.167806 
L 594.229091 74.167806 
L 594.229091 73.930022 
L 595.581818 73.930022 
L 595.581818 73.74344 
L 598.287273 73.651327 
L 598.287273 73.451363 
L 599.64 73.451363 
L 599.64 73.281553 
L 600.992727 73.281553 
L 600.992727 73.166866 
L 602.345455 73.166866 
L 602.345455 73.036008 
L 603.698182 73.036008 
L 603.698182 72.872466 
L 605.050909 72.872466 
L 605.050909 72.728179 
L 606.403636 72.728179 
L 606.403636 72.594093 
L 609.109091 72.494594 
L 609.109091 72.420558 
L 611.814545 72.322615 
L 611.814545 72.233596 
L 614.52 72.145294 
L 614.52 72.08947 
L 617.225455 72.026018 
L 617.225455 71.923684 
L 618.578182 71.923684 
L 618.578182 71.806783 
L 622.636364 71.72184 
L 622.636364 71.72184 
" style="fill:none;stroke:#e24a33;stroke-linecap:square;stroke-width:3;"/>
   </g>
   <g id="patch_3">
    <path d="M 90 157.5 
L 90 21.6 
" style="fill:none;stroke:#ffffff;stroke-linecap:square;stroke-linejoin:miter;"/>
   </g>
   <g id="patch_4">
    <path d="M 648 157.5 
L 648 21.6 
" style="fill:none;stroke:#ffffff;stroke-linecap:square;stroke-linejoin:miter;"/>
   </g>
   <g id="patch_5">
    <path d="M 90 157.5 
L 648 157.5 
" style="fill:none;stroke:#ffffff;stroke-linecap:square;stroke-linejoin:miter;"/>
   </g>
   <g id="patch_6">
    <path d="M 90 21.6 
L 648 21.6 
" style="fill:none;stroke:#ffffff;stroke-linecap:square;stroke-linejoin:miter;"/>
   </g>
   <g id="legend_1">
    <g id="patch_7">
     <path d="M 507.9625 152.5 
L 641 152.5 
Q 643 152.5 643 150.5 
L 643 122.14375 
Q 643 120.14375 641 120.14375 
L 507.9625 120.14375 
Q 505.9625 120.14375 505.9625 122.14375 
L 505.9625 150.5 
Q 505.9625 152.5 507.9625 152.5 
z
" style="fill:#e5e5e5;opacity:0.8;stroke:#cccccc;stroke-linejoin:miter;stroke-width:0.5;"/>
    </g>
    <g id="line2d_24">
     <path d="M 509.9625 128.242188 
L 529.9625 128.242188 
" style="fill:none;stroke:#348abd;stroke-linecap:square;stroke-width:3;"/>
    </g>
    <g id="line2d_25"/>
    <g id="text_14">
     <text style="font-family:DejaVu Sans;font-size:10px;font-stretch:normal;font-style:normal;font-weight:normal;text-anchor:start;" transform="rotate(-0, 537.9625, 131.742188)" x="537.9625" y="131.742188">Korea, South cases</text>
    </g>
    <g id="line2d_26">
     <path d="M 509.9625 142.920312 
L 529.9625 142.920312 
" style="fill:none;stroke:#e24a33;stroke-linecap:square;stroke-width:3;"/>
    </g>
    <g id="line2d_27"/>
    <g id="text_15">
     <text style="font-family:DejaVu Sans;font-size:10px;font-stretch:normal;font-style:normal;font-weight:normal;text-anchor:start;" transform="rotate(-0, 537.9625, 146.420312)" x="537.9625" y="146.420312">Korea, South deaths</text>
    </g>
   </g>
  </g>
 </g>
 <defs>
  <clipPath id="pd98e3e8bc7">
   <rect height="135.9" width="558" x="90" y="21.6"/>
  </clipPath>
 </defs>
</svg>
