<?xml version="1.0" encoding="utf-8" standalone="no"?>
<!DOCTYPE svg PUBLIC "-//W3C//DTD SVG 1.1//EN"
  "http://www.w3.org/Graphics/SVG/1.1/DTD/svg11.dtd">
<!-- Created with matplotlib (https://matplotlib.org/) -->
<svg height="180pt" version="1.1" viewBox="0 0 720 180" width="720pt" xmlns="http://www.w3.org/2000/svg" xmlns:xlink="http://www.w3.org/1999/xlink">
 <defs>
  <style type="text/css">
*{stroke-linecap:butt;stroke-linejoin:round;}
  </style>
 </defs>
 <g id="figure_1">
  <g id="patch_1">
   <path d="M 0 180 
L 720 180 
L 720 0 
L 0 0 
z
" style="fill:#ffffff;"/>
  </g>
  <g id="axes_1">
   <g id="patch_2">
    <path d="M 90 157.5 
L 648 157.5 
L 648 21.6 
L 90 21.6 
z
" style="fill:#e5e5e5;"/>
   </g>
   <g id="matplotlib.axis_1">
    <g id="xtick_1">
     <g id="line2d_1">
      <path clip-path="url(#p9ccb67a216)" d="M 138.848485 157.5 
L 138.848485 21.6 
" style="fill:none;stroke:#ffffff;stroke-linecap:square;stroke-width:0.8;"/>
     </g>
     <g id="line2d_2">
      <defs>
       <path d="M 0 0 
L 0 3.5 
" id="m40bf91df49" style="stroke:#555555;stroke-width:0.8;"/>
      </defs>
      <g>
       <use style="fill:#555555;stroke:#555555;stroke-width:0.8;" x="138.848485" xlink:href="#m40bf91df49" y="157.5"/>
      </g>
     </g>
     <g id="text_1">
      <!-- 2020-02 -->
      <defs>
       <path d="M 19.1875 8.296875 
L 53.609375 8.296875 
L 53.609375 0 
L 7.328125 0 
L 7.328125 8.296875 
Q 12.9375 14.109375 22.625 23.890625 
Q 32.328125 33.6875 34.8125 36.53125 
Q 39.546875 41.84375 41.421875 45.53125 
Q 43.3125 49.21875 43.3125 52.78125 
Q 43.3125 58.59375 39.234375 62.25 
Q 35.15625 65.921875 28.609375 65.921875 
Q 23.96875 65.921875 18.8125 64.3125 
Q 13.671875 62.703125 7.8125 59.421875 
L 7.8125 69.390625 
Q 13.765625 71.78125 18.9375 73 
Q 24.125 74.21875 28.421875 74.21875 
Q 39.75 74.21875 46.484375 68.546875 
Q 53.21875 62.890625 53.21875 53.421875 
Q 53.21875 48.921875 51.53125 44.890625 
Q 49.859375 40.875 45.40625 35.40625 
Q 44.1875 33.984375 37.640625 27.21875 
Q 31.109375 20.453125 19.1875 8.296875 
z
" id="DejaVuSans-50"/>
       <path d="M 31.78125 66.40625 
Q 24.171875 66.40625 20.328125 58.90625 
Q 16.5 51.421875 16.5 36.375 
Q 16.5 21.390625 20.328125 13.890625 
Q 24.171875 6.390625 31.78125 6.390625 
Q 39.453125 6.390625 43.28125 13.890625 
Q 47.125 21.390625 47.125 36.375 
Q 47.125 51.421875 43.28125 58.90625 
Q 39.453125 66.40625 31.78125 66.40625 
z
M 31.78125 74.21875 
Q 44.046875 74.21875 50.515625 64.515625 
Q 56.984375 54.828125 56.984375 36.375 
Q 56.984375 17.96875 50.515625 8.265625 
Q 44.046875 -1.421875 31.78125 -1.421875 
Q 19.53125 -1.421875 13.0625 8.265625 
Q 6.59375 17.96875 6.59375 36.375 
Q 6.59375 54.828125 13.0625 64.515625 
Q 19.53125 74.21875 31.78125 74.21875 
z
" id="DejaVuSans-48"/>
       <path d="M 4.890625 31.390625 
L 31.203125 31.390625 
L 31.203125 23.390625 
L 4.890625 23.390625 
z
" id="DejaVuSans-45"/>
      </defs>
      <g style="fill:#555555;" transform="translate(117.957079 172.098437)scale(0.1 -0.1)">
       <use xlink:href="#DejaVuSans-50"/>
       <use x="63.623047" xlink:href="#DejaVuSans-48"/>
       <use x="127.246094" xlink:href="#DejaVuSans-50"/>
       <use x="190.869141" xlink:href="#DejaVuSans-48"/>
       <use x="254.492188" xlink:href="#DejaVuSans-45"/>
       <use x="290.576172" xlink:href="#DejaVuSans-48"/>
       <use x="354.199219" xlink:href="#DejaVuSans-50"/>
      </g>
     </g>
    </g>
    <g id="xtick_2">
     <g id="line2d_3">
      <path clip-path="url(#p9ccb67a216)" d="M 206.954545 157.5 
L 206.954545 21.6 
" style="fill:none;stroke:#ffffff;stroke-linecap:square;stroke-width:0.8;"/>
     </g>
     <g id="line2d_4">
      <g>
       <use style="fill:#555555;stroke:#555555;stroke-width:0.8;" x="206.954545" xlink:href="#m40bf91df49" y="157.5"/>
      </g>
     </g>
     <g id="text_2">
      <!-- 2020-03 -->
      <defs>
       <path d="M 40.578125 39.3125 
Q 47.65625 37.796875 51.625 33 
Q 55.609375 28.21875 55.609375 21.1875 
Q 55.609375 10.40625 48.1875 4.484375 
Q 40.765625 -1.421875 27.09375 -1.421875 
Q 22.515625 -1.421875 17.65625 -0.515625 
Q 12.796875 0.390625 7.625 2.203125 
L 7.625 11.71875 
Q 11.71875 9.328125 16.59375 8.109375 
Q 21.484375 6.890625 26.8125 6.890625 
Q 36.078125 6.890625 40.9375 10.546875 
Q 45.796875 14.203125 45.796875 21.1875 
Q 45.796875 27.640625 41.28125 31.265625 
Q 36.765625 34.90625 28.71875 34.90625 
L 20.21875 34.90625 
L 20.21875 43.015625 
L 29.109375 43.015625 
Q 36.375 43.015625 40.234375 45.921875 
Q 44.09375 48.828125 44.09375 54.296875 
Q 44.09375 59.90625 40.109375 62.90625 
Q 36.140625 65.921875 28.71875 65.921875 
Q 24.65625 65.921875 20.015625 65.03125 
Q 15.375 64.15625 9.8125 62.3125 
L 9.8125 71.09375 
Q 15.4375 72.65625 20.34375 73.4375 
Q 25.25 74.21875 29.59375 74.21875 
Q 40.828125 74.21875 47.359375 69.109375 
Q 53.90625 64.015625 53.90625 55.328125 
Q 53.90625 49.265625 50.4375 45.09375 
Q 46.96875 40.921875 40.578125 39.3125 
z
" id="DejaVuSans-51"/>
      </defs>
      <g style="fill:#555555;" transform="translate(186.063139 172.098437)scale(0.1 -0.1)">
       <use xlink:href="#DejaVuSans-50"/>
       <use x="63.623047" xlink:href="#DejaVuSans-48"/>
       <use x="127.246094" xlink:href="#DejaVuSans-50"/>
       <use x="190.869141" xlink:href="#DejaVuSans-48"/>
       <use x="254.492188" xlink:href="#DejaVuSans-45"/>
       <use x="290.576172" xlink:href="#DejaVuSans-48"/>
       <use x="354.199219" xlink:href="#DejaVuSans-51"/>
      </g>
     </g>
    </g>
    <g id="xtick_3">
     <g id="line2d_5">
      <path clip-path="url(#p9ccb67a216)" d="M 279.757576 157.5 
L 279.757576 21.6 
" style="fill:none;stroke:#ffffff;stroke-linecap:square;stroke-width:0.8;"/>
     </g>
     <g id="line2d_6">
      <g>
       <use style="fill:#555555;stroke:#555555;stroke-width:0.8;" x="279.757576" xlink:href="#m40bf91df49" y="157.5"/>
      </g>
     </g>
     <g id="text_3">
      <!-- 2020-04 -->
      <defs>
       <path d="M 37.796875 64.3125 
L 12.890625 25.390625 
L 37.796875 25.390625 
z
M 35.203125 72.90625 
L 47.609375 72.90625 
L 47.609375 25.390625 
L 58.015625 25.390625 
L 58.015625 17.1875 
L 47.609375 17.1875 
L 47.609375 0 
L 37.796875 0 
L 37.796875 17.1875 
L 4.890625 17.1875 
L 4.890625 26.703125 
z
" id="DejaVuSans-52"/>
      </defs>
      <g style="fill:#555555;" transform="translate(258.86617 172.098437)scale(0.1 -0.1)">
       <use xlink:href="#DejaVuSans-50"/>
       <use x="63.623047" xlink:href="#DejaVuSans-48"/>
       <use x="127.246094" xlink:href="#DejaVuSans-50"/>
       <use x="190.869141" xlink:href="#DejaVuSans-48"/>
       <use x="254.492188" xlink:href="#DejaVuSans-45"/>
       <use x="290.576172" xlink:href="#DejaVuSans-48"/>
       <use x="354.199219" xlink:href="#DejaVuSans-52"/>
      </g>
     </g>
    </g>
    <g id="xtick_4">
     <g id="line2d_7">
      <path clip-path="url(#p9ccb67a216)" d="M 350.212121 157.5 
L 350.212121 21.6 
" style="fill:none;stroke:#ffffff;stroke-linecap:square;stroke-width:0.8;"/>
     </g>
     <g id="line2d_8">
      <g>
       <use style="fill:#555555;stroke:#555555;stroke-width:0.8;" x="350.212121" xlink:href="#m40bf91df49" y="157.5"/>
      </g>
     </g>
     <g id="text_4">
      <!-- 2020-05 -->
      <defs>
       <path d="M 10.796875 72.90625 
L 49.515625 72.90625 
L 49.515625 64.59375 
L 19.828125 64.59375 
L 19.828125 46.734375 
Q 21.96875 47.46875 24.109375 47.828125 
Q 26.265625 48.1875 28.421875 48.1875 
Q 40.625 48.1875 47.75 41.5 
Q 54.890625 34.8125 54.890625 23.390625 
Q 54.890625 11.625 47.5625 5.09375 
Q 40.234375 -1.421875 26.90625 -1.421875 
Q 22.3125 -1.421875 17.546875 -0.640625 
Q 12.796875 0.140625 7.71875 1.703125 
L 7.71875 11.625 
Q 12.109375 9.234375 16.796875 8.0625 
Q 21.484375 6.890625 26.703125 6.890625 
Q 35.15625 6.890625 40.078125 11.328125 
Q 45.015625 15.765625 45.015625 23.390625 
Q 45.015625 31 40.078125 35.4375 
Q 35.15625 39.890625 26.703125 39.890625 
Q 22.75 39.890625 18.8125 39.015625 
Q 14.890625 38.140625 10.796875 36.28125 
z
" id="DejaVuSans-53"/>
      </defs>
      <g style="fill:#555555;" transform="translate(329.320715 172.098437)scale(0.1 -0.1)">
       <use xlink:href="#DejaVuSans-50"/>
       <use x="63.623047" xlink:href="#DejaVuSans-48"/>
       <use x="127.246094" xlink:href="#DejaVuSans-50"/>
       <use x="190.869141" xlink:href="#DejaVuSans-48"/>
       <use x="254.492188" xlink:href="#DejaVuSans-45"/>
       <use x="290.576172" xlink:href="#DejaVuSans-48"/>
       <use x="354.199219" xlink:href="#DejaVuSans-53"/>
      </g>
     </g>
    </g>
    <g id="xtick_5">
     <g id="line2d_9">
      <path clip-path="url(#p9ccb67a216)" d="M 423.015152 157.5 
L 423.015152 21.6 
" style="fill:none;stroke:#ffffff;stroke-linecap:square;stroke-width:0.8;"/>
     </g>
     <g id="line2d_10">
      <g>
       <use style="fill:#555555;stroke:#555555;stroke-width:0.8;" x="423.015152" xlink:href="#m40bf91df49" y="157.5"/>
      </g>
     </g>
     <g id="text_5">
      <!-- 2020-06 -->
      <defs>
       <path d="M 33.015625 40.375 
Q 26.375 40.375 22.484375 35.828125 
Q 18.609375 31.296875 18.609375 23.390625 
Q 18.609375 15.53125 22.484375 10.953125 
Q 26.375 6.390625 33.015625 6.390625 
Q 39.65625 6.390625 43.53125 10.953125 
Q 47.40625 15.53125 47.40625 23.390625 
Q 47.40625 31.296875 43.53125 35.828125 
Q 39.65625 40.375 33.015625 40.375 
z
M 52.59375 71.296875 
L 52.59375 62.3125 
Q 48.875 64.0625 45.09375 64.984375 
Q 41.3125 65.921875 37.59375 65.921875 
Q 27.828125 65.921875 22.671875 59.328125 
Q 17.53125 52.734375 16.796875 39.40625 
Q 19.671875 43.65625 24.015625 45.921875 
Q 28.375 48.1875 33.59375 48.1875 
Q 44.578125 48.1875 50.953125 41.515625 
Q 57.328125 34.859375 57.328125 23.390625 
Q 57.328125 12.15625 50.6875 5.359375 
Q 44.046875 -1.421875 33.015625 -1.421875 
Q 20.359375 -1.421875 13.671875 8.265625 
Q 6.984375 17.96875 6.984375 36.375 
Q 6.984375 53.65625 15.1875 63.9375 
Q 23.390625 74.21875 37.203125 74.21875 
Q 40.921875 74.21875 44.703125 73.484375 
Q 48.484375 72.75 52.59375 71.296875 
z
" id="DejaVuSans-54"/>
      </defs>
      <g style="fill:#555555;" transform="translate(402.123745 172.098437)scale(0.1 -0.1)">
       <use xlink:href="#DejaVuSans-50"/>
       <use x="63.623047" xlink:href="#DejaVuSans-48"/>
       <use x="127.246094" xlink:href="#DejaVuSans-50"/>
       <use x="190.869141" xlink:href="#DejaVuSans-48"/>
       <use x="254.492188" xlink:href="#DejaVuSans-45"/>
       <use x="290.576172" xlink:href="#DejaVuSans-48"/>
       <use x="354.199219" xlink:href="#DejaVuSans-54"/>
      </g>
     </g>
    </g>
    <g id="xtick_6">
     <g id="line2d_11">
      <path clip-path="url(#p9ccb67a216)" d="M 493.469697 157.5 
L 493.469697 21.6 
" style="fill:none;stroke:#ffffff;stroke-linecap:square;stroke-width:0.8;"/>
     </g>
     <g id="line2d_12">
      <g>
       <use style="fill:#555555;stroke:#555555;stroke-width:0.8;" x="493.469697" xlink:href="#m40bf91df49" y="157.5"/>
      </g>
     </g>
     <g id="text_6">
      <!-- 2020-07 -->
      <defs>
       <path d="M 8.203125 72.90625 
L 55.078125 72.90625 
L 55.078125 68.703125 
L 28.609375 0 
L 18.3125 0 
L 43.21875 64.59375 
L 8.203125 64.59375 
z
" id="DejaVuSans-55"/>
      </defs>
      <g style="fill:#555555;" transform="translate(472.578291 172.098437)scale(0.1 -0.1)">
       <use xlink:href="#DejaVuSans-50"/>
       <use x="63.623047" xlink:href="#DejaVuSans-48"/>
       <use x="127.246094" xlink:href="#DejaVuSans-50"/>
       <use x="190.869141" xlink:href="#DejaVuSans-48"/>
       <use x="254.492188" xlink:href="#DejaVuSans-45"/>
       <use x="290.576172" xlink:href="#DejaVuSans-48"/>
       <use x="354.199219" xlink:href="#DejaVuSans-55"/>
      </g>
     </g>
    </g>
    <g id="xtick_7">
     <g id="line2d_13">
      <path clip-path="url(#p9ccb67a216)" d="M 566.272727 157.5 
L 566.272727 21.6 
" style="fill:none;stroke:#ffffff;stroke-linecap:square;stroke-width:0.8;"/>
     </g>
     <g id="line2d_14">
      <g>
       <use style="fill:#555555;stroke:#555555;stroke-width:0.8;" x="566.272727" xlink:href="#m40bf91df49" y="157.5"/>
      </g>
     </g>
     <g id="text_7">
      <!-- 2020-08 -->
      <defs>
       <path d="M 31.78125 34.625 
Q 24.75 34.625 20.71875 30.859375 
Q 16.703125 27.09375 16.703125 20.515625 
Q 16.703125 13.921875 20.71875 10.15625 
Q 24.75 6.390625 31.78125 6.390625 
Q 38.8125 6.390625 42.859375 10.171875 
Q 46.921875 13.96875 46.921875 20.515625 
Q 46.921875 27.09375 42.890625 30.859375 
Q 38.875 34.625 31.78125 34.625 
z
M 21.921875 38.8125 
Q 15.578125 40.375 12.03125 44.71875 
Q 8.5 49.078125 8.5 55.328125 
Q 8.5 64.0625 14.71875 69.140625 
Q 20.953125 74.21875 31.78125 74.21875 
Q 42.671875 74.21875 48.875 69.140625 
Q 55.078125 64.0625 55.078125 55.328125 
Q 55.078125 49.078125 51.53125 44.71875 
Q 48 40.375 41.703125 38.8125 
Q 48.828125 37.15625 52.796875 32.3125 
Q 56.78125 27.484375 56.78125 20.515625 
Q 56.78125 9.90625 50.3125 4.234375 
Q 43.84375 -1.421875 31.78125 -1.421875 
Q 19.734375 -1.421875 13.25 4.234375 
Q 6.78125 9.90625 6.78125 20.515625 
Q 6.78125 27.484375 10.78125 32.3125 
Q 14.796875 37.15625 21.921875 38.8125 
z
M 18.3125 54.390625 
Q 18.3125 48.734375 21.84375 45.5625 
Q 25.390625 42.390625 31.78125 42.390625 
Q 38.140625 42.390625 41.71875 45.5625 
Q 45.3125 48.734375 45.3125 54.390625 
Q 45.3125 60.0625 41.71875 63.234375 
Q 38.140625 66.40625 31.78125 66.40625 
Q 25.390625 66.40625 21.84375 63.234375 
Q 18.3125 60.0625 18.3125 54.390625 
z
" id="DejaVuSans-56"/>
      </defs>
      <g style="fill:#555555;" transform="translate(545.381321 172.098437)scale(0.1 -0.1)">
       <use xlink:href="#DejaVuSans-50"/>
       <use x="63.623047" xlink:href="#DejaVuSans-48"/>
       <use x="127.246094" xlink:href="#DejaVuSans-50"/>
       <use x="190.869141" xlink:href="#DejaVuSans-48"/>
       <use x="254.492188" xlink:href="#DejaVuSans-45"/>
       <use x="290.576172" xlink:href="#DejaVuSans-48"/>
       <use x="354.199219" xlink:href="#DejaVuSans-56"/>
      </g>
     </g>
    </g>
    <g id="xtick_8">
     <g id="line2d_15">
      <path clip-path="url(#p9ccb67a216)" d="M 639.075758 157.5 
L 639.075758 21.6 
" style="fill:none;stroke:#ffffff;stroke-linecap:square;stroke-width:0.8;"/>
     </g>
     <g id="line2d_16">
      <g>
       <use style="fill:#555555;stroke:#555555;stroke-width:0.8;" x="639.075758" xlink:href="#m40bf91df49" y="157.5"/>
      </g>
     </g>
     <g id="text_8">
      <!-- 2020-09 -->
      <defs>
       <path d="M 10.984375 1.515625 
L 10.984375 10.5 
Q 14.703125 8.734375 18.5 7.8125 
Q 22.3125 6.890625 25.984375 6.890625 
Q 35.75 6.890625 40.890625 13.453125 
Q 46.046875 20.015625 46.78125 33.40625 
Q 43.953125 29.203125 39.59375 26.953125 
Q 35.25 24.703125 29.984375 24.703125 
Q 19.046875 24.703125 12.671875 31.3125 
Q 6.296875 37.9375 6.296875 49.421875 
Q 6.296875 60.640625 12.9375 67.421875 
Q 19.578125 74.21875 30.609375 74.21875 
Q 43.265625 74.21875 49.921875 64.515625 
Q 56.59375 54.828125 56.59375 36.375 
Q 56.59375 19.140625 48.40625 8.859375 
Q 40.234375 -1.421875 26.421875 -1.421875 
Q 22.703125 -1.421875 18.890625 -0.6875 
Q 15.09375 0.046875 10.984375 1.515625 
z
M 30.609375 32.421875 
Q 37.25 32.421875 41.125 36.953125 
Q 45.015625 41.5 45.015625 49.421875 
Q 45.015625 57.28125 41.125 61.84375 
Q 37.25 66.40625 30.609375 66.40625 
Q 23.96875 66.40625 20.09375 61.84375 
Q 16.21875 57.28125 16.21875 49.421875 
Q 16.21875 41.5 20.09375 36.953125 
Q 23.96875 32.421875 30.609375 32.421875 
z
" id="DejaVuSans-57"/>
      </defs>
      <g style="fill:#555555;" transform="translate(618.184351 172.098437)scale(0.1 -0.1)">
       <use xlink:href="#DejaVuSans-50"/>
       <use x="63.623047" xlink:href="#DejaVuSans-48"/>
       <use x="127.246094" xlink:href="#DejaVuSans-50"/>
       <use x="190.869141" xlink:href="#DejaVuSans-48"/>
       <use x="254.492188" xlink:href="#DejaVuSans-45"/>
       <use x="290.576172" xlink:href="#DejaVuSans-48"/>
       <use x="354.199219" xlink:href="#DejaVuSans-57"/>
      </g>
     </g>
    </g>
   </g>
   <g id="matplotlib.axis_2">
    <g id="ytick_1">
     <g id="line2d_17">
      <path clip-path="url(#p9ccb67a216)" d="M 90 157.5 
L 648 157.5 
" style="fill:none;stroke:#ffffff;stroke-linecap:square;stroke-width:0.8;"/>
     </g>
     <g id="line2d_18">
      <defs>
       <path d="M 0 0 
L -3.5 0 
" id="m33cb9731bd" style="stroke:#555555;stroke-width:0.8;"/>
      </defs>
      <g>
       <use style="fill:#555555;stroke:#555555;stroke-width:0.8;" x="90" xlink:href="#m33cb9731bd" y="157.5"/>
      </g>
     </g>
     <g id="line2d_19">
      <defs>
       <path d="M 0 0 
L 3.5 0 
" id="m73d70baa8c" style="stroke:#555555;stroke-width:0.8;"/>
      </defs>
      <g>
       <use style="fill:#555555;stroke:#555555;stroke-width:0.8;" x="648" xlink:href="#m73d70baa8c" y="157.5"/>
      </g>
     </g>
     <g id="text_9">
      <!-- 0 -->
      <g style="fill:#555555;" transform="translate(76.6375 161.299219)scale(0.1 -0.1)">
       <use xlink:href="#DejaVuSans-48"/>
      </g>
     </g>
     <g id="text_10">
      <!-- 0 -->
      <g style="fill:#555555;" transform="translate(655 161.299219)scale(0.1 -0.1)">
       <use xlink:href="#DejaVuSans-48"/>
      </g>
     </g>
    </g>
    <g id="ytick_2">
     <g id="line2d_20">
      <path clip-path="url(#p9ccb67a216)" d="M 90 127.082004 
L 648 127.082004 
" style="fill:none;stroke:#ffffff;stroke-linecap:square;stroke-width:0.8;"/>
     </g>
     <g id="line2d_21">
      <g>
       <use style="fill:#555555;stroke:#555555;stroke-width:0.8;" x="90" xlink:href="#m33cb9731bd" y="127.082004"/>
      </g>
     </g>
     <g id="line2d_22">
      <g>
       <use style="fill:#555555;stroke:#555555;stroke-width:0.8;" x="648" xlink:href="#m73d70baa8c" y="127.082004"/>
      </g>
     </g>
     <g id="text_11">
      <!-- 200 -->
      <g style="fill:#555555;" transform="translate(63.9125 130.881223)scale(0.1 -0.1)">
       <use xlink:href="#DejaVuSans-50"/>
       <use x="63.623047" xlink:href="#DejaVuSans-48"/>
       <use x="127.246094" xlink:href="#DejaVuSans-48"/>
      </g>
     </g>
     <g id="text_12">
      <!-- 200 -->
      <g style="fill:#555555;" transform="translate(655 130.881223)scale(0.1 -0.1)">
       <use xlink:href="#DejaVuSans-50"/>
       <use x="63.623047" xlink:href="#DejaVuSans-48"/>
       <use x="127.246094" xlink:href="#DejaVuSans-48"/>
      </g>
     </g>
    </g>
    <g id="ytick_3">
     <g id="line2d_23">
      <path clip-path="url(#p9ccb67a216)" d="M 90 96.664009 
L 648 96.664009 
" style="fill:none;stroke:#ffffff;stroke-linecap:square;stroke-width:0.8;"/>
     </g>
     <g id="line2d_24">
      <g>
       <use style="fill:#555555;stroke:#555555;stroke-width:0.8;" x="90" xlink:href="#m33cb9731bd" y="96.664009"/>
      </g>
     </g>
     <g id="line2d_25">
      <g>
       <use style="fill:#555555;stroke:#555555;stroke-width:0.8;" x="648" xlink:href="#m73d70baa8c" y="96.664009"/>
      </g>
     </g>
     <g id="text_13">
      <!-- 400 -->
      <g style="fill:#555555;" transform="translate(63.9125 100.463227)scale(0.1 -0.1)">
       <use xlink:href="#DejaVuSans-52"/>
       <use x="63.623047" xlink:href="#DejaVuSans-48"/>
       <use x="127.246094" xlink:href="#DejaVuSans-48"/>
      </g>
     </g>
     <g id="text_14">
      <!-- 400 -->
      <g style="fill:#555555;" transform="translate(655 100.463227)scale(0.1 -0.1)">
       <use xlink:href="#DejaVuSans-52"/>
       <use x="63.623047" xlink:href="#DejaVuSans-48"/>
       <use x="127.246094" xlink:href="#DejaVuSans-48"/>
      </g>
     </g>
    </g>
    <g id="ytick_4">
     <g id="line2d_26">
      <path clip-path="url(#p9ccb67a216)" d="M 90 66.246013 
L 648 66.246013 
" style="fill:none;stroke:#ffffff;stroke-linecap:square;stroke-width:0.8;"/>
     </g>
     <g id="line2d_27">
      <g>
       <use style="fill:#555555;stroke:#555555;stroke-width:0.8;" x="90" xlink:href="#m33cb9731bd" y="66.246013"/>
      </g>
     </g>
     <g id="line2d_28">
      <g>
       <use style="fill:#555555;stroke:#555555;stroke-width:0.8;" x="648" xlink:href="#m73d70baa8c" y="66.246013"/>
      </g>
     </g>
     <g id="text_15">
      <!-- 600 -->
      <g style="fill:#555555;" transform="translate(63.9125 70.045232)scale(0.1 -0.1)">
       <use xlink:href="#DejaVuSans-54"/>
       <use x="63.623047" xlink:href="#DejaVuSans-48"/>
       <use x="127.246094" xlink:href="#DejaVuSans-48"/>
      </g>
     </g>
     <g id="text_16">
      <!-- 600 -->
      <g style="fill:#555555;" transform="translate(655 70.045232)scale(0.1 -0.1)">
       <use xlink:href="#DejaVuSans-54"/>
       <use x="63.623047" xlink:href="#DejaVuSans-48"/>
       <use x="127.246094" xlink:href="#DejaVuSans-48"/>
      </g>
     </g>
    </g>
    <g id="ytick_5">
     <g id="line2d_29">
      <path clip-path="url(#p9ccb67a216)" d="M 90 35.828017 
L 648 35.828017 
" style="fill:none;stroke:#ffffff;stroke-linecap:square;stroke-width:0.8;"/>
     </g>
     <g id="line2d_30">
      <g>
       <use style="fill:#555555;stroke:#555555;stroke-width:0.8;" x="90" xlink:href="#m33cb9731bd" y="35.828017"/>
      </g>
     </g>
     <g id="line2d_31">
      <g>
       <use style="fill:#555555;stroke:#555555;stroke-width:0.8;" x="648" xlink:href="#m73d70baa8c" y="35.828017"/>
      </g>
     </g>
     <g id="text_17">
      <!-- 800 -->
      <g style="fill:#555555;" transform="translate(63.9125 39.627236)scale(0.1 -0.1)">
       <use xlink:href="#DejaVuSans-56"/>
       <use x="63.623047" xlink:href="#DejaVuSans-48"/>
       <use x="127.246094" xlink:href="#DejaVuSans-48"/>
      </g>
     </g>
     <g id="text_18">
      <!-- 800 -->
      <g style="fill:#555555;" transform="translate(655 39.627236)scale(0.1 -0.1)">
       <use xlink:href="#DejaVuSans-56"/>
       <use x="63.623047" xlink:href="#DejaVuSans-48"/>
       <use x="127.246094" xlink:href="#DejaVuSans-48"/>
      </g>
     </g>
    </g>
    <g id="text_19">
     <!-- daily change -->
     <defs>
      <path d="M 45.40625 46.390625 
L 45.40625 75.984375 
L 54.390625 75.984375 
L 54.390625 0 
L 45.40625 0 
L 45.40625 8.203125 
Q 42.578125 3.328125 38.25 0.953125 
Q 33.9375 -1.421875 27.875 -1.421875 
Q 17.96875 -1.421875 11.734375 6.484375 
Q 5.515625 14.40625 5.515625 27.296875 
Q 5.515625 40.1875 11.734375 48.09375 
Q 17.96875 56 27.875 56 
Q 33.9375 56 38.25 53.625 
Q 42.578125 51.265625 45.40625 46.390625 
z
M 14.796875 27.296875 
Q 14.796875 17.390625 18.875 11.75 
Q 22.953125 6.109375 30.078125 6.109375 
Q 37.203125 6.109375 41.296875 11.75 
Q 45.40625 17.390625 45.40625 27.296875 
Q 45.40625 37.203125 41.296875 42.84375 
Q 37.203125 48.484375 30.078125 48.484375 
Q 22.953125 48.484375 18.875 42.84375 
Q 14.796875 37.203125 14.796875 27.296875 
z
" id="DejaVuSans-100"/>
      <path d="M 34.28125 27.484375 
Q 23.390625 27.484375 19.1875 25 
Q 14.984375 22.515625 14.984375 16.5 
Q 14.984375 11.71875 18.140625 8.90625 
Q 21.296875 6.109375 26.703125 6.109375 
Q 34.1875 6.109375 38.703125 11.40625 
Q 43.21875 16.703125 43.21875 25.484375 
L 43.21875 27.484375 
z
M 52.203125 31.203125 
L 52.203125 0 
L 43.21875 0 
L 43.21875 8.296875 
Q 40.140625 3.328125 35.546875 0.953125 
Q 30.953125 -1.421875 24.3125 -1.421875 
Q 15.921875 -1.421875 10.953125 3.296875 
Q 6 8.015625 6 15.921875 
Q 6 25.140625 12.171875 29.828125 
Q 18.359375 34.515625 30.609375 34.515625 
L 43.21875 34.515625 
L 43.21875 35.40625 
Q 43.21875 41.609375 39.140625 45 
Q 35.0625 48.390625 27.6875 48.390625 
Q 23 48.390625 18.546875 47.265625 
Q 14.109375 46.140625 10.015625 43.890625 
L 10.015625 52.203125 
Q 14.9375 54.109375 19.578125 55.046875 
Q 24.21875 56 28.609375 56 
Q 40.484375 56 46.34375 49.84375 
Q 52.203125 43.703125 52.203125 31.203125 
z
" id="DejaVuSans-97"/>
      <path d="M 9.421875 54.6875 
L 18.40625 54.6875 
L 18.40625 0 
L 9.421875 0 
z
M 9.421875 75.984375 
L 18.40625 75.984375 
L 18.40625 64.59375 
L 9.421875 64.59375 
z
" id="DejaVuSans-105"/>
      <path d="M 9.421875 75.984375 
L 18.40625 75.984375 
L 18.40625 0 
L 9.421875 0 
z
" id="DejaVuSans-108"/>
      <path d="M 32.171875 -5.078125 
Q 28.375 -14.84375 24.75 -17.8125 
Q 21.140625 -20.796875 15.09375 -20.796875 
L 7.90625 -20.796875 
L 7.90625 -13.28125 
L 13.1875 -13.28125 
Q 16.890625 -13.28125 18.9375 -11.515625 
Q 21 -9.765625 23.484375 -3.21875 
L 25.09375 0.875 
L 2.984375 54.6875 
L 12.5 54.6875 
L 29.59375 11.921875 
L 46.6875 54.6875 
L 56.203125 54.6875 
z
" id="DejaVuSans-121"/>
      <path id="DejaVuSans-32"/>
      <path d="M 48.78125 52.59375 
L 48.78125 44.1875 
Q 44.96875 46.296875 41.140625 47.34375 
Q 37.3125 48.390625 33.40625 48.390625 
Q 24.65625 48.390625 19.8125 42.84375 
Q 14.984375 37.3125 14.984375 27.296875 
Q 14.984375 17.28125 19.8125 11.734375 
Q 24.65625 6.203125 33.40625 6.203125 
Q 37.3125 6.203125 41.140625 7.25 
Q 44.96875 8.296875 48.78125 10.40625 
L 48.78125 2.09375 
Q 45.015625 0.34375 40.984375 -0.53125 
Q 36.96875 -1.421875 32.421875 -1.421875 
Q 20.0625 -1.421875 12.78125 6.34375 
Q 5.515625 14.109375 5.515625 27.296875 
Q 5.515625 40.671875 12.859375 48.328125 
Q 20.21875 56 33.015625 56 
Q 37.15625 56 41.109375 55.140625 
Q 45.0625 54.296875 48.78125 52.59375 
z
" id="DejaVuSans-99"/>
      <path d="M 54.890625 33.015625 
L 54.890625 0 
L 45.90625 0 
L 45.90625 32.71875 
Q 45.90625 40.484375 42.875 44.328125 
Q 39.84375 48.1875 33.796875 48.1875 
Q 26.515625 48.1875 22.3125 43.546875 
Q 18.109375 38.921875 18.109375 30.90625 
L 18.109375 0 
L 9.078125 0 
L 9.078125 75.984375 
L 18.109375 75.984375 
L 18.109375 46.1875 
Q 21.34375 51.125 25.703125 53.5625 
Q 30.078125 56 35.796875 56 
Q 45.21875 56 50.046875 50.171875 
Q 54.890625 44.34375 54.890625 33.015625 
z
" id="DejaVuSans-104"/>
      <path d="M 54.890625 33.015625 
L 54.890625 0 
L 45.90625 0 
L 45.90625 32.71875 
Q 45.90625 40.484375 42.875 44.328125 
Q 39.84375 48.1875 33.796875 48.1875 
Q 26.515625 48.1875 22.3125 43.546875 
Q 18.109375 38.921875 18.109375 30.90625 
L 18.109375 0 
L 9.078125 0 
L 9.078125 54.6875 
L 18.109375 54.6875 
L 18.109375 46.1875 
Q 21.34375 51.125 25.703125 53.5625 
Q 30.078125 56 35.796875 56 
Q 45.21875 56 50.046875 50.171875 
Q 54.890625 44.34375 54.890625 33.015625 
z
" id="DejaVuSans-110"/>
      <path d="M 45.40625 27.984375 
Q 45.40625 37.75 41.375 43.109375 
Q 37.359375 48.484375 30.078125 48.484375 
Q 22.859375 48.484375 18.828125 43.109375 
Q 14.796875 37.75 14.796875 27.984375 
Q 14.796875 18.265625 18.828125 12.890625 
Q 22.859375 7.515625 30.078125 7.515625 
Q 37.359375 7.515625 41.375 12.890625 
Q 45.40625 18.265625 45.40625 27.984375 
z
M 54.390625 6.78125 
Q 54.390625 -7.171875 48.1875 -13.984375 
Q 42 -20.796875 29.203125 -20.796875 
Q 24.46875 -20.796875 20.265625 -20.09375 
Q 16.0625 -19.390625 12.109375 -17.921875 
L 12.109375 -9.1875 
Q 16.0625 -11.328125 19.921875 -12.34375 
Q 23.78125 -13.375 27.78125 -13.375 
Q 36.625 -13.375 41.015625 -8.765625 
Q 45.40625 -4.15625 45.40625 5.171875 
L 45.40625 9.625 
Q 42.625 4.78125 38.28125 2.390625 
Q 33.9375 0 27.875 0 
Q 17.828125 0 11.671875 7.65625 
Q 5.515625 15.328125 5.515625 27.984375 
Q 5.515625 40.671875 11.671875 48.328125 
Q 17.828125 56 27.875 56 
Q 33.9375 56 38.28125 53.609375 
Q 42.625 51.21875 45.40625 46.390625 
L 45.40625 54.6875 
L 54.390625 54.6875 
z
" id="DejaVuSans-103"/>
      <path d="M 56.203125 29.59375 
L 56.203125 25.203125 
L 14.890625 25.203125 
Q 15.484375 15.921875 20.484375 11.0625 
Q 25.484375 6.203125 34.421875 6.203125 
Q 39.59375 6.203125 44.453125 7.46875 
Q 49.3125 8.734375 54.109375 11.28125 
L 54.109375 2.78125 
Q 49.265625 0.734375 44.1875 -0.34375 
Q 39.109375 -1.421875 33.890625 -1.421875 
Q 20.796875 -1.421875 13.15625 6.1875 
Q 5.515625 13.8125 5.515625 26.8125 
Q 5.515625 40.234375 12.765625 48.109375 
Q 20.015625 56 32.328125 56 
Q 43.359375 56 49.78125 48.890625 
Q 56.203125 41.796875 56.203125 29.59375 
z
M 47.21875 32.234375 
Q 47.125 39.59375 43.09375 43.984375 
Q 39.0625 48.390625 32.421875 48.390625 
Q 24.90625 48.390625 20.390625 44.140625 
Q 15.875 39.890625 15.1875 32.171875 
z
" id="DejaVuSans-101"/>
     </defs>
     <g style="fill:#555555;" transform="translate(57.416875 127.909687)rotate(-90)scale(0.12 -0.12)">
      <use xlink:href="#DejaVuSans-100"/>
      <use x="63.476562" xlink:href="#DejaVuSans-97"/>
      <use x="124.755859" xlink:href="#DejaVuSans-105"/>
      <use x="152.539062" xlink:href="#DejaVuSans-108"/>
      <use x="180.322266" xlink:href="#DejaVuSans-121"/>
      <use x="239.501953" xlink:href="#DejaVuSans-32"/>
      <use x="271.289062" xlink:href="#DejaVuSans-99"/>
      <use x="326.269531" xlink:href="#DejaVuSans-104"/>
      <use x="389.648438" xlink:href="#DejaVuSans-97"/>
      <use x="450.927734" xlink:href="#DejaVuSans-110"/>
      <use x="514.306641" xlink:href="#DejaVuSans-103"/>
      <use x="577.783203" xlink:href="#DejaVuSans-101"/>
     </g>
    </g>
   </g>
   <g id="patch_3">
    <path clip-path="url(#p9ccb67a216)" d="M 116.772727 157.5 
L 118.651515 157.5 
L 118.651515 157.5 
L 116.772727 157.5 
z
" style="fill:#348abd;opacity:0.2;"/>
   </g>
   <g id="patch_4">
    <path clip-path="url(#p9ccb67a216)" d="M 119.121212 157.5 
L 121 157.5 
L 121 157.34791 
L 119.121212 157.34791 
z
" style="fill:#348abd;opacity:0.2;"/>
   </g>
   <g id="patch_5">
    <path clip-path="url(#p9ccb67a216)" d="M 121.469697 157.5 
L 123.348485 157.5 
L 123.348485 157.5 
L 121.469697 157.5 
z
" style="fill:#348abd;opacity:0.2;"/>
   </g>
   <g id="patch_6">
    <path clip-path="url(#p9ccb67a216)" d="M 123.818182 157.5 
L 125.69697 157.5 
L 125.69697 157.34791 
L 123.818182 157.34791 
z
" style="fill:#348abd;opacity:0.2;"/>
   </g>
   <g id="patch_7">
    <path clip-path="url(#p9ccb67a216)" d="M 126.166667 157.5 
L 128.045455 157.5 
L 128.045455 157.34791 
L 126.166667 157.34791 
z
" style="fill:#348abd;opacity:0.2;"/>
   </g>
   <g id="patch_8">
    <path clip-path="url(#p9ccb67a216)" d="M 128.515152 157.5 
L 130.393939 157.5 
L 130.393939 157.5 
L 128.515152 157.5 
z
" style="fill:#348abd;opacity:0.2;"/>
   </g>
   <g id="patch_9">
    <path clip-path="url(#p9ccb67a216)" d="M 130.863636 157.5 
L 132.742424 157.5 
L 132.742424 157.5 
L 130.863636 157.5 
z
" style="fill:#348abd;opacity:0.2;"/>
   </g>
   <g id="patch_10">
    <path clip-path="url(#p9ccb67a216)" d="M 133.212121 157.5 
L 135.090909 157.5 
L 135.090909 157.5 
L 133.212121 157.5 
z
" style="fill:#348abd;opacity:0.2;"/>
   </g>
   <g id="patch_11">
    <path clip-path="url(#p9ccb67a216)" d="M 135.560606 157.5 
L 137.439394 157.5 
L 137.439394 156.43537 
L 135.560606 156.43537 
z
" style="fill:#348abd;opacity:0.2;"/>
   </g>
   <g id="patch_12">
    <path clip-path="url(#p9ccb67a216)" d="M 137.909091 157.5 
L 139.787879 157.5 
L 139.787879 157.34791 
L 137.909091 157.34791 
z
" style="fill:#348abd;opacity:0.2;"/>
   </g>
   <g id="patch_13">
    <path clip-path="url(#p9ccb67a216)" d="M 140.257576 157.5 
L 142.136364 157.5 
L 142.136364 157.04373 
L 140.257576 157.04373 
z
" style="fill:#348abd;opacity:0.2;"/>
   </g>
   <g id="patch_14">
    <path clip-path="url(#p9ccb67a216)" d="M 142.606061 157.5 
L 144.484848 157.5 
L 144.484848 157.5 
L 142.606061 157.5 
z
" style="fill:#348abd;opacity:0.2;"/>
   </g>
   <g id="patch_15">
    <path clip-path="url(#p9ccb67a216)" d="M 144.954545 157.5 
L 146.833333 157.5 
L 146.833333 157.34791 
L 144.954545 157.34791 
z
" style="fill:#348abd;opacity:0.2;"/>
   </g>
   <g id="patch_16">
    <path clip-path="url(#p9ccb67a216)" d="M 147.30303 157.5 
L 149.181818 157.5 
L 149.181818 157.04373 
L 147.30303 157.04373 
z
" style="fill:#348abd;opacity:0.2;"/>
   </g>
   <g id="patch_17">
    <path clip-path="url(#p9ccb67a216)" d="M 149.651515 157.5 
L 151.530303 157.5 
L 151.530303 156.89164 
L 149.651515 156.89164 
z
" style="fill:#348abd;opacity:0.2;"/>
   </g>
   <g id="patch_18">
    <path clip-path="url(#p9ccb67a216)" d="M 152 157.5 
L 153.878788 157.5 
L 153.878788 157.34791 
L 152 157.34791 
z
" style="fill:#348abd;opacity:0.2;"/>
   </g>
   <g id="patch_19">
    <path clip-path="url(#p9ccb67a216)" d="M 154.348485 157.5 
L 156.227273 157.5 
L 156.227273 157.5 
L 154.348485 157.5 
z
" style="fill:#348abd;opacity:0.2;"/>
   </g>
   <g id="patch_20">
    <path clip-path="url(#p9ccb67a216)" d="M 156.69697 157.5 
L 158.575758 157.5 
L 158.575758 157.34791 
L 156.69697 157.34791 
z
" style="fill:#348abd;opacity:0.2;"/>
   </g>
   <g id="patch_21">
    <path clip-path="url(#p9ccb67a216)" d="M 159.045455 157.5 
L 160.924242 157.5 
L 160.924242 157.19582 
L 159.045455 157.19582 
z
" style="fill:#348abd;opacity:0.2;"/>
   </g>
   <g id="patch_22">
    <path clip-path="url(#p9ccb67a216)" d="M 161.393939 157.5 
L 163.272727 157.5 
L 163.272727 157.34791 
L 161.393939 157.34791 
z
" style="fill:#348abd;opacity:0.2;"/>
   </g>
   <g id="patch_23">
    <path clip-path="url(#p9ccb67a216)" d="M 163.742424 157.5 
L 165.621212 157.5 
L 165.621212 157.5 
L 163.742424 157.5 
z
" style="fill:#348abd;opacity:0.2;"/>
   </g>
   <g id="patch_24">
    <path clip-path="url(#p9ccb67a216)" d="M 166.090909 157.5 
L 167.969697 157.5 
L 167.969697 157.5 
L 166.090909 157.5 
z
" style="fill:#348abd;opacity:0.2;"/>
   </g>
   <g id="patch_25">
    <path clip-path="url(#p9ccb67a216)" d="M 168.439394 157.5 
L 170.318182 157.5 
L 170.318182 157.5 
L 168.439394 157.5 
z
" style="fill:#348abd;opacity:0.2;"/>
   </g>
   <g id="patch_26">
    <path clip-path="url(#p9ccb67a216)" d="M 170.787879 157.5 
L 172.666667 157.5 
L 172.666667 157.5 
L 170.787879 157.5 
z
" style="fill:#348abd;opacity:0.2;"/>
   </g>
   <g id="patch_27">
    <path clip-path="url(#p9ccb67a216)" d="M 173.136364 157.5 
L 175.015152 157.5 
L 175.015152 157.34791 
L 173.136364 157.34791 
z
" style="fill:#348abd;opacity:0.2;"/>
   </g>
   <g id="patch_28">
    <path clip-path="url(#p9ccb67a216)" d="M 175.484848 157.5 
L 177.363636 157.5 
L 177.363636 157.34791 
L 175.484848 157.34791 
z
" style="fill:#348abd;opacity:0.2;"/>
   </g>
   <g id="patch_29">
    <path clip-path="url(#p9ccb67a216)" d="M 177.833333 157.5 
L 179.712121 157.5 
L 179.712121 157.34791 
L 177.833333 157.34791 
z
" style="fill:#348abd;opacity:0.2;"/>
   </g>
   <g id="patch_30">
    <path clip-path="url(#p9ccb67a216)" d="M 180.181818 157.5 
L 182.060606 157.5 
L 182.060606 157.5 
L 180.181818 157.5 
z
" style="fill:#348abd;opacity:0.2;"/>
   </g>
   <g id="patch_31">
    <path clip-path="url(#p9ccb67a216)" d="M 182.530303 157.5 
L 184.409091 157.5 
L 184.409091 146.397432 
L 182.530303 146.397432 
z
" style="fill:#348abd;opacity:0.2;"/>
   </g>
   <g id="patch_32">
    <path clip-path="url(#p9ccb67a216)" d="M 184.878788 157.5 
L 186.757576 157.5 
L 186.757576 142.291002 
L 184.878788 142.291002 
z
" style="fill:#348abd;opacity:0.2;"/>
   </g>
   <g id="patch_33">
    <path clip-path="url(#p9ccb67a216)" d="M 187.227273 157.5 
L 189.106061 157.5 
L 189.106061 122.671395 
L 187.227273 122.671395 
z
" style="fill:#348abd;opacity:0.2;"/>
   </g>
   <g id="patch_34">
    <path clip-path="url(#p9ccb67a216)" d="M 189.575758 157.5 
L 191.454545 157.5 
L 191.454545 131.796794 
L 189.575758 131.796794 
z
" style="fill:#348abd;opacity:0.2;"/>
   </g>
   <g id="patch_35">
    <path clip-path="url(#p9ccb67a216)" d="M 191.924242 157.5 
L 193.80303 157.5 
L 193.80303 122.367215 
L 191.924242 122.367215 
z
" style="fill:#348abd;opacity:0.2;"/>
   </g>
   <g id="patch_36">
    <path clip-path="url(#p9ccb67a216)" d="M 194.272727 157.5 
L 196.151515 157.5 
L 196.151515 135.599043 
L 194.272727 135.599043 
z
" style="fill:#348abd;opacity:0.2;"/>
   </g>
   <g id="patch_37">
    <path clip-path="url(#p9ccb67a216)" d="M 196.621212 157.5 
L 198.5 157.5 
L 198.5 114.306446 
L 196.621212 114.306446 
z
" style="fill:#348abd;opacity:0.2;"/>
   </g>
   <g id="patch_38">
    <path clip-path="url(#p9ccb67a216)" d="M 198.969697 157.5 
L 200.848485 157.5 
L 200.848485 80.694561 
L 198.969697 80.694561 
z
" style="fill:#348abd;opacity:0.2;"/>
   </g>
   <g id="patch_39">
    <path clip-path="url(#p9ccb67a216)" d="M 201.318182 157.5 
L 203.19697 157.5 
L 203.19697 70.656622 
L 201.318182 70.656622 
z
" style="fill:#348abd;opacity:0.2;"/>
   </g>
   <g id="patch_40">
    <path clip-path="url(#p9ccb67a216)" d="M 203.666667 157.5 
L 205.545455 157.5 
L 205.545455 33.850848 
L 203.666667 33.850848 
z
" style="fill:#348abd;opacity:0.2;"/>
   </g>
   <g id="patch_41">
    <path clip-path="url(#p9ccb67a216)" d="M 206.015152 157.5 
L 207.893939 157.5 
L 207.893939 68.375273 
L 206.015152 68.375273 
z
" style="fill:#348abd;opacity:0.2;"/>
   </g>
   <g id="patch_42">
    <path clip-path="url(#p9ccb67a216)" d="M 208.363636 157.5 
L 210.242424 157.5 
L 210.242424 66.398103 
L 208.363636 66.398103 
z
" style="fill:#348abd;opacity:0.2;"/>
   </g>
   <g id="patch_43">
    <path clip-path="url(#p9ccb67a216)" d="M 210.712121 157.5 
L 212.590909 157.5 
L 212.590909 28.071429 
L 210.712121 28.071429 
z
" style="fill:#348abd;opacity:0.2;"/>
   </g>
   <g id="patch_44">
    <path clip-path="url(#p9ccb67a216)" d="M 213.060606 157.5 
L 214.939394 157.5 
L 214.939394 91.340859 
L 213.060606 91.340859 
z
" style="fill:#348abd;opacity:0.2;"/>
   </g>
   <g id="patch_45">
    <path clip-path="url(#p9ccb67a216)" d="M 215.409091 157.5 
L 217.287879 157.5 
L 217.287879 86.47398 
L 215.409091 86.47398 
z
" style="fill:#348abd;opacity:0.2;"/>
   </g>
   <g id="patch_46">
    <path clip-path="url(#p9ccb67a216)" d="M 217.757576 157.5 
L 219.636364 157.5 
L 219.636364 80.694561 
L 217.757576 80.694561 
z
" style="fill:#348abd;opacity:0.2;"/>
   </g>
   <g id="patch_47">
    <path clip-path="url(#p9ccb67a216)" d="M 220.106061 157.5 
L 221.984848 157.5 
L 221.984848 89.36369 
L 220.106061 89.36369 
z
" style="fill:#348abd;opacity:0.2;"/>
   </g>
   <g id="patch_48">
    <path clip-path="url(#p9ccb67a216)" d="M 222.454545 157.5 
L 224.333333 157.5 
L 224.333333 115.979436 
L 222.454545 115.979436 
z
" style="fill:#348abd;opacity:0.2;"/>
   </g>
   <g id="patch_49">
    <path clip-path="url(#p9ccb67a216)" d="M 224.80303 157.5 
L 226.681818 157.5 
L 226.681818 132.557244 
L 224.80303 132.557244 
z
" style="fill:#348abd;opacity:0.2;"/>
   </g>
   <g id="patch_50">
    <path clip-path="url(#p9ccb67a216)" d="M 227.151515 157.5 
L 229.030303 157.5 
L 229.030303 152.176851 
L 227.151515 152.176851 
z
" style="fill:#348abd;opacity:0.2;"/>
   </g>
   <g id="patch_51">
    <path clip-path="url(#p9ccb67a216)" d="M 229.5 157.5 
L 231.378788 157.5 
L 231.378788 120.694225 
L 229.5 120.694225 
z
" style="fill:#348abd;opacity:0.2;"/>
   </g>
   <g id="patch_52">
    <path clip-path="url(#p9ccb67a216)" d="M 231.848485 157.5 
L 233.727273 157.5 
L 233.727273 140.161742 
L 231.848485 140.161742 
z
" style="fill:#348abd;opacity:0.2;"/>
   </g>
   <g id="patch_53">
    <path clip-path="url(#p9ccb67a216)" d="M 234.19697 157.5 
L 236.075758 157.5 
L 236.075758 140.770102 
L 234.19697 140.770102 
z
" style="fill:#348abd;opacity:0.2;"/>
   </g>
   <g id="patch_54">
    <path clip-path="url(#p9ccb67a216)" d="M 236.545455 157.5 
L 238.424242 157.5 
L 238.424242 141.226372 
L 236.545455 141.226372 
z
" style="fill:#348abd;opacity:0.2;"/>
   </g>
   <g id="patch_55">
    <path clip-path="url(#p9ccb67a216)" d="M 238.893939 157.5 
L 240.772727 157.5 
L 240.772727 145.941162 
L 238.893939 145.941162 
z
" style="fill:#348abd;opacity:0.2;"/>
   </g>
   <g id="patch_56">
    <path clip-path="url(#p9ccb67a216)" d="M 241.242424 157.5 
L 243.121212 157.5 
L 243.121212 146.245342 
L 241.242424 146.245342 
z
" style="fill:#348abd;opacity:0.2;"/>
   </g>
   <g id="patch_57">
    <path clip-path="url(#p9ccb67a216)" d="M 243.590909 157.5 
L 245.469697 157.5 
L 245.469697 144.724442 
L 243.590909 144.724442 
z
" style="fill:#348abd;opacity:0.2;"/>
   </g>
   <g id="patch_58">
    <path clip-path="url(#p9ccb67a216)" d="M 245.939394 157.5 
L 247.818182 157.5 
L 247.818182 143.355632 
L 245.939394 143.355632 
z
" style="fill:#348abd;opacity:0.2;"/>
   </g>
   <g id="patch_59">
    <path clip-path="url(#p9ccb67a216)" d="M 248.287879 157.5 
L 250.166667 157.5 
L 250.166667 134.382323 
L 248.287879 134.382323 
z
" style="fill:#348abd;opacity:0.2;"/>
   </g>
   <g id="patch_60">
    <path clip-path="url(#p9ccb67a216)" d="M 250.636364 157.5 
L 252.515152 157.5 
L 252.515152 144.268172 
L 250.636364 144.268172 
z
" style="fill:#348abd;opacity:0.2;"/>
   </g>
   <g id="patch_61">
    <path clip-path="url(#p9ccb67a216)" d="M 252.984848 157.5 
L 254.863636 157.5 
L 254.863636 135.142773 
L 252.984848 135.142773 
z
" style="fill:#348abd;opacity:0.2;"/>
   </g>
   <g id="patch_62">
    <path clip-path="url(#p9ccb67a216)" d="M 255.333333 157.5 
L 257.212121 157.5 
L 257.212121 132.861424 
L 255.333333 132.861424 
z
" style="fill:#348abd;opacity:0.2;"/>
   </g>
   <g id="patch_63">
    <path clip-path="url(#p9ccb67a216)" d="M 257.681818 157.5 
L 259.560606 157.5 
L 259.560606 157.5 
L 257.681818 157.5 
z
" style="fill:#348abd;opacity:0.2;"/>
   </g>
   <g id="patch_64">
    <path clip-path="url(#p9ccb67a216)" d="M 260.030303 157.5 
L 261.909091 157.5 
L 261.909091 145.941162 
L 260.030303 145.941162 
z
" style="fill:#348abd;opacity:0.2;"/>
   </g>
   <g id="patch_65">
    <path clip-path="url(#p9ccb67a216)" d="M 262.378788 157.5 
L 264.257576 157.5 
L 264.257576 142.291002 
L 262.378788 142.291002 
z
" style="fill:#348abd;opacity:0.2;"/>
   </g>
   <g id="patch_66">
    <path clip-path="url(#p9ccb67a216)" d="M 264.727273 157.5 
L 266.606061 157.5 
L 266.606061 141.682642 
L 264.727273 141.682642 
z
" style="fill:#348abd;opacity:0.2;"/>
   </g>
   <g id="patch_67">
    <path clip-path="url(#p9ccb67a216)" d="M 267.075758 157.5 
L 268.954545 157.5 
L 268.954545 143.659812 
L 267.075758 143.659812 
z
" style="fill:#348abd;opacity:0.2;"/>
   </g>
   <g id="patch_68">
    <path clip-path="url(#p9ccb67a216)" d="M 269.424242 157.5 
L 271.30303 157.5 
L 271.30303 135.294863 
L 269.424242 135.294863 
z
" style="fill:#348abd;opacity:0.2;"/>
   </g>
   <g id="patch_69">
    <path clip-path="url(#p9ccb67a216)" d="M 271.772727 157.5 
L 273.651515 157.5 
L 273.651515 141.530552 
L 271.772727 141.530552 
z
" style="fill:#348abd;opacity:0.2;"/>
   </g>
   <g id="patch_70">
    <path clip-path="url(#p9ccb67a216)" d="M 274.121212 157.5 
L 276 157.5 
L 276 145.636982 
L 274.121212 145.636982 
z
" style="fill:#348abd;opacity:0.2;"/>
   </g>
   <g id="patch_71">
    <path clip-path="url(#p9ccb67a216)" d="M 276.469697 157.5 
L 278.348485 157.5 
L 278.348485 138.488753 
L 276.469697 138.488753 
z
" style="fill:#348abd;opacity:0.2;"/>
   </g>
   <g id="patch_72">
    <path clip-path="url(#p9ccb67a216)" d="M 278.818182 157.5 
L 280.69697 157.5 
L 280.69697 142.138912 
L 278.818182 142.138912 
z
" style="fill:#348abd;opacity:0.2;"/>
   </g>
   <g id="patch_73">
    <path clip-path="url(#p9ccb67a216)" d="M 281.166667 157.5 
L 283.045455 157.5 
L 283.045455 143.963992 
L 281.166667 143.963992 
z
" style="fill:#348abd;opacity:0.2;"/>
   </g>
   <g id="patch_74">
    <path clip-path="url(#p9ccb67a216)" d="M 283.515152 157.5 
L 285.393939 157.5 
L 285.393939 144.420262 
L 283.515152 144.420262 
z
" style="fill:#348abd;opacity:0.2;"/>
   </g>
   <g id="patch_75">
    <path clip-path="url(#p9ccb67a216)" d="M 285.863636 157.5 
L 287.742424 157.5 
L 287.742424 143.203542 
L 285.863636 143.203542 
z
" style="fill:#348abd;opacity:0.2;"/>
   </g>
   <g id="patch_76">
    <path clip-path="url(#p9ccb67a216)" d="M 288.212121 157.5 
L 290.090909 157.5 
L 290.090909 145.180712 
L 288.212121 145.180712 
z
" style="fill:#348abd;opacity:0.2;"/>
   </g>
   <g id="patch_77">
    <path clip-path="url(#p9ccb67a216)" d="M 290.560606 157.5 
L 292.439394 157.5 
L 292.439394 150.351771 
L 290.560606 150.351771 
z
" style="fill:#348abd;opacity:0.2;"/>
   </g>
   <g id="patch_78">
    <path clip-path="url(#p9ccb67a216)" d="M 292.909091 157.5 
L 294.787879 157.5 
L 294.787879 150.351771 
L 292.909091 150.351771 
z
" style="fill:#348abd;opacity:0.2;"/>
   </g>
   <g id="patch_79">
    <path clip-path="url(#p9ccb67a216)" d="M 295.257576 157.5 
L 297.136364 157.5 
L 297.136364 149.439231 
L 295.257576 149.439231 
z
" style="fill:#348abd;opacity:0.2;"/>
   </g>
   <g id="patch_80">
    <path clip-path="url(#p9ccb67a216)" d="M 297.606061 157.5 
L 299.484848 157.5 
L 299.484848 151.568491 
L 297.606061 151.568491 
z
" style="fill:#348abd;opacity:0.2;"/>
   </g>
   <g id="patch_81">
    <path clip-path="url(#p9ccb67a216)" d="M 299.954545 157.5 
L 301.833333 157.5 
L 301.833333 153.393571 
L 299.954545 153.393571 
z
" style="fill:#348abd;opacity:0.2;"/>
   </g>
   <g id="patch_82">
    <path clip-path="url(#p9ccb67a216)" d="M 302.30303 157.5 
L 304.181818 157.5 
L 304.181818 152.937301 
L 302.30303 152.937301 
z
" style="fill:#348abd;opacity:0.2;"/>
   </g>
   <g id="patch_83">
    <path clip-path="url(#p9ccb67a216)" d="M 304.651515 157.5 
L 306.530303 157.5 
L 306.530303 152.633121 
L 304.651515 152.633121 
z
" style="fill:#348abd;opacity:0.2;"/>
   </g>
   <g id="patch_84">
    <path clip-path="url(#p9ccb67a216)" d="M 307 157.5 
L 308.878788 157.5 
L 308.878788 153.697751 
L 307 153.697751 
z
" style="fill:#348abd;opacity:0.2;"/>
   </g>
   <g id="patch_85">
    <path clip-path="url(#p9ccb67a216)" d="M 309.348485 157.5 
L 311.227273 157.5 
L 311.227273 153.393571 
L 309.348485 153.393571 
z
" style="fill:#348abd;opacity:0.2;"/>
   </g>
   <g id="patch_86">
    <path clip-path="url(#p9ccb67a216)" d="M 311.69697 157.5 
L 313.575758 157.5 
L 313.575758 153.393571 
L 311.69697 153.393571 
z
" style="fill:#348abd;opacity:0.2;"/>
   </g>
   <g id="patch_87">
    <path clip-path="url(#p9ccb67a216)" d="M 314.045455 157.5 
L 315.924242 157.5 
L 315.924242 154.15402 
L 314.045455 154.15402 
z
" style="fill:#348abd;opacity:0.2;"/>
   </g>
   <g id="patch_88">
    <path clip-path="url(#p9ccb67a216)" d="M 316.393939 157.5 
L 318.272727 157.5 
L 318.272727 154.15402 
L 316.393939 154.15402 
z
" style="fill:#348abd;opacity:0.2;"/>
   </g>
   <g id="patch_89">
    <path clip-path="url(#p9ccb67a216)" d="M 318.742424 157.5 
L 320.621212 157.5 
L 320.621212 154.76238 
L 318.742424 154.76238 
z
" style="fill:#348abd;opacity:0.2;"/>
   </g>
   <g id="patch_90">
    <path clip-path="url(#p9ccb67a216)" d="M 321.090909 157.5 
L 322.969697 157.5 
L 322.969697 156.28328 
L 321.090909 156.28328 
z
" style="fill:#348abd;opacity:0.2;"/>
   </g>
   <g id="patch_91">
    <path clip-path="url(#p9ccb67a216)" d="M 323.439394 157.5 
L 325.318182 157.5 
L 325.318182 155.52283 
L 323.439394 155.52283 
z
" style="fill:#348abd;opacity:0.2;"/>
   </g>
   <g id="patch_92">
    <path clip-path="url(#p9ccb67a216)" d="M 325.787879 157.5 
L 327.666667 157.5 
L 327.666667 156.13119 
L 325.787879 156.13119 
z
" style="fill:#348abd;opacity:0.2;"/>
   </g>
   <g id="patch_93">
    <path clip-path="url(#p9ccb67a216)" d="M 328.136364 157.5 
L 330.015152 157.5 
L 330.015152 155.82701 
L 328.136364 155.82701 
z
" style="fill:#348abd;opacity:0.2;"/>
   </g>
   <g id="patch_94">
    <path clip-path="url(#p9ccb67a216)" d="M 330.484848 157.5 
L 332.363636 157.5 
L 332.363636 155.37074 
L 330.484848 155.37074 
z
" style="fill:#348abd;opacity:0.2;"/>
   </g>
   <g id="patch_95">
    <path clip-path="url(#p9ccb67a216)" d="M 332.833333 157.5 
L 334.712121 157.5 
L 334.712121 155.9791 
L 332.833333 155.9791 
z
" style="fill:#348abd;opacity:0.2;"/>
   </g>
   <g id="patch_96">
    <path clip-path="url(#p9ccb67a216)" d="M 335.181818 157.5 
L 337.060606 157.5 
L 337.060606 155.9791 
L 335.181818 155.9791 
z
" style="fill:#348abd;opacity:0.2;"/>
   </g>
   <g id="patch_97">
    <path clip-path="url(#p9ccb67a216)" d="M 337.530303 157.5 
L 339.409091 157.5 
L 339.409091 155.9791 
L 337.530303 155.9791 
z
" style="fill:#348abd;opacity:0.2;"/>
   </g>
   <g id="patch_98">
    <path clip-path="url(#p9ccb67a216)" d="M 339.878788 157.5 
L 341.757576 157.5 
L 341.757576 155.37074 
L 339.878788 155.37074 
z
" style="fill:#348abd;opacity:0.2;"/>
   </g>
   <g id="patch_99">
    <path clip-path="url(#p9ccb67a216)" d="M 342.227273 157.5 
L 344.106061 157.5 
L 344.106061 156.13119 
L 342.227273 156.13119 
z
" style="fill:#348abd;opacity:0.2;"/>
   </g>
   <g id="patch_100">
    <path clip-path="url(#p9ccb67a216)" d="M 344.575758 157.5 
L 346.454545 157.5 
L 346.454545 156.89164 
L 344.575758 156.89164 
z
" style="fill:#348abd;opacity:0.2;"/>
   </g>
   <g id="patch_101">
    <path clip-path="url(#p9ccb67a216)" d="M 346.924242 157.5 
L 348.80303 157.5 
L 348.80303 156.13119 
L 346.924242 156.13119 
z
" style="fill:#348abd;opacity:0.2;"/>
   </g>
   <g id="patch_102">
    <path clip-path="url(#p9ccb67a216)" d="M 349.272727 157.5 
L 351.151515 157.5 
L 351.151515 156.58746 
L 349.272727 156.58746 
z
" style="fill:#348abd;opacity:0.2;"/>
   </g>
   <g id="patch_103">
    <path clip-path="url(#p9ccb67a216)" d="M 351.621212 157.5 
L 353.5 157.5 
L 353.5 155.52283 
L 351.621212 155.52283 
z
" style="fill:#348abd;opacity:0.2;"/>
   </g>
   <g id="patch_104">
    <path clip-path="url(#p9ccb67a216)" d="M 353.969697 157.5 
L 355.848485 157.5 
L 355.848485 156.28328 
L 353.969697 156.28328 
z
" style="fill:#348abd;opacity:0.2;"/>
   </g>
   <g id="patch_105">
    <path clip-path="url(#p9ccb67a216)" d="M 356.318182 157.5 
L 358.19697 157.5 
L 358.19697 157.04373 
L 356.318182 157.04373 
z
" style="fill:#348abd;opacity:0.2;"/>
   </g>
   <g id="patch_106">
    <path clip-path="url(#p9ccb67a216)" d="M 358.666667 157.5 
L 360.545455 157.5 
L 360.545455 157.19582 
L 358.666667 157.19582 
z
" style="fill:#348abd;opacity:0.2;"/>
   </g>
   <g id="patch_107">
    <path clip-path="url(#p9ccb67a216)" d="M 361.015152 157.5 
L 362.893939 157.5 
L 362.893939 156.89164 
L 361.015152 156.89164 
z
" style="fill:#348abd;opacity:0.2;"/>
   </g>
   <g id="patch_108">
    <path clip-path="url(#p9ccb67a216)" d="M 363.363636 157.5 
L 365.242424 157.5 
L 365.242424 155.67492 
L 363.363636 155.67492 
z
" style="fill:#348abd;opacity:0.2;"/>
   </g>
   <g id="patch_109">
    <path clip-path="url(#p9ccb67a216)" d="M 365.712121 157.5 
L 367.590909 157.5 
L 367.590909 154.76238 
L 365.712121 154.76238 
z
" style="fill:#348abd;opacity:0.2;"/>
   </g>
   <g id="patch_110">
    <path clip-path="url(#p9ccb67a216)" d="M 368.060606 157.5 
L 369.939394 157.5 
L 369.939394 152.328941 
L 368.060606 152.328941 
z
" style="fill:#348abd;opacity:0.2;"/>
   </g>
   <g id="patch_111">
    <path clip-path="url(#p9ccb67a216)" d="M 370.409091 157.5 
L 372.287879 157.5 
L 372.287879 152.176851 
L 370.409091 152.176851 
z
" style="fill:#348abd;opacity:0.2;"/>
   </g>
   <g id="patch_112">
    <path clip-path="url(#p9ccb67a216)" d="M 372.757576 157.5 
L 374.636364 157.5 
L 374.636364 153.393571 
L 372.757576 153.393571 
z
" style="fill:#348abd;opacity:0.2;"/>
   </g>
   <g id="patch_113">
    <path clip-path="url(#p9ccb67a216)" d="M 375.106061 157.5 
L 376.984848 157.5 
L 376.984848 153.545661 
L 375.106061 153.545661 
z
" style="fill:#348abd;opacity:0.2;"/>
   </g>
   <g id="patch_114">
    <path clip-path="url(#p9ccb67a216)" d="M 377.454545 157.5 
L 379.333333 157.5 
L 379.333333 153.089391 
L 377.454545 153.089391 
z
" style="fill:#348abd;opacity:0.2;"/>
   </g>
   <g id="patch_115">
    <path clip-path="url(#p9ccb67a216)" d="M 379.80303 157.5 
L 381.681818 157.5 
L 381.681818 153.393571 
L 379.80303 153.393571 
z
" style="fill:#348abd;opacity:0.2;"/>
   </g>
   <g id="patch_116">
    <path clip-path="url(#p9ccb67a216)" d="M 382.151515 157.5 
L 384.030303 157.5 
L 384.030303 154.61029 
L 382.151515 154.61029 
z
" style="fill:#348abd;opacity:0.2;"/>
   </g>
   <g id="patch_117">
    <path clip-path="url(#p9ccb67a216)" d="M 384.5 157.5 
L 386.378788 157.5 
L 386.378788 155.52283 
L 384.5 155.52283 
z
" style="fill:#348abd;opacity:0.2;"/>
   </g>
   <g id="patch_118">
    <path clip-path="url(#p9ccb67a216)" d="M 386.848485 157.5 
L 388.727273 157.5 
L 388.727273 155.21865 
L 386.848485 155.21865 
z
" style="fill:#348abd;opacity:0.2;"/>
   </g>
   <g id="patch_119">
    <path clip-path="url(#p9ccb67a216)" d="M 389.19697 157.5 
L 391.075758 157.5 
L 391.075758 155.52283 
L 389.19697 155.52283 
z
" style="fill:#348abd;opacity:0.2;"/>
   </g>
   <g id="patch_120">
    <path clip-path="url(#p9ccb67a216)" d="M 391.545455 157.5 
L 393.424242 157.5 
L 393.424242 152.633121 
L 391.545455 152.633121 
z
" style="fill:#348abd;opacity:0.2;"/>
   </g>
   <g id="patch_121">
    <path clip-path="url(#p9ccb67a216)" d="M 393.893939 157.5 
L 395.772727 157.5 
L 395.772727 155.67492 
L 393.893939 155.67492 
z
" style="fill:#348abd;opacity:0.2;"/>
   </g>
   <g id="patch_122">
    <path clip-path="url(#p9ccb67a216)" d="M 396.242424 157.5 
L 398.121212 157.5 
L 398.121212 154.4582 
L 396.242424 154.4582 
z
" style="fill:#348abd;opacity:0.2;"/>
   </g>
   <g id="patch_123">
    <path clip-path="url(#p9ccb67a216)" d="M 398.590909 157.5 
L 400.469697 157.5 
L 400.469697 154.001931 
L 398.590909 154.001931 
z
" style="fill:#348abd;opacity:0.2;"/>
   </g>
   <g id="patch_124">
    <path clip-path="url(#p9ccb67a216)" d="M 400.939394 157.5 
L 402.818182 157.5 
L 402.818182 153.697751 
L 400.939394 153.697751 
z
" style="fill:#348abd;opacity:0.2;"/>
   </g>
   <g id="patch_125">
    <path clip-path="url(#p9ccb67a216)" d="M 403.287879 157.5 
L 405.166667 157.5 
L 405.166667 155.06656 
L 403.287879 155.06656 
z
" style="fill:#348abd;opacity:0.2;"/>
   </g>
   <g id="patch_126">
    <path clip-path="url(#p9ccb67a216)" d="M 405.636364 157.5 
L 407.515152 157.5 
L 407.515152 154.61029 
L 405.636364 154.61029 
z
" style="fill:#348abd;opacity:0.2;"/>
   </g>
   <g id="patch_127">
    <path clip-path="url(#p9ccb67a216)" d="M 407.984848 157.5 
L 409.863636 157.5 
L 409.863636 151.416401 
L 407.984848 151.416401 
z
" style="fill:#348abd;opacity:0.2;"/>
   </g>
   <g id="patch_128">
    <path clip-path="url(#p9ccb67a216)" d="M 410.333333 157.5 
L 412.212121 157.5 
L 412.212121 145.484892 
L 410.333333 145.484892 
z
" style="fill:#348abd;opacity:0.2;"/>
   </g>
   <g id="patch_129">
    <path clip-path="url(#p9ccb67a216)" d="M 412.681818 157.5 
L 414.560606 157.5 
L 414.560606 148.678781 
L 412.681818 148.678781 
z
" style="fill:#348abd;opacity:0.2;"/>
   </g>
   <g id="patch_130">
    <path clip-path="url(#p9ccb67a216)" d="M 415.030303 157.5 
L 416.909091 157.5 
L 416.909091 151.568491 
L 415.030303 151.568491 
z
" style="fill:#348abd;opacity:0.2;"/>
   </g>
   <g id="patch_131">
    <path clip-path="url(#p9ccb67a216)" d="M 417.378788 157.5 
L 419.257576 157.5 
L 419.257576 153.393571 
L 417.378788 153.393571 
z
" style="fill:#348abd;opacity:0.2;"/>
   </g>
   <g id="patch_132">
    <path clip-path="url(#p9ccb67a216)" d="M 419.727273 157.5 
L 421.606061 157.5 
L 421.606061 152.176851 
L 419.727273 152.176851 
z
" style="fill:#348abd;opacity:0.2;"/>
   </g>
   <g id="patch_133">
    <path clip-path="url(#p9ccb67a216)" d="M 422.075758 157.5 
L 423.954545 157.5 
L 423.954545 151.720581 
L 422.075758 151.720581 
z
" style="fill:#348abd;opacity:0.2;"/>
   </g>
   <g id="patch_134">
    <path clip-path="url(#p9ccb67a216)" d="M 424.424242 157.5 
L 426.30303 157.5 
L 426.30303 150.047591 
L 424.424242 150.047591 
z
" style="fill:#348abd;opacity:0.2;"/>
   </g>
   <g id="patch_135">
    <path clip-path="url(#p9ccb67a216)" d="M 426.772727 157.5 
L 428.651515 157.5 
L 428.651515 151.568491 
L 426.772727 151.568491 
z
" style="fill:#348abd;opacity:0.2;"/>
   </g>
   <g id="patch_136">
    <path clip-path="url(#p9ccb67a216)" d="M 429.121212 157.5 
L 431 157.5 
L 431 151.568491 
L 429.121212 151.568491 
z
" style="fill:#348abd;opacity:0.2;"/>
   </g>
   <g id="patch_137">
    <path clip-path="url(#p9ccb67a216)" d="M 431.469697 157.5 
L 433.348485 157.5 
L 433.348485 149.743411 
L 431.469697 149.743411 
z
" style="fill:#348abd;opacity:0.2;"/>
   </g>
   <g id="patch_138">
    <path clip-path="url(#p9ccb67a216)" d="M 433.818182 157.5 
L 435.69697 157.5 
L 435.69697 148.830871 
L 433.818182 148.830871 
z
" style="fill:#348abd;opacity:0.2;"/>
   </g>
   <g id="patch_139">
    <path clip-path="url(#p9ccb67a216)" d="M 436.166667 157.5 
L 438.045455 157.5 
L 438.045455 151.720581 
L 436.166667 151.720581 
z
" style="fill:#348abd;opacity:0.2;"/>
   </g>
   <g id="patch_140">
    <path clip-path="url(#p9ccb67a216)" d="M 438.515152 157.5 
L 440.393939 157.5 
L 440.393939 151.720581 
L 438.515152 151.720581 
z
" style="fill:#348abd;opacity:0.2;"/>
   </g>
   <g id="patch_141">
    <path clip-path="url(#p9ccb67a216)" d="M 440.863636 157.5 
L 442.742424 157.5 
L 442.742424 149.895501 
L 440.863636 149.895501 
z
" style="fill:#348abd;opacity:0.2;"/>
   </g>
   <g id="patch_142">
    <path clip-path="url(#p9ccb67a216)" d="M 443.212121 157.5 
L 445.090909 157.5 
L 445.090909 150.655951 
L 443.212121 150.655951 
z
" style="fill:#348abd;opacity:0.2;"/>
   </g>
   <g id="patch_143">
    <path clip-path="url(#p9ccb67a216)" d="M 445.560606 157.5 
L 447.439394 157.5 
L 447.439394 148.982961 
L 445.560606 148.982961 
z
" style="fill:#348abd;opacity:0.2;"/>
   </g>
   <g id="patch_144">
    <path clip-path="url(#p9ccb67a216)" d="M 447.909091 157.5 
L 449.787879 157.5 
L 449.787879 150.199681 
L 447.909091 150.199681 
z
" style="fill:#348abd;opacity:0.2;"/>
   </g>
   <g id="patch_145">
    <path clip-path="url(#p9ccb67a216)" d="M 450.257576 157.5 
L 452.136364 157.5 
L 452.136364 152.328941 
L 450.257576 152.328941 
z
" style="fill:#348abd;opacity:0.2;"/>
   </g>
   <g id="patch_146">
    <path clip-path="url(#p9ccb67a216)" d="M 452.606061 157.5 
L 454.484848 157.5 
L 454.484848 152.024761 
L 452.606061 152.024761 
z
" style="fill:#348abd;opacity:0.2;"/>
   </g>
   <g id="patch_147">
    <path clip-path="url(#p9ccb67a216)" d="M 454.954545 157.5 
L 456.833333 157.5 
L 456.833333 152.328941 
L 454.954545 152.328941 
z
" style="fill:#348abd;opacity:0.2;"/>
   </g>
   <g id="patch_148">
    <path clip-path="url(#p9ccb67a216)" d="M 457.30303 157.5 
L 459.181818 157.5 
L 459.181818 150.960131 
L 457.30303 150.960131 
z
" style="fill:#348abd;opacity:0.2;"/>
   </g>
   <g id="patch_149">
    <path clip-path="url(#p9ccb67a216)" d="M 459.651515 157.5 
L 461.530303 157.5 
L 461.530303 148.526691 
L 459.651515 148.526691 
z
" style="fill:#348abd;opacity:0.2;"/>
   </g>
   <g id="patch_150">
    <path clip-path="url(#p9ccb67a216)" d="M 462 157.5 
L 463.878788 157.5 
L 463.878788 150.047591 
L 462 150.047591 
z
" style="fill:#348abd;opacity:0.2;"/>
   </g>
   <g id="patch_151">
    <path clip-path="url(#p9ccb67a216)" d="M 464.348485 157.5 
L 466.227273 157.5 
L 466.227273 147.309971 
L 464.348485 147.309971 
z
" style="fill:#348abd;opacity:0.2;"/>
   </g>
   <g id="patch_152">
    <path clip-path="url(#p9ccb67a216)" d="M 466.69697 157.5 
L 468.575758 157.5 
L 468.575758 150.199681 
L 466.69697 150.199681 
z
" style="fill:#348abd;opacity:0.2;"/>
   </g>
   <g id="patch_153">
    <path clip-path="url(#p9ccb67a216)" d="M 469.045455 157.5 
L 470.924242 157.5 
L 470.924242 154.91447 
L 469.045455 154.91447 
z
" style="fill:#348abd;opacity:0.2;"/>
   </g>
   <g id="patch_154">
    <path clip-path="url(#p9ccb67a216)" d="M 471.393939 157.5 
L 473.272727 157.5 
L 473.272727 150.503861 
L 471.393939 150.503861 
z
" style="fill:#348abd;opacity:0.2;"/>
   </g>
   <g id="patch_155">
    <path clip-path="url(#p9ccb67a216)" d="M 473.742424 157.5 
L 475.621212 157.5 
L 475.621212 149.743411 
L 473.742424 149.743411 
z
" style="fill:#348abd;opacity:0.2;"/>
   </g>
   <g id="patch_156">
    <path clip-path="url(#p9ccb67a216)" d="M 476.090909 157.5 
L 477.969697 157.5 
L 477.969697 153.241481 
L 476.090909 153.241481 
z
" style="fill:#348abd;opacity:0.2;"/>
   </g>
   <g id="patch_157">
    <path clip-path="url(#p9ccb67a216)" d="M 478.439394 157.5 
L 480.318182 157.5 
L 480.318182 151.568491 
L 478.439394 151.568491 
z
" style="fill:#348abd;opacity:0.2;"/>
   </g>
   <g id="patch_158">
    <path clip-path="url(#p9ccb67a216)" d="M 480.787879 157.5 
L 482.666667 157.5 
L 482.666667 149.743411 
L 480.787879 149.743411 
z
" style="fill:#348abd;opacity:0.2;"/>
   </g>
   <g id="patch_159">
    <path clip-path="url(#p9ccb67a216)" d="M 483.136364 157.5 
L 485.015152 157.5 
L 485.015152 148.070421 
L 483.136364 148.070421 
z
" style="fill:#348abd;opacity:0.2;"/>
   </g>
   <g id="patch_160">
    <path clip-path="url(#p9ccb67a216)" d="M 485.484848 157.5 
L 487.363636 157.5 
L 487.363636 151.112221 
L 485.484848 151.112221 
z
" style="fill:#348abd;opacity:0.2;"/>
   </g>
   <g id="patch_161">
    <path clip-path="url(#p9ccb67a216)" d="M 487.833333 157.5 
L 489.712121 157.5 
L 489.712121 150.960131 
L 487.833333 150.960131 
z
" style="fill:#348abd;opacity:0.2;"/>
   </g>
   <g id="patch_162">
    <path clip-path="url(#p9ccb67a216)" d="M 490.181818 157.5 
L 492.060606 157.5 
L 492.060606 149.895501 
L 490.181818 149.895501 
z
" style="fill:#348abd;opacity:0.2;"/>
   </g>
   <g id="patch_163">
    <path clip-path="url(#p9ccb67a216)" d="M 492.530303 157.5 
L 494.409091 157.5 
L 494.409091 149.287141 
L 492.530303 149.287141 
z
" style="fill:#348abd;opacity:0.2;"/>
   </g>
   <g id="patch_164">
    <path clip-path="url(#p9ccb67a216)" d="M 494.878788 157.5 
L 496.757576 157.5 
L 496.757576 147.918331 
L 494.878788 147.918331 
z
" style="fill:#348abd;opacity:0.2;"/>
   </g>
   <g id="patch_165">
    <path clip-path="url(#p9ccb67a216)" d="M 497.227273 157.5 
L 499.106061 157.5 
L 499.106061 147.918331 
L 497.227273 147.918331 
z
" style="fill:#348abd;opacity:0.2;"/>
   </g>
   <g id="patch_166">
    <path clip-path="url(#p9ccb67a216)" d="M 499.575758 157.5 
L 501.454545 157.5 
L 501.454545 148.222511 
L 499.575758 148.222511 
z
" style="fill:#348abd;opacity:0.2;"/>
   </g>
   <g id="patch_167">
    <path clip-path="url(#p9ccb67a216)" d="M 501.924242 157.5 
L 503.80303 157.5 
L 503.80303 150.503861 
L 501.924242 150.503861 
z
" style="fill:#348abd;opacity:0.2;"/>
   </g>
   <g id="patch_168">
    <path clip-path="url(#p9ccb67a216)" d="M 504.272727 157.5 
L 506.151515 157.5 
L 506.151515 150.808041 
L 504.272727 150.808041 
z
" style="fill:#348abd;opacity:0.2;"/>
   </g>
   <g id="patch_169">
    <path clip-path="url(#p9ccb67a216)" d="M 506.621212 157.5 
L 508.5 157.5 
L 508.5 147.918331 
L 506.621212 147.918331 
z
" style="fill:#348abd;opacity:0.2;"/>
   </g>
   <g id="patch_170">
    <path clip-path="url(#p9ccb67a216)" d="M 508.969697 157.5 
L 510.848485 157.5 
L 510.848485 150.047591 
L 508.969697 150.047591 
z
" style="fill:#348abd;opacity:0.2;"/>
   </g>
   <g id="patch_171">
    <path clip-path="url(#p9ccb67a216)" d="M 511.318182 157.5 
L 513.19697 157.5 
L 513.19697 150.655951 
L 511.318182 150.655951 
z
" style="fill:#348abd;opacity:0.2;"/>
   </g>
   <g id="patch_172">
    <path clip-path="url(#p9ccb67a216)" d="M 513.666667 157.5 
L 515.545455 157.5 
L 515.545455 152.176851 
L 513.666667 152.176851 
z
" style="fill:#348abd;opacity:0.2;"/>
   </g>
   <g id="patch_173">
    <path clip-path="url(#p9ccb67a216)" d="M 516.015152 157.5 
L 517.893939 157.5 
L 517.893939 150.808041 
L 516.015152 150.808041 
z
" style="fill:#348abd;opacity:0.2;"/>
   </g>
   <g id="patch_174">
    <path clip-path="url(#p9ccb67a216)" d="M 518.363636 157.5 
L 520.242424 157.5 
L 520.242424 148.070421 
L 518.363636 148.070421 
z
" style="fill:#348abd;opacity:0.2;"/>
   </g>
   <g id="patch_175">
    <path clip-path="url(#p9ccb67a216)" d="M 520.712121 157.5 
L 522.590909 157.5 
L 522.590909 152.481031 
L 520.712121 152.481031 
z
" style="fill:#348abd;opacity:0.2;"/>
   </g>
   <g id="patch_176">
    <path clip-path="url(#p9ccb67a216)" d="M 523.060606 157.5 
L 524.939394 157.5 
L 524.939394 151.568491 
L 523.060606 151.568491 
z
" style="fill:#348abd;opacity:0.2;"/>
   </g>
   <g id="patch_177">
    <path clip-path="url(#p9ccb67a216)" d="M 525.409091 157.5 
L 527.287879 157.5 
L 527.287879 148.222511 
L 525.409091 148.222511 
z
" style="fill:#348abd;opacity:0.2;"/>
   </g>
   <g id="patch_178">
    <path clip-path="url(#p9ccb67a216)" d="M 527.757576 157.5 
L 529.636364 157.5 
L 529.636364 148.374601 
L 527.757576 148.374601 
z
" style="fill:#348abd;opacity:0.2;"/>
   </g>
   <g id="patch_179">
    <path clip-path="url(#p9ccb67a216)" d="M 530.106061 157.5 
L 531.984848 157.5 
L 531.984848 151.568491 
L 530.106061 151.568491 
z
" style="fill:#348abd;opacity:0.2;"/>
   </g>
   <g id="patch_180">
    <path clip-path="url(#p9ccb67a216)" d="M 532.454545 157.5 
L 534.333333 157.5 
L 534.333333 152.328941 
L 532.454545 152.328941 
z
" style="fill:#348abd;opacity:0.2;"/>
   </g>
   <g id="patch_181">
    <path clip-path="url(#p9ccb67a216)" d="M 534.80303 157.5 
L 536.681818 157.5 
L 536.681818 153.545661 
L 534.80303 153.545661 
z
" style="fill:#348abd;opacity:0.2;"/>
   </g>
   <g id="patch_182">
    <path clip-path="url(#p9ccb67a216)" d="M 537.151515 157.5 
L 539.030303 157.5 
L 539.030303 150.655951 
L 537.151515 150.655951 
z
" style="fill:#348abd;opacity:0.2;"/>
   </g>
   <g id="patch_183">
    <path clip-path="url(#p9ccb67a216)" d="M 539.5 157.5 
L 541.378788 157.5 
L 541.378788 147.918331 
L 539.5 147.918331 
z
" style="fill:#348abd;opacity:0.2;"/>
   </g>
   <g id="patch_184">
    <path clip-path="url(#p9ccb67a216)" d="M 541.848485 157.5 
L 543.727273 157.5 
L 543.727273 148.526691 
L 541.848485 148.526691 
z
" style="fill:#348abd;opacity:0.2;"/>
   </g>
   <g id="patch_185">
    <path clip-path="url(#p9ccb67a216)" d="M 544.19697 157.5 
L 546.075758 157.5 
L 546.075758 151.264311 
L 544.19697 151.264311 
z
" style="fill:#348abd;opacity:0.2;"/>
   </g>
   <g id="patch_186">
    <path clip-path="url(#p9ccb67a216)" d="M 546.545455 157.5 
L 548.424242 157.5 
L 548.424242 140.313832 
L 546.545455 140.313832 
z
" style="fill:#348abd;opacity:0.2;"/>
   </g>
   <g id="patch_187">
    <path clip-path="url(#p9ccb67a216)" d="M 548.893939 157.5 
L 550.772727 157.5 
L 550.772727 148.678781 
L 548.893939 148.678781 
z
" style="fill:#348abd;opacity:0.2;"/>
   </g>
   <g id="patch_188">
    <path clip-path="url(#p9ccb67a216)" d="M 551.242424 157.5 
L 553.121212 157.5 
L 553.121212 153.697751 
L 551.242424 153.697751 
z
" style="fill:#348abd;opacity:0.2;"/>
   </g>
   <g id="patch_189">
    <path clip-path="url(#p9ccb67a216)" d="M 553.590909 157.5 
L 555.469697 157.5 
L 555.469697 153.241481 
L 553.590909 153.241481 
z
" style="fill:#348abd;opacity:0.2;"/>
   </g>
   <g id="patch_190">
    <path clip-path="url(#p9ccb67a216)" d="M 555.939394 157.5 
L 557.818182 157.5 
L 557.818182 150.199681 
L 555.939394 150.199681 
z
" style="fill:#348abd;opacity:0.2;"/>
   </g>
   <g id="patch_191">
    <path clip-path="url(#p9ccb67a216)" d="M 558.287879 157.5 
L 560.166667 157.5 
L 560.166667 154.76238 
L 558.287879 154.76238 
z
" style="fill:#348abd;opacity:0.2;"/>
   </g>
   <g id="patch_192">
    <path clip-path="url(#p9ccb67a216)" d="M 560.636364 157.5 
L 562.515152 157.5 
L 562.515152 152.024761 
L 560.636364 152.024761 
z
" style="fill:#348abd;opacity:0.2;"/>
   </g>
   <g id="patch_193">
    <path clip-path="url(#p9ccb67a216)" d="M 562.984848 157.5 
L 564.863636 157.5 
L 564.863636 152.785211 
L 562.984848 152.785211 
z
" style="fill:#348abd;opacity:0.2;"/>
   </g>
   <g id="patch_194">
    <path clip-path="url(#p9ccb67a216)" d="M 565.333333 157.5 
L 567.212121 157.5 
L 567.212121 152.937301 
L 565.333333 152.937301 
z
" style="fill:#348abd;opacity:0.2;"/>
   </g>
   <g id="patch_195">
    <path clip-path="url(#p9ccb67a216)" d="M 567.681818 157.5 
L 569.560606 157.5 
L 569.560606 154.001931 
L 567.681818 154.001931 
z
" style="fill:#348abd;opacity:0.2;"/>
   </g>
   <g id="patch_196">
    <path clip-path="url(#p9ccb67a216)" d="M 570.030303 157.5 
L 571.909091 157.5 
L 571.909091 152.328941 
L 570.030303 152.328941 
z
" style="fill:#348abd;opacity:0.2;"/>
   </g>
   <g id="patch_197">
    <path clip-path="url(#p9ccb67a216)" d="M 572.378788 157.5 
L 574.257576 157.5 
L 574.257576 152.481031 
L 572.378788 152.481031 
z
" style="fill:#348abd;opacity:0.2;"/>
   </g>
   <g id="patch_198">
    <path clip-path="url(#p9ccb67a216)" d="M 574.727273 157.5 
L 576.606061 157.5 
L 576.606061 150.960131 
L 574.727273 150.960131 
z
" style="fill:#348abd;opacity:0.2;"/>
   </g>
   <g id="patch_199">
    <path clip-path="url(#p9ccb67a216)" d="M 577.075758 157.5 
L 578.954545 157.5 
L 578.954545 154.4582 
L 577.075758 154.4582 
z
" style="fill:#348abd;opacity:0.2;"/>
   </g>
   <g id="patch_200">
    <path clip-path="url(#p9ccb67a216)" d="M 579.424242 157.5 
L 581.30303 157.5 
L 581.30303 150.960131 
L 579.424242 150.960131 
z
" style="fill:#348abd;opacity:0.2;"/>
   </g>
   <g id="patch_201">
    <path clip-path="url(#p9ccb67a216)" d="M 581.772727 157.5 
L 583.651515 157.5 
L 583.651515 152.024761 
L 581.772727 152.024761 
z
" style="fill:#348abd;opacity:0.2;"/>
   </g>
   <g id="patch_202">
    <path clip-path="url(#p9ccb67a216)" d="M 584.121212 157.5 
L 586 157.5 
L 586 153.241481 
L 584.121212 153.241481 
z
" style="fill:#348abd;opacity:0.2;"/>
   </g>
   <g id="patch_203">
    <path clip-path="url(#p9ccb67a216)" d="M 586.469697 157.5 
L 588.348485 157.5 
L 588.348485 152.328941 
L 586.469697 152.328941 
z
" style="fill:#348abd;opacity:0.2;"/>
   </g>
   <g id="patch_204">
    <path clip-path="url(#p9ccb67a216)" d="M 588.818182 157.5 
L 590.69697 157.5 
L 590.69697 149.287141 
L 588.818182 149.287141 
z
" style="fill:#348abd;opacity:0.2;"/>
   </g>
   <g id="patch_205">
    <path clip-path="url(#p9ccb67a216)" d="M 591.166667 157.5 
L 593.045455 157.5 
L 593.045455 148.982961 
L 591.166667 148.982961 
z
" style="fill:#348abd;opacity:0.2;"/>
   </g>
   <g id="patch_206">
    <path clip-path="url(#p9ccb67a216)" d="M 593.515152 157.5 
L 595.393939 157.5 
L 595.393939 141.834732 
L 593.515152 141.834732 
z
" style="fill:#348abd;opacity:0.2;"/>
   </g>
   <g id="patch_207">
    <path clip-path="url(#p9ccb67a216)" d="M 595.863636 157.5 
L 597.742424 157.5 
L 597.742424 132.253064 
L 595.863636 132.253064 
z
" style="fill:#348abd;opacity:0.2;"/>
   </g>
   <g id="patch_208">
    <path clip-path="url(#p9ccb67a216)" d="M 598.212121 157.5 
L 600.090909 157.5 
L 600.090909 115.066896 
L 598.212121 115.066896 
z
" style="fill:#348abd;opacity:0.2;"/>
   </g>
   <g id="patch_209">
    <path clip-path="url(#p9ccb67a216)" d="M 600.560606 157.5 
L 602.439394 157.5 
L 602.439394 127.538274 
L 600.560606 127.538274 
z
" style="fill:#348abd;opacity:0.2;"/>
   </g>
   <g id="patch_210">
    <path clip-path="url(#p9ccb67a216)" d="M 602.909091 157.5 
L 604.787879 157.5 
L 604.787879 120.085865 
L 602.909091 120.085865 
z
" style="fill:#348abd;opacity:0.2;"/>
   </g>
   <g id="patch_211">
    <path clip-path="url(#p9ccb67a216)" d="M 605.257576 157.5 
L 607.136364 157.5 
L 607.136364 112.329276 
L 605.257576 112.329276 
z
" style="fill:#348abd;opacity:0.2;"/>
   </g>
   <g id="patch_212">
    <path clip-path="url(#p9ccb67a216)" d="M 607.606061 157.5 
L 609.484848 157.5 
L 609.484848 113.698086 
L 607.606061 113.698086 
z
" style="fill:#348abd;opacity:0.2;"/>
   </g>
   <g id="patch_213">
    <path clip-path="url(#p9ccb67a216)" d="M 609.954545 157.5 
L 611.833333 157.5 
L 611.833333 108.222847 
L 609.954545 108.222847 
z
" style="fill:#348abd;opacity:0.2;"/>
   </g>
   <g id="patch_214">
    <path clip-path="url(#p9ccb67a216)" d="M 612.30303 157.5 
L 614.181818 157.5 
L 614.181818 107.006127 
L 612.30303 107.006127 
z
" style="fill:#348abd;opacity:0.2;"/>
   </g>
   <g id="patch_215">
    <path clip-path="url(#p9ccb67a216)" d="M 614.651515 157.5 
L 616.530303 157.5 
L 616.530303 97.120279 
L 614.651515 97.120279 
z
" style="fill:#348abd;opacity:0.2;"/>
   </g>
   <g id="patch_216">
    <path clip-path="url(#p9ccb67a216)" d="M 617 157.5 
L 618.878788 157.5 
L 618.878788 117.044066 
L 617 117.044066 
z
" style="fill:#348abd;opacity:0.2;"/>
   </g>
   <g id="patch_217">
    <path clip-path="url(#p9ccb67a216)" d="M 619.348485 157.5 
L 621.227273 157.5 
L 621.227273 114.914806 
L 619.348485 114.914806 
z
" style="fill:#348abd;opacity:0.2;"/>
   </g>
   <g id="patch_218">
    <path clip-path="url(#p9ccb67a216)" d="M 621.69697 157.5 
L 623.575758 157.5 
L 623.575758 108.831207 
L 621.69697 108.831207 
z
" style="fill:#348abd;opacity:0.2;"/>
   </g>
   <g id="line2d_32">
    <path clip-path="url(#p9ccb67a216)" d="M 117.712121 157.421369 
L 129.454545 157.359726 
L 143.545455 157.185659 
L 159.984848 157.336843 
L 169.378788 157.423917 
L 171.727273 157.276025 
L 174.075758 156.800635 
L 176.424242 155.591805 
L 178.772727 153.505335 
L 181.121212 150.472901 
L 183.469697 146.760383 
L 185.818182 142.588503 
L 188.166667 137.631279 
L 190.515152 131.705469 
L 192.863636 124.099967 
L 195.212121 115.079513 
L 197.560606 105.269355 
L 199.909091 94.63871 
L 202.257576 84.677838 
L 204.606061 75.992014 
L 206.954545 69.559052 
L 209.30303 66.69531 
L 211.651515 67.166161 
L 214 71.290572 
L 216.348485 78.304356 
L 218.69697 86.981495 
L 223.393939 106.312511 
L 225.742424 115.098599 
L 228.090909 123.012212 
L 230.439394 129.40564 
L 232.787879 134.567936 
L 235.136364 138.250956 
L 237.484848 140.316567 
L 239.833333 141.522824 
L 242.181818 142.083911 
L 246.878788 142.059005 
L 249.227273 141.706161 
L 251.575758 141.53635 
L 253.924242 141.665777 
L 256.272727 141.91562 
L 260.969697 142.609289 
L 263.318182 142.823832 
L 265.666667 142.833682 
L 275.060606 141.613496 
L 277.409091 141.842112 
L 279.757576 142.355954 
L 282.106061 143.064308 
L 284.454545 143.919414 
L 289.151515 146.081981 
L 296.19697 149.649825 
L 298.545455 150.673326 
L 300.893939 151.514781 
L 303.242424 152.17427 
L 307.939394 153.049949 
L 322.030303 155.030866 
L 326.727273 155.527774 
L 331.424242 155.771084 
L 357.257576 156.362921 
L 359.606061 156.164335 
L 364.30303 155.403348 
L 371.348485 153.941073 
L 373.69697 153.63785 
L 376.045455 153.529817 
L 378.393939 153.629439 
L 390.136364 154.597355 
L 394.833333 154.579125 
L 397.181818 154.472387 
L 399.530303 154.213236 
L 401.878788 153.794819 
L 411.272727 151.50865 
L 413.621212 151.177379 
L 415.969697 150.986144 
L 418.318182 150.950249 
L 425.363636 151.221008 
L 430.060606 150.968196 
L 437.106061 150.569559 
L 441.80303 150.498615 
L 453.545455 150.866799 
L 465.287879 150.426933 
L 467.636364 150.494239 
L 474.681818 150.990706 
L 477.030303 151.018183 
L 481.727273 150.726191 
L 488.772727 149.909422 
L 493.469697 149.416252 
L 498.166667 149.190412 
L 502.863636 149.229819 
L 507.560606 149.692743 
L 512.257576 150.20283 
L 516.954545 150.440181 
L 526.348485 150.499803 
L 531.045455 150.665571 
L 533.393939 150.676561 
L 535.742424 150.508788 
L 540.439394 149.786514 
L 542.787879 149.384138 
L 545.136364 149.128884 
L 547.484848 149.127531 
L 549.833333 149.411047 
L 552.181818 149.939484 
L 559.227273 152.021381 
L 561.575758 152.490032 
L 563.924242 152.747941 
L 568.621212 152.765388 
L 578.015152 152.418078 
L 580.363636 152.244402 
L 582.712121 151.885109 
L 585.060606 151.138756 
L 587.409091 149.608409 
L 589.757576 147.223895 
L 592.106061 143.967333 
L 594.454545 139.92614 
L 596.80303 135.481234 
L 601.5 126.001434 
L 603.848485 121.497096 
L 606.19697 117.573719 
L 608.545455 114.542369 
L 610.893939 112.298653 
L 613.242424 110.87359 
L 615.590909 110.008736 
L 617.939394 109.524156 
L 622.636364 109.653134 
L 622.636364 109.653134 
" style="fill:none;stroke:#348abd;stroke-linecap:square;stroke-width:3;"/>
   </g>
   <g id="patch_219">
    <path d="M 90 157.5 
L 90 21.6 
" style="fill:none;stroke:#ffffff;stroke-linecap:square;stroke-linejoin:miter;"/>
   </g>
   <g id="patch_220">
    <path d="M 648 157.5 
L 648 21.6 
" style="fill:none;stroke:#ffffff;stroke-linecap:square;stroke-linejoin:miter;"/>
   </g>
   <g id="patch_221">
    <path d="M 90 157.5 
L 648 157.5 
" style="fill:none;stroke:#ffffff;stroke-linecap:square;stroke-linejoin:miter;"/>
   </g>
   <g id="patch_222">
    <path d="M 90 21.6 
L 648 21.6 
" style="fill:none;stroke:#ffffff;stroke-linecap:square;stroke-linejoin:miter;"/>
   </g>
   <g id="legend_1">
    <g id="patch_223">
     <path d="M 416.470312 58.95625 
L 641 58.95625 
Q 643 58.95625 643 56.95625 
L 643 28.6 
Q 643 26.6 641 26.6 
L 416.470312 26.6 
Q 414.470312 26.6 414.470312 28.6 
L 414.470312 56.95625 
Q 414.470312 58.95625 416.470312 58.95625 
z
" style="fill:#e5e5e5;opacity:0.8;stroke:#cccccc;stroke-linejoin:miter;stroke-width:0.5;"/>
    </g>
    <g id="line2d_33">
     <path d="M 418.470312 34.698438 
L 438.470312 34.698438 
" style="fill:none;stroke:#348abd;stroke-linecap:square;stroke-width:3;"/>
    </g>
    <g id="line2d_34"/>
    <g id="text_20">
     <!-- Korea, South new cases (rolling mean) -->
     <defs>
      <path d="M 9.8125 72.90625 
L 19.671875 72.90625 
L 19.671875 42.09375 
L 52.390625 72.90625 
L 65.09375 72.90625 
L 28.90625 38.921875 
L 67.671875 0 
L 54.6875 0 
L 19.671875 35.109375 
L 19.671875 0 
L 9.8125 0 
z
" id="DejaVuSans-75"/>
      <path d="M 30.609375 48.390625 
Q 23.390625 48.390625 19.1875 42.75 
Q 14.984375 37.109375 14.984375 27.296875 
Q 14.984375 17.484375 19.15625 11.84375 
Q 23.34375 6.203125 30.609375 6.203125 
Q 37.796875 6.203125 41.984375 11.859375 
Q 46.1875 17.53125 46.1875 27.296875 
Q 46.1875 37.015625 41.984375 42.703125 
Q 37.796875 48.390625 30.609375 48.390625 
z
M 30.609375 56 
Q 42.328125 56 49.015625 48.375 
Q 55.71875 40.765625 55.71875 27.296875 
Q 55.71875 13.875 49.015625 6.21875 
Q 42.328125 -1.421875 30.609375 -1.421875 
Q 18.84375 -1.421875 12.171875 6.21875 
Q 5.515625 13.875 5.515625 27.296875 
Q 5.515625 40.765625 12.171875 48.375 
Q 18.84375 56 30.609375 56 
z
" id="DejaVuSans-111"/>
      <path d="M 41.109375 46.296875 
Q 39.59375 47.171875 37.8125 47.578125 
Q 36.03125 48 33.890625 48 
Q 26.265625 48 22.1875 43.046875 
Q 18.109375 38.09375 18.109375 28.8125 
L 18.109375 0 
L 9.078125 0 
L 9.078125 54.6875 
L 18.109375 54.6875 
L 18.109375 46.1875 
Q 20.953125 51.171875 25.484375 53.578125 
Q 30.03125 56 36.53125 56 
Q 37.453125 56 38.578125 55.875 
Q 39.703125 55.765625 41.0625 55.515625 
z
" id="DejaVuSans-114"/>
      <path d="M 11.71875 12.40625 
L 22.015625 12.40625 
L 22.015625 4 
L 14.015625 -11.625 
L 7.71875 -11.625 
L 11.71875 4 
z
" id="DejaVuSans-44"/>
      <path d="M 53.515625 70.515625 
L 53.515625 60.890625 
Q 47.90625 63.578125 42.921875 64.890625 
Q 37.9375 66.21875 33.296875 66.21875 
Q 25.25 66.21875 20.875 63.09375 
Q 16.5 59.96875 16.5 54.203125 
Q 16.5 49.359375 19.40625 46.890625 
Q 22.3125 44.4375 30.421875 42.921875 
L 36.375 41.703125 
Q 47.40625 39.59375 52.65625 34.296875 
Q 57.90625 29 57.90625 20.125 
Q 57.90625 9.515625 50.796875 4.046875 
Q 43.703125 -1.421875 29.984375 -1.421875 
Q 24.8125 -1.421875 18.96875 -0.25 
Q 13.140625 0.921875 6.890625 3.21875 
L 6.890625 13.375 
Q 12.890625 10.015625 18.65625 8.296875 
Q 24.421875 6.59375 29.984375 6.59375 
Q 38.421875 6.59375 43.015625 9.90625 
Q 47.609375 13.234375 47.609375 19.390625 
Q 47.609375 24.75 44.3125 27.78125 
Q 41.015625 30.8125 33.5 32.328125 
L 27.484375 33.5 
Q 16.453125 35.6875 11.515625 40.375 
Q 6.59375 45.0625 6.59375 53.421875 
Q 6.59375 63.09375 13.40625 68.65625 
Q 20.21875 74.21875 32.171875 74.21875 
Q 37.3125 74.21875 42.625 73.28125 
Q 47.953125 72.359375 53.515625 70.515625 
z
" id="DejaVuSans-83"/>
      <path d="M 8.5 21.578125 
L 8.5 54.6875 
L 17.484375 54.6875 
L 17.484375 21.921875 
Q 17.484375 14.15625 20.5 10.265625 
Q 23.53125 6.390625 29.59375 6.390625 
Q 36.859375 6.390625 41.078125 11.03125 
Q 45.3125 15.671875 45.3125 23.6875 
L 45.3125 54.6875 
L 54.296875 54.6875 
L 54.296875 0 
L 45.3125 0 
L 45.3125 8.40625 
Q 42.046875 3.421875 37.71875 1 
Q 33.40625 -1.421875 27.6875 -1.421875 
Q 18.265625 -1.421875 13.375 4.4375 
Q 8.5 10.296875 8.5 21.578125 
z
M 31.109375 56 
z
" id="DejaVuSans-117"/>
      <path d="M 18.3125 70.21875 
L 18.3125 54.6875 
L 36.8125 54.6875 
L 36.8125 47.703125 
L 18.3125 47.703125 
L 18.3125 18.015625 
Q 18.3125 11.328125 20.140625 9.421875 
Q 21.96875 7.515625 27.59375 7.515625 
L 36.8125 7.515625 
L 36.8125 0 
L 27.59375 0 
Q 17.1875 0 13.234375 3.875 
Q 9.28125 7.765625 9.28125 18.015625 
L 9.28125 47.703125 
L 2.6875 47.703125 
L 2.6875 54.6875 
L 9.28125 54.6875 
L 9.28125 70.21875 
z
" id="DejaVuSans-116"/>
      <path d="M 4.203125 54.6875 
L 13.1875 54.6875 
L 24.421875 12.015625 
L 35.59375 54.6875 
L 46.1875 54.6875 
L 57.421875 12.015625 
L 68.609375 54.6875 
L 77.59375 54.6875 
L 63.28125 0 
L 52.6875 0 
L 40.921875 44.828125 
L 29.109375 0 
L 18.5 0 
z
" id="DejaVuSans-119"/>
      <path d="M 44.28125 53.078125 
L 44.28125 44.578125 
Q 40.484375 46.53125 36.375 47.5 
Q 32.28125 48.484375 27.875 48.484375 
Q 21.1875 48.484375 17.84375 46.4375 
Q 14.5 44.390625 14.5 40.28125 
Q 14.5 37.15625 16.890625 35.375 
Q 19.28125 33.59375 26.515625 31.984375 
L 29.59375 31.296875 
Q 39.15625 29.25 43.1875 25.515625 
Q 47.21875 21.78125 47.21875 15.09375 
Q 47.21875 7.46875 41.1875 3.015625 
Q 35.15625 -1.421875 24.609375 -1.421875 
Q 20.21875 -1.421875 15.453125 -0.5625 
Q 10.6875 0.296875 5.421875 2 
L 5.421875 11.28125 
Q 10.40625 8.6875 15.234375 7.390625 
Q 20.0625 6.109375 24.8125 6.109375 
Q 31.15625 6.109375 34.5625 8.28125 
Q 37.984375 10.453125 37.984375 14.40625 
Q 37.984375 18.0625 35.515625 20.015625 
Q 33.0625 21.96875 24.703125 23.78125 
L 21.578125 24.515625 
Q 13.234375 26.265625 9.515625 29.90625 
Q 5.8125 33.546875 5.8125 39.890625 
Q 5.8125 47.609375 11.28125 51.796875 
Q 16.75 56 26.8125 56 
Q 31.78125 56 36.171875 55.265625 
Q 40.578125 54.546875 44.28125 53.078125 
z
" id="DejaVuSans-115"/>
      <path d="M 31 75.875 
Q 24.46875 64.65625 21.28125 53.65625 
Q 18.109375 42.671875 18.109375 31.390625 
Q 18.109375 20.125 21.3125 9.0625 
Q 24.515625 -2 31 -13.1875 
L 23.1875 -13.1875 
Q 15.875 -1.703125 12.234375 9.375 
Q 8.59375 20.453125 8.59375 31.390625 
Q 8.59375 42.28125 12.203125 53.3125 
Q 15.828125 64.359375 23.1875 75.875 
z
" id="DejaVuSans-40"/>
      <path d="M 52 44.1875 
Q 55.375 50.25 60.0625 53.125 
Q 64.75 56 71.09375 56 
Q 79.640625 56 84.28125 50.015625 
Q 88.921875 44.046875 88.921875 33.015625 
L 88.921875 0 
L 79.890625 0 
L 79.890625 32.71875 
Q 79.890625 40.578125 77.09375 44.375 
Q 74.3125 48.1875 68.609375 48.1875 
Q 61.625 48.1875 57.5625 43.546875 
Q 53.515625 38.921875 53.515625 30.90625 
L 53.515625 0 
L 44.484375 0 
L 44.484375 32.71875 
Q 44.484375 40.625 41.703125 44.40625 
Q 38.921875 48.1875 33.109375 48.1875 
Q 26.21875 48.1875 22.15625 43.53125 
Q 18.109375 38.875 18.109375 30.90625 
L 18.109375 0 
L 9.078125 0 
L 9.078125 54.6875 
L 18.109375 54.6875 
L 18.109375 46.1875 
Q 21.1875 51.21875 25.484375 53.609375 
Q 29.78125 56 35.6875 56 
Q 41.65625 56 45.828125 52.96875 
Q 50 49.953125 52 44.1875 
z
" id="DejaVuSans-109"/>
      <path d="M 8.015625 75.875 
L 15.828125 75.875 
Q 23.140625 64.359375 26.78125 53.3125 
Q 30.421875 42.28125 30.421875 31.390625 
Q 30.421875 20.453125 26.78125 9.375 
Q 23.140625 -1.703125 15.828125 -13.1875 
L 8.015625 -13.1875 
Q 14.5 -2 17.703125 9.0625 
Q 20.90625 20.125 20.90625 31.390625 
Q 20.90625 42.671875 17.703125 53.65625 
Q 14.5 64.65625 8.015625 75.875 
z
" id="DejaVuSans-41"/>
     </defs>
     <g transform="translate(446.470312 38.198438)scale(0.1 -0.1)">
      <use xlink:href="#DejaVuSans-75"/>
      <use x="60.576172" xlink:href="#DejaVuSans-111"/>
      <use x="121.757812" xlink:href="#DejaVuSans-114"/>
      <use x="160.621094" xlink:href="#DejaVuSans-101"/>
      <use x="222.144531" xlink:href="#DejaVuSans-97"/>
      <use x="283.423828" xlink:href="#DejaVuSans-44"/>
      <use x="315.210938" xlink:href="#DejaVuSans-32"/>
      <use x="346.998047" xlink:href="#DejaVuSans-83"/>
      <use x="410.474609" xlink:href="#DejaVuSans-111"/>
      <use x="471.65625" xlink:href="#DejaVuSans-117"/>
      <use x="535.035156" xlink:href="#DejaVuSans-116"/>
      <use x="574.244141" xlink:href="#DejaVuSans-104"/>
      <use x="637.623047" xlink:href="#DejaVuSans-32"/>
      <use x="669.410156" xlink:href="#DejaVuSans-110"/>
      <use x="732.789062" xlink:href="#DejaVuSans-101"/>
      <use x="794.3125" xlink:href="#DejaVuSans-119"/>
      <use x="876.099609" xlink:href="#DejaVuSans-32"/>
      <use x="907.886719" xlink:href="#DejaVuSans-99"/>
      <use x="962.867188" xlink:href="#DejaVuSans-97"/>
      <use x="1024.146484" xlink:href="#DejaVuSans-115"/>
      <use x="1076.246094" xlink:href="#DejaVuSans-101"/>
      <use x="1137.769531" xlink:href="#DejaVuSans-115"/>
      <use x="1189.869141" xlink:href="#DejaVuSans-32"/>
      <use x="1221.65625" xlink:href="#DejaVuSans-40"/>
      <use x="1260.669922" xlink:href="#DejaVuSans-114"/>
      <use x="1299.533203" xlink:href="#DejaVuSans-111"/>
      <use x="1360.714844" xlink:href="#DejaVuSans-108"/>
      <use x="1388.498047" xlink:href="#DejaVuSans-108"/>
      <use x="1416.28125" xlink:href="#DejaVuSans-105"/>
      <use x="1444.064453" xlink:href="#DejaVuSans-110"/>
      <use x="1507.443359" xlink:href="#DejaVuSans-103"/>
      <use x="1570.919922" xlink:href="#DejaVuSans-32"/>
      <use x="1602.707031" xlink:href="#DejaVuSans-109"/>
      <use x="1700.119141" xlink:href="#DejaVuSans-101"/>
      <use x="1761.642578" xlink:href="#DejaVuSans-97"/>
      <use x="1822.921875" xlink:href="#DejaVuSans-110"/>
      <use x="1886.300781" xlink:href="#DejaVuSans-41"/>
     </g>
    </g>
    <g id="patch_224">
     <path d="M 418.470312 52.876563 
L 438.470312 52.876563 
L 438.470312 45.876563 
L 418.470312 45.876563 
z
" style="fill:#348abd;opacity:0.2;"/>
    </g>
    <g id="text_21">
     <!-- Korea, South new cases -->
     <g transform="translate(446.470312 52.876563)scale(0.1 -0.1)">
      <use xlink:href="#DejaVuSans-75"/>
      <use x="60.576172" xlink:href="#DejaVuSans-111"/>
      <use x="121.757812" xlink:href="#DejaVuSans-114"/>
      <use x="160.621094" xlink:href="#DejaVuSans-101"/>
      <use x="222.144531" xlink:href="#DejaVuSans-97"/>
      <use x="283.423828" xlink:href="#DejaVuSans-44"/>
      <use x="315.210938" xlink:href="#DejaVuSans-32"/>
      <use x="346.998047" xlink:href="#DejaVuSans-83"/>
      <use x="410.474609" xlink:href="#DejaVuSans-111"/>
      <use x="471.65625" xlink:href="#DejaVuSans-117"/>
      <use x="535.035156" xlink:href="#DejaVuSans-116"/>
      <use x="574.244141" xlink:href="#DejaVuSans-104"/>
      <use x="637.623047" xlink:href="#DejaVuSans-32"/>
      <use x="669.410156" xlink:href="#DejaVuSans-110"/>
      <use x="732.789062" xlink:href="#DejaVuSans-101"/>
      <use x="794.3125" xlink:href="#DejaVuSans-119"/>
      <use x="876.099609" xlink:href="#DejaVuSans-32"/>
      <use x="907.886719" xlink:href="#DejaVuSans-99"/>
      <use x="962.867188" xlink:href="#DejaVuSans-97"/>
      <use x="1024.146484" xlink:href="#DejaVuSans-115"/>
      <use x="1076.246094" xlink:href="#DejaVuSans-101"/>
      <use x="1137.769531" xlink:href="#DejaVuSans-115"/>
     </g>
    </g>
   </g>
  </g>
 </g>
 <defs>
  <clipPath id="p9ccb67a216">
   <rect height="135.9" width="558" x="90" y="21.6"/>
  </clipPath>
 </defs>
</svg>
