<?xml version="1.0" encoding="utf-8" standalone="no"?>
<!DOCTYPE svg PUBLIC "-//W3C//DTD SVG 1.1//EN"
  "http://www.w3.org/Graphics/SVG/1.1/DTD/svg11.dtd">
<!-- Created with matplotlib (https://matplotlib.org/) -->
<svg height="180pt" version="1.1" viewBox="0 0 864 180" width="864pt" xmlns="http://www.w3.org/2000/svg" xmlns:xlink="http://www.w3.org/1999/xlink">
 <defs>
  <style type="text/css">
*{stroke-linecap:butt;stroke-linejoin:round;}
  </style>
 </defs>
 <g id="figure_1">
  <g id="patch_1">
   <path d="M 0 180 
L 864 180 
L 864 0 
L 0 0 
z
" style="fill:#ffffff;"/>
  </g>
  <g id="axes_1">
   <g id="patch_2">
    <path d="M 66.3 152.2 
L 814.7 152.2 
L 814.7 10.8 
L 66.3 10.8 
z
" style="fill:#e5e5e5;"/>
   </g>
   <g id="matplotlib.axis_1">
    <g id="xtick_1">
     <g id="line2d_1">
      <path clip-path="url(#p75434a75f9)" d="M 129.95404 152.2 
L 129.95404 10.8 
" style="fill:none;stroke:#ffffff;stroke-linecap:square;stroke-width:0.8;"/>
     </g>
     <g id="line2d_2">
      <defs>
       <path d="M 0 0 
L 0 3.5 
" id="m804aa8ca8b" style="stroke:#555555;stroke-width:0.8;"/>
      </defs>
      <g>
       <use style="fill:#555555;stroke:#555555;stroke-width:0.8;" x="129.95404" xlink:href="#m804aa8ca8b" y="152.2"/>
      </g>
     </g>
     <g id="text_1">
      <!-- 2020-02 -->
      <defs>
       <path d="M 19.1875 8.296875 
L 53.609375 8.296875 
L 53.609375 0 
L 7.328125 0 
L 7.328125 8.296875 
Q 12.9375 14.109375 22.625 23.890625 
Q 32.328125 33.6875 34.8125 36.53125 
Q 39.546875 41.84375 41.421875 45.53125 
Q 43.3125 49.21875 43.3125 52.78125 
Q 43.3125 58.59375 39.234375 62.25 
Q 35.15625 65.921875 28.609375 65.921875 
Q 23.96875 65.921875 18.8125 64.3125 
Q 13.671875 62.703125 7.8125 59.421875 
L 7.8125 69.390625 
Q 13.765625 71.78125 18.9375 73 
Q 24.125 74.21875 28.421875 74.21875 
Q 39.75 74.21875 46.484375 68.546875 
Q 53.21875 62.890625 53.21875 53.421875 
Q 53.21875 48.921875 51.53125 44.890625 
Q 49.859375 40.875 45.40625 35.40625 
Q 44.1875 33.984375 37.640625 27.21875 
Q 31.109375 20.453125 19.1875 8.296875 
z
" id="DejaVuSans-50"/>
       <path d="M 31.78125 66.40625 
Q 24.171875 66.40625 20.328125 58.90625 
Q 16.5 51.421875 16.5 36.375 
Q 16.5 21.390625 20.328125 13.890625 
Q 24.171875 6.390625 31.78125 6.390625 
Q 39.453125 6.390625 43.28125 13.890625 
Q 47.125 21.390625 47.125 36.375 
Q 47.125 51.421875 43.28125 58.90625 
Q 39.453125 66.40625 31.78125 66.40625 
z
M 31.78125 74.21875 
Q 44.046875 74.21875 50.515625 64.515625 
Q 56.984375 54.828125 56.984375 36.375 
Q 56.984375 17.96875 50.515625 8.265625 
Q 44.046875 -1.421875 31.78125 -1.421875 
Q 19.53125 -1.421875 13.0625 8.265625 
Q 6.59375 17.96875 6.59375 36.375 
Q 6.59375 54.828125 13.0625 64.515625 
Q 19.53125 74.21875 31.78125 74.21875 
z
" id="DejaVuSans-48"/>
       <path d="M 4.890625 31.390625 
L 31.203125 31.390625 
L 31.203125 23.390625 
L 4.890625 23.390625 
z
" id="DejaVuSans-45"/>
      </defs>
      <g style="fill:#555555;" transform="translate(109.062634 166.798438)scale(0.1 -0.1)">
       <use xlink:href="#DejaVuSans-50"/>
       <use x="63.623047" xlink:href="#DejaVuSans-48"/>
       <use x="127.246094" xlink:href="#DejaVuSans-50"/>
       <use x="190.869141" xlink:href="#DejaVuSans-48"/>
       <use x="254.492188" xlink:href="#DejaVuSans-45"/>
       <use x="290.576172" xlink:href="#DejaVuSans-48"/>
       <use x="354.199219" xlink:href="#DejaVuSans-50"/>
      </g>
     </g>
    </g>
    <g id="xtick_2">
     <g id="line2d_3">
      <path clip-path="url(#p75434a75f9)" d="M 221.383815 152.2 
L 221.383815 10.8 
" style="fill:none;stroke:#ffffff;stroke-linecap:square;stroke-width:0.8;"/>
     </g>
     <g id="line2d_4">
      <g>
       <use style="fill:#555555;stroke:#555555;stroke-width:0.8;" x="221.383815" xlink:href="#m804aa8ca8b" y="152.2"/>
      </g>
     </g>
     <g id="text_2">
      <!-- 2020-03 -->
      <defs>
       <path d="M 40.578125 39.3125 
Q 47.65625 37.796875 51.625 33 
Q 55.609375 28.21875 55.609375 21.1875 
Q 55.609375 10.40625 48.1875 4.484375 
Q 40.765625 -1.421875 27.09375 -1.421875 
Q 22.515625 -1.421875 17.65625 -0.515625 
Q 12.796875 0.390625 7.625 2.203125 
L 7.625 11.71875 
Q 11.71875 9.328125 16.59375 8.109375 
Q 21.484375 6.890625 26.8125 6.890625 
Q 36.078125 6.890625 40.9375 10.546875 
Q 45.796875 14.203125 45.796875 21.1875 
Q 45.796875 27.640625 41.28125 31.265625 
Q 36.765625 34.90625 28.71875 34.90625 
L 20.21875 34.90625 
L 20.21875 43.015625 
L 29.109375 43.015625 
Q 36.375 43.015625 40.234375 45.921875 
Q 44.09375 48.828125 44.09375 54.296875 
Q 44.09375 59.90625 40.109375 62.90625 
Q 36.140625 65.921875 28.71875 65.921875 
Q 24.65625 65.921875 20.015625 65.03125 
Q 15.375 64.15625 9.8125 62.3125 
L 9.8125 71.09375 
Q 15.4375 72.65625 20.34375 73.4375 
Q 25.25 74.21875 29.59375 74.21875 
Q 40.828125 74.21875 47.359375 69.109375 
Q 53.90625 64.015625 53.90625 55.328125 
Q 53.90625 49.265625 50.4375 45.09375 
Q 46.96875 40.921875 40.578125 39.3125 
z
" id="DejaVuSans-51"/>
      </defs>
      <g style="fill:#555555;" transform="translate(200.492409 166.798438)scale(0.1 -0.1)">
       <use xlink:href="#DejaVuSans-50"/>
       <use x="63.623047" xlink:href="#DejaVuSans-48"/>
       <use x="127.246094" xlink:href="#DejaVuSans-50"/>
       <use x="190.869141" xlink:href="#DejaVuSans-48"/>
       <use x="254.492188" xlink:href="#DejaVuSans-45"/>
       <use x="290.576172" xlink:href="#DejaVuSans-48"/>
       <use x="354.199219" xlink:href="#DejaVuSans-51"/>
      </g>
     </g>
    </g>
    <g id="xtick_3">
     <g id="line2d_5">
      <path clip-path="url(#p75434a75f9)" d="M 319.119092 152.2 
L 319.119092 10.8 
" style="fill:none;stroke:#ffffff;stroke-linecap:square;stroke-width:0.8;"/>
     </g>
     <g id="line2d_6">
      <g>
       <use style="fill:#555555;stroke:#555555;stroke-width:0.8;" x="319.119092" xlink:href="#m804aa8ca8b" y="152.2"/>
      </g>
     </g>
     <g id="text_3">
      <!-- 2020-04 -->
      <defs>
       <path d="M 37.796875 64.3125 
L 12.890625 25.390625 
L 37.796875 25.390625 
z
M 35.203125 72.90625 
L 47.609375 72.90625 
L 47.609375 25.390625 
L 58.015625 25.390625 
L 58.015625 17.1875 
L 47.609375 17.1875 
L 47.609375 0 
L 37.796875 0 
L 37.796875 17.1875 
L 4.890625 17.1875 
L 4.890625 26.703125 
z
" id="DejaVuSans-52"/>
      </defs>
      <g style="fill:#555555;" transform="translate(298.227686 166.798438)scale(0.1 -0.1)">
       <use xlink:href="#DejaVuSans-50"/>
       <use x="63.623047" xlink:href="#DejaVuSans-48"/>
       <use x="127.246094" xlink:href="#DejaVuSans-50"/>
       <use x="190.869141" xlink:href="#DejaVuSans-48"/>
       <use x="254.492188" xlink:href="#DejaVuSans-45"/>
       <use x="290.576172" xlink:href="#DejaVuSans-48"/>
       <use x="354.199219" xlink:href="#DejaVuSans-52"/>
      </g>
     </g>
    </g>
    <g id="xtick_4">
     <g id="line2d_7">
      <path clip-path="url(#p75434a75f9)" d="M 413.701618 152.2 
L 413.701618 10.8 
" style="fill:none;stroke:#ffffff;stroke-linecap:square;stroke-width:0.8;"/>
     </g>
     <g id="line2d_8">
      <g>
       <use style="fill:#555555;stroke:#555555;stroke-width:0.8;" x="413.701618" xlink:href="#m804aa8ca8b" y="152.2"/>
      </g>
     </g>
     <g id="text_4">
      <!-- 2020-05 -->
      <defs>
       <path d="M 10.796875 72.90625 
L 49.515625 72.90625 
L 49.515625 64.59375 
L 19.828125 64.59375 
L 19.828125 46.734375 
Q 21.96875 47.46875 24.109375 47.828125 
Q 26.265625 48.1875 28.421875 48.1875 
Q 40.625 48.1875 47.75 41.5 
Q 54.890625 34.8125 54.890625 23.390625 
Q 54.890625 11.625 47.5625 5.09375 
Q 40.234375 -1.421875 26.90625 -1.421875 
Q 22.3125 -1.421875 17.546875 -0.640625 
Q 12.796875 0.140625 7.71875 1.703125 
L 7.71875 11.625 
Q 12.109375 9.234375 16.796875 8.0625 
Q 21.484375 6.890625 26.703125 6.890625 
Q 35.15625 6.890625 40.078125 11.328125 
Q 45.015625 15.765625 45.015625 23.390625 
Q 45.015625 31 40.078125 35.4375 
Q 35.15625 39.890625 26.703125 39.890625 
Q 22.75 39.890625 18.8125 39.015625 
Q 14.890625 38.140625 10.796875 36.28125 
z
" id="DejaVuSans-53"/>
      </defs>
      <g style="fill:#555555;" transform="translate(392.810211 166.798438)scale(0.1 -0.1)">
       <use xlink:href="#DejaVuSans-50"/>
       <use x="63.623047" xlink:href="#DejaVuSans-48"/>
       <use x="127.246094" xlink:href="#DejaVuSans-50"/>
       <use x="190.869141" xlink:href="#DejaVuSans-48"/>
       <use x="254.492188" xlink:href="#DejaVuSans-45"/>
       <use x="290.576172" xlink:href="#DejaVuSans-48"/>
       <use x="354.199219" xlink:href="#DejaVuSans-53"/>
      </g>
     </g>
    </g>
    <g id="xtick_5">
     <g id="line2d_9">
      <path clip-path="url(#p75434a75f9)" d="M 511.436894 152.2 
L 511.436894 10.8 
" style="fill:none;stroke:#ffffff;stroke-linecap:square;stroke-width:0.8;"/>
     </g>
     <g id="line2d_10">
      <g>
       <use style="fill:#555555;stroke:#555555;stroke-width:0.8;" x="511.436894" xlink:href="#m804aa8ca8b" y="152.2"/>
      </g>
     </g>
     <g id="text_5">
      <!-- 2020-06 -->
      <defs>
       <path d="M 33.015625 40.375 
Q 26.375 40.375 22.484375 35.828125 
Q 18.609375 31.296875 18.609375 23.390625 
Q 18.609375 15.53125 22.484375 10.953125 
Q 26.375 6.390625 33.015625 6.390625 
Q 39.65625 6.390625 43.53125 10.953125 
Q 47.40625 15.53125 47.40625 23.390625 
Q 47.40625 31.296875 43.53125 35.828125 
Q 39.65625 40.375 33.015625 40.375 
z
M 52.59375 71.296875 
L 52.59375 62.3125 
Q 48.875 64.0625 45.09375 64.984375 
Q 41.3125 65.921875 37.59375 65.921875 
Q 27.828125 65.921875 22.671875 59.328125 
Q 17.53125 52.734375 16.796875 39.40625 
Q 19.671875 43.65625 24.015625 45.921875 
Q 28.375 48.1875 33.59375 48.1875 
Q 44.578125 48.1875 50.953125 41.515625 
Q 57.328125 34.859375 57.328125 23.390625 
Q 57.328125 12.15625 50.6875 5.359375 
Q 44.046875 -1.421875 33.015625 -1.421875 
Q 20.359375 -1.421875 13.671875 8.265625 
Q 6.984375 17.96875 6.984375 36.375 
Q 6.984375 53.65625 15.1875 63.9375 
Q 23.390625 74.21875 37.203125 74.21875 
Q 40.921875 74.21875 44.703125 73.484375 
Q 48.484375 72.75 52.59375 71.296875 
z
" id="DejaVuSans-54"/>
      </defs>
      <g style="fill:#555555;" transform="translate(490.545488 166.798438)scale(0.1 -0.1)">
       <use xlink:href="#DejaVuSans-50"/>
       <use x="63.623047" xlink:href="#DejaVuSans-48"/>
       <use x="127.246094" xlink:href="#DejaVuSans-50"/>
       <use x="190.869141" xlink:href="#DejaVuSans-48"/>
       <use x="254.492188" xlink:href="#DejaVuSans-45"/>
       <use x="290.576172" xlink:href="#DejaVuSans-48"/>
       <use x="354.199219" xlink:href="#DejaVuSans-54"/>
      </g>
     </g>
    </g>
    <g id="xtick_6">
     <g id="line2d_11">
      <path clip-path="url(#p75434a75f9)" d="M 606.01942 152.2 
L 606.01942 10.8 
" style="fill:none;stroke:#ffffff;stroke-linecap:square;stroke-width:0.8;"/>
     </g>
     <g id="line2d_12">
      <g>
       <use style="fill:#555555;stroke:#555555;stroke-width:0.8;" x="606.01942" xlink:href="#m804aa8ca8b" y="152.2"/>
      </g>
     </g>
     <g id="text_6">
      <!-- 2020-07 -->
      <defs>
       <path d="M 8.203125 72.90625 
L 55.078125 72.90625 
L 55.078125 68.703125 
L 28.609375 0 
L 18.3125 0 
L 43.21875 64.59375 
L 8.203125 64.59375 
z
" id="DejaVuSans-55"/>
      </defs>
      <g style="fill:#555555;" transform="translate(585.128014 166.798438)scale(0.1 -0.1)">
       <use xlink:href="#DejaVuSans-50"/>
       <use x="63.623047" xlink:href="#DejaVuSans-48"/>
       <use x="127.246094" xlink:href="#DejaVuSans-50"/>
       <use x="190.869141" xlink:href="#DejaVuSans-48"/>
       <use x="254.492188" xlink:href="#DejaVuSans-45"/>
       <use x="290.576172" xlink:href="#DejaVuSans-48"/>
       <use x="354.199219" xlink:href="#DejaVuSans-55"/>
      </g>
     </g>
    </g>
    <g id="xtick_7">
     <g id="line2d_13">
      <path clip-path="url(#p75434a75f9)" d="M 703.754697 152.2 
L 703.754697 10.8 
" style="fill:none;stroke:#ffffff;stroke-linecap:square;stroke-width:0.8;"/>
     </g>
     <g id="line2d_14">
      <g>
       <use style="fill:#555555;stroke:#555555;stroke-width:0.8;" x="703.754697" xlink:href="#m804aa8ca8b" y="152.2"/>
      </g>
     </g>
     <g id="text_7">
      <!-- 2020-08 -->
      <defs>
       <path d="M 31.78125 34.625 
Q 24.75 34.625 20.71875 30.859375 
Q 16.703125 27.09375 16.703125 20.515625 
Q 16.703125 13.921875 20.71875 10.15625 
Q 24.75 6.390625 31.78125 6.390625 
Q 38.8125 6.390625 42.859375 10.171875 
Q 46.921875 13.96875 46.921875 20.515625 
Q 46.921875 27.09375 42.890625 30.859375 
Q 38.875 34.625 31.78125 34.625 
z
M 21.921875 38.8125 
Q 15.578125 40.375 12.03125 44.71875 
Q 8.5 49.078125 8.5 55.328125 
Q 8.5 64.0625 14.71875 69.140625 
Q 20.953125 74.21875 31.78125 74.21875 
Q 42.671875 74.21875 48.875 69.140625 
Q 55.078125 64.0625 55.078125 55.328125 
Q 55.078125 49.078125 51.53125 44.71875 
Q 48 40.375 41.703125 38.8125 
Q 48.828125 37.15625 52.796875 32.3125 
Q 56.78125 27.484375 56.78125 20.515625 
Q 56.78125 9.90625 50.3125 4.234375 
Q 43.84375 -1.421875 31.78125 -1.421875 
Q 19.734375 -1.421875 13.25 4.234375 
Q 6.78125 9.90625 6.78125 20.515625 
Q 6.78125 27.484375 10.78125 32.3125 
Q 14.796875 37.15625 21.921875 38.8125 
z
M 18.3125 54.390625 
Q 18.3125 48.734375 21.84375 45.5625 
Q 25.390625 42.390625 31.78125 42.390625 
Q 38.140625 42.390625 41.71875 45.5625 
Q 45.3125 48.734375 45.3125 54.390625 
Q 45.3125 60.0625 41.71875 63.234375 
Q 38.140625 66.40625 31.78125 66.40625 
Q 25.390625 66.40625 21.84375 63.234375 
Q 18.3125 60.0625 18.3125 54.390625 
z
" id="DejaVuSans-56"/>
      </defs>
      <g style="fill:#555555;" transform="translate(682.863291 166.798438)scale(0.1 -0.1)">
       <use xlink:href="#DejaVuSans-50"/>
       <use x="63.623047" xlink:href="#DejaVuSans-48"/>
       <use x="127.246094" xlink:href="#DejaVuSans-50"/>
       <use x="190.869141" xlink:href="#DejaVuSans-48"/>
       <use x="254.492188" xlink:href="#DejaVuSans-45"/>
       <use x="290.576172" xlink:href="#DejaVuSans-48"/>
       <use x="354.199219" xlink:href="#DejaVuSans-56"/>
      </g>
     </g>
    </g>
    <g id="xtick_8">
     <g id="line2d_15">
      <path clip-path="url(#p75434a75f9)" d="M 801.489974 152.2 
L 801.489974 10.8 
" style="fill:none;stroke:#ffffff;stroke-linecap:square;stroke-width:0.8;"/>
     </g>
     <g id="line2d_16">
      <g>
       <use style="fill:#555555;stroke:#555555;stroke-width:0.8;" x="801.489974" xlink:href="#m804aa8ca8b" y="152.2"/>
      </g>
     </g>
     <g id="text_8">
      <!-- 2020-09 -->
      <defs>
       <path d="M 10.984375 1.515625 
L 10.984375 10.5 
Q 14.703125 8.734375 18.5 7.8125 
Q 22.3125 6.890625 25.984375 6.890625 
Q 35.75 6.890625 40.890625 13.453125 
Q 46.046875 20.015625 46.78125 33.40625 
Q 43.953125 29.203125 39.59375 26.953125 
Q 35.25 24.703125 29.984375 24.703125 
Q 19.046875 24.703125 12.671875 31.3125 
Q 6.296875 37.9375 6.296875 49.421875 
Q 6.296875 60.640625 12.9375 67.421875 
Q 19.578125 74.21875 30.609375 74.21875 
Q 43.265625 74.21875 49.921875 64.515625 
Q 56.59375 54.828125 56.59375 36.375 
Q 56.59375 19.140625 48.40625 8.859375 
Q 40.234375 -1.421875 26.421875 -1.421875 
Q 22.703125 -1.421875 18.890625 -0.6875 
Q 15.09375 0.046875 10.984375 1.515625 
z
M 30.609375 32.421875 
Q 37.25 32.421875 41.125 36.953125 
Q 45.015625 41.5 45.015625 49.421875 
Q 45.015625 57.28125 41.125 61.84375 
Q 37.25 66.40625 30.609375 66.40625 
Q 23.96875 66.40625 20.09375 61.84375 
Q 16.21875 57.28125 16.21875 49.421875 
Q 16.21875 41.5 20.09375 36.953125 
Q 23.96875 32.421875 30.609375 32.421875 
z
" id="DejaVuSans-57"/>
      </defs>
      <g style="fill:#555555;" transform="translate(780.598568 166.798438)scale(0.1 -0.1)">
       <use xlink:href="#DejaVuSans-50"/>
       <use x="63.623047" xlink:href="#DejaVuSans-48"/>
       <use x="127.246094" xlink:href="#DejaVuSans-50"/>
       <use x="190.869141" xlink:href="#DejaVuSans-48"/>
       <use x="254.492188" xlink:href="#DejaVuSans-45"/>
       <use x="290.576172" xlink:href="#DejaVuSans-48"/>
       <use x="354.199219" xlink:href="#DejaVuSans-57"/>
      </g>
     </g>
    </g>
   </g>
   <g id="matplotlib.axis_2">
    <g id="ytick_1">
     <g id="line2d_17">
      <path clip-path="url(#p75434a75f9)" d="M 66.3 152.2 
L 814.7 152.2 
" style="fill:none;stroke:#ffffff;stroke-linecap:square;stroke-width:0.8;"/>
     </g>
     <g id="line2d_18">
      <defs>
       <path d="M 0 0 
L -3.5 0 
" id="mf141a25901" style="stroke:#555555;stroke-width:0.8;"/>
      </defs>
      <g>
       <use style="fill:#555555;stroke:#555555;stroke-width:0.8;" x="66.3" xlink:href="#mf141a25901" y="152.2"/>
      </g>
     </g>
     <g id="line2d_19">
      <defs>
       <path d="M 0 0 
L 3.5 0 
" id="m873d5aaac5" style="stroke:#555555;stroke-width:0.8;"/>
      </defs>
      <g>
       <use style="fill:#555555;stroke:#555555;stroke-width:0.8;" x="814.7" xlink:href="#m873d5aaac5" y="152.2"/>
      </g>
     </g>
     <g id="text_9">
      <!-- 0 -->
      <g style="fill:#555555;" transform="translate(52.9375 155.999219)scale(0.1 -0.1)">
       <use xlink:href="#DejaVuSans-48"/>
      </g>
     </g>
     <g id="text_10">
      <!-- 0 -->
      <g style="fill:#555555;" transform="translate(821.7 155.999219)scale(0.1 -0.1)">
       <use xlink:href="#DejaVuSans-48"/>
      </g>
     </g>
    </g>
    <g id="ytick_2">
     <g id="line2d_20">
      <path clip-path="url(#p75434a75f9)" d="M 66.3 116.763269 
L 814.7 116.763269 
" style="fill:none;stroke:#ffffff;stroke-linecap:square;stroke-width:0.8;"/>
     </g>
     <g id="line2d_21">
      <g>
       <use style="fill:#555555;stroke:#555555;stroke-width:0.8;" x="66.3" xlink:href="#mf141a25901" y="116.763269"/>
      </g>
     </g>
     <g id="line2d_22">
      <g>
       <use style="fill:#555555;stroke:#555555;stroke-width:0.8;" x="814.7" xlink:href="#m873d5aaac5" y="116.763269"/>
      </g>
     </g>
     <g id="text_11">
      <!-- 5000 -->
      <g style="fill:#555555;" transform="translate(33.85 120.562487)scale(0.1 -0.1)">
       <use xlink:href="#DejaVuSans-53"/>
       <use x="63.623047" xlink:href="#DejaVuSans-48"/>
       <use x="127.246094" xlink:href="#DejaVuSans-48"/>
       <use x="190.869141" xlink:href="#DejaVuSans-48"/>
      </g>
     </g>
     <g id="text_12">
      <!-- 5000 -->
      <g style="fill:#555555;" transform="translate(821.7 120.562487)scale(0.1 -0.1)">
       <use xlink:href="#DejaVuSans-53"/>
       <use x="63.623047" xlink:href="#DejaVuSans-48"/>
       <use x="127.246094" xlink:href="#DejaVuSans-48"/>
       <use x="190.869141" xlink:href="#DejaVuSans-48"/>
      </g>
     </g>
    </g>
    <g id="ytick_3">
     <g id="line2d_23">
      <path clip-path="url(#p75434a75f9)" d="M 66.3 81.326537 
L 814.7 81.326537 
" style="fill:none;stroke:#ffffff;stroke-linecap:square;stroke-width:0.8;"/>
     </g>
     <g id="line2d_24">
      <g>
       <use style="fill:#555555;stroke:#555555;stroke-width:0.8;" x="66.3" xlink:href="#mf141a25901" y="81.326537"/>
      </g>
     </g>
     <g id="line2d_25">
      <g>
       <use style="fill:#555555;stroke:#555555;stroke-width:0.8;" x="814.7" xlink:href="#m873d5aaac5" y="81.326537"/>
      </g>
     </g>
     <g id="text_13">
      <!-- 10000 -->
      <defs>
       <path d="M 12.40625 8.296875 
L 28.515625 8.296875 
L 28.515625 63.921875 
L 10.984375 60.40625 
L 10.984375 69.390625 
L 28.421875 72.90625 
L 38.28125 72.90625 
L 38.28125 8.296875 
L 54.390625 8.296875 
L 54.390625 0 
L 12.40625 0 
z
" id="DejaVuSans-49"/>
      </defs>
      <g style="fill:#555555;" transform="translate(27.4875 85.125756)scale(0.1 -0.1)">
       <use xlink:href="#DejaVuSans-49"/>
       <use x="63.623047" xlink:href="#DejaVuSans-48"/>
       <use x="127.246094" xlink:href="#DejaVuSans-48"/>
       <use x="190.869141" xlink:href="#DejaVuSans-48"/>
       <use x="254.492188" xlink:href="#DejaVuSans-48"/>
      </g>
     </g>
     <g id="text_14">
      <!-- 10000 -->
      <g style="fill:#555555;" transform="translate(821.7 85.125756)scale(0.1 -0.1)">
       <use xlink:href="#DejaVuSans-49"/>
       <use x="63.623047" xlink:href="#DejaVuSans-48"/>
       <use x="127.246094" xlink:href="#DejaVuSans-48"/>
       <use x="190.869141" xlink:href="#DejaVuSans-48"/>
       <use x="254.492188" xlink:href="#DejaVuSans-48"/>
      </g>
     </g>
    </g>
    <g id="ytick_4">
     <g id="line2d_26">
      <path clip-path="url(#p75434a75f9)" d="M 66.3 45.889806 
L 814.7 45.889806 
" style="fill:none;stroke:#ffffff;stroke-linecap:square;stroke-width:0.8;"/>
     </g>
     <g id="line2d_27">
      <g>
       <use style="fill:#555555;stroke:#555555;stroke-width:0.8;" x="66.3" xlink:href="#mf141a25901" y="45.889806"/>
      </g>
     </g>
     <g id="line2d_28">
      <g>
       <use style="fill:#555555;stroke:#555555;stroke-width:0.8;" x="814.7" xlink:href="#m873d5aaac5" y="45.889806"/>
      </g>
     </g>
     <g id="text_15">
      <!-- 15000 -->
      <g style="fill:#555555;" transform="translate(27.4875 49.689025)scale(0.1 -0.1)">
       <use xlink:href="#DejaVuSans-49"/>
       <use x="63.623047" xlink:href="#DejaVuSans-53"/>
       <use x="127.246094" xlink:href="#DejaVuSans-48"/>
       <use x="190.869141" xlink:href="#DejaVuSans-48"/>
       <use x="254.492188" xlink:href="#DejaVuSans-48"/>
      </g>
     </g>
     <g id="text_16">
      <!-- 15000 -->
      <g style="fill:#555555;" transform="translate(821.7 49.689025)scale(0.1 -0.1)">
       <use xlink:href="#DejaVuSans-49"/>
       <use x="63.623047" xlink:href="#DejaVuSans-53"/>
       <use x="127.246094" xlink:href="#DejaVuSans-48"/>
       <use x="190.869141" xlink:href="#DejaVuSans-48"/>
       <use x="254.492188" xlink:href="#DejaVuSans-48"/>
      </g>
     </g>
    </g>
    <g id="text_17">
     <!-- daily change -->
     <defs>
      <path d="M 45.40625 46.390625 
L 45.40625 75.984375 
L 54.390625 75.984375 
L 54.390625 0 
L 45.40625 0 
L 45.40625 8.203125 
Q 42.578125 3.328125 38.25 0.953125 
Q 33.9375 -1.421875 27.875 -1.421875 
Q 17.96875 -1.421875 11.734375 6.484375 
Q 5.515625 14.40625 5.515625 27.296875 
Q 5.515625 40.1875 11.734375 48.09375 
Q 17.96875 56 27.875 56 
Q 33.9375 56 38.25 53.625 
Q 42.578125 51.265625 45.40625 46.390625 
z
M 14.796875 27.296875 
Q 14.796875 17.390625 18.875 11.75 
Q 22.953125 6.109375 30.078125 6.109375 
Q 37.203125 6.109375 41.296875 11.75 
Q 45.40625 17.390625 45.40625 27.296875 
Q 45.40625 37.203125 41.296875 42.84375 
Q 37.203125 48.484375 30.078125 48.484375 
Q 22.953125 48.484375 18.875 42.84375 
Q 14.796875 37.203125 14.796875 27.296875 
z
" id="DejaVuSans-100"/>
      <path d="M 34.28125 27.484375 
Q 23.390625 27.484375 19.1875 25 
Q 14.984375 22.515625 14.984375 16.5 
Q 14.984375 11.71875 18.140625 8.90625 
Q 21.296875 6.109375 26.703125 6.109375 
Q 34.1875 6.109375 38.703125 11.40625 
Q 43.21875 16.703125 43.21875 25.484375 
L 43.21875 27.484375 
z
M 52.203125 31.203125 
L 52.203125 0 
L 43.21875 0 
L 43.21875 8.296875 
Q 40.140625 3.328125 35.546875 0.953125 
Q 30.953125 -1.421875 24.3125 -1.421875 
Q 15.921875 -1.421875 10.953125 3.296875 
Q 6 8.015625 6 15.921875 
Q 6 25.140625 12.171875 29.828125 
Q 18.359375 34.515625 30.609375 34.515625 
L 43.21875 34.515625 
L 43.21875 35.40625 
Q 43.21875 41.609375 39.140625 45 
Q 35.0625 48.390625 27.6875 48.390625 
Q 23 48.390625 18.546875 47.265625 
Q 14.109375 46.140625 10.015625 43.890625 
L 10.015625 52.203125 
Q 14.9375 54.109375 19.578125 55.046875 
Q 24.21875 56 28.609375 56 
Q 40.484375 56 46.34375 49.84375 
Q 52.203125 43.703125 52.203125 31.203125 
z
" id="DejaVuSans-97"/>
      <path d="M 9.421875 54.6875 
L 18.40625 54.6875 
L 18.40625 0 
L 9.421875 0 
z
M 9.421875 75.984375 
L 18.40625 75.984375 
L 18.40625 64.59375 
L 9.421875 64.59375 
z
" id="DejaVuSans-105"/>
      <path d="M 9.421875 75.984375 
L 18.40625 75.984375 
L 18.40625 0 
L 9.421875 0 
z
" id="DejaVuSans-108"/>
      <path d="M 32.171875 -5.078125 
Q 28.375 -14.84375 24.75 -17.8125 
Q 21.140625 -20.796875 15.09375 -20.796875 
L 7.90625 -20.796875 
L 7.90625 -13.28125 
L 13.1875 -13.28125 
Q 16.890625 -13.28125 18.9375 -11.515625 
Q 21 -9.765625 23.484375 -3.21875 
L 25.09375 0.875 
L 2.984375 54.6875 
L 12.5 54.6875 
L 29.59375 11.921875 
L 46.6875 54.6875 
L 56.203125 54.6875 
z
" id="DejaVuSans-121"/>
      <path id="DejaVuSans-32"/>
      <path d="M 48.78125 52.59375 
L 48.78125 44.1875 
Q 44.96875 46.296875 41.140625 47.34375 
Q 37.3125 48.390625 33.40625 48.390625 
Q 24.65625 48.390625 19.8125 42.84375 
Q 14.984375 37.3125 14.984375 27.296875 
Q 14.984375 17.28125 19.8125 11.734375 
Q 24.65625 6.203125 33.40625 6.203125 
Q 37.3125 6.203125 41.140625 7.25 
Q 44.96875 8.296875 48.78125 10.40625 
L 48.78125 2.09375 
Q 45.015625 0.34375 40.984375 -0.53125 
Q 36.96875 -1.421875 32.421875 -1.421875 
Q 20.0625 -1.421875 12.78125 6.34375 
Q 5.515625 14.109375 5.515625 27.296875 
Q 5.515625 40.671875 12.859375 48.328125 
Q 20.21875 56 33.015625 56 
Q 37.15625 56 41.109375 55.140625 
Q 45.0625 54.296875 48.78125 52.59375 
z
" id="DejaVuSans-99"/>
      <path d="M 54.890625 33.015625 
L 54.890625 0 
L 45.90625 0 
L 45.90625 32.71875 
Q 45.90625 40.484375 42.875 44.328125 
Q 39.84375 48.1875 33.796875 48.1875 
Q 26.515625 48.1875 22.3125 43.546875 
Q 18.109375 38.921875 18.109375 30.90625 
L 18.109375 0 
L 9.078125 0 
L 9.078125 75.984375 
L 18.109375 75.984375 
L 18.109375 46.1875 
Q 21.34375 51.125 25.703125 53.5625 
Q 30.078125 56 35.796875 56 
Q 45.21875 56 50.046875 50.171875 
Q 54.890625 44.34375 54.890625 33.015625 
z
" id="DejaVuSans-104"/>
      <path d="M 54.890625 33.015625 
L 54.890625 0 
L 45.90625 0 
L 45.90625 32.71875 
Q 45.90625 40.484375 42.875 44.328125 
Q 39.84375 48.1875 33.796875 48.1875 
Q 26.515625 48.1875 22.3125 43.546875 
Q 18.109375 38.921875 18.109375 30.90625 
L 18.109375 0 
L 9.078125 0 
L 9.078125 54.6875 
L 18.109375 54.6875 
L 18.109375 46.1875 
Q 21.34375 51.125 25.703125 53.5625 
Q 30.078125 56 35.796875 56 
Q 45.21875 56 50.046875 50.171875 
Q 54.890625 44.34375 54.890625 33.015625 
z
" id="DejaVuSans-110"/>
      <path d="M 45.40625 27.984375 
Q 45.40625 37.75 41.375 43.109375 
Q 37.359375 48.484375 30.078125 48.484375 
Q 22.859375 48.484375 18.828125 43.109375 
Q 14.796875 37.75 14.796875 27.984375 
Q 14.796875 18.265625 18.828125 12.890625 
Q 22.859375 7.515625 30.078125 7.515625 
Q 37.359375 7.515625 41.375 12.890625 
Q 45.40625 18.265625 45.40625 27.984375 
z
M 54.390625 6.78125 
Q 54.390625 -7.171875 48.1875 -13.984375 
Q 42 -20.796875 29.203125 -20.796875 
Q 24.46875 -20.796875 20.265625 -20.09375 
Q 16.0625 -19.390625 12.109375 -17.921875 
L 12.109375 -9.1875 
Q 16.0625 -11.328125 19.921875 -12.34375 
Q 23.78125 -13.375 27.78125 -13.375 
Q 36.625 -13.375 41.015625 -8.765625 
Q 45.40625 -4.15625 45.40625 5.171875 
L 45.40625 9.625 
Q 42.625 4.78125 38.28125 2.390625 
Q 33.9375 0 27.875 0 
Q 17.828125 0 11.671875 7.65625 
Q 5.515625 15.328125 5.515625 27.984375 
Q 5.515625 40.671875 11.671875 48.328125 
Q 17.828125 56 27.875 56 
Q 33.9375 56 38.28125 53.609375 
Q 42.625 51.21875 45.40625 46.390625 
L 45.40625 54.6875 
L 54.390625 54.6875 
z
" id="DejaVuSans-103"/>
      <path d="M 56.203125 29.59375 
L 56.203125 25.203125 
L 14.890625 25.203125 
Q 15.484375 15.921875 20.484375 11.0625 
Q 25.484375 6.203125 34.421875 6.203125 
Q 39.59375 6.203125 44.453125 7.46875 
Q 49.3125 8.734375 54.109375 11.28125 
L 54.109375 2.78125 
Q 49.265625 0.734375 44.1875 -0.34375 
Q 39.109375 -1.421875 33.890625 -1.421875 
Q 20.796875 -1.421875 13.15625 6.1875 
Q 5.515625 13.8125 5.515625 26.8125 
Q 5.515625 40.234375 12.765625 48.109375 
Q 20.015625 56 32.328125 56 
Q 43.359375 56 49.78125 48.890625 
Q 56.203125 41.796875 56.203125 29.59375 
z
M 47.21875 32.234375 
Q 47.125 39.59375 43.09375 43.984375 
Q 39.0625 48.390625 32.421875 48.390625 
Q 24.90625 48.390625 20.390625 44.140625 
Q 15.875 39.890625 15.1875 32.171875 
z
" id="DejaVuSans-101"/>
     </defs>
     <g style="fill:#555555;" transform="translate(20.991875 119.859688)rotate(-90)scale(0.12 -0.12)">
      <use xlink:href="#DejaVuSans-100"/>
      <use x="63.476562" xlink:href="#DejaVuSans-97"/>
      <use x="124.755859" xlink:href="#DejaVuSans-105"/>
      <use x="152.539062" xlink:href="#DejaVuSans-108"/>
      <use x="180.322266" xlink:href="#DejaVuSans-121"/>
      <use x="239.501953" xlink:href="#DejaVuSans-32"/>
      <use x="271.289062" xlink:href="#DejaVuSans-99"/>
      <use x="326.269531" xlink:href="#DejaVuSans-104"/>
      <use x="389.648438" xlink:href="#DejaVuSans-97"/>
      <use x="450.927734" xlink:href="#DejaVuSans-110"/>
      <use x="514.306641" xlink:href="#DejaVuSans-103"/>
      <use x="577.783203" xlink:href="#DejaVuSans-101"/>
     </g>
    </g>
   </g>
   <g id="patch_3">
    <path clip-path="url(#p75434a75f9)" d="M 100.318182 152.2 
L 102.840383 152.2 
L 102.840383 152.2 
L 100.318182 152.2 
z
" style="fill:#348abd;opacity:0.2;"/>
   </g>
   <g id="patch_4">
    <path clip-path="url(#p75434a75f9)" d="M 103.470933 152.2 
L 105.993133 152.2 
L 105.993133 152.2 
L 103.470933 152.2 
z
" style="fill:#348abd;opacity:0.2;"/>
   </g>
   <g id="patch_5">
    <path clip-path="url(#p75434a75f9)" d="M 106.623684 152.2 
L 109.145884 152.2 
L 109.145884 152.2 
L 106.623684 152.2 
z
" style="fill:#348abd;opacity:0.2;"/>
   </g>
   <g id="patch_6">
    <path clip-path="url(#p75434a75f9)" d="M 109.776434 152.2 
L 112.298635 152.2 
L 112.298635 152.2 
L 109.776434 152.2 
z
" style="fill:#348abd;opacity:0.2;"/>
   </g>
   <g id="patch_7">
    <path clip-path="url(#p75434a75f9)" d="M 112.929185 152.2 
L 115.451386 152.2 
L 115.451386 152.2 
L 112.929185 152.2 
z
" style="fill:#348abd;opacity:0.2;"/>
   </g>
   <g id="patch_8">
    <path clip-path="url(#p75434a75f9)" d="M 116.081936 152.2 
L 118.604137 152.2 
L 118.604137 152.2 
L 116.081936 152.2 
z
" style="fill:#348abd;opacity:0.2;"/>
   </g>
   <g id="patch_9">
    <path clip-path="url(#p75434a75f9)" d="M 119.234687 152.2 
L 121.756888 152.2 
L 121.756888 152.2 
L 119.234687 152.2 
z
" style="fill:#348abd;opacity:0.2;"/>
   </g>
   <g id="patch_10">
    <path clip-path="url(#p75434a75f9)" d="M 122.387438 152.2 
L 124.909639 152.2 
L 124.909639 152.2 
L 122.387438 152.2 
z
" style="fill:#348abd;opacity:0.2;"/>
   </g>
   <g id="patch_11">
    <path clip-path="url(#p75434a75f9)" d="M 125.540189 152.2 
L 128.062389 152.2 
L 128.062389 152.2 
L 125.540189 152.2 
z
" style="fill:#348abd;opacity:0.2;"/>
   </g>
   <g id="patch_12">
    <path clip-path="url(#p75434a75f9)" d="M 128.69294 152.2 
L 131.21514 152.2 
L 131.21514 152.2 
L 128.69294 152.2 
z
" style="fill:#348abd;opacity:0.2;"/>
   </g>
   <g id="patch_13">
    <path clip-path="url(#p75434a75f9)" d="M 131.84569 152.2 
L 134.367891 152.2 
L 134.367891 152.2 
L 131.84569 152.2 
z
" style="fill:#348abd;opacity:0.2;"/>
   </g>
   <g id="patch_14">
    <path clip-path="url(#p75434a75f9)" d="M 134.998441 152.2 
L 137.520642 152.2 
L 137.520642 152.2 
L 134.998441 152.2 
z
" style="fill:#348abd;opacity:0.2;"/>
   </g>
   <g id="patch_15">
    <path clip-path="url(#p75434a75f9)" d="M 138.151192 152.2 
L 140.673393 152.2 
L 140.673393 152.2 
L 138.151192 152.2 
z
" style="fill:#348abd;opacity:0.2;"/>
   </g>
   <g id="patch_16">
    <path clip-path="url(#p75434a75f9)" d="M 141.303943 152.2 
L 143.826144 152.2 
L 143.826144 152.2 
L 141.303943 152.2 
z
" style="fill:#348abd;opacity:0.2;"/>
   </g>
   <g id="patch_17">
    <path clip-path="url(#p75434a75f9)" d="M 144.456694 152.2 
L 146.978895 152.2 
L 146.978895 152.2 
L 144.456694 152.2 
z
" style="fill:#348abd;opacity:0.2;"/>
   </g>
   <g id="patch_18">
    <path clip-path="url(#p75434a75f9)" d="M 147.609445 152.2 
L 150.131645 152.2 
L 150.131645 152.2 
L 147.609445 152.2 
z
" style="fill:#348abd;opacity:0.2;"/>
   </g>
   <g id="patch_19">
    <path clip-path="url(#p75434a75f9)" d="M 150.762196 152.2 
L 153.284396 152.2 
L 153.284396 152.2 
L 150.762196 152.2 
z
" style="fill:#348abd;opacity:0.2;"/>
   </g>
   <g id="patch_20">
    <path clip-path="url(#p75434a75f9)" d="M 153.914946 152.2 
L 156.437147 152.2 
L 156.437147 152.2 
L 153.914946 152.2 
z
" style="fill:#348abd;opacity:0.2;"/>
   </g>
   <g id="patch_21">
    <path clip-path="url(#p75434a75f9)" d="M 157.067697 152.2 
L 159.589898 152.2 
L 159.589898 152.2 
L 157.067697 152.2 
z
" style="fill:#348abd;opacity:0.2;"/>
   </g>
   <g id="patch_22">
    <path clip-path="url(#p75434a75f9)" d="M 160.220448 152.2 
L 162.742649 152.2 
L 162.742649 152.2 
L 160.220448 152.2 
z
" style="fill:#348abd;opacity:0.2;"/>
   </g>
   <g id="patch_23">
    <path clip-path="url(#p75434a75f9)" d="M 163.373199 152.2 
L 165.8954 152.2 
L 165.8954 152.2 
L 163.373199 152.2 
z
" style="fill:#348abd;opacity:0.2;"/>
   </g>
   <g id="patch_24">
    <path clip-path="url(#p75434a75f9)" d="M 166.52595 152.2 
L 169.048151 152.2 
L 169.048151 152.2 
L 166.52595 152.2 
z
" style="fill:#348abd;opacity:0.2;"/>
   </g>
   <g id="patch_25">
    <path clip-path="url(#p75434a75f9)" d="M 169.678701 152.2 
L 172.200902 152.2 
L 172.200902 152.2 
L 169.678701 152.2 
z
" style="fill:#348abd;opacity:0.2;"/>
   </g>
   <g id="patch_26">
    <path clip-path="url(#p75434a75f9)" d="M 172.831452 152.2 
L 175.353652 152.2 
L 175.353652 152.2 
L 172.831452 152.2 
z
" style="fill:#348abd;opacity:0.2;"/>
   </g>
   <g id="patch_27">
    <path clip-path="url(#p75434a75f9)" d="M 175.984203 152.2 
L 178.506403 152.2 
L 178.506403 152.2 
L 175.984203 152.2 
z
" style="fill:#348abd;opacity:0.2;"/>
   </g>
   <g id="patch_28">
    <path clip-path="url(#p75434a75f9)" d="M 179.136953 152.2 
L 181.659154 152.2 
L 181.659154 152.2 
L 179.136953 152.2 
z
" style="fill:#348abd;opacity:0.2;"/>
   </g>
   <g id="patch_29">
    <path clip-path="url(#p75434a75f9)" d="M 182.289704 152.2 
L 184.811905 152.2 
L 184.811905 152.2 
L 182.289704 152.2 
z
" style="fill:#348abd;opacity:0.2;"/>
   </g>
   <g id="patch_30">
    <path clip-path="url(#p75434a75f9)" d="M 185.442455 152.2 
L 187.964656 152.2 
L 187.964656 152.2 
L 185.442455 152.2 
z
" style="fill:#348abd;opacity:0.2;"/>
   </g>
   <g id="patch_31">
    <path clip-path="url(#p75434a75f9)" d="M 188.595206 152.2 
L 191.117407 152.2 
L 191.117407 152.2 
L 188.595206 152.2 
z
" style="fill:#348abd;opacity:0.2;"/>
   </g>
   <g id="patch_32">
    <path clip-path="url(#p75434a75f9)" d="M 191.747957 152.2 
L 194.270158 152.2 
L 194.270158 152.2 
L 191.747957 152.2 
z
" style="fill:#348abd;opacity:0.2;"/>
   </g>
   <g id="patch_33">
    <path clip-path="url(#p75434a75f9)" d="M 194.900708 152.2 
L 197.422908 152.2 
L 197.422908 152.2 
L 194.900708 152.2 
z
" style="fill:#348abd;opacity:0.2;"/>
   </g>
   <g id="patch_34">
    <path clip-path="url(#p75434a75f9)" d="M 198.053459 152.2 
L 200.575659 152.2 
L 200.575659 152.2 
L 198.053459 152.2 
z
" style="fill:#348abd;opacity:0.2;"/>
   </g>
   <g id="patch_35">
    <path clip-path="url(#p75434a75f9)" d="M 201.206209 152.2 
L 203.72841 152.2 
L 203.72841 152.2 
L 201.206209 152.2 
z
" style="fill:#348abd;opacity:0.2;"/>
   </g>
   <g id="patch_36">
    <path clip-path="url(#p75434a75f9)" d="M 204.35896 152.2 
L 206.881161 152.2 
L 206.881161 152.2 
L 204.35896 152.2 
z
" style="fill:#348abd;opacity:0.2;"/>
   </g>
   <g id="patch_37">
    <path clip-path="url(#p75434a75f9)" d="M 207.511711 152.2 
L 210.033912 152.2 
L 210.033912 152.2 
L 207.511711 152.2 
z
" style="fill:#348abd;opacity:0.2;"/>
   </g>
   <g id="patch_38">
    <path clip-path="url(#p75434a75f9)" d="M 210.664462 152.2 
L 213.186663 152.2 
L 213.186663 152.2 
L 210.664462 152.2 
z
" style="fill:#348abd;opacity:0.2;"/>
   </g>
   <g id="patch_39">
    <path clip-path="url(#p75434a75f9)" d="M 213.817213 152.2 
L 216.339414 152.2 
L 216.339414 152.2 
L 213.817213 152.2 
z
" style="fill:#348abd;opacity:0.2;"/>
   </g>
   <g id="patch_40">
    <path clip-path="url(#p75434a75f9)" d="M 216.969964 152.2 
L 219.492164 152.2 
L 219.492164 152.2 
L 216.969964 152.2 
z
" style="fill:#348abd;opacity:0.2;"/>
   </g>
   <g id="patch_41">
    <path clip-path="url(#p75434a75f9)" d="M 220.122715 152.2 
L 222.644915 152.2 
L 222.644915 152.2 
L 220.122715 152.2 
z
" style="fill:#348abd;opacity:0.2;"/>
   </g>
   <g id="patch_42">
    <path clip-path="url(#p75434a75f9)" d="M 223.275465 152.2 
L 225.797666 152.2 
L 225.797666 152.2 
L 223.275465 152.2 
z
" style="fill:#348abd;opacity:0.2;"/>
   </g>
   <g id="patch_43">
    <path clip-path="url(#p75434a75f9)" d="M 226.428216 152.2 
L 228.950417 152.2 
L 228.950417 152.2 
L 226.428216 152.2 
z
" style="fill:#348abd;opacity:0.2;"/>
   </g>
   <g id="patch_44">
    <path clip-path="url(#p75434a75f9)" d="M 229.580967 152.2 
L 232.103168 152.2 
L 232.103168 152.2 
L 229.580967 152.2 
z
" style="fill:#348abd;opacity:0.2;"/>
   </g>
   <g id="patch_45">
    <path clip-path="url(#p75434a75f9)" d="M 232.733718 152.2 
L 235.255919 152.2 
L 235.255919 152.2 
L 232.733718 152.2 
z
" style="fill:#348abd;opacity:0.2;"/>
   </g>
   <g id="patch_46">
    <path clip-path="url(#p75434a75f9)" d="M 235.886469 152.2 
L 238.40867 152.2 
L 238.40867 152.192913 
L 235.886469 152.192913 
z
" style="fill:#348abd;opacity:0.2;"/>
   </g>
   <g id="patch_47">
    <path clip-path="url(#p75434a75f9)" d="M 239.03922 152.2 
L 241.561421 152.2 
L 241.561421 152.2 
L 239.03922 152.2 
z
" style="fill:#348abd;opacity:0.2;"/>
   </g>
   <g id="patch_48">
    <path clip-path="url(#p75434a75f9)" d="M 242.191971 152.2 
L 244.714171 152.2 
L 244.714171 152.2 
L 242.191971 152.2 
z
" style="fill:#348abd;opacity:0.2;"/>
   </g>
   <g id="patch_49">
    <path clip-path="url(#p75434a75f9)" d="M 245.344722 152.2 
L 247.866922 152.2 
L 247.866922 152.2 
L 245.344722 152.2 
z
" style="fill:#348abd;opacity:0.2;"/>
   </g>
   <g id="patch_50">
    <path clip-path="url(#p75434a75f9)" d="M 248.497472 152.2 
L 251.019673 152.2 
L 251.019673 152.185825 
L 248.497472 152.185825 
z
" style="fill:#348abd;opacity:0.2;"/>
   </g>
   <g id="patch_51">
    <path clip-path="url(#p75434a75f9)" d="M 251.650223 152.2 
L 254.172424 152.2 
L 254.172424 152.157476 
L 251.650223 152.157476 
z
" style="fill:#348abd;opacity:0.2;"/>
   </g>
   <g id="patch_52">
    <path clip-path="url(#p75434a75f9)" d="M 254.802974 152.2 
L 257.325175 152.2 
L 257.325175 152.2 
L 254.802974 152.2 
z
" style="fill:#348abd;opacity:0.2;"/>
   </g>
   <g id="patch_53">
    <path clip-path="url(#p75434a75f9)" d="M 257.955725 152.2 
L 260.477926 152.2 
L 260.477926 152.171651 
L 257.955725 152.171651 
z
" style="fill:#348abd;opacity:0.2;"/>
   </g>
   <g id="patch_54">
    <path clip-path="url(#p75434a75f9)" d="M 261.108476 152.2 
L 263.630677 152.2 
L 263.630677 152.136214 
L 261.108476 152.136214 
z
" style="fill:#348abd;opacity:0.2;"/>
   </g>
   <g id="patch_55">
    <path clip-path="url(#p75434a75f9)" d="M 264.261227 152.2 
L 266.783427 152.2 
L 266.783427 152.114952 
L 264.261227 152.114952 
z
" style="fill:#348abd;opacity:0.2;"/>
   </g>
   <g id="patch_56">
    <path clip-path="url(#p75434a75f9)" d="M 267.413978 152.2 
L 269.936178 152.2 
L 269.936178 152.036991 
L 267.413978 152.036991 
z
" style="fill:#348abd;opacity:0.2;"/>
   </g>
   <g id="patch_57">
    <path clip-path="url(#p75434a75f9)" d="M 270.566728 152.2 
L 273.088929 152.2 
L 273.088929 152.072428 
L 270.566728 152.072428 
z
" style="fill:#348abd;opacity:0.2;"/>
   </g>
   <g id="patch_58">
    <path clip-path="url(#p75434a75f9)" d="M 273.719479 152.2 
L 276.24168 152.2 
L 276.24168 152.008642 
L 273.719479 152.008642 
z
" style="fill:#348abd;opacity:0.2;"/>
   </g>
   <g id="patch_59">
    <path clip-path="url(#p75434a75f9)" d="M 276.87223 152.2 
L 279.394431 152.2 
L 279.394431 152.157476 
L 276.87223 152.157476 
z
" style="fill:#348abd;opacity:0.2;"/>
   </g>
   <g id="patch_60">
    <path clip-path="url(#p75434a75f9)" d="M 280.024981 152.2 
L 282.547182 152.2 
L 282.547182 151.845633 
L 280.024981 151.845633 
z
" style="fill:#348abd;opacity:0.2;"/>
   </g>
   <g id="patch_61">
    <path clip-path="url(#p75434a75f9)" d="M 283.177732 152.2 
L 285.699933 152.2 
L 285.699933 151.930681 
L 283.177732 151.930681 
z
" style="fill:#348abd;opacity:0.2;"/>
   </g>
   <g id="patch_62">
    <path clip-path="url(#p75434a75f9)" d="M 286.330483 152.2 
L 288.852683 152.2 
L 288.852683 151.951943 
L 286.330483 151.951943 
z
" style="fill:#348abd;opacity:0.2;"/>
   </g>
   <g id="patch_63">
    <path clip-path="url(#p75434a75f9)" d="M 289.483234 152.2 
L 292.005434 152.2 
L 292.005434 151.873982 
L 289.483234 151.873982 
z
" style="fill:#348abd;opacity:0.2;"/>
   </g>
   <g id="patch_64">
    <path clip-path="url(#p75434a75f9)" d="M 292.635984 152.2 
L 295.158185 152.2 
L 295.158185 151.484178 
L 292.635984 151.484178 
z
" style="fill:#348abd;opacity:0.2;"/>
   </g>
   <g id="patch_65">
    <path clip-path="url(#p75434a75f9)" d="M 295.788735 152.2 
L 298.310936 152.2 
L 298.310936 151.547964 
L 295.788735 151.547964 
z
" style="fill:#348abd;opacity:0.2;"/>
   </g>
   <g id="patch_66">
    <path clip-path="url(#p75434a75f9)" d="M 298.941486 152.2 
L 301.463687 152.2 
L 301.463687 152.051166 
L 298.941486 152.051166 
z
" style="fill:#348abd;opacity:0.2;"/>
   </g>
   <g id="patch_67">
    <path clip-path="url(#p75434a75f9)" d="M 302.094237 152.2 
L 304.616438 152.2 
L 304.616438 151.859807 
L 302.094237 151.859807 
z
" style="fill:#348abd;opacity:0.2;"/>
   </g>
   <g id="patch_68">
    <path clip-path="url(#p75434a75f9)" d="M 305.246988 152.2 
L 307.769189 152.2 
L 307.769189 151.710973 
L 305.246988 151.710973 
z
" style="fill:#348abd;opacity:0.2;"/>
   </g>
   <g id="patch_69">
    <path clip-path="url(#p75434a75f9)" d="M 308.399739 152.2 
L 310.92194 152.2 
L 310.92194 151.533789 
L 308.399739 151.533789 
z
" style="fill:#348abd;opacity:0.2;"/>
   </g>
   <g id="patch_70">
    <path clip-path="url(#p75434a75f9)" d="M 311.55249 152.2 
L 314.07469 152.2 
L 314.07469 151.519615 
L 311.55249 151.519615 
z
" style="fill:#348abd;opacity:0.2;"/>
   </g>
   <g id="patch_71">
    <path clip-path="url(#p75434a75f9)" d="M 314.705241 152.2 
L 317.227441 152.2 
L 317.227441 151.434567 
L 314.705241 151.434567 
z
" style="fill:#348abd;opacity:0.2;"/>
   </g>
   <g id="patch_72">
    <path clip-path="url(#p75434a75f9)" d="M 317.857991 152.2 
L 320.380192 152.2 
L 320.380192 151.073112 
L 317.857991 151.073112 
z
" style="fill:#348abd;opacity:0.2;"/>
   </g>
   <g id="patch_73">
    <path clip-path="url(#p75434a75f9)" d="M 321.010742 152.2 
L 323.532943 152.2 
L 323.532943 151.519615 
L 321.010742 151.519615 
z
" style="fill:#348abd;opacity:0.2;"/>
   </g>
   <g id="patch_74">
    <path clip-path="url(#p75434a75f9)" d="M 324.163493 152.2 
L 326.685694 152.2 
L 326.685694 151.448741 
L 324.163493 151.448741 
z
" style="fill:#348abd;opacity:0.2;"/>
   </g>
   <g id="patch_75">
    <path clip-path="url(#p75434a75f9)" d="M 327.316244 152.2 
L 329.838445 152.2 
L 329.838445 151.214859 
L 327.316244 151.214859 
z
" style="fill:#348abd;opacity:0.2;"/>
   </g>
   <g id="patch_76">
    <path clip-path="url(#p75434a75f9)" d="M 330.468995 152.2 
L 332.991196 152.2 
L 332.991196 151.6401 
L 330.468995 151.6401 
z
" style="fill:#348abd;opacity:0.2;"/>
   </g>
   <g id="patch_77">
    <path clip-path="url(#p75434a75f9)" d="M 333.621746 152.2 
L 336.143946 152.2 
L 336.143946 151.533789 
L 333.621746 151.533789 
z
" style="fill:#348abd;opacity:0.2;"/>
   </g>
   <g id="patch_78">
    <path clip-path="url(#p75434a75f9)" d="M 336.774497 152.2 
L 339.296697 152.2 
L 339.296697 150.775443 
L 336.774497 150.775443 
z
" style="fill:#348abd;opacity:0.2;"/>
   </g>
   <g id="patch_79">
    <path clip-path="url(#p75434a75f9)" d="M 339.927247 152.2 
L 342.449448 152.2 
L 342.449448 150.258067 
L 339.927247 150.258067 
z
" style="fill:#348abd;opacity:0.2;"/>
   </g>
   <g id="patch_80">
    <path clip-path="url(#p75434a75f9)" d="M 343.079998 152.2 
L 345.602199 152.2 
L 345.602199 151.002238 
L 343.079998 151.002238 
z
" style="fill:#348abd;opacity:0.2;"/>
   </g>
   <g id="patch_81">
    <path clip-path="url(#p75434a75f9)" d="M 346.232749 152.2 
L 348.75495 152.2 
L 348.75495 150.428163 
L 346.232749 150.428163 
z
" style="fill:#348abd;opacity:0.2;"/>
   </g>
   <g id="patch_82">
    <path clip-path="url(#p75434a75f9)" d="M 349.3855 152.2 
L 351.907701 152.2 
L 351.907701 150.527386 
L 349.3855 150.527386 
z
" style="fill:#348abd;opacity:0.2;"/>
   </g>
   <g id="patch_83">
    <path clip-path="url(#p75434a75f9)" d="M 352.538251 152.2 
L 355.060452 152.2 
L 355.060452 151.725148 
L 352.538251 151.725148 
z
" style="fill:#348abd;opacity:0.2;"/>
   </g>
   <g id="patch_84">
    <path clip-path="url(#p75434a75f9)" d="M 355.691002 152.2 
L 358.213202 152.2 
L 358.213202 151.661362 
L 355.691002 151.661362 
z
" style="fill:#348abd;opacity:0.2;"/>
   </g>
   <g id="patch_85">
    <path clip-path="url(#p75434a75f9)" d="M 358.843753 152.2 
L 361.365953 152.2 
L 361.365953 151.299907 
L 358.843753 151.299907 
z
" style="fill:#348abd;opacity:0.2;"/>
   </g>
   <g id="patch_86">
    <path clip-path="url(#p75434a75f9)" d="M 361.996503 152.2 
L 364.518704 152.2 
L 364.518704 151.306994 
L 361.996503 151.306994 
z
" style="fill:#348abd;opacity:0.2;"/>
   </g>
   <g id="patch_87">
    <path clip-path="url(#p75434a75f9)" d="M 365.149254 152.2 
L 367.671455 152.2 
L 367.671455 151.29282 
L 365.149254 151.29282 
z
" style="fill:#348abd;opacity:0.2;"/>
   </g>
   <g id="patch_88">
    <path clip-path="url(#p75434a75f9)" d="M 368.302005 152.2 
L 370.824206 152.2 
L 370.824206 150.740007 
L 368.302005 150.740007 
z
" style="fill:#348abd;opacity:0.2;"/>
   </g>
   <g id="patch_89">
    <path clip-path="url(#p75434a75f9)" d="M 371.454756 152.2 
L 373.976957 152.2 
L 373.976957 150.910103 
L 371.454756 150.910103 
z
" style="fill:#348abd;opacity:0.2;"/>
   </g>
   <g id="patch_90">
    <path clip-path="url(#p75434a75f9)" d="M 374.607507 152.2 
L 377.129708 152.2 
L 377.129708 150.988064 
L 374.607507 150.988064 
z
" style="fill:#348abd;opacity:0.2;"/>
   </g>
   <g id="patch_91">
    <path clip-path="url(#p75434a75f9)" d="M 377.760258 152.2 
L 380.282459 152.2 
L 380.282459 150.888841 
L 377.760258 150.888841 
z
" style="fill:#348abd;opacity:0.2;"/>
   </g>
   <g id="patch_92">
    <path clip-path="url(#p75434a75f9)" d="M 380.913009 152.2 
L 383.435209 152.2 
L 383.435209 150.980976 
L 380.913009 150.980976 
z
" style="fill:#348abd;opacity:0.2;"/>
   </g>
   <g id="patch_93">
    <path clip-path="url(#p75434a75f9)" d="M 384.06576 152.2 
L 386.58796 152.2 
L 386.58796 150.732919 
L 384.06576 150.732919 
z
" style="fill:#348abd;opacity:0.2;"/>
   </g>
   <g id="patch_94">
    <path clip-path="url(#p75434a75f9)" d="M 387.21851 152.2 
L 389.740711 152.2 
L 389.740711 150.747094 
L 387.21851 150.747094 
z
" style="fill:#348abd;opacity:0.2;"/>
   </g>
   <g id="patch_95">
    <path clip-path="url(#p75434a75f9)" d="M 390.371261 152.2 
L 392.893462 152.2 
L 392.893462 149.932049 
L 390.371261 149.932049 
z
" style="fill:#348abd;opacity:0.2;"/>
   </g>
   <g id="patch_96">
    <path clip-path="url(#p75434a75f9)" d="M 393.524012 152.2 
L 396.046213 152.2 
L 396.046213 150.350203 
L 393.524012 150.350203 
z
" style="fill:#348abd;opacity:0.2;"/>
   </g>
   <g id="patch_97">
    <path clip-path="url(#p75434a75f9)" d="M 396.676763 152.2 
L 399.198964 152.2 
L 399.198964 150.520299 
L 396.676763 150.520299 
z
" style="fill:#348abd;opacity:0.2;"/>
   </g>
   <g id="patch_98">
    <path clip-path="url(#p75434a75f9)" d="M 399.829514 152.2 
L 402.351715 152.2 
L 402.351715 150.654959 
L 399.829514 150.654959 
z
" style="fill:#348abd;opacity:0.2;"/>
   </g>
   <g id="patch_99">
    <path clip-path="url(#p75434a75f9)" d="M 402.982265 152.2 
L 405.504465 152.2 
L 405.504465 149.705254 
L 402.982265 149.705254 
z
" style="fill:#348abd;opacity:0.2;"/>
   </g>
   <g id="patch_100">
    <path clip-path="url(#p75434a75f9)" d="M 406.135016 152.2 
L 408.657216 152.2 
L 408.657216 150.371465 
L 406.135016 150.371465 
z
" style="fill:#348abd;opacity:0.2;"/>
   </g>
   <g id="patch_101">
    <path clip-path="url(#p75434a75f9)" d="M 409.287766 152.2 
L 411.809967 152.2 
L 411.809967 150.073796 
L 409.287766 150.073796 
z
" style="fill:#348abd;opacity:0.2;"/>
   </g>
   <g id="patch_102">
    <path clip-path="url(#p75434a75f9)" d="M 412.440517 152.2 
L 414.962718 152.2 
L 414.962718 148.663414 
L 412.440517 148.663414 
z
" style="fill:#348abd;opacity:0.2;"/>
   </g>
   <g id="patch_103">
    <path clip-path="url(#p75434a75f9)" d="M 415.593268 152.2 
L 418.115469 152.2 
L 418.115469 150.22263 
L 415.593268 150.22263 
z
" style="fill:#348abd;opacity:0.2;"/>
   </g>
   <g id="patch_104">
    <path clip-path="url(#p75434a75f9)" d="M 418.746019 152.2 
L 421.26822 152.2 
L 421.26822 149.485546 
L 418.746019 149.485546 
z
" style="fill:#348abd;opacity:0.2;"/>
   </g>
   <g id="patch_105">
    <path clip-path="url(#p75434a75f9)" d="M 421.89877 152.2 
L 424.420971 152.2 
L 424.420971 150.038359 
L 421.89877 150.038359 
z
" style="fill:#348abd;opacity:0.2;"/>
   </g>
   <g id="patch_106">
    <path clip-path="url(#p75434a75f9)" d="M 425.051521 152.2 
L 427.573721 152.2 
L 427.573721 147.664098 
L 425.051521 147.664098 
z
" style="fill:#348abd;opacity:0.2;"/>
   </g>
   <g id="patch_107">
    <path clip-path="url(#p75434a75f9)" d="M 428.204272 152.2 
L 430.726472 152.2 
L 430.726472 149.747778 
L 428.204272 149.747778 
z
" style="fill:#348abd;opacity:0.2;"/>
   </g>
   <g id="patch_108">
    <path clip-path="url(#p75434a75f9)" d="M 431.357022 152.2 
L 433.879223 152.2 
L 433.879223 148.677589 
L 431.357022 148.677589 
z
" style="fill:#348abd;opacity:0.2;"/>
   </g>
   <g id="patch_109">
    <path clip-path="url(#p75434a75f9)" d="M 434.509773 152.2 
L 437.031974 152.2 
L 437.031974 147.983029 
L 434.509773 147.983029 
z
" style="fill:#348abd;opacity:0.2;"/>
   </g>
   <g id="patch_110">
    <path clip-path="url(#p75434a75f9)" d="M 437.662524 152.2 
L 440.184725 152.2 
L 440.184725 149.053218 
L 437.662524 149.053218 
z
" style="fill:#348abd;opacity:0.2;"/>
   </g>
   <g id="patch_111">
    <path clip-path="url(#p75434a75f9)" d="M 440.815275 152.2 
L 443.337476 152.2 
L 443.337476 148.174387 
L 440.815275 148.174387 
z
" style="fill:#348abd;opacity:0.2;"/>
   </g>
   <g id="patch_112">
    <path clip-path="url(#p75434a75f9)" d="M 443.968026 152.2 
L 446.490227 152.2 
L 446.490227 148.30196 
L 443.968026 148.30196 
z
" style="fill:#348abd;opacity:0.2;"/>
   </g>
   <g id="patch_113">
    <path clip-path="url(#p75434a75f9)" d="M 447.120777 152.2 
L 449.642978 152.2 
L 449.642978 147.529439 
L 447.120777 147.529439 
z
" style="fill:#348abd;opacity:0.2;"/>
   </g>
   <g id="patch_114">
    <path clip-path="url(#p75434a75f9)" d="M 450.273528 152.2 
L 452.795728 152.2 
L 452.795728 147.536526 
L 450.273528 147.536526 
z
" style="fill:#348abd;opacity:0.2;"/>
   </g>
   <g id="patch_115">
    <path clip-path="url(#p75434a75f9)" d="M 453.426279 152.2 
L 455.948479 152.2 
L 455.948479 147.380605 
L 453.426279 147.380605 
z
" style="fill:#348abd;opacity:0.2;"/>
   </g>
   <g id="patch_116">
    <path clip-path="url(#p75434a75f9)" d="M 456.579029 152.2 
L 459.10123 152.2 
L 459.10123 147.905068 
L 456.579029 147.905068 
z
" style="fill:#348abd;opacity:0.2;"/>
   </g>
   <g id="patch_117">
    <path clip-path="url(#p75434a75f9)" d="M 459.73178 152.2 
L 462.253981 152.2 
L 462.253981 147.075849 
L 459.73178 147.075849 
z
" style="fill:#348abd;opacity:0.2;"/>
   </g>
   <g id="patch_118">
    <path clip-path="url(#p75434a75f9)" d="M 462.884531 152.2 
L 465.406732 152.2 
L 465.406732 147.699535 
L 462.884531 147.699535 
z
" style="fill:#348abd;opacity:0.2;"/>
   </g>
   <g id="patch_119">
    <path clip-path="url(#p75434a75f9)" d="M 466.037282 152.2 
L 468.559483 152.2 
L 468.559483 147.090023 
L 466.037282 147.090023 
z
" style="fill:#348abd;opacity:0.2;"/>
   </g>
   <g id="patch_120">
    <path clip-path="url(#p75434a75f9)" d="M 469.190033 152.2 
L 471.712234 152.2 
L 471.712234 147.664098 
L 469.190033 147.664098 
z
" style="fill:#348abd;opacity:0.2;"/>
   </g>
   <g id="patch_121">
    <path clip-path="url(#p75434a75f9)" d="M 472.342784 152.2 
L 474.864984 152.2 
L 474.864984 146.870316 
L 472.342784 146.870316 
z
" style="fill:#348abd;opacity:0.2;"/>
   </g>
   <g id="patch_122">
    <path clip-path="url(#p75434a75f9)" d="M 475.495535 152.2 
L 478.017735 152.2 
L 478.017735 147.642836 
L 475.495535 147.642836 
z
" style="fill:#348abd;opacity:0.2;"/>
   </g>
   <g id="patch_123">
    <path clip-path="url(#p75434a75f9)" d="M 478.648285 152.2 
L 481.170486 152.2 
L 481.170486 146.523036 
L 478.648285 146.523036 
z
" style="fill:#348abd;opacity:0.2;"/>
   </g>
   <g id="patch_124">
    <path clip-path="url(#p75434a75f9)" d="M 481.801036 152.2 
L 484.323237 152.2 
L 484.323237 144.786636 
L 481.801036 144.786636 
z
" style="fill:#348abd;opacity:0.2;"/>
   </g>
   <g id="patch_125">
    <path clip-path="url(#p75434a75f9)" d="M 484.953787 152.2 
L 487.475988 152.2 
L 487.475988 145.126828 
L 484.953787 145.126828 
z
" style="fill:#348abd;opacity:0.2;"/>
   </g>
   <g id="patch_126">
    <path clip-path="url(#p75434a75f9)" d="M 488.106538 152.2 
L 490.628739 152.2 
L 490.628739 146.487599 
L 488.106538 146.487599 
z
" style="fill:#348abd;opacity:0.2;"/>
   </g>
   <g id="patch_127">
    <path clip-path="url(#p75434a75f9)" d="M 491.259289 152.2 
L 493.78149 152.2 
L 493.78149 144.956732 
L 491.259289 144.956732 
z
" style="fill:#348abd;opacity:0.2;"/>
   </g>
   <g id="patch_128">
    <path clip-path="url(#p75434a75f9)" d="M 494.41204 152.2 
L 496.93424 152.2 
L 496.93424 144.396832 
L 494.41204 144.396832 
z
" style="fill:#348abd;opacity:0.2;"/>
   </g>
   <g id="patch_129">
    <path clip-path="url(#p75434a75f9)" d="M 497.564791 152.2 
L 500.086991 152.2 
L 500.086991 143.255769 
L 497.564791 143.255769 
z
" style="fill:#348abd;opacity:0.2;"/>
   </g>
   <g id="patch_130">
    <path clip-path="url(#p75434a75f9)" d="M 500.717541 152.2 
L 503.239742 152.2 
L 503.239742 142.830528 
L 500.717541 142.830528 
z
" style="fill:#348abd;opacity:0.2;"/>
   </g>
   <g id="patch_131">
    <path clip-path="url(#p75434a75f9)" d="M 503.870292 152.2 
L 506.392493 152.2 
L 506.392493 141.228788 
L 503.870292 141.228788 
z
" style="fill:#348abd;opacity:0.2;"/>
   </g>
   <g id="patch_132">
    <path clip-path="url(#p75434a75f9)" d="M 507.023043 152.2 
L 509.545244 152.2 
L 509.545244 144.070814 
L 507.023043 144.070814 
z
" style="fill:#348abd;opacity:0.2;"/>
   </g>
   <g id="patch_133">
    <path clip-path="url(#p75434a75f9)" d="M 510.175794 152.2 
L 512.697995 152.2 
L 512.697995 144.333046 
L 510.175794 144.333046 
z
" style="fill:#348abd;opacity:0.2;"/>
   </g>
   <g id="patch_134">
    <path clip-path="url(#p75434a75f9)" d="M 513.328545 152.2 
L 515.850746 152.2 
L 515.850746 142.702956 
L 513.328545 142.702956 
z
" style="fill:#348abd;opacity:0.2;"/>
   </g>
   <g id="patch_135">
    <path clip-path="url(#p75434a75f9)" d="M 516.481296 152.2 
L 519.003497 152.2 
L 519.003497 141.420146 
L 516.481296 141.420146 
z
" style="fill:#348abd;opacity:0.2;"/>
   </g>
   <g id="patch_136">
    <path clip-path="url(#p75434a75f9)" d="M 519.634047 152.2 
L 522.156247 152.2 
L 522.156247 139.683746 
L 519.634047 139.683746 
z
" style="fill:#348abd;opacity:0.2;"/>
   </g>
   <g id="patch_137">
    <path clip-path="url(#p75434a75f9)" d="M 522.786798 152.2 
L 525.308998 152.2 
L 525.308998 141.46267 
L 522.786798 141.46267 
z
" style="fill:#348abd;opacity:0.2;"/>
   </g>
   <g id="patch_138">
    <path clip-path="url(#p75434a75f9)" d="M 525.939548 152.2 
L 528.461749 152.2 
L 528.461749 142.334414 
L 525.939548 142.334414 
z
" style="fill:#348abd;opacity:0.2;"/>
   </g>
   <g id="patch_139">
    <path clip-path="url(#p75434a75f9)" d="M 529.092299 152.2 
L 531.6145 152.2 
L 531.6145 143.631398 
L 529.092299 143.631398 
z
" style="fill:#348abd;opacity:0.2;"/>
   </g>
   <g id="patch_140">
    <path clip-path="url(#p75434a75f9)" d="M 532.24505 152.2 
L 534.767251 152.2 
L 534.767251 141.689465 
L 532.24505 141.689465 
z
" style="fill:#348abd;opacity:0.2;"/>
   </g>
   <g id="patch_141">
    <path clip-path="url(#p75434a75f9)" d="M 535.397801 152.2 
L 537.920002 152.2 
L 537.920002 142.568296 
L 535.397801 142.568296 
z
" style="fill:#348abd;opacity:0.2;"/>
   </g>
   <g id="patch_142">
    <path clip-path="url(#p75434a75f9)" d="M 538.550552 152.2 
L 541.072753 152.2 
L 541.072753 140.831897 
L 538.550552 140.831897 
z
" style="fill:#348abd;opacity:0.2;"/>
   </g>
   <g id="patch_143">
    <path clip-path="url(#p75434a75f9)" d="M 541.703303 152.2 
L 544.225503 152.2 
L 544.225503 141.35636 
L 541.703303 141.35636 
z
" style="fill:#348abd;opacity:0.2;"/>
   </g>
   <g id="patch_144">
    <path clip-path="url(#p75434a75f9)" d="M 544.856054 152.2 
L 547.378254 152.2 
L 547.378254 140.534228 
L 544.856054 140.534228 
z
" style="fill:#348abd;opacity:0.2;"/>
   </g>
   <g id="patch_145">
    <path clip-path="url(#p75434a75f9)" d="M 548.008804 152.2 
L 550.531005 152.2 
L 550.531005 138.81909 
L 548.008804 138.81909 
z
" style="fill:#348abd;opacity:0.2;"/>
   </g>
   <g id="patch_146">
    <path clip-path="url(#p75434a75f9)" d="M 551.161555 152.2 
L 553.683756 152.2 
L 553.683756 136.65745 
L 551.161555 136.65745 
z
" style="fill:#348abd;opacity:0.2;"/>
   </g>
   <g id="patch_147">
    <path clip-path="url(#p75434a75f9)" d="M 554.314306 152.2 
L 556.836507 152.2 
L 556.836507 137.146477 
L 554.314306 137.146477 
z
" style="fill:#348abd;opacity:0.2;"/>
   </g>
   <g id="patch_148">
    <path clip-path="url(#p75434a75f9)" d="M 557.467057 152.2 
L 559.989258 152.2 
L 559.989258 138.960837 
L 557.467057 138.960837 
z
" style="fill:#348abd;opacity:0.2;"/>
   </g>
   <g id="patch_149">
    <path clip-path="url(#p75434a75f9)" d="M 560.619808 152.2 
L 563.142009 152.2 
L 563.142009 137.210263 
L 560.619808 137.210263 
z
" style="fill:#348abd;opacity:0.2;"/>
   </g>
   <g id="patch_150">
    <path clip-path="url(#p75434a75f9)" d="M 563.772559 152.2 
L 566.294759 152.2 
L 566.294759 129.726025 
L 563.772559 129.726025 
z
" style="fill:#348abd;opacity:0.2;"/>
   </g>
   <g id="patch_151">
    <path clip-path="url(#p75434a75f9)" d="M 566.92531 152.2 
L 569.44751 152.2 
L 569.44751 130.519808 
L 566.92531 130.519808 
z
" style="fill:#348abd;opacity:0.2;"/>
   </g>
   <g id="patch_152">
    <path clip-path="url(#p75434a75f9)" d="M 570.07806 152.2 
L 572.600261 152.2 
L 572.600261 135.495125 
L 570.07806 135.495125 
z
" style="fill:#348abd;opacity:0.2;"/>
   </g>
   <g id="patch_153">
    <path clip-path="url(#p75434a75f9)" d="M 573.230811 152.2 
L 575.753012 152.2 
L 575.753012 130.803302 
L 573.230811 130.803302 
z
" style="fill:#348abd;opacity:0.2;"/>
   </g>
   <g id="patch_154">
    <path clip-path="url(#p75434a75f9)" d="M 576.383562 152.2 
L 578.905763 152.2 
L 578.905763 134.261927 
L 576.383562 134.261927 
z
" style="fill:#348abd;opacity:0.2;"/>
   </g>
   <g id="patch_155">
    <path clip-path="url(#p75434a75f9)" d="M 579.536313 152.2 
L 582.058514 152.2 
L 582.058514 135.26833 
L 579.536313 135.26833 
z
" style="fill:#348abd;opacity:0.2;"/>
   </g>
   <g id="patch_156">
    <path clip-path="url(#p75434a75f9)" d="M 582.689064 152.2 
L 585.211265 152.2 
L 585.211265 127.103707 
L 582.689064 127.103707 
z
" style="fill:#348abd;opacity:0.2;"/>
   </g>
   <g id="patch_157">
    <path clip-path="url(#p75434a75f9)" d="M 585.841815 152.2 
L 588.364016 152.2 
L 588.364016 127.493511 
L 585.841815 127.493511 
z
" style="fill:#348abd;opacity:0.2;"/>
   </g>
   <g id="patch_158">
    <path clip-path="url(#p75434a75f9)" d="M 588.994566 152.2 
L 591.516766 152.2 
L 591.516766 124.963328 
L 588.994566 124.963328 
z
" style="fill:#348abd;opacity:0.2;"/>
   </g>
   <g id="patch_159">
    <path clip-path="url(#p75434a75f9)" d="M 592.147317 152.2 
L 594.669517 152.2 
L 594.669517 122.7946 
L 592.147317 122.7946 
z
" style="fill:#348abd;opacity:0.2;"/>
   </g>
   <g id="patch_160">
    <path clip-path="url(#p75434a75f9)" d="M 595.300067 152.2 
L 597.822268 152.2 
L 597.822268 129.676414 
L 595.300067 129.676414 
z
" style="fill:#348abd;opacity:0.2;"/>
   </g>
   <g id="patch_161">
    <path clip-path="url(#p75434a75f9)" d="M 598.452818 152.2 
L 600.975019 152.2 
L 600.975019 128.996028 
L 598.452818 128.996028 
z
" style="fill:#348abd;opacity:0.2;"/>
   </g>
   <g id="patch_162">
    <path clip-path="url(#p75434a75f9)" d="M 601.605569 152.2 
L 604.12777 152.2 
L 604.12777 132.334168 
L 601.605569 132.334168 
z
" style="fill:#348abd;opacity:0.2;"/>
   </g>
   <g id="patch_163">
    <path clip-path="url(#p75434a75f9)" d="M 604.75832 152.2 
L 607.280521 152.2 
L 607.280521 122.695377 
L 604.75832 122.695377 
z
" style="fill:#348abd;opacity:0.2;"/>
   </g>
   <g id="patch_164">
    <path clip-path="url(#p75434a75f9)" d="M 607.911071 152.2 
L 610.433272 152.2 
L 610.433272 123.134793 
L 607.911071 123.134793 
z
" style="fill:#348abd;opacity:0.2;"/>
   </g>
   <g id="patch_165">
    <path clip-path="url(#p75434a75f9)" d="M 611.063822 152.2 
L 613.586022 152.2 
L 613.586022 128.138459 
L 611.063822 128.138459 
z
" style="fill:#348abd;opacity:0.2;"/>
   </g>
   <g id="patch_166">
    <path clip-path="url(#p75434a75f9)" d="M 614.216573 152.2 
L 616.738773 152.2 
L 616.738773 124.672747 
L 614.216573 124.672747 
z
" style="fill:#348abd;opacity:0.2;"/>
   </g>
   <g id="patch_167">
    <path clip-path="url(#p75434a75f9)" d="M 617.369323 152.2 
L 619.891524 152.2 
L 619.891524 125.827984 
L 617.369323 125.827984 
z
" style="fill:#348abd;opacity:0.2;"/>
   </g>
   <g id="patch_168">
    <path clip-path="url(#p75434a75f9)" d="M 620.522074 152.2 
L 623.044275 152.2 
L 623.044275 129.726025 
L 620.522074 129.726025 
z
" style="fill:#348abd;opacity:0.2;"/>
   </g>
   <g id="patch_169">
    <path clip-path="url(#p75434a75f9)" d="M 623.674825 152.2 
L 626.197026 152.2 
L 626.197026 122.34101 
L 623.674825 122.34101 
z
" style="fill:#348abd;opacity:0.2;"/>
   </g>
   <g id="patch_170">
    <path clip-path="url(#p75434a75f9)" d="M 626.827576 152.2 
L 629.349777 152.2 
L 629.349777 122.830037 
L 626.827576 122.830037 
z
" style="fill:#348abd;opacity:0.2;"/>
   </g>
   <g id="patch_171">
    <path clip-path="url(#p75434a75f9)" d="M 629.980327 152.2 
L 632.502528 152.2 
L 632.502528 114.389008 
L 629.980327 114.389008 
z
" style="fill:#348abd;opacity:0.2;"/>
   </g>
   <g id="patch_172">
    <path clip-path="url(#p75434a75f9)" d="M 633.133078 152.2 
L 635.655278 152.2 
L 635.655278 103.984783 
L 633.133078 103.984783 
z
" style="fill:#348abd;opacity:0.2;"/>
   </g>
   <g id="patch_173">
    <path clip-path="url(#p75434a75f9)" d="M 636.285829 152.2 
L 638.808029 152.2 
L 638.808029 117.783846 
L 636.285829 117.783846 
z
" style="fill:#348abd;opacity:0.2;"/>
   </g>
   <g id="patch_174">
    <path clip-path="url(#p75434a75f9)" d="M 639.438579 152.2 
L 641.96078 152.2 
L 641.96078 118.088602 
L 639.438579 118.088602 
z
" style="fill:#348abd;opacity:0.2;"/>
   </g>
   <g id="patch_175">
    <path clip-path="url(#p75434a75f9)" d="M 642.59133 152.2 
L 645.113531 152.2 
L 645.113531 125.041289 
L 642.59133 125.041289 
z
" style="fill:#348abd;opacity:0.2;"/>
   </g>
   <g id="patch_176">
    <path clip-path="url(#p75434a75f9)" d="M 645.744081 152.2 
L 648.266282 152.2 
L 648.266282 112.362027 
L 645.744081 112.362027 
z
" style="fill:#348abd;opacity:0.2;"/>
   </g>
   <g id="patch_177">
    <path clip-path="url(#p75434a75f9)" d="M 648.896832 152.2 
L 651.419033 152.2 
L 651.419033 114.842598 
L 648.896832 114.842598 
z
" style="fill:#348abd;opacity:0.2;"/>
   </g>
   <g id="patch_178">
    <path clip-path="url(#p75434a75f9)" d="M 652.049583 152.2 
L 654.571784 152.2 
L 654.571784 95.238998 
L 652.049583 95.238998 
z
" style="fill:#348abd;opacity:0.2;"/>
   </g>
   <g id="patch_179">
    <path clip-path="url(#p75434a75f9)" d="M 655.202334 152.2 
L 657.724535 152.2 
L 657.724535 88.881648 
L 655.202334 88.881648 
z
" style="fill:#348abd;opacity:0.2;"/>
   </g>
   <g id="patch_180">
    <path clip-path="url(#p75434a75f9)" d="M 658.355085 152.2 
L 660.877285 152.2 
L 660.877285 91.532316 
L 658.355085 91.532316 
z
" style="fill:#348abd;opacity:0.2;"/>
   </g>
   <g id="patch_181">
    <path clip-path="url(#p75434a75f9)" d="M 661.507836 152.2 
L 664.030036 152.2 
L 664.030036 105.579436 
L 661.507836 105.579436 
z
" style="fill:#348abd;opacity:0.2;"/>
   </g>
   <g id="patch_182">
    <path clip-path="url(#p75434a75f9)" d="M 664.660586 152.2 
L 667.182787 152.2 
L 667.182787 104.523422 
L 664.660586 104.523422 
z
" style="fill:#348abd;opacity:0.2;"/>
   </g>
   <g id="patch_183">
    <path clip-path="url(#p75434a75f9)" d="M 667.813337 152.2 
L 670.335538 152.2 
L 670.335538 102.354694 
L 667.813337 102.354694 
z
" style="fill:#348abd;opacity:0.2;"/>
   </g>
   <g id="patch_184">
    <path clip-path="url(#p75434a75f9)" d="M 670.966088 152.2 
L 673.488289 152.2 
L 673.488289 99.824511 
L 670.966088 99.824511 
z
" style="fill:#348abd;opacity:0.2;"/>
   </g>
   <g id="patch_185">
    <path clip-path="url(#p75434a75f9)" d="M 674.118839 152.2 
L 676.64104 152.2 
L 676.64104 95.891034 
L 674.118839 95.891034 
z
" style="fill:#348abd;opacity:0.2;"/>
   </g>
   <g id="patch_186">
    <path clip-path="url(#p75434a75f9)" d="M 677.27159 152.2 
L 679.793791 152.2 
L 679.793791 101.397902 
L 677.27159 101.397902 
z
" style="fill:#348abd;opacity:0.2;"/>
   </g>
   <g id="patch_187">
    <path clip-path="url(#p75434a75f9)" d="M 680.424341 152.2 
L 682.946541 152.2 
L 682.946541 100.78839 
L 680.424341 100.78839 
z
" style="fill:#348abd;opacity:0.2;"/>
   </g>
   <g id="patch_188">
    <path clip-path="url(#p75434a75f9)" d="M 683.577092 152.2 
L 686.099292 152.2 
L 686.099292 94.21842 
L 683.577092 94.21842 
z
" style="fill:#348abd;opacity:0.2;"/>
   </g>
   <g id="patch_189">
    <path clip-path="url(#p75434a75f9)" d="M 686.729842 152.2 
L 689.252043 152.2 
L 689.252043 94.615311 
L 686.729842 94.615311 
z
" style="fill:#348abd;opacity:0.2;"/>
   </g>
   <g id="patch_190">
    <path clip-path="url(#p75434a75f9)" d="M 689.882593 152.2 
L 692.404794 152.2 
L 692.404794 79.313731 
L 689.882593 79.313731 
z
" style="fill:#348abd;opacity:0.2;"/>
   </g>
   <g id="patch_191">
    <path clip-path="url(#p75434a75f9)" d="M 693.035344 152.2 
L 695.557545 152.2 
L 695.557545 90.752708 
L 693.035344 90.752708 
z
" style="fill:#348abd;opacity:0.2;"/>
   </g>
   <g id="patch_192">
    <path clip-path="url(#p75434a75f9)" d="M 696.188095 152.2 
L 698.710296 152.2 
L 698.710296 81.574594 
L 696.188095 81.574594 
z
" style="fill:#348abd;opacity:0.2;"/>
   </g>
   <g id="patch_193">
    <path clip-path="url(#p75434a75f9)" d="M 699.340846 152.2 
L 701.863047 152.2 
L 701.863047 84.955258 
L 699.340846 84.955258 
z
" style="fill:#348abd;opacity:0.2;"/>
   </g>
   <g id="patch_194">
    <path clip-path="url(#p75434a75f9)" d="M 702.493597 152.2 
L 705.015797 152.2 
L 705.015797 76.556753 
L 702.493597 76.556753 
z
" style="fill:#348abd;opacity:0.2;"/>
   </g>
   <g id="patch_195">
    <path clip-path="url(#p75434a75f9)" d="M 705.646348 152.2 
L 708.168548 152.2 
L 708.168548 70.908138 
L 705.646348 70.908138 
z
" style="fill:#348abd;opacity:0.2;"/>
   </g>
   <g id="patch_196">
    <path clip-path="url(#p75434a75f9)" d="M 708.799098 152.2 
L 711.321299 152.2 
L 711.321299 79.916155 
L 708.799098 79.916155 
z
" style="fill:#348abd;opacity:0.2;"/>
   </g>
   <g id="patch_197">
    <path clip-path="url(#p75434a75f9)" d="M 711.951849 152.2 
L 714.47405 152.2 
L 714.47405 101.674308 
L 711.951849 101.674308 
z
" style="fill:#348abd;opacity:0.2;"/>
   </g>
   <g id="patch_198">
    <path clip-path="url(#p75434a75f9)" d="M 715.1046 152.2 
L 717.626801 152.2 
L 717.626801 76.117338 
L 715.1046 76.117338 
z
" style="fill:#348abd;opacity:0.2;"/>
   </g>
   <g id="patch_199">
    <path clip-path="url(#p75434a75f9)" d="M 718.257351 152.2 
L 720.779552 152.2 
L 720.779552 67.180194 
L 718.257351 67.180194 
z
" style="fill:#348abd;opacity:0.2;"/>
   </g>
   <g id="patch_200">
    <path clip-path="url(#p75434a75f9)" d="M 721.410102 152.2 
L 723.932303 152.2 
L 723.932303 84.912734 
L 721.410102 84.912734 
z
" style="fill:#348abd;opacity:0.2;"/>
   </g>
   <g id="patch_201">
    <path clip-path="url(#p75434a75f9)" d="M 724.562853 152.2 
L 727.085054 152.2 
L 727.085054 83.693711 
L 724.562853 83.693711 
z
" style="fill:#348abd;opacity:0.2;"/>
   </g>
   <g id="patch_202">
    <path clip-path="url(#p75434a75f9)" d="M 727.715604 152.2 
L 730.237804 152.2 
L 730.237804 76.996169 
L 727.715604 76.996169 
z
" style="fill:#348abd;opacity:0.2;"/>
   </g>
   <g id="patch_203">
    <path clip-path="url(#p75434a75f9)" d="M 730.868355 152.2 
L 733.390555 152.2 
L 733.390555 80.320134 
L 730.868355 80.320134 
z
" style="fill:#348abd;opacity:0.2;"/>
   </g>
   <g id="patch_204">
    <path clip-path="url(#p75434a75f9)" d="M 734.021105 152.2 
L 736.543306 152.2 
L 736.543306 61.269347 
L 734.021105 61.269347 
z
" style="fill:#348abd;opacity:0.2;"/>
   </g>
   <g id="patch_205">
    <path clip-path="url(#p75434a75f9)" d="M 737.173856 152.2 
L 739.696057 152.2 
L 739.696057 66.68408 
L 737.173856 66.68408 
z
" style="fill:#348abd;opacity:0.2;"/>
   </g>
   <g id="patch_206">
    <path clip-path="url(#p75434a75f9)" d="M 740.326607 152.2 
L 742.848808 152.2 
L 742.848808 72.21221 
L 740.326607 72.21221 
z
" style="fill:#348abd;opacity:0.2;"/>
   </g>
   <g id="patch_207">
    <path clip-path="url(#p75434a75f9)" d="M 743.479358 152.2 
L 746.001559 152.2 
L 746.001559 72.070463 
L 743.479358 72.070463 
z
" style="fill:#348abd;opacity:0.2;"/>
   </g>
   <g id="patch_208">
    <path clip-path="url(#p75434a75f9)" d="M 746.632109 152.2 
L 749.15431 152.2 
L 749.15431 70.142705 
L 746.632109 70.142705 
z
" style="fill:#348abd;opacity:0.2;"/>
   </g>
   <g id="patch_209">
    <path clip-path="url(#p75434a75f9)" d="M 749.78486 152.2 
L 752.30706 152.2 
L 752.30706 69.682027 
L 749.78486 69.682027 
z
" style="fill:#348abd;opacity:0.2;"/>
   </g>
   <g id="patch_210">
    <path clip-path="url(#p75434a75f9)" d="M 752.937611 152.2 
L 755.459811 152.2 
L 755.459811 93.17658 
L 752.937611 93.17658 
z
" style="fill:#348abd;opacity:0.2;"/>
   </g>
   <g id="patch_211">
    <path clip-path="url(#p75434a75f9)" d="M 756.090361 152.2 
L 758.612562 152.2 
L 758.612562 63.877491 
L 756.090361 63.877491 
z
" style="fill:#348abd;opacity:0.2;"/>
   </g>
   <g id="patch_212">
    <path clip-path="url(#p75434a75f9)" d="M 759.243112 152.2 
L 761.765313 152.2 
L 761.765313 59.667607 
L 759.243112 59.667607 
z
" style="fill:#348abd;opacity:0.2;"/>
   </g>
   <g id="patch_213">
    <path clip-path="url(#p75434a75f9)" d="M 762.395863 152.2 
L 764.918064 152.2 
L 764.918064 70.404937 
L 762.395863 70.404937 
z
" style="fill:#348abd;opacity:0.2;"/>
   </g>
   <g id="patch_214">
    <path clip-path="url(#p75434a75f9)" d="M 765.548614 152.2 
L 768.070815 152.2 
L 768.070815 92.531632 
L 765.548614 92.531632 
z
" style="fill:#348abd;opacity:0.2;"/>
   </g>
   <g id="patch_215">
    <path clip-path="url(#p75434a75f9)" d="M 768.701365 152.2 
L 771.223566 152.2 
L 771.223566 152.2 
L 768.701365 152.2 
z
" style="fill:#348abd;opacity:0.2;"/>
   </g>
   <g id="patch_216">
    <path clip-path="url(#p75434a75f9)" d="M 771.854116 152.2 
L 774.376316 152.2 
L 774.376316 17.533333 
L 771.854116 17.533333 
z
" style="fill:#348abd;opacity:0.2;"/>
   </g>
   <g id="patch_217">
    <path clip-path="url(#p75434a75f9)" d="M 775.006867 152.2 
L 777.529067 152.2 
L 777.529067 77.435584 
L 775.006867 77.435584 
z
" style="fill:#348abd;opacity:0.2;"/>
   </g>
   <g id="patch_218">
    <path clip-path="url(#p75434a75f9)" d="M 778.159617 152.2 
L 780.681818 152.2 
L 780.681818 78.314415 
L 778.159617 78.314415 
z
" style="fill:#348abd;opacity:0.2;"/>
   </g>
   <g id="line2d_29">
    <path clip-path="url(#p75434a75f9)" d="M 101.579282 152.2 
L 268.675078 152.094671 
L 300.202587 151.747059 
L 331.730095 151.248457 
L 344.341099 150.938526 
L 353.799351 151.055195 
L 363.257604 151.195444 
L 372.715856 151.048579 
L 407.396116 150.047532 
L 420.007119 149.47904 
L 460.992881 147.499501 
L 470.451133 147.19926 
L 476.756635 146.756701 
L 483.062137 146.155088 
L 489.367638 145.331139 
L 495.67314 144.426409 
L 505.131393 143.358036 
L 511.436894 142.685837 
L 517.742396 142.258193 
L 527.200649 141.942072 
L 533.50615 141.80248 
L 536.658901 141.631399 
L 539.811652 141.285398 
L 546.117154 140.152005 
L 549.269905 139.411739 
L 555.575407 137.606342 
L 561.880908 135.608496 
L 568.18641 134.052227 
L 574.491912 132.623062 
L 587.102915 129.192605 
L 593.408417 127.816186 
L 599.713919 127.02894 
L 602.866669 126.829119 
L 606.01942 126.77074 
L 612.324922 126.340247 
L 615.477673 125.841209 
L 618.630424 124.930933 
L 621.783175 123.740912 
L 631.241427 119.289084 
L 637.546929 116.807416 
L 640.69968 115.278251 
L 643.852431 113.345035 
L 647.005182 111.069241 
L 653.310683 105.962346 
L 656.463434 103.575333 
L 659.616185 101.550631 
L 662.768936 100.197166 
L 665.921687 99.623184 
L 669.074438 99.629221 
L 672.227188 99.778614 
L 675.379939 99.458384 
L 678.53269 98.449932 
L 681.685441 96.792604 
L 687.990943 92.547474 
L 694.296445 87.468457 
L 697.449195 85.234631 
L 700.601946 83.460738 
L 703.754697 82.287471 
L 706.907448 81.551837 
L 710.060199 81.003445 
L 713.21295 80.677895 
L 716.365701 80.541825 
L 719.518451 80.273591 
L 722.671202 79.558211 
L 725.823953 78.270424 
L 732.129455 75.043009 
L 735.282206 73.566982 
L 738.434957 72.67813 
L 741.587707 72.088814 
L 744.740458 71.686632 
L 747.893209 71.718591 
L 751.04596 71.990595 
L 754.198711 73.534201 
L 760.504213 77.092696 
L 763.656964 78.585935 
L 766.809714 78.9216 
L 769.962465 79.405192 
L 773.115216 79.553442 
L 776.267967 79.315405 
L 779.420718 79.261879 
L 779.420718 79.261879 
" style="fill:none;stroke:#348abd;stroke-linecap:square;stroke-width:3;"/>
   </g>
   <g id="line2d_30">
    <defs>
     <path d="M 0 3 
C 0.795609 3 1.55874 2.683901 2.12132 2.12132 
C 2.683901 1.55874 3 0.795609 3 0 
C 3 -0.795609 2.683901 -1.55874 2.12132 -2.12132 
C 1.55874 -2.683901 0.795609 -3 0 -3 
C -0.795609 -3 -1.55874 -2.683901 -2.12132 -2.12132 
C -2.683901 -1.55874 -3 -0.795609 -3 0 
C -3 0.795609 -2.683901 1.55874 -2.12132 2.12132 
C -1.55874 2.683901 -0.795609 3 0 3 
z
" id="m4adda2c2ab" style="stroke:#e24a33;stroke-opacity:0.001;"/>
    </defs>
    <g clip-path="url(#p75434a75f9)">
     <use style="fill:#e24a33;fill-opacity:0.001;stroke:#e24a33;stroke-opacity:0.001;" x="440.5" xlink:href="#m4adda2c2ab" y="81.5"/>
    </g>
   </g>
   <g id="patch_219">
    <path d="M 66.3 152.2 
L 66.3 10.8 
" style="fill:none;stroke:#ffffff;stroke-linecap:square;stroke-linejoin:miter;"/>
   </g>
   <g id="patch_220">
    <path d="M 814.7 152.2 
L 814.7 10.8 
" style="fill:none;stroke:#ffffff;stroke-linecap:square;stroke-linejoin:miter;"/>
   </g>
   <g id="patch_221">
    <path d="M 66.3 152.2 
L 814.7 152.2 
" style="fill:none;stroke:#ffffff;stroke-linecap:square;stroke-linejoin:miter;"/>
   </g>
   <g id="patch_222">
    <path d="M 66.3 10.8 
L 814.7 10.8 
" style="fill:none;stroke:#ffffff;stroke-linecap:square;stroke-linejoin:miter;"/>
   </g>
   <g id="legend_1">
    <g id="patch_223">
     <path d="M 73.3 62.834375 
L 281.060938 62.834375 
Q 283.060938 62.834375 283.060938 60.834375 
L 283.060938 17.8 
Q 283.060938 15.8 281.060938 15.8 
L 73.3 15.8 
Q 71.3 15.8 71.3 17.8 
L 71.3 60.834375 
Q 71.3 62.834375 73.3 62.834375 
z
" style="fill:#e5e5e5;opacity:0.8;stroke:#cccccc;stroke-linejoin:miter;stroke-width:0.5;"/>
    </g>
    <g id="patch_224">
     <path d="M 75.3 27.398438 
L 95.3 27.398438 
L 95.3 20.398438 
L 75.3 20.398438 
z
" style="fill:#348abd;opacity:0.2;"/>
    </g>
    <g id="text_18">
     <!-- Colombia new cases -->
     <defs>
      <path d="M 64.40625 67.28125 
L 64.40625 56.890625 
Q 59.421875 61.53125 53.78125 63.8125 
Q 48.140625 66.109375 41.796875 66.109375 
Q 29.296875 66.109375 22.65625 58.46875 
Q 16.015625 50.828125 16.015625 36.375 
Q 16.015625 21.96875 22.65625 14.328125 
Q 29.296875 6.6875 41.796875 6.6875 
Q 48.140625 6.6875 53.78125 8.984375 
Q 59.421875 11.28125 64.40625 15.921875 
L 64.40625 5.609375 
Q 59.234375 2.09375 53.4375 0.328125 
Q 47.65625 -1.421875 41.21875 -1.421875 
Q 24.65625 -1.421875 15.125 8.703125 
Q 5.609375 18.84375 5.609375 36.375 
Q 5.609375 53.953125 15.125 64.078125 
Q 24.65625 74.21875 41.21875 74.21875 
Q 47.75 74.21875 53.53125 72.484375 
Q 59.328125 70.75 64.40625 67.28125 
z
" id="DejaVuSans-67"/>
      <path d="M 30.609375 48.390625 
Q 23.390625 48.390625 19.1875 42.75 
Q 14.984375 37.109375 14.984375 27.296875 
Q 14.984375 17.484375 19.15625 11.84375 
Q 23.34375 6.203125 30.609375 6.203125 
Q 37.796875 6.203125 41.984375 11.859375 
Q 46.1875 17.53125 46.1875 27.296875 
Q 46.1875 37.015625 41.984375 42.703125 
Q 37.796875 48.390625 30.609375 48.390625 
z
M 30.609375 56 
Q 42.328125 56 49.015625 48.375 
Q 55.71875 40.765625 55.71875 27.296875 
Q 55.71875 13.875 49.015625 6.21875 
Q 42.328125 -1.421875 30.609375 -1.421875 
Q 18.84375 -1.421875 12.171875 6.21875 
Q 5.515625 13.875 5.515625 27.296875 
Q 5.515625 40.765625 12.171875 48.375 
Q 18.84375 56 30.609375 56 
z
" id="DejaVuSans-111"/>
      <path d="M 52 44.1875 
Q 55.375 50.25 60.0625 53.125 
Q 64.75 56 71.09375 56 
Q 79.640625 56 84.28125 50.015625 
Q 88.921875 44.046875 88.921875 33.015625 
L 88.921875 0 
L 79.890625 0 
L 79.890625 32.71875 
Q 79.890625 40.578125 77.09375 44.375 
Q 74.3125 48.1875 68.609375 48.1875 
Q 61.625 48.1875 57.5625 43.546875 
Q 53.515625 38.921875 53.515625 30.90625 
L 53.515625 0 
L 44.484375 0 
L 44.484375 32.71875 
Q 44.484375 40.625 41.703125 44.40625 
Q 38.921875 48.1875 33.109375 48.1875 
Q 26.21875 48.1875 22.15625 43.53125 
Q 18.109375 38.875 18.109375 30.90625 
L 18.109375 0 
L 9.078125 0 
L 9.078125 54.6875 
L 18.109375 54.6875 
L 18.109375 46.1875 
Q 21.1875 51.21875 25.484375 53.609375 
Q 29.78125 56 35.6875 56 
Q 41.65625 56 45.828125 52.96875 
Q 50 49.953125 52 44.1875 
z
" id="DejaVuSans-109"/>
      <path d="M 48.6875 27.296875 
Q 48.6875 37.203125 44.609375 42.84375 
Q 40.53125 48.484375 33.40625 48.484375 
Q 26.265625 48.484375 22.1875 42.84375 
Q 18.109375 37.203125 18.109375 27.296875 
Q 18.109375 17.390625 22.1875 11.75 
Q 26.265625 6.109375 33.40625 6.109375 
Q 40.53125 6.109375 44.609375 11.75 
Q 48.6875 17.390625 48.6875 27.296875 
z
M 18.109375 46.390625 
Q 20.953125 51.265625 25.265625 53.625 
Q 29.59375 56 35.59375 56 
Q 45.5625 56 51.78125 48.09375 
Q 58.015625 40.1875 58.015625 27.296875 
Q 58.015625 14.40625 51.78125 6.484375 
Q 45.5625 -1.421875 35.59375 -1.421875 
Q 29.59375 -1.421875 25.265625 0.953125 
Q 20.953125 3.328125 18.109375 8.203125 
L 18.109375 0 
L 9.078125 0 
L 9.078125 75.984375 
L 18.109375 75.984375 
z
" id="DejaVuSans-98"/>
      <path d="M 4.203125 54.6875 
L 13.1875 54.6875 
L 24.421875 12.015625 
L 35.59375 54.6875 
L 46.1875 54.6875 
L 57.421875 12.015625 
L 68.609375 54.6875 
L 77.59375 54.6875 
L 63.28125 0 
L 52.6875 0 
L 40.921875 44.828125 
L 29.109375 0 
L 18.5 0 
z
" id="DejaVuSans-119"/>
      <path d="M 44.28125 53.078125 
L 44.28125 44.578125 
Q 40.484375 46.53125 36.375 47.5 
Q 32.28125 48.484375 27.875 48.484375 
Q 21.1875 48.484375 17.84375 46.4375 
Q 14.5 44.390625 14.5 40.28125 
Q 14.5 37.15625 16.890625 35.375 
Q 19.28125 33.59375 26.515625 31.984375 
L 29.59375 31.296875 
Q 39.15625 29.25 43.1875 25.515625 
Q 47.21875 21.78125 47.21875 15.09375 
Q 47.21875 7.46875 41.1875 3.015625 
Q 35.15625 -1.421875 24.609375 -1.421875 
Q 20.21875 -1.421875 15.453125 -0.5625 
Q 10.6875 0.296875 5.421875 2 
L 5.421875 11.28125 
Q 10.40625 8.6875 15.234375 7.390625 
Q 20.0625 6.109375 24.8125 6.109375 
Q 31.15625 6.109375 34.5625 8.28125 
Q 37.984375 10.453125 37.984375 14.40625 
Q 37.984375 18.0625 35.515625 20.015625 
Q 33.0625 21.96875 24.703125 23.78125 
L 21.578125 24.515625 
Q 13.234375 26.265625 9.515625 29.90625 
Q 5.8125 33.546875 5.8125 39.890625 
Q 5.8125 47.609375 11.28125 51.796875 
Q 16.75 56 26.8125 56 
Q 31.78125 56 36.171875 55.265625 
Q 40.578125 54.546875 44.28125 53.078125 
z
" id="DejaVuSans-115"/>
     </defs>
     <g transform="translate(103.3 27.398438)scale(0.1 -0.1)">
      <use xlink:href="#DejaVuSans-67"/>
      <use x="69.824219" xlink:href="#DejaVuSans-111"/>
      <use x="131.005859" xlink:href="#DejaVuSans-108"/>
      <use x="158.789062" xlink:href="#DejaVuSans-111"/>
      <use x="219.970703" xlink:href="#DejaVuSans-109"/>
      <use x="317.382812" xlink:href="#DejaVuSans-98"/>
      <use x="380.859375" xlink:href="#DejaVuSans-105"/>
      <use x="408.642578" xlink:href="#DejaVuSans-97"/>
      <use x="469.921875" xlink:href="#DejaVuSans-32"/>
      <use x="501.708984" xlink:href="#DejaVuSans-110"/>
      <use x="565.087891" xlink:href="#DejaVuSans-101"/>
      <use x="626.611328" xlink:href="#DejaVuSans-119"/>
      <use x="708.398438" xlink:href="#DejaVuSans-32"/>
      <use x="740.185547" xlink:href="#DejaVuSans-99"/>
      <use x="795.166016" xlink:href="#DejaVuSans-97"/>
      <use x="856.445312" xlink:href="#DejaVuSans-115"/>
      <use x="908.544922" xlink:href="#DejaVuSans-101"/>
      <use x="970.068359" xlink:href="#DejaVuSans-115"/>
     </g>
    </g>
    <g id="line2d_31">
     <path d="M 75.3 38.576563 
L 95.3 38.576563 
" style="fill:none;stroke:#348abd;stroke-linecap:square;stroke-width:3;"/>
    </g>
    <g id="line2d_32"/>
    <g id="text_19">
     <!-- Colombia new cases (rolling mean) -->
     <defs>
      <path d="M 31 75.875 
Q 24.46875 64.65625 21.28125 53.65625 
Q 18.109375 42.671875 18.109375 31.390625 
Q 18.109375 20.125 21.3125 9.0625 
Q 24.515625 -2 31 -13.1875 
L 23.1875 -13.1875 
Q 15.875 -1.703125 12.234375 9.375 
Q 8.59375 20.453125 8.59375 31.390625 
Q 8.59375 42.28125 12.203125 53.3125 
Q 15.828125 64.359375 23.1875 75.875 
z
" id="DejaVuSans-40"/>
      <path d="M 41.109375 46.296875 
Q 39.59375 47.171875 37.8125 47.578125 
Q 36.03125 48 33.890625 48 
Q 26.265625 48 22.1875 43.046875 
Q 18.109375 38.09375 18.109375 28.8125 
L 18.109375 0 
L 9.078125 0 
L 9.078125 54.6875 
L 18.109375 54.6875 
L 18.109375 46.1875 
Q 20.953125 51.171875 25.484375 53.578125 
Q 30.03125 56 36.53125 56 
Q 37.453125 56 38.578125 55.875 
Q 39.703125 55.765625 41.0625 55.515625 
z
" id="DejaVuSans-114"/>
      <path d="M 8.015625 75.875 
L 15.828125 75.875 
Q 23.140625 64.359375 26.78125 53.3125 
Q 30.421875 42.28125 30.421875 31.390625 
Q 30.421875 20.453125 26.78125 9.375 
Q 23.140625 -1.703125 15.828125 -13.1875 
L 8.015625 -13.1875 
Q 14.5 -2 17.703125 9.0625 
Q 20.90625 20.125 20.90625 31.390625 
Q 20.90625 42.671875 17.703125 53.65625 
Q 14.5 64.65625 8.015625 75.875 
z
" id="DejaVuSans-41"/>
     </defs>
     <g transform="translate(103.3 42.076563)scale(0.1 -0.1)">
      <use xlink:href="#DejaVuSans-67"/>
      <use x="69.824219" xlink:href="#DejaVuSans-111"/>
      <use x="131.005859" xlink:href="#DejaVuSans-108"/>
      <use x="158.789062" xlink:href="#DejaVuSans-111"/>
      <use x="219.970703" xlink:href="#DejaVuSans-109"/>
      <use x="317.382812" xlink:href="#DejaVuSans-98"/>
      <use x="380.859375" xlink:href="#DejaVuSans-105"/>
      <use x="408.642578" xlink:href="#DejaVuSans-97"/>
      <use x="469.921875" xlink:href="#DejaVuSans-32"/>
      <use x="501.708984" xlink:href="#DejaVuSans-110"/>
      <use x="565.087891" xlink:href="#DejaVuSans-101"/>
      <use x="626.611328" xlink:href="#DejaVuSans-119"/>
      <use x="708.398438" xlink:href="#DejaVuSans-32"/>
      <use x="740.185547" xlink:href="#DejaVuSans-99"/>
      <use x="795.166016" xlink:href="#DejaVuSans-97"/>
      <use x="856.445312" xlink:href="#DejaVuSans-115"/>
      <use x="908.544922" xlink:href="#DejaVuSans-101"/>
      <use x="970.068359" xlink:href="#DejaVuSans-115"/>
      <use x="1022.167969" xlink:href="#DejaVuSans-32"/>
      <use x="1053.955078" xlink:href="#DejaVuSans-40"/>
      <use x="1092.96875" xlink:href="#DejaVuSans-114"/>
      <use x="1131.832031" xlink:href="#DejaVuSans-111"/>
      <use x="1193.013672" xlink:href="#DejaVuSans-108"/>
      <use x="1220.796875" xlink:href="#DejaVuSans-108"/>
      <use x="1248.580078" xlink:href="#DejaVuSans-105"/>
      <use x="1276.363281" xlink:href="#DejaVuSans-110"/>
      <use x="1339.742188" xlink:href="#DejaVuSans-103"/>
      <use x="1403.21875" xlink:href="#DejaVuSans-32"/>
      <use x="1435.005859" xlink:href="#DejaVuSans-109"/>
      <use x="1532.417969" xlink:href="#DejaVuSans-101"/>
      <use x="1593.941406" xlink:href="#DejaVuSans-97"/>
      <use x="1655.220703" xlink:href="#DejaVuSans-110"/>
      <use x="1718.599609" xlink:href="#DejaVuSans-41"/>
     </g>
    </g>
    <g id="line2d_33"/>
    <g id="line2d_34">
     <g>
      <use style="fill:#e24a33;fill-opacity:0.001;stroke:#e24a33;stroke-opacity:0.001;" x="85.3" xlink:href="#m4adda2c2ab" y="53.254688"/>
     </g>
    </g>
    <g id="text_20">
     <!-- [last updated: 26/08/2020] -->
     <defs>
      <path d="M 8.59375 75.984375 
L 29.296875 75.984375 
L 29.296875 69 
L 17.578125 69 
L 17.578125 -6.203125 
L 29.296875 -6.203125 
L 29.296875 -13.1875 
L 8.59375 -13.1875 
z
" id="DejaVuSans-91"/>
      <path d="M 18.3125 70.21875 
L 18.3125 54.6875 
L 36.8125 54.6875 
L 36.8125 47.703125 
L 18.3125 47.703125 
L 18.3125 18.015625 
Q 18.3125 11.328125 20.140625 9.421875 
Q 21.96875 7.515625 27.59375 7.515625 
L 36.8125 7.515625 
L 36.8125 0 
L 27.59375 0 
Q 17.1875 0 13.234375 3.875 
Q 9.28125 7.765625 9.28125 18.015625 
L 9.28125 47.703125 
L 2.6875 47.703125 
L 2.6875 54.6875 
L 9.28125 54.6875 
L 9.28125 70.21875 
z
" id="DejaVuSans-116"/>
      <path d="M 8.5 21.578125 
L 8.5 54.6875 
L 17.484375 54.6875 
L 17.484375 21.921875 
Q 17.484375 14.15625 20.5 10.265625 
Q 23.53125 6.390625 29.59375 6.390625 
Q 36.859375 6.390625 41.078125 11.03125 
Q 45.3125 15.671875 45.3125 23.6875 
L 45.3125 54.6875 
L 54.296875 54.6875 
L 54.296875 0 
L 45.3125 0 
L 45.3125 8.40625 
Q 42.046875 3.421875 37.71875 1 
Q 33.40625 -1.421875 27.6875 -1.421875 
Q 18.265625 -1.421875 13.375 4.4375 
Q 8.5 10.296875 8.5 21.578125 
z
M 31.109375 56 
z
" id="DejaVuSans-117"/>
      <path d="M 18.109375 8.203125 
L 18.109375 -20.796875 
L 9.078125 -20.796875 
L 9.078125 54.6875 
L 18.109375 54.6875 
L 18.109375 46.390625 
Q 20.953125 51.265625 25.265625 53.625 
Q 29.59375 56 35.59375 56 
Q 45.5625 56 51.78125 48.09375 
Q 58.015625 40.1875 58.015625 27.296875 
Q 58.015625 14.40625 51.78125 6.484375 
Q 45.5625 -1.421875 35.59375 -1.421875 
Q 29.59375 -1.421875 25.265625 0.953125 
Q 20.953125 3.328125 18.109375 8.203125 
z
M 48.6875 27.296875 
Q 48.6875 37.203125 44.609375 42.84375 
Q 40.53125 48.484375 33.40625 48.484375 
Q 26.265625 48.484375 22.1875 42.84375 
Q 18.109375 37.203125 18.109375 27.296875 
Q 18.109375 17.390625 22.1875 11.75 
Q 26.265625 6.109375 33.40625 6.109375 
Q 40.53125 6.109375 44.609375 11.75 
Q 48.6875 17.390625 48.6875 27.296875 
z
" id="DejaVuSans-112"/>
      <path d="M 11.71875 12.40625 
L 22.015625 12.40625 
L 22.015625 0 
L 11.71875 0 
z
M 11.71875 51.703125 
L 22.015625 51.703125 
L 22.015625 39.3125 
L 11.71875 39.3125 
z
" id="DejaVuSans-58"/>
      <path d="M 25.390625 72.90625 
L 33.6875 72.90625 
L 8.296875 -9.28125 
L 0 -9.28125 
z
" id="DejaVuSans-47"/>
      <path d="M 30.421875 75.984375 
L 30.421875 -13.1875 
L 9.71875 -13.1875 
L 9.71875 -6.203125 
L 21.390625 -6.203125 
L 21.390625 69 
L 9.71875 69 
L 9.71875 75.984375 
z
" id="DejaVuSans-93"/>
     </defs>
     <g transform="translate(103.3 56.754688)scale(0.1 -0.1)">
      <use xlink:href="#DejaVuSans-91"/>
      <use x="39.013672" xlink:href="#DejaVuSans-108"/>
      <use x="66.796875" xlink:href="#DejaVuSans-97"/>
      <use x="128.076172" xlink:href="#DejaVuSans-115"/>
      <use x="180.175781" xlink:href="#DejaVuSans-116"/>
      <use x="219.384766" xlink:href="#DejaVuSans-32"/>
      <use x="251.171875" xlink:href="#DejaVuSans-117"/>
      <use x="314.550781" xlink:href="#DejaVuSans-112"/>
      <use x="378.027344" xlink:href="#DejaVuSans-100"/>
      <use x="441.503906" xlink:href="#DejaVuSans-97"/>
      <use x="502.783203" xlink:href="#DejaVuSans-116"/>
      <use x="541.992188" xlink:href="#DejaVuSans-101"/>
      <use x="603.515625" xlink:href="#DejaVuSans-100"/>
      <use x="666.992188" xlink:href="#DejaVuSans-58"/>
      <use x="700.683594" xlink:href="#DejaVuSans-32"/>
      <use x="732.470703" xlink:href="#DejaVuSans-50"/>
      <use x="796.09375" xlink:href="#DejaVuSans-54"/>
      <use x="859.716797" xlink:href="#DejaVuSans-47"/>
      <use x="893.408203" xlink:href="#DejaVuSans-48"/>
      <use x="957.03125" xlink:href="#DejaVuSans-56"/>
      <use x="1020.654297" xlink:href="#DejaVuSans-47"/>
      <use x="1054.345703" xlink:href="#DejaVuSans-50"/>
      <use x="1117.96875" xlink:href="#DejaVuSans-48"/>
      <use x="1181.591797" xlink:href="#DejaVuSans-50"/>
      <use x="1245.214844" xlink:href="#DejaVuSans-48"/>
      <use x="1308.837891" xlink:href="#DejaVuSans-93"/>
     </g>
    </g>
   </g>
  </g>
 </g>
 <defs>
  <clipPath id="p75434a75f9">
   <rect height="141.4" width="748.4" x="66.3" y="10.8"/>
  </clipPath>
 </defs>
</svg>
