<?xml version="1.0" encoding="utf-8" standalone="no"?>
<!DOCTYPE svg PUBLIC "-//W3C//DTD SVG 1.1//EN"
  "http://www.w3.org/Graphics/SVG/1.1/DTD/svg11.dtd">
<!-- Created with matplotlib (https://matplotlib.org/) -->
<svg height="432pt" version="1.1" viewBox="0 0 720 432" width="720pt" xmlns="http://www.w3.org/2000/svg" xmlns:xlink="http://www.w3.org/1999/xlink">
 <defs>
  <style type="text/css">
*{stroke-linecap:butt;stroke-linejoin:round;}
  </style>
 </defs>
 <g id="figure_1">
  <g id="patch_1">
   <path d="M 0 432 
L 720 432 
L 720 0 
L 0 0 
z
" style="fill:#ffffff;"/>
  </g>
  <g id="axes_1">
   <g id="patch_2">
    <path d="M 86.625 388 
L 665.375 388 
L 665.375 222.0223 
L 86.625 222.0223 
z
" style="fill:#e5e5e5;"/>
   </g>
   <g id="matplotlib.axis_1">
    <g id="xtick_1">
     <g id="line2d_1">
      <path clip-path="url(#p2f3f4f9626)" d="M 90.601297 388 
L 90.601297 222.0223 
" style="fill:none;stroke:#ffffff;stroke-linecap:square;stroke-width:0.8;"/>
     </g>
     <g id="line2d_2">
      <defs>
       <path d="M 0 0 
L 0 3.5 
" id="m2ef788981d" style="stroke:#555555;stroke-width:0.8;"/>
      </defs>
      <g>
       <use style="fill:#555555;stroke:#555555;stroke-width:0.8;" x="90.601297" xlink:href="#m2ef788981d" y="388"/>
      </g>
     </g>
     <g id="text_1">
      <!-- 0 -->
      <defs>
       <path d="M 31.78125 66.40625 
Q 24.171875 66.40625 20.328125 58.90625 
Q 16.5 51.421875 16.5 36.375 
Q 16.5 21.390625 20.328125 13.890625 
Q 24.171875 6.390625 31.78125 6.390625 
Q 39.453125 6.390625 43.28125 13.890625 
Q 47.125 21.390625 47.125 36.375 
Q 47.125 51.421875 43.28125 58.90625 
Q 39.453125 66.40625 31.78125 66.40625 
z
M 31.78125 74.21875 
Q 44.046875 74.21875 50.515625 64.515625 
Q 56.984375 54.828125 56.984375 36.375 
Q 56.984375 17.96875 50.515625 8.265625 
Q 44.046875 -1.421875 31.78125 -1.421875 
Q 19.53125 -1.421875 13.0625 8.265625 
Q 6.59375 17.96875 6.59375 36.375 
Q 6.59375 54.828125 13.0625 64.515625 
Q 19.53125 74.21875 31.78125 74.21875 
z
" id="DejaVuSans-48"/>
      </defs>
      <g style="fill:#555555;" transform="translate(87.420047 402.598438)scale(0.1 -0.1)">
       <use xlink:href="#DejaVuSans-48"/>
      </g>
     </g>
    </g>
    <g id="xtick_2">
     <g id="line2d_3">
      <path clip-path="url(#p2f3f4f9626)" d="M 170.127233 388 
L 170.127233 222.0223 
" style="fill:none;stroke:#ffffff;stroke-linecap:square;stroke-width:0.8;"/>
     </g>
     <g id="line2d_4">
      <g>
       <use style="fill:#555555;stroke:#555555;stroke-width:0.8;" x="170.127233" xlink:href="#m2ef788981d" y="388"/>
      </g>
     </g>
     <g id="text_2">
      <!-- 20 -->
      <defs>
       <path d="M 19.1875 8.296875 
L 53.609375 8.296875 
L 53.609375 0 
L 7.328125 0 
L 7.328125 8.296875 
Q 12.9375 14.109375 22.625 23.890625 
Q 32.328125 33.6875 34.8125 36.53125 
Q 39.546875 41.84375 41.421875 45.53125 
Q 43.3125 49.21875 43.3125 52.78125 
Q 43.3125 58.59375 39.234375 62.25 
Q 35.15625 65.921875 28.609375 65.921875 
Q 23.96875 65.921875 18.8125 64.3125 
Q 13.671875 62.703125 7.8125 59.421875 
L 7.8125 69.390625 
Q 13.765625 71.78125 18.9375 73 
Q 24.125 74.21875 28.421875 74.21875 
Q 39.75 74.21875 46.484375 68.546875 
Q 53.21875 62.890625 53.21875 53.421875 
Q 53.21875 48.921875 51.53125 44.890625 
Q 49.859375 40.875 45.40625 35.40625 
Q 44.1875 33.984375 37.640625 27.21875 
Q 31.109375 20.453125 19.1875 8.296875 
z
" id="DejaVuSans-50"/>
      </defs>
      <g style="fill:#555555;" transform="translate(163.764733 402.598438)scale(0.1 -0.1)">
       <use xlink:href="#DejaVuSans-50"/>
       <use x="63.623047" xlink:href="#DejaVuSans-48"/>
      </g>
     </g>
    </g>
    <g id="xtick_3">
     <g id="line2d_5">
      <path clip-path="url(#p2f3f4f9626)" d="M 249.653169 388 
L 249.653169 222.0223 
" style="fill:none;stroke:#ffffff;stroke-linecap:square;stroke-width:0.8;"/>
     </g>
     <g id="line2d_6">
      <g>
       <use style="fill:#555555;stroke:#555555;stroke-width:0.8;" x="249.653169" xlink:href="#m2ef788981d" y="388"/>
      </g>
     </g>
     <g id="text_3">
      <!-- 40 -->
      <defs>
       <path d="M 37.796875 64.3125 
L 12.890625 25.390625 
L 37.796875 25.390625 
z
M 35.203125 72.90625 
L 47.609375 72.90625 
L 47.609375 25.390625 
L 58.015625 25.390625 
L 58.015625 17.1875 
L 47.609375 17.1875 
L 47.609375 0 
L 37.796875 0 
L 37.796875 17.1875 
L 4.890625 17.1875 
L 4.890625 26.703125 
z
" id="DejaVuSans-52"/>
      </defs>
      <g style="fill:#555555;" transform="translate(243.290669 402.598438)scale(0.1 -0.1)">
       <use xlink:href="#DejaVuSans-52"/>
       <use x="63.623047" xlink:href="#DejaVuSans-48"/>
      </g>
     </g>
    </g>
    <g id="xtick_4">
     <g id="line2d_7">
      <path clip-path="url(#p2f3f4f9626)" d="M 329.179105 388 
L 329.179105 222.0223 
" style="fill:none;stroke:#ffffff;stroke-linecap:square;stroke-width:0.8;"/>
     </g>
     <g id="line2d_8">
      <g>
       <use style="fill:#555555;stroke:#555555;stroke-width:0.8;" x="329.179105" xlink:href="#m2ef788981d" y="388"/>
      </g>
     </g>
     <g id="text_4">
      <!-- 60 -->
      <defs>
       <path d="M 33.015625 40.375 
Q 26.375 40.375 22.484375 35.828125 
Q 18.609375 31.296875 18.609375 23.390625 
Q 18.609375 15.53125 22.484375 10.953125 
Q 26.375 6.390625 33.015625 6.390625 
Q 39.65625 6.390625 43.53125 10.953125 
Q 47.40625 15.53125 47.40625 23.390625 
Q 47.40625 31.296875 43.53125 35.828125 
Q 39.65625 40.375 33.015625 40.375 
z
M 52.59375 71.296875 
L 52.59375 62.3125 
Q 48.875 64.0625 45.09375 64.984375 
Q 41.3125 65.921875 37.59375 65.921875 
Q 27.828125 65.921875 22.671875 59.328125 
Q 17.53125 52.734375 16.796875 39.40625 
Q 19.671875 43.65625 24.015625 45.921875 
Q 28.375 48.1875 33.59375 48.1875 
Q 44.578125 48.1875 50.953125 41.515625 
Q 57.328125 34.859375 57.328125 23.390625 
Q 57.328125 12.15625 50.6875 5.359375 
Q 44.046875 -1.421875 33.015625 -1.421875 
Q 20.359375 -1.421875 13.671875 8.265625 
Q 6.984375 17.96875 6.984375 36.375 
Q 6.984375 53.65625 15.1875 63.9375 
Q 23.390625 74.21875 37.203125 74.21875 
Q 40.921875 74.21875 44.703125 73.484375 
Q 48.484375 72.75 52.59375 71.296875 
z
" id="DejaVuSans-54"/>
      </defs>
      <g style="fill:#555555;" transform="translate(322.816605 402.598438)scale(0.1 -0.1)">
       <use xlink:href="#DejaVuSans-54"/>
       <use x="63.623047" xlink:href="#DejaVuSans-48"/>
      </g>
     </g>
    </g>
    <g id="xtick_5">
     <g id="line2d_9">
      <path clip-path="url(#p2f3f4f9626)" d="M 408.705041 388 
L 408.705041 222.0223 
" style="fill:none;stroke:#ffffff;stroke-linecap:square;stroke-width:0.8;"/>
     </g>
     <g id="line2d_10">
      <g>
       <use style="fill:#555555;stroke:#555555;stroke-width:0.8;" x="408.705041" xlink:href="#m2ef788981d" y="388"/>
      </g>
     </g>
     <g id="text_5">
      <!-- 80 -->
      <defs>
       <path d="M 31.78125 34.625 
Q 24.75 34.625 20.71875 30.859375 
Q 16.703125 27.09375 16.703125 20.515625 
Q 16.703125 13.921875 20.71875 10.15625 
Q 24.75 6.390625 31.78125 6.390625 
Q 38.8125 6.390625 42.859375 10.171875 
Q 46.921875 13.96875 46.921875 20.515625 
Q 46.921875 27.09375 42.890625 30.859375 
Q 38.875 34.625 31.78125 34.625 
z
M 21.921875 38.8125 
Q 15.578125 40.375 12.03125 44.71875 
Q 8.5 49.078125 8.5 55.328125 
Q 8.5 64.0625 14.71875 69.140625 
Q 20.953125 74.21875 31.78125 74.21875 
Q 42.671875 74.21875 48.875 69.140625 
Q 55.078125 64.0625 55.078125 55.328125 
Q 55.078125 49.078125 51.53125 44.71875 
Q 48 40.375 41.703125 38.8125 
Q 48.828125 37.15625 52.796875 32.3125 
Q 56.78125 27.484375 56.78125 20.515625 
Q 56.78125 9.90625 50.3125 4.234375 
Q 43.84375 -1.421875 31.78125 -1.421875 
Q 19.734375 -1.421875 13.25 4.234375 
Q 6.78125 9.90625 6.78125 20.515625 
Q 6.78125 27.484375 10.78125 32.3125 
Q 14.796875 37.15625 21.921875 38.8125 
z
M 18.3125 54.390625 
Q 18.3125 48.734375 21.84375 45.5625 
Q 25.390625 42.390625 31.78125 42.390625 
Q 38.140625 42.390625 41.71875 45.5625 
Q 45.3125 48.734375 45.3125 54.390625 
Q 45.3125 60.0625 41.71875 63.234375 
Q 38.140625 66.40625 31.78125 66.40625 
Q 25.390625 66.40625 21.84375 63.234375 
Q 18.3125 60.0625 18.3125 54.390625 
z
" id="DejaVuSans-56"/>
      </defs>
      <g style="fill:#555555;" transform="translate(402.342541 402.598438)scale(0.1 -0.1)">
       <use xlink:href="#DejaVuSans-56"/>
       <use x="63.623047" xlink:href="#DejaVuSans-48"/>
      </g>
     </g>
    </g>
    <g id="xtick_6">
     <g id="line2d_11">
      <path clip-path="url(#p2f3f4f9626)" d="M 488.230977 388 
L 488.230977 222.0223 
" style="fill:none;stroke:#ffffff;stroke-linecap:square;stroke-width:0.8;"/>
     </g>
     <g id="line2d_12">
      <g>
       <use style="fill:#555555;stroke:#555555;stroke-width:0.8;" x="488.230977" xlink:href="#m2ef788981d" y="388"/>
      </g>
     </g>
     <g id="text_6">
      <!-- 100 -->
      <defs>
       <path d="M 12.40625 8.296875 
L 28.515625 8.296875 
L 28.515625 63.921875 
L 10.984375 60.40625 
L 10.984375 69.390625 
L 28.421875 72.90625 
L 38.28125 72.90625 
L 38.28125 8.296875 
L 54.390625 8.296875 
L 54.390625 0 
L 12.40625 0 
z
" id="DejaVuSans-49"/>
      </defs>
      <g style="fill:#555555;" transform="translate(478.687227 402.598438)scale(0.1 -0.1)">
       <use xlink:href="#DejaVuSans-49"/>
       <use x="63.623047" xlink:href="#DejaVuSans-48"/>
       <use x="127.246094" xlink:href="#DejaVuSans-48"/>
      </g>
     </g>
    </g>
    <g id="xtick_7">
     <g id="line2d_13">
      <path clip-path="url(#p2f3f4f9626)" d="M 567.756913 388 
L 567.756913 222.0223 
" style="fill:none;stroke:#ffffff;stroke-linecap:square;stroke-width:0.8;"/>
     </g>
     <g id="line2d_14">
      <g>
       <use style="fill:#555555;stroke:#555555;stroke-width:0.8;" x="567.756913" xlink:href="#m2ef788981d" y="388"/>
      </g>
     </g>
     <g id="text_7">
      <!-- 120 -->
      <g style="fill:#555555;" transform="translate(558.213163 402.598438)scale(0.1 -0.1)">
       <use xlink:href="#DejaVuSans-49"/>
       <use x="63.623047" xlink:href="#DejaVuSans-50"/>
       <use x="127.246094" xlink:href="#DejaVuSans-48"/>
      </g>
     </g>
    </g>
    <g id="xtick_8">
     <g id="line2d_15">
      <path clip-path="url(#p2f3f4f9626)" d="M 647.28285 388 
L 647.28285 222.0223 
" style="fill:none;stroke:#ffffff;stroke-linecap:square;stroke-width:0.8;"/>
     </g>
     <g id="line2d_16">
      <g>
       <use style="fill:#555555;stroke:#555555;stroke-width:0.8;" x="647.28285" xlink:href="#m2ef788981d" y="388"/>
      </g>
     </g>
     <g id="text_8">
      <!-- 140 -->
      <g style="fill:#555555;" transform="translate(637.7391 402.598438)scale(0.1 -0.1)">
       <use xlink:href="#DejaVuSans-49"/>
       <use x="63.623047" xlink:href="#DejaVuSans-52"/>
       <use x="127.246094" xlink:href="#DejaVuSans-48"/>
      </g>
     </g>
    </g>
    <g id="text_9">
     <!-- days since 3 deaths -->
     <defs>
      <path d="M 45.40625 46.390625 
L 45.40625 75.984375 
L 54.390625 75.984375 
L 54.390625 0 
L 45.40625 0 
L 45.40625 8.203125 
Q 42.578125 3.328125 38.25 0.953125 
Q 33.9375 -1.421875 27.875 -1.421875 
Q 17.96875 -1.421875 11.734375 6.484375 
Q 5.515625 14.40625 5.515625 27.296875 
Q 5.515625 40.1875 11.734375 48.09375 
Q 17.96875 56 27.875 56 
Q 33.9375 56 38.25 53.625 
Q 42.578125 51.265625 45.40625 46.390625 
z
M 14.796875 27.296875 
Q 14.796875 17.390625 18.875 11.75 
Q 22.953125 6.109375 30.078125 6.109375 
Q 37.203125 6.109375 41.296875 11.75 
Q 45.40625 17.390625 45.40625 27.296875 
Q 45.40625 37.203125 41.296875 42.84375 
Q 37.203125 48.484375 30.078125 48.484375 
Q 22.953125 48.484375 18.875 42.84375 
Q 14.796875 37.203125 14.796875 27.296875 
z
" id="DejaVuSans-100"/>
      <path d="M 34.28125 27.484375 
Q 23.390625 27.484375 19.1875 25 
Q 14.984375 22.515625 14.984375 16.5 
Q 14.984375 11.71875 18.140625 8.90625 
Q 21.296875 6.109375 26.703125 6.109375 
Q 34.1875 6.109375 38.703125 11.40625 
Q 43.21875 16.703125 43.21875 25.484375 
L 43.21875 27.484375 
z
M 52.203125 31.203125 
L 52.203125 0 
L 43.21875 0 
L 43.21875 8.296875 
Q 40.140625 3.328125 35.546875 0.953125 
Q 30.953125 -1.421875 24.3125 -1.421875 
Q 15.921875 -1.421875 10.953125 3.296875 
Q 6 8.015625 6 15.921875 
Q 6 25.140625 12.171875 29.828125 
Q 18.359375 34.515625 30.609375 34.515625 
L 43.21875 34.515625 
L 43.21875 35.40625 
Q 43.21875 41.609375 39.140625 45 
Q 35.0625 48.390625 27.6875 48.390625 
Q 23 48.390625 18.546875 47.265625 
Q 14.109375 46.140625 10.015625 43.890625 
L 10.015625 52.203125 
Q 14.9375 54.109375 19.578125 55.046875 
Q 24.21875 56 28.609375 56 
Q 40.484375 56 46.34375 49.84375 
Q 52.203125 43.703125 52.203125 31.203125 
z
" id="DejaVuSans-97"/>
      <path d="M 32.171875 -5.078125 
Q 28.375 -14.84375 24.75 -17.8125 
Q 21.140625 -20.796875 15.09375 -20.796875 
L 7.90625 -20.796875 
L 7.90625 -13.28125 
L 13.1875 -13.28125 
Q 16.890625 -13.28125 18.9375 -11.515625 
Q 21 -9.765625 23.484375 -3.21875 
L 25.09375 0.875 
L 2.984375 54.6875 
L 12.5 54.6875 
L 29.59375 11.921875 
L 46.6875 54.6875 
L 56.203125 54.6875 
z
" id="DejaVuSans-121"/>
      <path d="M 44.28125 53.078125 
L 44.28125 44.578125 
Q 40.484375 46.53125 36.375 47.5 
Q 32.28125 48.484375 27.875 48.484375 
Q 21.1875 48.484375 17.84375 46.4375 
Q 14.5 44.390625 14.5 40.28125 
Q 14.5 37.15625 16.890625 35.375 
Q 19.28125 33.59375 26.515625 31.984375 
L 29.59375 31.296875 
Q 39.15625 29.25 43.1875 25.515625 
Q 47.21875 21.78125 47.21875 15.09375 
Q 47.21875 7.46875 41.1875 3.015625 
Q 35.15625 -1.421875 24.609375 -1.421875 
Q 20.21875 -1.421875 15.453125 -0.5625 
Q 10.6875 0.296875 5.421875 2 
L 5.421875 11.28125 
Q 10.40625 8.6875 15.234375 7.390625 
Q 20.0625 6.109375 24.8125 6.109375 
Q 31.15625 6.109375 34.5625 8.28125 
Q 37.984375 10.453125 37.984375 14.40625 
Q 37.984375 18.0625 35.515625 20.015625 
Q 33.0625 21.96875 24.703125 23.78125 
L 21.578125 24.515625 
Q 13.234375 26.265625 9.515625 29.90625 
Q 5.8125 33.546875 5.8125 39.890625 
Q 5.8125 47.609375 11.28125 51.796875 
Q 16.75 56 26.8125 56 
Q 31.78125 56 36.171875 55.265625 
Q 40.578125 54.546875 44.28125 53.078125 
z
" id="DejaVuSans-115"/>
      <path id="DejaVuSans-32"/>
      <path d="M 9.421875 54.6875 
L 18.40625 54.6875 
L 18.40625 0 
L 9.421875 0 
z
M 9.421875 75.984375 
L 18.40625 75.984375 
L 18.40625 64.59375 
L 9.421875 64.59375 
z
" id="DejaVuSans-105"/>
      <path d="M 54.890625 33.015625 
L 54.890625 0 
L 45.90625 0 
L 45.90625 32.71875 
Q 45.90625 40.484375 42.875 44.328125 
Q 39.84375 48.1875 33.796875 48.1875 
Q 26.515625 48.1875 22.3125 43.546875 
Q 18.109375 38.921875 18.109375 30.90625 
L 18.109375 0 
L 9.078125 0 
L 9.078125 54.6875 
L 18.109375 54.6875 
L 18.109375 46.1875 
Q 21.34375 51.125 25.703125 53.5625 
Q 30.078125 56 35.796875 56 
Q 45.21875 56 50.046875 50.171875 
Q 54.890625 44.34375 54.890625 33.015625 
z
" id="DejaVuSans-110"/>
      <path d="M 48.78125 52.59375 
L 48.78125 44.1875 
Q 44.96875 46.296875 41.140625 47.34375 
Q 37.3125 48.390625 33.40625 48.390625 
Q 24.65625 48.390625 19.8125 42.84375 
Q 14.984375 37.3125 14.984375 27.296875 
Q 14.984375 17.28125 19.8125 11.734375 
Q 24.65625 6.203125 33.40625 6.203125 
Q 37.3125 6.203125 41.140625 7.25 
Q 44.96875 8.296875 48.78125 10.40625 
L 48.78125 2.09375 
Q 45.015625 0.34375 40.984375 -0.53125 
Q 36.96875 -1.421875 32.421875 -1.421875 
Q 20.0625 -1.421875 12.78125 6.34375 
Q 5.515625 14.109375 5.515625 27.296875 
Q 5.515625 40.671875 12.859375 48.328125 
Q 20.21875 56 33.015625 56 
Q 37.15625 56 41.109375 55.140625 
Q 45.0625 54.296875 48.78125 52.59375 
z
" id="DejaVuSans-99"/>
      <path d="M 56.203125 29.59375 
L 56.203125 25.203125 
L 14.890625 25.203125 
Q 15.484375 15.921875 20.484375 11.0625 
Q 25.484375 6.203125 34.421875 6.203125 
Q 39.59375 6.203125 44.453125 7.46875 
Q 49.3125 8.734375 54.109375 11.28125 
L 54.109375 2.78125 
Q 49.265625 0.734375 44.1875 -0.34375 
Q 39.109375 -1.421875 33.890625 -1.421875 
Q 20.796875 -1.421875 13.15625 6.1875 
Q 5.515625 13.8125 5.515625 26.8125 
Q 5.515625 40.234375 12.765625 48.109375 
Q 20.015625 56 32.328125 56 
Q 43.359375 56 49.78125 48.890625 
Q 56.203125 41.796875 56.203125 29.59375 
z
M 47.21875 32.234375 
Q 47.125 39.59375 43.09375 43.984375 
Q 39.0625 48.390625 32.421875 48.390625 
Q 24.90625 48.390625 20.390625 44.140625 
Q 15.875 39.890625 15.1875 32.171875 
z
" id="DejaVuSans-101"/>
      <path d="M 40.578125 39.3125 
Q 47.65625 37.796875 51.625 33 
Q 55.609375 28.21875 55.609375 21.1875 
Q 55.609375 10.40625 48.1875 4.484375 
Q 40.765625 -1.421875 27.09375 -1.421875 
Q 22.515625 -1.421875 17.65625 -0.515625 
Q 12.796875 0.390625 7.625 2.203125 
L 7.625 11.71875 
Q 11.71875 9.328125 16.59375 8.109375 
Q 21.484375 6.890625 26.8125 6.890625 
Q 36.078125 6.890625 40.9375 10.546875 
Q 45.796875 14.203125 45.796875 21.1875 
Q 45.796875 27.640625 41.28125 31.265625 
Q 36.765625 34.90625 28.71875 34.90625 
L 20.21875 34.90625 
L 20.21875 43.015625 
L 29.109375 43.015625 
Q 36.375 43.015625 40.234375 45.921875 
Q 44.09375 48.828125 44.09375 54.296875 
Q 44.09375 59.90625 40.109375 62.90625 
Q 36.140625 65.921875 28.71875 65.921875 
Q 24.65625 65.921875 20.015625 65.03125 
Q 15.375 64.15625 9.8125 62.3125 
L 9.8125 71.09375 
Q 15.4375 72.65625 20.34375 73.4375 
Q 25.25 74.21875 29.59375 74.21875 
Q 40.828125 74.21875 47.359375 69.109375 
Q 53.90625 64.015625 53.90625 55.328125 
Q 53.90625 49.265625 50.4375 45.09375 
Q 46.96875 40.921875 40.578125 39.3125 
z
" id="DejaVuSans-51"/>
      <path d="M 18.3125 70.21875 
L 18.3125 54.6875 
L 36.8125 54.6875 
L 36.8125 47.703125 
L 18.3125 47.703125 
L 18.3125 18.015625 
Q 18.3125 11.328125 20.140625 9.421875 
Q 21.96875 7.515625 27.59375 7.515625 
L 36.8125 7.515625 
L 36.8125 0 
L 27.59375 0 
Q 17.1875 0 13.234375 3.875 
Q 9.28125 7.765625 9.28125 18.015625 
L 9.28125 47.703125 
L 2.6875 47.703125 
L 2.6875 54.6875 
L 9.28125 54.6875 
L 9.28125 70.21875 
z
" id="DejaVuSans-116"/>
      <path d="M 54.890625 33.015625 
L 54.890625 0 
L 45.90625 0 
L 45.90625 32.71875 
Q 45.90625 40.484375 42.875 44.328125 
Q 39.84375 48.1875 33.796875 48.1875 
Q 26.515625 48.1875 22.3125 43.546875 
Q 18.109375 38.921875 18.109375 30.90625 
L 18.109375 0 
L 9.078125 0 
L 9.078125 75.984375 
L 18.109375 75.984375 
L 18.109375 46.1875 
Q 21.34375 51.125 25.703125 53.5625 
Q 30.078125 56 35.796875 56 
Q 45.21875 56 50.046875 50.171875 
Q 54.890625 44.34375 54.890625 33.015625 
z
" id="DejaVuSans-104"/>
     </defs>
     <g style="fill:#555555;" transform="translate(316.255 417.79625)scale(0.12 -0.12)">
      <use xlink:href="#DejaVuSans-100"/>
      <use x="63.476562" xlink:href="#DejaVuSans-97"/>
      <use x="124.755859" xlink:href="#DejaVuSans-121"/>
      <use x="183.935547" xlink:href="#DejaVuSans-115"/>
      <use x="236.035156" xlink:href="#DejaVuSans-32"/>
      <use x="267.822266" xlink:href="#DejaVuSans-115"/>
      <use x="319.921875" xlink:href="#DejaVuSans-105"/>
      <use x="347.705078" xlink:href="#DejaVuSans-110"/>
      <use x="411.083984" xlink:href="#DejaVuSans-99"/>
      <use x="466.064453" xlink:href="#DejaVuSans-101"/>
      <use x="527.587891" xlink:href="#DejaVuSans-32"/>
      <use x="559.375" xlink:href="#DejaVuSans-51"/>
      <use x="622.998047" xlink:href="#DejaVuSans-32"/>
      <use x="654.785156" xlink:href="#DejaVuSans-100"/>
      <use x="718.261719" xlink:href="#DejaVuSans-101"/>
      <use x="779.785156" xlink:href="#DejaVuSans-97"/>
      <use x="841.064453" xlink:href="#DejaVuSans-116"/>
      <use x="880.273438" xlink:href="#DejaVuSans-104"/>
      <use x="943.652344" xlink:href="#DejaVuSans-115"/>
     </g>
    </g>
   </g>
   <g id="matplotlib.axis_2">
    <g id="ytick_1">
     <g id="line2d_17">
      <path clip-path="url(#p2f3f4f9626)" d="M 86.625 388 
L 665.375 388 
" style="fill:none;stroke:#ffffff;stroke-linecap:square;stroke-width:0.8;"/>
     </g>
     <g id="line2d_18">
      <defs>
       <path d="M 0 0 
L -3.5 0 
" id="m48d56dc370" style="stroke:#555555;stroke-width:0.8;"/>
      </defs>
      <g>
       <use style="fill:#555555;stroke:#555555;stroke-width:0.8;" x="86.625" xlink:href="#m48d56dc370" y="388"/>
      </g>
     </g>
     <g id="line2d_19">
      <defs>
       <path d="M 0 0 
L 3.5 0 
" id="md0b0224581" style="stroke:#555555;stroke-width:0.8;"/>
      </defs>
      <g>
       <use style="fill:#555555;stroke:#555555;stroke-width:0.8;" x="665.375" xlink:href="#md0b0224581" y="388"/>
      </g>
     </g>
     <g id="text_10">
      <!-- 0.1 -->
      <defs>
       <path d="M 10.6875 12.40625 
L 21 12.40625 
L 21 0 
L 10.6875 0 
z
" id="DejaVuSans-46"/>
      </defs>
      <g style="fill:#555555;" transform="translate(63.721875 391.799219)scale(0.1 -0.1)">
       <use xlink:href="#DejaVuSans-48"/>
       <use x="63.623047" xlink:href="#DejaVuSans-46"/>
       <use x="95.410156" xlink:href="#DejaVuSans-49"/>
      </g>
     </g>
     <g id="text_11">
      <!-- 0.1 -->
      <g style="fill:#555555;" transform="translate(672.375 391.799219)scale(0.1 -0.1)">
       <use xlink:href="#DejaVuSans-48"/>
       <use x="63.623047" xlink:href="#DejaVuSans-46"/>
       <use x="95.410156" xlink:href="#DejaVuSans-49"/>
      </g>
     </g>
    </g>
    <g id="ytick_2">
     <g id="line2d_20">
      <path clip-path="url(#p2f3f4f9626)" d="M 86.625 351.59802 
L 665.375 351.59802 
" style="fill:none;stroke:#ffffff;stroke-linecap:square;stroke-width:0.8;"/>
     </g>
     <g id="line2d_21">
      <g>
       <use style="fill:#555555;stroke:#555555;stroke-width:0.8;" x="86.625" xlink:href="#m48d56dc370" y="351.59802"/>
      </g>
     </g>
     <g id="line2d_22">
      <g>
       <use style="fill:#555555;stroke:#555555;stroke-width:0.8;" x="665.375" xlink:href="#md0b0224581" y="351.59802"/>
      </g>
     </g>
     <g id="text_12">
      <!-- 1 -->
      <g style="fill:#555555;" transform="translate(73.2625 355.397239)scale(0.1 -0.1)">
       <use xlink:href="#DejaVuSans-49"/>
      </g>
     </g>
     <g id="text_13">
      <!-- 1 -->
      <g style="fill:#555555;" transform="translate(672.375 355.397239)scale(0.1 -0.1)">
       <use xlink:href="#DejaVuSans-49"/>
      </g>
     </g>
    </g>
    <g id="ytick_3">
     <g id="line2d_23">
      <path clip-path="url(#p2f3f4f9626)" d="M 86.625 315.19604 
L 665.375 315.19604 
" style="fill:none;stroke:#ffffff;stroke-linecap:square;stroke-width:0.8;"/>
     </g>
     <g id="line2d_24">
      <g>
       <use style="fill:#555555;stroke:#555555;stroke-width:0.8;" x="86.625" xlink:href="#m48d56dc370" y="315.19604"/>
      </g>
     </g>
     <g id="line2d_25">
      <g>
       <use style="fill:#555555;stroke:#555555;stroke-width:0.8;" x="665.375" xlink:href="#md0b0224581" y="315.19604"/>
      </g>
     </g>
     <g id="text_14">
      <!-- 10 -->
      <g style="fill:#555555;" transform="translate(66.9 318.995259)scale(0.1 -0.1)">
       <use xlink:href="#DejaVuSans-49"/>
       <use x="63.623047" xlink:href="#DejaVuSans-48"/>
      </g>
     </g>
     <g id="text_15">
      <!-- 10 -->
      <g style="fill:#555555;" transform="translate(672.375 318.995259)scale(0.1 -0.1)">
       <use xlink:href="#DejaVuSans-49"/>
       <use x="63.623047" xlink:href="#DejaVuSans-48"/>
      </g>
     </g>
    </g>
    <g id="ytick_4">
     <g id="line2d_26">
      <path clip-path="url(#p2f3f4f9626)" d="M 86.625 278.79406 
L 665.375 278.79406 
" style="fill:none;stroke:#ffffff;stroke-linecap:square;stroke-width:0.8;"/>
     </g>
     <g id="line2d_27">
      <g>
       <use style="fill:#555555;stroke:#555555;stroke-width:0.8;" x="86.625" xlink:href="#m48d56dc370" y="278.79406"/>
      </g>
     </g>
     <g id="line2d_28">
      <g>
       <use style="fill:#555555;stroke:#555555;stroke-width:0.8;" x="665.375" xlink:href="#md0b0224581" y="278.79406"/>
      </g>
     </g>
     <g id="text_16">
      <!-- 100 -->
      <g style="fill:#555555;" transform="translate(60.5375 282.593278)scale(0.1 -0.1)">
       <use xlink:href="#DejaVuSans-49"/>
       <use x="63.623047" xlink:href="#DejaVuSans-48"/>
       <use x="127.246094" xlink:href="#DejaVuSans-48"/>
      </g>
     </g>
     <g id="text_17">
      <!-- 100 -->
      <g style="fill:#555555;" transform="translate(672.375 282.593278)scale(0.1 -0.1)">
       <use xlink:href="#DejaVuSans-49"/>
       <use x="63.623047" xlink:href="#DejaVuSans-48"/>
       <use x="127.246094" xlink:href="#DejaVuSans-48"/>
      </g>
     </g>
    </g>
    <g id="ytick_5">
     <g id="line2d_29">
      <path clip-path="url(#p2f3f4f9626)" d="M 86.625 242.39208 
L 665.375 242.39208 
" style="fill:none;stroke:#ffffff;stroke-linecap:square;stroke-width:0.8;"/>
     </g>
     <g id="line2d_30">
      <g>
       <use style="fill:#555555;stroke:#555555;stroke-width:0.8;" x="86.625" xlink:href="#m48d56dc370" y="242.39208"/>
      </g>
     </g>
     <g id="line2d_31">
      <g>
       <use style="fill:#555555;stroke:#555555;stroke-width:0.8;" x="665.375" xlink:href="#md0b0224581" y="242.39208"/>
      </g>
     </g>
     <g id="text_18">
      <!-- 1000 -->
      <g style="fill:#555555;" transform="translate(54.175 246.191298)scale(0.1 -0.1)">
       <use xlink:href="#DejaVuSans-49"/>
       <use x="63.623047" xlink:href="#DejaVuSans-48"/>
       <use x="127.246094" xlink:href="#DejaVuSans-48"/>
       <use x="190.869141" xlink:href="#DejaVuSans-48"/>
      </g>
     </g>
     <g id="text_19">
      <!-- 1000 -->
      <g style="fill:#555555;" transform="translate(672.375 246.191298)scale(0.1 -0.1)">
       <use xlink:href="#DejaVuSans-49"/>
       <use x="63.623047" xlink:href="#DejaVuSans-48"/>
       <use x="127.246094" xlink:href="#DejaVuSans-48"/>
       <use x="190.869141" xlink:href="#DejaVuSans-48"/>
      </g>
     </g>
    </g>
    <g id="ytick_6">
     <g id="line2d_32">
      <defs>
       <path d="M 0 0 
L -2 0 
" id="m06ed6debb7" style="stroke:#555555;stroke-width:0.6;"/>
      </defs>
      <g>
       <use style="fill:#555555;stroke:#555555;stroke-width:0.6;" x="86.625" xlink:href="#m06ed6debb7" y="377.041912"/>
      </g>
     </g>
     <g id="line2d_33">
      <defs>
       <path d="M 0 0 
L 2 0 
" id="mdd10b0493c" style="stroke:#555555;stroke-width:0.6;"/>
      </defs>
      <g>
       <use style="fill:#555555;stroke:#555555;stroke-width:0.6;" x="665.375" xlink:href="#mdd10b0493c" y="377.041912"/>
      </g>
     </g>
    </g>
    <g id="ytick_7">
     <g id="line2d_34">
      <g>
       <use style="fill:#555555;stroke:#555555;stroke-width:0.6;" x="86.625" xlink:href="#m06ed6debb7" y="370.631842"/>
      </g>
     </g>
     <g id="line2d_35">
      <g>
       <use style="fill:#555555;stroke:#555555;stroke-width:0.6;" x="665.375" xlink:href="#mdd10b0493c" y="370.631842"/>
      </g>
     </g>
    </g>
    <g id="ytick_8">
     <g id="line2d_36">
      <g>
       <use style="fill:#555555;stroke:#555555;stroke-width:0.6;" x="86.625" xlink:href="#m06ed6debb7" y="366.083824"/>
      </g>
     </g>
     <g id="line2d_37">
      <g>
       <use style="fill:#555555;stroke:#555555;stroke-width:0.6;" x="665.375" xlink:href="#mdd10b0493c" y="366.083824"/>
      </g>
     </g>
    </g>
    <g id="ytick_9">
     <g id="line2d_38">
      <g>
       <use style="fill:#555555;stroke:#555555;stroke-width:0.6;" x="86.625" xlink:href="#m06ed6debb7" y="362.556108"/>
      </g>
     </g>
     <g id="line2d_39">
      <g>
       <use style="fill:#555555;stroke:#555555;stroke-width:0.6;" x="665.375" xlink:href="#mdd10b0493c" y="362.556108"/>
      </g>
     </g>
    </g>
    <g id="ytick_10">
     <g id="line2d_40">
      <g>
       <use style="fill:#555555;stroke:#555555;stroke-width:0.6;" x="86.625" xlink:href="#m06ed6debb7" y="359.673754"/>
      </g>
     </g>
     <g id="line2d_41">
      <g>
       <use style="fill:#555555;stroke:#555555;stroke-width:0.6;" x="665.375" xlink:href="#mdd10b0493c" y="359.673754"/>
      </g>
     </g>
    </g>
    <g id="ytick_11">
     <g id="line2d_42">
      <g>
       <use style="fill:#555555;stroke:#555555;stroke-width:0.6;" x="86.625" xlink:href="#m06ed6debb7" y="357.236758"/>
      </g>
     </g>
     <g id="line2d_43">
      <g>
       <use style="fill:#555555;stroke:#555555;stroke-width:0.6;" x="665.375" xlink:href="#mdd10b0493c" y="357.236758"/>
      </g>
     </g>
    </g>
    <g id="ytick_12">
     <g id="line2d_44">
      <g>
       <use style="fill:#555555;stroke:#555555;stroke-width:0.6;" x="86.625" xlink:href="#m06ed6debb7" y="355.125736"/>
      </g>
     </g>
     <g id="line2d_45">
      <g>
       <use style="fill:#555555;stroke:#555555;stroke-width:0.6;" x="665.375" xlink:href="#mdd10b0493c" y="355.125736"/>
      </g>
     </g>
    </g>
    <g id="ytick_13">
     <g id="line2d_46">
      <g>
       <use style="fill:#555555;stroke:#555555;stroke-width:0.6;" x="86.625" xlink:href="#m06ed6debb7" y="353.263683"/>
      </g>
     </g>
     <g id="line2d_47">
      <g>
       <use style="fill:#555555;stroke:#555555;stroke-width:0.6;" x="665.375" xlink:href="#mdd10b0493c" y="353.263683"/>
      </g>
     </g>
    </g>
    <g id="ytick_14">
     <g id="line2d_48">
      <g>
       <use style="fill:#555555;stroke:#555555;stroke-width:0.6;" x="86.625" xlink:href="#m06ed6debb7" y="340.639932"/>
      </g>
     </g>
     <g id="line2d_49">
      <g>
       <use style="fill:#555555;stroke:#555555;stroke-width:0.6;" x="665.375" xlink:href="#mdd10b0493c" y="340.639932"/>
      </g>
     </g>
    </g>
    <g id="ytick_15">
     <g id="line2d_50">
      <g>
       <use style="fill:#555555;stroke:#555555;stroke-width:0.6;" x="86.625" xlink:href="#m06ed6debb7" y="334.229861"/>
      </g>
     </g>
     <g id="line2d_51">
      <g>
       <use style="fill:#555555;stroke:#555555;stroke-width:0.6;" x="665.375" xlink:href="#mdd10b0493c" y="334.229861"/>
      </g>
     </g>
    </g>
    <g id="ytick_16">
     <g id="line2d_52">
      <g>
       <use style="fill:#555555;stroke:#555555;stroke-width:0.6;" x="86.625" xlink:href="#m06ed6debb7" y="329.681844"/>
      </g>
     </g>
     <g id="line2d_53">
      <g>
       <use style="fill:#555555;stroke:#555555;stroke-width:0.6;" x="665.375" xlink:href="#mdd10b0493c" y="329.681844"/>
      </g>
     </g>
    </g>
    <g id="ytick_17">
     <g id="line2d_54">
      <g>
       <use style="fill:#555555;stroke:#555555;stroke-width:0.6;" x="86.625" xlink:href="#m06ed6debb7" y="326.154128"/>
      </g>
     </g>
     <g id="line2d_55">
      <g>
       <use style="fill:#555555;stroke:#555555;stroke-width:0.6;" x="665.375" xlink:href="#mdd10b0493c" y="326.154128"/>
      </g>
     </g>
    </g>
    <g id="ytick_18">
     <g id="line2d_56">
      <g>
       <use style="fill:#555555;stroke:#555555;stroke-width:0.6;" x="86.625" xlink:href="#m06ed6debb7" y="323.271774"/>
      </g>
     </g>
     <g id="line2d_57">
      <g>
       <use style="fill:#555555;stroke:#555555;stroke-width:0.6;" x="665.375" xlink:href="#mdd10b0493c" y="323.271774"/>
      </g>
     </g>
    </g>
    <g id="ytick_19">
     <g id="line2d_58">
      <g>
       <use style="fill:#555555;stroke:#555555;stroke-width:0.6;" x="86.625" xlink:href="#m06ed6debb7" y="320.834778"/>
      </g>
     </g>
     <g id="line2d_59">
      <g>
       <use style="fill:#555555;stroke:#555555;stroke-width:0.6;" x="665.375" xlink:href="#mdd10b0493c" y="320.834778"/>
      </g>
     </g>
    </g>
    <g id="ytick_20">
     <g id="line2d_60">
      <g>
       <use style="fill:#555555;stroke:#555555;stroke-width:0.6;" x="86.625" xlink:href="#m06ed6debb7" y="318.723756"/>
      </g>
     </g>
     <g id="line2d_61">
      <g>
       <use style="fill:#555555;stroke:#555555;stroke-width:0.6;" x="665.375" xlink:href="#mdd10b0493c" y="318.723756"/>
      </g>
     </g>
    </g>
    <g id="ytick_21">
     <g id="line2d_62">
      <g>
       <use style="fill:#555555;stroke:#555555;stroke-width:0.6;" x="86.625" xlink:href="#m06ed6debb7" y="316.861703"/>
      </g>
     </g>
     <g id="line2d_63">
      <g>
       <use style="fill:#555555;stroke:#555555;stroke-width:0.6;" x="665.375" xlink:href="#mdd10b0493c" y="316.861703"/>
      </g>
     </g>
    </g>
    <g id="ytick_22">
     <g id="line2d_64">
      <g>
       <use style="fill:#555555;stroke:#555555;stroke-width:0.6;" x="86.625" xlink:href="#m06ed6debb7" y="304.237952"/>
      </g>
     </g>
     <g id="line2d_65">
      <g>
       <use style="fill:#555555;stroke:#555555;stroke-width:0.6;" x="665.375" xlink:href="#mdd10b0493c" y="304.237952"/>
      </g>
     </g>
    </g>
    <g id="ytick_23">
     <g id="line2d_66">
      <g>
       <use style="fill:#555555;stroke:#555555;stroke-width:0.6;" x="86.625" xlink:href="#m06ed6debb7" y="297.827881"/>
      </g>
     </g>
     <g id="line2d_67">
      <g>
       <use style="fill:#555555;stroke:#555555;stroke-width:0.6;" x="665.375" xlink:href="#mdd10b0493c" y="297.827881"/>
      </g>
     </g>
    </g>
    <g id="ytick_24">
     <g id="line2d_68">
      <g>
       <use style="fill:#555555;stroke:#555555;stroke-width:0.6;" x="86.625" xlink:href="#m06ed6debb7" y="293.279864"/>
      </g>
     </g>
     <g id="line2d_69">
      <g>
       <use style="fill:#555555;stroke:#555555;stroke-width:0.6;" x="665.375" xlink:href="#mdd10b0493c" y="293.279864"/>
      </g>
     </g>
    </g>
    <g id="ytick_25">
     <g id="line2d_70">
      <g>
       <use style="fill:#555555;stroke:#555555;stroke-width:0.6;" x="86.625" xlink:href="#m06ed6debb7" y="289.752148"/>
      </g>
     </g>
     <g id="line2d_71">
      <g>
       <use style="fill:#555555;stroke:#555555;stroke-width:0.6;" x="665.375" xlink:href="#mdd10b0493c" y="289.752148"/>
      </g>
     </g>
    </g>
    <g id="ytick_26">
     <g id="line2d_72">
      <g>
       <use style="fill:#555555;stroke:#555555;stroke-width:0.6;" x="86.625" xlink:href="#m06ed6debb7" y="286.869793"/>
      </g>
     </g>
     <g id="line2d_73">
      <g>
       <use style="fill:#555555;stroke:#555555;stroke-width:0.6;" x="665.375" xlink:href="#mdd10b0493c" y="286.869793"/>
      </g>
     </g>
    </g>
    <g id="ytick_27">
     <g id="line2d_74">
      <g>
       <use style="fill:#555555;stroke:#555555;stroke-width:0.6;" x="86.625" xlink:href="#m06ed6debb7" y="284.432798"/>
      </g>
     </g>
     <g id="line2d_75">
      <g>
       <use style="fill:#555555;stroke:#555555;stroke-width:0.6;" x="665.375" xlink:href="#mdd10b0493c" y="284.432798"/>
      </g>
     </g>
    </g>
    <g id="ytick_28">
     <g id="line2d_76">
      <g>
       <use style="fill:#555555;stroke:#555555;stroke-width:0.6;" x="86.625" xlink:href="#m06ed6debb7" y="282.321776"/>
      </g>
     </g>
     <g id="line2d_77">
      <g>
       <use style="fill:#555555;stroke:#555555;stroke-width:0.6;" x="665.375" xlink:href="#mdd10b0493c" y="282.321776"/>
      </g>
     </g>
    </g>
    <g id="ytick_29">
     <g id="line2d_78">
      <g>
       <use style="fill:#555555;stroke:#555555;stroke-width:0.6;" x="86.625" xlink:href="#m06ed6debb7" y="280.459723"/>
      </g>
     </g>
     <g id="line2d_79">
      <g>
       <use style="fill:#555555;stroke:#555555;stroke-width:0.6;" x="665.375" xlink:href="#mdd10b0493c" y="280.459723"/>
      </g>
     </g>
    </g>
    <g id="ytick_30">
     <g id="line2d_80">
      <g>
       <use style="fill:#555555;stroke:#555555;stroke-width:0.6;" x="86.625" xlink:href="#m06ed6debb7" y="267.835972"/>
      </g>
     </g>
     <g id="line2d_81">
      <g>
       <use style="fill:#555555;stroke:#555555;stroke-width:0.6;" x="665.375" xlink:href="#mdd10b0493c" y="267.835972"/>
      </g>
     </g>
    </g>
    <g id="ytick_31">
     <g id="line2d_82">
      <g>
       <use style="fill:#555555;stroke:#555555;stroke-width:0.6;" x="86.625" xlink:href="#m06ed6debb7" y="261.425901"/>
      </g>
     </g>
     <g id="line2d_83">
      <g>
       <use style="fill:#555555;stroke:#555555;stroke-width:0.6;" x="665.375" xlink:href="#mdd10b0493c" y="261.425901"/>
      </g>
     </g>
    </g>
    <g id="ytick_32">
     <g id="line2d_84">
      <g>
       <use style="fill:#555555;stroke:#555555;stroke-width:0.6;" x="86.625" xlink:href="#m06ed6debb7" y="256.877884"/>
      </g>
     </g>
     <g id="line2d_85">
      <g>
       <use style="fill:#555555;stroke:#555555;stroke-width:0.6;" x="665.375" xlink:href="#mdd10b0493c" y="256.877884"/>
      </g>
     </g>
    </g>
    <g id="ytick_33">
     <g id="line2d_86">
      <g>
       <use style="fill:#555555;stroke:#555555;stroke-width:0.6;" x="86.625" xlink:href="#m06ed6debb7" y="253.350167"/>
      </g>
     </g>
     <g id="line2d_87">
      <g>
       <use style="fill:#555555;stroke:#555555;stroke-width:0.6;" x="665.375" xlink:href="#mdd10b0493c" y="253.350167"/>
      </g>
     </g>
    </g>
    <g id="ytick_34">
     <g id="line2d_88">
      <g>
       <use style="fill:#555555;stroke:#555555;stroke-width:0.6;" x="86.625" xlink:href="#m06ed6debb7" y="250.467813"/>
      </g>
     </g>
     <g id="line2d_89">
      <g>
       <use style="fill:#555555;stroke:#555555;stroke-width:0.6;" x="665.375" xlink:href="#mdd10b0493c" y="250.467813"/>
      </g>
     </g>
    </g>
    <g id="ytick_35">
     <g id="line2d_90">
      <g>
       <use style="fill:#555555;stroke:#555555;stroke-width:0.6;" x="86.625" xlink:href="#m06ed6debb7" y="248.030818"/>
      </g>
     </g>
     <g id="line2d_91">
      <g>
       <use style="fill:#555555;stroke:#555555;stroke-width:0.6;" x="665.375" xlink:href="#mdd10b0493c" y="248.030818"/>
      </g>
     </g>
    </g>
    <g id="ytick_36">
     <g id="line2d_92">
      <g>
       <use style="fill:#555555;stroke:#555555;stroke-width:0.6;" x="86.625" xlink:href="#m06ed6debb7" y="245.919796"/>
      </g>
     </g>
     <g id="line2d_93">
      <g>
       <use style="fill:#555555;stroke:#555555;stroke-width:0.6;" x="665.375" xlink:href="#mdd10b0493c" y="245.919796"/>
      </g>
     </g>
    </g>
    <g id="ytick_37">
     <g id="line2d_94">
      <g>
       <use style="fill:#555555;stroke:#555555;stroke-width:0.6;" x="86.625" xlink:href="#m06ed6debb7" y="244.057743"/>
      </g>
     </g>
     <g id="line2d_95">
      <g>
       <use style="fill:#555555;stroke:#555555;stroke-width:0.6;" x="665.375" xlink:href="#mdd10b0493c" y="244.057743"/>
      </g>
     </g>
    </g>
    <g id="ytick_38">
     <g id="line2d_96">
      <g>
       <use style="fill:#555555;stroke:#555555;stroke-width:0.6;" x="86.625" xlink:href="#m06ed6debb7" y="231.433992"/>
      </g>
     </g>
     <g id="line2d_97">
      <g>
       <use style="fill:#555555;stroke:#555555;stroke-width:0.6;" x="665.375" xlink:href="#mdd10b0493c" y="231.433992"/>
      </g>
     </g>
    </g>
    <g id="ytick_39">
     <g id="line2d_98">
      <g>
       <use style="fill:#555555;stroke:#555555;stroke-width:0.6;" x="86.625" xlink:href="#m06ed6debb7" y="225.023921"/>
      </g>
     </g>
     <g id="line2d_99">
      <g>
       <use style="fill:#555555;stroke:#555555;stroke-width:0.6;" x="665.375" xlink:href="#mdd10b0493c" y="225.023921"/>
      </g>
     </g>
    </g>
    <g id="text_20">
     <!-- daily new deaths -->
     <defs>
      <path d="M 9.421875 75.984375 
L 18.40625 75.984375 
L 18.40625 0 
L 9.421875 0 
z
" id="DejaVuSans-108"/>
      <path d="M 4.203125 54.6875 
L 13.1875 54.6875 
L 24.421875 12.015625 
L 35.59375 54.6875 
L 46.1875 54.6875 
L 57.421875 12.015625 
L 68.609375 54.6875 
L 77.59375 54.6875 
L 63.28125 0 
L 52.6875 0 
L 40.921875 44.828125 
L 29.109375 0 
L 18.5 0 
z
" id="DejaVuSans-119"/>
     </defs>
     <g style="fill:#555555;" transform="translate(34.242 356.055213)rotate(-90)scale(0.12 -0.12)">
      <use xlink:href="#DejaVuSans-100"/>
      <use x="63.476562" xlink:href="#DejaVuSans-97"/>
      <use x="124.755859" xlink:href="#DejaVuSans-105"/>
      <use x="152.539062" xlink:href="#DejaVuSans-108"/>
      <use x="180.322266" xlink:href="#DejaVuSans-121"/>
      <use x="239.501953" xlink:href="#DejaVuSans-32"/>
      <use x="271.289062" xlink:href="#DejaVuSans-110"/>
      <use x="334.667969" xlink:href="#DejaVuSans-101"/>
      <use x="396.191406" xlink:href="#DejaVuSans-119"/>
      <use x="477.978516" xlink:href="#DejaVuSans-32"/>
      <use x="509.765625" xlink:href="#DejaVuSans-100"/>
      <use x="573.242188" xlink:href="#DejaVuSans-101"/>
      <use x="634.765625" xlink:href="#DejaVuSans-97"/>
      <use x="696.044922" xlink:href="#DejaVuSans-116"/>
      <use x="735.253906" xlink:href="#DejaVuSans-104"/>
      <use x="798.632812" xlink:href="#DejaVuSans-115"/>
     </g>
     <!-- (rolling 7-day mean) -->
     <defs>
      <path d="M 31 75.875 
Q 24.46875 64.65625 21.28125 53.65625 
Q 18.109375 42.671875 18.109375 31.390625 
Q 18.109375 20.125 21.3125 9.0625 
Q 24.515625 -2 31 -13.1875 
L 23.1875 -13.1875 
Q 15.875 -1.703125 12.234375 9.375 
Q 8.59375 20.453125 8.59375 31.390625 
Q 8.59375 42.28125 12.203125 53.3125 
Q 15.828125 64.359375 23.1875 75.875 
z
" id="DejaVuSans-40"/>
      <path d="M 41.109375 46.296875 
Q 39.59375 47.171875 37.8125 47.578125 
Q 36.03125 48 33.890625 48 
Q 26.265625 48 22.1875 43.046875 
Q 18.109375 38.09375 18.109375 28.8125 
L 18.109375 0 
L 9.078125 0 
L 9.078125 54.6875 
L 18.109375 54.6875 
L 18.109375 46.1875 
Q 20.953125 51.171875 25.484375 53.578125 
Q 30.03125 56 36.53125 56 
Q 37.453125 56 38.578125 55.875 
Q 39.703125 55.765625 41.0625 55.515625 
z
" id="DejaVuSans-114"/>
      <path d="M 30.609375 48.390625 
Q 23.390625 48.390625 19.1875 42.75 
Q 14.984375 37.109375 14.984375 27.296875 
Q 14.984375 17.484375 19.15625 11.84375 
Q 23.34375 6.203125 30.609375 6.203125 
Q 37.796875 6.203125 41.984375 11.859375 
Q 46.1875 17.53125 46.1875 27.296875 
Q 46.1875 37.015625 41.984375 42.703125 
Q 37.796875 48.390625 30.609375 48.390625 
z
M 30.609375 56 
Q 42.328125 56 49.015625 48.375 
Q 55.71875 40.765625 55.71875 27.296875 
Q 55.71875 13.875 49.015625 6.21875 
Q 42.328125 -1.421875 30.609375 -1.421875 
Q 18.84375 -1.421875 12.171875 6.21875 
Q 5.515625 13.875 5.515625 27.296875 
Q 5.515625 40.765625 12.171875 48.375 
Q 18.84375 56 30.609375 56 
z
" id="DejaVuSans-111"/>
      <path d="M 45.40625 27.984375 
Q 45.40625 37.75 41.375 43.109375 
Q 37.359375 48.484375 30.078125 48.484375 
Q 22.859375 48.484375 18.828125 43.109375 
Q 14.796875 37.75 14.796875 27.984375 
Q 14.796875 18.265625 18.828125 12.890625 
Q 22.859375 7.515625 30.078125 7.515625 
Q 37.359375 7.515625 41.375 12.890625 
Q 45.40625 18.265625 45.40625 27.984375 
z
M 54.390625 6.78125 
Q 54.390625 -7.171875 48.1875 -13.984375 
Q 42 -20.796875 29.203125 -20.796875 
Q 24.46875 -20.796875 20.265625 -20.09375 
Q 16.0625 -19.390625 12.109375 -17.921875 
L 12.109375 -9.1875 
Q 16.0625 -11.328125 19.921875 -12.34375 
Q 23.78125 -13.375 27.78125 -13.375 
Q 36.625 -13.375 41.015625 -8.765625 
Q 45.40625 -4.15625 45.40625 5.171875 
L 45.40625 9.625 
Q 42.625 4.78125 38.28125 2.390625 
Q 33.9375 0 27.875 0 
Q 17.828125 0 11.671875 7.65625 
Q 5.515625 15.328125 5.515625 27.984375 
Q 5.515625 40.671875 11.671875 48.328125 
Q 17.828125 56 27.875 56 
Q 33.9375 56 38.28125 53.609375 
Q 42.625 51.21875 45.40625 46.390625 
L 45.40625 54.6875 
L 54.390625 54.6875 
z
" id="DejaVuSans-103"/>
      <path d="M 8.203125 72.90625 
L 55.078125 72.90625 
L 55.078125 68.703125 
L 28.609375 0 
L 18.3125 0 
L 43.21875 64.59375 
L 8.203125 64.59375 
z
" id="DejaVuSans-55"/>
      <path d="M 4.890625 31.390625 
L 31.203125 31.390625 
L 31.203125 23.390625 
L 4.890625 23.390625 
z
" id="DejaVuSans-45"/>
      <path d="M 52 44.1875 
Q 55.375 50.25 60.0625 53.125 
Q 64.75 56 71.09375 56 
Q 79.640625 56 84.28125 50.015625 
Q 88.921875 44.046875 88.921875 33.015625 
L 88.921875 0 
L 79.890625 0 
L 79.890625 32.71875 
Q 79.890625 40.578125 77.09375 44.375 
Q 74.3125 48.1875 68.609375 48.1875 
Q 61.625 48.1875 57.5625 43.546875 
Q 53.515625 38.921875 53.515625 30.90625 
L 53.515625 0 
L 44.484375 0 
L 44.484375 32.71875 
Q 44.484375 40.625 41.703125 44.40625 
Q 38.921875 48.1875 33.109375 48.1875 
Q 26.21875 48.1875 22.15625 43.53125 
Q 18.109375 38.875 18.109375 30.90625 
L 18.109375 0 
L 9.078125 0 
L 9.078125 54.6875 
L 18.109375 54.6875 
L 18.109375 46.1875 
Q 21.1875 51.21875 25.484375 53.609375 
Q 29.78125 56 35.6875 56 
Q 41.65625 56 45.828125 52.96875 
Q 50 49.953125 52 44.1875 
z
" id="DejaVuSans-109"/>
      <path d="M 8.015625 75.875 
L 15.828125 75.875 
Q 23.140625 64.359375 26.78125 53.3125 
Q 30.421875 42.28125 30.421875 31.390625 
Q 30.421875 20.453125 26.78125 9.375 
Q 23.140625 -1.703125 15.828125 -13.1875 
L 8.015625 -13.1875 
Q 14.5 -2 17.703125 9.0625 
Q 20.90625 20.125 20.90625 31.390625 
Q 20.90625 42.671875 17.703125 53.65625 
Q 14.5 64.65625 8.015625 75.875 
z
" id="DejaVuSans-41"/>
     </defs>
     <g style="fill:#555555;" transform="translate(47.679375 366.156775)rotate(-90)scale(0.12 -0.12)">
      <use xlink:href="#DejaVuSans-40"/>
      <use x="39.013672" xlink:href="#DejaVuSans-114"/>
      <use x="77.876953" xlink:href="#DejaVuSans-111"/>
      <use x="139.058594" xlink:href="#DejaVuSans-108"/>
      <use x="166.841797" xlink:href="#DejaVuSans-108"/>
      <use x="194.625" xlink:href="#DejaVuSans-105"/>
      <use x="222.408203" xlink:href="#DejaVuSans-110"/>
      <use x="285.787109" xlink:href="#DejaVuSans-103"/>
      <use x="349.263672" xlink:href="#DejaVuSans-32"/>
      <use x="381.050781" xlink:href="#DejaVuSans-55"/>
      <use x="444.673828" xlink:href="#DejaVuSans-45"/>
      <use x="480.757812" xlink:href="#DejaVuSans-100"/>
      <use x="544.234375" xlink:href="#DejaVuSans-97"/>
      <use x="605.513672" xlink:href="#DejaVuSans-121"/>
      <use x="664.693359" xlink:href="#DejaVuSans-32"/>
      <use x="696.480469" xlink:href="#DejaVuSans-109"/>
      <use x="793.892578" xlink:href="#DejaVuSans-101"/>
      <use x="855.416016" xlink:href="#DejaVuSans-97"/>
      <use x="916.695312" xlink:href="#DejaVuSans-110"/>
      <use x="980.074219" xlink:href="#DejaVuSans-41"/>
     </g>
    </g>
   </g>
   <g id="line2d_100">
    <path clip-path="url(#p2f3f4f9626)" d="M 38.903902 433 
L 38.909438 382.361262 
L 42.885735 371.403174 
L 46.862032 371.403174 
L 50.838329 354.035016 
L 54.814626 349.486998 
L 58.790922 345.959282 
L 62.767219 343.076928 
L 66.743516 343.076928 
L 70.719813 344.452506 
L 74.69611 340.639932 
L 78.672406 344.452506 
L 82.648703 335.001194 
L 86.625 336.666857 
L 90.601297 332.791672 
L 94.577594 333.494418 
L 98.55389 329.127079 
L 102.530187 329.681844 
L 106.506484 327.084348 
L 110.482781 331.473478 
L 114.459078 330.85343 
L 118.435374 331.473478 
L 122.411671 328.072743 
L 126.387968 332.11884 
L 130.364265 329.681844 
L 134.340562 331.473478 
L 138.316858 333.494418 
L 142.293155 330.256787 
L 146.269452 332.11884 
L 150.245749 331.473478 
L 154.222046 329.681844 
L 158.198342 328.591123 
L 162.174639 325.708769 
L 166.150936 325.708769 
L 174.10353 323.271774 
L 178.079827 324.043106 
L 182.056123 322.181053 
L 186.03242 323.271774 
L 190.008717 323.652736 
L 193.985014 321.493589 
L 197.961311 323.271774 
L 201.937607 324.44336 
L 205.913904 324.854011 
L 209.890201 326.154128 
L 217.842795 328.072743 
L 221.819091 329.681844 
L 225.795388 328.591123 
L 229.771685 326.154128 
L 233.747982 326.154128 
L 237.724279 326.612397 
L 241.700575 326.612397 
L 245.676872 328.072743 
L 249.653169 328.072743 
L 253.629466 328.591123 
L 257.605763 331.473478 
L 261.582059 331.473478 
L 265.558356 333.494418 
L 277.487247 335.812099 
L 281.463543 339.549211 
L 285.43984 341.811518 
L 289.416137 344.452506 
L 293.392434 345.959282 
L 297.368731 345.959282 
L 301.345027 347.624945 
L 305.321324 349.486998 
L 309.297621 347.624945 
L 313.273918 347.624945 
L 317.250215 349.486998 
L 321.226512 345.959282 
L 325.202808 349.486998 
L 329.179105 347.624945 
L 333.155402 345.959282 
L 337.131699 347.624945 
L 341.107996 347.624945 
L 345.084292 349.486998 
L 349.060589 354.035016 
L 353.036886 354.035016 
L 357.013183 360.445086 
L 372.91837 360.445086 
L 376.894667 354.035016 
L 380.870964 354.035016 
L 384.84726 351.59802 
L 388.823557 356.91737 
L 392.799854 360.445086 
L 412.681338 360.445086 
L 416.657635 354.035016 
L 420.633932 354.035016 
L 424.610228 356.91737 
L 428.586525 356.91737 
L 432.562822 364.993104 
L 436.539119 360.445086 
L 440.515416 360.445086 
L 444.491712 364.993104 
L 448.468009 360.445086 
L 460.3969 360.445086 
L 464.373196 364.993104 
L 468.349493 371.403174 
L 472.32579 371.403174 
L 476.302087 364.993104 
L 480.278384 364.993104 
L 484.254681 360.445086 
L 500.159868 360.445086 
L 504.136165 364.993104 
L 508.112461 360.445086 
L 512.088758 364.993104 
L 527.993945 364.993104 
L 531.970242 371.403174 
L 551.851726 371.403174 
L 555.828023 382.361262 
L 559.80432 382.361262 
L 559.809856 433 
M 571.727674 433 
L 571.73321 382.361262 
L 575.709507 382.361262 
L 579.685804 371.403174 
L 583.662101 364.993104 
L 587.638397 364.993104 
L 591.614694 356.91737 
L 595.590991 354.035016 
L 599.567288 356.91737 
L 603.543585 354.035016 
L 607.519881 356.91737 
L 611.496178 360.445086 
L 623.425069 360.445086 
L 623.425069 360.445086 
" style="fill:none;stroke:#e24a33;stroke-linecap:square;stroke-width:4;"/>
   </g>
   <g id="line2d_101">
    <defs>
     <path d="M 0 3 
C 0.795609 3 1.55874 2.683901 2.12132 2.12132 
C 2.683901 1.55874 3 0.795609 3 0 
C 3 -0.795609 2.683901 -1.55874 2.12132 -2.12132 
C 1.55874 -2.683901 0.795609 -3 0 -3 
C -0.795609 -3 -1.55874 -2.683901 -2.12132 -2.12132 
C -2.683901 -1.55874 -3 -0.795609 -3 0 
C -3 0.795609 -2.683901 1.55874 -2.12132 2.12132 
C -1.55874 2.683901 -0.795609 3 0 3 
z
" id="md9db95dfd2" style="stroke:#e24a33;"/>
    </defs>
    <g clip-path="url(#p2f3f4f9626)">
     <use style="fill:#e24a33;stroke:#e24a33;" x="623.425069" xlink:href="#md9db95dfd2" y="360.445086"/>
    </g>
   </g>
   <g id="line2d_102">
    <path clip-path="url(#p2f3f4f9626)" d="M 58.78419 433 
L 58.790922 371.403174 
L 62.767219 371.403174 
L 66.743516 364.993104 
L 70.719813 364.993104 
L 74.69611 351.59802 
L 78.672406 347.624945 
L 82.648703 344.452506 
L 86.625 339.549211 
L 90.601297 333.494418 
L 94.577594 331.473478 
L 98.55389 323.652736 
L 102.530187 317.633035 
L 106.506484 314.105319 
L 110.482781 312.503019 
L 114.459078 308.636118 
L 118.435374 305.048857 
L 122.411671 300.441518 
L 126.387968 296.878315 
L 130.364265 293.564722 
L 138.316858 286.170321 
L 146.269452 280.763755 
L 150.245749 278.480996 
L 154.222046 275.911706 
L 158.198342 274.251689 
L 162.174639 272.98237 
L 166.150936 272.36894 
L 170.127233 270.740927 
L 174.10353 269.741843 
L 178.079827 267.511842 
L 182.056123 266.745251 
L 186.03242 266.829792 
L 190.008717 269.105146 
L 193.985014 267.412586 
L 197.961311 268.017688 
L 201.937607 269.277388 
L 205.913904 267.226786 
L 209.890201 267.335815 
L 213.866498 265.87386 
L 217.842795 264.55407 
L 221.819091 266.084719 
L 225.795388 265.066946 
L 229.771685 264.407941 
L 233.747982 267.010958 
L 237.724279 266.504683 
L 241.700575 267.745891 
L 245.676872 267.634006 
L 249.653169 267.9493 
L 253.629466 269.451527 
L 257.605763 269.24032 
L 261.582059 270.431855 
L 265.558356 272.414131 
L 269.534653 273.539369 
L 277.487247 274.997626 
L 281.463543 275.411549 
L 285.43984 279.275595 
L 289.416137 276.525731 
L 293.392434 277.307829 
L 297.368731 277.205371 
L 309.297621 279.533805 
L 313.273918 277.809086 
L 317.250215 281.604308 
L 321.226512 284.368402 
L 325.202808 288.163459 
L 333.155402 287.920236 
L 337.131699 290.117694 
L 341.107996 290.071536 
L 345.084292 293.111381 
L 349.060589 291.218323 
L 353.036886 290.634533 
L 357.013183 291.021322 
L 360.98948 291.119516 
L 368.942073 292.670678 
L 372.91837 293.055617 
L 376.894667 294.031447 
L 380.870964 293.507338 
L 384.84726 293.913468 
L 392.799854 295.32649 
L 396.776151 299.327131 
L 400.752448 300.800833 
L 404.728744 301.640456 
L 412.681338 303.902762 
L 416.657635 303.683187 
L 420.633932 304.237952 
L 424.610228 300.891952 
L 428.586525 303.147231 
L 436.539119 306.029585 
L 444.491712 307.210903 
L 448.468009 307.765668 
L 452.444306 312.313686 
L 456.420603 309.716189 
L 460.3969 309.090001 
L 464.373196 308.937254 
L 468.349493 309.244238 
L 472.32579 310.535501 
L 476.302087 310.875497 
L 480.278384 310.535501 
L 484.254681 313.689264 
L 488.230977 316.367626 
L 492.207274 313.485272 
L 496.183571 314.53262 
L 500.159868 314.53262 
L 504.136165 313.689264 
L 508.112461 313.895923 
L 512.088758 315.888523 
L 516.065055 316.12626 
L 520.041352 322.181053 
L 524.017649 319.895342 
L 527.993945 319.008614 
L 531.970242 321.833584 
L 535.946539 323.271774 
L 539.922836 320.202326 
L 543.899133 320.202326 
L 547.875429 319.594206 
L 551.851726 320.51539 
L 555.828023 321.160752 
L 559.80432 319.895342 
L 571.73321 319.895342 
L 571.73321 319.895342 
" style="fill:none;stroke:#348abd;stroke-linecap:square;stroke-opacity:0.4;stroke-width:2;"/>
   </g>
   <g id="line2d_103">
    <defs>
     <path d="M 0 3 
C 0.795609 3 1.55874 2.683901 2.12132 2.12132 
C 2.683901 1.55874 3 0.795609 3 0 
C 3 -0.795609 2.683901 -1.55874 2.12132 -2.12132 
C 1.55874 -2.683901 0.795609 -3 0 -3 
C -0.795609 -3 -1.55874 -2.683901 -2.12132 -2.12132 
C -2.683901 -1.55874 -3 -0.795609 -3 0 
C -3 0.795609 -2.683901 1.55874 -2.12132 2.12132 
C -1.55874 2.683901 -0.795609 3 0 3 
z
" id="m8a6f05c6d1" style="stroke:#348abd;stroke-opacity:0.4;"/>
    </defs>
    <g clip-path="url(#p2f3f4f9626)">
     <use style="fill:#348abd;fill-opacity:0.4;stroke:#348abd;stroke-opacity:0.4;" x="571.73321" xlink:href="#m8a6f05c6d1" y="319.895342"/>
    </g>
   </g>
   <g id="line2d_104">
    <path clip-path="url(#p2f3f4f9626)" d="M -1 382.361262 
L -0.85353 382.361262 
L -0.847994 433 
M 11.068629 433 
L 11.075361 371.403174 
L 15.051658 364.993104 
L 19.027954 364.993104 
L 23.004251 360.445086 
L 34.933142 360.445086 
L 38.909438 364.993104 
L 42.885735 371.403174 
L 46.862032 351.59802 
L 50.838329 354.035016 
L 54.814626 351.59802 
L 58.790922 347.624945 
L 62.767219 345.959282 
L 66.743516 345.959282 
L 70.719813 343.076928 
L 74.69611 344.452506 
L 78.672406 339.549211 
L 82.648703 338.52891 
L 86.625 335.812099 
L 90.601297 332.791672 
L 94.577594 330.256787 
L 98.55389 328.591123 
L 102.530187 330.256787 
L 106.506484 330.85343 
L 110.482781 330.256787 
L 114.459078 331.473478 
L 118.435374 334.229861 
L 122.411671 337.570485 
L 126.387968 341.811518 
L 130.364265 343.076928 
L 134.340562 343.076928 
L 138.316858 345.959282 
L 142.293155 351.59802 
L 146.269452 354.035016 
L 150.245749 356.91737 
L 154.222046 360.445086 
L 158.198342 343.076928 
L 162.174639 341.811518 
L 166.150936 341.811518 
L 170.127233 338.52891 
L 174.10353 338.52891 
L 178.079827 333.494418 
L 182.056123 332.11884 
L 186.03242 336.666857 
L 190.008717 340.639932 
L 193.985014 340.639932 
L 197.961311 343.076928 
L 201.937607 341.811518 
L 205.913904 349.486998 
L 209.890201 354.035016 
L 213.866498 360.445086 
L 217.842795 360.445086 
L 221.819091 364.993104 
L 225.795388 371.403174 
L 229.771685 382.361262 
L 249.653169 382.361262 
L 253.629466 371.403174 
L 265.558356 371.403174 
L 269.534653 364.993104 
L 273.51095 364.993104 
L 277.487247 360.445086 
L 281.463543 364.993104 
L 293.392434 364.993104 
L 297.368731 371.403174 
L 301.345027 371.403174 
L 305.321324 382.361262 
L 309.297621 382.361262 
L 309.303157 433 
M 400.746912 433 
L 400.752448 382.361262 
L 404.728744 371.403174 
L 424.610228 371.403174 
L 428.586525 382.361262 
L 428.592061 433 
M 448.461277 433 
L 448.468009 371.403174 
L 464.373196 371.403174 
L 468.349493 364.993104 
L 472.32579 360.445086 
L 476.302087 371.403174 
L 492.207274 371.403174 
L 492.207274 371.403174 
" style="fill:none;stroke:#988ed5;stroke-linecap:square;stroke-opacity:0.4;stroke-width:2;"/>
   </g>
   <g id="line2d_105">
    <defs>
     <path d="M 0 3 
C 0.795609 3 1.55874 2.683901 2.12132 2.12132 
C 2.683901 1.55874 3 0.795609 3 0 
C 3 -0.795609 2.683901 -1.55874 2.12132 -2.12132 
C 1.55874 -2.683901 0.795609 -3 0 -3 
C -0.795609 -3 -1.55874 -2.683901 -2.12132 -2.12132 
C -2.683901 -1.55874 -3 -0.795609 -3 0 
C -3 0.795609 -2.683901 1.55874 -2.12132 2.12132 
C -1.55874 2.683901 -0.795609 3 0 3 
z
" id="m1413de4da6" style="stroke:#988ed5;stroke-opacity:0.4;"/>
    </defs>
    <g clip-path="url(#p2f3f4f9626)">
     <use style="fill:#988ed5;fill-opacity:0.4;stroke:#988ed5;stroke-opacity:0.4;" x="492.207274" xlink:href="#m1413de4da6" y="371.403174"/>
    </g>
   </g>
   <g id="line2d_106">
    <path clip-path="url(#p2f3f4f9626)" d="M 19.022418 433 
L 19.027954 382.361262 
L 23.004251 371.403174 
L 26.980548 364.993104 
L 30.956845 364.993104 
L 34.933142 360.445086 
L 38.909438 356.91737 
L 42.885735 356.91737 
L 46.862032 360.445086 
L 50.838329 364.993104 
L 54.814626 371.403174 
L 58.790922 360.445086 
L 62.767219 360.445086 
L 66.743516 356.91737 
L 70.719813 347.624945 
L 74.69611 344.452506 
L 78.672406 344.452506 
L 82.648703 341.811518 
L 86.625 339.549211 
L 90.601297 332.791672 
L 94.577594 332.791672 
L 98.55389 329.127079 
L 102.530187 323.652736 
L 106.506484 319.008614 
L 110.482781 317.371721 
L 114.459078 314.750681 
L 118.435374 313.895923 
L 122.411671 310.202664 
L 126.387968 307.210903 
L 130.364265 307.075201 
L 134.340562 308.050526 
L 138.316858 305.531617 
L 142.293155 304.465426 
L 146.269452 304.465426 
L 150.245749 304.930435 
L 154.222046 305.778641 
L 158.198342 304.237952 
L 162.174639 303.042186 
L 170.127233 305.654647 
L 174.10353 304.812894 
L 178.079827 304.465426 
L 182.056123 304.237952 
L 186.03242 304.237952 
L 190.008717 301.93054 
L 193.985014 300.530584 
L 197.961311 300.710236 
L 201.937607 300.090188 
L 205.913904 298.999468 
L 209.890201 298.758101 
L 213.866498 299.410119 
L 217.842795 302.426166 
L 221.819091 304.237952 
L 225.795388 303.902762 
L 229.771685 304.696221 
L 233.747982 306.674948 
L 237.724279 308.194903 
L 241.700575 307.907456 
L 245.676872 306.029585 
L 249.653169 306.54375 
L 253.629466 306.413633 
L 257.605763 307.625141 
L 261.582059 306.284578 
L 265.558356 305.654647 
L 269.534653 305.654647 
L 273.51095 305.288394 
L 277.487247 305.409538 
L 281.463543 306.029585 
L 285.43984 306.029585 
L 289.416137 308.194903 
L 293.392434 309.399995 
L 297.368731 311.399606 
L 301.345027 314.105319 
L 305.321324 313.485272 
L 309.297621 314.971792 
L 313.273918 314.971792 
L 317.250215 313.895923 
L 321.226512 316.12626 
L 325.202808 316.12626 
L 329.179105 315.423514 
L 333.155402 315.654309 
L 337.131699 315.654309 
L 341.107996 315.888523 
L 345.084292 315.654309 
L 349.060589 311.758921 
L 353.036886 313.283878 
L 357.013183 311.941688 
L 360.98948 310.875497 
L 364.965776 310.704585 
L 372.91837 311.048276 
L 376.894667 311.048276 
L 380.870964 309.87669 
L 384.84726 312.126593 
L 388.823557 312.313686 
L 392.799854 311.222965 
L 396.776151 311.222965 
L 400.752448 311.399606 
L 404.728744 313.085018 
L 408.705041 309.399995 
L 412.681338 307.765668 
L 416.657635 308.194903 
L 420.633932 308.194903 
L 424.610228 309.090001 
L 428.586525 309.090001 
L 432.562822 308.050526 
L 436.539119 310.202664 
L 440.515416 310.368207 
L 444.491712 311.399606 
L 448.468009 312.694648 
L 456.420603 311.578242 
L 460.3969 312.888628 
L 464.373196 313.085018 
L 468.349493 313.485272 
L 472.32579 313.689264 
L 476.302087 313.283878 
L 480.278384 313.689264 
L 484.254681 316.367626 
L 488.230977 316.367626 
L 492.207274 317.898742 
L 496.183571 319.008614 
L 500.159868 318.723756 
L 504.136165 319.298699 
L 508.112461 319.008614 
L 520.041352 319.008614 
L 520.041352 319.008614 
" style="fill:none;stroke:#777777;stroke-linecap:square;stroke-opacity:0.4;stroke-width:2;"/>
   </g>
   <g id="line2d_107">
    <defs>
     <path d="M 0 3 
C 0.795609 3 1.55874 2.683901 2.12132 2.12132 
C 2.683901 1.55874 3 0.795609 3 0 
C 3 -0.795609 2.683901 -1.55874 2.12132 -2.12132 
C 1.55874 -2.683901 0.795609 -3 0 -3 
C -0.795609 -3 -1.55874 -2.683901 -2.12132 -2.12132 
C -2.683901 -1.55874 -3 -0.795609 -3 0 
C -3 0.795609 -2.683901 1.55874 -2.12132 2.12132 
C -1.55874 2.683901 -0.795609 3 0 3 
z
" id="m1a7e76e9f7" style="stroke:#777777;stroke-opacity:0.4;"/>
    </defs>
    <g clip-path="url(#p2f3f4f9626)">
     <use style="fill:#777777;fill-opacity:0.4;stroke:#777777;stroke-opacity:0.4;" x="520.041352" xlink:href="#m1a7e76e9f7" y="319.008614"/>
    </g>
   </g>
   <g id="line2d_108">
    <path clip-path="url(#p2f3f4f9626)" d="M 30.951309 433 
L 30.956845 382.361262 
L 38.909438 360.445086 
L 42.885735 360.445086 
L 46.862032 356.91737 
L 50.838329 349.486998 
L 54.814626 341.811518 
L 62.767219 344.452506 
L 66.743516 343.076928 
L 70.719813 339.549211 
L 74.69611 336.666857 
L 78.672406 336.666857 
L 82.648703 338.52891 
L 86.625 335.001194 
L 90.601297 332.791672 
L 94.577594 332.11884 
L 106.506484 334.229861 
L 110.482781 333.494418 
L 118.435374 333.494418 
L 122.411671 335.001194 
L 130.364265 333.494418 
L 134.340562 331.473478 
L 138.316858 332.11884 
L 142.293155 332.11884 
L 146.269452 330.85343 
L 150.245749 329.127079 
L 154.222046 328.591123 
L 158.198342 328.591123 
L 162.174639 330.256787 
L 166.150936 329.681844 
L 174.10353 329.681844 
L 178.079827 330.256787 
L 186.03242 329.127079 
L 190.008717 327.570822 
L 193.985014 327.570822 
L 197.961311 326.154128 
L 201.937607 326.612397 
L 205.913904 326.154128 
L 209.890201 326.154128 
L 213.866498 326.612397 
L 217.842795 326.612397 
L 221.819091 325.708769 
L 225.795388 327.084348 
L 229.771685 327.084348 
L 233.747982 326.612397 
L 245.676872 326.612397 
L 249.653169 327.084348 
L 253.629466 327.084348 
L 257.605763 326.154128 
L 261.582059 326.612397 
L 265.558356 326.612397 
L 273.51095 325.708769 
L 277.487247 325.708769 
L 285.43984 326.612397 
L 289.416137 326.612397 
L 293.392434 326.154128 
L 297.368731 326.612397 
L 301.345027 326.612397 
L 305.321324 325.708769 
L 309.297621 324.44336 
L 313.273918 324.043106 
L 317.250215 324.043106 
L 321.226512 324.44336 
L 325.202808 324.043106 
L 329.179105 324.44336 
L 333.155402 325.708769 
L 341.107996 325.708769 
L 345.084292 324.854011 
L 353.036886 324.043106 
L 357.013183 324.854011 
L 360.98948 324.44336 
L 364.965776 324.44336 
L 368.942073 324.854011 
L 372.91837 325.708769 
L 376.894667 325.708769 
L 380.870964 326.612397 
L 384.84726 325.275614 
L 392.799854 326.154128 
L 396.776151 325.708769 
L 400.752448 324.854011 
L 404.728744 324.44336 
L 408.705041 323.652736 
L 412.681338 324.043106 
L 420.633932 322.53633 
L 424.610228 322.181053 
L 428.586525 322.53633 
L 432.562822 323.271774 
L 436.539119 323.652736 
L 440.515416 323.652736 
L 444.491712 324.44336 
L 456.420603 324.44336 
L 456.420603 324.44336 
" style="fill:none;stroke:#fbc15e;stroke-linecap:square;stroke-opacity:0.4;stroke-width:2;"/>
   </g>
   <g id="line2d_109">
    <defs>
     <path d="M 0 3 
C 0.795609 3 1.55874 2.683901 2.12132 2.12132 
C 2.683901 1.55874 3 0.795609 3 0 
C 3 -0.795609 2.683901 -1.55874 2.12132 -2.12132 
C 1.55874 -2.683901 0.795609 -3 0 -3 
C -0.795609 -3 -1.55874 -2.683901 -2.12132 -2.12132 
C -2.683901 -1.55874 -3 -0.795609 -3 0 
C -3 0.795609 -2.683901 1.55874 -2.12132 2.12132 
C -1.55874 2.683901 -0.795609 3 0 3 
z
" id="m082e1bce3a" style="stroke:#fbc15e;stroke-opacity:0.4;"/>
    </defs>
    <g clip-path="url(#p2f3f4f9626)">
     <use style="fill:#fbc15e;fill-opacity:0.4;stroke:#fbc15e;stroke-opacity:0.4;" x="456.420603" xlink:href="#m082e1bce3a" y="324.44336"/>
    </g>
   </g>
   <g id="line2d_110">
    <path clip-path="url(#p2f3f4f9626)" d="M 42.880199 433 
L 42.885735 382.361262 
L 50.838329 382.361262 
L 54.814626 371.403174 
L 58.790922 371.403174 
L 62.767219 364.993104 
L 66.743516 360.445086 
L 70.719813 364.993104 
L 74.69611 345.959282 
L 78.672406 343.076928 
L 86.625 343.076928 
L 90.601297 332.11884 
L 94.577594 332.11884 
L 98.55389 325.275614 
L 102.530187 322.899776 
L 106.506484 317.114655 
L 110.482781 312.313686 
L 114.459078 308.636118 
L 118.435374 310.368207 
L 122.411671 306.029585 
L 126.387968 303.147231 
L 130.364265 300.530584 
L 138.316858 298.441907 
L 142.293155 295.782869 
L 146.269452 291.619848 
L 150.245749 290.444631 
L 154.222046 289.979622 
L 158.198342 289.306789 
L 162.174639 287.562277 
L 166.150936 287.059127 
L 170.127233 287.405749 
L 174.10353 288.122661 
L 178.079827 287.366858 
L 182.056123 287.173825 
L 186.03242 287.212244 
L 190.008717 288.873634 
L 193.985014 288.000895 
L 197.961311 288.745968 
L 201.937607 289.617218 
L 213.866498 290.923734 
L 217.842795 290.586844 
L 221.819091 292.889494 
L 225.795388 292.670678 
L 229.771685 291.979747 
L 233.747982 293.854807 
L 237.724279 293.972347 
L 241.700575 294.330306 
L 245.676872 296.321106 
L 249.653169 297.309501 
L 253.629466 295.982566 
L 261.582059 298.055355 
L 265.558356 299.577413 
L 269.534653 301.640456 
L 273.51095 301.833253 
L 277.487247 302.937835 
L 281.463543 306.807243 
L 285.43984 310.202664 
L 289.416137 311.399606 
L 293.392434 314.53262 
L 297.368731 315.423514 
L 301.345027 315.654309 
L 305.321324 314.971792 
L 309.297621 317.371721 
L 313.273918 314.750681 
L 317.250215 316.367626 
L 321.226512 317.114655 
L 329.179105 320.834778 
L 333.155402 321.160752 
L 337.131699 323.652736 
L 341.107996 332.11884 
L 345.084292 333.494418 
L 349.060589 330.85343 
L 353.036886 331.473478 
L 357.013183 330.85343 
L 360.98948 331.473478 
L 364.965776 330.256787 
L 368.942073 332.11884 
L 372.91837 331.473478 
L 376.894667 334.229861 
L 380.870964 338.52891 
L 384.84726 340.639932 
L 388.823557 340.639932 
L 392.799854 351.59802 
L 396.776151 356.91737 
L 400.752448 360.445086 
L 404.728744 371.403174 
L 412.681338 371.403174 
L 416.657635 382.361262 
L 420.633932 364.993104 
L 424.610228 340.639932 
L 432.562822 338.52891 
L 436.539119 337.570485 
L 444.491712 337.570485 
L 448.468009 338.52891 
L 452.444306 335.001194 
L 456.420603 335.001194 
L 464.373196 336.666857 
L 472.32579 336.666857 
L 476.302087 337.570485 
L 480.278384 371.403174 
L 488.230977 371.403174 
L 492.207274 354.035016 
L 504.136165 354.035016 
L 508.112461 351.59802 
L 516.065055 351.59802 
L 520.041352 364.993104 
L 535.946539 364.993104 
L 539.922836 382.361262 
L 547.875429 382.361262 
L 551.851726 364.993104 
L 571.73321 364.993104 
L 571.73321 364.993104 
" style="fill:none;stroke:#8eba42;stroke-linecap:square;stroke-opacity:0.4;stroke-width:2;"/>
   </g>
   <g id="line2d_111">
    <defs>
     <path d="M 0 3 
C 0.795609 3 1.55874 2.683901 2.12132 2.12132 
C 2.683901 1.55874 3 0.795609 3 0 
C 3 -0.795609 2.683901 -1.55874 2.12132 -2.12132 
C 1.55874 -2.683901 0.795609 -3 0 -3 
C -0.795609 -3 -1.55874 -2.683901 -2.12132 -2.12132 
C -2.683901 -1.55874 -3 -0.795609 -3 0 
C -3 0.795609 -2.683901 1.55874 -2.12132 2.12132 
C -1.55874 2.683901 -0.795609 3 0 3 
z
" id="me5054c657f" style="stroke:#8eba42;stroke-opacity:0.4;"/>
    </defs>
    <g clip-path="url(#p2f3f4f9626)">
     <use style="fill:#8eba42;fill-opacity:0.4;stroke:#8eba42;stroke-opacity:0.4;" x="571.73321" xlink:href="#me5054c657f" y="364.993104"/>
    </g>
   </g>
   <g id="line2d_112">
    <path clip-path="url(#p2f3f4f9626)" d="M 46.856496 433 
L 46.862032 382.361262 
L 50.838329 382.361262 
L 54.814626 354.035016 
L 58.790922 351.59802 
L 62.767219 344.452506 
L 66.743516 343.076928 
L 70.719813 340.639932 
L 74.69611 338.52891 
L 78.672406 335.001194 
L 82.648703 338.52891 
L 86.625 334.229861 
L 90.601297 333.494418 
L 94.577594 328.072743 
L 98.55389 324.854011 
L 102.530187 323.652736 
L 106.506484 320.834778 
L 110.482781 314.105319 
L 114.459078 309.090001 
L 118.435374 302.628851 
L 122.411671 296.949368 
L 126.387968 291.670763 
L 130.364265 287.72037 
L 134.340562 283.162425 
L 158.198342 258.809254 
L 162.174639 255.99937 
L 166.150936 252.917989 
L 170.127233 249.084709 
L 178.079827 243.117632 
L 182.056123 241.413474 
L 186.03242 240.090524 
L 197.961311 235.47529 
L 201.937607 234.248287 
L 205.913904 233.6019 
L 213.866498 231.723449 
L 217.842795 231.346156 
L 225.795388 231.062361 
L 229.771685 230.591838 
L 233.747982 230.551206 
L 237.724279 230.004397 
L 241.700575 229.657489 
L 245.676872 230.214164 
L 257.605763 230.361198 
L 261.582059 230.022976 
L 265.558356 230.543732 
L 269.534653 231.349526 
L 273.51095 231.277803 
L 277.487247 231.699316 
L 281.463543 231.968001 
L 285.43984 231.842355 
L 289.416137 232.000739 
L 293.392434 232.294899 
L 297.368731 232.407387 
L 305.321324 232.785362 
L 309.297621 232.679934 
L 313.273918 232.73256 
L 317.250215 233.207929 
L 329.179105 233.76856 
L 333.155402 234.160828 
L 341.107996 236.159157 
L 345.084292 236.381491 
L 349.060589 236.483736 
L 353.036886 236.886699 
L 357.013183 237.090485 
L 360.98948 237.487881 
L 364.965776 237.589228 
L 368.942073 237.910827 
L 372.91837 238.867977 
L 376.894667 239.592753 
L 384.84726 240.065163 
L 388.823557 240.574254 
L 392.799854 242.421467 
L 404.728744 242.887591 
L 408.705041 243.257758 
L 412.681338 243.298364 
L 416.657635 242.69074 
L 420.633932 241.909438 
L 424.610228 243.089283 
L 432.562822 243.985137 
L 436.539119 244.710949 
L 440.515416 245.08139 
L 444.491712 245.812882 
L 456.420603 246.659542 
L 460.3969 247.103548 
L 464.373196 246.89199 
L 472.32579 247.714592 
L 476.302087 248.037272 
L 492.207274 250.225021 
L 496.183571 250.385219 
L 508.112461 250.314234 
L 512.088758 244.937475 
L 516.065055 245.116233 
L 520.041352 245.444275 
L 527.993945 245.637207 
L 535.946539 246.20178 
L 539.922836 252.146029 
L 543.899133 252.004353 
L 547.875429 253.041533 
L 551.851726 252.904809 
L 555.828023 253.019401 
L 559.80432 251.050565 
L 563.780617 250.486645 
L 567.756913 249.42283 
L 571.73321 248.858712 
L 575.709507 247.435608 
L 579.685804 246.955161 
L 583.662101 246.730701 
L 595.590991 246.730701 
L 595.590991 246.730701 
" style="fill:none;stroke:#ffb5b8;stroke-linecap:square;stroke-opacity:0.4;stroke-width:2;"/>
   </g>
   <g id="line2d_113">
    <defs>
     <path d="M 0 3 
C 0.795609 3 1.55874 2.683901 2.12132 2.12132 
C 2.683901 1.55874 3 0.795609 3 0 
C 3 -0.795609 2.683901 -1.55874 2.12132 -2.12132 
C 1.55874 -2.683901 0.795609 -3 0 -3 
C -0.795609 -3 -1.55874 -2.683901 -2.12132 -2.12132 
C -2.683901 -1.55874 -3 -0.795609 -3 0 
C -3 0.795609 -2.683901 1.55874 -2.12132 2.12132 
C -1.55874 2.683901 -0.795609 3 0 3 
z
" id="m1a59a8365e" style="stroke:#ffb5b8;stroke-opacity:0.4;"/>
    </defs>
    <g clip-path="url(#p2f3f4f9626)">
     <use style="fill:#ffb5b8;fill-opacity:0.4;stroke:#ffb5b8;stroke-opacity:0.4;" x="595.590991" xlink:href="#m1a59a8365e" y="246.730701"/>
    </g>
   </g>
   <g id="patch_3">
    <path d="M 86.625 388 
L 86.625 222.0223 
" style="fill:none;stroke:#ffffff;stroke-linecap:square;stroke-linejoin:miter;"/>
   </g>
   <g id="patch_4">
    <path d="M 665.375 388 
L 665.375 222.0223 
" style="fill:none;stroke:#ffffff;stroke-linecap:square;stroke-linejoin:miter;"/>
   </g>
   <g id="patch_5">
    <path d="M 86.625 388 
L 665.375 388 
" style="fill:none;stroke:#ffffff;stroke-linecap:square;stroke-linejoin:miter;"/>
   </g>
   <g id="patch_6">
    <path d="M 86.625 222.0223 
L 665.375 222.0223 
" style="fill:none;stroke:#ffffff;stroke-linecap:square;stroke-linejoin:miter;"/>
   </g>
   <g id="text_21">
    <!-- Korea, South -->
    <defs>
     <path d="M 9.8125 72.90625 
L 19.671875 72.90625 
L 19.671875 42.09375 
L 52.390625 72.90625 
L 65.09375 72.90625 
L 28.90625 38.921875 
L 67.671875 0 
L 54.6875 0 
L 19.671875 35.109375 
L 19.671875 0 
L 9.8125 0 
z
" id="DejaVuSans-75"/>
     <path d="M 11.71875 12.40625 
L 22.015625 12.40625 
L 22.015625 4 
L 14.015625 -11.625 
L 7.71875 -11.625 
L 11.71875 4 
z
" id="DejaVuSans-44"/>
     <path d="M 53.515625 70.515625 
L 53.515625 60.890625 
Q 47.90625 63.578125 42.921875 64.890625 
Q 37.9375 66.21875 33.296875 66.21875 
Q 25.25 66.21875 20.875 63.09375 
Q 16.5 59.96875 16.5 54.203125 
Q 16.5 49.359375 19.40625 46.890625 
Q 22.3125 44.4375 30.421875 42.921875 
L 36.375 41.703125 
Q 47.40625 39.59375 52.65625 34.296875 
Q 57.90625 29 57.90625 20.125 
Q 57.90625 9.515625 50.796875 4.046875 
Q 43.703125 -1.421875 29.984375 -1.421875 
Q 24.8125 -1.421875 18.96875 -0.25 
Q 13.140625 0.921875 6.890625 3.21875 
L 6.890625 13.375 
Q 12.890625 10.015625 18.65625 8.296875 
Q 24.421875 6.59375 29.984375 6.59375 
Q 38.421875 6.59375 43.015625 9.90625 
Q 47.609375 13.234375 47.609375 19.390625 
Q 47.609375 24.75 44.3125 27.78125 
Q 41.015625 30.8125 33.5 32.328125 
L 27.484375 33.5 
Q 16.453125 35.6875 11.515625 40.375 
Q 6.59375 45.0625 6.59375 53.421875 
Q 6.59375 63.09375 13.40625 68.65625 
Q 20.21875 74.21875 32.171875 74.21875 
Q 37.3125 74.21875 42.625 73.28125 
Q 47.953125 72.359375 53.515625 70.515625 
z
" id="DejaVuSans-83"/>
     <path d="M 8.5 21.578125 
L 8.5 54.6875 
L 17.484375 54.6875 
L 17.484375 21.921875 
Q 17.484375 14.15625 20.5 10.265625 
Q 23.53125 6.390625 29.59375 6.390625 
Q 36.859375 6.390625 41.078125 11.03125 
Q 45.3125 15.671875 45.3125 23.6875 
L 45.3125 54.6875 
L 54.296875 54.6875 
L 54.296875 0 
L 45.3125 0 
L 45.3125 8.40625 
Q 42.046875 3.421875 37.71875 1 
Q 33.40625 -1.421875 27.6875 -1.421875 
Q 18.265625 -1.421875 13.375 4.4375 
Q 8.5 10.296875 8.5 21.578125 
z
M 31.109375 56 
z
" id="DejaVuSans-117"/>
    </defs>
    <g transform="translate(631.377662 360.445086)scale(0.1 -0.1)">
     <use xlink:href="#DejaVuSans-75"/>
     <use x="60.576172" xlink:href="#DejaVuSans-111"/>
     <use x="121.757812" xlink:href="#DejaVuSans-114"/>
     <use x="160.621094" xlink:href="#DejaVuSans-101"/>
     <use x="222.144531" xlink:href="#DejaVuSans-97"/>
     <use x="283.423828" xlink:href="#DejaVuSans-44"/>
     <use x="315.210938" xlink:href="#DejaVuSans-32"/>
     <use x="346.998047" xlink:href="#DejaVuSans-83"/>
     <use x="410.474609" xlink:href="#DejaVuSans-111"/>
     <use x="471.65625" xlink:href="#DejaVuSans-117"/>
     <use x="535.035156" xlink:href="#DejaVuSans-116"/>
     <use x="574.244141" xlink:href="#DejaVuSans-104"/>
    </g>
   </g>
   <g id="text_22">
    <!-- Germany -->
    <defs>
     <path d="M 59.515625 10.40625 
L 59.515625 29.984375 
L 43.40625 29.984375 
L 43.40625 38.09375 
L 69.28125 38.09375 
L 69.28125 6.78125 
Q 63.578125 2.734375 56.6875 0.65625 
Q 49.8125 -1.421875 42 -1.421875 
Q 24.90625 -1.421875 15.25 8.5625 
Q 5.609375 18.5625 5.609375 36.375 
Q 5.609375 54.25 15.25 64.234375 
Q 24.90625 74.21875 42 74.21875 
Q 49.125 74.21875 55.546875 72.453125 
Q 61.96875 70.703125 67.390625 67.28125 
L 67.390625 56.78125 
Q 61.921875 61.421875 55.765625 63.765625 
Q 49.609375 66.109375 42.828125 66.109375 
Q 29.4375 66.109375 22.71875 58.640625 
Q 16.015625 51.171875 16.015625 36.375 
Q 16.015625 21.625 22.71875 14.15625 
Q 29.4375 6.6875 42.828125 6.6875 
Q 48.046875 6.6875 52.140625 7.59375 
Q 56.25 8.5 59.515625 10.40625 
z
" id="DejaVuSans-71"/>
    </defs>
    <g transform="translate(579.685804 319.895342)scale(0.1 -0.1)">
     <use xlink:href="#DejaVuSans-71"/>
     <use x="77.490234" xlink:href="#DejaVuSans-101"/>
     <use x="139.013672" xlink:href="#DejaVuSans-114"/>
     <use x="178.376953" xlink:href="#DejaVuSans-109"/>
     <use x="275.789062" xlink:href="#DejaVuSans-97"/>
     <use x="337.068359" xlink:href="#DejaVuSans-110"/>
     <use x="400.447266" xlink:href="#DejaVuSans-121"/>
    </g>
   </g>
   <g id="text_23">
    <!-- Australia -->
    <defs>
     <path d="M 34.1875 63.1875 
L 20.796875 26.90625 
L 47.609375 26.90625 
z
M 28.609375 72.90625 
L 39.796875 72.90625 
L 67.578125 0 
L 57.328125 0 
L 50.6875 18.703125 
L 17.828125 18.703125 
L 11.1875 0 
L 0.78125 0 
z
" id="DejaVuSans-65"/>
    </defs>
    <g transform="translate(500.159868 371.403174)scale(0.1 -0.1)">
     <use xlink:href="#DejaVuSans-65"/>
     <use x="68.408203" xlink:href="#DejaVuSans-117"/>
     <use x="131.787109" xlink:href="#DejaVuSans-115"/>
     <use x="183.886719" xlink:href="#DejaVuSans-116"/>
     <use x="223.095703" xlink:href="#DejaVuSans-114"/>
     <use x="264.208984" xlink:href="#DejaVuSans-97"/>
     <use x="325.488281" xlink:href="#DejaVuSans-108"/>
     <use x="353.271484" xlink:href="#DejaVuSans-105"/>
     <use x="381.054688" xlink:href="#DejaVuSans-97"/>
    </g>
   </g>
   <g id="text_24">
    <!-- Poland -->
    <defs>
     <path d="M 19.671875 64.796875 
L 19.671875 37.40625 
L 32.078125 37.40625 
Q 38.96875 37.40625 42.71875 40.96875 
Q 46.484375 44.53125 46.484375 51.125 
Q 46.484375 57.671875 42.71875 61.234375 
Q 38.96875 64.796875 32.078125 64.796875 
z
M 9.8125 72.90625 
L 32.078125 72.90625 
Q 44.34375 72.90625 50.609375 67.359375 
Q 56.890625 61.8125 56.890625 51.125 
Q 56.890625 40.328125 50.609375 34.8125 
Q 44.34375 29.296875 32.078125 29.296875 
L 19.671875 29.296875 
L 19.671875 0 
L 9.8125 0 
z
" id="DejaVuSans-80"/>
    </defs>
    <g transform="translate(527.993945 319.008614)scale(0.1 -0.1)">
     <use xlink:href="#DejaVuSans-80"/>
     <use x="56.677734" xlink:href="#DejaVuSans-111"/>
     <use x="117.859375" xlink:href="#DejaVuSans-108"/>
     <use x="145.642578" xlink:href="#DejaVuSans-97"/>
     <use x="206.921875" xlink:href="#DejaVuSans-110"/>
     <use x="270.300781" xlink:href="#DejaVuSans-100"/>
    </g>
   </g>
   <g id="text_25">
    <!-- Belarus -->
    <defs>
     <path d="M 19.671875 34.8125 
L 19.671875 8.109375 
L 35.5 8.109375 
Q 43.453125 8.109375 47.28125 11.40625 
Q 51.125 14.703125 51.125 21.484375 
Q 51.125 28.328125 47.28125 31.5625 
Q 43.453125 34.8125 35.5 34.8125 
z
M 19.671875 64.796875 
L 19.671875 42.828125 
L 34.28125 42.828125 
Q 41.5 42.828125 45.03125 45.53125 
Q 48.578125 48.25 48.578125 53.8125 
Q 48.578125 59.328125 45.03125 62.0625 
Q 41.5 64.796875 34.28125 64.796875 
z
M 9.8125 72.90625 
L 35.015625 72.90625 
Q 46.296875 72.90625 52.390625 68.21875 
Q 58.5 63.53125 58.5 54.890625 
Q 58.5 48.1875 55.375 44.234375 
Q 52.25 40.28125 46.1875 39.3125 
Q 53.46875 37.75 57.5 32.78125 
Q 61.53125 27.828125 61.53125 20.40625 
Q 61.53125 10.640625 54.890625 5.3125 
Q 48.25 0 35.984375 0 
L 9.8125 0 
z
" id="DejaVuSans-66"/>
    </defs>
    <g transform="translate(464.373196 324.44336)scale(0.1 -0.1)">
     <use xlink:href="#DejaVuSans-66"/>
     <use x="68.603516" xlink:href="#DejaVuSans-101"/>
     <use x="130.126953" xlink:href="#DejaVuSans-108"/>
     <use x="157.910156" xlink:href="#DejaVuSans-97"/>
     <use x="219.189453" xlink:href="#DejaVuSans-114"/>
     <use x="260.302734" xlink:href="#DejaVuSans-117"/>
     <use x="323.681641" xlink:href="#DejaVuSans-115"/>
    </g>
   </g>
   <g id="text_26">
    <!-- Switzerland -->
    <defs>
     <path d="M 5.515625 54.6875 
L 48.1875 54.6875 
L 48.1875 46.484375 
L 14.40625 7.171875 
L 48.1875 7.171875 
L 48.1875 0 
L 4.296875 0 
L 4.296875 8.203125 
L 38.09375 47.515625 
L 5.515625 47.515625 
z
" id="DejaVuSans-122"/>
    </defs>
    <g transform="translate(579.685804 364.993104)scale(0.1 -0.1)">
     <use xlink:href="#DejaVuSans-83"/>
     <use x="63.476562" xlink:href="#DejaVuSans-119"/>
     <use x="145.263672" xlink:href="#DejaVuSans-105"/>
     <use x="173.046875" xlink:href="#DejaVuSans-116"/>
     <use x="212.255859" xlink:href="#DejaVuSans-122"/>
     <use x="264.746094" xlink:href="#DejaVuSans-101"/>
     <use x="326.269531" xlink:href="#DejaVuSans-114"/>
     <use x="367.382812" xlink:href="#DejaVuSans-108"/>
     <use x="395.166016" xlink:href="#DejaVuSans-97"/>
     <use x="456.445312" xlink:href="#DejaVuSans-110"/>
     <use x="519.824219" xlink:href="#DejaVuSans-100"/>
    </g>
   </g>
   <g id="text_27">
    <!-- US -->
    <defs>
     <path d="M 8.6875 72.90625 
L 18.609375 72.90625 
L 18.609375 28.609375 
Q 18.609375 16.890625 22.84375 11.734375 
Q 27.09375 6.59375 36.625 6.59375 
Q 46.09375 6.59375 50.34375 11.734375 
Q 54.59375 16.890625 54.59375 28.609375 
L 54.59375 72.90625 
L 64.5 72.90625 
L 64.5 27.390625 
Q 64.5 13.140625 57.4375 5.859375 
Q 50.390625 -1.421875 36.625 -1.421875 
Q 22.796875 -1.421875 15.734375 5.859375 
Q 8.6875 13.140625 8.6875 27.390625 
z
" id="DejaVuSans-85"/>
    </defs>
    <g transform="translate(603.543585 246.730701)scale(0.1 -0.1)">
     <use xlink:href="#DejaVuSans-85"/>
     <use x="73.193359" xlink:href="#DejaVuSans-83"/>
    </g>
   </g>
  </g>
 </g>
 <defs>
  <clipPath id="p2f3f4f9626">
   <rect height="165.9777" width="578.75" x="86.625" y="222.0223"/>
  </clipPath>
 </defs>
</svg>
