<?xml version="1.0" encoding="utf-8" standalone="no"?>
<!DOCTYPE svg PUBLIC "-//W3C//DTD SVG 1.1//EN"
  "http://www.w3.org/Graphics/SVG/1.1/DTD/svg11.dtd">
<!-- Created with matplotlib (https://matplotlib.org/) -->
<svg height="180pt" version="1.1" viewBox="0 0 720 180" width="720pt" xmlns="http://www.w3.org/2000/svg" xmlns:xlink="http://www.w3.org/1999/xlink">
 <defs>
  <style type="text/css">
*{stroke-linecap:butt;stroke-linejoin:round;}
  </style>
 </defs>
 <g id="figure_1">
  <g id="patch_1">
   <path d="M 0 180 
L 720 180 
L 720 0 
L 0 0 
z
" style="fill:#ffffff;"/>
  </g>
  <g id="axes_1">
   <g id="patch_2">
    <path d="M 90 157.5 
L 648 157.5 
L 648 21.6 
L 90 21.6 
z
" style="fill:#e5e5e5;"/>
   </g>
   <g id="matplotlib.axis_1">
    <g id="xtick_1">
     <g id="line2d_1">
      <path clip-path="url(#p53d882e64f)" d="M 139.519481 157.5 
L 139.519481 21.6 
" style="fill:none;stroke:#ffffff;stroke-linecap:square;stroke-width:0.8;"/>
     </g>
     <g id="line2d_2">
      <defs>
       <path d="M 0 0 
L 0 3.5 
" id="mfde632eb03" style="stroke:#555555;stroke-width:0.8;"/>
      </defs>
      <g>
       <use style="fill:#555555;stroke:#555555;stroke-width:0.8;" x="139.519481" xlink:href="#mfde632eb03" y="157.5"/>
      </g>
     </g>
     <g id="text_1">
      <!-- 2020-02 -->
      <defs>
       <path d="M 19.1875 8.296875 
L 53.609375 8.296875 
L 53.609375 0 
L 7.328125 0 
L 7.328125 8.296875 
Q 12.9375 14.109375 22.625 23.890625 
Q 32.328125 33.6875 34.8125 36.53125 
Q 39.546875 41.84375 41.421875 45.53125 
Q 43.3125 49.21875 43.3125 52.78125 
Q 43.3125 58.59375 39.234375 62.25 
Q 35.15625 65.921875 28.609375 65.921875 
Q 23.96875 65.921875 18.8125 64.3125 
Q 13.671875 62.703125 7.8125 59.421875 
L 7.8125 69.390625 
Q 13.765625 71.78125 18.9375 73 
Q 24.125 74.21875 28.421875 74.21875 
Q 39.75 74.21875 46.484375 68.546875 
Q 53.21875 62.890625 53.21875 53.421875 
Q 53.21875 48.921875 51.53125 44.890625 
Q 49.859375 40.875 45.40625 35.40625 
Q 44.1875 33.984375 37.640625 27.21875 
Q 31.109375 20.453125 19.1875 8.296875 
z
" id="DejaVuSans-50"/>
       <path d="M 31.78125 66.40625 
Q 24.171875 66.40625 20.328125 58.90625 
Q 16.5 51.421875 16.5 36.375 
Q 16.5 21.390625 20.328125 13.890625 
Q 24.171875 6.390625 31.78125 6.390625 
Q 39.453125 6.390625 43.28125 13.890625 
Q 47.125 21.390625 47.125 36.375 
Q 47.125 51.421875 43.28125 58.90625 
Q 39.453125 66.40625 31.78125 66.40625 
z
M 31.78125 74.21875 
Q 44.046875 74.21875 50.515625 64.515625 
Q 56.984375 54.828125 56.984375 36.375 
Q 56.984375 17.96875 50.515625 8.265625 
Q 44.046875 -1.421875 31.78125 -1.421875 
Q 19.53125 -1.421875 13.0625 8.265625 
Q 6.59375 17.96875 6.59375 36.375 
Q 6.59375 54.828125 13.0625 64.515625 
Q 19.53125 74.21875 31.78125 74.21875 
z
" id="DejaVuSans-48"/>
       <path d="M 4.890625 31.390625 
L 31.203125 31.390625 
L 31.203125 23.390625 
L 4.890625 23.390625 
z
" id="DejaVuSans-45"/>
      </defs>
      <g style="fill:#555555;" transform="translate(118.628074 172.098437)scale(0.1 -0.1)">
       <use xlink:href="#DejaVuSans-50"/>
       <use x="63.623047" xlink:href="#DejaVuSans-48"/>
       <use x="127.246094" xlink:href="#DejaVuSans-50"/>
       <use x="190.869141" xlink:href="#DejaVuSans-48"/>
       <use x="254.492188" xlink:href="#DejaVuSans-45"/>
       <use x="290.576172" xlink:href="#DejaVuSans-48"/>
       <use x="354.199219" xlink:href="#DejaVuSans-50"/>
      </g>
     </g>
    </g>
    <g id="xtick_2">
     <g id="line2d_3">
      <path clip-path="url(#p53d882e64f)" d="M 209.571429 157.5 
L 209.571429 21.6 
" style="fill:none;stroke:#ffffff;stroke-linecap:square;stroke-width:0.8;"/>
     </g>
     <g id="line2d_4">
      <g>
       <use style="fill:#555555;stroke:#555555;stroke-width:0.8;" x="209.571429" xlink:href="#mfde632eb03" y="157.5"/>
      </g>
     </g>
     <g id="text_2">
      <!-- 2020-03 -->
      <defs>
       <path d="M 40.578125 39.3125 
Q 47.65625 37.796875 51.625 33 
Q 55.609375 28.21875 55.609375 21.1875 
Q 55.609375 10.40625 48.1875 4.484375 
Q 40.765625 -1.421875 27.09375 -1.421875 
Q 22.515625 -1.421875 17.65625 -0.515625 
Q 12.796875 0.390625 7.625 2.203125 
L 7.625 11.71875 
Q 11.71875 9.328125 16.59375 8.109375 
Q 21.484375 6.890625 26.8125 6.890625 
Q 36.078125 6.890625 40.9375 10.546875 
Q 45.796875 14.203125 45.796875 21.1875 
Q 45.796875 27.640625 41.28125 31.265625 
Q 36.765625 34.90625 28.71875 34.90625 
L 20.21875 34.90625 
L 20.21875 43.015625 
L 29.109375 43.015625 
Q 36.375 43.015625 40.234375 45.921875 
Q 44.09375 48.828125 44.09375 54.296875 
Q 44.09375 59.90625 40.109375 62.90625 
Q 36.140625 65.921875 28.71875 65.921875 
Q 24.65625 65.921875 20.015625 65.03125 
Q 15.375 64.15625 9.8125 62.3125 
L 9.8125 71.09375 
Q 15.4375 72.65625 20.34375 73.4375 
Q 25.25 74.21875 29.59375 74.21875 
Q 40.828125 74.21875 47.359375 69.109375 
Q 53.90625 64.015625 53.90625 55.328125 
Q 53.90625 49.265625 50.4375 45.09375 
Q 46.96875 40.921875 40.578125 39.3125 
z
" id="DejaVuSans-51"/>
      </defs>
      <g style="fill:#555555;" transform="translate(188.680022 172.098437)scale(0.1 -0.1)">
       <use xlink:href="#DejaVuSans-50"/>
       <use x="63.623047" xlink:href="#DejaVuSans-48"/>
       <use x="127.246094" xlink:href="#DejaVuSans-50"/>
       <use x="190.869141" xlink:href="#DejaVuSans-48"/>
       <use x="254.492188" xlink:href="#DejaVuSans-45"/>
       <use x="290.576172" xlink:href="#DejaVuSans-48"/>
       <use x="354.199219" xlink:href="#DejaVuSans-51"/>
      </g>
     </g>
    </g>
    <g id="xtick_3">
     <g id="line2d_5">
      <path clip-path="url(#p53d882e64f)" d="M 284.454545 157.5 
L 284.454545 21.6 
" style="fill:none;stroke:#ffffff;stroke-linecap:square;stroke-width:0.8;"/>
     </g>
     <g id="line2d_6">
      <g>
       <use style="fill:#555555;stroke:#555555;stroke-width:0.8;" x="284.454545" xlink:href="#mfde632eb03" y="157.5"/>
      </g>
     </g>
     <g id="text_3">
      <!-- 2020-04 -->
      <defs>
       <path d="M 37.796875 64.3125 
L 12.890625 25.390625 
L 37.796875 25.390625 
z
M 35.203125 72.90625 
L 47.609375 72.90625 
L 47.609375 25.390625 
L 58.015625 25.390625 
L 58.015625 17.1875 
L 47.609375 17.1875 
L 47.609375 0 
L 37.796875 0 
L 37.796875 17.1875 
L 4.890625 17.1875 
L 4.890625 26.703125 
z
" id="DejaVuSans-52"/>
      </defs>
      <g style="fill:#555555;" transform="translate(263.563139 172.098437)scale(0.1 -0.1)">
       <use xlink:href="#DejaVuSans-50"/>
       <use x="63.623047" xlink:href="#DejaVuSans-48"/>
       <use x="127.246094" xlink:href="#DejaVuSans-50"/>
       <use x="190.869141" xlink:href="#DejaVuSans-48"/>
       <use x="254.492188" xlink:href="#DejaVuSans-45"/>
       <use x="290.576172" xlink:href="#DejaVuSans-48"/>
       <use x="354.199219" xlink:href="#DejaVuSans-52"/>
      </g>
     </g>
    </g>
    <g id="xtick_4">
     <g id="line2d_7">
      <path clip-path="url(#p53d882e64f)" d="M 356.922078 157.5 
L 356.922078 21.6 
" style="fill:none;stroke:#ffffff;stroke-linecap:square;stroke-width:0.8;"/>
     </g>
     <g id="line2d_8">
      <g>
       <use style="fill:#555555;stroke:#555555;stroke-width:0.8;" x="356.922078" xlink:href="#mfde632eb03" y="157.5"/>
      </g>
     </g>
     <g id="text_4">
      <!-- 2020-05 -->
      <defs>
       <path d="M 10.796875 72.90625 
L 49.515625 72.90625 
L 49.515625 64.59375 
L 19.828125 64.59375 
L 19.828125 46.734375 
Q 21.96875 47.46875 24.109375 47.828125 
Q 26.265625 48.1875 28.421875 48.1875 
Q 40.625 48.1875 47.75 41.5 
Q 54.890625 34.8125 54.890625 23.390625 
Q 54.890625 11.625 47.5625 5.09375 
Q 40.234375 -1.421875 26.90625 -1.421875 
Q 22.3125 -1.421875 17.546875 -0.640625 
Q 12.796875 0.140625 7.71875 1.703125 
L 7.71875 11.625 
Q 12.109375 9.234375 16.796875 8.0625 
Q 21.484375 6.890625 26.703125 6.890625 
Q 35.15625 6.890625 40.078125 11.328125 
Q 45.015625 15.765625 45.015625 23.390625 
Q 45.015625 31 40.078125 35.4375 
Q 35.15625 39.890625 26.703125 39.890625 
Q 22.75 39.890625 18.8125 39.015625 
Q 14.890625 38.140625 10.796875 36.28125 
z
" id="DejaVuSans-53"/>
      </defs>
      <g style="fill:#555555;" transform="translate(336.030672 172.098437)scale(0.1 -0.1)">
       <use xlink:href="#DejaVuSans-50"/>
       <use x="63.623047" xlink:href="#DejaVuSans-48"/>
       <use x="127.246094" xlink:href="#DejaVuSans-50"/>
       <use x="190.869141" xlink:href="#DejaVuSans-48"/>
       <use x="254.492188" xlink:href="#DejaVuSans-45"/>
       <use x="290.576172" xlink:href="#DejaVuSans-48"/>
       <use x="354.199219" xlink:href="#DejaVuSans-53"/>
      </g>
     </g>
    </g>
    <g id="xtick_5">
     <g id="line2d_9">
      <path clip-path="url(#p53d882e64f)" d="M 431.805195 157.5 
L 431.805195 21.6 
" style="fill:none;stroke:#ffffff;stroke-linecap:square;stroke-width:0.8;"/>
     </g>
     <g id="line2d_10">
      <g>
       <use style="fill:#555555;stroke:#555555;stroke-width:0.8;" x="431.805195" xlink:href="#mfde632eb03" y="157.5"/>
      </g>
     </g>
     <g id="text_5">
      <!-- 2020-06 -->
      <defs>
       <path d="M 33.015625 40.375 
Q 26.375 40.375 22.484375 35.828125 
Q 18.609375 31.296875 18.609375 23.390625 
Q 18.609375 15.53125 22.484375 10.953125 
Q 26.375 6.390625 33.015625 6.390625 
Q 39.65625 6.390625 43.53125 10.953125 
Q 47.40625 15.53125 47.40625 23.390625 
Q 47.40625 31.296875 43.53125 35.828125 
Q 39.65625 40.375 33.015625 40.375 
z
M 52.59375 71.296875 
L 52.59375 62.3125 
Q 48.875 64.0625 45.09375 64.984375 
Q 41.3125 65.921875 37.59375 65.921875 
Q 27.828125 65.921875 22.671875 59.328125 
Q 17.53125 52.734375 16.796875 39.40625 
Q 19.671875 43.65625 24.015625 45.921875 
Q 28.375 48.1875 33.59375 48.1875 
Q 44.578125 48.1875 50.953125 41.515625 
Q 57.328125 34.859375 57.328125 23.390625 
Q 57.328125 12.15625 50.6875 5.359375 
Q 44.046875 -1.421875 33.015625 -1.421875 
Q 20.359375 -1.421875 13.671875 8.265625 
Q 6.984375 17.96875 6.984375 36.375 
Q 6.984375 53.65625 15.1875 63.9375 
Q 23.390625 74.21875 37.203125 74.21875 
Q 40.921875 74.21875 44.703125 73.484375 
Q 48.484375 72.75 52.59375 71.296875 
z
" id="DejaVuSans-54"/>
      </defs>
      <g style="fill:#555555;" transform="translate(410.913789 172.098437)scale(0.1 -0.1)">
       <use xlink:href="#DejaVuSans-50"/>
       <use x="63.623047" xlink:href="#DejaVuSans-48"/>
       <use x="127.246094" xlink:href="#DejaVuSans-50"/>
       <use x="190.869141" xlink:href="#DejaVuSans-48"/>
       <use x="254.492188" xlink:href="#DejaVuSans-45"/>
       <use x="290.576172" xlink:href="#DejaVuSans-48"/>
       <use x="354.199219" xlink:href="#DejaVuSans-54"/>
      </g>
     </g>
    </g>
    <g id="xtick_6">
     <g id="line2d_11">
      <path clip-path="url(#p53d882e64f)" d="M 504.272727 157.5 
L 504.272727 21.6 
" style="fill:none;stroke:#ffffff;stroke-linecap:square;stroke-width:0.8;"/>
     </g>
     <g id="line2d_12">
      <g>
       <use style="fill:#555555;stroke:#555555;stroke-width:0.8;" x="504.272727" xlink:href="#mfde632eb03" y="157.5"/>
      </g>
     </g>
     <g id="text_6">
      <!-- 2020-07 -->
      <defs>
       <path d="M 8.203125 72.90625 
L 55.078125 72.90625 
L 55.078125 68.703125 
L 28.609375 0 
L 18.3125 0 
L 43.21875 64.59375 
L 8.203125 64.59375 
z
" id="DejaVuSans-55"/>
      </defs>
      <g style="fill:#555555;" transform="translate(483.381321 172.098437)scale(0.1 -0.1)">
       <use xlink:href="#DejaVuSans-50"/>
       <use x="63.623047" xlink:href="#DejaVuSans-48"/>
       <use x="127.246094" xlink:href="#DejaVuSans-50"/>
       <use x="190.869141" xlink:href="#DejaVuSans-48"/>
       <use x="254.492188" xlink:href="#DejaVuSans-45"/>
       <use x="290.576172" xlink:href="#DejaVuSans-48"/>
       <use x="354.199219" xlink:href="#DejaVuSans-55"/>
      </g>
     </g>
    </g>
    <g id="xtick_7">
     <g id="line2d_13">
      <path clip-path="url(#p53d882e64f)" d="M 579.155844 157.5 
L 579.155844 21.6 
" style="fill:none;stroke:#ffffff;stroke-linecap:square;stroke-width:0.8;"/>
     </g>
     <g id="line2d_14">
      <g>
       <use style="fill:#555555;stroke:#555555;stroke-width:0.8;" x="579.155844" xlink:href="#mfde632eb03" y="157.5"/>
      </g>
     </g>
     <g id="text_7">
      <!-- 2020-08 -->
      <defs>
       <path d="M 31.78125 34.625 
Q 24.75 34.625 20.71875 30.859375 
Q 16.703125 27.09375 16.703125 20.515625 
Q 16.703125 13.921875 20.71875 10.15625 
Q 24.75 6.390625 31.78125 6.390625 
Q 38.8125 6.390625 42.859375 10.171875 
Q 46.921875 13.96875 46.921875 20.515625 
Q 46.921875 27.09375 42.890625 30.859375 
Q 38.875 34.625 31.78125 34.625 
z
M 21.921875 38.8125 
Q 15.578125 40.375 12.03125 44.71875 
Q 8.5 49.078125 8.5 55.328125 
Q 8.5 64.0625 14.71875 69.140625 
Q 20.953125 74.21875 31.78125 74.21875 
Q 42.671875 74.21875 48.875 69.140625 
Q 55.078125 64.0625 55.078125 55.328125 
Q 55.078125 49.078125 51.53125 44.71875 
Q 48 40.375 41.703125 38.8125 
Q 48.828125 37.15625 52.796875 32.3125 
Q 56.78125 27.484375 56.78125 20.515625 
Q 56.78125 9.90625 50.3125 4.234375 
Q 43.84375 -1.421875 31.78125 -1.421875 
Q 19.734375 -1.421875 13.25 4.234375 
Q 6.78125 9.90625 6.78125 20.515625 
Q 6.78125 27.484375 10.78125 32.3125 
Q 14.796875 37.15625 21.921875 38.8125 
z
M 18.3125 54.390625 
Q 18.3125 48.734375 21.84375 45.5625 
Q 25.390625 42.390625 31.78125 42.390625 
Q 38.140625 42.390625 41.71875 45.5625 
Q 45.3125 48.734375 45.3125 54.390625 
Q 45.3125 60.0625 41.71875 63.234375 
Q 38.140625 66.40625 31.78125 66.40625 
Q 25.390625 66.40625 21.84375 63.234375 
Q 18.3125 60.0625 18.3125 54.390625 
z
" id="DejaVuSans-56"/>
      </defs>
      <g style="fill:#555555;" transform="translate(558.264438 172.098437)scale(0.1 -0.1)">
       <use xlink:href="#DejaVuSans-50"/>
       <use x="63.623047" xlink:href="#DejaVuSans-48"/>
       <use x="127.246094" xlink:href="#DejaVuSans-50"/>
       <use x="190.869141" xlink:href="#DejaVuSans-48"/>
       <use x="254.492188" xlink:href="#DejaVuSans-45"/>
       <use x="290.576172" xlink:href="#DejaVuSans-48"/>
       <use x="354.199219" xlink:href="#DejaVuSans-56"/>
      </g>
     </g>
    </g>
   </g>
   <g id="matplotlib.axis_2">
    <g id="ytick_1">
     <g id="line2d_15">
      <path clip-path="url(#p53d882e64f)" d="M 90 157.5 
L 648 157.5 
" style="fill:none;stroke:#ffffff;stroke-linecap:square;stroke-width:0.8;"/>
     </g>
     <g id="line2d_16">
      <defs>
       <path d="M 0 0 
L -3.5 0 
" id="m79f78f382a" style="stroke:#555555;stroke-width:0.8;"/>
      </defs>
      <g>
       <use style="fill:#555555;stroke:#555555;stroke-width:0.8;" x="90" xlink:href="#m79f78f382a" y="157.5"/>
      </g>
     </g>
     <g id="line2d_17">
      <defs>
       <path d="M 0 0 
L 3.5 0 
" id="m81106abb63" style="stroke:#555555;stroke-width:0.8;"/>
      </defs>
      <g>
       <use style="fill:#555555;stroke:#555555;stroke-width:0.8;" x="648" xlink:href="#m81106abb63" y="157.5"/>
      </g>
     </g>
     <g id="text_8">
      <!-- 0 -->
      <g style="fill:#555555;" transform="translate(76.6375 161.299219)scale(0.1 -0.1)">
       <use xlink:href="#DejaVuSans-48"/>
      </g>
     </g>
     <g id="text_9">
      <!-- 0 -->
      <g style="fill:#555555;" transform="translate(655 161.299219)scale(0.1 -0.1)">
       <use xlink:href="#DejaVuSans-48"/>
      </g>
     </g>
    </g>
    <g id="ytick_2">
     <g id="line2d_18">
      <path clip-path="url(#p53d882e64f)" d="M 90 127.082004 
L 648 127.082004 
" style="fill:none;stroke:#ffffff;stroke-linecap:square;stroke-width:0.8;"/>
     </g>
     <g id="line2d_19">
      <g>
       <use style="fill:#555555;stroke:#555555;stroke-width:0.8;" x="90" xlink:href="#m79f78f382a" y="127.082004"/>
      </g>
     </g>
     <g id="line2d_20">
      <g>
       <use style="fill:#555555;stroke:#555555;stroke-width:0.8;" x="648" xlink:href="#m81106abb63" y="127.082004"/>
      </g>
     </g>
     <g id="text_10">
      <!-- 200 -->
      <g style="fill:#555555;" transform="translate(63.9125 130.881223)scale(0.1 -0.1)">
       <use xlink:href="#DejaVuSans-50"/>
       <use x="63.623047" xlink:href="#DejaVuSans-48"/>
       <use x="127.246094" xlink:href="#DejaVuSans-48"/>
      </g>
     </g>
     <g id="text_11">
      <!-- 200 -->
      <g style="fill:#555555;" transform="translate(655 130.881223)scale(0.1 -0.1)">
       <use xlink:href="#DejaVuSans-50"/>
       <use x="63.623047" xlink:href="#DejaVuSans-48"/>
       <use x="127.246094" xlink:href="#DejaVuSans-48"/>
      </g>
     </g>
    </g>
    <g id="ytick_3">
     <g id="line2d_21">
      <path clip-path="url(#p53d882e64f)" d="M 90 96.664009 
L 648 96.664009 
" style="fill:none;stroke:#ffffff;stroke-linecap:square;stroke-width:0.8;"/>
     </g>
     <g id="line2d_22">
      <g>
       <use style="fill:#555555;stroke:#555555;stroke-width:0.8;" x="90" xlink:href="#m79f78f382a" y="96.664009"/>
      </g>
     </g>
     <g id="line2d_23">
      <g>
       <use style="fill:#555555;stroke:#555555;stroke-width:0.8;" x="648" xlink:href="#m81106abb63" y="96.664009"/>
      </g>
     </g>
     <g id="text_12">
      <!-- 400 -->
      <g style="fill:#555555;" transform="translate(63.9125 100.463227)scale(0.1 -0.1)">
       <use xlink:href="#DejaVuSans-52"/>
       <use x="63.623047" xlink:href="#DejaVuSans-48"/>
       <use x="127.246094" xlink:href="#DejaVuSans-48"/>
      </g>
     </g>
     <g id="text_13">
      <!-- 400 -->
      <g style="fill:#555555;" transform="translate(655 100.463227)scale(0.1 -0.1)">
       <use xlink:href="#DejaVuSans-52"/>
       <use x="63.623047" xlink:href="#DejaVuSans-48"/>
       <use x="127.246094" xlink:href="#DejaVuSans-48"/>
      </g>
     </g>
    </g>
    <g id="ytick_4">
     <g id="line2d_24">
      <path clip-path="url(#p53d882e64f)" d="M 90 66.246013 
L 648 66.246013 
" style="fill:none;stroke:#ffffff;stroke-linecap:square;stroke-width:0.8;"/>
     </g>
     <g id="line2d_25">
      <g>
       <use style="fill:#555555;stroke:#555555;stroke-width:0.8;" x="90" xlink:href="#m79f78f382a" y="66.246013"/>
      </g>
     </g>
     <g id="line2d_26">
      <g>
       <use style="fill:#555555;stroke:#555555;stroke-width:0.8;" x="648" xlink:href="#m81106abb63" y="66.246013"/>
      </g>
     </g>
     <g id="text_14">
      <!-- 600 -->
      <g style="fill:#555555;" transform="translate(63.9125 70.045232)scale(0.1 -0.1)">
       <use xlink:href="#DejaVuSans-54"/>
       <use x="63.623047" xlink:href="#DejaVuSans-48"/>
       <use x="127.246094" xlink:href="#DejaVuSans-48"/>
      </g>
     </g>
     <g id="text_15">
      <!-- 600 -->
      <g style="fill:#555555;" transform="translate(655 70.045232)scale(0.1 -0.1)">
       <use xlink:href="#DejaVuSans-54"/>
       <use x="63.623047" xlink:href="#DejaVuSans-48"/>
       <use x="127.246094" xlink:href="#DejaVuSans-48"/>
      </g>
     </g>
    </g>
    <g id="ytick_5">
     <g id="line2d_27">
      <path clip-path="url(#p53d882e64f)" d="M 90 35.828017 
L 648 35.828017 
" style="fill:none;stroke:#ffffff;stroke-linecap:square;stroke-width:0.8;"/>
     </g>
     <g id="line2d_28">
      <g>
       <use style="fill:#555555;stroke:#555555;stroke-width:0.8;" x="90" xlink:href="#m79f78f382a" y="35.828017"/>
      </g>
     </g>
     <g id="line2d_29">
      <g>
       <use style="fill:#555555;stroke:#555555;stroke-width:0.8;" x="648" xlink:href="#m81106abb63" y="35.828017"/>
      </g>
     </g>
     <g id="text_16">
      <!-- 800 -->
      <g style="fill:#555555;" transform="translate(63.9125 39.627236)scale(0.1 -0.1)">
       <use xlink:href="#DejaVuSans-56"/>
       <use x="63.623047" xlink:href="#DejaVuSans-48"/>
       <use x="127.246094" xlink:href="#DejaVuSans-48"/>
      </g>
     </g>
     <g id="text_17">
      <!-- 800 -->
      <g style="fill:#555555;" transform="translate(655 39.627236)scale(0.1 -0.1)">
       <use xlink:href="#DejaVuSans-56"/>
       <use x="63.623047" xlink:href="#DejaVuSans-48"/>
       <use x="127.246094" xlink:href="#DejaVuSans-48"/>
      </g>
     </g>
    </g>
    <g id="text_18">
     <!-- daily change -->
     <defs>
      <path d="M 45.40625 46.390625 
L 45.40625 75.984375 
L 54.390625 75.984375 
L 54.390625 0 
L 45.40625 0 
L 45.40625 8.203125 
Q 42.578125 3.328125 38.25 0.953125 
Q 33.9375 -1.421875 27.875 -1.421875 
Q 17.96875 -1.421875 11.734375 6.484375 
Q 5.515625 14.40625 5.515625 27.296875 
Q 5.515625 40.1875 11.734375 48.09375 
Q 17.96875 56 27.875 56 
Q 33.9375 56 38.25 53.625 
Q 42.578125 51.265625 45.40625 46.390625 
z
M 14.796875 27.296875 
Q 14.796875 17.390625 18.875 11.75 
Q 22.953125 6.109375 30.078125 6.109375 
Q 37.203125 6.109375 41.296875 11.75 
Q 45.40625 17.390625 45.40625 27.296875 
Q 45.40625 37.203125 41.296875 42.84375 
Q 37.203125 48.484375 30.078125 48.484375 
Q 22.953125 48.484375 18.875 42.84375 
Q 14.796875 37.203125 14.796875 27.296875 
z
" id="DejaVuSans-100"/>
      <path d="M 34.28125 27.484375 
Q 23.390625 27.484375 19.1875 25 
Q 14.984375 22.515625 14.984375 16.5 
Q 14.984375 11.71875 18.140625 8.90625 
Q 21.296875 6.109375 26.703125 6.109375 
Q 34.1875 6.109375 38.703125 11.40625 
Q 43.21875 16.703125 43.21875 25.484375 
L 43.21875 27.484375 
z
M 52.203125 31.203125 
L 52.203125 0 
L 43.21875 0 
L 43.21875 8.296875 
Q 40.140625 3.328125 35.546875 0.953125 
Q 30.953125 -1.421875 24.3125 -1.421875 
Q 15.921875 -1.421875 10.953125 3.296875 
Q 6 8.015625 6 15.921875 
Q 6 25.140625 12.171875 29.828125 
Q 18.359375 34.515625 30.609375 34.515625 
L 43.21875 34.515625 
L 43.21875 35.40625 
Q 43.21875 41.609375 39.140625 45 
Q 35.0625 48.390625 27.6875 48.390625 
Q 23 48.390625 18.546875 47.265625 
Q 14.109375 46.140625 10.015625 43.890625 
L 10.015625 52.203125 
Q 14.9375 54.109375 19.578125 55.046875 
Q 24.21875 56 28.609375 56 
Q 40.484375 56 46.34375 49.84375 
Q 52.203125 43.703125 52.203125 31.203125 
z
" id="DejaVuSans-97"/>
      <path d="M 9.421875 54.6875 
L 18.40625 54.6875 
L 18.40625 0 
L 9.421875 0 
z
M 9.421875 75.984375 
L 18.40625 75.984375 
L 18.40625 64.59375 
L 9.421875 64.59375 
z
" id="DejaVuSans-105"/>
      <path d="M 9.421875 75.984375 
L 18.40625 75.984375 
L 18.40625 0 
L 9.421875 0 
z
" id="DejaVuSans-108"/>
      <path d="M 32.171875 -5.078125 
Q 28.375 -14.84375 24.75 -17.8125 
Q 21.140625 -20.796875 15.09375 -20.796875 
L 7.90625 -20.796875 
L 7.90625 -13.28125 
L 13.1875 -13.28125 
Q 16.890625 -13.28125 18.9375 -11.515625 
Q 21 -9.765625 23.484375 -3.21875 
L 25.09375 0.875 
L 2.984375 54.6875 
L 12.5 54.6875 
L 29.59375 11.921875 
L 46.6875 54.6875 
L 56.203125 54.6875 
z
" id="DejaVuSans-121"/>
      <path id="DejaVuSans-32"/>
      <path d="M 48.78125 52.59375 
L 48.78125 44.1875 
Q 44.96875 46.296875 41.140625 47.34375 
Q 37.3125 48.390625 33.40625 48.390625 
Q 24.65625 48.390625 19.8125 42.84375 
Q 14.984375 37.3125 14.984375 27.296875 
Q 14.984375 17.28125 19.8125 11.734375 
Q 24.65625 6.203125 33.40625 6.203125 
Q 37.3125 6.203125 41.140625 7.25 
Q 44.96875 8.296875 48.78125 10.40625 
L 48.78125 2.09375 
Q 45.015625 0.34375 40.984375 -0.53125 
Q 36.96875 -1.421875 32.421875 -1.421875 
Q 20.0625 -1.421875 12.78125 6.34375 
Q 5.515625 14.109375 5.515625 27.296875 
Q 5.515625 40.671875 12.859375 48.328125 
Q 20.21875 56 33.015625 56 
Q 37.15625 56 41.109375 55.140625 
Q 45.0625 54.296875 48.78125 52.59375 
z
" id="DejaVuSans-99"/>
      <path d="M 54.890625 33.015625 
L 54.890625 0 
L 45.90625 0 
L 45.90625 32.71875 
Q 45.90625 40.484375 42.875 44.328125 
Q 39.84375 48.1875 33.796875 48.1875 
Q 26.515625 48.1875 22.3125 43.546875 
Q 18.109375 38.921875 18.109375 30.90625 
L 18.109375 0 
L 9.078125 0 
L 9.078125 75.984375 
L 18.109375 75.984375 
L 18.109375 46.1875 
Q 21.34375 51.125 25.703125 53.5625 
Q 30.078125 56 35.796875 56 
Q 45.21875 56 50.046875 50.171875 
Q 54.890625 44.34375 54.890625 33.015625 
z
" id="DejaVuSans-104"/>
      <path d="M 54.890625 33.015625 
L 54.890625 0 
L 45.90625 0 
L 45.90625 32.71875 
Q 45.90625 40.484375 42.875 44.328125 
Q 39.84375 48.1875 33.796875 48.1875 
Q 26.515625 48.1875 22.3125 43.546875 
Q 18.109375 38.921875 18.109375 30.90625 
L 18.109375 0 
L 9.078125 0 
L 9.078125 54.6875 
L 18.109375 54.6875 
L 18.109375 46.1875 
Q 21.34375 51.125 25.703125 53.5625 
Q 30.078125 56 35.796875 56 
Q 45.21875 56 50.046875 50.171875 
Q 54.890625 44.34375 54.890625 33.015625 
z
" id="DejaVuSans-110"/>
      <path d="M 45.40625 27.984375 
Q 45.40625 37.75 41.375 43.109375 
Q 37.359375 48.484375 30.078125 48.484375 
Q 22.859375 48.484375 18.828125 43.109375 
Q 14.796875 37.75 14.796875 27.984375 
Q 14.796875 18.265625 18.828125 12.890625 
Q 22.859375 7.515625 30.078125 7.515625 
Q 37.359375 7.515625 41.375 12.890625 
Q 45.40625 18.265625 45.40625 27.984375 
z
M 54.390625 6.78125 
Q 54.390625 -7.171875 48.1875 -13.984375 
Q 42 -20.796875 29.203125 -20.796875 
Q 24.46875 -20.796875 20.265625 -20.09375 
Q 16.0625 -19.390625 12.109375 -17.921875 
L 12.109375 -9.1875 
Q 16.0625 -11.328125 19.921875 -12.34375 
Q 23.78125 -13.375 27.78125 -13.375 
Q 36.625 -13.375 41.015625 -8.765625 
Q 45.40625 -4.15625 45.40625 5.171875 
L 45.40625 9.625 
Q 42.625 4.78125 38.28125 2.390625 
Q 33.9375 0 27.875 0 
Q 17.828125 0 11.671875 7.65625 
Q 5.515625 15.328125 5.515625 27.984375 
Q 5.515625 40.671875 11.671875 48.328125 
Q 17.828125 56 27.875 56 
Q 33.9375 56 38.28125 53.609375 
Q 42.625 51.21875 45.40625 46.390625 
L 45.40625 54.6875 
L 54.390625 54.6875 
z
" id="DejaVuSans-103"/>
      <path d="M 56.203125 29.59375 
L 56.203125 25.203125 
L 14.890625 25.203125 
Q 15.484375 15.921875 20.484375 11.0625 
Q 25.484375 6.203125 34.421875 6.203125 
Q 39.59375 6.203125 44.453125 7.46875 
Q 49.3125 8.734375 54.109375 11.28125 
L 54.109375 2.78125 
Q 49.265625 0.734375 44.1875 -0.34375 
Q 39.109375 -1.421875 33.890625 -1.421875 
Q 20.796875 -1.421875 13.15625 6.1875 
Q 5.515625 13.8125 5.515625 26.8125 
Q 5.515625 40.234375 12.765625 48.109375 
Q 20.015625 56 32.328125 56 
Q 43.359375 56 49.78125 48.890625 
Q 56.203125 41.796875 56.203125 29.59375 
z
M 47.21875 32.234375 
Q 47.125 39.59375 43.09375 43.984375 
Q 39.0625 48.390625 32.421875 48.390625 
Q 24.90625 48.390625 20.390625 44.140625 
Q 15.875 39.890625 15.1875 32.171875 
z
" id="DejaVuSans-101"/>
     </defs>
     <g style="fill:#555555;" transform="translate(57.416875 127.909687)rotate(-90)scale(0.12 -0.12)">
      <use xlink:href="#DejaVuSans-100"/>
      <use x="63.476562" xlink:href="#DejaVuSans-97"/>
      <use x="124.755859" xlink:href="#DejaVuSans-105"/>
      <use x="152.539062" xlink:href="#DejaVuSans-108"/>
      <use x="180.322266" xlink:href="#DejaVuSans-121"/>
      <use x="239.501953" xlink:href="#DejaVuSans-32"/>
      <use x="271.289062" xlink:href="#DejaVuSans-99"/>
      <use x="326.269531" xlink:href="#DejaVuSans-104"/>
      <use x="389.648438" xlink:href="#DejaVuSans-97"/>
      <use x="450.927734" xlink:href="#DejaVuSans-110"/>
      <use x="514.306641" xlink:href="#DejaVuSans-103"/>
      <use x="577.783203" xlink:href="#DejaVuSans-101"/>
     </g>
    </g>
   </g>
   <g id="patch_3">
    <path clip-path="url(#p53d882e64f)" d="M 116.812987 157.5 
L 118.745455 157.5 
L 118.745455 157.5 
L 116.812987 157.5 
z
" style="fill:#348abd;opacity:0.2;"/>
   </g>
   <g id="patch_4">
    <path clip-path="url(#p53d882e64f)" d="M 119.228571 157.5 
L 121.161039 157.5 
L 121.161039 157.34791 
L 119.228571 157.34791 
z
" style="fill:#348abd;opacity:0.2;"/>
   </g>
   <g id="patch_5">
    <path clip-path="url(#p53d882e64f)" d="M 121.644156 157.5 
L 123.576623 157.5 
L 123.576623 157.5 
L 121.644156 157.5 
z
" style="fill:#348abd;opacity:0.2;"/>
   </g>
   <g id="patch_6">
    <path clip-path="url(#p53d882e64f)" d="M 124.05974 157.5 
L 125.992208 157.5 
L 125.992208 157.34791 
L 124.05974 157.34791 
z
" style="fill:#348abd;opacity:0.2;"/>
   </g>
   <g id="patch_7">
    <path clip-path="url(#p53d882e64f)" d="M 126.475325 157.5 
L 128.407792 157.5 
L 128.407792 157.34791 
L 126.475325 157.34791 
z
" style="fill:#348abd;opacity:0.2;"/>
   </g>
   <g id="patch_8">
    <path clip-path="url(#p53d882e64f)" d="M 128.890909 157.5 
L 130.823377 157.5 
L 130.823377 157.5 
L 128.890909 157.5 
z
" style="fill:#348abd;opacity:0.2;"/>
   </g>
   <g id="patch_9">
    <path clip-path="url(#p53d882e64f)" d="M 131.306494 157.5 
L 133.238961 157.5 
L 133.238961 157.5 
L 131.306494 157.5 
z
" style="fill:#348abd;opacity:0.2;"/>
   </g>
   <g id="patch_10">
    <path clip-path="url(#p53d882e64f)" d="M 133.722078 157.5 
L 135.654545 157.5 
L 135.654545 157.5 
L 133.722078 157.5 
z
" style="fill:#348abd;opacity:0.2;"/>
   </g>
   <g id="patch_11">
    <path clip-path="url(#p53d882e64f)" d="M 136.137662 157.5 
L 138.07013 157.5 
L 138.07013 156.43537 
L 136.137662 156.43537 
z
" style="fill:#348abd;opacity:0.2;"/>
   </g>
   <g id="patch_12">
    <path clip-path="url(#p53d882e64f)" d="M 138.553247 157.5 
L 140.485714 157.5 
L 140.485714 157.34791 
L 138.553247 157.34791 
z
" style="fill:#348abd;opacity:0.2;"/>
   </g>
   <g id="patch_13">
    <path clip-path="url(#p53d882e64f)" d="M 140.968831 157.5 
L 142.901299 157.5 
L 142.901299 157.04373 
L 140.968831 157.04373 
z
" style="fill:#348abd;opacity:0.2;"/>
   </g>
   <g id="patch_14">
    <path clip-path="url(#p53d882e64f)" d="M 143.384416 157.5 
L 145.316883 157.5 
L 145.316883 157.5 
L 143.384416 157.5 
z
" style="fill:#348abd;opacity:0.2;"/>
   </g>
   <g id="patch_15">
    <path clip-path="url(#p53d882e64f)" d="M 145.8 157.5 
L 147.732468 157.5 
L 147.732468 157.34791 
L 145.8 157.34791 
z
" style="fill:#348abd;opacity:0.2;"/>
   </g>
   <g id="patch_16">
    <path clip-path="url(#p53d882e64f)" d="M 148.215584 157.5 
L 150.148052 157.5 
L 150.148052 157.04373 
L 148.215584 157.04373 
z
" style="fill:#348abd;opacity:0.2;"/>
   </g>
   <g id="patch_17">
    <path clip-path="url(#p53d882e64f)" d="M 150.631169 157.5 
L 152.563636 157.5 
L 152.563636 156.89164 
L 150.631169 156.89164 
z
" style="fill:#348abd;opacity:0.2;"/>
   </g>
   <g id="patch_18">
    <path clip-path="url(#p53d882e64f)" d="M 153.046753 157.5 
L 154.979221 157.5 
L 154.979221 157.34791 
L 153.046753 157.34791 
z
" style="fill:#348abd;opacity:0.2;"/>
   </g>
   <g id="patch_19">
    <path clip-path="url(#p53d882e64f)" d="M 155.462338 157.5 
L 157.394805 157.5 
L 157.394805 157.5 
L 155.462338 157.5 
z
" style="fill:#348abd;opacity:0.2;"/>
   </g>
   <g id="patch_20">
    <path clip-path="url(#p53d882e64f)" d="M 157.877922 157.5 
L 159.81039 157.5 
L 159.81039 157.34791 
L 157.877922 157.34791 
z
" style="fill:#348abd;opacity:0.2;"/>
   </g>
   <g id="patch_21">
    <path clip-path="url(#p53d882e64f)" d="M 160.293506 157.5 
L 162.225974 157.5 
L 162.225974 157.19582 
L 160.293506 157.19582 
z
" style="fill:#348abd;opacity:0.2;"/>
   </g>
   <g id="patch_22">
    <path clip-path="url(#p53d882e64f)" d="M 162.709091 157.5 
L 164.641558 157.5 
L 164.641558 157.34791 
L 162.709091 157.34791 
z
" style="fill:#348abd;opacity:0.2;"/>
   </g>
   <g id="patch_23">
    <path clip-path="url(#p53d882e64f)" d="M 165.124675 157.5 
L 167.057143 157.5 
L 167.057143 157.5 
L 165.124675 157.5 
z
" style="fill:#348abd;opacity:0.2;"/>
   </g>
   <g id="patch_24">
    <path clip-path="url(#p53d882e64f)" d="M 167.54026 157.5 
L 169.472727 157.5 
L 169.472727 157.5 
L 167.54026 157.5 
z
" style="fill:#348abd;opacity:0.2;"/>
   </g>
   <g id="patch_25">
    <path clip-path="url(#p53d882e64f)" d="M 169.955844 157.5 
L 171.888312 157.5 
L 171.888312 157.5 
L 169.955844 157.5 
z
" style="fill:#348abd;opacity:0.2;"/>
   </g>
   <g id="patch_26">
    <path clip-path="url(#p53d882e64f)" d="M 172.371429 157.5 
L 174.303896 157.5 
L 174.303896 157.5 
L 172.371429 157.5 
z
" style="fill:#348abd;opacity:0.2;"/>
   </g>
   <g id="patch_27">
    <path clip-path="url(#p53d882e64f)" d="M 174.787013 157.5 
L 176.719481 157.5 
L 176.719481 157.34791 
L 174.787013 157.34791 
z
" style="fill:#348abd;opacity:0.2;"/>
   </g>
   <g id="patch_28">
    <path clip-path="url(#p53d882e64f)" d="M 177.202597 157.5 
L 179.135065 157.5 
L 179.135065 157.34791 
L 177.202597 157.34791 
z
" style="fill:#348abd;opacity:0.2;"/>
   </g>
   <g id="patch_29">
    <path clip-path="url(#p53d882e64f)" d="M 179.618182 157.5 
L 181.550649 157.5 
L 181.550649 157.34791 
L 179.618182 157.34791 
z
" style="fill:#348abd;opacity:0.2;"/>
   </g>
   <g id="patch_30">
    <path clip-path="url(#p53d882e64f)" d="M 182.033766 157.5 
L 183.966234 157.5 
L 183.966234 157.5 
L 182.033766 157.5 
z
" style="fill:#348abd;opacity:0.2;"/>
   </g>
   <g id="patch_31">
    <path clip-path="url(#p53d882e64f)" d="M 184.449351 157.5 
L 186.381818 157.5 
L 186.381818 146.397432 
L 184.449351 146.397432 
z
" style="fill:#348abd;opacity:0.2;"/>
   </g>
   <g id="patch_32">
    <path clip-path="url(#p53d882e64f)" d="M 186.864935 157.5 
L 188.797403 157.5 
L 188.797403 142.291002 
L 186.864935 142.291002 
z
" style="fill:#348abd;opacity:0.2;"/>
   </g>
   <g id="patch_33">
    <path clip-path="url(#p53d882e64f)" d="M 189.280519 157.5 
L 191.212987 157.5 
L 191.212987 122.671395 
L 189.280519 122.671395 
z
" style="fill:#348abd;opacity:0.2;"/>
   </g>
   <g id="patch_34">
    <path clip-path="url(#p53d882e64f)" d="M 191.696104 157.5 
L 193.628571 157.5 
L 193.628571 131.796794 
L 191.696104 131.796794 
z
" style="fill:#348abd;opacity:0.2;"/>
   </g>
   <g id="patch_35">
    <path clip-path="url(#p53d882e64f)" d="M 194.111688 157.5 
L 196.044156 157.5 
L 196.044156 122.367215 
L 194.111688 122.367215 
z
" style="fill:#348abd;opacity:0.2;"/>
   </g>
   <g id="patch_36">
    <path clip-path="url(#p53d882e64f)" d="M 196.527273 157.5 
L 198.45974 157.5 
L 198.45974 135.599043 
L 196.527273 135.599043 
z
" style="fill:#348abd;opacity:0.2;"/>
   </g>
   <g id="patch_37">
    <path clip-path="url(#p53d882e64f)" d="M 198.942857 157.5 
L 200.875325 157.5 
L 200.875325 114.306446 
L 198.942857 114.306446 
z
" style="fill:#348abd;opacity:0.2;"/>
   </g>
   <g id="patch_38">
    <path clip-path="url(#p53d882e64f)" d="M 201.358442 157.5 
L 203.290909 157.5 
L 203.290909 80.694561 
L 201.358442 80.694561 
z
" style="fill:#348abd;opacity:0.2;"/>
   </g>
   <g id="patch_39">
    <path clip-path="url(#p53d882e64f)" d="M 203.774026 157.5 
L 205.706494 157.5 
L 205.706494 70.656622 
L 203.774026 70.656622 
z
" style="fill:#348abd;opacity:0.2;"/>
   </g>
   <g id="patch_40">
    <path clip-path="url(#p53d882e64f)" d="M 206.18961 157.5 
L 208.122078 157.5 
L 208.122078 33.850848 
L 206.18961 33.850848 
z
" style="fill:#348abd;opacity:0.2;"/>
   </g>
   <g id="patch_41">
    <path clip-path="url(#p53d882e64f)" d="M 208.605195 157.5 
L 210.537662 157.5 
L 210.537662 68.375273 
L 208.605195 68.375273 
z
" style="fill:#348abd;opacity:0.2;"/>
   </g>
   <g id="patch_42">
    <path clip-path="url(#p53d882e64f)" d="M 211.020779 157.5 
L 212.953247 157.5 
L 212.953247 66.398103 
L 211.020779 66.398103 
z
" style="fill:#348abd;opacity:0.2;"/>
   </g>
   <g id="patch_43">
    <path clip-path="url(#p53d882e64f)" d="M 213.436364 157.5 
L 215.368831 157.5 
L 215.368831 28.071429 
L 213.436364 28.071429 
z
" style="fill:#348abd;opacity:0.2;"/>
   </g>
   <g id="patch_44">
    <path clip-path="url(#p53d882e64f)" d="M 215.851948 157.5 
L 217.784416 157.5 
L 217.784416 91.340859 
L 215.851948 91.340859 
z
" style="fill:#348abd;opacity:0.2;"/>
   </g>
   <g id="patch_45">
    <path clip-path="url(#p53d882e64f)" d="M 218.267532 157.5 
L 220.2 157.5 
L 220.2 86.47398 
L 218.267532 86.47398 
z
" style="fill:#348abd;opacity:0.2;"/>
   </g>
   <g id="patch_46">
    <path clip-path="url(#p53d882e64f)" d="M 220.683117 157.5 
L 222.615584 157.5 
L 222.615584 80.694561 
L 220.683117 80.694561 
z
" style="fill:#348abd;opacity:0.2;"/>
   </g>
   <g id="patch_47">
    <path clip-path="url(#p53d882e64f)" d="M 223.098701 157.5 
L 225.031169 157.5 
L 225.031169 89.36369 
L 223.098701 89.36369 
z
" style="fill:#348abd;opacity:0.2;"/>
   </g>
   <g id="patch_48">
    <path clip-path="url(#p53d882e64f)" d="M 225.514286 157.5 
L 227.446753 157.5 
L 227.446753 115.979436 
L 225.514286 115.979436 
z
" style="fill:#348abd;opacity:0.2;"/>
   </g>
   <g id="patch_49">
    <path clip-path="url(#p53d882e64f)" d="M 227.92987 157.5 
L 229.862338 157.5 
L 229.862338 132.557244 
L 227.92987 132.557244 
z
" style="fill:#348abd;opacity:0.2;"/>
   </g>
   <g id="patch_50">
    <path clip-path="url(#p53d882e64f)" d="M 230.345455 157.5 
L 232.277922 157.5 
L 232.277922 152.176851 
L 230.345455 152.176851 
z
" style="fill:#348abd;opacity:0.2;"/>
   </g>
   <g id="patch_51">
    <path clip-path="url(#p53d882e64f)" d="M 232.761039 157.5 
L 234.693506 157.5 
L 234.693506 120.694225 
L 232.761039 120.694225 
z
" style="fill:#348abd;opacity:0.2;"/>
   </g>
   <g id="patch_52">
    <path clip-path="url(#p53d882e64f)" d="M 235.176623 157.5 
L 237.109091 157.5 
L 237.109091 140.161742 
L 235.176623 140.161742 
z
" style="fill:#348abd;opacity:0.2;"/>
   </g>
   <g id="patch_53">
    <path clip-path="url(#p53d882e64f)" d="M 237.592208 157.5 
L 239.524675 157.5 
L 239.524675 140.770102 
L 237.592208 140.770102 
z
" style="fill:#348abd;opacity:0.2;"/>
   </g>
   <g id="patch_54">
    <path clip-path="url(#p53d882e64f)" d="M 240.007792 157.5 
L 241.94026 157.5 
L 241.94026 141.226372 
L 240.007792 141.226372 
z
" style="fill:#348abd;opacity:0.2;"/>
   </g>
   <g id="patch_55">
    <path clip-path="url(#p53d882e64f)" d="M 242.423377 157.5 
L 244.355844 157.5 
L 244.355844 145.941162 
L 242.423377 145.941162 
z
" style="fill:#348abd;opacity:0.2;"/>
   </g>
   <g id="patch_56">
    <path clip-path="url(#p53d882e64f)" d="M 244.838961 157.5 
L 246.771429 157.5 
L 246.771429 146.245342 
L 244.838961 146.245342 
z
" style="fill:#348abd;opacity:0.2;"/>
   </g>
   <g id="patch_57">
    <path clip-path="url(#p53d882e64f)" d="M 247.254545 157.5 
L 249.187013 157.5 
L 249.187013 144.724442 
L 247.254545 144.724442 
z
" style="fill:#348abd;opacity:0.2;"/>
   </g>
   <g id="patch_58">
    <path clip-path="url(#p53d882e64f)" d="M 249.67013 157.5 
L 251.602597 157.5 
L 251.602597 143.355632 
L 249.67013 143.355632 
z
" style="fill:#348abd;opacity:0.2;"/>
   </g>
   <g id="patch_59">
    <path clip-path="url(#p53d882e64f)" d="M 252.085714 157.5 
L 254.018182 157.5 
L 254.018182 134.382323 
L 252.085714 134.382323 
z
" style="fill:#348abd;opacity:0.2;"/>
   </g>
   <g id="patch_60">
    <path clip-path="url(#p53d882e64f)" d="M 254.501299 157.5 
L 256.433766 157.5 
L 256.433766 144.268172 
L 254.501299 144.268172 
z
" style="fill:#348abd;opacity:0.2;"/>
   </g>
   <g id="patch_61">
    <path clip-path="url(#p53d882e64f)" d="M 256.916883 157.5 
L 258.849351 157.5 
L 258.849351 135.142773 
L 256.916883 135.142773 
z
" style="fill:#348abd;opacity:0.2;"/>
   </g>
   <g id="patch_62">
    <path clip-path="url(#p53d882e64f)" d="M 259.332468 157.5 
L 261.264935 157.5 
L 261.264935 132.861424 
L 259.332468 132.861424 
z
" style="fill:#348abd;opacity:0.2;"/>
   </g>
   <g id="patch_63">
    <path clip-path="url(#p53d882e64f)" d="M 261.748052 157.5 
L 263.680519 157.5 
L 263.680519 157.5 
L 261.748052 157.5 
z
" style="fill:#348abd;opacity:0.2;"/>
   </g>
   <g id="patch_64">
    <path clip-path="url(#p53d882e64f)" d="M 264.163636 157.5 
L 266.096104 157.5 
L 266.096104 145.941162 
L 264.163636 145.941162 
z
" style="fill:#348abd;opacity:0.2;"/>
   </g>
   <g id="patch_65">
    <path clip-path="url(#p53d882e64f)" d="M 266.579221 157.5 
L 268.511688 157.5 
L 268.511688 142.291002 
L 266.579221 142.291002 
z
" style="fill:#348abd;opacity:0.2;"/>
   </g>
   <g id="patch_66">
    <path clip-path="url(#p53d882e64f)" d="M 268.994805 157.5 
L 270.927273 157.5 
L 270.927273 141.682642 
L 268.994805 141.682642 
z
" style="fill:#348abd;opacity:0.2;"/>
   </g>
   <g id="patch_67">
    <path clip-path="url(#p53d882e64f)" d="M 271.41039 157.5 
L 273.342857 157.5 
L 273.342857 143.659812 
L 271.41039 143.659812 
z
" style="fill:#348abd;opacity:0.2;"/>
   </g>
   <g id="patch_68">
    <path clip-path="url(#p53d882e64f)" d="M 273.825974 157.5 
L 275.758442 157.5 
L 275.758442 135.294863 
L 273.825974 135.294863 
z
" style="fill:#348abd;opacity:0.2;"/>
   </g>
   <g id="patch_69">
    <path clip-path="url(#p53d882e64f)" d="M 276.241558 157.5 
L 278.174026 157.5 
L 278.174026 141.530552 
L 276.241558 141.530552 
z
" style="fill:#348abd;opacity:0.2;"/>
   </g>
   <g id="patch_70">
    <path clip-path="url(#p53d882e64f)" d="M 278.657143 157.5 
L 280.58961 157.5 
L 280.58961 145.636982 
L 278.657143 145.636982 
z
" style="fill:#348abd;opacity:0.2;"/>
   </g>
   <g id="patch_71">
    <path clip-path="url(#p53d882e64f)" d="M 281.072727 157.5 
L 283.005195 157.5 
L 283.005195 138.488753 
L 281.072727 138.488753 
z
" style="fill:#348abd;opacity:0.2;"/>
   </g>
   <g id="patch_72">
    <path clip-path="url(#p53d882e64f)" d="M 283.488312 157.5 
L 285.420779 157.5 
L 285.420779 142.138912 
L 283.488312 142.138912 
z
" style="fill:#348abd;opacity:0.2;"/>
   </g>
   <g id="patch_73">
    <path clip-path="url(#p53d882e64f)" d="M 285.903896 157.5 
L 287.836364 157.5 
L 287.836364 143.963992 
L 285.903896 143.963992 
z
" style="fill:#348abd;opacity:0.2;"/>
   </g>
   <g id="patch_74">
    <path clip-path="url(#p53d882e64f)" d="M 288.319481 157.5 
L 290.251948 157.5 
L 290.251948 144.420262 
L 288.319481 144.420262 
z
" style="fill:#348abd;opacity:0.2;"/>
   </g>
   <g id="patch_75">
    <path clip-path="url(#p53d882e64f)" d="M 290.735065 157.5 
L 292.667532 157.5 
L 292.667532 143.203542 
L 290.735065 143.203542 
z
" style="fill:#348abd;opacity:0.2;"/>
   </g>
   <g id="patch_76">
    <path clip-path="url(#p53d882e64f)" d="M 293.150649 157.5 
L 295.083117 157.5 
L 295.083117 145.180712 
L 293.150649 145.180712 
z
" style="fill:#348abd;opacity:0.2;"/>
   </g>
   <g id="patch_77">
    <path clip-path="url(#p53d882e64f)" d="M 295.566234 157.5 
L 297.498701 157.5 
L 297.498701 150.351771 
L 295.566234 150.351771 
z
" style="fill:#348abd;opacity:0.2;"/>
   </g>
   <g id="patch_78">
    <path clip-path="url(#p53d882e64f)" d="M 297.981818 157.5 
L 299.914286 157.5 
L 299.914286 150.351771 
L 297.981818 150.351771 
z
" style="fill:#348abd;opacity:0.2;"/>
   </g>
   <g id="patch_79">
    <path clip-path="url(#p53d882e64f)" d="M 300.397403 157.5 
L 302.32987 157.5 
L 302.32987 149.439231 
L 300.397403 149.439231 
z
" style="fill:#348abd;opacity:0.2;"/>
   </g>
   <g id="patch_80">
    <path clip-path="url(#p53d882e64f)" d="M 302.812987 157.5 
L 304.745455 157.5 
L 304.745455 151.568491 
L 302.812987 151.568491 
z
" style="fill:#348abd;opacity:0.2;"/>
   </g>
   <g id="patch_81">
    <path clip-path="url(#p53d882e64f)" d="M 305.228571 157.5 
L 307.161039 157.5 
L 307.161039 153.393571 
L 305.228571 153.393571 
z
" style="fill:#348abd;opacity:0.2;"/>
   </g>
   <g id="patch_82">
    <path clip-path="url(#p53d882e64f)" d="M 307.644156 157.5 
L 309.576623 157.5 
L 309.576623 152.937301 
L 307.644156 152.937301 
z
" style="fill:#348abd;opacity:0.2;"/>
   </g>
   <g id="patch_83">
    <path clip-path="url(#p53d882e64f)" d="M 310.05974 157.5 
L 311.992208 157.5 
L 311.992208 152.633121 
L 310.05974 152.633121 
z
" style="fill:#348abd;opacity:0.2;"/>
   </g>
   <g id="patch_84">
    <path clip-path="url(#p53d882e64f)" d="M 312.475325 157.5 
L 314.407792 157.5 
L 314.407792 153.697751 
L 312.475325 153.697751 
z
" style="fill:#348abd;opacity:0.2;"/>
   </g>
   <g id="patch_85">
    <path clip-path="url(#p53d882e64f)" d="M 314.890909 157.5 
L 316.823377 157.5 
L 316.823377 153.393571 
L 314.890909 153.393571 
z
" style="fill:#348abd;opacity:0.2;"/>
   </g>
   <g id="patch_86">
    <path clip-path="url(#p53d882e64f)" d="M 317.306494 157.5 
L 319.238961 157.5 
L 319.238961 153.393571 
L 317.306494 153.393571 
z
" style="fill:#348abd;opacity:0.2;"/>
   </g>
   <g id="patch_87">
    <path clip-path="url(#p53d882e64f)" d="M 319.722078 157.5 
L 321.654545 157.5 
L 321.654545 154.15402 
L 319.722078 154.15402 
z
" style="fill:#348abd;opacity:0.2;"/>
   </g>
   <g id="patch_88">
    <path clip-path="url(#p53d882e64f)" d="M 322.137662 157.5 
L 324.07013 157.5 
L 324.07013 154.15402 
L 322.137662 154.15402 
z
" style="fill:#348abd;opacity:0.2;"/>
   </g>
   <g id="patch_89">
    <path clip-path="url(#p53d882e64f)" d="M 324.553247 157.5 
L 326.485714 157.5 
L 326.485714 154.76238 
L 324.553247 154.76238 
z
" style="fill:#348abd;opacity:0.2;"/>
   </g>
   <g id="patch_90">
    <path clip-path="url(#p53d882e64f)" d="M 326.968831 157.5 
L 328.901299 157.5 
L 328.901299 156.28328 
L 326.968831 156.28328 
z
" style="fill:#348abd;opacity:0.2;"/>
   </g>
   <g id="patch_91">
    <path clip-path="url(#p53d882e64f)" d="M 329.384416 157.5 
L 331.316883 157.5 
L 331.316883 155.52283 
L 329.384416 155.52283 
z
" style="fill:#348abd;opacity:0.2;"/>
   </g>
   <g id="patch_92">
    <path clip-path="url(#p53d882e64f)" d="M 331.8 157.5 
L 333.732468 157.5 
L 333.732468 156.13119 
L 331.8 156.13119 
z
" style="fill:#348abd;opacity:0.2;"/>
   </g>
   <g id="patch_93">
    <path clip-path="url(#p53d882e64f)" d="M 334.215584 157.5 
L 336.148052 157.5 
L 336.148052 155.82701 
L 334.215584 155.82701 
z
" style="fill:#348abd;opacity:0.2;"/>
   </g>
   <g id="patch_94">
    <path clip-path="url(#p53d882e64f)" d="M 336.631169 157.5 
L 338.563636 157.5 
L 338.563636 155.37074 
L 336.631169 155.37074 
z
" style="fill:#348abd;opacity:0.2;"/>
   </g>
   <g id="patch_95">
    <path clip-path="url(#p53d882e64f)" d="M 339.046753 157.5 
L 340.979221 157.5 
L 340.979221 155.9791 
L 339.046753 155.9791 
z
" style="fill:#348abd;opacity:0.2;"/>
   </g>
   <g id="patch_96">
    <path clip-path="url(#p53d882e64f)" d="M 341.462338 157.5 
L 343.394805 157.5 
L 343.394805 155.9791 
L 341.462338 155.9791 
z
" style="fill:#348abd;opacity:0.2;"/>
   </g>
   <g id="patch_97">
    <path clip-path="url(#p53d882e64f)" d="M 343.877922 157.5 
L 345.81039 157.5 
L 345.81039 155.9791 
L 343.877922 155.9791 
z
" style="fill:#348abd;opacity:0.2;"/>
   </g>
   <g id="patch_98">
    <path clip-path="url(#p53d882e64f)" d="M 346.293506 157.5 
L 348.225974 157.5 
L 348.225974 155.37074 
L 346.293506 155.37074 
z
" style="fill:#348abd;opacity:0.2;"/>
   </g>
   <g id="patch_99">
    <path clip-path="url(#p53d882e64f)" d="M 348.709091 157.5 
L 350.641558 157.5 
L 350.641558 156.13119 
L 348.709091 156.13119 
z
" style="fill:#348abd;opacity:0.2;"/>
   </g>
   <g id="patch_100">
    <path clip-path="url(#p53d882e64f)" d="M 351.124675 157.5 
L 353.057143 157.5 
L 353.057143 156.89164 
L 351.124675 156.89164 
z
" style="fill:#348abd;opacity:0.2;"/>
   </g>
   <g id="patch_101">
    <path clip-path="url(#p53d882e64f)" d="M 353.54026 157.5 
L 355.472727 157.5 
L 355.472727 156.13119 
L 353.54026 156.13119 
z
" style="fill:#348abd;opacity:0.2;"/>
   </g>
   <g id="patch_102">
    <path clip-path="url(#p53d882e64f)" d="M 355.955844 157.5 
L 357.888312 157.5 
L 357.888312 156.58746 
L 355.955844 156.58746 
z
" style="fill:#348abd;opacity:0.2;"/>
   </g>
   <g id="patch_103">
    <path clip-path="url(#p53d882e64f)" d="M 358.371429 157.5 
L 360.303896 157.5 
L 360.303896 155.52283 
L 358.371429 155.52283 
z
" style="fill:#348abd;opacity:0.2;"/>
   </g>
   <g id="patch_104">
    <path clip-path="url(#p53d882e64f)" d="M 360.787013 157.5 
L 362.719481 157.5 
L 362.719481 156.28328 
L 360.787013 156.28328 
z
" style="fill:#348abd;opacity:0.2;"/>
   </g>
   <g id="patch_105">
    <path clip-path="url(#p53d882e64f)" d="M 363.202597 157.5 
L 365.135065 157.5 
L 365.135065 157.04373 
L 363.202597 157.04373 
z
" style="fill:#348abd;opacity:0.2;"/>
   </g>
   <g id="patch_106">
    <path clip-path="url(#p53d882e64f)" d="M 365.618182 157.5 
L 367.550649 157.5 
L 367.550649 157.19582 
L 365.618182 157.19582 
z
" style="fill:#348abd;opacity:0.2;"/>
   </g>
   <g id="patch_107">
    <path clip-path="url(#p53d882e64f)" d="M 368.033766 157.5 
L 369.966234 157.5 
L 369.966234 156.89164 
L 368.033766 156.89164 
z
" style="fill:#348abd;opacity:0.2;"/>
   </g>
   <g id="patch_108">
    <path clip-path="url(#p53d882e64f)" d="M 370.449351 157.5 
L 372.381818 157.5 
L 372.381818 155.67492 
L 370.449351 155.67492 
z
" style="fill:#348abd;opacity:0.2;"/>
   </g>
   <g id="patch_109">
    <path clip-path="url(#p53d882e64f)" d="M 372.864935 157.5 
L 374.797403 157.5 
L 374.797403 154.76238 
L 372.864935 154.76238 
z
" style="fill:#348abd;opacity:0.2;"/>
   </g>
   <g id="patch_110">
    <path clip-path="url(#p53d882e64f)" d="M 375.280519 157.5 
L 377.212987 157.5 
L 377.212987 152.328941 
L 375.280519 152.328941 
z
" style="fill:#348abd;opacity:0.2;"/>
   </g>
   <g id="patch_111">
    <path clip-path="url(#p53d882e64f)" d="M 377.696104 157.5 
L 379.628571 157.5 
L 379.628571 152.176851 
L 377.696104 152.176851 
z
" style="fill:#348abd;opacity:0.2;"/>
   </g>
   <g id="patch_112">
    <path clip-path="url(#p53d882e64f)" d="M 380.111688 157.5 
L 382.044156 157.5 
L 382.044156 153.393571 
L 380.111688 153.393571 
z
" style="fill:#348abd;opacity:0.2;"/>
   </g>
   <g id="patch_113">
    <path clip-path="url(#p53d882e64f)" d="M 382.527273 157.5 
L 384.45974 157.5 
L 384.45974 153.545661 
L 382.527273 153.545661 
z
" style="fill:#348abd;opacity:0.2;"/>
   </g>
   <g id="patch_114">
    <path clip-path="url(#p53d882e64f)" d="M 384.942857 157.5 
L 386.875325 157.5 
L 386.875325 153.089391 
L 384.942857 153.089391 
z
" style="fill:#348abd;opacity:0.2;"/>
   </g>
   <g id="patch_115">
    <path clip-path="url(#p53d882e64f)" d="M 387.358442 157.5 
L 389.290909 157.5 
L 389.290909 153.393571 
L 387.358442 153.393571 
z
" style="fill:#348abd;opacity:0.2;"/>
   </g>
   <g id="patch_116">
    <path clip-path="url(#p53d882e64f)" d="M 389.774026 157.5 
L 391.706494 157.5 
L 391.706494 154.61029 
L 389.774026 154.61029 
z
" style="fill:#348abd;opacity:0.2;"/>
   </g>
   <g id="patch_117">
    <path clip-path="url(#p53d882e64f)" d="M 392.18961 157.5 
L 394.122078 157.5 
L 394.122078 155.52283 
L 392.18961 155.52283 
z
" style="fill:#348abd;opacity:0.2;"/>
   </g>
   <g id="patch_118">
    <path clip-path="url(#p53d882e64f)" d="M 394.605195 157.5 
L 396.537662 157.5 
L 396.537662 155.21865 
L 394.605195 155.21865 
z
" style="fill:#348abd;opacity:0.2;"/>
   </g>
   <g id="patch_119">
    <path clip-path="url(#p53d882e64f)" d="M 397.020779 157.5 
L 398.953247 157.5 
L 398.953247 155.52283 
L 397.020779 155.52283 
z
" style="fill:#348abd;opacity:0.2;"/>
   </g>
   <g id="patch_120">
    <path clip-path="url(#p53d882e64f)" d="M 399.436364 157.5 
L 401.368831 157.5 
L 401.368831 152.633121 
L 399.436364 152.633121 
z
" style="fill:#348abd;opacity:0.2;"/>
   </g>
   <g id="patch_121">
    <path clip-path="url(#p53d882e64f)" d="M 401.851948 157.5 
L 403.784416 157.5 
L 403.784416 155.67492 
L 401.851948 155.67492 
z
" style="fill:#348abd;opacity:0.2;"/>
   </g>
   <g id="patch_122">
    <path clip-path="url(#p53d882e64f)" d="M 404.267532 157.5 
L 406.2 157.5 
L 406.2 154.4582 
L 404.267532 154.4582 
z
" style="fill:#348abd;opacity:0.2;"/>
   </g>
   <g id="patch_123">
    <path clip-path="url(#p53d882e64f)" d="M 406.683117 157.5 
L 408.615584 157.5 
L 408.615584 154.001931 
L 406.683117 154.001931 
z
" style="fill:#348abd;opacity:0.2;"/>
   </g>
   <g id="patch_124">
    <path clip-path="url(#p53d882e64f)" d="M 409.098701 157.5 
L 411.031169 157.5 
L 411.031169 153.697751 
L 409.098701 153.697751 
z
" style="fill:#348abd;opacity:0.2;"/>
   </g>
   <g id="patch_125">
    <path clip-path="url(#p53d882e64f)" d="M 411.514286 157.5 
L 413.446753 157.5 
L 413.446753 155.06656 
L 411.514286 155.06656 
z
" style="fill:#348abd;opacity:0.2;"/>
   </g>
   <g id="patch_126">
    <path clip-path="url(#p53d882e64f)" d="M 413.92987 157.5 
L 415.862338 157.5 
L 415.862338 154.61029 
L 413.92987 154.61029 
z
" style="fill:#348abd;opacity:0.2;"/>
   </g>
   <g id="patch_127">
    <path clip-path="url(#p53d882e64f)" d="M 416.345455 157.5 
L 418.277922 157.5 
L 418.277922 151.416401 
L 416.345455 151.416401 
z
" style="fill:#348abd;opacity:0.2;"/>
   </g>
   <g id="patch_128">
    <path clip-path="url(#p53d882e64f)" d="M 418.761039 157.5 
L 420.693506 157.5 
L 420.693506 145.484892 
L 418.761039 145.484892 
z
" style="fill:#348abd;opacity:0.2;"/>
   </g>
   <g id="patch_129">
    <path clip-path="url(#p53d882e64f)" d="M 421.176623 157.5 
L 423.109091 157.5 
L 423.109091 148.678781 
L 421.176623 148.678781 
z
" style="fill:#348abd;opacity:0.2;"/>
   </g>
   <g id="patch_130">
    <path clip-path="url(#p53d882e64f)" d="M 423.592208 157.5 
L 425.524675 157.5 
L 425.524675 151.568491 
L 423.592208 151.568491 
z
" style="fill:#348abd;opacity:0.2;"/>
   </g>
   <g id="patch_131">
    <path clip-path="url(#p53d882e64f)" d="M 426.007792 157.5 
L 427.94026 157.5 
L 427.94026 153.393571 
L 426.007792 153.393571 
z
" style="fill:#348abd;opacity:0.2;"/>
   </g>
   <g id="patch_132">
    <path clip-path="url(#p53d882e64f)" d="M 428.423377 157.5 
L 430.355844 157.5 
L 430.355844 152.176851 
L 428.423377 152.176851 
z
" style="fill:#348abd;opacity:0.2;"/>
   </g>
   <g id="patch_133">
    <path clip-path="url(#p53d882e64f)" d="M 430.838961 157.5 
L 432.771429 157.5 
L 432.771429 151.720581 
L 430.838961 151.720581 
z
" style="fill:#348abd;opacity:0.2;"/>
   </g>
   <g id="patch_134">
    <path clip-path="url(#p53d882e64f)" d="M 433.254545 157.5 
L 435.187013 157.5 
L 435.187013 150.047591 
L 433.254545 150.047591 
z
" style="fill:#348abd;opacity:0.2;"/>
   </g>
   <g id="patch_135">
    <path clip-path="url(#p53d882e64f)" d="M 435.67013 157.5 
L 437.602597 157.5 
L 437.602597 151.568491 
L 435.67013 151.568491 
z
" style="fill:#348abd;opacity:0.2;"/>
   </g>
   <g id="patch_136">
    <path clip-path="url(#p53d882e64f)" d="M 438.085714 157.5 
L 440.018182 157.5 
L 440.018182 151.568491 
L 438.085714 151.568491 
z
" style="fill:#348abd;opacity:0.2;"/>
   </g>
   <g id="patch_137">
    <path clip-path="url(#p53d882e64f)" d="M 440.501299 157.5 
L 442.433766 157.5 
L 442.433766 149.743411 
L 440.501299 149.743411 
z
" style="fill:#348abd;opacity:0.2;"/>
   </g>
   <g id="patch_138">
    <path clip-path="url(#p53d882e64f)" d="M 442.916883 157.5 
L 444.849351 157.5 
L 444.849351 148.830871 
L 442.916883 148.830871 
z
" style="fill:#348abd;opacity:0.2;"/>
   </g>
   <g id="patch_139">
    <path clip-path="url(#p53d882e64f)" d="M 445.332468 157.5 
L 447.264935 157.5 
L 447.264935 151.720581 
L 445.332468 151.720581 
z
" style="fill:#348abd;opacity:0.2;"/>
   </g>
   <g id="patch_140">
    <path clip-path="url(#p53d882e64f)" d="M 447.748052 157.5 
L 449.680519 157.5 
L 449.680519 151.720581 
L 447.748052 151.720581 
z
" style="fill:#348abd;opacity:0.2;"/>
   </g>
   <g id="patch_141">
    <path clip-path="url(#p53d882e64f)" d="M 450.163636 157.5 
L 452.096104 157.5 
L 452.096104 149.895501 
L 450.163636 149.895501 
z
" style="fill:#348abd;opacity:0.2;"/>
   </g>
   <g id="patch_142">
    <path clip-path="url(#p53d882e64f)" d="M 452.579221 157.5 
L 454.511688 157.5 
L 454.511688 150.655951 
L 452.579221 150.655951 
z
" style="fill:#348abd;opacity:0.2;"/>
   </g>
   <g id="patch_143">
    <path clip-path="url(#p53d882e64f)" d="M 454.994805 157.5 
L 456.927273 157.5 
L 456.927273 148.982961 
L 454.994805 148.982961 
z
" style="fill:#348abd;opacity:0.2;"/>
   </g>
   <g id="patch_144">
    <path clip-path="url(#p53d882e64f)" d="M 457.41039 157.5 
L 459.342857 157.5 
L 459.342857 150.199681 
L 457.41039 150.199681 
z
" style="fill:#348abd;opacity:0.2;"/>
   </g>
   <g id="patch_145">
    <path clip-path="url(#p53d882e64f)" d="M 459.825974 157.5 
L 461.758442 157.5 
L 461.758442 152.328941 
L 459.825974 152.328941 
z
" style="fill:#348abd;opacity:0.2;"/>
   </g>
   <g id="patch_146">
    <path clip-path="url(#p53d882e64f)" d="M 462.241558 157.5 
L 464.174026 157.5 
L 464.174026 152.024761 
L 462.241558 152.024761 
z
" style="fill:#348abd;opacity:0.2;"/>
   </g>
   <g id="patch_147">
    <path clip-path="url(#p53d882e64f)" d="M 464.657143 157.5 
L 466.58961 157.5 
L 466.58961 152.328941 
L 464.657143 152.328941 
z
" style="fill:#348abd;opacity:0.2;"/>
   </g>
   <g id="patch_148">
    <path clip-path="url(#p53d882e64f)" d="M 467.072727 157.5 
L 469.005195 157.5 
L 469.005195 150.960131 
L 467.072727 150.960131 
z
" style="fill:#348abd;opacity:0.2;"/>
   </g>
   <g id="patch_149">
    <path clip-path="url(#p53d882e64f)" d="M 469.488312 157.5 
L 471.420779 157.5 
L 471.420779 148.526691 
L 469.488312 148.526691 
z
" style="fill:#348abd;opacity:0.2;"/>
   </g>
   <g id="patch_150">
    <path clip-path="url(#p53d882e64f)" d="M 471.903896 157.5 
L 473.836364 157.5 
L 473.836364 150.047591 
L 471.903896 150.047591 
z
" style="fill:#348abd;opacity:0.2;"/>
   </g>
   <g id="patch_151">
    <path clip-path="url(#p53d882e64f)" d="M 474.319481 157.5 
L 476.251948 157.5 
L 476.251948 147.309971 
L 474.319481 147.309971 
z
" style="fill:#348abd;opacity:0.2;"/>
   </g>
   <g id="patch_152">
    <path clip-path="url(#p53d882e64f)" d="M 476.735065 157.5 
L 478.667532 157.5 
L 478.667532 150.199681 
L 476.735065 150.199681 
z
" style="fill:#348abd;opacity:0.2;"/>
   </g>
   <g id="patch_153">
    <path clip-path="url(#p53d882e64f)" d="M 479.150649 157.5 
L 481.083117 157.5 
L 481.083117 154.91447 
L 479.150649 154.91447 
z
" style="fill:#348abd;opacity:0.2;"/>
   </g>
   <g id="patch_154">
    <path clip-path="url(#p53d882e64f)" d="M 481.566234 157.5 
L 483.498701 157.5 
L 483.498701 150.503861 
L 481.566234 150.503861 
z
" style="fill:#348abd;opacity:0.2;"/>
   </g>
   <g id="patch_155">
    <path clip-path="url(#p53d882e64f)" d="M 483.981818 157.5 
L 485.914286 157.5 
L 485.914286 149.743411 
L 483.981818 149.743411 
z
" style="fill:#348abd;opacity:0.2;"/>
   </g>
   <g id="patch_156">
    <path clip-path="url(#p53d882e64f)" d="M 486.397403 157.5 
L 488.32987 157.5 
L 488.32987 153.241481 
L 486.397403 153.241481 
z
" style="fill:#348abd;opacity:0.2;"/>
   </g>
   <g id="patch_157">
    <path clip-path="url(#p53d882e64f)" d="M 488.812987 157.5 
L 490.745455 157.5 
L 490.745455 151.568491 
L 488.812987 151.568491 
z
" style="fill:#348abd;opacity:0.2;"/>
   </g>
   <g id="patch_158">
    <path clip-path="url(#p53d882e64f)" d="M 491.228571 157.5 
L 493.161039 157.5 
L 493.161039 149.743411 
L 491.228571 149.743411 
z
" style="fill:#348abd;opacity:0.2;"/>
   </g>
   <g id="patch_159">
    <path clip-path="url(#p53d882e64f)" d="M 493.644156 157.5 
L 495.576623 157.5 
L 495.576623 148.070421 
L 493.644156 148.070421 
z
" style="fill:#348abd;opacity:0.2;"/>
   </g>
   <g id="patch_160">
    <path clip-path="url(#p53d882e64f)" d="M 496.05974 157.5 
L 497.992208 157.5 
L 497.992208 151.112221 
L 496.05974 151.112221 
z
" style="fill:#348abd;opacity:0.2;"/>
   </g>
   <g id="patch_161">
    <path clip-path="url(#p53d882e64f)" d="M 498.475325 157.5 
L 500.407792 157.5 
L 500.407792 150.960131 
L 498.475325 150.960131 
z
" style="fill:#348abd;opacity:0.2;"/>
   </g>
   <g id="patch_162">
    <path clip-path="url(#p53d882e64f)" d="M 500.890909 157.5 
L 502.823377 157.5 
L 502.823377 149.895501 
L 500.890909 149.895501 
z
" style="fill:#348abd;opacity:0.2;"/>
   </g>
   <g id="patch_163">
    <path clip-path="url(#p53d882e64f)" d="M 503.306494 157.5 
L 505.238961 157.5 
L 505.238961 149.287141 
L 503.306494 149.287141 
z
" style="fill:#348abd;opacity:0.2;"/>
   </g>
   <g id="patch_164">
    <path clip-path="url(#p53d882e64f)" d="M 505.722078 157.5 
L 507.654545 157.5 
L 507.654545 147.918331 
L 505.722078 147.918331 
z
" style="fill:#348abd;opacity:0.2;"/>
   </g>
   <g id="patch_165">
    <path clip-path="url(#p53d882e64f)" d="M 508.137662 157.5 
L 510.07013 157.5 
L 510.07013 147.918331 
L 508.137662 147.918331 
z
" style="fill:#348abd;opacity:0.2;"/>
   </g>
   <g id="patch_166">
    <path clip-path="url(#p53d882e64f)" d="M 510.553247 157.5 
L 512.485714 157.5 
L 512.485714 148.222511 
L 510.553247 148.222511 
z
" style="fill:#348abd;opacity:0.2;"/>
   </g>
   <g id="patch_167">
    <path clip-path="url(#p53d882e64f)" d="M 512.968831 157.5 
L 514.901299 157.5 
L 514.901299 150.503861 
L 512.968831 150.503861 
z
" style="fill:#348abd;opacity:0.2;"/>
   </g>
   <g id="patch_168">
    <path clip-path="url(#p53d882e64f)" d="M 515.384416 157.5 
L 517.316883 157.5 
L 517.316883 150.808041 
L 515.384416 150.808041 
z
" style="fill:#348abd;opacity:0.2;"/>
   </g>
   <g id="patch_169">
    <path clip-path="url(#p53d882e64f)" d="M 517.8 157.5 
L 519.732468 157.5 
L 519.732468 147.918331 
L 517.8 147.918331 
z
" style="fill:#348abd;opacity:0.2;"/>
   </g>
   <g id="patch_170">
    <path clip-path="url(#p53d882e64f)" d="M 520.215584 157.5 
L 522.148052 157.5 
L 522.148052 150.047591 
L 520.215584 150.047591 
z
" style="fill:#348abd;opacity:0.2;"/>
   </g>
   <g id="patch_171">
    <path clip-path="url(#p53d882e64f)" d="M 522.631169 157.5 
L 524.563636 157.5 
L 524.563636 150.655951 
L 522.631169 150.655951 
z
" style="fill:#348abd;opacity:0.2;"/>
   </g>
   <g id="patch_172">
    <path clip-path="url(#p53d882e64f)" d="M 525.046753 157.5 
L 526.979221 157.5 
L 526.979221 152.176851 
L 525.046753 152.176851 
z
" style="fill:#348abd;opacity:0.2;"/>
   </g>
   <g id="patch_173">
    <path clip-path="url(#p53d882e64f)" d="M 527.462338 157.5 
L 529.394805 157.5 
L 529.394805 150.808041 
L 527.462338 150.808041 
z
" style="fill:#348abd;opacity:0.2;"/>
   </g>
   <g id="patch_174">
    <path clip-path="url(#p53d882e64f)" d="M 529.877922 157.5 
L 531.81039 157.5 
L 531.81039 148.070421 
L 529.877922 148.070421 
z
" style="fill:#348abd;opacity:0.2;"/>
   </g>
   <g id="patch_175">
    <path clip-path="url(#p53d882e64f)" d="M 532.293506 157.5 
L 534.225974 157.5 
L 534.225974 152.481031 
L 532.293506 152.481031 
z
" style="fill:#348abd;opacity:0.2;"/>
   </g>
   <g id="patch_176">
    <path clip-path="url(#p53d882e64f)" d="M 534.709091 157.5 
L 536.641558 157.5 
L 536.641558 151.568491 
L 534.709091 151.568491 
z
" style="fill:#348abd;opacity:0.2;"/>
   </g>
   <g id="patch_177">
    <path clip-path="url(#p53d882e64f)" d="M 537.124675 157.5 
L 539.057143 157.5 
L 539.057143 148.222511 
L 537.124675 148.222511 
z
" style="fill:#348abd;opacity:0.2;"/>
   </g>
   <g id="patch_178">
    <path clip-path="url(#p53d882e64f)" d="M 539.54026 157.5 
L 541.472727 157.5 
L 541.472727 148.374601 
L 539.54026 148.374601 
z
" style="fill:#348abd;opacity:0.2;"/>
   </g>
   <g id="patch_179">
    <path clip-path="url(#p53d882e64f)" d="M 541.955844 157.5 
L 543.888312 157.5 
L 543.888312 151.568491 
L 541.955844 151.568491 
z
" style="fill:#348abd;opacity:0.2;"/>
   </g>
   <g id="patch_180">
    <path clip-path="url(#p53d882e64f)" d="M 544.371429 157.5 
L 546.303896 157.5 
L 546.303896 152.328941 
L 544.371429 152.328941 
z
" style="fill:#348abd;opacity:0.2;"/>
   </g>
   <g id="patch_181">
    <path clip-path="url(#p53d882e64f)" d="M 546.787013 157.5 
L 548.719481 157.5 
L 548.719481 153.545661 
L 546.787013 153.545661 
z
" style="fill:#348abd;opacity:0.2;"/>
   </g>
   <g id="patch_182">
    <path clip-path="url(#p53d882e64f)" d="M 549.202597 157.5 
L 551.135065 157.5 
L 551.135065 150.655951 
L 549.202597 150.655951 
z
" style="fill:#348abd;opacity:0.2;"/>
   </g>
   <g id="patch_183">
    <path clip-path="url(#p53d882e64f)" d="M 551.618182 157.5 
L 553.550649 157.5 
L 553.550649 147.918331 
L 551.618182 147.918331 
z
" style="fill:#348abd;opacity:0.2;"/>
   </g>
   <g id="patch_184">
    <path clip-path="url(#p53d882e64f)" d="M 554.033766 157.5 
L 555.966234 157.5 
L 555.966234 148.526691 
L 554.033766 148.526691 
z
" style="fill:#348abd;opacity:0.2;"/>
   </g>
   <g id="patch_185">
    <path clip-path="url(#p53d882e64f)" d="M 556.449351 157.5 
L 558.381818 157.5 
L 558.381818 151.264311 
L 556.449351 151.264311 
z
" style="fill:#348abd;opacity:0.2;"/>
   </g>
   <g id="patch_186">
    <path clip-path="url(#p53d882e64f)" d="M 558.864935 157.5 
L 560.797403 157.5 
L 560.797403 140.313832 
L 558.864935 140.313832 
z
" style="fill:#348abd;opacity:0.2;"/>
   </g>
   <g id="patch_187">
    <path clip-path="url(#p53d882e64f)" d="M 561.280519 157.5 
L 563.212987 157.5 
L 563.212987 148.678781 
L 561.280519 148.678781 
z
" style="fill:#348abd;opacity:0.2;"/>
   </g>
   <g id="patch_188">
    <path clip-path="url(#p53d882e64f)" d="M 563.696104 157.5 
L 565.628571 157.5 
L 565.628571 153.697751 
L 563.696104 153.697751 
z
" style="fill:#348abd;opacity:0.2;"/>
   </g>
   <g id="patch_189">
    <path clip-path="url(#p53d882e64f)" d="M 566.111688 157.5 
L 568.044156 157.5 
L 568.044156 153.241481 
L 566.111688 153.241481 
z
" style="fill:#348abd;opacity:0.2;"/>
   </g>
   <g id="patch_190">
    <path clip-path="url(#p53d882e64f)" d="M 568.527273 157.5 
L 570.45974 157.5 
L 570.45974 150.199681 
L 568.527273 150.199681 
z
" style="fill:#348abd;opacity:0.2;"/>
   </g>
   <g id="patch_191">
    <path clip-path="url(#p53d882e64f)" d="M 570.942857 157.5 
L 572.875325 157.5 
L 572.875325 154.76238 
L 570.942857 154.76238 
z
" style="fill:#348abd;opacity:0.2;"/>
   </g>
   <g id="patch_192">
    <path clip-path="url(#p53d882e64f)" d="M 573.358442 157.5 
L 575.290909 157.5 
L 575.290909 152.024761 
L 573.358442 152.024761 
z
" style="fill:#348abd;opacity:0.2;"/>
   </g>
   <g id="patch_193">
    <path clip-path="url(#p53d882e64f)" d="M 575.774026 157.5 
L 577.706494 157.5 
L 577.706494 152.785211 
L 575.774026 152.785211 
z
" style="fill:#348abd;opacity:0.2;"/>
   </g>
   <g id="patch_194">
    <path clip-path="url(#p53d882e64f)" d="M 578.18961 157.5 
L 580.122078 157.5 
L 580.122078 152.937301 
L 578.18961 152.937301 
z
" style="fill:#348abd;opacity:0.2;"/>
   </g>
   <g id="patch_195">
    <path clip-path="url(#p53d882e64f)" d="M 580.605195 157.5 
L 582.537662 157.5 
L 582.537662 154.001931 
L 580.605195 154.001931 
z
" style="fill:#348abd;opacity:0.2;"/>
   </g>
   <g id="patch_196">
    <path clip-path="url(#p53d882e64f)" d="M 583.020779 157.5 
L 584.953247 157.5 
L 584.953247 152.328941 
L 583.020779 152.328941 
z
" style="fill:#348abd;opacity:0.2;"/>
   </g>
   <g id="patch_197">
    <path clip-path="url(#p53d882e64f)" d="M 585.436364 157.5 
L 587.368831 157.5 
L 587.368831 152.481031 
L 585.436364 152.481031 
z
" style="fill:#348abd;opacity:0.2;"/>
   </g>
   <g id="patch_198">
    <path clip-path="url(#p53d882e64f)" d="M 587.851948 157.5 
L 589.784416 157.5 
L 589.784416 150.960131 
L 587.851948 150.960131 
z
" style="fill:#348abd;opacity:0.2;"/>
   </g>
   <g id="patch_199">
    <path clip-path="url(#p53d882e64f)" d="M 590.267532 157.5 
L 592.2 157.5 
L 592.2 154.4582 
L 590.267532 154.4582 
z
" style="fill:#348abd;opacity:0.2;"/>
   </g>
   <g id="patch_200">
    <path clip-path="url(#p53d882e64f)" d="M 592.683117 157.5 
L 594.615584 157.5 
L 594.615584 150.960131 
L 592.683117 150.960131 
z
" style="fill:#348abd;opacity:0.2;"/>
   </g>
   <g id="patch_201">
    <path clip-path="url(#p53d882e64f)" d="M 595.098701 157.5 
L 597.031169 157.5 
L 597.031169 152.024761 
L 595.098701 152.024761 
z
" style="fill:#348abd;opacity:0.2;"/>
   </g>
   <g id="patch_202">
    <path clip-path="url(#p53d882e64f)" d="M 597.514286 157.5 
L 599.446753 157.5 
L 599.446753 153.241481 
L 597.514286 153.241481 
z
" style="fill:#348abd;opacity:0.2;"/>
   </g>
   <g id="patch_203">
    <path clip-path="url(#p53d882e64f)" d="M 599.92987 157.5 
L 601.862338 157.5 
L 601.862338 152.328941 
L 599.92987 152.328941 
z
" style="fill:#348abd;opacity:0.2;"/>
   </g>
   <g id="patch_204">
    <path clip-path="url(#p53d882e64f)" d="M 602.345455 157.5 
L 604.277922 157.5 
L 604.277922 149.287141 
L 602.345455 149.287141 
z
" style="fill:#348abd;opacity:0.2;"/>
   </g>
   <g id="patch_205">
    <path clip-path="url(#p53d882e64f)" d="M 604.761039 157.5 
L 606.693506 157.5 
L 606.693506 148.982961 
L 604.761039 148.982961 
z
" style="fill:#348abd;opacity:0.2;"/>
   </g>
   <g id="patch_206">
    <path clip-path="url(#p53d882e64f)" d="M 607.176623 157.5 
L 609.109091 157.5 
L 609.109091 141.834732 
L 607.176623 141.834732 
z
" style="fill:#348abd;opacity:0.2;"/>
   </g>
   <g id="patch_207">
    <path clip-path="url(#p53d882e64f)" d="M 609.592208 157.5 
L 611.524675 157.5 
L 611.524675 132.253064 
L 609.592208 132.253064 
z
" style="fill:#348abd;opacity:0.2;"/>
   </g>
   <g id="patch_208">
    <path clip-path="url(#p53d882e64f)" d="M 612.007792 157.5 
L 613.94026 157.5 
L 613.94026 115.066896 
L 612.007792 115.066896 
z
" style="fill:#348abd;opacity:0.2;"/>
   </g>
   <g id="patch_209">
    <path clip-path="url(#p53d882e64f)" d="M 614.423377 157.5 
L 616.355844 157.5 
L 616.355844 127.538274 
L 614.423377 127.538274 
z
" style="fill:#348abd;opacity:0.2;"/>
   </g>
   <g id="patch_210">
    <path clip-path="url(#p53d882e64f)" d="M 616.838961 157.5 
L 618.771429 157.5 
L 618.771429 120.085865 
L 616.838961 120.085865 
z
" style="fill:#348abd;opacity:0.2;"/>
   </g>
   <g id="patch_211">
    <path clip-path="url(#p53d882e64f)" d="M 619.254545 157.5 
L 621.187013 157.5 
L 621.187013 112.329276 
L 619.254545 112.329276 
z
" style="fill:#348abd;opacity:0.2;"/>
   </g>
   <g id="patch_212">
    <path clip-path="url(#p53d882e64f)" d="M 621.67013 157.5 
L 623.602597 157.5 
L 623.602597 113.698086 
L 621.67013 113.698086 
z
" style="fill:#348abd;opacity:0.2;"/>
   </g>
   <g id="line2d_30">
    <path clip-path="url(#p53d882e64f)" d="M 117.779221 157.421369 
L 129.857143 157.359726 
L 144.350649 157.185659 
L 161.25974 157.336843 
L 170.922078 157.423917 
L 173.337662 157.276025 
L 175.753247 156.800635 
L 178.168831 155.591805 
L 180.584416 153.505335 
L 183 150.472901 
L 185.415584 146.760383 
L 187.831169 142.588503 
L 190.246753 137.631279 
L 192.662338 131.705469 
L 195.077922 124.099967 
L 197.493506 115.079513 
L 199.909091 105.269355 
L 202.324675 94.63871 
L 204.74026 84.677838 
L 207.155844 75.992014 
L 209.571429 69.559052 
L 211.987013 66.69531 
L 214.402597 67.166161 
L 216.818182 71.290572 
L 219.233766 78.304356 
L 221.649351 86.981495 
L 226.480519 106.312511 
L 228.896104 115.098599 
L 231.311688 123.012212 
L 233.727273 129.40564 
L 236.142857 134.567936 
L 238.558442 138.250956 
L 240.974026 140.316567 
L 243.38961 141.522824 
L 245.805195 142.083911 
L 250.636364 142.059005 
L 253.051948 141.706161 
L 255.467532 141.53635 
L 257.883117 141.665777 
L 260.298701 141.91562 
L 265.12987 142.609289 
L 267.545455 142.823832 
L 269.961039 142.833682 
L 279.623377 141.613496 
L 282.038961 141.842112 
L 284.454545 142.355954 
L 286.87013 143.064308 
L 289.285714 143.919414 
L 294.116883 146.081981 
L 301.363636 149.649825 
L 303.779221 150.673326 
L 306.194805 151.514781 
L 308.61039 152.17427 
L 313.441558 153.049949 
L 327.935065 155.030866 
L 332.766234 155.527774 
L 337.597403 155.771084 
L 364.168831 156.362921 
L 366.584416 156.164335 
L 371.415584 155.403348 
L 378.662338 153.941073 
L 381.077922 153.63785 
L 383.493506 153.529817 
L 385.909091 153.629439 
L 397.987013 154.597355 
L 402.818182 154.579125 
L 405.233766 154.472387 
L 407.649351 154.213236 
L 410.064935 153.794819 
L 419.727273 151.50865 
L 422.142857 151.177379 
L 424.558442 150.986144 
L 426.974026 150.950249 
L 434.220779 151.221008 
L 439.051948 150.968196 
L 446.298701 150.569559 
L 451.12987 150.498615 
L 463.207792 150.866799 
L 475.285714 150.426933 
L 477.701299 150.494239 
L 484.948052 150.990706 
L 487.363636 151.018183 
L 492.194805 150.726191 
L 499.441558 149.909422 
L 504.272727 149.416252 
L 509.103896 149.190412 
L 513.935065 149.229819 
L 518.766234 149.692743 
L 523.597403 150.20283 
L 528.428571 150.440181 
L 538.090909 150.499803 
L 542.922078 150.665571 
L 545.337662 150.676561 
L 547.753247 150.508788 
L 552.584416 149.786514 
L 555 149.384138 
L 557.415584 149.128884 
L 559.831169 149.127531 
L 562.246753 149.411047 
L 564.662338 149.939484 
L 571.909091 152.021381 
L 574.324675 152.490032 
L 576.74026 152.747941 
L 581.571429 152.765388 
L 591.233766 152.418078 
L 593.649351 152.244402 
L 596.064935 151.885109 
L 598.480519 151.138756 
L 600.896104 149.608409 
L 603.311688 147.223895 
L 605.727273 143.967333 
L 608.142857 139.92614 
L 615.38961 126.755072 
L 617.805195 123.20767 
L 620.220779 120.413619 
L 622.636364 118.910725 
L 622.636364 118.910725 
" style="fill:none;stroke:#348abd;stroke-linecap:square;stroke-width:3;"/>
   </g>
   <g id="patch_213">
    <path d="M 90 157.5 
L 90 21.6 
" style="fill:none;stroke:#ffffff;stroke-linecap:square;stroke-linejoin:miter;"/>
   </g>
   <g id="patch_214">
    <path d="M 648 157.5 
L 648 21.6 
" style="fill:none;stroke:#ffffff;stroke-linecap:square;stroke-linejoin:miter;"/>
   </g>
   <g id="patch_215">
    <path d="M 90 157.5 
L 648 157.5 
" style="fill:none;stroke:#ffffff;stroke-linecap:square;stroke-linejoin:miter;"/>
   </g>
   <g id="patch_216">
    <path d="M 90 21.6 
L 648 21.6 
" style="fill:none;stroke:#ffffff;stroke-linecap:square;stroke-linejoin:miter;"/>
   </g>
   <g id="legend_1">
    <g id="patch_217">
     <path d="M 416.470312 58.95625 
L 641 58.95625 
Q 643 58.95625 643 56.95625 
L 643 28.6 
Q 643 26.6 641 26.6 
L 416.470312 26.6 
Q 414.470312 26.6 414.470312 28.6 
L 414.470312 56.95625 
Q 414.470312 58.95625 416.470312 58.95625 
z
" style="fill:#e5e5e5;opacity:0.8;stroke:#cccccc;stroke-linejoin:miter;stroke-width:0.5;"/>
    </g>
    <g id="line2d_31">
     <path d="M 418.470312 34.698438 
L 438.470312 34.698438 
" style="fill:none;stroke:#348abd;stroke-linecap:square;stroke-width:3;"/>
    </g>
    <g id="line2d_32"/>
    <g id="text_19">
     <!-- Korea, South new cases (rolling mean) -->
     <defs>
      <path d="M 9.8125 72.90625 
L 19.671875 72.90625 
L 19.671875 42.09375 
L 52.390625 72.90625 
L 65.09375 72.90625 
L 28.90625 38.921875 
L 67.671875 0 
L 54.6875 0 
L 19.671875 35.109375 
L 19.671875 0 
L 9.8125 0 
z
" id="DejaVuSans-75"/>
      <path d="M 30.609375 48.390625 
Q 23.390625 48.390625 19.1875 42.75 
Q 14.984375 37.109375 14.984375 27.296875 
Q 14.984375 17.484375 19.15625 11.84375 
Q 23.34375 6.203125 30.609375 6.203125 
Q 37.796875 6.203125 41.984375 11.859375 
Q 46.1875 17.53125 46.1875 27.296875 
Q 46.1875 37.015625 41.984375 42.703125 
Q 37.796875 48.390625 30.609375 48.390625 
z
M 30.609375 56 
Q 42.328125 56 49.015625 48.375 
Q 55.71875 40.765625 55.71875 27.296875 
Q 55.71875 13.875 49.015625 6.21875 
Q 42.328125 -1.421875 30.609375 -1.421875 
Q 18.84375 -1.421875 12.171875 6.21875 
Q 5.515625 13.875 5.515625 27.296875 
Q 5.515625 40.765625 12.171875 48.375 
Q 18.84375 56 30.609375 56 
z
" id="DejaVuSans-111"/>
      <path d="M 41.109375 46.296875 
Q 39.59375 47.171875 37.8125 47.578125 
Q 36.03125 48 33.890625 48 
Q 26.265625 48 22.1875 43.046875 
Q 18.109375 38.09375 18.109375 28.8125 
L 18.109375 0 
L 9.078125 0 
L 9.078125 54.6875 
L 18.109375 54.6875 
L 18.109375 46.1875 
Q 20.953125 51.171875 25.484375 53.578125 
Q 30.03125 56 36.53125 56 
Q 37.453125 56 38.578125 55.875 
Q 39.703125 55.765625 41.0625 55.515625 
z
" id="DejaVuSans-114"/>
      <path d="M 11.71875 12.40625 
L 22.015625 12.40625 
L 22.015625 4 
L 14.015625 -11.625 
L 7.71875 -11.625 
L 11.71875 4 
z
" id="DejaVuSans-44"/>
      <path d="M 53.515625 70.515625 
L 53.515625 60.890625 
Q 47.90625 63.578125 42.921875 64.890625 
Q 37.9375 66.21875 33.296875 66.21875 
Q 25.25 66.21875 20.875 63.09375 
Q 16.5 59.96875 16.5 54.203125 
Q 16.5 49.359375 19.40625 46.890625 
Q 22.3125 44.4375 30.421875 42.921875 
L 36.375 41.703125 
Q 47.40625 39.59375 52.65625 34.296875 
Q 57.90625 29 57.90625 20.125 
Q 57.90625 9.515625 50.796875 4.046875 
Q 43.703125 -1.421875 29.984375 -1.421875 
Q 24.8125 -1.421875 18.96875 -0.25 
Q 13.140625 0.921875 6.890625 3.21875 
L 6.890625 13.375 
Q 12.890625 10.015625 18.65625 8.296875 
Q 24.421875 6.59375 29.984375 6.59375 
Q 38.421875 6.59375 43.015625 9.90625 
Q 47.609375 13.234375 47.609375 19.390625 
Q 47.609375 24.75 44.3125 27.78125 
Q 41.015625 30.8125 33.5 32.328125 
L 27.484375 33.5 
Q 16.453125 35.6875 11.515625 40.375 
Q 6.59375 45.0625 6.59375 53.421875 
Q 6.59375 63.09375 13.40625 68.65625 
Q 20.21875 74.21875 32.171875 74.21875 
Q 37.3125 74.21875 42.625 73.28125 
Q 47.953125 72.359375 53.515625 70.515625 
z
" id="DejaVuSans-83"/>
      <path d="M 8.5 21.578125 
L 8.5 54.6875 
L 17.484375 54.6875 
L 17.484375 21.921875 
Q 17.484375 14.15625 20.5 10.265625 
Q 23.53125 6.390625 29.59375 6.390625 
Q 36.859375 6.390625 41.078125 11.03125 
Q 45.3125 15.671875 45.3125 23.6875 
L 45.3125 54.6875 
L 54.296875 54.6875 
L 54.296875 0 
L 45.3125 0 
L 45.3125 8.40625 
Q 42.046875 3.421875 37.71875 1 
Q 33.40625 -1.421875 27.6875 -1.421875 
Q 18.265625 -1.421875 13.375 4.4375 
Q 8.5 10.296875 8.5 21.578125 
z
M 31.109375 56 
z
" id="DejaVuSans-117"/>
      <path d="M 18.3125 70.21875 
L 18.3125 54.6875 
L 36.8125 54.6875 
L 36.8125 47.703125 
L 18.3125 47.703125 
L 18.3125 18.015625 
Q 18.3125 11.328125 20.140625 9.421875 
Q 21.96875 7.515625 27.59375 7.515625 
L 36.8125 7.515625 
L 36.8125 0 
L 27.59375 0 
Q 17.1875 0 13.234375 3.875 
Q 9.28125 7.765625 9.28125 18.015625 
L 9.28125 47.703125 
L 2.6875 47.703125 
L 2.6875 54.6875 
L 9.28125 54.6875 
L 9.28125 70.21875 
z
" id="DejaVuSans-116"/>
      <path d="M 4.203125 54.6875 
L 13.1875 54.6875 
L 24.421875 12.015625 
L 35.59375 54.6875 
L 46.1875 54.6875 
L 57.421875 12.015625 
L 68.609375 54.6875 
L 77.59375 54.6875 
L 63.28125 0 
L 52.6875 0 
L 40.921875 44.828125 
L 29.109375 0 
L 18.5 0 
z
" id="DejaVuSans-119"/>
      <path d="M 44.28125 53.078125 
L 44.28125 44.578125 
Q 40.484375 46.53125 36.375 47.5 
Q 32.28125 48.484375 27.875 48.484375 
Q 21.1875 48.484375 17.84375 46.4375 
Q 14.5 44.390625 14.5 40.28125 
Q 14.5 37.15625 16.890625 35.375 
Q 19.28125 33.59375 26.515625 31.984375 
L 29.59375 31.296875 
Q 39.15625 29.25 43.1875 25.515625 
Q 47.21875 21.78125 47.21875 15.09375 
Q 47.21875 7.46875 41.1875 3.015625 
Q 35.15625 -1.421875 24.609375 -1.421875 
Q 20.21875 -1.421875 15.453125 -0.5625 
Q 10.6875 0.296875 5.421875 2 
L 5.421875 11.28125 
Q 10.40625 8.6875 15.234375 7.390625 
Q 20.0625 6.109375 24.8125 6.109375 
Q 31.15625 6.109375 34.5625 8.28125 
Q 37.984375 10.453125 37.984375 14.40625 
Q 37.984375 18.0625 35.515625 20.015625 
Q 33.0625 21.96875 24.703125 23.78125 
L 21.578125 24.515625 
Q 13.234375 26.265625 9.515625 29.90625 
Q 5.8125 33.546875 5.8125 39.890625 
Q 5.8125 47.609375 11.28125 51.796875 
Q 16.75 56 26.8125 56 
Q 31.78125 56 36.171875 55.265625 
Q 40.578125 54.546875 44.28125 53.078125 
z
" id="DejaVuSans-115"/>
      <path d="M 31 75.875 
Q 24.46875 64.65625 21.28125 53.65625 
Q 18.109375 42.671875 18.109375 31.390625 
Q 18.109375 20.125 21.3125 9.0625 
Q 24.515625 -2 31 -13.1875 
L 23.1875 -13.1875 
Q 15.875 -1.703125 12.234375 9.375 
Q 8.59375 20.453125 8.59375 31.390625 
Q 8.59375 42.28125 12.203125 53.3125 
Q 15.828125 64.359375 23.1875 75.875 
z
" id="DejaVuSans-40"/>
      <path d="M 52 44.1875 
Q 55.375 50.25 60.0625 53.125 
Q 64.75 56 71.09375 56 
Q 79.640625 56 84.28125 50.015625 
Q 88.921875 44.046875 88.921875 33.015625 
L 88.921875 0 
L 79.890625 0 
L 79.890625 32.71875 
Q 79.890625 40.578125 77.09375 44.375 
Q 74.3125 48.1875 68.609375 48.1875 
Q 61.625 48.1875 57.5625 43.546875 
Q 53.515625 38.921875 53.515625 30.90625 
L 53.515625 0 
L 44.484375 0 
L 44.484375 32.71875 
Q 44.484375 40.625 41.703125 44.40625 
Q 38.921875 48.1875 33.109375 48.1875 
Q 26.21875 48.1875 22.15625 43.53125 
Q 18.109375 38.875 18.109375 30.90625 
L 18.109375 0 
L 9.078125 0 
L 9.078125 54.6875 
L 18.109375 54.6875 
L 18.109375 46.1875 
Q 21.1875 51.21875 25.484375 53.609375 
Q 29.78125 56 35.6875 56 
Q 41.65625 56 45.828125 52.96875 
Q 50 49.953125 52 44.1875 
z
" id="DejaVuSans-109"/>
      <path d="M 8.015625 75.875 
L 15.828125 75.875 
Q 23.140625 64.359375 26.78125 53.3125 
Q 30.421875 42.28125 30.421875 31.390625 
Q 30.421875 20.453125 26.78125 9.375 
Q 23.140625 -1.703125 15.828125 -13.1875 
L 8.015625 -13.1875 
Q 14.5 -2 17.703125 9.0625 
Q 20.90625 20.125 20.90625 31.390625 
Q 20.90625 42.671875 17.703125 53.65625 
Q 14.5 64.65625 8.015625 75.875 
z
" id="DejaVuSans-41"/>
     </defs>
     <g transform="translate(446.470312 38.198438)scale(0.1 -0.1)">
      <use xlink:href="#DejaVuSans-75"/>
      <use x="60.576172" xlink:href="#DejaVuSans-111"/>
      <use x="121.757812" xlink:href="#DejaVuSans-114"/>
      <use x="160.621094" xlink:href="#DejaVuSans-101"/>
      <use x="222.144531" xlink:href="#DejaVuSans-97"/>
      <use x="283.423828" xlink:href="#DejaVuSans-44"/>
      <use x="315.210938" xlink:href="#DejaVuSans-32"/>
      <use x="346.998047" xlink:href="#DejaVuSans-83"/>
      <use x="410.474609" xlink:href="#DejaVuSans-111"/>
      <use x="471.65625" xlink:href="#DejaVuSans-117"/>
      <use x="535.035156" xlink:href="#DejaVuSans-116"/>
      <use x="574.244141" xlink:href="#DejaVuSans-104"/>
      <use x="637.623047" xlink:href="#DejaVuSans-32"/>
      <use x="669.410156" xlink:href="#DejaVuSans-110"/>
      <use x="732.789062" xlink:href="#DejaVuSans-101"/>
      <use x="794.3125" xlink:href="#DejaVuSans-119"/>
      <use x="876.099609" xlink:href="#DejaVuSans-32"/>
      <use x="907.886719" xlink:href="#DejaVuSans-99"/>
      <use x="962.867188" xlink:href="#DejaVuSans-97"/>
      <use x="1024.146484" xlink:href="#DejaVuSans-115"/>
      <use x="1076.246094" xlink:href="#DejaVuSans-101"/>
      <use x="1137.769531" xlink:href="#DejaVuSans-115"/>
      <use x="1189.869141" xlink:href="#DejaVuSans-32"/>
      <use x="1221.65625" xlink:href="#DejaVuSans-40"/>
      <use x="1260.669922" xlink:href="#DejaVuSans-114"/>
      <use x="1299.533203" xlink:href="#DejaVuSans-111"/>
      <use x="1360.714844" xlink:href="#DejaVuSans-108"/>
      <use x="1388.498047" xlink:href="#DejaVuSans-108"/>
      <use x="1416.28125" xlink:href="#DejaVuSans-105"/>
      <use x="1444.064453" xlink:href="#DejaVuSans-110"/>
      <use x="1507.443359" xlink:href="#DejaVuSans-103"/>
      <use x="1570.919922" xlink:href="#DejaVuSans-32"/>
      <use x="1602.707031" xlink:href="#DejaVuSans-109"/>
      <use x="1700.119141" xlink:href="#DejaVuSans-101"/>
      <use x="1761.642578" xlink:href="#DejaVuSans-97"/>
      <use x="1822.921875" xlink:href="#DejaVuSans-110"/>
      <use x="1886.300781" xlink:href="#DejaVuSans-41"/>
     </g>
    </g>
    <g id="patch_218">
     <path d="M 418.470312 52.876563 
L 438.470312 52.876563 
L 438.470312 45.876563 
L 418.470312 45.876563 
z
" style="fill:#348abd;opacity:0.2;"/>
    </g>
    <g id="text_20">
     <!-- Korea, South new cases -->
     <g transform="translate(446.470312 52.876563)scale(0.1 -0.1)">
      <use xlink:href="#DejaVuSans-75"/>
      <use x="60.576172" xlink:href="#DejaVuSans-111"/>
      <use x="121.757812" xlink:href="#DejaVuSans-114"/>
      <use x="160.621094" xlink:href="#DejaVuSans-101"/>
      <use x="222.144531" xlink:href="#DejaVuSans-97"/>
      <use x="283.423828" xlink:href="#DejaVuSans-44"/>
      <use x="315.210938" xlink:href="#DejaVuSans-32"/>
      <use x="346.998047" xlink:href="#DejaVuSans-83"/>
      <use x="410.474609" xlink:href="#DejaVuSans-111"/>
      <use x="471.65625" xlink:href="#DejaVuSans-117"/>
      <use x="535.035156" xlink:href="#DejaVuSans-116"/>
      <use x="574.244141" xlink:href="#DejaVuSans-104"/>
      <use x="637.623047" xlink:href="#DejaVuSans-32"/>
      <use x="669.410156" xlink:href="#DejaVuSans-110"/>
      <use x="732.789062" xlink:href="#DejaVuSans-101"/>
      <use x="794.3125" xlink:href="#DejaVuSans-119"/>
      <use x="876.099609" xlink:href="#DejaVuSans-32"/>
      <use x="907.886719" xlink:href="#DejaVuSans-99"/>
      <use x="962.867188" xlink:href="#DejaVuSans-97"/>
      <use x="1024.146484" xlink:href="#DejaVuSans-115"/>
      <use x="1076.246094" xlink:href="#DejaVuSans-101"/>
      <use x="1137.769531" xlink:href="#DejaVuSans-115"/>
     </g>
    </g>
   </g>
  </g>
 </g>
 <defs>
  <clipPath id="p53d882e64f">
   <rect height="135.9" width="558" x="90" y="21.6"/>
  </clipPath>
 </defs>
</svg>
