<?xml version="1.0" encoding="utf-8" standalone="no"?>
<!DOCTYPE svg PUBLIC "-//W3C//DTD SVG 1.1//EN"
  "http://www.w3.org/Graphics/SVG/1.1/DTD/svg11.dtd">
<svg height="432pt" version="1.1" viewBox="0 0 720 432" width="720pt" xmlns="http://www.w3.org/2000/svg" xmlns:xlink="http://www.w3.org/1999/xlink">
 <metadata>
  <rdf:RDF xmlns:cc="http://creativecommons.org/ns#" xmlns:dc="http://purl.org/dc/elements/1.1/" xmlns:rdf="http://www.w3.org/1999/02/22-rdf-syntax-ns#">
   <cc:Work>
    <dc:type rdf:resource="http://purl.org/dc/dcmitype/StillImage"/>
    <dc:date>2021-11-15T14:59:18.492294</dc:date>
    <dc:format>image/svg+xml</dc:format>
    <dc:creator>
     <cc:Agent>
      <dc:title>Matplotlib v3.4.3, https://matplotlib.org/</dc:title>
     </cc:Agent>
    </dc:creator>
   </cc:Work>
  </rdf:RDF>
 </metadata>
 <defs>
  <style type="text/css">*{stroke-linecap:butt;stroke-linejoin:round;}</style>
 </defs>
 <g id="figure_1">
  <g id="patch_1">
   <path d="M 0 432 
L 720 432 
L 720 0 
L 0 0 
z
" style="fill:#ffffff;"/>
  </g>
  <g id="axes_1">
   <g id="patch_2">
    <path d="M 90 200.094545 
L 648 200.094545 
L 648 51.84 
L 90 51.84 
z
" style="fill:#e5e5e5;"/>
   </g>
   <g id="matplotlib.axis_1">
    <g id="xtick_1">
     <g id="line2d_1">
      <path clip-path="url(#p4e7e5f4297)" d="M 96.090356 200.094545 
L 96.090356 51.84 
" style="fill:none;stroke:#ffffff;stroke-linecap:square;stroke-width:0.8;"/>
     </g>
     <g id="line2d_2">
      <defs>
       <path d="M 0 0 
L 0 3.5 
" id="m390f9e6d93" style="stroke:#555555;stroke-width:0.8;"/>
      </defs>
      <g>
       <use style="fill:#555555;stroke:#555555;stroke-width:0.8;" x="96.090356" xlink:href="#m390f9e6d93" y="200.094545"/>
      </g>
     </g>
     <g id="text_1">
      <text style="fill:#555555;font-family:DejaVu Sans;font-size:10px;font-stretch:normal;font-style:normal;font-weight:normal;text-anchor:middle;" transform="rotate(-0, 96.090356, 214.692983)" x="96.090356" y="214.692983">2020-01</text>
     </g>
    </g>
    <g id="xtick_2">
     <g id="line2d_3">
      <path clip-path="url(#p4e7e5f4297)" d="M 166.245095 200.094545 
L 166.245095 51.84 
" style="fill:none;stroke:#ffffff;stroke-linecap:square;stroke-width:0.8;"/>
     </g>
     <g id="line2d_4">
      <g>
       <use style="fill:#555555;stroke:#555555;stroke-width:0.8;" x="166.245095" xlink:href="#m390f9e6d93" y="200.094545"/>
      </g>
     </g>
     <g id="text_2">
      <text style="fill:#555555;font-family:DejaVu Sans;font-size:10px;font-stretch:normal;font-style:normal;font-weight:normal;text-anchor:middle;" transform="rotate(-0, 166.245095, 214.692983)" x="166.245095" y="214.692983">2020-04</text>
     </g>
    </g>
    <g id="xtick_3">
     <g id="line2d_5">
      <path clip-path="url(#p4e7e5f4297)" d="M 236.399834 200.094545 
L 236.399834 51.84 
" style="fill:none;stroke:#ffffff;stroke-linecap:square;stroke-width:0.8;"/>
     </g>
     <g id="line2d_6">
      <g>
       <use style="fill:#555555;stroke:#555555;stroke-width:0.8;" x="236.399834" xlink:href="#m390f9e6d93" y="200.094545"/>
      </g>
     </g>
     <g id="text_3">
      <text style="fill:#555555;font-family:DejaVu Sans;font-size:10px;font-stretch:normal;font-style:normal;font-weight:normal;text-anchor:middle;" transform="rotate(-0, 236.399834, 214.692983)" x="236.399834" y="214.692983">2020-07</text>
     </g>
    </g>
    <g id="xtick_4">
     <g id="line2d_7">
      <path clip-path="url(#p4e7e5f4297)" d="M 307.325504 200.094545 
L 307.325504 51.84 
" style="fill:none;stroke:#ffffff;stroke-linecap:square;stroke-width:0.8;"/>
     </g>
     <g id="line2d_8">
      <g>
       <use style="fill:#555555;stroke:#555555;stroke-width:0.8;" x="307.325504" xlink:href="#m390f9e6d93" y="200.094545"/>
      </g>
     </g>
     <g id="text_4">
      <text style="fill:#555555;font-family:DejaVu Sans;font-size:10px;font-stretch:normal;font-style:normal;font-weight:normal;text-anchor:middle;" transform="rotate(-0, 307.325504, 214.692983)" x="307.325504" y="214.692983">2020-10</text>
     </g>
    </g>
    <g id="xtick_5">
     <g id="line2d_9">
      <path clip-path="url(#p4e7e5f4297)" d="M 378.251174 200.094545 
L 378.251174 51.84 
" style="fill:none;stroke:#ffffff;stroke-linecap:square;stroke-width:0.8;"/>
     </g>
     <g id="line2d_10">
      <g>
       <use style="fill:#555555;stroke:#555555;stroke-width:0.8;" x="378.251174" xlink:href="#m390f9e6d93" y="200.094545"/>
      </g>
     </g>
     <g id="text_5">
      <text style="fill:#555555;font-family:DejaVu Sans;font-size:10px;font-stretch:normal;font-style:normal;font-weight:normal;text-anchor:middle;" transform="rotate(-0, 378.251174, 214.692983)" x="378.251174" y="214.692983">2021-01</text>
     </g>
    </g>
    <g id="xtick_6">
     <g id="line2d_11">
      <path clip-path="url(#p4e7e5f4297)" d="M 447.634982 200.094545 
L 447.634982 51.84 
" style="fill:none;stroke:#ffffff;stroke-linecap:square;stroke-width:0.8;"/>
     </g>
     <g id="line2d_12">
      <g>
       <use style="fill:#555555;stroke:#555555;stroke-width:0.8;" x="447.634982" xlink:href="#m390f9e6d93" y="200.094545"/>
      </g>
     </g>
     <g id="text_6">
      <text style="fill:#555555;font-family:DejaVu Sans;font-size:10px;font-stretch:normal;font-style:normal;font-weight:normal;text-anchor:middle;" transform="rotate(-0, 447.634982, 214.692983)" x="447.634982" y="214.692983">2021-04</text>
     </g>
    </g>
    <g id="xtick_7">
     <g id="line2d_13">
      <path clip-path="url(#p4e7e5f4297)" d="M 517.789721 200.094545 
L 517.789721 51.84 
" style="fill:none;stroke:#ffffff;stroke-linecap:square;stroke-width:0.8;"/>
     </g>
     <g id="line2d_14">
      <g>
       <use style="fill:#555555;stroke:#555555;stroke-width:0.8;" x="517.789721" xlink:href="#m390f9e6d93" y="200.094545"/>
      </g>
     </g>
     <g id="text_7">
      <text style="fill:#555555;font-family:DejaVu Sans;font-size:10px;font-stretch:normal;font-style:normal;font-weight:normal;text-anchor:middle;" transform="rotate(-0, 517.789721, 214.692983)" x="517.789721" y="214.692983">2021-07</text>
     </g>
    </g>
    <g id="xtick_8">
     <g id="line2d_15">
      <path clip-path="url(#p4e7e5f4297)" d="M 588.715391 200.094545 
L 588.715391 51.84 
" style="fill:none;stroke:#ffffff;stroke-linecap:square;stroke-width:0.8;"/>
     </g>
     <g id="line2d_16">
      <g>
       <use style="fill:#555555;stroke:#555555;stroke-width:0.8;" x="588.715391" xlink:href="#m390f9e6d93" y="200.094545"/>
      </g>
     </g>
     <g id="text_8">
      <text style="fill:#555555;font-family:DejaVu Sans;font-size:10px;font-stretch:normal;font-style:normal;font-weight:normal;text-anchor:middle;" transform="rotate(-0, 588.715391, 214.692983)" x="588.715391" y="214.692983">2021-10</text>
     </g>
    </g>
   </g>
   <g id="matplotlib.axis_2">
    <g id="ytick_1">
     <g id="line2d_17">
      <path clip-path="url(#p4e7e5f4297)" d="M 90 164.389375 
L 648 164.389375 
" style="fill:none;stroke:#ffffff;stroke-linecap:square;stroke-width:0.8;"/>
     </g>
     <g id="line2d_18">
      <defs>
       <path d="M 0 0 
L -3.5 0 
" id="m47adca8f9d" style="stroke:#555555;stroke-width:0.8;"/>
      </defs>
      <g>
       <use style="fill:#555555;stroke:#555555;stroke-width:0.8;" x="90" xlink:href="#m47adca8f9d" y="164.389375"/>
      </g>
     </g>
     <g id="line2d_19">
      <defs>
       <path d="M 0 0 
L 3.5 0 
" id="m5e4a23d555" style="stroke:#555555;stroke-width:0.8;"/>
      </defs>
      <g>
       <use style="fill:#555555;stroke:#555555;stroke-width:0.8;" x="648" xlink:href="#m5e4a23d555" y="164.389375"/>
      </g>
     </g>
     <g id="text_9">
      <text style="fill:#555555;font-family:DejaVu Sans;font-size:10px;font-stretch:normal;font-style:normal;font-weight:normal;text-anchor:end;" transform="rotate(-0, 83, 168.188594)" x="83" y="168.188594">0.001</text>
     </g>
     <g id="text_10">
      <text style="fill:#555555;font-family:DejaVu Sans;font-size:10px;font-stretch:normal;font-style:normal;font-weight:normal;text-anchor:start;" transform="rotate(-0, 655, 168.188594)" x="655" y="168.188594">0.001</text>
     </g>
    </g>
    <g id="ytick_2">
     <g id="line2d_20">
      <path clip-path="url(#p4e7e5f4297)" d="M 90 121.882756 
L 648 121.882756 
" style="fill:none;stroke:#ffffff;stroke-linecap:square;stroke-width:0.8;"/>
     </g>
     <g id="line2d_21">
      <g>
       <use style="fill:#555555;stroke:#555555;stroke-width:0.8;" x="90" xlink:href="#m47adca8f9d" y="121.882756"/>
      </g>
     </g>
     <g id="line2d_22">
      <g>
       <use style="fill:#555555;stroke:#555555;stroke-width:0.8;" x="648" xlink:href="#m5e4a23d555" y="121.882756"/>
      </g>
     </g>
     <g id="text_11">
      <text style="fill:#555555;font-family:DejaVu Sans;font-size:10px;font-stretch:normal;font-style:normal;font-weight:normal;text-anchor:end;" transform="rotate(-0, 83, 125.681975)" x="83" y="125.681975">0.1</text>
     </g>
     <g id="text_12">
      <text style="fill:#555555;font-family:DejaVu Sans;font-size:10px;font-stretch:normal;font-style:normal;font-weight:normal;text-anchor:start;" transform="rotate(-0, 655, 125.681975)" x="655" y="125.681975">0.1</text>
     </g>
    </g>
    <g id="ytick_3">
     <g id="line2d_23">
      <path clip-path="url(#p4e7e5f4297)" d="M 90 79.376136 
L 648 79.376136 
" style="fill:none;stroke:#ffffff;stroke-linecap:square;stroke-width:0.8;"/>
     </g>
     <g id="line2d_24">
      <g>
       <use style="fill:#555555;stroke:#555555;stroke-width:0.8;" x="90" xlink:href="#m47adca8f9d" y="79.376136"/>
      </g>
     </g>
     <g id="line2d_25">
      <g>
       <use style="fill:#555555;stroke:#555555;stroke-width:0.8;" x="648" xlink:href="#m5e4a23d555" y="79.376136"/>
      </g>
     </g>
     <g id="text_13">
      <text style="fill:#555555;font-family:DejaVu Sans;font-size:10px;font-stretch:normal;font-style:normal;font-weight:normal;text-anchor:end;" transform="rotate(-0, 83, 83.175355)" x="83" y="83.175355">10</text>
     </g>
     <g id="text_14">
      <text style="fill:#555555;font-family:DejaVu Sans;font-size:10px;font-stretch:normal;font-style:normal;font-weight:normal;text-anchor:start;" transform="rotate(-0, 655, 83.175355)" x="655" y="83.175355">10</text>
     </g>
    </g>
    <g id="text_15">
     <text style="fill:#555555;font-family:DejaVu Sans;font-size:12px;font-stretch:normal;font-style:normal;font-weight:normal;" transform="translate(21.0015 173.472273)rotate(-90)">daily new cases</text>
     <text style="fill:#555555;font-family:DejaVu Sans;font-size:12px;font-stretch:normal;font-style:normal;font-weight:normal;" transform="translate(34.438875 175.47571)rotate(-90)">per 100K people</text>
     <text style="fill:#555555;font-family:DejaVu Sans;font-size:12px;font-stretch:normal;font-style:normal;font-weight:normal;" transform="translate(47.87625 187.112898)rotate(-90)">(rolling 7-day mean)</text>
    </g>
   </g>
   <g id="line2d_26">
    <path clip-path="url(#p4e7e5f4297)" d="M 115.363636 166.043588 
L 116.134568 166.043588 
L 116.905499 155.903182 
L 117.67643 154.930684 
L 118.447361 153.24782 
L 119.218292 154.050952 
L 119.989224 153.24782 
L 121.531086 149.006247 
L 122.302017 152.509011 
L 123.072948 153.24782 
L 123.84388 154.930684 
L 124.614811 153.24782 
L 125.385742 153.24782 
L 126.156673 155.903182 
L 126.927604 161.328568 
L 127.698536 163.388226 
L 129.240398 163.388226 
L 130.011329 166.043588 
L 131.553191 166.043588 
L 132.324123 136.21048 
L 133.865985 120.766945 
L 135.407847 114.449175 
L 136.178779 112.936458 
L 139.262503 103.198223 
L 140.033435 101.880319 
L 140.804366 100.855545 
L 141.575297 99.158197 
L 142.346228 98.83286 
L 143.888091 99.055698 
L 145.429953 100.657375 
L 146.200884 101.85385 
L 146.971815 104.628428 
L 147.742747 105.427594 
L 148.513678 107.096627 
L 150.826471 113.94589 
L 151.597403 114.981492 
L 152.368334 114.40331 
L 153.139265 116.287366 
L 153.910196 115.769139 
L 154.681127 116.079314 
L 155.452059 115.546398 
L 156.22299 114.495268 
L 156.993921 115.392344 
L 157.764852 115.494761 
L 158.535783 115.405084 
L 159.306715 116.03826 
L 160.848577 115.997388 
L 161.619508 116.806701 
L 162.390439 115.716244 
L 163.161371 115.091741 
L 163.932302 115.079426 
L 164.703233 115.265901 
L 165.474164 115.328906 
L 166.245095 116.010992 
L 167.786958 116.791874 
L 168.557889 118.026511 
L 170.099751 119.856187 
L 170.870683 121.162751 
L 172.412545 124.340101 
L 173.954407 125.869845 
L 174.725338 126.961959 
L 175.49627 127.752938 
L 176.267201 127.999091 
L 177.038132 128.618107 
L 177.809063 129.996593 
L 178.579994 130.77161 
L 180.121857 133.404541 
L 180.892788 134.150821 
L 181.663719 135.397233 
L 182.43465 136.332736 
L 183.205582 136.089822 
L 183.976513 135.970721 
L 184.747444 135.970721 
L 185.518375 136.838627 
L 187.060238 138.089738 
L 187.831169 137.653585 
L 188.6021 137.942052 
L 189.373031 139.713243 
L 190.143962 141.047756 
L 190.914894 141.047756 
L 191.685825 140.452053 
L 192.456756 138.392394 
L 193.998618 132.967009 
L 194.76955 131.114779 
L 196.311412 128.200852 
L 197.082343 127.465966 
L 197.853274 127.418992 
L 200.166068 130.440743 
L 200.936999 130.058749 
L 201.70793 131.184971 
L 202.478862 131.691854 
L 203.249793 131.398808 
L 204.020724 130.57167 
L 204.791655 130.505974 
L 206.333518 129.632196 
L 207.104449 126.316227 
L 207.87538 124.857817 
L 208.646311 124.306597 
L 209.417242 124.239953 
L 210.959105 123.05737 
L 211.730036 122.798159 
L 212.500967 124.010416 
L 213.271898 124.647233 
L 214.04283 124.239953 
L 214.813761 123.294055 
L 216.355623 123.204585 
L 217.126554 123.174954 
L 217.897485 122.999135 
L 218.668417 122.518434 
L 219.439348 122.601465 
L 220.210279 123.264135 
L 221.752141 123.445125 
L 222.523073 123.660866 
L 223.294004 123.234312 
L 224.064935 123.445125 
L 224.835866 122.883756 
L 225.606797 122.490923 
L 226.377729 123.028207 
L 227.919591 122.463493 
L 228.690522 123.354186 
L 229.461453 123.660866 
L 230.232385 124.173786 
L 231.003316 123.723443 
L 231.774247 122.970155 
L 233.316109 123.086626 
L 234.857972 121.72679 
L 235.628903 121.428213 
L 236.399834 121.452729 
L 237.941697 121.330796 
L 238.712628 121.021109 
L 239.483559 121.138993 
L 240.25449 121.576294 
L 241.025421 122.300603 
L 241.796353 122.769802 
L 242.567284 122.327552 
L 243.338215 122.629309 
L 244.109146 123.324072 
L 245.651009 122.546028 
L 246.42194 122.436144 
L 247.192871 122.713348 
L 247.963802 123.786448 
L 248.734733 123.414712 
L 249.505665 122.713348 
L 250.276596 122.769802 
L 251.047527 123.324072 
L 251.818458 121.330796 
L 252.589389 120.766945 
L 253.360321 120.789763 
L 254.902183 121.551449 
L 255.673114 122.629309 
L 256.444045 122.769802 
L 257.214977 125.444058 
L 257.985908 126.569125 
L 258.756839 126.654988 
L 259.52777 126.399759 
L 260.298701 127.051573 
L 261.069632 125.989461 
L 261.840564 126.654988 
L 262.611495 126.151398 
L 264.153357 125.712732 
L 264.924288 125.712732 
L 265.69522 124.929093 
L 266.466151 124.475344 
L 268.008013 119.256613 
L 268.778944 115.456221 
L 271.091738 109.695155 
L 271.862669 108.225341 
L 272.6336 107.014076 
L 273.404532 106.198539 
L 274.175463 105.65973 
L 274.946394 105.358647 
L 276.488256 105.117127 
L 277.259188 104.49845 
L 278.030119 104.316435 
L 278.80105 104.351012 
L 279.571981 104.736151 
L 281.113844 104.992505 
L 281.884775 105.213823 
L 282.655706 106.316846 
L 285.739431 109.66088 
L 286.510362 110.364406 
L 287.281293 111.222748 
L 288.052224 111.552728 
L 289.594087 112.01778 
L 290.365018 112.433299 
L 291.135949 112.526159 
L 291.90688 112.810479 
L 292.677812 113.233912 
L 293.448743 113.254087 
L 294.219674 113.773358 
L 294.990605 114.055383 
L 296.532468 114.95717 
L 297.303399 115.520543 
L 298.07433 115.559353 
L 298.845261 115.929668 
L 299.616192 116.093039 
L 300.387124 116.791874 
L 301.158055 116.601251 
L 302.699917 117.247404 
L 303.470848 117.200825 
L 305.012711 118.877496 
L 305.783642 118.621086 
L 306.554573 119.198743 
L 307.325504 118.766733 
L 308.096435 118.111583 
L 308.867367 118.094506 
L 311.951091 118.549115 
L 313.492954 117.677534 
L 314.263885 118.180209 
L 315.034816 117.677534 
L 315.805747 117.7924 
L 316.576679 117.775902 
L 317.34761 117.247404 
L 318.118541 117.580202 
L 318.889472 118.319012 
L 319.660403 118.197446 
L 320.431335 117.858685 
L 321.202266 116.217493 
L 321.973197 116.161973 
L 322.744128 116.58675 
L 323.515059 115.983805 
L 324.285991 115.585317 
L 325.827853 115.354229 
L 326.598784 115.889274 
L 328.140647 114.495268 
L 329.682509 114.908718 
L 330.45344 114.729253 
L 331.224371 114.729253 
L 331.995303 114.369061 
L 332.766234 114.80062 
L 334.308096 114.244556 
L 336.62089 113.478976 
L 337.391821 113.014846 
L 338.162752 111.938626 
L 338.933683 111.386264 
L 339.704615 110.618945 
L 341.246477 108.607995 
L 342.017408 107.461337 
L 343.559271 105.730971 
L 344.330202 105.201153 
L 345.101133 105.000761 
L 345.872064 104.518027 
L 346.642995 104.251474 
L 347.413926 103.380054 
L 348.184858 102.692559 
L 352.039514 101.052677 
L 352.810445 101.16919 
L 354.352307 100.755928 
L 357.436032 99.027548 
L 358.206963 98.75906 
L 358.977894 98.635975 
L 360.519757 97.171191 
L 361.290688 96.990836 
L 362.061619 96.50777 
L 363.603482 95.355201 
L 364.374413 94.827376 
L 367.458138 94.337209 
L 369 94.358045 
L 369.770931 94.132671 
L 370.541862 94.035224 
L 372.083725 94.346319 
L 372.854656 94.119957 
L 374.396518 94.193942 
L 375.16745 94.464253 
L 376.709312 95.330543 
L 377.480243 95.028447 
L 378.251174 95.503075 
L 379.022106 95.816807 
L 379.793037 95.969223 
L 380.563968 96.540741 
L 381.334899 96.848023 
L 382.10583 96.824151 
L 382.876762 97.849783 
L 383.647693 98.194914 
L 384.418624 98.761161 
L 385.189555 99.531885 
L 385.960486 99.902308 
L 386.731418 100.050876 
L 387.502349 100.407964 
L 388.27328 100.562416 
L 391.357005 102.219273 
L 392.898867 103.106951 
L 393.669798 102.946886 
L 394.440729 103.053287 
L 395.211661 102.561632 
L 396.753523 101.883265 
L 397.524454 101.809904 
L 398.295385 101.918686 
L 399.066317 102.323743 
L 399.837248 102.379534 
L 400.608179 102.654046 
L 401.37911 102.802559 
L 402.920973 103.345471 
L 404.462835 103.335121 
L 406.004697 103.537301 
L 407.54656 103.235668 
L 409.088422 103.502125 
L 409.859353 103.311017 
L 412.172147 101.883265 
L 412.943078 101.429135 
L 414.484941 100.948258 
L 415.255872 100.980261 
L 416.026803 101.248608 
L 416.797734 101.763257 
L 417.568665 102.441921 
L 418.339597 102.940277 
L 419.881459 103.311017 
L 420.65239 103.232258 
L 422.194253 103.269841 
L 422.965184 103.174473 
L 424.507046 103.140651 
L 425.277977 102.936974 
L 426.048909 102.966743 
L 426.81984 102.625267 
L 428.361702 102.413795 
L 429.903565 101.918686 
L 431.445427 101.687956 
L 432.216358 101.930523 
L 433.758221 101.99292 
L 436.071014 102.191815 
L 436.841945 102.106912 
L 439.92567 102.243748 
L 441.467532 102.004853 
L 442.238464 102.082796 
L 445.322188 101.063453 
L 446.864051 100.802981 
L 447.634982 100.572635 
L 448.405913 100.478539 
L 449.947776 99.723395 
L 453.0315 98.761161 
L 454.573363 98.498163 
L 460.740812 98.451324 
L 462.282675 97.947357 
L 466.137331 98.15942 
L 467.679193 98.767465 
L 469.221056 98.873171 
L 469.991987 98.809602 
L 472.30478 99.54331 
L 473.075712 99.375649 
L 476.159436 99.690812 
L 476.930368 99.368916 
L 477.701299 98.883809 
L 478.47223 98.926482 
L 479.243161 98.828627 
L 480.014092 98.50429 
L 481.555955 98.433061 
L 482.326886 98.574014 
L 483.097817 98.965058 
L 484.639679 99.051362 
L 485.410611 99.22864 
L 486.181542 99.255195 
L 486.952473 99.153812 
L 488.494335 99.134105 
L 490.807129 99.926109 
L 492.348991 100.11633 
L 493.119923 99.990681 
L 493.890854 99.73506 
L 494.661785 99.255195 
L 496.203647 98.967205 
L 496.974579 98.977952 
L 498.516441 99.297398 
L 501.600166 100.508952 
L 503.912959 101.052677 
L 506.996684 101.593257 
L 507.767615 101.533496 
L 510.080409 100.727291 
L 511.622271 99.810064 
L 514.705996 98.402702 
L 515.476927 98.022674 
L 517.01879 97.544671 
L 518.560652 96.902822 
L 520.873446 94.737284 
L 522.415308 93.274361 
L 524.728102 91.982618 
L 526.269964 91.449996 
L 527.811826 91.258861 
L 533.208345 90.377859 
L 535.521138 90.156079 
L 536.29207 90.29438 
L 537.063001 90.229971 
L 540.146726 90.570438 
L 540.917657 90.721291 
L 543.23045 90.389725 
L 545.543244 89.655548 
L 546.314175 89.274994 
L 548.626969 88.832529 
L 550.168831 88.725681 
L 550.939762 88.844 
L 551.710694 89.14735 
L 553.252556 88.981314 
L 554.794418 89.156992 
L 555.56535 89.259223 
L 556.336281 89.160703 
L 557.107212 88.905177 
L 558.649074 89.260724 
L 560.190937 89.33381 
L 560.961868 89.283266 
L 562.50373 89.483277 
L 563.274662 89.423505 
L 564.816524 89.517167 
L 566.358386 89.700304 
L 567.129317 89.524114 
L 568.67118 89.43497 
L 570.983973 89.053679 
L 571.754905 89.010484 
L 574.067698 89.14068 
L 576.380492 88.785364 
L 577.922354 88.501789 
L 579.464217 88.91457 
L 580.235148 88.612356 
L 581.006079 87.817857 
L 582.547941 86.822728 
L 583.318873 86.504414 
L 584.089804 85.878626 
L 584.860735 85.447677 
L 585.631666 85.422389 
L 586.402597 85.943363 
L 588.715391 87.119623 
L 589.486322 87.643637 
L 590.257253 87.731607 
L 591.799116 88.127898 
L 593.340978 88.721432 
L 594.111909 88.884259 
L 597.195634 90.246657 
L 598.737497 90.607704 
L 599.508428 90.848765 
L 600.279359 90.856791 
L 601.05029 91.310257 
L 601.821221 91.539861 
L 603.363084 91.641288 
L 604.904946 91.322447 
L 605.675877 90.972602 
L 607.21774 89.827105 
L 609.530533 88.54058 
L 610.301464 88.319725 
L 611.072396 87.846786 
L 612.614258 87.472645 
L 615.697983 87.165561 
L 616.468914 87.311444 
L 619.552639 87.110701 
L 620.32357 86.965006 
L 622.636364 86.965006 
L 622.636364 86.965006 
" style="fill:none;stroke:#348abd;stroke-linecap:square;stroke-width:4;"/>
   </g>
   <g id="line2d_27">
    <defs>
     <path d="M 0 3 
C 0.795609 3 1.55874 2.683901 2.12132 2.12132 
C 2.683901 1.55874 3 0.795609 3 0 
C 3 -0.795609 2.683901 -1.55874 2.12132 -2.12132 
C 1.55874 -2.683901 0.795609 -3 0 -3 
C -0.795609 -3 -1.55874 -2.683901 -2.12132 -2.12132 
C -2.683901 -1.55874 -3 -0.795609 -3 0 
C -3 0.795609 -2.683901 1.55874 -2.12132 2.12132 
C -1.55874 2.683901 -0.795609 3 0 3 
z
" id="m1bac688061" style="stroke:#348abd;"/>
    </defs>
    <g clip-path="url(#p4e7e5f4297)">
     <use style="fill:#348abd;stroke:#348abd;" x="622.636364" xlink:href="#m1bac688061" y="86.965006"/>
    </g>
   </g>
   <g id="line2d_28">
    <path clip-path="url(#p4e7e5f4297)" d="M 115.363636 167.852104 
L 116.134568 167.852104 
L 116.905499 165.792446 
L 117.67643 161.45422 
L 118.447361 159.394562 
L 119.218292 158.51483 
L 119.989224 161.45422 
L 122.302017 161.45422 
L 123.072948 165.792446 
L 123.84388 167.852104 
L 124.614811 174.249988 
L 125.385742 167.852104 
L 126.927604 167.852104 
L 127.698536 170.507466 
L 128.469467 170.507466 
L 129.240398 174.249988 
L 130.011329 174.249988 
L 130.020747 433 
M 136.16959 433 
L 136.178779 180.647872 
L 136.94971 158.51483 
L 137.720641 149.254156 
L 138.491572 148.658453 
L 140.033435 136.931836 
L 141.575297 132.767288 
L 142.346228 130.254832 
L 143.117159 124.550048 
L 143.888091 121.270579 
L 144.659022 119.920099 
L 145.429953 117.758449 
L 146.200884 116.732348 
L 146.971815 114.747414 
L 147.742747 112.288092 
L 148.513678 112.572822 
L 149.284609 106.732166 
L 152.368334 97.92798 
L 153.139265 95.255771 
L 153.910196 93.042716 
L 154.681127 91.197142 
L 156.22299 89.672382 
L 156.993921 88.448089 
L 157.764852 87.658703 
L 158.535783 87.178568 
L 159.306715 85.929537 
L 160.077646 85.184725 
L 160.848577 83.945141 
L 161.619508 83.50325 
L 163.161371 83.114778 
L 163.932302 82.713043 
L 164.703233 82.643423 
L 165.474164 82.772646 
L 166.245095 83.216382 
L 167.016027 83.305514 
L 167.786958 83.686831 
L 169.32882 83.960241 
L 170.870683 85.187998 
L 171.641614 85.865896 
L 173.183476 86.570548 
L 174.725338 88.587694 
L 175.49627 89.462394 
L 176.267201 89.601053 
L 177.038132 89.989338 
L 177.809063 90.559373 
L 178.579994 90.740632 
L 179.350926 90.773825 
L 180.121857 91.357181 
L 180.892788 91.630635 
L 181.663719 92.795132 
L 182.43465 93.092339 
L 183.205582 93.511688 
L 183.976513 94.190982 
L 184.747444 94.247993 
L 185.518375 94.84682 
L 187.060238 96.527481 
L 189.373031 98.421379 
L 190.143962 98.802388 
L 190.914894 99.437812 
L 191.685825 99.723713 
L 192.456756 99.595236 
L 193.998618 100.024692 
L 194.76955 99.719401 
L 196.311412 100.448637 
L 197.082343 101.944329 
L 197.853274 102.712289 
L 198.624206 103.153892 
L 199.395137 103.025549 
L 200.166068 104.150045 
L 200.936999 102.78811 
L 201.70793 103.265037 
L 202.478862 102.917234 
L 203.249793 103.052312 
L 204.791655 104.187273 
L 205.562586 103.979792 
L 206.333518 105.532724 
L 207.104449 106.591942 
L 207.87538 106.224228 
L 208.646311 106.117285 
L 209.417242 106.143184 
L 210.959105 106.766016 
L 211.730036 107.792106 
L 212.500967 108.079042 
L 214.04283 110.480833 
L 214.813761 109.357883 
L 215.584692 109.040884 
L 216.355623 108.375185 
L 217.126554 107.973028 
L 218.668417 109.530954 
L 219.439348 109.192006 
L 220.210279 111.375792 
L 220.98121 111.628125 
L 221.752141 112.706806 
L 222.523073 111.743701 
L 223.294004 110.119173 
L 224.064935 106.367789 
L 224.835866 106.525625 
L 226.377729 104.678038 
L 227.14866 103.895829 
L 227.919591 103.580502 
L 228.690522 103.495751 
L 229.461453 105.183375 
L 230.232385 104.719932 
L 231.003316 104.594816 
L 231.774247 105.535422 
L 232.545178 105.940816 
L 233.316109 106.940293 
L 234.087041 106.680096 
L 234.857972 106.750614 
L 235.628903 107.570829 
L 236.399834 107.584294 
L 237.170765 107.285986 
L 237.941697 106.680096 
L 239.483559 107.364597 
L 240.25449 107.958984 
L 241.025421 108.240382 
L 241.796353 108.389877 
L 242.567284 108.822592 
L 243.338215 109.969657 
L 244.109146 109.982753 
L 244.880077 109.648165 
L 246.42194 107.6757 
L 247.192871 107.662101 
L 247.963802 107.331761 
L 248.734733 106.311857 
L 250.276596 105.630342 
L 251.047527 105.50848 
L 251.818458 105.121253 
L 252.589389 104.440171 
L 253.360321 104.250438 
L 254.131252 104.597253 
L 254.902183 104.11528 
L 255.673114 103.489264 
L 256.444045 102.694422 
L 257.214977 102.455578 
L 257.985908 102.550766 
L 258.756839 102.896939 
L 259.52777 102.034363 
L 260.298701 101.811806 
L 261.069632 101.041024 
L 261.840564 101.146075 
L 262.611495 100.667347 
L 264.153357 100.245633 
L 265.69522 99.314602 
L 266.466151 99.267964 
L 267.237082 98.613103 
L 268.008013 98.173813 
L 268.778944 98.185974 
L 269.549876 98.024333 
L 271.091738 97.048248 
L 272.6336 96.595857 
L 274.175463 96.232305 
L 274.946394 96.120719 
L 278.80105 96.508182 
L 281.113844 96.941292 
L 281.884775 97.208853 
L 282.655706 97.24285 
L 284.197568 97.514903 
L 284.9685 97.44052 
L 285.739431 97.21871 
L 286.510362 96.789421 
L 288.052224 96.584596 
L 288.823156 96.295546 
L 289.594087 96.154835 
L 291.135949 95.626329 
L 291.90688 96.015275 
L 295.761536 93.863735 
L 298.07433 93.650602 
L 298.845261 93.83255 
L 300.387124 93.600855 
L 301.158055 93.879748 
L 301.928986 93.668487 
L 302.699917 93.162686 
L 303.470848 93.171163 
L 304.241779 92.603067 
L 307.325504 91.749231 
L 308.867367 90.925522 
L 309.638298 90.095092 
L 310.409229 89.053062 
L 311.18016 88.306391 
L 312.722023 87.27508 
L 313.492954 86.07288 
L 314.263885 85.436871 
L 315.805747 83.7689 
L 316.576679 83.00018 
L 317.34761 82.565808 
L 318.118541 82.309308 
L 318.889472 81.913515 
L 320.431335 80.165926 
L 321.202266 80.458643 
L 322.744128 78.624927 
L 323.515059 77.802702 
L 325.827853 76.247008 
L 326.598784 74.905432 
L 327.369715 74.345763 
L 328.911578 73.787236 
L 329.682509 72.749366 
L 330.45344 73.195255 
L 331.224371 72.031641 
L 332.766234 71.525821 
L 333.537165 71.521216 
L 334.308096 71.389854 
L 335.079027 72.733292 
L 335.849959 71.370916 
L 336.62089 71.996431 
L 337.391821 71.842534 
L 338.933683 71.845408 
L 339.704615 72.673725 
L 340.475546 72.075395 
L 341.246477 72.098143 
L 342.017408 72.003063 
L 344.330202 72.084243 
L 345.872064 72.009771 
L 346.642995 72.742021 
L 347.413926 72.074317 
L 348.955789 72.356362 
L 351.268582 72.463791 
L 352.039514 71.85474 
L 352.810445 72.540294 
L 353.581376 72.417117 
L 354.352307 72.786177 
L 355.123238 71.878639 
L 355.89417 71.351153 
L 356.665101 71.952978 
L 357.436032 71.639306 
L 358.206963 71.515733 
L 359.748826 70.229867 
L 360.519757 70.488593 
L 361.290688 70.261416 
L 362.061619 70.202828 
L 362.83255 69.938868 
L 363.603482 69.512234 
L 364.374413 69.65245 
L 365.145344 69.347166 
L 365.916275 69.353213 
L 366.687206 69.80663 
L 367.458138 69.113313 
L 369 68.940618 
L 369.770931 69.132633 
L 370.541862 70.894795 
L 371.312794 71.427043 
L 372.083725 71.036323 
L 372.854656 71.380047 
L 373.625587 72.592614 
L 374.396518 72.731826 
L 375.16745 72.984919 
L 375.938381 71.976137 
L 378.251174 72.427643 
L 379.022106 72.484811 
L 379.793037 72.890273 
L 380.563968 71.299913 
L 381.334899 71.071273 
L 382.10583 70.340791 
L 382.876762 70.919058 
L 383.647693 70.958087 
L 384.418624 70.410223 
L 385.189555 70.476312 
L 385.960486 72.054281 
L 387.502349 73.486249 
L 388.27328 72.643321 
L 389.044211 72.832809 
L 389.815142 74.082628 
L 390.586074 73.780487 
L 391.357005 74.985892 
L 392.127936 74.249993 
L 395.211661 75.108111 
L 395.982592 76.549962 
L 396.753523 75.809258 
L 397.524454 76.198218 
L 398.295385 75.643428 
L 399.066317 76.687696 
L 399.837248 76.713685 
L 400.608179 76.917587 
L 401.37911 77.308319 
L 402.920973 77.809257 
L 403.691904 79.082201 
L 404.462835 78.214654 
L 406.004697 78.788627 
L 407.54656 79.784565 
L 409.088422 80.434426 
L 409.859353 80.766109 
L 412.172147 80.584307 
L 413.714009 80.625973 
L 416.026803 80.307265 
L 416.797734 80.329392 
L 418.339597 79.923 
L 426.048909 79.352148 
L 427.590771 79.321043 
L 428.361702 77.823988 
L 429.132633 78.760993 
L 429.903565 78.299636 
L 431.445427 77.648878 
L 432.216358 77.464773 
L 432.987289 77.105862 
L 433.758221 77.52608 
L 434.529152 76.053043 
L 436.071014 75.361209 
L 437.612876 75.063381 
L 438.383808 74.003967 
L 439.154739 73.494881 
L 441.467532 72.460567 
L 442.238464 73.119348 
L 445.322188 72.567479 
L 446.09312 72.927495 
L 446.864051 74.099175 
L 447.634982 73.361935 
L 448.405913 73.725818 
L 449.176844 75.224281 
L 449.947776 74.697265 
L 450.718707 74.33841 
L 451.489638 73.63956 
L 452.260569 72.438854 
L 453.0315 73.024994 
L 453.802432 72.523599 
L 454.573363 71.007715 
L 455.344294 70.960444 
L 456.886156 71.055166 
L 457.657088 70.961081 
L 459.19895 71.110111 
L 459.969881 70.983028 
L 460.740812 71.425434 
L 461.511744 70.992741 
L 462.282675 71.095229 
L 463.053606 71.476367 
L 463.824537 70.567085 
L 465.3664 71.273641 
L 466.137331 71.019507 
L 467.679193 72.067202 
L 468.450124 71.776381 
L 469.221056 72.249289 
L 470.762918 72.415699 
L 472.30478 73.365572 
L 473.075712 73.302618 
L 473.846643 73.757942 
L 474.617574 74.547946 
L 475.388505 74.379293 
L 476.159436 74.795982 
L 476.930368 76.471145 
L 478.47223 77.576438 
L 479.243161 78.359664 
L 480.014092 77.406816 
L 480.785023 77.658746 
L 481.555955 79.410535 
L 482.326886 78.604631 
L 483.868748 79.393679 
L 484.639679 79.546017 
L 485.410611 79.94608 
L 486.181542 80.475955 
L 486.952473 81.41497 
L 487.723404 83.010283 
L 488.494335 83.9441 
L 490.807129 85.477935 
L 491.57806 85.515481 
L 493.119923 85.202594 
L 495.432716 88.247744 
L 496.974579 89.04447 
L 497.74551 89.382344 
L 498.516441 90.278218 
L 503.142028 93.404507 
L 503.912959 94.841737 
L 504.683891 96.554974 
L 505.454822 97.939821 
L 510.080409 101.589209 
L 510.85134 101.91512 
L 511.622271 102.890859 
L 513.164134 103.61769 
L 513.935065 103.875521 
L 514.705996 104.64858 
L 515.476927 103.988915 
L 517.01879 104.311674 
L 519.331583 103.694728 
L 521.644377 102.554672 
L 522.415308 101.84069 
L 523.95717 101.282921 
L 524.728102 100.763379 
L 525.499033 99.800217 
L 527.811826 97.592173 
L 529.353689 96.674035 
L 530.12462 96.075105 
L 530.895551 96.048037 
L 531.666482 95.592271 
L 533.208345 95.082878 
L 533.979276 94.939664 
L 535.521138 94.221027 
L 536.29207 93.173991 
L 537.833932 92.124537 
L 540.146726 91.675607 
L 541.688588 91.039831 
L 543.23045 90.245213 
L 544.001382 89.766233 
L 546.314175 88.78333 
L 549.3979 85.827219 
L 551.710694 84.375124 
L 552.481625 83.462177 
L 554.023487 82.038349 
L 556.336281 80.81509 
L 557.107212 78.93334 
L 557.878143 78.309944 
L 558.649074 77.843711 
L 559.420006 78.839206 
L 560.190937 78.574488 
L 561.732799 78.300624 
L 562.50373 78.023689 
L 563.274662 77.90354 
L 564.045593 77.602702 
L 567.129317 77.216632 
L 567.900249 77.162328 
L 568.67118 78.366342 
L 569.442111 77.072938 
L 570.983973 77.092481 
L 572.525836 77.308319 
L 573.296767 78.707004 
L 574.067698 77.599301 
L 574.838629 79.304349 
L 575.609561 78.298225 
L 579.464217 79.406875 
L 581.006079 79.808629 
L 583.318873 80.079445 
L 584.089804 80.056884 
L 585.631666 79.716529 
L 587.173529 79.648828 
L 588.715391 79.749163 
L 589.486322 79.690898 
L 590.257253 79.795012 
L 596.424703 79.205752 
L 597.966565 78.686379 
L 599.508428 78.324223 
L 600.279359 76.4818 
L 601.821221 75.144734 
L 602.592153 74.807188 
L 603.363084 75.259947 
L 604.904946 74.67618 
L 606.446809 73.015994 
L 607.21774 73.798927 
L 607.988671 72.03522 
L 608.759602 71.122683 
L 609.530533 71.827123 
L 610.301464 71.691229 
L 611.072396 71.740395 
L 611.843327 71.355275 
L 612.614258 69.573107 
L 613.385189 69.780183 
L 614.15612 69.420591 
L 615.697983 68.12744 
L 616.468914 67.643684 
L 617.239845 66.93418 
L 619.552639 65.655824 
L 620.32357 65.428574 
L 622.636364 65.428574 
L 622.636364 65.428574 
" style="fill:none;stroke:#348abd;stroke-linecap:square;stroke-opacity:0.4;stroke-width:2;"/>
   </g>
   <g id="line2d_29">
    <defs>
     <path d="M 0 3 
C 0.795609 3 1.55874 2.683901 2.12132 2.12132 
C 2.683901 1.55874 3 0.795609 3 0 
C 3 -0.795609 2.683901 -1.55874 2.12132 -2.12132 
C 1.55874 -2.683901 0.795609 -3 0 -3 
C -0.795609 -3 -1.55874 -2.683901 -2.12132 -2.12132 
C -2.683901 -1.55874 -3 -0.795609 -3 0 
C -3 0.795609 -2.683901 1.55874 -2.12132 2.12132 
C -1.55874 2.683901 -0.795609 3 0 3 
z
" id="ma380ab0ac8" style="stroke:#348abd;stroke-opacity:0.4;"/>
    </defs>
    <g clip-path="url(#p4e7e5f4297)">
     <use style="fill:#348abd;fill-opacity:0.4;stroke:#348abd;stroke-opacity:0.4;" x="622.636364" xlink:href="#ma380ab0ac8" y="65.428574"/>
    </g>
   </g>
   <g id="line2d_30">
    <path clip-path="url(#p4e7e5f4297)" d="M 115.363636 153.184632 
L 116.134568 149.44211 
L 116.905499 149.44211 
L 117.67643 146.786748 
L 118.447361 150.52927 
L 119.218292 151.761791 
L 119.989224 150.52927 
L 120.760155 151.761791 
L 121.531086 154.867495 
L 122.302017 153.184632 
L 123.072948 159.582516 
L 124.614811 159.582516 
L 125.385742 163.325038 
L 126.156673 163.325038 
L 126.927604 169.722921 
L 126.937185 433 
M 139.252159 433 
L 139.262503 148.469612 
L 140.033435 146.786748 
L 140.804366 144.72709 
L 142.346228 136.393444 
L 143.117159 135.673844 
L 143.888091 134.586684 
L 144.659022 136.147291 
L 146.200884 131.778753 
L 147.742747 129.749408 
L 148.513678 130.121144 
L 149.284609 124.110598 
L 150.05554 121.438768 
L 150.826471 119.896826 
L 151.597403 117.517013 
L 152.368334 115.785866 
L 153.910196 111.430935 
L 154.681127 110.817514 
L 155.452059 107.783484 
L 156.22299 103.888577 
L 156.993921 103.505886 
L 157.764852 101.671034 
L 158.535783 100.558141 
L 159.306715 98.988173 
L 160.848577 97.254149 
L 161.619508 97.74861 
L 162.390439 96.867156 
L 163.161371 97.450234 
L 163.932302 97.512837 
L 164.703233 98.251031 
L 165.474164 98.740081 
L 167.786958 102.62294 
L 168.557889 103.289189 
L 170.099751 106.037131 
L 170.870683 107.090623 
L 173.183476 111.414259 
L 173.954407 111.998861 
L 175.49627 115.548166 
L 177.038132 118.220926 
L 177.809063 117.231029 
L 178.579994 117.980274 
L 179.350926 119.528388 
L 180.121857 120.280585 
L 180.892788 120.818418 
L 181.663719 123.171123 
L 183.205582 126.854287 
L 183.976513 127.402777 
L 185.518375 127.216302 
L 186.289306 126.854287 
L 187.060238 127.124458 
L 188.6021 126.505937 
L 189.373031 125.083096 
L 190.143962 124.723899 
L 190.914894 123.979671 
L 191.685825 123.660255 
L 192.456756 124.110598 
L 193.227687 124.110598 
L 193.998618 125.083096 
L 194.76955 125.305521 
L 195.540481 126.765959 
L 196.311412 127.689749 
L 197.853274 125.767127 
L 198.624206 126.765959 
L 199.395137 126.678469 
L 200.936999 127.98593 
L 201.70793 127.98593 
L 203.249793 131.335619 
L 204.020724 130.508481 
L 204.791655 131.931322 
L 205.562586 132.24424 
L 206.333518 130.912788 
L 207.104449 130.641292 
L 207.87538 130.508481 
L 208.646311 128.716383 
L 209.417242 129.509649 
L 210.188174 128.396229 
L 210.959105 127.689749 
L 211.730036 128.1888 
L 212.500967 128.1888 
L 213.271898 129.048043 
L 214.04283 130.776042 
L 214.813761 130.912788 
L 215.584692 131.480979 
L 216.355623 134.383814 
L 217.126554 134.586684 
L 217.897485 134.586684 
L 218.668417 135.223501 
L 219.439348 135.223501 
L 220.210279 131.778753 
L 221.752141 129.27596 
L 222.523073 127.593097 
L 223.294004 126.678469 
L 224.064935 125.533438 
L 224.835866 125.767127 
L 225.606797 124.044902 
L 226.377729 124.176764 
L 227.919591 123.412449 
L 229.461453 121.48826 
L 230.232385 121.291865 
L 231.003316 119.731258 
L 231.774247 117.388814 
L 233.316109 114.443639 
L 234.087041 113.478083 
L 234.857972 112.91238 
L 235.628903 109.812277 
L 236.399834 108.532605 
L 237.170765 107.805996 
L 237.941697 106.722593 
L 238.712628 106.282278 
L 239.483559 105.468801 
L 240.25449 103.484692 
L 241.025421 103.591154 
L 241.796353 103.16566 
L 242.567284 102.877088 
L 244.109146 101.619 
L 244.880077 100.776556 
L 245.651009 100.239914 
L 246.42194 100.097037 
L 247.192871 99.542062 
L 248.734733 98.782382 
L 249.505665 97.855363 
L 250.276596 97.535034 
L 251.047527 98.029559 
L 251.818458 97.472281 
L 252.589389 97.139886 
L 253.360321 96.24436 
L 254.131252 96.21542 
L 254.902183 96.836199 
L 256.444045 94.920506 
L 257.214977 94.859323 
L 257.985908 94.420867 
L 258.756839 94.713573 
L 259.52777 94.594297 
L 260.298701 93.4889 
L 261.840564 94.75185 
L 262.611495 94.618569 
L 263.382426 95.258667 
L 264.924288 95.87504 
L 265.69522 96.856825 
L 266.466151 97.624359 
L 267.237082 97.616882 
L 268.778944 98.672799 
L 269.549876 98.850471 
L 270.320807 99.292275 
L 271.091738 100.225031 
L 271.862669 100.146055 
L 272.6336 101.257207 
L 273.404532 101.817131 
L 274.175463 102.073956 
L 274.946394 103.145232 
L 276.488256 104.165466 
L 277.259188 105.20149 
L 278.030119 105.592107 
L 279.571981 107.365856 
L 280.342912 107.671737 
L 281.113844 108.423514 
L 281.884775 109.007978 
L 282.655706 108.905844 
L 286.510362 111.414259 
L 287.281293 111.616388 
L 288.052224 112.834323 
L 288.823156 113.796032 
L 290.365018 115.065597 
L 291.90688 115.240464 
L 292.677812 116.684345 
L 293.448743 117.420697 
L 294.219674 117.168663 
L 294.990605 117.77888 
L 296.532468 119.938687 
L 297.303399 120.680993 
L 298.07433 121.099563 
L 298.845261 122.48284 
L 299.616192 124.176764 
L 300.387124 124.723899 
L 301.158055 123.979671 
L 301.928986 124.653707 
L 302.699917 126.088209 
L 303.470848 126.678469 
L 304.241779 125.846356 
L 305.012711 126.420865 
L 305.783642 126.765959 
L 306.554573 127.689749 
L 307.325504 126.854287 
L 308.096435 125.688571 
L 308.867367 126.943468 
L 310.409229 125.767127 
L 312.722023 124.310537 
L 313.492954 124.310537 
L 314.263885 123.111765 
L 315.805747 123.786698 
L 316.576679 124.514904 
L 317.34761 125.010129 
L 318.118541 126.006886 
L 318.889472 127.689749 
L 319.660403 126.678469 
L 320.431335 127.124458 
L 321.202266 126.765959 
L 321.973197 125.767127 
L 322.744128 125.305521 
L 323.515059 125.083096 
L 324.285991 124.514904 
L 325.056922 126.33657 
L 326.598784 126.943468 
L 327.369715 128.1888 
L 328.911578 129.749408 
L 329.682509 130.377554 
L 330.45344 130.641292 
L 331.224371 131.192512 
L 331.995303 131.192512 
L 332.766234 130.912788 
L 333.537165 131.480979 
L 334.308096 131.335619 
L 335.079027 132.086455 
L 335.849959 133.800661 
L 336.62089 134.586684 
L 337.391821 137.733503 
L 338.162752 138.329206 
L 338.933683 133.076352 
L 339.704615 128.825618 
L 340.475546 128.291932 
L 341.246477 126.678469 
L 342.017408 126.33657 
L 343.559271 125.230782 
L 344.330202 126.33657 
L 345.101133 128.716383 
L 345.872064 128.716383 
L 346.642995 129.749408 
L 347.413926 129.27596 
L 348.184858 129.161298 
L 348.955789 129.27596 
L 349.72672 130.377554 
L 350.497651 130.776042 
L 352.039514 130.508481 
L 352.810445 129.995561 
L 353.581376 129.749408 
L 354.352307 130.508481 
L 355.123238 130.121144 
L 355.89417 130.508481 
L 356.665101 129.871664 
L 357.436032 130.508481 
L 358.206963 131.778753 
L 358.977894 131.628666 
L 359.748826 130.641292 
L 360.519757 131.192512 
L 361.290688 131.192512 
L 362.061619 131.778753 
L 362.83255 130.912788 
L 363.603482 130.248459 
L 364.374413 129.048043 
L 365.145344 127.124458 
L 365.916275 124.243408 
L 366.687206 122.820568 
L 367.458138 122.264363 
L 368.229069 121.946049 
L 369 121.291865 
L 370.541862 122.264363 
L 371.312794 124.110598 
L 372.083725 124.176764 
L 372.854656 124.794629 
L 373.625587 123.850575 
L 374.396518 123.914897 
L 375.16745 123.412449 
L 376.709312 121.998345 
L 377.480243 122.48284 
L 378.251174 122.427734 
L 379.793037 124.044902 
L 380.563968 123.72326 
L 381.334899 125.38087 
L 382.10583 126.253039 
L 382.876762 126.33657 
L 383.647693 125.767127 
L 384.418624 126.006886 
L 385.189555 126.006886 
L 385.960486 127.402777 
L 386.731418 126.591799 
L 387.502349 126.088209 
L 388.27328 126.591799 
L 389.044211 127.497446 
L 389.815142 128.1888 
L 390.586074 128.291932 
L 391.357005 128.608427 
L 392.898867 132.24424 
L 393.669798 132.56814 
L 394.440729 133.800661 
L 395.211661 134.383814 
L 396.753523 134.794113 
L 397.524454 134.383814 
L 398.295385 134.586684 
L 399.066317 135.445927 
L 399.837248 135.00631 
L 400.608179 135.00631 
L 401.37911 134.794113 
L 402.920973 135.223501 
L 403.691904 135.673844 
L 404.462835 135.907532 
L 405.233766 136.393444 
L 406.004697 135.223501 
L 406.775629 135.445927 
L 407.54656 134.586684 
L 408.317491 134.794113 
L 409.088422 134.185308 
L 409.859353 135.00631 
L 410.630285 134.586684 
L 411.401216 135.673844 
L 412.172147 137.449474 
L 412.943078 138.026549 
L 413.714009 138.966024 
L 414.484941 138.966024 
L 416.026803 137.733503 
L 416.797734 138.966024 
L 417.568665 136.906365 
L 418.339597 135.907532 
L 419.110528 134.586684 
L 419.881459 134.794113 
L 420.65239 133.990981 
L 421.423321 133.800661 
L 422.194253 132.404769 
L 423.736115 131.335619 
L 425.277977 131.335619 
L 426.048909 130.776042 
L 426.81984 129.871664 
L 427.590771 129.509649 
L 428.361702 128.93616 
L 429.132633 129.161298 
L 429.903565 128.93616 
L 431.445427 128.825618 
L 432.216358 129.749408 
L 432.987289 129.27596 
L 433.758221 129.749408 
L 434.529152 129.161298 
L 436.071014 129.392065 
L 437.612876 129.995561 
L 438.383808 130.912788 
L 439.154739 131.335619 
L 439.92567 132.56814 
L 440.696601 131.931322 
L 441.467532 131.480979 
L 442.238464 130.508481 
L 443.009395 128.716383 
L 443.780326 128.93616 
L 444.551257 127.98593 
L 445.322188 127.787424 
L 446.09312 128.291932 
L 446.864051 128.291932 
L 447.634982 129.161298 
L 448.405913 130.641292 
L 449.176844 129.871664 
L 449.947776 131.480979 
L 450.718707 132.404769 
L 451.489638 132.734454 
L 452.260569 132.404769 
L 453.0315 131.628666 
L 453.802432 131.335619 
L 454.573363 130.377554 
L 455.344294 128.825618 
L 456.115225 127.787424 
L 457.657088 126.006886 
L 458.428019 126.006886 
L 459.19895 125.010129 
L 460.740812 125.156643 
L 461.511744 123.230866 
L 462.282675 123.230866 
L 463.053606 123.850575 
L 463.824537 123.660255 
L 465.3664 122.103834 
L 466.137331 121.842338 
L 466.908262 122.878077 
L 467.679193 122.994181 
L 468.450124 122.820568 
L 469.221056 122.994181 
L 470.762918 125.926272 
L 471.533849 126.253039 
L 472.30478 127.689749 
L 473.075712 127.689749 
L 473.846643 127.402777 
L 475.388505 128.396229 
L 476.159436 129.161298 
L 476.930368 130.377554 
L 480.014092 134.185308 
L 480.785023 134.586684 
L 481.555955 134.383814 
L 482.326886 135.673844 
L 483.097817 135.223501 
L 483.868748 135.907532 
L 484.639679 137.733503 
L 485.410611 135.445927 
L 486.181542 134.383814 
L 486.952473 132.90382 
L 487.723404 130.776042 
L 488.494335 129.871664 
L 489.265267 129.27596 
L 490.036198 128.291932 
L 490.807129 128.608427 
L 491.57806 128.291932 
L 492.348991 129.509649 
L 493.119923 129.995561 
L 493.890854 130.912788 
L 494.661785 129.995561 
L 495.432716 129.62875 
L 496.203647 128.608427 
L 496.974579 128.501718 
L 497.74551 128.608427 
L 498.516441 128.396229 
L 499.287372 128.501718 
L 500.058303 129.62875 
L 500.829235 129.871664 
L 502.371097 130.776042 
L 503.142028 129.749408 
L 503.912959 129.749408 
L 504.683891 129.161298 
L 505.454822 128.396229 
L 506.225753 128.93616 
L 506.996684 127.886144 
L 508.538547 127.787424 
L 509.309478 126.943468 
L 510.080409 125.926272 
L 510.85134 124.446278 
L 511.622271 122.427734 
L 512.393203 122.157034 
L 513.935065 119.855155 
L 516.247859 117.812142 
L 517.01879 118.612246 
L 517.789721 117.845525 
L 518.560652 118.014272 
L 519.331583 118.432314 
L 520.102515 118.396745 
L 520.873446 118.151526 
L 521.644377 117.679808 
L 523.186239 114.036358 
L 524.728102 111.183903 
L 525.499033 110.525444 
L 527.040895 108.544806 
L 527.811826 108.034196 
L 529.353689 108.057329 
L 530.12462 107.605332 
L 530.895551 106.803119 
L 531.666482 106.378327 
L 533.208345 105.789264 
L 533.979276 105.37306 
L 534.750207 104.705123 
L 535.521138 104.226442 
L 536.29207 103.541319 
L 537.063001 103.351579 
L 537.833932 103.010186 
L 538.604863 102.438394 
L 539.375794 102.037688 
L 541.688588 101.257207 
L 543.23045 99.937097 
L 544.001382 99.822494 
L 544.772313 99.482408 
L 545.543244 98.795111 
L 546.314175 98.323362 
L 547.085106 98.045204 
L 548.626969 97.118618 
L 550.939762 95.558719 
L 554.794418 91.239575 
L 556.336281 89.968045 
L 558.649074 88.561769 
L 559.420006 88.24773 
L 561.732799 86.638739 
L 563.274662 85.973904 
L 564.816524 84.696769 
L 565.587455 84.380565 
L 567.129317 84.039573 
L 567.900249 83.643879 
L 570.213042 82.997636 
L 570.983973 83.039134 
L 572.525836 82.813922 
L 573.296767 82.853846 
L 574.067698 82.755479 
L 574.838629 82.807911 
L 575.609561 82.973897 
L 576.380492 83.00761 
L 577.151423 83.178042 
L 582.547941 83.101733 
L 585.631666 82.119857 
L 586.402597 81.797856 
L 587.173529 81.717413 
L 588.715391 81.035718 
L 589.486322 80.903997 
L 590.257253 81.017139 
L 591.028185 80.733242 
L 591.799116 80.625878 
L 592.570047 80.3237 
L 593.340978 80.281899 
L 594.111909 80.596275 
L 594.882841 80.594502 
L 595.653772 80.287614 
L 596.424703 80.283042 
L 598.737497 80.548519 
L 600.279359 80.398032 
L 601.05029 80.514474 
L 601.821221 80.50569 
L 602.592153 80.759677 
L 603.363084 80.759075 
L 604.904946 81.144222 
L 605.675877 81.300471 
L 607.988671 82.283041 
L 608.759602 83.012984 
L 609.530533 83.181952 
L 611.843327 84.794062 
L 612.614258 85.083594 
L 613.385189 85.13661 
L 614.15612 84.943371 
L 614.927052 85.13661 
L 616.468914 84.900868 
L 617.239845 84.882981 
L 619.552639 85.385481 
L 620.32357 85.656577 
L 622.636364 85.656577 
L 622.636364 85.656577 
" style="fill:none;stroke:#988ed5;stroke-linecap:square;stroke-opacity:0.4;stroke-width:2;"/>
   </g>
   <g id="line2d_31">
    <defs>
     <path d="M 0 3 
C 0.795609 3 1.55874 2.683901 2.12132 2.12132 
C 2.683901 1.55874 3 0.795609 3 0 
C 3 -0.795609 2.683901 -1.55874 2.12132 -2.12132 
C 1.55874 -2.683901 0.795609 -3 0 -3 
C -0.795609 -3 -1.55874 -2.683901 -2.12132 -2.12132 
C -2.683901 -1.55874 -3 -0.795609 -3 0 
C -3 0.795609 -2.683901 1.55874 -2.12132 2.12132 
C -1.55874 2.683901 -0.795609 3 0 3 
z
" id="m08709a88b2" style="stroke:#988ed5;stroke-opacity:0.4;"/>
    </defs>
    <g clip-path="url(#p4e7e5f4297)">
     <use style="fill:#988ed5;fill-opacity:0.4;stroke:#988ed5;stroke-opacity:0.4;" x="622.636364" xlink:href="#m08709a88b2" y="85.656577"/>
    </g>
   </g>
   <g id="line2d_32">
    <path clip-path="url(#p4e7e5f4297)" d="M 142.336779 433 
L 142.346228 173.382181 
L 143.117159 173.382181 
L 143.888091 158.526755 
L 144.659022 158.526755 
L 145.429953 151.24914 
L 146.200884 147.790646 
L 147.742747 141.988466 
L 148.513678 137.65024 
L 149.284609 135.140239 
L 150.05554 131.062037 
L 150.826471 130.165196 
L 151.597403 126.479827 
L 152.368334 123.767313 
L 153.139265 123.597946 
L 153.910196 120.552374 
L 154.681127 119.129533 
L 156.22299 115.747302 
L 156.993921 114.778389 
L 157.764852 113.41568 
L 158.535783 111.681911 
L 159.306715 110.950204 
L 160.077646 109.960668 
L 160.848577 108.725754 
L 161.619508 107.726492 
L 162.390439 107.158076 
L 163.932302 105.861288 
L 165.474164 103.252101 
L 166.245095 103.275275 
L 167.016027 102.178323 
L 167.786958 101.704463 
L 168.557889 101.029104 
L 169.32882 100.623394 
L 170.099751 100.700313 
L 170.870683 100.902636 
L 171.641614 100.355734 
L 172.412545 100.902636 
L 173.183476 101.0875 
L 173.954407 101.720134 
L 174.725338 101.630387 
L 175.49627 101.763367 
L 176.267201 101.449661 
L 177.038132 101.595505 
L 177.809063 100.756659 
L 178.579994 100.595582 
L 179.350926 100.612955 
L 180.121857 100.848962 
L 180.892788 100.827579 
L 181.663719 101.116837 
L 182.43465 101.050959 
L 183.205582 101.814723 
L 183.976513 101.898291 
L 184.747444 101.688819 
L 185.518375 101.272406 
L 186.289306 101.673201 
L 187.831169 102.765239 
L 188.6021 102.880121 
L 189.373031 102.756461 
L 190.143962 102.290255 
L 190.914894 102.774026 
L 192.456756 102.092193 
L 194.76955 101.854423 
L 195.540481 101.201705 
L 196.311412 101.298591 
L 197.853274 100.626876 
L 199.395137 101.043668 
L 200.166068 100.949408 
L 200.936999 101.747623 
L 201.70793 101.036383 
L 202.478862 101.061906 
L 204.020724 100.543659 
L 204.791655 100.128559 
L 205.562586 100.298414 
L 206.333518 100.098906 
L 207.87538 100.516085 
L 208.646311 101.032743 
L 209.417242 100.661773 
L 210.188174 101.313587 
L 210.959105 101.040025 
L 211.730036 101.850445 
L 212.500967 102.286085 
L 214.04283 102.116719 
L 214.813761 101.483996 
L 215.584692 100.201447 
L 216.355623 99.497243 
L 217.126554 98.987655 
L 219.439348 98.981824 
L 220.210279 99.386957 
L 221.752141 100.703824 
L 222.523073 100.679271 
L 223.294004 99.926191 
L 224.835866 100.321973 
L 225.606797 100.792051 
L 226.377729 101.02183 
L 227.919591 101.806803 
L 228.690522 102.686535 
L 231.003316 102.800435 
L 231.774247 103.335801 
L 233.316109 103.864483 
L 234.857972 103.100594 
L 236.399834 103.201322 
L 237.170765 103.028022 
L 237.941697 103.219754 
L 238.712628 103.137095 
L 240.25449 104.171263 
L 241.796353 104.186616 
L 242.567284 103.500756 
L 243.338215 103.064237 
L 244.880077 103.077854 
L 247.192871 102.24034 
L 248.734733 102.374052 
L 250.276596 101.385154 
L 251.818458 100.693294 
L 252.589389 99.87147 
L 255.673114 98.731683 
L 257.214977 97.671668 
L 258.756839 97.229758 
L 259.52777 96.673159 
L 261.069632 96.003567 
L 262.611495 95.4645 
L 263.382426 95.103327 
L 264.924288 94.87639 
L 265.69522 95.120574 
L 268.008013 94.776061 
L 269.549876 94.966497 
L 270.320807 95.011882 
L 271.862669 94.887605 
L 272.6336 94.97027 
L 274.946394 94.623947 
L 275.717325 94.709776 
L 276.488256 94.410138 
L 277.259188 94.420801 
L 278.030119 94.209856 
L 279.571981 94.660372 
L 280.342912 94.569577 
L 281.113844 94.653076 
L 281.884775 95.049874 
L 282.655706 95.308537 
L 283.426637 95.863221 
L 284.197568 96.073485 
L 288.823156 98.535229 
L 289.594087 98.80859 
L 291.135949 98.524128 
L 291.90688 98.318425 
L 293.448743 97.331563 
L 294.219674 96.558133 
L 294.990605 96.199826 
L 296.532468 94.605788 
L 297.303399 93.956159 
L 298.07433 93.77865 
L 298.845261 93.178283 
L 299.616192 92.724907 
L 300.387124 91.57189 
L 301.158055 90.841522 
L 302.699917 89.709693 
L 306.554573 86.563823 
L 308.096435 85.637286 
L 308.867367 85.032748 
L 309.638298 84.143901 
L 311.951091 80.483308 
L 314.263885 77.937202 
L 315.805747 75.973074 
L 316.576679 75.284672 
L 318.118541 73.522751 
L 318.889472 72.969068 
L 319.660403 72.261932 
L 321.202266 71.122709 
L 321.973197 70.314663 
L 323.515059 69.418214 
L 324.285991 69.097052 
L 328.140647 65.372585 
L 329.682509 64.584488 
L 330.45344 64.37197 
L 335.079027 62.07463 
L 335.849959 61.754673 
L 336.62089 61.727396 
L 338.162752 62.12158 
L 340.475546 62.457089 
L 342.017408 63.129597 
L 342.788339 63.052488 
L 344.330202 63.229201 
L 345.101133 63.474645 
L 345.872064 63.843644 
L 346.642995 63.003644 
L 347.413926 63.275238 
L 350.497651 65.149188 
L 351.268582 65.867595 
L 352.039514 68.000553 
L 353.581376 68.348365 
L 354.352307 68.787796 
L 355.89417 69.364828 
L 358.977894 69.959228 
L 362.061619 70.058231 
L 362.83255 70.242369 
L 363.603482 70.205014 
L 365.145344 70.72123 
L 369 70.814599 
L 369.770931 70.655847 
L 370.541862 70.920902 
L 372.083725 72.617186 
L 372.854656 72.858527 
L 375.16745 72.653946 
L 378.251174 71.53738 
L 379.022106 71.541554 
L 379.793037 71.329319 
L 380.563968 71.527401 
L 381.334899 71.850519 
L 382.876762 70.817631 
L 383.647693 70.751975 
L 384.418624 71.058391 
L 385.189555 71.808834 
L 385.960486 72.226698 
L 386.731418 72.356879 
L 388.27328 73.502447 
L 389.044211 73.789143 
L 389.815142 73.885505 
L 392.127936 75.094745 
L 392.898867 75.285343 
L 393.669798 75.604843 
L 395.211661 75.826291 
L 397.524454 75.959109 
L 398.295385 76.096551 
L 399.837248 76.102659 
L 402.920973 76.354348 
L 405.233766 76.343556 
L 406.004697 76.425948 
L 407.54656 76.256177 
L 409.088422 76.024545 
L 409.859353 75.878139 
L 410.630285 75.851703 
L 412.172147 75.183024 
L 414.484941 73.869951 
L 416.026803 73.301642 
L 416.797734 73.100345 
L 418.339597 72.016186 
L 420.65239 70.645694 
L 422.194253 70.309965 
L 424.507046 68.980979 
L 426.81984 68.159065 
L 428.361702 67.794709 
L 429.132633 67.230335 
L 429.903565 66.950332 
L 430.674496 66.403985 
L 432.987289 65.364946 
L 433.758221 64.789523 
L 436.071014 63.538262 
L 437.612876 63.034675 
L 438.383808 62.89655 
L 439.92567 62.186772 
L 440.696601 61.704514 
L 443.009395 60.959251 
L 444.551257 60.669601 
L 445.322188 60.6191 
L 447.634982 61.310942 
L 448.405913 61.664694 
L 449.176844 62.333495 
L 449.947776 63.379266 
L 450.718707 63.844162 
L 453.0315 64.271451 
L 453.802432 64.130441 
L 455.344294 63.403991 
L 456.115225 63.831349 
L 458.428019 65.955413 
L 459.969881 66.689849 
L 460.740812 67.360973 
L 462.282675 68.943547 
L 463.824537 70.298882 
L 465.3664 71.312724 
L 467.679193 73.509825 
L 469.221056 74.614694 
L 469.991987 74.81316 
L 470.762918 75.569022 
L 471.533849 76.799369 
L 472.30478 77.341815 
L 473.075712 77.551563 
L 473.846643 78.052091 
L 475.388505 78.437959 
L 476.159436 78.189238 
L 476.930368 78.109925 
L 478.47223 80.064406 
L 480.014092 81.508856 
L 480.785023 81.921809 
L 481.555955 82.569716 
L 482.326886 83.513588 
L 483.097817 84.270916 
L 485.410611 87.044464 
L 486.181542 87.496766 
L 486.952473 88.129326 
L 488.494335 90.087689 
L 490.807129 92.592688 
L 491.57806 92.928368 
L 492.348991 93.588228 
L 493.119923 94.625765 
L 495.432716 98.183794 
L 496.203647 98.926614 
L 496.974579 99.344422 
L 497.74551 99.919737 
L 498.516441 100.244789 
L 499.287372 100.891876 
L 500.058303 100.816906 
L 500.829235 101.46872 
L 501.600166 101.802846 
L 502.371097 102.014952 
L 503.142028 102.818084 
L 503.912959 104.341576 
L 505.454822 106.135534 
L 506.225753 106.576076 
L 506.996684 107.21479 
L 507.767615 107.696475 
L 508.538547 107.855164 
L 510.080409 109.084419 
L 510.85134 109.585405 
L 512.393203 110.897065 
L 513.164134 111.133199 
L 514.705996 112.654409 
L 516.247859 113.784937 
L 517.01879 113.655439 
L 518.560652 114.049515 
L 519.331583 114.461169 
L 520.873446 114.555196 
L 522.415308 115.30977 
L 523.95717 115.02367 
L 524.728102 115.040256 
L 525.499033 115.258633 
L 527.040895 114.79454 
L 527.811826 114.337272 
L 528.582758 114.291236 
L 529.353689 113.945721 
L 530.12462 113.813963 
L 530.895551 113.291226 
L 532.437414 112.822588 
L 533.979276 112.628805 
L 536.29207 112.314609 
L 538.604863 110.875895 
L 540.146726 110.59475 
L 540.917657 110.027937 
L 541.688588 109.780514 
L 543.23045 109.530409 
L 544.772313 109.00638 
L 545.543244 109.242504 
L 548.626969 108.110179 
L 550.168831 107.674026 
L 550.939762 107.207682 
L 552.481625 107.017797 
L 553.252556 107.207682 
L 555.56535 106.750236 
L 556.336281 106.893343 
L 558.649074 106.477074 
L 559.420006 106.205388 
L 560.190937 105.787887 
L 560.961868 105.678867 
L 562.50373 105.095591 
L 564.816524 103.068774 
L 566.358386 102.124909 
L 567.129317 102.010905 
L 567.900249 101.53766 
L 569.442111 100.450926 
L 570.983973 99.444999 
L 571.754905 98.987655 
L 573.296767 98.370105 
L 574.838629 97.217713 
L 575.609561 96.926246 
L 576.380492 96.327919 
L 577.922354 95.988804 
L 578.693285 95.631248 
L 579.464217 95.406941 
L 580.235148 94.925089 
L 581.77701 94.411914 
L 583.318873 94.131978 
L 585.631666 92.767917 
L 586.402597 91.985869 
L 587.94446 90.863266 
L 589.486322 90.150168 
L 591.028185 88.463574 
L 593.340978 87.050863 
L 594.111909 86.876479 
L 594.882841 86.273172 
L 595.653772 85.874426 
L 597.966565 83.918904 
L 598.737497 83.369088 
L 599.508428 83.035288 
L 600.279359 82.142946 
L 601.05029 80.863 
L 603.363084 77.886957 
L 604.134015 77.255023 
L 604.904946 76.8708 
L 607.21774 74.973723 
L 608.759602 73.531995 
L 610.301464 72.756945 
L 611.072396 73.058779 
L 611.843327 72.702342 
L 612.614258 71.569477 
L 613.385189 70.645017 
L 614.927052 69.294551 
L 615.697983 69.017088 
L 616.468914 68.035872 
L 617.239845 67.243616 
L 618.010776 66.915583 
L 618.781708 67.185027 
L 619.552639 67.268826 
L 620.32357 67.088444 
L 622.636364 67.088444 
L 622.636364 67.088444 
" style="fill:none;stroke:#777777;stroke-linecap:square;stroke-opacity:0.4;stroke-width:2;"/>
   </g>
   <g id="line2d_33">
    <defs>
     <path d="M 0 3 
C 0.795609 3 1.55874 2.683901 2.12132 2.12132 
C 2.683901 1.55874 3 0.795609 3 0 
C 3 -0.795609 2.683901 -1.55874 2.12132 -2.12132 
C 1.55874 -2.683901 0.795609 -3 0 -3 
C -0.795609 -3 -1.55874 -2.683901 -2.12132 -2.12132 
C -2.683901 -1.55874 -3 -0.795609 -3 0 
C -3 0.795609 -2.683901 1.55874 -2.12132 2.12132 
C -1.55874 2.683901 -0.795609 3 0 3 
z
" id="m9c650d52e4" style="stroke:#777777;stroke-opacity:0.4;"/>
    </defs>
    <g clip-path="url(#p4e7e5f4297)">
     <use style="fill:#777777;fill-opacity:0.4;stroke:#777777;stroke-opacity:0.4;" x="622.636364" xlink:href="#m9c650d52e4" y="67.088444"/>
    </g>
   </g>
   <g id="line2d_34">
    <path clip-path="url(#p4e7e5f4297)" d="M 138.481662 433 
L 138.491572 160.574377 
L 141.575297 160.574377 
L 142.346228 144.036088 
L 143.117159 144.036088 
L 143.888091 145.718951 
L 146.200884 145.718951 
L 146.971815 141.380726 
L 147.742747 150.433971 
L 148.513678 144.036088 
L 149.284609 132.472841 
L 150.826471 132.472841 
L 151.597403 129.180662 
L 152.368334 130.15316 
L 153.139265 126.074957 
L 153.910196 126.758988 
L 154.681127 126.074957 
L 155.452059 124.652117 
L 156.22299 124.652117 
L 156.993921 125.43814 
L 157.764852 125.43814 
L 158.535783 127.757821 
L 159.306715 127.757821 
L 160.848577 133.895682 
L 161.619508 133.895682 
L 162.390439 121.22901 
L 163.161371 121.22901 
L 163.932302 120.480206 
L 164.703233 110.874437 
L 165.474164 109.355322 
L 167.016027 103.822815 
L 167.786958 102.366226 
L 170.099751 95.271086 
L 170.870683 92.304759 
L 171.641614 91.461134 
L 172.412545 90.343017 
L 174.725338 87.77737 
L 176.267201 87.317455 
L 177.038132 86.458139 
L 177.809063 85.995067 
L 180.121857 85.112478 
L 180.892788 84.448509 
L 181.663719 84.032536 
L 183.976513 81.912986 
L 185.518375 80.431292 
L 187.831169 79.917103 
L 189.373031 79.973502 
L 190.914894 80.163016 
L 193.227687 79.937841 
L 193.998618 79.872819 
L 195.540481 79.504746 
L 197.853274 79.355959 
L 204.020724 79.448318 
L 209.417242 79.660287 
L 214.813761 80.134188 
L 217.897485 80.353399 
L 219.439348 80.827663 
L 221.752141 81.549205 
L 224.064935 82.257311 
L 224.835866 82.310853 
L 226.377729 82.866116 
L 227.919591 83.750329 
L 229.461453 84.676125 
L 230.232385 85.573218 
L 232.545178 87.420291 
L 234.087041 88.434767 
L 234.857972 89.062547 
L 235.628903 89.190969 
L 237.170765 90.058988 
L 237.941697 90.352178 
L 238.712628 90.963171 
L 240.25449 91.846331 
L 241.796353 93.090405 
L 242.567284 93.854941 
L 243.338215 94.322045 
L 244.880077 94.986585 
L 245.651009 95.039741 
L 246.42194 95.302375 
L 247.192871 95.239903 
L 247.963802 95.420662 
L 248.734733 95.943112 
L 249.505665 96.112633 
L 251.818458 96.241849 
L 253.360321 96.479097 
L 254.131252 96.470201 
L 260.298701 97.952515 
L 263.382426 98.966873 
L 264.924288 99.095969 
L 267.237082 100.106628 
L 268.008013 100.186085 
L 268.778944 102.002915 
L 269.549876 100.566205 
L 270.320807 100.904966 
L 271.862669 100.119823 
L 273.404532 98.839558 
L 274.175463 97.029222 
L 274.946394 97.268484 
L 275.717325 96.311512 
L 276.488256 96.32901 
L 277.259188 95.341636 
L 278.030119 95.016922 
L 278.80105 94.866222 
L 279.571981 94.843828 
L 281.113844 95.146981 
L 281.884775 94.866222 
L 282.655706 95.388971 
L 283.426637 95.629354 
L 284.9685 95.605032 
L 285.739431 95.349508 
L 286.510362 95.224351 
L 287.281293 94.784374 
L 294.219674 93.735154 
L 295.761536 93.158479 
L 296.532468 93.065775 
L 297.303399 92.841007 
L 298.07433 92.757367 
L 298.845261 92.510901 
L 301.158055 91.246587 
L 304.241779 89.23147 
L 306.554573 88.127188 
L 307.325504 89.358165 
L 308.096435 87.477174 
L 308.867367 87.212491 
L 309.638298 87.070087 
L 311.18016 86.521474 
L 311.951091 87.927685 
L 312.722023 84.783294 
L 313.492954 85.788719 
L 315.805747 84.609462 
L 316.576679 84.202801 
L 317.34761 82.744717 
L 318.118541 83.647795 
L 321.202266 82.636807 
L 322.744128 82.117285 
L 323.515059 81.731105 
L 325.056922 80.749606 
L 328.140647 79.531671 
L 329.682509 79.267273 
L 335.849959 78.891637 
L 337.391821 78.644717 
L 338.933683 78.110046 
L 340.475546 77.408652 
L 342.788339 76.600541 
L 345.872064 75.529809 
L 348.184858 75.004168 
L 351.268582 74.543982 
L 353.581376 74.19358 
L 361.290688 73.042 
L 362.061619 73.00204 
L 362.83255 72.820561 
L 365.916275 72.96713 
L 369 72.929575 
L 370.541862 72.888717 
L 372.854656 73.018143 
L 375.16745 73.018844 
L 378.251174 72.968524 
L 379.022106 73.354966 
L 383.647693 73.754501 
L 384.418624 73.413293 
L 389.044211 72.8825 
L 389.815142 73.145147 
L 393.669798 73.763613 
L 394.440729 74.453489 
L 395.211661 74.879877 
L 396.753523 75.064322 
L 399.837248 74.971206 
L 400.608179 75.100253 
L 402.150041 75.056454 
L 406.004697 75.500419 
L 407.54656 75.434633 
L 409.859353 75.564831 
L 410.630285 75.299065 
L 411.401216 74.798786 
L 412.943078 75.461987 
L 414.484941 75.597207 
L 415.255872 75.913928 
L 416.026803 75.871829 
L 418.339597 76.291722 
L 419.110528 76.352866 
L 419.881459 76.565484 
L 420.65239 76.539792 
L 422.194253 76.838071 
L 423.736115 76.822185 
L 425.277977 77.090586 
L 426.048909 77.387253 
L 426.81984 77.422192 
L 427.590771 77.19466 
L 428.361702 78.002401 
L 429.903565 78.796792 
L 431.445427 79.104604 
L 432.216358 79.081598 
L 432.987289 79.351783 
L 433.758221 78.661491 
L 434.529152 78.13807 
L 436.071014 77.661268 
L 436.841945 77.481099 
L 437.612876 77.440278 
L 439.154739 76.972603 
L 439.92567 77.094945 
L 440.696601 77.082964 
L 442.238464 77.352445 
L 445.322188 77.563288 
L 446.864051 77.133169 
L 447.634982 76.928611 
L 449.947776 76.815838 
L 452.260569 76.743164 
L 453.802432 76.962928 
L 455.344294 77.320002 
L 457.657088 77.551829 
L 460.740812 77.044946 
L 461.511744 77.101486 
L 462.282675 76.865671 
L 463.824537 76.817954 
L 465.3664 76.877373 
L 466.137331 76.944681 
L 466.908262 76.796825 
L 469.221056 77.491333 
L 470.762918 77.707738 
L 473.075712 78.13441 
L 475.388505 77.77202 
L 476.159436 77.719393 
L 476.930368 78.006009 
L 477.701299 78.477367 
L 478.47223 78.792861 
L 479.243161 78.800724 
L 480.014092 78.274525 
L 480.785023 77.895996 
L 482.326886 76.863545 
L 483.868748 75.606478 
L 484.639679 75.50684 
L 486.181542 76.087202 
L 486.952473 76.424547 
L 488.494335 76.892288 
L 489.265267 77.242156 
L 490.036198 77.788454 
L 490.807129 77.87581 
L 491.57806 78.264622 
L 493.119923 78.849363 
L 494.661785 79.658848 
L 495.432716 79.855165 
L 496.203647 80.207191 
L 498.516441 80.489358 
L 499.287372 80.353399 
L 500.058303 80.600223 
L 502.371097 80.372034 
L 503.142028 80.522478 
L 503.912959 80.439117 
L 504.683891 80.585894 
L 507.767615 82.349288 
L 510.080409 82.894673 
L 512.393203 82.607055 
L 513.164134 82.674632 
L 514.705996 82.266849 
L 516.247859 81.286338 
L 517.789721 80.259252 
L 518.560652 79.997353 
L 524.728102 79.312895 
L 526.269964 79.455352 
L 527.040895 79.418831 
L 529.353689 79.64447 
L 530.895551 79.574344 
L 531.666482 79.463801 
L 532.437414 79.710792 
L 533.208345 79.653094 
L 535.521138 79.883133 
L 537.063001 79.973502 
L 537.833932 79.853695 
L 538.604863 79.955655 
L 543.23045 79.268652 
L 544.001382 78.968755 
L 549.3979 78.794171 
L 550.168831 78.376641 
L 550.939762 78.188238 
L 551.710694 78.200515 
L 553.252556 77.868697 
L 554.794418 77.151793 
L 556.336281 77.128793 
L 558.649074 76.337793 
L 561.732799 75.814729 
L 564.045593 74.967743 
L 564.816524 74.891888 
L 565.587455 74.629528 
L 566.358386 74.175293 
L 567.129317 73.851393 
L 567.900249 73.660869 
L 569.442111 73.61067 
L 571.754905 73.765892 
L 572.525836 73.455811 
L 574.838629 73.096256 
L 580.235148 72.610344 
L 587.94446 72.606322 
L 589.486322 72.640564 
L 594.111909 72.540213 
L 599.508428 72.306325 
L 601.05029 72.377309 
L 606.446809 72.264899 
L 610.301464 72.570204 
L 622.636364 72.756311 
L 622.636364 72.756311 
" style="fill:none;stroke:#fbc15e;stroke-linecap:square;stroke-opacity:0.4;stroke-width:2;"/>
   </g>
   <g id="line2d_35">
    <defs>
     <path d="M 0 3 
C 0.795609 3 1.55874 2.683901 2.12132 2.12132 
C 2.683901 1.55874 3 0.795609 3 0 
C 3 -0.795609 2.683901 -1.55874 2.12132 -2.12132 
C 1.55874 -2.683901 0.795609 -3 0 -3 
C -0.795609 -3 -1.55874 -2.683901 -2.12132 -2.12132 
C -2.683901 -1.55874 -3 -0.795609 -3 0 
C -3 0.795609 -2.683901 1.55874 -2.12132 2.12132 
C -1.55874 2.683901 -0.795609 3 0 3 
z
" id="m50308292a0" style="stroke:#fbc15e;stroke-opacity:0.4;"/>
    </defs>
    <g clip-path="url(#p4e7e5f4297)">
     <use style="fill:#fbc15e;fill-opacity:0.4;stroke:#fbc15e;stroke-opacity:0.4;" x="622.636364" xlink:href="#m50308292a0" y="72.756311"/>
    </g>
   </g>
   <g id="line2d_36">
    <path clip-path="url(#p4e7e5f4297)" d="M 136.16884 433 
L 136.178779 159.763506 
L 136.94971 159.763506 
L 137.720641 140.569855 
L 138.491572 140.569855 
L 139.262503 133.084811 
L 140.804366 125.264086 
L 141.575297 122.775039 
L 142.346228 118.332517 
L 143.117159 116.719053 
L 143.888091 110.58617 
L 145.429953 106.813825 
L 146.200884 106.180978 
L 147.742747 101.322509 
L 148.513678 101.725345 
L 149.284609 96.723177 
L 150.05554 95.199676 
L 150.826471 90.26066 
L 151.597403 90.44582 
L 152.368334 88.688279 
L 153.139265 88.015596 
L 153.910196 84.645662 
L 154.681127 82.856895 
L 155.452059 80.757779 
L 156.22299 80.655709 
L 156.993921 78.592551 
L 158.535783 76.962322 
L 161.619508 77.585827 
L 162.390439 77.876486 
L 163.161371 78.40826 
L 164.703233 78.021373 
L 166.245095 78.827855 
L 167.016027 79.057531 
L 167.786958 79.882231 
L 169.32882 80.248303 
L 170.870683 81.250246 
L 173.954407 83.969917 
L 174.725338 85.692463 
L 175.49627 86.900852 
L 176.267201 87.446883 
L 177.038132 88.327711 
L 177.809063 88.215877 
L 178.579994 88.493952 
L 179.350926 89.037433 
L 181.663719 91.671123 
L 182.43465 92.322796 
L 183.205582 93.433992 
L 183.976513 94.168145 
L 184.747444 94.313025 
L 187.060238 95.748684 
L 188.6021 97.569044 
L 189.373031 97.869149 
L 190.143962 98.720679 
L 190.914894 99.937285 
L 191.685825 101.691095 
L 192.456756 102.364614 
L 193.227687 103.70812 
L 194.76955 105.357018 
L 195.540481 105.155807 
L 197.082343 106.043005 
L 197.853274 106.903584 
L 198.624206 106.491978 
L 200.166068 108.689241 
L 200.936999 109.25338 
L 201.70793 108.985819 
L 202.478862 109.528929 
L 203.249793 111.187849 
L 204.020724 113.331583 
L 204.791655 113.576105 
L 205.562586 113.576105 
L 206.333518 113.955482 
L 207.104449 115.729156 
L 207.87538 117.074105 
L 208.646311 115.497424 
L 209.417242 115.574023 
L 210.188174 115.12368 
L 210.959105 115.197228 
L 211.730036 116.128794 
L 212.500967 115.807712 
L 213.271898 115.807712 
L 214.04283 116.546521 
L 214.813761 116.293623 
L 215.584692 116.984053 
L 216.355623 117.165043 
L 217.126554 116.04747 
L 217.897485 115.729156 
L 218.668417 114.764484 
L 219.439348 115.050714 
L 220.98121 113.392109 
L 223.294004 112.03893 
L 224.064935 113.15235 
L 224.835866 112.251128 
L 225.606797 113.576105 
L 226.377729 112.091524 
L 227.14866 111.882923 
L 227.919591 111.934633 
L 228.690522 111.381158 
L 229.461453 109.649587 
L 230.232385 108.762497 
L 231.003316 106.754466 
L 232.545178 105.907065 
L 233.316109 104.886114 
L 234.087041 102.874908 
L 235.628903 100.49068 
L 236.399834 100.079729 
L 237.941697 99.797005 
L 239.483559 100.022487 
L 241.025421 100.889388 
L 241.796353 100.43084 
L 242.567284 100.49068 
L 244.109146 100.022487 
L 244.880077 99.979787 
L 245.651009 99.243163 
L 247.192871 99.631437 
L 247.963802 99.190867 
L 248.734733 99.45536 
L 249.505665 98.959134 
L 250.276596 98.845414 
L 251.047527 99.164829 
L 251.818458 98.392081 
L 252.589389 97.948573 
L 253.360321 97.824068 
L 254.902183 97.320876 
L 255.673114 96.783244 
L 256.444045 95.802714 
L 257.214977 95.31032 
L 258.756839 94.810368 
L 260.298701 94.818483 
L 261.069632 94.916417 
L 262.611495 95.668226 
L 264.153357 95.5269 
L 264.924288 95.19122 
L 265.69522 94.721577 
L 266.466151 94.003182 
L 267.237082 93.617473 
L 268.008013 92.884696 
L 268.778944 92.428712 
L 269.549876 92.132728 
L 272.6336 91.533612 
L 274.175463 91.089501 
L 274.946394 90.68651 
L 275.717325 90.537259 
L 276.488256 90.511769 
L 279.571981 89.177353 
L 281.884775 89.020091 
L 283.426637 89.063507 
L 284.9685 88.580274 
L 285.739431 87.972963 
L 287.281293 87.755142 
L 288.052224 87.388625 
L 288.823156 87.240997 
L 289.594087 86.81177 
L 291.90688 86.356071 
L 294.219674 85.608278 
L 294.990605 85.728778 
L 295.761536 87.258874 
L 296.532468 89.137786 
L 297.303399 86.043369 
L 298.07433 86.134805 
L 298.845261 86.382071 
L 300.387124 87.251719 
L 301.928986 87.251719 
L 302.699917 88.444985 
L 303.470848 88.69664 
L 304.241779 88.806023 
L 305.783642 87.472487 
L 307.325504 87.472487 
L 308.096435 85.022681 
L 308.867367 83.776477 
L 309.638298 82.271611 
L 310.409229 81.058136 
L 311.18016 79.489934 
L 312.722023 79.489934 
L 313.492954 76.246006 
L 314.263885 75.470866 
L 315.034816 73.874732 
L 316.576679 71.609029 
L 318.118541 71.609029 
L 318.889472 68.961388 
L 319.660403 68.221327 
L 321.973197 64.849548 
L 323.515059 64.849548 
L 324.285991 62.443992 
L 327.369715 59.785103 
L 328.911578 59.785103 
L 329.682509 59.001024 
L 330.45344 58.971412 
L 331.224371 58.731204 
L 332.766234 58.578843 
L 334.308096 58.578843 
L 335.079027 59.349174 
L 335.849959 59.374614 
L 336.62089 59.694701 
L 338.162752 60.821916 
L 339.704615 60.821916 
L 340.475546 61.782583 
L 341.246477 62.109946 
L 343.559271 63.6007 
L 345.101133 63.6007 
L 345.872064 64.494288 
L 346.642995 64.591727 
L 347.413926 64.979929 
L 349.72672 65.349774 
L 350.497651 65.349774 
L 351.268582 65.67858 
L 352.039514 65.831488 
L 355.123238 65.857515 
L 355.89417 65.857515 
L 356.665101 65.502709 
L 360.519757 64.817081 
L 361.290688 64.817081 
L 362.061619 64.532957 
L 362.83255 64.530211 
L 363.603482 64.367247 
L 364.374413 64.362154 
L 365.145344 64.561377 
L 366.687206 64.561377 
L 367.458138 64.785668 
L 368.229069 64.784414 
L 369 64.971926 
L 369.770931 65.023265 
L 370.541862 66.58987 
L 373.625587 66.587201 
L 374.396518 66.439352 
L 375.16745 66.631524 
L 377.480243 66.631524 
L 380.563968 67.27836 
L 381.334899 66.042502 
L 382.876762 66.042502 
L 383.647693 67.246781 
L 384.418624 67.738239 
L 385.960486 69.290078 
L 386.731418 69.720391 
L 388.27328 69.720391 
L 389.044211 70.74986 
L 389.815142 71.110462 
L 392.127936 71.611 
L 393.669798 71.611 
L 395.982592 72.48108 
L 396.753523 72.853755 
L 397.524454 73.035921 
L 399.066317 73.035921 
L 399.837248 73.463448 
L 400.608179 73.66721 
L 401.37911 74.023678 
L 402.150041 73.967541 
L 402.920973 74.253451 
L 404.462835 74.253451 
L 405.233766 74.696887 
L 407.54656 75.534957 
L 408.317491 75.873728 
L 409.859353 75.873728 
L 410.630285 76.747831 
L 413.714009 77.97937 
L 416.797734 77.946687 
L 417.568665 77.829979 
L 418.339597 77.894635 
L 419.881459 77.837714 
L 420.65239 77.837714 
L 421.423321 77.695659 
L 422.194253 77.696929 
L 422.965184 77.85062 
L 423.736115 77.781142 
L 424.507046 77.582063 
L 426.048909 77.582063 
L 427.590771 77.055455 
L 429.132633 76.532613 
L 429.903565 76.409164 
L 431.445427 76.409164 
L 432.216358 75.950145 
L 432.987289 75.88729 
L 435.300083 74.783556 
L 436.841945 74.783556 
L 438.383808 74.003225 
L 439.92567 73.619725 
L 440.696601 73.373958 
L 442.238464 73.373958 
L 443.009395 72.662592 
L 443.780326 72.604616 
L 444.551257 72.324335 
L 445.322188 72.379857 
L 446.09312 72.240266 
L 447.634982 72.240266 
L 448.405913 76.194054 
L 449.176844 73.411407 
L 449.947776 73.49965 
L 450.718707 73.119857 
L 451.489638 72.914079 
L 453.0315 72.914079 
L 453.802432 69.436314 
L 454.573363 70.950695 
L 455.344294 70.769028 
L 457.657088 71.096783 
L 458.428019 71.096783 
L 459.19895 71.527947 
L 459.969881 71.59328 
L 461.511744 71.512336 
L 463.053606 71.572323 
L 463.824537 71.572323 
L 464.595468 71.309212 
L 465.3664 71.313028 
L 466.137331 71.680234 
L 468.450124 72.004205 
L 469.221056 72.004205 
L 469.991987 72.967948 
L 470.762918 73.358069 
L 473.075712 74.178536 
L 474.617574 74.178536 
L 476.930368 74.90853 
L 477.701299 76.646393 
L 478.47223 75.829009 
L 480.014092 75.829009 
L 480.785023 76.968188 
L 481.555955 77.128017 
L 482.326886 77.110121 
L 483.097817 75.782442 
L 483.868748 78.527005 
L 484.639679 76.99287 
L 485.410611 76.99287 
L 486.181542 80.79857 
L 486.952473 78.415122 
L 487.723404 79.214885 
L 488.494335 79.528577 
L 489.265267 78.214133 
L 490.036198 79.987443 
L 490.807129 79.987443 
L 491.57806 77.545756 
L 492.348991 80.484052 
L 493.119923 80.976234 
L 494.661785 82.60706 
L 496.203647 82.60706 
L 496.974579 84.106251 
L 497.74551 84.977847 
L 498.516441 87.237425 
L 499.287372 86.188829 
L 500.058303 86.636145 
L 501.600166 86.636145 
L 502.371097 88.054526 
L 503.142028 88.810256 
L 503.912959 87.687411 
L 504.683891 90.801367 
L 505.454822 91.804854 
L 506.996684 91.804854 
L 507.767615 93.877699 
L 508.538547 94.745708 
L 509.309478 95.838911 
L 510.85134 97.183504 
L 512.393203 97.183504 
L 513.164134 98.634358 
L 513.935065 98.64664 
L 514.705996 98.959134 
L 516.247859 97.756858 
L 517.789721 97.756858 
L 518.560652 95.668226 
L 520.102515 93.247238 
L 520.873446 92.612246 
L 521.644377 91.613578 
L 523.186239 91.613578 
L 523.95717 89.689141 
L 525.499033 87.834795 
L 526.269964 86.71004 
L 527.040895 87.869143 
L 527.811826 85.762194 
L 528.582758 85.762194 
L 529.353689 83.751968 
L 531.666482 82.079717 
L 532.437414 80.591181 
L 533.208345 81.734998 
L 533.979276 81.734998 
L 535.521138 81.103952 
L 539.375794 81.153691 
L 540.146726 80.662713 
L 542.459519 79.564272 
L 543.23045 79.010551 
L 544.772313 79.010551 
L 545.543244 77.493424 
L 548.626969 73.535185 
L 550.168831 73.535185 
L 550.939762 71.749991 
L 552.481625 70.270072 
L 554.023487 69.645229 
L 555.56535 69.645229 
L 556.336281 69.309511 
L 557.878143 69.431125 
L 561.732799 69.33617 
L 562.50373 69.486275 
L 564.045593 69.482623 
L 564.816524 71.050302 
L 566.358386 71.050302 
L 567.129317 75.999682 
L 567.900249 68.908298 
L 569.442111 68.601231 
L 570.213042 67.322009 
L 571.754905 67.322009 
L 572.525836 65.108605 
L 573.296767 69.525495 
L 575.609561 70.995447 
L 577.151423 70.995447 
L 577.922354 72.333566 
L 581.006079 74.471163 
L 582.547941 74.471163 
L 583.318873 75.348925 
L 584.089804 75.299812 
L 586.402597 76.595526 
L 587.94446 76.595526 
L 588.715391 77.131601 
L 589.486322 77.448804 
L 590.257253 77.901125 
L 591.028185 77.925831 
L 591.799116 78.249126 
L 593.340978 78.249126 
L 594.111909 78.762047 
L 596.424703 79.184989 
L 598.737497 79.202915 
L 599.508428 79.054588 
L 601.05029 78.058284 
L 601.821221 77.422875 
L 602.592153 77.019977 
L 604.134015 77.019977 
L 604.904946 75.981733 
L 605.675877 77.39333 
L 606.446809 75.323354 
L 607.988671 74.615571 
L 609.530533 74.615571 
L 610.301464 73.548951 
L 611.072396 72.088216 
L 611.843327 72.605348 
L 613.385189 71.076923 
L 614.927052 71.076923 
L 615.697983 69.85518 
L 616.468914 69.311047 
L 617.239845 68.553941 
L 618.781708 67.645438 
L 622.636364 67.645438 
L 622.636364 67.645438 
" style="fill:none;stroke:#8eba42;stroke-linecap:square;stroke-opacity:0.4;stroke-width:2;"/>
   </g>
   <g id="line2d_37">
    <defs>
     <path d="M 0 3 
C 0.795609 3 1.55874 2.683901 2.12132 2.12132 
C 2.683901 1.55874 3 0.795609 3 0 
C 3 -0.795609 2.683901 -1.55874 2.12132 -2.12132 
C 1.55874 -2.683901 0.795609 -3 0 -3 
C -0.795609 -3 -1.55874 -2.683901 -2.12132 -2.12132 
C -2.683901 -1.55874 -3 -0.795609 -3 0 
C -3 0.795609 -2.683901 1.55874 -2.12132 2.12132 
C -1.55874 2.683901 -0.795609 3 0 3 
z
" id="m88fe055488" style="stroke:#8eba42;stroke-opacity:0.4;"/>
    </defs>
    <g clip-path="url(#p4e7e5f4297)">
     <use style="fill:#8eba42;fill-opacity:0.4;stroke:#8eba42;stroke-opacity:0.4;" x="622.636364" xlink:href="#m88fe055488" y="67.645438"/>
    </g>
   </g>
   <g id="line2d_38">
    <path clip-path="url(#p4e7e5f4297)" d="M 115.363636 178.500277 
L 116.134568 178.500277 
L 116.905499 176.817413 
L 117.67643 176.817413 
L 118.447361 183.215297 
L 119.218292 176.817413 
L 119.989224 176.817413 
L 120.760155 178.500277 
L 121.531086 176.817413 
L 122.302017 180.559935 
L 123.84388 180.559935 
L 124.614811 193.355702 
L 125.385742 186.957819 
L 130.011329 186.957819 
L 130.78226 193.355702 
L 131.553191 193.355702 
L 131.561922 433 
M 133.086093 433 
L 133.095054 186.957819 
L 136.94971 186.957819 
L 137.720641 183.215297 
L 138.491572 193.355702 
L 139.262503 173.074891 
L 140.033435 167.764168 
L 140.804366 159.540314 
L 142.346228 151.719589 
L 143.117159 146.115621 
L 143.888091 143.571468 
L 144.659022 138.575471 
L 145.429953 136.236817 
L 146.200884 135.300401 
L 146.971815 132.783063 
L 147.742747 129.233759 
L 148.513678 126.476893 
L 149.284609 123.281338 
L 150.05554 120.865398 
L 150.826471 120.451827 
L 151.597403 116.605919 
L 153.139265 110.376774 
L 154.681127 103.014508 
L 155.452059 100.635708 
L 156.22299 97.683983 
L 156.993921 95.225375 
L 159.306715 89.994122 
L 160.848577 86.961556 
L 161.619508 86.327652 
L 162.390439 85.436955 
L 164.703233 82.186901 
L 165.474164 81.466569 
L 167.786958 79.937123 
L 168.557889 79.76158 
L 169.32882 79.8107 
L 170.870683 79.578874 
L 174.725338 80.336136 
L 175.49627 80.599107 
L 177.809063 80.76299 
L 178.579994 80.633761 
L 179.350926 80.734476 
L 180.892788 80.460472 
L 181.663719 80.490317 
L 183.205582 80.344178 
L 183.976513 80.61461 
L 185.518375 80.809291 
L 186.289306 80.996521 
L 187.060238 80.874355 
L 188.6021 81.135277 
L 190.143962 81.122163 
L 191.685825 81.296874 
L 192.456756 81.682299 
L 193.227687 81.827614 
L 194.76955 82.392132 
L 195.540481 82.481905 
L 196.311412 82.686371 
L 199.395137 82.940407 
L 200.166068 82.746084 
L 200.936999 82.866566 
L 201.70793 82.740954 
L 203.249793 82.850108 
L 204.020724 83.035999 
L 204.791655 82.92899 
L 205.562586 83.16011 
L 207.104449 83.475457 
L 207.87538 83.750324 
L 208.646311 83.674394 
L 209.417242 83.480576 
L 210.959105 83.636662 
L 211.730036 83.489071 
L 214.04283 83.448602 
L 214.813761 83.626952 
L 216.355623 83.719133 
L 217.126554 83.926399 
L 221.752141 83.359132 
L 226.377729 81.243363 
L 227.919591 80.052718 
L 229.461453 79.195667 
L 230.232385 78.638519 
L 231.003316 78.306057 
L 231.774247 77.761821 
L 233.316109 77.124147 
L 234.857972 76.186679 
L 240.25449 74.907815 
L 241.796353 74.250635 
L 246.42194 72.958978 
L 250.276596 72.812218 
L 251.047527 72.966969 
L 252.589389 72.867533 
L 254.902183 73.089356 
L 257.214977 73.251462 
L 258.756839 73.627721 
L 262.611495 74.778257 
L 263.382426 74.874309 
L 264.924288 74.824264 
L 268.778944 75.136749 
L 271.091738 75.859236 
L 272.6336 76.290808 
L 273.404532 76.768893 
L 274.946394 77.099189 
L 283.426637 77.382768 
L 284.197568 77.249738 
L 285.739431 77.399036 
L 286.510362 77.683129 
L 287.281293 78.274569 
L 289.594087 78.914812 
L 290.365018 78.979608 
L 291.135949 78.847822 
L 291.90688 78.505689 
L 292.677812 78.015222 
L 293.448743 77.86029 
L 294.219674 77.550656 
L 296.532468 77.339784 
L 297.303399 76.795453 
L 301.928986 76.688918 
L 302.699917 77.245861 
L 304.241779 77.129386 
L 305.012711 77.173038 
L 306.554573 76.822394 
L 307.325504 76.898978 
L 308.096435 76.727437 
L 308.867367 76.672898 
L 310.409229 75.953029 
L 311.18016 75.910563 
L 311.951091 75.746973 
L 312.722023 75.451366 
L 314.263885 75.207458 
L 316.576679 74.552505 
L 318.118541 74.412226 
L 318.889472 73.834741 
L 319.660403 73.614805 
L 320.431335 73.532118 
L 321.973197 73.024772 
L 322.744128 72.516186 
L 323.515059 72.299775 
L 324.285991 72.306229 
L 327.369715 71.189051 
L 328.140647 71.073508 
L 328.911578 70.400021 
L 329.682509 70.141136 
L 330.45344 69.423235 
L 331.224371 69.091479 
L 331.995303 68.594234 
L 332.766234 68.25454 
L 333.537165 67.775748 
L 334.308096 67.667507 
L 335.079027 67.27908 
L 335.849959 67.147248 
L 336.62089 66.684235 
L 337.391821 66.361644 
L 338.162752 65.855914 
L 338.933683 65.495297 
L 339.704615 65.299553 
L 340.475546 64.94501 
L 343.559271 64.156959 
L 347.413926 63.73431 
L 348.184858 64.298677 
L 348.955789 64.277627 
L 349.72672 64.460601 
L 352.039514 64.505123 
L 352.810445 64.350294 
L 353.581376 63.543349 
L 354.352307 63.323945 
L 355.123238 62.890656 
L 357.436032 62.182503 
L 358.977894 62.014953 
L 365.145344 61.744565 
L 366.687206 61.866065 
L 369 62.146017 
L 369.770931 62.348039 
L 370.541862 63.28338 
L 371.312794 63.162483 
L 372.854656 63.544113 
L 374.396518 63.569928 
L 375.938381 62.805867 
L 376.709312 62.301668 
L 377.480243 62.000657 
L 379.022106 61.732089 
L 380.563968 61.358666 
L 381.334899 60.603697 
L 382.10583 60.801832 
L 384.418624 60.663543 
L 385.189555 60.806536 
L 388.27328 61.909955 
L 389.815142 62.692387 
L 391.357005 63.309009 
L 392.127936 63.717631 
L 393.669798 64.266679 
L 394.440729 64.249726 
L 395.982592 64.655858 
L 401.37911 66.205844 
L 403.691904 67.35224 
L 404.462835 67.613399 
L 405.233766 68.118405 
L 407.54656 68.919939 
L 409.088422 69.639232 
L 410.630285 70.461992 
L 412.943078 72.053064 
L 414.484941 72.751431 
L 415.255872 72.919802 
L 416.026803 72.90619 
L 416.797734 72.656307 
L 419.110528 72.429853 
L 420.65239 72.688695 
L 421.423321 72.688733 
L 422.194253 72.983393 
L 423.736115 73.342418 
L 425.277977 73.726949 
L 426.81984 74.171708 
L 427.590771 74.201955 
L 429.132633 74.538821 
L 431.445427 74.880553 
L 432.216358 74.626945 
L 435.300083 74.687264 
L 436.071014 74.604912 
L 438.383808 74.850037 
L 439.154739 74.201863 
L 439.92567 74.031739 
L 440.696601 73.690778 
L 442.238464 73.345999 
L 443.009395 72.974047 
L 443.780326 72.818824 
L 444.551257 73.219445 
L 445.322188 72.990043 
L 446.09312 73.122307 
L 446.864051 73.117755 
L 447.634982 73.272842 
L 448.405913 73.143062 
L 449.176844 73.149257 
L 449.947776 72.984414 
L 450.718707 72.96551 
L 451.489638 72.703756 
L 453.802432 72.545239 
L 454.573363 72.223507 
L 455.344294 72.212026 
L 456.886156 72.399449 
L 457.657088 72.692089 
L 459.19895 72.781706 
L 460.740812 73.370688 
L 461.511744 73.52823 
L 462.282675 73.918711 
L 463.053606 73.908768 
L 463.824537 74.10884 
L 464.595468 74.588863 
L 466.908262 75.252127 
L 470.762918 75.859291 
L 473.075712 76.755023 
L 475.388505 77.827136 
L 476.930368 78.378048 
L 478.47223 78.927346 
L 480.785023 79.599148 
L 482.326886 80.140341 
L 483.097817 80.529552 
L 483.868748 81.160444 
L 484.639679 81.603508 
L 488.494335 82.674577 
L 490.036198 83.537378 
L 490.807129 83.948047 
L 491.57806 85.296036 
L 492.348991 85.335032 
L 494.661785 87.040088 
L 495.432716 86.870697 
L 496.203647 86.983521 
L 496.974579 86.179013 
L 497.74551 86.990368 
L 498.516441 86.811931 
L 499.287372 87.250234 
L 500.058303 86.543052 
L 500.829235 87.047895 
L 501.600166 87.089893 
L 503.142028 87.54445 
L 503.912959 88.180873 
L 505.454822 88.967614 
L 509.309478 89.116563 
L 510.85134 88.43535 
L 512.393203 88.431826 
L 513.164134 88.126388 
L 513.935065 88.549469 
L 514.705996 88.206049 
L 515.476927 88.125561 
L 516.247859 87.615901 
L 517.01879 88.01582 
L 517.789721 88.066371 
L 518.560652 88.681234 
L 519.331583 87.013226 
L 520.102515 86.454737 
L 520.873446 86.0677 
L 521.644377 84.682403 
L 522.415308 84.423368 
L 523.186239 83.930921 
L 523.95717 82.426432 
L 524.728102 82.264943 
L 526.269964 81.17405 
L 527.040895 79.82216 
L 527.811826 79.679572 
L 528.582758 79.32216 
L 529.353689 78.601497 
L 530.895551 77.508258 
L 531.666482 76.725124 
L 532.437414 75.547717 
L 533.208345 75.202695 
L 533.979276 75.063743 
L 534.750207 74.237598 
L 535.521138 73.615877 
L 537.063001 72.727757 
L 537.833932 71.477905 
L 538.604863 71.369584 
L 539.375794 71.067324 
L 540.917657 70.020378 
L 542.459519 69.201551 
L 543.23045 68.347854 
L 544.001382 68.13999 
L 544.772313 68.34451 
L 545.543244 67.638982 
L 546.314175 67.436341 
L 547.085106 66.808476 
L 547.856038 66.492456 
L 548.626969 66.746961 
L 549.3979 66.745138 
L 550.168831 66.591428 
L 551.710694 65.915028 
L 552.481625 65.890724 
L 554.794418 65.45622 
L 555.56535 65.507769 
L 556.336281 65.349478 
L 557.878143 65.214068 
L 558.649074 64.980917 
L 560.961868 64.996124 
L 563.274662 64.437901 
L 565.587455 64.541594 
L 566.358386 64.556439 
L 567.129317 66.176032 
L 567.900249 65.21123 
L 569.442111 65.524861 
L 571.754905 65.62942 
L 572.525836 64.089603 
L 573.296767 65.158124 
L 577.151423 65.531012 
L 577.922354 66.073642 
L 578.693285 66.298542 
L 580.235148 66.974496 
L 581.006079 67.308472 
L 581.77701 67.415583 
L 582.547941 67.310063 
L 583.318873 67.608633 
L 585.631666 68.026879 
L 586.402597 68.312479 
L 588.715391 68.677405 
L 593.340978 69.725443 
L 594.111909 70.497683 
L 595.653772 70.17794 
L 597.195634 70.635042 
L 597.966565 70.569405 
L 599.508428 70.630262 
L 601.05029 71.560975 
L 601.821221 71.671267 
L 602.592153 71.939484 
L 603.363084 72.035828 
L 604.134015 72.274876 
L 604.904946 72.078479 
L 605.675877 72.303922 
L 606.446809 72.119759 
L 608.759602 72.132933 
L 609.530533 71.896028 
L 610.301464 71.950237 
L 611.072396 71.86969 
L 611.843327 72.153462 
L 614.15612 72.020681 
L 616.468914 71.828292 
L 617.239845 71.626183 
L 618.010776 72.03675 
L 618.781708 71.274224 
L 619.552639 70.800424 
L 620.32357 70.953769 
L 622.636364 70.953769 
L 622.636364 70.953769 
" style="fill:none;stroke:#ffb5b8;stroke-linecap:square;stroke-opacity:0.4;stroke-width:2;"/>
   </g>
   <g id="line2d_39">
    <defs>
     <path d="M 0 3 
C 0.795609 3 1.55874 2.683901 2.12132 2.12132 
C 2.683901 1.55874 3 0.795609 3 0 
C 3 -0.795609 2.683901 -1.55874 2.12132 -2.12132 
C 1.55874 -2.683901 0.795609 -3 0 -3 
C -0.795609 -3 -1.55874 -2.683901 -2.12132 -2.12132 
C -2.683901 -1.55874 -3 -0.795609 -3 0 
C -3 0.795609 -2.683901 1.55874 -2.12132 2.12132 
C -1.55874 2.683901 -0.795609 3 0 3 
z
" id="m98274aeb10" style="stroke:#ffb5b8;stroke-opacity:0.4;"/>
    </defs>
    <g clip-path="url(#p4e7e5f4297)">
     <use style="fill:#ffb5b8;fill-opacity:0.4;stroke:#ffb5b8;stroke-opacity:0.4;" x="622.636364" xlink:href="#m98274aeb10" y="70.953769"/>
    </g>
   </g>
   <g id="patch_3">
    <path d="M 90 200.094545 
L 90 51.84 
" style="fill:none;stroke:#ffffff;stroke-linecap:square;stroke-linejoin:miter;"/>
   </g>
   <g id="patch_4">
    <path d="M 648 200.094545 
L 648 51.84 
" style="fill:none;stroke:#ffffff;stroke-linecap:square;stroke-linejoin:miter;"/>
   </g>
   <g id="patch_5">
    <path d="M 90 200.094545 
L 648 200.094545 
" style="fill:none;stroke:#ffffff;stroke-linecap:square;stroke-linejoin:miter;"/>
   </g>
   <g id="patch_6">
    <path d="M 90 51.84 
L 648 51.84 
" style="fill:none;stroke:#ffffff;stroke-linecap:square;stroke-linejoin:miter;"/>
   </g>
   <g id="legend_1">
    <g id="patch_7">
     <path d="M 97 162.586875 
L 192.7625 162.586875 
Q 194.7625 162.586875 194.7625 160.586875 
L 194.7625 58.84 
Q 194.7625 56.84 192.7625 56.84 
L 97 56.84 
Q 95 56.84 95 58.84 
L 95 160.586875 
Q 95 162.586875 97 162.586875 
z
" style="fill:#e5e5e5;opacity:0.8;stroke:#cccccc;stroke-linejoin:miter;stroke-width:0.5;"/>
    </g>
    <g id="line2d_40">
     <path d="M 99 64.938437 
L 119 64.938437 
" style="fill:none;stroke:#348abd;stroke-linecap:square;stroke-width:4;"/>
    </g>
    <g id="line2d_41"/>
    <g id="text_16">
     <text style="font-family:DejaVu Sans;font-size:10px;font-stretch:normal;font-style:normal;font-weight:normal;text-anchor:start;" transform="rotate(-0, 127, 68.438437)" x="127" y="68.438437">Korea, South</text>
    </g>
    <g id="line2d_42">
     <path d="M 99 79.616562 
L 119 79.616562 
" style="fill:none;stroke:#348abd;stroke-linecap:square;stroke-opacity:0.4;stroke-width:2;"/>
    </g>
    <g id="line2d_43"/>
    <g id="text_17">
     <text style="font-family:DejaVu Sans;font-size:10px;font-stretch:normal;font-style:normal;font-weight:normal;text-anchor:start;" transform="rotate(-0, 127, 83.116562)" x="127" y="83.116562">Germany</text>
    </g>
    <g id="line2d_44">
     <path d="M 99 94.294687 
L 119 94.294687 
" style="fill:none;stroke:#988ed5;stroke-linecap:square;stroke-opacity:0.4;stroke-width:2;"/>
    </g>
    <g id="line2d_45"/>
    <g id="text_18">
     <text style="font-family:DejaVu Sans;font-size:10px;font-stretch:normal;font-style:normal;font-weight:normal;text-anchor:start;" transform="rotate(-0, 127, 97.794687)" x="127" y="97.794687">Australia</text>
    </g>
    <g id="line2d_46">
     <path d="M 99 108.972812 
L 119 108.972812 
" style="fill:none;stroke:#777777;stroke-linecap:square;stroke-opacity:0.4;stroke-width:2;"/>
    </g>
    <g id="line2d_47"/>
    <g id="text_19">
     <text style="font-family:DejaVu Sans;font-size:10px;font-stretch:normal;font-style:normal;font-weight:normal;text-anchor:start;" transform="rotate(-0, 127, 112.472812)" x="127" y="112.472812">Poland</text>
    </g>
    <g id="line2d_48">
     <path d="M 99 123.650937 
L 119 123.650937 
" style="fill:none;stroke:#fbc15e;stroke-linecap:square;stroke-opacity:0.4;stroke-width:2;"/>
    </g>
    <g id="line2d_49"/>
    <g id="text_20">
     <text style="font-family:DejaVu Sans;font-size:10px;font-stretch:normal;font-style:normal;font-weight:normal;text-anchor:start;" transform="rotate(-0, 127, 127.150937)" x="127" y="127.150937">Belarus</text>
    </g>
    <g id="line2d_50">
     <path d="M 99 138.329062 
L 119 138.329062 
" style="fill:none;stroke:#8eba42;stroke-linecap:square;stroke-opacity:0.4;stroke-width:2;"/>
    </g>
    <g id="line2d_51"/>
    <g id="text_21">
     <text style="font-family:DejaVu Sans;font-size:10px;font-stretch:normal;font-style:normal;font-weight:normal;text-anchor:start;" transform="rotate(-0, 127, 141.829062)" x="127" y="141.829062">Switzerland</text>
    </g>
    <g id="line2d_52">
     <path d="M 99 153.007187 
L 119 153.007187 
" style="fill:none;stroke:#ffb5b8;stroke-linecap:square;stroke-opacity:0.4;stroke-width:2;"/>
    </g>
    <g id="line2d_53"/>
    <g id="text_22">
     <text style="font-family:DejaVu Sans;font-size:10px;font-stretch:normal;font-style:normal;font-weight:normal;text-anchor:start;" transform="rotate(-0, 127, 156.507187)" x="127" y="156.507187">US</text>
    </g>
   </g>
  </g>
 </g>
 <defs>
  <clipPath id="p4e7e5f4297">
   <rect height="148.254545" width="558" x="90" y="51.84"/>
  </clipPath>
 </defs>
</svg>
