<?xml version="1.0" encoding="utf-8" standalone="no"?>
<!DOCTYPE svg PUBLIC "-//W3C//DTD SVG 1.1//EN"
  "http://www.w3.org/Graphics/SVG/1.1/DTD/svg11.dtd">
<!-- Created with matplotlib (https://matplotlib.org/) -->
<svg height="180pt" version="1.1" viewBox="0 0 864 180" width="864pt" xmlns="http://www.w3.org/2000/svg" xmlns:xlink="http://www.w3.org/1999/xlink">
 <defs>
  <style type="text/css">
*{stroke-linecap:butt;stroke-linejoin:round;}
  </style>
 </defs>
 <g id="figure_1">
  <g id="patch_1">
   <path d="M 0 180 
L 864 180 
L 864 0 
L 0 0 
z
" style="fill:#ffffff;"/>
  </g>
  <g id="axes_1">
   <g id="patch_2">
    <path d="M 62.425 152.2 
L 797.45 152.2 
L 797.45 10.8 
L 62.425 10.8 
z
" style="fill:#e5e5e5;"/>
   </g>
   <g id="matplotlib.axis_1">
    <g id="xtick_1">
     <g id="line2d_1">
      <defs>
       <path d="M 0 0 
L 0 3.5 
" id="mf1047acd60" style="stroke:#555555;stroke-width:0.8;"/>
      </defs>
      <g>
       <use style="fill:#555555;stroke:#555555;stroke-width:0.8;" x="119.02992" xlink:href="#mf1047acd60" y="152.2"/>
      </g>
     </g>
     <g id="text_1">
      <!-- 2020-02 -->
      <defs>
       <path d="M 19.1875 8.296875 
L 53.609375 8.296875 
L 53.609375 0 
L 7.328125 0 
L 7.328125 8.296875 
Q 12.9375 14.109375 22.625 23.890625 
Q 32.328125 33.6875 34.8125 36.53125 
Q 39.546875 41.84375 41.421875 45.53125 
Q 43.3125 49.21875 43.3125 52.78125 
Q 43.3125 58.59375 39.234375 62.25 
Q 35.15625 65.921875 28.609375 65.921875 
Q 23.96875 65.921875 18.8125 64.3125 
Q 13.671875 62.703125 7.8125 59.421875 
L 7.8125 69.390625 
Q 13.765625 71.78125 18.9375 73 
Q 24.125 74.21875 28.421875 74.21875 
Q 39.75 74.21875 46.484375 68.546875 
Q 53.21875 62.890625 53.21875 53.421875 
Q 53.21875 48.921875 51.53125 44.890625 
Q 49.859375 40.875 45.40625 35.40625 
Q 44.1875 33.984375 37.640625 27.21875 
Q 31.109375 20.453125 19.1875 8.296875 
z
" id="DejaVuSans-50"/>
       <path d="M 31.78125 66.40625 
Q 24.171875 66.40625 20.328125 58.90625 
Q 16.5 51.421875 16.5 36.375 
Q 16.5 21.390625 20.328125 13.890625 
Q 24.171875 6.390625 31.78125 6.390625 
Q 39.453125 6.390625 43.28125 13.890625 
Q 47.125 21.390625 47.125 36.375 
Q 47.125 51.421875 43.28125 58.90625 
Q 39.453125 66.40625 31.78125 66.40625 
z
M 31.78125 74.21875 
Q 44.046875 74.21875 50.515625 64.515625 
Q 56.984375 54.828125 56.984375 36.375 
Q 56.984375 17.96875 50.515625 8.265625 
Q 44.046875 -1.421875 31.78125 -1.421875 
Q 19.53125 -1.421875 13.0625 8.265625 
Q 6.59375 17.96875 6.59375 36.375 
Q 6.59375 54.828125 13.0625 64.515625 
Q 19.53125 74.21875 31.78125 74.21875 
z
" id="DejaVuSans-48"/>
       <path d="M 4.890625 31.390625 
L 31.203125 31.390625 
L 31.203125 23.390625 
L 4.890625 23.390625 
z
" id="DejaVuSans-45"/>
      </defs>
      <g style="fill:#555555;" transform="translate(98.138514 166.798438)scale(0.1 -0.1)">
       <use xlink:href="#DejaVuSans-50"/>
       <use x="63.623047" xlink:href="#DejaVuSans-48"/>
       <use x="127.246094" xlink:href="#DejaVuSans-50"/>
       <use x="190.869141" xlink:href="#DejaVuSans-48"/>
       <use x="254.492188" xlink:href="#DejaVuSans-45"/>
       <use x="290.576172" xlink:href="#DejaVuSans-48"/>
       <use x="354.199219" xlink:href="#DejaVuSans-50"/>
      </g>
     </g>
    </g>
    <g id="xtick_2">
     <g id="line2d_2">
      <g>
       <use style="fill:#555555;stroke:#555555;stroke-width:0.8;" x="190.588014" xlink:href="#mf1047acd60" y="152.2"/>
      </g>
     </g>
     <g id="text_2">
      <!-- 2020-03 -->
      <defs>
       <path d="M 40.578125 39.3125 
Q 47.65625 37.796875 51.625 33 
Q 55.609375 28.21875 55.609375 21.1875 
Q 55.609375 10.40625 48.1875 4.484375 
Q 40.765625 -1.421875 27.09375 -1.421875 
Q 22.515625 -1.421875 17.65625 -0.515625 
Q 12.796875 0.390625 7.625 2.203125 
L 7.625 11.71875 
Q 11.71875 9.328125 16.59375 8.109375 
Q 21.484375 6.890625 26.8125 6.890625 
Q 36.078125 6.890625 40.9375 10.546875 
Q 45.796875 14.203125 45.796875 21.1875 
Q 45.796875 27.640625 41.28125 31.265625 
Q 36.765625 34.90625 28.71875 34.90625 
L 20.21875 34.90625 
L 20.21875 43.015625 
L 29.109375 43.015625 
Q 36.375 43.015625 40.234375 45.921875 
Q 44.09375 48.828125 44.09375 54.296875 
Q 44.09375 59.90625 40.109375 62.90625 
Q 36.140625 65.921875 28.71875 65.921875 
Q 24.65625 65.921875 20.015625 65.03125 
Q 15.375 64.15625 9.8125 62.3125 
L 9.8125 71.09375 
Q 15.4375 72.65625 20.34375 73.4375 
Q 25.25 74.21875 29.59375 74.21875 
Q 40.828125 74.21875 47.359375 69.109375 
Q 53.90625 64.015625 53.90625 55.328125 
Q 53.90625 49.265625 50.4375 45.09375 
Q 46.96875 40.921875 40.578125 39.3125 
z
" id="DejaVuSans-51"/>
      </defs>
      <g style="fill:#555555;" transform="translate(169.696607 166.798438)scale(0.1 -0.1)">
       <use xlink:href="#DejaVuSans-50"/>
       <use x="63.623047" xlink:href="#DejaVuSans-48"/>
       <use x="127.246094" xlink:href="#DejaVuSans-50"/>
       <use x="190.869141" xlink:href="#DejaVuSans-48"/>
       <use x="254.492188" xlink:href="#DejaVuSans-45"/>
       <use x="290.576172" xlink:href="#DejaVuSans-48"/>
       <use x="354.199219" xlink:href="#DejaVuSans-51"/>
      </g>
     </g>
    </g>
    <g id="xtick_3">
     <g id="line2d_3">
      <g>
       <use style="fill:#555555;stroke:#555555;stroke-width:0.8;" x="267.081148" xlink:href="#mf1047acd60" y="152.2"/>
      </g>
     </g>
     <g id="text_3">
      <!-- 2020-04 -->
      <defs>
       <path d="M 37.796875 64.3125 
L 12.890625 25.390625 
L 37.796875 25.390625 
z
M 35.203125 72.90625 
L 47.609375 72.90625 
L 47.609375 25.390625 
L 58.015625 25.390625 
L 58.015625 17.1875 
L 47.609375 17.1875 
L 47.609375 0 
L 37.796875 0 
L 37.796875 17.1875 
L 4.890625 17.1875 
L 4.890625 26.703125 
z
" id="DejaVuSans-52"/>
      </defs>
      <g style="fill:#555555;" transform="translate(246.189742 166.798438)scale(0.1 -0.1)">
       <use xlink:href="#DejaVuSans-50"/>
       <use x="63.623047" xlink:href="#DejaVuSans-48"/>
       <use x="127.246094" xlink:href="#DejaVuSans-50"/>
       <use x="190.869141" xlink:href="#DejaVuSans-48"/>
       <use x="254.492188" xlink:href="#DejaVuSans-45"/>
       <use x="290.576172" xlink:href="#DejaVuSans-48"/>
       <use x="354.199219" xlink:href="#DejaVuSans-52"/>
      </g>
     </g>
    </g>
    <g id="xtick_4">
     <g id="line2d_4">
      <g>
       <use style="fill:#555555;stroke:#555555;stroke-width:0.8;" x="341.106763" xlink:href="#mf1047acd60" y="152.2"/>
      </g>
     </g>
     <g id="text_4">
      <!-- 2020-05 -->
      <defs>
       <path d="M 10.796875 72.90625 
L 49.515625 72.90625 
L 49.515625 64.59375 
L 19.828125 64.59375 
L 19.828125 46.734375 
Q 21.96875 47.46875 24.109375 47.828125 
Q 26.265625 48.1875 28.421875 48.1875 
Q 40.625 48.1875 47.75 41.5 
Q 54.890625 34.8125 54.890625 23.390625 
Q 54.890625 11.625 47.5625 5.09375 
Q 40.234375 -1.421875 26.90625 -1.421875 
Q 22.3125 -1.421875 17.546875 -0.640625 
Q 12.796875 0.140625 7.71875 1.703125 
L 7.71875 11.625 
Q 12.109375 9.234375 16.796875 8.0625 
Q 21.484375 6.890625 26.703125 6.890625 
Q 35.15625 6.890625 40.078125 11.328125 
Q 45.015625 15.765625 45.015625 23.390625 
Q 45.015625 31 40.078125 35.4375 
Q 35.15625 39.890625 26.703125 39.890625 
Q 22.75 39.890625 18.8125 39.015625 
Q 14.890625 38.140625 10.796875 36.28125 
z
" id="DejaVuSans-53"/>
      </defs>
      <g style="fill:#555555;" transform="translate(320.215357 166.798438)scale(0.1 -0.1)">
       <use xlink:href="#DejaVuSans-50"/>
       <use x="63.623047" xlink:href="#DejaVuSans-48"/>
       <use x="127.246094" xlink:href="#DejaVuSans-50"/>
       <use x="190.869141" xlink:href="#DejaVuSans-48"/>
       <use x="254.492188" xlink:href="#DejaVuSans-45"/>
       <use x="290.576172" xlink:href="#DejaVuSans-48"/>
       <use x="354.199219" xlink:href="#DejaVuSans-53"/>
      </g>
     </g>
    </g>
    <g id="xtick_5">
     <g id="line2d_5">
      <g>
       <use style="fill:#555555;stroke:#555555;stroke-width:0.8;" x="417.599898" xlink:href="#mf1047acd60" y="152.2"/>
      </g>
     </g>
     <g id="text_5">
      <!-- 2020-06 -->
      <defs>
       <path d="M 33.015625 40.375 
Q 26.375 40.375 22.484375 35.828125 
Q 18.609375 31.296875 18.609375 23.390625 
Q 18.609375 15.53125 22.484375 10.953125 
Q 26.375 6.390625 33.015625 6.390625 
Q 39.65625 6.390625 43.53125 10.953125 
Q 47.40625 15.53125 47.40625 23.390625 
Q 47.40625 31.296875 43.53125 35.828125 
Q 39.65625 40.375 33.015625 40.375 
z
M 52.59375 71.296875 
L 52.59375 62.3125 
Q 48.875 64.0625 45.09375 64.984375 
Q 41.3125 65.921875 37.59375 65.921875 
Q 27.828125 65.921875 22.671875 59.328125 
Q 17.53125 52.734375 16.796875 39.40625 
Q 19.671875 43.65625 24.015625 45.921875 
Q 28.375 48.1875 33.59375 48.1875 
Q 44.578125 48.1875 50.953125 41.515625 
Q 57.328125 34.859375 57.328125 23.390625 
Q 57.328125 12.15625 50.6875 5.359375 
Q 44.046875 -1.421875 33.015625 -1.421875 
Q 20.359375 -1.421875 13.671875 8.265625 
Q 6.984375 17.96875 6.984375 36.375 
Q 6.984375 53.65625 15.1875 63.9375 
Q 23.390625 74.21875 37.203125 74.21875 
Q 40.921875 74.21875 44.703125 73.484375 
Q 48.484375 72.75 52.59375 71.296875 
z
" id="DejaVuSans-54"/>
      </defs>
      <g style="fill:#555555;" transform="translate(396.708491 166.798438)scale(0.1 -0.1)">
       <use xlink:href="#DejaVuSans-50"/>
       <use x="63.623047" xlink:href="#DejaVuSans-48"/>
       <use x="127.246094" xlink:href="#DejaVuSans-50"/>
       <use x="190.869141" xlink:href="#DejaVuSans-48"/>
       <use x="254.492188" xlink:href="#DejaVuSans-45"/>
       <use x="290.576172" xlink:href="#DejaVuSans-48"/>
       <use x="354.199219" xlink:href="#DejaVuSans-54"/>
      </g>
     </g>
    </g>
    <g id="xtick_6">
     <g id="line2d_6">
      <g>
       <use style="fill:#555555;stroke:#555555;stroke-width:0.8;" x="491.625512" xlink:href="#mf1047acd60" y="152.2"/>
      </g>
     </g>
     <g id="text_6">
      <!-- 2020-07 -->
      <defs>
       <path d="M 8.203125 72.90625 
L 55.078125 72.90625 
L 55.078125 68.703125 
L 28.609375 0 
L 18.3125 0 
L 43.21875 64.59375 
L 8.203125 64.59375 
z
" id="DejaVuSans-55"/>
      </defs>
      <g style="fill:#555555;" transform="translate(470.734106 166.798438)scale(0.1 -0.1)">
       <use xlink:href="#DejaVuSans-50"/>
       <use x="63.623047" xlink:href="#DejaVuSans-48"/>
       <use x="127.246094" xlink:href="#DejaVuSans-50"/>
       <use x="190.869141" xlink:href="#DejaVuSans-48"/>
       <use x="254.492188" xlink:href="#DejaVuSans-45"/>
       <use x="290.576172" xlink:href="#DejaVuSans-48"/>
       <use x="354.199219" xlink:href="#DejaVuSans-55"/>
      </g>
     </g>
    </g>
    <g id="xtick_7">
     <g id="line2d_7">
      <g>
       <use style="fill:#555555;stroke:#555555;stroke-width:0.8;" x="568.118647" xlink:href="#mf1047acd60" y="152.2"/>
      </g>
     </g>
     <g id="text_7">
      <!-- 2020-08 -->
      <defs>
       <path d="M 31.78125 34.625 
Q 24.75 34.625 20.71875 30.859375 
Q 16.703125 27.09375 16.703125 20.515625 
Q 16.703125 13.921875 20.71875 10.15625 
Q 24.75 6.390625 31.78125 6.390625 
Q 38.8125 6.390625 42.859375 10.171875 
Q 46.921875 13.96875 46.921875 20.515625 
Q 46.921875 27.09375 42.890625 30.859375 
Q 38.875 34.625 31.78125 34.625 
z
M 21.921875 38.8125 
Q 15.578125 40.375 12.03125 44.71875 
Q 8.5 49.078125 8.5 55.328125 
Q 8.5 64.0625 14.71875 69.140625 
Q 20.953125 74.21875 31.78125 74.21875 
Q 42.671875 74.21875 48.875 69.140625 
Q 55.078125 64.0625 55.078125 55.328125 
Q 55.078125 49.078125 51.53125 44.71875 
Q 48 40.375 41.703125 38.8125 
Q 48.828125 37.15625 52.796875 32.3125 
Q 56.78125 27.484375 56.78125 20.515625 
Q 56.78125 9.90625 50.3125 4.234375 
Q 43.84375 -1.421875 31.78125 -1.421875 
Q 19.734375 -1.421875 13.25 4.234375 
Q 6.78125 9.90625 6.78125 20.515625 
Q 6.78125 27.484375 10.78125 32.3125 
Q 14.796875 37.15625 21.921875 38.8125 
z
M 18.3125 54.390625 
Q 18.3125 48.734375 21.84375 45.5625 
Q 25.390625 42.390625 31.78125 42.390625 
Q 38.140625 42.390625 41.71875 45.5625 
Q 45.3125 48.734375 45.3125 54.390625 
Q 45.3125 60.0625 41.71875 63.234375 
Q 38.140625 66.40625 31.78125 66.40625 
Q 25.390625 66.40625 21.84375 63.234375 
Q 18.3125 60.0625 18.3125 54.390625 
z
" id="DejaVuSans-56"/>
      </defs>
      <g style="fill:#555555;" transform="translate(547.227241 166.798438)scale(0.1 -0.1)">
       <use xlink:href="#DejaVuSans-50"/>
       <use x="63.623047" xlink:href="#DejaVuSans-48"/>
       <use x="127.246094" xlink:href="#DejaVuSans-50"/>
       <use x="190.869141" xlink:href="#DejaVuSans-48"/>
       <use x="254.492188" xlink:href="#DejaVuSans-45"/>
       <use x="290.576172" xlink:href="#DejaVuSans-48"/>
       <use x="354.199219" xlink:href="#DejaVuSans-56"/>
      </g>
     </g>
    </g>
    <g id="xtick_8">
     <g id="line2d_8">
      <g>
       <use style="fill:#555555;stroke:#555555;stroke-width:0.8;" x="644.611782" xlink:href="#mf1047acd60" y="152.2"/>
      </g>
     </g>
     <g id="text_8">
      <!-- 2020-09 -->
      <defs>
       <path d="M 10.984375 1.515625 
L 10.984375 10.5 
Q 14.703125 8.734375 18.5 7.8125 
Q 22.3125 6.890625 25.984375 6.890625 
Q 35.75 6.890625 40.890625 13.453125 
Q 46.046875 20.015625 46.78125 33.40625 
Q 43.953125 29.203125 39.59375 26.953125 
Q 35.25 24.703125 29.984375 24.703125 
Q 19.046875 24.703125 12.671875 31.3125 
Q 6.296875 37.9375 6.296875 49.421875 
Q 6.296875 60.640625 12.9375 67.421875 
Q 19.578125 74.21875 30.609375 74.21875 
Q 43.265625 74.21875 49.921875 64.515625 
Q 56.59375 54.828125 56.59375 36.375 
Q 56.59375 19.140625 48.40625 8.859375 
Q 40.234375 -1.421875 26.421875 -1.421875 
Q 22.703125 -1.421875 18.890625 -0.6875 
Q 15.09375 0.046875 10.984375 1.515625 
z
M 30.609375 32.421875 
Q 37.25 32.421875 41.125 36.953125 
Q 45.015625 41.5 45.015625 49.421875 
Q 45.015625 57.28125 41.125 61.84375 
Q 37.25 66.40625 30.609375 66.40625 
Q 23.96875 66.40625 20.09375 61.84375 
Q 16.21875 57.28125 16.21875 49.421875 
Q 16.21875 41.5 20.09375 36.953125 
Q 23.96875 32.421875 30.609375 32.421875 
z
" id="DejaVuSans-57"/>
      </defs>
      <g style="fill:#555555;" transform="translate(623.720375 166.798438)scale(0.1 -0.1)">
       <use xlink:href="#DejaVuSans-50"/>
       <use x="63.623047" xlink:href="#DejaVuSans-48"/>
       <use x="127.246094" xlink:href="#DejaVuSans-50"/>
       <use x="190.869141" xlink:href="#DejaVuSans-48"/>
       <use x="254.492188" xlink:href="#DejaVuSans-45"/>
       <use x="290.576172" xlink:href="#DejaVuSans-48"/>
       <use x="354.199219" xlink:href="#DejaVuSans-57"/>
      </g>
     </g>
    </g>
    <g id="xtick_9">
     <g id="line2d_9">
      <g>
       <use style="fill:#555555;stroke:#555555;stroke-width:0.8;" x="718.637396" xlink:href="#mf1047acd60" y="152.2"/>
      </g>
     </g>
     <g id="text_9">
      <!-- 2020-10 -->
      <defs>
       <path d="M 12.40625 8.296875 
L 28.515625 8.296875 
L 28.515625 63.921875 
L 10.984375 60.40625 
L 10.984375 69.390625 
L 28.421875 72.90625 
L 38.28125 72.90625 
L 38.28125 8.296875 
L 54.390625 8.296875 
L 54.390625 0 
L 12.40625 0 
z
" id="DejaVuSans-49"/>
      </defs>
      <g style="fill:#555555;" transform="translate(697.74599 166.798438)scale(0.1 -0.1)">
       <use xlink:href="#DejaVuSans-50"/>
       <use x="63.623047" xlink:href="#DejaVuSans-48"/>
       <use x="127.246094" xlink:href="#DejaVuSans-50"/>
       <use x="190.869141" xlink:href="#DejaVuSans-48"/>
       <use x="254.492188" xlink:href="#DejaVuSans-45"/>
       <use x="290.576172" xlink:href="#DejaVuSans-49"/>
       <use x="354.199219" xlink:href="#DejaVuSans-48"/>
      </g>
     </g>
    </g>
    <g id="xtick_10">
     <g id="line2d_10">
      <g>
       <use style="fill:#555555;stroke:#555555;stroke-width:0.8;" x="795.130531" xlink:href="#mf1047acd60" y="152.2"/>
      </g>
     </g>
     <g id="text_10">
      <!-- 2020-11 -->
      <g style="fill:#555555;" transform="translate(774.239125 166.798438)scale(0.1 -0.1)">
       <use xlink:href="#DejaVuSans-50"/>
       <use x="63.623047" xlink:href="#DejaVuSans-48"/>
       <use x="127.246094" xlink:href="#DejaVuSans-50"/>
       <use x="190.869141" xlink:href="#DejaVuSans-48"/>
       <use x="254.492188" xlink:href="#DejaVuSans-45"/>
       <use x="290.576172" xlink:href="#DejaVuSans-49"/>
       <use x="354.199219" xlink:href="#DejaVuSans-49"/>
      </g>
     </g>
    </g>
   </g>
   <g id="matplotlib.axis_2">
    <g id="ytick_1">
     <g id="line2d_11">
      <defs>
       <path d="M 0 0 
L -3.5 0 
" id="me59bc7d340" style="stroke:#555555;stroke-width:0.8;"/>
      </defs>
      <g>
       <use style="fill:#555555;stroke:#555555;stroke-width:0.8;" x="62.425" xlink:href="#me59bc7d340" y="152.2"/>
      </g>
     </g>
     <g id="text_11">
      <!-- 0 -->
      <g style="fill:#555555;" transform="translate(49.0625 155.999219)scale(0.1 -0.1)">
       <use xlink:href="#DejaVuSans-48"/>
      </g>
     </g>
    </g>
    <g id="ytick_2">
     <g id="line2d_12">
      <g>
       <use style="fill:#555555;stroke:#555555;stroke-width:0.8;" x="62.425" xlink:href="#me59bc7d340" y="114.818841"/>
      </g>
     </g>
     <g id="text_12">
      <!-- 10 -->
      <g style="fill:#555555;" transform="translate(42.7 118.61806)scale(0.1 -0.1)">
       <use xlink:href="#DejaVuSans-49"/>
       <use x="63.623047" xlink:href="#DejaVuSans-48"/>
      </g>
     </g>
    </g>
    <g id="ytick_3">
     <g id="line2d_13">
      <g>
       <use style="fill:#555555;stroke:#555555;stroke-width:0.8;" x="62.425" xlink:href="#me59bc7d340" y="77.437683"/>
      </g>
     </g>
     <g id="text_13">
      <!-- 20 -->
      <g style="fill:#555555;" transform="translate(42.7 81.236902)scale(0.1 -0.1)">
       <use xlink:href="#DejaVuSans-50"/>
       <use x="63.623047" xlink:href="#DejaVuSans-48"/>
      </g>
     </g>
    </g>
    <g id="ytick_4">
     <g id="line2d_14">
      <g>
       <use style="fill:#555555;stroke:#555555;stroke-width:0.8;" x="62.425" xlink:href="#me59bc7d340" y="40.056524"/>
      </g>
     </g>
     <g id="text_14">
      <!-- 30 -->
      <g style="fill:#555555;" transform="translate(42.7 43.855743)scale(0.1 -0.1)">
       <use xlink:href="#DejaVuSans-51"/>
       <use x="63.623047" xlink:href="#DejaVuSans-48"/>
      </g>
     </g>
    </g>
    <g id="text_15">
     <!-- daily change -->
     <defs>
      <path d="M 45.40625 46.390625 
L 45.40625 75.984375 
L 54.390625 75.984375 
L 54.390625 0 
L 45.40625 0 
L 45.40625 8.203125 
Q 42.578125 3.328125 38.25 0.953125 
Q 33.9375 -1.421875 27.875 -1.421875 
Q 17.96875 -1.421875 11.734375 6.484375 
Q 5.515625 14.40625 5.515625 27.296875 
Q 5.515625 40.1875 11.734375 48.09375 
Q 17.96875 56 27.875 56 
Q 33.9375 56 38.25 53.625 
Q 42.578125 51.265625 45.40625 46.390625 
z
M 14.796875 27.296875 
Q 14.796875 17.390625 18.875 11.75 
Q 22.953125 6.109375 30.078125 6.109375 
Q 37.203125 6.109375 41.296875 11.75 
Q 45.40625 17.390625 45.40625 27.296875 
Q 45.40625 37.203125 41.296875 42.84375 
Q 37.203125 48.484375 30.078125 48.484375 
Q 22.953125 48.484375 18.875 42.84375 
Q 14.796875 37.203125 14.796875 27.296875 
z
" id="DejaVuSans-100"/>
      <path d="M 34.28125 27.484375 
Q 23.390625 27.484375 19.1875 25 
Q 14.984375 22.515625 14.984375 16.5 
Q 14.984375 11.71875 18.140625 8.90625 
Q 21.296875 6.109375 26.703125 6.109375 
Q 34.1875 6.109375 38.703125 11.40625 
Q 43.21875 16.703125 43.21875 25.484375 
L 43.21875 27.484375 
z
M 52.203125 31.203125 
L 52.203125 0 
L 43.21875 0 
L 43.21875 8.296875 
Q 40.140625 3.328125 35.546875 0.953125 
Q 30.953125 -1.421875 24.3125 -1.421875 
Q 15.921875 -1.421875 10.953125 3.296875 
Q 6 8.015625 6 15.921875 
Q 6 25.140625 12.171875 29.828125 
Q 18.359375 34.515625 30.609375 34.515625 
L 43.21875 34.515625 
L 43.21875 35.40625 
Q 43.21875 41.609375 39.140625 45 
Q 35.0625 48.390625 27.6875 48.390625 
Q 23 48.390625 18.546875 47.265625 
Q 14.109375 46.140625 10.015625 43.890625 
L 10.015625 52.203125 
Q 14.9375 54.109375 19.578125 55.046875 
Q 24.21875 56 28.609375 56 
Q 40.484375 56 46.34375 49.84375 
Q 52.203125 43.703125 52.203125 31.203125 
z
" id="DejaVuSans-97"/>
      <path d="M 9.421875 54.6875 
L 18.40625 54.6875 
L 18.40625 0 
L 9.421875 0 
z
M 9.421875 75.984375 
L 18.40625 75.984375 
L 18.40625 64.59375 
L 9.421875 64.59375 
z
" id="DejaVuSans-105"/>
      <path d="M 9.421875 75.984375 
L 18.40625 75.984375 
L 18.40625 0 
L 9.421875 0 
z
" id="DejaVuSans-108"/>
      <path d="M 32.171875 -5.078125 
Q 28.375 -14.84375 24.75 -17.8125 
Q 21.140625 -20.796875 15.09375 -20.796875 
L 7.90625 -20.796875 
L 7.90625 -13.28125 
L 13.1875 -13.28125 
Q 16.890625 -13.28125 18.9375 -11.515625 
Q 21 -9.765625 23.484375 -3.21875 
L 25.09375 0.875 
L 2.984375 54.6875 
L 12.5 54.6875 
L 29.59375 11.921875 
L 46.6875 54.6875 
L 56.203125 54.6875 
z
" id="DejaVuSans-121"/>
      <path id="DejaVuSans-32"/>
      <path d="M 48.78125 52.59375 
L 48.78125 44.1875 
Q 44.96875 46.296875 41.140625 47.34375 
Q 37.3125 48.390625 33.40625 48.390625 
Q 24.65625 48.390625 19.8125 42.84375 
Q 14.984375 37.3125 14.984375 27.296875 
Q 14.984375 17.28125 19.8125 11.734375 
Q 24.65625 6.203125 33.40625 6.203125 
Q 37.3125 6.203125 41.140625 7.25 
Q 44.96875 8.296875 48.78125 10.40625 
L 48.78125 2.09375 
Q 45.015625 0.34375 40.984375 -0.53125 
Q 36.96875 -1.421875 32.421875 -1.421875 
Q 20.0625 -1.421875 12.78125 6.34375 
Q 5.515625 14.109375 5.515625 27.296875 
Q 5.515625 40.671875 12.859375 48.328125 
Q 20.21875 56 33.015625 56 
Q 37.15625 56 41.109375 55.140625 
Q 45.0625 54.296875 48.78125 52.59375 
z
" id="DejaVuSans-99"/>
      <path d="M 54.890625 33.015625 
L 54.890625 0 
L 45.90625 0 
L 45.90625 32.71875 
Q 45.90625 40.484375 42.875 44.328125 
Q 39.84375 48.1875 33.796875 48.1875 
Q 26.515625 48.1875 22.3125 43.546875 
Q 18.109375 38.921875 18.109375 30.90625 
L 18.109375 0 
L 9.078125 0 
L 9.078125 75.984375 
L 18.109375 75.984375 
L 18.109375 46.1875 
Q 21.34375 51.125 25.703125 53.5625 
Q 30.078125 56 35.796875 56 
Q 45.21875 56 50.046875 50.171875 
Q 54.890625 44.34375 54.890625 33.015625 
z
" id="DejaVuSans-104"/>
      <path d="M 54.890625 33.015625 
L 54.890625 0 
L 45.90625 0 
L 45.90625 32.71875 
Q 45.90625 40.484375 42.875 44.328125 
Q 39.84375 48.1875 33.796875 48.1875 
Q 26.515625 48.1875 22.3125 43.546875 
Q 18.109375 38.921875 18.109375 30.90625 
L 18.109375 0 
L 9.078125 0 
L 9.078125 54.6875 
L 18.109375 54.6875 
L 18.109375 46.1875 
Q 21.34375 51.125 25.703125 53.5625 
Q 30.078125 56 35.796875 56 
Q 45.21875 56 50.046875 50.171875 
Q 54.890625 44.34375 54.890625 33.015625 
z
" id="DejaVuSans-110"/>
      <path d="M 45.40625 27.984375 
Q 45.40625 37.75 41.375 43.109375 
Q 37.359375 48.484375 30.078125 48.484375 
Q 22.859375 48.484375 18.828125 43.109375 
Q 14.796875 37.75 14.796875 27.984375 
Q 14.796875 18.265625 18.828125 12.890625 
Q 22.859375 7.515625 30.078125 7.515625 
Q 37.359375 7.515625 41.375 12.890625 
Q 45.40625 18.265625 45.40625 27.984375 
z
M 54.390625 6.78125 
Q 54.390625 -7.171875 48.1875 -13.984375 
Q 42 -20.796875 29.203125 -20.796875 
Q 24.46875 -20.796875 20.265625 -20.09375 
Q 16.0625 -19.390625 12.109375 -17.921875 
L 12.109375 -9.1875 
Q 16.0625 -11.328125 19.921875 -12.34375 
Q 23.78125 -13.375 27.78125 -13.375 
Q 36.625 -13.375 41.015625 -8.765625 
Q 45.40625 -4.15625 45.40625 5.171875 
L 45.40625 9.625 
Q 42.625 4.78125 38.28125 2.390625 
Q 33.9375 0 27.875 0 
Q 17.828125 0 11.671875 7.65625 
Q 5.515625 15.328125 5.515625 27.984375 
Q 5.515625 40.671875 11.671875 48.328125 
Q 17.828125 56 27.875 56 
Q 33.9375 56 38.28125 53.609375 
Q 42.625 51.21875 45.40625 46.390625 
L 45.40625 54.6875 
L 54.390625 54.6875 
z
" id="DejaVuSans-103"/>
      <path d="M 56.203125 29.59375 
L 56.203125 25.203125 
L 14.890625 25.203125 
Q 15.484375 15.921875 20.484375 11.0625 
Q 25.484375 6.203125 34.421875 6.203125 
Q 39.59375 6.203125 44.453125 7.46875 
Q 49.3125 8.734375 54.109375 11.28125 
L 54.109375 2.78125 
Q 49.265625 0.734375 44.1875 -0.34375 
Q 39.109375 -1.421875 33.890625 -1.421875 
Q 20.796875 -1.421875 13.15625 6.1875 
Q 5.515625 13.8125 5.515625 26.8125 
Q 5.515625 40.234375 12.765625 48.109375 
Q 20.015625 56 32.328125 56 
Q 43.359375 56 49.78125 48.890625 
Q 56.203125 41.796875 56.203125 29.59375 
z
M 47.21875 32.234375 
Q 47.125 39.59375 43.09375 43.984375 
Q 39.0625 48.390625 32.421875 48.390625 
Q 24.90625 48.390625 20.390625 44.140625 
Q 15.875 39.890625 15.1875 32.171875 
z
" id="DejaVuSans-101"/>
     </defs>
     <g style="fill:#555555;" transform="translate(22.767 119.859688)rotate(-90)scale(0.12 -0.12)">
      <use xlink:href="#DejaVuSans-100"/>
      <use x="63.476562" xlink:href="#DejaVuSans-97"/>
      <use x="124.755859" xlink:href="#DejaVuSans-105"/>
      <use x="152.539062" xlink:href="#DejaVuSans-108"/>
      <use x="180.322266" xlink:href="#DejaVuSans-121"/>
      <use x="239.501953" xlink:href="#DejaVuSans-32"/>
      <use x="271.289062" xlink:href="#DejaVuSans-99"/>
      <use x="326.269531" xlink:href="#DejaVuSans-104"/>
      <use x="389.648438" xlink:href="#DejaVuSans-97"/>
      <use x="450.927734" xlink:href="#DejaVuSans-110"/>
      <use x="514.306641" xlink:href="#DejaVuSans-103"/>
      <use x="577.783203" xlink:href="#DejaVuSans-101"/>
     </g>
     <!-- normalised per 100K -->
     <defs>
      <path d="M 30.609375 48.390625 
Q 23.390625 48.390625 19.1875 42.75 
Q 14.984375 37.109375 14.984375 27.296875 
Q 14.984375 17.484375 19.15625 11.84375 
Q 23.34375 6.203125 30.609375 6.203125 
Q 37.796875 6.203125 41.984375 11.859375 
Q 46.1875 17.53125 46.1875 27.296875 
Q 46.1875 37.015625 41.984375 42.703125 
Q 37.796875 48.390625 30.609375 48.390625 
z
M 30.609375 56 
Q 42.328125 56 49.015625 48.375 
Q 55.71875 40.765625 55.71875 27.296875 
Q 55.71875 13.875 49.015625 6.21875 
Q 42.328125 -1.421875 30.609375 -1.421875 
Q 18.84375 -1.421875 12.171875 6.21875 
Q 5.515625 13.875 5.515625 27.296875 
Q 5.515625 40.765625 12.171875 48.375 
Q 18.84375 56 30.609375 56 
z
" id="DejaVuSans-111"/>
      <path d="M 41.109375 46.296875 
Q 39.59375 47.171875 37.8125 47.578125 
Q 36.03125 48 33.890625 48 
Q 26.265625 48 22.1875 43.046875 
Q 18.109375 38.09375 18.109375 28.8125 
L 18.109375 0 
L 9.078125 0 
L 9.078125 54.6875 
L 18.109375 54.6875 
L 18.109375 46.1875 
Q 20.953125 51.171875 25.484375 53.578125 
Q 30.03125 56 36.53125 56 
Q 37.453125 56 38.578125 55.875 
Q 39.703125 55.765625 41.0625 55.515625 
z
" id="DejaVuSans-114"/>
      <path d="M 52 44.1875 
Q 55.375 50.25 60.0625 53.125 
Q 64.75 56 71.09375 56 
Q 79.640625 56 84.28125 50.015625 
Q 88.921875 44.046875 88.921875 33.015625 
L 88.921875 0 
L 79.890625 0 
L 79.890625 32.71875 
Q 79.890625 40.578125 77.09375 44.375 
Q 74.3125 48.1875 68.609375 48.1875 
Q 61.625 48.1875 57.5625 43.546875 
Q 53.515625 38.921875 53.515625 30.90625 
L 53.515625 0 
L 44.484375 0 
L 44.484375 32.71875 
Q 44.484375 40.625 41.703125 44.40625 
Q 38.921875 48.1875 33.109375 48.1875 
Q 26.21875 48.1875 22.15625 43.53125 
Q 18.109375 38.875 18.109375 30.90625 
L 18.109375 0 
L 9.078125 0 
L 9.078125 54.6875 
L 18.109375 54.6875 
L 18.109375 46.1875 
Q 21.1875 51.21875 25.484375 53.609375 
Q 29.78125 56 35.6875 56 
Q 41.65625 56 45.828125 52.96875 
Q 50 49.953125 52 44.1875 
z
" id="DejaVuSans-109"/>
      <path d="M 44.28125 53.078125 
L 44.28125 44.578125 
Q 40.484375 46.53125 36.375 47.5 
Q 32.28125 48.484375 27.875 48.484375 
Q 21.1875 48.484375 17.84375 46.4375 
Q 14.5 44.390625 14.5 40.28125 
Q 14.5 37.15625 16.890625 35.375 
Q 19.28125 33.59375 26.515625 31.984375 
L 29.59375 31.296875 
Q 39.15625 29.25 43.1875 25.515625 
Q 47.21875 21.78125 47.21875 15.09375 
Q 47.21875 7.46875 41.1875 3.015625 
Q 35.15625 -1.421875 24.609375 -1.421875 
Q 20.21875 -1.421875 15.453125 -0.5625 
Q 10.6875 0.296875 5.421875 2 
L 5.421875 11.28125 
Q 10.40625 8.6875 15.234375 7.390625 
Q 20.0625 6.109375 24.8125 6.109375 
Q 31.15625 6.109375 34.5625 8.28125 
Q 37.984375 10.453125 37.984375 14.40625 
Q 37.984375 18.0625 35.515625 20.015625 
Q 33.0625 21.96875 24.703125 23.78125 
L 21.578125 24.515625 
Q 13.234375 26.265625 9.515625 29.90625 
Q 5.8125 33.546875 5.8125 39.890625 
Q 5.8125 47.609375 11.28125 51.796875 
Q 16.75 56 26.8125 56 
Q 31.78125 56 36.171875 55.265625 
Q 40.578125 54.546875 44.28125 53.078125 
z
" id="DejaVuSans-115"/>
      <path d="M 18.109375 8.203125 
L 18.109375 -20.796875 
L 9.078125 -20.796875 
L 9.078125 54.6875 
L 18.109375 54.6875 
L 18.109375 46.390625 
Q 20.953125 51.265625 25.265625 53.625 
Q 29.59375 56 35.59375 56 
Q 45.5625 56 51.78125 48.09375 
Q 58.015625 40.1875 58.015625 27.296875 
Q 58.015625 14.40625 51.78125 6.484375 
Q 45.5625 -1.421875 35.59375 -1.421875 
Q 29.59375 -1.421875 25.265625 0.953125 
Q 20.953125 3.328125 18.109375 8.203125 
z
M 48.6875 27.296875 
Q 48.6875 37.203125 44.609375 42.84375 
Q 40.53125 48.484375 33.40625 48.484375 
Q 26.265625 48.484375 22.1875 42.84375 
Q 18.109375 37.203125 18.109375 27.296875 
Q 18.109375 17.390625 22.1875 11.75 
Q 26.265625 6.109375 33.40625 6.109375 
Q 40.53125 6.109375 44.609375 11.75 
Q 48.6875 17.390625 48.6875 27.296875 
z
" id="DejaVuSans-112"/>
      <path d="M 9.8125 72.90625 
L 19.671875 72.90625 
L 19.671875 42.09375 
L 52.390625 72.90625 
L 65.09375 72.90625 
L 28.90625 38.921875 
L 67.671875 0 
L 54.6875 0 
L 19.671875 35.109375 
L 19.671875 0 
L 9.8125 0 
z
" id="DejaVuSans-75"/>
     </defs>
     <g style="fill:#555555;" transform="translate(36.204375 143.985313)rotate(-90)scale(0.12 -0.12)">
      <use xlink:href="#DejaVuSans-110"/>
      <use x="63.378906" xlink:href="#DejaVuSans-111"/>
      <use x="124.560547" xlink:href="#DejaVuSans-114"/>
      <use x="163.923828" xlink:href="#DejaVuSans-109"/>
      <use x="261.335938" xlink:href="#DejaVuSans-97"/>
      <use x="322.615234" xlink:href="#DejaVuSans-108"/>
      <use x="350.398438" xlink:href="#DejaVuSans-105"/>
      <use x="378.181641" xlink:href="#DejaVuSans-115"/>
      <use x="430.28125" xlink:href="#DejaVuSans-101"/>
      <use x="491.804688" xlink:href="#DejaVuSans-100"/>
      <use x="555.28125" xlink:href="#DejaVuSans-32"/>
      <use x="587.068359" xlink:href="#DejaVuSans-112"/>
      <use x="650.544922" xlink:href="#DejaVuSans-101"/>
      <use x="712.068359" xlink:href="#DejaVuSans-114"/>
      <use x="753.181641" xlink:href="#DejaVuSans-32"/>
      <use x="784.96875" xlink:href="#DejaVuSans-49"/>
      <use x="848.591797" xlink:href="#DejaVuSans-48"/>
      <use x="912.214844" xlink:href="#DejaVuSans-48"/>
      <use x="975.837891" xlink:href="#DejaVuSans-75"/>
     </g>
    </g>
   </g>
   <g id="line2d_15">
    <defs>
     <path d="M 0 3 
C 0.795609 3 1.55874 2.683901 2.12132 2.12132 
C 2.683901 1.55874 3 0.795609 3 0 
C 3 -0.795609 2.683901 -1.55874 2.12132 -2.12132 
C 1.55874 -2.683901 0.795609 -3 0 -3 
C -0.795609 -3 -1.55874 -2.683901 -2.12132 -2.12132 
C -2.683901 -1.55874 -3 -0.795609 -3 0 
C -3 0.795609 -2.683901 1.55874 -2.12132 2.12132 
C -1.55874 2.683901 -0.795609 3 0 3 
z
" id="m227738a40a" style="stroke:#e24a33;stroke-opacity:0.001;"/>
    </defs>
    <g clip-path="url(#p193df66d8b)">
     <use style="fill:#e24a33;fill-opacity:0.001;stroke:#e24a33;stroke-opacity:0.001;" x="429.9375" xlink:href="#m227738a40a" y="81.5"/>
    </g>
   </g>
   <g id="patch_3">
    <path d="M 62.425 152.2 
L 62.425 10.8 
" style="fill:none;stroke:#ffffff;stroke-linecap:square;stroke-linejoin:miter;"/>
   </g>
   <g id="patch_4">
    <path d="M 797.45 152.2 
L 797.45 10.8 
" style="fill:none;stroke:#ffffff;stroke-linecap:square;stroke-linejoin:miter;"/>
   </g>
   <g id="patch_5">
    <path d="M 62.425 152.2 
L 797.45 152.2 
" style="fill:none;stroke:#ffffff;stroke-linecap:square;stroke-linejoin:miter;"/>
   </g>
   <g id="patch_6">
    <path d="M 62.425 10.8 
L 797.45 10.8 
" style="fill:none;stroke:#ffffff;stroke-linecap:square;stroke-linejoin:miter;"/>
   </g>
  </g>
  <g id="axes_2">
   <g id="matplotlib.axis_3">
    <g id="ytick_5">
     <g id="line2d_16">
      <path clip-path="url(#p193df66d8b)" d="M 62.425 152.2 
L 797.45 152.2 
" style="fill:none;stroke:#ffffff;stroke-linecap:square;stroke-width:0.8;"/>
     </g>
     <g id="line2d_17">
      <defs>
       <path d="M 0 0 
L 3.5 0 
" id="mb8ee0b1e60" style="stroke:#555555;stroke-width:0.8;"/>
      </defs>
      <g>
       <use style="fill:#555555;stroke:#555555;stroke-width:0.8;" x="797.45" xlink:href="#mb8ee0b1e60" y="152.2"/>
      </g>
     </g>
     <g id="text_16">
      <!-- 0 -->
      <g style="fill:#555555;" transform="translate(804.45 155.999219)scale(0.1 -0.1)">
       <use xlink:href="#DejaVuSans-48"/>
      </g>
     </g>
    </g>
    <g id="ytick_6">
     <g id="line2d_18">
      <path clip-path="url(#p193df66d8b)" d="M 62.425 114.818841 
L 797.45 114.818841 
" style="fill:none;stroke:#ffffff;stroke-linecap:square;stroke-width:0.8;"/>
     </g>
     <g id="line2d_19">
      <g>
       <use style="fill:#555555;stroke:#555555;stroke-width:0.8;" x="797.45" xlink:href="#mb8ee0b1e60" y="114.818841"/>
      </g>
     </g>
     <g id="text_17">
      <!-- 4520 -->
      <g style="fill:#555555;" transform="translate(804.45 118.61806)scale(0.1 -0.1)">
       <use xlink:href="#DejaVuSans-52"/>
       <use x="63.623047" xlink:href="#DejaVuSans-53"/>
       <use x="127.246094" xlink:href="#DejaVuSans-50"/>
       <use x="190.869141" xlink:href="#DejaVuSans-48"/>
      </g>
     </g>
    </g>
    <g id="ytick_7">
     <g id="line2d_20">
      <path clip-path="url(#p193df66d8b)" d="M 62.425 77.437683 
L 797.45 77.437683 
" style="fill:none;stroke:#ffffff;stroke-linecap:square;stroke-width:0.8;"/>
     </g>
     <g id="line2d_21">
      <g>
       <use style="fill:#555555;stroke:#555555;stroke-width:0.8;" x="797.45" xlink:href="#mb8ee0b1e60" y="77.437683"/>
      </g>
     </g>
     <g id="text_18">
      <!-- 9039 -->
      <g style="fill:#555555;" transform="translate(804.45 81.236902)scale(0.1 -0.1)">
       <use xlink:href="#DejaVuSans-57"/>
       <use x="63.623047" xlink:href="#DejaVuSans-48"/>
       <use x="127.246094" xlink:href="#DejaVuSans-51"/>
       <use x="190.869141" xlink:href="#DejaVuSans-57"/>
      </g>
     </g>
    </g>
    <g id="ytick_8">
     <g id="line2d_22">
      <path clip-path="url(#p193df66d8b)" d="M 62.425 40.056524 
L 797.45 40.056524 
" style="fill:none;stroke:#ffffff;stroke-linecap:square;stroke-width:0.8;"/>
     </g>
     <g id="line2d_23">
      <g>
       <use style="fill:#555555;stroke:#555555;stroke-width:0.8;" x="797.45" xlink:href="#mb8ee0b1e60" y="40.056524"/>
      </g>
     </g>
     <g id="text_19">
      <!-- 13559 -->
      <g style="fill:#555555;" transform="translate(804.45 43.855743)scale(0.1 -0.1)">
       <use xlink:href="#DejaVuSans-49"/>
       <use x="63.623047" xlink:href="#DejaVuSans-51"/>
       <use x="127.246094" xlink:href="#DejaVuSans-53"/>
       <use x="190.869141" xlink:href="#DejaVuSans-53"/>
       <use x="254.492188" xlink:href="#DejaVuSans-57"/>
      </g>
     </g>
    </g>
    <g id="text_20">
     <!-- daily change -->
     <g style="fill:#555555;" transform="translate(849.380625 119.859688)rotate(-90)scale(0.12 -0.12)">
      <use xlink:href="#DejaVuSans-100"/>
      <use x="63.476562" xlink:href="#DejaVuSans-97"/>
      <use x="124.755859" xlink:href="#DejaVuSans-105"/>
      <use x="152.539062" xlink:href="#DejaVuSans-108"/>
      <use x="180.322266" xlink:href="#DejaVuSans-121"/>
      <use x="239.501953" xlink:href="#DejaVuSans-32"/>
      <use x="271.289062" xlink:href="#DejaVuSans-99"/>
      <use x="326.269531" xlink:href="#DejaVuSans-104"/>
      <use x="389.648438" xlink:href="#DejaVuSans-97"/>
      <use x="450.927734" xlink:href="#DejaVuSans-110"/>
      <use x="514.306641" xlink:href="#DejaVuSans-103"/>
      <use x="577.783203" xlink:href="#DejaVuSans-101"/>
     </g>
    </g>
   </g>
   <g id="patch_7">
    <path clip-path="url(#p193df66d8b)" d="M 95.835227 152.2 
L 97.809244 152.2 
L 97.809244 152.2 
L 95.835227 152.2 
z
" style="fill:#348abd;opacity:0.2;"/>
   </g>
   <g id="patch_8">
    <path clip-path="url(#p193df66d8b)" d="M 98.302748 152.2 
L 100.276764 152.2 
L 100.276764 152.2 
L 98.302748 152.2 
z
" style="fill:#348abd;opacity:0.2;"/>
   </g>
   <g id="patch_9">
    <path clip-path="url(#p193df66d8b)" d="M 100.770268 152.2 
L 102.744285 152.2 
L 102.744285 152.2 
L 100.770268 152.2 
z
" style="fill:#348abd;opacity:0.2;"/>
   </g>
   <g id="patch_10">
    <path clip-path="url(#p193df66d8b)" d="M 103.237789 152.2 
L 105.211805 152.2 
L 105.211805 152.2 
L 103.237789 152.2 
z
" style="fill:#348abd;opacity:0.2;"/>
   </g>
   <g id="patch_11">
    <path clip-path="url(#p193df66d8b)" d="M 105.705309 152.2 
L 107.679326 152.2 
L 107.679326 152.2 
L 105.705309 152.2 
z
" style="fill:#348abd;opacity:0.2;"/>
   </g>
   <g id="patch_12">
    <path clip-path="url(#p193df66d8b)" d="M 108.17283 152.2 
L 110.146846 152.2 
L 110.146846 152.2 
L 108.17283 152.2 
z
" style="fill:#348abd;opacity:0.2;"/>
   </g>
   <g id="patch_13">
    <path clip-path="url(#p193df66d8b)" d="M 110.64035 152.2 
L 112.614367 152.2 
L 112.614367 152.2 
L 110.64035 152.2 
z
" style="fill:#348abd;opacity:0.2;"/>
   </g>
   <g id="patch_14">
    <path clip-path="url(#p193df66d8b)" d="M 113.107871 152.2 
L 115.081887 152.2 
L 115.081887 152.2 
L 113.107871 152.2 
z
" style="fill:#348abd;opacity:0.2;"/>
   </g>
   <g id="patch_15">
    <path clip-path="url(#p193df66d8b)" d="M 115.575391 152.2 
L 117.549407 152.2 
L 117.549407 152.2 
L 115.575391 152.2 
z
" style="fill:#348abd;opacity:0.2;"/>
   </g>
   <g id="patch_16">
    <path clip-path="url(#p193df66d8b)" d="M 118.042912 152.2 
L 120.016928 152.2 
L 120.016928 152.2 
L 118.042912 152.2 
z
" style="fill:#348abd;opacity:0.2;"/>
   </g>
   <g id="patch_17">
    <path clip-path="url(#p193df66d8b)" d="M 120.510432 152.2 
L 122.484448 152.2 
L 122.484448 152.2 
L 120.510432 152.2 
z
" style="fill:#348abd;opacity:0.2;"/>
   </g>
   <g id="patch_18">
    <path clip-path="url(#p193df66d8b)" d="M 122.977953 152.2 
L 124.951969 152.2 
L 124.951969 152.2 
L 122.977953 152.2 
z
" style="fill:#348abd;opacity:0.2;"/>
   </g>
   <g id="patch_19">
    <path clip-path="url(#p193df66d8b)" d="M 125.445473 152.2 
L 127.419489 152.2 
L 127.419489 152.2 
L 125.445473 152.2 
z
" style="fill:#348abd;opacity:0.2;"/>
   </g>
   <g id="patch_20">
    <path clip-path="url(#p193df66d8b)" d="M 127.912993 152.2 
L 129.88701 152.2 
L 129.88701 152.2 
L 127.912993 152.2 
z
" style="fill:#348abd;opacity:0.2;"/>
   </g>
   <g id="patch_21">
    <path clip-path="url(#p193df66d8b)" d="M 130.380514 152.2 
L 132.35453 152.2 
L 132.35453 152.2 
L 130.380514 152.2 
z
" style="fill:#348abd;opacity:0.2;"/>
   </g>
   <g id="patch_22">
    <path clip-path="url(#p193df66d8b)" d="M 132.848034 152.2 
L 134.822051 152.2 
L 134.822051 152.2 
L 132.848034 152.2 
z
" style="fill:#348abd;opacity:0.2;"/>
   </g>
   <g id="patch_23">
    <path clip-path="url(#p193df66d8b)" d="M 135.315555 152.2 
L 137.289571 152.2 
L 137.289571 152.2 
L 135.315555 152.2 
z
" style="fill:#348abd;opacity:0.2;"/>
   </g>
   <g id="patch_24">
    <path clip-path="url(#p193df66d8b)" d="M 137.783075 152.2 
L 139.757092 152.2 
L 139.757092 152.2 
L 137.783075 152.2 
z
" style="fill:#348abd;opacity:0.2;"/>
   </g>
   <g id="patch_25">
    <path clip-path="url(#p193df66d8b)" d="M 140.250596 152.2 
L 142.224612 152.2 
L 142.224612 152.2 
L 140.250596 152.2 
z
" style="fill:#348abd;opacity:0.2;"/>
   </g>
   <g id="patch_26">
    <path clip-path="url(#p193df66d8b)" d="M 142.718116 152.2 
L 144.692133 152.2 
L 144.692133 152.2 
L 142.718116 152.2 
z
" style="fill:#348abd;opacity:0.2;"/>
   </g>
   <g id="patch_27">
    <path clip-path="url(#p193df66d8b)" d="M 145.185637 152.2 
L 147.159653 152.2 
L 147.159653 152.2 
L 145.185637 152.2 
z
" style="fill:#348abd;opacity:0.2;"/>
   </g>
   <g id="patch_28">
    <path clip-path="url(#p193df66d8b)" d="M 147.653157 152.2 
L 149.627174 152.2 
L 149.627174 152.2 
L 147.653157 152.2 
z
" style="fill:#348abd;opacity:0.2;"/>
   </g>
   <g id="patch_29">
    <path clip-path="url(#p193df66d8b)" d="M 150.120678 152.2 
L 152.094694 152.2 
L 152.094694 152.2 
L 150.120678 152.2 
z
" style="fill:#348abd;opacity:0.2;"/>
   </g>
   <g id="patch_30">
    <path clip-path="url(#p193df66d8b)" d="M 152.588198 152.2 
L 154.562215 152.2 
L 154.562215 152.2 
L 152.588198 152.2 
z
" style="fill:#348abd;opacity:0.2;"/>
   </g>
   <g id="patch_31">
    <path clip-path="url(#p193df66d8b)" d="M 155.055719 152.2 
L 157.029735 152.2 
L 157.029735 152.2 
L 155.055719 152.2 
z
" style="fill:#348abd;opacity:0.2;"/>
   </g>
   <g id="patch_32">
    <path clip-path="url(#p193df66d8b)" d="M 157.523239 152.2 
L 159.497256 152.2 
L 159.497256 152.2 
L 157.523239 152.2 
z
" style="fill:#348abd;opacity:0.2;"/>
   </g>
   <g id="patch_33">
    <path clip-path="url(#p193df66d8b)" d="M 159.99076 152.2 
L 161.964776 152.2 
L 161.964776 152.2 
L 159.99076 152.2 
z
" style="fill:#348abd;opacity:0.2;"/>
   </g>
   <g id="patch_34">
    <path clip-path="url(#p193df66d8b)" d="M 162.45828 152.2 
L 164.432297 152.2 
L 164.432297 152.2 
L 162.45828 152.2 
z
" style="fill:#348abd;opacity:0.2;"/>
   </g>
   <g id="patch_35">
    <path clip-path="url(#p193df66d8b)" d="M 164.925801 152.2 
L 166.899817 152.2 
L 166.899817 152.2 
L 164.925801 152.2 
z
" style="fill:#348abd;opacity:0.2;"/>
   </g>
   <g id="patch_36">
    <path clip-path="url(#p193df66d8b)" d="M 167.393321 152.2 
L 169.367338 152.2 
L 169.367338 152.2 
L 167.393321 152.2 
z
" style="fill:#348abd;opacity:0.2;"/>
   </g>
   <g id="patch_37">
    <path clip-path="url(#p193df66d8b)" d="M 169.860842 152.2 
L 171.834858 152.2 
L 171.834858 152.2 
L 169.860842 152.2 
z
" style="fill:#348abd;opacity:0.2;"/>
   </g>
   <g id="patch_38">
    <path clip-path="url(#p193df66d8b)" d="M 172.328362 152.2 
L 174.302378 152.2 
L 174.302378 152.2 
L 172.328362 152.2 
z
" style="fill:#348abd;opacity:0.2;"/>
   </g>
   <g id="patch_39">
    <path clip-path="url(#p193df66d8b)" d="M 174.795883 152.2 
L 176.769899 152.2 
L 176.769899 152.2 
L 174.795883 152.2 
z
" style="fill:#348abd;opacity:0.2;"/>
   </g>
   <g id="patch_40">
    <path clip-path="url(#p193df66d8b)" d="M 177.263403 152.2 
L 179.237419 152.2 
L 179.237419 152.2 
L 177.263403 152.2 
z
" style="fill:#348abd;opacity:0.2;"/>
   </g>
   <g id="patch_41">
    <path clip-path="url(#p193df66d8b)" d="M 179.730924 152.2 
L 181.70494 152.2 
L 181.70494 152.2 
L 179.730924 152.2 
z
" style="fill:#348abd;opacity:0.2;"/>
   </g>
   <g id="patch_42">
    <path clip-path="url(#p193df66d8b)" d="M 182.198444 152.2 
L 184.17246 152.2 
L 184.17246 152.2 
L 182.198444 152.2 
z
" style="fill:#348abd;opacity:0.2;"/>
   </g>
   <g id="patch_43">
    <path clip-path="url(#p193df66d8b)" d="M 184.665964 152.2 
L 186.639981 152.2 
L 186.639981 152.2 
L 184.665964 152.2 
z
" style="fill:#348abd;opacity:0.2;"/>
   </g>
   <g id="patch_44">
    <path clip-path="url(#p193df66d8b)" d="M 187.133485 152.2 
L 189.107501 152.2 
L 189.107501 152.2 
L 187.133485 152.2 
z
" style="fill:#348abd;opacity:0.2;"/>
   </g>
   <g id="patch_45">
    <path clip-path="url(#p193df66d8b)" d="M 189.601005 152.2 
L 191.575022 152.2 
L 191.575022 152.2 
L 189.601005 152.2 
z
" style="fill:#348abd;opacity:0.2;"/>
   </g>
   <g id="patch_46">
    <path clip-path="url(#p193df66d8b)" d="M 192.068526 152.2 
L 194.042542 152.2 
L 194.042542 152.2 
L 192.068526 152.2 
z
" style="fill:#348abd;opacity:0.2;"/>
   </g>
   <g id="patch_47">
    <path clip-path="url(#p193df66d8b)" d="M 194.536046 152.2 
L 196.510063 152.2 
L 196.510063 152.191729 
L 194.536046 152.191729 
z
" style="fill:#348abd;opacity:0.2;"/>
   </g>
   <g id="patch_48">
    <path clip-path="url(#p193df66d8b)" d="M 197.003567 152.2 
L 198.977583 152.2 
L 198.977583 152.2 
L 197.003567 152.2 
z
" style="fill:#348abd;opacity:0.2;"/>
   </g>
   <g id="patch_49">
    <path clip-path="url(#p193df66d8b)" d="M 199.471087 152.2 
L 201.445104 152.2 
L 201.445104 152.2 
L 199.471087 152.2 
z
" style="fill:#348abd;opacity:0.2;"/>
   </g>
   <g id="patch_50">
    <path clip-path="url(#p193df66d8b)" d="M 201.938608 152.2 
L 203.912624 152.2 
L 203.912624 152.191729 
L 201.938608 152.191729 
z
" style="fill:#348abd;opacity:0.2;"/>
   </g>
   <g id="patch_51">
    <path clip-path="url(#p193df66d8b)" d="M 204.406128 152.2 
L 206.380145 152.2 
L 206.380145 152.150374 
L 204.406128 152.150374 
z
" style="fill:#348abd;opacity:0.2;"/>
   </g>
   <g id="patch_52">
    <path clip-path="url(#p193df66d8b)" d="M 206.873649 152.2 
L 208.847665 152.2 
L 208.847665 152.166916 
L 206.873649 152.166916 
z
" style="fill:#348abd;opacity:0.2;"/>
   </g>
   <g id="patch_53">
    <path clip-path="url(#p193df66d8b)" d="M 209.341169 152.2 
L 211.315186 152.2 
L 211.315186 152.2 
L 209.341169 152.2 
z
" style="fill:#348abd;opacity:0.2;"/>
   </g>
   <g id="patch_54">
    <path clip-path="url(#p193df66d8b)" d="M 211.80869 152.2 
L 213.782706 152.2 
L 213.782706 152.158645 
L 211.80869 152.158645 
z
" style="fill:#348abd;opacity:0.2;"/>
   </g>
   <g id="patch_55">
    <path clip-path="url(#p193df66d8b)" d="M 214.27621 152.2 
L 216.250227 152.2 
L 216.250227 152.183458 
L 214.27621 152.183458 
z
" style="fill:#348abd;opacity:0.2;"/>
   </g>
   <g id="patch_56">
    <path clip-path="url(#p193df66d8b)" d="M 216.743731 152.2 
L 218.717747 152.2 
L 218.717747 152.2 
L 216.743731 152.2 
z
" style="fill:#348abd;opacity:0.2;"/>
   </g>
   <g id="patch_57">
    <path clip-path="url(#p193df66d8b)" d="M 219.211251 152.2 
L 221.185268 152.2 
L 221.185268 152.100749 
L 219.211251 152.100749 
z
" style="fill:#348abd;opacity:0.2;"/>
   </g>
   <g id="patch_58">
    <path clip-path="url(#p193df66d8b)" d="M 221.678772 152.2 
L 223.652788 152.2 
L 223.652788 152.175187 
L 221.678772 152.175187 
z
" style="fill:#348abd;opacity:0.2;"/>
   </g>
   <g id="patch_59">
    <path clip-path="url(#p193df66d8b)" d="M 224.146292 152.2 
L 226.120309 152.2 
L 226.120309 152.10902 
L 224.146292 152.10902 
z
" style="fill:#348abd;opacity:0.2;"/>
   </g>
   <g id="patch_60">
    <path clip-path="url(#p193df66d8b)" d="M 226.613813 152.2 
L 228.587829 152.2 
L 228.587829 152.10902 
L 226.613813 152.10902 
z
" style="fill:#348abd;opacity:0.2;"/>
   </g>
   <g id="patch_61">
    <path clip-path="url(#p193df66d8b)" d="M 229.081333 152.2 
L 231.055349 152.2 
L 231.055349 152.100749 
L 229.081333 152.100749 
z
" style="fill:#348abd;opacity:0.2;"/>
   </g>
   <g id="patch_62">
    <path clip-path="url(#p193df66d8b)" d="M 231.548854 152.2 
L 233.52287 152.2 
L 233.52287 152.10902 
L 231.548854 152.10902 
z
" style="fill:#348abd;opacity:0.2;"/>
   </g>
   <g id="patch_63">
    <path clip-path="url(#p193df66d8b)" d="M 234.016374 152.2 
L 235.99039 152.2 
L 235.99039 152.051123 
L 234.016374 152.051123 
z
" style="fill:#348abd;opacity:0.2;"/>
   </g>
   <g id="patch_64">
    <path clip-path="url(#p193df66d8b)" d="M 236.483895 152.2 
L 238.457911 152.2 
L 238.457911 151.943601 
L 236.483895 151.943601 
z
" style="fill:#348abd;opacity:0.2;"/>
   </g>
   <g id="patch_65">
    <path clip-path="url(#p193df66d8b)" d="M 238.951415 152.2 
L 240.925431 152.2 
L 240.925431 151.951872 
L 238.951415 151.951872 
z
" style="fill:#348abd;opacity:0.2;"/>
   </g>
   <g id="patch_66">
    <path clip-path="url(#p193df66d8b)" d="M 241.418935 152.2 
L 243.392952 152.2 
L 243.392952 151.306738 
L 241.418935 151.306738 
z
" style="fill:#348abd;opacity:0.2;"/>
   </g>
   <g id="patch_67">
    <path clip-path="url(#p193df66d8b)" d="M 243.886456 152.2 
L 245.860472 152.2 
L 245.860472 151.910517 
L 243.886456 151.910517 
z
" style="fill:#348abd;opacity:0.2;"/>
   </g>
   <g id="patch_68">
    <path clip-path="url(#p193df66d8b)" d="M 246.353976 152.2 
L 248.327993 152.2 
L 248.327993 151.488699 
L 246.353976 151.488699 
z
" style="fill:#348abd;opacity:0.2;"/>
   </g>
   <g id="patch_69">
    <path clip-path="url(#p193df66d8b)" d="M 248.821497 152.2 
L 250.795513 152.2 
L 250.795513 152.2 
L 248.821497 152.2 
z
" style="fill:#348abd;opacity:0.2;"/>
   </g>
   <g id="patch_70">
    <path clip-path="url(#p193df66d8b)" d="M 251.289017 152.2 
L 253.263034 152.2 
L 253.263034 151.248842 
L 251.289017 151.248842 
z
" style="fill:#348abd;opacity:0.2;"/>
   </g>
   <g id="patch_71">
    <path clip-path="url(#p193df66d8b)" d="M 253.756538 152.2 
L 255.730554 152.2 
L 255.730554 151.480428 
L 253.756538 151.480428 
z
" style="fill:#348abd;opacity:0.2;"/>
   </g>
   <g id="patch_72">
    <path clip-path="url(#p193df66d8b)" d="M 256.224058 152.2 
L 258.198075 152.2 
L 258.198075 151.364635 
L 256.224058 151.364635 
z
" style="fill:#348abd;opacity:0.2;"/>
   </g>
   <g id="patch_73">
    <path clip-path="url(#p193df66d8b)" d="M 258.691579 152.2 
L 260.665595 152.2 
L 260.665595 151.745098 
L 258.691579 151.745098 
z
" style="fill:#348abd;opacity:0.2;"/>
   </g>
   <g id="patch_74">
    <path clip-path="url(#p193df66d8b)" d="M 261.159099 152.2 
L 263.133116 152.2 
L 263.133116 151.579679 
L 261.159099 151.579679 
z
" style="fill:#348abd;opacity:0.2;"/>
   </g>
   <g id="patch_75">
    <path clip-path="url(#p193df66d8b)" d="M 263.62662 152.2 
L 265.600636 152.2 
L 265.600636 150.2646 
L 263.62662 150.2646 
z
" style="fill:#348abd;opacity:0.2;"/>
   </g>
   <g id="patch_76">
    <path clip-path="url(#p193df66d8b)" d="M 266.09414 152.2 
L 268.068157 152.2 
L 268.068157 152.2 
L 266.09414 152.2 
z
" style="fill:#348abd;opacity:0.2;"/>
   </g>
   <g id="patch_77">
    <path clip-path="url(#p193df66d8b)" d="M 268.561661 152.2 
L 270.535677 152.2 
L 270.535677 151.546596 
L 268.561661 151.546596 
z
" style="fill:#348abd;opacity:0.2;"/>
   </g>
   <g id="patch_78">
    <path clip-path="url(#p193df66d8b)" d="M 271.029181 152.2 
L 273.003198 152.2 
L 273.003198 151.108236 
L 271.029181 151.108236 
z
" style="fill:#348abd;opacity:0.2;"/>
   </g>
   <g id="patch_79">
    <path clip-path="url(#p193df66d8b)" d="M 273.496702 152.2 
L 275.470718 152.2 
L 275.470718 150.661605 
L 273.496702 150.661605 
z
" style="fill:#348abd;opacity:0.2;"/>
   </g>
   <g id="patch_80">
    <path clip-path="url(#p193df66d8b)" d="M 275.964222 152.2 
L 277.938239 152.2 
L 277.938239 152.2 
L 275.964222 152.2 
z
" style="fill:#348abd;opacity:0.2;"/>
   </g>
   <g id="patch_81">
    <path clip-path="url(#p193df66d8b)" d="M 278.431743 152.2 
L 280.405759 152.2 
L 280.405759 151.348093 
L 278.431743 151.348093 
z
" style="fill:#348abd;opacity:0.2;"/>
   </g>
   <g id="patch_82">
    <path clip-path="url(#p193df66d8b)" d="M 280.899263 152.2 
L 282.87328 152.2 
L 282.87328 151.58795 
L 280.899263 151.58795 
z
" style="fill:#348abd;opacity:0.2;"/>
   </g>
   <g id="patch_83">
    <path clip-path="url(#p193df66d8b)" d="M 283.366784 152.2 
L 285.3408 152.2 
L 285.3408 151.480428 
L 283.366784 151.480428 
z
" style="fill:#348abd;opacity:0.2;"/>
   </g>
   <g id="patch_84">
    <path clip-path="url(#p193df66d8b)" d="M 285.834304 152.2 
L 287.80832 152.2 
L 287.80832 151.538325 
L 285.834304 151.538325 
z
" style="fill:#348abd;opacity:0.2;"/>
   </g>
   <g id="patch_85">
    <path clip-path="url(#p193df66d8b)" d="M 288.301825 152.2 
L 290.275841 152.2 
L 290.275841 150.711231 
L 288.301825 150.711231 
z
" style="fill:#348abd;opacity:0.2;"/>
   </g>
   <g id="patch_86">
    <path clip-path="url(#p193df66d8b)" d="M 290.769345 152.2 
L 292.743361 152.2 
L 292.743361 152.2 
L 290.769345 152.2 
z
" style="fill:#348abd;opacity:0.2;"/>
   </g>
   <g id="patch_87">
    <path clip-path="url(#p193df66d8b)" d="M 293.236866 152.2 
L 295.210882 152.2 
L 295.210882 150.818753 
L 293.236866 150.818753 
z
" style="fill:#348abd;opacity:0.2;"/>
   </g>
   <g id="patch_88">
    <path clip-path="url(#p193df66d8b)" d="M 295.704386 152.2 
L 297.678402 152.2 
L 297.678402 151.654118 
L 295.704386 151.654118 
z
" style="fill:#348abd;opacity:0.2;"/>
   </g>
   <g id="patch_89">
    <path clip-path="url(#p193df66d8b)" d="M 298.171906 152.2 
L 300.145923 152.2 
L 300.145923 151.629305 
L 298.171906 151.629305 
z
" style="fill:#348abd;opacity:0.2;"/>
   </g>
   <g id="patch_90">
    <path clip-path="url(#p193df66d8b)" d="M 300.639427 152.2 
L 302.613443 152.2 
L 302.613443 150.827024 
L 300.639427 150.827024 
z
" style="fill:#348abd;opacity:0.2;"/>
   </g>
   <g id="patch_91">
    <path clip-path="url(#p193df66d8b)" d="M 303.106947 152.2 
L 305.080964 152.2 
L 305.080964 151.14132 
L 303.106947 151.14132 
z
" style="fill:#348abd;opacity:0.2;"/>
   </g>
   <g id="patch_92">
    <path clip-path="url(#p193df66d8b)" d="M 305.574468 152.2 
L 307.548484 152.2 
L 307.548484 151.389448 
L 305.574468 151.389448 
z
" style="fill:#348abd;opacity:0.2;"/>
   </g>
   <g id="patch_93">
    <path clip-path="url(#p193df66d8b)" d="M 308.041988 152.2 
L 310.016005 152.2 
L 310.016005 151.463886 
L 308.041988 151.463886 
z
" style="fill:#348abd;opacity:0.2;"/>
   </g>
   <g id="patch_94">
    <path clip-path="url(#p193df66d8b)" d="M 310.509509 152.2 
L 312.483525 152.2 
L 312.483525 151.530054 
L 310.509509 151.530054 
z
" style="fill:#348abd;opacity:0.2;"/>
   </g>
   <g id="patch_95">
    <path clip-path="url(#p193df66d8b)" d="M 312.977029 152.2 
L 314.951046 152.2 
L 314.951046 151.356364 
L 312.977029 151.356364 
z
" style="fill:#348abd;opacity:0.2;"/>
   </g>
   <g id="patch_96">
    <path clip-path="url(#p193df66d8b)" d="M 315.44455 152.2 
L 317.418566 152.2 
L 317.418566 151.455615 
L 315.44455 151.455615 
z
" style="fill:#348abd;opacity:0.2;"/>
   </g>
   <g id="patch_97">
    <path clip-path="url(#p193df66d8b)" d="M 317.91207 152.2 
L 319.886087 152.2 
L 319.886087 151.265384 
L 317.91207 151.265384 
z
" style="fill:#348abd;opacity:0.2;"/>
   </g>
   <g id="patch_98">
    <path clip-path="url(#p193df66d8b)" d="M 320.379591 152.2 
L 322.353607 152.2 
L 322.353607 149.793156 
L 320.379591 149.793156 
z
" style="fill:#348abd;opacity:0.2;"/>
   </g>
   <g id="patch_99">
    <path clip-path="url(#p193df66d8b)" d="M 322.847111 152.2 
L 324.821128 152.2 
L 324.821128 150.777398 
L 322.847111 150.777398 
z
" style="fill:#348abd;opacity:0.2;"/>
   </g>
   <g id="patch_100">
    <path clip-path="url(#p193df66d8b)" d="M 325.314632 152.2 
L 327.288648 152.2 
L 327.288648 150.769127 
L 325.314632 150.769127 
z
" style="fill:#348abd;opacity:0.2;"/>
   </g>
   <g id="patch_101">
    <path clip-path="url(#p193df66d8b)" d="M 327.782152 152.2 
L 329.756169 152.2 
L 329.756169 151.273655 
L 327.782152 151.273655 
z
" style="fill:#348abd;opacity:0.2;"/>
   </g>
   <g id="patch_102">
    <path clip-path="url(#p193df66d8b)" d="M 330.249673 152.2 
L 332.223689 152.2 
L 332.223689 151.281926 
L 330.249673 151.281926 
z
" style="fill:#348abd;opacity:0.2;"/>
   </g>
   <g id="patch_103">
    <path clip-path="url(#p193df66d8b)" d="M 332.717193 152.2 
L 334.69121 152.2 
L 334.69121 151.174403 
L 332.717193 151.174403 
z
" style="fill:#348abd;opacity:0.2;"/>
   </g>
   <g id="patch_104">
    <path clip-path="url(#p193df66d8b)" d="M 335.184714 152.2 
L 337.15873 152.2 
L 337.15873 150.893191 
L 335.184714 150.893191 
z
" style="fill:#348abd;opacity:0.2;"/>
   </g>
   <g id="patch_105">
    <path clip-path="url(#p193df66d8b)" d="M 337.652234 152.2 
L 339.626251 152.2 
L 339.626251 151.017255 
L 337.652234 151.017255 
z
" style="fill:#348abd;opacity:0.2;"/>
   </g>
   <g id="patch_106">
    <path clip-path="url(#p193df66d8b)" d="M 340.119755 152.2 
L 342.093771 152.2 
L 342.093771 151.339822 
L 340.119755 151.339822 
z
" style="fill:#348abd;opacity:0.2;"/>
   </g>
   <g id="patch_107">
    <path clip-path="url(#p193df66d8b)" d="M 342.587275 152.2 
L 344.561291 152.2 
L 344.561291 150.96763 
L 342.587275 150.96763 
z
" style="fill:#348abd;opacity:0.2;"/>
   </g>
   <g id="patch_108">
    <path clip-path="url(#p193df66d8b)" d="M 345.054796 152.2 
L 347.028812 152.2 
L 347.028812 151.356364 
L 345.054796 151.356364 
z
" style="fill:#348abd;opacity:0.2;"/>
   </g>
   <g id="patch_109">
    <path clip-path="url(#p193df66d8b)" d="M 347.522316 152.2 
L 349.496332 152.2 
L 349.496332 151.339822 
L 347.522316 151.339822 
z
" style="fill:#348abd;opacity:0.2;"/>
   </g>
   <g id="patch_110">
    <path clip-path="url(#p193df66d8b)" d="M 349.989837 152.2 
L 351.963853 152.2 
L 351.963853 151.099965 
L 349.989837 151.099965 
z
" style="fill:#348abd;opacity:0.2;"/>
   </g>
   <g id="patch_111">
    <path clip-path="url(#p193df66d8b)" d="M 352.457357 152.2 
L 354.431373 152.2 
L 354.431373 150.645063 
L 352.457357 150.645063 
z
" style="fill:#348abd;opacity:0.2;"/>
   </g>
   <g id="patch_112">
    <path clip-path="url(#p193df66d8b)" d="M 354.924877 152.2 
L 356.898894 152.2 
L 356.898894 150.851837 
L 354.924877 150.851837 
z
" style="fill:#348abd;opacity:0.2;"/>
   </g>
   <g id="patch_113">
    <path clip-path="url(#p193df66d8b)" d="M 357.392398 152.2 
L 359.366414 152.2 
L 359.366414 150.214974 
L 357.392398 150.214974 
z
" style="fill:#348abd;opacity:0.2;"/>
   </g>
   <g id="patch_114">
    <path clip-path="url(#p193df66d8b)" d="M 359.859918 152.2 
L 361.833935 152.2 
L 361.833935 150.835295 
L 359.859918 150.835295 
z
" style="fill:#348abd;opacity:0.2;"/>
   </g>
   <g id="patch_115">
    <path clip-path="url(#p193df66d8b)" d="M 362.327439 152.2 
L 364.301455 152.2 
L 364.301455 150.066097 
L 362.327439 150.066097 
z
" style="fill:#348abd;opacity:0.2;"/>
   </g>
   <g id="patch_116">
    <path clip-path="url(#p193df66d8b)" d="M 364.794959 152.2 
L 366.768976 152.2 
L 366.768976 150.181891 
L 364.794959 150.181891 
z
" style="fill:#348abd;opacity:0.2;"/>
   </g>
   <g id="patch_117">
    <path clip-path="url(#p193df66d8b)" d="M 367.26248 152.2 
L 369.236496 152.2 
L 369.236496 149.842782 
L 367.26248 149.842782 
z
" style="fill:#348abd;opacity:0.2;"/>
   </g>
   <g id="patch_118">
    <path clip-path="url(#p193df66d8b)" d="M 369.73 152.2 
L 371.704017 152.2 
L 371.704017 149.586383 
L 369.73 149.586383 
z
" style="fill:#348abd;opacity:0.2;"/>
   </g>
   <g id="patch_119">
    <path clip-path="url(#p193df66d8b)" d="M 372.197521 152.2 
L 374.171537 152.2 
L 374.171537 150.09091 
L 372.197521 150.09091 
z
" style="fill:#348abd;opacity:0.2;"/>
   </g>
   <g id="patch_120">
    <path clip-path="url(#p193df66d8b)" d="M 374.665041 152.2 
L 376.639058 152.2 
L 376.639058 149.346526 
L 374.665041 149.346526 
z
" style="fill:#348abd;opacity:0.2;"/>
   </g>
   <g id="patch_121">
    <path clip-path="url(#p193df66d8b)" d="M 377.132562 152.2 
L 379.106578 152.2 
L 379.106578 149.503673 
L 377.132562 149.503673 
z
" style="fill:#348abd;opacity:0.2;"/>
   </g>
   <g id="patch_122">
    <path clip-path="url(#p193df66d8b)" d="M 379.600082 152.2 
L 381.574099 152.2 
L 381.574099 150.024743 
L 379.600082 150.024743 
z
" style="fill:#348abd;opacity:0.2;"/>
   </g>
   <g id="patch_123">
    <path clip-path="url(#p193df66d8b)" d="M 382.067603 152.2 
L 384.041619 152.2 
L 384.041619 149.693905 
L 382.067603 149.693905 
z
" style="fill:#348abd;opacity:0.2;"/>
   </g>
   <g id="patch_124">
    <path clip-path="url(#p193df66d8b)" d="M 384.535123 152.2 
L 386.50914 152.2 
L 386.50914 148.577328 
L 384.535123 148.577328 
z
" style="fill:#348abd;opacity:0.2;"/>
   </g>
   <g id="patch_125">
    <path clip-path="url(#p193df66d8b)" d="M 387.002644 152.2 
L 388.97666 152.2 
L 388.97666 148.279574 
L 387.002644 148.279574 
z
" style="fill:#348abd;opacity:0.2;"/>
   </g>
   <g id="patch_126">
    <path clip-path="url(#p193df66d8b)" d="M 389.470164 152.2 
L 391.444181 152.2 
L 391.444181 146.840431 
L 389.470164 146.840431 
z
" style="fill:#348abd;opacity:0.2;"/>
   </g>
   <g id="patch_127">
    <path clip-path="url(#p193df66d8b)" d="M 391.937685 152.2 
L 393.911701 152.2 
L 393.911701 146.261465 
L 391.937685 146.261465 
z
" style="fill:#348abd;opacity:0.2;"/>
   </g>
   <g id="patch_128">
    <path clip-path="url(#p193df66d8b)" d="M 394.405205 152.2 
L 396.379221 152.2 
L 396.379221 146.377258 
L 394.405205 146.377258 
z
" style="fill:#348abd;opacity:0.2;"/>
   </g>
   <g id="patch_129">
    <path clip-path="url(#p193df66d8b)" d="M 396.872726 152.2 
L 398.846742 152.2 
L 398.846742 146.22011 
L 396.872726 146.22011 
z
" style="fill:#348abd;opacity:0.2;"/>
   </g>
   <g id="patch_130">
    <path clip-path="url(#p193df66d8b)" d="M 399.340246 152.2 
L 401.314262 152.2 
L 401.314262 147.634441 
L 399.340246 147.634441 
z
" style="fill:#348abd;opacity:0.2;"/>
   </g>
   <g id="patch_131">
    <path clip-path="url(#p193df66d8b)" d="M 401.807767 152.2 
L 403.781783 152.2 
L 403.781783 147.237436 
L 401.807767 147.237436 
z
" style="fill:#348abd;opacity:0.2;"/>
   </g>
   <g id="patch_132">
    <path clip-path="url(#p193df66d8b)" d="M 404.275287 152.2 
L 406.249303 152.2 
L 406.249303 146.368987 
L 404.275287 146.368987 
z
" style="fill:#348abd;opacity:0.2;"/>
   </g>
   <g id="patch_133">
    <path clip-path="url(#p193df66d8b)" d="M 406.742808 152.2 
L 408.716824 152.2 
L 408.716824 145.839647 
L 406.742808 145.839647 
z
" style="fill:#348abd;opacity:0.2;"/>
   </g>
   <g id="patch_134">
    <path clip-path="url(#p193df66d8b)" d="M 409.210328 152.2 
L 411.184344 152.2 
L 411.184344 146.269736 
L 409.210328 146.269736 
z
" style="fill:#348abd;opacity:0.2;"/>
   </g>
   <g id="patch_135">
    <path clip-path="url(#p193df66d8b)" d="M 411.677848 152.2 
L 413.651865 152.2 
L 413.651865 145.624602 
L 411.677848 145.624602 
z
" style="fill:#348abd;opacity:0.2;"/>
   </g>
   <g id="patch_136">
    <path clip-path="url(#p193df66d8b)" d="M 414.145369 152.2 
L 416.119385 152.2 
L 416.119385 146.931411 
L 414.145369 146.931411 
z
" style="fill:#348abd;opacity:0.2;"/>
   </g>
   <g id="patch_137">
    <path clip-path="url(#p193df66d8b)" d="M 416.612889 152.2 
L 418.586906 152.2 
L 418.586906 147.53519 
L 416.612889 147.53519 
z
" style="fill:#348abd;opacity:0.2;"/>
   </g>
   <g id="patch_138">
    <path clip-path="url(#p193df66d8b)" d="M 419.08041 152.2 
L 421.054426 152.2 
L 421.054426 144.72307 
L 419.08041 144.72307 
z
" style="fill:#348abd;opacity:0.2;"/>
   </g>
   <g id="patch_139">
    <path clip-path="url(#p193df66d8b)" d="M 421.54793 152.2 
L 423.521947 152.2 
L 423.521947 144.350877 
L 421.54793 144.350877 
z
" style="fill:#348abd;opacity:0.2;"/>
   </g>
   <g id="patch_140">
    <path clip-path="url(#p193df66d8b)" d="M 424.015451 152.2 
L 425.989467 152.2 
L 425.989467 144.516296 
L 424.015451 144.516296 
z
" style="fill:#348abd;opacity:0.2;"/>
   </g>
   <g id="patch_141">
    <path clip-path="url(#p193df66d8b)" d="M 426.482971 152.2 
L 428.456988 152.2 
L 428.456988 145.25241 
L 426.482971 145.25241 
z
" style="fill:#348abd;opacity:0.2;"/>
   </g>
   <g id="patch_142">
    <path clip-path="url(#p193df66d8b)" d="M 428.950492 152.2 
L 430.924508 152.2 
L 430.924508 144.069665 
L 428.950492 144.069665 
z
" style="fill:#348abd;opacity:0.2;"/>
   </g>
   <g id="patch_143">
    <path clip-path="url(#p193df66d8b)" d="M 431.418012 152.2 
L 433.392029 152.2 
L 433.392029 145.798292 
L 431.418012 145.798292 
z
" style="fill:#348abd;opacity:0.2;"/>
   </g>
   <g id="patch_144">
    <path clip-path="url(#p193df66d8b)" d="M 433.885533 152.2 
L 435.859549 152.2 
L 435.859549 145.368203 
L 433.885533 145.368203 
z
" style="fill:#348abd;opacity:0.2;"/>
   </g>
   <g id="patch_145">
    <path clip-path="url(#p193df66d8b)" d="M 436.353053 152.2 
L 438.32707 152.2 
L 438.32707 142.762857 
L 436.353053 142.762857 
z
" style="fill:#348abd;opacity:0.2;"/>
   </g>
   <g id="patch_146">
    <path clip-path="url(#p193df66d8b)" d="M 438.820574 152.2 
L 440.79459 152.2 
L 440.79459 142.059827 
L 438.820574 142.059827 
z
" style="fill:#348abd;opacity:0.2;"/>
   </g>
   <g id="patch_147">
    <path clip-path="url(#p193df66d8b)" d="M 441.288094 152.2 
L 443.262111 152.2 
L 443.262111 140.736476 
L 441.288094 140.736476 
z
" style="fill:#348abd;opacity:0.2;"/>
   </g>
   <g id="patch_148">
    <path clip-path="url(#p193df66d8b)" d="M 443.755615 152.2 
L 445.729631 152.2 
L 445.729631 140.695122 
L 443.755615 140.695122 
z
" style="fill:#348abd;opacity:0.2;"/>
   </g>
   <g id="patch_149">
    <path clip-path="url(#p193df66d8b)" d="M 446.223135 152.2 
L 448.197152 152.2 
L 448.197152 139.53719 
L 446.223135 139.53719 
z
" style="fill:#348abd;opacity:0.2;"/>
   </g>
   <g id="patch_150">
    <path clip-path="url(#p193df66d8b)" d="M 448.690656 152.2 
L 450.664672 152.2 
L 450.664672 141.596654 
L 448.690656 141.596654 
z
" style="fill:#348abd;opacity:0.2;"/>
   </g>
   <g id="patch_151">
    <path clip-path="url(#p193df66d8b)" d="M 451.158176 152.2 
L 453.132192 152.2 
L 453.132192 142.208704 
L 451.158176 142.208704 
z
" style="fill:#348abd;opacity:0.2;"/>
   </g>
   <g id="patch_152">
    <path clip-path="url(#p193df66d8b)" d="M 453.625697 152.2 
L 455.599713 152.2 
L 455.599713 140.835728 
L 453.625697 140.835728 
z
" style="fill:#348abd;opacity:0.2;"/>
   </g>
   <g id="patch_153">
    <path clip-path="url(#p193df66d8b)" d="M 456.093217 152.2 
L 458.067233 152.2 
L 458.067233 140.67858 
L 456.093217 140.67858 
z
" style="fill:#348abd;opacity:0.2;"/>
   </g>
   <g id="patch_154">
    <path clip-path="url(#p193df66d8b)" d="M 458.560738 152.2 
L 460.534754 152.2 
L 460.534754 136.005498 
L 458.560738 136.005498 
z
" style="fill:#348abd;opacity:0.2;"/>
   </g>
   <g id="patch_155">
    <path clip-path="url(#p193df66d8b)" d="M 461.028258 152.2 
L 463.002274 152.2 
L 463.002274 135.161862 
L 461.028258 135.161862 
z
" style="fill:#348abd;opacity:0.2;"/>
   </g>
   <g id="patch_156">
    <path clip-path="url(#p193df66d8b)" d="M 463.495779 152.2 
L 465.469795 152.2 
L 465.469795 138.685283 
L 463.495779 138.685283 
z
" style="fill:#348abd;opacity:0.2;"/>
   </g>
   <g id="patch_157">
    <path clip-path="url(#p193df66d8b)" d="M 465.963299 152.2 
L 467.937315 152.2 
L 467.937315 139.123643 
L 465.963299 139.123643 
z
" style="fill:#348abd;opacity:0.2;"/>
   </g>
   <g id="patch_158">
    <path clip-path="url(#p193df66d8b)" d="M 468.430819 152.2 
L 470.404836 152.2 
L 470.404836 134.450562 
L 468.430819 134.450562 
z
" style="fill:#348abd;opacity:0.2;"/>
   </g>
   <g id="patch_159">
    <path clip-path="url(#p193df66d8b)" d="M 470.89834 152.2 
L 472.872356 152.2 
L 472.872356 133.408423 
L 470.89834 133.408423 
z
" style="fill:#348abd;opacity:0.2;"/>
   </g>
   <g id="patch_160">
    <path clip-path="url(#p193df66d8b)" d="M 473.36586 152.2 
L 475.339877 152.2 
L 475.339877 130.298549 
L 473.36586 130.298549 
z
" style="fill:#348abd;opacity:0.2;"/>
   </g>
   <g id="patch_161">
    <path clip-path="url(#p193df66d8b)" d="M 475.833381 152.2 
L 477.807397 152.2 
L 477.807397 130.645929 
L 475.833381 130.645929 
z
" style="fill:#348abd;opacity:0.2;"/>
   </g>
   <g id="patch_162">
    <path clip-path="url(#p193df66d8b)" d="M 478.300901 152.2 
L 480.274918 152.2 
L 480.274918 128.330066 
L 478.300901 128.330066 
z
" style="fill:#348abd;opacity:0.2;"/>
   </g>
   <g id="patch_163">
    <path clip-path="url(#p193df66d8b)" d="M 480.768422 152.2 
L 482.742438 152.2 
L 482.742438 132.341472 
L 480.768422 132.341472 
z
" style="fill:#348abd;opacity:0.2;"/>
   </g>
   <g id="patch_164">
    <path clip-path="url(#p193df66d8b)" d="M 483.235942 152.2 
L 485.209959 152.2 
L 485.209959 134.094911 
L 483.235942 134.094911 
z
" style="fill:#348abd;opacity:0.2;"/>
   </g>
   <g id="patch_165">
    <path clip-path="url(#p193df66d8b)" d="M 485.703463 152.2 
L 487.677479 152.2 
L 487.677479 132.887354 
L 485.703463 132.887354 
z
" style="fill:#348abd;opacity:0.2;"/>
   </g>
   <g id="patch_166">
    <path clip-path="url(#p193df66d8b)" d="M 488.170983 152.2 
L 490.145 152.2 
L 490.145 133.491132 
L 488.170983 133.491132 
z
" style="fill:#348abd;opacity:0.2;"/>
   </g>
   <g id="patch_167">
    <path clip-path="url(#p193df66d8b)" d="M 490.638504 152.2 
L 492.61252 152.2 
L 492.61252 130.141401 
L 490.638504 130.141401 
z
" style="fill:#348abd;opacity:0.2;"/>
   </g>
   <g id="patch_168">
    <path clip-path="url(#p193df66d8b)" d="M 493.106024 152.2 
L 495.080041 152.2 
L 495.080041 129.504539 
L 493.106024 129.504539 
z
" style="fill:#348abd;opacity:0.2;"/>
   </g>
   <g id="patch_169">
    <path clip-path="url(#p193df66d8b)" d="M 495.573545 152.2 
L 497.547561 152.2 
L 497.547561 128.669174 
L 495.573545 128.669174 
z
" style="fill:#348abd;opacity:0.2;"/>
   </g>
   <g id="patch_170">
    <path clip-path="url(#p193df66d8b)" d="M 498.041065 152.2 
L 500.015082 152.2 
L 500.015082 130.778264 
L 498.041065 130.778264 
z
" style="fill:#348abd;opacity:0.2;"/>
   </g>
   <g id="patch_171">
    <path clip-path="url(#p193df66d8b)" d="M 500.508586 152.2 
L 502.482602 152.2 
L 502.482602 132.027176 
L 500.508586 132.027176 
z
" style="fill:#348abd;opacity:0.2;"/>
   </g>
   <g id="patch_172">
    <path clip-path="url(#p193df66d8b)" d="M 502.976106 152.2 
L 504.950123 152.2 
L 504.950123 130.430884 
L 502.976106 130.430884 
z
" style="fill:#348abd;opacity:0.2;"/>
   </g>
   <g id="patch_173">
    <path clip-path="url(#p193df66d8b)" d="M 505.443627 152.2 
L 507.417643 152.2 
L 507.417643 127.560868 
L 505.443627 127.560868 
z
" style="fill:#348abd;opacity:0.2;"/>
   </g>
   <g id="patch_174">
    <path clip-path="url(#p193df66d8b)" d="M 507.911147 152.2 
L 509.885163 152.2 
L 509.885163 122.39153 
L 507.911147 122.39153 
z
" style="fill:#348abd;opacity:0.2;"/>
   </g>
   <g id="patch_175">
    <path clip-path="url(#p193df66d8b)" d="M 510.378668 152.2 
L 512.352684 152.2 
L 512.352684 121.903545 
L 510.378668 121.903545 
z
" style="fill:#348abd;opacity:0.2;"/>
   </g>
   <g id="patch_176">
    <path clip-path="url(#p193df66d8b)" d="M 512.846188 152.2 
L 514.820204 152.2 
L 514.820204 124.351743 
L 512.846188 124.351743 
z
" style="fill:#348abd;opacity:0.2;"/>
   </g>
   <g id="patch_177">
    <path clip-path="url(#p193df66d8b)" d="M 515.313709 152.2 
L 517.287725 152.2 
L 517.287725 123.673526 
L 515.313709 123.673526 
z
" style="fill:#348abd;opacity:0.2;"/>
   </g>
   <g id="patch_178">
    <path clip-path="url(#p193df66d8b)" d="M 517.781229 152.2 
L 519.755245 152.2 
L 519.755245 130.224111 
L 517.781229 130.224111 
z
" style="fill:#348abd;opacity:0.2;"/>
   </g>
   <g id="patch_179">
    <path clip-path="url(#p193df66d8b)" d="M 520.248749 152.2 
L 522.222766 152.2 
L 522.222766 126.568355 
L 520.248749 126.568355 
z
" style="fill:#348abd;opacity:0.2;"/>
   </g>
   <g id="patch_180">
    <path clip-path="url(#p193df66d8b)" d="M 522.71627 152.2 
L 524.690286 152.2 
L 524.690286 122.052422 
L 522.71627 122.052422 
z
" style="fill:#348abd;opacity:0.2;"/>
   </g>
   <g id="patch_181">
    <path clip-path="url(#p193df66d8b)" d="M 525.18379 152.2 
L 527.157807 152.2 
L 527.157807 117.164296 
L 525.18379 117.164296 
z
" style="fill:#348abd;opacity:0.2;"/>
   </g>
   <g id="patch_182">
    <path clip-path="url(#p193df66d8b)" d="M 527.651311 152.2 
L 529.625327 152.2 
L 529.625327 122.118589 
L 527.651311 122.118589 
z
" style="fill:#348abd;opacity:0.2;"/>
   </g>
   <g id="patch_183">
    <path clip-path="url(#p193df66d8b)" d="M 530.118831 152.2 
L 532.092848 152.2 
L 532.092848 114.831891 
L 530.118831 114.831891 
z
" style="fill:#348abd;opacity:0.2;"/>
   </g>
   <g id="patch_184">
    <path clip-path="url(#p193df66d8b)" d="M 532.586352 152.2 
L 534.560368 152.2 
L 534.560368 125.542759 
L 532.586352 125.542759 
z
" style="fill:#348abd;opacity:0.2;"/>
   </g>
   <g id="patch_185">
    <path clip-path="url(#p193df66d8b)" d="M 535.053872 152.2 
L 537.027889 152.2 
L 537.027889 117.20565 
L 535.053872 117.20565 
z
" style="fill:#348abd;opacity:0.2;"/>
   </g>
   <g id="patch_186">
    <path clip-path="url(#p193df66d8b)" d="M 537.521393 152.2 
L 539.495409 152.2 
L 539.495409 118.95909 
L 537.521393 118.95909 
z
" style="fill:#348abd;opacity:0.2;"/>
   </g>
   <g id="patch_187">
    <path clip-path="url(#p193df66d8b)" d="M 539.988913 152.2 
L 541.96293 152.2 
L 541.96293 108.000094 
L 539.988913 108.000094 
z
" style="fill:#348abd;opacity:0.2;"/>
   </g>
   <g id="patch_188">
    <path clip-path="url(#p193df66d8b)" d="M 542.456434 152.2 
L 544.43045 152.2 
L 544.43045 104.377422 
L 542.456434 104.377422 
z
" style="fill:#348abd;opacity:0.2;"/>
   </g>
   <g id="patch_189">
    <path clip-path="url(#p193df66d8b)" d="M 544.923954 152.2 
L 546.897971 152.2 
L 546.897971 101.523947 
L 544.923954 101.523947 
z
" style="fill:#348abd;opacity:0.2;"/>
   </g>
   <g id="patch_190">
    <path clip-path="url(#p193df66d8b)" d="M 547.391475 152.2 
L 549.365491 152.2 
L 549.365491 106.767723 
L 547.391475 106.767723 
z
" style="fill:#348abd;opacity:0.2;"/>
   </g>
   <g id="patch_191">
    <path clip-path="url(#p193df66d8b)" d="M 549.858995 152.2 
L 551.833012 152.2 
L 551.833012 112.383692 
L 549.858995 112.383692 
z
" style="fill:#348abd;opacity:0.2;"/>
   </g>
   <g id="patch_192">
    <path clip-path="url(#p193df66d8b)" d="M 552.326516 152.2 
L 554.300532 152.2 
L 554.300532 117.528217 
L 552.326516 117.528217 
z
" style="fill:#348abd;opacity:0.2;"/>
   </g>
   <g id="patch_193">
    <path clip-path="url(#p193df66d8b)" d="M 554.794036 152.2 
L 556.768053 152.2 
L 556.768053 111.755101 
L 554.794036 111.755101 
z
" style="fill:#348abd;opacity:0.2;"/>
   </g>
   <g id="patch_194">
    <path clip-path="url(#p193df66d8b)" d="M 557.261557 152.2 
L 559.235573 152.2 
L 559.235573 103.078884 
L 557.261557 103.078884 
z
" style="fill:#348abd;opacity:0.2;"/>
   </g>
   <g id="patch_195">
    <path clip-path="url(#p193df66d8b)" d="M 559.729077 152.2 
L 561.703094 152.2 
L 561.703094 105.543624 
L 559.729077 105.543624 
z
" style="fill:#348abd;opacity:0.2;"/>
   </g>
   <g id="patch_196">
    <path clip-path="url(#p193df66d8b)" d="M 562.196598 152.2 
L 564.170614 152.2 
L 564.170614 99.456212 
L 562.196598 99.456212 
z
" style="fill:#348abd;opacity:0.2;"/>
   </g>
   <g id="patch_197">
    <path clip-path="url(#p193df66d8b)" d="M 564.664118 152.2 
L 566.638134 152.2 
L 566.638134 103.161593 
L 564.664118 103.161593 
z
" style="fill:#348abd;opacity:0.2;"/>
   </g>
   <g id="patch_198">
    <path clip-path="url(#p193df66d8b)" d="M 567.131639 152.2 
L 569.105655 152.2 
L 569.105655 108.852 
L 567.131639 108.852 
z
" style="fill:#348abd;opacity:0.2;"/>
   </g>
   <g id="patch_199">
    <path clip-path="url(#p193df66d8b)" d="M 569.599159 152.2 
L 571.573175 152.2 
L 571.573175 107.735423 
L 569.599159 107.735423 
z
" style="fill:#348abd;opacity:0.2;"/>
   </g>
   <g id="patch_200">
    <path clip-path="url(#p193df66d8b)" d="M 572.06668 152.2 
L 574.040696 152.2 
L 574.040696 112.300983 
L 572.06668 112.300983 
z
" style="fill:#348abd;opacity:0.2;"/>
   </g>
   <g id="patch_201">
    <path clip-path="url(#p193df66d8b)" d="M 574.5342 152.2 
L 576.508216 152.2 
L 576.508216 96.023772 
L 574.5342 96.023772 
z
" style="fill:#348abd;opacity:0.2;"/>
   </g>
   <g id="patch_202">
    <path clip-path="url(#p193df66d8b)" d="M 577.00172 152.2 
L 578.975737 152.2 
L 578.975737 93.087588 
L 577.00172 93.087588 
z
" style="fill:#348abd;opacity:0.2;"/>
   </g>
   <g id="patch_203">
    <path clip-path="url(#p193df66d8b)" d="M 579.469241 152.2 
L 581.443257 152.2 
L 581.443257 90.060423 
L 579.469241 90.060423 
z
" style="fill:#348abd;opacity:0.2;"/>
   </g>
   <g id="patch_204">
    <path clip-path="url(#p193df66d8b)" d="M 581.936761 152.2 
L 583.910778 152.2 
L 583.910778 90.316823 
L 581.936761 90.316823 
z
" style="fill:#348abd;opacity:0.2;"/>
   </g>
   <g id="patch_205">
    <path clip-path="url(#p193df66d8b)" d="M 584.404282 152.2 
L 586.378298 152.2 
L 586.378298 101.466051 
L 584.404282 101.466051 
z
" style="fill:#348abd;opacity:0.2;"/>
   </g>
   <g id="patch_206">
    <path clip-path="url(#p193df66d8b)" d="M 586.871802 152.2 
L 588.845819 152.2 
L 588.845819 113.425831 
L 586.871802 113.425831 
z
" style="fill:#348abd;opacity:0.2;"/>
   </g>
   <g id="patch_207">
    <path clip-path="url(#p193df66d8b)" d="M 589.339323 152.2 
L 591.313339 152.2 
L 591.313339 91.251439 
L 589.339323 91.251439 
z
" style="fill:#348abd;opacity:0.2;"/>
   </g>
   <g id="patch_208">
    <path clip-path="url(#p193df66d8b)" d="M 591.806843 152.2 
L 593.78086 152.2 
L 593.78086 93.947766 
L 591.806843 93.947766 
z
" style="fill:#348abd;opacity:0.2;"/>
   </g>
   <g id="patch_209">
    <path clip-path="url(#p193df66d8b)" d="M 594.274364 152.2 
L 596.24838 152.2 
L 596.24838 88.819782 
L 594.274364 88.819782 
z
" style="fill:#348abd;opacity:0.2;"/>
   </g>
   <g id="patch_210">
    <path clip-path="url(#p193df66d8b)" d="M 596.741884 152.2 
L 598.715901 152.2 
L 598.715901 90.184488 
L 596.741884 90.184488 
z
" style="fill:#348abd;opacity:0.2;"/>
   </g>
   <g id="patch_211">
    <path clip-path="url(#p193df66d8b)" d="M 599.209405 152.2 
L 601.183421 152.2 
L 601.183421 99.555463 
L 599.209405 99.555463 
z
" style="fill:#348abd;opacity:0.2;"/>
   </g>
   <g id="patch_212">
    <path clip-path="url(#p193df66d8b)" d="M 601.676925 152.2 
L 603.650942 152.2 
L 603.650942 97.090723 
L 601.676925 97.090723 
z
" style="fill:#348abd;opacity:0.2;"/>
   </g>
   <g id="patch_213">
    <path clip-path="url(#p193df66d8b)" d="M 604.144446 152.2 
L 606.118462 152.2 
L 606.118462 106.966226 
L 604.144446 106.966226 
z
" style="fill:#348abd;opacity:0.2;"/>
   </g>
   <g id="patch_214">
    <path clip-path="url(#p193df66d8b)" d="M 606.611966 152.2 
L 608.585983 152.2 
L 608.585983 114.509324 
L 606.611966 114.509324 
z
" style="fill:#348abd;opacity:0.2;"/>
   </g>
   <g id="patch_215">
    <path clip-path="url(#p193df66d8b)" d="M 609.079487 152.2 
L 611.053503 152.2 
L 611.053503 95.626766 
L 609.079487 95.626766 
z
" style="fill:#348abd;opacity:0.2;"/>
   </g>
   <g id="patch_216">
    <path clip-path="url(#p193df66d8b)" d="M 611.547007 152.2 
L 613.521024 152.2 
L 613.521024 96.842595 
L 611.547007 96.842595 
z
" style="fill:#348abd;opacity:0.2;"/>
   </g>
   <g id="patch_217">
    <path clip-path="url(#p193df66d8b)" d="M 614.014528 152.2 
L 615.988544 152.2 
L 615.988544 84.171514 
L 614.014528 84.171514 
z
" style="fill:#348abd;opacity:0.2;"/>
   </g>
   <g id="patch_218">
    <path clip-path="url(#p193df66d8b)" d="M 616.482048 152.2 
L 618.456065 152.2 
L 618.456065 84.717396 
L 616.482048 84.717396 
z
" style="fill:#348abd;opacity:0.2;"/>
   </g>
   <g id="patch_219">
    <path clip-path="url(#p193df66d8b)" d="M 618.949569 152.2 
L 620.923585 152.2 
L 620.923585 88.025772 
L 618.949569 88.025772 
z
" style="fill:#348abd;opacity:0.2;"/>
   </g>
   <g id="patch_220">
    <path clip-path="url(#p193df66d8b)" d="M 621.417089 152.2 
L 623.391105 152.2 
L 623.391105 107.933926 
L 621.417089 107.933926 
z
" style="fill:#348abd;opacity:0.2;"/>
   </g>
   <g id="patch_221">
    <path clip-path="url(#p193df66d8b)" d="M 623.88461 152.2 
L 625.858626 152.2 
L 625.858626 80.135295 
L 623.88461 80.135295 
z
" style="fill:#348abd;opacity:0.2;"/>
   </g>
   <g id="patch_222">
    <path clip-path="url(#p193df66d8b)" d="M 626.35213 152.2 
L 628.326146 152.2 
L 628.326146 79.65558 
L 626.35213 79.65558 
z
" style="fill:#348abd;opacity:0.2;"/>
   </g>
   <g id="patch_223">
    <path clip-path="url(#p193df66d8b)" d="M 628.819651 152.2 
L 630.793667 152.2 
L 630.793667 64.941577 
L 628.819651 64.941577 
z
" style="fill:#348abd;opacity:0.2;"/>
   </g>
   <g id="patch_224">
    <path clip-path="url(#p193df66d8b)" d="M 631.287171 152.2 
L 633.261187 152.2 
L 633.261187 68.630416 
L 631.287171 68.630416 
z
" style="fill:#348abd;opacity:0.2;"/>
   </g>
   <g id="patch_225">
    <path clip-path="url(#p193df66d8b)" d="M 633.754691 152.2 
L 635.728708 152.2 
L 635.728708 55.289389 
L 633.754691 55.289389 
z
" style="fill:#348abd;opacity:0.2;"/>
   </g>
   <g id="patch_226">
    <path clip-path="url(#p193df66d8b)" d="M 636.222212 152.2 
L 638.196228 152.2 
L 638.196228 75.859219 
L 636.222212 75.859219 
z
" style="fill:#348abd;opacity:0.2;"/>
   </g>
   <g id="patch_227">
    <path clip-path="url(#p193df66d8b)" d="M 638.689732 152.2 
L 640.663749 152.2 
L 640.663749 92.75675 
L 638.689732 92.75675 
z
" style="fill:#348abd;opacity:0.2;"/>
   </g>
   <g id="patch_228">
    <path clip-path="url(#p193df66d8b)" d="M 641.157253 152.2 
L 643.131269 152.2 
L 643.131269 75.205814 
L 641.157253 75.205814 
z
" style="fill:#348abd;opacity:0.2;"/>
   </g>
   <g id="patch_229">
    <path clip-path="url(#p193df66d8b)" d="M 643.624773 152.2 
L 645.59879 152.2 
L 645.59879 65.32204 
L 643.624773 65.32204 
z
" style="fill:#348abd;opacity:0.2;"/>
   </g>
   <g id="patch_230">
    <path clip-path="url(#p193df66d8b)" d="M 646.092294 152.2 
L 648.06631 152.2 
L 648.06631 61.773807 
L 646.092294 61.773807 
z
" style="fill:#348abd;opacity:0.2;"/>
   </g>
   <g id="patch_231">
    <path clip-path="url(#p193df66d8b)" d="M 648.559814 152.2 
L 650.533831 152.2 
L 650.533831 52.733669 
L 648.559814 52.733669 
z
" style="fill:#348abd;opacity:0.2;"/>
   </g>
   <g id="patch_232">
    <path clip-path="url(#p193df66d8b)" d="M 651.027335 152.2 
L 653.001351 152.2 
L 653.001351 63.833271 
L 651.027335 63.833271 
z
" style="fill:#348abd;opacity:0.2;"/>
   </g>
   <g id="patch_233">
    <path clip-path="url(#p193df66d8b)" d="M 653.494855 152.2 
L 655.468872 152.2 
L 655.468872 70.119186 
L 653.494855 70.119186 
z
" style="fill:#348abd;opacity:0.2;"/>
   </g>
   <g id="patch_234">
    <path clip-path="url(#p193df66d8b)" d="M 655.962376 152.2 
L 657.936392 152.2 
L 657.936392 94.419209 
L 655.962376 94.419209 
z
" style="fill:#348abd;opacity:0.2;"/>
   </g>
   <g id="patch_235">
    <path clip-path="url(#p193df66d8b)" d="M 658.429896 152.2 
L 660.403913 152.2 
L 660.403913 75.983283 
L 658.429896 75.983283 
z
" style="fill:#348abd;opacity:0.2;"/>
   </g>
   <g id="patch_236">
    <path clip-path="url(#p193df66d8b)" d="M 660.897417 152.2 
L 662.871433 152.2 
L 662.871433 52.725398 
L 660.897417 52.725398 
z
" style="fill:#348abd;opacity:0.2;"/>
   </g>
   <g id="patch_237">
    <path clip-path="url(#p193df66d8b)" d="M 663.364937 152.2 
L 665.338954 152.2 
L 665.338954 50.80654 
L 663.364937 50.80654 
z
" style="fill:#348abd;opacity:0.2;"/>
   </g>
   <g id="patch_238">
    <path clip-path="url(#p193df66d8b)" d="M 665.832458 152.2 
L 667.806474 152.2 
L 667.806474 53.734453 
L 665.832458 53.734453 
z
" style="fill:#348abd;opacity:0.2;"/>
   </g>
   <g id="patch_239">
    <path clip-path="url(#p193df66d8b)" d="M 668.299978 152.2 
L 670.273995 152.2 
L 670.273995 57.026287 
L 668.299978 57.026287 
z
" style="fill:#348abd;opacity:0.2;"/>
   </g>
   <g id="patch_240">
    <path clip-path="url(#p193df66d8b)" d="M 670.767499 152.2 
L 672.741515 152.2 
L 672.741515 63.072344 
L 670.767499 63.072344 
z
" style="fill:#348abd;opacity:0.2;"/>
   </g>
   <g id="patch_241">
    <path clip-path="url(#p193df66d8b)" d="M 673.235019 152.2 
L 675.209036 152.2 
L 675.209036 77.298362 
L 673.235019 77.298362 
z
" style="fill:#348abd;opacity:0.2;"/>
   </g>
   <g id="patch_242">
    <path clip-path="url(#p193df66d8b)" d="M 675.70254 152.2 
L 677.676556 152.2 
L 677.676556 70.24325 
L 675.70254 70.24325 
z
" style="fill:#348abd;opacity:0.2;"/>
   </g>
   <g id="patch_243">
    <path clip-path="url(#p193df66d8b)" d="M 678.17006 152.2 
L 680.144076 152.2 
L 680.144076 53.841975 
L 678.17006 53.841975 
z
" style="fill:#348abd;opacity:0.2;"/>
   </g>
   <g id="patch_244">
    <path clip-path="url(#p193df66d8b)" d="M 680.637581 152.2 
L 682.611597 152.2 
L 682.611597 55.64504 
L 680.637581 55.64504 
z
" style="fill:#348abd;opacity:0.2;"/>
   </g>
   <g id="patch_245">
    <path clip-path="url(#p193df66d8b)" d="M 683.105101 152.2 
L 685.079117 152.2 
L 685.079117 47.150784 
L 683.105101 47.150784 
z
" style="fill:#348abd;opacity:0.2;"/>
   </g>
   <g id="patch_246">
    <path clip-path="url(#p193df66d8b)" d="M 685.572622 152.2 
L 687.546638 152.2 
L 687.546638 53.403615 
L 685.572622 53.403615 
z
" style="fill:#348abd;opacity:0.2;"/>
   </g>
   <g id="patch_247">
    <path clip-path="url(#p193df66d8b)" d="M 688.040142 152.2 
L 690.014158 152.2 
L 690.014158 75.478755 
L 688.040142 75.478755 
z
" style="fill:#348abd;opacity:0.2;"/>
   </g>
   <g id="patch_248">
    <path clip-path="url(#p193df66d8b)" d="M 690.507662 152.2 
L 692.481679 152.2 
L 692.481679 82.4677 
L 690.507662 82.4677 
z
" style="fill:#348abd;opacity:0.2;"/>
   </g>
   <g id="patch_249">
    <path clip-path="url(#p193df66d8b)" d="M 692.975183 152.2 
L 694.949199 152.2 
L 694.949199 79.5646 
L 692.975183 79.5646 
z
" style="fill:#348abd;opacity:0.2;"/>
   </g>
   <g id="patch_250">
    <path clip-path="url(#p193df66d8b)" d="M 695.442703 152.2 
L 697.41672 152.2 
L 697.41672 52.725398 
L 695.442703 52.725398 
z
" style="fill:#348abd;opacity:0.2;"/>
   </g>
   <g id="patch_251">
    <path clip-path="url(#p193df66d8b)" d="M 697.910224 152.2 
L 699.88424 152.2 
L 699.88424 47.779375 
L 697.910224 47.779375 
z
" style="fill:#348abd;opacity:0.2;"/>
   </g>
   <g id="patch_252">
    <path clip-path="url(#p193df66d8b)" d="M 700.377744 152.2 
L 702.351761 152.2 
L 702.351761 40.815243 
L 700.377744 40.815243 
z
" style="fill:#348abd;opacity:0.2;"/>
   </g>
   <g id="patch_253">
    <path clip-path="url(#p193df66d8b)" d="M 702.845265 152.2 
L 704.819281 152.2 
L 704.819281 44.934172 
L 702.845265 44.934172 
z
" style="fill:#348abd;opacity:0.2;"/>
   </g>
   <g id="patch_254">
    <path clip-path="url(#p193df66d8b)" d="M 705.312785 152.2 
L 707.286802 152.2 
L 707.286802 59.16019 
L 705.312785 59.16019 
z
" style="fill:#348abd;opacity:0.2;"/>
   </g>
   <g id="patch_255">
    <path clip-path="url(#p193df66d8b)" d="M 707.780306 152.2 
L 709.754322 152.2 
L 709.754322 79.076614 
L 707.780306 79.076614 
z
" style="fill:#348abd;opacity:0.2;"/>
   </g>
   <g id="patch_256">
    <path clip-path="url(#p193df66d8b)" d="M 710.247826 152.2 
L 712.221843 152.2 
L 712.221843 54.545005 
L 710.247826 54.545005 
z
" style="fill:#348abd;opacity:0.2;"/>
   </g>
   <g id="patch_257">
    <path clip-path="url(#p193df66d8b)" d="M 712.715347 152.2 
L 714.689363 152.2 
L 714.689363 40.732534 
L 712.715347 40.732534 
z
" style="fill:#348abd;opacity:0.2;"/>
   </g>
   <g id="patch_258">
    <path clip-path="url(#p193df66d8b)" d="M 715.182867 152.2 
L 717.156884 152.2 
L 717.156884 33.164623 
L 715.182867 33.164623 
z
" style="fill:#348abd;opacity:0.2;"/>
   </g>
   <g id="patch_259">
    <path clip-path="url(#p193df66d8b)" d="M 717.650388 152.2 
L 719.624404 152.2 
L 719.624404 36.398561 
L 717.650388 36.398561 
z
" style="fill:#348abd;opacity:0.2;"/>
   </g>
   <g id="patch_260">
    <path clip-path="url(#p193df66d8b)" d="M 720.117908 152.2 
L 722.091925 152.2 
L 722.091925 30.724696 
L 720.117908 30.724696 
z
" style="fill:#348abd;opacity:0.2;"/>
   </g>
   <g id="patch_261">
    <path clip-path="url(#p193df66d8b)" d="M 722.585429 152.2 
L 724.559445 152.2 
L 724.559445 60.152702 
L 722.585429 60.152702 
z
" style="fill:#348abd;opacity:0.2;"/>
   </g>
   <g id="patch_262">
    <path clip-path="url(#p193df66d8b)" d="M 725.052949 152.2 
L 727.026966 152.2 
L 727.026966 88.778428 
L 725.052949 88.778428 
z
" style="fill:#348abd;opacity:0.2;"/>
   </g>
   <g id="patch_263">
    <path clip-path="url(#p193df66d8b)" d="M 727.52047 152.2 
L 729.494486 152.2 
L 729.494486 59.218086 
L 727.52047 59.218086 
z
" style="fill:#348abd;opacity:0.2;"/>
   </g>
   <g id="patch_264">
    <path clip-path="url(#p193df66d8b)" d="M 729.98799 152.2 
L 731.962007 152.2 
L 731.962007 30.286336 
L 729.98799 30.286336 
z
" style="fill:#348abd;opacity:0.2;"/>
   </g>
   <g id="patch_265">
    <path clip-path="url(#p193df66d8b)" d="M 732.455511 152.2 
L 734.429527 152.2 
L 734.429527 16.16784 
L 732.455511 16.16784 
z
" style="fill:#348abd;opacity:0.2;"/>
   </g>
   <g id="patch_266">
    <path clip-path="url(#p193df66d8b)" d="M 734.923031 152.2 
L 736.897047 152.2 
L 736.897047 24.380884 
L 734.923031 24.380884 
z
" style="fill:#348abd;opacity:0.2;"/>
   </g>
   <g id="patch_267">
    <path clip-path="url(#p193df66d8b)" d="M 737.390552 152.2 
L 739.364568 152.2 
L 739.364568 27.317068 
L 737.390552 27.317068 
z
" style="fill:#348abd;opacity:0.2;"/>
   </g>
   <g id="patch_268">
    <path clip-path="url(#p193df66d8b)" d="M 739.858072 152.2 
L 741.832088 152.2 
L 741.832088 49.524544 
L 739.858072 49.524544 
z
" style="fill:#348abd;opacity:0.2;"/>
   </g>
   <g id="patch_269">
    <path clip-path="url(#p193df66d8b)" d="M 742.325593 152.2 
L 744.299609 152.2 
L 744.299609 66.81081 
L 742.325593 66.81081 
z
" style="fill:#348abd;opacity:0.2;"/>
   </g>
   <g id="patch_270">
    <path clip-path="url(#p193df66d8b)" d="M 744.793113 152.2 
L 746.767129 152.2 
L 746.767129 73.427562 
L 744.793113 73.427562 
z
" style="fill:#348abd;opacity:0.2;"/>
   </g>
   <g id="patch_271">
    <path clip-path="url(#p193df66d8b)" d="M 747.260633 152.2 
L 749.23465 152.2 
L 749.23465 42.155136 
L 747.260633 42.155136 
z
" style="fill:#348abd;opacity:0.2;"/>
   </g>
   <g id="patch_272">
    <path clip-path="url(#p193df66d8b)" d="M 749.728154 152.2 
L 751.70217 152.2 
L 751.70217 28.698315 
L 749.728154 28.698315 
z
" style="fill:#348abd;opacity:0.2;"/>
   </g>
   <g id="patch_273">
    <path clip-path="url(#p193df66d8b)" d="M 752.195674 152.2 
L 754.169691 152.2 
L 754.169691 10.8 
L 752.195674 10.8 
z
" style="fill:#348abd;opacity:0.2;"/>
   </g>
   <g id="patch_274">
    <path clip-path="url(#p193df66d8b)" d="M 754.663195 152.2 
L 756.637211 152.2 
L 756.637211 15.349017 
L 754.663195 15.349017 
z
" style="fill:#348abd;opacity:0.2;"/>
   </g>
   <g id="patch_275">
    <path clip-path="url(#p193df66d8b)" d="M 757.130715 152.2 
L 759.104732 152.2 
L 759.104732 40.459593 
L 757.130715 40.459593 
z
" style="fill:#348abd;opacity:0.2;"/>
   </g>
   <g id="patch_276">
    <path clip-path="url(#p193df66d8b)" d="M 759.598236 152.2 
L 761.572252 152.2 
L 761.572252 64.850597 
L 759.598236 64.850597 
z
" style="fill:#348abd;opacity:0.2;"/>
   </g>
   <g id="patch_277">
    <path clip-path="url(#p193df66d8b)" d="M 762.065756 152.2 
L 764.039773 152.2 
L 764.039773 44.82665 
L 762.065756 44.82665 
z
" style="fill:#348abd;opacity:0.2;"/>
   </g>
   <g id="line2d_24">
    <path clip-path="url(#p193df66d8b)" d="M 96.822235 152.2 
L 225.1333 152.111011 
L 239.938423 151.84586 
L 262.146107 151.424217 
L 276.95123 151.416457 
L 291.756353 151.388567 
L 313.964038 151.178737 
L 326.30164 150.97744 
L 348.509324 150.994349 
L 358.379406 150.547966 
L 378.11957 149.34987 
L 383.054611 148.762096 
L 395.392213 147.092535 
L 400.327254 146.73318 
L 415.132377 145.948945 
L 422.534939 145.30298 
L 427.46998 144.753449 
L 432.40502 143.987414 
L 442.275102 142.051199 
L 449.677664 140.619183 
L 454.612705 139.613562 
L 459.547746 138.262149 
L 464.482787 136.558062 
L 471.885348 133.869776 
L 474.352869 133.159275 
L 476.820389 132.590458 
L 481.75543 131.891868 
L 491.625512 131.049993 
L 494.093032 130.635787 
L 496.560553 130.107824 
L 501.495594 128.738116 
L 511.365676 125.779881 
L 523.703278 122.408625 
L 526.170799 121.432995 
L 528.638319 120.217166 
L 531.10584 118.828753 
L 540.975922 112.498648 
L 543.443442 111.212458 
L 545.910962 110.179023 
L 548.378483 109.363898 
L 553.313524 108.216231 
L 558.248565 107.222311 
L 563.183606 105.876876 
L 565.651126 104.953252 
L 573.053688 101.685768 
L 580.456249 98.396385 
L 582.92377 97.636175 
L 585.39129 97.038264 
L 587.858811 96.590434 
L 590.326331 96.47832 
L 592.793852 96.511389 
L 600.196413 97.742749 
L 602.663933 97.954997 
L 605.131454 97.951673 
L 607.598974 97.503808 
L 610.066495 96.656184 
L 612.534015 95.085735 
L 615.001536 93.09713 
L 617.469056 90.594637 
L 622.404097 85.029281 
L 627.339138 79.475617 
L 629.806659 77.141657 
L 632.274179 75.010651 
L 634.7417 73.358782 
L 637.20922 71.96864 
L 639.676741 70.964816 
L 642.144261 70.203641 
L 647.079302 68.962715 
L 652.014343 67.869725 
L 654.481864 67.276782 
L 659.416904 65.470247 
L 664.351945 63.544649 
L 666.819466 62.725254 
L 669.286986 62.028385 
L 671.754507 61.52759 
L 674.222027 61.276795 
L 676.689548 61.317105 
L 684.092109 62.225279 
L 686.55963 62.325114 
L 689.02715 62.183244 
L 691.494671 61.804936 
L 693.962191 60.922836 
L 696.429712 59.700456 
L 701.364753 56.466501 
L 706.299794 53.010734 
L 708.767314 51.57258 
L 711.234834 50.494802 
L 713.702355 49.610732 
L 723.572437 46.932274 
L 730.974998 43.82031 
L 733.442519 43.051604 
L 735.910039 42.525037 
L 740.84508 41.997268 
L 743.312601 41.750188 
L 745.780121 41.221455 
L 748.247642 40.50991 
L 750.715162 39.520023 
L 755.650203 37.983973 
L 758.117724 37.467952 
L 760.585244 37.191432 
L 763.052765 37.10823 
L 763.052765 37.10823 
" style="fill:none;stroke:#348abd;stroke-linecap:square;stroke-width:3;"/>
   </g>
   <g id="patch_278">
    <path d="M 62.425 152.2 
L 62.425 10.8 
" style="fill:none;stroke:#ffffff;stroke-linecap:square;stroke-linejoin:miter;"/>
   </g>
   <g id="patch_279">
    <path d="M 797.45 152.2 
L 797.45 10.8 
" style="fill:none;stroke:#ffffff;stroke-linecap:square;stroke-linejoin:miter;"/>
   </g>
   <g id="patch_280">
    <path d="M 62.425 152.2 
L 797.45 152.2 
" style="fill:none;stroke:#ffffff;stroke-linecap:square;stroke-linejoin:miter;"/>
   </g>
   <g id="patch_281">
    <path d="M 62.425 10.8 
L 797.45 10.8 
" style="fill:none;stroke:#ffffff;stroke-linecap:square;stroke-linejoin:miter;"/>
   </g>
   <g id="legend_1">
    <g id="patch_282">
     <path d="M 69.425 48.15625 
L 294.860938 48.15625 
Q 296.860938 48.15625 296.860938 46.15625 
L 296.860938 17.8 
Q 296.860938 15.8 294.860938 15.8 
L 69.425 15.8 
Q 67.425 15.8 67.425 17.8 
L 67.425 46.15625 
Q 67.425 48.15625 69.425 48.15625 
z
" style="fill:#e5e5e5;opacity:0.8;stroke:#cccccc;stroke-linejoin:miter;stroke-width:0.5;"/>
    </g>
    <g id="line2d_25">
     <path d="M 71.425 23.898438 
L 91.425 23.898438 
" style="fill:none;stroke:#348abd;stroke-linecap:square;stroke-width:3;"/>
    </g>
    <g id="line2d_26"/>
    <g id="text_21">
     <!-- Argentina new cases (rolling 7d mean) -->
     <defs>
      <path d="M 34.1875 63.1875 
L 20.796875 26.90625 
L 47.609375 26.90625 
z
M 28.609375 72.90625 
L 39.796875 72.90625 
L 67.578125 0 
L 57.328125 0 
L 50.6875 18.703125 
L 17.828125 18.703125 
L 11.1875 0 
L 0.78125 0 
z
" id="DejaVuSans-65"/>
      <path d="M 18.3125 70.21875 
L 18.3125 54.6875 
L 36.8125 54.6875 
L 36.8125 47.703125 
L 18.3125 47.703125 
L 18.3125 18.015625 
Q 18.3125 11.328125 20.140625 9.421875 
Q 21.96875 7.515625 27.59375 7.515625 
L 36.8125 7.515625 
L 36.8125 0 
L 27.59375 0 
Q 17.1875 0 13.234375 3.875 
Q 9.28125 7.765625 9.28125 18.015625 
L 9.28125 47.703125 
L 2.6875 47.703125 
L 2.6875 54.6875 
L 9.28125 54.6875 
L 9.28125 70.21875 
z
" id="DejaVuSans-116"/>
      <path d="M 4.203125 54.6875 
L 13.1875 54.6875 
L 24.421875 12.015625 
L 35.59375 54.6875 
L 46.1875 54.6875 
L 57.421875 12.015625 
L 68.609375 54.6875 
L 77.59375 54.6875 
L 63.28125 0 
L 52.6875 0 
L 40.921875 44.828125 
L 29.109375 0 
L 18.5 0 
z
" id="DejaVuSans-119"/>
      <path d="M 31 75.875 
Q 24.46875 64.65625 21.28125 53.65625 
Q 18.109375 42.671875 18.109375 31.390625 
Q 18.109375 20.125 21.3125 9.0625 
Q 24.515625 -2 31 -13.1875 
L 23.1875 -13.1875 
Q 15.875 -1.703125 12.234375 9.375 
Q 8.59375 20.453125 8.59375 31.390625 
Q 8.59375 42.28125 12.203125 53.3125 
Q 15.828125 64.359375 23.1875 75.875 
z
" id="DejaVuSans-40"/>
      <path d="M 8.015625 75.875 
L 15.828125 75.875 
Q 23.140625 64.359375 26.78125 53.3125 
Q 30.421875 42.28125 30.421875 31.390625 
Q 30.421875 20.453125 26.78125 9.375 
Q 23.140625 -1.703125 15.828125 -13.1875 
L 8.015625 -13.1875 
Q 14.5 -2 17.703125 9.0625 
Q 20.90625 20.125 20.90625 31.390625 
Q 20.90625 42.671875 17.703125 53.65625 
Q 14.5 64.65625 8.015625 75.875 
z
" id="DejaVuSans-41"/>
     </defs>
     <g transform="translate(99.425 27.398438)scale(0.1 -0.1)">
      <use xlink:href="#DejaVuSans-65"/>
      <use x="68.408203" xlink:href="#DejaVuSans-114"/>
      <use x="107.771484" xlink:href="#DejaVuSans-103"/>
      <use x="171.248047" xlink:href="#DejaVuSans-101"/>
      <use x="232.771484" xlink:href="#DejaVuSans-110"/>
      <use x="296.150391" xlink:href="#DejaVuSans-116"/>
      <use x="335.359375" xlink:href="#DejaVuSans-105"/>
      <use x="363.142578" xlink:href="#DejaVuSans-110"/>
      <use x="426.521484" xlink:href="#DejaVuSans-97"/>
      <use x="487.800781" xlink:href="#DejaVuSans-32"/>
      <use x="519.587891" xlink:href="#DejaVuSans-110"/>
      <use x="582.966797" xlink:href="#DejaVuSans-101"/>
      <use x="644.490234" xlink:href="#DejaVuSans-119"/>
      <use x="726.277344" xlink:href="#DejaVuSans-32"/>
      <use x="758.064453" xlink:href="#DejaVuSans-99"/>
      <use x="813.044922" xlink:href="#DejaVuSans-97"/>
      <use x="874.324219" xlink:href="#DejaVuSans-115"/>
      <use x="926.423828" xlink:href="#DejaVuSans-101"/>
      <use x="987.947266" xlink:href="#DejaVuSans-115"/>
      <use x="1040.046875" xlink:href="#DejaVuSans-32"/>
      <use x="1071.833984" xlink:href="#DejaVuSans-40"/>
      <use x="1110.847656" xlink:href="#DejaVuSans-114"/>
      <use x="1149.710938" xlink:href="#DejaVuSans-111"/>
      <use x="1210.892578" xlink:href="#DejaVuSans-108"/>
      <use x="1238.675781" xlink:href="#DejaVuSans-108"/>
      <use x="1266.458984" xlink:href="#DejaVuSans-105"/>
      <use x="1294.242188" xlink:href="#DejaVuSans-110"/>
      <use x="1357.621094" xlink:href="#DejaVuSans-103"/>
      <use x="1421.097656" xlink:href="#DejaVuSans-32"/>
      <use x="1452.884766" xlink:href="#DejaVuSans-55"/>
      <use x="1516.507812" xlink:href="#DejaVuSans-100"/>
      <use x="1579.984375" xlink:href="#DejaVuSans-32"/>
      <use x="1611.771484" xlink:href="#DejaVuSans-109"/>
      <use x="1709.183594" xlink:href="#DejaVuSans-101"/>
      <use x="1770.707031" xlink:href="#DejaVuSans-97"/>
      <use x="1831.986328" xlink:href="#DejaVuSans-110"/>
      <use x="1895.365234" xlink:href="#DejaVuSans-41"/>
     </g>
    </g>
    <g id="patch_283">
     <path d="M 71.425 42.076563 
L 91.425 42.076563 
L 91.425 35.076563 
L 71.425 35.076563 
z
" style="fill:#348abd;opacity:0.2;"/>
    </g>
    <g id="text_22">
     <!-- Argentina new cases -->
     <g transform="translate(99.425 42.076563)scale(0.1 -0.1)">
      <use xlink:href="#DejaVuSans-65"/>
      <use x="68.408203" xlink:href="#DejaVuSans-114"/>
      <use x="107.771484" xlink:href="#DejaVuSans-103"/>
      <use x="171.248047" xlink:href="#DejaVuSans-101"/>
      <use x="232.771484" xlink:href="#DejaVuSans-110"/>
      <use x="296.150391" xlink:href="#DejaVuSans-116"/>
      <use x="335.359375" xlink:href="#DejaVuSans-105"/>
      <use x="363.142578" xlink:href="#DejaVuSans-110"/>
      <use x="426.521484" xlink:href="#DejaVuSans-97"/>
      <use x="487.800781" xlink:href="#DejaVuSans-32"/>
      <use x="519.587891" xlink:href="#DejaVuSans-110"/>
      <use x="582.966797" xlink:href="#DejaVuSans-101"/>
      <use x="644.490234" xlink:href="#DejaVuSans-119"/>
      <use x="726.277344" xlink:href="#DejaVuSans-32"/>
      <use x="758.064453" xlink:href="#DejaVuSans-99"/>
      <use x="813.044922" xlink:href="#DejaVuSans-97"/>
      <use x="874.324219" xlink:href="#DejaVuSans-115"/>
      <use x="926.423828" xlink:href="#DejaVuSans-101"/>
      <use x="987.947266" xlink:href="#DejaVuSans-115"/>
     </g>
    </g>
   </g>
  </g>
 </g>
 <defs>
  <clipPath id="p193df66d8b">
   <rect height="141.4" width="735.025" x="62.425" y="10.8"/>
  </clipPath>
 </defs>
</svg>
