<?xml version="1.0" encoding="utf-8" standalone="no"?>
<!DOCTYPE svg PUBLIC "-//W3C//DTD SVG 1.1//EN"
  "http://www.w3.org/Graphics/SVG/1.1/DTD/svg11.dtd">
<!-- Created with matplotlib (https://matplotlib.org/) -->
<svg height="432pt" version="1.1" viewBox="0 0 720 432" width="720pt" xmlns="http://www.w3.org/2000/svg" xmlns:xlink="http://www.w3.org/1999/xlink">
 <defs>
  <style type="text/css">
*{stroke-linecap:butt;stroke-linejoin:round;}
  </style>
 </defs>
 <g id="figure_1">
  <g id="patch_1">
   <path d="M 0 432 
L 720 432 
L 720 0 
L 0 0 
z
" style="fill:#ffffff;"/>
  </g>
  <g id="axes_1">
   <g id="patch_2">
    <path d="M 86.625 177.378965 
L 665.375 177.378965 
L 665.375 10.75793 
L 86.625 10.75793 
z
" style="fill:#e5e5e5;"/>
   </g>
   <g id="matplotlib.axis_1">
    <g id="xtick_1">
     <g id="line2d_1">
      <path clip-path="url(#p8c3aed0e2c)" d="M 89.342136 177.378965 
L 89.342136 10.75793 
" style="fill:none;stroke:#ffffff;stroke-linecap:square;stroke-width:0.8;"/>
     </g>
     <g id="line2d_2">
      <defs>
       <path d="M 0 0 
L 0 3.5 
" id="m14de6432d1" style="stroke:#555555;stroke-width:0.8;"/>
      </defs>
      <g>
       <use style="fill:#555555;stroke:#555555;stroke-width:0.8;" x="89.342136" xlink:href="#m14de6432d1" y="177.378965"/>
      </g>
     </g>
     <g id="text_1">
      <!-- 0 -->
      <defs>
       <path d="M 31.78125 66.40625 
Q 24.171875 66.40625 20.328125 58.90625 
Q 16.5 51.421875 16.5 36.375 
Q 16.5 21.390625 20.328125 13.890625 
Q 24.171875 6.390625 31.78125 6.390625 
Q 39.453125 6.390625 43.28125 13.890625 
Q 47.125 21.390625 47.125 36.375 
Q 47.125 51.421875 43.28125 58.90625 
Q 39.453125 66.40625 31.78125 66.40625 
z
M 31.78125 74.21875 
Q 44.046875 74.21875 50.515625 64.515625 
Q 56.984375 54.828125 56.984375 36.375 
Q 56.984375 17.96875 50.515625 8.265625 
Q 44.046875 -1.421875 31.78125 -1.421875 
Q 19.53125 -1.421875 13.0625 8.265625 
Q 6.59375 17.96875 6.59375 36.375 
Q 6.59375 54.828125 13.0625 64.515625 
Q 19.53125 74.21875 31.78125 74.21875 
z
" id="DejaVuSans-48"/>
      </defs>
      <g style="fill:#555555;" transform="translate(86.160886 191.977403)scale(0.1 -0.1)">
       <use xlink:href="#DejaVuSans-48"/>
      </g>
     </g>
    </g>
    <g id="xtick_2">
     <g id="line2d_3">
      <path clip-path="url(#p8c3aed0e2c)" d="M 157.27054 177.378965 
L 157.27054 10.75793 
" style="fill:none;stroke:#ffffff;stroke-linecap:square;stroke-width:0.8;"/>
     </g>
     <g id="line2d_4">
      <g>
       <use style="fill:#555555;stroke:#555555;stroke-width:0.8;" x="157.27054" xlink:href="#m14de6432d1" y="177.378965"/>
      </g>
     </g>
     <g id="text_2">
      <!-- 25 -->
      <defs>
       <path d="M 19.1875 8.296875 
L 53.609375 8.296875 
L 53.609375 0 
L 7.328125 0 
L 7.328125 8.296875 
Q 12.9375 14.109375 22.625 23.890625 
Q 32.328125 33.6875 34.8125 36.53125 
Q 39.546875 41.84375 41.421875 45.53125 
Q 43.3125 49.21875 43.3125 52.78125 
Q 43.3125 58.59375 39.234375 62.25 
Q 35.15625 65.921875 28.609375 65.921875 
Q 23.96875 65.921875 18.8125 64.3125 
Q 13.671875 62.703125 7.8125 59.421875 
L 7.8125 69.390625 
Q 13.765625 71.78125 18.9375 73 
Q 24.125 74.21875 28.421875 74.21875 
Q 39.75 74.21875 46.484375 68.546875 
Q 53.21875 62.890625 53.21875 53.421875 
Q 53.21875 48.921875 51.53125 44.890625 
Q 49.859375 40.875 45.40625 35.40625 
Q 44.1875 33.984375 37.640625 27.21875 
Q 31.109375 20.453125 19.1875 8.296875 
z
" id="DejaVuSans-50"/>
       <path d="M 10.796875 72.90625 
L 49.515625 72.90625 
L 49.515625 64.59375 
L 19.828125 64.59375 
L 19.828125 46.734375 
Q 21.96875 47.46875 24.109375 47.828125 
Q 26.265625 48.1875 28.421875 48.1875 
Q 40.625 48.1875 47.75 41.5 
Q 54.890625 34.8125 54.890625 23.390625 
Q 54.890625 11.625 47.5625 5.09375 
Q 40.234375 -1.421875 26.90625 -1.421875 
Q 22.3125 -1.421875 17.546875 -0.640625 
Q 12.796875 0.140625 7.71875 1.703125 
L 7.71875 11.625 
Q 12.109375 9.234375 16.796875 8.0625 
Q 21.484375 6.890625 26.703125 6.890625 
Q 35.15625 6.890625 40.078125 11.328125 
Q 45.015625 15.765625 45.015625 23.390625 
Q 45.015625 31 40.078125 35.4375 
Q 35.15625 39.890625 26.703125 39.890625 
Q 22.75 39.890625 18.8125 39.015625 
Q 14.890625 38.140625 10.796875 36.28125 
z
" id="DejaVuSans-53"/>
      </defs>
      <g style="fill:#555555;" transform="translate(150.90804 191.977403)scale(0.1 -0.1)">
       <use xlink:href="#DejaVuSans-50"/>
       <use x="63.623047" xlink:href="#DejaVuSans-53"/>
      </g>
     </g>
    </g>
    <g id="xtick_3">
     <g id="line2d_5">
      <path clip-path="url(#p8c3aed0e2c)" d="M 225.198944 177.378965 
L 225.198944 10.75793 
" style="fill:none;stroke:#ffffff;stroke-linecap:square;stroke-width:0.8;"/>
     </g>
     <g id="line2d_6">
      <g>
       <use style="fill:#555555;stroke:#555555;stroke-width:0.8;" x="225.198944" xlink:href="#m14de6432d1" y="177.378965"/>
      </g>
     </g>
     <g id="text_3">
      <!-- 50 -->
      <g style="fill:#555555;" transform="translate(218.836444 191.977403)scale(0.1 -0.1)">
       <use xlink:href="#DejaVuSans-53"/>
       <use x="63.623047" xlink:href="#DejaVuSans-48"/>
      </g>
     </g>
    </g>
    <g id="xtick_4">
     <g id="line2d_7">
      <path clip-path="url(#p8c3aed0e2c)" d="M 293.127347 177.378965 
L 293.127347 10.75793 
" style="fill:none;stroke:#ffffff;stroke-linecap:square;stroke-width:0.8;"/>
     </g>
     <g id="line2d_8">
      <g>
       <use style="fill:#555555;stroke:#555555;stroke-width:0.8;" x="293.127347" xlink:href="#m14de6432d1" y="177.378965"/>
      </g>
     </g>
     <g id="text_4">
      <!-- 75 -->
      <defs>
       <path d="M 8.203125 72.90625 
L 55.078125 72.90625 
L 55.078125 68.703125 
L 28.609375 0 
L 18.3125 0 
L 43.21875 64.59375 
L 8.203125 64.59375 
z
" id="DejaVuSans-55"/>
      </defs>
      <g style="fill:#555555;" transform="translate(286.764847 191.977403)scale(0.1 -0.1)">
       <use xlink:href="#DejaVuSans-55"/>
       <use x="63.623047" xlink:href="#DejaVuSans-53"/>
      </g>
     </g>
    </g>
    <g id="xtick_5">
     <g id="line2d_9">
      <path clip-path="url(#p8c3aed0e2c)" d="M 361.055751 177.378965 
L 361.055751 10.75793 
" style="fill:none;stroke:#ffffff;stroke-linecap:square;stroke-width:0.8;"/>
     </g>
     <g id="line2d_10">
      <g>
       <use style="fill:#555555;stroke:#555555;stroke-width:0.8;" x="361.055751" xlink:href="#m14de6432d1" y="177.378965"/>
      </g>
     </g>
     <g id="text_5">
      <!-- 100 -->
      <defs>
       <path d="M 12.40625 8.296875 
L 28.515625 8.296875 
L 28.515625 63.921875 
L 10.984375 60.40625 
L 10.984375 69.390625 
L 28.421875 72.90625 
L 38.28125 72.90625 
L 38.28125 8.296875 
L 54.390625 8.296875 
L 54.390625 0 
L 12.40625 0 
z
" id="DejaVuSans-49"/>
      </defs>
      <g style="fill:#555555;" transform="translate(351.512001 191.977403)scale(0.1 -0.1)">
       <use xlink:href="#DejaVuSans-49"/>
       <use x="63.623047" xlink:href="#DejaVuSans-48"/>
       <use x="127.246094" xlink:href="#DejaVuSans-48"/>
      </g>
     </g>
    </g>
    <g id="xtick_6">
     <g id="line2d_11">
      <path clip-path="url(#p8c3aed0e2c)" d="M 428.984155 177.378965 
L 428.984155 10.75793 
" style="fill:none;stroke:#ffffff;stroke-linecap:square;stroke-width:0.8;"/>
     </g>
     <g id="line2d_12">
      <g>
       <use style="fill:#555555;stroke:#555555;stroke-width:0.8;" x="428.984155" xlink:href="#m14de6432d1" y="177.378965"/>
      </g>
     </g>
     <g id="text_6">
      <!-- 125 -->
      <g style="fill:#555555;" transform="translate(419.440405 191.977403)scale(0.1 -0.1)">
       <use xlink:href="#DejaVuSans-49"/>
       <use x="63.623047" xlink:href="#DejaVuSans-50"/>
       <use x="127.246094" xlink:href="#DejaVuSans-53"/>
      </g>
     </g>
    </g>
    <g id="xtick_7">
     <g id="line2d_13">
      <path clip-path="url(#p8c3aed0e2c)" d="M 496.912559 177.378965 
L 496.912559 10.75793 
" style="fill:none;stroke:#ffffff;stroke-linecap:square;stroke-width:0.8;"/>
     </g>
     <g id="line2d_14">
      <g>
       <use style="fill:#555555;stroke:#555555;stroke-width:0.8;" x="496.912559" xlink:href="#m14de6432d1" y="177.378965"/>
      </g>
     </g>
     <g id="text_7">
      <!-- 150 -->
      <g style="fill:#555555;" transform="translate(487.368809 191.977403)scale(0.1 -0.1)">
       <use xlink:href="#DejaVuSans-49"/>
       <use x="63.623047" xlink:href="#DejaVuSans-53"/>
       <use x="127.246094" xlink:href="#DejaVuSans-48"/>
      </g>
     </g>
    </g>
    <g id="xtick_8">
     <g id="line2d_15">
      <path clip-path="url(#p8c3aed0e2c)" d="M 564.840962 177.378965 
L 564.840962 10.75793 
" style="fill:none;stroke:#ffffff;stroke-linecap:square;stroke-width:0.8;"/>
     </g>
     <g id="line2d_16">
      <g>
       <use style="fill:#555555;stroke:#555555;stroke-width:0.8;" x="564.840962" xlink:href="#m14de6432d1" y="177.378965"/>
      </g>
     </g>
     <g id="text_8">
      <!-- 175 -->
      <g style="fill:#555555;" transform="translate(555.297212 191.977403)scale(0.1 -0.1)">
       <use xlink:href="#DejaVuSans-49"/>
       <use x="63.623047" xlink:href="#DejaVuSans-55"/>
       <use x="127.246094" xlink:href="#DejaVuSans-53"/>
      </g>
     </g>
    </g>
    <g id="xtick_9">
     <g id="line2d_17">
      <path clip-path="url(#p8c3aed0e2c)" d="M 632.769366 177.378965 
L 632.769366 10.75793 
" style="fill:none;stroke:#ffffff;stroke-linecap:square;stroke-width:0.8;"/>
     </g>
     <g id="line2d_18">
      <g>
       <use style="fill:#555555;stroke:#555555;stroke-width:0.8;" x="632.769366" xlink:href="#m14de6432d1" y="177.378965"/>
      </g>
     </g>
     <g id="text_9">
      <!-- 200 -->
      <g style="fill:#555555;" transform="translate(623.225616 191.977403)scale(0.1 -0.1)">
       <use xlink:href="#DejaVuSans-50"/>
       <use x="63.623047" xlink:href="#DejaVuSans-48"/>
       <use x="127.246094" xlink:href="#DejaVuSans-48"/>
      </g>
     </g>
    </g>
    <g id="text_10">
     <!-- days since 10 cases -->
     <defs>
      <path d="M 45.40625 46.390625 
L 45.40625 75.984375 
L 54.390625 75.984375 
L 54.390625 0 
L 45.40625 0 
L 45.40625 8.203125 
Q 42.578125 3.328125 38.25 0.953125 
Q 33.9375 -1.421875 27.875 -1.421875 
Q 17.96875 -1.421875 11.734375 6.484375 
Q 5.515625 14.40625 5.515625 27.296875 
Q 5.515625 40.1875 11.734375 48.09375 
Q 17.96875 56 27.875 56 
Q 33.9375 56 38.25 53.625 
Q 42.578125 51.265625 45.40625 46.390625 
z
M 14.796875 27.296875 
Q 14.796875 17.390625 18.875 11.75 
Q 22.953125 6.109375 30.078125 6.109375 
Q 37.203125 6.109375 41.296875 11.75 
Q 45.40625 17.390625 45.40625 27.296875 
Q 45.40625 37.203125 41.296875 42.84375 
Q 37.203125 48.484375 30.078125 48.484375 
Q 22.953125 48.484375 18.875 42.84375 
Q 14.796875 37.203125 14.796875 27.296875 
z
" id="DejaVuSans-100"/>
      <path d="M 34.28125 27.484375 
Q 23.390625 27.484375 19.1875 25 
Q 14.984375 22.515625 14.984375 16.5 
Q 14.984375 11.71875 18.140625 8.90625 
Q 21.296875 6.109375 26.703125 6.109375 
Q 34.1875 6.109375 38.703125 11.40625 
Q 43.21875 16.703125 43.21875 25.484375 
L 43.21875 27.484375 
z
M 52.203125 31.203125 
L 52.203125 0 
L 43.21875 0 
L 43.21875 8.296875 
Q 40.140625 3.328125 35.546875 0.953125 
Q 30.953125 -1.421875 24.3125 -1.421875 
Q 15.921875 -1.421875 10.953125 3.296875 
Q 6 8.015625 6 15.921875 
Q 6 25.140625 12.171875 29.828125 
Q 18.359375 34.515625 30.609375 34.515625 
L 43.21875 34.515625 
L 43.21875 35.40625 
Q 43.21875 41.609375 39.140625 45 
Q 35.0625 48.390625 27.6875 48.390625 
Q 23 48.390625 18.546875 47.265625 
Q 14.109375 46.140625 10.015625 43.890625 
L 10.015625 52.203125 
Q 14.9375 54.109375 19.578125 55.046875 
Q 24.21875 56 28.609375 56 
Q 40.484375 56 46.34375 49.84375 
Q 52.203125 43.703125 52.203125 31.203125 
z
" id="DejaVuSans-97"/>
      <path d="M 32.171875 -5.078125 
Q 28.375 -14.84375 24.75 -17.8125 
Q 21.140625 -20.796875 15.09375 -20.796875 
L 7.90625 -20.796875 
L 7.90625 -13.28125 
L 13.1875 -13.28125 
Q 16.890625 -13.28125 18.9375 -11.515625 
Q 21 -9.765625 23.484375 -3.21875 
L 25.09375 0.875 
L 2.984375 54.6875 
L 12.5 54.6875 
L 29.59375 11.921875 
L 46.6875 54.6875 
L 56.203125 54.6875 
z
" id="DejaVuSans-121"/>
      <path d="M 44.28125 53.078125 
L 44.28125 44.578125 
Q 40.484375 46.53125 36.375 47.5 
Q 32.28125 48.484375 27.875 48.484375 
Q 21.1875 48.484375 17.84375 46.4375 
Q 14.5 44.390625 14.5 40.28125 
Q 14.5 37.15625 16.890625 35.375 
Q 19.28125 33.59375 26.515625 31.984375 
L 29.59375 31.296875 
Q 39.15625 29.25 43.1875 25.515625 
Q 47.21875 21.78125 47.21875 15.09375 
Q 47.21875 7.46875 41.1875 3.015625 
Q 35.15625 -1.421875 24.609375 -1.421875 
Q 20.21875 -1.421875 15.453125 -0.5625 
Q 10.6875 0.296875 5.421875 2 
L 5.421875 11.28125 
Q 10.40625 8.6875 15.234375 7.390625 
Q 20.0625 6.109375 24.8125 6.109375 
Q 31.15625 6.109375 34.5625 8.28125 
Q 37.984375 10.453125 37.984375 14.40625 
Q 37.984375 18.0625 35.515625 20.015625 
Q 33.0625 21.96875 24.703125 23.78125 
L 21.578125 24.515625 
Q 13.234375 26.265625 9.515625 29.90625 
Q 5.8125 33.546875 5.8125 39.890625 
Q 5.8125 47.609375 11.28125 51.796875 
Q 16.75 56 26.8125 56 
Q 31.78125 56 36.171875 55.265625 
Q 40.578125 54.546875 44.28125 53.078125 
z
" id="DejaVuSans-115"/>
      <path id="DejaVuSans-32"/>
      <path d="M 9.421875 54.6875 
L 18.40625 54.6875 
L 18.40625 0 
L 9.421875 0 
z
M 9.421875 75.984375 
L 18.40625 75.984375 
L 18.40625 64.59375 
L 9.421875 64.59375 
z
" id="DejaVuSans-105"/>
      <path d="M 54.890625 33.015625 
L 54.890625 0 
L 45.90625 0 
L 45.90625 32.71875 
Q 45.90625 40.484375 42.875 44.328125 
Q 39.84375 48.1875 33.796875 48.1875 
Q 26.515625 48.1875 22.3125 43.546875 
Q 18.109375 38.921875 18.109375 30.90625 
L 18.109375 0 
L 9.078125 0 
L 9.078125 54.6875 
L 18.109375 54.6875 
L 18.109375 46.1875 
Q 21.34375 51.125 25.703125 53.5625 
Q 30.078125 56 35.796875 56 
Q 45.21875 56 50.046875 50.171875 
Q 54.890625 44.34375 54.890625 33.015625 
z
" id="DejaVuSans-110"/>
      <path d="M 48.78125 52.59375 
L 48.78125 44.1875 
Q 44.96875 46.296875 41.140625 47.34375 
Q 37.3125 48.390625 33.40625 48.390625 
Q 24.65625 48.390625 19.8125 42.84375 
Q 14.984375 37.3125 14.984375 27.296875 
Q 14.984375 17.28125 19.8125 11.734375 
Q 24.65625 6.203125 33.40625 6.203125 
Q 37.3125 6.203125 41.140625 7.25 
Q 44.96875 8.296875 48.78125 10.40625 
L 48.78125 2.09375 
Q 45.015625 0.34375 40.984375 -0.53125 
Q 36.96875 -1.421875 32.421875 -1.421875 
Q 20.0625 -1.421875 12.78125 6.34375 
Q 5.515625 14.109375 5.515625 27.296875 
Q 5.515625 40.671875 12.859375 48.328125 
Q 20.21875 56 33.015625 56 
Q 37.15625 56 41.109375 55.140625 
Q 45.0625 54.296875 48.78125 52.59375 
z
" id="DejaVuSans-99"/>
      <path d="M 56.203125 29.59375 
L 56.203125 25.203125 
L 14.890625 25.203125 
Q 15.484375 15.921875 20.484375 11.0625 
Q 25.484375 6.203125 34.421875 6.203125 
Q 39.59375 6.203125 44.453125 7.46875 
Q 49.3125 8.734375 54.109375 11.28125 
L 54.109375 2.78125 
Q 49.265625 0.734375 44.1875 -0.34375 
Q 39.109375 -1.421875 33.890625 -1.421875 
Q 20.796875 -1.421875 13.15625 6.1875 
Q 5.515625 13.8125 5.515625 26.8125 
Q 5.515625 40.234375 12.765625 48.109375 
Q 20.015625 56 32.328125 56 
Q 43.359375 56 49.78125 48.890625 
Q 56.203125 41.796875 56.203125 29.59375 
z
M 47.21875 32.234375 
Q 47.125 39.59375 43.09375 43.984375 
Q 39.0625 48.390625 32.421875 48.390625 
Q 24.90625 48.390625 20.390625 44.140625 
Q 15.875 39.890625 15.1875 32.171875 
z
" id="DejaVuSans-101"/>
     </defs>
     <g style="fill:#555555;" transform="translate(315.976562 207.175215)scale(0.12 -0.12)">
      <use xlink:href="#DejaVuSans-100"/>
      <use x="63.476562" xlink:href="#DejaVuSans-97"/>
      <use x="124.755859" xlink:href="#DejaVuSans-121"/>
      <use x="183.935547" xlink:href="#DejaVuSans-115"/>
      <use x="236.035156" xlink:href="#DejaVuSans-32"/>
      <use x="267.822266" xlink:href="#DejaVuSans-115"/>
      <use x="319.921875" xlink:href="#DejaVuSans-105"/>
      <use x="347.705078" xlink:href="#DejaVuSans-110"/>
      <use x="411.083984" xlink:href="#DejaVuSans-99"/>
      <use x="466.064453" xlink:href="#DejaVuSans-101"/>
      <use x="527.587891" xlink:href="#DejaVuSans-32"/>
      <use x="559.375" xlink:href="#DejaVuSans-49"/>
      <use x="622.998047" xlink:href="#DejaVuSans-48"/>
      <use x="686.621094" xlink:href="#DejaVuSans-32"/>
      <use x="718.408203" xlink:href="#DejaVuSans-99"/>
      <use x="773.388672" xlink:href="#DejaVuSans-97"/>
      <use x="834.667969" xlink:href="#DejaVuSans-115"/>
      <use x="886.767578" xlink:href="#DejaVuSans-101"/>
      <use x="948.291016" xlink:href="#DejaVuSans-115"/>
     </g>
    </g>
   </g>
   <g id="matplotlib.axis_2">
    <g id="ytick_1">
     <g id="line2d_19">
      <path clip-path="url(#p8c3aed0e2c)" d="M 86.625 177.378965 
L 665.375 177.378965 
" style="fill:none;stroke:#ffffff;stroke-linecap:square;stroke-width:0.8;"/>
     </g>
     <g id="line2d_20">
      <defs>
       <path d="M 0 0 
L -3.5 0 
" id="m3961ffa831" style="stroke:#555555;stroke-width:0.8;"/>
      </defs>
      <g>
       <use style="fill:#555555;stroke:#555555;stroke-width:0.8;" x="86.625" xlink:href="#m3961ffa831" y="177.378965"/>
      </g>
     </g>
     <g id="line2d_21">
      <defs>
       <path d="M 0 0 
L 3.5 0 
" id="m466d5c5bfb" style="stroke:#555555;stroke-width:0.8;"/>
      </defs>
      <g>
       <use style="fill:#555555;stroke:#555555;stroke-width:0.8;" x="665.375" xlink:href="#m466d5c5bfb" y="177.378965"/>
      </g>
     </g>
     <g id="text_11">
      <!-- 1 -->
      <g style="fill:#555555;" transform="translate(73.2625 181.178184)scale(0.1 -0.1)">
       <use xlink:href="#DejaVuSans-49"/>
      </g>
     </g>
     <g id="text_12">
      <!-- 1 -->
      <g style="fill:#555555;" transform="translate(672.375 181.178184)scale(0.1 -0.1)">
       <use xlink:href="#DejaVuSans-49"/>
      </g>
     </g>
    </g>
    <g id="ytick_2">
     <g id="line2d_22">
      <path clip-path="url(#p8c3aed0e2c)" d="M 86.625 144.783501 
L 665.375 144.783501 
" style="fill:none;stroke:#ffffff;stroke-linecap:square;stroke-width:0.8;"/>
     </g>
     <g id="line2d_23">
      <g>
       <use style="fill:#555555;stroke:#555555;stroke-width:0.8;" x="86.625" xlink:href="#m3961ffa831" y="144.783501"/>
      </g>
     </g>
     <g id="line2d_24">
      <g>
       <use style="fill:#555555;stroke:#555555;stroke-width:0.8;" x="665.375" xlink:href="#m466d5c5bfb" y="144.783501"/>
      </g>
     </g>
     <g id="text_13">
      <!-- 10 -->
      <g style="fill:#555555;" transform="translate(66.9 148.582719)scale(0.1 -0.1)">
       <use xlink:href="#DejaVuSans-49"/>
       <use x="63.623047" xlink:href="#DejaVuSans-48"/>
      </g>
     </g>
     <g id="text_14">
      <!-- 10 -->
      <g style="fill:#555555;" transform="translate(672.375 148.582719)scale(0.1 -0.1)">
       <use xlink:href="#DejaVuSans-49"/>
       <use x="63.623047" xlink:href="#DejaVuSans-48"/>
      </g>
     </g>
    </g>
    <g id="ytick_3">
     <g id="line2d_25">
      <path clip-path="url(#p8c3aed0e2c)" d="M 86.625 112.188036 
L 665.375 112.188036 
" style="fill:none;stroke:#ffffff;stroke-linecap:square;stroke-width:0.8;"/>
     </g>
     <g id="line2d_26">
      <g>
       <use style="fill:#555555;stroke:#555555;stroke-width:0.8;" x="86.625" xlink:href="#m3961ffa831" y="112.188036"/>
      </g>
     </g>
     <g id="line2d_27">
      <g>
       <use style="fill:#555555;stroke:#555555;stroke-width:0.8;" x="665.375" xlink:href="#m466d5c5bfb" y="112.188036"/>
      </g>
     </g>
     <g id="text_15">
      <!-- 100 -->
      <g style="fill:#555555;" transform="translate(60.5375 115.987255)scale(0.1 -0.1)">
       <use xlink:href="#DejaVuSans-49"/>
       <use x="63.623047" xlink:href="#DejaVuSans-48"/>
       <use x="127.246094" xlink:href="#DejaVuSans-48"/>
      </g>
     </g>
     <g id="text_16">
      <!-- 100 -->
      <g style="fill:#555555;" transform="translate(672.375 115.987255)scale(0.1 -0.1)">
       <use xlink:href="#DejaVuSans-49"/>
       <use x="63.623047" xlink:href="#DejaVuSans-48"/>
       <use x="127.246094" xlink:href="#DejaVuSans-48"/>
      </g>
     </g>
    </g>
    <g id="ytick_4">
     <g id="line2d_28">
      <path clip-path="url(#p8c3aed0e2c)" d="M 86.625 79.592572 
L 665.375 79.592572 
" style="fill:none;stroke:#ffffff;stroke-linecap:square;stroke-width:0.8;"/>
     </g>
     <g id="line2d_29">
      <g>
       <use style="fill:#555555;stroke:#555555;stroke-width:0.8;" x="86.625" xlink:href="#m3961ffa831" y="79.592572"/>
      </g>
     </g>
     <g id="line2d_30">
      <g>
       <use style="fill:#555555;stroke:#555555;stroke-width:0.8;" x="665.375" xlink:href="#m466d5c5bfb" y="79.592572"/>
      </g>
     </g>
     <g id="text_17">
      <!-- 1000 -->
      <g style="fill:#555555;" transform="translate(54.175 83.391791)scale(0.1 -0.1)">
       <use xlink:href="#DejaVuSans-49"/>
       <use x="63.623047" xlink:href="#DejaVuSans-48"/>
       <use x="127.246094" xlink:href="#DejaVuSans-48"/>
       <use x="190.869141" xlink:href="#DejaVuSans-48"/>
      </g>
     </g>
     <g id="text_18">
      <!-- 1000 -->
      <g style="fill:#555555;" transform="translate(672.375 83.391791)scale(0.1 -0.1)">
       <use xlink:href="#DejaVuSans-49"/>
       <use x="63.623047" xlink:href="#DejaVuSans-48"/>
       <use x="127.246094" xlink:href="#DejaVuSans-48"/>
       <use x="190.869141" xlink:href="#DejaVuSans-48"/>
      </g>
     </g>
    </g>
    <g id="ytick_5">
     <g id="line2d_31">
      <path clip-path="url(#p8c3aed0e2c)" d="M 86.625 46.997108 
L 665.375 46.997108 
" style="fill:none;stroke:#ffffff;stroke-linecap:square;stroke-width:0.8;"/>
     </g>
     <g id="line2d_32">
      <g>
       <use style="fill:#555555;stroke:#555555;stroke-width:0.8;" x="86.625" xlink:href="#m3961ffa831" y="46.997108"/>
      </g>
     </g>
     <g id="line2d_33">
      <g>
       <use style="fill:#555555;stroke:#555555;stroke-width:0.8;" x="665.375" xlink:href="#m466d5c5bfb" y="46.997108"/>
      </g>
     </g>
     <g id="text_19">
      <!-- 10000 -->
      <g style="fill:#555555;" transform="translate(47.8125 50.796326)scale(0.1 -0.1)">
       <use xlink:href="#DejaVuSans-49"/>
       <use x="63.623047" xlink:href="#DejaVuSans-48"/>
       <use x="127.246094" xlink:href="#DejaVuSans-48"/>
       <use x="190.869141" xlink:href="#DejaVuSans-48"/>
       <use x="254.492188" xlink:href="#DejaVuSans-48"/>
      </g>
     </g>
     <g id="text_20">
      <!-- 10000 -->
      <g style="fill:#555555;" transform="translate(672.375 50.796326)scale(0.1 -0.1)">
       <use xlink:href="#DejaVuSans-49"/>
       <use x="63.623047" xlink:href="#DejaVuSans-48"/>
       <use x="127.246094" xlink:href="#DejaVuSans-48"/>
       <use x="190.869141" xlink:href="#DejaVuSans-48"/>
       <use x="254.492188" xlink:href="#DejaVuSans-48"/>
      </g>
     </g>
    </g>
    <g id="ytick_6">
     <g id="line2d_34">
      <path clip-path="url(#p8c3aed0e2c)" d="M 86.625 14.401643 
L 665.375 14.401643 
" style="fill:none;stroke:#ffffff;stroke-linecap:square;stroke-width:0.8;"/>
     </g>
     <g id="line2d_35">
      <g>
       <use style="fill:#555555;stroke:#555555;stroke-width:0.8;" x="86.625" xlink:href="#m3961ffa831" y="14.401643"/>
      </g>
     </g>
     <g id="line2d_36">
      <g>
       <use style="fill:#555555;stroke:#555555;stroke-width:0.8;" x="665.375" xlink:href="#m466d5c5bfb" y="14.401643"/>
      </g>
     </g>
     <g id="text_21">
      <!-- 100000 -->
      <g style="fill:#555555;" transform="translate(41.45 18.200862)scale(0.1 -0.1)">
       <use xlink:href="#DejaVuSans-49"/>
       <use x="63.623047" xlink:href="#DejaVuSans-48"/>
       <use x="127.246094" xlink:href="#DejaVuSans-48"/>
       <use x="190.869141" xlink:href="#DejaVuSans-48"/>
       <use x="254.492188" xlink:href="#DejaVuSans-48"/>
       <use x="318.115234" xlink:href="#DejaVuSans-48"/>
      </g>
     </g>
     <g id="text_22">
      <!-- 100000 -->
      <g style="fill:#555555;" transform="translate(672.375 18.200862)scale(0.1 -0.1)">
       <use xlink:href="#DejaVuSans-49"/>
       <use x="63.623047" xlink:href="#DejaVuSans-48"/>
       <use x="127.246094" xlink:href="#DejaVuSans-48"/>
       <use x="190.869141" xlink:href="#DejaVuSans-48"/>
       <use x="254.492188" xlink:href="#DejaVuSans-48"/>
       <use x="318.115234" xlink:href="#DejaVuSans-48"/>
      </g>
     </g>
    </g>
    <g id="ytick_7">
     <g id="line2d_37">
      <defs>
       <path d="M 0 0 
L -2 0 
" id="m56dce893b7" style="stroke:#555555;stroke-width:0.6;"/>
      </defs>
      <g>
       <use style="fill:#555555;stroke:#555555;stroke-width:0.6;" x="86.625" xlink:href="#m56dce893b7" y="167.566753"/>
      </g>
     </g>
     <g id="line2d_38">
      <defs>
       <path d="M 0 0 
L 2 0 
" id="m3367c57107" style="stroke:#555555;stroke-width:0.6;"/>
      </defs>
      <g>
       <use style="fill:#555555;stroke:#555555;stroke-width:0.6;" x="665.375" xlink:href="#m3367c57107" y="167.566753"/>
      </g>
     </g>
    </g>
    <g id="ytick_8">
     <g id="line2d_39">
      <g>
       <use style="fill:#555555;stroke:#555555;stroke-width:0.6;" x="86.625" xlink:href="#m56dce893b7" y="161.826976"/>
      </g>
     </g>
     <g id="line2d_40">
      <g>
       <use style="fill:#555555;stroke:#555555;stroke-width:0.6;" x="665.375" xlink:href="#m3367c57107" y="161.826976"/>
      </g>
     </g>
    </g>
    <g id="ytick_9">
     <g id="line2d_41">
      <g>
       <use style="fill:#555555;stroke:#555555;stroke-width:0.6;" x="86.625" xlink:href="#m56dce893b7" y="157.75454"/>
      </g>
     </g>
     <g id="line2d_42">
      <g>
       <use style="fill:#555555;stroke:#555555;stroke-width:0.6;" x="665.375" xlink:href="#m3367c57107" y="157.75454"/>
      </g>
     </g>
    </g>
    <g id="ytick_10">
     <g id="line2d_43">
      <g>
       <use style="fill:#555555;stroke:#555555;stroke-width:0.6;" x="86.625" xlink:href="#m56dce893b7" y="154.595713"/>
      </g>
     </g>
     <g id="line2d_44">
      <g>
       <use style="fill:#555555;stroke:#555555;stroke-width:0.6;" x="665.375" xlink:href="#m3367c57107" y="154.595713"/>
      </g>
     </g>
    </g>
    <g id="ytick_11">
     <g id="line2d_45">
      <g>
       <use style="fill:#555555;stroke:#555555;stroke-width:0.6;" x="86.625" xlink:href="#m56dce893b7" y="152.014764"/>
      </g>
     </g>
     <g id="line2d_46">
      <g>
       <use style="fill:#555555;stroke:#555555;stroke-width:0.6;" x="665.375" xlink:href="#m3367c57107" y="152.014764"/>
      </g>
     </g>
    </g>
    <g id="ytick_12">
     <g id="line2d_47">
      <g>
       <use style="fill:#555555;stroke:#555555;stroke-width:0.6;" x="86.625" xlink:href="#m56dce893b7" y="149.832602"/>
      </g>
     </g>
     <g id="line2d_48">
      <g>
       <use style="fill:#555555;stroke:#555555;stroke-width:0.6;" x="665.375" xlink:href="#m3367c57107" y="149.832602"/>
      </g>
     </g>
    </g>
    <g id="ytick_13">
     <g id="line2d_49">
      <g>
       <use style="fill:#555555;stroke:#555555;stroke-width:0.6;" x="86.625" xlink:href="#m56dce893b7" y="147.942328"/>
      </g>
     </g>
     <g id="line2d_50">
      <g>
       <use style="fill:#555555;stroke:#555555;stroke-width:0.6;" x="665.375" xlink:href="#m3367c57107" y="147.942328"/>
      </g>
     </g>
    </g>
    <g id="ytick_14">
     <g id="line2d_51">
      <g>
       <use style="fill:#555555;stroke:#555555;stroke-width:0.6;" x="86.625" xlink:href="#m56dce893b7" y="146.274987"/>
      </g>
     </g>
     <g id="line2d_52">
      <g>
       <use style="fill:#555555;stroke:#555555;stroke-width:0.6;" x="665.375" xlink:href="#m3367c57107" y="146.274987"/>
      </g>
     </g>
    </g>
    <g id="ytick_15">
     <g id="line2d_53">
      <g>
       <use style="fill:#555555;stroke:#555555;stroke-width:0.6;" x="86.625" xlink:href="#m56dce893b7" y="134.971288"/>
      </g>
     </g>
     <g id="line2d_54">
      <g>
       <use style="fill:#555555;stroke:#555555;stroke-width:0.6;" x="665.375" xlink:href="#m3367c57107" y="134.971288"/>
      </g>
     </g>
    </g>
    <g id="ytick_16">
     <g id="line2d_55">
      <g>
       <use style="fill:#555555;stroke:#555555;stroke-width:0.6;" x="86.625" xlink:href="#m56dce893b7" y="129.231512"/>
      </g>
     </g>
     <g id="line2d_56">
      <g>
       <use style="fill:#555555;stroke:#555555;stroke-width:0.6;" x="665.375" xlink:href="#m3367c57107" y="129.231512"/>
      </g>
     </g>
    </g>
    <g id="ytick_17">
     <g id="line2d_57">
      <g>
       <use style="fill:#555555;stroke:#555555;stroke-width:0.6;" x="86.625" xlink:href="#m56dce893b7" y="125.159076"/>
      </g>
     </g>
     <g id="line2d_58">
      <g>
       <use style="fill:#555555;stroke:#555555;stroke-width:0.6;" x="665.375" xlink:href="#m3367c57107" y="125.159076"/>
      </g>
     </g>
    </g>
    <g id="ytick_18">
     <g id="line2d_59">
      <g>
       <use style="fill:#555555;stroke:#555555;stroke-width:0.6;" x="86.625" xlink:href="#m56dce893b7" y="122.000249"/>
      </g>
     </g>
     <g id="line2d_60">
      <g>
       <use style="fill:#555555;stroke:#555555;stroke-width:0.6;" x="665.375" xlink:href="#m3367c57107" y="122.000249"/>
      </g>
     </g>
    </g>
    <g id="ytick_19">
     <g id="line2d_61">
      <g>
       <use style="fill:#555555;stroke:#555555;stroke-width:0.6;" x="86.625" xlink:href="#m56dce893b7" y="119.419299"/>
      </g>
     </g>
     <g id="line2d_62">
      <g>
       <use style="fill:#555555;stroke:#555555;stroke-width:0.6;" x="665.375" xlink:href="#m3367c57107" y="119.419299"/>
      </g>
     </g>
    </g>
    <g id="ytick_20">
     <g id="line2d_63">
      <g>
       <use style="fill:#555555;stroke:#555555;stroke-width:0.6;" x="86.625" xlink:href="#m56dce893b7" y="117.237138"/>
      </g>
     </g>
     <g id="line2d_64">
      <g>
       <use style="fill:#555555;stroke:#555555;stroke-width:0.6;" x="665.375" xlink:href="#m3367c57107" y="117.237138"/>
      </g>
     </g>
    </g>
    <g id="ytick_21">
     <g id="line2d_65">
      <g>
       <use style="fill:#555555;stroke:#555555;stroke-width:0.6;" x="86.625" xlink:href="#m56dce893b7" y="115.346863"/>
      </g>
     </g>
     <g id="line2d_66">
      <g>
       <use style="fill:#555555;stroke:#555555;stroke-width:0.6;" x="665.375" xlink:href="#m3367c57107" y="115.346863"/>
      </g>
     </g>
    </g>
    <g id="ytick_22">
     <g id="line2d_67">
      <g>
       <use style="fill:#555555;stroke:#555555;stroke-width:0.6;" x="86.625" xlink:href="#m56dce893b7" y="113.679523"/>
      </g>
     </g>
     <g id="line2d_68">
      <g>
       <use style="fill:#555555;stroke:#555555;stroke-width:0.6;" x="665.375" xlink:href="#m3367c57107" y="113.679523"/>
      </g>
     </g>
    </g>
    <g id="ytick_23">
     <g id="line2d_69">
      <g>
       <use style="fill:#555555;stroke:#555555;stroke-width:0.6;" x="86.625" xlink:href="#m56dce893b7" y="102.375824"/>
      </g>
     </g>
     <g id="line2d_70">
      <g>
       <use style="fill:#555555;stroke:#555555;stroke-width:0.6;" x="665.375" xlink:href="#m3367c57107" y="102.375824"/>
      </g>
     </g>
    </g>
    <g id="ytick_24">
     <g id="line2d_71">
      <g>
       <use style="fill:#555555;stroke:#555555;stroke-width:0.6;" x="86.625" xlink:href="#m56dce893b7" y="96.636048"/>
      </g>
     </g>
     <g id="line2d_72">
      <g>
       <use style="fill:#555555;stroke:#555555;stroke-width:0.6;" x="665.375" xlink:href="#m3367c57107" y="96.636048"/>
      </g>
     </g>
    </g>
    <g id="ytick_25">
     <g id="line2d_73">
      <g>
       <use style="fill:#555555;stroke:#555555;stroke-width:0.6;" x="86.625" xlink:href="#m56dce893b7" y="92.563611"/>
      </g>
     </g>
     <g id="line2d_74">
      <g>
       <use style="fill:#555555;stroke:#555555;stroke-width:0.6;" x="665.375" xlink:href="#m3367c57107" y="92.563611"/>
      </g>
     </g>
    </g>
    <g id="ytick_26">
     <g id="line2d_75">
      <g>
       <use style="fill:#555555;stroke:#555555;stroke-width:0.6;" x="86.625" xlink:href="#m56dce893b7" y="89.404784"/>
      </g>
     </g>
     <g id="line2d_76">
      <g>
       <use style="fill:#555555;stroke:#555555;stroke-width:0.6;" x="665.375" xlink:href="#m3367c57107" y="89.404784"/>
      </g>
     </g>
    </g>
    <g id="ytick_27">
     <g id="line2d_77">
      <g>
       <use style="fill:#555555;stroke:#555555;stroke-width:0.6;" x="86.625" xlink:href="#m56dce893b7" y="86.823835"/>
      </g>
     </g>
     <g id="line2d_78">
      <g>
       <use style="fill:#555555;stroke:#555555;stroke-width:0.6;" x="665.375" xlink:href="#m3367c57107" y="86.823835"/>
      </g>
     </g>
    </g>
    <g id="ytick_28">
     <g id="line2d_79">
      <g>
       <use style="fill:#555555;stroke:#555555;stroke-width:0.6;" x="86.625" xlink:href="#m56dce893b7" y="84.641673"/>
      </g>
     </g>
     <g id="line2d_80">
      <g>
       <use style="fill:#555555;stroke:#555555;stroke-width:0.6;" x="665.375" xlink:href="#m3367c57107" y="84.641673"/>
      </g>
     </g>
    </g>
    <g id="ytick_29">
     <g id="line2d_81">
      <g>
       <use style="fill:#555555;stroke:#555555;stroke-width:0.6;" x="86.625" xlink:href="#m56dce893b7" y="82.751399"/>
      </g>
     </g>
     <g id="line2d_82">
      <g>
       <use style="fill:#555555;stroke:#555555;stroke-width:0.6;" x="665.375" xlink:href="#m3367c57107" y="82.751399"/>
      </g>
     </g>
    </g>
    <g id="ytick_30">
     <g id="line2d_83">
      <g>
       <use style="fill:#555555;stroke:#555555;stroke-width:0.6;" x="86.625" xlink:href="#m56dce893b7" y="81.084059"/>
      </g>
     </g>
     <g id="line2d_84">
      <g>
       <use style="fill:#555555;stroke:#555555;stroke-width:0.6;" x="665.375" xlink:href="#m3367c57107" y="81.084059"/>
      </g>
     </g>
    </g>
    <g id="ytick_31">
     <g id="line2d_85">
      <g>
       <use style="fill:#555555;stroke:#555555;stroke-width:0.6;" x="86.625" xlink:href="#m56dce893b7" y="69.78036"/>
      </g>
     </g>
     <g id="line2d_86">
      <g>
       <use style="fill:#555555;stroke:#555555;stroke-width:0.6;" x="665.375" xlink:href="#m3367c57107" y="69.78036"/>
      </g>
     </g>
    </g>
    <g id="ytick_32">
     <g id="line2d_87">
      <g>
       <use style="fill:#555555;stroke:#555555;stroke-width:0.6;" x="86.625" xlink:href="#m56dce893b7" y="64.040583"/>
      </g>
     </g>
     <g id="line2d_88">
      <g>
       <use style="fill:#555555;stroke:#555555;stroke-width:0.6;" x="665.375" xlink:href="#m3367c57107" y="64.040583"/>
      </g>
     </g>
    </g>
    <g id="ytick_33">
     <g id="line2d_89">
      <g>
       <use style="fill:#555555;stroke:#555555;stroke-width:0.6;" x="86.625" xlink:href="#m56dce893b7" y="59.968147"/>
      </g>
     </g>
     <g id="line2d_90">
      <g>
       <use style="fill:#555555;stroke:#555555;stroke-width:0.6;" x="665.375" xlink:href="#m3367c57107" y="59.968147"/>
      </g>
     </g>
    </g>
    <g id="ytick_34">
     <g id="line2d_91">
      <g>
       <use style="fill:#555555;stroke:#555555;stroke-width:0.6;" x="86.625" xlink:href="#m56dce893b7" y="56.80932"/>
      </g>
     </g>
     <g id="line2d_92">
      <g>
       <use style="fill:#555555;stroke:#555555;stroke-width:0.6;" x="665.375" xlink:href="#m3367c57107" y="56.80932"/>
      </g>
     </g>
    </g>
    <g id="ytick_35">
     <g id="line2d_93">
      <g>
       <use style="fill:#555555;stroke:#555555;stroke-width:0.6;" x="86.625" xlink:href="#m56dce893b7" y="54.228371"/>
      </g>
     </g>
     <g id="line2d_94">
      <g>
       <use style="fill:#555555;stroke:#555555;stroke-width:0.6;" x="665.375" xlink:href="#m3367c57107" y="54.228371"/>
      </g>
     </g>
    </g>
    <g id="ytick_36">
     <g id="line2d_95">
      <g>
       <use style="fill:#555555;stroke:#555555;stroke-width:0.6;" x="86.625" xlink:href="#m56dce893b7" y="52.046209"/>
      </g>
     </g>
     <g id="line2d_96">
      <g>
       <use style="fill:#555555;stroke:#555555;stroke-width:0.6;" x="665.375" xlink:href="#m3367c57107" y="52.046209"/>
      </g>
     </g>
    </g>
    <g id="ytick_37">
     <g id="line2d_97">
      <g>
       <use style="fill:#555555;stroke:#555555;stroke-width:0.6;" x="86.625" xlink:href="#m56dce893b7" y="50.155935"/>
      </g>
     </g>
     <g id="line2d_98">
      <g>
       <use style="fill:#555555;stroke:#555555;stroke-width:0.6;" x="665.375" xlink:href="#m3367c57107" y="50.155935"/>
      </g>
     </g>
    </g>
    <g id="ytick_38">
     <g id="line2d_99">
      <g>
       <use style="fill:#555555;stroke:#555555;stroke-width:0.6;" x="86.625" xlink:href="#m56dce893b7" y="48.488594"/>
      </g>
     </g>
     <g id="line2d_100">
      <g>
       <use style="fill:#555555;stroke:#555555;stroke-width:0.6;" x="665.375" xlink:href="#m3367c57107" y="48.488594"/>
      </g>
     </g>
    </g>
    <g id="ytick_39">
     <g id="line2d_101">
      <g>
       <use style="fill:#555555;stroke:#555555;stroke-width:0.6;" x="86.625" xlink:href="#m56dce893b7" y="37.184895"/>
      </g>
     </g>
     <g id="line2d_102">
      <g>
       <use style="fill:#555555;stroke:#555555;stroke-width:0.6;" x="665.375" xlink:href="#m3367c57107" y="37.184895"/>
      </g>
     </g>
    </g>
    <g id="ytick_40">
     <g id="line2d_103">
      <g>
       <use style="fill:#555555;stroke:#555555;stroke-width:0.6;" x="86.625" xlink:href="#m56dce893b7" y="31.445119"/>
      </g>
     </g>
     <g id="line2d_104">
      <g>
       <use style="fill:#555555;stroke:#555555;stroke-width:0.6;" x="665.375" xlink:href="#m3367c57107" y="31.445119"/>
      </g>
     </g>
    </g>
    <g id="ytick_41">
     <g id="line2d_105">
      <g>
       <use style="fill:#555555;stroke:#555555;stroke-width:0.6;" x="86.625" xlink:href="#m56dce893b7" y="27.372683"/>
      </g>
     </g>
     <g id="line2d_106">
      <g>
       <use style="fill:#555555;stroke:#555555;stroke-width:0.6;" x="665.375" xlink:href="#m3367c57107" y="27.372683"/>
      </g>
     </g>
    </g>
    <g id="ytick_42">
     <g id="line2d_107">
      <g>
       <use style="fill:#555555;stroke:#555555;stroke-width:0.6;" x="86.625" xlink:href="#m56dce893b7" y="24.213856"/>
      </g>
     </g>
     <g id="line2d_108">
      <g>
       <use style="fill:#555555;stroke:#555555;stroke-width:0.6;" x="665.375" xlink:href="#m3367c57107" y="24.213856"/>
      </g>
     </g>
    </g>
    <g id="ytick_43">
     <g id="line2d_109">
      <g>
       <use style="fill:#555555;stroke:#555555;stroke-width:0.6;" x="86.625" xlink:href="#m56dce893b7" y="21.632906"/>
      </g>
     </g>
     <g id="line2d_110">
      <g>
       <use style="fill:#555555;stroke:#555555;stroke-width:0.6;" x="665.375" xlink:href="#m3367c57107" y="21.632906"/>
      </g>
     </g>
    </g>
    <g id="ytick_44">
     <g id="line2d_111">
      <g>
       <use style="fill:#555555;stroke:#555555;stroke-width:0.6;" x="86.625" xlink:href="#m56dce893b7" y="19.450745"/>
      </g>
     </g>
     <g id="line2d_112">
      <g>
       <use style="fill:#555555;stroke:#555555;stroke-width:0.6;" x="665.375" xlink:href="#m3367c57107" y="19.450745"/>
      </g>
     </g>
    </g>
    <g id="ytick_45">
     <g id="line2d_113">
      <g>
       <use style="fill:#555555;stroke:#555555;stroke-width:0.6;" x="86.625" xlink:href="#m56dce893b7" y="17.56047"/>
      </g>
     </g>
     <g id="line2d_114">
      <g>
       <use style="fill:#555555;stroke:#555555;stroke-width:0.6;" x="665.375" xlink:href="#m3367c57107" y="17.56047"/>
      </g>
     </g>
    </g>
    <g id="ytick_46">
     <g id="line2d_115">
      <g>
       <use style="fill:#555555;stroke:#555555;stroke-width:0.6;" x="86.625" xlink:href="#m56dce893b7" y="15.89313"/>
      </g>
     </g>
     <g id="line2d_116">
      <g>
       <use style="fill:#555555;stroke:#555555;stroke-width:0.6;" x="665.375" xlink:href="#m3367c57107" y="15.89313"/>
      </g>
     </g>
    </g>
    <g id="text_23">
     <!-- daily new cases -->
     <defs>
      <path d="M 9.421875 75.984375 
L 18.40625 75.984375 
L 18.40625 0 
L 9.421875 0 
z
" id="DejaVuSans-108"/>
      <path d="M 4.203125 54.6875 
L 13.1875 54.6875 
L 24.421875 12.015625 
L 35.59375 54.6875 
L 46.1875 54.6875 
L 57.421875 12.015625 
L 68.609375 54.6875 
L 77.59375 54.6875 
L 63.28125 0 
L 52.6875 0 
L 40.921875 44.828125 
L 29.109375 0 
L 18.5 0 
z
" id="DejaVuSans-119"/>
     </defs>
     <g style="fill:#555555;" transform="translate(21.517 141.573448)rotate(-90)scale(0.12 -0.12)">
      <use xlink:href="#DejaVuSans-100"/>
      <use x="63.476562" xlink:href="#DejaVuSans-97"/>
      <use x="124.755859" xlink:href="#DejaVuSans-105"/>
      <use x="152.539062" xlink:href="#DejaVuSans-108"/>
      <use x="180.322266" xlink:href="#DejaVuSans-121"/>
      <use x="239.501953" xlink:href="#DejaVuSans-32"/>
      <use x="271.289062" xlink:href="#DejaVuSans-110"/>
      <use x="334.667969" xlink:href="#DejaVuSans-101"/>
      <use x="396.191406" xlink:href="#DejaVuSans-119"/>
      <use x="477.978516" xlink:href="#DejaVuSans-32"/>
      <use x="509.765625" xlink:href="#DejaVuSans-99"/>
      <use x="564.746094" xlink:href="#DejaVuSans-97"/>
      <use x="626.025391" xlink:href="#DejaVuSans-115"/>
      <use x="678.125" xlink:href="#DejaVuSans-101"/>
      <use x="739.648438" xlink:href="#DejaVuSans-115"/>
     </g>
     <!-- (rolling 7-day mean) -->
     <defs>
      <path d="M 31 75.875 
Q 24.46875 64.65625 21.28125 53.65625 
Q 18.109375 42.671875 18.109375 31.390625 
Q 18.109375 20.125 21.3125 9.0625 
Q 24.515625 -2 31 -13.1875 
L 23.1875 -13.1875 
Q 15.875 -1.703125 12.234375 9.375 
Q 8.59375 20.453125 8.59375 31.390625 
Q 8.59375 42.28125 12.203125 53.3125 
Q 15.828125 64.359375 23.1875 75.875 
z
" id="DejaVuSans-40"/>
      <path d="M 41.109375 46.296875 
Q 39.59375 47.171875 37.8125 47.578125 
Q 36.03125 48 33.890625 48 
Q 26.265625 48 22.1875 43.046875 
Q 18.109375 38.09375 18.109375 28.8125 
L 18.109375 0 
L 9.078125 0 
L 9.078125 54.6875 
L 18.109375 54.6875 
L 18.109375 46.1875 
Q 20.953125 51.171875 25.484375 53.578125 
Q 30.03125 56 36.53125 56 
Q 37.453125 56 38.578125 55.875 
Q 39.703125 55.765625 41.0625 55.515625 
z
" id="DejaVuSans-114"/>
      <path d="M 30.609375 48.390625 
Q 23.390625 48.390625 19.1875 42.75 
Q 14.984375 37.109375 14.984375 27.296875 
Q 14.984375 17.484375 19.15625 11.84375 
Q 23.34375 6.203125 30.609375 6.203125 
Q 37.796875 6.203125 41.984375 11.859375 
Q 46.1875 17.53125 46.1875 27.296875 
Q 46.1875 37.015625 41.984375 42.703125 
Q 37.796875 48.390625 30.609375 48.390625 
z
M 30.609375 56 
Q 42.328125 56 49.015625 48.375 
Q 55.71875 40.765625 55.71875 27.296875 
Q 55.71875 13.875 49.015625 6.21875 
Q 42.328125 -1.421875 30.609375 -1.421875 
Q 18.84375 -1.421875 12.171875 6.21875 
Q 5.515625 13.875 5.515625 27.296875 
Q 5.515625 40.765625 12.171875 48.375 
Q 18.84375 56 30.609375 56 
z
" id="DejaVuSans-111"/>
      <path d="M 45.40625 27.984375 
Q 45.40625 37.75 41.375 43.109375 
Q 37.359375 48.484375 30.078125 48.484375 
Q 22.859375 48.484375 18.828125 43.109375 
Q 14.796875 37.75 14.796875 27.984375 
Q 14.796875 18.265625 18.828125 12.890625 
Q 22.859375 7.515625 30.078125 7.515625 
Q 37.359375 7.515625 41.375 12.890625 
Q 45.40625 18.265625 45.40625 27.984375 
z
M 54.390625 6.78125 
Q 54.390625 -7.171875 48.1875 -13.984375 
Q 42 -20.796875 29.203125 -20.796875 
Q 24.46875 -20.796875 20.265625 -20.09375 
Q 16.0625 -19.390625 12.109375 -17.921875 
L 12.109375 -9.1875 
Q 16.0625 -11.328125 19.921875 -12.34375 
Q 23.78125 -13.375 27.78125 -13.375 
Q 36.625 -13.375 41.015625 -8.765625 
Q 45.40625 -4.15625 45.40625 5.171875 
L 45.40625 9.625 
Q 42.625 4.78125 38.28125 2.390625 
Q 33.9375 0 27.875 0 
Q 17.828125 0 11.671875 7.65625 
Q 5.515625 15.328125 5.515625 27.984375 
Q 5.515625 40.671875 11.671875 48.328125 
Q 17.828125 56 27.875 56 
Q 33.9375 56 38.28125 53.609375 
Q 42.625 51.21875 45.40625 46.390625 
L 45.40625 54.6875 
L 54.390625 54.6875 
z
" id="DejaVuSans-103"/>
      <path d="M 4.890625 31.390625 
L 31.203125 31.390625 
L 31.203125 23.390625 
L 4.890625 23.390625 
z
" id="DejaVuSans-45"/>
      <path d="M 52 44.1875 
Q 55.375 50.25 60.0625 53.125 
Q 64.75 56 71.09375 56 
Q 79.640625 56 84.28125 50.015625 
Q 88.921875 44.046875 88.921875 33.015625 
L 88.921875 0 
L 79.890625 0 
L 79.890625 32.71875 
Q 79.890625 40.578125 77.09375 44.375 
Q 74.3125 48.1875 68.609375 48.1875 
Q 61.625 48.1875 57.5625 43.546875 
Q 53.515625 38.921875 53.515625 30.90625 
L 53.515625 0 
L 44.484375 0 
L 44.484375 32.71875 
Q 44.484375 40.625 41.703125 44.40625 
Q 38.921875 48.1875 33.109375 48.1875 
Q 26.21875 48.1875 22.15625 43.53125 
Q 18.109375 38.875 18.109375 30.90625 
L 18.109375 0 
L 9.078125 0 
L 9.078125 54.6875 
L 18.109375 54.6875 
L 18.109375 46.1875 
Q 21.1875 51.21875 25.484375 53.609375 
Q 29.78125 56 35.6875 56 
Q 41.65625 56 45.828125 52.96875 
Q 50 49.953125 52 44.1875 
z
" id="DejaVuSans-109"/>
      <path d="M 8.015625 75.875 
L 15.828125 75.875 
Q 23.140625 64.359375 26.78125 53.3125 
Q 30.421875 42.28125 30.421875 31.390625 
Q 30.421875 20.453125 26.78125 9.375 
Q 23.140625 -1.703125 15.828125 -13.1875 
L 8.015625 -13.1875 
Q 14.5 -2 17.703125 9.0625 
Q 20.90625 20.125 20.90625 31.390625 
Q 20.90625 42.671875 17.703125 53.65625 
Q 14.5 64.65625 8.015625 75.875 
z
" id="DejaVuSans-41"/>
     </defs>
     <g style="fill:#555555;" transform="translate(34.954375 155.214073)rotate(-90)scale(0.12 -0.12)">
      <use xlink:href="#DejaVuSans-40"/>
      <use x="39.013672" xlink:href="#DejaVuSans-114"/>
      <use x="77.876953" xlink:href="#DejaVuSans-111"/>
      <use x="139.058594" xlink:href="#DejaVuSans-108"/>
      <use x="166.841797" xlink:href="#DejaVuSans-108"/>
      <use x="194.625" xlink:href="#DejaVuSans-105"/>
      <use x="222.408203" xlink:href="#DejaVuSans-110"/>
      <use x="285.787109" xlink:href="#DejaVuSans-103"/>
      <use x="349.263672" xlink:href="#DejaVuSans-32"/>
      <use x="381.050781" xlink:href="#DejaVuSans-55"/>
      <use x="444.673828" xlink:href="#DejaVuSans-45"/>
      <use x="480.757812" xlink:href="#DejaVuSans-100"/>
      <use x="544.234375" xlink:href="#DejaVuSans-97"/>
      <use x="605.513672" xlink:href="#DejaVuSans-121"/>
      <use x="664.693359" xlink:href="#DejaVuSans-32"/>
      <use x="696.480469" xlink:href="#DejaVuSans-109"/>
      <use x="793.892578" xlink:href="#DejaVuSans-101"/>
      <use x="855.416016" xlink:href="#DejaVuSans-97"/>
      <use x="916.695312" xlink:href="#DejaVuSans-110"/>
      <use x="980.074219" xlink:href="#DejaVuSans-41"/>
     </g>
    </g>
   </g>
   <g id="line2d_117">
    <path clip-path="url(#p8c3aed0e2c)" d="M 29.565141 189.373339 
L 32.282277 189.373339 
L 34.999413 173.82135 
L 37.716549 172.329864 
L 40.433685 169.748914 
L 43.150822 170.98065 
L 45.867958 169.748914 
L 48.585094 166.590087 
L 51.30223 163.243761 
L 54.019366 168.615827 
L 56.736502 169.748914 
L 59.453638 172.329864 
L 62.170775 169.748914 
L 64.887911 169.748914 
L 67.605047 173.82135 
L 70.322183 182.142076 
L 73.039319 185.300903 
L 78.473592 185.300903 
L 81.190728 189.373339 
L 86.625 189.373339 
L 89.342136 143.619336 
L 94.776408 119.934121 
L 100.210681 110.244776 
L 102.927817 107.924775 
L 105.644953 104.208436 
L 108.362089 99.947365 
L 113.796362 92.989582 
L 116.513498 90.968358 
L 119.230634 89.396698 
L 121.94777 86.793533 
L 124.664906 86.294576 
L 130.099178 86.636335 
L 135.533451 89.092771 
L 138.250587 90.927764 
L 140.967723 95.183037 
L 143.684859 96.40869 
L 146.401995 98.968428 
L 149.119131 102.518097 
L 151.836268 106.515831 
L 154.553404 109.472905 
L 157.27054 111.061173 
L 159.987676 110.174435 
L 162.704812 113.063946 
L 165.421948 112.26916 
L 168.139085 112.744864 
L 170.856221 111.92755 
L 173.573357 110.315468 
L 176.290493 111.691283 
L 179.007629 111.848355 
L 181.724765 111.710822 
L 184.441901 112.681901 
L 189.876174 112.619218 
L 192.59331 113.860433 
L 195.310446 112.188036 
L 198.027582 111.230258 
L 200.744718 111.211371 
L 203.461854 111.497361 
L 206.178991 111.59399 
L 208.896127 112.640082 
L 211.613263 113.150264 
L 214.330399 113.837693 
L 217.047535 115.731213 
L 219.764671 117.03634 
L 222.481808 118.537324 
L 225.198944 120.541156 
L 227.91608 123.092948 
L 230.633216 125.414146 
L 236.067488 127.760263 
L 238.784624 129.435199 
L 241.501761 130.648296 
L 244.218897 131.025813 
L 246.936033 131.975176 
L 249.653169 134.089313 
L 252.370305 135.277929 
L 257.804577 139.315964 
L 260.521714 140.460509 
L 263.23885 142.372087 
L 265.955986 143.806836 
L 268.673122 143.434287 
L 271.390258 143.251626 
L 274.107394 143.251626 
L 276.824531 144.582703 
L 279.541667 145.616449 
L 282.258803 146.501489 
L 284.975939 145.832575 
L 287.693075 146.274987 
L 290.410211 148.991402 
L 293.127347 151.038099 
L 295.844484 151.038099 
L 298.56162 150.124489 
L 301.278756 146.965662 
L 306.713028 138.644937 
L 309.430164 135.804236 
L 312.1473 133.439413 
L 314.864437 131.335247 
L 317.581573 130.208177 
L 320.298709 130.136136 
L 325.732981 133.439413 
L 328.450117 134.77049 
L 331.167254 134.18464 
L 333.88439 135.911887 
L 336.601526 136.689276 
L 339.318662 136.239841 
L 342.035798 134.971288 
L 344.752934 134.870533 
L 347.47007 134.280613 
L 350.187207 133.530449 
L 352.904343 128.444863 
L 355.621479 126.20815 
L 358.338615 125.362763 
L 361.055751 125.260553 
L 366.490023 123.446867 
L 369.20716 123.049324 
L 371.924296 124.90852 
L 374.641432 125.885185 
L 377.358568 125.260553 
L 380.075704 123.809862 
L 382.79284 123.672646 
L 388.227113 123.627201 
L 390.944249 123.357554 
L 393.661385 122.62032 
L 396.378521 122.747662 
L 399.095657 123.763975 
L 404.52993 124.041553 
L 407.247066 124.372427 
L 409.964202 123.718237 
L 412.681338 124.041553 
L 415.398474 123.180601 
L 418.11561 122.578126 
L 420.832746 123.40214 
L 423.549883 122.876159 
L 426.267019 122.536058 
L 428.984155 123.902084 
L 431.701291 124.372427 
L 434.418427 125.159076 
L 437.135563 124.468401 
L 439.8527 123.313108 
L 445.286972 123.491736 
L 448.004108 122.369023 
L 450.721244 121.406202 
L 453.43838 120.948285 
L 456.155516 120.985885 
L 458.872653 120.836084 
L 461.589789 120.79888 
L 464.306925 120.323924 
L 467.024061 120.504718 
L 469.741197 121.175392 
L 472.458333 122.286239 
L 475.175469 123.005833 
L 477.892606 122.327571 
L 480.609742 122.790365 
L 483.326878 123.855898 
L 488.76115 122.66264 
L 491.478286 122.494114 
L 494.195423 122.919252 
L 496.912559 124.565029 
L 499.629695 123.994911 
L 502.346831 122.919252 
L 505.063967 123.005833 
L 507.781103 123.855898 
L 510.498239 120.79888 
L 513.215376 119.934121 
L 515.932512 119.969117 
L 521.366784 121.137287 
L 524.08392 122.790365 
L 526.801056 123.005833 
L 529.518192 127.107248 
L 532.235329 128.832724 
L 534.952465 128.964409 
L 537.669601 128.572973 
L 540.386737 129.572638 
L 543.103873 127.943713 
L 545.821009 128.964409 
L 548.538146 128.19207 
L 553.972418 127.519303 
L 556.689554 127.519303 
L 559.40669 126.317464 
L 562.123826 125.621564 
L 564.840962 121.839383 
L 567.558099 117.617778 
L 570.275235 111.789249 
L 578.426643 102.953701 
L 581.143779 100.699499 
L 583.860915 98.841822 
L 586.578052 97.591062 
L 589.295188 96.764709 
L 592.012324 96.302949 
L 597.446596 95.932538 
L 600.163732 94.983695 
L 602.880869 94.704545 
L 605.598005 94.757575 
L 608.315141 95.348248 
L 611.032277 95.45947 
L 616.466549 96.080838 
L 619.183685 97.772505 
L 621.900822 99.096177 
L 630.05223 99.096177 
L 630.05223 99.096177 
" style="fill:none;stroke:#348abd;stroke-linecap:square;stroke-width:4;"/>
   </g>
   <g id="line2d_118">
    <defs>
     <path d="M 0 3 
C 0.795609 3 1.55874 2.683901 2.12132 2.12132 
C 2.683901 1.55874 3 0.795609 3 0 
C 3 -0.795609 2.683901 -1.55874 2.12132 -2.12132 
C 1.55874 -2.683901 0.795609 -3 0 -3 
C -0.795609 -3 -1.55874 -2.683901 -2.12132 -2.12132 
C -2.683901 -1.55874 -3 -0.795609 -3 0 
C -3 0.795609 -2.683901 1.55874 -2.12132 2.12132 
C -1.55874 2.683901 -0.795609 3 0 3 
z
" id="m0a6eadd3a2" style="stroke:#348abd;"/>
    </defs>
    <g clip-path="url(#p8c3aed0e2c)">
     <use style="fill:#348abd;stroke:#348abd;" x="630.05223" xlink:href="#m0a6eadd3a2" y="99.096177"/>
    </g>
   </g>
   <g id="line2d_119">
    <path clip-path="url(#p8c3aed0e2c)" d="M 2.393779 185.300903 
L 5.110915 185.300903 
L 7.828052 182.142076 
L 10.545188 175.488691 
L 13.262324 172.329864 
L 15.97946 170.98065 
L 18.696596 175.488691 
L 26.848005 175.488691 
L 29.565141 182.142076 
L 32.282277 185.300903 
L 34.999413 195.113116 
L 37.716549 185.300903 
L 43.150822 185.300903 
L 45.867958 189.373339 
L 48.585094 189.373339 
L 51.30223 195.113116 
L 54.019366 195.113116 
L 54.039207 433 
M 75.737427 433 
L 75.756455 204.925328 
L 78.473592 170.98065 
L 81.190728 156.777875 
L 83.907864 155.864266 
L 86.625 146.274987 
L 89.342136 137.879559 
L 94.776408 131.492537 
L 97.493545 127.63927 
L 100.210681 118.89004 
L 102.927817 113.860433 
L 105.644953 111.789249 
L 108.362089 108.474 
L 111.079225 106.900305 
L 113.796362 103.85608 
L 116.513498 100.084304 
L 119.230634 100.520984 
L 121.94777 91.563372 
L 127.382042 85.066899 
L 132.816315 78.060697 
L 135.533451 73.962423 
L 138.250587 70.568337 
L 140.967723 67.737845 
L 146.401995 65.399372 
L 149.119131 63.521718 
L 151.836268 62.311063 
L 154.553404 61.574696 
L 157.27054 59.659101 
L 159.987676 58.516809 
L 162.704812 56.615702 
L 165.421948 55.937989 
L 168.139085 55.709001 
L 170.856221 55.342203 
L 173.573357 54.726075 
L 176.290493 54.619303 
L 179.007629 54.817487 
L 181.724765 55.498029 
L 184.441901 55.634728 
L 187.159038 56.219541 
L 192.59331 56.63886 
L 195.310446 57.477222 
L 200.744718 59.561497 
L 206.178991 60.642198 
L 208.896127 62.330764 
L 214.330399 65.077322 
L 217.047535 65.289979 
L 219.764671 65.885477 
L 222.481808 66.759721 
L 225.198944 67.037711 
L 227.91608 67.088619 
L 230.633216 67.98329 
L 233.350352 68.402678 
L 236.067488 70.188626 
L 238.784624 70.644442 
L 241.501761 71.287584 
L 244.218897 72.329393 
L 246.936033 72.416828 
L 249.653169 73.33523 
L 252.370305 74.714371 
L 255.087441 75.9128 
L 260.521714 77.891119 
L 263.23885 78.817406 
L 265.955986 79.401746 
L 268.673122 80.376274 
L 271.390258 80.814751 
L 274.107394 80.617711 
L 279.541667 81.276353 
L 282.258803 80.808139 
L 287.693075 81.926542 
L 290.410211 84.220433 
L 293.127347 85.398226 
L 295.844484 86.075498 
L 298.56162 85.878663 
L 301.278756 87.603263 
L 303.995892 85.51451 
L 306.713028 86.245958 
L 309.430164 85.712543 
L 312.1473 85.919708 
L 314.864437 86.7097 
L 317.581573 87.660358 
L 320.298709 87.342152 
L 323.015845 89.72383 
L 325.732981 91.348316 
L 328.450117 90.784365 
L 331.167254 90.620351 
L 333.88439 90.660072 
L 336.601526 91.205208 
L 339.318662 91.615287 
L 342.035798 93.188966 
L 344.752934 93.629029 
L 350.187207 97.312574 
L 352.904343 95.590344 
L 355.621479 95.104173 
L 358.338615 94.083213 
L 361.055751 93.466439 
L 363.772887 94.739876 
L 366.490023 95.855777 
L 369.20716 95.335944 
L 371.924296 98.685141 
L 374.641432 99.072136 
L 377.358568 100.726471 
L 380.075704 99.249391 
L 382.79284 96.757908 
L 385.509977 91.00454 
L 388.227113 91.246607 
L 393.661385 88.413028 
L 396.378521 87.213381 
L 399.095657 86.729775 
L 401.812793 86.599795 
L 404.52993 89.188045 
L 407.247066 88.477279 
L 409.964202 88.285393 
L 412.681338 89.727968 
L 415.398474 90.349706 
L 418.11561 91.88257 
L 420.832746 91.483514 
L 423.549883 91.591666 
L 426.267019 92.849602 
L 428.984155 92.870252 
L 431.701291 92.412746 
L 434.418427 91.483514 
L 437.135563 91.945346 
L 439.8527 92.533309 
L 442.569836 93.444901 
L 445.286972 93.876471 
L 448.004108 94.105746 
L 450.721244 94.769386 
L 453.43838 96.528601 
L 456.155516 96.548685 
L 458.872653 96.035539 
L 464.306925 93.010438 
L 467.024061 92.989582 
L 469.741197 92.48295 
L 472.458333 90.918759 
L 477.892606 89.873543 
L 480.609742 89.686648 
L 483.326878 89.092771 
L 486.044014 88.048219 
L 488.76115 87.757232 
L 491.478286 88.289131 
L 494.195423 87.549944 
L 496.912559 86.589846 
L 499.629695 85.370824 
L 502.346831 85.004518 
L 505.063967 85.150504 
L 507.781103 85.681417 
L 510.498239 84.358515 
L 513.215376 84.017187 
L 515.932512 82.835065 
L 518.649648 82.996178 
L 521.366784 82.261969 
L 524.08392 82.017455 
L 526.801056 81.615201 
L 532.235329 80.187312 
L 534.952465 80.115785 
L 537.669601 79.111447 
L 540.386737 78.437723 
L 543.103873 78.456374 
L 545.821009 78.208471 
L 548.538146 77.366566 
L 551.255282 76.711483 
L 553.972418 76.277679 
L 564.840962 75.288965 
L 567.558099 75.386288 
L 570.275235 75.324822 
L 572.992371 75.564696 
L 575.709507 75.602785 
L 583.860915 76.3354 
L 586.578052 76.547449 
L 589.295188 76.957797 
L 592.012324 77.009937 
L 594.72946 77.234129 
L 602.880869 77.234129 
L 602.880869 77.234129 
" style="fill:none;stroke:#348abd;stroke-linecap:square;stroke-opacity:0.4;stroke-width:2;"/>
   </g>
   <g id="line2d_120">
    <defs>
     <path d="M 0 3 
C 0.795609 3 1.55874 2.683901 2.12132 2.12132 
C 2.683901 1.55874 3 0.795609 3 0 
C 3 -0.795609 2.683901 -1.55874 2.12132 -2.12132 
C 1.55874 -2.683901 0.795609 -3 0 -3 
C -0.795609 -3 -1.55874 -2.683901 -2.12132 -2.12132 
C -2.683901 -1.55874 -3 -0.795609 -3 0 
C -3 0.795609 -2.683901 1.55874 -2.12132 2.12132 
C -1.55874 2.683901 -0.795609 3 0 3 
z
" id="mc8731059ef" style="stroke:#348abd;stroke-opacity:0.4;"/>
    </defs>
    <g clip-path="url(#p8c3aed0e2c)">
     <use style="fill:#348abd;fill-opacity:0.4;stroke:#348abd;stroke-opacity:0.4;" x="602.880869" xlink:href="#mc8731059ef" y="77.234129"/>
    </g>
   </g>
   <g id="line2d_121">
    <path clip-path="url(#p8c3aed0e2c)" d="M -1 180.203856 
L -0.323357 179.561127 
L 2.393779 189.373339 
L 7.828052 189.373339 
L 10.545188 195.113116 
L 13.262324 195.113116 
L 15.97946 204.925328 
L 15.998488 433 
M 59.431913 433 
L 59.453638 172.329864 
L 62.170775 169.748914 
L 64.887911 166.590087 
L 67.605047 159.936702 
L 70.322183 153.809065 
L 73.039319 152.705439 
L 75.756455 151.038099 
L 78.473592 153.431548 
L 81.190728 149.832602 
L 83.907864 146.731673 
L 89.342136 143.619336 
L 92.059272 144.189454 
L 94.776408 134.971288 
L 97.493545 130.873596 
L 100.210681 128.508773 
L 102.927817 124.858937 
L 105.644953 122.203936 
L 108.362089 118.760761 
L 111.079225 115.524929 
L 113.796362 114.584147 
L 116.513498 109.93096 
L 119.230634 103.957477 
L 121.94777 103.370557 
L 124.664906 100.556507 
L 127.382042 98.849702 
L 130.099178 96.441897 
L 132.816315 95.031763 
L 135.533451 93.782484 
L 138.250587 94.540822 
L 140.967723 93.188966 
L 143.684859 94.083213 
L 146.401995 94.179225 
L 149.119131 95.311368 
L 151.836268 96.061406 
L 154.553404 97.978522 
L 157.27054 99.602386 
L 159.987676 102.016413 
L 162.704812 103.038215 
L 168.139085 107.252639 
L 170.856221 108.868344 
L 173.573357 111.15486 
L 176.290493 113.724534 
L 179.007629 115.499353 
L 181.724765 116.395938 
L 187.159038 121.839383 
L 192.59331 125.938504 
L 195.310446 124.420333 
L 198.027582 125.569424 
L 200.744718 127.943713 
L 203.461854 129.09733 
L 206.178991 129.922187 
L 208.896127 133.530449 
L 211.613263 136.462775 
L 214.330399 139.17919 
L 217.047535 140.02039 
L 222.481808 139.734399 
L 225.198944 139.17919 
L 227.91608 139.593542 
L 230.633216 139.043724 
L 233.350352 138.644937 
L 236.067488 136.462775 
L 238.784624 135.911887 
L 241.501761 134.77049 
L 244.218897 134.280613 
L 246.936033 134.971288 
L 249.653169 134.971288 
L 252.370305 136.462775 
L 255.087441 136.803901 
L 257.804577 139.043724 
L 260.521714 140.460509 
L 263.23885 138.909543 
L 265.955986 137.51185 
L 268.673122 139.043724 
L 271.390258 138.909543 
L 274.107394 140.02039 
L 276.824531 140.914752 
L 279.541667 140.914752 
L 282.258803 143.619336 
L 284.975939 146.052053 
L 287.693075 144.783501 
L 290.410211 146.965662 
L 293.127347 147.445574 
L 295.844484 145.403572 
L 298.56162 144.987188 
L 301.278756 144.783501 
L 303.995892 142.035022 
L 306.713028 143.251626 
L 309.430164 141.544012 
L 312.1473 140.460509 
L 314.864437 141.225886 
L 317.581573 141.225886 
L 320.298709 142.543677 
L 323.015845 145.193849 
L 325.732981 145.403572 
L 328.450117 146.274987 
L 331.167254 150.726964 
L 333.88439 151.038099 
L 336.601526 151.038099 
L 339.318662 152.014764 
L 342.035798 152.014764 
L 344.752934 146.731673 
L 350.187207 142.893226 
L 352.904343 140.312277 
L 355.621479 138.909543 
L 358.338615 137.15345 
L 361.055751 137.51185 
L 363.772887 134.870533 
L 366.490023 135.072766 
L 371.924296 133.900563 
L 377.358568 130.9495 
L 380.075704 130.648296 
L 382.79284 128.254847 
L 385.509977 124.662322 
L 388.227113 122.327571 
L 390.944249 120.145409 
L 393.661385 118.66457 
L 396.378521 117.79697 
L 399.095657 113.042449 
L 401.812793 111.079861 
L 404.52993 109.965487 
L 407.247066 108.303909 
L 409.964202 107.628613 
L 412.681338 106.38101 
L 415.398474 103.338051 
L 418.11561 103.501329 
L 420.832746 102.848764 
L 423.549883 102.406191 
L 428.984155 100.476705 
L 431.701291 99.184677 
L 434.418427 98.361648 
L 437.135563 98.142522 
L 439.8527 97.291377 
L 445.286972 96.126283 
L 448.004108 94.704545 
L 450.721244 94.213268 
L 453.43838 94.971704 
L 456.155516 94.117025 
L 458.872653 93.607242 
L 461.589789 92.233805 
L 464.306925 92.189421 
L 467.024061 93.141489 
L 469.741197 91.605833 
L 472.458333 90.203456 
L 475.175469 90.109623 
L 477.892606 89.437178 
L 480.609742 89.886091 
L 483.326878 89.703161 
L 486.044014 88.007852 
L 488.76115 89.03749 
L 491.478286 89.944795 
L 494.195423 89.740387 
L 496.912559 90.722082 
L 502.346831 91.667392 
L 505.063967 93.173122 
L 507.781103 94.350263 
L 510.498239 94.338796 
L 515.932512 95.958218 
L 518.649648 96.230708 
L 521.366784 96.908287 
L 524.08392 98.338822 
L 526.801056 98.2177 
L 529.518192 99.921835 
L 532.235329 100.780571 
L 534.952465 101.174455 
L 537.669601 102.817433 
L 543.103873 104.382132 
L 545.821009 105.971045 
L 548.538146 106.57012 
L 553.972418 109.290459 
L 556.689554 109.759577 
L 559.40669 110.912552 
L 562.123826 111.808923 
L 564.840962 111.652285 
L 567.558099 112.432815 
L 575.709507 112.432815 
L 575.709507 112.432815 
" style="fill:none;stroke:#988ed5;stroke-linecap:square;stroke-opacity:0.4;stroke-width:2;"/>
   </g>
   <g id="line2d_122">
    <defs>
     <path d="M 0 3 
C 0.795609 3 1.55874 2.683901 2.12132 2.12132 
C 2.683901 1.55874 3 0.795609 3 0 
C 3 -0.795609 2.683901 -1.55874 2.12132 -2.12132 
C 1.55874 -2.683901 0.795609 -3 0 -3 
C -0.795609 -3 -1.55874 -2.683901 -2.12132 -2.12132 
C -2.683901 -1.55874 -3 -0.795609 -3 0 
C -3 0.795609 -2.683901 1.55874 -2.12132 2.12132 
C -1.55874 2.683901 -0.795609 3 0 3 
z
" id="m40c94fc435" style="stroke:#988ed5;stroke-opacity:0.4;"/>
    </defs>
    <g clip-path="url(#p8c3aed0e2c)">
     <use style="fill:#988ed5;fill-opacity:0.4;stroke:#988ed5;stroke-opacity:0.4;" x="575.709507" xlink:href="#m40c94fc435" y="112.432815"/>
    </g>
   </g>
   <g id="line2d_123">
    <path clip-path="url(#p8c3aed0e2c)" d="M 62.151746 433 
L 62.170775 204.925328 
L 64.887911 204.925328 
L 67.605047 182.142076 
L 70.322183 182.142076 
L 73.039319 170.98065 
L 75.756455 165.676478 
L 81.190728 156.777875 
L 83.907864 150.124489 
L 86.625 146.274987 
L 89.342136 140.02039 
L 92.059272 138.644937 
L 94.776408 132.992814 
L 97.493545 128.832724 
L 100.210681 128.572973 
L 102.927817 123.902084 
L 105.644953 121.719922 
L 108.362089 118.987781 
L 111.079225 116.532712 
L 113.796362 115.046724 
L 116.513498 112.956784 
L 119.230634 110.297762 
L 121.94777 109.175568 
L 124.664906 107.657952 
L 127.382042 105.764006 
L 130.099178 104.231473 
L 132.816315 103.359713 
L 135.533451 102.275069 
L 138.250587 101.370875 
L 143.684859 97.369254 
L 146.401995 97.404796 
L 149.119131 95.722438 
L 151.836268 94.995697 
L 154.553404 93.959922 
L 157.27054 93.337698 
L 159.987676 93.455666 
L 162.704812 93.765962 
L 165.421948 92.927197 
L 168.139085 93.765962 
L 170.856221 94.049482 
L 173.573357 95.019731 
L 176.290493 94.882089 
L 179.007629 95.086036 
L 181.724765 94.604916 
L 184.441901 94.828592 
L 187.159038 93.542082 
L 189.876174 93.295044 
L 192.59331 93.321688 
L 195.310446 93.683644 
L 198.027582 93.65085 
L 200.744718 94.094475 
L 203.461854 93.99344 
L 206.178991 95.164798 
L 208.896127 95.292963 
L 211.613263 94.971704 
L 214.330399 94.333065 
L 217.047535 94.947751 
L 219.764671 95.894106 
L 222.481808 96.622572 
L 225.198944 96.798762 
L 227.91608 96.609109 
L 230.633216 95.894106 
L 233.350352 96.636048 
L 236.067488 96.171874 
L 238.784624 95.590344 
L 246.936033 95.225684 
L 249.653169 94.224633 
L 252.370305 94.373224 
L 255.087441 93.787995 
L 257.804577 93.343039 
L 260.521714 93.580056 
L 263.23885 93.982259 
L 265.955986 93.837695 
L 268.673122 95.061889 
L 271.390258 93.971086 
L 274.107394 94.010229 
L 279.541667 93.215411 
L 282.258803 92.578787 
L 284.975939 92.839287 
L 287.693075 92.533309 
L 293.127347 93.173122 
L 295.844484 93.965503 
L 298.56162 93.396559 
L 301.278756 94.396224 
L 303.995892 93.976671 
L 306.713028 95.219584 
L 309.430164 95.88771 
L 312.1473 95.830282 
L 314.864437 95.627959 
L 317.581573 94.657573 
L 320.298709 92.690572 
L 323.015845 91.610559 
L 325.732981 90.829021 
L 331.167254 90.882796 
L 333.88439 90.820079 
L 336.601526 91.441418 
L 342.035798 93.461052 
L 344.752934 93.423395 
L 347.47007 92.268423 
L 350.187207 92.493008 
L 352.904343 92.87542 
L 355.621479 93.596362 
L 358.338615 93.948766 
L 363.772887 95.152652 
L 366.490023 96.501866 
L 371.924296 96.77832 
L 374.641432 96.676551 
L 377.358568 97.497622 
L 382.79284 98.308444 
L 385.509977 97.656114 
L 388.227113 97.136895 
L 393.661385 97.291377 
L 396.378521 97.025594 
L 399.095657 97.319646 
L 401.812793 97.192875 
L 407.247066 98.778941 
L 409.964202 98.731963 
L 412.681338 98.802489 
L 415.398474 97.750609 
L 418.11561 97.081135 
L 420.832746 97.011742 
L 423.549883 97.102019 
L 428.984155 96.035539 
L 431.701291 95.817552 
L 437.135563 96.022622 
L 439.8527 95.195209 
L 442.569836 94.505983 
L 448.004108 93.444901 
L 450.721244 92.184498 
L 453.43838 91.772181 
L 456.155516 91.497574 
L 461.589789 90.436447 
L 467.024061 88.810738 
L 472.458333 88.132997 
L 475.175469 87.27936 
L 477.892606 86.67297 
L 486.044014 85.425681 
L 488.76115 84.871763 
L 494.195423 84.523718 
L 496.912559 84.898215 
L 502.346831 84.43518 
L 505.063967 84.369846 
L 507.781103 84.575382 
L 513.215376 84.731516 
L 518.649648 84.540918 
L 521.366784 84.667698 
L 524.08392 84.46368 
L 526.801056 84.10036 
L 532.235329 84.268187 
L 534.952465 83.808643 
L 537.669601 83.824996 
L 540.386737 83.501477 
L 545.821009 84.192418 
L 548.538146 84.053168 
L 551.255282 84.181228 
L 553.972418 84.789784 
L 556.689554 85.186486 
L 559.40669 86.037187 
L 567.558099 86.037187 
L 567.558099 86.037187 
" style="fill:none;stroke:#777777;stroke-linecap:square;stroke-opacity:0.4;stroke-width:2;"/>
   </g>
   <g id="line2d_124">
    <defs>
     <path d="M 0 3 
C 0.795609 3 1.55874 2.683901 2.12132 2.12132 
C 2.683901 1.55874 3 0.795609 3 0 
C 3 -0.795609 2.683901 -1.55874 2.12132 -2.12132 
C 1.55874 -2.683901 0.795609 -3 0 -3 
C -0.795609 -3 -1.55874 -2.683901 -2.12132 -2.12132 
C -2.683901 -1.55874 -3 -0.795609 -3 0 
C -3 0.795609 -2.683901 1.55874 -2.12132 2.12132 
C -1.55874 2.683901 -0.795609 3 0 3 
z
" id="m81a2a54e8f" style="stroke:#777777;stroke-opacity:0.4;"/>
    </defs>
    <g clip-path="url(#p8c3aed0e2c)">
     <use style="fill:#777777;fill-opacity:0.4;stroke:#777777;stroke-opacity:0.4;" x="567.558099" xlink:href="#m81a2a54e8f" y="86.037187"/>
    </g>
   </g>
   <g id="line2d_125">
    <path clip-path="url(#p8c3aed0e2c)" d="M 5.091887 433 
L 5.110915 204.925328 
L 15.97946 204.925328 
L 18.696596 179.561127 
L 21.413732 179.561127 
L 24.130869 182.142076 
L 32.282277 182.142076 
L 34.999413 175.488691 
L 37.716549 189.373339 
L 40.433685 179.561127 
L 43.150822 161.826976 
L 48.585094 161.826976 
L 51.30223 156.777875 
L 54.019366 158.269362 
L 56.736502 152.014764 
L 59.453638 153.063838 
L 62.170775 152.014764 
L 64.887911 149.832602 
L 67.605047 149.832602 
L 70.322183 151.038099 
L 73.039319 151.038099 
L 75.756455 154.595713 
L 78.473592 154.595713 
L 83.907864 164.009138 
L 86.625 164.009138 
L 89.342136 144.582703 
L 92.059272 144.582703 
L 94.776408 143.434287 
L 97.493545 128.702253 
L 100.210681 126.372439 
L 105.644953 117.887425 
L 108.362089 115.653504 
L 111.079225 112.00719 
L 113.796362 108.583313 
L 116.513498 104.771935 
L 119.230634 100.222582 
L 121.94777 98.928742 
L 124.664906 97.213925 
L 127.382042 95.855777 
L 132.816315 93.279081 
L 135.533451 92.984372 
L 138.250587 92.573726 
L 140.967723 91.255823 
L 143.684859 90.545626 
L 149.119131 89.641336 
L 151.836268 89.192029 
L 154.553404 88.173723 
L 157.27054 87.53576 
L 159.987676 86.5138 
L 170.856221 82.012656 
L 179.007629 81.224062 
L 184.441901 81.31056 
L 189.876174 81.601211 
L 195.310446 81.347139 
L 200.744718 81.156146 
L 206.178991 80.591645 
L 214.330399 80.363455 
L 230.633216 80.427665 
L 238.784624 80.537494 
L 244.218897 80.53101 
L 252.370305 80.726839 
L 257.804577 80.95433 
L 263.23885 81.319696 
L 274.107394 81.556998 
L 282.258803 81.75116 
L 284.975939 81.893195 
L 287.693075 82.169477 
L 295.844484 83.416439 
L 303.995892 84.452273 
L 306.713028 84.813158 
L 309.430164 84.895273 
L 312.1473 85.246661 
L 317.581573 86.349879 
L 325.732981 88.522809 
L 328.450117 89.89865 
L 336.601526 92.731441 
L 339.318662 93.444901 
L 342.035798 94.287309 
L 344.752934 95.250112 
L 347.47007 95.447069 
L 352.904343 96.77832 
L 355.621479 97.227976 
L 358.338615 98.165034 
L 363.772887 99.519505 
L 369.20716 101.427499 
L 371.924296 102.600042 
L 374.641432 103.316423 
L 380.075704 104.335604 
L 382.79284 104.417128 
L 385.509977 104.819921 
L 388.227113 104.72411 
L 390.944249 105.001334 
L 393.661385 105.802596 
L 396.378521 106.062586 
L 399.095657 106.075711 
L 401.812793 106.247462 
L 404.52993 106.26076 
L 409.964202 106.624619 
L 412.681338 106.610975 
L 426.267019 107.954735 
L 428.984155 108.090344 
L 431.701291 108.396432 
L 437.135563 109.306948 
L 439.8527 109.640832 
L 442.569836 110.191988 
L 448.004108 110.60182 
L 450.721244 110.638024 
L 458.872653 112.188036 
L 461.589789 112.309897 
L 464.306925 115.096307 
L 467.024061 112.892875 
L 469.741197 113.41242 
L 475.175469 112.208274 
L 480.609742 110.244776 
L 483.326878 107.468326 
L 486.044014 107.835274 
L 488.76115 106.367599 
L 491.478286 106.394435 
L 494.195423 104.880134 
L 496.912559 104.382132 
L 499.629695 104.151008 
L 502.346831 104.116663 
L 507.781103 104.581599 
L 510.498239 104.151008 
L 513.215376 104.952729 
L 515.932512 105.321397 
L 524.08392 105.321397 
L 524.08392 105.321397 
" style="fill:none;stroke:#fbc15e;stroke-linecap:square;stroke-opacity:0.4;stroke-width:2;"/>
   </g>
   <g id="line2d_126">
    <defs>
     <path d="M 0 3 
C 0.795609 3 1.55874 2.683901 2.12132 2.12132 
C 2.683901 1.55874 3 0.795609 3 0 
C 3 -0.795609 2.683901 -1.55874 2.12132 -2.12132 
C 1.55874 -2.683901 0.795609 -3 0 -3 
C -0.795609 -3 -1.55874 -2.683901 -2.12132 -2.12132 
C -2.683901 -1.55874 -3 -0.795609 -3 0 
C -3 0.795609 -2.683901 1.55874 -2.12132 2.12132 
C -1.55874 2.683901 -0.795609 3 0 3 
z
" id="m87ac0e725c" style="stroke:#fbc15e;stroke-opacity:0.4;"/>
    </defs>
    <g clip-path="url(#p8c3aed0e2c)">
     <use style="fill:#fbc15e;fill-opacity:0.4;stroke:#fbc15e;stroke-opacity:0.4;" x="524.08392" xlink:href="#m87ac0e725c" y="105.321397"/>
    </g>
   </g>
   <g id="line2d_127">
    <path clip-path="url(#p8c3aed0e2c)" d="M 67.586019 433 
L 67.605047 204.925328 
L 70.322183 204.925328 
L 73.039319 175.488691 
L 75.756455 175.488691 
L 78.473592 164.009138 
L 81.190728 158.269362 
L 83.907864 152.014764 
L 86.625 148.197398 
L 89.342136 141.384056 
L 92.059272 138.909543 
L 94.776408 129.503752 
L 97.493545 126.76336 
L 100.210681 123.718237 
L 102.927817 122.747662 
L 105.644953 118.922546 
L 108.362089 115.296396 
L 111.079225 115.914212 
L 113.796362 108.242561 
L 116.513498 105.90602 
L 119.230634 98.331222 
L 121.94777 98.615196 
L 124.664906 95.919716 
L 127.382042 94.888046 
L 130.099178 89.719694 
L 132.816315 86.976325 
L 135.533451 83.756983 
L 138.250587 83.600442 
L 140.967723 80.436248 
L 146.401995 77.936021 
L 157.27054 78.89227 
L 159.987676 79.338043 
L 162.704812 80.153607 
L 168.139085 79.560252 
L 170.856221 80.259202 
L 173.573357 80.797125 
L 176.290493 81.149372 
L 179.007629 82.414186 
L 181.724765 82.630579 
L 184.441901 82.975617 
L 189.876174 84.512262 
L 195.310446 86.441441 
L 198.027582 87.405224 
L 200.744718 88.683327 
L 203.461854 91.325136 
L 206.178991 93.178402 
L 208.896127 94.01583 
L 211.613263 95.366725 
L 214.330399 95.195209 
L 217.047535 95.621683 
L 219.764671 96.455202 
L 227.91608 100.4944 
L 230.633216 101.493848 
L 233.350352 103.198052 
L 236.067488 104.323996 
L 238.784624 104.546194 
L 241.501761 105.296518 
L 244.218897 105.919001 
L 246.936033 106.748014 
L 249.653169 108.273202 
L 252.370305 109.539837 
L 255.087441 110.000098 
L 257.804577 111.306061 
L 260.521714 113.171926 
L 263.23885 115.861685 
L 265.955986 116.894636 
L 268.673122 118.955126 
L 271.390258 120.109974 
L 274.107394 121.483983 
L 276.824531 121.175392 
L 282.258803 122.536058 
L 284.975939 123.855898 
L 287.693075 123.224633 
L 290.410211 125.058321 
L 293.127347 126.594499 
L 295.844484 127.459699 
L 298.56162 127.04935 
L 301.278756 127.882298 
L 303.995892 130.426526 
L 306.713028 133.714296 
L 309.430164 134.089313 
L 312.1473 134.089313 
L 314.864437 134.671149 
L 317.581573 137.391372 
L 320.298709 139.454073 
L 323.015845 137.035972 
L 325.732981 137.15345 
L 328.450117 136.462775 
L 331.167254 136.575573 
L 333.88439 138.004283 
L 336.601526 137.51185 
L 339.318662 137.51185 
L 342.035798 138.644937 
L 344.752934 138.257076 
L 347.47007 139.315964 
L 350.187207 139.593542 
L 352.904343 137.879559 
L 355.621479 137.391372 
L 358.338615 135.911887 
L 361.055751 136.350869 
L 363.772887 135.174976 
L 366.490023 133.807123 
L 371.924296 132.559874 
L 374.641432 131.7318 
L 377.358568 133.439413 
L 380.075704 132.05724 
L 382.79284 134.089313 
L 385.509977 131.812461 
L 388.227113 131.492537 
L 390.944249 131.571843 
L 393.661385 130.722999 
L 396.378521 128.067347 
L 399.095657 126.706849 
L 401.812793 123.627201 
L 404.52993 123.049324 
L 407.247066 122.327571 
L 409.964202 120.761774 
L 412.681338 117.677257 
L 418.11561 114.020649 
L 420.832746 113.390387 
L 426.267019 112.956784 
L 431.701291 113.302598 
L 437.135563 114.632134 
L 439.8527 113.928875 
L 442.569836 114.020649 
L 448.004108 113.302598 
L 450.721244 113.237111 
L 453.43838 112.107375 
L 458.872653 112.702858 
L 461.589789 112.027171 
L 464.306925 112.432815 
L 467.024061 111.67177 
L 469.741197 111.497361 
L 472.458333 111.987238 
L 475.175469 110.802101 
L 477.892606 110.121908 
L 480.609742 109.93096 
L 486.044014 109.159231 
L 488.76115 108.334683 
L 491.478286 106.830879 
L 494.195423 106.075711 
L 499.629695 105.308952 
L 505.063967 105.321397 
L 507.781103 105.471595 
L 510.498239 105.971045 
L 513.215376 106.624619 
L 515.932512 106.597344 
L 518.649648 106.407872 
L 521.366784 105.89305 
L 524.08392 105.172776 
L 526.801056 104.070998 
L 529.518192 103.47945 
L 532.235329 102.355615 
L 534.952465 101.656288 
L 537.669601 101.202349 
L 540.386737 100.989889 
L 543.103873 100.8985 
L 553.972418 99.602386 
L 556.689554 98.984334 
L 559.40669 98.755433 
L 562.123826 98.716339 
L 564.840962 98.165034 
L 567.558099 97.468995 
L 570.275235 97.227976 
L 572.992371 96.669793 
L 581.143779 96.428605 
L 586.578052 96.49519 
L 594.72946 96.49519 
L 594.72946 96.49519 
" style="fill:none;stroke:#8eba42;stroke-linecap:square;stroke-opacity:0.4;stroke-width:2;"/>
   </g>
   <g id="line2d_128">
    <defs>
     <path d="M 0 3 
C 0.795609 3 1.55874 2.683901 2.12132 2.12132 
C 2.683901 1.55874 3 0.795609 3 0 
C 3 -0.795609 2.683901 -1.55874 2.12132 -2.12132 
C 1.55874 -2.683901 0.795609 -3 0 -3 
C -0.795609 -3 -1.55874 -2.683901 -2.12132 -2.12132 
C -2.683901 -1.55874 -3 -0.795609 -3 0 
C -3 0.795609 -2.683901 1.55874 -2.12132 2.12132 
C -1.55874 2.683901 -0.795609 3 0 3 
z
" id="me7c247d396" style="stroke:#8eba42;stroke-opacity:0.4;"/>
    </defs>
    <g clip-path="url(#p8c3aed0e2c)">
     <use style="fill:#8eba42;fill-opacity:0.4;stroke:#8eba42;stroke-opacity:0.4;" x="594.72946" xlink:href="#me7c247d396" y="96.49519"/>
    </g>
   </g>
   <g id="line2d_129">
    <path clip-path="url(#p8c3aed0e2c)" d="M -1 182.928713 
L -0.323357 182.142076 
L 2.393779 179.561127 
L 5.110915 189.373339 
L 7.828052 179.561127 
L 15.97946 179.561127 
L 18.696596 185.300903 
L 21.413732 189.373339 
L 24.130869 189.373339 
L 24.151185 433 
M 29.546113 433 
L 29.565141 204.925328 
L 32.282277 204.925328 
L 34.999413 195.113116 
L 45.867958 195.113116 
L 48.585094 204.925328 
L 51.30223 204.925328 
L 51.321258 433 
M 56.716661 433 
L 56.736502 195.113116 
L 70.322183 195.113116 
L 73.039319 189.373339 
L 75.756455 204.925328 
L 78.473592 173.82135 
L 81.190728 166.590087 
L 83.907864 153.809065 
L 89.342136 141.544012 
L 92.059272 133.439413 
L 94.776408 129.993145 
L 97.493545 123.581902 
L 100.210681 119.419299 
L 102.927817 118.039478 
L 105.644953 113.434487 
L 108.362089 107.110651 
L 111.079225 102.807005 
L 113.796362 98.052832 
L 116.513498 94.298734 
L 119.230634 93.965503 
L 121.94777 88.096074 
L 127.382042 79.035418 
L 130.099178 73.010144 
L 132.816315 67.351048 
L 135.533451 63.580324 
L 138.250587 58.913368 
L 140.967723 55.098545 
L 143.684859 52.29628 
L 146.401995 49.740199 
L 149.119131 46.808876 
L 154.553404 42.299003 
L 159.987676 39.502539 
L 162.704812 37.738358 
L 165.421948 36.383907 
L 170.856221 34.070953 
L 173.573357 33.038837 
L 179.007629 31.82026 
L 187.159038 30.797394 
L 189.876174 30.697037 
L 192.59331 30.898338 
L 195.310446 30.854369 
L 200.744718 31.385519 
L 208.896127 31.85179 
L 214.330399 32.134237 
L 217.047535 31.98667 
L 222.481808 32.160376 
L 227.91608 31.723407 
L 230.633216 31.407218 
L 233.350352 31.312674 
L 236.067488 31.645251 
L 241.501761 31.757892 
L 244.218897 32.061669 
L 246.936033 32.212372 
L 249.653169 32.480045 
L 252.370305 32.633314 
L 257.804577 32.658262 
L 263.23885 32.955943 
L 265.955986 33.489694 
L 268.673122 33.761929 
L 271.390258 34.231972 
L 274.107394 34.530324 
L 276.824531 34.69855 
L 279.541667 35.067914 
L 282.258803 35.091007 
L 287.693075 35.311618 
L 290.410211 35.379101 
L 293.127347 35.124098 
L 295.844484 35.277113 
L 298.56162 35.027572 
L 306.713028 35.621477 
L 309.430164 35.458627 
L 314.864437 35.852881 
L 317.581573 36.370727 
L 320.298709 36.615303 
L 323.015845 36.58009 
L 325.732981 36.327833 
L 331.167254 36.571567 
L 336.601526 36.218898 
L 339.318662 36.357845 
L 342.035798 36.28934 
L 347.47007 36.664145 
L 350.187207 36.658299 
L 352.904343 36.930565 
L 361.055751 36.680431 
L 366.490023 36.208607 
L 369.20716 35.998303 
L 374.641432 35.067827 
L 380.075704 34.140343 
L 385.509977 33.056879 
L 390.944249 31.461306 
L 393.661385 30.842284 
L 399.095657 29.264402 
L 401.812793 28.700471 
L 404.52993 27.987631 
L 409.964202 26.928599 
L 415.398474 25.493472 
L 418.11561 25.141191 
L 420.832746 25.004741 
L 423.549883 24.571841 
L 426.267019 24.400771 
L 428.984155 23.827499 
L 434.418427 23.20337 
L 439.8527 22.158777 
L 442.569836 21.842818 
L 445.286972 21.363158 
L 450.721244 20.839787 
L 453.43838 20.400269 
L 464.306925 20.025011 
L 467.024061 20.112016 
L 469.741197 20.003997 
L 472.458333 20.263515 
L 477.892606 20.114438 
L 483.326878 20.4793 
L 491.478286 20.462565 
L 499.629695 21.160613 
L 505.063967 21.80674 
L 507.781103 22.433433 
L 513.215376 23.06281 
L 518.649648 23.173462 
L 521.366784 23.01769 
L 524.08392 23.422311 
L 526.801056 23.293132 
L 529.518192 23.605234 
L 532.235329 23.370048 
L 534.952465 23.688389 
L 537.669601 23.880138 
L 540.386737 24.461721 
L 543.103873 24.533729 
L 548.538146 25.267766 
L 551.255282 25.967599 
L 553.972418 26.120086 
L 556.689554 26.4702 
L 559.40669 26.338989 
L 562.123826 26.666512 
L 564.840962 26.778879 
L 567.558099 26.684993 
L 570.275235 26.804305 
L 575.709507 26.644212 
L 578.426643 26.824718 
L 581.143779 26.579818 
L 583.860915 26.793624 
L 586.578052 27.260336 
L 594.72946 27.260336 
L 594.72946 27.260336 
" style="fill:none;stroke:#ffb5b8;stroke-linecap:square;stroke-opacity:0.4;stroke-width:2;"/>
   </g>
   <g id="line2d_130">
    <defs>
     <path d="M 0 3 
C 0.795609 3 1.55874 2.683901 2.12132 2.12132 
C 2.683901 1.55874 3 0.795609 3 0 
C 3 -0.795609 2.683901 -1.55874 2.12132 -2.12132 
C 1.55874 -2.683901 0.795609 -3 0 -3 
C -0.795609 -3 -1.55874 -2.683901 -2.12132 -2.12132 
C -2.683901 -1.55874 -3 -0.795609 -3 0 
C -3 0.795609 -2.683901 1.55874 -2.12132 2.12132 
C -1.55874 2.683901 -0.795609 3 0 3 
z
" id="m3b8310880b" style="stroke:#ffb5b8;stroke-opacity:0.4;"/>
    </defs>
    <g clip-path="url(#p8c3aed0e2c)">
     <use style="fill:#ffb5b8;fill-opacity:0.4;stroke:#ffb5b8;stroke-opacity:0.4;" x="594.72946" xlink:href="#m3b8310880b" y="27.260336"/>
    </g>
   </g>
   <g id="patch_3">
    <path d="M 86.625 177.378965 
L 86.625 10.75793 
" style="fill:none;stroke:#ffffff;stroke-linecap:square;stroke-linejoin:miter;"/>
   </g>
   <g id="patch_4">
    <path d="M 665.375 177.378965 
L 665.375 10.75793 
" style="fill:none;stroke:#ffffff;stroke-linecap:square;stroke-linejoin:miter;"/>
   </g>
   <g id="patch_5">
    <path d="M 86.625 177.378965 
L 665.375 177.378965 
" style="fill:none;stroke:#ffffff;stroke-linecap:square;stroke-linejoin:miter;"/>
   </g>
   <g id="patch_6">
    <path d="M 86.625 10.75793 
L 665.375 10.75793 
" style="fill:none;stroke:#ffffff;stroke-linecap:square;stroke-linejoin:miter;"/>
   </g>
   <g id="text_24">
    <!-- Korea, South -->
    <defs>
     <path d="M 9.8125 72.90625 
L 19.671875 72.90625 
L 19.671875 42.09375 
L 52.390625 72.90625 
L 65.09375 72.90625 
L 28.90625 38.921875 
L 67.671875 0 
L 54.6875 0 
L 19.671875 35.109375 
L 19.671875 0 
L 9.8125 0 
z
" id="DejaVuSans-75"/>
     <path d="M 11.71875 12.40625 
L 22.015625 12.40625 
L 22.015625 4 
L 14.015625 -11.625 
L 7.71875 -11.625 
L 11.71875 4 
z
" id="DejaVuSans-44"/>
     <path d="M 53.515625 70.515625 
L 53.515625 60.890625 
Q 47.90625 63.578125 42.921875 64.890625 
Q 37.9375 66.21875 33.296875 66.21875 
Q 25.25 66.21875 20.875 63.09375 
Q 16.5 59.96875 16.5 54.203125 
Q 16.5 49.359375 19.40625 46.890625 
Q 22.3125 44.4375 30.421875 42.921875 
L 36.375 41.703125 
Q 47.40625 39.59375 52.65625 34.296875 
Q 57.90625 29 57.90625 20.125 
Q 57.90625 9.515625 50.796875 4.046875 
Q 43.703125 -1.421875 29.984375 -1.421875 
Q 24.8125 -1.421875 18.96875 -0.25 
Q 13.140625 0.921875 6.890625 3.21875 
L 6.890625 13.375 
Q 12.890625 10.015625 18.65625 8.296875 
Q 24.421875 6.59375 29.984375 6.59375 
Q 38.421875 6.59375 43.015625 9.90625 
Q 47.609375 13.234375 47.609375 19.390625 
Q 47.609375 24.75 44.3125 27.78125 
Q 41.015625 30.8125 33.5 32.328125 
L 27.484375 33.5 
Q 16.453125 35.6875 11.515625 40.375 
Q 6.59375 45.0625 6.59375 53.421875 
Q 6.59375 63.09375 13.40625 68.65625 
Q 20.21875 74.21875 32.171875 74.21875 
Q 37.3125 74.21875 42.625 73.28125 
Q 47.953125 72.359375 53.515625 70.515625 
z
" id="DejaVuSans-83"/>
     <path d="M 8.5 21.578125 
L 8.5 54.6875 
L 17.484375 54.6875 
L 17.484375 21.921875 
Q 17.484375 14.15625 20.5 10.265625 
Q 23.53125 6.390625 29.59375 6.390625 
Q 36.859375 6.390625 41.078125 11.03125 
Q 45.3125 15.671875 45.3125 23.6875 
L 45.3125 54.6875 
L 54.296875 54.6875 
L 54.296875 0 
L 45.3125 0 
L 45.3125 8.40625 
Q 42.046875 3.421875 37.71875 1 
Q 33.40625 -1.421875 27.6875 -1.421875 
Q 18.265625 -1.421875 13.375 4.4375 
Q 8.5 10.296875 8.5 21.578125 
z
M 31.109375 56 
z
" id="DejaVuSans-117"/>
     <path d="M 18.3125 70.21875 
L 18.3125 54.6875 
L 36.8125 54.6875 
L 36.8125 47.703125 
L 18.3125 47.703125 
L 18.3125 18.015625 
Q 18.3125 11.328125 20.140625 9.421875 
Q 21.96875 7.515625 27.59375 7.515625 
L 36.8125 7.515625 
L 36.8125 0 
L 27.59375 0 
Q 17.1875 0 13.234375 3.875 
Q 9.28125 7.765625 9.28125 18.015625 
L 9.28125 47.703125 
L 2.6875 47.703125 
L 2.6875 54.6875 
L 9.28125 54.6875 
L 9.28125 70.21875 
z
" id="DejaVuSans-116"/>
     <path d="M 54.890625 33.015625 
L 54.890625 0 
L 45.90625 0 
L 45.90625 32.71875 
Q 45.90625 40.484375 42.875 44.328125 
Q 39.84375 48.1875 33.796875 48.1875 
Q 26.515625 48.1875 22.3125 43.546875 
Q 18.109375 38.921875 18.109375 30.90625 
L 18.109375 0 
L 9.078125 0 
L 9.078125 75.984375 
L 18.109375 75.984375 
L 18.109375 46.1875 
Q 21.34375 51.125 25.703125 53.5625 
Q 30.078125 56 35.796875 56 
Q 45.21875 56 50.046875 50.171875 
Q 54.890625 44.34375 54.890625 33.015625 
z
" id="DejaVuSans-104"/>
    </defs>
    <g transform="translate(635.486502 99.096177)scale(0.1 -0.1)">
     <use xlink:href="#DejaVuSans-75"/>
     <use x="60.576172" xlink:href="#DejaVuSans-111"/>
     <use x="121.757812" xlink:href="#DejaVuSans-114"/>
     <use x="160.621094" xlink:href="#DejaVuSans-101"/>
     <use x="222.144531" xlink:href="#DejaVuSans-97"/>
     <use x="283.423828" xlink:href="#DejaVuSans-44"/>
     <use x="315.210938" xlink:href="#DejaVuSans-32"/>
     <use x="346.998047" xlink:href="#DejaVuSans-83"/>
     <use x="410.474609" xlink:href="#DejaVuSans-111"/>
     <use x="471.65625" xlink:href="#DejaVuSans-117"/>
     <use x="535.035156" xlink:href="#DejaVuSans-116"/>
     <use x="574.244141" xlink:href="#DejaVuSans-104"/>
    </g>
   </g>
   <g id="text_25">
    <!-- Germany -->
    <defs>
     <path d="M 59.515625 10.40625 
L 59.515625 29.984375 
L 43.40625 29.984375 
L 43.40625 38.09375 
L 69.28125 38.09375 
L 69.28125 6.78125 
Q 63.578125 2.734375 56.6875 0.65625 
Q 49.8125 -1.421875 42 -1.421875 
Q 24.90625 -1.421875 15.25 8.5625 
Q 5.609375 18.5625 5.609375 36.375 
Q 5.609375 54.25 15.25 64.234375 
Q 24.90625 74.21875 42 74.21875 
Q 49.125 74.21875 55.546875 72.453125 
Q 61.96875 70.703125 67.390625 67.28125 
L 67.390625 56.78125 
Q 61.921875 61.421875 55.765625 63.765625 
Q 49.609375 66.109375 42.828125 66.109375 
Q 29.4375 66.109375 22.71875 58.640625 
Q 16.015625 51.171875 16.015625 36.375 
Q 16.015625 21.625 22.71875 14.15625 
Q 29.4375 6.6875 42.828125 6.6875 
Q 48.046875 6.6875 52.140625 7.59375 
Q 56.25 8.5 59.515625 10.40625 
z
" id="DejaVuSans-71"/>
    </defs>
    <g transform="translate(608.315141 77.234129)scale(0.1 -0.1)">
     <use xlink:href="#DejaVuSans-71"/>
     <use x="77.490234" xlink:href="#DejaVuSans-101"/>
     <use x="139.013672" xlink:href="#DejaVuSans-114"/>
     <use x="178.376953" xlink:href="#DejaVuSans-109"/>
     <use x="275.789062" xlink:href="#DejaVuSans-97"/>
     <use x="337.068359" xlink:href="#DejaVuSans-110"/>
     <use x="400.447266" xlink:href="#DejaVuSans-121"/>
    </g>
   </g>
   <g id="text_26">
    <!-- Australia -->
    <defs>
     <path d="M 34.1875 63.1875 
L 20.796875 26.90625 
L 47.609375 26.90625 
z
M 28.609375 72.90625 
L 39.796875 72.90625 
L 67.578125 0 
L 57.328125 0 
L 50.6875 18.703125 
L 17.828125 18.703125 
L 11.1875 0 
L 0.78125 0 
z
" id="DejaVuSans-65"/>
    </defs>
    <g transform="translate(581.143779 112.432815)scale(0.1 -0.1)">
     <use xlink:href="#DejaVuSans-65"/>
     <use x="68.408203" xlink:href="#DejaVuSans-117"/>
     <use x="131.787109" xlink:href="#DejaVuSans-115"/>
     <use x="183.886719" xlink:href="#DejaVuSans-116"/>
     <use x="223.095703" xlink:href="#DejaVuSans-114"/>
     <use x="264.208984" xlink:href="#DejaVuSans-97"/>
     <use x="325.488281" xlink:href="#DejaVuSans-108"/>
     <use x="353.271484" xlink:href="#DejaVuSans-105"/>
     <use x="381.054688" xlink:href="#DejaVuSans-97"/>
    </g>
   </g>
   <g id="text_27">
    <!-- Poland -->
    <defs>
     <path d="M 19.671875 64.796875 
L 19.671875 37.40625 
L 32.078125 37.40625 
Q 38.96875 37.40625 42.71875 40.96875 
Q 46.484375 44.53125 46.484375 51.125 
Q 46.484375 57.671875 42.71875 61.234375 
Q 38.96875 64.796875 32.078125 64.796875 
z
M 9.8125 72.90625 
L 32.078125 72.90625 
Q 44.34375 72.90625 50.609375 67.359375 
Q 56.890625 61.8125 56.890625 51.125 
Q 56.890625 40.328125 50.609375 34.8125 
Q 44.34375 29.296875 32.078125 29.296875 
L 19.671875 29.296875 
L 19.671875 0 
L 9.8125 0 
z
" id="DejaVuSans-80"/>
    </defs>
    <g transform="translate(572.992371 86.037187)scale(0.1 -0.1)">
     <use xlink:href="#DejaVuSans-80"/>
     <use x="56.677734" xlink:href="#DejaVuSans-111"/>
     <use x="117.859375" xlink:href="#DejaVuSans-108"/>
     <use x="145.642578" xlink:href="#DejaVuSans-97"/>
     <use x="206.921875" xlink:href="#DejaVuSans-110"/>
     <use x="270.300781" xlink:href="#DejaVuSans-100"/>
    </g>
   </g>
   <g id="text_28">
    <!-- Belarus -->
    <defs>
     <path d="M 19.671875 34.8125 
L 19.671875 8.109375 
L 35.5 8.109375 
Q 43.453125 8.109375 47.28125 11.40625 
Q 51.125 14.703125 51.125 21.484375 
Q 51.125 28.328125 47.28125 31.5625 
Q 43.453125 34.8125 35.5 34.8125 
z
M 19.671875 64.796875 
L 19.671875 42.828125 
L 34.28125 42.828125 
Q 41.5 42.828125 45.03125 45.53125 
Q 48.578125 48.25 48.578125 53.8125 
Q 48.578125 59.328125 45.03125 62.0625 
Q 41.5 64.796875 34.28125 64.796875 
z
M 9.8125 72.90625 
L 35.015625 72.90625 
Q 46.296875 72.90625 52.390625 68.21875 
Q 58.5 63.53125 58.5 54.890625 
Q 58.5 48.1875 55.375 44.234375 
Q 52.25 40.28125 46.1875 39.3125 
Q 53.46875 37.75 57.5 32.78125 
Q 61.53125 27.828125 61.53125 20.40625 
Q 61.53125 10.640625 54.890625 5.3125 
Q 48.25 0 35.984375 0 
L 9.8125 0 
z
" id="DejaVuSans-66"/>
    </defs>
    <g transform="translate(529.518192 105.321397)scale(0.1 -0.1)">
     <use xlink:href="#DejaVuSans-66"/>
     <use x="68.603516" xlink:href="#DejaVuSans-101"/>
     <use x="130.126953" xlink:href="#DejaVuSans-108"/>
     <use x="157.910156" xlink:href="#DejaVuSans-97"/>
     <use x="219.189453" xlink:href="#DejaVuSans-114"/>
     <use x="260.302734" xlink:href="#DejaVuSans-117"/>
     <use x="323.681641" xlink:href="#DejaVuSans-115"/>
    </g>
   </g>
   <g id="text_29">
    <!-- Switzerland -->
    <defs>
     <path d="M 5.515625 54.6875 
L 48.1875 54.6875 
L 48.1875 46.484375 
L 14.40625 7.171875 
L 48.1875 7.171875 
L 48.1875 0 
L 4.296875 0 
L 4.296875 8.203125 
L 38.09375 47.515625 
L 5.515625 47.515625 
z
" id="DejaVuSans-122"/>
    </defs>
    <g transform="translate(600.163732 96.49519)scale(0.1 -0.1)">
     <use xlink:href="#DejaVuSans-83"/>
     <use x="63.476562" xlink:href="#DejaVuSans-119"/>
     <use x="145.263672" xlink:href="#DejaVuSans-105"/>
     <use x="173.046875" xlink:href="#DejaVuSans-116"/>
     <use x="212.255859" xlink:href="#DejaVuSans-122"/>
     <use x="264.746094" xlink:href="#DejaVuSans-101"/>
     <use x="326.269531" xlink:href="#DejaVuSans-114"/>
     <use x="367.382812" xlink:href="#DejaVuSans-108"/>
     <use x="395.166016" xlink:href="#DejaVuSans-97"/>
     <use x="456.445312" xlink:href="#DejaVuSans-110"/>
     <use x="519.824219" xlink:href="#DejaVuSans-100"/>
    </g>
   </g>
   <g id="text_30">
    <!-- US -->
    <defs>
     <path d="M 8.6875 72.90625 
L 18.609375 72.90625 
L 18.609375 28.609375 
Q 18.609375 16.890625 22.84375 11.734375 
Q 27.09375 6.59375 36.625 6.59375 
Q 46.09375 6.59375 50.34375 11.734375 
Q 54.59375 16.890625 54.59375 28.609375 
L 54.59375 72.90625 
L 64.5 72.90625 
L 64.5 27.390625 
Q 64.5 13.140625 57.4375 5.859375 
Q 50.390625 -1.421875 36.625 -1.421875 
Q 22.796875 -1.421875 15.734375 5.859375 
Q 8.6875 13.140625 8.6875 27.390625 
z
" id="DejaVuSans-85"/>
    </defs>
    <g transform="translate(600.163732 27.260336)scale(0.1 -0.1)">
     <use xlink:href="#DejaVuSans-85"/>
     <use x="73.193359" xlink:href="#DejaVuSans-83"/>
    </g>
   </g>
  </g>
 </g>
 <defs>
  <clipPath id="p8c3aed0e2c">
   <rect height="166.621035" width="578.75" x="86.625" y="10.75793"/>
  </clipPath>
 </defs>
</svg>
