<?xml version="1.0" encoding="utf-8" standalone="no"?>
<!DOCTYPE svg PUBLIC "-//W3C//DTD SVG 1.1//EN"
  "http://www.w3.org/Graphics/SVG/1.1/DTD/svg11.dtd">
<!-- Created with matplotlib (https://matplotlib.org/) -->
<svg height="432pt" version="1.1" viewBox="0 0 720 432" width="720pt" xmlns="http://www.w3.org/2000/svg" xmlns:xlink="http://www.w3.org/1999/xlink">
 <defs>
  <style type="text/css">
*{stroke-linecap:butt;stroke-linejoin:round;}
  </style>
 </defs>
 <g id="figure_1">
  <g id="patch_1">
   <path d="M 0 432 
L 720 432 
L 720 0 
L 0 0 
z
" style="fill:#ffffff;"/>
  </g>
  <g id="axes_1">
   <g id="patch_2">
    <path d="M 86.625 388 
L 665.375 388 
L 665.375 221.378965 
L 86.625 221.378965 
z
" style="fill:#e5e5e5;"/>
   </g>
   <g id="matplotlib.axis_1">
    <g id="xtick_1">
     <g id="line2d_1">
      <path clip-path="url(#pd265de48ed)" d="M 89.531831 388 
L 89.531831 221.378965 
" style="fill:none;stroke:#ffffff;stroke-linecap:square;stroke-width:0.8;"/>
     </g>
     <g id="line2d_2">
      <defs>
       <path d="M 0 0 
L 0 3.5 
" id="mcb10affd41" style="stroke:#555555;stroke-width:0.8;"/>
      </defs>
      <g>
       <use style="fill:#555555;stroke:#555555;stroke-width:0.8;" x="89.531831" xlink:href="#mcb10affd41" y="388"/>
      </g>
     </g>
     <g id="text_1">
      <!-- 0 -->
      <defs>
       <path d="M 31.78125 66.40625 
Q 24.171875 66.40625 20.328125 58.90625 
Q 16.5 51.421875 16.5 36.375 
Q 16.5 21.390625 20.328125 13.890625 
Q 24.171875 6.390625 31.78125 6.390625 
Q 39.453125 6.390625 43.28125 13.890625 
Q 47.125 21.390625 47.125 36.375 
Q 47.125 51.421875 43.28125 58.90625 
Q 39.453125 66.40625 31.78125 66.40625 
z
M 31.78125 74.21875 
Q 44.046875 74.21875 50.515625 64.515625 
Q 56.984375 54.828125 56.984375 36.375 
Q 56.984375 17.96875 50.515625 8.265625 
Q 44.046875 -1.421875 31.78125 -1.421875 
Q 19.53125 -1.421875 13.0625 8.265625 
Q 6.59375 17.96875 6.59375 36.375 
Q 6.59375 54.828125 13.0625 64.515625 
Q 19.53125 74.21875 31.78125 74.21875 
z
" id="DejaVuSans-48"/>
      </defs>
      <g style="fill:#555555;" transform="translate(86.350581 402.598437)scale(0.1 -0.1)">
       <use xlink:href="#DejaVuSans-48"/>
      </g>
     </g>
    </g>
    <g id="xtick_2">
     <g id="line2d_3">
      <path clip-path="url(#pd265de48ed)" d="M 162.202599 388 
L 162.202599 221.378965 
" style="fill:none;stroke:#ffffff;stroke-linecap:square;stroke-width:0.8;"/>
     </g>
     <g id="line2d_4">
      <g>
       <use style="fill:#555555;stroke:#555555;stroke-width:0.8;" x="162.202599" xlink:href="#mcb10affd41" y="388"/>
      </g>
     </g>
     <g id="text_2">
      <!-- 25 -->
      <defs>
       <path d="M 19.1875 8.296875 
L 53.609375 8.296875 
L 53.609375 0 
L 7.328125 0 
L 7.328125 8.296875 
Q 12.9375 14.109375 22.625 23.890625 
Q 32.328125 33.6875 34.8125 36.53125 
Q 39.546875 41.84375 41.421875 45.53125 
Q 43.3125 49.21875 43.3125 52.78125 
Q 43.3125 58.59375 39.234375 62.25 
Q 35.15625 65.921875 28.609375 65.921875 
Q 23.96875 65.921875 18.8125 64.3125 
Q 13.671875 62.703125 7.8125 59.421875 
L 7.8125 69.390625 
Q 13.765625 71.78125 18.9375 73 
Q 24.125 74.21875 28.421875 74.21875 
Q 39.75 74.21875 46.484375 68.546875 
Q 53.21875 62.890625 53.21875 53.421875 
Q 53.21875 48.921875 51.53125 44.890625 
Q 49.859375 40.875 45.40625 35.40625 
Q 44.1875 33.984375 37.640625 27.21875 
Q 31.109375 20.453125 19.1875 8.296875 
z
" id="DejaVuSans-50"/>
       <path d="M 10.796875 72.90625 
L 49.515625 72.90625 
L 49.515625 64.59375 
L 19.828125 64.59375 
L 19.828125 46.734375 
Q 21.96875 47.46875 24.109375 47.828125 
Q 26.265625 48.1875 28.421875 48.1875 
Q 40.625 48.1875 47.75 41.5 
Q 54.890625 34.8125 54.890625 23.390625 
Q 54.890625 11.625 47.5625 5.09375 
Q 40.234375 -1.421875 26.90625 -1.421875 
Q 22.3125 -1.421875 17.546875 -0.640625 
Q 12.796875 0.140625 7.71875 1.703125 
L 7.71875 11.625 
Q 12.109375 9.234375 16.796875 8.0625 
Q 21.484375 6.890625 26.703125 6.890625 
Q 35.15625 6.890625 40.078125 11.328125 
Q 45.015625 15.765625 45.015625 23.390625 
Q 45.015625 31 40.078125 35.4375 
Q 35.15625 39.890625 26.703125 39.890625 
Q 22.75 39.890625 18.8125 39.015625 
Q 14.890625 38.140625 10.796875 36.28125 
z
" id="DejaVuSans-53"/>
      </defs>
      <g style="fill:#555555;" transform="translate(155.840099 402.598437)scale(0.1 -0.1)">
       <use xlink:href="#DejaVuSans-50"/>
       <use x="63.623047" xlink:href="#DejaVuSans-53"/>
      </g>
     </g>
    </g>
    <g id="xtick_3">
     <g id="line2d_5">
      <path clip-path="url(#pd265de48ed)" d="M 234.873368 388 
L 234.873368 221.378965 
" style="fill:none;stroke:#ffffff;stroke-linecap:square;stroke-width:0.8;"/>
     </g>
     <g id="line2d_6">
      <g>
       <use style="fill:#555555;stroke:#555555;stroke-width:0.8;" x="234.873368" xlink:href="#mcb10affd41" y="388"/>
      </g>
     </g>
     <g id="text_3">
      <!-- 50 -->
      <g style="fill:#555555;" transform="translate(228.510868 402.598437)scale(0.1 -0.1)">
       <use xlink:href="#DejaVuSans-53"/>
       <use x="63.623047" xlink:href="#DejaVuSans-48"/>
      </g>
     </g>
    </g>
    <g id="xtick_4">
     <g id="line2d_7">
      <path clip-path="url(#pd265de48ed)" d="M 307.544136 388 
L 307.544136 221.378965 
" style="fill:none;stroke:#ffffff;stroke-linecap:square;stroke-width:0.8;"/>
     </g>
     <g id="line2d_8">
      <g>
       <use style="fill:#555555;stroke:#555555;stroke-width:0.8;" x="307.544136" xlink:href="#mcb10affd41" y="388"/>
      </g>
     </g>
     <g id="text_4">
      <!-- 75 -->
      <defs>
       <path d="M 8.203125 72.90625 
L 55.078125 72.90625 
L 55.078125 68.703125 
L 28.609375 0 
L 18.3125 0 
L 43.21875 64.59375 
L 8.203125 64.59375 
z
" id="DejaVuSans-55"/>
      </defs>
      <g style="fill:#555555;" transform="translate(301.181636 402.598437)scale(0.1 -0.1)">
       <use xlink:href="#DejaVuSans-55"/>
       <use x="63.623047" xlink:href="#DejaVuSans-53"/>
      </g>
     </g>
    </g>
    <g id="xtick_5">
     <g id="line2d_9">
      <path clip-path="url(#pd265de48ed)" d="M 380.214905 388 
L 380.214905 221.378965 
" style="fill:none;stroke:#ffffff;stroke-linecap:square;stroke-width:0.8;"/>
     </g>
     <g id="line2d_10">
      <g>
       <use style="fill:#555555;stroke:#555555;stroke-width:0.8;" x="380.214905" xlink:href="#mcb10affd41" y="388"/>
      </g>
     </g>
     <g id="text_5">
      <!-- 100 -->
      <defs>
       <path d="M 12.40625 8.296875 
L 28.515625 8.296875 
L 28.515625 63.921875 
L 10.984375 60.40625 
L 10.984375 69.390625 
L 28.421875 72.90625 
L 38.28125 72.90625 
L 38.28125 8.296875 
L 54.390625 8.296875 
L 54.390625 0 
L 12.40625 0 
z
" id="DejaVuSans-49"/>
      </defs>
      <g style="fill:#555555;" transform="translate(370.671155 402.598437)scale(0.1 -0.1)">
       <use xlink:href="#DejaVuSans-49"/>
       <use x="63.623047" xlink:href="#DejaVuSans-48"/>
       <use x="127.246094" xlink:href="#DejaVuSans-48"/>
      </g>
     </g>
    </g>
    <g id="xtick_6">
     <g id="line2d_11">
      <path clip-path="url(#pd265de48ed)" d="M 452.885673 388 
L 452.885673 221.378965 
" style="fill:none;stroke:#ffffff;stroke-linecap:square;stroke-width:0.8;"/>
     </g>
     <g id="line2d_12">
      <g>
       <use style="fill:#555555;stroke:#555555;stroke-width:0.8;" x="452.885673" xlink:href="#mcb10affd41" y="388"/>
      </g>
     </g>
     <g id="text_6">
      <!-- 125 -->
      <g style="fill:#555555;" transform="translate(443.341923 402.598437)scale(0.1 -0.1)">
       <use xlink:href="#DejaVuSans-49"/>
       <use x="63.623047" xlink:href="#DejaVuSans-50"/>
       <use x="127.246094" xlink:href="#DejaVuSans-53"/>
      </g>
     </g>
    </g>
    <g id="xtick_7">
     <g id="line2d_13">
      <path clip-path="url(#pd265de48ed)" d="M 525.556441 388 
L 525.556441 221.378965 
" style="fill:none;stroke:#ffffff;stroke-linecap:square;stroke-width:0.8;"/>
     </g>
     <g id="line2d_14">
      <g>
       <use style="fill:#555555;stroke:#555555;stroke-width:0.8;" x="525.556441" xlink:href="#mcb10affd41" y="388"/>
      </g>
     </g>
     <g id="text_7">
      <!-- 150 -->
      <g style="fill:#555555;" transform="translate(516.012691 402.598437)scale(0.1 -0.1)">
       <use xlink:href="#DejaVuSans-49"/>
       <use x="63.623047" xlink:href="#DejaVuSans-53"/>
       <use x="127.246094" xlink:href="#DejaVuSans-48"/>
      </g>
     </g>
    </g>
    <g id="xtick_8">
     <g id="line2d_15">
      <path clip-path="url(#pd265de48ed)" d="M 598.22721 388 
L 598.22721 221.378965 
" style="fill:none;stroke:#ffffff;stroke-linecap:square;stroke-width:0.8;"/>
     </g>
     <g id="line2d_16">
      <g>
       <use style="fill:#555555;stroke:#555555;stroke-width:0.8;" x="598.22721" xlink:href="#mcb10affd41" y="388"/>
      </g>
     </g>
     <g id="text_8">
      <!-- 175 -->
      <g style="fill:#555555;" transform="translate(588.68346 402.598437)scale(0.1 -0.1)">
       <use xlink:href="#DejaVuSans-49"/>
       <use x="63.623047" xlink:href="#DejaVuSans-55"/>
       <use x="127.246094" xlink:href="#DejaVuSans-53"/>
      </g>
     </g>
    </g>
    <g id="text_9">
     <!-- days since 3 deaths -->
     <defs>
      <path d="M 45.40625 46.390625 
L 45.40625 75.984375 
L 54.390625 75.984375 
L 54.390625 0 
L 45.40625 0 
L 45.40625 8.203125 
Q 42.578125 3.328125 38.25 0.953125 
Q 33.9375 -1.421875 27.875 -1.421875 
Q 17.96875 -1.421875 11.734375 6.484375 
Q 5.515625 14.40625 5.515625 27.296875 
Q 5.515625 40.1875 11.734375 48.09375 
Q 17.96875 56 27.875 56 
Q 33.9375 56 38.25 53.625 
Q 42.578125 51.265625 45.40625 46.390625 
z
M 14.796875 27.296875 
Q 14.796875 17.390625 18.875 11.75 
Q 22.953125 6.109375 30.078125 6.109375 
Q 37.203125 6.109375 41.296875 11.75 
Q 45.40625 17.390625 45.40625 27.296875 
Q 45.40625 37.203125 41.296875 42.84375 
Q 37.203125 48.484375 30.078125 48.484375 
Q 22.953125 48.484375 18.875 42.84375 
Q 14.796875 37.203125 14.796875 27.296875 
z
" id="DejaVuSans-100"/>
      <path d="M 34.28125 27.484375 
Q 23.390625 27.484375 19.1875 25 
Q 14.984375 22.515625 14.984375 16.5 
Q 14.984375 11.71875 18.140625 8.90625 
Q 21.296875 6.109375 26.703125 6.109375 
Q 34.1875 6.109375 38.703125 11.40625 
Q 43.21875 16.703125 43.21875 25.484375 
L 43.21875 27.484375 
z
M 52.203125 31.203125 
L 52.203125 0 
L 43.21875 0 
L 43.21875 8.296875 
Q 40.140625 3.328125 35.546875 0.953125 
Q 30.953125 -1.421875 24.3125 -1.421875 
Q 15.921875 -1.421875 10.953125 3.296875 
Q 6 8.015625 6 15.921875 
Q 6 25.140625 12.171875 29.828125 
Q 18.359375 34.515625 30.609375 34.515625 
L 43.21875 34.515625 
L 43.21875 35.40625 
Q 43.21875 41.609375 39.140625 45 
Q 35.0625 48.390625 27.6875 48.390625 
Q 23 48.390625 18.546875 47.265625 
Q 14.109375 46.140625 10.015625 43.890625 
L 10.015625 52.203125 
Q 14.9375 54.109375 19.578125 55.046875 
Q 24.21875 56 28.609375 56 
Q 40.484375 56 46.34375 49.84375 
Q 52.203125 43.703125 52.203125 31.203125 
z
" id="DejaVuSans-97"/>
      <path d="M 32.171875 -5.078125 
Q 28.375 -14.84375 24.75 -17.8125 
Q 21.140625 -20.796875 15.09375 -20.796875 
L 7.90625 -20.796875 
L 7.90625 -13.28125 
L 13.1875 -13.28125 
Q 16.890625 -13.28125 18.9375 -11.515625 
Q 21 -9.765625 23.484375 -3.21875 
L 25.09375 0.875 
L 2.984375 54.6875 
L 12.5 54.6875 
L 29.59375 11.921875 
L 46.6875 54.6875 
L 56.203125 54.6875 
z
" id="DejaVuSans-121"/>
      <path d="M 44.28125 53.078125 
L 44.28125 44.578125 
Q 40.484375 46.53125 36.375 47.5 
Q 32.28125 48.484375 27.875 48.484375 
Q 21.1875 48.484375 17.84375 46.4375 
Q 14.5 44.390625 14.5 40.28125 
Q 14.5 37.15625 16.890625 35.375 
Q 19.28125 33.59375 26.515625 31.984375 
L 29.59375 31.296875 
Q 39.15625 29.25 43.1875 25.515625 
Q 47.21875 21.78125 47.21875 15.09375 
Q 47.21875 7.46875 41.1875 3.015625 
Q 35.15625 -1.421875 24.609375 -1.421875 
Q 20.21875 -1.421875 15.453125 -0.5625 
Q 10.6875 0.296875 5.421875 2 
L 5.421875 11.28125 
Q 10.40625 8.6875 15.234375 7.390625 
Q 20.0625 6.109375 24.8125 6.109375 
Q 31.15625 6.109375 34.5625 8.28125 
Q 37.984375 10.453125 37.984375 14.40625 
Q 37.984375 18.0625 35.515625 20.015625 
Q 33.0625 21.96875 24.703125 23.78125 
L 21.578125 24.515625 
Q 13.234375 26.265625 9.515625 29.90625 
Q 5.8125 33.546875 5.8125 39.890625 
Q 5.8125 47.609375 11.28125 51.796875 
Q 16.75 56 26.8125 56 
Q 31.78125 56 36.171875 55.265625 
Q 40.578125 54.546875 44.28125 53.078125 
z
" id="DejaVuSans-115"/>
      <path id="DejaVuSans-32"/>
      <path d="M 9.421875 54.6875 
L 18.40625 54.6875 
L 18.40625 0 
L 9.421875 0 
z
M 9.421875 75.984375 
L 18.40625 75.984375 
L 18.40625 64.59375 
L 9.421875 64.59375 
z
" id="DejaVuSans-105"/>
      <path d="M 54.890625 33.015625 
L 54.890625 0 
L 45.90625 0 
L 45.90625 32.71875 
Q 45.90625 40.484375 42.875 44.328125 
Q 39.84375 48.1875 33.796875 48.1875 
Q 26.515625 48.1875 22.3125 43.546875 
Q 18.109375 38.921875 18.109375 30.90625 
L 18.109375 0 
L 9.078125 0 
L 9.078125 54.6875 
L 18.109375 54.6875 
L 18.109375 46.1875 
Q 21.34375 51.125 25.703125 53.5625 
Q 30.078125 56 35.796875 56 
Q 45.21875 56 50.046875 50.171875 
Q 54.890625 44.34375 54.890625 33.015625 
z
" id="DejaVuSans-110"/>
      <path d="M 48.78125 52.59375 
L 48.78125 44.1875 
Q 44.96875 46.296875 41.140625 47.34375 
Q 37.3125 48.390625 33.40625 48.390625 
Q 24.65625 48.390625 19.8125 42.84375 
Q 14.984375 37.3125 14.984375 27.296875 
Q 14.984375 17.28125 19.8125 11.734375 
Q 24.65625 6.203125 33.40625 6.203125 
Q 37.3125 6.203125 41.140625 7.25 
Q 44.96875 8.296875 48.78125 10.40625 
L 48.78125 2.09375 
Q 45.015625 0.34375 40.984375 -0.53125 
Q 36.96875 -1.421875 32.421875 -1.421875 
Q 20.0625 -1.421875 12.78125 6.34375 
Q 5.515625 14.109375 5.515625 27.296875 
Q 5.515625 40.671875 12.859375 48.328125 
Q 20.21875 56 33.015625 56 
Q 37.15625 56 41.109375 55.140625 
Q 45.0625 54.296875 48.78125 52.59375 
z
" id="DejaVuSans-99"/>
      <path d="M 56.203125 29.59375 
L 56.203125 25.203125 
L 14.890625 25.203125 
Q 15.484375 15.921875 20.484375 11.0625 
Q 25.484375 6.203125 34.421875 6.203125 
Q 39.59375 6.203125 44.453125 7.46875 
Q 49.3125 8.734375 54.109375 11.28125 
L 54.109375 2.78125 
Q 49.265625 0.734375 44.1875 -0.34375 
Q 39.109375 -1.421875 33.890625 -1.421875 
Q 20.796875 -1.421875 13.15625 6.1875 
Q 5.515625 13.8125 5.515625 26.8125 
Q 5.515625 40.234375 12.765625 48.109375 
Q 20.015625 56 32.328125 56 
Q 43.359375 56 49.78125 48.890625 
Q 56.203125 41.796875 56.203125 29.59375 
z
M 47.21875 32.234375 
Q 47.125 39.59375 43.09375 43.984375 
Q 39.0625 48.390625 32.421875 48.390625 
Q 24.90625 48.390625 20.390625 44.140625 
Q 15.875 39.890625 15.1875 32.171875 
z
" id="DejaVuSans-101"/>
      <path d="M 40.578125 39.3125 
Q 47.65625 37.796875 51.625 33 
Q 55.609375 28.21875 55.609375 21.1875 
Q 55.609375 10.40625 48.1875 4.484375 
Q 40.765625 -1.421875 27.09375 -1.421875 
Q 22.515625 -1.421875 17.65625 -0.515625 
Q 12.796875 0.390625 7.625 2.203125 
L 7.625 11.71875 
Q 11.71875 9.328125 16.59375 8.109375 
Q 21.484375 6.890625 26.8125 6.890625 
Q 36.078125 6.890625 40.9375 10.546875 
Q 45.796875 14.203125 45.796875 21.1875 
Q 45.796875 27.640625 41.28125 31.265625 
Q 36.765625 34.90625 28.71875 34.90625 
L 20.21875 34.90625 
L 20.21875 43.015625 
L 29.109375 43.015625 
Q 36.375 43.015625 40.234375 45.921875 
Q 44.09375 48.828125 44.09375 54.296875 
Q 44.09375 59.90625 40.109375 62.90625 
Q 36.140625 65.921875 28.71875 65.921875 
Q 24.65625 65.921875 20.015625 65.03125 
Q 15.375 64.15625 9.8125 62.3125 
L 9.8125 71.09375 
Q 15.4375 72.65625 20.34375 73.4375 
Q 25.25 74.21875 29.59375 74.21875 
Q 40.828125 74.21875 47.359375 69.109375 
Q 53.90625 64.015625 53.90625 55.328125 
Q 53.90625 49.265625 50.4375 45.09375 
Q 46.96875 40.921875 40.578125 39.3125 
z
" id="DejaVuSans-51"/>
      <path d="M 18.3125 70.21875 
L 18.3125 54.6875 
L 36.8125 54.6875 
L 36.8125 47.703125 
L 18.3125 47.703125 
L 18.3125 18.015625 
Q 18.3125 11.328125 20.140625 9.421875 
Q 21.96875 7.515625 27.59375 7.515625 
L 36.8125 7.515625 
L 36.8125 0 
L 27.59375 0 
Q 17.1875 0 13.234375 3.875 
Q 9.28125 7.765625 9.28125 18.015625 
L 9.28125 47.703125 
L 2.6875 47.703125 
L 2.6875 54.6875 
L 9.28125 54.6875 
L 9.28125 70.21875 
z
" id="DejaVuSans-116"/>
      <path d="M 54.890625 33.015625 
L 54.890625 0 
L 45.90625 0 
L 45.90625 32.71875 
Q 45.90625 40.484375 42.875 44.328125 
Q 39.84375 48.1875 33.796875 48.1875 
Q 26.515625 48.1875 22.3125 43.546875 
Q 18.109375 38.921875 18.109375 30.90625 
L 18.109375 0 
L 9.078125 0 
L 9.078125 75.984375 
L 18.109375 75.984375 
L 18.109375 46.1875 
Q 21.34375 51.125 25.703125 53.5625 
Q 30.078125 56 35.796875 56 
Q 45.21875 56 50.046875 50.171875 
Q 54.890625 44.34375 54.890625 33.015625 
z
" id="DejaVuSans-104"/>
     </defs>
     <g style="fill:#555555;" transform="translate(316.255 417.79625)scale(0.12 -0.12)">
      <use xlink:href="#DejaVuSans-100"/>
      <use x="63.476562" xlink:href="#DejaVuSans-97"/>
      <use x="124.755859" xlink:href="#DejaVuSans-121"/>
      <use x="183.935547" xlink:href="#DejaVuSans-115"/>
      <use x="236.035156" xlink:href="#DejaVuSans-32"/>
      <use x="267.822266" xlink:href="#DejaVuSans-115"/>
      <use x="319.921875" xlink:href="#DejaVuSans-105"/>
      <use x="347.705078" xlink:href="#DejaVuSans-110"/>
      <use x="411.083984" xlink:href="#DejaVuSans-99"/>
      <use x="466.064453" xlink:href="#DejaVuSans-101"/>
      <use x="527.587891" xlink:href="#DejaVuSans-32"/>
      <use x="559.375" xlink:href="#DejaVuSans-51"/>
      <use x="622.998047" xlink:href="#DejaVuSans-32"/>
      <use x="654.785156" xlink:href="#DejaVuSans-100"/>
      <use x="718.261719" xlink:href="#DejaVuSans-101"/>
      <use x="779.785156" xlink:href="#DejaVuSans-97"/>
      <use x="841.064453" xlink:href="#DejaVuSans-116"/>
      <use x="880.273438" xlink:href="#DejaVuSans-104"/>
      <use x="943.652344" xlink:href="#DejaVuSans-115"/>
     </g>
    </g>
   </g>
   <g id="matplotlib.axis_2">
    <g id="ytick_1">
     <g id="line2d_17">
      <path clip-path="url(#pd265de48ed)" d="M 86.625 388 
L 665.375 388 
" style="fill:none;stroke:#ffffff;stroke-linecap:square;stroke-width:0.8;"/>
     </g>
     <g id="line2d_18">
      <defs>
       <path d="M 0 0 
L -3.5 0 
" id="m3ffb0f9fbf" style="stroke:#555555;stroke-width:0.8;"/>
      </defs>
      <g>
       <use style="fill:#555555;stroke:#555555;stroke-width:0.8;" x="86.625" xlink:href="#m3ffb0f9fbf" y="388"/>
      </g>
     </g>
     <g id="line2d_19">
      <defs>
       <path d="M 0 0 
L 3.5 0 
" id="m88b7665333" style="stroke:#555555;stroke-width:0.8;"/>
      </defs>
      <g>
       <use style="fill:#555555;stroke:#555555;stroke-width:0.8;" x="665.375" xlink:href="#m88b7665333" y="388"/>
      </g>
     </g>
     <g id="text_10">
      <!-- 0.01 -->
      <defs>
       <path d="M 10.6875 12.40625 
L 21 12.40625 
L 21 0 
L 10.6875 0 
z
" id="DejaVuSans-46"/>
      </defs>
      <g style="fill:#555555;" transform="translate(57.359375 391.799219)scale(0.1 -0.1)">
       <use xlink:href="#DejaVuSans-48"/>
       <use x="63.623047" xlink:href="#DejaVuSans-46"/>
       <use x="95.410156" xlink:href="#DejaVuSans-48"/>
       <use x="159.033203" xlink:href="#DejaVuSans-49"/>
      </g>
     </g>
     <g id="text_11">
      <!-- 0.01 -->
      <g style="fill:#555555;" transform="translate(672.375 391.799219)scale(0.1 -0.1)">
       <use xlink:href="#DejaVuSans-48"/>
       <use x="63.623047" xlink:href="#DejaVuSans-46"/>
       <use x="95.410156" xlink:href="#DejaVuSans-48"/>
       <use x="159.033203" xlink:href="#DejaVuSans-49"/>
      </g>
     </g>
    </g>
    <g id="ytick_2">
     <g id="line2d_20">
      <path clip-path="url(#pd265de48ed)" d="M 86.625 358.032584 
L 665.375 358.032584 
" style="fill:none;stroke:#ffffff;stroke-linecap:square;stroke-width:0.8;"/>
     </g>
     <g id="line2d_21">
      <g>
       <use style="fill:#555555;stroke:#555555;stroke-width:0.8;" x="86.625" xlink:href="#m3ffb0f9fbf" y="358.032584"/>
      </g>
     </g>
     <g id="line2d_22">
      <g>
       <use style="fill:#555555;stroke:#555555;stroke-width:0.8;" x="665.375" xlink:href="#m88b7665333" y="358.032584"/>
      </g>
     </g>
     <g id="text_12">
      <!-- 0.1 -->
      <g style="fill:#555555;" transform="translate(63.721875 361.831803)scale(0.1 -0.1)">
       <use xlink:href="#DejaVuSans-48"/>
       <use x="63.623047" xlink:href="#DejaVuSans-46"/>
       <use x="95.410156" xlink:href="#DejaVuSans-49"/>
      </g>
     </g>
     <g id="text_13">
      <!-- 0.1 -->
      <g style="fill:#555555;" transform="translate(672.375 361.831803)scale(0.1 -0.1)">
       <use xlink:href="#DejaVuSans-48"/>
       <use x="63.623047" xlink:href="#DejaVuSans-46"/>
       <use x="95.410156" xlink:href="#DejaVuSans-49"/>
      </g>
     </g>
    </g>
    <g id="ytick_3">
     <g id="line2d_23">
      <path clip-path="url(#pd265de48ed)" d="M 86.625 328.065168 
L 665.375 328.065168 
" style="fill:none;stroke:#ffffff;stroke-linecap:square;stroke-width:0.8;"/>
     </g>
     <g id="line2d_24">
      <g>
       <use style="fill:#555555;stroke:#555555;stroke-width:0.8;" x="86.625" xlink:href="#m3ffb0f9fbf" y="328.065168"/>
      </g>
     </g>
     <g id="line2d_25">
      <g>
       <use style="fill:#555555;stroke:#555555;stroke-width:0.8;" x="665.375" xlink:href="#m88b7665333" y="328.065168"/>
      </g>
     </g>
     <g id="text_14">
      <!-- 1 -->
      <g style="fill:#555555;" transform="translate(73.2625 331.864387)scale(0.1 -0.1)">
       <use xlink:href="#DejaVuSans-49"/>
      </g>
     </g>
     <g id="text_15">
      <!-- 1 -->
      <g style="fill:#555555;" transform="translate(672.375 331.864387)scale(0.1 -0.1)">
       <use xlink:href="#DejaVuSans-49"/>
      </g>
     </g>
    </g>
    <g id="ytick_4">
     <g id="line2d_26">
      <path clip-path="url(#pd265de48ed)" d="M 86.625 298.097752 
L 665.375 298.097752 
" style="fill:none;stroke:#ffffff;stroke-linecap:square;stroke-width:0.8;"/>
     </g>
     <g id="line2d_27">
      <g>
       <use style="fill:#555555;stroke:#555555;stroke-width:0.8;" x="86.625" xlink:href="#m3ffb0f9fbf" y="298.097752"/>
      </g>
     </g>
     <g id="line2d_28">
      <g>
       <use style="fill:#555555;stroke:#555555;stroke-width:0.8;" x="665.375" xlink:href="#m88b7665333" y="298.097752"/>
      </g>
     </g>
     <g id="text_16">
      <!-- 10 -->
      <g style="fill:#555555;" transform="translate(66.9 301.896971)scale(0.1 -0.1)">
       <use xlink:href="#DejaVuSans-49"/>
       <use x="63.623047" xlink:href="#DejaVuSans-48"/>
      </g>
     </g>
     <g id="text_17">
      <!-- 10 -->
      <g style="fill:#555555;" transform="translate(672.375 301.896971)scale(0.1 -0.1)">
       <use xlink:href="#DejaVuSans-49"/>
       <use x="63.623047" xlink:href="#DejaVuSans-48"/>
      </g>
     </g>
    </g>
    <g id="ytick_5">
     <g id="line2d_29">
      <path clip-path="url(#pd265de48ed)" d="M 86.625 268.130336 
L 665.375 268.130336 
" style="fill:none;stroke:#ffffff;stroke-linecap:square;stroke-width:0.8;"/>
     </g>
     <g id="line2d_30">
      <g>
       <use style="fill:#555555;stroke:#555555;stroke-width:0.8;" x="86.625" xlink:href="#m3ffb0f9fbf" y="268.130336"/>
      </g>
     </g>
     <g id="line2d_31">
      <g>
       <use style="fill:#555555;stroke:#555555;stroke-width:0.8;" x="665.375" xlink:href="#m88b7665333" y="268.130336"/>
      </g>
     </g>
     <g id="text_18">
      <!-- 100 -->
      <g style="fill:#555555;" transform="translate(60.5375 271.929555)scale(0.1 -0.1)">
       <use xlink:href="#DejaVuSans-49"/>
       <use x="63.623047" xlink:href="#DejaVuSans-48"/>
       <use x="127.246094" xlink:href="#DejaVuSans-48"/>
      </g>
     </g>
     <g id="text_19">
      <!-- 100 -->
      <g style="fill:#555555;" transform="translate(672.375 271.929555)scale(0.1 -0.1)">
       <use xlink:href="#DejaVuSans-49"/>
       <use x="63.623047" xlink:href="#DejaVuSans-48"/>
       <use x="127.246094" xlink:href="#DejaVuSans-48"/>
      </g>
     </g>
    </g>
    <g id="ytick_6">
     <g id="line2d_32">
      <path clip-path="url(#pd265de48ed)" d="M 86.625 238.16292 
L 665.375 238.16292 
" style="fill:none;stroke:#ffffff;stroke-linecap:square;stroke-width:0.8;"/>
     </g>
     <g id="line2d_33">
      <g>
       <use style="fill:#555555;stroke:#555555;stroke-width:0.8;" x="86.625" xlink:href="#m3ffb0f9fbf" y="238.16292"/>
      </g>
     </g>
     <g id="line2d_34">
      <g>
       <use style="fill:#555555;stroke:#555555;stroke-width:0.8;" x="665.375" xlink:href="#m88b7665333" y="238.16292"/>
      </g>
     </g>
     <g id="text_20">
      <!-- 1000 -->
      <g style="fill:#555555;" transform="translate(54.175 241.962139)scale(0.1 -0.1)">
       <use xlink:href="#DejaVuSans-49"/>
       <use x="63.623047" xlink:href="#DejaVuSans-48"/>
       <use x="127.246094" xlink:href="#DejaVuSans-48"/>
       <use x="190.869141" xlink:href="#DejaVuSans-48"/>
      </g>
     </g>
     <g id="text_21">
      <!-- 1000 -->
      <g style="fill:#555555;" transform="translate(672.375 241.962139)scale(0.1 -0.1)">
       <use xlink:href="#DejaVuSans-49"/>
       <use x="63.623047" xlink:href="#DejaVuSans-48"/>
       <use x="127.246094" xlink:href="#DejaVuSans-48"/>
       <use x="190.869141" xlink:href="#DejaVuSans-48"/>
      </g>
     </g>
    </g>
    <g id="ytick_7">
     <g id="line2d_35">
      <defs>
       <path d="M 0 0 
L -2 0 
" id="ma6a9c7d136" style="stroke:#555555;stroke-width:0.6;"/>
      </defs>
      <g>
       <use style="fill:#555555;stroke:#555555;stroke-width:0.6;" x="86.625" xlink:href="#ma6a9c7d136" y="378.978909"/>
      </g>
     </g>
     <g id="line2d_36">
      <defs>
       <path d="M 0 0 
L 2 0 
" id="m9864a5e534" style="stroke:#555555;stroke-width:0.6;"/>
      </defs>
      <g>
       <use style="fill:#555555;stroke:#555555;stroke-width:0.6;" x="665.375" xlink:href="#m9864a5e534" y="378.978909"/>
      </g>
     </g>
    </g>
    <g id="ytick_8">
     <g id="line2d_37">
      <g>
       <use style="fill:#555555;stroke:#555555;stroke-width:0.6;" x="86.625" xlink:href="#ma6a9c7d136" y="373.701909"/>
      </g>
     </g>
     <g id="line2d_38">
      <g>
       <use style="fill:#555555;stroke:#555555;stroke-width:0.6;" x="665.375" xlink:href="#m9864a5e534" y="373.701909"/>
      </g>
     </g>
    </g>
    <g id="ytick_9">
     <g id="line2d_39">
      <g>
       <use style="fill:#555555;stroke:#555555;stroke-width:0.6;" x="86.625" xlink:href="#ma6a9c7d136" y="369.957818"/>
      </g>
     </g>
     <g id="line2d_40">
      <g>
       <use style="fill:#555555;stroke:#555555;stroke-width:0.6;" x="665.375" xlink:href="#m9864a5e534" y="369.957818"/>
      </g>
     </g>
    </g>
    <g id="ytick_10">
     <g id="line2d_41">
      <g>
       <use style="fill:#555555;stroke:#555555;stroke-width:0.6;" x="86.625" xlink:href="#ma6a9c7d136" y="367.053675"/>
      </g>
     </g>
     <g id="line2d_42">
      <g>
       <use style="fill:#555555;stroke:#555555;stroke-width:0.6;" x="665.375" xlink:href="#m9864a5e534" y="367.053675"/>
      </g>
     </g>
    </g>
    <g id="ytick_11">
     <g id="line2d_43">
      <g>
       <use style="fill:#555555;stroke:#555555;stroke-width:0.6;" x="86.625" xlink:href="#ma6a9c7d136" y="364.680818"/>
      </g>
     </g>
     <g id="line2d_44">
      <g>
       <use style="fill:#555555;stroke:#555555;stroke-width:0.6;" x="665.375" xlink:href="#m9864a5e534" y="364.680818"/>
      </g>
     </g>
    </g>
    <g id="ytick_12">
     <g id="line2d_45">
      <g>
       <use style="fill:#555555;stroke:#555555;stroke-width:0.6;" x="86.625" xlink:href="#ma6a9c7d136" y="362.674595"/>
      </g>
     </g>
     <g id="line2d_46">
      <g>
       <use style="fill:#555555;stroke:#555555;stroke-width:0.6;" x="665.375" xlink:href="#m9864a5e534" y="362.674595"/>
      </g>
     </g>
    </g>
    <g id="ytick_13">
     <g id="line2d_47">
      <g>
       <use style="fill:#555555;stroke:#555555;stroke-width:0.6;" x="86.625" xlink:href="#ma6a9c7d136" y="360.936727"/>
      </g>
     </g>
     <g id="line2d_48">
      <g>
       <use style="fill:#555555;stroke:#555555;stroke-width:0.6;" x="665.375" xlink:href="#m9864a5e534" y="360.936727"/>
      </g>
     </g>
    </g>
    <g id="ytick_14">
     <g id="line2d_49">
      <g>
       <use style="fill:#555555;stroke:#555555;stroke-width:0.6;" x="86.625" xlink:href="#ma6a9c7d136" y="359.403818"/>
      </g>
     </g>
     <g id="line2d_50">
      <g>
       <use style="fill:#555555;stroke:#555555;stroke-width:0.6;" x="665.375" xlink:href="#m9864a5e534" y="359.403818"/>
      </g>
     </g>
    </g>
    <g id="ytick_15">
     <g id="line2d_51">
      <g>
       <use style="fill:#555555;stroke:#555555;stroke-width:0.6;" x="86.625" xlink:href="#ma6a9c7d136" y="349.011493"/>
      </g>
     </g>
     <g id="line2d_52">
      <g>
       <use style="fill:#555555;stroke:#555555;stroke-width:0.6;" x="665.375" xlink:href="#m9864a5e534" y="349.011493"/>
      </g>
     </g>
    </g>
    <g id="ytick_16">
     <g id="line2d_53">
      <g>
       <use style="fill:#555555;stroke:#555555;stroke-width:0.6;" x="86.625" xlink:href="#ma6a9c7d136" y="343.734493"/>
      </g>
     </g>
     <g id="line2d_54">
      <g>
       <use style="fill:#555555;stroke:#555555;stroke-width:0.6;" x="665.375" xlink:href="#m9864a5e534" y="343.734493"/>
      </g>
     </g>
    </g>
    <g id="ytick_17">
     <g id="line2d_55">
      <g>
       <use style="fill:#555555;stroke:#555555;stroke-width:0.6;" x="86.625" xlink:href="#ma6a9c7d136" y="339.990402"/>
      </g>
     </g>
     <g id="line2d_56">
      <g>
       <use style="fill:#555555;stroke:#555555;stroke-width:0.6;" x="665.375" xlink:href="#m9864a5e534" y="339.990402"/>
      </g>
     </g>
    </g>
    <g id="ytick_18">
     <g id="line2d_57">
      <g>
       <use style="fill:#555555;stroke:#555555;stroke-width:0.6;" x="86.625" xlink:href="#ma6a9c7d136" y="337.086259"/>
      </g>
     </g>
     <g id="line2d_58">
      <g>
       <use style="fill:#555555;stroke:#555555;stroke-width:0.6;" x="665.375" xlink:href="#m9864a5e534" y="337.086259"/>
      </g>
     </g>
    </g>
    <g id="ytick_19">
     <g id="line2d_59">
      <g>
       <use style="fill:#555555;stroke:#555555;stroke-width:0.6;" x="86.625" xlink:href="#ma6a9c7d136" y="334.713402"/>
      </g>
     </g>
     <g id="line2d_60">
      <g>
       <use style="fill:#555555;stroke:#555555;stroke-width:0.6;" x="665.375" xlink:href="#m9864a5e534" y="334.713402"/>
      </g>
     </g>
    </g>
    <g id="ytick_20">
     <g id="line2d_61">
      <g>
       <use style="fill:#555555;stroke:#555555;stroke-width:0.6;" x="86.625" xlink:href="#ma6a9c7d136" y="332.70718"/>
      </g>
     </g>
     <g id="line2d_62">
      <g>
       <use style="fill:#555555;stroke:#555555;stroke-width:0.6;" x="665.375" xlink:href="#m9864a5e534" y="332.70718"/>
      </g>
     </g>
    </g>
    <g id="ytick_21">
     <g id="line2d_63">
      <g>
       <use style="fill:#555555;stroke:#555555;stroke-width:0.6;" x="86.625" xlink:href="#ma6a9c7d136" y="330.969311"/>
      </g>
     </g>
     <g id="line2d_64">
      <g>
       <use style="fill:#555555;stroke:#555555;stroke-width:0.6;" x="665.375" xlink:href="#m9864a5e534" y="330.969311"/>
      </g>
     </g>
    </g>
    <g id="ytick_22">
     <g id="line2d_65">
      <g>
       <use style="fill:#555555;stroke:#555555;stroke-width:0.6;" x="86.625" xlink:href="#ma6a9c7d136" y="329.436402"/>
      </g>
     </g>
     <g id="line2d_66">
      <g>
       <use style="fill:#555555;stroke:#555555;stroke-width:0.6;" x="665.375" xlink:href="#m9864a5e534" y="329.436402"/>
      </g>
     </g>
    </g>
    <g id="ytick_23">
     <g id="line2d_67">
      <g>
       <use style="fill:#555555;stroke:#555555;stroke-width:0.6;" x="86.625" xlink:href="#ma6a9c7d136" y="319.044077"/>
      </g>
     </g>
     <g id="line2d_68">
      <g>
       <use style="fill:#555555;stroke:#555555;stroke-width:0.6;" x="665.375" xlink:href="#m9864a5e534" y="319.044077"/>
      </g>
     </g>
    </g>
    <g id="ytick_24">
     <g id="line2d_69">
      <g>
       <use style="fill:#555555;stroke:#555555;stroke-width:0.6;" x="86.625" xlink:href="#ma6a9c7d136" y="313.767077"/>
      </g>
     </g>
     <g id="line2d_70">
      <g>
       <use style="fill:#555555;stroke:#555555;stroke-width:0.6;" x="665.375" xlink:href="#m9864a5e534" y="313.767077"/>
      </g>
     </g>
    </g>
    <g id="ytick_25">
     <g id="line2d_71">
      <g>
       <use style="fill:#555555;stroke:#555555;stroke-width:0.6;" x="86.625" xlink:href="#ma6a9c7d136" y="310.022986"/>
      </g>
     </g>
     <g id="line2d_72">
      <g>
       <use style="fill:#555555;stroke:#555555;stroke-width:0.6;" x="665.375" xlink:href="#m9864a5e534" y="310.022986"/>
      </g>
     </g>
    </g>
    <g id="ytick_26">
     <g id="line2d_73">
      <g>
       <use style="fill:#555555;stroke:#555555;stroke-width:0.6;" x="86.625" xlink:href="#ma6a9c7d136" y="307.118843"/>
      </g>
     </g>
     <g id="line2d_74">
      <g>
       <use style="fill:#555555;stroke:#555555;stroke-width:0.6;" x="665.375" xlink:href="#m9864a5e534" y="307.118843"/>
      </g>
     </g>
    </g>
    <g id="ytick_27">
     <g id="line2d_75">
      <g>
       <use style="fill:#555555;stroke:#555555;stroke-width:0.6;" x="86.625" xlink:href="#ma6a9c7d136" y="304.745986"/>
      </g>
     </g>
     <g id="line2d_76">
      <g>
       <use style="fill:#555555;stroke:#555555;stroke-width:0.6;" x="665.375" xlink:href="#m9864a5e534" y="304.745986"/>
      </g>
     </g>
    </g>
    <g id="ytick_28">
     <g id="line2d_77">
      <g>
       <use style="fill:#555555;stroke:#555555;stroke-width:0.6;" x="86.625" xlink:href="#ma6a9c7d136" y="302.739764"/>
      </g>
     </g>
     <g id="line2d_78">
      <g>
       <use style="fill:#555555;stroke:#555555;stroke-width:0.6;" x="665.375" xlink:href="#m9864a5e534" y="302.739764"/>
      </g>
     </g>
    </g>
    <g id="ytick_29">
     <g id="line2d_79">
      <g>
       <use style="fill:#555555;stroke:#555555;stroke-width:0.6;" x="86.625" xlink:href="#ma6a9c7d136" y="301.001895"/>
      </g>
     </g>
     <g id="line2d_80">
      <g>
       <use style="fill:#555555;stroke:#555555;stroke-width:0.6;" x="665.375" xlink:href="#m9864a5e534" y="301.001895"/>
      </g>
     </g>
    </g>
    <g id="ytick_30">
     <g id="line2d_81">
      <g>
       <use style="fill:#555555;stroke:#555555;stroke-width:0.6;" x="86.625" xlink:href="#ma6a9c7d136" y="299.468986"/>
      </g>
     </g>
     <g id="line2d_82">
      <g>
       <use style="fill:#555555;stroke:#555555;stroke-width:0.6;" x="665.375" xlink:href="#m9864a5e534" y="299.468986"/>
      </g>
     </g>
    </g>
    <g id="ytick_31">
     <g id="line2d_83">
      <g>
       <use style="fill:#555555;stroke:#555555;stroke-width:0.6;" x="86.625" xlink:href="#ma6a9c7d136" y="289.076661"/>
      </g>
     </g>
     <g id="line2d_84">
      <g>
       <use style="fill:#555555;stroke:#555555;stroke-width:0.6;" x="665.375" xlink:href="#m9864a5e534" y="289.076661"/>
      </g>
     </g>
    </g>
    <g id="ytick_32">
     <g id="line2d_85">
      <g>
       <use style="fill:#555555;stroke:#555555;stroke-width:0.6;" x="86.625" xlink:href="#ma6a9c7d136" y="283.799661"/>
      </g>
     </g>
     <g id="line2d_86">
      <g>
       <use style="fill:#555555;stroke:#555555;stroke-width:0.6;" x="665.375" xlink:href="#m9864a5e534" y="283.799661"/>
      </g>
     </g>
    </g>
    <g id="ytick_33">
     <g id="line2d_87">
      <g>
       <use style="fill:#555555;stroke:#555555;stroke-width:0.6;" x="86.625" xlink:href="#ma6a9c7d136" y="280.05557"/>
      </g>
     </g>
     <g id="line2d_88">
      <g>
       <use style="fill:#555555;stroke:#555555;stroke-width:0.6;" x="665.375" xlink:href="#m9864a5e534" y="280.05557"/>
      </g>
     </g>
    </g>
    <g id="ytick_34">
     <g id="line2d_89">
      <g>
       <use style="fill:#555555;stroke:#555555;stroke-width:0.6;" x="86.625" xlink:href="#ma6a9c7d136" y="277.151427"/>
      </g>
     </g>
     <g id="line2d_90">
      <g>
       <use style="fill:#555555;stroke:#555555;stroke-width:0.6;" x="665.375" xlink:href="#m9864a5e534" y="277.151427"/>
      </g>
     </g>
    </g>
    <g id="ytick_35">
     <g id="line2d_91">
      <g>
       <use style="fill:#555555;stroke:#555555;stroke-width:0.6;" x="86.625" xlink:href="#ma6a9c7d136" y="274.77857"/>
      </g>
     </g>
     <g id="line2d_92">
      <g>
       <use style="fill:#555555;stroke:#555555;stroke-width:0.6;" x="665.375" xlink:href="#m9864a5e534" y="274.77857"/>
      </g>
     </g>
    </g>
    <g id="ytick_36">
     <g id="line2d_93">
      <g>
       <use style="fill:#555555;stroke:#555555;stroke-width:0.6;" x="86.625" xlink:href="#ma6a9c7d136" y="272.772348"/>
      </g>
     </g>
     <g id="line2d_94">
      <g>
       <use style="fill:#555555;stroke:#555555;stroke-width:0.6;" x="665.375" xlink:href="#m9864a5e534" y="272.772348"/>
      </g>
     </g>
    </g>
    <g id="ytick_37">
     <g id="line2d_95">
      <g>
       <use style="fill:#555555;stroke:#555555;stroke-width:0.6;" x="86.625" xlink:href="#ma6a9c7d136" y="271.034479"/>
      </g>
     </g>
     <g id="line2d_96">
      <g>
       <use style="fill:#555555;stroke:#555555;stroke-width:0.6;" x="665.375" xlink:href="#m9864a5e534" y="271.034479"/>
      </g>
     </g>
    </g>
    <g id="ytick_38">
     <g id="line2d_97">
      <g>
       <use style="fill:#555555;stroke:#555555;stroke-width:0.6;" x="86.625" xlink:href="#ma6a9c7d136" y="269.50157"/>
      </g>
     </g>
     <g id="line2d_98">
      <g>
       <use style="fill:#555555;stroke:#555555;stroke-width:0.6;" x="665.375" xlink:href="#m9864a5e534" y="269.50157"/>
      </g>
     </g>
    </g>
    <g id="ytick_39">
     <g id="line2d_99">
      <g>
       <use style="fill:#555555;stroke:#555555;stroke-width:0.6;" x="86.625" xlink:href="#ma6a9c7d136" y="259.109245"/>
      </g>
     </g>
     <g id="line2d_100">
      <g>
       <use style="fill:#555555;stroke:#555555;stroke-width:0.6;" x="665.375" xlink:href="#m9864a5e534" y="259.109245"/>
      </g>
     </g>
    </g>
    <g id="ytick_40">
     <g id="line2d_101">
      <g>
       <use style="fill:#555555;stroke:#555555;stroke-width:0.6;" x="86.625" xlink:href="#ma6a9c7d136" y="253.832245"/>
      </g>
     </g>
     <g id="line2d_102">
      <g>
       <use style="fill:#555555;stroke:#555555;stroke-width:0.6;" x="665.375" xlink:href="#m9864a5e534" y="253.832245"/>
      </g>
     </g>
    </g>
    <g id="ytick_41">
     <g id="line2d_103">
      <g>
       <use style="fill:#555555;stroke:#555555;stroke-width:0.6;" x="86.625" xlink:href="#ma6a9c7d136" y="250.088154"/>
      </g>
     </g>
     <g id="line2d_104">
      <g>
       <use style="fill:#555555;stroke:#555555;stroke-width:0.6;" x="665.375" xlink:href="#m9864a5e534" y="250.088154"/>
      </g>
     </g>
    </g>
    <g id="ytick_42">
     <g id="line2d_105">
      <g>
       <use style="fill:#555555;stroke:#555555;stroke-width:0.6;" x="86.625" xlink:href="#ma6a9c7d136" y="247.184011"/>
      </g>
     </g>
     <g id="line2d_106">
      <g>
       <use style="fill:#555555;stroke:#555555;stroke-width:0.6;" x="665.375" xlink:href="#m9864a5e534" y="247.184011"/>
      </g>
     </g>
    </g>
    <g id="ytick_43">
     <g id="line2d_107">
      <g>
       <use style="fill:#555555;stroke:#555555;stroke-width:0.6;" x="86.625" xlink:href="#ma6a9c7d136" y="244.811154"/>
      </g>
     </g>
     <g id="line2d_108">
      <g>
       <use style="fill:#555555;stroke:#555555;stroke-width:0.6;" x="665.375" xlink:href="#m9864a5e534" y="244.811154"/>
      </g>
     </g>
    </g>
    <g id="ytick_44">
     <g id="line2d_109">
      <g>
       <use style="fill:#555555;stroke:#555555;stroke-width:0.6;" x="86.625" xlink:href="#ma6a9c7d136" y="242.804932"/>
      </g>
     </g>
     <g id="line2d_110">
      <g>
       <use style="fill:#555555;stroke:#555555;stroke-width:0.6;" x="665.375" xlink:href="#m9864a5e534" y="242.804932"/>
      </g>
     </g>
    </g>
    <g id="ytick_45">
     <g id="line2d_111">
      <g>
       <use style="fill:#555555;stroke:#555555;stroke-width:0.6;" x="86.625" xlink:href="#ma6a9c7d136" y="241.067063"/>
      </g>
     </g>
     <g id="line2d_112">
      <g>
       <use style="fill:#555555;stroke:#555555;stroke-width:0.6;" x="665.375" xlink:href="#m9864a5e534" y="241.067063"/>
      </g>
     </g>
    </g>
    <g id="ytick_46">
     <g id="line2d_113">
      <g>
       <use style="fill:#555555;stroke:#555555;stroke-width:0.6;" x="86.625" xlink:href="#ma6a9c7d136" y="239.534154"/>
      </g>
     </g>
     <g id="line2d_114">
      <g>
       <use style="fill:#555555;stroke:#555555;stroke-width:0.6;" x="665.375" xlink:href="#m9864a5e534" y="239.534154"/>
      </g>
     </g>
    </g>
    <g id="ytick_47">
     <g id="line2d_115">
      <g>
       <use style="fill:#555555;stroke:#555555;stroke-width:0.6;" x="86.625" xlink:href="#ma6a9c7d136" y="229.141829"/>
      </g>
     </g>
     <g id="line2d_116">
      <g>
       <use style="fill:#555555;stroke:#555555;stroke-width:0.6;" x="665.375" xlink:href="#m9864a5e534" y="229.141829"/>
      </g>
     </g>
    </g>
    <g id="ytick_48">
     <g id="line2d_117">
      <g>
       <use style="fill:#555555;stroke:#555555;stroke-width:0.6;" x="86.625" xlink:href="#ma6a9c7d136" y="223.864829"/>
      </g>
     </g>
     <g id="line2d_118">
      <g>
       <use style="fill:#555555;stroke:#555555;stroke-width:0.6;" x="665.375" xlink:href="#m9864a5e534" y="223.864829"/>
      </g>
     </g>
    </g>
    <g id="text_22">
     <!-- daily new deaths -->
     <defs>
      <path d="M 9.421875 75.984375 
L 18.40625 75.984375 
L 18.40625 0 
L 9.421875 0 
z
" id="DejaVuSans-108"/>
      <path d="M 4.203125 54.6875 
L 13.1875 54.6875 
L 24.421875 12.015625 
L 35.59375 54.6875 
L 46.1875 54.6875 
L 57.421875 12.015625 
L 68.609375 54.6875 
L 77.59375 54.6875 
L 63.28125 0 
L 52.6875 0 
L 40.921875 44.828125 
L 29.109375 0 
L 18.5 0 
z
" id="DejaVuSans-119"/>
     </defs>
     <g style="fill:#555555;" transform="translate(34.242 355.733545)rotate(-90)scale(0.12 -0.12)">
      <use xlink:href="#DejaVuSans-100"/>
      <use x="63.476562" xlink:href="#DejaVuSans-97"/>
      <use x="124.755859" xlink:href="#DejaVuSans-105"/>
      <use x="152.539062" xlink:href="#DejaVuSans-108"/>
      <use x="180.322266" xlink:href="#DejaVuSans-121"/>
      <use x="239.501953" xlink:href="#DejaVuSans-32"/>
      <use x="271.289062" xlink:href="#DejaVuSans-110"/>
      <use x="334.667969" xlink:href="#DejaVuSans-101"/>
      <use x="396.191406" xlink:href="#DejaVuSans-119"/>
      <use x="477.978516" xlink:href="#DejaVuSans-32"/>
      <use x="509.765625" xlink:href="#DejaVuSans-100"/>
      <use x="573.242188" xlink:href="#DejaVuSans-101"/>
      <use x="634.765625" xlink:href="#DejaVuSans-97"/>
      <use x="696.044922" xlink:href="#DejaVuSans-116"/>
      <use x="735.253906" xlink:href="#DejaVuSans-104"/>
      <use x="798.632812" xlink:href="#DejaVuSans-115"/>
     </g>
     <!-- (rolling 7-day mean) -->
     <defs>
      <path d="M 31 75.875 
Q 24.46875 64.65625 21.28125 53.65625 
Q 18.109375 42.671875 18.109375 31.390625 
Q 18.109375 20.125 21.3125 9.0625 
Q 24.515625 -2 31 -13.1875 
L 23.1875 -13.1875 
Q 15.875 -1.703125 12.234375 9.375 
Q 8.59375 20.453125 8.59375 31.390625 
Q 8.59375 42.28125 12.203125 53.3125 
Q 15.828125 64.359375 23.1875 75.875 
z
" id="DejaVuSans-40"/>
      <path d="M 41.109375 46.296875 
Q 39.59375 47.171875 37.8125 47.578125 
Q 36.03125 48 33.890625 48 
Q 26.265625 48 22.1875 43.046875 
Q 18.109375 38.09375 18.109375 28.8125 
L 18.109375 0 
L 9.078125 0 
L 9.078125 54.6875 
L 18.109375 54.6875 
L 18.109375 46.1875 
Q 20.953125 51.171875 25.484375 53.578125 
Q 30.03125 56 36.53125 56 
Q 37.453125 56 38.578125 55.875 
Q 39.703125 55.765625 41.0625 55.515625 
z
" id="DejaVuSans-114"/>
      <path d="M 30.609375 48.390625 
Q 23.390625 48.390625 19.1875 42.75 
Q 14.984375 37.109375 14.984375 27.296875 
Q 14.984375 17.484375 19.15625 11.84375 
Q 23.34375 6.203125 30.609375 6.203125 
Q 37.796875 6.203125 41.984375 11.859375 
Q 46.1875 17.53125 46.1875 27.296875 
Q 46.1875 37.015625 41.984375 42.703125 
Q 37.796875 48.390625 30.609375 48.390625 
z
M 30.609375 56 
Q 42.328125 56 49.015625 48.375 
Q 55.71875 40.765625 55.71875 27.296875 
Q 55.71875 13.875 49.015625 6.21875 
Q 42.328125 -1.421875 30.609375 -1.421875 
Q 18.84375 -1.421875 12.171875 6.21875 
Q 5.515625 13.875 5.515625 27.296875 
Q 5.515625 40.765625 12.171875 48.375 
Q 18.84375 56 30.609375 56 
z
" id="DejaVuSans-111"/>
      <path d="M 45.40625 27.984375 
Q 45.40625 37.75 41.375 43.109375 
Q 37.359375 48.484375 30.078125 48.484375 
Q 22.859375 48.484375 18.828125 43.109375 
Q 14.796875 37.75 14.796875 27.984375 
Q 14.796875 18.265625 18.828125 12.890625 
Q 22.859375 7.515625 30.078125 7.515625 
Q 37.359375 7.515625 41.375 12.890625 
Q 45.40625 18.265625 45.40625 27.984375 
z
M 54.390625 6.78125 
Q 54.390625 -7.171875 48.1875 -13.984375 
Q 42 -20.796875 29.203125 -20.796875 
Q 24.46875 -20.796875 20.265625 -20.09375 
Q 16.0625 -19.390625 12.109375 -17.921875 
L 12.109375 -9.1875 
Q 16.0625 -11.328125 19.921875 -12.34375 
Q 23.78125 -13.375 27.78125 -13.375 
Q 36.625 -13.375 41.015625 -8.765625 
Q 45.40625 -4.15625 45.40625 5.171875 
L 45.40625 9.625 
Q 42.625 4.78125 38.28125 2.390625 
Q 33.9375 0 27.875 0 
Q 17.828125 0 11.671875 7.65625 
Q 5.515625 15.328125 5.515625 27.984375 
Q 5.515625 40.671875 11.671875 48.328125 
Q 17.828125 56 27.875 56 
Q 33.9375 56 38.28125 53.609375 
Q 42.625 51.21875 45.40625 46.390625 
L 45.40625 54.6875 
L 54.390625 54.6875 
z
" id="DejaVuSans-103"/>
      <path d="M 4.890625 31.390625 
L 31.203125 31.390625 
L 31.203125 23.390625 
L 4.890625 23.390625 
z
" id="DejaVuSans-45"/>
      <path d="M 52 44.1875 
Q 55.375 50.25 60.0625 53.125 
Q 64.75 56 71.09375 56 
Q 79.640625 56 84.28125 50.015625 
Q 88.921875 44.046875 88.921875 33.015625 
L 88.921875 0 
L 79.890625 0 
L 79.890625 32.71875 
Q 79.890625 40.578125 77.09375 44.375 
Q 74.3125 48.1875 68.609375 48.1875 
Q 61.625 48.1875 57.5625 43.546875 
Q 53.515625 38.921875 53.515625 30.90625 
L 53.515625 0 
L 44.484375 0 
L 44.484375 32.71875 
Q 44.484375 40.625 41.703125 44.40625 
Q 38.921875 48.1875 33.109375 48.1875 
Q 26.21875 48.1875 22.15625 43.53125 
Q 18.109375 38.875 18.109375 30.90625 
L 18.109375 0 
L 9.078125 0 
L 9.078125 54.6875 
L 18.109375 54.6875 
L 18.109375 46.1875 
Q 21.1875 51.21875 25.484375 53.609375 
Q 29.78125 56 35.6875 56 
Q 41.65625 56 45.828125 52.96875 
Q 50 49.953125 52 44.1875 
z
" id="DejaVuSans-109"/>
      <path d="M 8.015625 75.875 
L 15.828125 75.875 
Q 23.140625 64.359375 26.78125 53.3125 
Q 30.421875 42.28125 30.421875 31.390625 
Q 30.421875 20.453125 26.78125 9.375 
Q 23.140625 -1.703125 15.828125 -13.1875 
L 8.015625 -13.1875 
Q 14.5 -2 17.703125 9.0625 
Q 20.90625 20.125 20.90625 31.390625 
Q 20.90625 42.671875 17.703125 53.65625 
Q 14.5 64.65625 8.015625 75.875 
z
" id="DejaVuSans-41"/>
     </defs>
     <g style="fill:#555555;" transform="translate(47.679375 365.835108)rotate(-90)scale(0.12 -0.12)">
      <use xlink:href="#DejaVuSans-40"/>
      <use x="39.013672" xlink:href="#DejaVuSans-114"/>
      <use x="77.876953" xlink:href="#DejaVuSans-111"/>
      <use x="139.058594" xlink:href="#DejaVuSans-108"/>
      <use x="166.841797" xlink:href="#DejaVuSans-108"/>
      <use x="194.625" xlink:href="#DejaVuSans-105"/>
      <use x="222.408203" xlink:href="#DejaVuSans-110"/>
      <use x="285.787109" xlink:href="#DejaVuSans-103"/>
      <use x="349.263672" xlink:href="#DejaVuSans-32"/>
      <use x="381.050781" xlink:href="#DejaVuSans-55"/>
      <use x="444.673828" xlink:href="#DejaVuSans-45"/>
      <use x="480.757812" xlink:href="#DejaVuSans-100"/>
      <use x="544.234375" xlink:href="#DejaVuSans-97"/>
      <use x="605.513672" xlink:href="#DejaVuSans-121"/>
      <use x="664.693359" xlink:href="#DejaVuSans-32"/>
      <use x="696.480469" xlink:href="#DejaVuSans-109"/>
      <use x="793.892578" xlink:href="#DejaVuSans-101"/>
      <use x="855.416016" xlink:href="#DejaVuSans-97"/>
      <use x="916.695312" xlink:href="#DejaVuSans-110"/>
      <use x="980.074219" xlink:href="#DejaVuSans-41"/>
     </g>
    </g>
   </g>
   <g id="line2d_119">
    <path clip-path="url(#pd265de48ed)" d="M 51.735303 433 
L 51.743031 353.390573 
L 54.649862 344.369481 
L 57.556693 344.369481 
L 60.463523 330.07139 
L 63.370354 326.327299 
L 66.277185 323.423157 
L 69.184016 321.050299 
L 72.090846 321.050299 
L 74.997677 322.182725 
L 77.904508 319.044077 
L 80.811339 322.182725 
L 83.718169 314.402065 
L 86.625 315.773299 
L 89.531831 312.583108 
L 92.438661 313.161634 
L 95.345492 309.566283 
L 98.252323 310.022986 
L 101.159154 307.884634 
L 104.065984 311.497923 
L 106.972815 310.987478 
L 109.879646 311.497923 
L 112.786477 308.698316 
L 115.693307 312.029208 
L 118.600138 310.022986 
L 121.506969 311.497923 
L 124.4138 313.161634 
L 127.32063 310.496299 
L 130.227461 312.029208 
L 133.134292 311.497923 
L 136.041123 310.022986 
L 138.947953 309.125065 
L 141.854784 306.752208 
L 144.761615 306.752208 
L 150.575276 304.745986 
L 153.482107 305.380974 
L 156.388938 303.848065 
L 159.295768 304.745986 
L 162.202599 305.059608 
L 165.10943 303.28212 
L 168.016261 304.745986 
L 170.923091 305.710478 
L 173.829922 306.04854 
L 176.736753 307.118843 
L 182.550414 308.698316 
L 185.457245 310.022986 
L 188.364076 309.125065 
L 191.270907 307.118843 
L 194.177737 307.118843 
L 197.084568 307.496107 
L 199.991399 307.496107 
L 202.89823 308.698316 
L 205.80506 308.698316 
L 208.711891 309.125065 
L 211.618722 311.497923 
L 214.525552 311.497923 
L 217.432383 313.161634 
L 226.152875 315.069631 
L 229.059706 318.146157 
L 231.966537 320.008569 
L 234.873368 322.182725 
L 237.780198 323.423157 
L 240.687029 323.423157 
L 243.59386 324.79439 
L 246.500691 326.327299 
L 249.407521 324.79439 
L 252.314352 324.79439 
L 255.221183 326.327299 
L 258.128014 323.423157 
L 261.034844 326.327299 
L 263.941675 324.79439 
L 266.848506 323.423157 
L 269.755337 324.79439 
L 272.662167 324.79439 
L 275.568998 326.327299 
L 278.475829 330.07139 
L 281.382659 330.07139 
L 284.28949 335.34839 
L 295.916813 335.34839 
L 298.823644 330.07139 
L 301.730475 330.07139 
L 304.637305 328.065168 
L 307.544136 332.444248 
L 310.450967 335.34839 
L 324.985121 335.34839 
L 327.891951 330.07139 
L 330.798782 330.07139 
L 333.705613 332.444248 
L 336.612443 332.444248 
L 339.519274 339.092481 
L 342.426105 335.34839 
L 345.332936 335.34839 
L 348.239766 339.092481 
L 351.146597 335.34839 
L 359.867089 335.34839 
L 362.77392 339.092481 
L 365.680751 344.369481 
L 368.587582 344.369481 
L 371.494412 339.092481 
L 374.401243 339.092481 
L 377.308074 335.34839 
L 388.935397 335.34839 
L 391.842228 339.092481 
L 394.749058 335.34839 
L 397.655889 339.092481 
L 409.283212 339.092481 
L 412.190043 344.369481 
L 426.724196 344.369481 
L 429.631027 353.390573 
L 432.537858 353.390573 
L 432.545586 433 
M 441.250621 433 
L 441.25835 353.390573 
L 444.165181 353.390573 
L 447.072012 344.369481 
L 449.978842 339.092481 
L 452.885673 339.092481 
L 455.792504 332.444248 
L 458.699335 330.07139 
L 461.606165 332.444248 
L 464.512996 330.07139 
L 467.419827 332.444248 
L 470.326657 335.34839 
L 476.140319 335.34839 
L 479.04715 332.444248 
L 481.95398 330.07139 
L 484.860811 330.07139 
L 487.767642 328.065168 
L 490.674473 328.065168 
L 493.581303 326.327299 
L 496.488134 330.07139 
L 499.394965 332.444248 
L 502.301796 335.34839 
L 505.208626 339.092481 
L 508.115457 339.092481 
L 511.022288 335.34839 
L 513.929119 339.092481 
L 525.556441 339.092481 
L 528.463272 344.369481 
L 531.370103 353.390573 
L 534.276934 344.369481 
L 540.090595 344.369481 
L 542.997426 339.092481 
L 545.904257 335.34839 
L 551.717918 335.34839 
L 554.624749 339.092481 
L 557.53158 339.092481 
L 560.43841 344.369481 
L 563.345241 353.390573 
L 563.35297 433 
M 572.058005 433 
L 572.065733 353.390573 
L 574.972564 353.390573 
L 580.786226 335.34839 
L 592.413548 335.34839 
L 595.320379 330.07139 
L 598.22721 330.07139 
L 601.134041 328.065168 
L 604.040871 321.050299 
L 606.947702 319.044077 
L 609.854533 318.146157 
L 612.761364 319.044077 
L 615.668194 319.044077 
L 618.575025 317.306208 
L 627.295517 317.306208 
L 627.295517 317.306208 
" style="fill:none;stroke:#e24a33;stroke-linecap:square;stroke-width:4;"/>
   </g>
   <g id="line2d_120">
    <defs>
     <path d="M 0 3 
C 0.795609 3 1.55874 2.683901 2.12132 2.12132 
C 2.683901 1.55874 3 0.795609 3 0 
C 3 -0.795609 2.683901 -1.55874 2.12132 -2.12132 
C 1.55874 -2.683901 0.795609 -3 0 -3 
C -0.795609 -3 -1.55874 -2.683901 -2.12132 -2.12132 
C -2.683901 -1.55874 -3 -0.795609 -3 0 
C -3 0.795609 -2.683901 1.55874 -2.12132 2.12132 
C -1.55874 2.683901 -0.795609 3 0 3 
z
" id="m863a070477" style="stroke:#e24a33;"/>
    </defs>
    <g clip-path="url(#pd265de48ed)">
     <use style="fill:#e24a33;stroke:#e24a33;" x="627.295517" xlink:href="#m863a070477" y="317.306208"/>
    </g>
   </g>
   <g id="line2d_121">
    <path clip-path="url(#pd265de48ed)" d="M 66.268583 433 
L 66.277185 344.369481 
L 69.184016 344.369481 
L 72.090846 339.092481 
L 74.997677 339.092481 
L 77.904508 328.065168 
L 80.811339 324.79439 
L 83.718169 322.182725 
L 86.625 318.146157 
L 89.531831 313.161634 
L 92.438661 311.497923 
L 95.345492 305.059608 
L 98.252323 300.103974 
L 101.159154 297.199832 
L 104.065984 295.880761 
L 106.972815 292.697389 
L 109.879646 289.744227 
L 112.786477 285.9513 
L 115.693307 283.017944 
L 118.600138 280.290075 
L 124.4138 274.202739 
L 130.227461 269.75186 
L 133.134292 267.872611 
L 136.041123 265.757479 
L 138.947953 264.390894 
L 141.854784 263.345945 
L 144.761615 262.840947 
L 147.668446 261.500708 
L 150.575276 260.678227 
L 153.482107 258.842409 
L 156.388938 258.211325 
L 159.295768 258.280922 
L 162.202599 260.154075 
L 165.10943 258.760698 
L 168.016261 259.258841 
L 170.923091 260.29587 
L 173.829922 258.607742 
L 176.736753 258.697498 
L 182.550414 256.407465 
L 185.457245 257.667551 
L 188.364076 256.829683 
L 191.270907 256.287167 
L 194.177737 258.430064 
L 197.084568 258.013281 
L 199.991399 259.035087 
L 202.89823 258.94298 
L 205.80506 259.202541 
L 208.711891 260.439228 
L 211.618722 260.265355 
L 214.525552 261.246269 
L 217.432383 262.87815 
L 220.339214 263.804486 
L 226.152875 265.004975 
L 229.059706 265.345732 
L 231.966537 268.526753 
L 234.873368 266.262967 
L 237.780198 266.906817 
L 240.687029 266.822471 
L 249.407521 268.739321 
L 252.314352 267.319471 
L 255.221183 270.443833 
L 258.128014 272.719335 
L 261.034844 275.843562 
L 266.848506 275.643332 
L 269.755337 277.452358 
L 272.662167 277.414359 
L 275.568998 279.916869 
L 278.475829 278.358436 
L 281.382659 277.877839 
L 284.28949 278.196257 
L 287.196321 278.277094 
L 293.009982 279.554066 
L 295.916813 279.870961 
L 298.823644 280.6743 
L 301.730475 280.242835 
L 304.637305 280.577175 
L 310.450967 281.740426 
L 313.357798 285.033897 
L 316.264628 286.247101 
L 319.171459 286.938309 
L 324.985121 288.800721 
L 327.891951 288.619959 
L 330.798782 289.076661 
L 333.705613 286.322114 
L 336.612443 288.178741 
L 342.426105 290.551598 
L 348.239766 291.524101 
L 351.146597 291.980804 
L 354.053428 295.724895 
L 356.960259 293.586543 
L 359.867089 293.071042 
L 362.77392 292.945295 
L 365.680751 293.198016 
L 368.587582 294.261029 
L 371.494412 294.540926 
L 374.401243 294.261029 
L 377.308074 296.85732 
L 380.214905 299.062244 
L 383.121735 296.689387 
L 386.028566 297.551601 
L 388.935397 297.551601 
L 391.842228 296.85732 
L 394.749058 297.027449 
L 397.655889 298.667829 
L 400.56272 298.863543 
L 403.46955 303.848065 
L 406.376381 301.966387 
L 409.283212 301.2364 
L 412.190043 303.562017 
L 415.096873 304.745986 
L 418.003704 302.219107 
L 420.910535 302.219107 
L 423.817366 301.71848 
L 426.724196 302.476832 
L 429.631027 303.008117 
L 432.537858 301.966387 
L 435.444689 303.562017 
L 438.351519 307.496107 
L 441.25835 309.125065 
L 447.072012 313.767077 
L 449.978842 313.767077 
L 452.885673 314.402065 
L 461.606165 312.583108 
L 464.512996 308.285117 
L 467.419827 307.884634 
L 473.233488 308.698316 
L 481.95398 307.496107 
L 484.860811 310.496299 
L 487.767642 309.125065 
L 490.674473 309.125065 
L 493.581303 309.566283 
L 496.488134 308.285117 
L 499.394965 304.140543 
L 502.301796 306.395619 
L 505.208626 303.008117 
L 508.115457 303.28212 
L 513.929119 302.739764 
L 516.835949 303.848065 
L 519.74278 307.496107 
L 522.649611 306.752208 
L 531.370103 307.884634 
L 537.183764 307.884634 
L 540.090595 306.752208 
L 542.997426 303.562017 
L 545.904257 306.752208 
L 548.811087 306.395619 
L 551.717918 305.380974 
L 557.53158 305.380974 
L 560.43841 306.752208 
L 563.345241 310.496299 
L 566.252072 312.029208 
L 569.158903 310.496299 
L 572.065733 311.497923 
L 574.972564 310.496299 
L 577.879395 310.987478 
L 580.786226 306.395619 
L 589.506718 306.395619 
L 589.506718 306.395619 
" style="fill:none;stroke:#348abd;stroke-linecap:square;stroke-opacity:0.4;stroke-width:2;"/>
   </g>
   <g id="line2d_122">
    <defs>
     <path d="M 0 3 
C 0.795609 3 1.55874 2.683901 2.12132 2.12132 
C 2.683901 1.55874 3 0.795609 3 0 
C 3 -0.795609 2.683901 -1.55874 2.12132 -2.12132 
C 1.55874 -2.683901 0.795609 -3 0 -3 
C -0.795609 -3 -1.55874 -2.683901 -2.12132 -2.12132 
C -2.683901 -1.55874 -3 -0.795609 -3 0 
C -3 0.795609 -2.683901 1.55874 -2.12132 2.12132 
C -1.55874 2.683901 -0.795609 3 0 3 
z
" id="m89bebb1d9b" style="stroke:#348abd;stroke-opacity:0.4;"/>
    </defs>
    <g clip-path="url(#pd265de48ed)">
     <use style="fill:#348abd;fill-opacity:0.4;stroke:#348abd;stroke-opacity:0.4;" x="589.506718" xlink:href="#m89bebb1d9b" y="306.395619"/>
    </g>
   </g>
   <g id="line2d_123">
    <path clip-path="url(#pd265de48ed)" d="M -1 344.369481 
L 11.047401 344.369481 
L 13.954232 353.390573 
L 22.674724 353.390573 
L 22.682452 433 
M 31.386614 433 
L 31.395216 344.369481 
L 34.302047 339.092481 
L 37.208877 339.092481 
L 40.115708 335.34839 
L 48.8362 335.34839 
L 51.743031 339.092481 
L 54.649862 344.369481 
L 57.556693 328.065168 
L 60.463523 330.07139 
L 63.370354 328.065168 
L 66.277185 324.79439 
L 69.184016 323.423157 
L 72.090846 323.423157 
L 74.997677 321.050299 
L 77.904508 322.182725 
L 80.811339 318.146157 
L 83.718169 317.306208 
L 86.625 315.069631 
L 89.531831 312.583108 
L 92.438661 310.496299 
L 95.345492 309.125065 
L 98.252323 310.496299 
L 101.159154 310.987478 
L 104.065984 310.496299 
L 106.972815 311.497923 
L 109.879646 313.767077 
L 112.786477 316.517198 
L 115.693307 320.008569 
L 118.600138 321.050299 
L 121.506969 321.050299 
L 124.4138 323.423157 
L 127.32063 328.065168 
L 130.227461 330.07139 
L 133.134292 332.444248 
L 136.041123 335.34839 
L 138.947953 321.050299 
L 141.854784 320.008569 
L 144.761615 320.008569 
L 147.668446 317.306208 
L 150.575276 317.306208 
L 153.482107 313.161634 
L 156.388938 312.029208 
L 159.295768 315.773299 
L 162.202599 319.044077 
L 165.10943 319.044077 
L 168.016261 321.050299 
L 170.923091 320.008569 
L 173.829922 326.327299 
L 176.736753 330.07139 
L 179.643584 335.34839 
L 182.550414 335.34839 
L 185.457245 339.092481 
L 188.364076 344.369481 
L 191.270907 353.390573 
L 205.80506 353.390573 
L 208.711891 344.369481 
L 217.432383 344.369481 
L 220.339214 339.092481 
L 223.246045 339.092481 
L 226.152875 335.34839 
L 229.059706 339.092481 
L 237.780198 339.092481 
L 240.687029 344.369481 
L 243.59386 344.369481 
L 246.500691 353.390573 
L 249.407521 353.390573 
L 249.41525 433 
M 316.2569 433 
L 316.264628 353.390573 
L 319.171459 344.369481 
L 333.705613 344.369481 
L 336.612443 353.390573 
L 336.620172 433 
M 351.137995 433 
L 351.146597 344.369481 
L 362.77392 344.369481 
L 365.680751 339.092481 
L 368.587582 335.34839 
L 371.494412 344.369481 
L 374.401243 344.369481 
L 377.308074 332.444248 
L 380.214905 328.065168 
L 383.121735 323.423157 
L 386.028566 322.182725 
L 388.935397 319.044077 
L 391.842228 318.146157 
L 394.749058 315.773299 
L 397.655889 316.517198 
L 400.56272 314.402065 
L 403.46955 312.583108 
L 406.376381 310.496299 
L 409.283212 307.884634 
L 412.190043 306.04854 
L 415.096873 305.059608 
L 420.910535 301.001895 
L 423.817366 300.77154 
L 426.724196 301.001895 
L 429.631027 301.71848 
L 432.537858 300.103974 
L 438.351519 297.913144 
L 441.25835 298.863543 
L 444.165181 298.097752 
L 447.072012 296.85732 
L 449.978842 295.268192 
L 452.885673 294.540926 
L 455.792504 293.586543 
L 458.699335 292.820752 
L 461.606165 292.697389 
L 464.512996 292.334165 
L 467.419827 293.32624 
L 470.326657 293.32624 
L 473.233488 292.454117 
L 476.140319 292.575185 
L 479.04715 293.718672 
L 481.95398 293.198016 
L 484.860811 293.852158 
L 487.767642 292.697389 
L 490.674473 292.697389 
L 496.488134 295.268192 
L 499.394965 293.586543 
L 502.301796 292.334165 
L 505.208626 292.097528 
L 508.115457 291.636783 
L 511.022288 292.334165 
L 513.929119 289.549974 
L 516.835949 289.842451 
L 519.74278 291.750449 
L 522.649611 292.697389 
L 531.370103 292.697389 
L 531.370103 292.697389 
" style="fill:none;stroke:#988ed5;stroke-linecap:square;stroke-opacity:0.4;stroke-width:2;"/>
   </g>
   <g id="line2d_124">
    <defs>
     <path d="M 0 3 
C 0.795609 3 1.55874 2.683901 2.12132 2.12132 
C 2.683901 1.55874 3 0.795609 3 0 
C 3 -0.795609 2.683901 -1.55874 2.12132 -2.12132 
C 1.55874 -2.683901 0.795609 -3 0 -3 
C -0.795609 -3 -1.55874 -2.683901 -2.12132 -2.12132 
C -2.683901 -1.55874 -3 -0.795609 -3 0 
C -3 0.795609 -2.683901 1.55874 -2.12132 2.12132 
C -1.55874 2.683901 -0.795609 3 0 3 
z
" id="m677164c4be" style="stroke:#988ed5;stroke-opacity:0.4;"/>
    </defs>
    <g clip-path="url(#pd265de48ed)">
     <use style="fill:#988ed5;fill-opacity:0.4;stroke:#988ed5;stroke-opacity:0.4;" x="531.370103" xlink:href="#m677164c4be" y="292.697389"/>
    </g>
   </g>
   <g id="line2d_125">
    <path clip-path="url(#pd265de48ed)" d="M 37.201149 433 
L 37.208877 353.390573 
L 40.115708 344.369481 
L 43.022539 339.092481 
L 45.92937 339.092481 
L 48.8362 335.34839 
L 51.743031 332.444248 
L 54.649862 332.444248 
L 57.556693 335.34839 
L 60.463523 339.092481 
L 63.370354 344.369481 
L 66.277185 335.34839 
L 69.184016 335.34839 
L 72.090846 332.444248 
L 74.997677 324.79439 
L 77.904508 322.182725 
L 80.811339 322.182725 
L 83.718169 320.008569 
L 86.625 318.146157 
L 89.531831 312.583108 
L 92.438661 312.583108 
L 95.345492 309.566283 
L 98.252323 305.059608 
L 101.159154 301.2364 
L 104.065984 299.888851 
L 106.972815 297.731117 
L 109.879646 297.027449 
L 112.786477 293.987026 
L 115.693307 291.524101 
L 118.600138 291.412387 
L 121.506969 292.215309 
L 124.4138 290.141653 
L 127.32063 289.263926 
L 130.227461 289.263926 
L 133.134292 289.646738 
L 136.041123 290.345011 
L 138.947953 289.076661 
L 141.854784 288.092264 
L 147.668446 290.242935 
L 150.575276 289.549974 
L 156.388938 289.076661 
L 159.295768 289.076661 
L 162.202599 287.177117 
L 165.10943 286.024623 
L 168.016261 286.172518 
L 170.923091 285.662073 
L 173.829922 284.764153 
L 176.736753 284.565451 
L 179.643584 285.102215 
L 182.550414 287.585134 
L 185.457245 289.076661 
L 188.364076 288.800721 
L 191.270907 289.453925 
L 194.177737 291.082883 
L 197.084568 292.334165 
L 199.991399 292.097528 
L 202.89823 290.551598 
L 205.80506 290.974877 
L 208.711891 290.86776 
L 211.618722 291.865117 
L 214.525552 290.761517 
L 217.432383 290.242935 
L 220.339214 290.242935 
L 223.246045 289.941423 
L 226.152875 290.041153 
L 229.059706 290.551598 
L 231.966537 290.551598 
L 234.873368 292.334165 
L 237.780198 293.32624 
L 240.687029 294.972391 
L 243.59386 297.199832 
L 246.500691 296.689387 
L 249.407521 297.913144 
L 252.314352 297.913144 
L 255.221183 297.027449 
L 258.128014 298.863543 
L 261.034844 298.863543 
L 263.941675 298.285017 
L 266.848506 298.475016 
L 269.755337 298.475016 
L 272.662167 298.667829 
L 275.568998 298.475016 
L 278.475829 295.268192 
L 281.382659 296.523592 
L 284.28949 295.418653 
L 287.196321 294.540926 
L 290.103152 294.400225 
L 295.916813 294.683164 
L 298.823644 294.683164 
L 301.730475 293.718672 
L 304.637305 295.570873 
L 307.544136 295.724895 
L 310.450967 294.826974 
L 313.357798 294.826974 
L 316.264628 294.972391 
L 319.171459 296.359883 
L 322.07829 293.32624 
L 324.985121 291.980804 
L 327.891951 292.334165 
L 330.798782 292.334165 
L 333.705613 293.071042 
L 336.612443 293.071042 
L 339.519274 292.215309 
L 342.426105 293.987026 
L 345.332936 294.123307 
L 348.239766 294.972391 
L 351.146597 296.038517 
L 356.960259 295.119451 
L 359.867089 296.198208 
L 362.77392 296.359883 
L 365.680751 296.689387 
L 368.587582 296.85732 
L 371.494412 296.523592 
L 374.401243 296.85732 
L 377.308074 299.062244 
L 380.214905 299.062244 
L 383.121735 300.322714 
L 386.028566 301.2364 
L 388.935397 301.001895 
L 391.842228 301.475208 
L 394.749058 301.2364 
L 397.655889 300.103974 
L 400.56272 301.966387 
L 403.46955 301.475208 
L 406.376381 302.476832 
L 409.283212 302.476832 
L 412.190043 301.71848 
L 415.096873 302.219107 
L 418.003704 303.008117 
L 420.910535 303.008117 
L 423.817366 303.562017 
L 426.724196 304.439744 
L 429.631027 303.562017 
L 432.537858 303.28212 
L 435.444689 302.739764 
L 438.351519 303.562017 
L 441.25835 301.966387 
L 444.165181 300.545192 
L 447.072012 299.888851 
L 449.978842 300.77154 
L 452.885673 300.103974 
L 455.792504 301.001895 
L 458.699335 301.001895 
L 461.606165 299.677225 
L 464.512996 299.062244 
L 467.419827 297.913144 
L 470.326657 296.523592 
L 473.233488 297.027449 
L 476.140319 296.85732 
L 479.04715 295.880761 
L 481.95398 297.374528 
L 484.860811 298.097752 
L 487.767642 297.913144 
L 490.674473 298.285017 
L 493.581303 298.097752 
L 496.488134 297.027449 
L 499.394965 297.199832 
L 502.301796 295.880761 
L 505.208626 296.198208 
L 508.115457 296.359883 
L 511.022288 296.038517 
L 513.929119 296.689387 
L 516.835949 297.199832 
L 519.74278 296.198208 
L 522.649611 296.198208 
L 525.556441 295.570873 
L 528.463272 296.359883 
L 531.370103 296.198208 
L 534.276934 296.689387 
L 537.183764 296.523592 
L 540.090595 296.198208 
L 542.997426 295.724895 
L 551.717918 295.724895 
L 551.717918 295.724895 
" style="fill:none;stroke:#777777;stroke-linecap:square;stroke-opacity:0.4;stroke-width:2;"/>
   </g>
   <g id="line2d_126">
    <defs>
     <path d="M 0 3 
C 0.795609 3 1.55874 2.683901 2.12132 2.12132 
C 2.683901 1.55874 3 0.795609 3 0 
C 3 -0.795609 2.683901 -1.55874 2.12132 -2.12132 
C 1.55874 -2.683901 0.795609 -3 0 -3 
C -0.795609 -3 -1.55874 -2.683901 -2.12132 -2.12132 
C -2.683901 -1.55874 -3 -0.795609 -3 0 
C -3 0.795609 -2.683901 1.55874 -2.12132 2.12132 
C -1.55874 2.683901 -0.795609 3 0 3 
z
" id="m2f4ce639cb" style="stroke:#777777;stroke-opacity:0.4;"/>
    </defs>
    <g clip-path="url(#pd265de48ed)">
     <use style="fill:#777777;fill-opacity:0.4;stroke:#777777;stroke-opacity:0.4;" x="551.717918" xlink:href="#m2f4ce639cb" y="295.724895"/>
    </g>
   </g>
   <g id="line2d_127">
    <path clip-path="url(#pd265de48ed)" d="M 45.921641 433 
L 45.92937 353.390573 
L 51.743031 335.34839 
L 54.649862 335.34839 
L 57.556693 332.444248 
L 63.370354 320.008569 
L 69.184016 322.182725 
L 72.090846 321.050299 
L 74.997677 318.146157 
L 77.904508 315.773299 
L 80.811339 315.773299 
L 83.718169 317.306208 
L 86.625 314.402065 
L 89.531831 312.583108 
L 92.438661 312.029208 
L 101.159154 313.767077 
L 104.065984 313.161634 
L 109.879646 313.161634 
L 112.786477 314.402065 
L 118.600138 313.161634 
L 121.506969 311.497923 
L 124.4138 312.029208 
L 127.32063 312.029208 
L 130.227461 310.987478 
L 133.134292 309.566283 
L 136.041123 309.125065 
L 138.947953 309.125065 
L 141.854784 310.496299 
L 144.761615 310.022986 
L 150.575276 310.022986 
L 153.482107 310.496299 
L 159.295768 309.566283 
L 162.202599 308.285117 
L 165.10943 308.285117 
L 168.016261 307.118843 
L 170.923091 307.496107 
L 173.829922 307.118843 
L 176.736753 307.118843 
L 179.643584 307.496107 
L 182.550414 307.496107 
L 185.457245 306.752208 
L 188.364076 307.884634 
L 191.270907 307.884634 
L 194.177737 307.496107 
L 202.89823 307.496107 
L 205.80506 307.884634 
L 208.711891 307.884634 
L 211.618722 307.118843 
L 214.525552 307.496107 
L 217.432383 307.496107 
L 223.246045 306.752208 
L 226.152875 306.752208 
L 231.966537 307.496107 
L 234.873368 307.496107 
L 237.780198 307.118843 
L 240.687029 307.496107 
L 243.59386 307.496107 
L 246.500691 306.752208 
L 249.407521 305.710478 
L 252.314352 305.380974 
L 255.221183 305.380974 
L 258.128014 305.710478 
L 261.034844 305.380974 
L 263.941675 305.710478 
L 266.848506 306.752208 
L 272.662167 306.752208 
L 275.568998 306.04854 
L 281.382659 305.380974 
L 284.28949 306.04854 
L 287.196321 305.710478 
L 290.103152 305.710478 
L 293.009982 306.04854 
L 295.916813 306.752208 
L 298.823644 306.752208 
L 301.730475 307.496107 
L 304.637305 306.395619 
L 310.450967 307.118843 
L 313.357798 306.752208 
L 316.264628 306.04854 
L 319.171459 305.710478 
L 322.07829 305.059608 
L 324.985121 305.380974 
L 330.798782 304.140543 
L 333.705613 303.848065 
L 336.612443 304.140543 
L 339.519274 304.745986 
L 342.426105 305.059608 
L 345.332936 305.059608 
L 348.239766 305.710478 
L 356.960259 306.752208 
L 359.867089 306.395619 
L 365.680751 307.118843 
L 368.587582 307.118843 
L 371.494412 307.884634 
L 374.401243 307.884634 
L 377.308074 307.496107 
L 380.214905 307.884634 
L 383.121735 307.118843 
L 388.935397 307.118843 
L 391.842228 306.752208 
L 397.655889 307.496107 
L 400.56272 307.118843 
L 403.46955 307.884634 
L 409.283212 307.884634 
L 415.096873 309.566283 
L 418.003704 310.496299 
L 420.910535 312.029208 
L 426.724196 314.402065 
L 429.631027 315.773299 
L 435.444689 315.773299 
L 441.25835 314.402065 
L 444.165181 315.773299 
L 447.072012 312.583108 
L 452.885673 311.497923 
L 455.792504 310.496299 
L 461.606165 309.566283 
L 464.512996 307.496107 
L 467.419827 308.285117 
L 470.326657 307.884634 
L 473.233488 307.118843 
L 481.95398 307.118843 
L 484.860811 307.496107 
L 487.767642 307.496107 
L 490.674473 307.118843 
L 493.581303 307.496107 
L 505.208626 307.496107 
L 505.208626 307.496107 
" style="fill:none;stroke:#fbc15e;stroke-linecap:square;stroke-opacity:0.4;stroke-width:2;"/>
   </g>
   <g id="line2d_128">
    <defs>
     <path d="M 0 3 
C 0.795609 3 1.55874 2.683901 2.12132 2.12132 
C 2.683901 1.55874 3 0.795609 3 0 
C 3 -0.795609 2.683901 -1.55874 2.12132 -2.12132 
C 1.55874 -2.683901 0.795609 -3 0 -3 
C -0.795609 -3 -1.55874 -2.683901 -2.12132 -2.12132 
C -2.683901 -1.55874 -3 -0.795609 -3 0 
C -3 0.795609 -2.683901 1.55874 -2.12132 2.12132 
C -1.55874 2.683901 -0.795609 3 0 3 
z
" id="mc1bfdef733" style="stroke:#fbc15e;stroke-opacity:0.4;"/>
    </defs>
    <g clip-path="url(#pd265de48ed)">
     <use style="fill:#fbc15e;fill-opacity:0.4;stroke:#fbc15e;stroke-opacity:0.4;" x="505.208626" xlink:href="#mc1bfdef733" y="307.496107"/>
    </g>
   </g>
   <g id="line2d_129">
    <path clip-path="url(#pd265de48ed)" d="M 54.642133 433 
L 54.649862 353.390573 
L 60.463523 353.390573 
L 63.370354 344.369481 
L 66.277185 344.369481 
L 69.184016 339.092481 
L 72.090846 335.34839 
L 74.997677 339.092481 
L 77.904508 323.423157 
L 80.811339 321.050299 
L 86.625 321.050299 
L 89.531831 312.029208 
L 92.438661 312.029208 
L 95.345492 306.395619 
L 98.252323 304.439744 
L 101.159154 299.677225 
L 104.065984 295.724895 
L 106.972815 292.697389 
L 109.879646 294.123307 
L 112.786477 290.551598 
L 115.693307 288.178741 
L 118.600138 286.024623 
L 124.4138 284.305149 
L 127.32063 282.116133 
L 130.227461 278.688985 
L 133.134292 277.721504 
L 136.041123 277.338692 
L 138.947953 276.784792 
L 141.854784 275.348647 
L 144.761615 274.934436 
L 147.668446 275.219788 
L 150.575276 275.809975 
L 153.482107 275.187771 
L 156.388938 275.02886 
L 159.295768 275.060487 
L 162.202599 276.428203 
L 165.10943 275.709733 
L 170.923091 277.040348 
L 179.643584 278.115919 
L 182.550414 277.838579 
L 185.457245 279.734203 
L 188.364076 279.554066 
L 191.270907 278.985267 
L 194.177737 280.528883 
L 197.084568 280.625647 
L 199.991399 280.920332 
L 202.89823 282.559229 
L 205.80506 283.372912 
L 208.711891 282.280531 
L 214.525552 283.986926 
L 217.432383 285.239938 
L 220.339214 286.938309 
L 223.246045 287.097026 
L 226.152875 288.006358 
L 229.059706 291.191793 
L 231.966537 293.987026 
L 234.873368 294.972391 
L 237.780198 297.551601 
L 240.687029 298.285017 
L 243.59386 298.475016 
L 246.500691 297.913144 
L 249.407521 299.888851 
L 252.314352 297.731117 
L 255.221183 299.062244 
L 258.128014 299.677225 
L 263.941675 302.739764 
L 266.848506 303.008117 
L 269.755337 305.059608 
L 272.662167 312.029208 
L 275.568998 313.161634 
L 278.475829 310.987478 
L 281.382659 311.497923 
L 284.28949 310.987478 
L 287.196321 311.497923 
L 290.103152 310.496299 
L 293.009982 312.029208 
L 295.916813 311.497923 
L 298.823644 313.767077 
L 301.730475 317.306208 
L 304.637305 319.044077 
L 307.544136 319.044077 
L 310.450967 328.065168 
L 313.357798 332.444248 
L 316.264628 335.34839 
L 319.171459 344.369481 
L 324.985121 344.369481 
L 327.891951 353.390573 
L 330.798782 339.092481 
L 333.705613 319.044077 
L 339.519274 317.306208 
L 342.426105 316.517198 
L 348.239766 316.517198 
L 351.146597 317.306208 
L 354.053428 314.402065 
L 356.960259 314.402065 
L 362.77392 315.773299 
L 368.587582 315.773299 
L 371.494412 316.517198 
L 374.401243 344.369481 
L 380.214905 344.369481 
L 383.121735 330.07139 
L 391.842228 330.07139 
L 394.749058 328.065168 
L 400.56272 328.065168 
L 403.46955 339.092481 
L 415.096873 339.092481 
L 418.003704 353.390573 
L 423.817366 353.390573 
L 426.724196 339.092481 
L 432.537858 339.092481 
L 435.444689 344.369481 
L 438.351519 344.369481 
L 441.25835 339.092481 
L 444.165181 339.092481 
L 447.072012 353.390573 
L 449.978842 353.390573 
L 452.885673 339.092481 
L 455.792504 335.34839 
L 458.699335 335.34839 
L 461.606165 330.07139 
L 464.512996 326.327299 
L 470.326657 326.327299 
L 473.233488 328.065168 
L 476.140319 330.07139 
L 479.04715 328.065168 
L 481.95398 332.444248 
L 484.860811 335.34839 
L 490.674473 335.34839 
L 493.581303 339.092481 
L 496.488134 339.092481 
L 499.394965 332.444248 
L 511.022288 332.444248 
L 513.929119 330.07139 
L 516.835949 324.79439 
L 519.74278 328.065168 
L 522.649611 330.07139 
L 525.556441 332.444248 
L 531.370103 332.444248 
L 534.276934 335.34839 
L 537.183764 344.369481 
L 540.090595 332.444248 
L 542.997426 328.065168 
L 545.904257 324.79439 
L 548.811087 324.79439 
L 551.717918 323.423157 
L 557.53158 323.423157 
L 560.43841 328.065168 
L 563.345241 332.444248 
L 566.252072 335.34839 
L 569.158903 332.444248 
L 572.065733 335.34839 
L 574.972564 332.444248 
L 577.879395 324.79439 
L 580.786226 326.327299 
L 589.506718 326.327299 
L 589.506718 326.327299 
" style="fill:none;stroke:#8eba42;stroke-linecap:square;stroke-opacity:0.4;stroke-width:2;"/>
   </g>
   <g id="line2d_130">
    <defs>
     <path d="M 0 3 
C 0.795609 3 1.55874 2.683901 2.12132 2.12132 
C 2.683901 1.55874 3 0.795609 3 0 
C 3 -0.795609 2.683901 -1.55874 2.12132 -2.12132 
C 1.55874 -2.683901 0.795609 -3 0 -3 
C -0.795609 -3 -1.55874 -2.683901 -2.12132 -2.12132 
C -2.683901 -1.55874 -3 -0.795609 -3 0 
C -3 0.795609 -2.683901 1.55874 -2.12132 2.12132 
C -1.55874 2.683901 -0.795609 3 0 3 
z
" id="m7719448fde" style="stroke:#8eba42;stroke-opacity:0.4;"/>
    </defs>
    <g clip-path="url(#pd265de48ed)">
     <use style="fill:#8eba42;fill-opacity:0.4;stroke:#8eba42;stroke-opacity:0.4;" x="589.506718" xlink:href="#m7719448fde" y="326.327299"/>
    </g>
   </g>
   <g id="line2d_131">
    <path clip-path="url(#pd265de48ed)" d="M 57.548964 433 
L 57.556693 353.390573 
L 60.463523 353.390573 
L 63.370354 330.07139 
L 66.277185 328.065168 
L 69.184016 322.182725 
L 72.090846 321.050299 
L 74.997677 319.044077 
L 77.904508 317.306208 
L 80.811339 314.402065 
L 83.718169 317.306208 
L 86.625 313.767077 
L 89.531831 313.161634 
L 92.438661 308.698316 
L 95.345492 306.395619 
L 98.252323 305.059608 
L 101.159154 302.739764 
L 104.065984 297.199832 
L 106.972815 292.945295 
L 109.879646 287.502501 
L 115.693307 278.605557 
L 118.600138 275.251883 
L 121.506969 272.431561 
L 127.32063 265.315744 
L 133.134292 258.491976 
L 138.947953 251.970246 
L 141.854784 249.63594 
L 144.761615 247.553621 
L 147.668446 244.663258 
L 150.575276 242.294486 
L 153.482107 239.761299 
L 156.388938 238.046312 
L 165.10943 233.475437 
L 168.016261 231.678207 
L 170.923091 230.621973 
L 176.736753 229.099137 
L 179.643584 228.558292 
L 185.457245 228.208384 
L 188.364076 228.309145 
L 191.270907 227.911542 
L 197.084568 228.062111 
L 199.991399 228.198869 
L 208.711891 227.814641 
L 211.618722 227.962388 
L 214.525552 227.715955 
L 217.432383 227.665232 
L 220.339214 227.884506 
L 223.246045 228.402786 
L 226.152875 229.051044 
L 229.059706 229.337584 
L 231.966537 229.25574 
L 234.873368 229.394331 
L 237.780198 229.646029 
L 240.687029 229.651828 
L 246.500691 229.986736 
L 249.407521 229.910578 
L 252.314352 230.066337 
L 255.221183 230.459462 
L 261.034844 230.822453 
L 266.848506 231.413197 
L 272.662167 232.926888 
L 284.28949 233.72686 
L 287.196321 233.519607 
L 290.103152 233.617575 
L 293.009982 233.933436 
L 295.916813 234.716906 
L 298.823644 235.355819 
L 304.637305 235.725151 
L 307.544136 236.724555 
L 310.450967 238.297479 
L 316.264628 238.386072 
L 319.171459 238.545927 
L 322.07829 238.828529 
L 324.985121 238.909006 
L 327.891951 238.467657 
L 330.798782 237.716993 
L 333.705613 238.669053 
L 336.612443 238.972165 
L 339.519274 239.468215 
L 342.426105 240.108548 
L 345.332936 240.421012 
L 348.239766 241.002152 
L 359.867089 242.11693 
L 362.77392 241.867408 
L 374.401243 243.231504 
L 383.121735 244.577755 
L 388.935397 244.663258 
L 394.749058 244.589936 
L 397.655889 245.108914 
L 400.56272 245.278042 
L 403.46955 245.603263 
L 409.283212 245.682541 
L 412.190043 246.439699 
L 415.096873 246.669991 
L 418.003704 246.055615 
L 420.910535 245.909819 
L 423.817366 246.741678 
L 426.724196 246.687876 
L 429.631027 246.766862 
L 432.537858 244.777112 
L 435.444689 244.265003 
L 438.351519 243.469702 
L 441.25835 243.01917 
L 444.165181 241.919412 
L 447.072012 241.501871 
L 449.978842 241.473067 
L 452.885673 242.202869 
L 455.792504 241.939278 
L 458.699335 242.089247 
L 461.606165 241.825461 
L 464.512996 241.394183 
L 467.419827 241.422813 
L 473.233488 240.662073 
L 476.140319 240.115027 
L 481.95398 239.374009 
L 487.767642 239.260236 
L 490.674473 238.088762 
L 496.488134 237.225149 
L 502.301796 236.83993 
L 505.208626 236.482115 
L 508.115457 236.595352 
L 511.022288 237.606077 
L 522.649611 237.622119 
L 525.556441 237.690072 
L 528.463272 237.497864 
L 531.370103 237.503165 
L 534.276934 238.070289 
L 537.183764 237.8343 
L 540.090595 238.170359 
L 542.997426 237.992984 
L 545.904257 238.072135 
L 548.811087 237.961825 
L 551.717918 238.110965 
L 554.624749 237.636395 
L 557.53158 237.910665 
L 560.43841 237.894263 
L 563.345241 238.325688 
L 566.252072 238.423955 
L 569.158903 238.655529 
L 572.065733 238.663255 
L 577.879395 239.083437 
L 580.786226 239.019737 
L 583.693056 239.288587 
L 586.599887 239.337331 
L 589.506718 239.625369 
L 592.413548 239.355657 
L 598.22721 240.069744 
L 606.947702 240.069744 
L 606.947702 240.069744 
" style="fill:none;stroke:#ffb5b8;stroke-linecap:square;stroke-opacity:0.4;stroke-width:2;"/>
   </g>
   <g id="line2d_132">
    <defs>
     <path d="M 0 3 
C 0.795609 3 1.55874 2.683901 2.12132 2.12132 
C 2.683901 1.55874 3 0.795609 3 0 
C 3 -0.795609 2.683901 -1.55874 2.12132 -2.12132 
C 1.55874 -2.683901 0.795609 -3 0 -3 
C -0.795609 -3 -1.55874 -2.683901 -2.12132 -2.12132 
C -2.683901 -1.55874 -3 -0.795609 -3 0 
C -3 0.795609 -2.683901 1.55874 -2.12132 2.12132 
C -1.55874 2.683901 -0.795609 3 0 3 
z
" id="mfd7dd50011" style="stroke:#ffb5b8;stroke-opacity:0.4;"/>
    </defs>
    <g clip-path="url(#pd265de48ed)">
     <use style="fill:#ffb5b8;fill-opacity:0.4;stroke:#ffb5b8;stroke-opacity:0.4;" x="606.947702" xlink:href="#mfd7dd50011" y="240.069744"/>
    </g>
   </g>
   <g id="patch_3">
    <path d="M 86.625 388 
L 86.625 221.378965 
" style="fill:none;stroke:#ffffff;stroke-linecap:square;stroke-linejoin:miter;"/>
   </g>
   <g id="patch_4">
    <path d="M 665.375 388 
L 665.375 221.378965 
" style="fill:none;stroke:#ffffff;stroke-linecap:square;stroke-linejoin:miter;"/>
   </g>
   <g id="patch_5">
    <path d="M 86.625 388 
L 665.375 388 
" style="fill:none;stroke:#ffffff;stroke-linecap:square;stroke-linejoin:miter;"/>
   </g>
   <g id="patch_6">
    <path d="M 86.625 221.378965 
L 665.375 221.378965 
" style="fill:none;stroke:#ffffff;stroke-linecap:square;stroke-linejoin:miter;"/>
   </g>
   <g id="text_23">
    <!-- Korea, South -->
    <defs>
     <path d="M 9.8125 72.90625 
L 19.671875 72.90625 
L 19.671875 42.09375 
L 52.390625 72.90625 
L 65.09375 72.90625 
L 28.90625 38.921875 
L 67.671875 0 
L 54.6875 0 
L 19.671875 35.109375 
L 19.671875 0 
L 9.8125 0 
z
" id="DejaVuSans-75"/>
     <path d="M 11.71875 12.40625 
L 22.015625 12.40625 
L 22.015625 4 
L 14.015625 -11.625 
L 7.71875 -11.625 
L 11.71875 4 
z
" id="DejaVuSans-44"/>
     <path d="M 53.515625 70.515625 
L 53.515625 60.890625 
Q 47.90625 63.578125 42.921875 64.890625 
Q 37.9375 66.21875 33.296875 66.21875 
Q 25.25 66.21875 20.875 63.09375 
Q 16.5 59.96875 16.5 54.203125 
Q 16.5 49.359375 19.40625 46.890625 
Q 22.3125 44.4375 30.421875 42.921875 
L 36.375 41.703125 
Q 47.40625 39.59375 52.65625 34.296875 
Q 57.90625 29 57.90625 20.125 
Q 57.90625 9.515625 50.796875 4.046875 
Q 43.703125 -1.421875 29.984375 -1.421875 
Q 24.8125 -1.421875 18.96875 -0.25 
Q 13.140625 0.921875 6.890625 3.21875 
L 6.890625 13.375 
Q 12.890625 10.015625 18.65625 8.296875 
Q 24.421875 6.59375 29.984375 6.59375 
Q 38.421875 6.59375 43.015625 9.90625 
Q 47.609375 13.234375 47.609375 19.390625 
Q 47.609375 24.75 44.3125 27.78125 
Q 41.015625 30.8125 33.5 32.328125 
L 27.484375 33.5 
Q 16.453125 35.6875 11.515625 40.375 
Q 6.59375 45.0625 6.59375 53.421875 
Q 6.59375 63.09375 13.40625 68.65625 
Q 20.21875 74.21875 32.171875 74.21875 
Q 37.3125 74.21875 42.625 73.28125 
Q 47.953125 72.359375 53.515625 70.515625 
z
" id="DejaVuSans-83"/>
     <path d="M 8.5 21.578125 
L 8.5 54.6875 
L 17.484375 54.6875 
L 17.484375 21.921875 
Q 17.484375 14.15625 20.5 10.265625 
Q 23.53125 6.390625 29.59375 6.390625 
Q 36.859375 6.390625 41.078125 11.03125 
Q 45.3125 15.671875 45.3125 23.6875 
L 45.3125 54.6875 
L 54.296875 54.6875 
L 54.296875 0 
L 45.3125 0 
L 45.3125 8.40625 
Q 42.046875 3.421875 37.71875 1 
Q 33.40625 -1.421875 27.6875 -1.421875 
Q 18.265625 -1.421875 13.375 4.4375 
Q 8.5 10.296875 8.5 21.578125 
z
M 31.109375 56 
z
" id="DejaVuSans-117"/>
    </defs>
    <g transform="translate(633.109179 317.306208)scale(0.1 -0.1)">
     <use xlink:href="#DejaVuSans-75"/>
     <use x="60.576172" xlink:href="#DejaVuSans-111"/>
     <use x="121.757812" xlink:href="#DejaVuSans-114"/>
     <use x="160.621094" xlink:href="#DejaVuSans-101"/>
     <use x="222.144531" xlink:href="#DejaVuSans-97"/>
     <use x="283.423828" xlink:href="#DejaVuSans-44"/>
     <use x="315.210938" xlink:href="#DejaVuSans-32"/>
     <use x="346.998047" xlink:href="#DejaVuSans-83"/>
     <use x="410.474609" xlink:href="#DejaVuSans-111"/>
     <use x="471.65625" xlink:href="#DejaVuSans-117"/>
     <use x="535.035156" xlink:href="#DejaVuSans-116"/>
     <use x="574.244141" xlink:href="#DejaVuSans-104"/>
    </g>
   </g>
   <g id="text_24">
    <!-- Germany -->
    <defs>
     <path d="M 59.515625 10.40625 
L 59.515625 29.984375 
L 43.40625 29.984375 
L 43.40625 38.09375 
L 69.28125 38.09375 
L 69.28125 6.78125 
Q 63.578125 2.734375 56.6875 0.65625 
Q 49.8125 -1.421875 42 -1.421875 
Q 24.90625 -1.421875 15.25 8.5625 
Q 5.609375 18.5625 5.609375 36.375 
Q 5.609375 54.25 15.25 64.234375 
Q 24.90625 74.21875 42 74.21875 
Q 49.125 74.21875 55.546875 72.453125 
Q 61.96875 70.703125 67.390625 67.28125 
L 67.390625 56.78125 
Q 61.921875 61.421875 55.765625 63.765625 
Q 49.609375 66.109375 42.828125 66.109375 
Q 29.4375 66.109375 22.71875 58.640625 
Q 16.015625 51.171875 16.015625 36.375 
Q 16.015625 21.625 22.71875 14.15625 
Q 29.4375 6.6875 42.828125 6.6875 
Q 48.046875 6.6875 52.140625 7.59375 
Q 56.25 8.5 59.515625 10.40625 
z
" id="DejaVuSans-71"/>
    </defs>
    <g transform="translate(595.320379 306.395619)scale(0.1 -0.1)">
     <use xlink:href="#DejaVuSans-71"/>
     <use x="77.490234" xlink:href="#DejaVuSans-101"/>
     <use x="139.013672" xlink:href="#DejaVuSans-114"/>
     <use x="178.376953" xlink:href="#DejaVuSans-109"/>
     <use x="275.789062" xlink:href="#DejaVuSans-97"/>
     <use x="337.068359" xlink:href="#DejaVuSans-110"/>
     <use x="400.447266" xlink:href="#DejaVuSans-121"/>
    </g>
   </g>
   <g id="text_25">
    <!-- Australia -->
    <defs>
     <path d="M 34.1875 63.1875 
L 20.796875 26.90625 
L 47.609375 26.90625 
z
M 28.609375 72.90625 
L 39.796875 72.90625 
L 67.578125 0 
L 57.328125 0 
L 50.6875 18.703125 
L 17.828125 18.703125 
L 11.1875 0 
L 0.78125 0 
z
" id="DejaVuSans-65"/>
    </defs>
    <g transform="translate(537.183764 292.697389)scale(0.1 -0.1)">
     <use xlink:href="#DejaVuSans-65"/>
     <use x="68.408203" xlink:href="#DejaVuSans-117"/>
     <use x="131.787109" xlink:href="#DejaVuSans-115"/>
     <use x="183.886719" xlink:href="#DejaVuSans-116"/>
     <use x="223.095703" xlink:href="#DejaVuSans-114"/>
     <use x="264.208984" xlink:href="#DejaVuSans-97"/>
     <use x="325.488281" xlink:href="#DejaVuSans-108"/>
     <use x="353.271484" xlink:href="#DejaVuSans-105"/>
     <use x="381.054688" xlink:href="#DejaVuSans-97"/>
    </g>
   </g>
   <g id="text_26">
    <!-- Poland -->
    <defs>
     <path d="M 19.671875 64.796875 
L 19.671875 37.40625 
L 32.078125 37.40625 
Q 38.96875 37.40625 42.71875 40.96875 
Q 46.484375 44.53125 46.484375 51.125 
Q 46.484375 57.671875 42.71875 61.234375 
Q 38.96875 64.796875 32.078125 64.796875 
z
M 9.8125 72.90625 
L 32.078125 72.90625 
Q 44.34375 72.90625 50.609375 67.359375 
Q 56.890625 61.8125 56.890625 51.125 
Q 56.890625 40.328125 50.609375 34.8125 
Q 44.34375 29.296875 32.078125 29.296875 
L 19.671875 29.296875 
L 19.671875 0 
L 9.8125 0 
z
" id="DejaVuSans-80"/>
    </defs>
    <g transform="translate(557.53158 295.724895)scale(0.1 -0.1)">
     <use xlink:href="#DejaVuSans-80"/>
     <use x="56.677734" xlink:href="#DejaVuSans-111"/>
     <use x="117.859375" xlink:href="#DejaVuSans-108"/>
     <use x="145.642578" xlink:href="#DejaVuSans-97"/>
     <use x="206.921875" xlink:href="#DejaVuSans-110"/>
     <use x="270.300781" xlink:href="#DejaVuSans-100"/>
    </g>
   </g>
   <g id="text_27">
    <!-- Belarus -->
    <defs>
     <path d="M 19.671875 34.8125 
L 19.671875 8.109375 
L 35.5 8.109375 
Q 43.453125 8.109375 47.28125 11.40625 
Q 51.125 14.703125 51.125 21.484375 
Q 51.125 28.328125 47.28125 31.5625 
Q 43.453125 34.8125 35.5 34.8125 
z
M 19.671875 64.796875 
L 19.671875 42.828125 
L 34.28125 42.828125 
Q 41.5 42.828125 45.03125 45.53125 
Q 48.578125 48.25 48.578125 53.8125 
Q 48.578125 59.328125 45.03125 62.0625 
Q 41.5 64.796875 34.28125 64.796875 
z
M 9.8125 72.90625 
L 35.015625 72.90625 
Q 46.296875 72.90625 52.390625 68.21875 
Q 58.5 63.53125 58.5 54.890625 
Q 58.5 48.1875 55.375 44.234375 
Q 52.25 40.28125 46.1875 39.3125 
Q 53.46875 37.75 57.5 32.78125 
Q 61.53125 27.828125 61.53125 20.40625 
Q 61.53125 10.640625 54.890625 5.3125 
Q 48.25 0 35.984375 0 
L 9.8125 0 
z
" id="DejaVuSans-66"/>
    </defs>
    <g transform="translate(511.022288 307.496107)scale(0.1 -0.1)">
     <use xlink:href="#DejaVuSans-66"/>
     <use x="68.603516" xlink:href="#DejaVuSans-101"/>
     <use x="130.126953" xlink:href="#DejaVuSans-108"/>
     <use x="157.910156" xlink:href="#DejaVuSans-97"/>
     <use x="219.189453" xlink:href="#DejaVuSans-114"/>
     <use x="260.302734" xlink:href="#DejaVuSans-117"/>
     <use x="323.681641" xlink:href="#DejaVuSans-115"/>
    </g>
   </g>
   <g id="text_28">
    <!-- Switzerland -->
    <defs>
     <path d="M 5.515625 54.6875 
L 48.1875 54.6875 
L 48.1875 46.484375 
L 14.40625 7.171875 
L 48.1875 7.171875 
L 48.1875 0 
L 4.296875 0 
L 4.296875 8.203125 
L 38.09375 47.515625 
L 5.515625 47.515625 
z
" id="DejaVuSans-122"/>
    </defs>
    <g transform="translate(595.320379 326.327299)scale(0.1 -0.1)">
     <use xlink:href="#DejaVuSans-83"/>
     <use x="63.476562" xlink:href="#DejaVuSans-119"/>
     <use x="145.263672" xlink:href="#DejaVuSans-105"/>
     <use x="173.046875" xlink:href="#DejaVuSans-116"/>
     <use x="212.255859" xlink:href="#DejaVuSans-122"/>
     <use x="264.746094" xlink:href="#DejaVuSans-101"/>
     <use x="326.269531" xlink:href="#DejaVuSans-114"/>
     <use x="367.382812" xlink:href="#DejaVuSans-108"/>
     <use x="395.166016" xlink:href="#DejaVuSans-97"/>
     <use x="456.445312" xlink:href="#DejaVuSans-110"/>
     <use x="519.824219" xlink:href="#DejaVuSans-100"/>
    </g>
   </g>
   <g id="text_29">
    <!-- US -->
    <defs>
     <path d="M 8.6875 72.90625 
L 18.609375 72.90625 
L 18.609375 28.609375 
Q 18.609375 16.890625 22.84375 11.734375 
Q 27.09375 6.59375 36.625 6.59375 
Q 46.09375 6.59375 50.34375 11.734375 
Q 54.59375 16.890625 54.59375 28.609375 
L 54.59375 72.90625 
L 64.5 72.90625 
L 64.5 27.390625 
Q 64.5 13.140625 57.4375 5.859375 
Q 50.390625 -1.421875 36.625 -1.421875 
Q 22.796875 -1.421875 15.734375 5.859375 
Q 8.6875 13.140625 8.6875 27.390625 
z
" id="DejaVuSans-85"/>
    </defs>
    <g transform="translate(612.761364 240.069744)scale(0.1 -0.1)">
     <use xlink:href="#DejaVuSans-85"/>
     <use x="73.193359" xlink:href="#DejaVuSans-83"/>
    </g>
   </g>
  </g>
 </g>
 <defs>
  <clipPath id="pd265de48ed">
   <rect height="166.621035" width="578.75" x="86.625" y="221.378965"/>
  </clipPath>
 </defs>
</svg>
