<?xml version="1.0" encoding="utf-8" standalone="no"?>
<!DOCTYPE svg PUBLIC "-//W3C//DTD SVG 1.1//EN"
  "http://www.w3.org/Graphics/SVG/1.1/DTD/svg11.dtd">
<!-- Created with matplotlib (https://matplotlib.org/) -->
<svg height="432pt" version="1.1" viewBox="0 0 720 432" width="720pt" xmlns="http://www.w3.org/2000/svg" xmlns:xlink="http://www.w3.org/1999/xlink">
 <defs>
  <style type="text/css">
*{stroke-linecap:butt;stroke-linejoin:round;}
  </style>
 </defs>
 <g id="figure_1">
  <g id="patch_1">
   <path d="M 0 432 
L 720 432 
L 720 0 
L 0 0 
z
" style="fill:#ffffff;"/>
  </g>
  <g id="axes_1">
   <g id="patch_2">
    <path d="M 86.625 177.381244 
L 665.375 177.381244 
L 665.375 10.762488 
L 86.625 10.762488 
z
" style="fill:#e5e5e5;"/>
   </g>
   <g id="matplotlib.axis_1">
    <g id="xtick_1">
     <g id="line2d_1">
      <path clip-path="url(#p182e89781c)" d="M 88.822229 177.381244 
L 88.822229 10.762488 
" style="fill:none;stroke:#ffffff;stroke-linecap:square;stroke-width:0.8;"/>
     </g>
     <g id="line2d_2">
      <defs>
       <path d="M 0 0 
L 0 3.5 
" id="m00e7f9b0f5" style="stroke:#555555;stroke-width:0.8;"/>
      </defs>
      <g>
       <use style="fill:#555555;stroke:#555555;stroke-width:0.8;" x="88.822229" xlink:href="#m00e7f9b0f5" y="177.381244"/>
      </g>
     </g>
     <g id="text_1">
      <!-- 0 -->
      <defs>
       <path d="M 31.78125 66.40625 
Q 24.171875 66.40625 20.328125 58.90625 
Q 16.5 51.421875 16.5 36.375 
Q 16.5 21.390625 20.328125 13.890625 
Q 24.171875 6.390625 31.78125 6.390625 
Q 39.453125 6.390625 43.28125 13.890625 
Q 47.125 21.390625 47.125 36.375 
Q 47.125 51.421875 43.28125 58.90625 
Q 39.453125 66.40625 31.78125 66.40625 
z
M 31.78125 74.21875 
Q 44.046875 74.21875 50.515625 64.515625 
Q 56.984375 54.828125 56.984375 36.375 
Q 56.984375 17.96875 50.515625 8.265625 
Q 44.046875 -1.421875 31.78125 -1.421875 
Q 19.53125 -1.421875 13.0625 8.265625 
Q 6.59375 17.96875 6.59375 36.375 
Q 6.59375 54.828125 13.0625 64.515625 
Q 19.53125 74.21875 31.78125 74.21875 
z
" id="DejaVuSans-48"/>
      </defs>
      <g style="fill:#555555;" transform="translate(85.640979 191.979682)scale(0.1 -0.1)">
       <use xlink:href="#DejaVuSans-48"/>
      </g>
     </g>
    </g>
    <g id="xtick_2">
     <g id="line2d_3">
      <path clip-path="url(#p182e89781c)" d="M 198.683656 177.381244 
L 198.683656 10.762488 
" style="fill:none;stroke:#ffffff;stroke-linecap:square;stroke-width:0.8;"/>
     </g>
     <g id="line2d_4">
      <g>
       <use style="fill:#555555;stroke:#555555;stroke-width:0.8;" x="198.683656" xlink:href="#m00e7f9b0f5" y="177.381244"/>
      </g>
     </g>
     <g id="text_2">
      <!-- 50 -->
      <defs>
       <path d="M 10.796875 72.90625 
L 49.515625 72.90625 
L 49.515625 64.59375 
L 19.828125 64.59375 
L 19.828125 46.734375 
Q 21.96875 47.46875 24.109375 47.828125 
Q 26.265625 48.1875 28.421875 48.1875 
Q 40.625 48.1875 47.75 41.5 
Q 54.890625 34.8125 54.890625 23.390625 
Q 54.890625 11.625 47.5625 5.09375 
Q 40.234375 -1.421875 26.90625 -1.421875 
Q 22.3125 -1.421875 17.546875 -0.640625 
Q 12.796875 0.140625 7.71875 1.703125 
L 7.71875 11.625 
Q 12.109375 9.234375 16.796875 8.0625 
Q 21.484375 6.890625 26.703125 6.890625 
Q 35.15625 6.890625 40.078125 11.328125 
Q 45.015625 15.765625 45.015625 23.390625 
Q 45.015625 31 40.078125 35.4375 
Q 35.15625 39.890625 26.703125 39.890625 
Q 22.75 39.890625 18.8125 39.015625 
Q 14.890625 38.140625 10.796875 36.28125 
z
" id="DejaVuSans-53"/>
      </defs>
      <g style="fill:#555555;" transform="translate(192.321156 191.979682)scale(0.1 -0.1)">
       <use xlink:href="#DejaVuSans-53"/>
       <use x="63.623047" xlink:href="#DejaVuSans-48"/>
      </g>
     </g>
    </g>
    <g id="xtick_3">
     <g id="line2d_5">
      <path clip-path="url(#p182e89781c)" d="M 308.545084 177.381244 
L 308.545084 10.762488 
" style="fill:none;stroke:#ffffff;stroke-linecap:square;stroke-width:0.8;"/>
     </g>
     <g id="line2d_6">
      <g>
       <use style="fill:#555555;stroke:#555555;stroke-width:0.8;" x="308.545084" xlink:href="#m00e7f9b0f5" y="177.381244"/>
      </g>
     </g>
     <g id="text_3">
      <!-- 100 -->
      <defs>
       <path d="M 12.40625 8.296875 
L 28.515625 8.296875 
L 28.515625 63.921875 
L 10.984375 60.40625 
L 10.984375 69.390625 
L 28.421875 72.90625 
L 38.28125 72.90625 
L 38.28125 8.296875 
L 54.390625 8.296875 
L 54.390625 0 
L 12.40625 0 
z
" id="DejaVuSans-49"/>
      </defs>
      <g style="fill:#555555;" transform="translate(299.001334 191.979682)scale(0.1 -0.1)">
       <use xlink:href="#DejaVuSans-49"/>
       <use x="63.623047" xlink:href="#DejaVuSans-48"/>
       <use x="127.246094" xlink:href="#DejaVuSans-48"/>
      </g>
     </g>
    </g>
    <g id="xtick_4">
     <g id="line2d_7">
      <path clip-path="url(#p182e89781c)" d="M 418.406511 177.381244 
L 418.406511 10.762488 
" style="fill:none;stroke:#ffffff;stroke-linecap:square;stroke-width:0.8;"/>
     </g>
     <g id="line2d_8">
      <g>
       <use style="fill:#555555;stroke:#555555;stroke-width:0.8;" x="418.406511" xlink:href="#m00e7f9b0f5" y="177.381244"/>
      </g>
     </g>
     <g id="text_4">
      <!-- 150 -->
      <g style="fill:#555555;" transform="translate(408.862761 191.979682)scale(0.1 -0.1)">
       <use xlink:href="#DejaVuSans-49"/>
       <use x="63.623047" xlink:href="#DejaVuSans-53"/>
       <use x="127.246094" xlink:href="#DejaVuSans-48"/>
      </g>
     </g>
    </g>
    <g id="xtick_5">
     <g id="line2d_9">
      <path clip-path="url(#p182e89781c)" d="M 528.267938 177.381244 
L 528.267938 10.762488 
" style="fill:none;stroke:#ffffff;stroke-linecap:square;stroke-width:0.8;"/>
     </g>
     <g id="line2d_10">
      <g>
       <use style="fill:#555555;stroke:#555555;stroke-width:0.8;" x="528.267938" xlink:href="#m00e7f9b0f5" y="177.381244"/>
      </g>
     </g>
     <g id="text_5">
      <!-- 200 -->
      <defs>
       <path d="M 19.1875 8.296875 
L 53.609375 8.296875 
L 53.609375 0 
L 7.328125 0 
L 7.328125 8.296875 
Q 12.9375 14.109375 22.625 23.890625 
Q 32.328125 33.6875 34.8125 36.53125 
Q 39.546875 41.84375 41.421875 45.53125 
Q 43.3125 49.21875 43.3125 52.78125 
Q 43.3125 58.59375 39.234375 62.25 
Q 35.15625 65.921875 28.609375 65.921875 
Q 23.96875 65.921875 18.8125 64.3125 
Q 13.671875 62.703125 7.8125 59.421875 
L 7.8125 69.390625 
Q 13.765625 71.78125 18.9375 73 
Q 24.125 74.21875 28.421875 74.21875 
Q 39.75 74.21875 46.484375 68.546875 
Q 53.21875 62.890625 53.21875 53.421875 
Q 53.21875 48.921875 51.53125 44.890625 
Q 49.859375 40.875 45.40625 35.40625 
Q 44.1875 33.984375 37.640625 27.21875 
Q 31.109375 20.453125 19.1875 8.296875 
z
" id="DejaVuSans-50"/>
      </defs>
      <g style="fill:#555555;" transform="translate(518.724188 191.979682)scale(0.1 -0.1)">
       <use xlink:href="#DejaVuSans-50"/>
       <use x="63.623047" xlink:href="#DejaVuSans-48"/>
       <use x="127.246094" xlink:href="#DejaVuSans-48"/>
      </g>
     </g>
    </g>
    <g id="xtick_6">
     <g id="line2d_11">
      <path clip-path="url(#p182e89781c)" d="M 638.129366 177.381244 
L 638.129366 10.762488 
" style="fill:none;stroke:#ffffff;stroke-linecap:square;stroke-width:0.8;"/>
     </g>
     <g id="line2d_12">
      <g>
       <use style="fill:#555555;stroke:#555555;stroke-width:0.8;" x="638.129366" xlink:href="#m00e7f9b0f5" y="177.381244"/>
      </g>
     </g>
     <g id="text_6">
      <!-- 250 -->
      <g style="fill:#555555;" transform="translate(628.585616 191.979682)scale(0.1 -0.1)">
       <use xlink:href="#DejaVuSans-50"/>
       <use x="63.623047" xlink:href="#DejaVuSans-53"/>
       <use x="127.246094" xlink:href="#DejaVuSans-48"/>
      </g>
     </g>
    </g>
    <g id="text_7">
     <!-- days since 10 cases -->
     <defs>
      <path d="M 45.40625 46.390625 
L 45.40625 75.984375 
L 54.390625 75.984375 
L 54.390625 0 
L 45.40625 0 
L 45.40625 8.203125 
Q 42.578125 3.328125 38.25 0.953125 
Q 33.9375 -1.421875 27.875 -1.421875 
Q 17.96875 -1.421875 11.734375 6.484375 
Q 5.515625 14.40625 5.515625 27.296875 
Q 5.515625 40.1875 11.734375 48.09375 
Q 17.96875 56 27.875 56 
Q 33.9375 56 38.25 53.625 
Q 42.578125 51.265625 45.40625 46.390625 
z
M 14.796875 27.296875 
Q 14.796875 17.390625 18.875 11.75 
Q 22.953125 6.109375 30.078125 6.109375 
Q 37.203125 6.109375 41.296875 11.75 
Q 45.40625 17.390625 45.40625 27.296875 
Q 45.40625 37.203125 41.296875 42.84375 
Q 37.203125 48.484375 30.078125 48.484375 
Q 22.953125 48.484375 18.875 42.84375 
Q 14.796875 37.203125 14.796875 27.296875 
z
" id="DejaVuSans-100"/>
      <path d="M 34.28125 27.484375 
Q 23.390625 27.484375 19.1875 25 
Q 14.984375 22.515625 14.984375 16.5 
Q 14.984375 11.71875 18.140625 8.90625 
Q 21.296875 6.109375 26.703125 6.109375 
Q 34.1875 6.109375 38.703125 11.40625 
Q 43.21875 16.703125 43.21875 25.484375 
L 43.21875 27.484375 
z
M 52.203125 31.203125 
L 52.203125 0 
L 43.21875 0 
L 43.21875 8.296875 
Q 40.140625 3.328125 35.546875 0.953125 
Q 30.953125 -1.421875 24.3125 -1.421875 
Q 15.921875 -1.421875 10.953125 3.296875 
Q 6 8.015625 6 15.921875 
Q 6 25.140625 12.171875 29.828125 
Q 18.359375 34.515625 30.609375 34.515625 
L 43.21875 34.515625 
L 43.21875 35.40625 
Q 43.21875 41.609375 39.140625 45 
Q 35.0625 48.390625 27.6875 48.390625 
Q 23 48.390625 18.546875 47.265625 
Q 14.109375 46.140625 10.015625 43.890625 
L 10.015625 52.203125 
Q 14.9375 54.109375 19.578125 55.046875 
Q 24.21875 56 28.609375 56 
Q 40.484375 56 46.34375 49.84375 
Q 52.203125 43.703125 52.203125 31.203125 
z
" id="DejaVuSans-97"/>
      <path d="M 32.171875 -5.078125 
Q 28.375 -14.84375 24.75 -17.8125 
Q 21.140625 -20.796875 15.09375 -20.796875 
L 7.90625 -20.796875 
L 7.90625 -13.28125 
L 13.1875 -13.28125 
Q 16.890625 -13.28125 18.9375 -11.515625 
Q 21 -9.765625 23.484375 -3.21875 
L 25.09375 0.875 
L 2.984375 54.6875 
L 12.5 54.6875 
L 29.59375 11.921875 
L 46.6875 54.6875 
L 56.203125 54.6875 
z
" id="DejaVuSans-121"/>
      <path d="M 44.28125 53.078125 
L 44.28125 44.578125 
Q 40.484375 46.53125 36.375 47.5 
Q 32.28125 48.484375 27.875 48.484375 
Q 21.1875 48.484375 17.84375 46.4375 
Q 14.5 44.390625 14.5 40.28125 
Q 14.5 37.15625 16.890625 35.375 
Q 19.28125 33.59375 26.515625 31.984375 
L 29.59375 31.296875 
Q 39.15625 29.25 43.1875 25.515625 
Q 47.21875 21.78125 47.21875 15.09375 
Q 47.21875 7.46875 41.1875 3.015625 
Q 35.15625 -1.421875 24.609375 -1.421875 
Q 20.21875 -1.421875 15.453125 -0.5625 
Q 10.6875 0.296875 5.421875 2 
L 5.421875 11.28125 
Q 10.40625 8.6875 15.234375 7.390625 
Q 20.0625 6.109375 24.8125 6.109375 
Q 31.15625 6.109375 34.5625 8.28125 
Q 37.984375 10.453125 37.984375 14.40625 
Q 37.984375 18.0625 35.515625 20.015625 
Q 33.0625 21.96875 24.703125 23.78125 
L 21.578125 24.515625 
Q 13.234375 26.265625 9.515625 29.90625 
Q 5.8125 33.546875 5.8125 39.890625 
Q 5.8125 47.609375 11.28125 51.796875 
Q 16.75 56 26.8125 56 
Q 31.78125 56 36.171875 55.265625 
Q 40.578125 54.546875 44.28125 53.078125 
z
" id="DejaVuSans-115"/>
      <path id="DejaVuSans-32"/>
      <path d="M 9.421875 54.6875 
L 18.40625 54.6875 
L 18.40625 0 
L 9.421875 0 
z
M 9.421875 75.984375 
L 18.40625 75.984375 
L 18.40625 64.59375 
L 9.421875 64.59375 
z
" id="DejaVuSans-105"/>
      <path d="M 54.890625 33.015625 
L 54.890625 0 
L 45.90625 0 
L 45.90625 32.71875 
Q 45.90625 40.484375 42.875 44.328125 
Q 39.84375 48.1875 33.796875 48.1875 
Q 26.515625 48.1875 22.3125 43.546875 
Q 18.109375 38.921875 18.109375 30.90625 
L 18.109375 0 
L 9.078125 0 
L 9.078125 54.6875 
L 18.109375 54.6875 
L 18.109375 46.1875 
Q 21.34375 51.125 25.703125 53.5625 
Q 30.078125 56 35.796875 56 
Q 45.21875 56 50.046875 50.171875 
Q 54.890625 44.34375 54.890625 33.015625 
z
" id="DejaVuSans-110"/>
      <path d="M 48.78125 52.59375 
L 48.78125 44.1875 
Q 44.96875 46.296875 41.140625 47.34375 
Q 37.3125 48.390625 33.40625 48.390625 
Q 24.65625 48.390625 19.8125 42.84375 
Q 14.984375 37.3125 14.984375 27.296875 
Q 14.984375 17.28125 19.8125 11.734375 
Q 24.65625 6.203125 33.40625 6.203125 
Q 37.3125 6.203125 41.140625 7.25 
Q 44.96875 8.296875 48.78125 10.40625 
L 48.78125 2.09375 
Q 45.015625 0.34375 40.984375 -0.53125 
Q 36.96875 -1.421875 32.421875 -1.421875 
Q 20.0625 -1.421875 12.78125 6.34375 
Q 5.515625 14.109375 5.515625 27.296875 
Q 5.515625 40.671875 12.859375 48.328125 
Q 20.21875 56 33.015625 56 
Q 37.15625 56 41.109375 55.140625 
Q 45.0625 54.296875 48.78125 52.59375 
z
" id="DejaVuSans-99"/>
      <path d="M 56.203125 29.59375 
L 56.203125 25.203125 
L 14.890625 25.203125 
Q 15.484375 15.921875 20.484375 11.0625 
Q 25.484375 6.203125 34.421875 6.203125 
Q 39.59375 6.203125 44.453125 7.46875 
Q 49.3125 8.734375 54.109375 11.28125 
L 54.109375 2.78125 
Q 49.265625 0.734375 44.1875 -0.34375 
Q 39.109375 -1.421875 33.890625 -1.421875 
Q 20.796875 -1.421875 13.15625 6.1875 
Q 5.515625 13.8125 5.515625 26.8125 
Q 5.515625 40.234375 12.765625 48.109375 
Q 20.015625 56 32.328125 56 
Q 43.359375 56 49.78125 48.890625 
Q 56.203125 41.796875 56.203125 29.59375 
z
M 47.21875 32.234375 
Q 47.125 39.59375 43.09375 43.984375 
Q 39.0625 48.390625 32.421875 48.390625 
Q 24.90625 48.390625 20.390625 44.140625 
Q 15.875 39.890625 15.1875 32.171875 
z
" id="DejaVuSans-101"/>
     </defs>
     <g style="fill:#555555;" transform="translate(315.976562 207.177494)scale(0.12 -0.12)">
      <use xlink:href="#DejaVuSans-100"/>
      <use x="63.476562" xlink:href="#DejaVuSans-97"/>
      <use x="124.755859" xlink:href="#DejaVuSans-121"/>
      <use x="183.935547" xlink:href="#DejaVuSans-115"/>
      <use x="236.035156" xlink:href="#DejaVuSans-32"/>
      <use x="267.822266" xlink:href="#DejaVuSans-115"/>
      <use x="319.921875" xlink:href="#DejaVuSans-105"/>
      <use x="347.705078" xlink:href="#DejaVuSans-110"/>
      <use x="411.083984" xlink:href="#DejaVuSans-99"/>
      <use x="466.064453" xlink:href="#DejaVuSans-101"/>
      <use x="527.587891" xlink:href="#DejaVuSans-32"/>
      <use x="559.375" xlink:href="#DejaVuSans-49"/>
      <use x="622.998047" xlink:href="#DejaVuSans-48"/>
      <use x="686.621094" xlink:href="#DejaVuSans-32"/>
      <use x="718.408203" xlink:href="#DejaVuSans-99"/>
      <use x="773.388672" xlink:href="#DejaVuSans-97"/>
      <use x="834.667969" xlink:href="#DejaVuSans-115"/>
      <use x="886.767578" xlink:href="#DejaVuSans-101"/>
      <use x="948.291016" xlink:href="#DejaVuSans-115"/>
     </g>
    </g>
   </g>
   <g id="matplotlib.axis_2">
    <g id="ytick_1">
     <g id="line2d_13">
      <path clip-path="url(#p182e89781c)" d="M 86.625 177.381244 
L 665.375 177.381244 
" style="fill:none;stroke:#ffffff;stroke-linecap:square;stroke-width:0.8;"/>
     </g>
     <g id="line2d_14">
      <defs>
       <path d="M 0 0 
L -3.5 0 
" id="m62b8050d81" style="stroke:#555555;stroke-width:0.8;"/>
      </defs>
      <g>
       <use style="fill:#555555;stroke:#555555;stroke-width:0.8;" x="86.625" xlink:href="#m62b8050d81" y="177.381244"/>
      </g>
     </g>
     <g id="line2d_15">
      <defs>
       <path d="M 0 0 
L 3.5 0 
" id="m205cd3e72d" style="stroke:#555555;stroke-width:0.8;"/>
      </defs>
      <g>
       <use style="fill:#555555;stroke:#555555;stroke-width:0.8;" x="665.375" xlink:href="#m205cd3e72d" y="177.381244"/>
      </g>
     </g>
     <g id="text_8">
      <!-- 1 -->
      <g style="fill:#555555;" transform="translate(73.2625 181.180463)scale(0.1 -0.1)">
       <use xlink:href="#DejaVuSans-49"/>
      </g>
     </g>
     <g id="text_9">
      <!-- 1 -->
      <g style="fill:#555555;" transform="translate(672.375 181.180463)scale(0.1 -0.1)">
       <use xlink:href="#DejaVuSans-49"/>
      </g>
     </g>
    </g>
    <g id="ytick_2">
     <g id="line2d_16">
      <path clip-path="url(#p182e89781c)" d="M 86.625 144.785201 
L 665.375 144.785201 
" style="fill:none;stroke:#ffffff;stroke-linecap:square;stroke-width:0.8;"/>
     </g>
     <g id="line2d_17">
      <g>
       <use style="fill:#555555;stroke:#555555;stroke-width:0.8;" x="86.625" xlink:href="#m62b8050d81" y="144.785201"/>
      </g>
     </g>
     <g id="line2d_18">
      <g>
       <use style="fill:#555555;stroke:#555555;stroke-width:0.8;" x="665.375" xlink:href="#m205cd3e72d" y="144.785201"/>
      </g>
     </g>
     <g id="text_10">
      <!-- 10 -->
      <g style="fill:#555555;" transform="translate(66.9 148.58442)scale(0.1 -0.1)">
       <use xlink:href="#DejaVuSans-49"/>
       <use x="63.623047" xlink:href="#DejaVuSans-48"/>
      </g>
     </g>
     <g id="text_11">
      <!-- 10 -->
      <g style="fill:#555555;" transform="translate(672.375 148.58442)scale(0.1 -0.1)">
       <use xlink:href="#DejaVuSans-49"/>
       <use x="63.623047" xlink:href="#DejaVuSans-48"/>
      </g>
     </g>
    </g>
    <g id="ytick_3">
     <g id="line2d_19">
      <path clip-path="url(#p182e89781c)" d="M 86.625 112.189158 
L 665.375 112.189158 
" style="fill:none;stroke:#ffffff;stroke-linecap:square;stroke-width:0.8;"/>
     </g>
     <g id="line2d_20">
      <g>
       <use style="fill:#555555;stroke:#555555;stroke-width:0.8;" x="86.625" xlink:href="#m62b8050d81" y="112.189158"/>
      </g>
     </g>
     <g id="line2d_21">
      <g>
       <use style="fill:#555555;stroke:#555555;stroke-width:0.8;" x="665.375" xlink:href="#m205cd3e72d" y="112.189158"/>
      </g>
     </g>
     <g id="text_12">
      <!-- 100 -->
      <g style="fill:#555555;" transform="translate(60.5375 115.988377)scale(0.1 -0.1)">
       <use xlink:href="#DejaVuSans-49"/>
       <use x="63.623047" xlink:href="#DejaVuSans-48"/>
       <use x="127.246094" xlink:href="#DejaVuSans-48"/>
      </g>
     </g>
     <g id="text_13">
      <!-- 100 -->
      <g style="fill:#555555;" transform="translate(672.375 115.988377)scale(0.1 -0.1)">
       <use xlink:href="#DejaVuSans-49"/>
       <use x="63.623047" xlink:href="#DejaVuSans-48"/>
       <use x="127.246094" xlink:href="#DejaVuSans-48"/>
      </g>
     </g>
    </g>
    <g id="ytick_4">
     <g id="line2d_22">
      <path clip-path="url(#p182e89781c)" d="M 86.625 79.593115 
L 665.375 79.593115 
" style="fill:none;stroke:#ffffff;stroke-linecap:square;stroke-width:0.8;"/>
     </g>
     <g id="line2d_23">
      <g>
       <use style="fill:#555555;stroke:#555555;stroke-width:0.8;" x="86.625" xlink:href="#m62b8050d81" y="79.593115"/>
      </g>
     </g>
     <g id="line2d_24">
      <g>
       <use style="fill:#555555;stroke:#555555;stroke-width:0.8;" x="665.375" xlink:href="#m205cd3e72d" y="79.593115"/>
      </g>
     </g>
     <g id="text_14">
      <!-- 1000 -->
      <g style="fill:#555555;" transform="translate(54.175 83.392334)scale(0.1 -0.1)">
       <use xlink:href="#DejaVuSans-49"/>
       <use x="63.623047" xlink:href="#DejaVuSans-48"/>
       <use x="127.246094" xlink:href="#DejaVuSans-48"/>
       <use x="190.869141" xlink:href="#DejaVuSans-48"/>
      </g>
     </g>
     <g id="text_15">
      <!-- 1000 -->
      <g style="fill:#555555;" transform="translate(672.375 83.392334)scale(0.1 -0.1)">
       <use xlink:href="#DejaVuSans-49"/>
       <use x="63.623047" xlink:href="#DejaVuSans-48"/>
       <use x="127.246094" xlink:href="#DejaVuSans-48"/>
       <use x="190.869141" xlink:href="#DejaVuSans-48"/>
      </g>
     </g>
    </g>
    <g id="ytick_5">
     <g id="line2d_25">
      <path clip-path="url(#p182e89781c)" d="M 86.625 46.997072 
L 665.375 46.997072 
" style="fill:none;stroke:#ffffff;stroke-linecap:square;stroke-width:0.8;"/>
     </g>
     <g id="line2d_26">
      <g>
       <use style="fill:#555555;stroke:#555555;stroke-width:0.8;" x="86.625" xlink:href="#m62b8050d81" y="46.997072"/>
      </g>
     </g>
     <g id="line2d_27">
      <g>
       <use style="fill:#555555;stroke:#555555;stroke-width:0.8;" x="665.375" xlink:href="#m205cd3e72d" y="46.997072"/>
      </g>
     </g>
     <g id="text_16">
      <!-- 10000 -->
      <g style="fill:#555555;" transform="translate(47.8125 50.796291)scale(0.1 -0.1)">
       <use xlink:href="#DejaVuSans-49"/>
       <use x="63.623047" xlink:href="#DejaVuSans-48"/>
       <use x="127.246094" xlink:href="#DejaVuSans-48"/>
       <use x="190.869141" xlink:href="#DejaVuSans-48"/>
       <use x="254.492188" xlink:href="#DejaVuSans-48"/>
      </g>
     </g>
     <g id="text_17">
      <!-- 10000 -->
      <g style="fill:#555555;" transform="translate(672.375 50.796291)scale(0.1 -0.1)">
       <use xlink:href="#DejaVuSans-49"/>
       <use x="63.623047" xlink:href="#DejaVuSans-48"/>
       <use x="127.246094" xlink:href="#DejaVuSans-48"/>
       <use x="190.869141" xlink:href="#DejaVuSans-48"/>
       <use x="254.492188" xlink:href="#DejaVuSans-48"/>
      </g>
     </g>
    </g>
    <g id="ytick_6">
     <g id="line2d_28">
      <path clip-path="url(#p182e89781c)" d="M 86.625 14.401029 
L 665.375 14.401029 
" style="fill:none;stroke:#ffffff;stroke-linecap:square;stroke-width:0.8;"/>
     </g>
     <g id="line2d_29">
      <g>
       <use style="fill:#555555;stroke:#555555;stroke-width:0.8;" x="86.625" xlink:href="#m62b8050d81" y="14.401029"/>
      </g>
     </g>
     <g id="line2d_30">
      <g>
       <use style="fill:#555555;stroke:#555555;stroke-width:0.8;" x="665.375" xlink:href="#m205cd3e72d" y="14.401029"/>
      </g>
     </g>
     <g id="text_18">
      <!-- 100000 -->
      <g style="fill:#555555;" transform="translate(41.45 18.200248)scale(0.1 -0.1)">
       <use xlink:href="#DejaVuSans-49"/>
       <use x="63.623047" xlink:href="#DejaVuSans-48"/>
       <use x="127.246094" xlink:href="#DejaVuSans-48"/>
       <use x="190.869141" xlink:href="#DejaVuSans-48"/>
       <use x="254.492188" xlink:href="#DejaVuSans-48"/>
       <use x="318.115234" xlink:href="#DejaVuSans-48"/>
      </g>
     </g>
     <g id="text_19">
      <!-- 100000 -->
      <g style="fill:#555555;" transform="translate(672.375 18.200248)scale(0.1 -0.1)">
       <use xlink:href="#DejaVuSans-49"/>
       <use x="63.623047" xlink:href="#DejaVuSans-48"/>
       <use x="127.246094" xlink:href="#DejaVuSans-48"/>
       <use x="190.869141" xlink:href="#DejaVuSans-48"/>
       <use x="254.492188" xlink:href="#DejaVuSans-48"/>
       <use x="318.115234" xlink:href="#DejaVuSans-48"/>
      </g>
     </g>
    </g>
    <g id="ytick_7">
     <g id="line2d_31">
      <defs>
       <path d="M 0 0 
L -2 0 
" id="m7f5c8c577d" style="stroke:#555555;stroke-width:0.6;"/>
      </defs>
      <g>
       <use style="fill:#555555;stroke:#555555;stroke-width:0.6;" x="86.625" xlink:href="#m7f5c8c577d" y="167.568857"/>
      </g>
     </g>
     <g id="line2d_32">
      <defs>
       <path d="M 0 0 
L 2 0 
" id="m31dc122a27" style="stroke:#555555;stroke-width:0.6;"/>
      </defs>
      <g>
       <use style="fill:#555555;stroke:#555555;stroke-width:0.6;" x="665.375" xlink:href="#m31dc122a27" y="167.568857"/>
      </g>
     </g>
    </g>
    <g id="ytick_8">
     <g id="line2d_33">
      <g>
       <use style="fill:#555555;stroke:#555555;stroke-width:0.6;" x="86.625" xlink:href="#m7f5c8c577d" y="161.828979"/>
      </g>
     </g>
     <g id="line2d_34">
      <g>
       <use style="fill:#555555;stroke:#555555;stroke-width:0.6;" x="665.375" xlink:href="#m31dc122a27" y="161.828979"/>
      </g>
     </g>
    </g>
    <g id="ytick_9">
     <g id="line2d_35">
      <g>
       <use style="fill:#555555;stroke:#555555;stroke-width:0.6;" x="86.625" xlink:href="#m7f5c8c577d" y="157.756471"/>
      </g>
     </g>
     <g id="line2d_36">
      <g>
       <use style="fill:#555555;stroke:#555555;stroke-width:0.6;" x="665.375" xlink:href="#m31dc122a27" y="157.756471"/>
      </g>
     </g>
    </g>
    <g id="ytick_10">
     <g id="line2d_37">
      <g>
       <use style="fill:#555555;stroke:#555555;stroke-width:0.6;" x="86.625" xlink:href="#m7f5c8c577d" y="154.597588"/>
      </g>
     </g>
     <g id="line2d_38">
      <g>
       <use style="fill:#555555;stroke:#555555;stroke-width:0.6;" x="665.375" xlink:href="#m31dc122a27" y="154.597588"/>
      </g>
     </g>
    </g>
    <g id="ytick_11">
     <g id="line2d_39">
      <g>
       <use style="fill:#555555;stroke:#555555;stroke-width:0.6;" x="86.625" xlink:href="#m7f5c8c577d" y="152.016592"/>
      </g>
     </g>
     <g id="line2d_40">
      <g>
       <use style="fill:#555555;stroke:#555555;stroke-width:0.6;" x="665.375" xlink:href="#m31dc122a27" y="152.016592"/>
      </g>
     </g>
    </g>
    <g id="ytick_12">
     <g id="line2d_41">
      <g>
       <use style="fill:#555555;stroke:#555555;stroke-width:0.6;" x="86.625" xlink:href="#m7f5c8c577d" y="149.834392"/>
      </g>
     </g>
     <g id="line2d_42">
      <g>
       <use style="fill:#555555;stroke:#555555;stroke-width:0.6;" x="665.375" xlink:href="#m31dc122a27" y="149.834392"/>
      </g>
     </g>
    </g>
    <g id="ytick_13">
     <g id="line2d_43">
      <g>
       <use style="fill:#555555;stroke:#555555;stroke-width:0.6;" x="86.625" xlink:href="#m7f5c8c577d" y="147.944084"/>
      </g>
     </g>
     <g id="line2d_44">
      <g>
       <use style="fill:#555555;stroke:#555555;stroke-width:0.6;" x="665.375" xlink:href="#m31dc122a27" y="147.944084"/>
      </g>
     </g>
    </g>
    <g id="ytick_14">
     <g id="line2d_45">
      <g>
       <use style="fill:#555555;stroke:#555555;stroke-width:0.6;" x="86.625" xlink:href="#m7f5c8c577d" y="146.276714"/>
      </g>
     </g>
     <g id="line2d_46">
      <g>
       <use style="fill:#555555;stroke:#555555;stroke-width:0.6;" x="665.375" xlink:href="#m31dc122a27" y="146.276714"/>
      </g>
     </g>
    </g>
    <g id="ytick_15">
     <g id="line2d_47">
      <g>
       <use style="fill:#555555;stroke:#555555;stroke-width:0.6;" x="86.625" xlink:href="#m7f5c8c577d" y="134.972814"/>
      </g>
     </g>
     <g id="line2d_48">
      <g>
       <use style="fill:#555555;stroke:#555555;stroke-width:0.6;" x="665.375" xlink:href="#m31dc122a27" y="134.972814"/>
      </g>
     </g>
    </g>
    <g id="ytick_16">
     <g id="line2d_49">
      <g>
       <use style="fill:#555555;stroke:#555555;stroke-width:0.6;" x="86.625" xlink:href="#m7f5c8c577d" y="129.232936"/>
      </g>
     </g>
     <g id="line2d_50">
      <g>
       <use style="fill:#555555;stroke:#555555;stroke-width:0.6;" x="665.375" xlink:href="#m31dc122a27" y="129.232936"/>
      </g>
     </g>
    </g>
    <g id="ytick_17">
     <g id="line2d_51">
      <g>
       <use style="fill:#555555;stroke:#555555;stroke-width:0.6;" x="86.625" xlink:href="#m7f5c8c577d" y="125.160428"/>
      </g>
     </g>
     <g id="line2d_52">
      <g>
       <use style="fill:#555555;stroke:#555555;stroke-width:0.6;" x="665.375" xlink:href="#m31dc122a27" y="125.160428"/>
      </g>
     </g>
    </g>
    <g id="ytick_18">
     <g id="line2d_53">
      <g>
       <use style="fill:#555555;stroke:#555555;stroke-width:0.6;" x="86.625" xlink:href="#m7f5c8c577d" y="122.001545"/>
      </g>
     </g>
     <g id="line2d_54">
      <g>
       <use style="fill:#555555;stroke:#555555;stroke-width:0.6;" x="665.375" xlink:href="#m31dc122a27" y="122.001545"/>
      </g>
     </g>
    </g>
    <g id="ytick_19">
     <g id="line2d_55">
      <g>
       <use style="fill:#555555;stroke:#555555;stroke-width:0.6;" x="86.625" xlink:href="#m7f5c8c577d" y="119.420549"/>
      </g>
     </g>
     <g id="line2d_56">
      <g>
       <use style="fill:#555555;stroke:#555555;stroke-width:0.6;" x="665.375" xlink:href="#m31dc122a27" y="119.420549"/>
      </g>
     </g>
    </g>
    <g id="ytick_20">
     <g id="line2d_57">
      <g>
       <use style="fill:#555555;stroke:#555555;stroke-width:0.6;" x="86.625" xlink:href="#m7f5c8c577d" y="117.238349"/>
      </g>
     </g>
     <g id="line2d_58">
      <g>
       <use style="fill:#555555;stroke:#555555;stroke-width:0.6;" x="665.375" xlink:href="#m31dc122a27" y="117.238349"/>
      </g>
     </g>
    </g>
    <g id="ytick_21">
     <g id="line2d_59">
      <g>
       <use style="fill:#555555;stroke:#555555;stroke-width:0.6;" x="86.625" xlink:href="#m7f5c8c577d" y="115.348041"/>
      </g>
     </g>
     <g id="line2d_60">
      <g>
       <use style="fill:#555555;stroke:#555555;stroke-width:0.6;" x="665.375" xlink:href="#m31dc122a27" y="115.348041"/>
      </g>
     </g>
    </g>
    <g id="ytick_22">
     <g id="line2d_61">
      <g>
       <use style="fill:#555555;stroke:#555555;stroke-width:0.6;" x="86.625" xlink:href="#m7f5c8c577d" y="113.680671"/>
      </g>
     </g>
     <g id="line2d_62">
      <g>
       <use style="fill:#555555;stroke:#555555;stroke-width:0.6;" x="665.375" xlink:href="#m31dc122a27" y="113.680671"/>
      </g>
     </g>
    </g>
    <g id="ytick_23">
     <g id="line2d_63">
      <g>
       <use style="fill:#555555;stroke:#555555;stroke-width:0.6;" x="86.625" xlink:href="#m7f5c8c577d" y="102.376771"/>
      </g>
     </g>
     <g id="line2d_64">
      <g>
       <use style="fill:#555555;stroke:#555555;stroke-width:0.6;" x="665.375" xlink:href="#m31dc122a27" y="102.376771"/>
      </g>
     </g>
    </g>
    <g id="ytick_24">
     <g id="line2d_65">
      <g>
       <use style="fill:#555555;stroke:#555555;stroke-width:0.6;" x="86.625" xlink:href="#m7f5c8c577d" y="96.636893"/>
      </g>
     </g>
     <g id="line2d_66">
      <g>
       <use style="fill:#555555;stroke:#555555;stroke-width:0.6;" x="665.375" xlink:href="#m31dc122a27" y="96.636893"/>
      </g>
     </g>
    </g>
    <g id="ytick_25">
     <g id="line2d_67">
      <g>
       <use style="fill:#555555;stroke:#555555;stroke-width:0.6;" x="86.625" xlink:href="#m7f5c8c577d" y="92.564385"/>
      </g>
     </g>
     <g id="line2d_68">
      <g>
       <use style="fill:#555555;stroke:#555555;stroke-width:0.6;" x="665.375" xlink:href="#m31dc122a27" y="92.564385"/>
      </g>
     </g>
    </g>
    <g id="ytick_26">
     <g id="line2d_69">
      <g>
       <use style="fill:#555555;stroke:#555555;stroke-width:0.6;" x="86.625" xlink:href="#m7f5c8c577d" y="89.405502"/>
      </g>
     </g>
     <g id="line2d_70">
      <g>
       <use style="fill:#555555;stroke:#555555;stroke-width:0.6;" x="665.375" xlink:href="#m31dc122a27" y="89.405502"/>
      </g>
     </g>
    </g>
    <g id="ytick_27">
     <g id="line2d_71">
      <g>
       <use style="fill:#555555;stroke:#555555;stroke-width:0.6;" x="86.625" xlink:href="#m7f5c8c577d" y="86.824506"/>
      </g>
     </g>
     <g id="line2d_72">
      <g>
       <use style="fill:#555555;stroke:#555555;stroke-width:0.6;" x="665.375" xlink:href="#m31dc122a27" y="86.824506"/>
      </g>
     </g>
    </g>
    <g id="ytick_28">
     <g id="line2d_73">
      <g>
       <use style="fill:#555555;stroke:#555555;stroke-width:0.6;" x="86.625" xlink:href="#m7f5c8c577d" y="84.642306"/>
      </g>
     </g>
     <g id="line2d_74">
      <g>
       <use style="fill:#555555;stroke:#555555;stroke-width:0.6;" x="665.375" xlink:href="#m31dc122a27" y="84.642306"/>
      </g>
     </g>
    </g>
    <g id="ytick_29">
     <g id="line2d_75">
      <g>
       <use style="fill:#555555;stroke:#555555;stroke-width:0.6;" x="86.625" xlink:href="#m7f5c8c577d" y="82.751998"/>
      </g>
     </g>
     <g id="line2d_76">
      <g>
       <use style="fill:#555555;stroke:#555555;stroke-width:0.6;" x="665.375" xlink:href="#m31dc122a27" y="82.751998"/>
      </g>
     </g>
    </g>
    <g id="ytick_30">
     <g id="line2d_77">
      <g>
       <use style="fill:#555555;stroke:#555555;stroke-width:0.6;" x="86.625" xlink:href="#m7f5c8c577d" y="81.084628"/>
      </g>
     </g>
     <g id="line2d_78">
      <g>
       <use style="fill:#555555;stroke:#555555;stroke-width:0.6;" x="665.375" xlink:href="#m31dc122a27" y="81.084628"/>
      </g>
     </g>
    </g>
    <g id="ytick_31">
     <g id="line2d_79">
      <g>
       <use style="fill:#555555;stroke:#555555;stroke-width:0.6;" x="86.625" xlink:href="#m7f5c8c577d" y="69.780728"/>
      </g>
     </g>
     <g id="line2d_80">
      <g>
       <use style="fill:#555555;stroke:#555555;stroke-width:0.6;" x="665.375" xlink:href="#m31dc122a27" y="69.780728"/>
      </g>
     </g>
    </g>
    <g id="ytick_32">
     <g id="line2d_81">
      <g>
       <use style="fill:#555555;stroke:#555555;stroke-width:0.6;" x="86.625" xlink:href="#m7f5c8c577d" y="64.04085"/>
      </g>
     </g>
     <g id="line2d_82">
      <g>
       <use style="fill:#555555;stroke:#555555;stroke-width:0.6;" x="665.375" xlink:href="#m31dc122a27" y="64.04085"/>
      </g>
     </g>
    </g>
    <g id="ytick_33">
     <g id="line2d_83">
      <g>
       <use style="fill:#555555;stroke:#555555;stroke-width:0.6;" x="86.625" xlink:href="#m7f5c8c577d" y="59.968342"/>
      </g>
     </g>
     <g id="line2d_84">
      <g>
       <use style="fill:#555555;stroke:#555555;stroke-width:0.6;" x="665.375" xlink:href="#m31dc122a27" y="59.968342"/>
      </g>
     </g>
    </g>
    <g id="ytick_34">
     <g id="line2d_85">
      <g>
       <use style="fill:#555555;stroke:#555555;stroke-width:0.6;" x="86.625" xlink:href="#m7f5c8c577d" y="56.809459"/>
      </g>
     </g>
     <g id="line2d_86">
      <g>
       <use style="fill:#555555;stroke:#555555;stroke-width:0.6;" x="665.375" xlink:href="#m31dc122a27" y="56.809459"/>
      </g>
     </g>
    </g>
    <g id="ytick_35">
     <g id="line2d_87">
      <g>
       <use style="fill:#555555;stroke:#555555;stroke-width:0.6;" x="86.625" xlink:href="#m7f5c8c577d" y="54.228463"/>
      </g>
     </g>
     <g id="line2d_88">
      <g>
       <use style="fill:#555555;stroke:#555555;stroke-width:0.6;" x="665.375" xlink:href="#m31dc122a27" y="54.228463"/>
      </g>
     </g>
    </g>
    <g id="ytick_36">
     <g id="line2d_89">
      <g>
       <use style="fill:#555555;stroke:#555555;stroke-width:0.6;" x="86.625" xlink:href="#m7f5c8c577d" y="52.046263"/>
      </g>
     </g>
     <g id="line2d_90">
      <g>
       <use style="fill:#555555;stroke:#555555;stroke-width:0.6;" x="665.375" xlink:href="#m31dc122a27" y="52.046263"/>
      </g>
     </g>
    </g>
    <g id="ytick_37">
     <g id="line2d_91">
      <g>
       <use style="fill:#555555;stroke:#555555;stroke-width:0.6;" x="86.625" xlink:href="#m7f5c8c577d" y="50.155955"/>
      </g>
     </g>
     <g id="line2d_92">
      <g>
       <use style="fill:#555555;stroke:#555555;stroke-width:0.6;" x="665.375" xlink:href="#m31dc122a27" y="50.155955"/>
      </g>
     </g>
    </g>
    <g id="ytick_38">
     <g id="line2d_93">
      <g>
       <use style="fill:#555555;stroke:#555555;stroke-width:0.6;" x="86.625" xlink:href="#m7f5c8c577d" y="48.488585"/>
      </g>
     </g>
     <g id="line2d_94">
      <g>
       <use style="fill:#555555;stroke:#555555;stroke-width:0.6;" x="665.375" xlink:href="#m31dc122a27" y="48.488585"/>
      </g>
     </g>
    </g>
    <g id="ytick_39">
     <g id="line2d_95">
      <g>
       <use style="fill:#555555;stroke:#555555;stroke-width:0.6;" x="86.625" xlink:href="#m7f5c8c577d" y="37.184685"/>
      </g>
     </g>
     <g id="line2d_96">
      <g>
       <use style="fill:#555555;stroke:#555555;stroke-width:0.6;" x="665.375" xlink:href="#m31dc122a27" y="37.184685"/>
      </g>
     </g>
    </g>
    <g id="ytick_40">
     <g id="line2d_97">
      <g>
       <use style="fill:#555555;stroke:#555555;stroke-width:0.6;" x="86.625" xlink:href="#m7f5c8c577d" y="31.444807"/>
      </g>
     </g>
     <g id="line2d_98">
      <g>
       <use style="fill:#555555;stroke:#555555;stroke-width:0.6;" x="665.375" xlink:href="#m31dc122a27" y="31.444807"/>
      </g>
     </g>
    </g>
    <g id="ytick_41">
     <g id="line2d_99">
      <g>
       <use style="fill:#555555;stroke:#555555;stroke-width:0.6;" x="86.625" xlink:href="#m7f5c8c577d" y="27.372298"/>
      </g>
     </g>
     <g id="line2d_100">
      <g>
       <use style="fill:#555555;stroke:#555555;stroke-width:0.6;" x="665.375" xlink:href="#m31dc122a27" y="27.372298"/>
      </g>
     </g>
    </g>
    <g id="ytick_42">
     <g id="line2d_101">
      <g>
       <use style="fill:#555555;stroke:#555555;stroke-width:0.6;" x="86.625" xlink:href="#m7f5c8c577d" y="24.213416"/>
      </g>
     </g>
     <g id="line2d_102">
      <g>
       <use style="fill:#555555;stroke:#555555;stroke-width:0.6;" x="665.375" xlink:href="#m31dc122a27" y="24.213416"/>
      </g>
     </g>
    </g>
    <g id="ytick_43">
     <g id="line2d_103">
      <g>
       <use style="fill:#555555;stroke:#555555;stroke-width:0.6;" x="86.625" xlink:href="#m7f5c8c577d" y="21.63242"/>
      </g>
     </g>
     <g id="line2d_104">
      <g>
       <use style="fill:#555555;stroke:#555555;stroke-width:0.6;" x="665.375" xlink:href="#m31dc122a27" y="21.63242"/>
      </g>
     </g>
    </g>
    <g id="ytick_44">
     <g id="line2d_105">
      <g>
       <use style="fill:#555555;stroke:#555555;stroke-width:0.6;" x="86.625" xlink:href="#m7f5c8c577d" y="19.45022"/>
      </g>
     </g>
     <g id="line2d_106">
      <g>
       <use style="fill:#555555;stroke:#555555;stroke-width:0.6;" x="665.375" xlink:href="#m31dc122a27" y="19.45022"/>
      </g>
     </g>
    </g>
    <g id="ytick_45">
     <g id="line2d_107">
      <g>
       <use style="fill:#555555;stroke:#555555;stroke-width:0.6;" x="86.625" xlink:href="#m7f5c8c577d" y="17.559912"/>
      </g>
     </g>
     <g id="line2d_108">
      <g>
       <use style="fill:#555555;stroke:#555555;stroke-width:0.6;" x="665.375" xlink:href="#m31dc122a27" y="17.559912"/>
      </g>
     </g>
    </g>
    <g id="ytick_46">
     <g id="line2d_109">
      <g>
       <use style="fill:#555555;stroke:#555555;stroke-width:0.6;" x="86.625" xlink:href="#m7f5c8c577d" y="15.892542"/>
      </g>
     </g>
     <g id="line2d_110">
      <g>
       <use style="fill:#555555;stroke:#555555;stroke-width:0.6;" x="665.375" xlink:href="#m31dc122a27" y="15.892542"/>
      </g>
     </g>
    </g>
    <g id="text_20">
     <!-- daily new cases -->
     <defs>
      <path d="M 9.421875 75.984375 
L 18.40625 75.984375 
L 18.40625 0 
L 9.421875 0 
z
" id="DejaVuSans-108"/>
      <path d="M 4.203125 54.6875 
L 13.1875 54.6875 
L 24.421875 12.015625 
L 35.59375 54.6875 
L 46.1875 54.6875 
L 57.421875 12.015625 
L 68.609375 54.6875 
L 77.59375 54.6875 
L 63.28125 0 
L 52.6875 0 
L 40.921875 44.828125 
L 29.109375 0 
L 18.5 0 
z
" id="DejaVuSans-119"/>
     </defs>
     <g style="fill:#555555;" transform="translate(21.517 141.576866)rotate(-90)scale(0.12 -0.12)">
      <use xlink:href="#DejaVuSans-100"/>
      <use x="63.476562" xlink:href="#DejaVuSans-97"/>
      <use x="124.755859" xlink:href="#DejaVuSans-105"/>
      <use x="152.539062" xlink:href="#DejaVuSans-108"/>
      <use x="180.322266" xlink:href="#DejaVuSans-121"/>
      <use x="239.501953" xlink:href="#DejaVuSans-32"/>
      <use x="271.289062" xlink:href="#DejaVuSans-110"/>
      <use x="334.667969" xlink:href="#DejaVuSans-101"/>
      <use x="396.191406" xlink:href="#DejaVuSans-119"/>
      <use x="477.978516" xlink:href="#DejaVuSans-32"/>
      <use x="509.765625" xlink:href="#DejaVuSans-99"/>
      <use x="564.746094" xlink:href="#DejaVuSans-97"/>
      <use x="626.025391" xlink:href="#DejaVuSans-115"/>
      <use x="678.125" xlink:href="#DejaVuSans-101"/>
      <use x="739.648438" xlink:href="#DejaVuSans-115"/>
     </g>
     <!-- (rolling 7-day mean) -->
     <defs>
      <path d="M 31 75.875 
Q 24.46875 64.65625 21.28125 53.65625 
Q 18.109375 42.671875 18.109375 31.390625 
Q 18.109375 20.125 21.3125 9.0625 
Q 24.515625 -2 31 -13.1875 
L 23.1875 -13.1875 
Q 15.875 -1.703125 12.234375 9.375 
Q 8.59375 20.453125 8.59375 31.390625 
Q 8.59375 42.28125 12.203125 53.3125 
Q 15.828125 64.359375 23.1875 75.875 
z
" id="DejaVuSans-40"/>
      <path d="M 41.109375 46.296875 
Q 39.59375 47.171875 37.8125 47.578125 
Q 36.03125 48 33.890625 48 
Q 26.265625 48 22.1875 43.046875 
Q 18.109375 38.09375 18.109375 28.8125 
L 18.109375 0 
L 9.078125 0 
L 9.078125 54.6875 
L 18.109375 54.6875 
L 18.109375 46.1875 
Q 20.953125 51.171875 25.484375 53.578125 
Q 30.03125 56 36.53125 56 
Q 37.453125 56 38.578125 55.875 
Q 39.703125 55.765625 41.0625 55.515625 
z
" id="DejaVuSans-114"/>
      <path d="M 30.609375 48.390625 
Q 23.390625 48.390625 19.1875 42.75 
Q 14.984375 37.109375 14.984375 27.296875 
Q 14.984375 17.484375 19.15625 11.84375 
Q 23.34375 6.203125 30.609375 6.203125 
Q 37.796875 6.203125 41.984375 11.859375 
Q 46.1875 17.53125 46.1875 27.296875 
Q 46.1875 37.015625 41.984375 42.703125 
Q 37.796875 48.390625 30.609375 48.390625 
z
M 30.609375 56 
Q 42.328125 56 49.015625 48.375 
Q 55.71875 40.765625 55.71875 27.296875 
Q 55.71875 13.875 49.015625 6.21875 
Q 42.328125 -1.421875 30.609375 -1.421875 
Q 18.84375 -1.421875 12.171875 6.21875 
Q 5.515625 13.875 5.515625 27.296875 
Q 5.515625 40.765625 12.171875 48.375 
Q 18.84375 56 30.609375 56 
z
" id="DejaVuSans-111"/>
      <path d="M 45.40625 27.984375 
Q 45.40625 37.75 41.375 43.109375 
Q 37.359375 48.484375 30.078125 48.484375 
Q 22.859375 48.484375 18.828125 43.109375 
Q 14.796875 37.75 14.796875 27.984375 
Q 14.796875 18.265625 18.828125 12.890625 
Q 22.859375 7.515625 30.078125 7.515625 
Q 37.359375 7.515625 41.375 12.890625 
Q 45.40625 18.265625 45.40625 27.984375 
z
M 54.390625 6.78125 
Q 54.390625 -7.171875 48.1875 -13.984375 
Q 42 -20.796875 29.203125 -20.796875 
Q 24.46875 -20.796875 20.265625 -20.09375 
Q 16.0625 -19.390625 12.109375 -17.921875 
L 12.109375 -9.1875 
Q 16.0625 -11.328125 19.921875 -12.34375 
Q 23.78125 -13.375 27.78125 -13.375 
Q 36.625 -13.375 41.015625 -8.765625 
Q 45.40625 -4.15625 45.40625 5.171875 
L 45.40625 9.625 
Q 42.625 4.78125 38.28125 2.390625 
Q 33.9375 0 27.875 0 
Q 17.828125 0 11.671875 7.65625 
Q 5.515625 15.328125 5.515625 27.984375 
Q 5.515625 40.671875 11.671875 48.328125 
Q 17.828125 56 27.875 56 
Q 33.9375 56 38.28125 53.609375 
Q 42.625 51.21875 45.40625 46.390625 
L 45.40625 54.6875 
L 54.390625 54.6875 
z
" id="DejaVuSans-103"/>
      <path d="M 8.203125 72.90625 
L 55.078125 72.90625 
L 55.078125 68.703125 
L 28.609375 0 
L 18.3125 0 
L 43.21875 64.59375 
L 8.203125 64.59375 
z
" id="DejaVuSans-55"/>
      <path d="M 4.890625 31.390625 
L 31.203125 31.390625 
L 31.203125 23.390625 
L 4.890625 23.390625 
z
" id="DejaVuSans-45"/>
      <path d="M 52 44.1875 
Q 55.375 50.25 60.0625 53.125 
Q 64.75 56 71.09375 56 
Q 79.640625 56 84.28125 50.015625 
Q 88.921875 44.046875 88.921875 33.015625 
L 88.921875 0 
L 79.890625 0 
L 79.890625 32.71875 
Q 79.890625 40.578125 77.09375 44.375 
Q 74.3125 48.1875 68.609375 48.1875 
Q 61.625 48.1875 57.5625 43.546875 
Q 53.515625 38.921875 53.515625 30.90625 
L 53.515625 0 
L 44.484375 0 
L 44.484375 32.71875 
Q 44.484375 40.625 41.703125 44.40625 
Q 38.921875 48.1875 33.109375 48.1875 
Q 26.21875 48.1875 22.15625 43.53125 
Q 18.109375 38.875 18.109375 30.90625 
L 18.109375 0 
L 9.078125 0 
L 9.078125 54.6875 
L 18.109375 54.6875 
L 18.109375 46.1875 
Q 21.1875 51.21875 25.484375 53.609375 
Q 29.78125 56 35.6875 56 
Q 41.65625 56 45.828125 52.96875 
Q 50 49.953125 52 44.1875 
z
" id="DejaVuSans-109"/>
      <path d="M 8.015625 75.875 
L 15.828125 75.875 
Q 23.140625 64.359375 26.78125 53.3125 
Q 30.421875 42.28125 30.421875 31.390625 
Q 30.421875 20.453125 26.78125 9.375 
Q 23.140625 -1.703125 15.828125 -13.1875 
L 8.015625 -13.1875 
Q 14.5 -2 17.703125 9.0625 
Q 20.90625 20.125 20.90625 31.390625 
Q 20.90625 42.671875 17.703125 53.65625 
Q 14.5 64.65625 8.015625 75.875 
z
" id="DejaVuSans-41"/>
     </defs>
     <g style="fill:#555555;" transform="translate(34.954375 155.217491)rotate(-90)scale(0.12 -0.12)">
      <use xlink:href="#DejaVuSans-40"/>
      <use x="39.013672" xlink:href="#DejaVuSans-114"/>
      <use x="77.876953" xlink:href="#DejaVuSans-111"/>
      <use x="139.058594" xlink:href="#DejaVuSans-108"/>
      <use x="166.841797" xlink:href="#DejaVuSans-108"/>
      <use x="194.625" xlink:href="#DejaVuSans-105"/>
      <use x="222.408203" xlink:href="#DejaVuSans-110"/>
      <use x="285.787109" xlink:href="#DejaVuSans-103"/>
      <use x="349.263672" xlink:href="#DejaVuSans-32"/>
      <use x="381.050781" xlink:href="#DejaVuSans-55"/>
      <use x="444.673828" xlink:href="#DejaVuSans-45"/>
      <use x="480.757812" xlink:href="#DejaVuSans-100"/>
      <use x="544.234375" xlink:href="#DejaVuSans-97"/>
      <use x="605.513672" xlink:href="#DejaVuSans-121"/>
      <use x="664.693359" xlink:href="#DejaVuSans-32"/>
      <use x="696.480469" xlink:href="#DejaVuSans-109"/>
      <use x="793.892578" xlink:href="#DejaVuSans-101"/>
      <use x="855.416016" xlink:href="#DejaVuSans-97"/>
      <use x="916.695312" xlink:href="#DejaVuSans-110"/>
      <use x="980.074219" xlink:href="#DejaVuSans-41"/>
     </g>
    </g>
   </g>
   <g id="line2d_111">
    <path clip-path="url(#p182e89781c)" d="M 40.4832 189.375831 
L 42.680429 189.375831 
L 44.877658 173.823566 
L 47.074886 172.332053 
L 49.272115 169.751058 
L 51.469343 170.982815 
L 53.666572 169.751058 
L 58.061029 163.245789 
L 60.258257 168.617951 
L 62.455486 169.751058 
L 64.652715 172.332053 
L 66.849943 169.751058 
L 69.047172 169.751058 
L 71.2444 173.823566 
L 73.441629 182.14444 
L 75.638857 185.303323 
L 80.033314 185.303323 
L 82.230543 189.375831 
L 86.625 189.375831 
L 88.822229 143.621015 
L 93.216686 119.93538 
L 97.611143 110.245863 
L 99.808371 107.925821 
L 102.0056 104.209416 
L 104.202828 99.948269 
L 108.597285 92.990363 
L 110.794514 90.969103 
L 112.991743 89.397415 
L 115.188971 86.794204 
L 117.3862 86.295238 
L 121.780657 86.637003 
L 126.175114 89.093483 
L 128.372342 90.928508 
L 130.569571 95.183856 
L 132.7668 96.409532 
L 134.964028 98.969315 
L 137.161257 102.519047 
L 139.358485 106.516852 
L 141.555714 109.473979 
L 143.752942 111.062275 
L 145.950171 110.175521 
L 148.147399 113.065084 
L 150.344628 112.270283 
L 152.541856 112.745995 
L 154.739085 111.928667 
L 156.936314 110.316556 
L 159.133542 111.692395 
L 161.330771 111.849471 
L 163.527999 111.711935 
L 165.725228 112.683032 
L 170.119685 112.620347 
L 172.316913 113.861585 
L 174.514142 112.189158 
L 176.711371 111.231363 
L 178.908599 111.212475 
L 181.105828 111.498471 
L 183.303056 111.595101 
L 185.500285 112.641211 
L 187.697513 113.151403 
L 189.894742 113.838844 
L 192.09197 115.732398 
L 194.289199 117.037547 
L 196.486427 118.538558 
L 198.683656 120.542426 
L 200.880885 123.094263 
L 203.078113 125.415503 
L 207.47257 127.761661 
L 209.669799 129.436627 
L 211.867027 130.649746 
L 214.064256 131.027269 
L 216.261484 131.976649 
L 218.458713 134.090823 
L 220.655942 135.279461 
L 225.050399 139.317567 
L 227.247627 140.462132 
L 229.444856 142.373744 
L 231.642084 143.808519 
L 233.839313 143.435963 
L 236.036541 143.253299 
L 238.23377 143.253299 
L 240.430998 144.584399 
L 242.628227 145.618164 
L 244.825456 146.50322 
L 247.022684 145.834294 
L 249.219913 146.276714 
L 251.417141 148.993177 
L 253.61437 151.03991 
L 255.811598 151.03991 
L 258.008827 150.126284 
L 260.206055 146.967402 
L 264.600513 138.646528 
L 266.797741 135.805777 
L 268.99497 133.440912 
L 271.192198 131.336708 
L 273.389427 130.209619 
L 275.586655 130.137576 
L 279.981112 133.440912 
L 282.178341 134.772013 
L 284.375569 134.186152 
L 286.572798 135.91343 
L 288.770027 136.690833 
L 290.967255 136.241389 
L 293.164484 134.972814 
L 295.361712 134.872057 
L 297.558941 134.282127 
L 299.756169 133.53195 
L 301.953398 128.446274 
L 304.150626 126.209521 
L 306.347855 125.364119 
L 308.545084 125.261907 
L 312.939541 123.448188 
L 315.136769 123.050638 
L 317.333998 124.909867 
L 319.531226 125.88655 
L 321.728455 125.261907 
L 323.925683 123.81119 
L 326.122912 123.673971 
L 330.517369 123.628526 
L 332.714598 123.358874 
L 334.911826 122.621627 
L 337.109055 122.748971 
L 339.306283 123.765302 
L 343.70074 124.042885 
L 345.897969 124.373765 
L 348.095197 123.719563 
L 350.292426 124.042885 
L 352.489655 123.181918 
L 354.686883 122.579432 
L 356.884112 123.403461 
L 359.08134 122.87747 
L 361.278569 122.537363 
L 363.475797 123.903414 
L 365.673026 124.373765 
L 367.870254 125.160428 
L 370.067483 124.46974 
L 372.264711 123.314427 
L 376.659169 123.493058 
L 378.856397 122.370325 
L 381.053626 121.407488 
L 383.250854 120.949563 
L 385.448083 120.987162 
L 387.645311 120.837359 
L 389.84254 120.800155 
L 392.039768 120.32519 
L 394.236997 120.505988 
L 396.434226 121.176674 
L 398.631454 122.28754 
L 400.828683 123.007147 
L 403.025911 122.328872 
L 405.22314 122.791674 
L 407.420368 123.857227 
L 411.814825 122.663948 
L 414.012054 122.495419 
L 416.209282 122.920564 
L 418.406511 124.566371 
L 420.60374 123.996242 
L 422.800968 122.920564 
L 424.998197 123.007147 
L 427.195425 123.857227 
L 429.392654 120.800155 
L 431.589882 119.93538 
L 433.787111 119.970377 
L 438.181568 121.138568 
L 440.378797 122.791674 
L 442.576025 123.007147 
L 444.773254 127.108635 
L 446.970482 128.834141 
L 449.167711 128.965829 
L 451.364939 128.574386 
L 453.562168 129.574068 
L 455.759396 127.945114 
L 457.956625 128.965829 
L 460.153853 128.193476 
L 464.548311 127.520697 
L 466.745539 127.520697 
L 468.942768 126.318836 
L 471.139996 125.622924 
L 473.337225 121.840676 
L 475.534453 117.618996 
L 477.731682 111.790363 
L 484.323368 102.954659 
L 486.520596 100.700416 
L 488.717825 98.842707 
L 490.915053 97.591924 
L 493.112282 96.765557 
L 495.30951 96.303789 
L 499.703967 95.933371 
L 501.901196 94.984511 
L 504.098424 94.705356 
L 506.295653 94.758387 
L 508.492882 95.349071 
L 510.69011 95.460295 
L 515.084567 96.081674 
L 517.281796 97.773371 
L 521.676253 100.398262 
L 530.465167 105.297517 
L 532.662396 105.803605 
L 534.859624 106.089863 
L 537.056853 106.516852 
L 539.254081 107.15413 
L 541.45131 107.296549 
L 543.648538 107.732609 
L 545.845767 108.382024 
L 548.042995 108.412967 
L 550.240224 109.209368 
L 552.437453 109.641908 
L 556.83191 111.024972 
L 559.029138 111.889014 
L 561.226367 111.948536 
L 563.423595 112.516485 
L 565.620824 112.767046 
L 567.818052 113.838844 
L 570.015281 113.546487 
L 574.409738 114.537486 
L 576.606967 114.46605 
L 578.804195 115.654687 
L 581.001424 117.037547 
L 583.198652 116.644292 
L 585.395881 117.530241 
L 587.593109 116.86767 
L 589.790338 115.862872 
L 591.987566 115.83668 
L 598.579252 116.369937 
L 600.776481 116.533911 
L 605.170938 115.197173 
L 607.368166 115.968123 
L 609.565395 115.197173 
L 611.762623 115.373343 
L 613.959852 115.348041 
L 616.15708 114.537486 
L 618.354309 115.047897 
L 620.551538 116.181004 
L 622.748766 115.994559 
L 624.945995 115.475004 
L 631.53768 115.475004 
L 631.53768 115.475004 
" style="fill:none;stroke:#348abd;stroke-linecap:square;stroke-width:4;"/>
   </g>
   <g id="line2d_112">
    <defs>
     <path d="M 0 3 
C 0.795609 3 1.55874 2.683901 2.12132 2.12132 
C 2.683901 1.55874 3 0.795609 3 0 
C 3 -0.795609 2.683901 -1.55874 2.12132 -2.12132 
C 1.55874 -2.683901 0.795609 -3 0 -3 
C -0.795609 -3 -1.55874 -2.683901 -2.12132 -2.12132 
C -2.683901 -1.55874 -3 -0.795609 -3 0 
C -3 0.795609 -2.683901 1.55874 -2.12132 2.12132 
C -1.55874 2.683901 -0.795609 3 0 3 
z
" id="m52e21c7fac" style="stroke:#348abd;"/>
    </defs>
    <g clip-path="url(#p182e89781c)">
     <use style="fill:#348abd;stroke:#348abd;" x="631.53768" xlink:href="#m52e21c7fac" y="115.475004"/>
    </g>
   </g>
   <g id="line2d_113">
    <path clip-path="url(#p182e89781c)" d="M 18.510915 185.303323 
L 20.708144 185.303323 
L 22.905372 182.14444 
L 25.102601 175.490936 
L 27.299829 172.332053 
L 29.497058 170.982815 
L 31.694286 175.490936 
L 38.285972 175.490936 
L 40.4832 182.14444 
L 42.680429 185.303323 
L 44.877658 195.11571 
L 47.074886 185.303323 
L 51.469343 185.303323 
L 53.666572 189.375831 
L 55.8638 189.375831 
L 58.061029 195.11571 
L 60.258257 195.11571 
L 60.274301 433 
M 77.820699 433 
L 77.836086 204.928096 
L 80.033314 170.982815 
L 82.230543 156.779788 
L 84.427771 155.866163 
L 86.625 146.276714 
L 88.822229 137.881137 
L 93.216686 131.494002 
L 95.413914 127.640666 
L 97.611143 118.891281 
L 99.808371 113.861585 
L 102.0056 111.790363 
L 104.202828 108.475056 
L 106.400057 106.901333 
L 108.597285 103.857054 
L 110.794514 100.085211 
L 112.991743 100.521898 
L 115.188971 91.564128 
L 119.583428 85.06754 
L 123.977885 78.061213 
L 126.175114 73.962866 
L 128.372342 70.56872 
L 130.569571 67.738177 
L 134.964028 65.399663 
L 137.161257 63.521975 
L 139.358485 62.311299 
L 141.555714 61.57492 
L 143.752942 59.65929 
L 145.950171 58.516978 
L 148.147399 56.615837 
L 150.344628 55.938112 
L 152.541856 55.70912 
L 154.739085 55.342315 
L 156.936314 54.726177 
L 159.133542 54.619402 
L 161.330771 54.817591 
L 163.527999 55.498144 
L 165.725228 55.634846 
L 167.922456 56.219668 
L 172.316913 56.638996 
L 174.514142 57.477373 
L 178.908599 59.561684 
L 183.303056 60.642405 
L 185.500285 62.331 
L 189.894742 65.077607 
L 192.09197 65.290268 
L 194.289199 65.885777 
L 196.486427 66.760036 
L 198.683656 67.038031 
L 200.880885 67.08894 
L 203.078113 67.983627 
L 205.275342 68.403023 
L 207.47257 70.189002 
L 209.669799 70.644826 
L 211.867027 71.287979 
L 214.064256 72.329807 
L 216.261484 72.417244 
L 218.458713 73.335662 
L 220.655942 74.714827 
L 222.85317 75.913278 
L 229.444856 78.817935 
L 231.642084 79.402286 
L 233.839313 80.376831 
L 236.036541 80.815316 
L 238.23377 80.618272 
L 242.628227 81.276926 
L 244.825456 80.808703 
L 249.219913 81.927127 
L 251.417141 84.221059 
L 253.61437 85.398872 
L 255.811598 86.076156 
L 258.008827 85.879317 
L 260.206055 87.603948 
L 262.403284 85.515158 
L 264.600513 86.246619 
L 266.797741 85.713195 
L 268.99497 85.920364 
L 271.192198 86.710369 
L 273.389427 87.661044 
L 275.586655 87.342833 
L 277.783884 89.724553 
L 279.981112 91.349068 
L 282.178341 90.785107 
L 284.375569 90.62109 
L 286.572798 90.660811 
L 288.770027 91.205957 
L 290.967255 91.616043 
L 293.164484 93.18975 
L 295.361712 93.629822 
L 299.756169 97.313431 
L 301.953398 95.591171 
L 304.150626 95.104991 
L 306.347855 94.084014 
L 308.545084 93.467228 
L 310.742312 94.740688 
L 312.939541 95.856609 
L 315.136769 95.336766 
L 317.333998 98.686023 
L 319.531226 99.073025 
L 321.728455 100.727389 
L 323.925683 99.250283 
L 326.122912 96.758756 
L 328.32014 91.005285 
L 330.517369 91.247357 
L 334.911826 88.413727 
L 337.109055 87.214059 
L 339.306283 86.730444 
L 341.503512 86.600462 
L 343.70074 89.188758 
L 345.897969 88.47798 
L 348.095197 88.286091 
L 350.292426 89.72869 
L 352.489655 90.35044 
L 354.686883 91.883331 
L 356.884112 91.484268 
L 359.08134 91.592422 
L 361.278569 92.85038 
L 363.475797 92.871031 
L 365.673026 92.413517 
L 367.870254 91.484268 
L 370.067483 91.946108 
L 372.264711 92.534082 
L 374.46194 93.44569 
L 376.659169 93.877267 
L 378.856397 94.106546 
L 381.053626 94.770199 
L 383.250854 96.529444 
L 385.448083 96.549529 
L 387.645311 96.036373 
L 392.039768 93.011219 
L 394.236997 92.990363 
L 396.434226 92.483722 
L 398.631454 90.919503 
L 403.025911 89.874268 
L 405.22314 89.68737 
L 407.420368 89.093483 
L 409.617597 88.048912 
L 411.814825 87.75792 
L 414.012054 88.289828 
L 416.209282 87.550629 
L 418.406511 86.590513 
L 420.60374 85.37147 
L 422.800968 85.005157 
L 424.998197 85.151146 
L 427.195425 85.682068 
L 429.392654 84.359142 
L 431.589882 84.017808 
L 433.787111 82.835666 
L 435.984339 82.996781 
L 438.181568 82.262559 
L 440.378797 82.018041 
L 442.576025 81.61578 
L 446.970482 80.187865 
L 449.167711 80.116337 
L 451.364939 79.111982 
L 453.562168 78.438246 
L 455.759396 78.456897 
L 457.956625 78.208989 
L 460.153853 77.367069 
L 462.351082 76.711975 
L 464.548311 76.278163 
L 473.337225 75.289431 
L 475.534453 75.386757 
L 477.731682 75.325289 
L 479.92891 75.565168 
L 482.126139 75.603257 
L 488.717825 76.335885 
L 490.915053 76.547938 
L 493.112282 76.958293 
L 495.30951 77.010434 
L 499.703967 77.427681 
L 501.901196 77.3136 
L 504.098424 76.973411 
L 506.295653 76.315014 
L 510.69011 76.000875 
L 512.887339 75.557562 
L 515.084567 75.341754 
L 519.479024 74.531189 
L 521.676253 75.127711 
L 523.873481 74.463462 
L 528.267938 73.325267 
L 532.662396 71.82791 
L 539.254081 71.50103 
L 541.45131 71.780083 
L 545.845767 71.424734 
L 548.042995 71.85247 
L 550.240224 71.52846 
L 552.437453 70.752717 
L 554.634681 70.765719 
L 556.83191 69.894434 
L 559.029138 69.586907 
L 561.226367 69.126683 
L 565.620824 68.584913 
L 567.818052 67.853309 
L 570.015281 67.321596 
L 572.212509 66.047971 
L 574.409738 64.449818 
L 576.606967 63.304653 
L 581.001424 61.72294 
L 583.198652 59.879135 
L 585.395881 58.903692 
L 587.593109 57.49307 
L 591.987566 55.166558 
L 594.184795 54.500364 
L 596.382024 54.106972 
L 598.579252 53.499948 
L 600.776481 52.256697 
L 602.973709 50.819682 
L 609.565395 50.819682 
L 609.565395 50.819682 
" style="fill:none;stroke:#348abd;stroke-linecap:square;stroke-opacity:0.4;stroke-width:2;"/>
   </g>
   <g id="line2d_114">
    <defs>
     <path d="M 0 3 
C 0.795609 3 1.55874 2.683901 2.12132 2.12132 
C 2.683901 1.55874 3 0.795609 3 0 
C 3 -0.795609 2.683901 -1.55874 2.12132 -2.12132 
C 1.55874 -2.683901 0.795609 -3 0 -3 
C -0.795609 -3 -1.55874 -2.683901 -2.12132 -2.12132 
C -2.683901 -1.55874 -3 -0.795609 -3 0 
C -3 0.795609 -2.683901 1.55874 -2.12132 2.12132 
C -1.55874 2.683901 -0.795609 3 0 3 
z
" id="m7c7d04ce92" style="stroke:#348abd;stroke-opacity:0.4;"/>
    </defs>
    <g clip-path="url(#p182e89781c)">
     <use style="fill:#348abd;fill-opacity:0.4;stroke:#348abd;stroke-opacity:0.4;" x="609.565395" xlink:href="#m7c7d04ce92" y="50.819682"/>
    </g>
   </g>
   <g id="line2d_115">
    <path clip-path="url(#p182e89781c)" d="M -1 173.823566 
L 0.933087 173.823566 
L 3.130315 169.751058 
L 5.327544 175.490936 
L 7.524772 177.381244 
L 9.722001 175.490936 
L 11.919229 177.381244 
L 14.116458 182.14444 
L 16.313686 179.563445 
L 18.510915 189.375831 
L 22.905372 189.375831 
L 25.102601 195.11571 
L 27.299829 195.11571 
L 29.497058 204.928096 
L 29.512445 433 
M 64.635146 433 
L 64.652715 172.332053 
L 66.849943 169.751058 
L 69.047172 166.592175 
L 71.2444 159.938671 
L 73.441629 153.810925 
L 75.638857 152.70728 
L 77.836086 151.03991 
L 80.033314 153.433402 
L 82.230543 149.834392 
L 84.427771 146.733408 
L 88.822229 143.621015 
L 91.019457 144.191144 
L 93.216686 134.972814 
L 95.413914 130.875049 
L 97.611143 128.510185 
L 99.808371 124.860283 
L 102.0056 122.205236 
L 104.202828 118.761999 
L 106.400057 115.52611 
L 108.597285 114.585311 
L 110.794514 109.932041 
L 112.991743 103.958452 
L 115.188971 103.371522 
L 117.3862 100.557422 
L 119.583428 98.850587 
L 121.780657 96.442739 
L 123.977885 95.03258 
L 126.175114 93.783279 
L 128.372342 94.54163 
L 130.569571 93.18975 
L 132.7668 94.084014 
L 134.964028 94.180027 
L 137.161257 95.31219 
L 139.358485 96.062241 
L 141.555714 97.979391 
L 143.752942 99.603284 
L 145.950171 102.017354 
L 148.147399 103.039174 
L 152.541856 107.253673 
L 154.739085 108.869406 
L 156.936314 111.155963 
L 159.133542 113.725683 
L 161.330771 115.500534 
L 163.527999 116.397134 
L 167.922456 121.840676 
L 172.316913 125.939869 
L 174.514142 124.421671 
L 176.711371 125.570783 
L 178.908599 127.945114 
L 181.105828 129.098752 
L 183.303056 129.923623 
L 185.500285 133.53195 
L 187.697513 136.464328 
L 189.894742 139.180791 
L 192.09197 140.022005 
L 196.486427 139.73601 
L 198.683656 139.180791 
L 200.880885 139.59515 
L 203.078113 139.045323 
L 205.275342 138.646528 
L 207.47257 136.464328 
L 209.669799 135.91343 
L 211.867027 134.772013 
L 214.064256 134.282127 
L 216.261484 134.972814 
L 218.458713 134.972814 
L 220.655942 136.464328 
L 222.85317 136.805459 
L 225.050399 139.045323 
L 227.247627 140.462132 
L 229.444856 138.911139 
L 231.642084 137.513421 
L 233.839313 139.045323 
L 236.036541 138.911139 
L 238.23377 140.022005 
L 240.430998 140.916384 
L 242.628227 140.916384 
L 244.825456 143.621015 
L 247.022684 146.053776 
L 249.219913 144.785201 
L 251.417141 146.967402 
L 253.61437 147.447321 
L 255.811598 145.405283 
L 258.008827 144.988892 
L 260.206055 144.785201 
L 262.403284 142.036674 
L 264.600513 143.253299 
L 266.797741 141.545655 
L 268.99497 140.462132 
L 271.192198 141.227523 
L 273.389427 141.227523 
L 275.586655 142.545337 
L 277.783884 145.195557 
L 279.981112 145.405283 
L 282.178341 146.276714 
L 284.375569 150.72877 
L 286.572798 151.03991 
L 288.770027 151.03991 
L 290.967255 152.016592 
L 293.164484 152.016592 
L 295.361712 146.733408 
L 299.756169 142.894893 
L 301.953398 140.313898 
L 304.150626 138.911139 
L 306.347855 137.155015 
L 308.545084 137.513421 
L 310.742312 134.872057 
L 312.939541 135.074294 
L 317.333998 133.90207 
L 321.728455 130.950955 
L 323.925683 130.649746 
L 326.122912 128.256254 
L 328.32014 124.663665 
L 332.714598 120.146672 
L 334.911826 118.665806 
L 337.109055 117.798192 
L 339.306283 113.043586 
L 341.503512 111.080963 
L 343.70074 109.966569 
L 345.897969 108.304962 
L 348.095197 107.629653 
L 350.292426 106.382029 
L 352.489655 103.339016 
L 354.686883 103.502297 
L 356.884112 102.849719 
L 359.08134 102.407139 
L 363.475797 100.477618 
L 365.673026 99.185568 
L 367.870254 98.362524 
L 370.067483 98.143394 
L 372.264711 97.292234 
L 376.659169 96.127119 
L 378.856397 94.705356 
L 381.053626 94.21407 
L 383.250854 94.97252 
L 385.448083 94.117826 
L 387.645311 93.608034 
L 389.84254 92.234573 
L 392.039768 92.190188 
L 394.236997 93.142272 
L 398.631454 90.204188 
L 400.828683 90.110352 
L 403.025911 89.437896 
L 405.22314 89.886816 
L 407.420368 89.703884 
L 409.617597 88.008544 
L 414.012054 89.945521 
L 416.209282 89.74111 
L 418.406511 90.722823 
L 422.800968 91.668149 
L 424.998197 93.173906 
L 427.195425 94.351067 
L 429.392654 94.3396 
L 433.787111 95.959052 
L 435.984339 96.231546 
L 438.181568 96.909138 
L 440.378797 98.339698 
L 442.576025 98.218574 
L 444.773254 99.922739 
L 446.970482 100.78149 
L 449.167711 101.175381 
L 451.364939 102.818389 
L 455.759396 104.383115 
L 457.956625 105.972057 
L 460.153853 106.571142 
L 464.548311 109.291529 
L 466.745539 109.760656 
L 468.942768 110.913651 
L 471.139996 111.810038 
L 473.337225 111.653397 
L 475.534453 112.433941 
L 477.731682 113.022121 
L 479.92891 114.183855 
L 482.126139 114.973844 
L 484.323368 115.500534 
L 486.520596 115.810538 
L 488.717825 117.678476 
L 490.915053 119.153442 
L 495.30951 121.100564 
L 497.506739 121.176674 
L 499.703967 121.368756 
L 501.901196 123.583226 
L 504.098424 124.712564 
L 506.295653 124.326021 
L 508.492882 125.261907 
L 512.887339 128.574386 
L 515.084567 129.712856 
L 517.281796 130.354813 
L 519.479024 132.476334 
L 521.676253 135.074294 
L 523.873481 135.91343 
L 526.07071 134.772013 
L 528.267938 135.805777 
L 530.465167 138.005863 
L 532.662396 138.911139 
L 534.859624 137.634935 
L 537.056853 138.516054 
L 539.254081 139.045323 
L 541.45131 140.462132 
L 543.648538 139.180791 
L 545.845767 137.392941 
L 548.042995 139.317567 
L 552.437453 137.513421 
L 554.634681 136.805459 
L 556.83191 136.241389 
L 559.029138 135.279461 
L 561.226367 135.279461 
L 563.423595 133.440912 
L 567.818052 134.476052 
L 570.015281 135.592897 
L 572.212509 136.35242 
L 574.409738 137.881137 
L 576.606967 140.462132 
L 578.804195 138.911139 
L 581.001424 139.59515 
L 587.593109 139.59515 
L 587.593109 139.59515 
" style="fill:none;stroke:#988ed5;stroke-linecap:square;stroke-opacity:0.4;stroke-width:2;"/>
   </g>
   <g id="line2d_116">
    <defs>
     <path d="M 0 3 
C 0.795609 3 1.55874 2.683901 2.12132 2.12132 
C 2.683901 1.55874 3 0.795609 3 0 
C 3 -0.795609 2.683901 -1.55874 2.12132 -2.12132 
C 1.55874 -2.683901 0.795609 -3 0 -3 
C -0.795609 -3 -1.55874 -2.683901 -2.12132 -2.12132 
C -2.683901 -1.55874 -3 -0.795609 -3 0 
C -3 0.795609 -2.683901 1.55874 -2.12132 2.12132 
C -1.55874 2.683901 -0.795609 3 0 3 
z
" id="mc9d35d8e8f" style="stroke:#988ed5;stroke-opacity:0.4;"/>
    </defs>
    <g clip-path="url(#p182e89781c)">
     <use style="fill:#988ed5;fill-opacity:0.4;stroke:#988ed5;stroke-opacity:0.4;" x="587.593109" xlink:href="#mc9d35d8e8f" y="139.59515"/>
    </g>
   </g>
   <g id="line2d_117">
    <path clip-path="url(#p182e89781c)" d="M 66.834556 433 
L 66.849943 204.928096 
L 69.047172 204.928096 
L 71.2444 182.14444 
L 73.441629 182.14444 
L 75.638857 170.982815 
L 77.836086 165.678549 
L 82.230543 156.779788 
L 84.427771 150.126284 
L 86.625 146.276714 
L 88.822229 140.022005 
L 91.019457 138.646528 
L 93.216686 132.994305 
L 95.413914 128.834141 
L 97.611143 128.574386 
L 99.808371 123.903414 
L 102.0056 121.721213 
L 104.202828 118.989023 
L 106.400057 116.533911 
L 108.597285 115.047897 
L 110.794514 112.95792 
L 112.991743 110.29885 
L 115.188971 109.176637 
L 117.3862 107.658993 
L 119.583428 105.765014 
L 121.780657 104.232453 
L 123.977885 103.360678 
L 126.175114 102.276014 
L 128.372342 101.371805 
L 132.7668 97.370113 
L 134.964028 97.405655 
L 137.161257 95.723268 
L 139.358485 94.996513 
L 141.555714 93.96072 
L 143.752942 93.338485 
L 145.950171 93.456455 
L 148.147399 93.766757 
L 150.344628 92.927977 
L 152.541856 93.766757 
L 154.739085 94.050281 
L 156.936314 95.020548 
L 159.133542 94.882904 
L 161.330771 95.086854 
L 163.527999 94.605725 
L 165.725228 94.829405 
L 167.922456 93.542873 
L 170.119685 93.29583 
L 172.316913 93.322474 
L 174.514142 93.684437 
L 176.711371 93.651642 
L 178.908599 94.095275 
L 181.105828 93.994239 
L 183.303056 95.165618 
L 185.500285 95.293785 
L 187.697513 94.97252 
L 189.894742 94.33387 
L 192.09197 94.948566 
L 194.289199 95.894938 
L 196.486427 96.623417 
L 198.683656 96.799611 
L 200.880885 96.609954 
L 203.078113 95.894938 
L 205.275342 96.636893 
L 207.47257 96.172711 
L 209.669799 95.591171 
L 216.261484 95.226505 
L 218.458713 94.225436 
L 220.655942 94.37403 
L 222.85317 93.78879 
L 225.050399 93.343826 
L 227.247627 93.580847 
L 229.444856 93.983057 
L 231.642084 93.83849 
L 233.839313 95.062706 
L 236.036541 93.971884 
L 238.23377 94.011028 
L 242.628227 93.216196 
L 244.825456 92.57956 
L 247.022684 92.840066 
L 249.219913 92.534082 
L 253.61437 93.173906 
L 255.811598 93.966301 
L 258.008827 93.397347 
L 260.206055 94.397029 
L 262.403284 93.977469 
L 264.600513 95.220404 
L 266.797741 95.888543 
L 268.99497 95.831113 
L 271.192198 95.628787 
L 273.389427 94.658384 
L 275.586655 92.691348 
L 277.783884 91.611316 
L 279.981112 90.829764 
L 284.375569 90.883539 
L 286.572798 90.820821 
L 288.770027 91.442171 
L 293.164484 93.461841 
L 295.361712 93.424184 
L 297.558941 92.269191 
L 299.756169 92.49378 
L 301.953398 92.876198 
L 304.150626 93.597153 
L 306.347855 93.949564 
L 310.742312 95.153472 
L 312.939541 96.502709 
L 317.333998 96.779168 
L 319.531226 96.677397 
L 321.728455 97.498483 
L 326.122912 98.30932 
L 328.32014 97.656978 
L 330.517369 97.137749 
L 334.911826 97.292234 
L 337.109055 97.026446 
L 339.306283 97.320504 
L 341.503512 97.19373 
L 345.897969 98.779825 
L 348.095197 98.732846 
L 350.292426 98.803373 
L 352.489655 97.751474 
L 354.686883 97.081988 
L 356.884112 97.012594 
L 359.08134 97.102873 
L 363.475797 96.036373 
L 365.673026 95.818383 
L 370.067483 96.023457 
L 372.264711 95.196029 
L 374.46194 94.506791 
L 378.856397 93.44569 
L 381.053626 92.185265 
L 383.250854 91.77294 
L 385.448083 91.498328 
L 389.84254 90.437183 
L 394.236997 88.811445 
L 398.631454 88.133691 
L 400.828683 87.28004 
L 403.025911 86.673639 
L 409.617597 85.426327 
L 411.814825 84.8724 
L 416.209282 84.524348 
L 418.406511 84.898852 
L 422.800968 84.435809 
L 424.998197 84.370474 
L 427.195425 84.576014 
L 431.589882 84.732151 
L 435.984339 84.541549 
L 438.181568 84.668331 
L 440.378797 84.464309 
L 442.576025 84.100983 
L 446.970482 84.268813 
L 449.167711 83.809261 
L 451.364939 83.825614 
L 453.562168 83.502089 
L 457.956625 84.193043 
L 460.153853 84.053791 
L 462.351082 84.181852 
L 464.548311 84.790419 
L 466.745539 85.187129 
L 468.942768 86.037844 
L 471.139996 86.360324 
L 475.534453 87.678934 
L 477.731682 88.413727 
L 479.92891 88.990986 
L 482.126139 89.691497 
L 486.520596 90.555134 
L 488.717825 90.398083 
L 493.112282 89.803372 
L 495.30951 88.975283 
L 497.506739 88.289828 
L 499.703967 87.103625 
L 501.901196 86.554092 
L 506.295653 84.109327 
L 508.492882 83.112997 
L 510.69011 82.840752 
L 512.887339 81.919974 
L 515.084567 81.224634 
L 517.281796 79.45626 
L 519.479024 78.336101 
L 521.676253 77.544438 
L 528.267938 74.770817 
L 530.465167 73.623222 
L 534.859624 71.775426 
L 539.254081 70.354403 
L 541.45131 69.427227 
L 543.648538 68.06401 
L 548.042995 64.337167 
L 550.240224 62.449785 
L 556.83191 58.544841 
L 561.226367 55.532473 
L 563.423595 54.476676 
L 567.818052 51.774431 
L 570.015281 50.92525 
L 572.212509 49.840722 
L 574.409738 48.997591 
L 581.001424 48.997591 
L 581.001424 48.997591 
" style="fill:none;stroke:#777777;stroke-linecap:square;stroke-opacity:0.4;stroke-width:2;"/>
   </g>
   <g id="line2d_118">
    <defs>
     <path d="M 0 3 
C 0.795609 3 1.55874 2.683901 2.12132 2.12132 
C 2.683901 1.55874 3 0.795609 3 0 
C 3 -0.795609 2.683901 -1.55874 2.12132 -2.12132 
C 1.55874 -2.683901 0.795609 -3 0 -3 
C -0.795609 -3 -1.55874 -2.683901 -2.12132 -2.12132 
C -2.683901 -1.55874 -3 -0.795609 -3 0 
C -3 0.795609 -2.683901 1.55874 -2.12132 2.12132 
C -1.55874 2.683901 -0.795609 3 0 3 
z
" id="m6012f08e9e" style="stroke:#777777;stroke-opacity:0.4;"/>
    </defs>
    <g clip-path="url(#p182e89781c)">
     <use style="fill:#777777;fill-opacity:0.4;stroke:#777777;stroke-opacity:0.4;" x="581.001424" xlink:href="#m6012f08e9e" y="48.997591"/>
    </g>
   </g>
   <g id="line2d_119">
    <path clip-path="url(#p182e89781c)" d="M 20.692757 433 
L 20.708144 204.928096 
L 29.497058 204.928096 
L 31.694286 179.563445 
L 33.891515 179.563445 
L 36.088743 182.14444 
L 42.680429 182.14444 
L 44.877658 175.490936 
L 47.074886 189.375831 
L 49.272115 179.563445 
L 51.469343 161.828979 
L 55.8638 161.828979 
L 58.061029 156.779788 
L 60.258257 158.271301 
L 62.455486 152.016592 
L 64.652715 153.065686 
L 66.849943 152.016592 
L 69.047172 149.834392 
L 71.2444 149.834392 
L 73.441629 151.03991 
L 75.638857 151.03991 
L 77.836086 154.597588 
L 80.033314 154.597588 
L 84.427771 164.01118 
L 86.625 164.01118 
L 88.822229 144.584399 
L 91.019457 144.584399 
L 93.216686 143.435963 
L 95.413914 128.703668 
L 97.611143 126.373812 
L 102.0056 117.888647 
L 104.202828 115.654687 
L 106.400057 112.008309 
L 108.597285 108.584371 
L 110.794514 104.772925 
L 112.991743 100.223491 
L 115.188971 98.929628 
L 117.3862 97.214781 
L 119.583428 95.856609 
L 123.977885 93.279867 
L 126.175114 92.985153 
L 128.372342 92.5745 
L 130.569571 91.256573 
L 132.7668 90.546363 
L 137.161257 89.642057 
L 139.358485 89.192742 
L 141.555714 88.174418 
L 143.752942 87.536444 
L 145.950171 86.514466 
L 154.739085 82.013242 
L 161.330771 81.224634 
L 165.725228 81.311133 
L 170.119685 81.601789 
L 174.514142 81.347713 
L 178.908599 81.156716 
L 183.303056 80.592205 
L 189.894742 80.364012 
L 203.078113 80.428223 
L 209.669799 80.538054 
L 214.064256 80.531569 
L 220.655942 80.727402 
L 225.050399 80.954897 
L 229.444856 81.320269 
L 238.23377 81.557576 
L 244.825456 81.751741 
L 247.022684 81.893779 
L 249.219913 82.170066 
L 255.811598 83.41705 
L 262.403284 84.452902 
L 264.600513 84.813794 
L 266.797741 84.89591 
L 268.99497 85.247304 
L 273.389427 86.350542 
L 279.981112 88.52351 
L 282.178341 89.899376 
L 288.770027 92.732217 
L 290.967255 93.44569 
L 293.164484 94.288112 
L 295.361712 95.250933 
L 297.558941 95.447894 
L 301.953398 96.779168 
L 304.150626 97.228832 
L 306.347855 98.165906 
L 310.742312 99.520402 
L 315.136769 101.42843 
L 317.333998 102.600994 
L 319.531226 103.317387 
L 323.925683 104.336587 
L 326.122912 104.418112 
L 328.32014 104.820912 
L 330.517369 104.725099 
L 332.714598 105.002328 
L 334.911826 105.803605 
L 337.109055 106.063599 
L 339.306283 106.076725 
L 341.503512 106.248478 
L 343.70074 106.261777 
L 348.095197 106.625642 
L 350.292426 106.611997 
L 361.278569 107.955781 
L 363.475797 108.091393 
L 365.673026 108.397487 
L 370.067483 109.308018 
L 372.264711 109.641908 
L 374.46194 110.193074 
L 378.856397 110.602913 
L 381.053626 110.639119 
L 387.645311 112.189158 
L 389.84254 112.311021 
L 392.039768 115.097481 
L 394.236997 112.894009 
L 396.434226 113.413564 
L 400.828683 112.209396 
L 405.22314 110.245863 
L 407.420368 107.469364 
L 409.617597 107.836318 
L 411.814825 106.368617 
L 414.012054 106.395454 
L 416.209282 104.881126 
L 418.406511 104.383115 
L 420.60374 104.151987 
L 422.800968 104.117641 
L 427.195425 104.582585 
L 429.392654 104.151987 
L 431.589882 104.953723 
L 433.787111 105.322397 
L 438.181568 105.285094 
L 440.378797 104.8932 
L 442.576025 104.701247 
L 444.773254 104.026457 
L 446.970482 103.857054 
L 449.167711 103.546158 
L 460.153853 102.954659 
L 462.351082 102.776722 
L 464.548311 102.417276 
L 468.942768 101.532835 
L 471.139996 101.390654 
L 473.337225 101.04593 
L 475.534453 100.917652 
L 477.731682 100.539649 
L 484.323368 98.60058 
L 490.915053 96.264338 
L 493.112282 95.51001 
L 499.703967 93.81638 
L 501.901196 95.704321 
L 504.098424 92.81946 
L 506.295653 92.413517 
L 508.492882 92.195113 
L 512.887339 91.353709 
L 515.084567 93.510404 
L 517.281796 88.687876 
L 519.479024 90.229887 
L 521.676253 89.674998 
L 523.873481 88.943929 
L 528.267938 87.797578 
L 530.465167 85.561325 
L 532.662396 86.946369 
L 534.859624 86.517764 
L 537.056853 86.214298 
L 539.254081 85.781915 
L 545.845767 85.781915 
L 545.845767 85.781915 
" style="fill:none;stroke:#fbc15e;stroke-linecap:square;stroke-opacity:0.4;stroke-width:2;"/>
   </g>
   <g id="line2d_120">
    <defs>
     <path d="M 0 3 
C 0.795609 3 1.55874 2.683901 2.12132 2.12132 
C 2.683901 1.55874 3 0.795609 3 0 
C 3 -0.795609 2.683901 -1.55874 2.12132 -2.12132 
C 1.55874 -2.683901 0.795609 -3 0 -3 
C -0.795609 -3 -1.55874 -2.683901 -2.12132 -2.12132 
C -2.683901 -1.55874 -3 -0.795609 -3 0 
C -3 0.795609 -2.683901 1.55874 -2.12132 2.12132 
C -1.55874 2.683901 -0.795609 3 0 3 
z
" id="m774d482cda" style="stroke:#fbc15e;stroke-opacity:0.4;"/>
    </defs>
    <g clip-path="url(#p182e89781c)">
     <use style="fill:#fbc15e;fill-opacity:0.4;stroke:#fbc15e;stroke-opacity:0.4;" x="545.845767" xlink:href="#m774d482cda" y="85.781915"/>
    </g>
   </g>
   <g id="line2d_121">
    <path clip-path="url(#p182e89781c)" d="M 71.229013 433 
L 71.2444 204.928096 
L 73.441629 204.928096 
L 75.638857 175.490936 
L 77.836086 175.490936 
L 80.033314 164.01118 
L 82.230543 158.271301 
L 84.427771 152.016592 
L 86.625 148.199159 
L 88.822229 141.385696 
L 91.019457 138.911139 
L 93.216686 129.505181 
L 95.413914 126.76474 
L 97.611143 123.719563 
L 99.808371 122.748971 
L 104.202828 115.297573 
L 106.400057 115.9154 
L 108.597285 108.243613 
L 110.794514 105.90703 
L 112.991743 98.332097 
L 115.188971 98.616077 
L 117.3862 95.920549 
L 119.583428 94.88886 
L 121.780657 89.720417 
L 123.977885 86.976999 
L 126.175114 83.7576 
L 128.372342 83.601056 
L 130.569571 80.436806 
L 134.964028 77.936535 
L 143.752942 78.892801 
L 145.950171 79.338582 
L 148.147399 80.15416 
L 152.541856 79.560795 
L 154.739085 80.259757 
L 156.936314 80.797689 
L 159.133542 81.149942 
L 161.330771 82.414779 
L 163.527999 82.631175 
L 165.725228 82.97622 
L 170.119685 84.512893 
L 174.514142 86.442106 
L 176.711371 87.405905 
L 178.908599 88.684031 
L 181.105828 91.325888 
L 183.303056 93.179186 
L 185.500285 94.016629 
L 187.697513 95.367548 
L 189.894742 95.196029 
L 192.09197 95.622511 
L 194.289199 96.456044 
L 200.880885 100.495314 
L 203.078113 101.49478 
L 205.275342 103.199014 
L 207.47257 104.324978 
L 209.669799 104.54718 
L 211.867027 105.297517 
L 214.064256 105.920011 
L 216.261484 106.749039 
L 218.458713 108.274254 
L 220.655942 109.540912 
L 222.85317 110.001181 
L 225.050399 111.307167 
L 227.247627 113.173065 
L 229.444856 115.862872 
L 231.642084 116.895842 
L 233.839313 118.956367 
L 236.036541 120.111237 
L 238.23377 121.48527 
L 240.430998 121.176674 
L 244.825456 122.537363 
L 247.022684 123.857227 
L 249.219913 123.22595 
L 251.417141 125.059671 
L 253.61437 126.595876 
L 255.811598 127.461091 
L 258.008827 127.050736 
L 260.206055 127.883698 
L 262.403284 130.427972 
L 264.600513 133.7158 
L 266.797741 134.090823 
L 268.99497 134.090823 
L 271.192198 134.67267 
L 273.389427 137.392941 
L 275.586655 139.455679 
L 277.783884 137.037535 
L 279.981112 137.155015 
L 282.178341 136.464328 
L 284.375569 136.577127 
L 286.572798 138.005863 
L 288.770027 137.513421 
L 290.967255 137.513421 
L 293.164484 138.646528 
L 295.361712 138.25866 
L 297.558941 139.317567 
L 299.756169 139.59515 
L 301.953398 137.881137 
L 304.150626 137.392941 
L 306.347855 135.91343 
L 308.545084 136.35242 
L 310.742312 135.176505 
L 312.939541 133.808629 
L 317.333998 132.561357 
L 319.531226 131.733269 
L 321.728455 133.440912 
L 323.925683 132.058715 
L 326.122912 134.090823 
L 328.32014 131.813931 
L 330.517369 131.494002 
L 332.714598 131.573309 
L 334.911826 130.724449 
L 337.109055 128.06875 
L 339.306283 126.708228 
L 341.503512 123.628526 
L 343.70074 123.050638 
L 345.897969 122.328872 
L 348.095197 120.763048 
L 350.292426 117.678476 
L 354.686883 114.021803 
L 356.884112 113.39153 
L 361.278569 112.95792 
L 365.673026 113.303739 
L 370.067483 114.633299 
L 372.264711 113.930028 
L 374.46194 114.021803 
L 378.856397 113.303739 
L 381.053626 113.238251 
L 383.250854 112.108495 
L 387.645311 112.703989 
L 389.84254 112.028289 
L 392.039768 112.433941 
L 394.236997 111.672883 
L 396.434226 111.498471 
L 398.631454 111.988356 
L 400.828683 110.803198 
L 403.025911 110.122993 
L 405.22314 109.932041 
L 409.617597 109.160299 
L 411.814825 108.335736 
L 414.012054 106.831905 
L 416.209282 106.076725 
L 420.60374 105.309951 
L 424.998197 105.322397 
L 427.195425 105.472597 
L 429.392654 105.972057 
L 431.589882 106.625642 
L 433.787111 106.598366 
L 435.984339 106.408891 
L 438.181568 105.89406 
L 440.378797 105.173773 
L 442.576025 104.071975 
L 444.773254 103.480417 
L 446.970482 102.356562 
L 449.167711 101.657223 
L 451.364939 101.203275 
L 453.562168 100.990812 
L 455.759396 100.899422 
L 464.548311 99.603284 
L 466.745539 98.985221 
L 468.942768 98.756316 
L 471.139996 98.717221 
L 473.337225 98.165906 
L 475.534453 97.469856 
L 477.731682 97.228832 
L 479.92891 96.670639 
L 486.520596 96.429447 
L 490.915053 96.496033 
L 493.112282 96.068716 
L 495.30951 95.754902 
L 497.506739 94.823473 
L 501.901196 94.489404 
L 504.098424 93.92728 
L 506.295653 93.700863 
L 508.492882 93.042561 
L 515.084567 92.343659 
L 517.281796 91.999446 
L 519.479024 91.782505 
L 521.676253 91.196774 
L 523.873481 91.381584 
L 526.07071 93.728281 
L 528.267938 96.609954 
L 530.465167 91.86407 
L 532.662396 92.004305 
L 534.859624 92.383535 
L 539.254081 93.717308 
L 543.648538 93.717308 
L 545.845767 95.547411 
L 548.042995 95.933371 
L 550.240224 96.101132 
L 554.634681 94.055898 
L 559.029138 94.055898 
L 561.226367 90.298649 
L 563.423595 88.387355 
L 565.620824 86.079353 
L 567.818052 84.218255 
L 570.015281 81.813116 
L 574.409738 81.813116 
L 576.606967 76.837928 
L 578.804195 75.6491 
L 581.001424 73.201122 
L 585.395881 69.72623 
L 589.790338 69.72623 
L 591.987566 65.665563 
L 594.184795 64.530536 
L 596.382024 62.71676 
L 602.973709 62.71676 
L 602.973709 62.71676 
" style="fill:none;stroke:#8eba42;stroke-linecap:square;stroke-opacity:0.4;stroke-width:2;"/>
   </g>
   <g id="line2d_122">
    <defs>
     <path d="M 0 3 
C 0.795609 3 1.55874 2.683901 2.12132 2.12132 
C 2.683901 1.55874 3 0.795609 3 0 
C 3 -0.795609 2.683901 -1.55874 2.12132 -2.12132 
C 1.55874 -2.683901 0.795609 -3 0 -3 
C -0.795609 -3 -1.55874 -2.683901 -2.12132 -2.12132 
C -2.683901 -1.55874 -3 -0.795609 -3 0 
C -3 0.795609 -2.683901 1.55874 -2.12132 2.12132 
C -1.55874 2.683901 -0.795609 3 0 3 
z
" id="medbc441080" style="stroke:#8eba42;stroke-opacity:0.4;"/>
    </defs>
    <g clip-path="url(#p182e89781c)">
     <use style="fill:#8eba42;fill-opacity:0.4;stroke:#8eba42;stroke-opacity:0.4;" x="602.973709" xlink:href="#medbc441080" y="62.71676"/>
    </g>
   </g>
   <g id="line2d_123">
    <path clip-path="url(#p182e89781c)" d="M 11.919229 182.14444 
L 14.116458 182.14444 
L 16.313686 179.563445 
L 18.510915 179.563445 
L 20.708144 189.375831 
L 22.905372 179.563445 
L 25.102601 179.563445 
L 27.299829 182.14444 
L 29.497058 179.563445 
L 31.694286 185.303323 
L 36.088743 185.303323 
L 38.285972 204.928096 
L 40.4832 195.11571 
L 53.666572 195.11571 
L 55.8638 204.928096 
L 58.061029 204.928096 
L 58.076416 433 
M 62.439442 433 
L 62.455486 195.11571 
L 73.441629 195.11571 
L 75.638857 189.375831 
L 77.836086 204.928096 
L 80.033314 173.823566 
L 82.230543 165.678549 
L 84.427771 153.065686 
L 86.625 147.447321 
L 88.822229 141.071099 
L 91.019457 132.476334 
L 93.216686 128.574386 
L 95.413914 120.912063 
L 97.611143 117.325286 
L 99.808371 115.889111 
L 102.0056 112.028289 
L 104.202828 106.584748 
L 106.400057 102.356562 
L 108.597285 97.455564 
L 110.794514 93.750255 
L 112.991743 93.115964 
L 115.188971 87.217524 
L 119.583428 77.670991 
L 123.977885 66.375657 
L 126.175114 62.725972 
L 128.372342 58.250728 
L 130.569571 54.444469 
L 132.7668 51.729441 
L 134.964028 49.300353 
L 137.161257 46.424557 
L 141.555714 42.123943 
L 145.950171 39.404095 
L 148.147399 37.650212 
L 150.344628 36.278393 
L 156.936314 32.972544 
L 161.330771 31.7209 
L 167.922456 30.694347 
L 170.119685 30.596489 
L 172.316913 30.829757 
L 174.514142 30.909046 
L 178.908599 31.384401 
L 189.894742 31.977125 
L 192.09197 31.794159 
L 194.289199 31.971667 
L 196.486427 32.021501 
L 205.275342 31.46815 
L 207.47257 31.827017 
L 211.867027 32.023397 
L 214.064256 32.301813 
L 216.261484 32.255052 
L 220.655942 32.719134 
L 225.050399 32.710507 
L 229.444856 33.03961 
L 231.642084 33.604375 
L 233.839313 33.844634 
L 236.036541 34.302886 
L 238.23377 34.63296 
L 240.430998 34.786197 
L 242.628227 35.147649 
L 247.022684 35.329724 
L 251.417141 35.48105 
L 253.61437 35.252942 
L 255.811598 35.404962 
L 258.008827 35.180349 
L 262.403284 35.491184 
L 264.600513 35.746104 
L 266.797741 35.564582 
L 268.99497 35.901788 
L 271.192198 36.042869 
L 273.389427 36.508932 
L 275.586655 36.773313 
L 277.783884 36.68392 
L 279.981112 36.427993 
L 284.375569 36.61081 
L 288.770027 36.300034 
L 290.967255 36.417262 
L 293.164484 36.33932 
L 297.558941 36.666168 
L 299.756169 36.65019 
L 301.953398 36.945753 
L 308.545084 36.746034 
L 310.742312 36.414293 
L 315.136769 36.038113 
L 319.531226 35.090847 
L 323.925683 34.127281 
L 328.32014 33.050781 
L 332.714598 31.444402 
L 334.911826 30.878767 
L 339.306283 29.267114 
L 341.503512 28.695336 
L 343.70074 27.978548 
L 348.095197 26.931147 
L 350.292426 26.128336 
L 352.489655 25.469079 
L 354.686883 25.152907 
L 356.884112 25.007095 
L 359.08134 24.559672 
L 361.278569 24.396277 
L 363.475797 23.834256 
L 367.870254 23.217305 
L 372.264711 22.143861 
L 374.46194 21.836145 
L 376.659169 21.33825 
L 381.053626 20.843526 
L 383.250854 20.401306 
L 387.645311 20.190064 
L 392.039768 20.043253 
L 394.236997 20.119557 
L 396.434226 20.00847 
L 398.631454 20.259792 
L 403.025911 20.113622 
L 407.420368 20.475936 
L 411.814825 20.433786 
L 414.012054 20.473917 
L 418.406511 20.931721 
L 420.60374 21.173491 
L 424.998197 21.844457 
L 427.195425 22.461594 
L 431.589882 23.08108 
L 435.984339 23.209315 
L 438.181568 23.024776 
L 440.378797 23.422928 
L 442.576025 23.295291 
L 444.773254 23.588791 
L 446.970482 23.348232 
L 449.167711 23.666249 
L 451.364939 23.850726 
L 453.562168 24.40636 
L 455.759396 24.470014 
L 460.153853 25.21281 
L 462.351082 25.942352 
L 464.548311 26.080815 
L 466.745539 26.406851 
L 468.942768 26.316703 
L 471.139996 26.655057 
L 473.337225 26.763075 
L 475.534453 26.676653 
L 477.731682 26.774364 
L 482.126139 26.652029 
L 484.323368 26.813531 
L 486.520596 26.606072 
L 488.717825 26.822671 
L 490.915053 26.917971 
L 493.112282 26.727766 
L 495.30951 26.823206 
L 497.506739 27.030094 
L 499.703967 27.555744 
L 501.901196 28.388652 
L 506.295653 29.205346 
L 510.69011 29.526215 
L 512.887339 29.322072 
L 515.084567 28.759541 
L 517.281796 28.081507 
L 519.479024 27.818246 
L 521.676253 27.388132 
L 528.267938 27.101983 
L 530.465167 26.212025 
L 539.254081 26.168911 
L 543.648538 26.121161 
L 545.845767 27.036511 
L 550.240224 26.738156 
L 552.437453 26.70836 
L 556.83191 26.276358 
L 559.029138 26.319378 
L 561.226367 26.029267 
L 563.423595 26.036672 
L 567.818052 25.128896 
L 572.212509 24.808546 
L 574.409738 24.429381 
L 576.606967 24.343562 
L 581.001424 23.564508 
L 583.198652 23.280742 
L 585.395881 22.843161 
L 589.790338 22.607369 
L 591.987566 22.015669 
L 594.184795 21.744393 
L 598.579252 21.634712 
L 602.973709 21.634712 
L 602.973709 21.634712 
" style="fill:none;stroke:#ffb5b8;stroke-linecap:square;stroke-opacity:0.4;stroke-width:2;"/>
   </g>
   <g id="line2d_124">
    <defs>
     <path d="M 0 3 
C 0.795609 3 1.55874 2.683901 2.12132 2.12132 
C 2.683901 1.55874 3 0.795609 3 0 
C 3 -0.795609 2.683901 -1.55874 2.12132 -2.12132 
C 1.55874 -2.683901 0.795609 -3 0 -3 
C -0.795609 -3 -1.55874 -2.683901 -2.12132 -2.12132 
C -2.683901 -1.55874 -3 -0.795609 -3 0 
C -3 0.795609 -2.683901 1.55874 -2.12132 2.12132 
C -1.55874 2.683901 -0.795609 3 0 3 
z
" id="m03d990fccf" style="stroke:#ffb5b8;stroke-opacity:0.4;"/>
    </defs>
    <g clip-path="url(#p182e89781c)">
     <use style="fill:#ffb5b8;fill-opacity:0.4;stroke:#ffb5b8;stroke-opacity:0.4;" x="602.973709" xlink:href="#m03d990fccf" y="21.634712"/>
    </g>
   </g>
   <g id="patch_3">
    <path d="M 86.625 177.381244 
L 86.625 10.762488 
" style="fill:none;stroke:#ffffff;stroke-linecap:square;stroke-linejoin:miter;"/>
   </g>
   <g id="patch_4">
    <path d="M 665.375 177.381244 
L 665.375 10.762488 
" style="fill:none;stroke:#ffffff;stroke-linecap:square;stroke-linejoin:miter;"/>
   </g>
   <g id="patch_5">
    <path d="M 86.625 177.381244 
L 665.375 177.381244 
" style="fill:none;stroke:#ffffff;stroke-linecap:square;stroke-linejoin:miter;"/>
   </g>
   <g id="patch_6">
    <path d="M 86.625 10.762488 
L 665.375 10.762488 
" style="fill:none;stroke:#ffffff;stroke-linecap:square;stroke-linejoin:miter;"/>
   </g>
   <g id="text_21">
    <!-- Korea, South -->
    <defs>
     <path d="M 9.8125 72.90625 
L 19.671875 72.90625 
L 19.671875 42.09375 
L 52.390625 72.90625 
L 65.09375 72.90625 
L 28.90625 38.921875 
L 67.671875 0 
L 54.6875 0 
L 19.671875 35.109375 
L 19.671875 0 
L 9.8125 0 
z
" id="DejaVuSans-75"/>
     <path d="M 11.71875 12.40625 
L 22.015625 12.40625 
L 22.015625 4 
L 14.015625 -11.625 
L 7.71875 -11.625 
L 11.71875 4 
z
" id="DejaVuSans-44"/>
     <path d="M 53.515625 70.515625 
L 53.515625 60.890625 
Q 47.90625 63.578125 42.921875 64.890625 
Q 37.9375 66.21875 33.296875 66.21875 
Q 25.25 66.21875 20.875 63.09375 
Q 16.5 59.96875 16.5 54.203125 
Q 16.5 49.359375 19.40625 46.890625 
Q 22.3125 44.4375 30.421875 42.921875 
L 36.375 41.703125 
Q 47.40625 39.59375 52.65625 34.296875 
Q 57.90625 29 57.90625 20.125 
Q 57.90625 9.515625 50.796875 4.046875 
Q 43.703125 -1.421875 29.984375 -1.421875 
Q 24.8125 -1.421875 18.96875 -0.25 
Q 13.140625 0.921875 6.890625 3.21875 
L 6.890625 13.375 
Q 12.890625 10.015625 18.65625 8.296875 
Q 24.421875 6.59375 29.984375 6.59375 
Q 38.421875 6.59375 43.015625 9.90625 
Q 47.609375 13.234375 47.609375 19.390625 
Q 47.609375 24.75 44.3125 27.78125 
Q 41.015625 30.8125 33.5 32.328125 
L 27.484375 33.5 
Q 16.453125 35.6875 11.515625 40.375 
Q 6.59375 45.0625 6.59375 53.421875 
Q 6.59375 63.09375 13.40625 68.65625 
Q 20.21875 74.21875 32.171875 74.21875 
Q 37.3125 74.21875 42.625 73.28125 
Q 47.953125 72.359375 53.515625 70.515625 
z
" id="DejaVuSans-83"/>
     <path d="M 8.5 21.578125 
L 8.5 54.6875 
L 17.484375 54.6875 
L 17.484375 21.921875 
Q 17.484375 14.15625 20.5 10.265625 
Q 23.53125 6.390625 29.59375 6.390625 
Q 36.859375 6.390625 41.078125 11.03125 
Q 45.3125 15.671875 45.3125 23.6875 
L 45.3125 54.6875 
L 54.296875 54.6875 
L 54.296875 0 
L 45.3125 0 
L 45.3125 8.40625 
Q 42.046875 3.421875 37.71875 1 
Q 33.40625 -1.421875 27.6875 -1.421875 
Q 18.265625 -1.421875 13.375 4.4375 
Q 8.5 10.296875 8.5 21.578125 
z
M 31.109375 56 
z
" id="DejaVuSans-117"/>
     <path d="M 18.3125 70.21875 
L 18.3125 54.6875 
L 36.8125 54.6875 
L 36.8125 47.703125 
L 18.3125 47.703125 
L 18.3125 18.015625 
Q 18.3125 11.328125 20.140625 9.421875 
Q 21.96875 7.515625 27.59375 7.515625 
L 36.8125 7.515625 
L 36.8125 0 
L 27.59375 0 
Q 17.1875 0 13.234375 3.875 
Q 9.28125 7.765625 9.28125 18.015625 
L 9.28125 47.703125 
L 2.6875 47.703125 
L 2.6875 54.6875 
L 9.28125 54.6875 
L 9.28125 70.21875 
z
" id="DejaVuSans-116"/>
     <path d="M 54.890625 33.015625 
L 54.890625 0 
L 45.90625 0 
L 45.90625 32.71875 
Q 45.90625 40.484375 42.875 44.328125 
Q 39.84375 48.1875 33.796875 48.1875 
Q 26.515625 48.1875 22.3125 43.546875 
Q 18.109375 38.921875 18.109375 30.90625 
L 18.109375 0 
L 9.078125 0 
L 9.078125 75.984375 
L 18.109375 75.984375 
L 18.109375 46.1875 
Q 21.34375 51.125 25.703125 53.5625 
Q 30.078125 56 35.796875 56 
Q 45.21875 56 50.046875 50.171875 
Q 54.890625 44.34375 54.890625 33.015625 
z
" id="DejaVuSans-104"/>
    </defs>
    <g transform="translate(635.932137 115.475004)scale(0.1 -0.1)">
     <use xlink:href="#DejaVuSans-75"/>
     <use x="60.576172" xlink:href="#DejaVuSans-111"/>
     <use x="121.757812" xlink:href="#DejaVuSans-114"/>
     <use x="160.621094" xlink:href="#DejaVuSans-101"/>
     <use x="222.144531" xlink:href="#DejaVuSans-97"/>
     <use x="283.423828" xlink:href="#DejaVuSans-44"/>
     <use x="315.210938" xlink:href="#DejaVuSans-32"/>
     <use x="346.998047" xlink:href="#DejaVuSans-83"/>
     <use x="410.474609" xlink:href="#DejaVuSans-111"/>
     <use x="471.65625" xlink:href="#DejaVuSans-117"/>
     <use x="535.035156" xlink:href="#DejaVuSans-116"/>
     <use x="574.244141" xlink:href="#DejaVuSans-104"/>
    </g>
   </g>
   <g id="text_22">
    <!-- Germany -->
    <defs>
     <path d="M 59.515625 10.40625 
L 59.515625 29.984375 
L 43.40625 29.984375 
L 43.40625 38.09375 
L 69.28125 38.09375 
L 69.28125 6.78125 
Q 63.578125 2.734375 56.6875 0.65625 
Q 49.8125 -1.421875 42 -1.421875 
Q 24.90625 -1.421875 15.25 8.5625 
Q 5.609375 18.5625 5.609375 36.375 
Q 5.609375 54.25 15.25 64.234375 
Q 24.90625 74.21875 42 74.21875 
Q 49.125 74.21875 55.546875 72.453125 
Q 61.96875 70.703125 67.390625 67.28125 
L 67.390625 56.78125 
Q 61.921875 61.421875 55.765625 63.765625 
Q 49.609375 66.109375 42.828125 66.109375 
Q 29.4375 66.109375 22.71875 58.640625 
Q 16.015625 51.171875 16.015625 36.375 
Q 16.015625 21.625 22.71875 14.15625 
Q 29.4375 6.6875 42.828125 6.6875 
Q 48.046875 6.6875 52.140625 7.59375 
Q 56.25 8.5 59.515625 10.40625 
z
" id="DejaVuSans-71"/>
    </defs>
    <g transform="translate(613.959852 50.819682)scale(0.1 -0.1)">
     <use xlink:href="#DejaVuSans-71"/>
     <use x="77.490234" xlink:href="#DejaVuSans-101"/>
     <use x="139.013672" xlink:href="#DejaVuSans-114"/>
     <use x="178.376953" xlink:href="#DejaVuSans-109"/>
     <use x="275.789062" xlink:href="#DejaVuSans-97"/>
     <use x="337.068359" xlink:href="#DejaVuSans-110"/>
     <use x="400.447266" xlink:href="#DejaVuSans-121"/>
    </g>
   </g>
   <g id="text_23">
    <!-- Australia -->
    <defs>
     <path d="M 34.1875 63.1875 
L 20.796875 26.90625 
L 47.609375 26.90625 
z
M 28.609375 72.90625 
L 39.796875 72.90625 
L 67.578125 0 
L 57.328125 0 
L 50.6875 18.703125 
L 17.828125 18.703125 
L 11.1875 0 
L 0.78125 0 
z
" id="DejaVuSans-65"/>
    </defs>
    <g transform="translate(591.987566 139.59515)scale(0.1 -0.1)">
     <use xlink:href="#DejaVuSans-65"/>
     <use x="68.408203" xlink:href="#DejaVuSans-117"/>
     <use x="131.787109" xlink:href="#DejaVuSans-115"/>
     <use x="183.886719" xlink:href="#DejaVuSans-116"/>
     <use x="223.095703" xlink:href="#DejaVuSans-114"/>
     <use x="264.208984" xlink:href="#DejaVuSans-97"/>
     <use x="325.488281" xlink:href="#DejaVuSans-108"/>
     <use x="353.271484" xlink:href="#DejaVuSans-105"/>
     <use x="381.054688" xlink:href="#DejaVuSans-97"/>
    </g>
   </g>
   <g id="text_24">
    <!-- Poland -->
    <defs>
     <path d="M 19.671875 64.796875 
L 19.671875 37.40625 
L 32.078125 37.40625 
Q 38.96875 37.40625 42.71875 40.96875 
Q 46.484375 44.53125 46.484375 51.125 
Q 46.484375 57.671875 42.71875 61.234375 
Q 38.96875 64.796875 32.078125 64.796875 
z
M 9.8125 72.90625 
L 32.078125 72.90625 
Q 44.34375 72.90625 50.609375 67.359375 
Q 56.890625 61.8125 56.890625 51.125 
Q 56.890625 40.328125 50.609375 34.8125 
Q 44.34375 29.296875 32.078125 29.296875 
L 19.671875 29.296875 
L 19.671875 0 
L 9.8125 0 
z
" id="DejaVuSans-80"/>
    </defs>
    <g transform="translate(585.395881 48.997591)scale(0.1 -0.1)">
     <use xlink:href="#DejaVuSans-80"/>
     <use x="56.677734" xlink:href="#DejaVuSans-111"/>
     <use x="117.859375" xlink:href="#DejaVuSans-108"/>
     <use x="145.642578" xlink:href="#DejaVuSans-97"/>
     <use x="206.921875" xlink:href="#DejaVuSans-110"/>
     <use x="270.300781" xlink:href="#DejaVuSans-100"/>
    </g>
   </g>
   <g id="text_25">
    <!-- Belarus -->
    <defs>
     <path d="M 19.671875 34.8125 
L 19.671875 8.109375 
L 35.5 8.109375 
Q 43.453125 8.109375 47.28125 11.40625 
Q 51.125 14.703125 51.125 21.484375 
Q 51.125 28.328125 47.28125 31.5625 
Q 43.453125 34.8125 35.5 34.8125 
z
M 19.671875 64.796875 
L 19.671875 42.828125 
L 34.28125 42.828125 
Q 41.5 42.828125 45.03125 45.53125 
Q 48.578125 48.25 48.578125 53.8125 
Q 48.578125 59.328125 45.03125 62.0625 
Q 41.5 64.796875 34.28125 64.796875 
z
M 9.8125 72.90625 
L 35.015625 72.90625 
Q 46.296875 72.90625 52.390625 68.21875 
Q 58.5 63.53125 58.5 54.890625 
Q 58.5 48.1875 55.375 44.234375 
Q 52.25 40.28125 46.1875 39.3125 
Q 53.46875 37.75 57.5 32.78125 
Q 61.53125 27.828125 61.53125 20.40625 
Q 61.53125 10.640625 54.890625 5.3125 
Q 48.25 0 35.984375 0 
L 9.8125 0 
z
" id="DejaVuSans-66"/>
    </defs>
    <g transform="translate(550.240224 85.781915)scale(0.1 -0.1)">
     <use xlink:href="#DejaVuSans-66"/>
     <use x="68.603516" xlink:href="#DejaVuSans-101"/>
     <use x="130.126953" xlink:href="#DejaVuSans-108"/>
     <use x="157.910156" xlink:href="#DejaVuSans-97"/>
     <use x="219.189453" xlink:href="#DejaVuSans-114"/>
     <use x="260.302734" xlink:href="#DejaVuSans-117"/>
     <use x="323.681641" xlink:href="#DejaVuSans-115"/>
    </g>
   </g>
   <g id="text_26">
    <!-- Switzerland -->
    <defs>
     <path d="M 5.515625 54.6875 
L 48.1875 54.6875 
L 48.1875 46.484375 
L 14.40625 7.171875 
L 48.1875 7.171875 
L 48.1875 0 
L 4.296875 0 
L 4.296875 8.203125 
L 38.09375 47.515625 
L 5.515625 47.515625 
z
" id="DejaVuSans-122"/>
    </defs>
    <g transform="translate(607.368166 62.71676)scale(0.1 -0.1)">
     <use xlink:href="#DejaVuSans-83"/>
     <use x="63.476562" xlink:href="#DejaVuSans-119"/>
     <use x="145.263672" xlink:href="#DejaVuSans-105"/>
     <use x="173.046875" xlink:href="#DejaVuSans-116"/>
     <use x="212.255859" xlink:href="#DejaVuSans-122"/>
     <use x="264.746094" xlink:href="#DejaVuSans-101"/>
     <use x="326.269531" xlink:href="#DejaVuSans-114"/>
     <use x="367.382812" xlink:href="#DejaVuSans-108"/>
     <use x="395.166016" xlink:href="#DejaVuSans-97"/>
     <use x="456.445312" xlink:href="#DejaVuSans-110"/>
     <use x="519.824219" xlink:href="#DejaVuSans-100"/>
    </g>
   </g>
   <g id="text_27">
    <!-- US -->
    <defs>
     <path d="M 8.6875 72.90625 
L 18.609375 72.90625 
L 18.609375 28.609375 
Q 18.609375 16.890625 22.84375 11.734375 
Q 27.09375 6.59375 36.625 6.59375 
Q 46.09375 6.59375 50.34375 11.734375 
Q 54.59375 16.890625 54.59375 28.609375 
L 54.59375 72.90625 
L 64.5 72.90625 
L 64.5 27.390625 
Q 64.5 13.140625 57.4375 5.859375 
Q 50.390625 -1.421875 36.625 -1.421875 
Q 22.796875 -1.421875 15.734375 5.859375 
Q 8.6875 13.140625 8.6875 27.390625 
z
" id="DejaVuSans-85"/>
    </defs>
    <g transform="translate(607.368166 21.634712)scale(0.1 -0.1)">
     <use xlink:href="#DejaVuSans-85"/>
     <use x="73.193359" xlink:href="#DejaVuSans-83"/>
    </g>
   </g>
  </g>
 </g>
 <defs>
  <clipPath id="p182e89781c">
   <rect height="166.618756" width="578.75" x="86.625" y="10.762488"/>
  </clipPath>
 </defs>
</svg>
