<?xml version="1.0" encoding="utf-8" standalone="no"?>
<!DOCTYPE svg PUBLIC "-//W3C//DTD SVG 1.1//EN"
  "http://www.w3.org/Graphics/SVG/1.1/DTD/svg11.dtd">
<!-- Created with matplotlib (https://matplotlib.org/) -->
<svg height="180pt" version="1.1" viewBox="0 0 864 180" width="864pt" xmlns="http://www.w3.org/2000/svg" xmlns:xlink="http://www.w3.org/1999/xlink">
 <defs>
  <style type="text/css">
*{stroke-linecap:butt;stroke-linejoin:round;}
  </style>
 </defs>
 <g id="figure_1">
  <g id="patch_1">
   <path d="M 0 180 
L 864 180 
L 864 0 
L 0 0 
z
" style="fill:#ffffff;"/>
  </g>
  <g id="axes_1">
   <g id="patch_2">
    <path d="M 66.175 152.2 
L 814.825 152.2 
L 814.825 10.8 
L 66.175 10.8 
z
" style="fill:#e5e5e5;"/>
   </g>
   <g id="matplotlib.axis_1">
    <g id="xtick_1">
     <g id="line2d_1">
      <path clip-path="url(#pd1ba16e468)" d="M 134.089898 152.2 
L 134.089898 10.8 
" style="fill:none;stroke:#ffffff;stroke-linecap:square;stroke-width:0.8;"/>
     </g>
     <g id="line2d_2">
      <defs>
       <path d="M 0 0 
L 0 3.5 
" id="m9d62033af3" style="stroke:#555555;stroke-width:0.8;"/>
      </defs>
      <g>
       <use style="fill:#555555;stroke:#555555;stroke-width:0.8;" x="134.089898" xlink:href="#m9d62033af3" y="152.2"/>
      </g>
     </g>
     <g id="text_1">
      <!-- 2020-02 -->
      <defs>
       <path d="M 19.1875 8.296875 
L 53.609375 8.296875 
L 53.609375 0 
L 7.328125 0 
L 7.328125 8.296875 
Q 12.9375 14.109375 22.625 23.890625 
Q 32.328125 33.6875 34.8125 36.53125 
Q 39.546875 41.84375 41.421875 45.53125 
Q 43.3125 49.21875 43.3125 52.78125 
Q 43.3125 58.59375 39.234375 62.25 
Q 35.15625 65.921875 28.609375 65.921875 
Q 23.96875 65.921875 18.8125 64.3125 
Q 13.671875 62.703125 7.8125 59.421875 
L 7.8125 69.390625 
Q 13.765625 71.78125 18.9375 73 
Q 24.125 74.21875 28.421875 74.21875 
Q 39.75 74.21875 46.484375 68.546875 
Q 53.21875 62.890625 53.21875 53.421875 
Q 53.21875 48.921875 51.53125 44.890625 
Q 49.859375 40.875 45.40625 35.40625 
Q 44.1875 33.984375 37.640625 27.21875 
Q 31.109375 20.453125 19.1875 8.296875 
z
" id="DejaVuSans-50"/>
       <path d="M 31.78125 66.40625 
Q 24.171875 66.40625 20.328125 58.90625 
Q 16.5 51.421875 16.5 36.375 
Q 16.5 21.390625 20.328125 13.890625 
Q 24.171875 6.390625 31.78125 6.390625 
Q 39.453125 6.390625 43.28125 13.890625 
Q 47.125 21.390625 47.125 36.375 
Q 47.125 51.421875 43.28125 58.90625 
Q 39.453125 66.40625 31.78125 66.40625 
z
M 31.78125 74.21875 
Q 44.046875 74.21875 50.515625 64.515625 
Q 56.984375 54.828125 56.984375 36.375 
Q 56.984375 17.96875 50.515625 8.265625 
Q 44.046875 -1.421875 31.78125 -1.421875 
Q 19.53125 -1.421875 13.0625 8.265625 
Q 6.59375 17.96875 6.59375 36.375 
Q 6.59375 54.828125 13.0625 64.515625 
Q 19.53125 74.21875 31.78125 74.21875 
z
" id="DejaVuSans-48"/>
       <path d="M 4.890625 31.390625 
L 31.203125 31.390625 
L 31.203125 23.390625 
L 4.890625 23.390625 
z
" id="DejaVuSans-45"/>
      </defs>
      <g style="fill:#555555;" transform="translate(113.198492 166.798438)scale(0.1 -0.1)">
       <use xlink:href="#DejaVuSans-50"/>
       <use x="63.623047" xlink:href="#DejaVuSans-48"/>
       <use x="127.246094" xlink:href="#DejaVuSans-50"/>
       <use x="190.869141" xlink:href="#DejaVuSans-48"/>
       <use x="254.492188" xlink:href="#DejaVuSans-45"/>
       <use x="290.576172" xlink:href="#DejaVuSans-48"/>
       <use x="354.199219" xlink:href="#DejaVuSans-50"/>
      </g>
     </g>
    </g>
    <g id="xtick_2">
     <g id="line2d_3">
      <path clip-path="url(#pd1ba16e468)" d="M 238.629815 152.2 
L 238.629815 10.8 
" style="fill:none;stroke:#ffffff;stroke-linecap:square;stroke-width:0.8;"/>
     </g>
     <g id="line2d_4">
      <g>
       <use style="fill:#555555;stroke:#555555;stroke-width:0.8;" x="238.629815" xlink:href="#m9d62033af3" y="152.2"/>
      </g>
     </g>
     <g id="text_2">
      <!-- 2020-03 -->
      <defs>
       <path d="M 40.578125 39.3125 
Q 47.65625 37.796875 51.625 33 
Q 55.609375 28.21875 55.609375 21.1875 
Q 55.609375 10.40625 48.1875 4.484375 
Q 40.765625 -1.421875 27.09375 -1.421875 
Q 22.515625 -1.421875 17.65625 -0.515625 
Q 12.796875 0.390625 7.625 2.203125 
L 7.625 11.71875 
Q 11.71875 9.328125 16.59375 8.109375 
Q 21.484375 6.890625 26.8125 6.890625 
Q 36.078125 6.890625 40.9375 10.546875 
Q 45.796875 14.203125 45.796875 21.1875 
Q 45.796875 27.640625 41.28125 31.265625 
Q 36.765625 34.90625 28.71875 34.90625 
L 20.21875 34.90625 
L 20.21875 43.015625 
L 29.109375 43.015625 
Q 36.375 43.015625 40.234375 45.921875 
Q 44.09375 48.828125 44.09375 54.296875 
Q 44.09375 59.90625 40.109375 62.90625 
Q 36.140625 65.921875 28.71875 65.921875 
Q 24.65625 65.921875 20.015625 65.03125 
Q 15.375 64.15625 9.8125 62.3125 
L 9.8125 71.09375 
Q 15.4375 72.65625 20.34375 73.4375 
Q 25.25 74.21875 29.59375 74.21875 
Q 40.828125 74.21875 47.359375 69.109375 
Q 53.90625 64.015625 53.90625 55.328125 
Q 53.90625 49.265625 50.4375 45.09375 
Q 46.96875 40.921875 40.578125 39.3125 
z
" id="DejaVuSans-51"/>
      </defs>
      <g style="fill:#555555;" transform="translate(217.738409 166.798438)scale(0.1 -0.1)">
       <use xlink:href="#DejaVuSans-50"/>
       <use x="63.623047" xlink:href="#DejaVuSans-48"/>
       <use x="127.246094" xlink:href="#DejaVuSans-50"/>
       <use x="190.869141" xlink:href="#DejaVuSans-48"/>
       <use x="254.492188" xlink:href="#DejaVuSans-45"/>
       <use x="290.576172" xlink:href="#DejaVuSans-48"/>
       <use x="354.199219" xlink:href="#DejaVuSans-51"/>
      </g>
     </g>
    </g>
    <g id="xtick_3">
     <g id="line2d_5">
      <path clip-path="url(#pd1ba16e468)" d="M 350.379382 152.2 
L 350.379382 10.8 
" style="fill:none;stroke:#ffffff;stroke-linecap:square;stroke-width:0.8;"/>
     </g>
     <g id="line2d_6">
      <g>
       <use style="fill:#555555;stroke:#555555;stroke-width:0.8;" x="350.379382" xlink:href="#m9d62033af3" y="152.2"/>
      </g>
     </g>
     <g id="text_3">
      <!-- 2020-04 -->
      <defs>
       <path d="M 37.796875 64.3125 
L 12.890625 25.390625 
L 37.796875 25.390625 
z
M 35.203125 72.90625 
L 47.609375 72.90625 
L 47.609375 25.390625 
L 58.015625 25.390625 
L 58.015625 17.1875 
L 47.609375 17.1875 
L 47.609375 0 
L 37.796875 0 
L 37.796875 17.1875 
L 4.890625 17.1875 
L 4.890625 26.703125 
z
" id="DejaVuSans-52"/>
      </defs>
      <g style="fill:#555555;" transform="translate(329.487975 166.798438)scale(0.1 -0.1)">
       <use xlink:href="#DejaVuSans-50"/>
       <use x="63.623047" xlink:href="#DejaVuSans-48"/>
       <use x="127.246094" xlink:href="#DejaVuSans-50"/>
       <use x="190.869141" xlink:href="#DejaVuSans-48"/>
       <use x="254.492188" xlink:href="#DejaVuSans-45"/>
       <use x="290.576172" xlink:href="#DejaVuSans-48"/>
       <use x="354.199219" xlink:href="#DejaVuSans-52"/>
      </g>
     </g>
    </g>
    <g id="xtick_4">
     <g id="line2d_7">
      <path clip-path="url(#pd1ba16e468)" d="M 458.524124 152.2 
L 458.524124 10.8 
" style="fill:none;stroke:#ffffff;stroke-linecap:square;stroke-width:0.8;"/>
     </g>
     <g id="line2d_8">
      <g>
       <use style="fill:#555555;stroke:#555555;stroke-width:0.8;" x="458.524124" xlink:href="#m9d62033af3" y="152.2"/>
      </g>
     </g>
     <g id="text_4">
      <!-- 2020-05 -->
      <defs>
       <path d="M 10.796875 72.90625 
L 49.515625 72.90625 
L 49.515625 64.59375 
L 19.828125 64.59375 
L 19.828125 46.734375 
Q 21.96875 47.46875 24.109375 47.828125 
Q 26.265625 48.1875 28.421875 48.1875 
Q 40.625 48.1875 47.75 41.5 
Q 54.890625 34.8125 54.890625 23.390625 
Q 54.890625 11.625 47.5625 5.09375 
Q 40.234375 -1.421875 26.90625 -1.421875 
Q 22.3125 -1.421875 17.546875 -0.640625 
Q 12.796875 0.140625 7.71875 1.703125 
L 7.71875 11.625 
Q 12.109375 9.234375 16.796875 8.0625 
Q 21.484375 6.890625 26.703125 6.890625 
Q 35.15625 6.890625 40.078125 11.328125 
Q 45.015625 15.765625 45.015625 23.390625 
Q 45.015625 31 40.078125 35.4375 
Q 35.15625 39.890625 26.703125 39.890625 
Q 22.75 39.890625 18.8125 39.015625 
Q 14.890625 38.140625 10.796875 36.28125 
z
" id="DejaVuSans-53"/>
      </defs>
      <g style="fill:#555555;" transform="translate(437.632717 166.798438)scale(0.1 -0.1)">
       <use xlink:href="#DejaVuSans-50"/>
       <use x="63.623047" xlink:href="#DejaVuSans-48"/>
       <use x="127.246094" xlink:href="#DejaVuSans-50"/>
       <use x="190.869141" xlink:href="#DejaVuSans-48"/>
       <use x="254.492188" xlink:href="#DejaVuSans-45"/>
       <use x="290.576172" xlink:href="#DejaVuSans-48"/>
       <use x="354.199219" xlink:href="#DejaVuSans-53"/>
      </g>
     </g>
    </g>
    <g id="xtick_5">
     <g id="line2d_9">
      <path clip-path="url(#pd1ba16e468)" d="M 570.27369 152.2 
L 570.27369 10.8 
" style="fill:none;stroke:#ffffff;stroke-linecap:square;stroke-width:0.8;"/>
     </g>
     <g id="line2d_10">
      <g>
       <use style="fill:#555555;stroke:#555555;stroke-width:0.8;" x="570.27369" xlink:href="#m9d62033af3" y="152.2"/>
      </g>
     </g>
     <g id="text_5">
      <!-- 2020-06 -->
      <defs>
       <path d="M 33.015625 40.375 
Q 26.375 40.375 22.484375 35.828125 
Q 18.609375 31.296875 18.609375 23.390625 
Q 18.609375 15.53125 22.484375 10.953125 
Q 26.375 6.390625 33.015625 6.390625 
Q 39.65625 6.390625 43.53125 10.953125 
Q 47.40625 15.53125 47.40625 23.390625 
Q 47.40625 31.296875 43.53125 35.828125 
Q 39.65625 40.375 33.015625 40.375 
z
M 52.59375 71.296875 
L 52.59375 62.3125 
Q 48.875 64.0625 45.09375 64.984375 
Q 41.3125 65.921875 37.59375 65.921875 
Q 27.828125 65.921875 22.671875 59.328125 
Q 17.53125 52.734375 16.796875 39.40625 
Q 19.671875 43.65625 24.015625 45.921875 
Q 28.375 48.1875 33.59375 48.1875 
Q 44.578125 48.1875 50.953125 41.515625 
Q 57.328125 34.859375 57.328125 23.390625 
Q 57.328125 12.15625 50.6875 5.359375 
Q 44.046875 -1.421875 33.015625 -1.421875 
Q 20.359375 -1.421875 13.671875 8.265625 
Q 6.984375 17.96875 6.984375 36.375 
Q 6.984375 53.65625 15.1875 63.9375 
Q 23.390625 74.21875 37.203125 74.21875 
Q 40.921875 74.21875 44.703125 73.484375 
Q 48.484375 72.75 52.59375 71.296875 
z
" id="DejaVuSans-54"/>
      </defs>
      <g style="fill:#555555;" transform="translate(549.382284 166.798438)scale(0.1 -0.1)">
       <use xlink:href="#DejaVuSans-50"/>
       <use x="63.623047" xlink:href="#DejaVuSans-48"/>
       <use x="127.246094" xlink:href="#DejaVuSans-50"/>
       <use x="190.869141" xlink:href="#DejaVuSans-48"/>
       <use x="254.492188" xlink:href="#DejaVuSans-45"/>
       <use x="290.576172" xlink:href="#DejaVuSans-48"/>
       <use x="354.199219" xlink:href="#DejaVuSans-54"/>
      </g>
     </g>
    </g>
    <g id="xtick_6">
     <g id="line2d_11">
      <path clip-path="url(#pd1ba16e468)" d="M 678.418432 152.2 
L 678.418432 10.8 
" style="fill:none;stroke:#ffffff;stroke-linecap:square;stroke-width:0.8;"/>
     </g>
     <g id="line2d_12">
      <g>
       <use style="fill:#555555;stroke:#555555;stroke-width:0.8;" x="678.418432" xlink:href="#m9d62033af3" y="152.2"/>
      </g>
     </g>
     <g id="text_6">
      <!-- 2020-07 -->
      <defs>
       <path d="M 8.203125 72.90625 
L 55.078125 72.90625 
L 55.078125 68.703125 
L 28.609375 0 
L 18.3125 0 
L 43.21875 64.59375 
L 8.203125 64.59375 
z
" id="DejaVuSans-55"/>
      </defs>
      <g style="fill:#555555;" transform="translate(657.527026 166.798438)scale(0.1 -0.1)">
       <use xlink:href="#DejaVuSans-50"/>
       <use x="63.623047" xlink:href="#DejaVuSans-48"/>
       <use x="127.246094" xlink:href="#DejaVuSans-50"/>
       <use x="190.869141" xlink:href="#DejaVuSans-48"/>
       <use x="254.492188" xlink:href="#DejaVuSans-45"/>
       <use x="290.576172" xlink:href="#DejaVuSans-48"/>
       <use x="354.199219" xlink:href="#DejaVuSans-55"/>
      </g>
     </g>
    </g>
    <g id="xtick_7">
     <g id="line2d_13">
      <path clip-path="url(#pd1ba16e468)" d="M 790.167999 152.2 
L 790.167999 10.8 
" style="fill:none;stroke:#ffffff;stroke-linecap:square;stroke-width:0.8;"/>
     </g>
     <g id="line2d_14">
      <g>
       <use style="fill:#555555;stroke:#555555;stroke-width:0.8;" x="790.167999" xlink:href="#m9d62033af3" y="152.2"/>
      </g>
     </g>
     <g id="text_7">
      <!-- 2020-08 -->
      <defs>
       <path d="M 31.78125 34.625 
Q 24.75 34.625 20.71875 30.859375 
Q 16.703125 27.09375 16.703125 20.515625 
Q 16.703125 13.921875 20.71875 10.15625 
Q 24.75 6.390625 31.78125 6.390625 
Q 38.8125 6.390625 42.859375 10.171875 
Q 46.921875 13.96875 46.921875 20.515625 
Q 46.921875 27.09375 42.890625 30.859375 
Q 38.875 34.625 31.78125 34.625 
z
M 21.921875 38.8125 
Q 15.578125 40.375 12.03125 44.71875 
Q 8.5 49.078125 8.5 55.328125 
Q 8.5 64.0625 14.71875 69.140625 
Q 20.953125 74.21875 31.78125 74.21875 
Q 42.671875 74.21875 48.875 69.140625 
Q 55.078125 64.0625 55.078125 55.328125 
Q 55.078125 49.078125 51.53125 44.71875 
Q 48 40.375 41.703125 38.8125 
Q 48.828125 37.15625 52.796875 32.3125 
Q 56.78125 27.484375 56.78125 20.515625 
Q 56.78125 9.90625 50.3125 4.234375 
Q 43.84375 -1.421875 31.78125 -1.421875 
Q 19.734375 -1.421875 13.25 4.234375 
Q 6.78125 9.90625 6.78125 20.515625 
Q 6.78125 27.484375 10.78125 32.3125 
Q 14.796875 37.15625 21.921875 38.8125 
z
M 18.3125 54.390625 
Q 18.3125 48.734375 21.84375 45.5625 
Q 25.390625 42.390625 31.78125 42.390625 
Q 38.140625 42.390625 41.71875 45.5625 
Q 45.3125 48.734375 45.3125 54.390625 
Q 45.3125 60.0625 41.71875 63.234375 
Q 38.140625 66.40625 31.78125 66.40625 
Q 25.390625 66.40625 21.84375 63.234375 
Q 18.3125 60.0625 18.3125 54.390625 
z
" id="DejaVuSans-56"/>
      </defs>
      <g style="fill:#555555;" transform="translate(769.276593 166.798438)scale(0.1 -0.1)">
       <use xlink:href="#DejaVuSans-50"/>
       <use x="63.623047" xlink:href="#DejaVuSans-48"/>
       <use x="127.246094" xlink:href="#DejaVuSans-50"/>
       <use x="190.869141" xlink:href="#DejaVuSans-48"/>
       <use x="254.492188" xlink:href="#DejaVuSans-45"/>
       <use x="290.576172" xlink:href="#DejaVuSans-48"/>
       <use x="354.199219" xlink:href="#DejaVuSans-56"/>
      </g>
     </g>
    </g>
   </g>
   <g id="matplotlib.axis_2">
    <g id="ytick_1">
     <g id="line2d_15">
      <path clip-path="url(#pd1ba16e468)" d="M 66.175 152.2 
L 814.825 152.2 
" style="fill:none;stroke:#ffffff;stroke-linecap:square;stroke-width:0.8;"/>
     </g>
     <g id="line2d_16">
      <defs>
       <path d="M 0 0 
L -3.5 0 
" id="m61c82e15e0" style="stroke:#555555;stroke-width:0.8;"/>
      </defs>
      <g>
       <use style="fill:#555555;stroke:#555555;stroke-width:0.8;" x="66.175" xlink:href="#m61c82e15e0" y="152.2"/>
      </g>
     </g>
     <g id="line2d_17">
      <defs>
       <path d="M 0 0 
L 3.5 0 
" id="mb77a9a8ffe" style="stroke:#555555;stroke-width:0.8;"/>
      </defs>
      <g>
       <use style="fill:#555555;stroke:#555555;stroke-width:0.8;" x="814.825" xlink:href="#mb77a9a8ffe" y="152.2"/>
      </g>
     </g>
     <g id="text_8">
      <!-- 0 -->
      <g style="fill:#555555;" transform="translate(52.8125 155.999219)scale(0.1 -0.1)">
       <use xlink:href="#DejaVuSans-48"/>
      </g>
     </g>
     <g id="text_9">
      <!-- 0 -->
      <g style="fill:#555555;" transform="translate(821.825 155.999219)scale(0.1 -0.1)">
       <use xlink:href="#DejaVuSans-48"/>
      </g>
     </g>
    </g>
    <g id="ytick_2">
     <g id="line2d_18">
      <path clip-path="url(#pd1ba16e468)" d="M 66.175 129.093159 
L 814.825 129.093159 
" style="fill:none;stroke:#ffffff;stroke-linecap:square;stroke-width:0.8;"/>
     </g>
     <g id="line2d_19">
      <g>
       <use style="fill:#555555;stroke:#555555;stroke-width:0.8;" x="66.175" xlink:href="#m61c82e15e0" y="129.093159"/>
      </g>
     </g>
     <g id="line2d_20">
      <g>
       <use style="fill:#555555;stroke:#555555;stroke-width:0.8;" x="814.825" xlink:href="#mb77a9a8ffe" y="129.093159"/>
      </g>
     </g>
     <g id="text_10">
      <!-- 2000 -->
      <g style="fill:#555555;" transform="translate(33.725 132.892378)scale(0.1 -0.1)">
       <use xlink:href="#DejaVuSans-50"/>
       <use x="63.623047" xlink:href="#DejaVuSans-48"/>
       <use x="127.246094" xlink:href="#DejaVuSans-48"/>
       <use x="190.869141" xlink:href="#DejaVuSans-48"/>
      </g>
     </g>
     <g id="text_11">
      <!-- 2000 -->
      <g style="fill:#555555;" transform="translate(821.825 132.892378)scale(0.1 -0.1)">
       <use xlink:href="#DejaVuSans-50"/>
       <use x="63.623047" xlink:href="#DejaVuSans-48"/>
       <use x="127.246094" xlink:href="#DejaVuSans-48"/>
       <use x="190.869141" xlink:href="#DejaVuSans-48"/>
      </g>
     </g>
    </g>
    <g id="ytick_3">
     <g id="line2d_21">
      <path clip-path="url(#pd1ba16e468)" d="M 66.175 105.986319 
L 814.825 105.986319 
" style="fill:none;stroke:#ffffff;stroke-linecap:square;stroke-width:0.8;"/>
     </g>
     <g id="line2d_22">
      <g>
       <use style="fill:#555555;stroke:#555555;stroke-width:0.8;" x="66.175" xlink:href="#m61c82e15e0" y="105.986319"/>
      </g>
     </g>
     <g id="line2d_23">
      <g>
       <use style="fill:#555555;stroke:#555555;stroke-width:0.8;" x="814.825" xlink:href="#mb77a9a8ffe" y="105.986319"/>
      </g>
     </g>
     <g id="text_12">
      <!-- 4000 -->
      <g style="fill:#555555;" transform="translate(33.725 109.785538)scale(0.1 -0.1)">
       <use xlink:href="#DejaVuSans-52"/>
       <use x="63.623047" xlink:href="#DejaVuSans-48"/>
       <use x="127.246094" xlink:href="#DejaVuSans-48"/>
       <use x="190.869141" xlink:href="#DejaVuSans-48"/>
      </g>
     </g>
     <g id="text_13">
      <!-- 4000 -->
      <g style="fill:#555555;" transform="translate(821.825 109.785538)scale(0.1 -0.1)">
       <use xlink:href="#DejaVuSans-52"/>
       <use x="63.623047" xlink:href="#DejaVuSans-48"/>
       <use x="127.246094" xlink:href="#DejaVuSans-48"/>
       <use x="190.869141" xlink:href="#DejaVuSans-48"/>
      </g>
     </g>
    </g>
    <g id="ytick_4">
     <g id="line2d_24">
      <path clip-path="url(#pd1ba16e468)" d="M 66.175 82.879478 
L 814.825 82.879478 
" style="fill:none;stroke:#ffffff;stroke-linecap:square;stroke-width:0.8;"/>
     </g>
     <g id="line2d_25">
      <g>
       <use style="fill:#555555;stroke:#555555;stroke-width:0.8;" x="66.175" xlink:href="#m61c82e15e0" y="82.879478"/>
      </g>
     </g>
     <g id="line2d_26">
      <g>
       <use style="fill:#555555;stroke:#555555;stroke-width:0.8;" x="814.825" xlink:href="#mb77a9a8ffe" y="82.879478"/>
      </g>
     </g>
     <g id="text_14">
      <!-- 6000 -->
      <g style="fill:#555555;" transform="translate(33.725 86.678697)scale(0.1 -0.1)">
       <use xlink:href="#DejaVuSans-54"/>
       <use x="63.623047" xlink:href="#DejaVuSans-48"/>
       <use x="127.246094" xlink:href="#DejaVuSans-48"/>
       <use x="190.869141" xlink:href="#DejaVuSans-48"/>
      </g>
     </g>
     <g id="text_15">
      <!-- 6000 -->
      <g style="fill:#555555;" transform="translate(821.825 86.678697)scale(0.1 -0.1)">
       <use xlink:href="#DejaVuSans-54"/>
       <use x="63.623047" xlink:href="#DejaVuSans-48"/>
       <use x="127.246094" xlink:href="#DejaVuSans-48"/>
       <use x="190.869141" xlink:href="#DejaVuSans-48"/>
      </g>
     </g>
    </g>
    <g id="ytick_5">
     <g id="line2d_27">
      <path clip-path="url(#pd1ba16e468)" d="M 66.175 59.772638 
L 814.825 59.772638 
" style="fill:none;stroke:#ffffff;stroke-linecap:square;stroke-width:0.8;"/>
     </g>
     <g id="line2d_28">
      <g>
       <use style="fill:#555555;stroke:#555555;stroke-width:0.8;" x="66.175" xlink:href="#m61c82e15e0" y="59.772638"/>
      </g>
     </g>
     <g id="line2d_29">
      <g>
       <use style="fill:#555555;stroke:#555555;stroke-width:0.8;" x="814.825" xlink:href="#mb77a9a8ffe" y="59.772638"/>
      </g>
     </g>
     <g id="text_16">
      <!-- 8000 -->
      <g style="fill:#555555;" transform="translate(33.725 63.571857)scale(0.1 -0.1)">
       <use xlink:href="#DejaVuSans-56"/>
       <use x="63.623047" xlink:href="#DejaVuSans-48"/>
       <use x="127.246094" xlink:href="#DejaVuSans-48"/>
       <use x="190.869141" xlink:href="#DejaVuSans-48"/>
      </g>
     </g>
     <g id="text_17">
      <!-- 8000 -->
      <g style="fill:#555555;" transform="translate(821.825 63.571857)scale(0.1 -0.1)">
       <use xlink:href="#DejaVuSans-56"/>
       <use x="63.623047" xlink:href="#DejaVuSans-48"/>
       <use x="127.246094" xlink:href="#DejaVuSans-48"/>
       <use x="190.869141" xlink:href="#DejaVuSans-48"/>
      </g>
     </g>
    </g>
    <g id="ytick_6">
     <g id="line2d_30">
      <path clip-path="url(#pd1ba16e468)" d="M 66.175 36.665797 
L 814.825 36.665797 
" style="fill:none;stroke:#ffffff;stroke-linecap:square;stroke-width:0.8;"/>
     </g>
     <g id="line2d_31">
      <g>
       <use style="fill:#555555;stroke:#555555;stroke-width:0.8;" x="66.175" xlink:href="#m61c82e15e0" y="36.665797"/>
      </g>
     </g>
     <g id="line2d_32">
      <g>
       <use style="fill:#555555;stroke:#555555;stroke-width:0.8;" x="814.825" xlink:href="#mb77a9a8ffe" y="36.665797"/>
      </g>
     </g>
     <g id="text_18">
      <!-- 10000 -->
      <defs>
       <path d="M 12.40625 8.296875 
L 28.515625 8.296875 
L 28.515625 63.921875 
L 10.984375 60.40625 
L 10.984375 69.390625 
L 28.421875 72.90625 
L 38.28125 72.90625 
L 38.28125 8.296875 
L 54.390625 8.296875 
L 54.390625 0 
L 12.40625 0 
z
" id="DejaVuSans-49"/>
      </defs>
      <g style="fill:#555555;" transform="translate(27.3625 40.465016)scale(0.1 -0.1)">
       <use xlink:href="#DejaVuSans-49"/>
       <use x="63.623047" xlink:href="#DejaVuSans-48"/>
       <use x="127.246094" xlink:href="#DejaVuSans-48"/>
       <use x="190.869141" xlink:href="#DejaVuSans-48"/>
       <use x="254.492188" xlink:href="#DejaVuSans-48"/>
      </g>
     </g>
     <g id="text_19">
      <!-- 10000 -->
      <g style="fill:#555555;" transform="translate(821.825 40.465016)scale(0.1 -0.1)">
       <use xlink:href="#DejaVuSans-49"/>
       <use x="63.623047" xlink:href="#DejaVuSans-48"/>
       <use x="127.246094" xlink:href="#DejaVuSans-48"/>
       <use x="190.869141" xlink:href="#DejaVuSans-48"/>
       <use x="254.492188" xlink:href="#DejaVuSans-48"/>
      </g>
     </g>
    </g>
    <g id="ytick_7">
     <g id="line2d_33">
      <path clip-path="url(#pd1ba16e468)" d="M 66.175 13.558957 
L 814.825 13.558957 
" style="fill:none;stroke:#ffffff;stroke-linecap:square;stroke-width:0.8;"/>
     </g>
     <g id="line2d_34">
      <g>
       <use style="fill:#555555;stroke:#555555;stroke-width:0.8;" x="66.175" xlink:href="#m61c82e15e0" y="13.558957"/>
      </g>
     </g>
     <g id="line2d_35">
      <g>
       <use style="fill:#555555;stroke:#555555;stroke-width:0.8;" x="814.825" xlink:href="#mb77a9a8ffe" y="13.558957"/>
      </g>
     </g>
     <g id="text_20">
      <!-- 12000 -->
      <g style="fill:#555555;" transform="translate(27.3625 17.358176)scale(0.1 -0.1)">
       <use xlink:href="#DejaVuSans-49"/>
       <use x="63.623047" xlink:href="#DejaVuSans-50"/>
       <use x="127.246094" xlink:href="#DejaVuSans-48"/>
       <use x="190.869141" xlink:href="#DejaVuSans-48"/>
       <use x="254.492188" xlink:href="#DejaVuSans-48"/>
      </g>
     </g>
     <g id="text_21">
      <!-- 12000 -->
      <g style="fill:#555555;" transform="translate(821.825 17.358176)scale(0.1 -0.1)">
       <use xlink:href="#DejaVuSans-49"/>
       <use x="63.623047" xlink:href="#DejaVuSans-50"/>
       <use x="127.246094" xlink:href="#DejaVuSans-48"/>
       <use x="190.869141" xlink:href="#DejaVuSans-48"/>
       <use x="254.492188" xlink:href="#DejaVuSans-48"/>
      </g>
     </g>
    </g>
    <g id="text_22">
     <!-- daily change -->
     <defs>
      <path d="M 45.40625 46.390625 
L 45.40625 75.984375 
L 54.390625 75.984375 
L 54.390625 0 
L 45.40625 0 
L 45.40625 8.203125 
Q 42.578125 3.328125 38.25 0.953125 
Q 33.9375 -1.421875 27.875 -1.421875 
Q 17.96875 -1.421875 11.734375 6.484375 
Q 5.515625 14.40625 5.515625 27.296875 
Q 5.515625 40.1875 11.734375 48.09375 
Q 17.96875 56 27.875 56 
Q 33.9375 56 38.25 53.625 
Q 42.578125 51.265625 45.40625 46.390625 
z
M 14.796875 27.296875 
Q 14.796875 17.390625 18.875 11.75 
Q 22.953125 6.109375 30.078125 6.109375 
Q 37.203125 6.109375 41.296875 11.75 
Q 45.40625 17.390625 45.40625 27.296875 
Q 45.40625 37.203125 41.296875 42.84375 
Q 37.203125 48.484375 30.078125 48.484375 
Q 22.953125 48.484375 18.875 42.84375 
Q 14.796875 37.203125 14.796875 27.296875 
z
" id="DejaVuSans-100"/>
      <path d="M 34.28125 27.484375 
Q 23.390625 27.484375 19.1875 25 
Q 14.984375 22.515625 14.984375 16.5 
Q 14.984375 11.71875 18.140625 8.90625 
Q 21.296875 6.109375 26.703125 6.109375 
Q 34.1875 6.109375 38.703125 11.40625 
Q 43.21875 16.703125 43.21875 25.484375 
L 43.21875 27.484375 
z
M 52.203125 31.203125 
L 52.203125 0 
L 43.21875 0 
L 43.21875 8.296875 
Q 40.140625 3.328125 35.546875 0.953125 
Q 30.953125 -1.421875 24.3125 -1.421875 
Q 15.921875 -1.421875 10.953125 3.296875 
Q 6 8.015625 6 15.921875 
Q 6 25.140625 12.171875 29.828125 
Q 18.359375 34.515625 30.609375 34.515625 
L 43.21875 34.515625 
L 43.21875 35.40625 
Q 43.21875 41.609375 39.140625 45 
Q 35.0625 48.390625 27.6875 48.390625 
Q 23 48.390625 18.546875 47.265625 
Q 14.109375 46.140625 10.015625 43.890625 
L 10.015625 52.203125 
Q 14.9375 54.109375 19.578125 55.046875 
Q 24.21875 56 28.609375 56 
Q 40.484375 56 46.34375 49.84375 
Q 52.203125 43.703125 52.203125 31.203125 
z
" id="DejaVuSans-97"/>
      <path d="M 9.421875 54.6875 
L 18.40625 54.6875 
L 18.40625 0 
L 9.421875 0 
z
M 9.421875 75.984375 
L 18.40625 75.984375 
L 18.40625 64.59375 
L 9.421875 64.59375 
z
" id="DejaVuSans-105"/>
      <path d="M 9.421875 75.984375 
L 18.40625 75.984375 
L 18.40625 0 
L 9.421875 0 
z
" id="DejaVuSans-108"/>
      <path d="M 32.171875 -5.078125 
Q 28.375 -14.84375 24.75 -17.8125 
Q 21.140625 -20.796875 15.09375 -20.796875 
L 7.90625 -20.796875 
L 7.90625 -13.28125 
L 13.1875 -13.28125 
Q 16.890625 -13.28125 18.9375 -11.515625 
Q 21 -9.765625 23.484375 -3.21875 
L 25.09375 0.875 
L 2.984375 54.6875 
L 12.5 54.6875 
L 29.59375 11.921875 
L 46.6875 54.6875 
L 56.203125 54.6875 
z
" id="DejaVuSans-121"/>
      <path id="DejaVuSans-32"/>
      <path d="M 48.78125 52.59375 
L 48.78125 44.1875 
Q 44.96875 46.296875 41.140625 47.34375 
Q 37.3125 48.390625 33.40625 48.390625 
Q 24.65625 48.390625 19.8125 42.84375 
Q 14.984375 37.3125 14.984375 27.296875 
Q 14.984375 17.28125 19.8125 11.734375 
Q 24.65625 6.203125 33.40625 6.203125 
Q 37.3125 6.203125 41.140625 7.25 
Q 44.96875 8.296875 48.78125 10.40625 
L 48.78125 2.09375 
Q 45.015625 0.34375 40.984375 -0.53125 
Q 36.96875 -1.421875 32.421875 -1.421875 
Q 20.0625 -1.421875 12.78125 6.34375 
Q 5.515625 14.109375 5.515625 27.296875 
Q 5.515625 40.671875 12.859375 48.328125 
Q 20.21875 56 33.015625 56 
Q 37.15625 56 41.109375 55.140625 
Q 45.0625 54.296875 48.78125 52.59375 
z
" id="DejaVuSans-99"/>
      <path d="M 54.890625 33.015625 
L 54.890625 0 
L 45.90625 0 
L 45.90625 32.71875 
Q 45.90625 40.484375 42.875 44.328125 
Q 39.84375 48.1875 33.796875 48.1875 
Q 26.515625 48.1875 22.3125 43.546875 
Q 18.109375 38.921875 18.109375 30.90625 
L 18.109375 0 
L 9.078125 0 
L 9.078125 75.984375 
L 18.109375 75.984375 
L 18.109375 46.1875 
Q 21.34375 51.125 25.703125 53.5625 
Q 30.078125 56 35.796875 56 
Q 45.21875 56 50.046875 50.171875 
Q 54.890625 44.34375 54.890625 33.015625 
z
" id="DejaVuSans-104"/>
      <path d="M 54.890625 33.015625 
L 54.890625 0 
L 45.90625 0 
L 45.90625 32.71875 
Q 45.90625 40.484375 42.875 44.328125 
Q 39.84375 48.1875 33.796875 48.1875 
Q 26.515625 48.1875 22.3125 43.546875 
Q 18.109375 38.921875 18.109375 30.90625 
L 18.109375 0 
L 9.078125 0 
L 9.078125 54.6875 
L 18.109375 54.6875 
L 18.109375 46.1875 
Q 21.34375 51.125 25.703125 53.5625 
Q 30.078125 56 35.796875 56 
Q 45.21875 56 50.046875 50.171875 
Q 54.890625 44.34375 54.890625 33.015625 
z
" id="DejaVuSans-110"/>
      <path d="M 45.40625 27.984375 
Q 45.40625 37.75 41.375 43.109375 
Q 37.359375 48.484375 30.078125 48.484375 
Q 22.859375 48.484375 18.828125 43.109375 
Q 14.796875 37.75 14.796875 27.984375 
Q 14.796875 18.265625 18.828125 12.890625 
Q 22.859375 7.515625 30.078125 7.515625 
Q 37.359375 7.515625 41.375 12.890625 
Q 45.40625 18.265625 45.40625 27.984375 
z
M 54.390625 6.78125 
Q 54.390625 -7.171875 48.1875 -13.984375 
Q 42 -20.796875 29.203125 -20.796875 
Q 24.46875 -20.796875 20.265625 -20.09375 
Q 16.0625 -19.390625 12.109375 -17.921875 
L 12.109375 -9.1875 
Q 16.0625 -11.328125 19.921875 -12.34375 
Q 23.78125 -13.375 27.78125 -13.375 
Q 36.625 -13.375 41.015625 -8.765625 
Q 45.40625 -4.15625 45.40625 5.171875 
L 45.40625 9.625 
Q 42.625 4.78125 38.28125 2.390625 
Q 33.9375 0 27.875 0 
Q 17.828125 0 11.671875 7.65625 
Q 5.515625 15.328125 5.515625 27.984375 
Q 5.515625 40.671875 11.671875 48.328125 
Q 17.828125 56 27.875 56 
Q 33.9375 56 38.28125 53.609375 
Q 42.625 51.21875 45.40625 46.390625 
L 45.40625 54.6875 
L 54.390625 54.6875 
z
" id="DejaVuSans-103"/>
      <path d="M 56.203125 29.59375 
L 56.203125 25.203125 
L 14.890625 25.203125 
Q 15.484375 15.921875 20.484375 11.0625 
Q 25.484375 6.203125 34.421875 6.203125 
Q 39.59375 6.203125 44.453125 7.46875 
Q 49.3125 8.734375 54.109375 11.28125 
L 54.109375 2.78125 
Q 49.265625 0.734375 44.1875 -0.34375 
Q 39.109375 -1.421875 33.890625 -1.421875 
Q 20.796875 -1.421875 13.15625 6.1875 
Q 5.515625 13.8125 5.515625 26.8125 
Q 5.515625 40.234375 12.765625 48.109375 
Q 20.015625 56 32.328125 56 
Q 43.359375 56 49.78125 48.890625 
Q 56.203125 41.796875 56.203125 29.59375 
z
M 47.21875 32.234375 
Q 47.125 39.59375 43.09375 43.984375 
Q 39.0625 48.390625 32.421875 48.390625 
Q 24.90625 48.390625 20.390625 44.140625 
Q 15.875 39.890625 15.1875 32.171875 
z
" id="DejaVuSans-101"/>
     </defs>
     <g style="fill:#555555;" transform="translate(20.866875 119.859688)rotate(-90)scale(0.12 -0.12)">
      <use xlink:href="#DejaVuSans-100"/>
      <use x="63.476562" xlink:href="#DejaVuSans-97"/>
      <use x="124.755859" xlink:href="#DejaVuSans-105"/>
      <use x="152.539062" xlink:href="#DejaVuSans-108"/>
      <use x="180.322266" xlink:href="#DejaVuSans-121"/>
      <use x="239.501953" xlink:href="#DejaVuSans-32"/>
      <use x="271.289062" xlink:href="#DejaVuSans-99"/>
      <use x="326.269531" xlink:href="#DejaVuSans-104"/>
      <use x="389.648438" xlink:href="#DejaVuSans-97"/>
      <use x="450.927734" xlink:href="#DejaVuSans-110"/>
      <use x="514.306641" xlink:href="#DejaVuSans-103"/>
      <use x="577.783203" xlink:href="#DejaVuSans-101"/>
     </g>
    </g>
   </g>
   <g id="patch_3">
    <path clip-path="url(#pd1ba16e468)" d="M 100.204545 152.2 
L 103.088405 152.2 
L 103.088405 152.2 
L 100.204545 152.2 
z
" style="fill:#348abd;opacity:0.2;"/>
   </g>
   <g id="patch_4">
    <path clip-path="url(#pd1ba16e468)" d="M 103.80937 152.2 
L 106.69323 152.2 
L 106.69323 152.2 
L 103.80937 152.2 
z
" style="fill:#348abd;opacity:0.2;"/>
   </g>
   <g id="patch_5">
    <path clip-path="url(#pd1ba16e468)" d="M 107.414195 152.2 
L 110.298055 152.2 
L 110.298055 152.2 
L 107.414195 152.2 
z
" style="fill:#348abd;opacity:0.2;"/>
   </g>
   <g id="patch_6">
    <path clip-path="url(#pd1ba16e468)" d="M 111.01902 152.2 
L 113.902879 152.2 
L 113.902879 152.2 
L 111.01902 152.2 
z
" style="fill:#348abd;opacity:0.2;"/>
   </g>
   <g id="patch_7">
    <path clip-path="url(#pd1ba16e468)" d="M 114.623844 152.2 
L 117.507704 152.2 
L 117.507704 152.2 
L 114.623844 152.2 
z
" style="fill:#348abd;opacity:0.2;"/>
   </g>
   <g id="patch_8">
    <path clip-path="url(#pd1ba16e468)" d="M 118.228669 152.2 
L 121.112529 152.2 
L 121.112529 152.2 
L 118.228669 152.2 
z
" style="fill:#348abd;opacity:0.2;"/>
   </g>
   <g id="patch_9">
    <path clip-path="url(#pd1ba16e468)" d="M 121.833494 152.2 
L 124.717354 152.2 
L 124.717354 152.2 
L 121.833494 152.2 
z
" style="fill:#348abd;opacity:0.2;"/>
   </g>
   <g id="patch_10">
    <path clip-path="url(#pd1ba16e468)" d="M 125.438319 152.2 
L 128.322178 152.2 
L 128.322178 152.2 
L 125.438319 152.2 
z
" style="fill:#348abd;opacity:0.2;"/>
   </g>
   <g id="patch_11">
    <path clip-path="url(#pd1ba16e468)" d="M 129.043143 152.2 
L 131.927003 152.2 
L 131.927003 152.176893 
L 129.043143 152.176893 
z
" style="fill:#348abd;opacity:0.2;"/>
   </g>
   <g id="patch_12">
    <path clip-path="url(#pd1ba16e468)" d="M 132.647968 152.2 
L 135.531828 152.2 
L 135.531828 152.2 
L 132.647968 152.2 
z
" style="fill:#348abd;opacity:0.2;"/>
   </g>
   <g id="patch_13">
    <path clip-path="url(#pd1ba16e468)" d="M 136.252793 152.2 
L 139.136653 152.2 
L 139.136653 152.2 
L 136.252793 152.2 
z
" style="fill:#348abd;opacity:0.2;"/>
   </g>
   <g id="patch_14">
    <path clip-path="url(#pd1ba16e468)" d="M 139.857617 152.2 
L 142.741477 152.2 
L 142.741477 152.2 
L 139.857617 152.2 
z
" style="fill:#348abd;opacity:0.2;"/>
   </g>
   <g id="patch_15">
    <path clip-path="url(#pd1ba16e468)" d="M 143.462442 152.2 
L 146.346302 152.2 
L 146.346302 152.2 
L 143.462442 152.2 
z
" style="fill:#348abd;opacity:0.2;"/>
   </g>
   <g id="patch_16">
    <path clip-path="url(#pd1ba16e468)" d="M 147.067267 152.2 
L 149.951127 152.2 
L 149.951127 152.2 
L 147.067267 152.2 
z
" style="fill:#348abd;opacity:0.2;"/>
   </g>
   <g id="patch_17">
    <path clip-path="url(#pd1ba16e468)" d="M 150.672092 152.2 
L 153.555951 152.2 
L 153.555951 152.2 
L 150.672092 152.2 
z
" style="fill:#348abd;opacity:0.2;"/>
   </g>
   <g id="patch_18">
    <path clip-path="url(#pd1ba16e468)" d="M 154.276916 152.2 
L 157.160776 152.2 
L 157.160776 152.2 
L 154.276916 152.2 
z
" style="fill:#348abd;opacity:0.2;"/>
   </g>
   <g id="patch_19">
    <path clip-path="url(#pd1ba16e468)" d="M 157.881741 152.2 
L 160.765601 152.2 
L 160.765601 152.2 
L 157.881741 152.2 
z
" style="fill:#348abd;opacity:0.2;"/>
   </g>
   <g id="patch_20">
    <path clip-path="url(#pd1ba16e468)" d="M 161.486566 152.2 
L 164.370426 152.2 
L 164.370426 152.2 
L 161.486566 152.2 
z
" style="fill:#348abd;opacity:0.2;"/>
   </g>
   <g id="patch_21">
    <path clip-path="url(#pd1ba16e468)" d="M 165.091391 152.2 
L 167.97525 152.2 
L 167.97525 152.2 
L 165.091391 152.2 
z
" style="fill:#348abd;opacity:0.2;"/>
   </g>
   <g id="patch_22">
    <path clip-path="url(#pd1ba16e468)" d="M 168.696215 152.2 
L 171.580075 152.2 
L 171.580075 152.2 
L 168.696215 152.2 
z
" style="fill:#348abd;opacity:0.2;"/>
   </g>
   <g id="patch_23">
    <path clip-path="url(#pd1ba16e468)" d="M 172.30104 152.2 
L 175.1849 152.2 
L 175.1849 152.2 
L 172.30104 152.2 
z
" style="fill:#348abd;opacity:0.2;"/>
   </g>
   <g id="patch_24">
    <path clip-path="url(#pd1ba16e468)" d="M 175.905865 152.2 
L 178.789725 152.2 
L 178.789725 152.2 
L 175.905865 152.2 
z
" style="fill:#348abd;opacity:0.2;"/>
   </g>
   <g id="patch_25">
    <path clip-path="url(#pd1ba16e468)" d="M 179.51069 152.2 
L 182.394549 152.2 
L 182.394549 152.2 
L 179.51069 152.2 
z
" style="fill:#348abd;opacity:0.2;"/>
   </g>
   <g id="patch_26">
    <path clip-path="url(#pd1ba16e468)" d="M 183.115514 152.2 
L 185.999374 152.2 
L 185.999374 152.2 
L 183.115514 152.2 
z
" style="fill:#348abd;opacity:0.2;"/>
   </g>
   <g id="patch_27">
    <path clip-path="url(#pd1ba16e468)" d="M 186.720339 152.2 
L 189.604199 152.2 
L 189.604199 152.2 
L 186.720339 152.2 
z
" style="fill:#348abd;opacity:0.2;"/>
   </g>
   <g id="patch_28">
    <path clip-path="url(#pd1ba16e468)" d="M 190.325164 152.2 
L 193.209023 152.2 
L 193.209023 152.2 
L 190.325164 152.2 
z
" style="fill:#348abd;opacity:0.2;"/>
   </g>
   <g id="patch_29">
    <path clip-path="url(#pd1ba16e468)" d="M 193.929988 152.2 
L 196.813848 152.2 
L 196.813848 152.2 
L 193.929988 152.2 
z
" style="fill:#348abd;opacity:0.2;"/>
   </g>
   <g id="patch_30">
    <path clip-path="url(#pd1ba16e468)" d="M 197.534813 152.2 
L 200.418673 152.2 
L 200.418673 152.2 
L 197.534813 152.2 
z
" style="fill:#348abd;opacity:0.2;"/>
   </g>
   <g id="patch_31">
    <path clip-path="url(#pd1ba16e468)" d="M 201.139638 152.2 
L 204.023498 152.2 
L 204.023498 152.2 
L 201.139638 152.2 
z
" style="fill:#348abd;opacity:0.2;"/>
   </g>
   <g id="patch_32">
    <path clip-path="url(#pd1ba16e468)" d="M 204.744463 152.2 
L 207.628322 152.2 
L 207.628322 152.2 
L 204.744463 152.2 
z
" style="fill:#348abd;opacity:0.2;"/>
   </g>
   <g id="patch_33">
    <path clip-path="url(#pd1ba16e468)" d="M 208.349287 152.2 
L 211.233147 152.2 
L 211.233147 152.2 
L 208.349287 152.2 
z
" style="fill:#348abd;opacity:0.2;"/>
   </g>
   <g id="patch_34">
    <path clip-path="url(#pd1ba16e468)" d="M 211.954112 152.2 
L 214.837972 152.2 
L 214.837972 152.2 
L 211.954112 152.2 
z
" style="fill:#348abd;opacity:0.2;"/>
   </g>
   <g id="patch_35">
    <path clip-path="url(#pd1ba16e468)" d="M 215.558937 152.2 
L 218.442797 152.2 
L 218.442797 152.2 
L 215.558937 152.2 
z
" style="fill:#348abd;opacity:0.2;"/>
   </g>
   <g id="patch_36">
    <path clip-path="url(#pd1ba16e468)" d="M 219.163762 152.2 
L 222.047621 152.2 
L 222.047621 152.2 
L 219.163762 152.2 
z
" style="fill:#348abd;opacity:0.2;"/>
   </g>
   <g id="patch_37">
    <path clip-path="url(#pd1ba16e468)" d="M 222.768586 152.2 
L 225.652446 152.2 
L 225.652446 152.2 
L 222.768586 152.2 
z
" style="fill:#348abd;opacity:0.2;"/>
   </g>
   <g id="patch_38">
    <path clip-path="url(#pd1ba16e468)" d="M 226.373411 152.2 
L 229.257271 152.2 
L 229.257271 152.2 
L 226.373411 152.2 
z
" style="fill:#348abd;opacity:0.2;"/>
   </g>
   <g id="patch_39">
    <path clip-path="url(#pd1ba16e468)" d="M 229.978236 152.2 
L 232.862096 152.2 
L 232.862096 152.2 
L 229.978236 152.2 
z
" style="fill:#348abd;opacity:0.2;"/>
   </g>
   <g id="patch_40">
    <path clip-path="url(#pd1ba16e468)" d="M 233.58306 152.2 
L 236.46692 152.2 
L 236.46692 152.2 
L 233.58306 152.2 
z
" style="fill:#348abd;opacity:0.2;"/>
   </g>
   <g id="patch_41">
    <path clip-path="url(#pd1ba16e468)" d="M 237.187885 152.2 
L 240.071745 152.2 
L 240.071745 152.2 
L 237.187885 152.2 
z
" style="fill:#348abd;opacity:0.2;"/>
   </g>
   <g id="patch_42">
    <path clip-path="url(#pd1ba16e468)" d="M 240.79271 152.2 
L 243.67657 152.2 
L 243.67657 152.188447 
L 240.79271 152.188447 
z
" style="fill:#348abd;opacity:0.2;"/>
   </g>
   <g id="patch_43">
    <path clip-path="url(#pd1ba16e468)" d="M 244.397535 152.2 
L 247.281394 152.2 
L 247.281394 152.2 
L 244.397535 152.2 
z
" style="fill:#348abd;opacity:0.2;"/>
   </g>
   <g id="patch_44">
    <path clip-path="url(#pd1ba16e468)" d="M 248.002359 152.2 
L 250.886219 152.2 
L 250.886219 152.2 
L 248.002359 152.2 
z
" style="fill:#348abd;opacity:0.2;"/>
   </g>
   <g id="patch_45">
    <path clip-path="url(#pd1ba16e468)" d="M 251.607184 152.2 
L 254.491044 152.2 
L 254.491044 152.188447 
L 251.607184 152.188447 
z
" style="fill:#348abd;opacity:0.2;"/>
   </g>
   <g id="patch_46">
    <path clip-path="url(#pd1ba16e468)" d="M 255.212009 152.2 
L 258.095869 152.2 
L 258.095869 152.096019 
L 255.212009 152.096019 
z
" style="fill:#348abd;opacity:0.2;"/>
   </g>
   <g id="patch_47">
    <path clip-path="url(#pd1ba16e468)" d="M 258.816834 152.2 
L 261.700693 152.2 
L 261.700693 152.2 
L 258.816834 152.2 
z
" style="fill:#348abd;opacity:0.2;"/>
   </g>
   <g id="patch_48">
    <path clip-path="url(#pd1ba16e468)" d="M 262.421658 152.2 
L 265.305518 152.2 
L 265.305518 152.153786 
L 262.421658 152.153786 
z
" style="fill:#348abd;opacity:0.2;"/>
   </g>
   <g id="patch_49">
    <path clip-path="url(#pd1ba16e468)" d="M 266.026483 152.2 
L 268.910343 152.2 
L 268.910343 152.2 
L 266.026483 152.2 
z
" style="fill:#348abd;opacity:0.2;"/>
   </g>
   <g id="patch_50">
    <path clip-path="url(#pd1ba16e468)" d="M 269.631308 152.2 
L 272.515168 152.2 
L 272.515168 152.16534 
L 269.631308 152.16534 
z
" style="fill:#348abd;opacity:0.2;"/>
   </g>
   <g id="patch_51">
    <path clip-path="url(#pd1ba16e468)" d="M 273.236133 152.2 
L 276.119992 152.2 
L 276.119992 152.2 
L 273.236133 152.2 
z
" style="fill:#348abd;opacity:0.2;"/>
   </g>
   <g id="patch_52">
    <path clip-path="url(#pd1ba16e468)" d="M 276.840957 152.2 
L 279.724817 152.2 
L 279.724817 152.107573 
L 276.840957 152.107573 
z
" style="fill:#348abd;opacity:0.2;"/>
   </g>
   <g id="patch_53">
    <path clip-path="url(#pd1ba16e468)" d="M 280.445782 152.2 
L 283.329642 152.2 
L 283.329642 152.003592 
L 280.445782 152.003592 
z
" style="fill:#348abd;opacity:0.2;"/>
   </g>
   <g id="patch_54">
    <path clip-path="url(#pd1ba16e468)" d="M 284.050607 152.2 
L 286.934466 152.2 
L 286.934466 152.038252 
L 284.050607 152.038252 
z
" style="fill:#348abd;opacity:0.2;"/>
   </g>
   <g id="patch_55">
    <path clip-path="url(#pd1ba16e468)" d="M 287.655431 152.2 
L 290.539291 152.2 
L 290.539291 152.153786 
L 287.655431 152.153786 
z
" style="fill:#348abd;opacity:0.2;"/>
   </g>
   <g id="patch_56">
    <path clip-path="url(#pd1ba16e468)" d="M 291.260256 152.2 
L 294.144116 152.2 
L 294.144116 151.888058 
L 291.260256 151.888058 
z
" style="fill:#348abd;opacity:0.2;"/>
   </g>
   <g id="patch_57">
    <path clip-path="url(#pd1ba16e468)" d="M 294.865081 152.2 
L 297.748941 152.2 
L 297.748941 151.922718 
L 294.865081 151.922718 
z
" style="fill:#348abd;opacity:0.2;"/>
   </g>
   <g id="patch_58">
    <path clip-path="url(#pd1ba16e468)" d="M 298.469906 152.2 
L 301.353765 152.2 
L 301.353765 151.818737 
L 298.469906 151.818737 
z
" style="fill:#348abd;opacity:0.2;"/>
   </g>
   <g id="patch_59">
    <path clip-path="url(#pd1ba16e468)" d="M 302.07473 152.2 
L 304.95859 152.2 
L 304.95859 151.599222 
L 302.07473 151.599222 
z
" style="fill:#348abd;opacity:0.2;"/>
   </g>
   <g id="patch_60">
    <path clip-path="url(#pd1ba16e468)" d="M 305.679555 152.2 
L 308.563415 152.2 
L 308.563415 151.576115 
L 305.679555 151.576115 
z
" style="fill:#348abd;opacity:0.2;"/>
   </g>
   <g id="patch_61">
    <path clip-path="url(#pd1ba16e468)" d="M 309.28438 152.2 
L 312.16824 152.2 
L 312.16824 151.587669 
L 309.28438 151.587669 
z
" style="fill:#348abd;opacity:0.2;"/>
   </g>
   <g id="patch_62">
    <path clip-path="url(#pd1ba16e468)" d="M 312.889205 152.2 
L 315.773064 152.2 
L 315.773064 151.495241 
L 312.889205 151.495241 
z
" style="fill:#348abd;opacity:0.2;"/>
   </g>
   <g id="patch_63">
    <path clip-path="url(#pd1ba16e468)" d="M 316.494029 152.2 
L 319.377889 152.2 
L 319.377889 151.379707 
L 316.494029 151.379707 
z
" style="fill:#348abd;opacity:0.2;"/>
   </g>
   <g id="patch_64">
    <path clip-path="url(#pd1ba16e468)" d="M 320.098854 152.2 
L 322.982714 152.2 
L 322.982714 151.541455 
L 320.098854 151.541455 
z
" style="fill:#348abd;opacity:0.2;"/>
   </g>
   <g id="patch_65">
    <path clip-path="url(#pd1ba16e468)" d="M 323.703679 152.2 
L 326.587539 152.2 
L 326.587539 150.316792 
L 323.703679 150.316792 
z
" style="fill:#348abd;opacity:0.2;"/>
   </g>
   <g id="patch_66">
    <path clip-path="url(#pd1ba16e468)" d="M 327.308503 152.2 
L 330.192363 152.2 
L 330.192363 150.097278 
L 327.308503 150.097278 
z
" style="fill:#348abd;opacity:0.2;"/>
   </g>
   <g id="patch_67">
    <path clip-path="url(#pd1ba16e468)" d="M 330.913328 152.2 
L 333.797188 152.2 
L 333.797188 149.93553 
L 330.913328 149.93553 
z
" style="fill:#348abd;opacity:0.2;"/>
   </g>
   <g id="patch_68">
    <path clip-path="url(#pd1ba16e468)" d="M 334.518153 152.2 
L 337.402013 152.2 
L 337.402013 149.56582 
L 334.518153 149.56582 
z
" style="fill:#348abd;opacity:0.2;"/>
   </g>
   <g id="patch_69">
    <path clip-path="url(#pd1ba16e468)" d="M 338.122978 152.2 
L 341.006837 152.2 
L 341.006837 149.080577 
L 338.122978 149.080577 
z
" style="fill:#348abd;opacity:0.2;"/>
   </g>
   <g id="patch_70">
    <path clip-path="url(#pd1ba16e468)" d="M 341.727802 152.2 
L 344.611662 152.2 
L 344.611662 148.710867 
L 341.727802 148.710867 
z
" style="fill:#348abd;opacity:0.2;"/>
   </g>
   <g id="patch_71">
    <path clip-path="url(#pd1ba16e468)" d="M 345.332627 152.2 
L 348.216487 152.2 
L 348.216487 146.411736 
L 345.332627 146.411736 
z
" style="fill:#348abd;opacity:0.2;"/>
   </g>
   <g id="patch_72">
    <path clip-path="url(#pd1ba16e468)" d="M 348.937452 152.2 
L 351.821312 152.2 
L 351.821312 147.116495 
L 348.937452 147.116495 
z
" style="fill:#348abd;opacity:0.2;"/>
   </g>
   <g id="patch_73">
    <path clip-path="url(#pd1ba16e468)" d="M 352.542277 152.2 
L 355.426136 152.2 
L 355.426136 143.292313 
L 352.542277 143.292313 
z
" style="fill:#348abd;opacity:0.2;"/>
   </g>
   <g id="patch_74">
    <path clip-path="url(#pd1ba16e468)" d="M 356.147101 152.2 
L 359.030961 152.2 
L 359.030961 145.256394 
L 356.147101 145.256394 
z
" style="fill:#348abd;opacity:0.2;"/>
   </g>
   <g id="patch_75">
    <path clip-path="url(#pd1ba16e468)" d="M 359.751926 152.2 
L 362.635786 152.2 
L 362.635786 145.475909 
L 359.751926 145.475909 
z
" style="fill:#348abd;opacity:0.2;"/>
   </g>
   <g id="patch_76">
    <path clip-path="url(#pd1ba16e468)" d="M 363.356751 152.2 
L 366.240611 152.2 
L 366.240611 144.597849 
L 363.356751 144.597849 
z
" style="fill:#348abd;opacity:0.2;"/>
   </g>
   <g id="patch_77">
    <path clip-path="url(#pd1ba16e468)" d="M 366.961576 152.2 
L 369.845435 152.2 
L 369.845435 141.178037 
L 366.961576 141.178037 
z
" style="fill:#348abd;opacity:0.2;"/>
   </g>
   <g id="patch_78">
    <path clip-path="url(#pd1ba16e468)" d="M 370.5664 152.2 
L 373.45026 152.2 
L 373.45026 138.867353 
L 370.5664 138.867353 
z
" style="fill:#348abd;opacity:0.2;"/>
   </g>
   <g id="patch_79">
    <path clip-path="url(#pd1ba16e468)" d="M 374.171225 152.2 
L 377.055085 152.2 
L 377.055085 138.624731 
L 374.171225 138.624731 
z
" style="fill:#348abd;opacity:0.2;"/>
   </g>
   <g id="patch_80">
    <path clip-path="url(#pd1ba16e468)" d="M 377.77605 152.2 
L 380.659909 152.2 
L 380.659909 135.34356 
L 377.77605 135.34356 
z
" style="fill:#348abd;opacity:0.2;"/>
   </g>
   <g id="patch_81">
    <path clip-path="url(#pd1ba16e468)" d="M 381.380874 152.2 
L 384.264734 152.2 
L 384.264734 131.565591 
L 381.380874 131.565591 
z
" style="fill:#348abd;opacity:0.2;"/>
   </g>
   <g id="patch_82">
    <path clip-path="url(#pd1ba16e468)" d="M 384.985699 152.2 
L 387.869559 152.2 
L 387.869559 132.940448 
L 384.985699 132.940448 
z
" style="fill:#348abd;opacity:0.2;"/>
   </g>
   <g id="patch_83">
    <path clip-path="url(#pd1ba16e468)" d="M 388.590524 152.2 
L 391.474384 152.2 
L 391.474384 126.944223 
L 388.590524 126.944223 
z
" style="fill:#348abd;opacity:0.2;"/>
   </g>
   <g id="patch_84">
    <path clip-path="url(#pd1ba16e468)" d="M 392.195349 152.2 
L 395.079208 152.2 
L 395.079208 122.646351 
L 392.195349 122.646351 
z
" style="fill:#348abd;opacity:0.2;"/>
   </g>
   <g id="patch_85">
    <path clip-path="url(#pd1ba16e468)" d="M 395.800173 152.2 
L 398.684033 152.2 
L 398.684033 120.150812 
L 395.800173 120.150812 
z
" style="fill:#348abd;opacity:0.2;"/>
   </g>
   <g id="patch_86">
    <path clip-path="url(#pd1ba16e468)" d="M 399.404998 152.2 
L 402.288858 152.2 
L 402.288858 113.057012 
L 399.404998 113.057012 
z
" style="fill:#348abd;opacity:0.2;"/>
   </g>
   <g id="patch_87">
    <path clip-path="url(#pd1ba16e468)" d="M 403.009823 152.2 
L 405.893683 152.2 
L 405.893683 112.363807 
L 403.009823 112.363807 
z
" style="fill:#348abd;opacity:0.2;"/>
   </g>
   <g id="patch_88">
    <path clip-path="url(#pd1ba16e468)" d="M 406.614648 152.2 
L 409.498507 152.2 
L 409.498507 105.17758 
L 406.614648 105.17758 
z
" style="fill:#348abd;opacity:0.2;"/>
   </g>
   <g id="patch_89">
    <path clip-path="url(#pd1ba16e468)" d="M 410.219472 152.2 
L 413.103332 152.2 
L 413.103332 96.916884 
L 410.219472 96.916884 
z
" style="fill:#348abd;opacity:0.2;"/>
   </g>
   <g id="patch_90">
    <path clip-path="url(#pd1ba16e468)" d="M 413.824297 152.2 
L 416.708157 152.2 
L 416.708157 82.186273 
L 413.824297 82.186273 
z
" style="fill:#348abd;opacity:0.2;"/>
   </g>
   <g id="patch_91">
    <path clip-path="url(#pd1ba16e468)" d="M 417.429122 152.2 
L 420.312982 152.2 
L 420.312982 102.890002 
L 417.429122 102.890002 
z
" style="fill:#348abd;opacity:0.2;"/>
   </g>
   <g id="patch_92">
    <path clip-path="url(#pd1ba16e468)" d="M 421.033946 152.2 
L 423.917806 152.2 
L 423.917806 87.015603 
L 421.033946 87.015603 
z
" style="fill:#348abd;opacity:0.2;"/>
   </g>
   <g id="patch_93">
    <path clip-path="url(#pd1ba16e468)" d="M 424.638771 152.2 
L 427.522631 152.2 
L 427.522631 91.706291 
L 424.638771 91.706291 
z
" style="fill:#348abd;opacity:0.2;"/>
   </g>
   <g id="patch_94">
    <path clip-path="url(#pd1ba16e468)" d="M 428.243596 152.2 
L 431.127456 152.2 
L 431.127456 97.043972 
L 428.243596 97.043972 
z
" style="fill:#348abd;opacity:0.2;"/>
   </g>
   <g id="patch_95">
    <path clip-path="url(#pd1ba16e468)" d="M 431.848421 152.2 
L 434.73228 152.2 
L 434.73228 84.624045 
L 431.848421 84.624045 
z
" style="fill:#348abd;opacity:0.2;"/>
   </g>
   <g id="patch_96">
    <path clip-path="url(#pd1ba16e468)" d="M 435.453245 152.2 
L 438.337105 152.2 
L 438.337105 83.272295 
L 435.453245 83.272295 
z
" style="fill:#348abd;opacity:0.2;"/>
   </g>
   <g id="patch_97">
    <path clip-path="url(#pd1ba16e468)" d="M 439.05807 152.2 
L 441.94193 152.2 
L 441.94193 78.708694 
L 439.05807 78.708694 
z
" style="fill:#348abd;opacity:0.2;"/>
   </g>
   <g id="patch_98">
    <path clip-path="url(#pd1ba16e468)" d="M 442.662895 152.2 
L 445.546755 152.2 
L 445.546755 80.591901 
L 442.662895 80.591901 
z
" style="fill:#348abd;opacity:0.2;"/>
   </g>
   <g id="patch_99">
    <path clip-path="url(#pd1ba16e468)" d="M 446.26772 152.2 
L 449.151579 152.2 
L 449.151579 78.131023 
L 446.26772 78.131023 
z
" style="fill:#348abd;opacity:0.2;"/>
   </g>
   <g id="patch_100">
    <path clip-path="url(#pd1ba16e468)" d="M 449.872544 152.2 
L 452.756404 152.2 
L 452.756404 84.716472 
L 449.872544 84.716472 
z
" style="fill:#348abd;opacity:0.2;"/>
   </g>
   <g id="patch_101">
    <path clip-path="url(#pd1ba16e468)" d="M 453.477369 152.2 
L 456.361229 152.2 
L 456.361229 70.18227 
L 453.477369 70.18227 
z
" style="fill:#348abd;opacity:0.2;"/>
   </g>
   <g id="patch_102">
    <path clip-path="url(#pd1ba16e468)" d="M 457.082194 152.2 
L 459.966054 152.2 
L 459.966054 60.546717 
L 457.082194 60.546717 
z
" style="fill:#348abd;opacity:0.2;"/>
   </g>
   <g id="patch_103">
    <path clip-path="url(#pd1ba16e468)" d="M 460.687018 152.2 
L 463.570878 152.2 
L 463.570878 41.021437 
L 460.687018 41.021437 
z
" style="fill:#348abd;opacity:0.2;"/>
   </g>
   <g id="patch_104">
    <path clip-path="url(#pd1ba16e468)" d="M 464.291843 152.2 
L 467.175703 152.2 
L 467.175703 29.352482 
L 464.291843 29.352482 
z
" style="fill:#348abd;opacity:0.2;"/>
   </g>
   <g id="patch_105">
    <path clip-path="url(#pd1ba16e468)" d="M 467.896668 152.2 
L 470.780528 152.2 
L 470.780528 29.95326 
L 467.896668 29.95326 
z
" style="fill:#348abd;opacity:0.2;"/>
   </g>
   <g id="patch_106">
    <path clip-path="url(#pd1ba16e468)" d="M 471.501493 152.2 
L 474.385352 152.2 
L 474.385352 35.487348 
L 471.501493 35.487348 
z
" style="fill:#348abd;opacity:0.2;"/>
   </g>
   <g id="patch_107">
    <path clip-path="url(#pd1ba16e468)" d="M 475.106317 152.2 
L 477.990177 152.2 
L 477.990177 30.207435 
L 475.106317 30.207435 
z
" style="fill:#348abd;opacity:0.2;"/>
   </g>
   <g id="patch_108">
    <path clip-path="url(#pd1ba16e468)" d="M 478.711142 152.2 
L 481.595002 152.2 
L 481.595002 22.443537 
L 478.711142 22.443537 
z
" style="fill:#348abd;opacity:0.2;"/>
   </g>
   <g id="patch_109">
    <path clip-path="url(#pd1ba16e468)" d="M 482.315967 152.2 
L 485.199827 152.2 
L 485.199827 28.589957 
L 482.315967 28.589957 
z
" style="fill:#348abd;opacity:0.2;"/>
   </g>
   <g id="patch_110">
    <path clip-path="url(#pd1ba16e468)" d="M 485.920792 152.2 
L 488.804651 152.2 
L 488.804651 27.226653 
L 485.920792 27.226653 
z
" style="fill:#348abd;opacity:0.2;"/>
   </g>
   <g id="patch_111">
    <path clip-path="url(#pd1ba16e468)" d="M 489.525616 152.2 
L 492.409476 152.2 
L 492.409476 24.973736 
L 489.525616 24.973736 
z
" style="fill:#348abd;opacity:0.2;"/>
   </g>
   <g id="patch_112">
    <path clip-path="url(#pd1ba16e468)" d="M 493.130441 152.2 
L 496.014301 152.2 
L 496.014301 17.533333 
L 493.130441 17.533333 
z
" style="fill:#348abd;opacity:0.2;"/>
   </g>
   <g id="patch_113">
    <path clip-path="url(#pd1ba16e468)" d="M 496.735266 152.2 
L 499.619126 152.2 
L 499.619126 26.279272 
L 496.735266 26.279272 
z
" style="fill:#348abd;opacity:0.2;"/>
   </g>
   <g id="patch_114">
    <path clip-path="url(#pd1ba16e468)" d="M 500.340091 152.2 
L 503.22395 152.2 
L 503.22395 36.342302 
L 500.340091 36.342302 
z
" style="fill:#348abd;opacity:0.2;"/>
   </g>
   <g id="patch_115">
    <path clip-path="url(#pd1ba16e468)" d="M 503.944915 152.2 
L 506.828775 152.2 
L 506.828775 36.966186 
L 503.944915 36.966186 
z
" style="fill:#348abd;opacity:0.2;"/>
   </g>
   <g id="patch_116">
    <path clip-path="url(#pd1ba16e468)" d="M 507.54974 152.2 
L 510.4336 152.2 
L 510.4336 29.756852 
L 507.54974 29.756852 
z
" style="fill:#348abd;opacity:0.2;"/>
   </g>
   <g id="patch_117">
    <path clip-path="url(#pd1ba16e468)" d="M 511.154565 152.2 
L 514.038424 152.2 
L 514.038424 45.908534 
L 511.154565 45.908534 
z
" style="fill:#348abd;opacity:0.2;"/>
   </g>
   <g id="patch_118">
    <path clip-path="url(#pd1ba16e468)" d="M 514.759389 152.2 
L 517.643249 152.2 
L 517.643249 40.027843 
L 514.759389 40.027843 
z
" style="fill:#348abd;opacity:0.2;"/>
   </g>
   <g id="patch_119">
    <path clip-path="url(#pd1ba16e468)" d="M 518.364214 152.2 
L 521.248074 152.2 
L 521.248074 49.074171 
L 518.364214 49.074171 
z
" style="fill:#348abd;opacity:0.2;"/>
   </g>
   <g id="patch_120">
    <path clip-path="url(#pd1ba16e468)" d="M 521.969039 152.2 
L 524.852899 152.2 
L 524.852899 45.180668 
L 521.969039 45.180668 
z
" style="fill:#348abd;opacity:0.2;"/>
   </g>
   <g id="patch_121">
    <path clip-path="url(#pd1ba16e468)" d="M 525.573864 152.2 
L 528.457723 152.2 
L 528.457723 50.945825 
L 525.573864 50.945825 
z
" style="fill:#348abd;opacity:0.2;"/>
   </g>
   <g id="patch_122">
    <path clip-path="url(#pd1ba16e468)" d="M 529.178688 152.2 
L 532.062548 152.2 
L 532.062548 49.963784 
L 529.178688 49.963784 
z
" style="fill:#348abd;opacity:0.2;"/>
   </g>
   <g id="patch_123">
    <path clip-path="url(#pd1ba16e468)" d="M 532.783513 152.2 
L 535.667373 152.2 
L 535.667373 49.44388 
L 532.783513 49.44388 
z
" style="fill:#348abd;opacity:0.2;"/>
   </g>
   <g id="patch_124">
    <path clip-path="url(#pd1ba16e468)" d="M 536.388338 152.2 
L 539.272198 152.2 
L 539.272198 43.205033 
L 536.388338 43.205033 
z
" style="fill:#348abd;opacity:0.2;"/>
   </g>
   <g id="patch_125">
    <path clip-path="url(#pd1ba16e468)" d="M 539.993163 152.2 
L 542.877022 152.2 
L 542.877022 52.852139 
L 539.993163 52.852139 
z
" style="fill:#348abd;opacity:0.2;"/>
   </g>
   <g id="patch_126">
    <path clip-path="url(#pd1ba16e468)" d="M 543.597987 152.2 
L 546.481847 152.2 
L 546.481847 48.843102 
L 543.597987 48.843102 
z
" style="fill:#348abd;opacity:0.2;"/>
   </g>
   <g id="patch_127">
    <path clip-path="url(#pd1ba16e468)" d="M 547.202812 152.2 
L 550.086672 152.2 
L 550.086672 49.201258 
L 547.202812 49.201258 
z
" style="fill:#348abd;opacity:0.2;"/>
   </g>
   <g id="patch_128">
    <path clip-path="url(#pd1ba16e468)" d="M 550.807637 152.2 
L 553.691497 152.2 
L 553.691497 55.867582 
L 550.807637 55.867582 
z
" style="fill:#348abd;opacity:0.2;"/>
   </g>
   <g id="patch_129">
    <path clip-path="url(#pd1ba16e468)" d="M 554.412461 152.2 
L 557.296321 152.2 
L 557.296321 55.486319 
L 554.412461 55.486319 
z
" style="fill:#348abd;opacity:0.2;"/>
   </g>
   <g id="patch_130">
    <path clip-path="url(#pd1ba16e468)" d="M 558.017286 152.2 
L 560.901146 152.2 
L 560.901146 53.164081 
L 558.017286 53.164081 
z
" style="fill:#348abd;opacity:0.2;"/>
   </g>
   <g id="patch_131">
    <path clip-path="url(#pd1ba16e468)" d="M 561.622111 152.2 
L 564.505971 152.2 
L 564.505971 48.773782 
L 561.622111 48.773782 
z
" style="fill:#348abd;opacity:0.2;"/>
   </g>
   <g id="patch_132">
    <path clip-path="url(#pd1ba16e468)" d="M 565.226936 152.2 
L 568.110795 152.2 
L 568.110795 45.122901 
L 565.226936 45.122901 
z
" style="fill:#348abd;opacity:0.2;"/>
   </g>
   <g id="patch_133">
    <path clip-path="url(#pd1ba16e468)" d="M 568.83176 152.2 
L 571.71562 152.2 
L 571.71562 54.169229 
L 568.83176 54.169229 
z
" style="fill:#348abd;opacity:0.2;"/>
   </g>
   <g id="patch_134">
    <path clip-path="url(#pd1ba16e468)" d="M 572.436585 152.2 
L 575.320445 152.2 
L 575.320445 49.859803 
L 572.436585 49.859803 
z
" style="fill:#348abd;opacity:0.2;"/>
   </g>
   <g id="patch_135">
    <path clip-path="url(#pd1ba16e468)" d="M 576.04141 152.2 
L 578.92527 152.2 
L 578.92527 53.660879 
L 576.04141 53.660879 
z
" style="fill:#348abd;opacity:0.2;"/>
   </g>
   <g id="patch_136">
    <path clip-path="url(#pd1ba16e468)" d="M 579.646235 152.2 
L 582.530094 152.2 
L 582.530094 50.264173 
L 579.646235 50.264173 
z
" style="fill:#348abd;opacity:0.2;"/>
   </g>
   <g id="patch_137">
    <path clip-path="url(#pd1ba16e468)" d="M 583.251059 152.2 
L 586.134919 152.2 
L 586.134919 51.477282 
L 583.251059 51.477282 
z
" style="fill:#348abd;opacity:0.2;"/>
   </g>
   <g id="patch_138">
    <path clip-path="url(#pd1ba16e468)" d="M 586.855884 152.2 
L 589.739744 152.2 
L 589.739744 49.998444 
L 586.855884 49.998444 
z
" style="fill:#348abd;opacity:0.2;"/>
   </g>
   <g id="patch_139">
    <path clip-path="url(#pd1ba16e468)" d="M 590.460709 152.2 
L 593.344569 152.2 
L 593.344569 48.554267 
L 590.460709 48.554267 
z
" style="fill:#348abd;opacity:0.2;"/>
   </g>
   <g id="patch_140">
    <path clip-path="url(#pd1ba16e468)" d="M 594.065534 152.2 
L 596.949393 152.2 
L 596.949393 48.56582 
L 594.065534 48.56582 
z
" style="fill:#348abd;opacity:0.2;"/>
   </g>
   <g id="patch_141">
    <path clip-path="url(#pd1ba16e468)" d="M 597.670358 152.2 
L 600.554218 152.2 
L 600.554218 52.99078 
L 597.670358 52.99078 
z
" style="fill:#348abd;opacity:0.2;"/>
   </g>
   <g id="patch_142">
    <path clip-path="url(#pd1ba16e468)" d="M 601.275183 152.2 
L 604.159043 152.2 
L 604.159043 55.232144 
L 601.275183 55.232144 
z
" style="fill:#348abd;opacity:0.2;"/>
   </g>
   <g id="patch_143">
    <path clip-path="url(#pd1ba16e468)" d="M 604.880008 152.2 
L 607.763867 152.2 
L 607.763867 50.79563 
L 604.880008 50.79563 
z
" style="fill:#348abd;opacity:0.2;"/>
   </g>
   <g id="patch_144">
    <path clip-path="url(#pd1ba16e468)" d="M 608.484832 152.2 
L 611.368692 152.2 
L 611.368692 48.669801 
L 608.484832 48.669801 
z
" style="fill:#348abd;opacity:0.2;"/>
   </g>
   <g id="patch_145">
    <path clip-path="url(#pd1ba16e468)" d="M 612.089657 152.2 
L 614.973517 152.2 
L 614.973517 51.719904 
L 612.089657 51.719904 
z
" style="fill:#348abd;opacity:0.2;"/>
   </g>
   <g id="patch_146">
    <path clip-path="url(#pd1ba16e468)" d="M 615.694482 152.2 
L 618.578342 152.2 
L 618.578342 50.425921 
L 615.694482 50.425921 
z
" style="fill:#348abd;opacity:0.2;"/>
   </g>
   <g id="patch_147">
    <path clip-path="url(#pd1ba16e468)" d="M 619.299307 152.2 
L 622.183166 152.2 
L 622.183166 57.265546 
L 619.299307 57.265546 
z
" style="fill:#348abd;opacity:0.2;"/>
   </g>
   <g id="patch_148">
    <path clip-path="url(#pd1ba16e468)" d="M 622.904131 152.2 
L 625.787991 152.2 
L 625.787991 56.988264 
L 622.904131 56.988264 
z
" style="fill:#348abd;opacity:0.2;"/>
   </g>
   <g id="patch_149">
    <path clip-path="url(#pd1ba16e468)" d="M 626.508956 152.2 
L 629.392816 152.2 
L 629.392816 61.80604 
L 626.508956 61.80604 
z
" style="fill:#348abd;opacity:0.2;"/>
   </g>
   <g id="patch_150">
    <path clip-path="url(#pd1ba16e468)" d="M 630.113781 152.2 
L 632.997641 152.2 
L 632.997641 62.406818 
L 630.113781 62.406818 
z
" style="fill:#348abd;opacity:0.2;"/>
   </g>
   <g id="patch_151">
    <path clip-path="url(#pd1ba16e468)" d="M 633.718606 152.2 
L 636.602465 152.2 
L 636.602465 60.107687 
L 633.718606 60.107687 
z
" style="fill:#348abd;opacity:0.2;"/>
   </g>
   <g id="patch_152">
    <path clip-path="url(#pd1ba16e468)" d="M 637.32343 152.2 
L 640.20729 152.2 
L 640.20729 61.274582 
L 637.32343 61.274582 
z
" style="fill:#348abd;opacity:0.2;"/>
   </g>
   <g id="patch_153">
    <path clip-path="url(#pd1ba16e468)" d="M 640.928255 152.2 
L 643.812115 152.2 
L 643.812115 63.042256 
L 640.928255 63.042256 
z
" style="fill:#348abd;opacity:0.2;"/>
   </g>
   <g id="patch_154">
    <path clip-path="url(#pd1ba16e468)" d="M 644.53308 152.2 
L 647.41694 152.2 
L 647.41694 64.555754 
L 644.53308 64.555754 
z
" style="fill:#348abd;opacity:0.2;"/>
   </g>
   <g id="patch_155">
    <path clip-path="url(#pd1ba16e468)" d="M 648.137904 152.2 
L 651.021764 152.2 
L 651.021764 66.554496 
L 648.137904 66.554496 
z
" style="fill:#348abd;opacity:0.2;"/>
   </g>
   <g id="patch_156">
    <path clip-path="url(#pd1ba16e468)" d="M 651.742729 152.2 
L 654.626589 152.2 
L 654.626589 69.419744 
L 651.742729 69.419744 
z
" style="fill:#348abd;opacity:0.2;"/>
   </g>
   <g id="patch_157">
    <path clip-path="url(#pd1ba16e468)" d="M 655.347554 152.2 
L 658.231414 152.2 
L 658.231414 70.112949 
L 655.347554 70.112949 
z
" style="fill:#348abd;opacity:0.2;"/>
   </g>
   <g id="patch_158">
    <path clip-path="url(#pd1ba16e468)" d="M 658.952379 152.2 
L 661.836238 152.2 
L 661.836238 73.775383 
L 658.952379 73.775383 
z
" style="fill:#348abd;opacity:0.2;"/>
   </g>
   <g id="patch_159">
    <path clip-path="url(#pd1ba16e468)" d="M 662.557203 152.2 
L 665.441063 152.2 
L 665.441063 73.139945 
L 662.557203 73.139945 
z
" style="fill:#348abd;opacity:0.2;"/>
   </g>
   <g id="patch_160">
    <path clip-path="url(#pd1ba16e468)" d="M 666.162028 152.2 
L 669.045888 152.2 
L 669.045888 73.821597 
L 666.162028 73.821597 
z
" style="fill:#348abd;opacity:0.2;"/>
   </g>
   <g id="patch_161">
    <path clip-path="url(#pd1ba16e468)" d="M 669.766853 152.2 
L 672.650713 152.2 
L 672.650713 74.988492 
L 669.766853 74.988492 
z
" style="fill:#348abd;opacity:0.2;"/>
   </g>
   <g id="patch_162">
    <path clip-path="url(#pd1ba16e468)" d="M 673.371678 152.2 
L 676.255537 152.2 
L 676.255537 74.988492 
L 673.371678 74.988492 
z
" style="fill:#348abd;opacity:0.2;"/>
   </g>
   <g id="patch_163">
    <path clip-path="url(#pd1ba16e468)" d="M 676.976502 152.2 
L 679.860362 152.2 
L 679.860362 76.525097 
L 676.976502 76.525097 
z
" style="fill:#348abd;opacity:0.2;"/>
   </g>
   <g id="patch_164">
    <path clip-path="url(#pd1ba16e468)" d="M 680.581327 152.2 
L 683.465187 152.2 
L 683.465187 74.191306 
L 680.581327 74.191306 
z
" style="fill:#348abd;opacity:0.2;"/>
   </g>
   <g id="patch_165">
    <path clip-path="url(#pd1ba16e468)" d="M 684.186152 152.2 
L 687.070012 152.2 
L 687.070012 74.67655 
L 684.186152 74.67655 
z
" style="fill:#348abd;opacity:0.2;"/>
   </g>
   <g id="patch_166">
    <path clip-path="url(#pd1ba16e468)" d="M 687.790977 152.2 
L 690.674836 152.2 
L 690.674836 75.681698 
L 687.790977 75.681698 
z
" style="fill:#348abd;opacity:0.2;"/>
   </g>
   <g id="patch_167">
    <path clip-path="url(#pd1ba16e468)" d="M 691.395801 152.2 
L 694.279661 152.2 
L 694.279661 74.572569 
L 691.395801 74.572569 
z
" style="fill:#348abd;opacity:0.2;"/>
   </g>
   <g id="patch_168">
    <path clip-path="url(#pd1ba16e468)" d="M 695.000626 152.2 
L 697.884486 152.2 
L 697.884486 76.305582 
L 695.000626 76.305582 
z
" style="fill:#348abd;opacity:0.2;"/>
   </g>
   <g id="patch_169">
    <path clip-path="url(#pd1ba16e468)" d="M 698.605451 152.2 
L 701.48931 152.2 
L 701.48931 78.685587 
L 698.605451 78.685587 
z
" style="fill:#348abd;opacity:0.2;"/>
   </g>
   <g id="patch_170">
    <path clip-path="url(#pd1ba16e468)" d="M 702.210275 152.2 
L 705.094135 152.2 
L 705.094135 76.709952 
L 702.210275 76.709952 
z
" style="fill:#348abd;opacity:0.2;"/>
   </g>
   <g id="patch_171">
    <path clip-path="url(#pd1ba16e468)" d="M 705.8151 152.2 
L 708.69896 152.2 
L 708.69896 77.206749 
L 705.8151 77.206749 
z
" style="fill:#348abd;opacity:0.2;"/>
   </g>
   <g id="patch_172">
    <path clip-path="url(#pd1ba16e468)" d="M 709.419925 152.2 
L 712.303785 152.2 
L 712.303785 75.681698 
L 709.419925 75.681698 
z
" style="fill:#348abd;opacity:0.2;"/>
   </g>
   <g id="patch_173">
    <path clip-path="url(#pd1ba16e468)" d="M 713.02475 152.2 
L 715.908609 152.2 
L 715.908609 76.109174 
L 713.02475 76.109174 
z
" style="fill:#348abd;opacity:0.2;"/>
   </g>
   <g id="patch_174">
    <path clip-path="url(#pd1ba16e468)" d="M 716.629574 152.2 
L 719.513434 152.2 
L 719.513434 76.097621 
L 716.629574 76.097621 
z
" style="fill:#348abd;opacity:0.2;"/>
   </g>
   <g id="patch_175">
    <path clip-path="url(#pd1ba16e468)" d="M 720.234399 152.2 
L 723.118259 152.2 
L 723.118259 76.975681 
L 720.234399 76.975681 
z
" style="fill:#348abd;opacity:0.2;"/>
   </g>
   <g id="patch_176">
    <path clip-path="url(#pd1ba16e468)" d="M 723.839224 152.2 
L 726.723084 152.2 
L 726.723084 80.106658 
L 723.839224 80.106658 
z
" style="fill:#348abd;opacity:0.2;"/>
   </g>
   <g id="patch_177">
    <path clip-path="url(#pd1ba16e468)" d="M 727.444049 152.2 
L 730.327908 152.2 
L 730.327908 78.142576 
L 727.444049 78.142576 
z
" style="fill:#348abd;opacity:0.2;"/>
   </g>
   <g id="patch_178">
    <path clip-path="url(#pd1ba16e468)" d="M 731.048873 152.2 
L 733.932733 152.2 
L 733.932733 78.084809 
L 731.048873 78.084809 
z
" style="fill:#348abd;opacity:0.2;"/>
   </g>
   <g id="patch_179">
    <path clip-path="url(#pd1ba16e468)" d="M 734.653698 152.2 
L 737.537558 152.2 
L 737.537558 78.385198 
L 734.653698 78.385198 
z
" style="fill:#348abd;opacity:0.2;"/>
   </g>
   <g id="patch_180">
    <path clip-path="url(#pd1ba16e468)" d="M 738.258523 152.2 
L 741.142383 152.2 
L 741.142383 80.407046 
L 738.258523 80.407046 
z
" style="fill:#348abd;opacity:0.2;"/>
   </g>
   <g id="patch_181">
    <path clip-path="url(#pd1ba16e468)" d="M 741.863347 152.2 
L 744.747207 152.2 
L 744.747207 81.77035 
L 741.863347 81.77035 
z
" style="fill:#348abd;opacity:0.2;"/>
   </g>
   <g id="patch_182">
    <path clip-path="url(#pd1ba16e468)" d="M 745.468172 152.2 
L 748.352032 152.2 
L 748.352032 84.023267 
L 745.468172 84.023267 
z
" style="fill:#348abd;opacity:0.2;"/>
   </g>
   <g id="patch_183">
    <path clip-path="url(#pd1ba16e468)" d="M 749.072997 152.2 
L 751.956857 152.2 
L 751.956857 84.866667 
L 749.072997 84.866667 
z
" style="fill:#348abd;opacity:0.2;"/>
   </g>
   <g id="patch_184">
    <path clip-path="url(#pd1ba16e468)" d="M 752.677822 152.2 
L 755.561681 152.2 
L 755.561681 84.612491 
L 752.677822 84.612491 
z
" style="fill:#348abd;opacity:0.2;"/>
   </g>
   <g id="patch_185">
    <path clip-path="url(#pd1ba16e468)" d="M 756.282646 152.2 
L 759.166506 152.2 
L 759.166506 84.84356 
L 756.282646 84.84356 
z
" style="fill:#348abd;opacity:0.2;"/>
   </g>
   <g id="patch_186">
    <path clip-path="url(#pd1ba16e468)" d="M 759.887471 152.2 
L 762.771331 152.2 
L 762.771331 85.432784 
L 759.887471 85.432784 
z
" style="fill:#348abd;opacity:0.2;"/>
   </g>
   <g id="patch_187">
    <path clip-path="url(#pd1ba16e468)" d="M 763.492296 152.2 
L 766.376156 152.2 
L 766.376156 84.8089 
L 763.492296 84.8089 
z
" style="fill:#348abd;opacity:0.2;"/>
   </g>
   <g id="patch_188">
    <path clip-path="url(#pd1ba16e468)" d="M 767.097121 152.2 
L 769.98098 152.2 
L 769.98098 85.871814 
L 767.097121 85.871814 
z
" style="fill:#348abd;opacity:0.2;"/>
   </g>
   <g id="patch_189">
    <path clip-path="url(#pd1ba16e468)" d="M 770.701945 152.2 
L 773.585805 152.2 
L 773.585805 87.419973 
L 770.701945 87.419973 
z
" style="fill:#348abd;opacity:0.2;"/>
   </g>
   <g id="patch_190">
    <path clip-path="url(#pd1ba16e468)" d="M 774.30677 152.2 
L 777.19063 152.2 
L 777.19063 90.042599 
L 774.30677 90.042599 
z
" style="fill:#348abd;opacity:0.2;"/>
   </g>
   <g id="patch_191">
    <path clip-path="url(#pd1ba16e468)" d="M 777.911595 152.2 
L 780.795455 152.2 
L 780.795455 89.245413 
L 777.911595 89.245413 
z
" style="fill:#348abd;opacity:0.2;"/>
   </g>
   <g id="line2d_36">
    <path clip-path="url(#pd1ba16e468)" d="M 101.646475 152.2 
L 281.887712 152.089824 
L 299.911836 151.815799 
L 310.72631 151.548791 
L 317.935959 151.221081 
L 325.145609 150.717715 
L 332.355258 149.964435 
L 339.564908 148.83798 
L 350.379382 146.767203 
L 357.589031 145.124273 
L 361.193856 144.139181 
L 364.798681 142.969899 
L 368.403505 141.639094 
L 372.00833 140.059605 
L 375.613155 138.184595 
L 379.21798 136.031941 
L 382.822804 133.523465 
L 386.427629 130.741027 
L 390.032454 127.649069 
L 393.637279 124.176494 
L 397.242103 120.172028 
L 400.846928 115.813786 
L 408.056577 106.707546 
L 411.661402 102.669601 
L 415.266227 99.091644 
L 418.871052 96.094919 
L 422.475876 93.552481 
L 426.080701 91.33142 
L 433.290351 87.594649 
L 436.895175 85.770573 
L 440.5 83.666455 
L 444.104825 80.847875 
L 447.709649 77.14685 
L 451.314474 72.285014 
L 454.919299 66.449979 
L 458.524124 59.961202 
L 465.733773 46.361047 
L 469.338598 40.253123 
L 472.943423 35.252095 
L 476.548247 31.546639 
L 480.153072 29.094829 
L 483.757897 27.630309 
L 487.362721 26.931217 
L 490.967546 26.834746 
L 494.572371 27.446828 
L 498.177196 28.652379 
L 501.78202 30.518929 
L 505.386845 32.911301 
L 508.99167 35.60177 
L 512.596495 38.45815 
L 516.201319 41.114509 
L 519.806144 43.366348 
L 523.410969 45.206279 
L 527.015794 46.581057 
L 530.620618 47.623726 
L 534.225443 48.419632 
L 548.644742 50.790316 
L 552.249567 51.202134 
L 555.854391 51.41613 
L 563.064041 51.491176 
L 577.48334 50.74716 
L 584.692989 50.728692 
L 602.717113 51.091224 
L 606.321938 51.42364 
L 609.926762 51.969313 
L 613.531587 52.789827 
L 617.136412 53.806582 
L 620.741237 55.043333 
L 627.950886 57.907397 
L 635.160535 60.788349 
L 645.97501 64.719863 
L 653.184659 67.739681 
L 660.394309 70.786346 
L 663.999133 72.071927 
L 667.603958 73.101235 
L 671.208783 73.886863 
L 674.813607 74.406168 
L 682.023257 75.029209 
L 707.25703 76.591796 
L 718.071504 77.098116 
L 721.676329 77.338565 
L 725.281154 77.694302 
L 728.885978 78.201759 
L 732.490803 78.852576 
L 739.700453 80.463977 
L 750.514927 83.081575 
L 757.724576 84.56638 
L 764.934226 85.790909 
L 775.7487 87.316765 
L 779.353525 87.597978 
L 779.353525 87.597978 
" style="fill:none;stroke:#348abd;stroke-linecap:square;stroke-width:3;"/>
   </g>
   <g id="line2d_37">
    <defs>
     <path d="M 0 3 
C 0.795609 3 1.55874 2.683901 2.12132 2.12132 
C 2.683901 1.55874 3 0.795609 3 0 
C 3 -0.795609 2.683901 -1.55874 2.12132 -2.12132 
C 1.55874 -2.683901 0.795609 -3 0 -3 
C -0.795609 -3 -1.55874 -2.683901 -2.12132 -2.12132 
C -2.683901 -1.55874 -3 -0.795609 -3 0 
C -3 0.795609 -2.683901 1.55874 -2.12132 2.12132 
C -1.55874 2.683901 -0.795609 3 0 3 
z
" id="mb9572bab16" style="stroke:#e24a33;stroke-opacity:0.001;"/>
    </defs>
    <g clip-path="url(#pd1ba16e468)">
     <use style="fill:#e24a33;fill-opacity:0.001;stroke:#e24a33;stroke-opacity:0.001;" x="440.5" xlink:href="#mb9572bab16" y="81.5"/>
    </g>
   </g>
   <g id="patch_192">
    <path d="M 66.175 152.2 
L 66.175 10.8 
" style="fill:none;stroke:#ffffff;stroke-linecap:square;stroke-linejoin:miter;"/>
   </g>
   <g id="patch_193">
    <path d="M 814.825 152.2 
L 814.825 10.8 
" style="fill:none;stroke:#ffffff;stroke-linecap:square;stroke-linejoin:miter;"/>
   </g>
   <g id="patch_194">
    <path d="M 66.175 152.2 
L 814.825 152.2 
" style="fill:none;stroke:#ffffff;stroke-linecap:square;stroke-linejoin:miter;"/>
   </g>
   <g id="patch_195">
    <path d="M 66.175 10.8 
L 814.825 10.8 
" style="fill:none;stroke:#ffffff;stroke-linecap:square;stroke-linejoin:miter;"/>
   </g>
   <g id="legend_1">
    <g id="patch_196">
     <path d="M 73.175 62.834375 
L 266.103125 62.834375 
Q 268.103125 62.834375 268.103125 60.834375 
L 268.103125 17.8 
Q 268.103125 15.8 266.103125 15.8 
L 73.175 15.8 
Q 71.175 15.8 71.175 17.8 
L 71.175 60.834375 
Q 71.175 62.834375 73.175 62.834375 
z
" style="fill:#e5e5e5;opacity:0.8;stroke:#cccccc;stroke-linejoin:miter;stroke-width:0.5;"/>
    </g>
    <g id="patch_197">
     <path d="M 75.175 27.398438 
L 95.175 27.398438 
L 95.175 20.398438 
L 75.175 20.398438 
z
" style="fill:#348abd;opacity:0.2;"/>
    </g>
    <g id="text_23">
     <!-- Russia new cases -->
     <defs>
      <path d="M 44.390625 34.1875 
Q 47.5625 33.109375 50.5625 29.59375 
Q 53.5625 26.078125 56.59375 19.921875 
L 66.609375 0 
L 56 0 
L 46.6875 18.703125 
Q 43.0625 26.03125 39.671875 28.421875 
Q 36.28125 30.8125 30.421875 30.8125 
L 19.671875 30.8125 
L 19.671875 0 
L 9.8125 0 
L 9.8125 72.90625 
L 32.078125 72.90625 
Q 44.578125 72.90625 50.734375 67.671875 
Q 56.890625 62.453125 56.890625 51.90625 
Q 56.890625 45.015625 53.6875 40.46875 
Q 50.484375 35.9375 44.390625 34.1875 
z
M 19.671875 64.796875 
L 19.671875 38.921875 
L 32.078125 38.921875 
Q 39.203125 38.921875 42.84375 42.21875 
Q 46.484375 45.515625 46.484375 51.90625 
Q 46.484375 58.296875 42.84375 61.546875 
Q 39.203125 64.796875 32.078125 64.796875 
z
" id="DejaVuSans-82"/>
      <path d="M 8.5 21.578125 
L 8.5 54.6875 
L 17.484375 54.6875 
L 17.484375 21.921875 
Q 17.484375 14.15625 20.5 10.265625 
Q 23.53125 6.390625 29.59375 6.390625 
Q 36.859375 6.390625 41.078125 11.03125 
Q 45.3125 15.671875 45.3125 23.6875 
L 45.3125 54.6875 
L 54.296875 54.6875 
L 54.296875 0 
L 45.3125 0 
L 45.3125 8.40625 
Q 42.046875 3.421875 37.71875 1 
Q 33.40625 -1.421875 27.6875 -1.421875 
Q 18.265625 -1.421875 13.375 4.4375 
Q 8.5 10.296875 8.5 21.578125 
z
M 31.109375 56 
z
" id="DejaVuSans-117"/>
      <path d="M 44.28125 53.078125 
L 44.28125 44.578125 
Q 40.484375 46.53125 36.375 47.5 
Q 32.28125 48.484375 27.875 48.484375 
Q 21.1875 48.484375 17.84375 46.4375 
Q 14.5 44.390625 14.5 40.28125 
Q 14.5 37.15625 16.890625 35.375 
Q 19.28125 33.59375 26.515625 31.984375 
L 29.59375 31.296875 
Q 39.15625 29.25 43.1875 25.515625 
Q 47.21875 21.78125 47.21875 15.09375 
Q 47.21875 7.46875 41.1875 3.015625 
Q 35.15625 -1.421875 24.609375 -1.421875 
Q 20.21875 -1.421875 15.453125 -0.5625 
Q 10.6875 0.296875 5.421875 2 
L 5.421875 11.28125 
Q 10.40625 8.6875 15.234375 7.390625 
Q 20.0625 6.109375 24.8125 6.109375 
Q 31.15625 6.109375 34.5625 8.28125 
Q 37.984375 10.453125 37.984375 14.40625 
Q 37.984375 18.0625 35.515625 20.015625 
Q 33.0625 21.96875 24.703125 23.78125 
L 21.578125 24.515625 
Q 13.234375 26.265625 9.515625 29.90625 
Q 5.8125 33.546875 5.8125 39.890625 
Q 5.8125 47.609375 11.28125 51.796875 
Q 16.75 56 26.8125 56 
Q 31.78125 56 36.171875 55.265625 
Q 40.578125 54.546875 44.28125 53.078125 
z
" id="DejaVuSans-115"/>
      <path d="M 4.203125 54.6875 
L 13.1875 54.6875 
L 24.421875 12.015625 
L 35.59375 54.6875 
L 46.1875 54.6875 
L 57.421875 12.015625 
L 68.609375 54.6875 
L 77.59375 54.6875 
L 63.28125 0 
L 52.6875 0 
L 40.921875 44.828125 
L 29.109375 0 
L 18.5 0 
z
" id="DejaVuSans-119"/>
     </defs>
     <g transform="translate(103.175 27.398438)scale(0.1 -0.1)">
      <use xlink:href="#DejaVuSans-82"/>
      <use x="64.982422" xlink:href="#DejaVuSans-117"/>
      <use x="128.361328" xlink:href="#DejaVuSans-115"/>
      <use x="180.460938" xlink:href="#DejaVuSans-115"/>
      <use x="232.560547" xlink:href="#DejaVuSans-105"/>
      <use x="260.34375" xlink:href="#DejaVuSans-97"/>
      <use x="321.623047" xlink:href="#DejaVuSans-32"/>
      <use x="353.410156" xlink:href="#DejaVuSans-110"/>
      <use x="416.789062" xlink:href="#DejaVuSans-101"/>
      <use x="478.3125" xlink:href="#DejaVuSans-119"/>
      <use x="560.099609" xlink:href="#DejaVuSans-32"/>
      <use x="591.886719" xlink:href="#DejaVuSans-99"/>
      <use x="646.867188" xlink:href="#DejaVuSans-97"/>
      <use x="708.146484" xlink:href="#DejaVuSans-115"/>
      <use x="760.246094" xlink:href="#DejaVuSans-101"/>
      <use x="821.769531" xlink:href="#DejaVuSans-115"/>
     </g>
    </g>
    <g id="line2d_38">
     <path d="M 75.175 38.576563 
L 95.175 38.576563 
" style="fill:none;stroke:#348abd;stroke-linecap:square;stroke-width:3;"/>
    </g>
    <g id="line2d_39"/>
    <g id="text_24">
     <!-- Russia new cases (rolling mean) -->
     <defs>
      <path d="M 31 75.875 
Q 24.46875 64.65625 21.28125 53.65625 
Q 18.109375 42.671875 18.109375 31.390625 
Q 18.109375 20.125 21.3125 9.0625 
Q 24.515625 -2 31 -13.1875 
L 23.1875 -13.1875 
Q 15.875 -1.703125 12.234375 9.375 
Q 8.59375 20.453125 8.59375 31.390625 
Q 8.59375 42.28125 12.203125 53.3125 
Q 15.828125 64.359375 23.1875 75.875 
z
" id="DejaVuSans-40"/>
      <path d="M 41.109375 46.296875 
Q 39.59375 47.171875 37.8125 47.578125 
Q 36.03125 48 33.890625 48 
Q 26.265625 48 22.1875 43.046875 
Q 18.109375 38.09375 18.109375 28.8125 
L 18.109375 0 
L 9.078125 0 
L 9.078125 54.6875 
L 18.109375 54.6875 
L 18.109375 46.1875 
Q 20.953125 51.171875 25.484375 53.578125 
Q 30.03125 56 36.53125 56 
Q 37.453125 56 38.578125 55.875 
Q 39.703125 55.765625 41.0625 55.515625 
z
" id="DejaVuSans-114"/>
      <path d="M 30.609375 48.390625 
Q 23.390625 48.390625 19.1875 42.75 
Q 14.984375 37.109375 14.984375 27.296875 
Q 14.984375 17.484375 19.15625 11.84375 
Q 23.34375 6.203125 30.609375 6.203125 
Q 37.796875 6.203125 41.984375 11.859375 
Q 46.1875 17.53125 46.1875 27.296875 
Q 46.1875 37.015625 41.984375 42.703125 
Q 37.796875 48.390625 30.609375 48.390625 
z
M 30.609375 56 
Q 42.328125 56 49.015625 48.375 
Q 55.71875 40.765625 55.71875 27.296875 
Q 55.71875 13.875 49.015625 6.21875 
Q 42.328125 -1.421875 30.609375 -1.421875 
Q 18.84375 -1.421875 12.171875 6.21875 
Q 5.515625 13.875 5.515625 27.296875 
Q 5.515625 40.765625 12.171875 48.375 
Q 18.84375 56 30.609375 56 
z
" id="DejaVuSans-111"/>
      <path d="M 52 44.1875 
Q 55.375 50.25 60.0625 53.125 
Q 64.75 56 71.09375 56 
Q 79.640625 56 84.28125 50.015625 
Q 88.921875 44.046875 88.921875 33.015625 
L 88.921875 0 
L 79.890625 0 
L 79.890625 32.71875 
Q 79.890625 40.578125 77.09375 44.375 
Q 74.3125 48.1875 68.609375 48.1875 
Q 61.625 48.1875 57.5625 43.546875 
Q 53.515625 38.921875 53.515625 30.90625 
L 53.515625 0 
L 44.484375 0 
L 44.484375 32.71875 
Q 44.484375 40.625 41.703125 44.40625 
Q 38.921875 48.1875 33.109375 48.1875 
Q 26.21875 48.1875 22.15625 43.53125 
Q 18.109375 38.875 18.109375 30.90625 
L 18.109375 0 
L 9.078125 0 
L 9.078125 54.6875 
L 18.109375 54.6875 
L 18.109375 46.1875 
Q 21.1875 51.21875 25.484375 53.609375 
Q 29.78125 56 35.6875 56 
Q 41.65625 56 45.828125 52.96875 
Q 50 49.953125 52 44.1875 
z
" id="DejaVuSans-109"/>
      <path d="M 8.015625 75.875 
L 15.828125 75.875 
Q 23.140625 64.359375 26.78125 53.3125 
Q 30.421875 42.28125 30.421875 31.390625 
Q 30.421875 20.453125 26.78125 9.375 
Q 23.140625 -1.703125 15.828125 -13.1875 
L 8.015625 -13.1875 
Q 14.5 -2 17.703125 9.0625 
Q 20.90625 20.125 20.90625 31.390625 
Q 20.90625 42.671875 17.703125 53.65625 
Q 14.5 64.65625 8.015625 75.875 
z
" id="DejaVuSans-41"/>
     </defs>
     <g transform="translate(103.175 42.076563)scale(0.1 -0.1)">
      <use xlink:href="#DejaVuSans-82"/>
      <use x="64.982422" xlink:href="#DejaVuSans-117"/>
      <use x="128.361328" xlink:href="#DejaVuSans-115"/>
      <use x="180.460938" xlink:href="#DejaVuSans-115"/>
      <use x="232.560547" xlink:href="#DejaVuSans-105"/>
      <use x="260.34375" xlink:href="#DejaVuSans-97"/>
      <use x="321.623047" xlink:href="#DejaVuSans-32"/>
      <use x="353.410156" xlink:href="#DejaVuSans-110"/>
      <use x="416.789062" xlink:href="#DejaVuSans-101"/>
      <use x="478.3125" xlink:href="#DejaVuSans-119"/>
      <use x="560.099609" xlink:href="#DejaVuSans-32"/>
      <use x="591.886719" xlink:href="#DejaVuSans-99"/>
      <use x="646.867188" xlink:href="#DejaVuSans-97"/>
      <use x="708.146484" xlink:href="#DejaVuSans-115"/>
      <use x="760.246094" xlink:href="#DejaVuSans-101"/>
      <use x="821.769531" xlink:href="#DejaVuSans-115"/>
      <use x="873.869141" xlink:href="#DejaVuSans-32"/>
      <use x="905.65625" xlink:href="#DejaVuSans-40"/>
      <use x="944.669922" xlink:href="#DejaVuSans-114"/>
      <use x="983.533203" xlink:href="#DejaVuSans-111"/>
      <use x="1044.714844" xlink:href="#DejaVuSans-108"/>
      <use x="1072.498047" xlink:href="#DejaVuSans-108"/>
      <use x="1100.28125" xlink:href="#DejaVuSans-105"/>
      <use x="1128.064453" xlink:href="#DejaVuSans-110"/>
      <use x="1191.443359" xlink:href="#DejaVuSans-103"/>
      <use x="1254.919922" xlink:href="#DejaVuSans-32"/>
      <use x="1286.707031" xlink:href="#DejaVuSans-109"/>
      <use x="1384.119141" xlink:href="#DejaVuSans-101"/>
      <use x="1445.642578" xlink:href="#DejaVuSans-97"/>
      <use x="1506.921875" xlink:href="#DejaVuSans-110"/>
      <use x="1570.300781" xlink:href="#DejaVuSans-41"/>
     </g>
    </g>
    <g id="line2d_40"/>
    <g id="line2d_41">
     <g>
      <use style="fill:#e24a33;fill-opacity:0.001;stroke:#e24a33;stroke-opacity:0.001;" x="85.175" xlink:href="#mb9572bab16" y="53.254688"/>
     </g>
    </g>
    <g id="text_25">
     <!-- [last updated: 30/07/2020] -->
     <defs>
      <path d="M 8.59375 75.984375 
L 29.296875 75.984375 
L 29.296875 69 
L 17.578125 69 
L 17.578125 -6.203125 
L 29.296875 -6.203125 
L 29.296875 -13.1875 
L 8.59375 -13.1875 
z
" id="DejaVuSans-91"/>
      <path d="M 18.3125 70.21875 
L 18.3125 54.6875 
L 36.8125 54.6875 
L 36.8125 47.703125 
L 18.3125 47.703125 
L 18.3125 18.015625 
Q 18.3125 11.328125 20.140625 9.421875 
Q 21.96875 7.515625 27.59375 7.515625 
L 36.8125 7.515625 
L 36.8125 0 
L 27.59375 0 
Q 17.1875 0 13.234375 3.875 
Q 9.28125 7.765625 9.28125 18.015625 
L 9.28125 47.703125 
L 2.6875 47.703125 
L 2.6875 54.6875 
L 9.28125 54.6875 
L 9.28125 70.21875 
z
" id="DejaVuSans-116"/>
      <path d="M 18.109375 8.203125 
L 18.109375 -20.796875 
L 9.078125 -20.796875 
L 9.078125 54.6875 
L 18.109375 54.6875 
L 18.109375 46.390625 
Q 20.953125 51.265625 25.265625 53.625 
Q 29.59375 56 35.59375 56 
Q 45.5625 56 51.78125 48.09375 
Q 58.015625 40.1875 58.015625 27.296875 
Q 58.015625 14.40625 51.78125 6.484375 
Q 45.5625 -1.421875 35.59375 -1.421875 
Q 29.59375 -1.421875 25.265625 0.953125 
Q 20.953125 3.328125 18.109375 8.203125 
z
M 48.6875 27.296875 
Q 48.6875 37.203125 44.609375 42.84375 
Q 40.53125 48.484375 33.40625 48.484375 
Q 26.265625 48.484375 22.1875 42.84375 
Q 18.109375 37.203125 18.109375 27.296875 
Q 18.109375 17.390625 22.1875 11.75 
Q 26.265625 6.109375 33.40625 6.109375 
Q 40.53125 6.109375 44.609375 11.75 
Q 48.6875 17.390625 48.6875 27.296875 
z
" id="DejaVuSans-112"/>
      <path d="M 11.71875 12.40625 
L 22.015625 12.40625 
L 22.015625 0 
L 11.71875 0 
z
M 11.71875 51.703125 
L 22.015625 51.703125 
L 22.015625 39.3125 
L 11.71875 39.3125 
z
" id="DejaVuSans-58"/>
      <path d="M 25.390625 72.90625 
L 33.6875 72.90625 
L 8.296875 -9.28125 
L 0 -9.28125 
z
" id="DejaVuSans-47"/>
      <path d="M 30.421875 75.984375 
L 30.421875 -13.1875 
L 9.71875 -13.1875 
L 9.71875 -6.203125 
L 21.390625 -6.203125 
L 21.390625 69 
L 9.71875 69 
L 9.71875 75.984375 
z
" id="DejaVuSans-93"/>
     </defs>
     <g transform="translate(103.175 56.754688)scale(0.1 -0.1)">
      <use xlink:href="#DejaVuSans-91"/>
      <use x="39.013672" xlink:href="#DejaVuSans-108"/>
      <use x="66.796875" xlink:href="#DejaVuSans-97"/>
      <use x="128.076172" xlink:href="#DejaVuSans-115"/>
      <use x="180.175781" xlink:href="#DejaVuSans-116"/>
      <use x="219.384766" xlink:href="#DejaVuSans-32"/>
      <use x="251.171875" xlink:href="#DejaVuSans-117"/>
      <use x="314.550781" xlink:href="#DejaVuSans-112"/>
      <use x="378.027344" xlink:href="#DejaVuSans-100"/>
      <use x="441.503906" xlink:href="#DejaVuSans-97"/>
      <use x="502.783203" xlink:href="#DejaVuSans-116"/>
      <use x="541.992188" xlink:href="#DejaVuSans-101"/>
      <use x="603.515625" xlink:href="#DejaVuSans-100"/>
      <use x="666.992188" xlink:href="#DejaVuSans-58"/>
      <use x="700.683594" xlink:href="#DejaVuSans-32"/>
      <use x="732.470703" xlink:href="#DejaVuSans-51"/>
      <use x="796.09375" xlink:href="#DejaVuSans-48"/>
      <use x="859.716797" xlink:href="#DejaVuSans-47"/>
      <use x="893.408203" xlink:href="#DejaVuSans-48"/>
      <use x="957.03125" xlink:href="#DejaVuSans-55"/>
      <use x="1020.654297" xlink:href="#DejaVuSans-47"/>
      <use x="1054.345703" xlink:href="#DejaVuSans-50"/>
      <use x="1117.96875" xlink:href="#DejaVuSans-48"/>
      <use x="1181.591797" xlink:href="#DejaVuSans-50"/>
      <use x="1245.214844" xlink:href="#DejaVuSans-48"/>
      <use x="1308.837891" xlink:href="#DejaVuSans-93"/>
     </g>
    </g>
   </g>
  </g>
 </g>
 <defs>
  <clipPath id="pd1ba16e468">
   <rect height="141.4" width="748.65" x="66.175" y="10.8"/>
  </clipPath>
 </defs>
</svg>
