<?xml version="1.0" encoding="utf-8" standalone="no"?>
<!DOCTYPE svg PUBLIC "-//W3C//DTD SVG 1.1//EN"
  "http://www.w3.org/Graphics/SVG/1.1/DTD/svg11.dtd">
<!-- Created with matplotlib (https://matplotlib.org/) -->
<svg height="432pt" version="1.1" viewBox="0 0 720 432" width="720pt" xmlns="http://www.w3.org/2000/svg" xmlns:xlink="http://www.w3.org/1999/xlink">
 <metadata>
  <rdf:RDF xmlns:cc="http://creativecommons.org/ns#" xmlns:dc="http://purl.org/dc/elements/1.1/" xmlns:rdf="http://www.w3.org/1999/02/22-rdf-syntax-ns#">
   <cc:Work>
    <dc:type rdf:resource="http://purl.org/dc/dcmitype/StillImage"/>
    <dc:date>2021-02-13T22:48:36.402349</dc:date>
    <dc:format>image/svg+xml</dc:format>
    <dc:creator>
     <cc:Agent>
      <dc:title>Matplotlib v3.3.4, https://matplotlib.org/</dc:title>
     </cc:Agent>
    </dc:creator>
   </cc:Work>
  </rdf:RDF>
 </metadata>
 <defs>
  <style type="text/css">*{stroke-linecap:butt;stroke-linejoin:round;}</style>
 </defs>
 <g id="figure_1">
  <g id="patch_1">
   <path d="M 0 432 
L 720 432 
L 720 0 
L 0 0 
z
" style="fill:#ffffff;"/>
  </g>
  <g id="axes_1">
   <g id="patch_2">
    <path d="M 90 378 
L 648 378 
L 648 229.745455 
L 90 229.745455 
z
" style="fill:#e5e5e5;"/>
   </g>
   <g id="matplotlib.axis_1">
    <g id="xtick_1">
     <g id="line2d_1">
      <path clip-path="url(#pee59e76592)" d="M 91.50709 378 
L 91.50709 229.745455 
" style="fill:none;stroke:#ffffff;stroke-linecap:square;stroke-width:0.8;"/>
     </g>
     <g id="line2d_2">
      <defs>
       <path d="M 0 0 
L 0 3.5 
" id="m3c0776bba2" style="stroke:#555555;stroke-width:0.8;"/>
      </defs>
      <g>
       <use style="fill:#555555;stroke:#555555;stroke-width:0.8;" x="91.50709" xlink:href="#m3c0776bba2" y="378"/>
      </g>
     </g>
     <g id="text_1">
      <text style="fill:#555555;font-family:DejaVu Sans;font-size:10px;font-stretch:normal;font-style:normal;font-weight:normal;text-anchor:middle;" transform="rotate(-0, 91.50709, 392.598437)" x="91.50709" y="392.598437">0</text>
     </g>
    </g>
    <g id="xtick_2">
     <g id="line2d_3">
      <path clip-path="url(#pee59e76592)" d="M 166.86158 378 
L 166.86158 229.745455 
" style="fill:none;stroke:#ffffff;stroke-linecap:square;stroke-width:0.8;"/>
     </g>
     <g id="line2d_4">
      <g>
       <use style="fill:#555555;stroke:#555555;stroke-width:0.8;" x="166.86158" xlink:href="#m3c0776bba2" y="378"/>
      </g>
     </g>
     <g id="text_2">
      <text style="fill:#555555;font-family:DejaVu Sans;font-size:10px;font-stretch:normal;font-style:normal;font-weight:normal;text-anchor:middle;" transform="rotate(-0, 166.86158, 392.598437)" x="166.86158" y="392.598437">50</text>
     </g>
    </g>
    <g id="xtick_3">
     <g id="line2d_5">
      <path clip-path="url(#pee59e76592)" d="M 242.21607 378 
L 242.21607 229.745455 
" style="fill:none;stroke:#ffffff;stroke-linecap:square;stroke-width:0.8;"/>
     </g>
     <g id="line2d_6">
      <g>
       <use style="fill:#555555;stroke:#555555;stroke-width:0.8;" x="242.21607" xlink:href="#m3c0776bba2" y="378"/>
      </g>
     </g>
     <g id="text_3">
      <text style="fill:#555555;font-family:DejaVu Sans;font-size:10px;font-stretch:normal;font-style:normal;font-weight:normal;text-anchor:middle;" transform="rotate(-0, 242.21607, 392.598437)" x="242.21607" y="392.598437">100</text>
     </g>
    </g>
    <g id="xtick_4">
     <g id="line2d_7">
      <path clip-path="url(#pee59e76592)" d="M 317.57056 378 
L 317.57056 229.745455 
" style="fill:none;stroke:#ffffff;stroke-linecap:square;stroke-width:0.8;"/>
     </g>
     <g id="line2d_8">
      <g>
       <use style="fill:#555555;stroke:#555555;stroke-width:0.8;" x="317.57056" xlink:href="#m3c0776bba2" y="378"/>
      </g>
     </g>
     <g id="text_4">
      <text style="fill:#555555;font-family:DejaVu Sans;font-size:10px;font-stretch:normal;font-style:normal;font-weight:normal;text-anchor:middle;" transform="rotate(-0, 317.57056, 392.598437)" x="317.57056" y="392.598437">150</text>
     </g>
    </g>
    <g id="xtick_5">
     <g id="line2d_9">
      <path clip-path="url(#pee59e76592)" d="M 392.925051 378 
L 392.925051 229.745455 
" style="fill:none;stroke:#ffffff;stroke-linecap:square;stroke-width:0.8;"/>
     </g>
     <g id="line2d_10">
      <g>
       <use style="fill:#555555;stroke:#555555;stroke-width:0.8;" x="392.925051" xlink:href="#m3c0776bba2" y="378"/>
      </g>
     </g>
     <g id="text_5">
      <text style="fill:#555555;font-family:DejaVu Sans;font-size:10px;font-stretch:normal;font-style:normal;font-weight:normal;text-anchor:middle;" transform="rotate(-0, 392.925051, 392.598437)" x="392.925051" y="392.598437">200</text>
     </g>
    </g>
    <g id="xtick_6">
     <g id="line2d_11">
      <path clip-path="url(#pee59e76592)" d="M 468.279541 378 
L 468.279541 229.745455 
" style="fill:none;stroke:#ffffff;stroke-linecap:square;stroke-width:0.8;"/>
     </g>
     <g id="line2d_12">
      <g>
       <use style="fill:#555555;stroke:#555555;stroke-width:0.8;" x="468.279541" xlink:href="#m3c0776bba2" y="378"/>
      </g>
     </g>
     <g id="text_6">
      <text style="fill:#555555;font-family:DejaVu Sans;font-size:10px;font-stretch:normal;font-style:normal;font-weight:normal;text-anchor:middle;" transform="rotate(-0, 468.279541, 392.598437)" x="468.279541" y="392.598437">250</text>
     </g>
    </g>
    <g id="xtick_7">
     <g id="line2d_13">
      <path clip-path="url(#pee59e76592)" d="M 543.634031 378 
L 543.634031 229.745455 
" style="fill:none;stroke:#ffffff;stroke-linecap:square;stroke-width:0.8;"/>
     </g>
     <g id="line2d_14">
      <g>
       <use style="fill:#555555;stroke:#555555;stroke-width:0.8;" x="543.634031" xlink:href="#m3c0776bba2" y="378"/>
      </g>
     </g>
     <g id="text_7">
      <text style="fill:#555555;font-family:DejaVu Sans;font-size:10px;font-stretch:normal;font-style:normal;font-weight:normal;text-anchor:middle;" transform="rotate(-0, 543.634031, 392.598437)" x="543.634031" y="392.598437">300</text>
     </g>
    </g>
    <g id="xtick_8">
     <g id="line2d_15">
      <path clip-path="url(#pee59e76592)" d="M 618.988521 378 
L 618.988521 229.745455 
" style="fill:none;stroke:#ffffff;stroke-linecap:square;stroke-width:0.8;"/>
     </g>
     <g id="line2d_16">
      <g>
       <use style="fill:#555555;stroke:#555555;stroke-width:0.8;" x="618.988521" xlink:href="#m3c0776bba2" y="378"/>
      </g>
     </g>
     <g id="text_8">
      <text style="fill:#555555;font-family:DejaVu Sans;font-size:10px;font-stretch:normal;font-style:normal;font-weight:normal;text-anchor:middle;" transform="rotate(-0, 618.988521, 392.598437)" x="618.988521" y="392.598437">350</text>
     </g>
    </g>
    <g id="text_9">
     <text style="fill:#555555;font-family:DejaVu Sans;font-size:12px;font-stretch:normal;font-style:normal;font-weight:normal;text-anchor:middle;" transform="rotate(-0, 369, 407.79625)" x="369" y="407.79625">days since 3 deaths</text>
    </g>
   </g>
   <g id="matplotlib.axis_2">
    <g id="ytick_1">
     <g id="line2d_17">
      <path clip-path="url(#pee59e76592)" d="M 90 378 
L 648 378 
" style="fill:none;stroke:#ffffff;stroke-linecap:square;stroke-width:0.8;"/>
     </g>
     <g id="line2d_18">
      <defs>
       <path d="M 0 0 
L -3.5 0 
" id="mfc75edd5cf" style="stroke:#555555;stroke-width:0.8;"/>
      </defs>
      <g>
       <use style="fill:#555555;stroke:#555555;stroke-width:0.8;" x="90" xlink:href="#mfc75edd5cf" y="378"/>
      </g>
     </g>
     <g id="line2d_19">
      <defs>
       <path d="M 0 0 
L 3.5 0 
" id="m746c30c301" style="stroke:#555555;stroke-width:0.8;"/>
      </defs>
      <g>
       <use style="fill:#555555;stroke:#555555;stroke-width:0.8;" x="648" xlink:href="#m746c30c301" y="378"/>
      </g>
     </g>
     <g id="text_10">
      <text style="fill:#555555;font-family:DejaVu Sans;font-size:10px;font-stretch:normal;font-style:normal;font-weight:normal;text-anchor:end;" transform="rotate(-0, 83, 381.799219)" x="83" y="381.799219">0.01</text>
     </g>
     <g id="text_11">
      <text style="fill:#555555;font-family:DejaVu Sans;font-size:10px;font-stretch:normal;font-style:normal;font-weight:normal;text-anchor:start;" transform="rotate(-0, 655, 381.799219)" x="655" y="381.799219">0.01</text>
     </g>
    </g>
    <g id="ytick_2">
     <g id="line2d_20">
      <path clip-path="url(#pee59e76592)" d="M 90 314.911108 
L 648 314.911108 
" style="fill:none;stroke:#ffffff;stroke-linecap:square;stroke-width:0.8;"/>
     </g>
     <g id="line2d_21">
      <g>
       <use style="fill:#555555;stroke:#555555;stroke-width:0.8;" x="90" xlink:href="#mfc75edd5cf" y="314.911108"/>
      </g>
     </g>
     <g id="line2d_22">
      <g>
       <use style="fill:#555555;stroke:#555555;stroke-width:0.8;" x="648" xlink:href="#m746c30c301" y="314.911108"/>
      </g>
     </g>
     <g id="text_12">
      <text style="fill:#555555;font-family:DejaVu Sans;font-size:10px;font-stretch:normal;font-style:normal;font-weight:normal;text-anchor:end;" transform="rotate(-0, 83, 318.710327)" x="83" y="318.710327">0.1</text>
     </g>
     <g id="text_13">
      <text style="fill:#555555;font-family:DejaVu Sans;font-size:10px;font-stretch:normal;font-style:normal;font-weight:normal;text-anchor:start;" transform="rotate(-0, 655, 318.710327)" x="655" y="318.710327">0.1</text>
     </g>
    </g>
    <g id="ytick_3">
     <g id="line2d_23">
      <path clip-path="url(#pee59e76592)" d="M 90 251.822217 
L 648 251.822217 
" style="fill:none;stroke:#ffffff;stroke-linecap:square;stroke-width:0.8;"/>
     </g>
     <g id="line2d_24">
      <g>
       <use style="fill:#555555;stroke:#555555;stroke-width:0.8;" x="90" xlink:href="#mfc75edd5cf" y="251.822217"/>
      </g>
     </g>
     <g id="line2d_25">
      <g>
       <use style="fill:#555555;stroke:#555555;stroke-width:0.8;" x="648" xlink:href="#m746c30c301" y="251.822217"/>
      </g>
     </g>
     <g id="text_14">
      <text style="fill:#555555;font-family:DejaVu Sans;font-size:10px;font-stretch:normal;font-style:normal;font-weight:normal;text-anchor:end;" transform="rotate(-0, 83, 255.621435)" x="83" y="255.621435">1</text>
     </g>
     <g id="text_15">
      <text style="fill:#555555;font-family:DejaVu Sans;font-size:10px;font-stretch:normal;font-style:normal;font-weight:normal;text-anchor:start;" transform="rotate(-0, 655, 255.621435)" x="655" y="255.621435">1</text>
     </g>
    </g>
    <g id="ytick_4">
     <g id="line2d_26">
      <defs>
       <path d="M 0 0 
L -2 0 
" id="m45b83837c5" style="stroke:#555555;stroke-width:0.6;"/>
      </defs>
      <g>
       <use style="fill:#555555;stroke:#555555;stroke-width:0.6;" x="90" xlink:href="#m45b83837c5" y="359.008351"/>
      </g>
     </g>
     <g id="line2d_27">
      <defs>
       <path d="M 0 0 
L 2 0 
" id="mdf52bee8eb" style="stroke:#555555;stroke-width:0.6;"/>
      </defs>
      <g>
       <use style="fill:#555555;stroke:#555555;stroke-width:0.6;" x="648" xlink:href="#mdf52bee8eb" y="359.008351"/>
      </g>
     </g>
    </g>
    <g id="ytick_5">
     <g id="line2d_28">
      <g>
       <use style="fill:#555555;stroke:#555555;stroke-width:0.6;" x="90" xlink:href="#m45b83837c5" y="347.898949"/>
      </g>
     </g>
     <g id="line2d_29">
      <g>
       <use style="fill:#555555;stroke:#555555;stroke-width:0.6;" x="648" xlink:href="#mdf52bee8eb" y="347.898949"/>
      </g>
     </g>
    </g>
    <g id="ytick_6">
     <g id="line2d_30">
      <g>
       <use style="fill:#555555;stroke:#555555;stroke-width:0.6;" x="90" xlink:href="#m45b83837c5" y="340.016702"/>
      </g>
     </g>
     <g id="line2d_31">
      <g>
       <use style="fill:#555555;stroke:#555555;stroke-width:0.6;" x="648" xlink:href="#mdf52bee8eb" y="340.016702"/>
      </g>
     </g>
    </g>
    <g id="ytick_7">
     <g id="line2d_32">
      <g>
       <use style="fill:#555555;stroke:#555555;stroke-width:0.6;" x="90" xlink:href="#m45b83837c5" y="333.902757"/>
      </g>
     </g>
     <g id="line2d_33">
      <g>
       <use style="fill:#555555;stroke:#555555;stroke-width:0.6;" x="648" xlink:href="#mdf52bee8eb" y="333.902757"/>
      </g>
     </g>
    </g>
    <g id="ytick_8">
     <g id="line2d_34">
      <g>
       <use style="fill:#555555;stroke:#555555;stroke-width:0.6;" x="90" xlink:href="#m45b83837c5" y="328.9073"/>
      </g>
     </g>
     <g id="line2d_35">
      <g>
       <use style="fill:#555555;stroke:#555555;stroke-width:0.6;" x="648" xlink:href="#mdf52bee8eb" y="328.9073"/>
      </g>
     </g>
    </g>
    <g id="ytick_9">
     <g id="line2d_36">
      <g>
       <use style="fill:#555555;stroke:#555555;stroke-width:0.6;" x="90" xlink:href="#m45b83837c5" y="324.683701"/>
      </g>
     </g>
     <g id="line2d_37">
      <g>
       <use style="fill:#555555;stroke:#555555;stroke-width:0.6;" x="648" xlink:href="#mdf52bee8eb" y="324.683701"/>
      </g>
     </g>
    </g>
    <g id="ytick_10">
     <g id="line2d_38">
      <g>
       <use style="fill:#555555;stroke:#555555;stroke-width:0.6;" x="90" xlink:href="#m45b83837c5" y="321.025054"/>
      </g>
     </g>
     <g id="line2d_39">
      <g>
       <use style="fill:#555555;stroke:#555555;stroke-width:0.6;" x="648" xlink:href="#mdf52bee8eb" y="321.025054"/>
      </g>
     </g>
    </g>
    <g id="ytick_11">
     <g id="line2d_40">
      <g>
       <use style="fill:#555555;stroke:#555555;stroke-width:0.6;" x="90" xlink:href="#m45b83837c5" y="317.797898"/>
      </g>
     </g>
     <g id="line2d_41">
      <g>
       <use style="fill:#555555;stroke:#555555;stroke-width:0.6;" x="648" xlink:href="#mdf52bee8eb" y="317.797898"/>
      </g>
     </g>
    </g>
    <g id="ytick_12">
     <g id="line2d_42">
      <g>
       <use style="fill:#555555;stroke:#555555;stroke-width:0.6;" x="90" xlink:href="#m45b83837c5" y="295.919459"/>
      </g>
     </g>
     <g id="line2d_43">
      <g>
       <use style="fill:#555555;stroke:#555555;stroke-width:0.6;" x="648" xlink:href="#mdf52bee8eb" y="295.919459"/>
      </g>
     </g>
    </g>
    <g id="ytick_13">
     <g id="line2d_44">
      <g>
       <use style="fill:#555555;stroke:#555555;stroke-width:0.6;" x="90" xlink:href="#m45b83837c5" y="284.810057"/>
      </g>
     </g>
     <g id="line2d_45">
      <g>
       <use style="fill:#555555;stroke:#555555;stroke-width:0.6;" x="648" xlink:href="#mdf52bee8eb" y="284.810057"/>
      </g>
     </g>
    </g>
    <g id="ytick_14">
     <g id="line2d_46">
      <g>
       <use style="fill:#555555;stroke:#555555;stroke-width:0.6;" x="90" xlink:href="#m45b83837c5" y="276.927811"/>
      </g>
     </g>
     <g id="line2d_47">
      <g>
       <use style="fill:#555555;stroke:#555555;stroke-width:0.6;" x="648" xlink:href="#mdf52bee8eb" y="276.927811"/>
      </g>
     </g>
    </g>
    <g id="ytick_15">
     <g id="line2d_48">
      <g>
       <use style="fill:#555555;stroke:#555555;stroke-width:0.6;" x="90" xlink:href="#m45b83837c5" y="270.813865"/>
      </g>
     </g>
     <g id="line2d_49">
      <g>
       <use style="fill:#555555;stroke:#555555;stroke-width:0.6;" x="648" xlink:href="#mdf52bee8eb" y="270.813865"/>
      </g>
     </g>
    </g>
    <g id="ytick_16">
     <g id="line2d_50">
      <g>
       <use style="fill:#555555;stroke:#555555;stroke-width:0.6;" x="90" xlink:href="#m45b83837c5" y="265.818408"/>
      </g>
     </g>
     <g id="line2d_51">
      <g>
       <use style="fill:#555555;stroke:#555555;stroke-width:0.6;" x="648" xlink:href="#mdf52bee8eb" y="265.818408"/>
      </g>
     </g>
    </g>
    <g id="ytick_17">
     <g id="line2d_52">
      <g>
       <use style="fill:#555555;stroke:#555555;stroke-width:0.6;" x="90" xlink:href="#m45b83837c5" y="261.59481"/>
      </g>
     </g>
     <g id="line2d_53">
      <g>
       <use style="fill:#555555;stroke:#555555;stroke-width:0.6;" x="648" xlink:href="#mdf52bee8eb" y="261.59481"/>
      </g>
     </g>
    </g>
    <g id="ytick_18">
     <g id="line2d_54">
      <g>
       <use style="fill:#555555;stroke:#555555;stroke-width:0.6;" x="90" xlink:href="#m45b83837c5" y="257.936162"/>
      </g>
     </g>
     <g id="line2d_55">
      <g>
       <use style="fill:#555555;stroke:#555555;stroke-width:0.6;" x="648" xlink:href="#mdf52bee8eb" y="257.936162"/>
      </g>
     </g>
    </g>
    <g id="ytick_19">
     <g id="line2d_56">
      <g>
       <use style="fill:#555555;stroke:#555555;stroke-width:0.6;" x="90" xlink:href="#m45b83837c5" y="254.709006"/>
      </g>
     </g>
     <g id="line2d_57">
      <g>
       <use style="fill:#555555;stroke:#555555;stroke-width:0.6;" x="648" xlink:href="#mdf52bee8eb" y="254.709006"/>
      </g>
     </g>
    </g>
    <g id="ytick_20">
     <g id="line2d_58">
      <g>
       <use style="fill:#555555;stroke:#555555;stroke-width:0.6;" x="90" xlink:href="#m45b83837c5" y="232.830568"/>
      </g>
     </g>
     <g id="line2d_59">
      <g>
       <use style="fill:#555555;stroke:#555555;stroke-width:0.6;" x="648" xlink:href="#mdf52bee8eb" y="232.830568"/>
      </g>
     </g>
    </g>
    <g id="text_16">
     <text style="fill:#555555;font-family:DejaVu Sans;font-size:12px;font-stretch:normal;font-style:normal;font-weight:normal;" transform="translate(27.364 354.91679)rotate(-90)">daily new deaths</text>
     <text style="fill:#555555;font-family:DejaVu Sans;font-size:12px;font-stretch:normal;font-style:normal;font-weight:normal;" transform="translate(40.801375 353.381165)rotate(-90)">per 100K people</text>
     <text style="fill:#555555;font-family:DejaVu Sans;font-size:12px;font-stretch:normal;font-style:normal;font-weight:normal;" transform="translate(54.23875 365.018352)rotate(-90)">(rolling 7-day mean)</text>
    </g>
   </g>
   <g id="line2d_60">
    <path clip-path="url(#pee59e76592)" d="M 76.136169 433 
L 76.436192 427.007652 
L 77.943282 419.125406 
L 79.450371 413.01146 
L 80.957461 408.016003 
L 82.464551 408.016003 
L 83.971641 410.400042 
L 85.478731 403.792405 
L 86.98582 410.400042 
L 88.49291 394.019812 
L 90 396.906601 
L 91.50709 390.190452 
L 93.01418 391.408393 
L 94.521269 383.839283 
L 96.028359 384.800756 
L 97.535449 380.298991 
L 99.042539 387.905866 
L 100.549629 386.831252 
L 102.056718 387.905866 
L 103.563808 382.011996 
L 105.070898 389.024355 
L 106.577988 384.800756 
L 108.085078 387.905866 
L 109.592167 391.408393 
L 111.099257 385.797199 
L 112.606347 389.024355 
L 114.113437 387.905866 
L 115.620527 384.800756 
L 117.127616 382.910409 
L 118.634706 377.914952 
L 120.141796 377.914952 
L 123.155976 373.691353 
L 124.663065 375.028163 
L 126.170155 371.801007 
L 127.677245 373.691353 
L 129.184335 374.351606 
L 130.691425 370.609551 
L 132.198515 373.691353 
L 133.705604 375.721849 
L 135.212694 376.433556 
L 136.719784 378.68681 
L 139.733964 382.011996 
L 141.241053 384.800756 
L 142.748143 382.910409 
L 144.255233 378.68681 
L 145.762323 378.68681 
L 147.269413 379.481045 
L 148.776502 379.481045 
L 150.283592 382.011996 
L 151.790682 382.011996 
L 153.297772 382.910409 
L 154.804862 387.905866 
L 156.311951 387.905866 
L 157.819041 391.408393 
L 160.833221 394.019812 
L 162.340311 395.425205 
L 163.8474 401.902058 
L 165.35449 405.822901 
L 166.86158 410.400042 
L 168.36867 413.01146 
L 169.87576 413.01146 
L 171.382849 415.89825 
L 172.889939 419.125406 
L 174.397029 415.89825 
L 175.904119 415.89825 
L 177.411209 419.125406 
L 178.918298 413.01146 
L 180.425388 419.125406 
L 181.932478 415.89825 
L 183.439568 413.01146 
L 184.946658 415.89825 
L 186.453747 415.89825 
L 187.960837 419.125406 
L 189.467927 427.007652 
L 190.975017 427.007652 
L 191.787932 433 
M 199.20464 433 
L 200.017556 427.007652 
L 201.524646 427.007652 
L 203.031735 422.784053 
L 204.784559 433 
M 214.275538 433 
L 215.088454 427.007652 
L 216.595544 427.007652 
L 218.102633 432.003109 
L 219.609723 432.003109 
L 219.717067 433 
M 281.293061 433 
L 281.400405 432.003109 
L 282.907495 427.007652 
L 284.414585 432.003109 
L 285.921675 427.007652 
L 287.674498 433 
M 293.21139 433 
L 293.457124 432.003109 
L 294.964213 427.007652 
L 296.471303 427.007652 
L 297.978393 422.784053 
L 299.485483 422.784053 
L 300.992573 419.125406 
L 302.499662 427.007652 
L 304.252486 433 
M 352.9278 433 
L 353.740716 427.007652 
L 355.247806 427.007652 
L 356.754895 422.784053 
L 358.261985 408.016003 
L 359.769075 403.792405 
L 361.276165 401.902058 
L 362.783255 403.792405 
L 364.290344 403.792405 
L 365.797434 400.133757 
L 367.304524 401.902058 
L 368.811614 408.016003 
L 370.318704 410.400042 
L 371.825793 408.016003 
L 373.332883 398.472693 
L 374.839973 396.906601 
L 376.347063 398.472693 
L 377.854153 395.425205 
L 379.361242 391.408393 
L 380.868332 389.024355 
L 382.375422 385.797199 
L 383.882512 386.831252 
L 385.389602 390.190452 
L 386.896691 386.831252 
L 388.403781 385.797199 
L 389.910871 390.190452 
L 391.417961 387.905866 
L 392.925051 391.408393 
L 394.43214 392.683002 
L 397.44632 392.683002 
L 398.95341 396.906601 
L 400.4605 392.683002 
L 401.967589 396.906601 
L 403.474679 392.683002 
L 404.981769 395.425205 
L 406.488859 387.905866 
L 407.995949 391.408393 
L 409.503038 392.683002 
L 411.010128 392.683002 
L 412.517218 394.019812 
L 414.024308 400.133757 
L 415.531398 401.902058 
L 417.038488 408.016003 
L 420.052667 408.016003 
L 421.559757 413.01146 
L 423.066847 410.400042 
L 424.573937 410.400042 
L 427.588116 405.822901 
L 429.095206 408.016003 
L 430.602296 405.822901 
L 432.109386 405.822901 
L 435.123565 410.400042 
L 436.630655 405.822901 
L 438.137745 408.016003 
L 439.644835 403.792405 
L 442.659014 403.792405 
L 444.166104 405.822901 
L 447.180284 405.822901 
L 448.687373 410.400042 
L 450.194463 415.89825 
L 451.701553 419.125406 
L 453.208643 422.784053 
L 454.715733 415.89825 
L 456.222822 410.400042 
L 459.237002 405.822901 
L 463.758271 405.822901 
L 465.265361 408.016003 
L 466.772451 408.016003 
L 468.279541 405.822901 
L 469.786631 405.822901 
L 471.29372 408.016003 
L 472.80081 408.016003 
L 474.3079 401.902058 
L 475.81499 401.902058 
L 477.32208 403.792405 
L 478.829169 415.89825 
L 480.336259 415.89825 
L 481.843349 410.400042 
L 483.350439 405.822901 
L 484.857529 410.400042 
L 486.364619 408.016003 
L 487.871708 401.902058 
L 490.885888 398.472693 
L 492.392978 398.472693 
L 493.900068 401.902058 
L 495.407157 395.425205 
L 498.421337 398.472693 
L 499.928427 400.133757 
L 501.435517 405.822901 
L 502.942606 403.792405 
L 504.449696 394.019812 
L 505.956786 396.906601 
L 507.463876 391.408393 
L 508.970966 390.190452 
L 510.478055 386.831252 
L 513.492235 378.68681 
L 514.999325 377.914952 
L 516.506415 376.433556 
L 518.013504 378.68681 
L 519.520594 376.433556 
L 521.027684 370.032706 
L 522.534774 365.809107 
L 524.041864 359.695162 
L 525.548953 358.545378 
L 527.056043 355.696147 
L 528.563133 351.617903 
L 530.070223 347.063192 
L 531.577313 344.474223 
L 533.084402 343.373707 
L 534.591492 344.474223 
L 537.605672 341.903668 
L 539.112762 341.903668 
L 540.619851 344.699731 
L 542.126941 341.29702 
L 543.634031 340.703513 
L 545.141121 339.931655 
L 546.648211 339.931655 
L 549.66239 338.092094 
L 551.16948 336.704499 
L 552.67657 339.180946 
L 554.18366 339.180946 
L 555.690749 339.553729 
L 557.197839 336.368308 
L 558.704929 337.389513 
L 560.212019 336.535888 
L 561.719109 337.216647 
L 563.226199 337.389513 
L 564.733288 337.389513 
L 566.240378 338.996439 
L 567.747468 341.497747 
L 569.254558 341.497747 
L 570.761648 344.028698 
L 572.268737 344.028698 
L 573.775827 345.387612 
L 575.282917 346.093209 
L 576.790007 344.699731 
L 578.297097 347.063192 
L 579.804186 349.649938 
L 581.311276 349.922569 
L 582.818366 351.041057 
L 584.325456 353.425095 
L 585.832546 356.730201 
L 587.339635 359.695162 
L 588.846725 359.306515 
L 590.353815 357.083743 
L 593.367995 361.725658 
L 597.889264 363.020347 
L 599.396354 363.91876 
L 600.903444 368.914217 
L 602.410533 368.371642 
L 605.424713 370.609551 
L 606.931803 371.801007 
L 608.438893 370.032706 
L 609.945982 370.032706 
L 611.453072 368.914217 
L 615.974342 368.914217 
L 615.974342 368.914217 
" style="fill:none;stroke:#e24a33;stroke-linecap:square;stroke-width:4;"/>
   </g>
   <g id="line2d_61">
    <defs>
     <path d="M 0 3 
C 0.795609 3 1.55874 2.683901 2.12132 2.12132 
C 2.683901 1.55874 3 0.795609 3 0 
C 3 -0.795609 2.683901 -1.55874 2.12132 -2.12132 
C 1.55874 -2.683901 0.795609 -3 0 -3 
C -0.795609 -3 -1.55874 -2.683901 -2.12132 -2.12132 
C -2.683901 -1.55874 -3 -0.795609 -3 0 
C -3 0.795609 -2.683901 1.55874 -2.12132 2.12132 
C -1.55874 2.683901 -0.795609 3 0 3 
z
" id="m69a1778609" style="stroke:#e24a33;"/>
    </defs>
    <g clip-path="url(#pee59e76592)">
     <use style="fill:#e24a33;stroke:#e24a33;" x="615.974342" xlink:href="#m69a1778609" y="368.914217"/>
    </g>
   </g>
   <g id="line2d_62">
    <path clip-path="url(#pee59e76592)" d="M 86.188127 433 
L 86.98582 429.355388 
L 88.49291 423.85718 
L 90 415.359197 
L 91.50709 404.865532 
L 93.01418 401.363005 
L 94.521269 387.808745 
L 96.028359 377.375899 
L 97.535449 371.261954 
L 99.042539 368.484981 
L 102.056718 355.566045 
L 103.563808 347.580987 
L 109.592167 322.847333 
L 112.606347 313.477121 
L 114.113437 309.520833 
L 115.620527 305.067952 
L 117.127616 302.190949 
L 118.634706 299.991071 
L 120.141796 298.927924 
L 121.648886 296.106387 
L 123.155976 294.374858 
L 124.663065 290.510004 
L 126.170155 289.181413 
L 127.677245 289.327933 
L 129.184335 293.271387 
L 130.691425 290.337982 
L 132.198515 291.386696 
L 133.705604 293.569902 
L 135.212694 290.01597 
L 136.719784 290.20493 
L 138.226874 287.671191 
L 139.733964 285.383839 
L 141.241053 288.036634 
L 142.748143 286.272713 
L 144.255233 285.130581 
L 145.762323 289.641914 
L 147.269413 288.764481 
L 148.776502 290.915639 
L 150.283592 290.72173 
L 151.790682 291.26817 
L 153.297772 293.871706 
L 154.804862 293.50566 
L 156.311951 295.570729 
L 157.819041 299.006245 
L 159.326131 300.956415 
L 160.833221 302.132279 
L 162.340311 303.483744 
L 163.8474 304.201122 
L 165.35449 310.897965 
L 166.86158 306.13213 
L 168.36867 307.487596 
L 169.87576 307.310025 
L 174.397029 311.345474 
L 175.904119 308.356335 
L 177.411209 314.933898 
L 178.918298 319.724396 
L 180.425388 326.301674 
L 181.932478 326.160441 
L 183.439568 325.88014 
L 184.946658 329.688592 
L 186.453747 329.608595 
L 187.960837 334.877002 
L 189.467927 331.596112 
L 190.975017 330.584335 
L 192.482107 331.254685 
L 193.989196 331.424866 
L 197.003376 334.113213 
L 198.510466 334.780356 
L 200.017556 336.471585 
L 201.524646 335.563242 
L 203.031735 336.267112 
L 206.045915 338.716045 
L 207.553005 345.649624 
L 209.060095 348.203722 
L 210.567184 349.658886 
L 213.581364 353.579729 
L 215.088454 353.199179 
L 216.595544 354.160652 
L 218.102633 348.361643 
L 219.609723 352.270305 
L 222.623903 357.265762 
L 224.130993 358.38425 
L 227.145172 360.274597 
L 228.652262 368.156843 
L 230.159352 363.655078 
L 231.666442 362.569821 
L 233.173531 362.305093 
L 234.680621 362.837132 
L 236.187711 365.075041 
L 237.694801 365.664293 
L 239.201891 365.075041 
L 240.70898 370.540882 
L 242.21607 375.182796 
L 243.72316 370.187339 
L 245.23025 372.002517 
L 246.73734 372.002517 
L 248.244429 370.540882 
L 249.751519 370.899046 
L 251.258609 374.352455 
L 252.765699 374.764481 
L 254.272789 385.258146 
L 255.779878 381.296742 
L 257.286968 379.759938 
L 258.794058 384.655942 
L 260.301148 387.148492 
L 261.808238 381.828781 
L 263.315327 381.828781 
L 264.822417 380.774837 
L 266.329507 382.371356 
L 267.836597 383.489844 
L 269.343687 381.296742 
L 270.850777 384.655942 
L 272.357866 392.938183 
L 273.864956 396.367548 
L 276.879136 406.140141 
L 278.386226 406.140141 
L 279.893315 407.47695 
L 282.907495 404.865532 
L 284.414585 403.647591 
L 285.921675 394.599247 
L 287.428764 393.756129 
L 290.442944 395.469134 
L 294.964213 392.938183 
L 296.471303 399.254337 
L 297.978393 396.367548 
L 299.485483 396.367548 
L 300.992573 397.296422 
L 302.499662 394.599247 
L 304.006752 385.873883 
L 305.513842 390.621382 
L 307.020932 383.489844 
L 308.528022 384.06669 
L 311.542201 382.924893 
L 313.049291 385.258146 
L 314.556381 392.938183 
L 316.063471 391.372091 
L 320.58474 393.756129 
L 323.59892 393.756129 
L 325.106009 391.372091 
L 326.613099 384.655942 
L 328.120189 391.372091 
L 329.627279 390.621382 
L 331.134369 388.485302 
L 334.148548 388.485302 
L 335.655638 391.372091 
L 337.162728 399.254337 
L 338.669818 402.481493 
L 340.176907 399.254337 
L 341.683997 401.363005 
L 343.191087 399.254337 
L 344.698177 400.288391 
L 346.205267 390.621382 
L 347.712357 394.599247 
L 349.219446 390.621382 
L 350.726536 396.367548 
L 352.233626 396.367548 
L 353.740716 398.257894 
L 355.247806 397.296422 
L 356.754895 407.47695 
L 358.261985 403.647591 
L 359.769075 406.140141 
L 361.276165 403.647591 
L 364.290344 401.363005 
L 365.797434 395.469134 
L 368.811614 395.469134 
L 370.318704 389.890695 
L 371.825793 391.372091 
L 373.332883 391.372091 
L 374.839973 392.938183 
L 376.347063 389.890695 
L 377.854153 382.371356 
L 379.361242 377.375899 
L 380.868332 375.182796 
L 382.375422 372.763653 
L 383.882512 371.629733 
L 385.389602 370.187339 
L 386.896691 370.187339 
L 388.403781 372.380442 
L 389.910871 372.002517 
L 391.417961 374.352455 
L 392.925051 372.380442 
L 394.43214 373.54654 
L 395.93923 367.512128 
L 397.44632 368.484981 
L 398.95341 367.195371 
L 400.4605 367.832589 
L 401.967589 369.153286 
L 403.474679 366.572636 
L 404.981769 365.368083 
L 406.488859 367.512128 
L 407.995949 359.313124 
L 409.503038 355.360807 
L 411.010128 353.199179 
L 412.517218 348.203722 
L 414.024308 349.658886 
L 415.531398 348.520479 
L 417.038488 344.115428 
L 418.545577 344.388059 
L 420.052667 345.081745 
L 421.559757 341.652381 
L 423.066847 343.711502 
L 424.573937 338.274113 
L 426.081026 336.781183 
L 427.588116 338.38393 
L 429.095206 339.507003 
L 430.602296 332.646687 
L 432.109386 329.449297 
L 433.616475 324.520101 
L 435.123565 322.291299 
L 436.630655 322.108434 
L 438.137745 315.310524 
L 439.644835 314.47028 
L 441.151924 308.876118 
L 442.659014 306.234049 
L 444.166104 304.775951 
L 445.673194 305.628146 
L 447.180284 304.455114 
L 448.687373 308.577892 
L 450.194463 298.591098 
L 451.701553 299.08479 
L 454.715733 296.129915 
L 456.222822 295.181433 
L 457.729912 295.272535 
L 459.237002 290.586806 
L 460.744092 291.9265 
L 462.251182 291.150155 
L 463.758271 290.185976 
L 465.265361 288.926874 
L 469.786631 286.954609 
L 471.29372 285.848923 
L 472.80081 283.8832 
L 474.3079 281.602227 
L 475.81499 280.053841 
L 478.829169 279.3559 
L 480.336259 278.267545 
L 483.350439 275.749944 
L 484.857529 275.660587 
L 486.364619 274.471267 
L 487.871708 273.506113 
L 489.378798 273.249612 
L 490.885888 272.673618 
L 492.392978 271.836561 
L 493.900068 272.070327 
L 495.407157 270.492825 
L 496.914247 270.281248 
L 498.421337 269.638237 
L 499.928427 269.141508 
L 501.435517 268.421463 
L 502.942606 265.639333 
L 504.449696 263.619337 
L 505.956786 262.56214 
L 507.463876 261.055647 
L 508.970966 260.511404 
L 510.478055 260.364251 
L 511.985145 259.226882 
L 514.999325 258.264565 
L 516.506415 260.306884 
L 518.013504 263.526082 
L 519.520594 263.893764 
L 524.041864 261.160549 
L 527.056043 259.318856 
L 528.563133 258.687428 
L 531.577313 259.116919 
L 533.084402 258.460295 
L 534.591492 259.141317 
L 536.098582 258.448393 
L 539.112762 251.765636 
L 540.619851 250.668975 
L 542.126941 250.543844 
L 543.634031 250.966207 
L 545.141121 250.601869 
L 546.648211 250.031447 
L 548.1553 250.21146 
L 549.66239 252.685348 
L 551.16948 251.812296 
L 552.67657 251.358412 
L 554.18366 253.762084 
L 555.690749 250.709317 
L 557.197839 251.593679 
L 558.704929 252.752928 
L 560.212019 251.161608 
L 561.719109 254.039278 
L 563.226199 254.110286 
L 564.733288 251.82631 
L 566.240378 258.347431 
L 567.747468 259.153524 
L 569.254558 256.155241 
L 570.761648 258.639454 
L 572.268737 254.950865 
L 573.775827 256.932259 
L 575.282917 256.568758 
L 576.790007 254.222244 
L 578.297097 254.711023 
L 579.804186 257.593198 
L 581.311276 255.986126 
L 582.818366 259.411141 
L 584.325456 258.807731 
L 585.832546 261.417944 
L 588.846725 263.029321 
L 590.353815 265.270522 
L 591.860905 266.384241 
L 596.382174 266.384241 
L 596.382174 266.384241 
" style="fill:none;stroke:#348abd;stroke-linecap:square;stroke-opacity:0.4;stroke-width:2;"/>
   </g>
   <g id="line2d_63">
    <defs>
     <path d="M 0 3 
C 0.795609 3 1.55874 2.683901 2.12132 2.12132 
C 2.683901 1.55874 3 0.795609 3 0 
C 3 -0.795609 2.683901 -1.55874 2.12132 -2.12132 
C 1.55874 -2.683901 0.795609 -3 0 -3 
C -0.795609 -3 -1.55874 -2.683901 -2.12132 -2.12132 
C -2.683901 -1.55874 -3 -0.795609 -3 0 
C -3 0.795609 -2.683901 1.55874 -2.12132 2.12132 
C -1.55874 2.683901 -0.795609 3 0 3 
z
" id="m1c761db299" style="stroke:#348abd;stroke-opacity:0.4;"/>
    </defs>
    <g clip-path="url(#pee59e76592)">
     <use style="fill:#348abd;fill-opacity:0.4;stroke:#348abd;stroke-opacity:0.4;" x="596.382174" xlink:href="#m1c761db299" y="266.384241"/>
    </g>
   </g>
   <g id="line2d_64">
    <path clip-path="url(#pee59e76592)" d="M 62.034022 433 
L 62.872384 426.820081 
L 64.379473 426.820081 
L 65.886563 418.937835 
L 70.407833 418.937835 
L 71.914922 426.820081 
L 72.753284 433 
M 73.638451 433 
L 74.929102 403.604834 
L 76.436192 407.828433 
L 77.943282 403.604834 
L 79.450371 396.71903 
L 80.957461 393.832241 
L 82.464551 393.832241 
L 83.971641 388.836784 
L 85.478731 391.220822 
L 86.98582 382.722838 
L 88.49291 380.954537 
L 90 376.245985 
L 91.50709 371.011232 
L 93.01418 366.617979 
L 94.521269 363.73119 
L 96.028359 366.617979 
L 97.535449 367.652032 
L 99.042539 366.617979 
L 100.549629 368.726647 
L 102.056718 373.503783 
L 103.563808 379.293474 
L 105.070898 386.643681 
L 106.577988 388.836784 
L 108.085078 388.836784 
L 109.592167 393.832241 
L 111.099257 403.604834 
L 112.606347 407.828433 
L 114.113437 412.82389 
L 115.620527 418.937835 
L 117.127616 388.836784 
L 118.634706 386.643681 
L 120.141796 386.643681 
L 121.648886 380.954537 
L 123.155976 380.954537 
L 124.663065 372.229173 
L 126.170155 369.845135 
L 127.677245 377.727381 
L 129.184335 384.613185 
L 130.691425 384.613185 
L 132.198515 388.836784 
L 133.705604 386.643681 
L 135.212694 399.946186 
L 136.719784 407.828433 
L 138.226874 418.937835 
L 139.733964 418.937835 
L 141.241053 426.820081 
L 142.079415 433 
M 158.48777 433 
L 159.326131 426.820081 
L 160.833221 426.820081 
L 162.340311 418.937835 
L 163.8474 426.820081 
L 168.36867 426.820081 
L 169.207031 433 
M 233.84226 433 
L 234.680621 426.820081 
L 236.187711 418.937835 
L 237.30362 433 
M 239.497808 433 
L 240.70898 412.82389 
L 243.72316 393.832241 
L 245.23025 391.220822 
L 246.73734 384.613185 
L 248.244429 382.722838 
L 249.751519 377.727381 
L 251.258609 379.293474 
L 252.765699 374.840592 
L 254.272789 371.011232 
L 255.779878 366.617979 
L 257.286968 361.119771 
L 258.794058 357.254336 
L 260.301148 355.172386 
L 263.315327 346.629887 
L 264.822417 346.144934 
L 266.329507 346.629887 
L 267.836597 348.138479 
L 269.343687 344.739541 
L 270.850777 342.546438 
L 272.357866 340.127295 
L 273.864956 342.128122 
L 275.372046 340.515942 
L 276.879136 337.904523 
L 278.386226 334.559012 
L 279.893315 333.027935 
L 281.400405 331.01872 
L 282.907495 329.40654 
L 284.414585 329.14683 
L 285.921675 328.382153 
L 287.428764 330.470718 
L 288.935854 330.470718 
L 290.442944 328.634681 
L 291.950034 328.889559 
L 293.457124 331.296886 
L 294.964213 330.200774 
L 296.471303 331.577906 
L 297.978393 329.14683 
L 299.485483 329.14683 
L 302.499662 334.559012 
L 304.006752 331.01872 
L 305.513842 328.382153 
L 307.020932 327.883973 
L 308.528022 326.91399 
L 310.035111 328.382153 
L 311.542201 322.520736 
L 313.049291 323.136473 
L 314.556381 327.153285 
L 316.063471 329.14683 
L 317.57056 318.912875 
L 320.58474 321.135646 
L 322.09183 328.13193 
L 323.59892 327.394689 
L 325.106009 326.208393 
L 326.613099 328.13193 
L 328.120189 344.739541 
L 329.627279 347.123579 
L 331.134369 346.144934 
L 332.641458 347.62633 
L 334.148548 352.019584 
L 335.655638 353.867418 
L 337.162728 353.237525 
L 338.669818 355.848943 
L 340.176907 355.172386 
L 341.683997 356.54263 
L 343.191087 359.507591 
L 344.698177 357.254336 
L 346.205267 359.507591 
L 347.712357 364.660064 
L 349.219446 361.962888 
L 350.726536 367.652032 
L 352.233626 371.011232 
L 353.740716 369.845135 
L 355.247806 365.621536 
L 356.754895 366.617979 
L 358.261985 366.617979 
L 359.769075 373.503783 
L 361.276165 371.011232 
L 362.783255 372.229173 
L 364.290344 376.245985 
L 365.797434 386.643681 
L 367.304524 391.220822 
L 368.811614 396.71903 
L 370.318704 403.604834 
L 371.825793 418.937835 
L 376.347063 418.937835 
L 377.854153 403.604834 
L 382.375422 403.604834 
L 383.882512 407.828433 
L 385.389602 403.604834 
L 386.896691 407.828433 
L 387.66943 433 
L 387.66943 433 
" style="fill:none;stroke:#988ed5;stroke-linecap:square;stroke-opacity:0.4;stroke-width:2;"/>
   </g>
   <g id="line2d_65">
    <defs>
     <path d="M 0 3 
C 0.795609 3 1.55874 2.683901 2.12132 2.12132 
C 2.683901 1.55874 3 0.795609 3 0 
C 3 -0.795609 2.683901 -1.55874 2.12132 -2.12132 
C 1.55874 -2.683901 0.795609 -3 0 -3 
C -0.795609 -3 -1.55874 -2.683901 -2.12132 -2.12132 
C -2.683901 -1.55874 -3 -0.795609 -3 0 
C -3 0.795609 -2.683901 1.55874 -2.12132 2.12132 
C -1.55874 2.683901 -0.795609 3 0 3 
z
" id="m72f421f2b0" style="stroke:#988ed5;stroke-opacity:0.4;"/>
    </defs>
    <g clip-path="url(#pee59e76592)"/>
   </g>
   <g id="line2d_66">
    <path clip-path="url(#pee59e76592)" d="M 69.796006 433 
L 70.407833 429.800079 
L 71.914922 423.686134 
L 73.422012 423.686134 
L 74.929102 429.800079 
L 75.540929 433 
M 79.19644 433 
L 79.450371 429.800079 
L 80.957461 429.800079 
L 82.464551 423.686134 
L 83.971641 407.581275 
L 85.478731 402.083067 
L 86.98582 402.083067 
L 88.49291 397.505925 
L 90 393.585083 
L 91.50709 381.873477 
L 93.01418 381.873477 
L 94.521269 375.522308 
L 96.028359 366.034631 
L 97.535449 357.985824 
L 99.042539 355.148896 
L 100.549629 350.606328 
L 102.056718 349.124932 
L 103.563808 342.724082 
L 105.070898 337.53901 
L 106.577988 337.303823 
L 108.085078 338.994175 
L 109.592167 334.628611 
L 111.099257 332.780777 
L 112.606347 332.780777 
L 114.113437 333.586693 
L 115.620527 335.056732 
L 117.127616 332.386538 
L 118.634706 330.314136 
L 121.648886 334.841835 
L 123.155976 333.382981 
L 124.663065 332.780777 
L 126.170155 332.386538 
L 127.677245 332.386538 
L 129.184335 328.387523 
L 130.691425 325.961235 
L 132.198515 326.272592 
L 133.705604 325.197978 
L 135.212694 323.307631 
L 136.719784 322.889315 
L 138.226874 324.019338 
L 139.733964 329.246502 
L 141.241053 332.386538 
L 142.748143 331.805615 
L 144.255233 333.180772 
L 145.762323 336.610136 
L 147.269413 339.244397 
L 148.776502 338.746217 
L 150.283592 335.491648 
L 151.790682 336.382756 
L 153.297772 336.157248 
L 154.804862 338.256933 
L 156.311951 335.93358 
L 157.819041 334.841835 
L 159.326131 334.841835 
L 160.833221 334.207077 
L 162.340311 334.417034 
L 163.8474 335.491648 
L 165.35449 335.491648 
L 166.86158 339.244397 
L 168.36867 341.332963 
L 169.87576 344.798522 
L 171.382849 349.48784 
L 172.889939 348.413225 
L 174.397029 350.989539 
L 175.904119 350.989539 
L 177.411209 349.124932 
L 178.918298 352.990367 
L 180.425388 352.990367 
L 181.932478 351.772426 
L 183.439568 352.172421 
L 184.946658 352.172421 
L 186.453747 352.578341 
L 187.960837 352.172421 
L 189.467927 345.421257 
L 190.975017 348.064187 
L 192.482107 345.738014 
L 193.989196 343.890179 
L 195.496286 343.593969 
L 198.510466 344.189627 
L 200.017556 344.189627 
L 201.524646 342.159131 
L 203.031735 346.058475 
L 204.538825 346.382729 
L 206.045915 344.492383 
L 207.553005 344.492383 
L 209.060095 344.798522 
L 210.567184 347.719539 
L 212.074274 341.332963 
L 213.581364 338.500483 
L 215.088454 339.244397 
L 216.595544 339.244397 
L 218.102633 340.795707 
L 219.609723 340.795707 
L 221.116813 338.994175 
L 222.623903 342.724082 
L 224.130993 343.010987 
L 225.638082 344.798522 
L 227.145172 347.042982 
L 230.159352 345.10812 
L 231.666442 347.379172 
L 233.173531 347.719539 
L 234.680621 348.413225 
L 236.187711 348.766768 
L 237.694801 348.064187 
L 239.201891 348.766768 
L 240.70898 353.408683 
L 242.21607 353.408683 
L 243.72316 356.062286 
L 245.23025 357.985824 
L 246.73734 357.492132 
L 248.244429 358.488575 
L 249.751519 357.985824 
L 251.258609 355.601785 
L 252.765699 359.522628 
L 254.272789 358.488575 
L 255.779878 360.597242 
L 257.286968 360.597242 
L 258.794058 359.000723 
L 260.301148 360.054667 
L 261.808238 361.715731 
L 263.315327 361.715731 
L 264.822417 362.881828 
L 266.329507 364.729662 
L 267.836597 362.881828 
L 269.343687 362.292576 
L 270.850777 361.150779 
L 272.357866 362.881828 
L 273.864956 359.522628 
L 275.372046 356.530659 
L 276.879136 355.148896 
L 278.386226 357.007178 
L 279.893315 355.601785 
L 281.400405 357.492132 
L 282.907495 357.492132 
L 284.414585 354.703372 
L 285.921675 353.408683 
L 287.428764 350.989539 
L 288.935854 348.064187 
L 290.442944 349.124932 
L 291.950034 348.766768 
L 293.457124 346.710867 
L 294.964213 349.855619 
L 296.471303 351.378187 
L 297.978393 350.989539 
L 299.485483 351.772426 
L 300.992573 351.378187 
L 302.499662 349.124932 
L 304.006752 349.48784 
L 305.513842 346.710867 
L 307.020932 347.379172 
L 308.528022 347.719539 
L 310.035111 347.042982 
L 311.542201 348.413225 
L 313.049291 349.48784 
L 314.556381 347.379172 
L 316.063471 347.379172 
L 317.57056 346.058475 
L 319.07765 347.719539 
L 320.58474 347.379172 
L 322.09183 348.413225 
L 323.59892 348.064187 
L 325.106009 347.379172 
L 326.613099 346.382729 
L 328.120189 347.042982 
L 329.627279 347.042982 
L 331.134369 347.379172 
L 332.641458 345.421257 
L 334.148548 346.058475 
L 335.655638 348.413225 
L 337.162728 351.772426 
L 338.669818 352.578341 
L 340.176907 351.772426 
L 341.683997 351.772426 
L 343.191087 352.172421 
L 346.205267 344.189627 
L 347.712357 344.492383 
L 349.219446 343.300927 
L 350.726536 341.332963 
L 352.233626 341.605594 
L 353.740716 340.268784 
L 355.247806 343.010987 
L 356.754895 344.798522 
L 358.261985 339.751804 
L 359.769075 337.53901 
L 361.276165 336.157248 
L 362.783255 331.997891 
L 364.290344 332.582948 
L 365.797434 330.679464 
L 367.304524 327.554658 
L 368.811614 327.228474 
L 370.318704 326.429608 
L 371.825793 325.806873 
L 373.332883 325.500734 
L 374.839973 322.889315 
L 376.347063 321.017426 
L 377.854153 318.312174 
L 379.361242 313.492918 
L 380.868332 309.395875 
L 382.375422 307.359339 
L 383.882512 305.906882 
L 386.896691 305.027689 
L 388.403781 304.740784 
L 389.910871 301.961232 
L 391.417961 300.948677 
L 392.925051 296.381096 
L 394.43214 294.797479 
L 395.93923 293.966398 
L 397.44632 293.678991 
L 398.95341 291.61448 
L 400.4605 291.002671 
L 401.967589 287.862085 
L 403.474679 287.064548 
L 404.981769 283.721188 
L 406.488859 282.490286 
L 407.995949 282.363877 
L 409.503038 281.586764 
L 411.010128 278.571555 
L 412.517218 275.168042 
L 414.024308 274.004975 
L 415.531398 271.752944 
L 417.038488 270.395756 
L 418.545577 269.454662 
L 420.052667 267.645794 
L 421.559757 265.197341 
L 423.066847 264.090988 
L 424.573937 260.416161 
L 426.081026 259.456641 
L 430.602296 256.019239 
L 432.109386 255.340624 
L 433.616475 256.444417 
L 435.123565 256.764591 
L 436.630655 254.427041 
L 438.137745 253.67541 
L 439.644835 254.009415 
L 441.151924 253.708628 
L 442.659014 251.855977 
L 444.166104 248.342683 
L 445.673194 246.519216 
L 448.687373 246.054454 
L 450.194463 245.945744 
L 451.701553 244.459516 
L 453.208643 243.903924 
L 456.222822 244.721635 
L 457.729912 244.52283 
L 460.744092 245.180378 
L 462.251182 245.929058 
L 463.758271 246.476638 
L 465.265361 246.138372 
L 466.772451 246.544795 
L 468.279541 247.38498 
L 469.786631 247.873075 
L 472.80081 248.479657 
L 474.3079 248.857582 
L 475.81499 250.286433 
L 477.32208 250.159608 
L 478.829169 250.159608 
L 480.336259 250.551731 
L 481.843349 250.512265 
L 483.350439 251.130468 
L 484.857529 250.759865 
L 486.364619 251.150644 
L 487.871708 252.368126 
L 489.378798 252.569319 
L 490.885888 253.051805 
L 492.392978 253.2581 
L 493.900068 253.697551 
L 495.407157 255.211576 
L 496.914247 254.449798 
L 498.421337 256.653337 
L 499.928427 262.305497 
L 501.435517 263.641548 
L 502.942606 264.416591 
L 504.449696 264.449365 
L 505.956786 262.96538 
L 507.463876 262.381416 
L 508.970966 260.02273 
L 510.478055 259.566183 
L 511.985145 259.511357 
L 513.492235 259.333927 
L 514.999325 258.87524 
L 516.506415 259.036254 
L 518.013504 264.188263 
L 519.520594 265.332479 
L 521.027684 260.176619 
L 522.534774 258.582483 
L 524.041864 258.14913 
L 525.548953 258.305921 
L 527.056043 259.26599 
L 528.563133 256.727456 
L 530.070223 256.055425 
L 531.577313 256.888737 
L 533.084402 257.340382 
L 534.591492 257.63288 
L 537.605672 258.622221 
L 539.112762 258.123085 
L 540.619851 258.662016 
L 546.648211 259.98091 
L 548.1553 260.743617 
L 549.66239 261.191254 
L 551.16948 261.337228 
L 552.67657 261.97393 
L 554.18366 262.154287 
L 555.690749 262.094036 
L 557.197839 262.244913 
L 558.704929 261.765003 
L 560.212019 260.916029 
L 561.719109 260.472829 
L 563.226199 260.757943 
L 564.733288 260.829687 
L 566.240378 260.786618 
L 567.747468 261.162153 
L 569.254558 262.048934 
L 570.761648 261.914074 
L 572.268737 263.785208 
L 576.790007 263.785208 
L 576.790007 263.785208 
" style="fill:none;stroke:#777777;stroke-linecap:square;stroke-opacity:0.4;stroke-width:2;"/>
   </g>
   <g id="line2d_67">
    <defs>
     <path d="M 0 3 
C 0.795609 3 1.55874 2.683901 2.12132 2.12132 
C 2.683901 1.55874 3 0.795609 3 0 
C 3 -0.795609 2.683901 -1.55874 2.12132 -2.12132 
C 1.55874 -2.683901 0.795609 -3 0 -3 
C -0.795609 -3 -1.55874 -2.683901 -2.12132 -2.12132 
C -2.683901 -1.55874 -3 -0.795609 -3 0 
C -3 0.795609 -2.683901 1.55874 -2.12132 2.12132 
C -1.55874 2.683901 -0.795609 3 0 3 
z
" id="m3f3d03933f" style="stroke:#777777;stroke-opacity:0.4;"/>
    </defs>
    <g clip-path="url(#pee59e76592)">
     <use style="fill:#777777;fill-opacity:0.4;stroke:#777777;stroke-opacity:0.4;" x="576.790007" xlink:href="#m3f3d03933f" y="263.785208"/>
    </g>
   </g>
   <g id="line2d_68">
    <path clip-path="url(#pee59e76592)" d="M 68.900665 433 
L 68.900743 429.76435 
L 71.914922 391.781052 
L 73.422012 391.781052 
L 74.929102 385.667107 
L 77.943282 359.486898 
L 80.957461 364.06404 
L 82.464551 361.680001 
L 83.971641 355.566056 
L 85.478731 350.570599 
L 86.98582 350.570599 
L 88.49291 353.797755 
L 90 347.683809 
L 91.50709 343.85445 
L 93.01418 342.688352 
L 96.028359 345.072391 
L 97.535449 346.347 
L 99.042539 345.072391 
L 102.056718 345.072391 
L 103.563808 347.683809 
L 106.577988 345.072391 
L 108.085078 341.569864 
L 109.592167 342.688352 
L 111.099257 342.688352 
L 112.606347 340.49525 
L 114.113437 337.503281 
L 115.620527 336.574407 
L 117.127616 336.574407 
L 118.634706 339.461196 
L 120.141796 338.464754 
L 123.155976 338.464754 
L 124.663065 339.461196 
L 127.677245 337.503281 
L 129.184335 334.806106 
L 130.691425 334.806106 
L 132.198515 332.350808 
L 133.705604 333.145042 
L 135.212694 332.350808 
L 136.719784 332.350808 
L 138.226874 333.145042 
L 139.733964 333.145042 
L 141.241053 331.57895 
L 142.748143 333.962988 
L 144.255233 333.962988 
L 145.762323 333.145042 
L 150.283592 333.145042 
L 151.790682 333.962988 
L 153.297772 333.962988 
L 154.804862 332.350808 
L 156.311951 333.145042 
L 157.819041 333.145042 
L 160.833221 331.57895 
L 162.340311 331.57895 
L 165.35449 333.145042 
L 166.86158 333.145042 
L 168.36867 332.350808 
L 169.87576 333.145042 
L 171.382849 333.145042 
L 172.889939 331.57895 
L 174.397029 329.385847 
L 175.904119 328.692161 
L 177.411209 328.692161 
L 178.918298 329.385847 
L 180.425388 328.692161 
L 181.932478 329.385847 
L 183.439568 331.57895 
L 186.453747 331.57895 
L 187.960837 330.097554 
L 190.975017 328.692161 
L 192.482107 330.097554 
L 193.989196 329.385847 
L 195.496286 329.385847 
L 197.003376 330.097554 
L 198.510466 331.57895 
L 200.017556 331.57895 
L 201.524646 333.145042 
L 203.031735 330.828241 
L 206.045915 332.350808 
L 207.553005 331.57895 
L 209.060095 330.097554 
L 210.567184 329.385847 
L 212.074274 328.015604 
L 213.581364 328.692161 
L 216.595544 326.080742 
L 218.102633 325.465005 
L 219.609723 326.080742 
L 221.116813 327.355351 
L 222.623903 328.015604 
L 224.130993 328.015604 
L 225.638082 329.385847 
L 230.159352 331.57895 
L 231.666442 330.828241 
L 234.680621 332.350808 
L 236.187711 332.350808 
L 237.694801 333.962988 
L 239.201891 333.962988 
L 240.70898 333.145042 
L 242.21607 333.962988 
L 243.72316 332.350808 
L 246.73734 332.350808 
L 248.244429 331.57895 
L 251.258609 333.145042 
L 252.765699 332.350808 
L 254.272789 333.962988 
L 257.286968 333.962988 
L 260.301148 337.503281 
L 261.808238 339.461196 
L 263.315327 342.688352 
L 264.822417 345.072391 
L 266.329507 347.683809 
L 267.836597 350.570599 
L 270.850777 350.570599 
L 273.864956 347.683809 
L 275.372046 350.570599 
L 276.879136 343.85445 
L 279.893315 341.569864 
L 281.400405 339.461196 
L 284.414585 337.503281 
L 285.921675 333.145042 
L 287.428764 334.806106 
L 288.935854 333.962988 
L 290.442944 332.350808 
L 294.964213 332.350808 
L 296.471303 333.145042 
L 297.978393 333.145042 
L 299.485483 332.350808 
L 300.992573 333.145042 
L 307.020932 333.145042 
L 308.528022 332.350808 
L 313.049291 332.350808 
L 316.063471 330.828241 
L 317.57056 329.385847 
L 319.07765 329.385847 
L 320.58474 328.692161 
L 322.09183 328.692161 
L 323.59892 328.015604 
L 325.106009 329.385847 
L 326.613099 332.350808 
L 328.120189 334.806106 
L 329.627279 336.574407 
L 331.134369 337.503281 
L 332.641458 336.574407 
L 334.148548 337.503281 
L 335.655638 335.675994 
L 338.669818 330.828241 
L 340.176907 330.097554 
L 341.683997 330.828241 
L 347.712357 330.828241 
L 349.219446 330.097554 
L 350.726536 333.962988 
L 352.233626 328.692161 
L 353.740716 328.692161 
L 355.247806 328.015604 
L 358.261985 328.015604 
L 359.769075 333.145042 
L 361.276165 325.465005 
L 362.783255 329.385847 
L 367.304524 331.57895 
L 368.811614 331.57895 
L 370.318704 328.692161 
L 371.825793 333.962988 
L 376.347063 336.574407 
L 377.854153 337.503281 
L 379.361242 342.688352 
L 380.868332 338.464754 
L 388.403781 338.464754 
L 389.910871 334.806106 
L 391.417961 339.461196 
L 392.925051 338.464754 
L 394.43214 338.464754 
L 398.95341 341.569864 
L 400.4605 342.688352 
L 401.967589 342.688352 
L 403.474679 345.072391 
L 404.981769 345.072391 
L 406.488859 342.688352 
L 407.995949 339.461196 
L 409.503038 337.503281 
L 411.010128 334.806106 
L 412.517218 332.350808 
L 414.024308 329.385847 
L 415.531398 327.355351 
L 417.038488 326.080742 
L 418.545577 325.465005 
L 420.052667 324.273549 
L 421.559757 323.696704 
L 423.066847 322.578215 
L 424.573937 322.578215 
L 427.588116 321.503601 
L 429.095206 321.503601 
L 430.602296 320.469548 
L 432.109386 319.966797 
L 433.616475 320.469548 
L 435.123565 319.966797 
L 436.630655 320.469548 
L 438.137745 320.469548 
L 439.644835 319.966797 
L 441.151924 320.981696 
L 447.180284 318.988151 
L 448.687373 319.473105 
L 450.194463 319.473105 
L 451.701553 318.988151 
L 453.208643 319.473105 
L 456.222822 319.473105 
L 459.237002 317.582758 
L 460.744092 317.129869 
L 462.251182 317.129869 
L 463.758271 316.684345 
L 465.265361 316.684345 
L 471.29372 318.511632 
L 472.80081 318.043259 
L 474.3079 318.043259 
L 477.32208 317.129869 
L 478.829169 317.129869 
L 481.843349 315.389656 
L 483.350439 314.97134 
L 487.871708 314.97134 
L 489.378798 314.559314 
L 490.885888 314.559314 
L 493.900068 315.389656 
L 496.914247 315.389656 
L 498.421337 314.97134 
L 501.435517 315.814457 
L 502.942606 315.814457 
L 505.956786 314.97134 
L 507.463876 314.97134 
L 508.970966 315.389656 
L 510.478055 315.389656 
L 511.985145 314.97134 
L 513.492235 314.97134 
L 516.506415 315.814457 
L 518.013504 314.97134 
L 519.520594 314.559314 
L 522.534774 314.559314 
L 527.056043 313.35916 
L 528.563133 313.753399 
L 530.070223 313.753399 
L 531.577313 313.35916 
L 539.112762 315.389656 
L 540.619851 315.389656 
L 542.126941 315.814457 
L 543.634031 315.814457 
L 545.141121 315.389656 
L 546.648211 315.389656 
L 548.1553 314.97134 
L 552.67657 314.97134 
L 552.67657 314.97134 
" style="fill:none;stroke:#fbc15e;stroke-linecap:square;stroke-opacity:0.4;stroke-width:2;"/>
   </g>
   <g id="line2d_69">
    <defs>
     <path d="M 0 3 
C 0.795609 3 1.55874 2.683901 2.12132 2.12132 
C 2.683901 1.55874 3 0.795609 3 0 
C 3 -0.795609 2.683901 -1.55874 2.12132 -2.12132 
C 1.55874 -2.683901 0.795609 -3 0 -3 
C -0.795609 -3 -1.55874 -2.683901 -2.12132 -2.12132 
C -2.683901 -1.55874 -3 -0.795609 -3 0 
C -3 0.795609 -2.683901 1.55874 -2.12132 2.12132 
C -1.55874 2.683901 -0.795609 3 0 3 
z
" id="m93f533a106" style="stroke:#fbc15e;stroke-opacity:0.4;"/>
    </defs>
    <g clip-path="url(#pee59e76592)">
     <use style="fill:#fbc15e;fill-opacity:0.4;stroke:#fbc15e;stroke-opacity:0.4;" x="552.67657" xlink:href="#m93f533a106" y="314.97134"/>
    </g>
   </g>
   <g id="line2d_70">
    <path clip-path="url(#pee59e76592)" d="M 73.421877 433 
L 73.422012 427.357339 
L 76.436192 427.357339 
L 77.943282 408.36569 
L 79.450371 408.36569 
L 80.957461 397.256287 
L 82.464551 389.374041 
L 83.971641 397.256287 
L 85.478731 364.268447 
L 86.98582 359.27299 
L 90 359.27299 
L 91.50709 340.281341 
L 93.01418 340.281341 
L 94.521269 328.42123 
L 96.028359 324.303624 
L 97.535449 314.277333 
L 99.042539 305.956691 
L 100.549629 299.583036 
L 102.056718 302.584948 
L 103.563808 295.06561 
L 105.070898 290.070153 
L 106.577988 285.535197 
L 109.592167 281.915276 
L 111.099257 277.306851 
L 112.606347 270.091848 
L 114.113437 268.05506 
L 115.620527 267.249144 
L 117.127616 266.083047 
L 118.634706 263.059603 
L 120.141796 262.187586 
L 121.648886 262.788322 
L 123.155976 264.030814 
L 124.663065 262.720919 
L 126.170155 262.386371 
L 127.677245 262.452955 
L 129.184335 265.332338 
L 130.691425 263.81978 
L 132.198515 265.111078 
L 133.705604 266.621056 
L 135.212694 267.328678 
L 136.719784 268.219127 
L 138.226874 268.885401 
L 139.733964 268.301531 
L 141.241053 272.292294 
L 142.748143 271.913061 
L 144.255233 270.715596 
L 145.762323 273.965293 
L 147.269413 274.169005 
L 148.776502 274.78939 
L 150.283592 278.239678 
L 151.790682 279.952683 
L 153.297772 277.65295 
L 156.311951 281.245336 
L 157.819041 283.88324 
L 159.326131 287.458734 
L 160.833221 287.792874 
L 162.340311 289.707245 
L 163.8474 296.413381 
L 165.35449 302.298043 
L 166.86158 304.372483 
L 168.36867 309.802364 
L 169.87576 311.346387 
L 171.382849 311.746382 
L 172.889939 310.563501 
L 174.397029 314.722858 
L 175.904119 310.18029 
L 177.411209 312.982644 
L 178.918298 314.277333 
L 181.932478 320.724741 
L 183.439568 321.289692 
L 184.946658 325.608592 
L 186.453747 340.281341 
L 187.960837 342.665379 
L 189.467927 338.088238 
L 190.975017 339.162853 
L 192.482107 338.088238 
L 193.989196 339.162853 
L 195.496286 337.054185 
L 197.003376 340.281341 
L 198.510466 339.162853 
L 200.017556 343.939989 
L 201.524646 351.390743 
L 203.031735 355.049391 
L 204.538825 355.049391 
L 206.045915 374.04104 
L 207.553005 383.260096 
L 209.060095 389.374041 
L 210.567184 408.36569 
L 213.581364 408.36569 
L 215.088454 427.357339 
L 216.595544 397.256287 
L 218.102633 355.049391 
L 221.116813 351.390743 
L 222.623903 349.72968 
L 225.638082 349.72968 
L 227.145172 351.390743 
L 228.652262 345.276798 
L 230.159352 345.276798 
L 233.173531 348.163587 
L 236.187711 348.163587 
L 237.694801 349.72968 
L 239.201891 408.36569 
L 242.21607 408.36569 
L 243.72316 378.264639 
L 248.244429 378.264639 
L 249.751519 374.04104 
L 252.765699 374.04104 
L 254.272789 397.256287 
L 260.301148 397.256287 
L 261.808238 427.357339 
L 264.822417 427.357339 
L 266.329507 397.256287 
L 269.343687 397.256287 
L 270.850777 408.36569 
L 272.357866 408.36569 
L 273.864956 397.256287 
L 275.372046 397.256287 
L 276.879136 427.357339 
L 278.386226 427.357339 
L 279.893315 397.256287 
L 281.400405 389.374041 
L 282.907495 389.374041 
L 284.414585 378.264639 
L 285.921675 370.382392 
L 288.935854 370.382392 
L 290.442944 374.04104 
L 291.950034 378.264639 
L 293.457124 374.04104 
L 294.964213 383.260096 
L 296.471303 389.374041 
L 299.485483 389.374041 
L 300.992573 397.256287 
L 302.499662 397.256287 
L 304.006752 383.260096 
L 310.035111 383.260096 
L 311.542201 378.264639 
L 313.049291 367.155236 
L 314.556381 374.04104 
L 316.063471 378.264639 
L 317.57056 383.260096 
L 320.58474 383.260096 
L 322.09183 389.374041 
L 323.59892 408.36569 
L 325.106009 383.260096 
L 326.613099 374.04104 
L 328.120189 367.155236 
L 329.627279 367.155236 
L 331.134369 364.268447 
L 334.148548 364.268447 
L 337.162728 383.260096 
L 338.669818 389.374041 
L 340.176907 383.260096 
L 341.683997 389.374041 
L 343.191087 383.260096 
L 344.698177 367.155236 
L 346.205267 370.382392 
L 347.712357 364.268447 
L 349.219446 367.155236 
L 350.726536 370.382392 
L 353.740716 370.382392 
L 355.247806 374.04104 
L 356.754895 370.382392 
L 358.261985 374.04104 
L 361.276165 374.04104 
L 362.783255 370.382392 
L 364.290344 361.657028 
L 365.797434 364.268447 
L 367.304524 345.276798 
L 368.811614 342.665379 
L 370.318704 339.162853 
L 371.825793 339.162853 
L 373.332883 340.281341 
L 376.347063 338.088238 
L 377.854153 343.939989 
L 379.361242 346.682191 
L 383.882512 346.682191 
L 385.389602 353.159044 
L 386.896691 353.159044 
L 389.910871 357.079887 
L 391.417961 361.657028 
L 394.43214 357.079887 
L 395.93923 357.079887 
L 397.44632 359.27299 
L 398.95341 370.382392 
L 400.4605 357.079887 
L 401.967589 357.079887 
L 404.981769 361.657028 
L 406.488859 348.163587 
L 409.503038 337.054185 
L 411.010128 336.057742 
L 412.517218 330.738031 
L 414.024308 330.738031 
L 415.531398 329.943797 
L 417.038488 324.94834 
L 418.545577 324.94834 
L 418.548161 433 
M 429.094616 433 
L 429.095206 408.36569 
L 430.602296 296.413381 
L 432.109386 289.349081 
L 433.616475 280.851097 
L 435.123565 280.079239 
L 436.630655 276.852083 
L 438.137745 271.725394 
L 439.644835 268.969836 
L 441.151924 263.402526 
L 442.659014 261.342467 
L 444.166104 261.024239 
L 445.673194 259.847597 
L 447.180284 260.213738 
L 448.687373 257.192129 
L 450.194463 254.872354 
L 451.701553 254.075231 
L 453.208643 252.640392 
L 454.715733 251.859475 
L 457.729912 252.224194 
L 459.237002 250.576633 
L 460.744092 249.851632 
L 462.251182 249.809577 
L 465.265361 248.778636 
L 466.772451 248.65749 
L 468.279541 248.376882 
L 469.786631 248.416793 
L 471.29372 250.147842 
L 472.80081 250.837165 
L 474.3079 250.750046 
L 475.81499 253.06301 
L 477.32208 252.547356 
L 478.829169 252.362226 
L 480.336259 252.408391 
L 481.843349 250.663202 
L 484.857529 248.981745 
L 486.364619 247.015395 
L 487.871708 247.746082 
L 489.378798 247.902426 
L 490.885888 248.65749 
L 492.392978 249.767586 
L 493.900068 249.268649 
L 495.407157 250.19042 
L 496.914247 250.53345 
L 498.421337 249.809577 
L 499.928427 250.490336 
L 501.435517 249.516982 
L 502.942606 248.941002 
L 505.956786 249.351177 
L 507.463876 250.619883 
L 508.970966 250.924563 
L 510.478055 250.447289 
L 511.985145 250.880829 
L 513.492235 249.55859 
L 514.999325 249.893752 
L 516.506415 251.589086 
L 518.013504 252.178338 
L 519.520594 252.500956 
L 521.027684 252.640392 
L 522.534774 252.96853 
L 524.041864 253.540359 
L 525.548953 253.733652 
L 527.056043 254.620753 
L 528.563133 254.721116 
L 530.070223 255.177357 
L 531.577313 255.126286 
L 533.084402 254.173612 
L 534.591492 255.745503 
L 536.098582 256.272426 
L 537.605672 255.331141 
L 539.112762 255.693364 
L 542.126941 256.007698 
L 543.634031 260.213738 
L 545.141121 259.847597 
L 546.648211 262.386371 
L 548.1553 262.653682 
L 549.66239 262.121643 
L 551.16948 261.729286 
L 552.67657 262.187586 
L 554.18366 261.342467 
L 555.690749 263.960289 
L 557.197839 262.991531 
L 558.704929 264.243486 
L 560.212019 264.030814 
L 561.719109 264.964559 
L 563.226199 264.386191 
L 564.733288 266.543548 
L 567.747468 267.973393 
L 569.254558 267.891969 
L 570.761648 269.310203 
L 572.268737 269.310203 
L 573.775827 269.654851 
L 575.282917 270.535929 
L 576.790007 272.483897 
L 578.297097 273.965293 
L 579.804186 276.294036 
L 581.311276 278.358547 
L 582.818366 277.65295 
L 584.325456 278.121323 
L 585.832546 282.325246 
L 587.339635 282.463277 
L 588.846725 284.922899 
L 590.353815 286.16149 
L 591.860905 287.792874 
L 596.382174 287.792874 
L 596.382174 287.792874 
" style="fill:none;stroke:#8eba42;stroke-linecap:square;stroke-opacity:0.4;stroke-width:2;"/>
   </g>
   <g id="line2d_71">
    <defs>
     <path d="M 0 3 
C 0.795609 3 1.55874 2.683901 2.12132 2.12132 
C 2.683901 1.55874 3 0.795609 3 0 
C 3 -0.795609 2.683901 -1.55874 2.12132 -2.12132 
C 1.55874 -2.683901 0.795609 -3 0 -3 
C -0.795609 -3 -1.55874 -2.683901 -2.12132 -2.12132 
C -2.683901 -1.55874 -3 -0.795609 -3 0 
C -3 0.795609 -2.683901 1.55874 -2.12132 2.12132 
C -1.55874 2.683901 -0.795609 3 0 3 
z
" id="m50d50ebea9" style="stroke:#8eba42;stroke-opacity:0.4;"/>
    </defs>
    <g clip-path="url(#pee59e76592)">
     <use style="fill:#8eba42;fill-opacity:0.4;stroke:#8eba42;stroke-opacity:0.4;" x="596.382174" xlink:href="#m50d50ebea9" y="287.792874"/>
    </g>
   </g>
   <g id="line2d_72">
    <path clip-path="url(#pee59e76592)" d="M 93.011766 433 
L 93.01418 432.984955 
L 94.521269 428.137202 
L 96.028359 425.324565 
L 97.535449 420.440714 
L 99.042539 408.777774 
L 100.549629 399.299009 
L 102.056718 387.847112 
L 103.563808 378.92136 
L 105.070898 368.940686 
L 106.577988 361.771831 
L 108.085078 355.829255 
L 111.099257 341.122984 
L 114.113437 326.678974 
L 117.127616 313.310553 
L 118.634706 308.259122 
L 120.141796 303.812765 
L 121.648886 297.752751 
L 124.663065 287.229656 
L 126.170155 283.593186 
L 129.184335 277.115735 
L 130.691425 274.12686 
L 132.198515 270.406608 
L 133.705604 268.420292 
L 136.719784 265.367877 
L 138.226874 264.309523 
L 141.241053 263.489869 
L 142.748143 263.721826 
L 144.255233 262.908628 
L 147.269413 263.207606 
L 148.776502 263.442622 
L 150.283592 263.22201 
L 151.790682 262.794909 
L 153.297772 262.672832 
L 154.804862 262.919313 
L 156.311951 262.356907 
L 157.819041 262.215921 
L 159.326131 262.711696 
L 160.833221 263.791614 
L 162.340311 265.187331 
L 163.8474 265.819564 
L 165.35449 265.718763 
L 166.86158 266.054223 
L 168.36867 266.662063 
L 169.87576 266.664105 
L 171.382849 267.123325 
L 172.889939 267.403018 
L 174.397029 267.260728 
L 175.904119 267.609391 
L 177.411209 268.409408 
L 178.918298 268.678426 
L 181.932478 269.531161 
L 183.439568 270.294469 
L 186.453747 273.388764 
L 189.467927 273.953117 
L 190.975017 274.684885 
L 192.482107 275.095708 
L 193.989196 274.586543 
L 195.496286 274.97928 
L 197.003376 275.608852 
L 198.510466 277.368097 
L 200.017556 278.675495 
L 201.524646 278.968299 
L 203.031735 279.530783 
L 204.538825 281.669777 
L 206.045915 284.678864 
L 209.060095 284.916362 
L 210.567184 285.284571 
L 212.074274 286.094216 
L 213.581364 285.743706 
L 215.088454 284.856794 
L 216.595544 283.566683 
L 218.102633 285.438114 
L 219.609723 285.994793 
L 222.623903 288.324003 
L 224.130993 289.477967 
L 225.638082 290.820412 
L 227.145172 291.252843 
L 228.652262 291.855603 
L 230.159352 292.766823 
L 231.666442 293.102425 
L 233.173531 292.62951 
L 236.187711 293.962632 
L 237.694801 294.481878 
L 242.21607 297.336745 
L 243.72316 298.43439 
L 245.23025 298.545304 
L 246.73734 298.532232 
L 248.244429 298.940396 
L 249.751519 298.755311 
L 251.258609 299.754926 
L 252.765699 299.871329 
L 254.272789 300.531079 
L 257.286968 300.566247 
L 258.794058 301.53325 
L 260.301148 301.966825 
L 261.808238 300.636718 
L 263.315327 300.51 
L 264.822417 301.981643 
L 266.329507 301.892853 
L 267.836597 302.048425 
L 269.343687 298.149384 
L 270.850777 297.199468 
L 272.357866 295.468928 
L 273.864956 294.549599 
L 275.372046 292.273604 
L 276.879136 291.428753 
L 278.386226 291.122894 
L 279.893315 292.498124 
L 281.400405 291.896604 
L 282.907495 292.17498 
L 284.414585 291.621028 
L 285.921675 290.884596 
L 287.428764 290.869771 
L 288.935854 290.288088 
L 290.442944 289.379535 
L 291.950034 288.243086 
L 293.457124 287.683266 
L 294.964213 286.84308 
L 297.978393 286.575686 
L 299.485483 284.233212 
L 302.499662 282.512453 
L 305.513842 281.549976 
L 307.020932 280.807726 
L 308.528022 281.169402 
L 310.035111 283.202032 
L 311.542201 283.190831 
L 313.049291 283.3368 
L 314.556381 283.276821 
L 317.57056 283.408196 
L 319.07765 282.96777 
L 320.58474 282.97888 
L 322.09183 284.202209 
L 323.59892 283.767994 
L 325.106009 284.466862 
L 326.613099 284.063127 
L 328.120189 284.252607 
L 329.627279 284.070835 
L 331.134369 284.400459 
L 332.641458 283.442081 
L 334.148548 284.171241 
L 335.655638 284.036165 
L 337.162728 285.059855 
L 338.669818 285.264432 
L 340.176907 285.731417 
L 341.683997 285.825777 
L 343.191087 286.102517 
L 344.698177 286.550356 
L 346.205267 286.46609 
L 347.712357 286.958481 
L 349.219446 287.27728 
L 350.726536 287.377127 
L 352.233626 286.988479 
L 355.247806 288.463921 
L 356.754895 288.70024 
L 358.261985 288.732208 
L 359.769075 289.332787 
L 361.276165 289.431051 
L 362.783255 290.643452 
L 364.290344 293.676534 
L 365.797434 293.075639 
L 367.304524 293.868771 
L 368.811614 292.555856 
L 370.318704 292.904827 
L 371.825793 292.979427 
L 373.332883 292.289208 
L 374.839973 288.328505 
L 376.347063 289.123401 
L 377.854153 289.300111 
L 379.361242 290.677772 
L 380.868332 290.633654 
L 382.375422 291.413631 
L 383.882512 291.408592 
L 385.389602 292.713929 
L 386.896691 292.143909 
L 388.403781 291.901734 
L 389.910871 291.845362 
L 392.925051 291.338144 
L 394.43214 291.753367 
L 397.44632 293.306857 
L 398.95341 293.632783 
L 400.4605 293.583646 
L 401.967589 294.051267 
L 403.474679 293.676534 
L 404.981769 293.000778 
L 406.488859 294.045718 
L 407.995949 294.173609 
L 409.503038 293.534597 
L 411.010128 293.371733 
L 412.517218 293.665589 
L 414.024308 293.236748 
L 415.531398 293.791714 
L 417.038488 293.247522 
L 418.545577 292.872918 
L 420.052667 293.616394 
L 421.559757 293.830215 
L 423.066847 293.193693 
L 424.573937 293.118509 
L 426.081026 292.618976 
L 427.588116 291.983937 
L 429.095206 290.993559 
L 432.109386 290.712134 
L 433.616475 289.775402 
L 435.123565 289.98985 
L 438.137745 289.520261 
L 439.644835 290.321965 
L 442.659014 289.356151 
L 444.166104 289.652259 
L 447.180284 289.318778 
L 448.687373 286.617956 
L 450.194463 286.16902 
L 454.715733 284.314763 
L 456.222822 284.016923 
L 457.729912 283.449616 
L 459.237002 284.186721 
L 460.744092 282.941864 
L 462.251182 282.823748 
L 463.758271 282.96777 
L 465.265361 281.985877 
L 466.772451 281.339832 
L 468.279541 281.075942 
L 469.786631 280.03178 
L 471.29372 278.599623 
L 472.80081 276.09143 
L 474.3079 274.094701 
L 478.829169 272.391762 
L 481.843349 270.399586 
L 483.350439 272.163675 
L 484.857529 273.211844 
L 486.364619 273.931809 
L 487.871708 273.945125 
L 489.378798 273.349639 
L 492.392978 271.115666 
L 493.900068 267.482856 
L 495.407157 265.183461 
L 496.914247 263.353802 
L 499.928427 262.383095 
L 501.435517 262.356907 
L 502.942606 261.838328 
L 504.449696 261.814366 
L 505.956786 260.586534 
L 507.463876 260.442954 
L 508.970966 260.029496 
L 510.478055 259.949466 
L 514.999325 257.596878 
L 516.506415 258.397584 
L 518.013504 258.09121 
L 519.520594 257.952668 
L 522.534774 257.095461 
L 524.041864 257.447675 
L 525.548953 258.225953 
L 527.056043 260.73087 
L 528.563133 262.082566 
L 530.070223 262.512659 
L 531.577313 262.428548 
L 534.591492 261.331063 
L 536.098582 260.438073 
L 537.605672 259.20528 
L 539.112762 258.158499 
L 540.619851 258.047934 
L 542.126941 257.814824 
L 543.634031 257.754273 
L 545.141121 257.490013 
L 546.648211 256.680964 
L 548.1553 253.942814 
L 549.66239 252.872891 
L 551.16948 252.241987 
L 552.67657 252.270955 
L 554.18366 251.354161 
L 557.197839 251.250413 
L 558.704929 251.489974 
L 560.212019 251.342484 
L 561.719109 251.411448 
L 563.226199 252.106005 
L 564.733288 254.272112 
L 566.240378 253.747119 
L 567.747468 253.456803 
L 572.268737 253.5718 
L 573.775827 252.958202 
L 575.282917 251.343651 
L 576.790007 251.845559 
L 579.804186 252.280618 
L 581.311276 252.999097 
L 582.818366 252.986698 
L 584.325456 252.861783 
L 585.832546 253.533836 
L 587.339635 253.613622 
L 588.846725 253.93383 
L 590.353815 253.906896 
L 591.860905 254.065032 
L 594.875084 255.323559 
L 596.382174 255.852422 
L 597.889264 256.622865 
L 599.396354 256.464782 
L 600.903444 254.014792 
L 605.424713 254.014792 
L 605.424713 254.014792 
" style="fill:none;stroke:#ffb5b8;stroke-linecap:square;stroke-opacity:0.4;stroke-width:2;"/>
   </g>
   <g id="line2d_73">
    <defs>
     <path d="M 0 3 
C 0.795609 3 1.55874 2.683901 2.12132 2.12132 
C 2.683901 1.55874 3 0.795609 3 0 
C 3 -0.795609 2.683901 -1.55874 2.12132 -2.12132 
C 1.55874 -2.683901 0.795609 -3 0 -3 
C -0.795609 -3 -1.55874 -2.683901 -2.12132 -2.12132 
C -2.683901 -1.55874 -3 -0.795609 -3 0 
C -3 0.795609 -2.683901 1.55874 -2.12132 2.12132 
C -1.55874 2.683901 -0.795609 3 0 3 
z
" id="m2e583f576a" style="stroke:#ffb5b8;stroke-opacity:0.4;"/>
    </defs>
    <g clip-path="url(#pee59e76592)">
     <use style="fill:#ffb5b8;fill-opacity:0.4;stroke:#ffb5b8;stroke-opacity:0.4;" x="605.424713" xlink:href="#m2e583f576a" y="254.014792"/>
    </g>
   </g>
   <g id="patch_3">
    <path d="M 90 378 
L 90 229.745455 
" style="fill:none;stroke:#ffffff;stroke-linecap:square;stroke-linejoin:miter;"/>
   </g>
   <g id="patch_4">
    <path d="M 648 378 
L 648 229.745455 
" style="fill:none;stroke:#ffffff;stroke-linecap:square;stroke-linejoin:miter;"/>
   </g>
   <g id="patch_5">
    <path d="M 90 378 
L 648 378 
" style="fill:none;stroke:#ffffff;stroke-linecap:square;stroke-linejoin:miter;"/>
   </g>
   <g id="patch_6">
    <path d="M 90 229.745455 
L 648 229.745455 
" style="fill:none;stroke:#ffffff;stroke-linecap:square;stroke-linejoin:miter;"/>
   </g>
   <g id="text_17">
    <text style="font-family:DejaVu Sans;font-size:10px;font-stretch:normal;font-style:normal;font-weight:normal;text-anchor:start;" transform="rotate(-0, 618.988521, 368.914217)" x="618.988521" y="368.914217">Korea, South</text>
   </g>
   <g id="text_18">
    <text style="font-family:DejaVu Sans;font-size:10px;font-stretch:normal;font-style:normal;font-weight:normal;text-anchor:start;" transform="rotate(-0, 599.396354, 266.384241)" x="599.396354" y="266.384241">Germany</text>
   </g>
   <g id="text_19">
    <text style="font-family:DejaVu Sans;font-size:10px;font-stretch:normal;font-style:normal;font-weight:normal;text-anchor:start;" transform="rotate(-0, 579.804186, 263.785208)" x="579.804186" y="263.785208">Poland</text>
   </g>
   <g id="text_20">
    <text style="font-family:DejaVu Sans;font-size:10px;font-stretch:normal;font-style:normal;font-weight:normal;text-anchor:start;" transform="rotate(-0, 555.690749, 314.97134)" x="555.690749" y="314.97134">Belarus</text>
   </g>
   <g id="text_21">
    <text style="font-family:DejaVu Sans;font-size:10px;font-stretch:normal;font-style:normal;font-weight:normal;text-anchor:start;" transform="rotate(-0, 599.396354, 287.792874)" x="599.396354" y="287.792874">Switzerland</text>
   </g>
   <g id="text_22">
    <text style="font-family:DejaVu Sans;font-size:10px;font-stretch:normal;font-style:normal;font-weight:normal;text-anchor:start;" transform="rotate(-0, 608.438893, 254.014792)" x="608.438893" y="254.014792">US</text>
   </g>
  </g>
 </g>
 <defs>
  <clipPath id="pee59e76592">
   <rect height="148.254545" width="558" x="90" y="229.745455"/>
  </clipPath>
 </defs>
</svg>
