<?xml version="1.0" encoding="utf-8" standalone="no"?>
<!DOCTYPE svg PUBLIC "-//W3C//DTD SVG 1.1//EN"
  "http://www.w3.org/Graphics/SVG/1.1/DTD/svg11.dtd">
<!-- Created with matplotlib (https://matplotlib.org/) -->
<svg height="180pt" version="1.1" viewBox="0 0 864 180" width="864pt" xmlns="http://www.w3.org/2000/svg" xmlns:xlink="http://www.w3.org/1999/xlink">
 <metadata>
  <rdf:RDF xmlns:cc="http://creativecommons.org/ns#" xmlns:dc="http://purl.org/dc/elements/1.1/" xmlns:rdf="http://www.w3.org/1999/02/22-rdf-syntax-ns#">
   <cc:Work>
    <dc:type rdf:resource="http://purl.org/dc/dcmitype/StillImage"/>
    <dc:date>2021-02-13T22:48:31.907620</dc:date>
    <dc:format>image/svg+xml</dc:format>
    <dc:creator>
     <cc:Agent>
      <dc:title>Matplotlib v3.3.4, https://matplotlib.org/</dc:title>
     </cc:Agent>
    </dc:creator>
   </cc:Work>
  </rdf:RDF>
 </metadata>
 <defs>
  <style type="text/css">*{stroke-linecap:butt;stroke-linejoin:round;}</style>
 </defs>
 <g id="figure_1">
  <g id="patch_1">
   <path d="M 0 180 
L 864 180 
L 864 0 
L 0 0 
z
" style="fill:#ffffff;"/>
  </g>
  <g id="axes_1">
   <g id="patch_2">
    <path d="M 62.425 152.2 
L 797.45 152.2 
L 797.45 10.8 
L 62.425 10.8 
z
" style="fill:#e5e5e5;"/>
   </g>
   <g id="matplotlib.axis_1">
    <g id="xtick_1">
     <g id="line2d_1">
      <path clip-path="url(#pb71e4aa2b8)" d="M 162.171976 152.2 
L 162.171976 10.8 
" style="fill:none;stroke:#ffffff;stroke-linecap:square;stroke-width:0.8;"/>
     </g>
     <g id="line2d_2">
      <defs>
       <path d="M 0 0 
L 0 3.5 
" id="m8af12b5a81" style="stroke:#555555;stroke-width:0.8;"/>
      </defs>
      <g>
       <use style="fill:#555555;stroke:#555555;stroke-width:0.8;" x="162.171976" xlink:href="#m8af12b5a81" y="152.2"/>
      </g>
     </g>
     <g id="text_1">
      <text style="fill:#555555;font-family:DejaVu Sans;font-size:10px;font-stretch:normal;font-style:normal;font-weight:normal;text-anchor:middle;" transform="rotate(-0, 162.171976, 166.798438)" x="162.171976" y="166.798438">2020-03</text>
     </g>
    </g>
    <g id="xtick_2">
     <g id="line2d_3">
      <path clip-path="url(#pb71e4aa2b8)" d="M 267.550666 152.2 
L 267.550666 10.8 
" style="fill:none;stroke:#ffffff;stroke-linecap:square;stroke-width:0.8;"/>
     </g>
     <g id="line2d_4">
      <g>
       <use style="fill:#555555;stroke:#555555;stroke-width:0.8;" x="267.550666" xlink:href="#m8af12b5a81" y="152.2"/>
      </g>
     </g>
     <g id="text_2">
      <text style="fill:#555555;font-family:DejaVu Sans;font-size:10px;font-stretch:normal;font-style:normal;font-weight:normal;text-anchor:middle;" transform="rotate(-0, 267.550666, 166.798438)" x="267.550666" y="166.798438">2020-05</text>
     </g>
    </g>
    <g id="xtick_3">
     <g id="line2d_5">
      <path clip-path="url(#pb71e4aa2b8)" d="M 372.929356 152.2 
L 372.929356 10.8 
" style="fill:none;stroke:#ffffff;stroke-linecap:square;stroke-width:0.8;"/>
     </g>
     <g id="line2d_6">
      <g>
       <use style="fill:#555555;stroke:#555555;stroke-width:0.8;" x="372.929356" xlink:href="#m8af12b5a81" y="152.2"/>
      </g>
     </g>
     <g id="text_3">
      <text style="fill:#555555;font-family:DejaVu Sans;font-size:10px;font-stretch:normal;font-style:normal;font-weight:normal;text-anchor:middle;" transform="rotate(-0, 372.929356, 166.798438)" x="372.929356" y="166.798438">2020-07</text>
     </g>
    </g>
    <g id="xtick_4">
     <g id="line2d_7">
      <path clip-path="url(#pb71e4aa2b8)" d="M 480.035566 152.2 
L 480.035566 10.8 
" style="fill:none;stroke:#ffffff;stroke-linecap:square;stroke-width:0.8;"/>
     </g>
     <g id="line2d_8">
      <g>
       <use style="fill:#555555;stroke:#555555;stroke-width:0.8;" x="480.035566" xlink:href="#m8af12b5a81" y="152.2"/>
      </g>
     </g>
     <g id="text_4">
      <text style="fill:#555555;font-family:DejaVu Sans;font-size:10px;font-stretch:normal;font-style:normal;font-weight:normal;text-anchor:middle;" transform="rotate(-0, 480.035566, 166.798438)" x="480.035566" y="166.798438">2020-09</text>
     </g>
    </g>
    <g id="xtick_5">
     <g id="line2d_9">
      <path clip-path="url(#pb71e4aa2b8)" d="M 585.414256 152.2 
L 585.414256 10.8 
" style="fill:none;stroke:#ffffff;stroke-linecap:square;stroke-width:0.8;"/>
     </g>
     <g id="line2d_10">
      <g>
       <use style="fill:#555555;stroke:#555555;stroke-width:0.8;" x="585.414256" xlink:href="#m8af12b5a81" y="152.2"/>
      </g>
     </g>
     <g id="text_5">
      <text style="fill:#555555;font-family:DejaVu Sans;font-size:10px;font-stretch:normal;font-style:normal;font-weight:normal;text-anchor:middle;" transform="rotate(-0, 585.414256, 166.798438)" x="585.414256" y="166.798438">2020-11</text>
     </g>
    </g>
    <g id="xtick_6">
     <g id="line2d_11">
      <path clip-path="url(#pb71e4aa2b8)" d="M 690.792946 152.2 
L 690.792946 10.8 
" style="fill:none;stroke:#ffffff;stroke-linecap:square;stroke-width:0.8;"/>
     </g>
     <g id="line2d_12">
      <g>
       <use style="fill:#555555;stroke:#555555;stroke-width:0.8;" x="690.792946" xlink:href="#m8af12b5a81" y="152.2"/>
      </g>
     </g>
     <g id="text_6">
      <text style="fill:#555555;font-family:DejaVu Sans;font-size:10px;font-stretch:normal;font-style:normal;font-weight:normal;text-anchor:middle;" transform="rotate(-0, 690.792946, 166.798438)" x="690.792946" y="166.798438">2021-01</text>
     </g>
    </g>
    <g id="xtick_7">
     <g id="line2d_13">
      <path clip-path="url(#pb71e4aa2b8)" d="M 792.716597 152.2 
L 792.716597 10.8 
" style="fill:none;stroke:#ffffff;stroke-linecap:square;stroke-width:0.8;"/>
     </g>
     <g id="line2d_14">
      <g>
       <use style="fill:#555555;stroke:#555555;stroke-width:0.8;" x="792.716597" xlink:href="#m8af12b5a81" y="152.2"/>
      </g>
     </g>
     <g id="text_7">
      <text style="fill:#555555;font-family:DejaVu Sans;font-size:10px;font-stretch:normal;font-style:normal;font-weight:normal;text-anchor:middle;" transform="rotate(-0, 792.716597, 166.798438)" x="792.716597" y="166.798438">2021-03</text>
     </g>
    </g>
   </g>
   <g id="matplotlib.axis_2">
    <g id="ytick_1">
     <g id="line2d_15">
      <path clip-path="url(#pb71e4aa2b8)" d="M 62.425 152.2 
L 797.45 152.2 
" style="fill:none;stroke:#ffffff;stroke-linecap:square;stroke-width:0.8;"/>
     </g>
     <g id="line2d_16">
      <defs>
       <path d="M 0 0 
L -3.5 0 
" id="m6d601d07a0" style="stroke:#555555;stroke-width:0.8;"/>
      </defs>
      <g>
       <use style="fill:#555555;stroke:#555555;stroke-width:0.8;" x="62.425" xlink:href="#m6d601d07a0" y="152.2"/>
      </g>
     </g>
     <g id="text_8">
      <text style="fill:#555555;font-family:DejaVu Sans;font-size:10px;font-stretch:normal;font-style:normal;font-weight:normal;text-anchor:end;" transform="rotate(-0, 55.425, 155.999219)" x="55.425" y="155.999219">0</text>
     </g>
    </g>
    <g id="ytick_2">
     <g id="line2d_17">
      <path clip-path="url(#pb71e4aa2b8)" d="M 62.425 131.298082 
L 797.45 131.298082 
" style="fill:none;stroke:#ffffff;stroke-linecap:square;stroke-width:0.8;"/>
     </g>
     <g id="line2d_18">
      <g>
       <use style="fill:#555555;stroke:#555555;stroke-width:0.8;" x="62.425" xlink:href="#m6d601d07a0" y="131.298082"/>
      </g>
     </g>
     <g id="text_9">
      <text style="fill:#555555;font-family:DejaVu Sans;font-size:10px;font-stretch:normal;font-style:normal;font-weight:normal;text-anchor:end;" transform="rotate(-0, 55.425, 135.097301)" x="55.425" y="135.097301">10</text>
     </g>
    </g>
    <g id="ytick_3">
     <g id="line2d_19">
      <path clip-path="url(#pb71e4aa2b8)" d="M 62.425 110.396164 
L 797.45 110.396164 
" style="fill:none;stroke:#ffffff;stroke-linecap:square;stroke-width:0.8;"/>
     </g>
     <g id="line2d_20">
      <g>
       <use style="fill:#555555;stroke:#555555;stroke-width:0.8;" x="62.425" xlink:href="#m6d601d07a0" y="110.396164"/>
      </g>
     </g>
     <g id="text_10">
      <text style="fill:#555555;font-family:DejaVu Sans;font-size:10px;font-stretch:normal;font-style:normal;font-weight:normal;text-anchor:end;" transform="rotate(-0, 55.425, 114.195383)" x="55.425" y="114.195383">20</text>
     </g>
    </g>
    <g id="ytick_4">
     <g id="line2d_21">
      <path clip-path="url(#pb71e4aa2b8)" d="M 62.425 89.494246 
L 797.45 89.494246 
" style="fill:none;stroke:#ffffff;stroke-linecap:square;stroke-width:0.8;"/>
     </g>
     <g id="line2d_22">
      <g>
       <use style="fill:#555555;stroke:#555555;stroke-width:0.8;" x="62.425" xlink:href="#m6d601d07a0" y="89.494246"/>
      </g>
     </g>
     <g id="text_11">
      <text style="fill:#555555;font-family:DejaVu Sans;font-size:10px;font-stretch:normal;font-style:normal;font-weight:normal;text-anchor:end;" transform="rotate(-0, 55.425, 93.293465)" x="55.425" y="93.293465">30</text>
     </g>
    </g>
    <g id="ytick_5">
     <g id="line2d_23">
      <path clip-path="url(#pb71e4aa2b8)" d="M 62.425 68.592328 
L 797.45 68.592328 
" style="fill:none;stroke:#ffffff;stroke-linecap:square;stroke-width:0.8;"/>
     </g>
     <g id="line2d_24">
      <g>
       <use style="fill:#555555;stroke:#555555;stroke-width:0.8;" x="62.425" xlink:href="#m6d601d07a0" y="68.592328"/>
      </g>
     </g>
     <g id="text_12">
      <text style="fill:#555555;font-family:DejaVu Sans;font-size:10px;font-stretch:normal;font-style:normal;font-weight:normal;text-anchor:end;" transform="rotate(-0, 55.425, 72.391547)" x="55.425" y="72.391547">40</text>
     </g>
    </g>
    <g id="ytick_6">
     <g id="line2d_25">
      <path clip-path="url(#pb71e4aa2b8)" d="M 62.425 47.69041 
L 797.45 47.69041 
" style="fill:none;stroke:#ffffff;stroke-linecap:square;stroke-width:0.8;"/>
     </g>
     <g id="line2d_26">
      <g>
       <use style="fill:#555555;stroke:#555555;stroke-width:0.8;" x="62.425" xlink:href="#m6d601d07a0" y="47.69041"/>
      </g>
     </g>
     <g id="text_13">
      <text style="fill:#555555;font-family:DejaVu Sans;font-size:10px;font-stretch:normal;font-style:normal;font-weight:normal;text-anchor:end;" transform="rotate(-0, 55.425, 51.489629)" x="55.425" y="51.489629">50</text>
     </g>
    </g>
    <g id="ytick_7">
     <g id="line2d_27">
      <path clip-path="url(#pb71e4aa2b8)" d="M 62.425 26.788492 
L 797.45 26.788492 
" style="fill:none;stroke:#ffffff;stroke-linecap:square;stroke-width:0.8;"/>
     </g>
     <g id="line2d_28">
      <g>
       <use style="fill:#555555;stroke:#555555;stroke-width:0.8;" x="62.425" xlink:href="#m6d601d07a0" y="26.788492"/>
      </g>
     </g>
     <g id="text_14">
      <text style="fill:#555555;font-family:DejaVu Sans;font-size:10px;font-stretch:normal;font-style:normal;font-weight:normal;text-anchor:end;" transform="rotate(-0, 55.425, 30.587711)" x="55.425" y="30.587711">60</text>
     </g>
    </g>
    <g id="text_15">
     <text style="fill:#555555;font-family:DejaVu Sans;font-size:12px;font-stretch:normal;font-style:normal;font-weight:normal;" transform="translate(22.767 119.859688)rotate(-90)">daily change</text>
     <text style="fill:#555555;font-family:DejaVu Sans;font-size:12px;font-stretch:normal;font-style:normal;font-weight:normal;" transform="translate(36.204375 143.985313)rotate(-90)">normalised per 100K</text>
    </g>
   </g>
   <g id="line2d_29">
    <defs>
     <path d="M 0 3 
C 0.795609 3 1.55874 2.683901 2.12132 2.12132 
C 2.683901 1.55874 3 0.795609 3 0 
C 3 -0.795609 2.683901 -1.55874 2.12132 -2.12132 
C 1.55874 -2.683901 0.795609 -3 0 -3 
C -0.795609 -3 -1.55874 -2.683901 -2.12132 -2.12132 
C -2.683901 -1.55874 -3 -0.795609 -3 0 
C -3 0.795609 -2.683901 1.55874 -2.12132 2.12132 
C -1.55874 2.683901 -0.795609 3 0 3 
z
" id="m83934172ed" style="stroke:#e24a33;stroke-opacity:0.001;"/>
    </defs>
    <g clip-path="url(#pb71e4aa2b8)">
     <use style="fill:#e24a33;fill-opacity:0.001;stroke:#e24a33;stroke-opacity:0.001;" x="429.9375" xlink:href="#m83934172ed" y="81.5"/>
    </g>
   </g>
   <g id="patch_3">
    <path d="M 62.425 152.2 
L 62.425 10.8 
" style="fill:none;stroke:#ffffff;stroke-linecap:square;stroke-linejoin:miter;"/>
   </g>
   <g id="patch_4">
    <path d="M 797.45 152.2 
L 797.45 10.8 
" style="fill:none;stroke:#ffffff;stroke-linecap:square;stroke-linejoin:miter;"/>
   </g>
   <g id="patch_5">
    <path d="M 62.425 152.2 
L 797.45 152.2 
" style="fill:none;stroke:#ffffff;stroke-linecap:square;stroke-linejoin:miter;"/>
   </g>
   <g id="patch_6">
    <path d="M 62.425 10.8 
L 797.45 10.8 
" style="fill:none;stroke:#ffffff;stroke-linecap:square;stroke-linejoin:miter;"/>
   </g>
  </g>
  <g id="axes_2">
   <g id="matplotlib.axis_3">
    <g id="ytick_8">
     <g id="line2d_30">
      <path clip-path="url(#pb71e4aa2b8)" d="M 62.425 152.2 
L 797.45 152.2 
" style="fill:none;stroke:#ffffff;stroke-linecap:square;stroke-width:0.8;"/>
     </g>
     <g id="line2d_31">
      <defs>
       <path d="M 0 0 
L 3.5 0 
" id="m0833b6f471" style="stroke:#555555;stroke-width:0.8;"/>
      </defs>
      <g>
       <use style="fill:#555555;stroke:#555555;stroke-width:0.8;" x="797.45" xlink:href="#m0833b6f471" y="152.2"/>
      </g>
     </g>
     <g id="text_16">
      <text style="fill:#555555;font-family:DejaVu Sans;font-size:10px;font-stretch:normal;font-style:normal;font-weight:normal;text-anchor:start;" transform="rotate(-0, 804.45, 155.999219)" x="804.45" y="155.999219">0</text>
     </g>
    </g>
    <g id="ytick_9">
     <g id="line2d_32">
      <path clip-path="url(#pb71e4aa2b8)" d="M 62.425 110.396164 
L 797.45 110.396164 
" style="fill:none;stroke:#ffffff;stroke-linecap:square;stroke-width:0.8;"/>
     </g>
     <g id="line2d_33">
      <g>
       <use style="fill:#555555;stroke:#555555;stroke-width:0.8;" x="797.45" xlink:href="#m0833b6f471" y="110.396164"/>
      </g>
     </g>
     <g id="text_17">
      <text style="fill:#555555;font-family:DejaVu Sans;font-size:10px;font-stretch:normal;font-style:normal;font-weight:normal;text-anchor:start;" transform="rotate(-0, 804.45, 114.195383)" x="804.45" y="114.195383">12092</text>
     </g>
    </g>
    <g id="ytick_10">
     <g id="line2d_34">
      <path clip-path="url(#pb71e4aa2b8)" d="M 62.425 68.592328 
L 797.45 68.592328 
" style="fill:none;stroke:#ffffff;stroke-linecap:square;stroke-width:0.8;"/>
     </g>
     <g id="line2d_35">
      <g>
       <use style="fill:#555555;stroke:#555555;stroke-width:0.8;" x="797.45" xlink:href="#m0833b6f471" y="68.592328"/>
      </g>
     </g>
     <g id="text_18">
      <text style="fill:#555555;font-family:DejaVu Sans;font-size:10px;font-stretch:normal;font-style:normal;font-weight:normal;text-anchor:start;" transform="rotate(-0, 804.45, 72.391547)" x="804.45" y="72.391547">24185</text>
     </g>
    </g>
    <g id="ytick_11">
     <g id="line2d_36">
      <path clip-path="url(#pb71e4aa2b8)" d="M 62.425 26.788492 
L 797.45 26.788492 
" style="fill:none;stroke:#ffffff;stroke-linecap:square;stroke-width:0.8;"/>
     </g>
     <g id="line2d_37">
      <g>
       <use style="fill:#555555;stroke:#555555;stroke-width:0.8;" x="797.45" xlink:href="#m0833b6f471" y="26.788492"/>
      </g>
     </g>
     <g id="text_19">
      <text style="fill:#555555;font-family:DejaVu Sans;font-size:10px;font-stretch:normal;font-style:normal;font-weight:normal;text-anchor:start;" transform="rotate(-0, 804.45, 30.587711)" x="804.45" y="30.587711">36277</text>
     </g>
    </g>
    <g id="text_20">
     <text style="fill:#555555;font-family:DejaVu Sans;font-size:12px;font-stretch:normal;font-style:normal;font-weight:normal;text-anchor:middle;" transform="rotate(-90, 849.380625, 81.5)" x="849.380625" y="81.5">daily change</text>
    </g>
   </g>
   <g id="patch_7">
    <path clip-path="url(#pb71e4aa2b8)" d="M 95.835227 152.2 
L 97.217243 152.2 
L 97.217243 152.2 
L 95.835227 152.2 
z
" style="fill:#348abd;opacity:0.2;"/>
   </g>
   <g id="patch_8">
    <path clip-path="url(#pb71e4aa2b8)" d="M 97.562747 152.2 
L 98.944762 152.2 
L 98.944762 152.2 
L 97.562747 152.2 
z
" style="fill:#348abd;opacity:0.2;"/>
   </g>
   <g id="patch_9">
    <path clip-path="url(#pb71e4aa2b8)" d="M 99.290266 152.2 
L 100.672282 152.2 
L 100.672282 152.2 
L 99.290266 152.2 
z
" style="fill:#348abd;opacity:0.2;"/>
   </g>
   <g id="patch_10">
    <path clip-path="url(#pb71e4aa2b8)" d="M 101.017786 152.2 
L 102.399801 152.2 
L 102.399801 152.2 
L 101.017786 152.2 
z
" style="fill:#348abd;opacity:0.2;"/>
   </g>
   <g id="patch_11">
    <path clip-path="url(#pb71e4aa2b8)" d="M 102.745305 152.2 
L 104.127321 152.2 
L 104.127321 152.2 
L 102.745305 152.2 
z
" style="fill:#348abd;opacity:0.2;"/>
   </g>
   <g id="patch_12">
    <path clip-path="url(#pb71e4aa2b8)" d="M 104.472825 152.2 
L 105.85484 152.2 
L 105.85484 152.2 
L 104.472825 152.2 
z
" style="fill:#348abd;opacity:0.2;"/>
   </g>
   <g id="patch_13">
    <path clip-path="url(#pb71e4aa2b8)" d="M 106.200344 152.2 
L 107.58236 152.2 
L 107.58236 152.2 
L 106.200344 152.2 
z
" style="fill:#348abd;opacity:0.2;"/>
   </g>
   <g id="patch_14">
    <path clip-path="url(#pb71e4aa2b8)" d="M 107.927864 152.2 
L 109.309879 152.2 
L 109.309879 152.2 
L 107.927864 152.2 
z
" style="fill:#348abd;opacity:0.2;"/>
   </g>
   <g id="patch_15">
    <path clip-path="url(#pb71e4aa2b8)" d="M 109.655383 152.2 
L 111.037399 152.2 
L 111.037399 152.193086 
L 109.655383 152.193086 
z
" style="fill:#348abd;opacity:0.2;"/>
   </g>
   <g id="patch_16">
    <path clip-path="url(#pb71e4aa2b8)" d="M 111.382903 152.2 
L 112.764918 152.2 
L 112.764918 152.2 
L 111.382903 152.2 
z
" style="fill:#348abd;opacity:0.2;"/>
   </g>
   <g id="patch_17">
    <path clip-path="url(#pb71e4aa2b8)" d="M 113.110422 152.2 
L 114.492438 152.2 
L 114.492438 152.2 
L 113.110422 152.2 
z
" style="fill:#348abd;opacity:0.2;"/>
   </g>
   <g id="patch_18">
    <path clip-path="url(#pb71e4aa2b8)" d="M 114.837942 152.2 
L 116.219957 152.2 
L 116.219957 152.2 
L 114.837942 152.2 
z
" style="fill:#348abd;opacity:0.2;"/>
   </g>
   <g id="patch_19">
    <path clip-path="url(#pb71e4aa2b8)" d="M 116.565461 152.2 
L 117.947477 152.2 
L 117.947477 152.2 
L 116.565461 152.2 
z
" style="fill:#348abd;opacity:0.2;"/>
   </g>
   <g id="patch_20">
    <path clip-path="url(#pb71e4aa2b8)" d="M 118.292981 152.2 
L 119.674996 152.2 
L 119.674996 152.2 
L 118.292981 152.2 
z
" style="fill:#348abd;opacity:0.2;"/>
   </g>
   <g id="patch_21">
    <path clip-path="url(#pb71e4aa2b8)" d="M 120.0205 152.2 
L 121.402516 152.2 
L 121.402516 152.2 
L 120.0205 152.2 
z
" style="fill:#348abd;opacity:0.2;"/>
   </g>
   <g id="patch_22">
    <path clip-path="url(#pb71e4aa2b8)" d="M 121.74802 152.2 
L 123.130035 152.2 
L 123.130035 152.196543 
L 121.74802 152.196543 
z
" style="fill:#348abd;opacity:0.2;"/>
   </g>
   <g id="patch_23">
    <path clip-path="url(#pb71e4aa2b8)" d="M 123.475539 152.2 
L 124.857555 152.2 
L 124.857555 152.2 
L 123.475539 152.2 
z
" style="fill:#348abd;opacity:0.2;"/>
   </g>
   <g id="patch_24">
    <path clip-path="url(#pb71e4aa2b8)" d="M 125.203059 152.2 
L 126.585075 152.2 
L 126.585075 152.2 
L 125.203059 152.2 
z
" style="fill:#348abd;opacity:0.2;"/>
   </g>
   <g id="patch_25">
    <path clip-path="url(#pb71e4aa2b8)" d="M 126.930578 152.2 
L 128.312594 152.2 
L 128.312594 152.2 
L 126.930578 152.2 
z
" style="fill:#348abd;opacity:0.2;"/>
   </g>
   <g id="patch_26">
    <path clip-path="url(#pb71e4aa2b8)" d="M 128.658098 152.2 
L 130.040114 152.2 
L 130.040114 152.2 
L 128.658098 152.2 
z
" style="fill:#348abd;opacity:0.2;"/>
   </g>
   <g id="patch_27">
    <path clip-path="url(#pb71e4aa2b8)" d="M 130.385617 152.2 
L 131.767633 152.2 
L 131.767633 152.2 
L 130.385617 152.2 
z
" style="fill:#348abd;opacity:0.2;"/>
   </g>
   <g id="patch_28">
    <path clip-path="url(#pb71e4aa2b8)" d="M 132.113137 152.2 
L 133.495153 152.2 
L 133.495153 152.2 
L 132.113137 152.2 
z
" style="fill:#348abd;opacity:0.2;"/>
   </g>
   <g id="patch_29">
    <path clip-path="url(#pb71e4aa2b8)" d="M 133.840656 152.2 
L 135.222672 152.2 
L 135.222672 152.2 
L 133.840656 152.2 
z
" style="fill:#348abd;opacity:0.2;"/>
   </g>
   <g id="patch_30">
    <path clip-path="url(#pb71e4aa2b8)" d="M 135.568176 152.2 
L 136.950192 152.2 
L 136.950192 152.2 
L 135.568176 152.2 
z
" style="fill:#348abd;opacity:0.2;"/>
   </g>
   <g id="patch_31">
    <path clip-path="url(#pb71e4aa2b8)" d="M 137.295695 152.2 
L 138.677711 152.2 
L 138.677711 152.2 
L 137.295695 152.2 
z
" style="fill:#348abd;opacity:0.2;"/>
   </g>
   <g id="patch_32">
    <path clip-path="url(#pb71e4aa2b8)" d="M 139.023215 152.2 
L 140.405231 152.2 
L 140.405231 152.2 
L 139.023215 152.2 
z
" style="fill:#348abd;opacity:0.2;"/>
   </g>
   <g id="patch_33">
    <path clip-path="url(#pb71e4aa2b8)" d="M 140.750734 152.2 
L 142.13275 152.2 
L 142.13275 152.2 
L 140.750734 152.2 
z
" style="fill:#348abd;opacity:0.2;"/>
   </g>
   <g id="patch_34">
    <path clip-path="url(#pb71e4aa2b8)" d="M 142.478254 152.2 
L 143.86027 152.2 
L 143.86027 152.2 
L 142.478254 152.2 
z
" style="fill:#348abd;opacity:0.2;"/>
   </g>
   <g id="patch_35">
    <path clip-path="url(#pb71e4aa2b8)" d="M 144.205773 152.2 
L 145.587789 152.2 
L 145.587789 152.2 
L 144.205773 152.2 
z
" style="fill:#348abd;opacity:0.2;"/>
   </g>
   <g id="patch_36">
    <path clip-path="url(#pb71e4aa2b8)" d="M 145.933293 152.2 
L 147.315309 152.2 
L 147.315309 152.14123 
L 145.933293 152.14123 
z
" style="fill:#348abd;opacity:0.2;"/>
   </g>
   <g id="patch_37">
    <path clip-path="url(#pb71e4aa2b8)" d="M 147.660812 152.2 
L 149.042828 152.2 
L 149.042828 152.054804 
L 147.660812 152.054804 
z
" style="fill:#348abd;opacity:0.2;"/>
   </g>
   <g id="patch_38">
    <path clip-path="url(#pb71e4aa2b8)" d="M 149.388332 152.2 
L 150.770348 152.2 
L 150.770348 151.878495 
L 149.388332 151.878495 
z
" style="fill:#348abd;opacity:0.2;"/>
   </g>
   <g id="patch_39">
    <path clip-path="url(#pb71e4aa2b8)" d="M 151.115852 152.2 
L 152.497867 152.2 
L 152.497867 151.944179 
L 151.115852 151.944179 
z
" style="fill:#348abd;opacity:0.2;"/>
   </g>
   <g id="patch_40">
    <path clip-path="url(#pb71e4aa2b8)" d="M 152.843371 152.2 
L 154.225387 152.2 
L 154.225387 151.878495 
L 152.843371 151.878495 
z
" style="fill:#348abd;opacity:0.2;"/>
   </g>
   <g id="patch_41">
    <path clip-path="url(#pb71e4aa2b8)" d="M 154.570891 152.2 
L 155.952906 152.2 
L 155.952906 151.747127 
L 154.570891 151.747127 
z
" style="fill:#348abd;opacity:0.2;"/>
   </g>
   <g id="patch_42">
    <path clip-path="url(#pb71e4aa2b8)" d="M 156.29841 152.2 
L 157.680426 152.2 
L 157.680426 151.501677 
L 156.29841 151.501677 
z
" style="fill:#348abd;opacity:0.2;"/>
   </g>
   <g id="patch_43">
    <path clip-path="url(#pb71e4aa2b8)" d="M 158.02593 152.2 
L 159.407945 152.2 
L 159.407945 151.394509 
L 158.02593 151.394509 
z
" style="fill:#348abd;opacity:0.2;"/>
   </g>
   <g id="patch_44">
    <path clip-path="url(#pb71e4aa2b8)" d="M 159.753449 152.2 
L 161.135465 152.2 
L 161.135465 151.37031 
L 159.753449 151.37031 
z
" style="fill:#348abd;opacity:0.2;"/>
   </g>
   <g id="patch_45">
    <path clip-path="url(#pb71e4aa2b8)" d="M 161.480969 152.2 
L 162.862984 152.2 
L 162.862984 150.243313 
L 161.480969 150.243313 
z
" style="fill:#348abd;opacity:0.2;"/>
   </g>
   <g id="patch_46">
    <path clip-path="url(#pb71e4aa2b8)" d="M 163.208488 152.2 
L 164.590504 152.2 
L 164.590504 151.017691 
L 163.208488 151.017691 
z
" style="fill:#348abd;opacity:0.2;"/>
   </g>
   <g id="patch_47">
    <path clip-path="url(#pb71e4aa2b8)" d="M 164.936008 152.2 
L 166.318023 152.2 
L 166.318023 150.589018 
L 164.936008 150.589018 
z
" style="fill:#348abd;opacity:0.2;"/>
   </g>
   <g id="patch_48">
    <path clip-path="url(#pb71e4aa2b8)" d="M 166.663527 152.2 
L 168.045543 152.2 
L 168.045543 150.170715 
L 166.663527 150.170715 
z
" style="fill:#348abd;opacity:0.2;"/>
   </g>
   <g id="patch_49">
    <path clip-path="url(#pb71e4aa2b8)" d="M 168.391047 152.2 
L 169.773062 152.2 
L 169.773062 149.541533 
L 168.391047 149.541533 
z
" style="fill:#348abd;opacity:0.2;"/>
   </g>
   <g id="patch_50">
    <path clip-path="url(#pb71e4aa2b8)" d="M 170.118566 152.2 
L 171.500582 152.2 
L 171.500582 149.51042 
L 170.118566 149.51042 
z
" style="fill:#348abd;opacity:0.2;"/>
   </g>
   <g id="patch_51">
    <path clip-path="url(#pb71e4aa2b8)" d="M 171.846086 152.2 
L 173.228101 152.2 
L 173.228101 147.889067 
L 171.846086 147.889067 
z
" style="fill:#348abd;opacity:0.2;"/>
   </g>
   <g id="patch_52">
    <path clip-path="url(#pb71e4aa2b8)" d="M 173.573605 152.2 
L 174.955621 152.2 
L 174.955621 147.042091 
L 173.573605 147.042091 
z
" style="fill:#348abd;opacity:0.2;"/>
   </g>
   <g id="patch_53">
    <path clip-path="url(#pb71e4aa2b8)" d="M 175.301125 152.2 
L 176.68314 152.2 
L 176.68314 145.987693 
L 175.301125 145.987693 
z
" style="fill:#348abd;opacity:0.2;"/>
   </g>
   <g id="patch_54">
    <path clip-path="url(#pb71e4aa2b8)" d="M 177.028644 152.2 
L 178.41066 152.2 
L 178.41066 148.822468 
L 177.028644 148.822468 
z
" style="fill:#348abd;opacity:0.2;"/>
   </g>
   <g id="patch_55">
    <path clip-path="url(#pb71e4aa2b8)" d="M 178.756164 152.2 
L 180.138179 152.2 
L 180.138179 144.203858 
L 178.756164 144.203858 
z
" style="fill:#348abd;opacity:0.2;"/>
   </g>
   <g id="patch_56">
    <path clip-path="url(#pb71e4aa2b8)" d="M 180.483683 152.2 
L 181.865699 152.2 
L 181.865699 143.035377 
L 180.483683 143.035377 
z
" style="fill:#348abd;opacity:0.2;"/>
   </g>
   <g id="patch_57">
    <path clip-path="url(#pb71e4aa2b8)" d="M 182.211203 152.2 
L 183.593218 152.2 
L 183.593218 143.39491 
L 182.211203 143.39491 
z
" style="fill:#348abd;opacity:0.2;"/>
   </g>
   <g id="patch_58">
    <path clip-path="url(#pb71e4aa2b8)" d="M 183.938722 152.2 
L 185.320738 152.2 
L 185.320738 140.110718 
L 183.938722 140.110718 
z
" style="fill:#348abd;opacity:0.2;"/>
   </g>
   <g id="patch_59">
    <path clip-path="url(#pb71e4aa2b8)" d="M 185.666242 152.2 
L 187.048257 152.2 
L 187.048257 139.789213 
L 185.666242 139.789213 
z
" style="fill:#348abd;opacity:0.2;"/>
   </g>
   <g id="patch_60">
    <path clip-path="url(#pb71e4aa2b8)" d="M 187.393761 152.2 
L 188.775777 152.2 
L 188.775777 141.023378 
L 187.393761 141.023378 
z
" style="fill:#348abd;opacity:0.2;"/>
   </g>
   <g id="patch_61">
    <path clip-path="url(#pb71e4aa2b8)" d="M 189.121281 152.2 
L 190.503296 152.2 
L 190.503296 140.010464 
L 189.121281 140.010464 
z
" style="fill:#348abd;opacity:0.2;"/>
   </g>
   <g id="patch_62">
    <path clip-path="url(#pb71e4aa2b8)" d="M 190.8488 152.2 
L 192.230816 152.2 
L 192.230816 137.656217 
L 190.8488 137.656217 
z
" style="fill:#348abd;opacity:0.2;"/>
   </g>
   <g id="patch_63">
    <path clip-path="url(#pb71e4aa2b8)" d="M 192.57632 152.2 
L 193.958335 152.2 
L 193.958335 133.801614 
L 192.57632 133.801614 
z
" style="fill:#348abd;opacity:0.2;"/>
   </g>
   <g id="patch_64">
    <path clip-path="url(#pb71e4aa2b8)" d="M 194.303839 152.2 
L 195.685855 152.2 
L 195.685855 131.506137 
L 194.303839 131.506137 
z
" style="fill:#348abd;opacity:0.2;"/>
   </g>
   <g id="patch_65">
    <path clip-path="url(#pb71e4aa2b8)" d="M 196.031359 152.2 
L 197.413374 152.2 
L 197.413374 129.532165 
L 196.031359 129.532165 
z
" style="fill:#348abd;opacity:0.2;"/>
   </g>
   <g id="patch_66">
    <path clip-path="url(#pb71e4aa2b8)" d="M 197.758878 152.2 
L 199.140894 152.2 
L 199.140894 132.978837 
L 197.758878 132.978837 
z
" style="fill:#348abd;opacity:0.2;"/>
   </g>
   <g id="patch_67">
    <path clip-path="url(#pb71e4aa2b8)" d="M 199.486398 152.2 
L 200.868413 152.2 
L 200.868413 135.644218 
L 199.486398 135.644218 
z
" style="fill:#348abd;opacity:0.2;"/>
   </g>
   <g id="patch_68">
    <path clip-path="url(#pb71e4aa2b8)" d="M 201.213917 152.2 
L 202.595933 152.2 
L 202.595933 134.053978 
L 201.213917 134.053978 
z
" style="fill:#348abd;opacity:0.2;"/>
   </g>
   <g id="patch_69">
    <path clip-path="url(#pb71e4aa2b8)" d="M 202.941437 152.2 
L 204.323452 152.2 
L 204.323452 134.188803 
L 202.941437 134.188803 
z
" style="fill:#348abd;opacity:0.2;"/>
   </g>
   <g id="patch_70">
    <path clip-path="url(#pb71e4aa2b8)" d="M 204.668956 152.2 
L 206.050972 152.2 
L 206.050972 130.755958 
L 204.668956 130.755958 
z
" style="fill:#348abd;opacity:0.2;"/>
   </g>
   <g id="patch_71">
    <path clip-path="url(#pb71e4aa2b8)" d="M 206.396476 152.2 
L 207.778491 152.2 
L 207.778491 131.772329 
L 206.396476 131.772329 
z
" style="fill:#348abd;opacity:0.2;"/>
   </g>
   <g id="patch_72">
    <path clip-path="url(#pb71e4aa2b8)" d="M 208.123995 152.2 
L 209.506011 152.2 
L 209.506011 131.547621 
L 208.123995 131.547621 
z
" style="fill:#348abd;opacity:0.2;"/>
   </g>
   <g id="patch_73">
    <path clip-path="url(#pb71e4aa2b8)" d="M 209.851515 152.2 
L 211.23353 152.2 
L 211.23353 134.164603 
L 209.851515 134.164603 
z
" style="fill:#348abd;opacity:0.2;"/>
   </g>
   <g id="patch_74">
    <path clip-path="url(#pb71e4aa2b8)" d="M 211.579034 152.2 
L 212.96105 152.2 
L 212.96105 138.198973 
L 211.579034 138.198973 
z
" style="fill:#348abd;opacity:0.2;"/>
   </g>
   <g id="patch_75">
    <path clip-path="url(#pb71e4aa2b8)" d="M 213.306554 152.2 
L 214.688569 152.2 
L 214.688569 138.188602 
L 213.306554 138.188602 
z
" style="fill:#348abd;opacity:0.2;"/>
   </g>
   <g id="patch_76">
    <path clip-path="url(#pb71e4aa2b8)" d="M 215.034073 152.2 
L 216.416089 152.2 
L 216.416089 135.668417 
L 215.034073 135.668417 
z
" style="fill:#348abd;opacity:0.2;"/>
   </g>
   <g id="patch_77">
    <path clip-path="url(#pb71e4aa2b8)" d="M 216.761593 152.2 
L 218.143608 152.2 
L 218.143608 136.06252 
L 216.761593 136.06252 
z
" style="fill:#348abd;opacity:0.2;"/>
   </g>
   <g id="patch_78">
    <path clip-path="url(#pb71e4aa2b8)" d="M 218.489112 152.2 
L 219.871128 152.2 
L 219.871128 136.349455 
L 218.489112 136.349455 
z
" style="fill:#348abd;opacity:0.2;"/>
   </g>
   <g id="patch_79">
    <path clip-path="url(#pb71e4aa2b8)" d="M 220.216632 152.2 
L 221.598647 152.2 
L 221.598647 135.588905 
L 220.216632 135.588905 
z
" style="fill:#348abd;opacity:0.2;"/>
   </g>
   <g id="patch_80">
    <path clip-path="url(#pb71e4aa2b8)" d="M 221.944151 152.2 
L 223.326167 152.2 
L 223.326167 137.2794 
L 221.944151 137.2794 
z
" style="fill:#348abd;opacity:0.2;"/>
   </g>
   <g id="patch_81">
    <path clip-path="url(#pb71e4aa2b8)" d="M 223.671671 152.2 
L 225.053686 152.2 
L 225.053686 139.7581 
L 223.671671 139.7581 
z
" style="fill:#348abd;opacity:0.2;"/>
   </g>
   <g id="patch_82">
    <path clip-path="url(#pb71e4aa2b8)" d="M 225.39919 152.2 
L 226.781206 152.2 
L 226.781206 141.694044 
L 225.39919 141.694044 
z
" style="fill:#348abd;opacity:0.2;"/>
   </g>
   <g id="patch_83">
    <path clip-path="url(#pb71e4aa2b8)" d="M 227.12671 152.2 
L 228.508725 152.2 
L 228.508725 138.93878 
L 227.12671 138.93878 
z
" style="fill:#348abd;opacity:0.2;"/>
   </g>
   <g id="patch_84">
    <path clip-path="url(#pb71e4aa2b8)" d="M 228.854229 152.2 
L 230.236245 152.2 
L 230.236245 137.666588 
L 228.854229 137.666588 
z
" style="fill:#348abd;opacity:0.2;"/>
   </g>
   <g id="patch_85">
    <path clip-path="url(#pb71e4aa2b8)" d="M 230.581749 152.2 
L 231.963764 152.2 
L 231.963764 138.54122 
L 230.581749 138.54122 
z
" style="fill:#348abd;opacity:0.2;"/>
   </g>
   <g id="patch_86">
    <path clip-path="url(#pb71e4aa2b8)" d="M 232.309268 152.2 
L 233.691284 152.2 
L 233.691284 135.972637 
L 232.309268 135.972637 
z
" style="fill:#348abd;opacity:0.2;"/>
   </g>
   <g id="patch_87">
    <path clip-path="url(#pb71e4aa2b8)" d="M 234.036788 152.2 
L 235.418803 152.2 
L 235.418803 138.053777 
L 234.036788 138.053777 
z
" style="fill:#348abd;opacity:0.2;"/>
   </g>
   <g id="patch_88">
    <path clip-path="url(#pb71e4aa2b8)" d="M 235.764307 152.2 
L 237.146323 152.2 
L 237.146323 141.299941 
L 235.764307 141.299941 
z
" style="fill:#348abd;opacity:0.2;"/>
   </g>
   <g id="patch_89">
    <path clip-path="url(#pb71e4aa2b8)" d="M 237.491827 152.2 
L 238.873842 152.2 
L 238.873842 141.925666 
L 237.491827 141.925666 
z
" style="fill:#348abd;opacity:0.2;"/>
   </g>
   <g id="patch_90">
    <path clip-path="url(#pb71e4aa2b8)" d="M 239.219346 152.2 
L 240.601362 152.2 
L 240.601362 142.980065 
L 239.219346 142.980065 
z
" style="fill:#348abd;opacity:0.2;"/>
   </g>
   <g id="patch_91">
    <path clip-path="url(#pb71e4aa2b8)" d="M 240.946866 152.2 
L 242.328881 152.2 
L 242.328881 139.111633 
L 240.946866 139.111633 
z
" style="fill:#348abd;opacity:0.2;"/>
   </g>
   <g id="patch_92">
    <path clip-path="url(#pb71e4aa2b8)" d="M 242.674385 152.2 
L 244.056401 152.2 
L 244.056401 140.124546 
L 242.674385 140.124546 
z
" style="fill:#348abd;opacity:0.2;"/>
   </g>
   <g id="patch_93">
    <path clip-path="url(#pb71e4aa2b8)" d="M 244.401905 152.2 
L 245.783921 152.2 
L 245.783921 140.131461 
L 244.401905 140.131461 
z
" style="fill:#348abd;opacity:0.2;"/>
   </g>
   <g id="patch_94">
    <path clip-path="url(#pb71e4aa2b8)" d="M 246.129424 152.2 
L 247.51144 152.2 
L 247.51144 141.666388 
L 246.129424 141.666388 
z
" style="fill:#348abd;opacity:0.2;"/>
   </g>
   <g id="patch_95">
    <path clip-path="url(#pb71e4aa2b8)" d="M 247.856944 152.2 
L 249.23896 152.2 
L 249.23896 144.400909 
L 247.856944 144.400909 
z
" style="fill:#348abd;opacity:0.2;"/>
   </g>
   <g id="patch_96">
    <path clip-path="url(#pb71e4aa2b8)" d="M 249.584463 152.2 
L 250.966479 152.2 
L 250.966479 142.765728 
L 249.584463 142.765728 
z
" style="fill:#348abd;opacity:0.2;"/>
   </g>
   <g id="patch_97">
    <path clip-path="url(#pb71e4aa2b8)" d="M 251.311983 152.2 
L 252.693999 152.2 
L 252.693999 140.549763 
L 251.311983 140.549763 
z
" style="fill:#348abd;opacity:0.2;"/>
   </g>
   <g id="patch_98">
    <path clip-path="url(#pb71e4aa2b8)" d="M 253.039502 152.2 
L 254.421518 152.2 
L 254.421518 143.052662 
L 253.039502 143.052662 
z
" style="fill:#348abd;opacity:0.2;"/>
   </g>
   <g id="patch_99">
    <path clip-path="url(#pb71e4aa2b8)" d="M 254.767022 152.2 
L 256.149038 152.2 
L 256.149038 141.756271 
L 254.767022 141.756271 
z
" style="fill:#348abd;opacity:0.2;"/>
   </g>
   <g id="patch_100">
    <path clip-path="url(#pb71e4aa2b8)" d="M 256.494541 152.2 
L 257.876557 152.2 
L 257.876557 144.051748 
L 256.494541 144.051748 
z
" style="fill:#348abd;opacity:0.2;"/>
   </g>
   <g id="patch_101">
    <path clip-path="url(#pb71e4aa2b8)" d="M 258.222061 152.2 
L 259.604077 152.2 
L 259.604077 144.165831 
L 258.222061 144.165831 
z
" style="fill:#348abd;opacity:0.2;"/>
   </g>
   <g id="patch_102">
    <path clip-path="url(#pb71e4aa2b8)" d="M 259.94958 152.2 
L 261.331596 152.2 
L 261.331596 146.188201 
L 259.94958 146.188201 
z
" style="fill:#348abd;opacity:0.2;"/>
   </g>
   <g id="patch_103">
    <path clip-path="url(#pb71e4aa2b8)" d="M 261.6771 152.2 
L 263.059116 152.2 
L 263.059116 144.971322 
L 261.6771 144.971322 
z
" style="fill:#348abd;opacity:0.2;"/>
   </g>
   <g id="patch_104">
    <path clip-path="url(#pb71e4aa2b8)" d="M 263.404619 152.2 
L 264.786635 152.2 
L 264.786635 144.988607 
L 263.404619 144.988607 
z
" style="fill:#348abd;opacity:0.2;"/>
   </g>
   <g id="patch_105">
    <path clip-path="url(#pb71e4aa2b8)" d="M 265.132139 152.2 
L 266.514155 152.2 
L 266.514155 145.728414 
L 265.132139 145.728414 
z
" style="fill:#348abd;opacity:0.2;"/>
   </g>
   <g id="patch_106">
    <path clip-path="url(#pb71e4aa2b8)" d="M 266.859659 152.2 
L 268.241674 152.2 
L 268.241674 145.406909 
L 266.859659 145.406909 
z
" style="fill:#348abd;opacity:0.2;"/>
   </g>
   <g id="patch_107">
    <path clip-path="url(#pb71e4aa2b8)" d="M 268.587178 152.2 
L 269.969194 152.2 
L 269.969194 145.631617 
L 268.587178 145.631617 
z
" style="fill:#348abd;opacity:0.2;"/>
   </g>
   <g id="patch_108">
    <path clip-path="url(#pb71e4aa2b8)" d="M 270.314698 152.2 
L 271.696713 152.2 
L 271.696713 147.398166 
L 270.314698 147.398166 
z
" style="fill:#348abd;opacity:0.2;"/>
   </g>
   <g id="patch_109">
    <path clip-path="url(#pb71e4aa2b8)" d="M 272.042217 152.2 
L 273.424233 152.2 
L 273.424233 147.97895 
L 272.042217 147.97895 
z
" style="fill:#348abd;opacity:0.2;"/>
   </g>
   <g id="patch_110">
    <path clip-path="url(#pb71e4aa2b8)" d="M 273.769737 152.2 
L 275.151752 152.2 
L 275.151752 148.483678 
L 273.769737 148.483678 
z
" style="fill:#348abd;opacity:0.2;"/>
   </g>
   <g id="patch_111">
    <path clip-path="url(#pb71e4aa2b8)" d="M 275.497256 152.2 
L 276.879272 152.2 
L 276.879272 147.208029 
L 275.497256 147.208029 
z
" style="fill:#348abd;opacity:0.2;"/>
   </g>
   <g id="patch_112">
    <path clip-path="url(#pb71e4aa2b8)" d="M 277.224776 152.2 
L 278.606791 152.2 
L 278.606791 147.356682 
L 277.224776 147.356682 
z
" style="fill:#348abd;opacity:0.2;"/>
   </g>
   <g id="patch_113">
    <path clip-path="url(#pb71e4aa2b8)" d="M 278.952295 152.2 
L 280.334311 152.2 
L 280.334311 147.612503 
L 278.952295 147.612503 
z
" style="fill:#348abd;opacity:0.2;"/>
   </g>
   <g id="patch_114">
    <path clip-path="url(#pb71e4aa2b8)" d="M 280.679815 152.2 
L 282.06183 152.2 
L 282.06183 148.456022 
L 280.679815 148.456022 
z
" style="fill:#348abd;opacity:0.2;"/>
   </g>
   <g id="patch_115">
    <path clip-path="url(#pb71e4aa2b8)" d="M 282.407334 152.2 
L 283.78935 152.2 
L 283.78935 149.427451 
L 282.407334 149.427451 
z
" style="fill:#348abd;opacity:0.2;"/>
   </g>
   <g id="patch_116">
    <path clip-path="url(#pb71e4aa2b8)" d="M 284.134854 152.2 
L 285.516869 152.2 
L 285.516869 149.62796 
L 284.134854 149.62796 
z
" style="fill:#348abd;opacity:0.2;"/>
   </g>
   <g id="patch_117">
    <path clip-path="url(#pb71e4aa2b8)" d="M 285.862373 152.2 
L 287.244389 152.2 
L 287.244389 147.353225 
L 285.862373 147.353225 
z
" style="fill:#348abd;opacity:0.2;"/>
   </g>
   <g id="patch_118">
    <path clip-path="url(#pb71e4aa2b8)" d="M 287.589893 152.2 
L 288.971908 152.2 
L 288.971908 149.130145 
L 287.589893 149.130145 
z
" style="fill:#348abd;opacity:0.2;"/>
   </g>
   <g id="patch_119">
    <path clip-path="url(#pb71e4aa2b8)" d="M 289.317412 152.2 
L 290.699428 152.2 
L 290.699428 148.770613 
L 289.317412 148.770613 
z
" style="fill:#348abd;opacity:0.2;"/>
   </g>
   <g id="patch_120">
    <path clip-path="url(#pb71e4aa2b8)" d="M 291.044932 152.2 
L 292.426947 152.2 
L 292.426947 149.472393 
L 291.044932 149.472393 
z
" style="fill:#348abd;opacity:0.2;"/>
   </g>
   <g id="patch_121">
    <path clip-path="url(#pb71e4aa2b8)" d="M 292.772451 152.2 
L 294.154467 152.2 
L 294.154467 149.175087 
L 292.772451 149.175087 
z
" style="fill:#348abd;opacity:0.2;"/>
   </g>
   <g id="patch_122">
    <path clip-path="url(#pb71e4aa2b8)" d="M 294.499971 152.2 
L 295.881986 152.2 
L 295.881986 149.866496 
L 294.499971 149.866496 
z
" style="fill:#348abd;opacity:0.2;"/>
   </g>
   <g id="patch_123">
    <path clip-path="url(#pb71e4aa2b8)" d="M 296.22749 152.2 
L 297.609506 152.2 
L 297.609506 150.640873 
L 296.22749 150.640873 
z
" style="fill:#348abd;opacity:0.2;"/>
   </g>
   <g id="patch_124">
    <path clip-path="url(#pb71e4aa2b8)" d="M 297.95501 152.2 
L 299.337025 152.2 
L 299.337025 149.389424 
L 297.95501 149.389424 
z
" style="fill:#348abd;opacity:0.2;"/>
   </g>
   <g id="patch_125">
    <path clip-path="url(#pb71e4aa2b8)" d="M 299.682529 152.2 
L 301.064545 152.2 
L 301.064545 149.901066 
L 299.682529 149.901066 
z
" style="fill:#348abd;opacity:0.2;"/>
   </g>
   <g id="patch_126">
    <path clip-path="url(#pb71e4aa2b8)" d="M 301.410049 152.2 
L 302.792064 152.2 
L 302.792064 149.980578 
L 301.410049 149.980578 
z
" style="fill:#348abd;opacity:0.2;"/>
   </g>
   <g id="patch_127">
    <path clip-path="url(#pb71e4aa2b8)" d="M 303.137568 152.2 
L 304.519584 152.2 
L 304.519584 149.946008 
L 303.137568 149.946008 
z
" style="fill:#348abd;opacity:0.2;"/>
   </g>
   <g id="patch_128">
    <path clip-path="url(#pb71e4aa2b8)" d="M 304.865088 152.2 
L 306.247103 152.2 
L 306.247103 149.887238 
L 304.865088 149.887238 
z
" style="fill:#348abd;opacity:0.2;"/>
   </g>
   <g id="patch_129">
    <path clip-path="url(#pb71e4aa2b8)" d="M 306.592607 152.2 
L 307.974623 152.2 
L 307.974623 150.36431 
L 306.592607 150.36431 
z
" style="fill:#348abd;opacity:0.2;"/>
   </g>
   <g id="patch_130">
    <path clip-path="url(#pb71e4aa2b8)" d="M 308.320127 152.2 
L 309.702142 152.2 
L 309.702142 151.162887 
L 308.320127 151.162887 
z
" style="fill:#348abd;opacity:0.2;"/>
   </g>
   <g id="patch_131">
    <path clip-path="url(#pb71e4aa2b8)" d="M 310.047646 152.2 
L 311.429662 152.2 
L 311.429662 150.827554 
L 310.047646 150.827554 
z
" style="fill:#348abd;opacity:0.2;"/>
   </g>
   <g id="patch_132">
    <path clip-path="url(#pb71e4aa2b8)" d="M 311.775166 152.2 
L 313.157181 152.2 
L 313.157181 150.181086 
L 311.775166 150.181086 
z
" style="fill:#348abd;opacity:0.2;"/>
   </g>
   <g id="patch_133">
    <path clip-path="url(#pb71e4aa2b8)" d="M 313.502685 152.2 
L 314.884701 152.2 
L 314.884701 150.149973 
L 313.502685 150.149973 
z
" style="fill:#348abd;opacity:0.2;"/>
   </g>
   <g id="patch_134">
    <path clip-path="url(#pb71e4aa2b8)" d="M 315.230205 152.2 
L 316.61222 152.2 
L 316.61222 150.416165 
L 315.230205 150.416165 
z
" style="fill:#348abd;opacity:0.2;"/>
   </g>
   <g id="patch_135">
    <path clip-path="url(#pb71e4aa2b8)" d="M 316.957724 152.2 
L 318.33974 152.2 
L 318.33974 150.76187 
L 316.957724 150.76187 
z
" style="fill:#348abd;opacity:0.2;"/>
   </g>
   <g id="patch_136">
    <path clip-path="url(#pb71e4aa2b8)" d="M 318.685244 152.2 
L 320.067259 152.2 
L 320.067259 151.048804 
L 318.685244 151.048804 
z
" style="fill:#348abd;opacity:0.2;"/>
   </g>
   <g id="patch_137">
    <path clip-path="url(#pb71e4aa2b8)" d="M 320.412763 152.2 
L 321.794779 152.2 
L 321.794779 151.508591 
L 320.412763 151.508591 
z
" style="fill:#348abd;opacity:0.2;"/>
   </g>
   <g id="patch_138">
    <path clip-path="url(#pb71e4aa2b8)" d="M 322.140283 152.2 
L 323.522298 152.2 
L 323.522298 151.10066 
L 322.140283 151.10066 
z
" style="fill:#348abd;opacity:0.2;"/>
   </g>
   <g id="patch_139">
    <path clip-path="url(#pb71e4aa2b8)" d="M 323.867802 152.2 
L 325.249818 152.2 
L 325.249818 151.090289 
L 323.867802 151.090289 
z
" style="fill:#348abd;opacity:0.2;"/>
   </g>
   <g id="patch_140">
    <path clip-path="url(#pb71e4aa2b8)" d="M 325.595322 152.2 
L 326.977337 152.2 
L 326.977337 151.588103 
L 325.595322 151.588103 
z
" style="fill:#348abd;opacity:0.2;"/>
   </g>
   <g id="patch_141">
    <path clip-path="url(#pb71e4aa2b8)" d="M 327.322841 152.2 
L 328.704857 152.2 
L 328.704857 150.409251 
L 327.322841 150.409251 
z
" style="fill:#348abd;opacity:0.2;"/>
   </g>
   <g id="patch_142">
    <path clip-path="url(#pb71e4aa2b8)" d="M 329.050361 152.2 
L 330.432376 152.2 
L 330.432376 151.266598 
L 329.050361 151.266598 
z
" style="fill:#348abd;opacity:0.2;"/>
   </g>
   <g id="patch_143">
    <path clip-path="url(#pb71e4aa2b8)" d="M 330.77788 152.2 
L 332.159896 152.2 
L 332.159896 151.518962 
L 330.77788 151.518962 
z
" style="fill:#348abd;opacity:0.2;"/>
   </g>
   <g id="patch_144">
    <path clip-path="url(#pb71e4aa2b8)" d="M 332.5054 152.2 
L 333.887415 152.2 
L 333.887415 151.232028 
L 332.5054 151.232028 
z
" style="fill:#348abd;opacity:0.2;"/>
   </g>
   <g id="patch_145">
    <path clip-path="url(#pb71e4aa2b8)" d="M 334.232919 152.2 
L 335.614935 152.2 
L 335.614935 151.221657 
L 334.232919 151.221657 
z
" style="fill:#348abd;opacity:0.2;"/>
   </g>
   <g id="patch_146">
    <path clip-path="url(#pb71e4aa2b8)" d="M 335.960439 152.2 
L 337.342454 152.2 
L 337.342454 151.501677 
L 335.960439 151.501677 
z
" style="fill:#348abd;opacity:0.2;"/>
   </g>
   <g id="patch_147">
    <path clip-path="url(#pb71e4aa2b8)" d="M 337.687958 152.2 
L 339.069974 152.2 
L 339.069974 150.88978 
L 337.687958 150.88978 
z
" style="fill:#348abd;opacity:0.2;"/>
   </g>
   <g id="patch_148">
    <path clip-path="url(#pb71e4aa2b8)" d="M 339.415478 152.2 
L 340.797493 152.2 
L 340.797493 151.636502 
L 339.415478 151.636502 
z
" style="fill:#348abd;opacity:0.2;"/>
   </g>
   <g id="patch_149">
    <path clip-path="url(#pb71e4aa2b8)" d="M 341.142997 152.2 
L 342.525013 152.2 
L 342.525013 151.003863 
L 341.142997 151.003863 
z
" style="fill:#348abd;opacity:0.2;"/>
   </g>
   <g id="patch_150">
    <path clip-path="url(#pb71e4aa2b8)" d="M 342.870517 152.2 
L 344.252532 152.2 
L 344.252532 151.031519 
L 342.870517 151.031519 
z
" style="fill:#348abd;opacity:0.2;"/>
   </g>
   <g id="patch_151">
    <path clip-path="url(#pb71e4aa2b8)" d="M 344.598036 152.2 
L 345.980052 152.2 
L 345.980052 151.15943 
L 344.598036 151.15943 
z
" style="fill:#348abd;opacity:0.2;"/>
   </g>
   <g id="patch_152">
    <path clip-path="url(#pb71e4aa2b8)" d="M 346.325556 152.2 
L 347.707571 152.2 
L 347.707571 151.474021 
L 346.325556 151.474021 
z
" style="fill:#348abd;opacity:0.2;"/>
   </g>
   <g id="patch_153">
    <path clip-path="url(#pb71e4aa2b8)" d="M 348.053075 152.2 
L 349.435091 152.2 
L 349.435091 151.06609 
L 348.053075 151.06609 
z
" style="fill:#348abd;opacity:0.2;"/>
   </g>
   <g id="patch_154">
    <path clip-path="url(#pb71e4aa2b8)" d="M 349.780595 152.2 
L 351.16261 152.2 
L 351.16261 151.055719 
L 349.780595 151.055719 
z
" style="fill:#348abd;opacity:0.2;"/>
   </g>
   <g id="patch_155">
    <path clip-path="url(#pb71e4aa2b8)" d="M 351.508114 152.2 
L 352.89013 152.2 
L 352.89013 152.711642 
L 351.508114 152.711642 
z
" style="fill:#348abd;opacity:0.2;"/>
   </g>
   <g id="patch_156">
    <path clip-path="url(#pb71e4aa2b8)" d="M 353.235634 152.2 
L 354.617649 152.2 
L 354.617649 151.28734 
L 353.235634 151.28734 
z
" style="fill:#348abd;opacity:0.2;"/>
   </g>
   <g id="patch_157">
    <path clip-path="url(#pb71e4aa2b8)" d="M 354.963153 152.2 
L 356.345169 152.2 
L 356.345169 151.425622 
L 354.963153 151.425622 
z
" style="fill:#348abd;opacity:0.2;"/>
   </g>
   <g id="patch_158">
    <path clip-path="url(#pb71e4aa2b8)" d="M 356.690673 152.2 
L 358.072688 152.2 
L 358.072688 151.435993 
L 356.690673 151.435993 
z
" style="fill:#348abd;opacity:0.2;"/>
   </g>
   <g id="patch_159">
    <path clip-path="url(#pb71e4aa2b8)" d="M 358.418192 152.2 
L 359.800208 152.2 
L 359.800208 151.809354 
L 358.418192 151.809354 
z
" style="fill:#348abd;opacity:0.2;"/>
   </g>
   <g id="patch_160">
    <path clip-path="url(#pb71e4aa2b8)" d="M 360.145712 152.2 
L 361.527728 152.2 
L 361.527728 150.205286 
L 360.145712 150.205286 
z
" style="fill:#348abd;opacity:0.2;"/>
   </g>
   <g id="patch_161">
    <path clip-path="url(#pb71e4aa2b8)" d="M 361.873231 152.2 
L 363.255247 152.2 
L 363.255247 151.176715 
L 361.873231 151.176715 
z
" style="fill:#348abd;opacity:0.2;"/>
   </g>
   <g id="patch_162">
    <path clip-path="url(#pb71e4aa2b8)" d="M 363.600751 152.2 
L 364.982767 152.2 
L 364.982767 151.318454 
L 363.600751 151.318454 
z
" style="fill:#348abd;opacity:0.2;"/>
   </g>
   <g id="patch_163">
    <path clip-path="url(#pb71e4aa2b8)" d="M 365.32827 152.2 
L 366.710286 152.2 
L 366.710286 151.595017 
L 365.32827 151.595017 
z
" style="fill:#348abd;opacity:0.2;"/>
   </g>
   <g id="patch_164">
    <path clip-path="url(#pb71e4aa2b8)" d="M 367.05579 152.2 
L 368.437806 152.2 
L 368.437806 151.598474 
L 367.05579 151.598474 
z
" style="fill:#348abd;opacity:0.2;"/>
   </g>
   <g id="patch_165">
    <path clip-path="url(#pb71e4aa2b8)" d="M 368.783309 152.2 
L 370.165325 152.2 
L 370.165325 151.764412 
L 368.783309 151.764412 
z
" style="fill:#348abd;opacity:0.2;"/>
   </g>
   <g id="patch_166">
    <path clip-path="url(#pb71e4aa2b8)" d="M 370.510829 152.2 
L 371.892845 152.2 
L 371.892845 151.7091 
L 370.510829 151.7091 
z
" style="fill:#348abd;opacity:0.2;"/>
   </g>
   <g id="patch_167">
    <path clip-path="url(#pb71e4aa2b8)" d="M 372.238348 152.2 
L 373.620364 152.2 
L 373.620364 151.570818 
L 372.238348 151.570818 
z
" style="fill:#348abd;opacity:0.2;"/>
   </g>
   <g id="patch_168">
    <path clip-path="url(#pb71e4aa2b8)" d="M 373.965868 152.2 
L 375.347884 152.2 
L 375.347884 151.505134 
L 373.965868 151.505134 
z
" style="fill:#348abd;opacity:0.2;"/>
   </g>
   <g id="patch_169">
    <path clip-path="url(#pb71e4aa2b8)" d="M 375.693387 152.2 
L 377.075403 152.2 
L 377.075403 151.429079 
L 375.693387 151.429079 
z
" style="fill:#348abd;opacity:0.2;"/>
   </g>
   <g id="patch_170">
    <path clip-path="url(#pb71e4aa2b8)" d="M 377.420907 152.2 
L 378.802923 152.2 
L 378.802923 151.387595 
L 377.420907 151.387595 
z
" style="fill:#348abd;opacity:0.2;"/>
   </g>
   <g id="patch_171">
    <path clip-path="url(#pb71e4aa2b8)" d="M 379.148426 152.2 
L 380.530442 152.2 
L 380.530442 151.536248 
L 379.148426 151.536248 
z
" style="fill:#348abd;opacity:0.2;"/>
   </g>
   <g id="patch_172">
    <path clip-path="url(#pb71e4aa2b8)" d="M 380.875946 152.2 
L 382.257962 152.2 
L 382.257962 151.480935 
L 380.875946 151.480935 
z
" style="fill:#348abd;opacity:0.2;"/>
   </g>
   <g id="patch_173">
    <path clip-path="url(#pb71e4aa2b8)" d="M 382.603465 152.2 
L 383.985481 152.2 
L 383.985481 151.726385 
L 382.603465 151.726385 
z
" style="fill:#348abd;opacity:0.2;"/>
   </g>
   <g id="patch_174">
    <path clip-path="url(#pb71e4aa2b8)" d="M 384.330985 152.2 
L 385.713001 152.2 
L 385.713001 151.532791 
L 384.330985 151.532791 
z
" style="fill:#348abd;opacity:0.2;"/>
   </g>
   <g id="patch_175">
    <path clip-path="url(#pb71e4aa2b8)" d="M 386.058505 152.2 
L 387.44052 152.2 
L 387.44052 151.460193 
L 386.058505 151.460193 
z
" style="fill:#348abd;opacity:0.2;"/>
   </g>
   <g id="patch_176">
    <path clip-path="url(#pb71e4aa2b8)" d="M 387.786024 152.2 
L 389.16804 152.2 
L 389.16804 151.245856 
L 387.786024 151.245856 
z
" style="fill:#348abd;opacity:0.2;"/>
   </g>
   <g id="patch_177">
    <path clip-path="url(#pb71e4aa2b8)" d="M 389.513544 152.2 
L 390.895559 152.2 
L 390.895559 151.550076 
L 389.513544 151.550076 
z
" style="fill:#348abd;opacity:0.2;"/>
   </g>
   <g id="patch_178">
    <path clip-path="url(#pb71e4aa2b8)" d="M 391.241063 152.2 
L 392.623079 152.2 
L 392.623079 151.391052 
L 391.241063 151.391052 
z
" style="fill:#348abd;opacity:0.2;"/>
   </g>
   <g id="patch_179">
    <path clip-path="url(#pb71e4aa2b8)" d="M 392.968583 152.2 
L 394.350598 152.2 
L 394.350598 151.61576 
L 392.968583 151.61576 
z
" style="fill:#348abd;opacity:0.2;"/>
   </g>
   <g id="patch_180">
    <path clip-path="url(#pb71e4aa2b8)" d="M 394.696102 152.2 
L 396.078118 152.2 
L 396.078118 151.805897 
L 394.696102 151.805897 
z
" style="fill:#348abd;opacity:0.2;"/>
   </g>
   <g id="patch_181">
    <path clip-path="url(#pb71e4aa2b8)" d="M 396.423622 152.2 
L 397.805637 152.2 
L 397.805637 151.639959 
L 396.423622 151.639959 
z
" style="fill:#348abd;opacity:0.2;"/>
   </g>
   <g id="patch_182">
    <path clip-path="url(#pb71e4aa2b8)" d="M 398.151141 152.2 
L 399.533157 152.2 
L 399.533157 151.40488 
L 398.151141 151.40488 
z
" style="fill:#348abd;opacity:0.2;"/>
   </g>
   <g id="patch_183">
    <path clip-path="url(#pb71e4aa2b8)" d="M 399.878661 152.2 
L 401.260676 152.2 
L 401.260676 151.401423 
L 399.878661 151.401423 
z
" style="fill:#348abd;opacity:0.2;"/>
   </g>
   <g id="patch_184">
    <path clip-path="url(#pb71e4aa2b8)" d="M 401.60618 152.2 
L 402.988196 152.2 
L 402.988196 151.339196 
L 401.60618 151.339196 
z
" style="fill:#348abd;opacity:0.2;"/>
   </g>
   <g id="patch_185">
    <path clip-path="url(#pb71e4aa2b8)" d="M 403.3337 152.2 
L 404.715715 152.2 
L 404.715715 151.446364 
L 403.3337 151.446364 
z
" style="fill:#348abd;opacity:0.2;"/>
   </g>
   <g id="patch_186">
    <path clip-path="url(#pb71e4aa2b8)" d="M 405.061219 152.2 
L 406.443235 152.2 
L 406.443235 151.543162 
L 405.061219 151.543162 
z
" style="fill:#348abd;opacity:0.2;"/>
   </g>
   <g id="patch_187">
    <path clip-path="url(#pb71e4aa2b8)" d="M 406.788739 152.2 
L 408.170754 152.2 
L 408.170754 151.757498 
L 406.788739 151.757498 
z
" style="fill:#348abd;opacity:0.2;"/>
   </g>
   <g id="patch_188">
    <path clip-path="url(#pb71e4aa2b8)" d="M 408.516258 152.2 
L 409.898274 152.2 
L 409.898274 151.232028 
L 408.516258 151.232028 
z
" style="fill:#348abd;opacity:0.2;"/>
   </g>
   <g id="patch_189">
    <path clip-path="url(#pb71e4aa2b8)" d="M 410.243778 152.2 
L 411.625793 152.2 
L 411.625793 151.142145 
L 410.243778 151.142145 
z
" style="fill:#348abd;opacity:0.2;"/>
   </g>
   <g id="patch_190">
    <path clip-path="url(#pb71e4aa2b8)" d="M 411.971297 152.2 
L 413.353313 152.2 
L 413.353313 151.328825 
L 411.971297 151.328825 
z
" style="fill:#348abd;opacity:0.2;"/>
   </g>
   <g id="patch_191">
    <path clip-path="url(#pb71e4aa2b8)" d="M 413.698817 152.2 
L 415.080832 152.2 
L 415.080832 151.25277 
L 413.698817 151.25277 
z
" style="fill:#348abd;opacity:0.2;"/>
   </g>
   <g id="patch_192">
    <path clip-path="url(#pb71e4aa2b8)" d="M 415.426336 152.2 
L 416.808352 152.2 
L 416.808352 151.321911 
L 415.426336 151.321911 
z
" style="fill:#348abd;opacity:0.2;"/>
   </g>
   <g id="patch_193">
    <path clip-path="url(#pb71e4aa2b8)" d="M 417.153856 152.2 
L 418.535871 152.2 
L 418.535871 151.619217 
L 417.153856 151.619217 
z
" style="fill:#348abd;opacity:0.2;"/>
   </g>
   <g id="patch_194">
    <path clip-path="url(#pb71e4aa2b8)" d="M 418.881375 152.2 
L 420.263391 152.2 
L 420.263391 151.501677 
L 418.881375 151.501677 
z
" style="fill:#348abd;opacity:0.2;"/>
   </g>
   <g id="patch_195">
    <path clip-path="url(#pb71e4aa2b8)" d="M 420.608895 152.2 
L 421.99091 152.2 
L 421.99091 151.204371 
L 420.608895 151.204371 
z
" style="fill:#348abd;opacity:0.2;"/>
   </g>
   <g id="patch_196">
    <path clip-path="url(#pb71e4aa2b8)" d="M 422.336414 152.2 
L 423.71843 152.2 
L 423.71843 150.879409 
L 422.336414 150.879409 
z
" style="fill:#348abd;opacity:0.2;"/>
   </g>
   <g id="patch_197">
    <path clip-path="url(#pb71e4aa2b8)" d="M 424.063934 152.2 
L 425.445949 152.2 
L 425.445949 150.88978 
L 424.063934 150.88978 
z
" style="fill:#348abd;opacity:0.2;"/>
   </g>
   <g id="patch_198">
    <path clip-path="url(#pb71e4aa2b8)" d="M 425.791453 152.2 
L 427.173469 152.2 
L 427.173469 151.180172 
L 425.791453 151.180172 
z
" style="fill:#348abd;opacity:0.2;"/>
   </g>
   <g id="patch_199">
    <path clip-path="url(#pb71e4aa2b8)" d="M 427.518973 152.2 
L 428.900988 152.2 
L 428.900988 151.377224 
L 427.518973 151.377224 
z
" style="fill:#348abd;opacity:0.2;"/>
   </g>
   <g id="patch_200">
    <path clip-path="url(#pb71e4aa2b8)" d="M 429.246492 152.2 
L 430.628508 152.2 
L 430.628508 151.65033 
L 429.246492 151.65033 
z
" style="fill:#348abd;opacity:0.2;"/>
   </g>
   <g id="patch_201">
    <path clip-path="url(#pb71e4aa2b8)" d="M 430.974012 152.2 
L 432.356027 152.2 
L 432.356027 151.543162 
L 430.974012 151.543162 
z
" style="fill:#348abd;opacity:0.2;"/>
   </g>
   <g id="patch_202">
    <path clip-path="url(#pb71e4aa2b8)" d="M 432.701531 152.2 
L 434.083547 152.2 
L 434.083547 150.872495 
L 432.701531 150.872495 
z
" style="fill:#348abd;opacity:0.2;"/>
   </g>
   <g id="patch_203">
    <path clip-path="url(#pb71e4aa2b8)" d="M 434.429051 152.2 
L 435.811066 152.2 
L 435.811066 150.813725 
L 434.429051 150.813725 
z
" style="fill:#348abd;opacity:0.2;"/>
   </g>
   <g id="patch_204">
    <path clip-path="url(#pb71e4aa2b8)" d="M 436.15657 152.2 
L 437.538586 152.2 
L 437.538586 150.291712 
L 436.15657 150.291712 
z
" style="fill:#348abd;opacity:0.2;"/>
   </g>
   <g id="patch_205">
    <path clip-path="url(#pb71e4aa2b8)" d="M 437.88409 152.2 
L 439.266105 152.2 
L 439.266105 151.000406 
L 437.88409 151.000406 
z
" style="fill:#348abd;opacity:0.2;"/>
   </g>
   <g id="patch_206">
    <path clip-path="url(#pb71e4aa2b8)" d="M 439.611609 152.2 
L 440.993625 152.2 
L 440.993625 150.599389 
L 439.611609 150.599389 
z
" style="fill:#348abd;opacity:0.2;"/>
   </g>
   <g id="patch_207">
    <path clip-path="url(#pb71e4aa2b8)" d="M 441.339129 152.2 
L 442.721144 152.2 
L 442.721144 151.304626 
L 441.339129 151.304626 
z
" style="fill:#348abd;opacity:0.2;"/>
   </g>
   <g id="patch_208">
    <path clip-path="url(#pb71e4aa2b8)" d="M 443.066648 152.2 
L 444.448664 152.2 
L 444.448664 150.775698 
L 443.066648 150.775698 
z
" style="fill:#348abd;opacity:0.2;"/>
   </g>
   <g id="patch_209">
    <path clip-path="url(#pb71e4aa2b8)" d="M 444.794168 152.2 
L 446.176183 152.2 
L 446.176183 150.554447 
L 444.794168 150.554447 
z
" style="fill:#348abd;opacity:0.2;"/>
   </g>
   <g id="patch_210">
    <path clip-path="url(#pb71e4aa2b8)" d="M 446.521687 152.2 
L 447.903703 152.2 
L 447.903703 150.395423 
L 446.521687 150.395423 
z
" style="fill:#348abd;opacity:0.2;"/>
   </g>
   <g id="patch_211">
    <path clip-path="url(#pb71e4aa2b8)" d="M 448.249207 152.2 
L 449.631222 152.2 
L 449.631222 150.215657 
L 448.249207 150.215657 
z
" style="fill:#348abd;opacity:0.2;"/>
   </g>
   <g id="patch_212">
    <path clip-path="url(#pb71e4aa2b8)" d="M 449.976726 152.2 
L 451.358742 152.2 
L 451.358742 150.02552 
L 449.976726 150.02552 
z
" style="fill:#348abd;opacity:0.2;"/>
   </g>
   <g id="patch_213">
    <path clip-path="url(#pb71e4aa2b8)" d="M 451.704246 152.2 
L 453.086261 152.2 
L 453.086261 150.55099 
L 451.704246 150.55099 
z
" style="fill:#348abd;opacity:0.2;"/>
   </g>
   <g id="patch_214">
    <path clip-path="url(#pb71e4aa2b8)" d="M 453.431765 152.2 
L 454.813781 152.2 
L 454.813781 151.093746 
L 453.431765 151.093746 
z
" style="fill:#348abd;opacity:0.2;"/>
   </g>
   <g id="patch_215">
    <path clip-path="url(#pb71e4aa2b8)" d="M 455.159285 152.2 
L 456.5413 152.2 
L 456.5413 150.813725 
L 455.159285 150.813725 
z
" style="fill:#348abd;opacity:0.2;"/>
   </g>
   <g id="patch_216">
    <path clip-path="url(#pb71e4aa2b8)" d="M 456.886804 152.2 
L 458.26882 152.2 
L 458.26882 149.980578 
L 456.886804 149.980578 
z
" style="fill:#348abd;opacity:0.2;"/>
   </g>
   <g id="patch_217">
    <path clip-path="url(#pb71e4aa2b8)" d="M 458.614324 152.2 
L 459.996339 152.2 
L 459.996339 149.296083 
L 458.614324 149.296083 
z
" style="fill:#348abd;opacity:0.2;"/>
   </g>
   <g id="patch_218">
    <path clip-path="url(#pb71e4aa2b8)" d="M 460.341843 152.2 
L 461.723859 152.2 
L 461.723859 148.92618 
L 460.341843 148.92618 
z
" style="fill:#348abd;opacity:0.2;"/>
   </g>
   <g id="patch_219">
    <path clip-path="url(#pb71e4aa2b8)" d="M 462.069363 152.2 
L 463.451378 152.2 
L 463.451378 148.497506 
L 462.069363 148.497506 
z
" style="fill:#348abd;opacity:0.2;"/>
   </g>
   <g id="patch_220">
    <path clip-path="url(#pb71e4aa2b8)" d="M 463.796882 152.2 
L 465.178898 152.2 
L 465.178898 148.020434 
L 463.796882 148.020434 
z
" style="fill:#348abd;opacity:0.2;"/>
   </g>
   <g id="patch_221">
    <path clip-path="url(#pb71e4aa2b8)" d="M 465.524402 152.2 
L 466.906417 152.2 
L 466.906417 148.905437 
L 465.524402 148.905437 
z
" style="fill:#348abd;opacity:0.2;"/>
   </g>
   <g id="patch_222">
    <path clip-path="url(#pb71e4aa2b8)" d="M 467.251921 152.2 
L 468.633937 152.2 
L 468.633937 149.17163 
L 467.251921 149.17163 
z
" style="fill:#348abd;opacity:0.2;"/>
   </g>
   <g id="patch_223">
    <path clip-path="url(#pb71e4aa2b8)" d="M 468.979441 152.2 
L 470.361456 152.2 
L 470.361456 147.477678 
L 468.979441 147.477678 
z
" style="fill:#348abd;opacity:0.2;"/>
   </g>
   <g id="patch_224">
    <path clip-path="url(#pb71e4aa2b8)" d="M 470.70696 152.2 
L 472.088976 152.2 
L 472.088976 147.329025 
L 470.70696 147.329025 
z
" style="fill:#348abd;opacity:0.2;"/>
   </g>
   <g id="patch_225">
    <path clip-path="url(#pb71e4aa2b8)" d="M 472.43448 152.2 
L 473.816495 152.2 
L 473.816495 147.152716 
L 472.43448 147.152716 
z
" style="fill:#348abd;opacity:0.2;"/>
   </g>
   <g id="patch_226">
    <path clip-path="url(#pb71e4aa2b8)" d="M 474.161999 152.2 
L 475.544015 152.2 
L 475.544015 147.208029 
L 474.161999 147.208029 
z
" style="fill:#348abd;opacity:0.2;"/>
   </g>
   <g id="patch_227">
    <path clip-path="url(#pb71e4aa2b8)" d="M 475.889519 152.2 
L 477.271535 152.2 
L 477.271535 147.481135 
L 475.889519 147.481135 
z
" style="fill:#348abd;opacity:0.2;"/>
   </g>
   <g id="patch_228">
    <path clip-path="url(#pb71e4aa2b8)" d="M 477.617038 152.2 
L 478.999054 152.2 
L 478.999054 148.756785 
L 477.617038 148.756785 
z
" style="fill:#348abd;opacity:0.2;"/>
   </g>
   <g id="patch_229">
    <path clip-path="url(#pb71e4aa2b8)" d="M 479.344558 152.2 
L 480.726574 152.2 
L 480.726574 148.829382 
L 479.344558 148.829382 
z
" style="fill:#348abd;opacity:0.2;"/>
   </g>
   <g id="patch_230">
    <path clip-path="url(#pb71e4aa2b8)" d="M 481.072077 152.2 
L 482.454093 152.2 
L 482.454093 147.61596 
L 481.072077 147.61596 
z
" style="fill:#348abd;opacity:0.2;"/>
   </g>
   <g id="patch_231">
    <path clip-path="url(#pb71e4aa2b8)" d="M 482.799597 152.2 
L 484.181613 152.2 
L 484.181613 147.37051 
L 482.799597 147.37051 
z
" style="fill:#348abd;opacity:0.2;"/>
   </g>
   <g id="patch_232">
    <path clip-path="url(#pb71e4aa2b8)" d="M 484.527116 152.2 
L 485.909132 152.2 
L 485.909132 146.2124 
L 484.527116 146.2124 
z
" style="fill:#348abd;opacity:0.2;"/>
   </g>
   <g id="patch_233">
    <path clip-path="url(#pb71e4aa2b8)" d="M 486.254636 152.2 
L 487.636652 152.2 
L 487.636652 146.343768 
L 486.254636 146.343768 
z
" style="fill:#348abd;opacity:0.2;"/>
   </g>
   <g id="patch_234">
    <path clip-path="url(#pb71e4aa2b8)" d="M 487.982155 152.2 
L 489.364171 152.2 
L 489.364171 147.719671 
L 487.982155 147.719671 
z
" style="fill:#348abd;opacity:0.2;"/>
   </g>
   <g id="patch_235">
    <path clip-path="url(#pb71e4aa2b8)" d="M 489.709675 152.2 
L 491.091691 152.2 
L 491.091691 148.2244 
L 489.709675 148.2244 
z
" style="fill:#348abd;opacity:0.2;"/>
   </g>
   <g id="patch_236">
    <path clip-path="url(#pb71e4aa2b8)" d="M 491.437194 152.2 
L 492.81921 152.2 
L 492.81921 147.467307 
L 491.437194 147.467307 
z
" style="fill:#348abd;opacity:0.2;"/>
   </g>
   <g id="patch_237">
    <path clip-path="url(#pb71e4aa2b8)" d="M 493.164714 152.2 
L 494.54673 152.2 
L 494.54673 147.256428 
L 493.164714 147.256428 
z
" style="fill:#348abd;opacity:0.2;"/>
   </g>
   <g id="patch_238">
    <path clip-path="url(#pb71e4aa2b8)" d="M 494.892233 152.2 
L 496.274249 152.2 
L 496.274249 146.679101 
L 494.892233 146.679101 
z
" style="fill:#348abd;opacity:0.2;"/>
   </g>
   <g id="patch_239">
    <path clip-path="url(#pb71e4aa2b8)" d="M 496.619753 152.2 
L 498.001769 152.2 
L 498.001769 146.613417 
L 496.619753 146.613417 
z
" style="fill:#348abd;opacity:0.2;"/>
   </g>
   <g id="patch_240">
    <path clip-path="url(#pb71e4aa2b8)" d="M 498.347272 152.2 
L 499.729288 152.2 
L 499.729288 147.010977 
L 498.347272 147.010977 
z
" style="fill:#348abd;opacity:0.2;"/>
   </g>
   <g id="patch_241">
    <path clip-path="url(#pb71e4aa2b8)" d="M 500.074792 152.2 
L 501.456808 152.2 
L 501.456808 147.166544 
L 500.074792 147.166544 
z
" style="fill:#348abd;opacity:0.2;"/>
   </g>
   <g id="patch_242">
    <path clip-path="url(#pb71e4aa2b8)" d="M 501.802312 152.2 
L 503.184327 152.2 
L 503.184327 148.7153 
L 501.802312 148.7153 
z
" style="fill:#348abd;opacity:0.2;"/>
   </g>
   <g id="patch_243">
    <path clip-path="url(#pb71e4aa2b8)" d="M 503.529831 152.2 
L 504.911847 152.2 
L 504.911847 147.951293 
L 503.529831 147.951293 
z
" style="fill:#348abd;opacity:0.2;"/>
   </g>
   <g id="patch_244">
    <path clip-path="url(#pb71e4aa2b8)" d="M 505.257351 152.2 
L 506.639366 152.2 
L 506.639366 147.180373 
L 505.257351 147.180373 
z
" style="fill:#348abd;opacity:0.2;"/>
   </g>
   <g id="patch_245">
    <path clip-path="url(#pb71e4aa2b8)" d="M 506.98487 152.2 
L 508.366886 152.2 
L 508.366886 146.7275 
L 506.98487 146.7275 
z
" style="fill:#348abd;opacity:0.2;"/>
   </g>
   <g id="patch_246">
    <path clip-path="url(#pb71e4aa2b8)" d="M 508.71239 152.2 
L 510.094405 152.2 
L 510.094405 145.607418 
L 508.71239 145.607418 
z
" style="fill:#348abd;opacity:0.2;"/>
   </g>
   <g id="patch_247">
    <path clip-path="url(#pb71e4aa2b8)" d="M 510.439909 152.2 
L 511.821925 152.2 
L 511.821925 146.54082 
L 510.439909 146.54082 
z
" style="fill:#348abd;opacity:0.2;"/>
   </g>
   <g id="patch_248">
    <path clip-path="url(#pb71e4aa2b8)" d="M 512.167429 152.2 
L 513.549444 152.2 
L 513.549444 146.713672 
L 512.167429 146.713672 
z
" style="fill:#348abd;opacity:0.2;"/>
   </g>
   <g id="patch_249">
    <path clip-path="url(#pb71e4aa2b8)" d="M 513.894948 152.2 
L 515.276964 152.2 
L 515.276964 147.532991 
L 513.894948 147.532991 
z
" style="fill:#348abd;opacity:0.2;"/>
   </g>
   <g id="patch_250">
    <path clip-path="url(#pb71e4aa2b8)" d="M 515.622468 152.2 
L 517.004483 152.2 
L 517.004483 147.391252 
L 515.622468 147.391252 
z
" style="fill:#348abd;opacity:0.2;"/>
   </g>
   <g id="patch_251">
    <path clip-path="url(#pb71e4aa2b8)" d="M 517.349987 152.2 
L 518.732003 152.2 
L 518.732003 146.530448 
L 517.349987 146.530448 
z
" style="fill:#348abd;opacity:0.2;"/>
   </g>
   <g id="patch_252">
    <path clip-path="url(#pb71e4aa2b8)" d="M 519.077507 152.2 
L 520.459522 152.2 
L 520.459522 146.02572 
L 519.077507 146.02572 
z
" style="fill:#348abd;opacity:0.2;"/>
   </g>
   <g id="patch_253">
    <path clip-path="url(#pb71e4aa2b8)" d="M 520.805026 152.2 
L 522.187042 152.2 
L 522.187042 145.590133 
L 520.805026 145.590133 
z
" style="fill:#348abd;opacity:0.2;"/>
   </g>
   <g id="patch_254">
    <path clip-path="url(#pb71e4aa2b8)" d="M 522.532546 152.2 
L 523.914561 152.2 
L 523.914561 145.738785 
L 522.532546 145.738785 
z
" style="fill:#348abd;opacity:0.2;"/>
   </g>
   <g id="patch_255">
    <path clip-path="url(#pb71e4aa2b8)" d="M 524.260065 152.2 
L 525.642081 152.2 
L 525.642081 146.094861 
L 524.260065 146.094861 
z
" style="fill:#348abd;opacity:0.2;"/>
   </g>
   <g id="patch_256">
    <path clip-path="url(#pb71e4aa2b8)" d="M 525.987585 152.2 
L 527.3696 152.2 
L 527.3696 147.035177 
L 525.987585 147.035177 
z
" style="fill:#348abd;opacity:0.2;"/>
   </g>
   <g id="patch_257">
    <path clip-path="url(#pb71e4aa2b8)" d="M 527.715104 152.2 
L 529.09712 152.2 
L 529.09712 146.506249 
L 527.715104 146.506249 
z
" style="fill:#348abd;opacity:0.2;"/>
   </g>
   <g id="patch_258">
    <path clip-path="url(#pb71e4aa2b8)" d="M 529.442624 152.2 
L 530.824639 152.2 
L 530.824639 145.804469 
L 529.442624 145.804469 
z
" style="fill:#348abd;opacity:0.2;"/>
   </g>
   <g id="patch_259">
    <path clip-path="url(#pb71e4aa2b8)" d="M 531.170143 152.2 
L 532.552159 152.2 
L 532.552159 143.391453 
L 531.170143 143.391453 
z
" style="fill:#348abd;opacity:0.2;"/>
   </g>
   <g id="patch_260">
    <path clip-path="url(#pb71e4aa2b8)" d="M 532.897663 152.2 
L 534.279678 152.2 
L 534.279678 143.560848 
L 532.897663 143.560848 
z
" style="fill:#348abd;opacity:0.2;"/>
   </g>
   <g id="patch_261">
    <path clip-path="url(#pb71e4aa2b8)" d="M 534.625182 152.2 
L 536.007198 152.2 
L 536.007198 142.371625 
L 534.625182 142.371625 
z
" style="fill:#348abd;opacity:0.2;"/>
   </g>
   <g id="patch_262">
    <path clip-path="url(#pb71e4aa2b8)" d="M 536.352702 152.2 
L 537.734717 152.2 
L 537.734717 143.287741 
L 536.352702 143.287741 
z
" style="fill:#348abd;opacity:0.2;"/>
   </g>
   <g id="patch_263">
    <path clip-path="url(#pb71e4aa2b8)" d="M 538.080221 152.2 
L 539.462237 152.2 
L 539.462237 144.397452 
L 538.080221 144.397452 
z
" style="fill:#348abd;opacity:0.2;"/>
   </g>
   <g id="patch_264">
    <path clip-path="url(#pb71e4aa2b8)" d="M 539.807741 152.2 
L 541.189756 152.2 
L 541.189756 142.945494 
L 539.807741 142.945494 
z
" style="fill:#348abd;opacity:0.2;"/>
   </g>
   <g id="patch_265">
    <path clip-path="url(#pb71e4aa2b8)" d="M 541.53526 152.2 
L 542.917276 152.2 
L 542.917276 139.48845 
L 541.53526 139.48845 
z
" style="fill:#348abd;opacity:0.2;"/>
   </g>
   <g id="patch_266">
    <path clip-path="url(#pb71e4aa2b8)" d="M 543.26278 152.2 
L 544.644795 152.2 
L 544.644795 136.788499 
L 543.26278 136.788499 
z
" style="fill:#348abd;opacity:0.2;"/>
   </g>
   <g id="patch_267">
    <path clip-path="url(#pb71e4aa2b8)" d="M 544.990299 152.2 
L 546.372315 152.2 
L 546.372315 133.628761 
L 544.990299 133.628761 
z
" style="fill:#348abd;opacity:0.2;"/>
   </g>
   <g id="patch_268">
    <path clip-path="url(#pb71e4aa2b8)" d="M 546.717819 152.2 
L 548.099834 152.2 
L 548.099834 132.411882 
L 546.717819 132.411882 
z
" style="fill:#348abd;opacity:0.2;"/>
   </g>
   <g id="patch_269">
    <path clip-path="url(#pb71e4aa2b8)" d="M 548.445338 152.2 
L 549.827354 152.2 
L 549.827354 133.33837 
L 548.445338 133.33837 
z
" style="fill:#348abd;opacity:0.2;"/>
   </g>
   <g id="patch_270">
    <path clip-path="url(#pb71e4aa2b8)" d="M 550.172858 152.2 
L 551.554873 152.2 
L 551.554873 136.231915 
L 550.172858 136.231915 
z
" style="fill:#348abd;opacity:0.2;"/>
   </g>
   <g id="patch_271">
    <path clip-path="url(#pb71e4aa2b8)" d="M 551.900377 152.2 
L 553.282393 152.2 
L 553.282393 131.810356 
L 551.900377 131.810356 
z
" style="fill:#348abd;opacity:0.2;"/>
   </g>
   <g id="patch_272">
    <path clip-path="url(#pb71e4aa2b8)" d="M 553.627897 152.2 
L 555.009912 152.2 
L 555.009912 126.852956 
L 553.627897 126.852956 
z
" style="fill:#348abd;opacity:0.2;"/>
   </g>
   <g id="patch_273">
    <path clip-path="url(#pb71e4aa2b8)" d="M 555.355416 152.2 
L 556.737432 152.2 
L 556.737432 121.767645 
L 555.355416 121.767645 
z
" style="fill:#348abd;opacity:0.2;"/>
   </g>
   <g id="patch_274">
    <path clip-path="url(#pb71e4aa2b8)" d="M 557.082936 152.2 
L 558.464951 152.2 
L 558.464951 117.59845 
L 557.082936 117.59845 
z
" style="fill:#348abd;opacity:0.2;"/>
   </g>
   <g id="patch_275">
    <path clip-path="url(#pb71e4aa2b8)" d="M 558.810455 152.2 
L 560.192471 152.2 
L 560.192471 114.431798 
L 558.810455 114.431798 
z
" style="fill:#348abd;opacity:0.2;"/>
   </g>
   <g id="patch_276">
    <path clip-path="url(#pb71e4aa2b8)" d="M 560.537975 152.2 
L 561.91999 152.2 
L 561.91999 111.735304 
L 560.537975 111.735304 
z
" style="fill:#348abd;opacity:0.2;"/>
   </g>
   <g id="patch_277">
    <path clip-path="url(#pb71e4aa2b8)" d="M 562.265494 152.2 
L 563.64751 152.2 
L 563.64751 119.921583 
L 562.265494 119.921583 
z
" style="fill:#348abd;opacity:0.2;"/>
   </g>
   <g id="patch_278">
    <path clip-path="url(#pb71e4aa2b8)" d="M 563.993014 152.2 
L 565.375029 152.2 
L 565.375029 114.618478 
L 563.993014 114.618478 
z
" style="fill:#348abd;opacity:0.2;"/>
   </g>
   <g id="patch_279">
    <path clip-path="url(#pb71e4aa2b8)" d="M 565.720533 152.2 
L 567.102549 152.2 
L 567.102549 99.656393 
L 565.720533 99.656393 
z
" style="fill:#348abd;opacity:0.2;"/>
   </g>
   <g id="patch_280">
    <path clip-path="url(#pb71e4aa2b8)" d="M 567.448053 152.2 
L 568.830068 152.2 
L 568.830068 96.617652 
L 567.448053 96.617652 
z
" style="fill:#348abd;opacity:0.2;"/>
   </g>
   <g id="patch_281">
    <path clip-path="url(#pb71e4aa2b8)" d="M 569.175572 152.2 
L 570.557588 152.2 
L 570.557588 86.021813 
L 569.175572 86.021813 
z
" style="fill:#348abd;opacity:0.2;"/>
   </g>
   <g id="patch_282">
    <path clip-path="url(#pb71e4aa2b8)" d="M 570.903092 152.2 
L 572.285107 152.2 
L 572.285107 84.303662 
L 570.903092 84.303662 
z
" style="fill:#348abd;opacity:0.2;"/>
   </g>
   <g id="patch_283">
    <path clip-path="url(#pb71e4aa2b8)" d="M 572.630611 152.2 
L 574.012627 152.2 
L 574.012627 78.65831 
L 572.630611 78.65831 
z
" style="fill:#348abd;opacity:0.2;"/>
   </g>
   <g id="patch_284">
    <path clip-path="url(#pb71e4aa2b8)" d="M 574.358131 152.2 
L 575.740146 152.2 
L 575.740146 93.406058 
L 574.358131 93.406058 
z
" style="fill:#348abd;opacity:0.2;"/>
   </g>
   <g id="patch_285">
    <path clip-path="url(#pb71e4aa2b8)" d="M 576.08565 152.2 
L 577.467666 152.2 
L 577.467666 76.183067 
L 576.08565 76.183067 
z
" style="fill:#348abd;opacity:0.2;"/>
   </g>
   <g id="patch_286">
    <path clip-path="url(#pb71e4aa2b8)" d="M 577.81317 152.2 
L 579.195185 152.2 
L 579.195185 65.815393 
L 577.81317 65.815393 
z
" style="fill:#348abd;opacity:0.2;"/>
   </g>
   <g id="patch_287">
    <path clip-path="url(#pb71e4aa2b8)" d="M 579.540689 152.2 
L 580.922705 152.2 
L 580.922705 59.450976 
L 579.540689 59.450976 
z
" style="fill:#348abd;opacity:0.2;"/>
   </g>
   <g id="patch_288">
    <path clip-path="url(#pb71e4aa2b8)" d="M 581.268209 152.2 
L 582.650224 152.2 
L 582.650224 44.75854 
L 581.268209 44.75854 
z
" style="fill:#348abd;opacity:0.2;"/>
   </g>
   <g id="patch_289">
    <path clip-path="url(#pb71e4aa2b8)" d="M 582.995728 152.2 
L 584.377744 152.2 
L 584.377744 42.418121 
L 582.995728 42.418121 
z
" style="fill:#348abd;opacity:0.2;"/>
   </g>
   <g id="patch_290">
    <path clip-path="url(#pb71e4aa2b8)" d="M 584.723248 152.2 
L 586.105263 152.2 
L 586.105263 48.817109 
L 584.723248 48.817109 
z
" style="fill:#348abd;opacity:0.2;"/>
   </g>
   <g id="patch_291">
    <path clip-path="url(#pb71e4aa2b8)" d="M 586.450767 152.2 
L 587.832783 152.2 
L 587.832783 75.270407 
L 586.450767 75.270407 
z
" style="fill:#348abd;opacity:0.2;"/>
   </g>
   <g id="patch_292">
    <path clip-path="url(#pb71e4aa2b8)" d="M 588.178287 152.2 
L 589.560302 152.2 
L 589.560302 54.56963 
L 588.178287 54.56963 
z
" style="fill:#348abd;opacity:0.2;"/>
   </g>
   <g id="patch_293">
    <path clip-path="url(#pb71e4aa2b8)" d="M 589.905806 152.2 
L 591.287822 152.2 
L 591.287822 46.59423 
L 589.905806 46.59423 
z
" style="fill:#348abd;opacity:0.2;"/>
   </g>
   <g id="patch_294">
    <path clip-path="url(#pb71e4aa2b8)" d="M 591.633326 152.2 
L 593.015341 152.2 
L 593.015341 32.925079 
L 591.633326 32.925079 
z
" style="fill:#348abd;opacity:0.2;"/>
   </g>
   <g id="patch_295">
    <path clip-path="url(#pb71e4aa2b8)" d="M 593.360845 152.2 
L 594.742861 152.2 
L 594.742861 21.516835 
L 593.360845 21.516835 
z
" style="fill:#348abd;opacity:0.2;"/>
   </g>
   <g id="patch_296">
    <path clip-path="url(#pb71e4aa2b8)" d="M 595.088365 152.2 
L 596.470381 152.2 
L 596.470381 14.578549 
L 595.088365 14.578549 
z
" style="fill:#348abd;opacity:0.2;"/>
   </g>
   <g id="patch_297">
    <path clip-path="url(#pb71e4aa2b8)" d="M 596.815884 152.2 
L 598.1979 152.2 
L 598.1979 39.451978 
L 596.815884 39.451978 
z
" style="fill:#348abd;opacity:0.2;"/>
   </g>
   <g id="patch_298">
    <path clip-path="url(#pb71e4aa2b8)" d="M 598.543404 152.2 
L 599.92542 152.2 
L 599.92542 64.843964 
L 598.543404 64.843964 
z
" style="fill:#348abd;opacity:0.2;"/>
   </g>
   <g id="patch_299">
    <path clip-path="url(#pb71e4aa2b8)" d="M 600.270923 152.2 
L 601.652939 152.2 
L 601.652939 30.892338 
L 600.270923 30.892338 
z
" style="fill:#348abd;opacity:0.2;"/>
   </g>
   <g id="patch_300">
    <path clip-path="url(#pb71e4aa2b8)" d="M 601.998443 152.2 
L 603.380459 152.2 
L 603.380459 38.252384 
L 601.998443 38.252384 
z
" style="fill:#348abd;opacity:0.2;"/>
   </g>
   <g id="patch_301">
    <path clip-path="url(#pb71e4aa2b8)" d="M 603.725962 152.2 
L 605.107978 152.2 
L 605.107978 20.911853 
L 603.725962 20.911853 
z
" style="fill:#348abd;opacity:0.2;"/>
   </g>
   <g id="patch_302">
    <path clip-path="url(#pb71e4aa2b8)" d="M 605.453482 152.2 
L 606.835498 152.2 
L 606.835498 10.8 
L 605.453482 10.8 
z
" style="fill:#348abd;opacity:0.2;"/>
   </g>
   <g id="patch_303">
    <path clip-path="url(#pb71e4aa2b8)" d="M 607.181001 152.2 
L 608.563017 152.2 
L 608.563017 23.428581 
L 607.181001 23.428581 
z
" style="fill:#348abd;opacity:0.2;"/>
   </g>
   <g id="patch_304">
    <path clip-path="url(#pb71e4aa2b8)" d="M 608.908521 152.2 
L 610.290537 152.2 
L 610.290537 34.740027 
L 608.908521 34.740027 
z
" style="fill:#348abd;opacity:0.2;"/>
   </g>
   <g id="patch_305">
    <path clip-path="url(#pb71e4aa2b8)" d="M 610.63604 152.2 
L 612.018056 152.2 
L 612.018056 57.642942 
L 610.63604 57.642942 
z
" style="fill:#348abd;opacity:0.2;"/>
   </g>
   <g id="patch_306">
    <path clip-path="url(#pb71e4aa2b8)" d="M 612.36356 152.2 
L 613.745576 152.2 
L 613.745576 40.914307 
L 612.36356 40.914307 
z
" style="fill:#348abd;opacity:0.2;"/>
   </g>
   <g id="patch_307">
    <path clip-path="url(#pb71e4aa2b8)" d="M 614.091079 152.2 
L 615.473095 152.2 
L 615.473095 33.692543 
L 614.091079 33.692543 
z
" style="fill:#348abd;opacity:0.2;"/>
   </g>
   <g id="patch_308">
    <path clip-path="url(#pb71e4aa2b8)" d="M 615.818599 152.2 
L 617.200615 152.2 
L 617.200615 27.137988 
L 615.818599 27.137988 
z
" style="fill:#348abd;opacity:0.2;"/>
   </g>
   <g id="patch_309">
    <path clip-path="url(#pb71e4aa2b8)" d="M 617.546119 152.2 
L 618.928134 152.2 
L 618.928134 23.463151 
L 617.546119 23.463151 
z
" style="fill:#348abd;opacity:0.2;"/>
   </g>
   <g id="patch_310">
    <path clip-path="url(#pb71e4aa2b8)" d="M 619.273638 152.2 
L 620.655654 152.2 
L 620.655654 32.019334 
L 619.273638 32.019334 
z
" style="fill:#348abd;opacity:0.2;"/>
   </g>
   <g id="patch_311">
    <path clip-path="url(#pb71e4aa2b8)" d="M 621.001158 152.2 
L 622.383173 152.2 
L 622.383173 54.237754 
L 621.001158 54.237754 
z
" style="fill:#348abd;opacity:0.2;"/>
   </g>
   <g id="patch_312">
    <path clip-path="url(#pb71e4aa2b8)" d="M 622.728677 152.2 
L 624.110693 152.2 
L 624.110693 72.94036 
L 622.728677 72.94036 
z
" style="fill:#348abd;opacity:0.2;"/>
   </g>
   <g id="patch_313">
    <path clip-path="url(#pb71e4aa2b8)" d="M 624.456197 152.2 
L 625.838212 152.2 
L 625.838212 71.903247 
L 624.456197 71.903247 
z
" style="fill:#348abd;opacity:0.2;"/>
   </g>
   <g id="patch_314">
    <path clip-path="url(#pb71e4aa2b8)" d="M 626.183716 152.2 
L 627.565732 152.2 
L 627.565732 62.828507 
L 626.183716 62.828507 
z
" style="fill:#348abd;opacity:0.2;"/>
   </g>
   <g id="patch_315">
    <path clip-path="url(#pb71e4aa2b8)" d="M 627.911236 152.2 
L 629.293251 152.2 
L 629.293251 51.942277 
L 627.911236 51.942277 
z
" style="fill:#348abd;opacity:0.2;"/>
   </g>
   <g id="patch_316">
    <path clip-path="url(#pb71e4aa2b8)" d="M 629.638755 152.2 
L 631.020771 152.2 
L 631.020771 54.220468 
L 629.638755 54.220468 
z
" style="fill:#348abd;opacity:0.2;"/>
   </g>
   <g id="patch_317">
    <path clip-path="url(#pb71e4aa2b8)" d="M 631.366275 152.2 
L 632.74829 152.2 
L 632.74829 61.227896 
L 631.366275 61.227896 
z
" style="fill:#348abd;opacity:0.2;"/>
   </g>
   <g id="patch_318">
    <path clip-path="url(#pb71e4aa2b8)" d="M 633.093794 152.2 
L 634.47581 152.2 
L 634.47581 80.825876 
L 633.093794 80.825876 
z
" style="fill:#348abd;opacity:0.2;"/>
   </g>
   <g id="patch_319">
    <path clip-path="url(#pb71e4aa2b8)" d="M 634.821314 152.2 
L 636.203329 152.2 
L 636.203329 95.587453 
L 634.821314 95.587453 
z
" style="fill:#348abd;opacity:0.2;"/>
   </g>
   <g id="patch_320">
    <path clip-path="url(#pb71e4aa2b8)" d="M 636.548833 152.2 
L 637.930849 152.2 
L 637.930849 85.316576 
L 636.548833 85.316576 
z
" style="fill:#348abd;opacity:0.2;"/>
   </g>
   <g id="patch_321">
    <path clip-path="url(#pb71e4aa2b8)" d="M 638.276353 152.2 
L 639.658368 152.2 
L 639.658368 80.608083 
L 638.276353 80.608083 
z
" style="fill:#348abd;opacity:0.2;"/>
   </g>
   <g id="patch_322">
    <path clip-path="url(#pb71e4aa2b8)" d="M 640.003872 152.2 
L 641.385888 152.2 
L 641.385888 71.930903 
L 640.003872 71.930903 
z
" style="fill:#348abd;opacity:0.2;"/>
   </g>
   <g id="patch_323">
    <path clip-path="url(#pb71e4aa2b8)" d="M 641.731392 152.2 
L 643.113407 152.2 
L 643.113407 68.850677 
L 641.731392 68.850677 
z
" style="fill:#348abd;opacity:0.2;"/>
   </g>
   <g id="patch_324">
    <path clip-path="url(#pb71e4aa2b8)" d="M 643.458911 152.2 
L 644.840927 152.2 
L 644.840927 79.422317 
L 643.458911 79.422317 
z
" style="fill:#348abd;opacity:0.2;"/>
   </g>
   <g id="patch_325">
    <path clip-path="url(#pb71e4aa2b8)" d="M 645.186431 152.2 
L 646.568446 152.2 
L 646.568446 86.906816 
L 645.186431 86.906816 
z
" style="fill:#348abd;opacity:0.2;"/>
   </g>
   <g id="patch_326">
    <path clip-path="url(#pb71e4aa2b8)" d="M 646.91395 152.2 
L 648.295966 152.2 
L 648.295966 104.9111 
L 646.91395 104.9111 
z
" style="fill:#348abd;opacity:0.2;"/>
   </g>
   <g id="patch_327">
    <path clip-path="url(#pb71e4aa2b8)" d="M 648.64147 152.2 
L 650.023485 152.2 
L 650.023485 100.907843 
L 648.64147 100.907843 
z
" style="fill:#348abd;opacity:0.2;"/>
   </g>
   <g id="patch_328">
    <path clip-path="url(#pb71e4aa2b8)" d="M 650.368989 152.2 
L 651.751005 152.2 
L 651.751005 108.105408 
L 650.368989 108.105408 
z
" style="fill:#348abd;opacity:0.2;"/>
   </g>
   <g id="patch_329">
    <path clip-path="url(#pb71e4aa2b8)" d="M 652.096509 152.2 
L 653.478524 152.2 
L 653.478524 93.437172 
L 652.096509 93.437172 
z
" style="fill:#348abd;opacity:0.2;"/>
   </g>
   <g id="patch_330">
    <path clip-path="url(#pb71e4aa2b8)" d="M 653.824028 152.2 
L 655.206044 152.2 
L 655.206044 87.4634 
L 653.824028 87.4634 
z
" style="fill:#348abd;opacity:0.2;"/>
   </g>
   <g id="patch_331">
    <path clip-path="url(#pb71e4aa2b8)" d="M 655.551548 152.2 
L 656.933563 152.2 
L 656.933563 83.397917 
L 655.551548 83.397917 
z
" style="fill:#348abd;opacity:0.2;"/>
   </g>
   <g id="patch_332">
    <path clip-path="url(#pb71e4aa2b8)" d="M 657.279067 152.2 
L 658.661083 152.2 
L 658.661083 90.191008 
L 657.279067 90.191008 
z
" style="fill:#348abd;opacity:0.2;"/>
   </g>
   <g id="patch_333">
    <path clip-path="url(#pb71e4aa2b8)" d="M 659.006587 152.2 
L 660.388602 152.2 
L 660.388602 110.62905 
L 659.006587 110.62905 
z
" style="fill:#348abd;opacity:0.2;"/>
   </g>
   <g id="patch_334">
    <path clip-path="url(#pb71e4aa2b8)" d="M 660.734106 152.2 
L 662.116122 152.2 
L 662.116122 100.900929 
L 660.734106 100.900929 
z
" style="fill:#348abd;opacity:0.2;"/>
   </g>
   <g id="patch_335">
    <path clip-path="url(#pb71e4aa2b8)" d="M 662.461626 152.2 
L 663.843641 152.2 
L 663.843641 91.466657 
L 662.461626 91.466657 
z
" style="fill:#348abd;opacity:0.2;"/>
   </g>
   <g id="patch_336">
    <path clip-path="url(#pb71e4aa2b8)" d="M 664.189145 152.2 
L 665.571161 152.2 
L 665.571161 89.167723 
L 664.189145 89.167723 
z
" style="fill:#348abd;opacity:0.2;"/>
   </g>
   <g id="patch_337">
    <path clip-path="url(#pb71e4aa2b8)" d="M 665.916665 152.2 
L 667.29868 152.2 
L 667.29868 98.958071 
L 665.916665 98.958071 
z
" style="fill:#348abd;opacity:0.2;"/>
   </g>
   <g id="patch_338">
    <path clip-path="url(#pb71e4aa2b8)" d="M 667.644184 152.2 
L 669.0262 152.2 
L 669.0262 95.832903 
L 667.644184 95.832903 
z
" style="fill:#348abd;opacity:0.2;"/>
   </g>
   <g id="patch_339">
    <path clip-path="url(#pb71e4aa2b8)" d="M 669.371704 152.2 
L 670.753719 152.2 
L 670.753719 99.991727 
L 669.371704 99.991727 
z
" style="fill:#348abd;opacity:0.2;"/>
   </g>
   <g id="patch_340">
    <path clip-path="url(#pb71e4aa2b8)" d="M 671.099223 152.2 
L 672.481239 152.2 
L 672.481239 114.625392 
L 671.099223 114.625392 
z
" style="fill:#348abd;opacity:0.2;"/>
   </g>
   <g id="patch_341">
    <path clip-path="url(#pb71e4aa2b8)" d="M 672.826743 152.2 
L 674.208758 152.2 
L 674.208758 106.166007 
L 672.826743 106.166007 
z
" style="fill:#348abd;opacity:0.2;"/>
   </g>
   <g id="patch_342">
    <path clip-path="url(#pb71e4aa2b8)" d="M 674.554262 152.2 
L 675.936278 152.2 
L 675.936278 104.119437 
L 674.554262 104.119437 
z
" style="fill:#348abd;opacity:0.2;"/>
   </g>
   <g id="patch_343">
    <path clip-path="url(#pb71e4aa2b8)" d="M 676.281782 152.2 
L 677.663797 152.2 
L 677.663797 89.838389 
L 676.281782 89.838389 
z
" style="fill:#348abd;opacity:0.2;"/>
   </g>
   <g id="patch_344">
    <path clip-path="url(#pb71e4aa2b8)" d="M 678.009301 152.2 
L 679.391317 152.2 
L 679.391317 86.38826 
L 678.009301 86.38826 
z
" style="fill:#348abd;opacity:0.2;"/>
   </g>
   <g id="patch_345">
    <path clip-path="url(#pb71e4aa2b8)" d="M 679.736821 152.2 
L 681.118836 152.2 
L 681.118836 116.229461 
L 679.736821 116.229461 
z
" style="fill:#348abd;opacity:0.2;"/>
   </g>
   <g id="patch_346">
    <path clip-path="url(#pb71e4aa2b8)" d="M 681.46434 152.2 
L 682.846356 152.2 
L 682.846356 121.304401 
L 681.46434 121.304401 
z
" style="fill:#348abd;opacity:0.2;"/>
   </g>
   <g id="patch_347">
    <path clip-path="url(#pb71e4aa2b8)" d="M 683.19186 152.2 
L 684.573875 152.2 
L 684.573875 122.535108 
L 683.19186 122.535108 
z
" style="fill:#348abd;opacity:0.2;"/>
   </g>
   <g id="patch_348">
    <path clip-path="url(#pb71e4aa2b8)" d="M 684.919379 152.2 
L 686.301395 152.2 
L 686.301395 113.446541 
L 684.919379 113.446541 
z
" style="fill:#348abd;opacity:0.2;"/>
   </g>
   <g id="patch_349">
    <path clip-path="url(#pb71e4aa2b8)" d="M 686.646899 152.2 
L 688.028914 152.2 
L 688.028914 96.188979 
L 686.646899 96.188979 
z
" style="fill:#348abd;opacity:0.2;"/>
   </g>
   <g id="patch_350">
    <path clip-path="url(#pb71e4aa2b8)" d="M 688.374418 152.2 
L 689.756434 152.2 
L 689.756434 71.038986 
L 688.374418 71.038986 
z
" style="fill:#348abd;opacity:0.2;"/>
   </g>
   <g id="patch_351">
    <path clip-path="url(#pb71e4aa2b8)" d="M 690.101938 152.2 
L 691.483953 152.2 
L 691.483953 75.41906 
L 690.101938 75.41906 
z
" style="fill:#348abd;opacity:0.2;"/>
   </g>
   <g id="patch_352">
    <path clip-path="url(#pb71e4aa2b8)" d="M 691.829457 152.2 
L 693.211473 152.2 
L 693.211473 111.320459 
L 691.829457 111.320459 
z
" style="fill:#348abd;opacity:0.2;"/>
   </g>
   <g id="patch_353">
    <path clip-path="url(#pb71e4aa2b8)" d="M 693.556977 152.2 
L 694.938992 152.2 
L 694.938992 102.954413 
L 693.556977 102.954413 
z
" style="fill:#348abd;opacity:0.2;"/>
   </g>
   <g id="patch_354">
    <path clip-path="url(#pb71e4aa2b8)" d="M 695.284496 152.2 
L 696.666512 152.2 
L 696.666512 114.870843 
L 695.284496 114.870843 
z
" style="fill:#348abd;opacity:0.2;"/>
   </g>
   <g id="patch_355">
    <path clip-path="url(#pb71e4aa2b8)" d="M 697.012016 152.2 
L 698.394031 152.2 
L 698.394031 99.047954 
L 697.012016 99.047954 
z
" style="fill:#348abd;opacity:0.2;"/>
   </g>
   <g id="patch_356">
    <path clip-path="url(#pb71e4aa2b8)" d="M 698.739535 152.2 
L 700.121551 152.2 
L 700.121551 81.93213 
L 698.739535 81.93213 
z
" style="fill:#348abd;opacity:0.2;"/>
   </g>
   <g id="patch_357">
    <path clip-path="url(#pb71e4aa2b8)" d="M 700.467055 152.2 
L 701.84907 152.2 
L 701.84907 88.535084 
L 700.467055 88.535084 
z
" style="fill:#348abd;opacity:0.2;"/>
   </g>
   <g id="patch_358">
    <path clip-path="url(#pb71e4aa2b8)" d="M 702.194574 152.2 
L 703.57659 152.2 
L 703.57659 91.601482 
L 702.194574 91.601482 
z
" style="fill:#348abd;opacity:0.2;"/>
   </g>
   <g id="patch_359">
    <path clip-path="url(#pb71e4aa2b8)" d="M 703.922094 152.2 
L 705.304109 152.2 
L 705.304109 83.142096 
L 703.922094 83.142096 
z
" style="fill:#348abd;opacity:0.2;"/>
   </g>
   <g id="patch_360">
    <path clip-path="url(#pb71e4aa2b8)" d="M 705.649613 152.2 
L 707.031629 152.2 
L 707.031629 87.812562 
L 705.649613 87.812562 
z
" style="fill:#348abd;opacity:0.2;"/>
   </g>
   <g id="patch_361">
    <path clip-path="url(#pb71e4aa2b8)" d="M 707.377133 152.2 
L 708.759148 152.2 
L 708.759148 108.883243 
L 707.377133 108.883243 
z
" style="fill:#348abd;opacity:0.2;"/>
   </g>
   <g id="patch_362">
    <path clip-path="url(#pb71e4aa2b8)" d="M 709.104652 152.2 
L 710.486668 152.2 
L 710.486668 102.964784 
L 709.104652 102.964784 
z
" style="fill:#348abd;opacity:0.2;"/>
   </g>
   <g id="patch_363">
    <path clip-path="url(#pb71e4aa2b8)" d="M 710.832172 152.2 
L 712.214188 152.2 
L 712.214188 97.67205 
L 710.832172 97.67205 
z
" style="fill:#348abd;opacity:0.2;"/>
   </g>
   <g id="patch_364">
    <path clip-path="url(#pb71e4aa2b8)" d="M 712.559691 152.2 
L 713.941707 152.2 
L 713.941707 92.590196 
L 712.559691 92.590196 
z
" style="fill:#348abd;opacity:0.2;"/>
   </g>
   <g id="patch_365">
    <path clip-path="url(#pb71e4aa2b8)" d="M 714.287211 152.2 
L 715.669227 152.2 
L 715.669227 96.389487 
L 714.287211 96.389487 
z
" style="fill:#348abd;opacity:0.2;"/>
   </g>
   <g id="patch_366">
    <path clip-path="url(#pb71e4aa2b8)" d="M 716.01473 152.2 
L 717.396746 152.2 
L 717.396746 95.815618 
L 716.01473 95.815618 
z
" style="fill:#348abd;opacity:0.2;"/>
   </g>
   <g id="patch_367">
    <path clip-path="url(#pb71e4aa2b8)" d="M 717.74225 152.2 
L 719.124266 152.2 
L 719.124266 108.834844 
L 717.74225 108.834844 
z
" style="fill:#348abd;opacity:0.2;"/>
   </g>
   <g id="patch_368">
    <path clip-path="url(#pb71e4aa2b8)" d="M 719.469769 152.2 
L 720.851785 152.2 
L 720.851785 121.69159 
L 719.469769 121.69159 
z
" style="fill:#348abd;opacity:0.2;"/>
   </g>
   <g id="patch_369">
    <path clip-path="url(#pb71e4aa2b8)" d="M 721.197289 152.2 
L 722.579305 152.2 
L 722.579305 115.91487 
L 721.197289 115.91487 
z
" style="fill:#348abd;opacity:0.2;"/>
   </g>
   <g id="patch_370">
    <path clip-path="url(#pb71e4aa2b8)" d="M 722.924808 152.2 
L 724.306824 152.2 
L 724.306824 105.294832 
L 722.924808 105.294832 
z
" style="fill:#348abd;opacity:0.2;"/>
   </g>
   <g id="patch_371">
    <path clip-path="url(#pb71e4aa2b8)" d="M 724.652328 152.2 
L 726.034344 152.2 
L 726.034344 103.611251 
L 724.652328 103.611251 
z
" style="fill:#348abd;opacity:0.2;"/>
   </g>
   <g id="patch_372">
    <path clip-path="url(#pb71e4aa2b8)" d="M 726.379847 152.2 
L 727.761863 152.2 
L 727.761863 105.070124 
L 726.379847 105.070124 
z
" style="fill:#348abd;opacity:0.2;"/>
   </g>
   <g id="patch_373">
    <path clip-path="url(#pb71e4aa2b8)" d="M 728.107367 152.2 
L 729.489383 152.2 
L 729.489383 106.114151 
L 728.107367 106.114151 
z
" style="fill:#348abd;opacity:0.2;"/>
   </g>
   <g id="patch_374">
    <path clip-path="url(#pb71e4aa2b8)" d="M 729.834886 152.2 
L 731.216902 152.2 
L 731.216902 112.001496 
L 729.834886 112.001496 
z
" style="fill:#348abd;opacity:0.2;"/>
   </g>
   <g id="patch_375">
    <path clip-path="url(#pb71e4aa2b8)" d="M 731.562406 152.2 
L 732.944422 152.2 
L 732.944422 122.611163 
L 731.562406 122.611163 
z
" style="fill:#348abd;opacity:0.2;"/>
   </g>
   <g id="patch_376">
    <path clip-path="url(#pb71e4aa2b8)" d="M 733.289925 152.2 
L 734.671941 152.2 
L 734.671941 115.61065 
L 733.289925 115.61065 
z
" style="fill:#348abd;opacity:0.2;"/>
   </g>
   <g id="patch_377">
    <path clip-path="url(#pb71e4aa2b8)" d="M 735.017445 152.2 
L 736.399461 152.2 
L 736.399461 99.68405 
L 735.017445 99.68405 
z
" style="fill:#348abd;opacity:0.2;"/>
   </g>
   <g id="patch_378">
    <path clip-path="url(#pb71e4aa2b8)" d="M 736.744965 152.2 
L 738.12698 152.2 
L 738.12698 102.556853 
L 736.744965 102.556853 
z
" style="fill:#348abd;opacity:0.2;"/>
   </g>
   <g id="patch_379">
    <path clip-path="url(#pb71e4aa2b8)" d="M 738.472484 152.2 
L 739.8545 152.2 
L 739.8545 105.312117 
L 738.472484 105.312117 
z
" style="fill:#348abd;opacity:0.2;"/>
   </g>
   <g id="patch_380">
    <path clip-path="url(#pb71e4aa2b8)" d="M 740.200004 152.2 
L 741.582019 152.2 
L 741.582019 108.250604 
L 740.200004 108.250604 
z
" style="fill:#348abd;opacity:0.2;"/>
   </g>
   <g id="patch_381">
    <path clip-path="url(#pb71e4aa2b8)" d="M 741.927523 152.2 
L 743.309539 152.2 
L 743.309539 113.311716 
L 741.927523 113.311716 
z
" style="fill:#348abd;opacity:0.2;"/>
   </g>
   <g id="patch_382">
    <path clip-path="url(#pb71e4aa2b8)" d="M 743.655043 152.2 
L 745.037058 152.2 
L 745.037058 124.802929 
L 743.655043 124.802929 
z
" style="fill:#348abd;opacity:0.2;"/>
   </g>
   <g id="patch_383">
    <path clip-path="url(#pb71e4aa2b8)" d="M 745.382562 152.2 
L 746.764578 152.2 
L 746.764578 118.836072 
L 745.382562 118.836072 
z
" style="fill:#348abd;opacity:0.2;"/>
   </g>
   <g id="patch_384">
    <path clip-path="url(#pb71e4aa2b8)" d="M 747.110082 152.2 
L 748.492097 152.2 
L 748.492097 106.62925 
L 747.110082 106.62925 
z
" style="fill:#348abd;opacity:0.2;"/>
   </g>
   <g id="patch_385">
    <path clip-path="url(#pb71e4aa2b8)" d="M 748.837601 152.2 
L 750.219617 152.2 
L 750.219617 104.990612 
L 748.837601 104.990612 
z
" style="fill:#348abd;opacity:0.2;"/>
   </g>
   <g id="patch_386">
    <path clip-path="url(#pb71e4aa2b8)" d="M 750.565121 152.2 
L 751.947136 152.2 
L 751.947136 103.065038 
L 750.565121 103.065038 
z
" style="fill:#348abd;opacity:0.2;"/>
   </g>
   <g id="patch_387">
    <path clip-path="url(#pb71e4aa2b8)" d="M 752.29264 152.2 
L 753.674656 152.2 
L 753.674656 105.74079 
L 752.29264 105.74079 
z
" style="fill:#348abd;opacity:0.2;"/>
   </g>
   <g id="patch_388">
    <path clip-path="url(#pb71e4aa2b8)" d="M 754.02016 152.2 
L 755.402175 152.2 
L 755.402175 111.960012 
L 754.02016 111.960012 
z
" style="fill:#348abd;opacity:0.2;"/>
   </g>
   <g id="patch_389">
    <path clip-path="url(#pb71e4aa2b8)" d="M 755.747679 152.2 
L 757.129695 152.2 
L 757.129695 124.650819 
L 755.747679 124.650819 
z
" style="fill:#348abd;opacity:0.2;"/>
   </g>
   <g id="patch_390">
    <path clip-path="url(#pb71e4aa2b8)" d="M 757.475199 152.2 
L 758.857214 152.2 
L 758.857214 115.513853 
L 757.475199 115.513853 
z
" style="fill:#348abd;opacity:0.2;"/>
   </g>
   <g id="patch_391">
    <path clip-path="url(#pb71e4aa2b8)" d="M 759.202718 152.2 
L 760.584734 152.2 
L 760.584734 107.441656 
L 759.202718 107.441656 
z
" style="fill:#348abd;opacity:0.2;"/>
   </g>
   <g id="patch_392">
    <path clip-path="url(#pb71e4aa2b8)" d="M 760.930238 152.2 
L 762.312253 152.2 
L 762.312253 99.87073 
L 760.930238 99.87073 
z
" style="fill:#348abd;opacity:0.2;"/>
   </g>
   <g id="patch_393">
    <path clip-path="url(#pb71e4aa2b8)" d="M 762.657757 152.2 
L 764.039773 152.2 
L 764.039773 104.171292 
L 762.657757 104.171292 
z
" style="fill:#348abd;opacity:0.2;"/>
   </g>
   <g id="line2d_38">
    <path clip-path="url(#pb71e4aa2b8)" d="M 106.891352 152.199256 
L 144.896781 152.116607 
L 151.806859 151.847043 
L 156.989418 151.447783 
L 162.171976 150.81583 
L 165.627015 150.158747 
L 169.082054 149.285042 
L 172.537093 148.079725 
L 175.992132 146.517458 
L 179.447171 144.693231 
L 182.90221 142.687491 
L 186.357249 140.365298 
L 191.539808 136.68954 
L 193.267327 135.590565 
L 194.994847 134.645234 
L 196.722367 133.932462 
L 198.449886 133.457173 
L 200.177406 133.162443 
L 201.904925 133.047321 
L 203.632445 133.132451 
L 205.359964 133.334805 
L 208.815003 134.108729 
L 220.90764 137.459554 
L 224.362679 138.073639 
L 227.817718 138.529387 
L 234.727796 139.425822 
L 246.820432 141.665736 
L 252.002991 142.501636 
L 269.278186 146.419137 
L 274.460744 147.423297 
L 279.643303 148.121398 
L 284.825861 148.633137 
L 303.828576 150.128271 
L 326.28633 151.160622 
L 359.1092 151.357051 
L 364.291759 151.36961 
L 372.929356 151.556318 
L 417.844863 151.293923 
L 435.120059 150.976322 
L 454.122773 150.198511 
L 457.577812 149.780862 
L 469.670449 148.0211 
L 474.853007 147.77674 
L 485.218124 147.406404 
L 492.128202 147.219765 
L 504.220839 147.191311 
L 519.768514 146.408329 
L 523.223553 146.130023 
L 526.678592 145.65071 
L 530.133631 144.963873 
L 533.58867 143.96142 
L 535.31619 143.269671 
L 537.043709 142.425037 
L 538.771229 141.412804 
L 540.498748 140.267825 
L 543.953787 137.593903 
L 547.408827 134.391799 
L 549.136346 132.546956 
L 550.863866 130.456422 
L 554.318905 125.748233 
L 557.773944 120.230439 
L 559.501463 117.080066 
L 561.228983 113.651074 
L 564.684022 105.959695 
L 568.139061 97.173483 
L 571.5941 87.606402 
L 576.776658 72.256461 
L 578.504178 67.57342 
L 580.231697 63.28836 
L 581.959217 59.361572 
L 585.414256 52.490532 
L 588.869295 46.483162 
L 590.596814 43.621925 
L 592.324334 41.011313 
L 594.051853 38.707199 
L 595.779373 36.656002 
L 597.506892 35.17031 
L 599.234412 33.891141 
L 600.961931 32.81741 
L 602.689451 32.313933 
L 604.41697 31.969447 
L 606.14449 31.932737 
L 609.599529 32.701143 
L 611.327048 33.608731 
L 613.054568 34.960524 
L 614.782087 36.769964 
L 616.509607 39.235769 
L 618.237126 42.1395 
L 619.964646 45.453071 
L 623.419685 53.048527 
L 625.147204 57.02907 
L 628.602243 64.141255 
L 630.329763 67.367951 
L 632.057282 70.26043 
L 633.784802 72.923775 
L 635.512321 75.261501 
L 642.422399 83.737802 
L 645.877438 88.391594 
L 647.604958 90.605615 
L 649.332477 92.615623 
L 651.059997 94.19685 
L 652.787516 94.955504 
L 654.515036 95.140204 
L 657.970075 95.162476 
L 659.697594 95.418543 
L 661.425114 95.823177 
L 663.152633 96.46061 
L 666.607673 98.702791 
L 670.062712 100.18071 
L 671.790231 101.098169 
L 676.97279 104.343258 
L 678.700309 104.991982 
L 680.427829 105.367281 
L 682.155348 105.083708 
L 683.882868 104.054521 
L 685.610387 102.685823 
L 689.065426 99.231494 
L 690.792946 97.978999 
L 699.430543 94.36419 
L 704.613102 93.477419 
L 706.340621 93.998718 
L 708.068141 95.147222 
L 709.79566 96.654132 
L 718.433258 105.230452 
L 720.160777 106.60105 
L 721.888297 107.750124 
L 723.615816 108.638988 
L 725.343336 109.233987 
L 727.070855 109.534562 
L 728.798375 109.618241 
L 733.980933 109.440597 
L 735.708453 109.51742 
L 739.163492 110.196631 
L 742.618531 110.855688 
L 746.07357 111.155711 
L 747.801089 111.108405 
L 751.256128 110.688796 
L 752.983648 110.470223 
L 752.983648 110.470223 
" style="fill:none;stroke:#348abd;stroke-linecap:square;stroke-width:3;"/>
   </g>
   <g id="line2d_39">
    <path clip-path="url(#pb71e4aa2b8)" d="M 752.983648 110.826927 
L 754.711167 110.554095 
L 756.438687 110.235445 
L 758.166206 109.66434 
L 759.893726 109.257107 
L 761.621245 109.11485 
L 763.348765 108.901904 
" style="fill:none;stroke:#348abd;stroke-dasharray:11.1,4.8;stroke-dashoffset:0;stroke-opacity:0.7;stroke-width:3;"/>
   </g>
   <g id="patch_394">
    <path d="M 62.425 152.2 
L 62.425 10.8 
" style="fill:none;stroke:#ffffff;stroke-linecap:square;stroke-linejoin:miter;"/>
   </g>
   <g id="patch_395">
    <path d="M 797.45 152.2 
L 797.45 10.8 
" style="fill:none;stroke:#ffffff;stroke-linecap:square;stroke-linejoin:miter;"/>
   </g>
   <g id="patch_396">
    <path d="M 62.425 152.2 
L 797.45 152.2 
" style="fill:none;stroke:#ffffff;stroke-linecap:square;stroke-linejoin:miter;"/>
   </g>
   <g id="patch_397">
    <path d="M 62.425 10.8 
L 797.45 10.8 
" style="fill:none;stroke:#ffffff;stroke-linecap:square;stroke-linejoin:miter;"/>
   </g>
   <g id="legend_1">
    <g id="patch_398">
     <path d="M 69.425 48.15625 
L 267.776563 48.15625 
Q 269.776563 48.15625 269.776563 46.15625 
L 269.776563 17.8 
Q 269.776563 15.8 267.776563 15.8 
L 69.425 15.8 
Q 67.425 15.8 67.425 17.8 
L 67.425 46.15625 
Q 67.425 48.15625 69.425 48.15625 
z
" style="fill:#e5e5e5;opacity:0.8;stroke:#cccccc;stroke-linejoin:miter;stroke-width:0.5;"/>
    </g>
    <g id="line2d_40">
     <path d="M 71.425 23.898438 
L 91.425 23.898438 
" style="fill:none;stroke:#348abd;stroke-linecap:square;stroke-width:3;"/>
    </g>
    <g id="line2d_41"/>
    <g id="text_21">
     <text style="font-family:DejaVu Sans;font-size:10px;font-stretch:normal;font-style:normal;font-weight:normal;text-anchor:start;" transform="rotate(-0, 99.425, 27.398438)" x="99.425" y="27.398438">Italy new cases (rolling 7d mean)</text>
    </g>
    <g id="patch_399">
     <path d="M 71.425 42.076563 
L 91.425 42.076563 
L 91.425 35.076563 
L 71.425 35.076563 
z
" style="fill:#348abd;opacity:0.2;"/>
    </g>
    <g id="text_22">
     <text style="font-family:DejaVu Sans;font-size:10px;font-stretch:normal;font-style:normal;font-weight:normal;text-anchor:start;" transform="rotate(-0, 99.425, 42.076563)" x="99.425" y="42.076563">Italy new cases</text>
    </g>
   </g>
  </g>
 </g>
 <defs>
  <clipPath id="pb71e4aa2b8">
   <rect height="141.4" width="735.025" x="62.425" y="10.8"/>
  </clipPath>
 </defs>
</svg>
