<?xml version="1.0" encoding="utf-8" standalone="no"?>
<!DOCTYPE svg PUBLIC "-//W3C//DTD SVG 1.1//EN"
  "http://www.w3.org/Graphics/SVG/1.1/DTD/svg11.dtd">
<!-- Created with matplotlib (https://matplotlib.org/) -->
<svg height="180pt" version="1.1" viewBox="0 0 864 180" width="864pt" xmlns="http://www.w3.org/2000/svg" xmlns:xlink="http://www.w3.org/1999/xlink">
 <metadata>
  <rdf:RDF xmlns:cc="http://creativecommons.org/ns#" xmlns:dc="http://purl.org/dc/elements/1.1/" xmlns:rdf="http://www.w3.org/1999/02/22-rdf-syntax-ns#">
   <cc:Work>
    <dc:type rdf:resource="http://purl.org/dc/dcmitype/StillImage"/>
    <dc:date>2021-02-11T22:20:04.997715</dc:date>
    <dc:format>image/svg+xml</dc:format>
    <dc:creator>
     <cc:Agent>
      <dc:title>Matplotlib v3.3.4, https://matplotlib.org/</dc:title>
     </cc:Agent>
    </dc:creator>
   </cc:Work>
  </rdf:RDF>
 </metadata>
 <defs>
  <style type="text/css">*{stroke-linecap:butt;stroke-linejoin:round;}</style>
 </defs>
 <g id="figure_1">
  <g id="patch_1">
   <path d="M 0 180 
L 864 180 
L 864 0 
L 0 0 
z
" style="fill:#ffffff;"/>
  </g>
  <g id="axes_1">
   <g id="patch_2">
    <path d="M 62.425 152.2 
L 797.45 152.2 
L 797.45 10.8 
L 62.425 10.8 
z
" style="fill:#e5e5e5;"/>
   </g>
   <g id="matplotlib.axis_1">
    <g id="xtick_1">
     <g id="line2d_1">
      <path clip-path="url(#p4d0edad167)" d="M 162.516762 152.2 
L 162.516762 10.8 
" style="fill:none;stroke:#ffffff;stroke-linecap:square;stroke-width:0.8;"/>
     </g>
     <g id="line2d_2">
      <defs>
       <path d="M 0 0 
L 0 3.5 
" id="m21e82e5151" style="stroke:#555555;stroke-width:0.8;"/>
      </defs>
      <g>
       <use style="fill:#555555;stroke:#555555;stroke-width:0.8;" x="162.516762" xlink:href="#m21e82e5151" y="152.2"/>
      </g>
     </g>
     <g id="text_1">
      <text style="fill:#555555;font-family:DejaVu Sans;font-size:10px;font-stretch:normal;font-style:normal;font-weight:normal;text-anchor:middle;" transform="rotate(-0, 162.516762, 166.798438)" x="162.516762" y="166.798438">2020-03</text>
     </g>
    </g>
    <g id="xtick_2">
     <g id="line2d_3">
      <path clip-path="url(#p4d0edad167)" d="M 268.443158 152.2 
L 268.443158 10.8 
" style="fill:none;stroke:#ffffff;stroke-linecap:square;stroke-width:0.8;"/>
     </g>
     <g id="line2d_4">
      <g>
       <use style="fill:#555555;stroke:#555555;stroke-width:0.8;" x="268.443158" xlink:href="#m21e82e5151" y="152.2"/>
      </g>
     </g>
     <g id="text_2">
      <text style="fill:#555555;font-family:DejaVu Sans;font-size:10px;font-stretch:normal;font-style:normal;font-weight:normal;text-anchor:middle;" transform="rotate(-0, 268.443158, 166.798438)" x="268.443158" y="166.798438">2020-05</text>
     </g>
    </g>
    <g id="xtick_3">
     <g id="line2d_5">
      <path clip-path="url(#p4d0edad167)" d="M 374.369554 152.2 
L 374.369554 10.8 
" style="fill:none;stroke:#ffffff;stroke-linecap:square;stroke-width:0.8;"/>
     </g>
     <g id="line2d_6">
      <g>
       <use style="fill:#555555;stroke:#555555;stroke-width:0.8;" x="374.369554" xlink:href="#m21e82e5151" y="152.2"/>
      </g>
     </g>
     <g id="text_3">
      <text style="fill:#555555;font-family:DejaVu Sans;font-size:10px;font-stretch:normal;font-style:normal;font-weight:normal;text-anchor:middle;" transform="rotate(-0, 374.369554, 166.798438)" x="374.369554" y="166.798438">2020-07</text>
     </g>
    </g>
    <g id="xtick_4">
     <g id="line2d_7">
      <path clip-path="url(#p4d0edad167)" d="M 482.032449 152.2 
L 482.032449 10.8 
" style="fill:none;stroke:#ffffff;stroke-linecap:square;stroke-width:0.8;"/>
     </g>
     <g id="line2d_8">
      <g>
       <use style="fill:#555555;stroke:#555555;stroke-width:0.8;" x="482.032449" xlink:href="#m21e82e5151" y="152.2"/>
      </g>
     </g>
     <g id="text_4">
      <text style="fill:#555555;font-family:DejaVu Sans;font-size:10px;font-stretch:normal;font-style:normal;font-weight:normal;text-anchor:middle;" transform="rotate(-0, 482.032449, 166.798438)" x="482.032449" y="166.798438">2020-09</text>
     </g>
    </g>
    <g id="xtick_5">
     <g id="line2d_9">
      <path clip-path="url(#p4d0edad167)" d="M 587.958845 152.2 
L 587.958845 10.8 
" style="fill:none;stroke:#ffffff;stroke-linecap:square;stroke-width:0.8;"/>
     </g>
     <g id="line2d_10">
      <g>
       <use style="fill:#555555;stroke:#555555;stroke-width:0.8;" x="587.958845" xlink:href="#m21e82e5151" y="152.2"/>
      </g>
     </g>
     <g id="text_5">
      <text style="fill:#555555;font-family:DejaVu Sans;font-size:10px;font-stretch:normal;font-style:normal;font-weight:normal;text-anchor:middle;" transform="rotate(-0, 587.958845, 166.798438)" x="587.958845" y="166.798438">2020-11</text>
     </g>
    </g>
    <g id="xtick_6">
     <g id="line2d_11">
      <path clip-path="url(#p4d0edad167)" d="M 693.885241 152.2 
L 693.885241 10.8 
" style="fill:none;stroke:#ffffff;stroke-linecap:square;stroke-width:0.8;"/>
     </g>
     <g id="line2d_12">
      <g>
       <use style="fill:#555555;stroke:#555555;stroke-width:0.8;" x="693.885241" xlink:href="#m21e82e5151" y="152.2"/>
      </g>
     </g>
     <g id="text_6">
      <text style="fill:#555555;font-family:DejaVu Sans;font-size:10px;font-stretch:normal;font-style:normal;font-weight:normal;text-anchor:middle;" transform="rotate(-0, 693.885241, 166.798438)" x="693.885241" y="166.798438">2021-01</text>
     </g>
    </g>
    <g id="xtick_7">
     <g id="line2d_13">
      <path clip-path="url(#p4d0edad167)" d="M 796.338641 152.2 
L 796.338641 10.8 
" style="fill:none;stroke:#ffffff;stroke-linecap:square;stroke-width:0.8;"/>
     </g>
     <g id="line2d_14">
      <g>
       <use style="fill:#555555;stroke:#555555;stroke-width:0.8;" x="796.338641" xlink:href="#m21e82e5151" y="152.2"/>
      </g>
     </g>
     <g id="text_7">
      <text style="fill:#555555;font-family:DejaVu Sans;font-size:10px;font-stretch:normal;font-style:normal;font-weight:normal;text-anchor:middle;" transform="rotate(-0, 796.338641, 166.798438)" x="796.338641" y="166.798438">2021-03</text>
     </g>
    </g>
   </g>
   <g id="matplotlib.axis_2">
    <g id="ytick_1">
     <g id="line2d_15">
      <path clip-path="url(#p4d0edad167)" d="M 62.425 152.2 
L 797.45 152.2 
" style="fill:none;stroke:#ffffff;stroke-linecap:square;stroke-width:0.8;"/>
     </g>
     <g id="line2d_16">
      <defs>
       <path d="M 0 0 
L -3.5 0 
" id="mfe11f995e7" style="stroke:#555555;stroke-width:0.8;"/>
      </defs>
      <g>
       <use style="fill:#555555;stroke:#555555;stroke-width:0.8;" x="62.425" xlink:href="#mfe11f995e7" y="152.2"/>
      </g>
     </g>
     <g id="text_8">
      <text style="fill:#555555;font-family:DejaVu Sans;font-size:10px;font-stretch:normal;font-style:normal;font-weight:normal;text-anchor:end;" transform="rotate(-0, 55.425, 155.999219)" x="55.425" y="155.999219">0</text>
     </g>
    </g>
    <g id="ytick_2">
     <g id="line2d_17">
      <path clip-path="url(#p4d0edad167)" d="M 62.425 131.298082 
L 797.45 131.298082 
" style="fill:none;stroke:#ffffff;stroke-linecap:square;stroke-width:0.8;"/>
     </g>
     <g id="line2d_18">
      <g>
       <use style="fill:#555555;stroke:#555555;stroke-width:0.8;" x="62.425" xlink:href="#mfe11f995e7" y="131.298082"/>
      </g>
     </g>
     <g id="text_9">
      <text style="fill:#555555;font-family:DejaVu Sans;font-size:10px;font-stretch:normal;font-style:normal;font-weight:normal;text-anchor:end;" transform="rotate(-0, 55.425, 135.097301)" x="55.425" y="135.097301">10</text>
     </g>
    </g>
    <g id="ytick_3">
     <g id="line2d_19">
      <path clip-path="url(#p4d0edad167)" d="M 62.425 110.396164 
L 797.45 110.396164 
" style="fill:none;stroke:#ffffff;stroke-linecap:square;stroke-width:0.8;"/>
     </g>
     <g id="line2d_20">
      <g>
       <use style="fill:#555555;stroke:#555555;stroke-width:0.8;" x="62.425" xlink:href="#mfe11f995e7" y="110.396164"/>
      </g>
     </g>
     <g id="text_10">
      <text style="fill:#555555;font-family:DejaVu Sans;font-size:10px;font-stretch:normal;font-style:normal;font-weight:normal;text-anchor:end;" transform="rotate(-0, 55.425, 114.195383)" x="55.425" y="114.195383">20</text>
     </g>
    </g>
    <g id="ytick_4">
     <g id="line2d_21">
      <path clip-path="url(#p4d0edad167)" d="M 62.425 89.494246 
L 797.45 89.494246 
" style="fill:none;stroke:#ffffff;stroke-linecap:square;stroke-width:0.8;"/>
     </g>
     <g id="line2d_22">
      <g>
       <use style="fill:#555555;stroke:#555555;stroke-width:0.8;" x="62.425" xlink:href="#mfe11f995e7" y="89.494246"/>
      </g>
     </g>
     <g id="text_11">
      <text style="fill:#555555;font-family:DejaVu Sans;font-size:10px;font-stretch:normal;font-style:normal;font-weight:normal;text-anchor:end;" transform="rotate(-0, 55.425, 93.293465)" x="55.425" y="93.293465">30</text>
     </g>
    </g>
    <g id="ytick_5">
     <g id="line2d_23">
      <path clip-path="url(#p4d0edad167)" d="M 62.425 68.592328 
L 797.45 68.592328 
" style="fill:none;stroke:#ffffff;stroke-linecap:square;stroke-width:0.8;"/>
     </g>
     <g id="line2d_24">
      <g>
       <use style="fill:#555555;stroke:#555555;stroke-width:0.8;" x="62.425" xlink:href="#mfe11f995e7" y="68.592328"/>
      </g>
     </g>
     <g id="text_12">
      <text style="fill:#555555;font-family:DejaVu Sans;font-size:10px;font-stretch:normal;font-style:normal;font-weight:normal;text-anchor:end;" transform="rotate(-0, 55.425, 72.391547)" x="55.425" y="72.391547">40</text>
     </g>
    </g>
    <g id="ytick_6">
     <g id="line2d_25">
      <path clip-path="url(#p4d0edad167)" d="M 62.425 47.69041 
L 797.45 47.69041 
" style="fill:none;stroke:#ffffff;stroke-linecap:square;stroke-width:0.8;"/>
     </g>
     <g id="line2d_26">
      <g>
       <use style="fill:#555555;stroke:#555555;stroke-width:0.8;" x="62.425" xlink:href="#mfe11f995e7" y="47.69041"/>
      </g>
     </g>
     <g id="text_13">
      <text style="fill:#555555;font-family:DejaVu Sans;font-size:10px;font-stretch:normal;font-style:normal;font-weight:normal;text-anchor:end;" transform="rotate(-0, 55.425, 51.489629)" x="55.425" y="51.489629">50</text>
     </g>
    </g>
    <g id="ytick_7">
     <g id="line2d_27">
      <path clip-path="url(#p4d0edad167)" d="M 62.425 26.788492 
L 797.45 26.788492 
" style="fill:none;stroke:#ffffff;stroke-linecap:square;stroke-width:0.8;"/>
     </g>
     <g id="line2d_28">
      <g>
       <use style="fill:#555555;stroke:#555555;stroke-width:0.8;" x="62.425" xlink:href="#mfe11f995e7" y="26.788492"/>
      </g>
     </g>
     <g id="text_14">
      <text style="fill:#555555;font-family:DejaVu Sans;font-size:10px;font-stretch:normal;font-style:normal;font-weight:normal;text-anchor:end;" transform="rotate(-0, 55.425, 30.587711)" x="55.425" y="30.587711">60</text>
     </g>
    </g>
    <g id="text_15">
     <text style="fill:#555555;font-family:DejaVu Sans;font-size:12px;font-stretch:normal;font-style:normal;font-weight:normal;" transform="translate(22.767 119.859688)rotate(-90)">daily change</text>
     <text style="fill:#555555;font-family:DejaVu Sans;font-size:12px;font-stretch:normal;font-style:normal;font-weight:normal;" transform="translate(36.204375 143.985313)rotate(-90)">normalised per 100K</text>
    </g>
   </g>
   <g id="line2d_29">
    <defs>
     <path d="M 0 3 
C 0.795609 3 1.55874 2.683901 2.12132 2.12132 
C 2.683901 1.55874 3 0.795609 3 0 
C 3 -0.795609 2.683901 -1.55874 2.12132 -2.12132 
C 1.55874 -2.683901 0.795609 -3 0 -3 
C -0.795609 -3 -1.55874 -2.683901 -2.12132 -2.12132 
C -2.683901 -1.55874 -3 -0.795609 -3 0 
C -3 0.795609 -2.683901 1.55874 -2.12132 2.12132 
C -1.55874 2.683901 -0.795609 3 0 3 
z
" id="m9448845d46" style="stroke:#e24a33;stroke-opacity:0.001;"/>
    </defs>
    <g clip-path="url(#p4d0edad167)">
     <use style="fill:#e24a33;fill-opacity:0.001;stroke:#e24a33;stroke-opacity:0.001;" x="429.9375" xlink:href="#m9448845d46" y="81.5"/>
    </g>
   </g>
   <g id="patch_3">
    <path d="M 62.425 152.2 
L 62.425 10.8 
" style="fill:none;stroke:#ffffff;stroke-linecap:square;stroke-linejoin:miter;"/>
   </g>
   <g id="patch_4">
    <path d="M 797.45 152.2 
L 797.45 10.8 
" style="fill:none;stroke:#ffffff;stroke-linecap:square;stroke-linejoin:miter;"/>
   </g>
   <g id="patch_5">
    <path d="M 62.425 152.2 
L 797.45 152.2 
" style="fill:none;stroke:#ffffff;stroke-linecap:square;stroke-linejoin:miter;"/>
   </g>
   <g id="patch_6">
    <path d="M 62.425 10.8 
L 797.45 10.8 
" style="fill:none;stroke:#ffffff;stroke-linecap:square;stroke-linejoin:miter;"/>
   </g>
  </g>
  <g id="axes_2">
   <g id="matplotlib.axis_3">
    <g id="ytick_8">
     <g id="line2d_30">
      <path clip-path="url(#p4d0edad167)" d="M 62.425 152.2 
L 797.45 152.2 
" style="fill:none;stroke:#ffffff;stroke-linecap:square;stroke-width:0.8;"/>
     </g>
     <g id="line2d_31">
      <defs>
       <path d="M 0 0 
L 3.5 0 
" id="m46a171b7d8" style="stroke:#555555;stroke-width:0.8;"/>
      </defs>
      <g>
       <use style="fill:#555555;stroke:#555555;stroke-width:0.8;" x="797.45" xlink:href="#m46a171b7d8" y="152.2"/>
      </g>
     </g>
     <g id="text_16">
      <text style="fill:#555555;font-family:DejaVu Sans;font-size:10px;font-stretch:normal;font-style:normal;font-weight:normal;text-anchor:start;" transform="rotate(-0, 804.45, 155.999219)" x="804.45" y="155.999219">0</text>
     </g>
    </g>
    <g id="ytick_9">
     <g id="line2d_32">
      <path clip-path="url(#p4d0edad167)" d="M 62.425 110.396164 
L 797.45 110.396164 
" style="fill:none;stroke:#ffffff;stroke-linecap:square;stroke-width:0.8;"/>
     </g>
     <g id="line2d_33">
      <g>
       <use style="fill:#555555;stroke:#555555;stroke-width:0.8;" x="797.45" xlink:href="#m46a171b7d8" y="110.396164"/>
      </g>
     </g>
     <g id="text_17">
      <text style="fill:#555555;font-family:DejaVu Sans;font-size:10px;font-stretch:normal;font-style:normal;font-weight:normal;text-anchor:start;" transform="rotate(-0, 804.45, 114.195383)" x="804.45" y="114.195383">12092</text>
     </g>
    </g>
    <g id="ytick_10">
     <g id="line2d_34">
      <path clip-path="url(#p4d0edad167)" d="M 62.425 68.592328 
L 797.45 68.592328 
" style="fill:none;stroke:#ffffff;stroke-linecap:square;stroke-width:0.8;"/>
     </g>
     <g id="line2d_35">
      <g>
       <use style="fill:#555555;stroke:#555555;stroke-width:0.8;" x="797.45" xlink:href="#m46a171b7d8" y="68.592328"/>
      </g>
     </g>
     <g id="text_18">
      <text style="fill:#555555;font-family:DejaVu Sans;font-size:10px;font-stretch:normal;font-style:normal;font-weight:normal;text-anchor:start;" transform="rotate(-0, 804.45, 72.391547)" x="804.45" y="72.391547">24185</text>
     </g>
    </g>
    <g id="ytick_11">
     <g id="line2d_36">
      <path clip-path="url(#p4d0edad167)" d="M 62.425 26.788492 
L 797.45 26.788492 
" style="fill:none;stroke:#ffffff;stroke-linecap:square;stroke-width:0.8;"/>
     </g>
     <g id="line2d_37">
      <g>
       <use style="fill:#555555;stroke:#555555;stroke-width:0.8;" x="797.45" xlink:href="#m46a171b7d8" y="26.788492"/>
      </g>
     </g>
     <g id="text_19">
      <text style="fill:#555555;font-family:DejaVu Sans;font-size:10px;font-stretch:normal;font-style:normal;font-weight:normal;text-anchor:start;" transform="rotate(-0, 804.45, 30.587711)" x="804.45" y="30.587711">36277</text>
     </g>
    </g>
    <g id="text_20">
     <text style="fill:#555555;font-family:DejaVu Sans;font-size:12px;font-stretch:normal;font-style:normal;font-weight:normal;text-anchor:middle;" transform="rotate(-90, 849.380625, 81.5)" x="849.380625" y="81.5">daily change</text>
    </g>
   </g>
   <g id="patch_7">
    <path clip-path="url(#p4d0edad167)" d="M 95.835227 152.2 
L 97.224426 152.2 
L 97.224426 152.2 
L 95.835227 152.2 
z
" style="fill:#348abd;opacity:0.2;"/>
   </g>
   <g id="patch_8">
    <path clip-path="url(#p4d0edad167)" d="M 97.571726 152.2 
L 98.960924 152.2 
L 98.960924 152.2 
L 97.571726 152.2 
z
" style="fill:#348abd;opacity:0.2;"/>
   </g>
   <g id="patch_9">
    <path clip-path="url(#p4d0edad167)" d="M 99.308224 152.2 
L 100.697423 152.2 
L 100.697423 152.2 
L 99.308224 152.2 
z
" style="fill:#348abd;opacity:0.2;"/>
   </g>
   <g id="patch_10">
    <path clip-path="url(#p4d0edad167)" d="M 101.044722 152.2 
L 102.433921 152.2 
L 102.433921 152.2 
L 101.044722 152.2 
z
" style="fill:#348abd;opacity:0.2;"/>
   </g>
   <g id="patch_11">
    <path clip-path="url(#p4d0edad167)" d="M 102.78122 152.2 
L 104.170419 152.2 
L 104.170419 152.2 
L 102.78122 152.2 
z
" style="fill:#348abd;opacity:0.2;"/>
   </g>
   <g id="patch_12">
    <path clip-path="url(#p4d0edad167)" d="M 104.517719 152.2 
L 105.906917 152.2 
L 105.906917 152.2 
L 104.517719 152.2 
z
" style="fill:#348abd;opacity:0.2;"/>
   </g>
   <g id="patch_13">
    <path clip-path="url(#p4d0edad167)" d="M 106.254217 152.2 
L 107.643416 152.2 
L 107.643416 152.2 
L 106.254217 152.2 
z
" style="fill:#348abd;opacity:0.2;"/>
   </g>
   <g id="patch_14">
    <path clip-path="url(#p4d0edad167)" d="M 107.990715 152.2 
L 109.379914 152.2 
L 109.379914 152.2 
L 107.990715 152.2 
z
" style="fill:#348abd;opacity:0.2;"/>
   </g>
   <g id="patch_15">
    <path clip-path="url(#p4d0edad167)" d="M 109.727214 152.2 
L 111.116412 152.2 
L 111.116412 152.193086 
L 109.727214 152.193086 
z
" style="fill:#348abd;opacity:0.2;"/>
   </g>
   <g id="patch_16">
    <path clip-path="url(#p4d0edad167)" d="M 111.463712 152.2 
L 112.852911 152.2 
L 112.852911 152.2 
L 111.463712 152.2 
z
" style="fill:#348abd;opacity:0.2;"/>
   </g>
   <g id="patch_17">
    <path clip-path="url(#p4d0edad167)" d="M 113.20021 152.2 
L 114.589409 152.2 
L 114.589409 152.2 
L 113.20021 152.2 
z
" style="fill:#348abd;opacity:0.2;"/>
   </g>
   <g id="patch_18">
    <path clip-path="url(#p4d0edad167)" d="M 114.936709 152.2 
L 116.325907 152.2 
L 116.325907 152.2 
L 114.936709 152.2 
z
" style="fill:#348abd;opacity:0.2;"/>
   </g>
   <g id="patch_19">
    <path clip-path="url(#p4d0edad167)" d="M 116.673207 152.2 
L 118.062405 152.2 
L 118.062405 152.2 
L 116.673207 152.2 
z
" style="fill:#348abd;opacity:0.2;"/>
   </g>
   <g id="patch_20">
    <path clip-path="url(#p4d0edad167)" d="M 118.409705 152.2 
L 119.798904 152.2 
L 119.798904 152.2 
L 118.409705 152.2 
z
" style="fill:#348abd;opacity:0.2;"/>
   </g>
   <g id="patch_21">
    <path clip-path="url(#p4d0edad167)" d="M 120.146203 152.2 
L 121.535402 152.2 
L 121.535402 152.2 
L 120.146203 152.2 
z
" style="fill:#348abd;opacity:0.2;"/>
   </g>
   <g id="patch_22">
    <path clip-path="url(#p4d0edad167)" d="M 121.882702 152.2 
L 123.2719 152.2 
L 123.2719 152.196543 
L 121.882702 152.196543 
z
" style="fill:#348abd;opacity:0.2;"/>
   </g>
   <g id="patch_23">
    <path clip-path="url(#p4d0edad167)" d="M 123.6192 152.2 
L 125.008399 152.2 
L 125.008399 152.2 
L 123.6192 152.2 
z
" style="fill:#348abd;opacity:0.2;"/>
   </g>
   <g id="patch_24">
    <path clip-path="url(#p4d0edad167)" d="M 125.355698 152.2 
L 126.744897 152.2 
L 126.744897 152.2 
L 125.355698 152.2 
z
" style="fill:#348abd;opacity:0.2;"/>
   </g>
   <g id="patch_25">
    <path clip-path="url(#p4d0edad167)" d="M 127.092197 152.2 
L 128.481395 152.2 
L 128.481395 152.2 
L 127.092197 152.2 
z
" style="fill:#348abd;opacity:0.2;"/>
   </g>
   <g id="patch_26">
    <path clip-path="url(#p4d0edad167)" d="M 128.828695 152.2 
L 130.217894 152.2 
L 130.217894 152.2 
L 128.828695 152.2 
z
" style="fill:#348abd;opacity:0.2;"/>
   </g>
   <g id="patch_27">
    <path clip-path="url(#p4d0edad167)" d="M 130.565193 152.2 
L 131.954392 152.2 
L 131.954392 152.2 
L 130.565193 152.2 
z
" style="fill:#348abd;opacity:0.2;"/>
   </g>
   <g id="patch_28">
    <path clip-path="url(#p4d0edad167)" d="M 132.301692 152.2 
L 133.69089 152.2 
L 133.69089 152.2 
L 132.301692 152.2 
z
" style="fill:#348abd;opacity:0.2;"/>
   </g>
   <g id="patch_29">
    <path clip-path="url(#p4d0edad167)" d="M 134.03819 152.2 
L 135.427388 152.2 
L 135.427388 152.2 
L 134.03819 152.2 
z
" style="fill:#348abd;opacity:0.2;"/>
   </g>
   <g id="patch_30">
    <path clip-path="url(#p4d0edad167)" d="M 135.774688 152.2 
L 137.163887 152.2 
L 137.163887 152.2 
L 135.774688 152.2 
z
" style="fill:#348abd;opacity:0.2;"/>
   </g>
   <g id="patch_31">
    <path clip-path="url(#p4d0edad167)" d="M 137.511186 152.2 
L 138.900385 152.2 
L 138.900385 152.2 
L 137.511186 152.2 
z
" style="fill:#348abd;opacity:0.2;"/>
   </g>
   <g id="patch_32">
    <path clip-path="url(#p4d0edad167)" d="M 139.247685 152.2 
L 140.636883 152.2 
L 140.636883 152.2 
L 139.247685 152.2 
z
" style="fill:#348abd;opacity:0.2;"/>
   </g>
   <g id="patch_33">
    <path clip-path="url(#p4d0edad167)" d="M 140.984183 152.2 
L 142.373382 152.2 
L 142.373382 152.2 
L 140.984183 152.2 
z
" style="fill:#348abd;opacity:0.2;"/>
   </g>
   <g id="patch_34">
    <path clip-path="url(#p4d0edad167)" d="M 142.720681 152.2 
L 144.10988 152.2 
L 144.10988 152.2 
L 142.720681 152.2 
z
" style="fill:#348abd;opacity:0.2;"/>
   </g>
   <g id="patch_35">
    <path clip-path="url(#p4d0edad167)" d="M 144.45718 152.2 
L 145.846378 152.2 
L 145.846378 152.2 
L 144.45718 152.2 
z
" style="fill:#348abd;opacity:0.2;"/>
   </g>
   <g id="patch_36">
    <path clip-path="url(#p4d0edad167)" d="M 146.193678 152.2 
L 147.582877 152.2 
L 147.582877 152.14123 
L 146.193678 152.14123 
z
" style="fill:#348abd;opacity:0.2;"/>
   </g>
   <g id="patch_37">
    <path clip-path="url(#p4d0edad167)" d="M 147.930176 152.2 
L 149.319375 152.2 
L 149.319375 152.054804 
L 147.930176 152.054804 
z
" style="fill:#348abd;opacity:0.2;"/>
   </g>
   <g id="patch_38">
    <path clip-path="url(#p4d0edad167)" d="M 149.666675 152.2 
L 151.055873 152.2 
L 151.055873 151.878495 
L 149.666675 151.878495 
z
" style="fill:#348abd;opacity:0.2;"/>
   </g>
   <g id="patch_39">
    <path clip-path="url(#p4d0edad167)" d="M 151.403173 152.2 
L 152.792371 152.2 
L 152.792371 151.944179 
L 151.403173 151.944179 
z
" style="fill:#348abd;opacity:0.2;"/>
   </g>
   <g id="patch_40">
    <path clip-path="url(#p4d0edad167)" d="M 153.139671 152.2 
L 154.52887 152.2 
L 154.52887 151.878495 
L 153.139671 151.878495 
z
" style="fill:#348abd;opacity:0.2;"/>
   </g>
   <g id="patch_41">
    <path clip-path="url(#p4d0edad167)" d="M 154.876169 152.2 
L 156.265368 152.2 
L 156.265368 151.747127 
L 154.876169 151.747127 
z
" style="fill:#348abd;opacity:0.2;"/>
   </g>
   <g id="patch_42">
    <path clip-path="url(#p4d0edad167)" d="M 156.612668 152.2 
L 158.001866 152.2 
L 158.001866 151.501677 
L 156.612668 151.501677 
z
" style="fill:#348abd;opacity:0.2;"/>
   </g>
   <g id="patch_43">
    <path clip-path="url(#p4d0edad167)" d="M 158.349166 152.2 
L 159.738365 152.2 
L 159.738365 151.394509 
L 158.349166 151.394509 
z
" style="fill:#348abd;opacity:0.2;"/>
   </g>
   <g id="patch_44">
    <path clip-path="url(#p4d0edad167)" d="M 160.085664 152.2 
L 161.474863 152.2 
L 161.474863 151.37031 
L 160.085664 151.37031 
z
" style="fill:#348abd;opacity:0.2;"/>
   </g>
   <g id="patch_45">
    <path clip-path="url(#p4d0edad167)" d="M 161.822163 152.2 
L 163.211361 152.2 
L 163.211361 150.243313 
L 161.822163 150.243313 
z
" style="fill:#348abd;opacity:0.2;"/>
   </g>
   <g id="patch_46">
    <path clip-path="url(#p4d0edad167)" d="M 163.558661 152.2 
L 164.94786 152.2 
L 164.94786 151.017691 
L 163.558661 151.017691 
z
" style="fill:#348abd;opacity:0.2;"/>
   </g>
   <g id="patch_47">
    <path clip-path="url(#p4d0edad167)" d="M 165.295159 152.2 
L 166.684358 152.2 
L 166.684358 150.589018 
L 165.295159 150.589018 
z
" style="fill:#348abd;opacity:0.2;"/>
   </g>
   <g id="patch_48">
    <path clip-path="url(#p4d0edad167)" d="M 167.031658 152.2 
L 168.420856 152.2 
L 168.420856 150.170715 
L 167.031658 150.170715 
z
" style="fill:#348abd;opacity:0.2;"/>
   </g>
   <g id="patch_49">
    <path clip-path="url(#p4d0edad167)" d="M 168.768156 152.2 
L 170.157354 152.2 
L 170.157354 149.541533 
L 168.768156 149.541533 
z
" style="fill:#348abd;opacity:0.2;"/>
   </g>
   <g id="patch_50">
    <path clip-path="url(#p4d0edad167)" d="M 170.504654 152.2 
L 171.893853 152.2 
L 171.893853 149.51042 
L 170.504654 149.51042 
z
" style="fill:#348abd;opacity:0.2;"/>
   </g>
   <g id="patch_51">
    <path clip-path="url(#p4d0edad167)" d="M 172.241152 152.2 
L 173.630351 152.2 
L 173.630351 147.889067 
L 172.241152 147.889067 
z
" style="fill:#348abd;opacity:0.2;"/>
   </g>
   <g id="patch_52">
    <path clip-path="url(#p4d0edad167)" d="M 173.977651 152.2 
L 175.366849 152.2 
L 175.366849 147.042091 
L 173.977651 147.042091 
z
" style="fill:#348abd;opacity:0.2;"/>
   </g>
   <g id="patch_53">
    <path clip-path="url(#p4d0edad167)" d="M 175.714149 152.2 
L 177.103348 152.2 
L 177.103348 145.987693 
L 175.714149 145.987693 
z
" style="fill:#348abd;opacity:0.2;"/>
   </g>
   <g id="patch_54">
    <path clip-path="url(#p4d0edad167)" d="M 177.450647 152.2 
L 178.839846 152.2 
L 178.839846 148.822468 
L 177.450647 148.822468 
z
" style="fill:#348abd;opacity:0.2;"/>
   </g>
   <g id="patch_55">
    <path clip-path="url(#p4d0edad167)" d="M 179.187146 152.2 
L 180.576344 152.2 
L 180.576344 144.203858 
L 179.187146 144.203858 
z
" style="fill:#348abd;opacity:0.2;"/>
   </g>
   <g id="patch_56">
    <path clip-path="url(#p4d0edad167)" d="M 180.923644 152.2 
L 182.312843 152.2 
L 182.312843 143.035377 
L 180.923644 143.035377 
z
" style="fill:#348abd;opacity:0.2;"/>
   </g>
   <g id="patch_57">
    <path clip-path="url(#p4d0edad167)" d="M 182.660142 152.2 
L 184.049341 152.2 
L 184.049341 143.39491 
L 182.660142 143.39491 
z
" style="fill:#348abd;opacity:0.2;"/>
   </g>
   <g id="patch_58">
    <path clip-path="url(#p4d0edad167)" d="M 184.396641 152.2 
L 185.785839 152.2 
L 185.785839 140.110718 
L 184.396641 140.110718 
z
" style="fill:#348abd;opacity:0.2;"/>
   </g>
   <g id="patch_59">
    <path clip-path="url(#p4d0edad167)" d="M 186.133139 152.2 
L 187.522337 152.2 
L 187.522337 139.789213 
L 186.133139 139.789213 
z
" style="fill:#348abd;opacity:0.2;"/>
   </g>
   <g id="patch_60">
    <path clip-path="url(#p4d0edad167)" d="M 187.869637 152.2 
L 189.258836 152.2 
L 189.258836 141.023378 
L 187.869637 141.023378 
z
" style="fill:#348abd;opacity:0.2;"/>
   </g>
   <g id="patch_61">
    <path clip-path="url(#p4d0edad167)" d="M 189.606135 152.2 
L 190.995334 152.2 
L 190.995334 140.010464 
L 189.606135 140.010464 
z
" style="fill:#348abd;opacity:0.2;"/>
   </g>
   <g id="patch_62">
    <path clip-path="url(#p4d0edad167)" d="M 191.342634 152.2 
L 192.731832 152.2 
L 192.731832 137.656217 
L 191.342634 137.656217 
z
" style="fill:#348abd;opacity:0.2;"/>
   </g>
   <g id="patch_63">
    <path clip-path="url(#p4d0edad167)" d="M 193.079132 152.2 
L 194.468331 152.2 
L 194.468331 133.801614 
L 193.079132 133.801614 
z
" style="fill:#348abd;opacity:0.2;"/>
   </g>
   <g id="patch_64">
    <path clip-path="url(#p4d0edad167)" d="M 194.81563 152.2 
L 196.204829 152.2 
L 196.204829 131.506137 
L 194.81563 131.506137 
z
" style="fill:#348abd;opacity:0.2;"/>
   </g>
   <g id="patch_65">
    <path clip-path="url(#p4d0edad167)" d="M 196.552129 152.2 
L 197.941327 152.2 
L 197.941327 129.532165 
L 196.552129 129.532165 
z
" style="fill:#348abd;opacity:0.2;"/>
   </g>
   <g id="patch_66">
    <path clip-path="url(#p4d0edad167)" d="M 198.288627 152.2 
L 199.677826 152.2 
L 199.677826 132.978837 
L 198.288627 132.978837 
z
" style="fill:#348abd;opacity:0.2;"/>
   </g>
   <g id="patch_67">
    <path clip-path="url(#p4d0edad167)" d="M 200.025125 152.2 
L 201.414324 152.2 
L 201.414324 135.644218 
L 200.025125 135.644218 
z
" style="fill:#348abd;opacity:0.2;"/>
   </g>
   <g id="patch_68">
    <path clip-path="url(#p4d0edad167)" d="M 201.761624 152.2 
L 203.150822 152.2 
L 203.150822 134.053978 
L 201.761624 134.053978 
z
" style="fill:#348abd;opacity:0.2;"/>
   </g>
   <g id="patch_69">
    <path clip-path="url(#p4d0edad167)" d="M 203.498122 152.2 
L 204.88732 152.2 
L 204.88732 134.188803 
L 203.498122 134.188803 
z
" style="fill:#348abd;opacity:0.2;"/>
   </g>
   <g id="patch_70">
    <path clip-path="url(#p4d0edad167)" d="M 205.23462 152.2 
L 206.623819 152.2 
L 206.623819 130.755958 
L 205.23462 130.755958 
z
" style="fill:#348abd;opacity:0.2;"/>
   </g>
   <g id="patch_71">
    <path clip-path="url(#p4d0edad167)" d="M 206.971118 152.2 
L 208.360317 152.2 
L 208.360317 131.772329 
L 206.971118 131.772329 
z
" style="fill:#348abd;opacity:0.2;"/>
   </g>
   <g id="patch_72">
    <path clip-path="url(#p4d0edad167)" d="M 208.707617 152.2 
L 210.096815 152.2 
L 210.096815 131.547621 
L 208.707617 131.547621 
z
" style="fill:#348abd;opacity:0.2;"/>
   </g>
   <g id="patch_73">
    <path clip-path="url(#p4d0edad167)" d="M 210.444115 152.2 
L 211.833314 152.2 
L 211.833314 134.164603 
L 210.444115 134.164603 
z
" style="fill:#348abd;opacity:0.2;"/>
   </g>
   <g id="patch_74">
    <path clip-path="url(#p4d0edad167)" d="M 212.180613 152.2 
L 213.569812 152.2 
L 213.569812 138.198973 
L 212.180613 138.198973 
z
" style="fill:#348abd;opacity:0.2;"/>
   </g>
   <g id="patch_75">
    <path clip-path="url(#p4d0edad167)" d="M 213.917112 152.2 
L 215.30631 152.2 
L 215.30631 138.188602 
L 213.917112 138.188602 
z
" style="fill:#348abd;opacity:0.2;"/>
   </g>
   <g id="patch_76">
    <path clip-path="url(#p4d0edad167)" d="M 215.65361 152.2 
L 217.042809 152.2 
L 217.042809 135.668417 
L 215.65361 135.668417 
z
" style="fill:#348abd;opacity:0.2;"/>
   </g>
   <g id="patch_77">
    <path clip-path="url(#p4d0edad167)" d="M 217.390108 152.2 
L 218.779307 152.2 
L 218.779307 136.06252 
L 217.390108 136.06252 
z
" style="fill:#348abd;opacity:0.2;"/>
   </g>
   <g id="patch_78">
    <path clip-path="url(#p4d0edad167)" d="M 219.126607 152.2 
L 220.515805 152.2 
L 220.515805 136.349455 
L 219.126607 136.349455 
z
" style="fill:#348abd;opacity:0.2;"/>
   </g>
   <g id="patch_79">
    <path clip-path="url(#p4d0edad167)" d="M 220.863105 152.2 
L 222.252303 152.2 
L 222.252303 135.588905 
L 220.863105 135.588905 
z
" style="fill:#348abd;opacity:0.2;"/>
   </g>
   <g id="patch_80">
    <path clip-path="url(#p4d0edad167)" d="M 222.599603 152.2 
L 223.988802 152.2 
L 223.988802 137.2794 
L 222.599603 137.2794 
z
" style="fill:#348abd;opacity:0.2;"/>
   </g>
   <g id="patch_81">
    <path clip-path="url(#p4d0edad167)" d="M 224.336101 152.2 
L 225.7253 152.2 
L 225.7253 139.7581 
L 224.336101 139.7581 
z
" style="fill:#348abd;opacity:0.2;"/>
   </g>
   <g id="patch_82">
    <path clip-path="url(#p4d0edad167)" d="M 226.0726 152.2 
L 227.461798 152.2 
L 227.461798 141.694044 
L 226.0726 141.694044 
z
" style="fill:#348abd;opacity:0.2;"/>
   </g>
   <g id="patch_83">
    <path clip-path="url(#p4d0edad167)" d="M 227.809098 152.2 
L 229.198297 152.2 
L 229.198297 138.93878 
L 227.809098 138.93878 
z
" style="fill:#348abd;opacity:0.2;"/>
   </g>
   <g id="patch_84">
    <path clip-path="url(#p4d0edad167)" d="M 229.545596 152.2 
L 230.934795 152.2 
L 230.934795 137.666588 
L 229.545596 137.666588 
z
" style="fill:#348abd;opacity:0.2;"/>
   </g>
   <g id="patch_85">
    <path clip-path="url(#p4d0edad167)" d="M 231.282095 152.2 
L 232.671293 152.2 
L 232.671293 138.54122 
L 231.282095 138.54122 
z
" style="fill:#348abd;opacity:0.2;"/>
   </g>
   <g id="patch_86">
    <path clip-path="url(#p4d0edad167)" d="M 233.018593 152.2 
L 234.407792 152.2 
L 234.407792 135.972637 
L 233.018593 135.972637 
z
" style="fill:#348abd;opacity:0.2;"/>
   </g>
   <g id="patch_87">
    <path clip-path="url(#p4d0edad167)" d="M 234.755091 152.2 
L 236.14429 152.2 
L 236.14429 138.053777 
L 234.755091 138.053777 
z
" style="fill:#348abd;opacity:0.2;"/>
   </g>
   <g id="patch_88">
    <path clip-path="url(#p4d0edad167)" d="M 236.491589 152.2 
L 237.880788 152.2 
L 237.880788 141.299941 
L 236.491589 141.299941 
z
" style="fill:#348abd;opacity:0.2;"/>
   </g>
   <g id="patch_89">
    <path clip-path="url(#p4d0edad167)" d="M 238.228088 152.2 
L 239.617286 152.2 
L 239.617286 141.925666 
L 238.228088 141.925666 
z
" style="fill:#348abd;opacity:0.2;"/>
   </g>
   <g id="patch_90">
    <path clip-path="url(#p4d0edad167)" d="M 239.964586 152.2 
L 241.353785 152.2 
L 241.353785 142.980065 
L 239.964586 142.980065 
z
" style="fill:#348abd;opacity:0.2;"/>
   </g>
   <g id="patch_91">
    <path clip-path="url(#p4d0edad167)" d="M 241.701084 152.2 
L 243.090283 152.2 
L 243.090283 139.111633 
L 241.701084 139.111633 
z
" style="fill:#348abd;opacity:0.2;"/>
   </g>
   <g id="patch_92">
    <path clip-path="url(#p4d0edad167)" d="M 243.437583 152.2 
L 244.826781 152.2 
L 244.826781 140.124546 
L 243.437583 140.124546 
z
" style="fill:#348abd;opacity:0.2;"/>
   </g>
   <g id="patch_93">
    <path clip-path="url(#p4d0edad167)" d="M 245.174081 152.2 
L 246.56328 152.2 
L 246.56328 140.131461 
L 245.174081 140.131461 
z
" style="fill:#348abd;opacity:0.2;"/>
   </g>
   <g id="patch_94">
    <path clip-path="url(#p4d0edad167)" d="M 246.910579 152.2 
L 248.299778 152.2 
L 248.299778 141.666388 
L 246.910579 141.666388 
z
" style="fill:#348abd;opacity:0.2;"/>
   </g>
   <g id="patch_95">
    <path clip-path="url(#p4d0edad167)" d="M 248.647078 152.2 
L 250.036276 152.2 
L 250.036276 144.400909 
L 248.647078 144.400909 
z
" style="fill:#348abd;opacity:0.2;"/>
   </g>
   <g id="patch_96">
    <path clip-path="url(#p4d0edad167)" d="M 250.383576 152.2 
L 251.772775 152.2 
L 251.772775 142.765728 
L 250.383576 142.765728 
z
" style="fill:#348abd;opacity:0.2;"/>
   </g>
   <g id="patch_97">
    <path clip-path="url(#p4d0edad167)" d="M 252.120074 152.2 
L 253.509273 152.2 
L 253.509273 140.549763 
L 252.120074 140.549763 
z
" style="fill:#348abd;opacity:0.2;"/>
   </g>
   <g id="patch_98">
    <path clip-path="url(#p4d0edad167)" d="M 253.856572 152.2 
L 255.245771 152.2 
L 255.245771 143.052662 
L 253.856572 143.052662 
z
" style="fill:#348abd;opacity:0.2;"/>
   </g>
   <g id="patch_99">
    <path clip-path="url(#p4d0edad167)" d="M 255.593071 152.2 
L 256.982269 152.2 
L 256.982269 141.756271 
L 255.593071 141.756271 
z
" style="fill:#348abd;opacity:0.2;"/>
   </g>
   <g id="patch_100">
    <path clip-path="url(#p4d0edad167)" d="M 257.329569 152.2 
L 258.718768 152.2 
L 258.718768 144.051748 
L 257.329569 144.051748 
z
" style="fill:#348abd;opacity:0.2;"/>
   </g>
   <g id="patch_101">
    <path clip-path="url(#p4d0edad167)" d="M 259.066067 152.2 
L 260.455266 152.2 
L 260.455266 144.165831 
L 259.066067 144.165831 
z
" style="fill:#348abd;opacity:0.2;"/>
   </g>
   <g id="patch_102">
    <path clip-path="url(#p4d0edad167)" d="M 260.802566 152.2 
L 262.191764 152.2 
L 262.191764 146.188201 
L 260.802566 146.188201 
z
" style="fill:#348abd;opacity:0.2;"/>
   </g>
   <g id="patch_103">
    <path clip-path="url(#p4d0edad167)" d="M 262.539064 152.2 
L 263.928263 152.2 
L 263.928263 144.971322 
L 262.539064 144.971322 
z
" style="fill:#348abd;opacity:0.2;"/>
   </g>
   <g id="patch_104">
    <path clip-path="url(#p4d0edad167)" d="M 264.275562 152.2 
L 265.664761 152.2 
L 265.664761 144.988607 
L 264.275562 144.988607 
z
" style="fill:#348abd;opacity:0.2;"/>
   </g>
   <g id="patch_105">
    <path clip-path="url(#p4d0edad167)" d="M 266.012061 152.2 
L 267.401259 152.2 
L 267.401259 145.728414 
L 266.012061 145.728414 
z
" style="fill:#348abd;opacity:0.2;"/>
   </g>
   <g id="patch_106">
    <path clip-path="url(#p4d0edad167)" d="M 267.748559 152.2 
L 269.137758 152.2 
L 269.137758 145.406909 
L 267.748559 145.406909 
z
" style="fill:#348abd;opacity:0.2;"/>
   </g>
   <g id="patch_107">
    <path clip-path="url(#p4d0edad167)" d="M 269.485057 152.2 
L 270.874256 152.2 
L 270.874256 145.631617 
L 269.485057 145.631617 
z
" style="fill:#348abd;opacity:0.2;"/>
   </g>
   <g id="patch_108">
    <path clip-path="url(#p4d0edad167)" d="M 271.221555 152.2 
L 272.610754 152.2 
L 272.610754 147.398166 
L 271.221555 147.398166 
z
" style="fill:#348abd;opacity:0.2;"/>
   </g>
   <g id="patch_109">
    <path clip-path="url(#p4d0edad167)" d="M 272.958054 152.2 
L 274.347252 152.2 
L 274.347252 147.97895 
L 272.958054 147.97895 
z
" style="fill:#348abd;opacity:0.2;"/>
   </g>
   <g id="patch_110">
    <path clip-path="url(#p4d0edad167)" d="M 274.694552 152.2 
L 276.083751 152.2 
L 276.083751 148.483678 
L 274.694552 148.483678 
z
" style="fill:#348abd;opacity:0.2;"/>
   </g>
   <g id="patch_111">
    <path clip-path="url(#p4d0edad167)" d="M 276.43105 152.2 
L 277.820249 152.2 
L 277.820249 147.208029 
L 276.43105 147.208029 
z
" style="fill:#348abd;opacity:0.2;"/>
   </g>
   <g id="patch_112">
    <path clip-path="url(#p4d0edad167)" d="M 278.167549 152.2 
L 279.556747 152.2 
L 279.556747 147.356682 
L 278.167549 147.356682 
z
" style="fill:#348abd;opacity:0.2;"/>
   </g>
   <g id="patch_113">
    <path clip-path="url(#p4d0edad167)" d="M 279.904047 152.2 
L 281.293246 152.2 
L 281.293246 147.612503 
L 279.904047 147.612503 
z
" style="fill:#348abd;opacity:0.2;"/>
   </g>
   <g id="patch_114">
    <path clip-path="url(#p4d0edad167)" d="M 281.640545 152.2 
L 283.029744 152.2 
L 283.029744 148.456022 
L 281.640545 148.456022 
z
" style="fill:#348abd;opacity:0.2;"/>
   </g>
   <g id="patch_115">
    <path clip-path="url(#p4d0edad167)" d="M 283.377044 152.2 
L 284.766242 152.2 
L 284.766242 149.427451 
L 283.377044 149.427451 
z
" style="fill:#348abd;opacity:0.2;"/>
   </g>
   <g id="patch_116">
    <path clip-path="url(#p4d0edad167)" d="M 285.113542 152.2 
L 286.502741 152.2 
L 286.502741 149.62796 
L 285.113542 149.62796 
z
" style="fill:#348abd;opacity:0.2;"/>
   </g>
   <g id="patch_117">
    <path clip-path="url(#p4d0edad167)" d="M 286.85004 152.2 
L 288.239239 152.2 
L 288.239239 147.353225 
L 286.85004 147.353225 
z
" style="fill:#348abd;opacity:0.2;"/>
   </g>
   <g id="patch_118">
    <path clip-path="url(#p4d0edad167)" d="M 288.586538 152.2 
L 289.975737 152.2 
L 289.975737 149.130145 
L 288.586538 149.130145 
z
" style="fill:#348abd;opacity:0.2;"/>
   </g>
   <g id="patch_119">
    <path clip-path="url(#p4d0edad167)" d="M 290.323037 152.2 
L 291.712235 152.2 
L 291.712235 148.770613 
L 290.323037 148.770613 
z
" style="fill:#348abd;opacity:0.2;"/>
   </g>
   <g id="patch_120">
    <path clip-path="url(#p4d0edad167)" d="M 292.059535 152.2 
L 293.448734 152.2 
L 293.448734 149.472393 
L 292.059535 149.472393 
z
" style="fill:#348abd;opacity:0.2;"/>
   </g>
   <g id="patch_121">
    <path clip-path="url(#p4d0edad167)" d="M 293.796033 152.2 
L 295.185232 152.2 
L 295.185232 149.175087 
L 293.796033 149.175087 
z
" style="fill:#348abd;opacity:0.2;"/>
   </g>
   <g id="patch_122">
    <path clip-path="url(#p4d0edad167)" d="M 295.532532 152.2 
L 296.92173 152.2 
L 296.92173 149.866496 
L 295.532532 149.866496 
z
" style="fill:#348abd;opacity:0.2;"/>
   </g>
   <g id="patch_123">
    <path clip-path="url(#p4d0edad167)" d="M 297.26903 152.2 
L 298.658229 152.2 
L 298.658229 150.640873 
L 297.26903 150.640873 
z
" style="fill:#348abd;opacity:0.2;"/>
   </g>
   <g id="patch_124">
    <path clip-path="url(#p4d0edad167)" d="M 299.005528 152.2 
L 300.394727 152.2 
L 300.394727 149.389424 
L 299.005528 149.389424 
z
" style="fill:#348abd;opacity:0.2;"/>
   </g>
   <g id="patch_125">
    <path clip-path="url(#p4d0edad167)" d="M 300.742027 152.2 
L 302.131225 152.2 
L 302.131225 149.901066 
L 300.742027 149.901066 
z
" style="fill:#348abd;opacity:0.2;"/>
   </g>
   <g id="patch_126">
    <path clip-path="url(#p4d0edad167)" d="M 302.478525 152.2 
L 303.867723 152.2 
L 303.867723 149.980578 
L 302.478525 149.980578 
z
" style="fill:#348abd;opacity:0.2;"/>
   </g>
   <g id="patch_127">
    <path clip-path="url(#p4d0edad167)" d="M 304.215023 152.2 
L 305.604222 152.2 
L 305.604222 149.946008 
L 304.215023 149.946008 
z
" style="fill:#348abd;opacity:0.2;"/>
   </g>
   <g id="patch_128">
    <path clip-path="url(#p4d0edad167)" d="M 305.951521 152.2 
L 307.34072 152.2 
L 307.34072 149.887238 
L 305.951521 149.887238 
z
" style="fill:#348abd;opacity:0.2;"/>
   </g>
   <g id="patch_129">
    <path clip-path="url(#p4d0edad167)" d="M 307.68802 152.2 
L 309.077218 152.2 
L 309.077218 150.36431 
L 307.68802 150.36431 
z
" style="fill:#348abd;opacity:0.2;"/>
   </g>
   <g id="patch_130">
    <path clip-path="url(#p4d0edad167)" d="M 309.424518 152.2 
L 310.813717 152.2 
L 310.813717 151.162887 
L 309.424518 151.162887 
z
" style="fill:#348abd;opacity:0.2;"/>
   </g>
   <g id="patch_131">
    <path clip-path="url(#p4d0edad167)" d="M 311.161016 152.2 
L 312.550215 152.2 
L 312.550215 150.827554 
L 311.161016 150.827554 
z
" style="fill:#348abd;opacity:0.2;"/>
   </g>
   <g id="patch_132">
    <path clip-path="url(#p4d0edad167)" d="M 312.897515 152.2 
L 314.286713 152.2 
L 314.286713 150.181086 
L 312.897515 150.181086 
z
" style="fill:#348abd;opacity:0.2;"/>
   </g>
   <g id="patch_133">
    <path clip-path="url(#p4d0edad167)" d="M 314.634013 152.2 
L 316.023212 152.2 
L 316.023212 150.149973 
L 314.634013 150.149973 
z
" style="fill:#348abd;opacity:0.2;"/>
   </g>
   <g id="patch_134">
    <path clip-path="url(#p4d0edad167)" d="M 316.370511 152.2 
L 317.75971 152.2 
L 317.75971 150.416165 
L 316.370511 150.416165 
z
" style="fill:#348abd;opacity:0.2;"/>
   </g>
   <g id="patch_135">
    <path clip-path="url(#p4d0edad167)" d="M 318.10701 152.2 
L 319.496208 152.2 
L 319.496208 150.76187 
L 318.10701 150.76187 
z
" style="fill:#348abd;opacity:0.2;"/>
   </g>
   <g id="patch_136">
    <path clip-path="url(#p4d0edad167)" d="M 319.843508 152.2 
L 321.232706 152.2 
L 321.232706 151.048804 
L 319.843508 151.048804 
z
" style="fill:#348abd;opacity:0.2;"/>
   </g>
   <g id="patch_137">
    <path clip-path="url(#p4d0edad167)" d="M 321.580006 152.2 
L 322.969205 152.2 
L 322.969205 151.508591 
L 321.580006 151.508591 
z
" style="fill:#348abd;opacity:0.2;"/>
   </g>
   <g id="patch_138">
    <path clip-path="url(#p4d0edad167)" d="M 323.316504 152.2 
L 324.705703 152.2 
L 324.705703 151.10066 
L 323.316504 151.10066 
z
" style="fill:#348abd;opacity:0.2;"/>
   </g>
   <g id="patch_139">
    <path clip-path="url(#p4d0edad167)" d="M 325.053003 152.2 
L 326.442201 152.2 
L 326.442201 151.090289 
L 325.053003 151.090289 
z
" style="fill:#348abd;opacity:0.2;"/>
   </g>
   <g id="patch_140">
    <path clip-path="url(#p4d0edad167)" d="M 326.789501 152.2 
L 328.1787 152.2 
L 328.1787 151.588103 
L 326.789501 151.588103 
z
" style="fill:#348abd;opacity:0.2;"/>
   </g>
   <g id="patch_141">
    <path clip-path="url(#p4d0edad167)" d="M 328.525999 152.2 
L 329.915198 152.2 
L 329.915198 150.409251 
L 328.525999 150.409251 
z
" style="fill:#348abd;opacity:0.2;"/>
   </g>
   <g id="patch_142">
    <path clip-path="url(#p4d0edad167)" d="M 330.262498 152.2 
L 331.651696 152.2 
L 331.651696 151.266598 
L 330.262498 151.266598 
z
" style="fill:#348abd;opacity:0.2;"/>
   </g>
   <g id="patch_143">
    <path clip-path="url(#p4d0edad167)" d="M 331.998996 152.2 
L 333.388195 152.2 
L 333.388195 151.518962 
L 331.998996 151.518962 
z
" style="fill:#348abd;opacity:0.2;"/>
   </g>
   <g id="patch_144">
    <path clip-path="url(#p4d0edad167)" d="M 333.735494 152.2 
L 335.124693 152.2 
L 335.124693 151.232028 
L 333.735494 151.232028 
z
" style="fill:#348abd;opacity:0.2;"/>
   </g>
   <g id="patch_145">
    <path clip-path="url(#p4d0edad167)" d="M 335.471993 152.2 
L 336.861191 152.2 
L 336.861191 151.221657 
L 335.471993 151.221657 
z
" style="fill:#348abd;opacity:0.2;"/>
   </g>
   <g id="patch_146">
    <path clip-path="url(#p4d0edad167)" d="M 337.208491 152.2 
L 338.597689 152.2 
L 338.597689 151.501677 
L 337.208491 151.501677 
z
" style="fill:#348abd;opacity:0.2;"/>
   </g>
   <g id="patch_147">
    <path clip-path="url(#p4d0edad167)" d="M 338.944989 152.2 
L 340.334188 152.2 
L 340.334188 150.88978 
L 338.944989 150.88978 
z
" style="fill:#348abd;opacity:0.2;"/>
   </g>
   <g id="patch_148">
    <path clip-path="url(#p4d0edad167)" d="M 340.681487 152.2 
L 342.070686 152.2 
L 342.070686 151.636502 
L 340.681487 151.636502 
z
" style="fill:#348abd;opacity:0.2;"/>
   </g>
   <g id="patch_149">
    <path clip-path="url(#p4d0edad167)" d="M 342.417986 152.2 
L 343.807184 152.2 
L 343.807184 151.003863 
L 342.417986 151.003863 
z
" style="fill:#348abd;opacity:0.2;"/>
   </g>
   <g id="patch_150">
    <path clip-path="url(#p4d0edad167)" d="M 344.154484 152.2 
L 345.543683 152.2 
L 345.543683 151.031519 
L 344.154484 151.031519 
z
" style="fill:#348abd;opacity:0.2;"/>
   </g>
   <g id="patch_151">
    <path clip-path="url(#p4d0edad167)" d="M 345.890982 152.2 
L 347.280181 152.2 
L 347.280181 151.15943 
L 345.890982 151.15943 
z
" style="fill:#348abd;opacity:0.2;"/>
   </g>
   <g id="patch_152">
    <path clip-path="url(#p4d0edad167)" d="M 347.627481 152.2 
L 349.016679 152.2 
L 349.016679 151.474021 
L 347.627481 151.474021 
z
" style="fill:#348abd;opacity:0.2;"/>
   </g>
   <g id="patch_153">
    <path clip-path="url(#p4d0edad167)" d="M 349.363979 152.2 
L 350.753178 152.2 
L 350.753178 151.06609 
L 349.363979 151.06609 
z
" style="fill:#348abd;opacity:0.2;"/>
   </g>
   <g id="patch_154">
    <path clip-path="url(#p4d0edad167)" d="M 351.100477 152.2 
L 352.489676 152.2 
L 352.489676 151.055719 
L 351.100477 151.055719 
z
" style="fill:#348abd;opacity:0.2;"/>
   </g>
   <g id="patch_155">
    <path clip-path="url(#p4d0edad167)" d="M 352.836976 152.2 
L 354.226174 152.2 
L 354.226174 152.711642 
L 352.836976 152.711642 
z
" style="fill:#348abd;opacity:0.2;"/>
   </g>
   <g id="patch_156">
    <path clip-path="url(#p4d0edad167)" d="M 354.573474 152.2 
L 355.962672 152.2 
L 355.962672 151.28734 
L 354.573474 151.28734 
z
" style="fill:#348abd;opacity:0.2;"/>
   </g>
   <g id="patch_157">
    <path clip-path="url(#p4d0edad167)" d="M 356.309972 152.2 
L 357.699171 152.2 
L 357.699171 151.425622 
L 356.309972 151.425622 
z
" style="fill:#348abd;opacity:0.2;"/>
   </g>
   <g id="patch_158">
    <path clip-path="url(#p4d0edad167)" d="M 358.04647 152.2 
L 359.435669 152.2 
L 359.435669 151.435993 
L 358.04647 151.435993 
z
" style="fill:#348abd;opacity:0.2;"/>
   </g>
   <g id="patch_159">
    <path clip-path="url(#p4d0edad167)" d="M 359.782969 152.2 
L 361.172167 152.2 
L 361.172167 151.809354 
L 359.782969 151.809354 
z
" style="fill:#348abd;opacity:0.2;"/>
   </g>
   <g id="patch_160">
    <path clip-path="url(#p4d0edad167)" d="M 361.519467 152.2 
L 362.908666 152.2 
L 362.908666 150.205286 
L 361.519467 150.205286 
z
" style="fill:#348abd;opacity:0.2;"/>
   </g>
   <g id="patch_161">
    <path clip-path="url(#p4d0edad167)" d="M 363.255965 152.2 
L 364.645164 152.2 
L 364.645164 151.176715 
L 363.255965 151.176715 
z
" style="fill:#348abd;opacity:0.2;"/>
   </g>
   <g id="patch_162">
    <path clip-path="url(#p4d0edad167)" d="M 364.992464 152.2 
L 366.381662 152.2 
L 366.381662 151.318454 
L 364.992464 151.318454 
z
" style="fill:#348abd;opacity:0.2;"/>
   </g>
   <g id="patch_163">
    <path clip-path="url(#p4d0edad167)" d="M 366.728962 152.2 
L 368.118161 152.2 
L 368.118161 151.595017 
L 366.728962 151.595017 
z
" style="fill:#348abd;opacity:0.2;"/>
   </g>
   <g id="patch_164">
    <path clip-path="url(#p4d0edad167)" d="M 368.46546 152.2 
L 369.854659 152.2 
L 369.854659 151.598474 
L 368.46546 151.598474 
z
" style="fill:#348abd;opacity:0.2;"/>
   </g>
   <g id="patch_165">
    <path clip-path="url(#p4d0edad167)" d="M 370.201959 152.2 
L 371.591157 152.2 
L 371.591157 151.764412 
L 370.201959 151.764412 
z
" style="fill:#348abd;opacity:0.2;"/>
   </g>
   <g id="patch_166">
    <path clip-path="url(#p4d0edad167)" d="M 371.938457 152.2 
L 373.327655 152.2 
L 373.327655 151.7091 
L 371.938457 151.7091 
z
" style="fill:#348abd;opacity:0.2;"/>
   </g>
   <g id="patch_167">
    <path clip-path="url(#p4d0edad167)" d="M 373.674955 152.2 
L 375.064154 152.2 
L 375.064154 151.570818 
L 373.674955 151.570818 
z
" style="fill:#348abd;opacity:0.2;"/>
   </g>
   <g id="patch_168">
    <path clip-path="url(#p4d0edad167)" d="M 375.411453 152.2 
L 376.800652 152.2 
L 376.800652 151.505134 
L 375.411453 151.505134 
z
" style="fill:#348abd;opacity:0.2;"/>
   </g>
   <g id="patch_169">
    <path clip-path="url(#p4d0edad167)" d="M 377.147952 152.2 
L 378.53715 152.2 
L 378.53715 151.429079 
L 377.147952 151.429079 
z
" style="fill:#348abd;opacity:0.2;"/>
   </g>
   <g id="patch_170">
    <path clip-path="url(#p4d0edad167)" d="M 378.88445 152.2 
L 380.273649 152.2 
L 380.273649 151.387595 
L 378.88445 151.387595 
z
" style="fill:#348abd;opacity:0.2;"/>
   </g>
   <g id="patch_171">
    <path clip-path="url(#p4d0edad167)" d="M 380.620948 152.2 
L 382.010147 152.2 
L 382.010147 151.536248 
L 380.620948 151.536248 
z
" style="fill:#348abd;opacity:0.2;"/>
   </g>
   <g id="patch_172">
    <path clip-path="url(#p4d0edad167)" d="M 382.357447 152.2 
L 383.746645 152.2 
L 383.746645 151.480935 
L 382.357447 151.480935 
z
" style="fill:#348abd;opacity:0.2;"/>
   </g>
   <g id="patch_173">
    <path clip-path="url(#p4d0edad167)" d="M 384.093945 152.2 
L 385.483144 152.2 
L 385.483144 151.726385 
L 384.093945 151.726385 
z
" style="fill:#348abd;opacity:0.2;"/>
   </g>
   <g id="patch_174">
    <path clip-path="url(#p4d0edad167)" d="M 385.830443 152.2 
L 387.219642 152.2 
L 387.219642 151.532791 
L 385.830443 151.532791 
z
" style="fill:#348abd;opacity:0.2;"/>
   </g>
   <g id="patch_175">
    <path clip-path="url(#p4d0edad167)" d="M 387.566942 152.2 
L 388.95614 152.2 
L 388.95614 151.460193 
L 387.566942 151.460193 
z
" style="fill:#348abd;opacity:0.2;"/>
   </g>
   <g id="patch_176">
    <path clip-path="url(#p4d0edad167)" d="M 389.30344 152.2 
L 390.692638 152.2 
L 390.692638 151.245856 
L 389.30344 151.245856 
z
" style="fill:#348abd;opacity:0.2;"/>
   </g>
   <g id="patch_177">
    <path clip-path="url(#p4d0edad167)" d="M 391.039938 152.2 
L 392.429137 152.2 
L 392.429137 151.550076 
L 391.039938 151.550076 
z
" style="fill:#348abd;opacity:0.2;"/>
   </g>
   <g id="patch_178">
    <path clip-path="url(#p4d0edad167)" d="M 392.776436 152.2 
L 394.165635 152.2 
L 394.165635 151.391052 
L 392.776436 151.391052 
z
" style="fill:#348abd;opacity:0.2;"/>
   </g>
   <g id="patch_179">
    <path clip-path="url(#p4d0edad167)" d="M 394.512935 152.2 
L 395.902133 152.2 
L 395.902133 151.61576 
L 394.512935 151.61576 
z
" style="fill:#348abd;opacity:0.2;"/>
   </g>
   <g id="patch_180">
    <path clip-path="url(#p4d0edad167)" d="M 396.249433 152.2 
L 397.638632 152.2 
L 397.638632 151.805897 
L 396.249433 151.805897 
z
" style="fill:#348abd;opacity:0.2;"/>
   </g>
   <g id="patch_181">
    <path clip-path="url(#p4d0edad167)" d="M 397.985931 152.2 
L 399.37513 152.2 
L 399.37513 151.639959 
L 397.985931 151.639959 
z
" style="fill:#348abd;opacity:0.2;"/>
   </g>
   <g id="patch_182">
    <path clip-path="url(#p4d0edad167)" d="M 399.72243 152.2 
L 401.111628 152.2 
L 401.111628 151.40488 
L 399.72243 151.40488 
z
" style="fill:#348abd;opacity:0.2;"/>
   </g>
   <g id="patch_183">
    <path clip-path="url(#p4d0edad167)" d="M 401.458928 152.2 
L 402.848127 152.2 
L 402.848127 151.401423 
L 401.458928 151.401423 
z
" style="fill:#348abd;opacity:0.2;"/>
   </g>
   <g id="patch_184">
    <path clip-path="url(#p4d0edad167)" d="M 403.195426 152.2 
L 404.584625 152.2 
L 404.584625 151.339196 
L 403.195426 151.339196 
z
" style="fill:#348abd;opacity:0.2;"/>
   </g>
   <g id="patch_185">
    <path clip-path="url(#p4d0edad167)" d="M 404.931924 152.2 
L 406.321123 152.2 
L 406.321123 151.446364 
L 404.931924 151.446364 
z
" style="fill:#348abd;opacity:0.2;"/>
   </g>
   <g id="patch_186">
    <path clip-path="url(#p4d0edad167)" d="M 406.668423 152.2 
L 408.057621 152.2 
L 408.057621 151.543162 
L 406.668423 151.543162 
z
" style="fill:#348abd;opacity:0.2;"/>
   </g>
   <g id="patch_187">
    <path clip-path="url(#p4d0edad167)" d="M 408.404921 152.2 
L 409.79412 152.2 
L 409.79412 151.757498 
L 408.404921 151.757498 
z
" style="fill:#348abd;opacity:0.2;"/>
   </g>
   <g id="patch_188">
    <path clip-path="url(#p4d0edad167)" d="M 410.141419 152.2 
L 411.530618 152.2 
L 411.530618 151.232028 
L 410.141419 151.232028 
z
" style="fill:#348abd;opacity:0.2;"/>
   </g>
   <g id="patch_189">
    <path clip-path="url(#p4d0edad167)" d="M 411.877918 152.2 
L 413.267116 152.2 
L 413.267116 151.142145 
L 411.877918 151.142145 
z
" style="fill:#348abd;opacity:0.2;"/>
   </g>
   <g id="patch_190">
    <path clip-path="url(#p4d0edad167)" d="M 413.614416 152.2 
L 415.003615 152.2 
L 415.003615 151.328825 
L 413.614416 151.328825 
z
" style="fill:#348abd;opacity:0.2;"/>
   </g>
   <g id="patch_191">
    <path clip-path="url(#p4d0edad167)" d="M 415.350914 152.2 
L 416.740113 152.2 
L 416.740113 151.25277 
L 415.350914 151.25277 
z
" style="fill:#348abd;opacity:0.2;"/>
   </g>
   <g id="patch_192">
    <path clip-path="url(#p4d0edad167)" d="M 417.087413 152.2 
L 418.476611 152.2 
L 418.476611 151.321911 
L 417.087413 151.321911 
z
" style="fill:#348abd;opacity:0.2;"/>
   </g>
   <g id="patch_193">
    <path clip-path="url(#p4d0edad167)" d="M 418.823911 152.2 
L 420.21311 152.2 
L 420.21311 151.619217 
L 418.823911 151.619217 
z
" style="fill:#348abd;opacity:0.2;"/>
   </g>
   <g id="patch_194">
    <path clip-path="url(#p4d0edad167)" d="M 420.560409 152.2 
L 421.949608 152.2 
L 421.949608 151.501677 
L 420.560409 151.501677 
z
" style="fill:#348abd;opacity:0.2;"/>
   </g>
   <g id="patch_195">
    <path clip-path="url(#p4d0edad167)" d="M 422.296907 152.2 
L 423.686106 152.2 
L 423.686106 151.204371 
L 422.296907 151.204371 
z
" style="fill:#348abd;opacity:0.2;"/>
   </g>
   <g id="patch_196">
    <path clip-path="url(#p4d0edad167)" d="M 424.033406 152.2 
L 425.422604 152.2 
L 425.422604 150.879409 
L 424.033406 150.879409 
z
" style="fill:#348abd;opacity:0.2;"/>
   </g>
   <g id="patch_197">
    <path clip-path="url(#p4d0edad167)" d="M 425.769904 152.2 
L 427.159103 152.2 
L 427.159103 150.88978 
L 425.769904 150.88978 
z
" style="fill:#348abd;opacity:0.2;"/>
   </g>
   <g id="patch_198">
    <path clip-path="url(#p4d0edad167)" d="M 427.506402 152.2 
L 428.895601 152.2 
L 428.895601 151.180172 
L 427.506402 151.180172 
z
" style="fill:#348abd;opacity:0.2;"/>
   </g>
   <g id="patch_199">
    <path clip-path="url(#p4d0edad167)" d="M 429.242901 152.2 
L 430.632099 152.2 
L 430.632099 151.377224 
L 429.242901 151.377224 
z
" style="fill:#348abd;opacity:0.2;"/>
   </g>
   <g id="patch_200">
    <path clip-path="url(#p4d0edad167)" d="M 430.979399 152.2 
L 432.368598 152.2 
L 432.368598 151.65033 
L 430.979399 151.65033 
z
" style="fill:#348abd;opacity:0.2;"/>
   </g>
   <g id="patch_201">
    <path clip-path="url(#p4d0edad167)" d="M 432.715897 152.2 
L 434.105096 152.2 
L 434.105096 151.543162 
L 432.715897 151.543162 
z
" style="fill:#348abd;opacity:0.2;"/>
   </g>
   <g id="patch_202">
    <path clip-path="url(#p4d0edad167)" d="M 434.452396 152.2 
L 435.841594 152.2 
L 435.841594 150.872495 
L 434.452396 150.872495 
z
" style="fill:#348abd;opacity:0.2;"/>
   </g>
   <g id="patch_203">
    <path clip-path="url(#p4d0edad167)" d="M 436.188894 152.2 
L 437.578093 152.2 
L 437.578093 150.813725 
L 436.188894 150.813725 
z
" style="fill:#348abd;opacity:0.2;"/>
   </g>
   <g id="patch_204">
    <path clip-path="url(#p4d0edad167)" d="M 437.925392 152.2 
L 439.314591 152.2 
L 439.314591 150.291712 
L 437.925392 150.291712 
z
" style="fill:#348abd;opacity:0.2;"/>
   </g>
   <g id="patch_205">
    <path clip-path="url(#p4d0edad167)" d="M 439.66189 152.2 
L 441.051089 152.2 
L 441.051089 151.000406 
L 439.66189 151.000406 
z
" style="fill:#348abd;opacity:0.2;"/>
   </g>
   <g id="patch_206">
    <path clip-path="url(#p4d0edad167)" d="M 441.398389 152.2 
L 442.787587 152.2 
L 442.787587 150.599389 
L 441.398389 150.599389 
z
" style="fill:#348abd;opacity:0.2;"/>
   </g>
   <g id="patch_207">
    <path clip-path="url(#p4d0edad167)" d="M 443.134887 152.2 
L 444.524086 152.2 
L 444.524086 151.304626 
L 443.134887 151.304626 
z
" style="fill:#348abd;opacity:0.2;"/>
   </g>
   <g id="patch_208">
    <path clip-path="url(#p4d0edad167)" d="M 444.871385 152.2 
L 446.260584 152.2 
L 446.260584 150.775698 
L 444.871385 150.775698 
z
" style="fill:#348abd;opacity:0.2;"/>
   </g>
   <g id="patch_209">
    <path clip-path="url(#p4d0edad167)" d="M 446.607884 152.2 
L 447.997082 152.2 
L 447.997082 150.554447 
L 446.607884 150.554447 
z
" style="fill:#348abd;opacity:0.2;"/>
   </g>
   <g id="patch_210">
    <path clip-path="url(#p4d0edad167)" d="M 448.344382 152.2 
L 449.733581 152.2 
L 449.733581 150.395423 
L 448.344382 150.395423 
z
" style="fill:#348abd;opacity:0.2;"/>
   </g>
   <g id="patch_211">
    <path clip-path="url(#p4d0edad167)" d="M 450.08088 152.2 
L 451.470079 152.2 
L 451.470079 150.215657 
L 450.08088 150.215657 
z
" style="fill:#348abd;opacity:0.2;"/>
   </g>
   <g id="patch_212">
    <path clip-path="url(#p4d0edad167)" d="M 451.817379 152.2 
L 453.206577 152.2 
L 453.206577 150.02552 
L 451.817379 150.02552 
z
" style="fill:#348abd;opacity:0.2;"/>
   </g>
   <g id="patch_213">
    <path clip-path="url(#p4d0edad167)" d="M 453.553877 152.2 
L 454.943076 152.2 
L 454.943076 150.55099 
L 453.553877 150.55099 
z
" style="fill:#348abd;opacity:0.2;"/>
   </g>
   <g id="patch_214">
    <path clip-path="url(#p4d0edad167)" d="M 455.290375 152.2 
L 456.679574 152.2 
L 456.679574 151.093746 
L 455.290375 151.093746 
z
" style="fill:#348abd;opacity:0.2;"/>
   </g>
   <g id="patch_215">
    <path clip-path="url(#p4d0edad167)" d="M 457.026873 152.2 
L 458.416072 152.2 
L 458.416072 150.813725 
L 457.026873 150.813725 
z
" style="fill:#348abd;opacity:0.2;"/>
   </g>
   <g id="patch_216">
    <path clip-path="url(#p4d0edad167)" d="M 458.763372 152.2 
L 460.15257 152.2 
L 460.15257 149.980578 
L 458.763372 149.980578 
z
" style="fill:#348abd;opacity:0.2;"/>
   </g>
   <g id="patch_217">
    <path clip-path="url(#p4d0edad167)" d="M 460.49987 152.2 
L 461.889069 152.2 
L 461.889069 149.296083 
L 460.49987 149.296083 
z
" style="fill:#348abd;opacity:0.2;"/>
   </g>
   <g id="patch_218">
    <path clip-path="url(#p4d0edad167)" d="M 462.236368 152.2 
L 463.625567 152.2 
L 463.625567 148.92618 
L 462.236368 148.92618 
z
" style="fill:#348abd;opacity:0.2;"/>
   </g>
   <g id="patch_219">
    <path clip-path="url(#p4d0edad167)" d="M 463.972867 152.2 
L 465.362065 152.2 
L 465.362065 148.497506 
L 463.972867 148.497506 
z
" style="fill:#348abd;opacity:0.2;"/>
   </g>
   <g id="patch_220">
    <path clip-path="url(#p4d0edad167)" d="M 465.709365 152.2 
L 467.098564 152.2 
L 467.098564 148.020434 
L 465.709365 148.020434 
z
" style="fill:#348abd;opacity:0.2;"/>
   </g>
   <g id="patch_221">
    <path clip-path="url(#p4d0edad167)" d="M 467.445863 152.2 
L 468.835062 152.2 
L 468.835062 148.905437 
L 467.445863 148.905437 
z
" style="fill:#348abd;opacity:0.2;"/>
   </g>
   <g id="patch_222">
    <path clip-path="url(#p4d0edad167)" d="M 469.182362 152.2 
L 470.57156 152.2 
L 470.57156 149.17163 
L 469.182362 149.17163 
z
" style="fill:#348abd;opacity:0.2;"/>
   </g>
   <g id="patch_223">
    <path clip-path="url(#p4d0edad167)" d="M 470.91886 152.2 
L 472.308058 152.2 
L 472.308058 147.477678 
L 470.91886 147.477678 
z
" style="fill:#348abd;opacity:0.2;"/>
   </g>
   <g id="patch_224">
    <path clip-path="url(#p4d0edad167)" d="M 472.655358 152.2 
L 474.044557 152.2 
L 474.044557 147.329025 
L 472.655358 147.329025 
z
" style="fill:#348abd;opacity:0.2;"/>
   </g>
   <g id="patch_225">
    <path clip-path="url(#p4d0edad167)" d="M 474.391856 152.2 
L 475.781055 152.2 
L 475.781055 147.152716 
L 474.391856 147.152716 
z
" style="fill:#348abd;opacity:0.2;"/>
   </g>
   <g id="patch_226">
    <path clip-path="url(#p4d0edad167)" d="M 476.128355 152.2 
L 477.517553 152.2 
L 477.517553 147.208029 
L 476.128355 147.208029 
z
" style="fill:#348abd;opacity:0.2;"/>
   </g>
   <g id="patch_227">
    <path clip-path="url(#p4d0edad167)" d="M 477.864853 152.2 
L 479.254052 152.2 
L 479.254052 147.481135 
L 477.864853 147.481135 
z
" style="fill:#348abd;opacity:0.2;"/>
   </g>
   <g id="patch_228">
    <path clip-path="url(#p4d0edad167)" d="M 479.601351 152.2 
L 480.99055 152.2 
L 480.99055 148.756785 
L 479.601351 148.756785 
z
" style="fill:#348abd;opacity:0.2;"/>
   </g>
   <g id="patch_229">
    <path clip-path="url(#p4d0edad167)" d="M 481.33785 152.2 
L 482.727048 152.2 
L 482.727048 148.829382 
L 481.33785 148.829382 
z
" style="fill:#348abd;opacity:0.2;"/>
   </g>
   <g id="patch_230">
    <path clip-path="url(#p4d0edad167)" d="M 483.074348 152.2 
L 484.463547 152.2 
L 484.463547 147.61596 
L 483.074348 147.61596 
z
" style="fill:#348abd;opacity:0.2;"/>
   </g>
   <g id="patch_231">
    <path clip-path="url(#p4d0edad167)" d="M 484.810846 152.2 
L 486.200045 152.2 
L 486.200045 147.37051 
L 484.810846 147.37051 
z
" style="fill:#348abd;opacity:0.2;"/>
   </g>
   <g id="patch_232">
    <path clip-path="url(#p4d0edad167)" d="M 486.547345 152.2 
L 487.936543 152.2 
L 487.936543 146.2124 
L 486.547345 146.2124 
z
" style="fill:#348abd;opacity:0.2;"/>
   </g>
   <g id="patch_233">
    <path clip-path="url(#p4d0edad167)" d="M 488.283843 152.2 
L 489.673041 152.2 
L 489.673041 146.343768 
L 488.283843 146.343768 
z
" style="fill:#348abd;opacity:0.2;"/>
   </g>
   <g id="patch_234">
    <path clip-path="url(#p4d0edad167)" d="M 490.020341 152.2 
L 491.40954 152.2 
L 491.40954 147.719671 
L 490.020341 147.719671 
z
" style="fill:#348abd;opacity:0.2;"/>
   </g>
   <g id="patch_235">
    <path clip-path="url(#p4d0edad167)" d="M 491.756839 152.2 
L 493.146038 152.2 
L 493.146038 148.2244 
L 491.756839 148.2244 
z
" style="fill:#348abd;opacity:0.2;"/>
   </g>
   <g id="patch_236">
    <path clip-path="url(#p4d0edad167)" d="M 493.493338 152.2 
L 494.882536 152.2 
L 494.882536 147.467307 
L 493.493338 147.467307 
z
" style="fill:#348abd;opacity:0.2;"/>
   </g>
   <g id="patch_237">
    <path clip-path="url(#p4d0edad167)" d="M 495.229836 152.2 
L 496.619035 152.2 
L 496.619035 147.256428 
L 495.229836 147.256428 
z
" style="fill:#348abd;opacity:0.2;"/>
   </g>
   <g id="patch_238">
    <path clip-path="url(#p4d0edad167)" d="M 496.966334 152.2 
L 498.355533 152.2 
L 498.355533 146.679101 
L 496.966334 146.679101 
z
" style="fill:#348abd;opacity:0.2;"/>
   </g>
   <g id="patch_239">
    <path clip-path="url(#p4d0edad167)" d="M 498.702833 152.2 
L 500.092031 152.2 
L 500.092031 146.613417 
L 498.702833 146.613417 
z
" style="fill:#348abd;opacity:0.2;"/>
   </g>
   <g id="patch_240">
    <path clip-path="url(#p4d0edad167)" d="M 500.439331 152.2 
L 501.82853 152.2 
L 501.82853 147.010977 
L 500.439331 147.010977 
z
" style="fill:#348abd;opacity:0.2;"/>
   </g>
   <g id="patch_241">
    <path clip-path="url(#p4d0edad167)" d="M 502.175829 152.2 
L 503.565028 152.2 
L 503.565028 147.166544 
L 502.175829 147.166544 
z
" style="fill:#348abd;opacity:0.2;"/>
   </g>
   <g id="patch_242">
    <path clip-path="url(#p4d0edad167)" d="M 503.912328 152.2 
L 505.301526 152.2 
L 505.301526 148.7153 
L 503.912328 148.7153 
z
" style="fill:#348abd;opacity:0.2;"/>
   </g>
   <g id="patch_243">
    <path clip-path="url(#p4d0edad167)" d="M 505.648826 152.2 
L 507.038024 152.2 
L 507.038024 147.951293 
L 505.648826 147.951293 
z
" style="fill:#348abd;opacity:0.2;"/>
   </g>
   <g id="patch_244">
    <path clip-path="url(#p4d0edad167)" d="M 507.385324 152.2 
L 508.774523 152.2 
L 508.774523 147.180373 
L 507.385324 147.180373 
z
" style="fill:#348abd;opacity:0.2;"/>
   </g>
   <g id="patch_245">
    <path clip-path="url(#p4d0edad167)" d="M 509.121822 152.2 
L 510.511021 152.2 
L 510.511021 146.7275 
L 509.121822 146.7275 
z
" style="fill:#348abd;opacity:0.2;"/>
   </g>
   <g id="patch_246">
    <path clip-path="url(#p4d0edad167)" d="M 510.858321 152.2 
L 512.247519 152.2 
L 512.247519 145.607418 
L 510.858321 145.607418 
z
" style="fill:#348abd;opacity:0.2;"/>
   </g>
   <g id="patch_247">
    <path clip-path="url(#p4d0edad167)" d="M 512.594819 152.2 
L 513.984018 152.2 
L 513.984018 146.54082 
L 512.594819 146.54082 
z
" style="fill:#348abd;opacity:0.2;"/>
   </g>
   <g id="patch_248">
    <path clip-path="url(#p4d0edad167)" d="M 514.331317 152.2 
L 515.720516 152.2 
L 515.720516 146.713672 
L 514.331317 146.713672 
z
" style="fill:#348abd;opacity:0.2;"/>
   </g>
   <g id="patch_249">
    <path clip-path="url(#p4d0edad167)" d="M 516.067816 152.2 
L 517.457014 152.2 
L 517.457014 147.532991 
L 516.067816 147.532991 
z
" style="fill:#348abd;opacity:0.2;"/>
   </g>
   <g id="patch_250">
    <path clip-path="url(#p4d0edad167)" d="M 517.804314 152.2 
L 519.193513 152.2 
L 519.193513 147.391252 
L 517.804314 147.391252 
z
" style="fill:#348abd;opacity:0.2;"/>
   </g>
   <g id="patch_251">
    <path clip-path="url(#p4d0edad167)" d="M 519.540812 152.2 
L 520.930011 152.2 
L 520.930011 146.530448 
L 519.540812 146.530448 
z
" style="fill:#348abd;opacity:0.2;"/>
   </g>
   <g id="patch_252">
    <path clip-path="url(#p4d0edad167)" d="M 521.277311 152.2 
L 522.666509 152.2 
L 522.666509 146.02572 
L 521.277311 146.02572 
z
" style="fill:#348abd;opacity:0.2;"/>
   </g>
   <g id="patch_253">
    <path clip-path="url(#p4d0edad167)" d="M 523.013809 152.2 
L 524.403007 152.2 
L 524.403007 145.590133 
L 523.013809 145.590133 
z
" style="fill:#348abd;opacity:0.2;"/>
   </g>
   <g id="patch_254">
    <path clip-path="url(#p4d0edad167)" d="M 524.750307 152.2 
L 526.139506 152.2 
L 526.139506 145.738785 
L 524.750307 145.738785 
z
" style="fill:#348abd;opacity:0.2;"/>
   </g>
   <g id="patch_255">
    <path clip-path="url(#p4d0edad167)" d="M 526.486805 152.2 
L 527.876004 152.2 
L 527.876004 146.094861 
L 526.486805 146.094861 
z
" style="fill:#348abd;opacity:0.2;"/>
   </g>
   <g id="patch_256">
    <path clip-path="url(#p4d0edad167)" d="M 528.223304 152.2 
L 529.612502 152.2 
L 529.612502 147.035177 
L 528.223304 147.035177 
z
" style="fill:#348abd;opacity:0.2;"/>
   </g>
   <g id="patch_257">
    <path clip-path="url(#p4d0edad167)" d="M 529.959802 152.2 
L 531.349001 152.2 
L 531.349001 146.506249 
L 529.959802 146.506249 
z
" style="fill:#348abd;opacity:0.2;"/>
   </g>
   <g id="patch_258">
    <path clip-path="url(#p4d0edad167)" d="M 531.6963 152.2 
L 533.085499 152.2 
L 533.085499 145.804469 
L 531.6963 145.804469 
z
" style="fill:#348abd;opacity:0.2;"/>
   </g>
   <g id="patch_259">
    <path clip-path="url(#p4d0edad167)" d="M 533.432799 152.2 
L 534.821997 152.2 
L 534.821997 143.391453 
L 533.432799 143.391453 
z
" style="fill:#348abd;opacity:0.2;"/>
   </g>
   <g id="patch_260">
    <path clip-path="url(#p4d0edad167)" d="M 535.169297 152.2 
L 536.558496 152.2 
L 536.558496 143.560848 
L 535.169297 143.560848 
z
" style="fill:#348abd;opacity:0.2;"/>
   </g>
   <g id="patch_261">
    <path clip-path="url(#p4d0edad167)" d="M 536.905795 152.2 
L 538.294994 152.2 
L 538.294994 142.371625 
L 536.905795 142.371625 
z
" style="fill:#348abd;opacity:0.2;"/>
   </g>
   <g id="patch_262">
    <path clip-path="url(#p4d0edad167)" d="M 538.642294 152.2 
L 540.031492 152.2 
L 540.031492 143.287741 
L 538.642294 143.287741 
z
" style="fill:#348abd;opacity:0.2;"/>
   </g>
   <g id="patch_263">
    <path clip-path="url(#p4d0edad167)" d="M 540.378792 152.2 
L 541.76799 152.2 
L 541.76799 144.397452 
L 540.378792 144.397452 
z
" style="fill:#348abd;opacity:0.2;"/>
   </g>
   <g id="patch_264">
    <path clip-path="url(#p4d0edad167)" d="M 542.11529 152.2 
L 543.504489 152.2 
L 543.504489 142.945494 
L 542.11529 142.945494 
z
" style="fill:#348abd;opacity:0.2;"/>
   </g>
   <g id="patch_265">
    <path clip-path="url(#p4d0edad167)" d="M 543.851788 152.2 
L 545.240987 152.2 
L 545.240987 139.48845 
L 543.851788 139.48845 
z
" style="fill:#348abd;opacity:0.2;"/>
   </g>
   <g id="patch_266">
    <path clip-path="url(#p4d0edad167)" d="M 545.588287 152.2 
L 546.977485 152.2 
L 546.977485 136.788499 
L 545.588287 136.788499 
z
" style="fill:#348abd;opacity:0.2;"/>
   </g>
   <g id="patch_267">
    <path clip-path="url(#p4d0edad167)" d="M 547.324785 152.2 
L 548.713984 152.2 
L 548.713984 133.628761 
L 547.324785 133.628761 
z
" style="fill:#348abd;opacity:0.2;"/>
   </g>
   <g id="patch_268">
    <path clip-path="url(#p4d0edad167)" d="M 549.061283 152.2 
L 550.450482 152.2 
L 550.450482 132.411882 
L 549.061283 132.411882 
z
" style="fill:#348abd;opacity:0.2;"/>
   </g>
   <g id="patch_269">
    <path clip-path="url(#p4d0edad167)" d="M 550.797782 152.2 
L 552.18698 152.2 
L 552.18698 133.33837 
L 550.797782 133.33837 
z
" style="fill:#348abd;opacity:0.2;"/>
   </g>
   <g id="patch_270">
    <path clip-path="url(#p4d0edad167)" d="M 552.53428 152.2 
L 553.923479 152.2 
L 553.923479 136.231915 
L 552.53428 136.231915 
z
" style="fill:#348abd;opacity:0.2;"/>
   </g>
   <g id="patch_271">
    <path clip-path="url(#p4d0edad167)" d="M 554.270778 152.2 
L 555.659977 152.2 
L 555.659977 131.810356 
L 554.270778 131.810356 
z
" style="fill:#348abd;opacity:0.2;"/>
   </g>
   <g id="patch_272">
    <path clip-path="url(#p4d0edad167)" d="M 556.007277 152.2 
L 557.396475 152.2 
L 557.396475 126.852956 
L 556.007277 126.852956 
z
" style="fill:#348abd;opacity:0.2;"/>
   </g>
   <g id="patch_273">
    <path clip-path="url(#p4d0edad167)" d="M 557.743775 152.2 
L 559.132973 152.2 
L 559.132973 121.767645 
L 557.743775 121.767645 
z
" style="fill:#348abd;opacity:0.2;"/>
   </g>
   <g id="patch_274">
    <path clip-path="url(#p4d0edad167)" d="M 559.480273 152.2 
L 560.869472 152.2 
L 560.869472 117.59845 
L 559.480273 117.59845 
z
" style="fill:#348abd;opacity:0.2;"/>
   </g>
   <g id="patch_275">
    <path clip-path="url(#p4d0edad167)" d="M 561.216771 152.2 
L 562.60597 152.2 
L 562.60597 114.431798 
L 561.216771 114.431798 
z
" style="fill:#348abd;opacity:0.2;"/>
   </g>
   <g id="patch_276">
    <path clip-path="url(#p4d0edad167)" d="M 562.95327 152.2 
L 564.342468 152.2 
L 564.342468 111.735304 
L 562.95327 111.735304 
z
" style="fill:#348abd;opacity:0.2;"/>
   </g>
   <g id="patch_277">
    <path clip-path="url(#p4d0edad167)" d="M 564.689768 152.2 
L 566.078967 152.2 
L 566.078967 119.921583 
L 564.689768 119.921583 
z
" style="fill:#348abd;opacity:0.2;"/>
   </g>
   <g id="patch_278">
    <path clip-path="url(#p4d0edad167)" d="M 566.426266 152.2 
L 567.815465 152.2 
L 567.815465 114.618478 
L 566.426266 114.618478 
z
" style="fill:#348abd;opacity:0.2;"/>
   </g>
   <g id="patch_279">
    <path clip-path="url(#p4d0edad167)" d="M 568.162765 152.2 
L 569.551963 152.2 
L 569.551963 99.656393 
L 568.162765 99.656393 
z
" style="fill:#348abd;opacity:0.2;"/>
   </g>
   <g id="patch_280">
    <path clip-path="url(#p4d0edad167)" d="M 569.899263 152.2 
L 571.288462 152.2 
L 571.288462 96.617652 
L 569.899263 96.617652 
z
" style="fill:#348abd;opacity:0.2;"/>
   </g>
   <g id="patch_281">
    <path clip-path="url(#p4d0edad167)" d="M 571.635761 152.2 
L 573.02496 152.2 
L 573.02496 86.021813 
L 571.635761 86.021813 
z
" style="fill:#348abd;opacity:0.2;"/>
   </g>
   <g id="patch_282">
    <path clip-path="url(#p4d0edad167)" d="M 573.372259 152.2 
L 574.761458 152.2 
L 574.761458 84.303662 
L 573.372259 84.303662 
z
" style="fill:#348abd;opacity:0.2;"/>
   </g>
   <g id="patch_283">
    <path clip-path="url(#p4d0edad167)" d="M 575.108758 152.2 
L 576.497956 152.2 
L 576.497956 78.65831 
L 575.108758 78.65831 
z
" style="fill:#348abd;opacity:0.2;"/>
   </g>
   <g id="patch_284">
    <path clip-path="url(#p4d0edad167)" d="M 576.845256 152.2 
L 578.234455 152.2 
L 578.234455 93.406058 
L 576.845256 93.406058 
z
" style="fill:#348abd;opacity:0.2;"/>
   </g>
   <g id="patch_285">
    <path clip-path="url(#p4d0edad167)" d="M 578.581754 152.2 
L 579.970953 152.2 
L 579.970953 76.183067 
L 578.581754 76.183067 
z
" style="fill:#348abd;opacity:0.2;"/>
   </g>
   <g id="patch_286">
    <path clip-path="url(#p4d0edad167)" d="M 580.318253 152.2 
L 581.707451 152.2 
L 581.707451 65.815393 
L 580.318253 65.815393 
z
" style="fill:#348abd;opacity:0.2;"/>
   </g>
   <g id="patch_287">
    <path clip-path="url(#p4d0edad167)" d="M 582.054751 152.2 
L 583.44395 152.2 
L 583.44395 59.450976 
L 582.054751 59.450976 
z
" style="fill:#348abd;opacity:0.2;"/>
   </g>
   <g id="patch_288">
    <path clip-path="url(#p4d0edad167)" d="M 583.791249 152.2 
L 585.180448 152.2 
L 585.180448 44.75854 
L 583.791249 44.75854 
z
" style="fill:#348abd;opacity:0.2;"/>
   </g>
   <g id="patch_289">
    <path clip-path="url(#p4d0edad167)" d="M 585.527748 152.2 
L 586.916946 152.2 
L 586.916946 42.418121 
L 585.527748 42.418121 
z
" style="fill:#348abd;opacity:0.2;"/>
   </g>
   <g id="patch_290">
    <path clip-path="url(#p4d0edad167)" d="M 587.264246 152.2 
L 588.653445 152.2 
L 588.653445 48.817109 
L 587.264246 48.817109 
z
" style="fill:#348abd;opacity:0.2;"/>
   </g>
   <g id="patch_291">
    <path clip-path="url(#p4d0edad167)" d="M 589.000744 152.2 
L 590.389943 152.2 
L 590.389943 75.270407 
L 589.000744 75.270407 
z
" style="fill:#348abd;opacity:0.2;"/>
   </g>
   <g id="patch_292">
    <path clip-path="url(#p4d0edad167)" d="M 590.737242 152.2 
L 592.126441 152.2 
L 592.126441 54.56963 
L 590.737242 54.56963 
z
" style="fill:#348abd;opacity:0.2;"/>
   </g>
   <g id="patch_293">
    <path clip-path="url(#p4d0edad167)" d="M 592.473741 152.2 
L 593.862939 152.2 
L 593.862939 46.59423 
L 592.473741 46.59423 
z
" style="fill:#348abd;opacity:0.2;"/>
   </g>
   <g id="patch_294">
    <path clip-path="url(#p4d0edad167)" d="M 594.210239 152.2 
L 595.599438 152.2 
L 595.599438 32.925079 
L 594.210239 32.925079 
z
" style="fill:#348abd;opacity:0.2;"/>
   </g>
   <g id="patch_295">
    <path clip-path="url(#p4d0edad167)" d="M 595.946737 152.2 
L 597.335936 152.2 
L 597.335936 21.516835 
L 595.946737 21.516835 
z
" style="fill:#348abd;opacity:0.2;"/>
   </g>
   <g id="patch_296">
    <path clip-path="url(#p4d0edad167)" d="M 597.683236 152.2 
L 599.072434 152.2 
L 599.072434 14.578549 
L 597.683236 14.578549 
z
" style="fill:#348abd;opacity:0.2;"/>
   </g>
   <g id="patch_297">
    <path clip-path="url(#p4d0edad167)" d="M 599.419734 152.2 
L 600.808933 152.2 
L 600.808933 39.451978 
L 599.419734 39.451978 
z
" style="fill:#348abd;opacity:0.2;"/>
   </g>
   <g id="patch_298">
    <path clip-path="url(#p4d0edad167)" d="M 601.156232 152.2 
L 602.545431 152.2 
L 602.545431 64.843964 
L 601.156232 64.843964 
z
" style="fill:#348abd;opacity:0.2;"/>
   </g>
   <g id="patch_299">
    <path clip-path="url(#p4d0edad167)" d="M 602.892731 152.2 
L 604.281929 152.2 
L 604.281929 30.892338 
L 602.892731 30.892338 
z
" style="fill:#348abd;opacity:0.2;"/>
   </g>
   <g id="patch_300">
    <path clip-path="url(#p4d0edad167)" d="M 604.629229 152.2 
L 606.018428 152.2 
L 606.018428 38.252384 
L 604.629229 38.252384 
z
" style="fill:#348abd;opacity:0.2;"/>
   </g>
   <g id="patch_301">
    <path clip-path="url(#p4d0edad167)" d="M 606.365727 152.2 
L 607.754926 152.2 
L 607.754926 20.911853 
L 606.365727 20.911853 
z
" style="fill:#348abd;opacity:0.2;"/>
   </g>
   <g id="patch_302">
    <path clip-path="url(#p4d0edad167)" d="M 608.102225 152.2 
L 609.491424 152.2 
L 609.491424 10.8 
L 608.102225 10.8 
z
" style="fill:#348abd;opacity:0.2;"/>
   </g>
   <g id="patch_303">
    <path clip-path="url(#p4d0edad167)" d="M 609.838724 152.2 
L 611.227922 152.2 
L 611.227922 23.428581 
L 609.838724 23.428581 
z
" style="fill:#348abd;opacity:0.2;"/>
   </g>
   <g id="patch_304">
    <path clip-path="url(#p4d0edad167)" d="M 611.575222 152.2 
L 612.964421 152.2 
L 612.964421 34.740027 
L 611.575222 34.740027 
z
" style="fill:#348abd;opacity:0.2;"/>
   </g>
   <g id="patch_305">
    <path clip-path="url(#p4d0edad167)" d="M 613.31172 152.2 
L 614.700919 152.2 
L 614.700919 57.642942 
L 613.31172 57.642942 
z
" style="fill:#348abd;opacity:0.2;"/>
   </g>
   <g id="patch_306">
    <path clip-path="url(#p4d0edad167)" d="M 615.048219 152.2 
L 616.437417 152.2 
L 616.437417 40.914307 
L 615.048219 40.914307 
z
" style="fill:#348abd;opacity:0.2;"/>
   </g>
   <g id="patch_307">
    <path clip-path="url(#p4d0edad167)" d="M 616.784717 152.2 
L 618.173916 152.2 
L 618.173916 33.692543 
L 616.784717 33.692543 
z
" style="fill:#348abd;opacity:0.2;"/>
   </g>
   <g id="patch_308">
    <path clip-path="url(#p4d0edad167)" d="M 618.521215 152.2 
L 619.910414 152.2 
L 619.910414 27.137988 
L 618.521215 27.137988 
z
" style="fill:#348abd;opacity:0.2;"/>
   </g>
   <g id="patch_309">
    <path clip-path="url(#p4d0edad167)" d="M 620.257714 152.2 
L 621.646912 152.2 
L 621.646912 23.463151 
L 620.257714 23.463151 
z
" style="fill:#348abd;opacity:0.2;"/>
   </g>
   <g id="patch_310">
    <path clip-path="url(#p4d0edad167)" d="M 621.994212 152.2 
L 623.383411 152.2 
L 623.383411 32.019334 
L 621.994212 32.019334 
z
" style="fill:#348abd;opacity:0.2;"/>
   </g>
   <g id="patch_311">
    <path clip-path="url(#p4d0edad167)" d="M 623.73071 152.2 
L 625.119909 152.2 
L 625.119909 54.237754 
L 623.73071 54.237754 
z
" style="fill:#348abd;opacity:0.2;"/>
   </g>
   <g id="patch_312">
    <path clip-path="url(#p4d0edad167)" d="M 625.467208 152.2 
L 626.856407 152.2 
L 626.856407 72.94036 
L 625.467208 72.94036 
z
" style="fill:#348abd;opacity:0.2;"/>
   </g>
   <g id="patch_313">
    <path clip-path="url(#p4d0edad167)" d="M 627.203707 152.2 
L 628.592905 152.2 
L 628.592905 71.903247 
L 627.203707 71.903247 
z
" style="fill:#348abd;opacity:0.2;"/>
   </g>
   <g id="patch_314">
    <path clip-path="url(#p4d0edad167)" d="M 628.940205 152.2 
L 630.329404 152.2 
L 630.329404 62.828507 
L 628.940205 62.828507 
z
" style="fill:#348abd;opacity:0.2;"/>
   </g>
   <g id="patch_315">
    <path clip-path="url(#p4d0edad167)" d="M 630.676703 152.2 
L 632.065902 152.2 
L 632.065902 51.942277 
L 630.676703 51.942277 
z
" style="fill:#348abd;opacity:0.2;"/>
   </g>
   <g id="patch_316">
    <path clip-path="url(#p4d0edad167)" d="M 632.413202 152.2 
L 633.8024 152.2 
L 633.8024 54.220468 
L 632.413202 54.220468 
z
" style="fill:#348abd;opacity:0.2;"/>
   </g>
   <g id="patch_317">
    <path clip-path="url(#p4d0edad167)" d="M 634.1497 152.2 
L 635.538899 152.2 
L 635.538899 61.227896 
L 634.1497 61.227896 
z
" style="fill:#348abd;opacity:0.2;"/>
   </g>
   <g id="patch_318">
    <path clip-path="url(#p4d0edad167)" d="M 635.886198 152.2 
L 637.275397 152.2 
L 637.275397 80.825876 
L 635.886198 80.825876 
z
" style="fill:#348abd;opacity:0.2;"/>
   </g>
   <g id="patch_319">
    <path clip-path="url(#p4d0edad167)" d="M 637.622697 152.2 
L 639.011895 152.2 
L 639.011895 95.587453 
L 637.622697 95.587453 
z
" style="fill:#348abd;opacity:0.2;"/>
   </g>
   <g id="patch_320">
    <path clip-path="url(#p4d0edad167)" d="M 639.359195 152.2 
L 640.748393 152.2 
L 640.748393 85.316576 
L 639.359195 85.316576 
z
" style="fill:#348abd;opacity:0.2;"/>
   </g>
   <g id="patch_321">
    <path clip-path="url(#p4d0edad167)" d="M 641.095693 152.2 
L 642.484892 152.2 
L 642.484892 80.608083 
L 641.095693 80.608083 
z
" style="fill:#348abd;opacity:0.2;"/>
   </g>
   <g id="patch_322">
    <path clip-path="url(#p4d0edad167)" d="M 642.832191 152.2 
L 644.22139 152.2 
L 644.22139 71.930903 
L 642.832191 71.930903 
z
" style="fill:#348abd;opacity:0.2;"/>
   </g>
   <g id="patch_323">
    <path clip-path="url(#p4d0edad167)" d="M 644.56869 152.2 
L 645.957888 152.2 
L 645.957888 68.850677 
L 644.56869 68.850677 
z
" style="fill:#348abd;opacity:0.2;"/>
   </g>
   <g id="patch_324">
    <path clip-path="url(#p4d0edad167)" d="M 646.305188 152.2 
L 647.694387 152.2 
L 647.694387 79.422317 
L 646.305188 79.422317 
z
" style="fill:#348abd;opacity:0.2;"/>
   </g>
   <g id="patch_325">
    <path clip-path="url(#p4d0edad167)" d="M 648.041686 152.2 
L 649.430885 152.2 
L 649.430885 86.906816 
L 648.041686 86.906816 
z
" style="fill:#348abd;opacity:0.2;"/>
   </g>
   <g id="patch_326">
    <path clip-path="url(#p4d0edad167)" d="M 649.778185 152.2 
L 651.167383 152.2 
L 651.167383 104.9111 
L 649.778185 104.9111 
z
" style="fill:#348abd;opacity:0.2;"/>
   </g>
   <g id="patch_327">
    <path clip-path="url(#p4d0edad167)" d="M 651.514683 152.2 
L 652.903882 152.2 
L 652.903882 100.907843 
L 651.514683 100.907843 
z
" style="fill:#348abd;opacity:0.2;"/>
   </g>
   <g id="patch_328">
    <path clip-path="url(#p4d0edad167)" d="M 653.251181 152.2 
L 654.64038 152.2 
L 654.64038 108.105408 
L 653.251181 108.105408 
z
" style="fill:#348abd;opacity:0.2;"/>
   </g>
   <g id="patch_329">
    <path clip-path="url(#p4d0edad167)" d="M 654.98768 152.2 
L 656.376878 152.2 
L 656.376878 93.437172 
L 654.98768 93.437172 
z
" style="fill:#348abd;opacity:0.2;"/>
   </g>
   <g id="patch_330">
    <path clip-path="url(#p4d0edad167)" d="M 656.724178 152.2 
L 658.113376 152.2 
L 658.113376 87.4634 
L 656.724178 87.4634 
z
" style="fill:#348abd;opacity:0.2;"/>
   </g>
   <g id="patch_331">
    <path clip-path="url(#p4d0edad167)" d="M 658.460676 152.2 
L 659.849875 152.2 
L 659.849875 83.397917 
L 658.460676 83.397917 
z
" style="fill:#348abd;opacity:0.2;"/>
   </g>
   <g id="patch_332">
    <path clip-path="url(#p4d0edad167)" d="M 660.197174 152.2 
L 661.586373 152.2 
L 661.586373 90.191008 
L 660.197174 90.191008 
z
" style="fill:#348abd;opacity:0.2;"/>
   </g>
   <g id="patch_333">
    <path clip-path="url(#p4d0edad167)" d="M 661.933673 152.2 
L 663.322871 152.2 
L 663.322871 110.62905 
L 661.933673 110.62905 
z
" style="fill:#348abd;opacity:0.2;"/>
   </g>
   <g id="patch_334">
    <path clip-path="url(#p4d0edad167)" d="M 663.670171 152.2 
L 665.05937 152.2 
L 665.05937 100.900929 
L 663.670171 100.900929 
z
" style="fill:#348abd;opacity:0.2;"/>
   </g>
   <g id="patch_335">
    <path clip-path="url(#p4d0edad167)" d="M 665.406669 152.2 
L 666.795868 152.2 
L 666.795868 91.466657 
L 665.406669 91.466657 
z
" style="fill:#348abd;opacity:0.2;"/>
   </g>
   <g id="patch_336">
    <path clip-path="url(#p4d0edad167)" d="M 667.143168 152.2 
L 668.532366 152.2 
L 668.532366 89.167723 
L 667.143168 89.167723 
z
" style="fill:#348abd;opacity:0.2;"/>
   </g>
   <g id="patch_337">
    <path clip-path="url(#p4d0edad167)" d="M 668.879666 152.2 
L 670.268865 152.2 
L 670.268865 98.958071 
L 668.879666 98.958071 
z
" style="fill:#348abd;opacity:0.2;"/>
   </g>
   <g id="patch_338">
    <path clip-path="url(#p4d0edad167)" d="M 670.616164 152.2 
L 672.005363 152.2 
L 672.005363 95.832903 
L 670.616164 95.832903 
z
" style="fill:#348abd;opacity:0.2;"/>
   </g>
   <g id="patch_339">
    <path clip-path="url(#p4d0edad167)" d="M 672.352663 152.2 
L 673.741861 152.2 
L 673.741861 99.991727 
L 672.352663 99.991727 
z
" style="fill:#348abd;opacity:0.2;"/>
   </g>
   <g id="patch_340">
    <path clip-path="url(#p4d0edad167)" d="M 674.089161 152.2 
L 675.478359 152.2 
L 675.478359 114.625392 
L 674.089161 114.625392 
z
" style="fill:#348abd;opacity:0.2;"/>
   </g>
   <g id="patch_341">
    <path clip-path="url(#p4d0edad167)" d="M 675.825659 152.2 
L 677.214858 152.2 
L 677.214858 106.166007 
L 675.825659 106.166007 
z
" style="fill:#348abd;opacity:0.2;"/>
   </g>
   <g id="patch_342">
    <path clip-path="url(#p4d0edad167)" d="M 677.562157 152.2 
L 678.951356 152.2 
L 678.951356 104.119437 
L 677.562157 104.119437 
z
" style="fill:#348abd;opacity:0.2;"/>
   </g>
   <g id="patch_343">
    <path clip-path="url(#p4d0edad167)" d="M 679.298656 152.2 
L 680.687854 152.2 
L 680.687854 89.838389 
L 679.298656 89.838389 
z
" style="fill:#348abd;opacity:0.2;"/>
   </g>
   <g id="patch_344">
    <path clip-path="url(#p4d0edad167)" d="M 681.035154 152.2 
L 682.424353 152.2 
L 682.424353 86.38826 
L 681.035154 86.38826 
z
" style="fill:#348abd;opacity:0.2;"/>
   </g>
   <g id="patch_345">
    <path clip-path="url(#p4d0edad167)" d="M 682.771652 152.2 
L 684.160851 152.2 
L 684.160851 116.229461 
L 682.771652 116.229461 
z
" style="fill:#348abd;opacity:0.2;"/>
   </g>
   <g id="patch_346">
    <path clip-path="url(#p4d0edad167)" d="M 684.508151 152.2 
L 685.897349 152.2 
L 685.897349 121.304401 
L 684.508151 121.304401 
z
" style="fill:#348abd;opacity:0.2;"/>
   </g>
   <g id="patch_347">
    <path clip-path="url(#p4d0edad167)" d="M 686.244649 152.2 
L 687.633848 152.2 
L 687.633848 122.535108 
L 686.244649 122.535108 
z
" style="fill:#348abd;opacity:0.2;"/>
   </g>
   <g id="patch_348">
    <path clip-path="url(#p4d0edad167)" d="M 687.981147 152.2 
L 689.370346 152.2 
L 689.370346 113.446541 
L 687.981147 113.446541 
z
" style="fill:#348abd;opacity:0.2;"/>
   </g>
   <g id="patch_349">
    <path clip-path="url(#p4d0edad167)" d="M 689.717646 152.2 
L 691.106844 152.2 
L 691.106844 96.188979 
L 689.717646 96.188979 
z
" style="fill:#348abd;opacity:0.2;"/>
   </g>
   <g id="patch_350">
    <path clip-path="url(#p4d0edad167)" d="M 691.454144 152.2 
L 692.843342 152.2 
L 692.843342 71.038986 
L 691.454144 71.038986 
z
" style="fill:#348abd;opacity:0.2;"/>
   </g>
   <g id="patch_351">
    <path clip-path="url(#p4d0edad167)" d="M 693.190642 152.2 
L 694.579841 152.2 
L 694.579841 75.41906 
L 693.190642 75.41906 
z
" style="fill:#348abd;opacity:0.2;"/>
   </g>
   <g id="patch_352">
    <path clip-path="url(#p4d0edad167)" d="M 694.92714 152.2 
L 696.316339 152.2 
L 696.316339 111.320459 
L 694.92714 111.320459 
z
" style="fill:#348abd;opacity:0.2;"/>
   </g>
   <g id="patch_353">
    <path clip-path="url(#p4d0edad167)" d="M 696.663639 152.2 
L 698.052837 152.2 
L 698.052837 102.954413 
L 696.663639 102.954413 
z
" style="fill:#348abd;opacity:0.2;"/>
   </g>
   <g id="patch_354">
    <path clip-path="url(#p4d0edad167)" d="M 698.400137 152.2 
L 699.789336 152.2 
L 699.789336 114.870843 
L 698.400137 114.870843 
z
" style="fill:#348abd;opacity:0.2;"/>
   </g>
   <g id="patch_355">
    <path clip-path="url(#p4d0edad167)" d="M 700.136635 152.2 
L 701.525834 152.2 
L 701.525834 99.047954 
L 700.136635 99.047954 
z
" style="fill:#348abd;opacity:0.2;"/>
   </g>
   <g id="patch_356">
    <path clip-path="url(#p4d0edad167)" d="M 701.873134 152.2 
L 703.262332 152.2 
L 703.262332 81.93213 
L 701.873134 81.93213 
z
" style="fill:#348abd;opacity:0.2;"/>
   </g>
   <g id="patch_357">
    <path clip-path="url(#p4d0edad167)" d="M 703.609632 152.2 
L 704.998831 152.2 
L 704.998831 88.535084 
L 703.609632 88.535084 
z
" style="fill:#348abd;opacity:0.2;"/>
   </g>
   <g id="patch_358">
    <path clip-path="url(#p4d0edad167)" d="M 705.34613 152.2 
L 706.735329 152.2 
L 706.735329 91.601482 
L 705.34613 91.601482 
z
" style="fill:#348abd;opacity:0.2;"/>
   </g>
   <g id="patch_359">
    <path clip-path="url(#p4d0edad167)" d="M 707.082629 152.2 
L 708.471827 152.2 
L 708.471827 83.142096 
L 707.082629 83.142096 
z
" style="fill:#348abd;opacity:0.2;"/>
   </g>
   <g id="patch_360">
    <path clip-path="url(#p4d0edad167)" d="M 708.819127 152.2 
L 710.208325 152.2 
L 710.208325 87.812562 
L 708.819127 87.812562 
z
" style="fill:#348abd;opacity:0.2;"/>
   </g>
   <g id="patch_361">
    <path clip-path="url(#p4d0edad167)" d="M 710.555625 152.2 
L 711.944824 152.2 
L 711.944824 108.883243 
L 710.555625 108.883243 
z
" style="fill:#348abd;opacity:0.2;"/>
   </g>
   <g id="patch_362">
    <path clip-path="url(#p4d0edad167)" d="M 712.292123 152.2 
L 713.681322 152.2 
L 713.681322 102.964784 
L 712.292123 102.964784 
z
" style="fill:#348abd;opacity:0.2;"/>
   </g>
   <g id="patch_363">
    <path clip-path="url(#p4d0edad167)" d="M 714.028622 152.2 
L 715.41782 152.2 
L 715.41782 97.67205 
L 714.028622 97.67205 
z
" style="fill:#348abd;opacity:0.2;"/>
   </g>
   <g id="patch_364">
    <path clip-path="url(#p4d0edad167)" d="M 715.76512 152.2 
L 717.154319 152.2 
L 717.154319 92.590196 
L 715.76512 92.590196 
z
" style="fill:#348abd;opacity:0.2;"/>
   </g>
   <g id="patch_365">
    <path clip-path="url(#p4d0edad167)" d="M 717.501618 152.2 
L 718.890817 152.2 
L 718.890817 96.389487 
L 717.501618 96.389487 
z
" style="fill:#348abd;opacity:0.2;"/>
   </g>
   <g id="patch_366">
    <path clip-path="url(#p4d0edad167)" d="M 719.238117 152.2 
L 720.627315 152.2 
L 720.627315 95.815618 
L 719.238117 95.815618 
z
" style="fill:#348abd;opacity:0.2;"/>
   </g>
   <g id="patch_367">
    <path clip-path="url(#p4d0edad167)" d="M 720.974615 152.2 
L 722.363814 152.2 
L 722.363814 108.834844 
L 720.974615 108.834844 
z
" style="fill:#348abd;opacity:0.2;"/>
   </g>
   <g id="patch_368">
    <path clip-path="url(#p4d0edad167)" d="M 722.711113 152.2 
L 724.100312 152.2 
L 724.100312 121.69159 
L 722.711113 121.69159 
z
" style="fill:#348abd;opacity:0.2;"/>
   </g>
   <g id="patch_369">
    <path clip-path="url(#p4d0edad167)" d="M 724.447612 152.2 
L 725.83681 152.2 
L 725.83681 115.91487 
L 724.447612 115.91487 
z
" style="fill:#348abd;opacity:0.2;"/>
   </g>
   <g id="patch_370">
    <path clip-path="url(#p4d0edad167)" d="M 726.18411 152.2 
L 727.573308 152.2 
L 727.573308 105.294832 
L 726.18411 105.294832 
z
" style="fill:#348abd;opacity:0.2;"/>
   </g>
   <g id="patch_371">
    <path clip-path="url(#p4d0edad167)" d="M 727.920608 152.2 
L 729.309807 152.2 
L 729.309807 103.611251 
L 727.920608 103.611251 
z
" style="fill:#348abd;opacity:0.2;"/>
   </g>
   <g id="patch_372">
    <path clip-path="url(#p4d0edad167)" d="M 729.657106 152.2 
L 731.046305 152.2 
L 731.046305 105.070124 
L 729.657106 105.070124 
z
" style="fill:#348abd;opacity:0.2;"/>
   </g>
   <g id="patch_373">
    <path clip-path="url(#p4d0edad167)" d="M 731.393605 152.2 
L 732.782803 152.2 
L 732.782803 106.114151 
L 731.393605 106.114151 
z
" style="fill:#348abd;opacity:0.2;"/>
   </g>
   <g id="patch_374">
    <path clip-path="url(#p4d0edad167)" d="M 733.130103 152.2 
L 734.519302 152.2 
L 734.519302 112.001496 
L 733.130103 112.001496 
z
" style="fill:#348abd;opacity:0.2;"/>
   </g>
   <g id="patch_375">
    <path clip-path="url(#p4d0edad167)" d="M 734.866601 152.2 
L 736.2558 152.2 
L 736.2558 122.611163 
L 734.866601 122.611163 
z
" style="fill:#348abd;opacity:0.2;"/>
   </g>
   <g id="patch_376">
    <path clip-path="url(#p4d0edad167)" d="M 736.6031 152.2 
L 737.992298 152.2 
L 737.992298 115.61065 
L 736.6031 115.61065 
z
" style="fill:#348abd;opacity:0.2;"/>
   </g>
   <g id="patch_377">
    <path clip-path="url(#p4d0edad167)" d="M 738.339598 152.2 
L 739.728797 152.2 
L 739.728797 99.68405 
L 738.339598 99.68405 
z
" style="fill:#348abd;opacity:0.2;"/>
   </g>
   <g id="patch_378">
    <path clip-path="url(#p4d0edad167)" d="M 740.076096 152.2 
L 741.465295 152.2 
L 741.465295 102.556853 
L 740.076096 102.556853 
z
" style="fill:#348abd;opacity:0.2;"/>
   </g>
   <g id="patch_379">
    <path clip-path="url(#p4d0edad167)" d="M 741.812595 152.2 
L 743.201793 152.2 
L 743.201793 105.312117 
L 741.812595 105.312117 
z
" style="fill:#348abd;opacity:0.2;"/>
   </g>
   <g id="patch_380">
    <path clip-path="url(#p4d0edad167)" d="M 743.549093 152.2 
L 744.938291 152.2 
L 744.938291 108.250604 
L 743.549093 108.250604 
z
" style="fill:#348abd;opacity:0.2;"/>
   </g>
   <g id="patch_381">
    <path clip-path="url(#p4d0edad167)" d="M 745.285591 152.2 
L 746.67479 152.2 
L 746.67479 113.311716 
L 745.285591 113.311716 
z
" style="fill:#348abd;opacity:0.2;"/>
   </g>
   <g id="patch_382">
    <path clip-path="url(#p4d0edad167)" d="M 747.022089 152.2 
L 748.411288 152.2 
L 748.411288 124.802929 
L 747.022089 124.802929 
z
" style="fill:#348abd;opacity:0.2;"/>
   </g>
   <g id="patch_383">
    <path clip-path="url(#p4d0edad167)" d="M 748.758588 152.2 
L 750.147786 152.2 
L 750.147786 118.836072 
L 748.758588 118.836072 
z
" style="fill:#348abd;opacity:0.2;"/>
   </g>
   <g id="patch_384">
    <path clip-path="url(#p4d0edad167)" d="M 750.495086 152.2 
L 751.884285 152.2 
L 751.884285 106.62925 
L 750.495086 106.62925 
z
" style="fill:#348abd;opacity:0.2;"/>
   </g>
   <g id="patch_385">
    <path clip-path="url(#p4d0edad167)" d="M 752.231584 152.2 
L 753.620783 152.2 
L 753.620783 104.990612 
L 752.231584 104.990612 
z
" style="fill:#348abd;opacity:0.2;"/>
   </g>
   <g id="patch_386">
    <path clip-path="url(#p4d0edad167)" d="M 753.968083 152.2 
L 755.357281 152.2 
L 755.357281 103.065038 
L 753.968083 103.065038 
z
" style="fill:#348abd;opacity:0.2;"/>
   </g>
   <g id="patch_387">
    <path clip-path="url(#p4d0edad167)" d="M 755.704581 152.2 
L 757.09378 152.2 
L 757.09378 105.74079 
L 755.704581 105.74079 
z
" style="fill:#348abd;opacity:0.2;"/>
   </g>
   <g id="patch_388">
    <path clip-path="url(#p4d0edad167)" d="M 757.441079 152.2 
L 758.830278 152.2 
L 758.830278 111.960012 
L 757.441079 111.960012 
z
" style="fill:#348abd;opacity:0.2;"/>
   </g>
   <g id="patch_389">
    <path clip-path="url(#p4d0edad167)" d="M 759.177577 152.2 
L 760.566776 152.2 
L 760.566776 124.650819 
L 759.177577 124.650819 
z
" style="fill:#348abd;opacity:0.2;"/>
   </g>
   <g id="patch_390">
    <path clip-path="url(#p4d0edad167)" d="M 760.914076 152.2 
L 762.303274 152.2 
L 762.303274 115.513853 
L 760.914076 115.513853 
z
" style="fill:#348abd;opacity:0.2;"/>
   </g>
   <g id="patch_391">
    <path clip-path="url(#p4d0edad167)" d="M 762.650574 152.2 
L 764.039773 152.2 
L 764.039773 107.441656 
L 762.650574 107.441656 
z
" style="fill:#348abd;opacity:0.2;"/>
   </g>
   <g id="line2d_38">
    <path clip-path="url(#p4d0edad167)" d="M 106.948816 152.199256 
L 145.151779 152.116607 
L 152.097772 151.847043 
L 157.307267 151.447783 
L 162.516762 150.81583 
L 165.989759 150.158747 
L 169.462755 149.285042 
L 172.935752 148.079725 
L 176.408748 146.517458 
L 179.881745 144.693231 
L 183.354742 142.687491 
L 186.827738 140.365298 
L 192.037233 136.68954 
L 193.773731 135.590565 
L 195.51023 134.645234 
L 197.246728 133.932462 
L 198.983226 133.457173 
L 200.719725 133.162443 
L 202.456223 133.047321 
L 204.192721 133.132451 
L 205.929219 133.334805 
L 209.402216 134.108729 
L 221.557704 137.459554 
L 225.030701 138.073639 
L 228.503697 138.529387 
L 235.449691 139.425822 
L 247.605179 141.665736 
L 252.814674 142.501636 
L 270.179656 146.419137 
L 275.389151 147.423297 
L 280.598646 148.121398 
L 285.808141 148.633137 
L 304.909622 150.128271 
L 327.4841 151.160622 
L 360.477568 151.357051 
L 365.687063 151.36961 
L 374.369554 151.556318 
L 419.51851 151.293923 
L 436.883493 150.976322 
L 455.984974 150.198511 
L 459.457971 149.780862 
L 471.613459 148.0211 
L 476.822954 147.77674 
L 487.241944 147.406404 
L 494.187937 147.219765 
L 506.343425 147.191311 
L 521.97191 146.408329 
L 525.444906 146.130023 
L 528.917903 145.65071 
L 532.3909 144.963873 
L 535.863896 143.96142 
L 537.600395 143.269671 
L 539.336893 142.425037 
L 541.073391 141.412804 
L 542.809889 140.267825 
L 546.282886 137.593903 
L 549.755883 134.391799 
L 551.492381 132.546956 
L 553.228879 130.456422 
L 556.701876 125.748233 
L 560.174872 120.230439 
L 561.911371 117.080066 
L 563.647869 113.651074 
L 567.120866 105.959695 
L 570.593862 97.173483 
L 574.066859 87.606402 
L 579.276354 72.256461 
L 581.012852 67.57342 
L 582.74935 63.28836 
L 584.485849 59.361572 
L 587.958845 52.490532 
L 591.431842 46.483162 
L 593.16834 43.621925 
L 594.904838 41.011313 
L 596.641337 38.707199 
L 598.377835 36.656002 
L 600.114333 35.17031 
L 601.850832 33.891141 
L 603.58733 32.81741 
L 605.323828 32.313933 
L 607.060326 31.969447 
L 608.796825 31.932737 
L 612.269821 32.701143 
L 614.00632 33.608731 
L 615.742818 34.960524 
L 617.479316 36.769964 
L 619.215815 39.235769 
L 620.952313 42.1395 
L 622.688811 45.453071 
L 626.161808 53.048527 
L 627.898306 57.02907 
L 629.634804 60.715586 
L 633.107801 67.367951 
L 634.844299 70.26043 
L 636.580798 72.923775 
L 638.317296 75.261501 
L 645.263289 83.737802 
L 648.736286 88.391594 
L 650.472784 90.605615 
L 652.209282 92.615623 
L 653.945781 94.19685 
L 655.682279 94.955504 
L 657.418777 95.140204 
L 660.891774 95.162476 
L 662.628272 95.418543 
L 664.36477 95.823177 
L 666.101269 96.46061 
L 669.574265 98.702791 
L 673.047262 100.18071 
L 674.78376 101.098169 
L 679.993255 104.343258 
L 681.729753 104.991982 
L 683.466252 105.367281 
L 685.20275 105.083708 
L 686.939248 104.054521 
L 688.675747 102.685823 
L 692.148743 99.231494 
L 693.885241 97.978999 
L 702.567733 94.36419 
L 707.777228 93.477419 
L 709.513726 93.998718 
L 711.250224 95.147222 
L 712.986723 96.654132 
L 721.669214 105.230452 
L 723.405713 106.60105 
L 725.142211 107.750124 
L 726.878709 108.638988 
L 728.615207 109.233987 
L 730.351706 109.534562 
L 732.088204 109.618241 
L 737.297699 109.440597 
L 739.034197 109.51742 
L 742.507194 110.196631 
L 745.98019 110.855688 
L 749.453187 111.155711 
L 751.189685 111.108405 
L 752.926184 110.949176 
L 752.926184 110.949176 
" style="fill:none;stroke:#348abd;stroke-linecap:square;stroke-width:3;"/>
   </g>
   <g id="line2d_39">
    <path clip-path="url(#p4d0edad167)" d="M 752.926184 111.36264 
L 754.662682 111.312415 
L 756.39918 111.450392 
L 758.135679 111.567719 
L 759.872177 111.632912 
L 761.608675 111.468955 
L 763.345173 111.563292 
" style="fill:none;stroke:#348abd;stroke-dasharray:11.1,4.8;stroke-dashoffset:0;stroke-opacity:0.7;stroke-width:3;"/>
   </g>
   <g id="patch_392">
    <path d="M 62.425 152.2 
L 62.425 10.8 
" style="fill:none;stroke:#ffffff;stroke-linecap:square;stroke-linejoin:miter;"/>
   </g>
   <g id="patch_393">
    <path d="M 797.45 152.2 
L 797.45 10.8 
" style="fill:none;stroke:#ffffff;stroke-linecap:square;stroke-linejoin:miter;"/>
   </g>
   <g id="patch_394">
    <path d="M 62.425 152.2 
L 797.45 152.2 
" style="fill:none;stroke:#ffffff;stroke-linecap:square;stroke-linejoin:miter;"/>
   </g>
   <g id="patch_395">
    <path d="M 62.425 10.8 
L 797.45 10.8 
" style="fill:none;stroke:#ffffff;stroke-linecap:square;stroke-linejoin:miter;"/>
   </g>
   <g id="legend_1">
    <g id="patch_396">
     <path d="M 69.425 48.15625 
L 267.776563 48.15625 
Q 269.776563 48.15625 269.776563 46.15625 
L 269.776563 17.8 
Q 269.776563 15.8 267.776563 15.8 
L 69.425 15.8 
Q 67.425 15.8 67.425 17.8 
L 67.425 46.15625 
Q 67.425 48.15625 69.425 48.15625 
z
" style="fill:#e5e5e5;opacity:0.8;stroke:#cccccc;stroke-linejoin:miter;stroke-width:0.5;"/>
    </g>
    <g id="line2d_40">
     <path d="M 71.425 23.898438 
L 91.425 23.898438 
" style="fill:none;stroke:#348abd;stroke-linecap:square;stroke-width:3;"/>
    </g>
    <g id="line2d_41"/>
    <g id="text_21">
     <text style="font-family:DejaVu Sans;font-size:10px;font-stretch:normal;font-style:normal;font-weight:normal;text-anchor:start;" transform="rotate(-0, 99.425, 27.398438)" x="99.425" y="27.398438">Italy new cases (rolling 7d mean)</text>
    </g>
    <g id="patch_397">
     <path d="M 71.425 42.076563 
L 91.425 42.076563 
L 91.425 35.076563 
L 71.425 35.076563 
z
" style="fill:#348abd;opacity:0.2;"/>
    </g>
    <g id="text_22">
     <text style="font-family:DejaVu Sans;font-size:10px;font-stretch:normal;font-style:normal;font-weight:normal;text-anchor:start;" transform="rotate(-0, 99.425, 42.076563)" x="99.425" y="42.076563">Italy new cases</text>
    </g>
   </g>
  </g>
 </g>
 <defs>
  <clipPath id="p4d0edad167">
   <rect height="141.4" width="735.025" x="62.425" y="10.8"/>
  </clipPath>
 </defs>
</svg>
