<?xml version="1.0" encoding="utf-8" standalone="no"?>
<!DOCTYPE svg PUBLIC "-//W3C//DTD SVG 1.1//EN"
  "http://www.w3.org/Graphics/SVG/1.1/DTD/svg11.dtd">
<!-- Created with matplotlib (https://matplotlib.org/) -->
<svg height="180pt" version="1.1" viewBox="0 0 720 180" width="720pt" xmlns="http://www.w3.org/2000/svg" xmlns:xlink="http://www.w3.org/1999/xlink">
 <defs>
  <style type="text/css">
*{stroke-linecap:butt;stroke-linejoin:round;}
  </style>
 </defs>
 <g id="figure_1">
  <g id="patch_1">
   <path d="M 0 180 
L 720 180 
L 720 0 
L 0 0 
z
" style="fill:#ffffff;"/>
  </g>
  <g id="axes_1">
   <g id="patch_2">
    <path d="M 90 157.5 
L 648 157.5 
L 648 21.6 
L 90 21.6 
z
" style="fill:#e5e5e5;"/>
   </g>
   <g id="matplotlib.axis_1">
    <g id="xtick_1">
     <g id="line2d_1">
      <path clip-path="url(#p52d0e691f2)" d="M 139.179257 157.5 
L 139.179257 21.6 
" style="fill:none;stroke:#ffffff;stroke-linecap:square;stroke-width:0.8;"/>
     </g>
     <g id="line2d_2">
      <defs>
       <path d="M 0 0 
L 0 3.5 
" id="m2ffe3bb607" style="stroke:#555555;stroke-width:0.8;"/>
      </defs>
      <g>
       <use style="fill:#555555;stroke:#555555;stroke-width:0.8;" x="139.179257" xlink:href="#m2ffe3bb607" y="157.5"/>
      </g>
     </g>
     <g id="text_1">
      <!-- 2020-02 -->
      <defs>
       <path d="M 19.1875 8.296875 
L 53.609375 8.296875 
L 53.609375 0 
L 7.328125 0 
L 7.328125 8.296875 
Q 12.9375 14.109375 22.625 23.890625 
Q 32.328125 33.6875 34.8125 36.53125 
Q 39.546875 41.84375 41.421875 45.53125 
Q 43.3125 49.21875 43.3125 52.78125 
Q 43.3125 58.59375 39.234375 62.25 
Q 35.15625 65.921875 28.609375 65.921875 
Q 23.96875 65.921875 18.8125 64.3125 
Q 13.671875 62.703125 7.8125 59.421875 
L 7.8125 69.390625 
Q 13.765625 71.78125 18.9375 73 
Q 24.125 74.21875 28.421875 74.21875 
Q 39.75 74.21875 46.484375 68.546875 
Q 53.21875 62.890625 53.21875 53.421875 
Q 53.21875 48.921875 51.53125 44.890625 
Q 49.859375 40.875 45.40625 35.40625 
Q 44.1875 33.984375 37.640625 27.21875 
Q 31.109375 20.453125 19.1875 8.296875 
z
" id="DejaVuSans-50"/>
       <path d="M 31.78125 66.40625 
Q 24.171875 66.40625 20.328125 58.90625 
Q 16.5 51.421875 16.5 36.375 
Q 16.5 21.390625 20.328125 13.890625 
Q 24.171875 6.390625 31.78125 6.390625 
Q 39.453125 6.390625 43.28125 13.890625 
Q 47.125 21.390625 47.125 36.375 
Q 47.125 51.421875 43.28125 58.90625 
Q 39.453125 66.40625 31.78125 66.40625 
z
M 31.78125 74.21875 
Q 44.046875 74.21875 50.515625 64.515625 
Q 56.984375 54.828125 56.984375 36.375 
Q 56.984375 17.96875 50.515625 8.265625 
Q 44.046875 -1.421875 31.78125 -1.421875 
Q 19.53125 -1.421875 13.0625 8.265625 
Q 6.59375 17.96875 6.59375 36.375 
Q 6.59375 54.828125 13.0625 64.515625 
Q 19.53125 74.21875 31.78125 74.21875 
z
" id="DejaVuSans-48"/>
       <path d="M 4.890625 31.390625 
L 31.203125 31.390625 
L 31.203125 23.390625 
L 4.890625 23.390625 
z
" id="DejaVuSans-45"/>
      </defs>
      <g style="fill:#555555;" transform="translate(118.287851 172.098437)scale(0.1 -0.1)">
       <use xlink:href="#DejaVuSans-50"/>
       <use x="63.623047" xlink:href="#DejaVuSans-48"/>
       <use x="127.246094" xlink:href="#DejaVuSans-50"/>
       <use x="190.869141" xlink:href="#DejaVuSans-48"/>
       <use x="254.492188" xlink:href="#DejaVuSans-45"/>
       <use x="290.576172" xlink:href="#DejaVuSans-48"/>
       <use x="354.199219" xlink:href="#DejaVuSans-50"/>
      </g>
     </g>
    </g>
    <g id="xtick_2">
     <g id="line2d_3">
      <path clip-path="url(#p52d0e691f2)" d="M 208.244558 157.5 
L 208.244558 21.6 
" style="fill:none;stroke:#ffffff;stroke-linecap:square;stroke-width:0.8;"/>
     </g>
     <g id="line2d_4">
      <g>
       <use style="fill:#555555;stroke:#555555;stroke-width:0.8;" x="208.244558" xlink:href="#m2ffe3bb607" y="157.5"/>
      </g>
     </g>
     <g id="text_2">
      <!-- 2020-03 -->
      <defs>
       <path d="M 40.578125 39.3125 
Q 47.65625 37.796875 51.625 33 
Q 55.609375 28.21875 55.609375 21.1875 
Q 55.609375 10.40625 48.1875 4.484375 
Q 40.765625 -1.421875 27.09375 -1.421875 
Q 22.515625 -1.421875 17.65625 -0.515625 
Q 12.796875 0.390625 7.625 2.203125 
L 7.625 11.71875 
Q 11.71875 9.328125 16.59375 8.109375 
Q 21.484375 6.890625 26.8125 6.890625 
Q 36.078125 6.890625 40.9375 10.546875 
Q 45.796875 14.203125 45.796875 21.1875 
Q 45.796875 27.640625 41.28125 31.265625 
Q 36.765625 34.90625 28.71875 34.90625 
L 20.21875 34.90625 
L 20.21875 43.015625 
L 29.109375 43.015625 
Q 36.375 43.015625 40.234375 45.921875 
Q 44.09375 48.828125 44.09375 54.296875 
Q 44.09375 59.90625 40.109375 62.90625 
Q 36.140625 65.921875 28.71875 65.921875 
Q 24.65625 65.921875 20.015625 65.03125 
Q 15.375 64.15625 9.8125 62.3125 
L 9.8125 71.09375 
Q 15.4375 72.65625 20.34375 73.4375 
Q 25.25 74.21875 29.59375 74.21875 
Q 40.828125 74.21875 47.359375 69.109375 
Q 53.90625 64.015625 53.90625 55.328125 
Q 53.90625 49.265625 50.4375 45.09375 
Q 46.96875 40.921875 40.578125 39.3125 
z
" id="DejaVuSans-51"/>
      </defs>
      <g style="fill:#555555;" transform="translate(187.353152 172.098437)scale(0.1 -0.1)">
       <use xlink:href="#DejaVuSans-50"/>
       <use x="63.623047" xlink:href="#DejaVuSans-48"/>
       <use x="127.246094" xlink:href="#DejaVuSans-50"/>
       <use x="190.869141" xlink:href="#DejaVuSans-48"/>
       <use x="254.492188" xlink:href="#DejaVuSans-45"/>
       <use x="290.576172" xlink:href="#DejaVuSans-48"/>
       <use x="354.199219" xlink:href="#DejaVuSans-51"/>
      </g>
     </g>
    </g>
    <g id="xtick_3">
     <g id="line2d_5">
      <path clip-path="url(#p52d0e691f2)" d="M 282.072983 157.5 
L 282.072983 21.6 
" style="fill:none;stroke:#ffffff;stroke-linecap:square;stroke-width:0.8;"/>
     </g>
     <g id="line2d_6">
      <g>
       <use style="fill:#555555;stroke:#555555;stroke-width:0.8;" x="282.072983" xlink:href="#m2ffe3bb607" y="157.5"/>
      </g>
     </g>
     <g id="text_3">
      <!-- 2020-04 -->
      <defs>
       <path d="M 37.796875 64.3125 
L 12.890625 25.390625 
L 37.796875 25.390625 
z
M 35.203125 72.90625 
L 47.609375 72.90625 
L 47.609375 25.390625 
L 58.015625 25.390625 
L 58.015625 17.1875 
L 47.609375 17.1875 
L 47.609375 0 
L 37.796875 0 
L 37.796875 17.1875 
L 4.890625 17.1875 
L 4.890625 26.703125 
z
" id="DejaVuSans-52"/>
      </defs>
      <g style="fill:#555555;" transform="translate(261.181577 172.098437)scale(0.1 -0.1)">
       <use xlink:href="#DejaVuSans-50"/>
       <use x="63.623047" xlink:href="#DejaVuSans-48"/>
       <use x="127.246094" xlink:href="#DejaVuSans-50"/>
       <use x="190.869141" xlink:href="#DejaVuSans-48"/>
       <use x="254.492188" xlink:href="#DejaVuSans-45"/>
       <use x="290.576172" xlink:href="#DejaVuSans-48"/>
       <use x="354.199219" xlink:href="#DejaVuSans-52"/>
      </g>
     </g>
    </g>
    <g id="xtick_4">
     <g id="line2d_7">
      <path clip-path="url(#p52d0e691f2)" d="M 353.519846 157.5 
L 353.519846 21.6 
" style="fill:none;stroke:#ffffff;stroke-linecap:square;stroke-width:0.8;"/>
     </g>
     <g id="line2d_8">
      <g>
       <use style="fill:#555555;stroke:#555555;stroke-width:0.8;" x="353.519846" xlink:href="#m2ffe3bb607" y="157.5"/>
      </g>
     </g>
     <g id="text_4">
      <!-- 2020-05 -->
      <defs>
       <path d="M 10.796875 72.90625 
L 49.515625 72.90625 
L 49.515625 64.59375 
L 19.828125 64.59375 
L 19.828125 46.734375 
Q 21.96875 47.46875 24.109375 47.828125 
Q 26.265625 48.1875 28.421875 48.1875 
Q 40.625 48.1875 47.75 41.5 
Q 54.890625 34.8125 54.890625 23.390625 
Q 54.890625 11.625 47.5625 5.09375 
Q 40.234375 -1.421875 26.90625 -1.421875 
Q 22.3125 -1.421875 17.546875 -0.640625 
Q 12.796875 0.140625 7.71875 1.703125 
L 7.71875 11.625 
Q 12.109375 9.234375 16.796875 8.0625 
Q 21.484375 6.890625 26.703125 6.890625 
Q 35.15625 6.890625 40.078125 11.328125 
Q 45.015625 15.765625 45.015625 23.390625 
Q 45.015625 31 40.078125 35.4375 
Q 35.15625 39.890625 26.703125 39.890625 
Q 22.75 39.890625 18.8125 39.015625 
Q 14.890625 38.140625 10.796875 36.28125 
z
" id="DejaVuSans-53"/>
      </defs>
      <g style="fill:#555555;" transform="translate(332.62844 172.098437)scale(0.1 -0.1)">
       <use xlink:href="#DejaVuSans-50"/>
       <use x="63.623047" xlink:href="#DejaVuSans-48"/>
       <use x="127.246094" xlink:href="#DejaVuSans-50"/>
       <use x="190.869141" xlink:href="#DejaVuSans-48"/>
       <use x="254.492188" xlink:href="#DejaVuSans-45"/>
       <use x="290.576172" xlink:href="#DejaVuSans-48"/>
       <use x="354.199219" xlink:href="#DejaVuSans-53"/>
      </g>
     </g>
    </g>
    <g id="xtick_5">
     <g id="line2d_9">
      <path clip-path="url(#p52d0e691f2)" d="M 427.348271 157.5 
L 427.348271 21.6 
" style="fill:none;stroke:#ffffff;stroke-linecap:square;stroke-width:0.8;"/>
     </g>
     <g id="line2d_10">
      <g>
       <use style="fill:#555555;stroke:#555555;stroke-width:0.8;" x="427.348271" xlink:href="#m2ffe3bb607" y="157.5"/>
      </g>
     </g>
     <g id="text_5">
      <!-- 2020-06 -->
      <defs>
       <path d="M 33.015625 40.375 
Q 26.375 40.375 22.484375 35.828125 
Q 18.609375 31.296875 18.609375 23.390625 
Q 18.609375 15.53125 22.484375 10.953125 
Q 26.375 6.390625 33.015625 6.390625 
Q 39.65625 6.390625 43.53125 10.953125 
Q 47.40625 15.53125 47.40625 23.390625 
Q 47.40625 31.296875 43.53125 35.828125 
Q 39.65625 40.375 33.015625 40.375 
z
M 52.59375 71.296875 
L 52.59375 62.3125 
Q 48.875 64.0625 45.09375 64.984375 
Q 41.3125 65.921875 37.59375 65.921875 
Q 27.828125 65.921875 22.671875 59.328125 
Q 17.53125 52.734375 16.796875 39.40625 
Q 19.671875 43.65625 24.015625 45.921875 
Q 28.375 48.1875 33.59375 48.1875 
Q 44.578125 48.1875 50.953125 41.515625 
Q 57.328125 34.859375 57.328125 23.390625 
Q 57.328125 12.15625 50.6875 5.359375 
Q 44.046875 -1.421875 33.015625 -1.421875 
Q 20.359375 -1.421875 13.671875 8.265625 
Q 6.984375 17.96875 6.984375 36.375 
Q 6.984375 53.65625 15.1875 63.9375 
Q 23.390625 74.21875 37.203125 74.21875 
Q 40.921875 74.21875 44.703125 73.484375 
Q 48.484375 72.75 52.59375 71.296875 
z
" id="DejaVuSans-54"/>
      </defs>
      <g style="fill:#555555;" transform="translate(406.456865 172.098437)scale(0.1 -0.1)">
       <use xlink:href="#DejaVuSans-50"/>
       <use x="63.623047" xlink:href="#DejaVuSans-48"/>
       <use x="127.246094" xlink:href="#DejaVuSans-50"/>
       <use x="190.869141" xlink:href="#DejaVuSans-48"/>
       <use x="254.492188" xlink:href="#DejaVuSans-45"/>
       <use x="290.576172" xlink:href="#DejaVuSans-48"/>
       <use x="354.199219" xlink:href="#DejaVuSans-54"/>
      </g>
     </g>
    </g>
    <g id="xtick_6">
     <g id="line2d_11">
      <path clip-path="url(#p52d0e691f2)" d="M 498.795134 157.5 
L 498.795134 21.6 
" style="fill:none;stroke:#ffffff;stroke-linecap:square;stroke-width:0.8;"/>
     </g>
     <g id="line2d_12">
      <g>
       <use style="fill:#555555;stroke:#555555;stroke-width:0.8;" x="498.795134" xlink:href="#m2ffe3bb607" y="157.5"/>
      </g>
     </g>
     <g id="text_6">
      <!-- 2020-07 -->
      <defs>
       <path d="M 8.203125 72.90625 
L 55.078125 72.90625 
L 55.078125 68.703125 
L 28.609375 0 
L 18.3125 0 
L 43.21875 64.59375 
L 8.203125 64.59375 
z
" id="DejaVuSans-55"/>
      </defs>
      <g style="fill:#555555;" transform="translate(477.903728 172.098437)scale(0.1 -0.1)">
       <use xlink:href="#DejaVuSans-50"/>
       <use x="63.623047" xlink:href="#DejaVuSans-48"/>
       <use x="127.246094" xlink:href="#DejaVuSans-50"/>
       <use x="190.869141" xlink:href="#DejaVuSans-48"/>
       <use x="254.492188" xlink:href="#DejaVuSans-45"/>
       <use x="290.576172" xlink:href="#DejaVuSans-48"/>
       <use x="354.199219" xlink:href="#DejaVuSans-55"/>
      </g>
     </g>
    </g>
    <g id="xtick_7">
     <g id="line2d_13">
      <path clip-path="url(#p52d0e691f2)" d="M 572.62356 157.5 
L 572.62356 21.6 
" style="fill:none;stroke:#ffffff;stroke-linecap:square;stroke-width:0.8;"/>
     </g>
     <g id="line2d_14">
      <g>
       <use style="fill:#555555;stroke:#555555;stroke-width:0.8;" x="572.62356" xlink:href="#m2ffe3bb607" y="157.5"/>
      </g>
     </g>
     <g id="text_7">
      <!-- 2020-08 -->
      <defs>
       <path d="M 31.78125 34.625 
Q 24.75 34.625 20.71875 30.859375 
Q 16.703125 27.09375 16.703125 20.515625 
Q 16.703125 13.921875 20.71875 10.15625 
Q 24.75 6.390625 31.78125 6.390625 
Q 38.8125 6.390625 42.859375 10.171875 
Q 46.921875 13.96875 46.921875 20.515625 
Q 46.921875 27.09375 42.890625 30.859375 
Q 38.875 34.625 31.78125 34.625 
z
M 21.921875 38.8125 
Q 15.578125 40.375 12.03125 44.71875 
Q 8.5 49.078125 8.5 55.328125 
Q 8.5 64.0625 14.71875 69.140625 
Q 20.953125 74.21875 31.78125 74.21875 
Q 42.671875 74.21875 48.875 69.140625 
Q 55.078125 64.0625 55.078125 55.328125 
Q 55.078125 49.078125 51.53125 44.71875 
Q 48 40.375 41.703125 38.8125 
Q 48.828125 37.15625 52.796875 32.3125 
Q 56.78125 27.484375 56.78125 20.515625 
Q 56.78125 9.90625 50.3125 4.234375 
Q 43.84375 -1.421875 31.78125 -1.421875 
Q 19.734375 -1.421875 13.25 4.234375 
Q 6.78125 9.90625 6.78125 20.515625 
Q 6.78125 27.484375 10.78125 32.3125 
Q 14.796875 37.15625 21.921875 38.8125 
z
M 18.3125 54.390625 
Q 18.3125 48.734375 21.84375 45.5625 
Q 25.390625 42.390625 31.78125 42.390625 
Q 38.140625 42.390625 41.71875 45.5625 
Q 45.3125 48.734375 45.3125 54.390625 
Q 45.3125 60.0625 41.71875 63.234375 
Q 38.140625 66.40625 31.78125 66.40625 
Q 25.390625 66.40625 21.84375 63.234375 
Q 18.3125 60.0625 18.3125 54.390625 
z
" id="DejaVuSans-56"/>
      </defs>
      <g style="fill:#555555;" transform="translate(551.732153 172.098437)scale(0.1 -0.1)">
       <use xlink:href="#DejaVuSans-50"/>
       <use x="63.623047" xlink:href="#DejaVuSans-48"/>
       <use x="127.246094" xlink:href="#DejaVuSans-50"/>
       <use x="190.869141" xlink:href="#DejaVuSans-48"/>
       <use x="254.492188" xlink:href="#DejaVuSans-45"/>
       <use x="290.576172" xlink:href="#DejaVuSans-48"/>
       <use x="354.199219" xlink:href="#DejaVuSans-56"/>
      </g>
     </g>
    </g>
    <g id="xtick_8">
     <g id="line2d_15">
      <path clip-path="url(#p52d0e691f2)" d="M 646.451985 157.5 
L 646.451985 21.6 
" style="fill:none;stroke:#ffffff;stroke-linecap:square;stroke-width:0.8;"/>
     </g>
     <g id="line2d_16">
      <g>
       <use style="fill:#555555;stroke:#555555;stroke-width:0.8;" x="646.451985" xlink:href="#m2ffe3bb607" y="157.5"/>
      </g>
     </g>
     <g id="text_8">
      <!-- 2020-09 -->
      <defs>
       <path d="M 10.984375 1.515625 
L 10.984375 10.5 
Q 14.703125 8.734375 18.5 7.8125 
Q 22.3125 6.890625 25.984375 6.890625 
Q 35.75 6.890625 40.890625 13.453125 
Q 46.046875 20.015625 46.78125 33.40625 
Q 43.953125 29.203125 39.59375 26.953125 
Q 35.25 24.703125 29.984375 24.703125 
Q 19.046875 24.703125 12.671875 31.3125 
Q 6.296875 37.9375 6.296875 49.421875 
Q 6.296875 60.640625 12.9375 67.421875 
Q 19.578125 74.21875 30.609375 74.21875 
Q 43.265625 74.21875 49.921875 64.515625 
Q 56.59375 54.828125 56.59375 36.375 
Q 56.59375 19.140625 48.40625 8.859375 
Q 40.234375 -1.421875 26.421875 -1.421875 
Q 22.703125 -1.421875 18.890625 -0.6875 
Q 15.09375 0.046875 10.984375 1.515625 
z
M 30.609375 32.421875 
Q 37.25 32.421875 41.125 36.953125 
Q 45.015625 41.5 45.015625 49.421875 
Q 45.015625 57.28125 41.125 61.84375 
Q 37.25 66.40625 30.609375 66.40625 
Q 23.96875 66.40625 20.09375 61.84375 
Q 16.21875 57.28125 16.21875 49.421875 
Q 16.21875 41.5 20.09375 36.953125 
Q 23.96875 32.421875 30.609375 32.421875 
z
" id="DejaVuSans-57"/>
      </defs>
      <g style="fill:#555555;" transform="translate(625.560578 172.098437)scale(0.1 -0.1)">
       <use xlink:href="#DejaVuSans-50"/>
       <use x="63.623047" xlink:href="#DejaVuSans-48"/>
       <use x="127.246094" xlink:href="#DejaVuSans-50"/>
       <use x="190.869141" xlink:href="#DejaVuSans-48"/>
       <use x="254.492188" xlink:href="#DejaVuSans-45"/>
       <use x="290.576172" xlink:href="#DejaVuSans-48"/>
       <use x="354.199219" xlink:href="#DejaVuSans-57"/>
      </g>
     </g>
    </g>
   </g>
   <g id="matplotlib.axis_2">
    <g id="ytick_1">
     <g id="line2d_17">
      <path clip-path="url(#p52d0e691f2)" d="M 90 157.5 
L 648 157.5 
" style="fill:none;stroke:#ffffff;stroke-linecap:square;stroke-width:0.8;"/>
     </g>
     <g id="line2d_18">
      <defs>
       <path d="M 0 0 
L -3.5 0 
" id="mc27e4d4970" style="stroke:#555555;stroke-width:0.8;"/>
      </defs>
      <g>
       <use style="fill:#555555;stroke:#555555;stroke-width:0.8;" x="90" xlink:href="#mc27e4d4970" y="157.5"/>
      </g>
     </g>
     <g id="line2d_19">
      <defs>
       <path d="M 0 0 
L 3.5 0 
" id="mc3afc24407" style="stroke:#555555;stroke-width:0.8;"/>
      </defs>
      <g>
       <use style="fill:#555555;stroke:#555555;stroke-width:0.8;" x="648" xlink:href="#mc3afc24407" y="157.5"/>
      </g>
     </g>
     <g id="text_9">
      <!-- 0 -->
      <g style="fill:#555555;" transform="translate(76.6375 161.299219)scale(0.1 -0.1)">
       <use xlink:href="#DejaVuSans-48"/>
      </g>
     </g>
     <g id="text_10">
      <!-- 0 -->
      <g style="fill:#555555;" transform="translate(655 161.299219)scale(0.1 -0.1)">
       <use xlink:href="#DejaVuSans-48"/>
      </g>
     </g>
    </g>
    <g id="ytick_2">
     <g id="line2d_20">
      <path clip-path="url(#p52d0e691f2)" d="M 90 127.082004 
L 648 127.082004 
" style="fill:none;stroke:#ffffff;stroke-linecap:square;stroke-width:0.8;"/>
     </g>
     <g id="line2d_21">
      <g>
       <use style="fill:#555555;stroke:#555555;stroke-width:0.8;" x="90" xlink:href="#mc27e4d4970" y="127.082004"/>
      </g>
     </g>
     <g id="line2d_22">
      <g>
       <use style="fill:#555555;stroke:#555555;stroke-width:0.8;" x="648" xlink:href="#mc3afc24407" y="127.082004"/>
      </g>
     </g>
     <g id="text_11">
      <!-- 200 -->
      <g style="fill:#555555;" transform="translate(63.9125 130.881223)scale(0.1 -0.1)">
       <use xlink:href="#DejaVuSans-50"/>
       <use x="63.623047" xlink:href="#DejaVuSans-48"/>
       <use x="127.246094" xlink:href="#DejaVuSans-48"/>
      </g>
     </g>
     <g id="text_12">
      <!-- 200 -->
      <g style="fill:#555555;" transform="translate(655 130.881223)scale(0.1 -0.1)">
       <use xlink:href="#DejaVuSans-50"/>
       <use x="63.623047" xlink:href="#DejaVuSans-48"/>
       <use x="127.246094" xlink:href="#DejaVuSans-48"/>
      </g>
     </g>
    </g>
    <g id="ytick_3">
     <g id="line2d_23">
      <path clip-path="url(#p52d0e691f2)" d="M 90 96.664009 
L 648 96.664009 
" style="fill:none;stroke:#ffffff;stroke-linecap:square;stroke-width:0.8;"/>
     </g>
     <g id="line2d_24">
      <g>
       <use style="fill:#555555;stroke:#555555;stroke-width:0.8;" x="90" xlink:href="#mc27e4d4970" y="96.664009"/>
      </g>
     </g>
     <g id="line2d_25">
      <g>
       <use style="fill:#555555;stroke:#555555;stroke-width:0.8;" x="648" xlink:href="#mc3afc24407" y="96.664009"/>
      </g>
     </g>
     <g id="text_13">
      <!-- 400 -->
      <g style="fill:#555555;" transform="translate(63.9125 100.463227)scale(0.1 -0.1)">
       <use xlink:href="#DejaVuSans-52"/>
       <use x="63.623047" xlink:href="#DejaVuSans-48"/>
       <use x="127.246094" xlink:href="#DejaVuSans-48"/>
      </g>
     </g>
     <g id="text_14">
      <!-- 400 -->
      <g style="fill:#555555;" transform="translate(655 100.463227)scale(0.1 -0.1)">
       <use xlink:href="#DejaVuSans-52"/>
       <use x="63.623047" xlink:href="#DejaVuSans-48"/>
       <use x="127.246094" xlink:href="#DejaVuSans-48"/>
      </g>
     </g>
    </g>
    <g id="ytick_4">
     <g id="line2d_26">
      <path clip-path="url(#p52d0e691f2)" d="M 90 66.246013 
L 648 66.246013 
" style="fill:none;stroke:#ffffff;stroke-linecap:square;stroke-width:0.8;"/>
     </g>
     <g id="line2d_27">
      <g>
       <use style="fill:#555555;stroke:#555555;stroke-width:0.8;" x="90" xlink:href="#mc27e4d4970" y="66.246013"/>
      </g>
     </g>
     <g id="line2d_28">
      <g>
       <use style="fill:#555555;stroke:#555555;stroke-width:0.8;" x="648" xlink:href="#mc3afc24407" y="66.246013"/>
      </g>
     </g>
     <g id="text_15">
      <!-- 600 -->
      <g style="fill:#555555;" transform="translate(63.9125 70.045232)scale(0.1 -0.1)">
       <use xlink:href="#DejaVuSans-54"/>
       <use x="63.623047" xlink:href="#DejaVuSans-48"/>
       <use x="127.246094" xlink:href="#DejaVuSans-48"/>
      </g>
     </g>
     <g id="text_16">
      <!-- 600 -->
      <g style="fill:#555555;" transform="translate(655 70.045232)scale(0.1 -0.1)">
       <use xlink:href="#DejaVuSans-54"/>
       <use x="63.623047" xlink:href="#DejaVuSans-48"/>
       <use x="127.246094" xlink:href="#DejaVuSans-48"/>
      </g>
     </g>
    </g>
    <g id="ytick_5">
     <g id="line2d_29">
      <path clip-path="url(#p52d0e691f2)" d="M 90 35.828017 
L 648 35.828017 
" style="fill:none;stroke:#ffffff;stroke-linecap:square;stroke-width:0.8;"/>
     </g>
     <g id="line2d_30">
      <g>
       <use style="fill:#555555;stroke:#555555;stroke-width:0.8;" x="90" xlink:href="#mc27e4d4970" y="35.828017"/>
      </g>
     </g>
     <g id="line2d_31">
      <g>
       <use style="fill:#555555;stroke:#555555;stroke-width:0.8;" x="648" xlink:href="#mc3afc24407" y="35.828017"/>
      </g>
     </g>
     <g id="text_17">
      <!-- 800 -->
      <g style="fill:#555555;" transform="translate(63.9125 39.627236)scale(0.1 -0.1)">
       <use xlink:href="#DejaVuSans-56"/>
       <use x="63.623047" xlink:href="#DejaVuSans-48"/>
       <use x="127.246094" xlink:href="#DejaVuSans-48"/>
      </g>
     </g>
     <g id="text_18">
      <!-- 800 -->
      <g style="fill:#555555;" transform="translate(655 39.627236)scale(0.1 -0.1)">
       <use xlink:href="#DejaVuSans-56"/>
       <use x="63.623047" xlink:href="#DejaVuSans-48"/>
       <use x="127.246094" xlink:href="#DejaVuSans-48"/>
      </g>
     </g>
    </g>
    <g id="text_19">
     <!-- daily change -->
     <defs>
      <path d="M 45.40625 46.390625 
L 45.40625 75.984375 
L 54.390625 75.984375 
L 54.390625 0 
L 45.40625 0 
L 45.40625 8.203125 
Q 42.578125 3.328125 38.25 0.953125 
Q 33.9375 -1.421875 27.875 -1.421875 
Q 17.96875 -1.421875 11.734375 6.484375 
Q 5.515625 14.40625 5.515625 27.296875 
Q 5.515625 40.1875 11.734375 48.09375 
Q 17.96875 56 27.875 56 
Q 33.9375 56 38.25 53.625 
Q 42.578125 51.265625 45.40625 46.390625 
z
M 14.796875 27.296875 
Q 14.796875 17.390625 18.875 11.75 
Q 22.953125 6.109375 30.078125 6.109375 
Q 37.203125 6.109375 41.296875 11.75 
Q 45.40625 17.390625 45.40625 27.296875 
Q 45.40625 37.203125 41.296875 42.84375 
Q 37.203125 48.484375 30.078125 48.484375 
Q 22.953125 48.484375 18.875 42.84375 
Q 14.796875 37.203125 14.796875 27.296875 
z
" id="DejaVuSans-100"/>
      <path d="M 34.28125 27.484375 
Q 23.390625 27.484375 19.1875 25 
Q 14.984375 22.515625 14.984375 16.5 
Q 14.984375 11.71875 18.140625 8.90625 
Q 21.296875 6.109375 26.703125 6.109375 
Q 34.1875 6.109375 38.703125 11.40625 
Q 43.21875 16.703125 43.21875 25.484375 
L 43.21875 27.484375 
z
M 52.203125 31.203125 
L 52.203125 0 
L 43.21875 0 
L 43.21875 8.296875 
Q 40.140625 3.328125 35.546875 0.953125 
Q 30.953125 -1.421875 24.3125 -1.421875 
Q 15.921875 -1.421875 10.953125 3.296875 
Q 6 8.015625 6 15.921875 
Q 6 25.140625 12.171875 29.828125 
Q 18.359375 34.515625 30.609375 34.515625 
L 43.21875 34.515625 
L 43.21875 35.40625 
Q 43.21875 41.609375 39.140625 45 
Q 35.0625 48.390625 27.6875 48.390625 
Q 23 48.390625 18.546875 47.265625 
Q 14.109375 46.140625 10.015625 43.890625 
L 10.015625 52.203125 
Q 14.9375 54.109375 19.578125 55.046875 
Q 24.21875 56 28.609375 56 
Q 40.484375 56 46.34375 49.84375 
Q 52.203125 43.703125 52.203125 31.203125 
z
" id="DejaVuSans-97"/>
      <path d="M 9.421875 54.6875 
L 18.40625 54.6875 
L 18.40625 0 
L 9.421875 0 
z
M 9.421875 75.984375 
L 18.40625 75.984375 
L 18.40625 64.59375 
L 9.421875 64.59375 
z
" id="DejaVuSans-105"/>
      <path d="M 9.421875 75.984375 
L 18.40625 75.984375 
L 18.40625 0 
L 9.421875 0 
z
" id="DejaVuSans-108"/>
      <path d="M 32.171875 -5.078125 
Q 28.375 -14.84375 24.75 -17.8125 
Q 21.140625 -20.796875 15.09375 -20.796875 
L 7.90625 -20.796875 
L 7.90625 -13.28125 
L 13.1875 -13.28125 
Q 16.890625 -13.28125 18.9375 -11.515625 
Q 21 -9.765625 23.484375 -3.21875 
L 25.09375 0.875 
L 2.984375 54.6875 
L 12.5 54.6875 
L 29.59375 11.921875 
L 46.6875 54.6875 
L 56.203125 54.6875 
z
" id="DejaVuSans-121"/>
      <path id="DejaVuSans-32"/>
      <path d="M 48.78125 52.59375 
L 48.78125 44.1875 
Q 44.96875 46.296875 41.140625 47.34375 
Q 37.3125 48.390625 33.40625 48.390625 
Q 24.65625 48.390625 19.8125 42.84375 
Q 14.984375 37.3125 14.984375 27.296875 
Q 14.984375 17.28125 19.8125 11.734375 
Q 24.65625 6.203125 33.40625 6.203125 
Q 37.3125 6.203125 41.140625 7.25 
Q 44.96875 8.296875 48.78125 10.40625 
L 48.78125 2.09375 
Q 45.015625 0.34375 40.984375 -0.53125 
Q 36.96875 -1.421875 32.421875 -1.421875 
Q 20.0625 -1.421875 12.78125 6.34375 
Q 5.515625 14.109375 5.515625 27.296875 
Q 5.515625 40.671875 12.859375 48.328125 
Q 20.21875 56 33.015625 56 
Q 37.15625 56 41.109375 55.140625 
Q 45.0625 54.296875 48.78125 52.59375 
z
" id="DejaVuSans-99"/>
      <path d="M 54.890625 33.015625 
L 54.890625 0 
L 45.90625 0 
L 45.90625 32.71875 
Q 45.90625 40.484375 42.875 44.328125 
Q 39.84375 48.1875 33.796875 48.1875 
Q 26.515625 48.1875 22.3125 43.546875 
Q 18.109375 38.921875 18.109375 30.90625 
L 18.109375 0 
L 9.078125 0 
L 9.078125 75.984375 
L 18.109375 75.984375 
L 18.109375 46.1875 
Q 21.34375 51.125 25.703125 53.5625 
Q 30.078125 56 35.796875 56 
Q 45.21875 56 50.046875 50.171875 
Q 54.890625 44.34375 54.890625 33.015625 
z
" id="DejaVuSans-104"/>
      <path d="M 54.890625 33.015625 
L 54.890625 0 
L 45.90625 0 
L 45.90625 32.71875 
Q 45.90625 40.484375 42.875 44.328125 
Q 39.84375 48.1875 33.796875 48.1875 
Q 26.515625 48.1875 22.3125 43.546875 
Q 18.109375 38.921875 18.109375 30.90625 
L 18.109375 0 
L 9.078125 0 
L 9.078125 54.6875 
L 18.109375 54.6875 
L 18.109375 46.1875 
Q 21.34375 51.125 25.703125 53.5625 
Q 30.078125 56 35.796875 56 
Q 45.21875 56 50.046875 50.171875 
Q 54.890625 44.34375 54.890625 33.015625 
z
" id="DejaVuSans-110"/>
      <path d="M 45.40625 27.984375 
Q 45.40625 37.75 41.375 43.109375 
Q 37.359375 48.484375 30.078125 48.484375 
Q 22.859375 48.484375 18.828125 43.109375 
Q 14.796875 37.75 14.796875 27.984375 
Q 14.796875 18.265625 18.828125 12.890625 
Q 22.859375 7.515625 30.078125 7.515625 
Q 37.359375 7.515625 41.375 12.890625 
Q 45.40625 18.265625 45.40625 27.984375 
z
M 54.390625 6.78125 
Q 54.390625 -7.171875 48.1875 -13.984375 
Q 42 -20.796875 29.203125 -20.796875 
Q 24.46875 -20.796875 20.265625 -20.09375 
Q 16.0625 -19.390625 12.109375 -17.921875 
L 12.109375 -9.1875 
Q 16.0625 -11.328125 19.921875 -12.34375 
Q 23.78125 -13.375 27.78125 -13.375 
Q 36.625 -13.375 41.015625 -8.765625 
Q 45.40625 -4.15625 45.40625 5.171875 
L 45.40625 9.625 
Q 42.625 4.78125 38.28125 2.390625 
Q 33.9375 0 27.875 0 
Q 17.828125 0 11.671875 7.65625 
Q 5.515625 15.328125 5.515625 27.984375 
Q 5.515625 40.671875 11.671875 48.328125 
Q 17.828125 56 27.875 56 
Q 33.9375 56 38.28125 53.609375 
Q 42.625 51.21875 45.40625 46.390625 
L 45.40625 54.6875 
L 54.390625 54.6875 
z
" id="DejaVuSans-103"/>
      <path d="M 56.203125 29.59375 
L 56.203125 25.203125 
L 14.890625 25.203125 
Q 15.484375 15.921875 20.484375 11.0625 
Q 25.484375 6.203125 34.421875 6.203125 
Q 39.59375 6.203125 44.453125 7.46875 
Q 49.3125 8.734375 54.109375 11.28125 
L 54.109375 2.78125 
Q 49.265625 0.734375 44.1875 -0.34375 
Q 39.109375 -1.421875 33.890625 -1.421875 
Q 20.796875 -1.421875 13.15625 6.1875 
Q 5.515625 13.8125 5.515625 26.8125 
Q 5.515625 40.234375 12.765625 48.109375 
Q 20.015625 56 32.328125 56 
Q 43.359375 56 49.78125 48.890625 
Q 56.203125 41.796875 56.203125 29.59375 
z
M 47.21875 32.234375 
Q 47.125 39.59375 43.09375 43.984375 
Q 39.0625 48.390625 32.421875 48.390625 
Q 24.90625 48.390625 20.390625 44.140625 
Q 15.875 39.890625 15.1875 32.171875 
z
" id="DejaVuSans-101"/>
     </defs>
     <g style="fill:#555555;" transform="translate(57.416875 127.909687)rotate(-90)scale(0.12 -0.12)">
      <use xlink:href="#DejaVuSans-100"/>
      <use x="63.476562" xlink:href="#DejaVuSans-97"/>
      <use x="124.755859" xlink:href="#DejaVuSans-105"/>
      <use x="152.539062" xlink:href="#DejaVuSans-108"/>
      <use x="180.322266" xlink:href="#DejaVuSans-121"/>
      <use x="239.501953" xlink:href="#DejaVuSans-32"/>
      <use x="271.289062" xlink:href="#DejaVuSans-99"/>
      <use x="326.269531" xlink:href="#DejaVuSans-104"/>
      <use x="389.648438" xlink:href="#DejaVuSans-97"/>
      <use x="450.927734" xlink:href="#DejaVuSans-110"/>
      <use x="514.306641" xlink:href="#DejaVuSans-103"/>
      <use x="577.783203" xlink:href="#DejaVuSans-101"/>
     </g>
    </g>
   </g>
   <g id="patch_3">
    <path clip-path="url(#p52d0e691f2)" d="M 116.792574 157.5 
L 118.697823 157.5 
L 118.697823 157.5 
L 116.792574 157.5 
z
" style="fill:#348abd;opacity:0.2;"/>
   </g>
   <g id="patch_4">
    <path clip-path="url(#p52d0e691f2)" d="M 119.174136 157.5 
L 121.079385 157.5 
L 121.079385 157.34791 
L 119.174136 157.34791 
z
" style="fill:#348abd;opacity:0.2;"/>
   </g>
   <g id="patch_5">
    <path clip-path="url(#p52d0e691f2)" d="M 121.555698 157.5 
L 123.460948 157.5 
L 123.460948 157.5 
L 121.555698 157.5 
z
" style="fill:#348abd;opacity:0.2;"/>
   </g>
   <g id="patch_6">
    <path clip-path="url(#p52d0e691f2)" d="M 123.93726 157.5 
L 125.84251 157.5 
L 125.84251 157.34791 
L 123.93726 157.34791 
z
" style="fill:#348abd;opacity:0.2;"/>
   </g>
   <g id="patch_7">
    <path clip-path="url(#p52d0e691f2)" d="M 126.318822 157.5 
L 128.224072 157.5 
L 128.224072 157.34791 
L 126.318822 157.34791 
z
" style="fill:#348abd;opacity:0.2;"/>
   </g>
   <g id="patch_8">
    <path clip-path="url(#p52d0e691f2)" d="M 128.700384 157.5 
L 130.605634 157.5 
L 130.605634 157.5 
L 128.700384 157.5 
z
" style="fill:#348abd;opacity:0.2;"/>
   </g>
   <g id="patch_9">
    <path clip-path="url(#p52d0e691f2)" d="M 131.081946 157.5 
L 132.987196 157.5 
L 132.987196 157.5 
L 131.081946 157.5 
z
" style="fill:#348abd;opacity:0.2;"/>
   </g>
   <g id="patch_10">
    <path clip-path="url(#p52d0e691f2)" d="M 133.463508 157.5 
L 135.368758 157.5 
L 135.368758 157.5 
L 133.463508 157.5 
z
" style="fill:#348abd;opacity:0.2;"/>
   </g>
   <g id="patch_11">
    <path clip-path="url(#p52d0e691f2)" d="M 135.84507 157.5 
L 137.75032 157.5 
L 137.75032 156.43537 
L 135.84507 156.43537 
z
" style="fill:#348abd;opacity:0.2;"/>
   </g>
   <g id="patch_12">
    <path clip-path="url(#p52d0e691f2)" d="M 138.226633 157.5 
L 140.131882 157.5 
L 140.131882 157.34791 
L 138.226633 157.34791 
z
" style="fill:#348abd;opacity:0.2;"/>
   </g>
   <g id="patch_13">
    <path clip-path="url(#p52d0e691f2)" d="M 140.608195 157.5 
L 142.513444 157.5 
L 142.513444 157.04373 
L 140.608195 157.04373 
z
" style="fill:#348abd;opacity:0.2;"/>
   </g>
   <g id="patch_14">
    <path clip-path="url(#p52d0e691f2)" d="M 142.989757 157.5 
L 144.895006 157.5 
L 144.895006 157.5 
L 142.989757 157.5 
z
" style="fill:#348abd;opacity:0.2;"/>
   </g>
   <g id="patch_15">
    <path clip-path="url(#p52d0e691f2)" d="M 145.371319 157.5 
L 147.276569 157.5 
L 147.276569 157.34791 
L 145.371319 157.34791 
z
" style="fill:#348abd;opacity:0.2;"/>
   </g>
   <g id="patch_16">
    <path clip-path="url(#p52d0e691f2)" d="M 147.752881 157.5 
L 149.658131 157.5 
L 149.658131 157.04373 
L 147.752881 157.04373 
z
" style="fill:#348abd;opacity:0.2;"/>
   </g>
   <g id="patch_17">
    <path clip-path="url(#p52d0e691f2)" d="M 150.134443 157.5 
L 152.039693 157.5 
L 152.039693 156.89164 
L 150.134443 156.89164 
z
" style="fill:#348abd;opacity:0.2;"/>
   </g>
   <g id="patch_18">
    <path clip-path="url(#p52d0e691f2)" d="M 152.516005 157.5 
L 154.421255 157.5 
L 154.421255 157.34791 
L 152.516005 157.34791 
z
" style="fill:#348abd;opacity:0.2;"/>
   </g>
   <g id="patch_19">
    <path clip-path="url(#p52d0e691f2)" d="M 154.897567 157.5 
L 156.802817 157.5 
L 156.802817 157.5 
L 154.897567 157.5 
z
" style="fill:#348abd;opacity:0.2;"/>
   </g>
   <g id="patch_20">
    <path clip-path="url(#p52d0e691f2)" d="M 157.279129 157.5 
L 159.184379 157.5 
L 159.184379 157.34791 
L 157.279129 157.34791 
z
" style="fill:#348abd;opacity:0.2;"/>
   </g>
   <g id="patch_21">
    <path clip-path="url(#p52d0e691f2)" d="M 159.660691 157.5 
L 161.565941 157.5 
L 161.565941 157.19582 
L 159.660691 157.19582 
z
" style="fill:#348abd;opacity:0.2;"/>
   </g>
   <g id="patch_22">
    <path clip-path="url(#p52d0e691f2)" d="M 162.042254 157.5 
L 163.947503 157.5 
L 163.947503 157.34791 
L 162.042254 157.34791 
z
" style="fill:#348abd;opacity:0.2;"/>
   </g>
   <g id="patch_23">
    <path clip-path="url(#p52d0e691f2)" d="M 164.423816 157.5 
L 166.329065 157.5 
L 166.329065 157.5 
L 164.423816 157.5 
z
" style="fill:#348abd;opacity:0.2;"/>
   </g>
   <g id="patch_24">
    <path clip-path="url(#p52d0e691f2)" d="M 166.805378 157.5 
L 168.710627 157.5 
L 168.710627 157.5 
L 166.805378 157.5 
z
" style="fill:#348abd;opacity:0.2;"/>
   </g>
   <g id="patch_25">
    <path clip-path="url(#p52d0e691f2)" d="M 169.18694 157.5 
L 171.09219 157.5 
L 171.09219 157.5 
L 169.18694 157.5 
z
" style="fill:#348abd;opacity:0.2;"/>
   </g>
   <g id="patch_26">
    <path clip-path="url(#p52d0e691f2)" d="M 171.568502 157.5 
L 173.473752 157.5 
L 173.473752 157.5 
L 171.568502 157.5 
z
" style="fill:#348abd;opacity:0.2;"/>
   </g>
   <g id="patch_27">
    <path clip-path="url(#p52d0e691f2)" d="M 173.950064 157.5 
L 175.855314 157.5 
L 175.855314 157.34791 
L 173.950064 157.34791 
z
" style="fill:#348abd;opacity:0.2;"/>
   </g>
   <g id="patch_28">
    <path clip-path="url(#p52d0e691f2)" d="M 176.331626 157.5 
L 178.236876 157.5 
L 178.236876 157.34791 
L 176.331626 157.34791 
z
" style="fill:#348abd;opacity:0.2;"/>
   </g>
   <g id="patch_29">
    <path clip-path="url(#p52d0e691f2)" d="M 178.713188 157.5 
L 180.618438 157.5 
L 180.618438 157.34791 
L 178.713188 157.34791 
z
" style="fill:#348abd;opacity:0.2;"/>
   </g>
   <g id="patch_30">
    <path clip-path="url(#p52d0e691f2)" d="M 181.09475 157.5 
L 183 157.5 
L 183 157.5 
L 181.09475 157.5 
z
" style="fill:#348abd;opacity:0.2;"/>
   </g>
   <g id="patch_31">
    <path clip-path="url(#p52d0e691f2)" d="M 183.476312 157.5 
L 185.381562 157.5 
L 185.381562 146.397432 
L 183.476312 146.397432 
z
" style="fill:#348abd;opacity:0.2;"/>
   </g>
   <g id="patch_32">
    <path clip-path="url(#p52d0e691f2)" d="M 185.857875 157.5 
L 187.763124 157.5 
L 187.763124 142.291002 
L 185.857875 142.291002 
z
" style="fill:#348abd;opacity:0.2;"/>
   </g>
   <g id="patch_33">
    <path clip-path="url(#p52d0e691f2)" d="M 188.239437 157.5 
L 190.144686 157.5 
L 190.144686 122.671395 
L 188.239437 122.671395 
z
" style="fill:#348abd;opacity:0.2;"/>
   </g>
   <g id="patch_34">
    <path clip-path="url(#p52d0e691f2)" d="M 190.620999 157.5 
L 192.526248 157.5 
L 192.526248 131.796794 
L 190.620999 131.796794 
z
" style="fill:#348abd;opacity:0.2;"/>
   </g>
   <g id="patch_35">
    <path clip-path="url(#p52d0e691f2)" d="M 193.002561 157.5 
L 194.90781 157.5 
L 194.90781 122.367215 
L 193.002561 122.367215 
z
" style="fill:#348abd;opacity:0.2;"/>
   </g>
   <g id="patch_36">
    <path clip-path="url(#p52d0e691f2)" d="M 195.384123 157.5 
L 197.289373 157.5 
L 197.289373 135.599043 
L 195.384123 135.599043 
z
" style="fill:#348abd;opacity:0.2;"/>
   </g>
   <g id="patch_37">
    <path clip-path="url(#p52d0e691f2)" d="M 197.765685 157.5 
L 199.670935 157.5 
L 199.670935 114.306446 
L 197.765685 114.306446 
z
" style="fill:#348abd;opacity:0.2;"/>
   </g>
   <g id="patch_38">
    <path clip-path="url(#p52d0e691f2)" d="M 200.147247 157.5 
L 202.052497 157.5 
L 202.052497 80.694561 
L 200.147247 80.694561 
z
" style="fill:#348abd;opacity:0.2;"/>
   </g>
   <g id="patch_39">
    <path clip-path="url(#p52d0e691f2)" d="M 202.528809 157.5 
L 204.434059 157.5 
L 204.434059 70.656622 
L 202.528809 70.656622 
z
" style="fill:#348abd;opacity:0.2;"/>
   </g>
   <g id="patch_40">
    <path clip-path="url(#p52d0e691f2)" d="M 204.910371 157.5 
L 206.815621 157.5 
L 206.815621 33.850848 
L 204.910371 33.850848 
z
" style="fill:#348abd;opacity:0.2;"/>
   </g>
   <g id="patch_41">
    <path clip-path="url(#p52d0e691f2)" d="M 207.291933 157.5 
L 209.197183 157.5 
L 209.197183 68.375273 
L 207.291933 68.375273 
z
" style="fill:#348abd;opacity:0.2;"/>
   </g>
   <g id="patch_42">
    <path clip-path="url(#p52d0e691f2)" d="M 209.673496 157.5 
L 211.578745 157.5 
L 211.578745 66.398103 
L 209.673496 66.398103 
z
" style="fill:#348abd;opacity:0.2;"/>
   </g>
   <g id="patch_43">
    <path clip-path="url(#p52d0e691f2)" d="M 212.055058 157.5 
L 213.960307 157.5 
L 213.960307 28.071429 
L 212.055058 28.071429 
z
" style="fill:#348abd;opacity:0.2;"/>
   </g>
   <g id="patch_44">
    <path clip-path="url(#p52d0e691f2)" d="M 214.43662 157.5 
L 216.341869 157.5 
L 216.341869 91.340859 
L 214.43662 91.340859 
z
" style="fill:#348abd;opacity:0.2;"/>
   </g>
   <g id="patch_45">
    <path clip-path="url(#p52d0e691f2)" d="M 216.818182 157.5 
L 218.723431 157.5 
L 218.723431 86.47398 
L 216.818182 86.47398 
z
" style="fill:#348abd;opacity:0.2;"/>
   </g>
   <g id="patch_46">
    <path clip-path="url(#p52d0e691f2)" d="M 219.199744 157.5 
L 221.104994 157.5 
L 221.104994 80.694561 
L 219.199744 80.694561 
z
" style="fill:#348abd;opacity:0.2;"/>
   </g>
   <g id="patch_47">
    <path clip-path="url(#p52d0e691f2)" d="M 221.581306 157.5 
L 223.486556 157.5 
L 223.486556 89.36369 
L 221.581306 89.36369 
z
" style="fill:#348abd;opacity:0.2;"/>
   </g>
   <g id="patch_48">
    <path clip-path="url(#p52d0e691f2)" d="M 223.962868 157.5 
L 225.868118 157.5 
L 225.868118 115.979436 
L 223.962868 115.979436 
z
" style="fill:#348abd;opacity:0.2;"/>
   </g>
   <g id="patch_49">
    <path clip-path="url(#p52d0e691f2)" d="M 226.34443 157.5 
L 228.24968 157.5 
L 228.24968 132.557244 
L 226.34443 132.557244 
z
" style="fill:#348abd;opacity:0.2;"/>
   </g>
   <g id="patch_50">
    <path clip-path="url(#p52d0e691f2)" d="M 228.725992 157.5 
L 230.631242 157.5 
L 230.631242 152.176851 
L 228.725992 152.176851 
z
" style="fill:#348abd;opacity:0.2;"/>
   </g>
   <g id="patch_51">
    <path clip-path="url(#p52d0e691f2)" d="M 231.107554 157.5 
L 233.012804 157.5 
L 233.012804 120.694225 
L 231.107554 120.694225 
z
" style="fill:#348abd;opacity:0.2;"/>
   </g>
   <g id="patch_52">
    <path clip-path="url(#p52d0e691f2)" d="M 233.489117 157.5 
L 235.394366 157.5 
L 235.394366 140.161742 
L 233.489117 140.161742 
z
" style="fill:#348abd;opacity:0.2;"/>
   </g>
   <g id="patch_53">
    <path clip-path="url(#p52d0e691f2)" d="M 235.870679 157.5 
L 237.775928 157.5 
L 237.775928 140.770102 
L 235.870679 140.770102 
z
" style="fill:#348abd;opacity:0.2;"/>
   </g>
   <g id="patch_54">
    <path clip-path="url(#p52d0e691f2)" d="M 238.252241 157.5 
L 240.15749 157.5 
L 240.15749 141.226372 
L 238.252241 141.226372 
z
" style="fill:#348abd;opacity:0.2;"/>
   </g>
   <g id="patch_55">
    <path clip-path="url(#p52d0e691f2)" d="M 240.633803 157.5 
L 242.539052 157.5 
L 242.539052 145.941162 
L 240.633803 145.941162 
z
" style="fill:#348abd;opacity:0.2;"/>
   </g>
   <g id="patch_56">
    <path clip-path="url(#p52d0e691f2)" d="M 243.015365 157.5 
L 244.920615 157.5 
L 244.920615 146.245342 
L 243.015365 146.245342 
z
" style="fill:#348abd;opacity:0.2;"/>
   </g>
   <g id="patch_57">
    <path clip-path="url(#p52d0e691f2)" d="M 245.396927 157.5 
L 247.302177 157.5 
L 247.302177 144.724442 
L 245.396927 144.724442 
z
" style="fill:#348abd;opacity:0.2;"/>
   </g>
   <g id="patch_58">
    <path clip-path="url(#p52d0e691f2)" d="M 247.778489 157.5 
L 249.683739 157.5 
L 249.683739 143.355632 
L 247.778489 143.355632 
z
" style="fill:#348abd;opacity:0.2;"/>
   </g>
   <g id="patch_59">
    <path clip-path="url(#p52d0e691f2)" d="M 250.160051 157.5 
L 252.065301 157.5 
L 252.065301 134.382323 
L 250.160051 134.382323 
z
" style="fill:#348abd;opacity:0.2;"/>
   </g>
   <g id="patch_60">
    <path clip-path="url(#p52d0e691f2)" d="M 252.541613 157.5 
L 254.446863 157.5 
L 254.446863 144.268172 
L 252.541613 144.268172 
z
" style="fill:#348abd;opacity:0.2;"/>
   </g>
   <g id="patch_61">
    <path clip-path="url(#p52d0e691f2)" d="M 254.923175 157.5 
L 256.828425 157.5 
L 256.828425 135.142773 
L 254.923175 135.142773 
z
" style="fill:#348abd;opacity:0.2;"/>
   </g>
   <g id="patch_62">
    <path clip-path="url(#p52d0e691f2)" d="M 257.304738 157.5 
L 259.209987 157.5 
L 259.209987 132.861424 
L 257.304738 132.861424 
z
" style="fill:#348abd;opacity:0.2;"/>
   </g>
   <g id="patch_63">
    <path clip-path="url(#p52d0e691f2)" d="M 259.6863 157.5 
L 261.591549 157.5 
L 261.591549 157.5 
L 259.6863 157.5 
z
" style="fill:#348abd;opacity:0.2;"/>
   </g>
   <g id="patch_64">
    <path clip-path="url(#p52d0e691f2)" d="M 262.067862 157.5 
L 263.973111 157.5 
L 263.973111 145.941162 
L 262.067862 145.941162 
z
" style="fill:#348abd;opacity:0.2;"/>
   </g>
   <g id="patch_65">
    <path clip-path="url(#p52d0e691f2)" d="M 264.449424 157.5 
L 266.354673 157.5 
L 266.354673 142.291002 
L 264.449424 142.291002 
z
" style="fill:#348abd;opacity:0.2;"/>
   </g>
   <g id="patch_66">
    <path clip-path="url(#p52d0e691f2)" d="M 266.830986 157.5 
L 268.736236 157.5 
L 268.736236 141.682642 
L 266.830986 141.682642 
z
" style="fill:#348abd;opacity:0.2;"/>
   </g>
   <g id="patch_67">
    <path clip-path="url(#p52d0e691f2)" d="M 269.212548 157.5 
L 271.117798 157.5 
L 271.117798 143.659812 
L 269.212548 143.659812 
z
" style="fill:#348abd;opacity:0.2;"/>
   </g>
   <g id="patch_68">
    <path clip-path="url(#p52d0e691f2)" d="M 271.59411 157.5 
L 273.49936 157.5 
L 273.49936 135.294863 
L 271.59411 135.294863 
z
" style="fill:#348abd;opacity:0.2;"/>
   </g>
   <g id="patch_69">
    <path clip-path="url(#p52d0e691f2)" d="M 273.975672 157.5 
L 275.880922 157.5 
L 275.880922 141.530552 
L 273.975672 141.530552 
z
" style="fill:#348abd;opacity:0.2;"/>
   </g>
   <g id="patch_70">
    <path clip-path="url(#p52d0e691f2)" d="M 276.357234 157.5 
L 278.262484 157.5 
L 278.262484 145.636982 
L 276.357234 145.636982 
z
" style="fill:#348abd;opacity:0.2;"/>
   </g>
   <g id="patch_71">
    <path clip-path="url(#p52d0e691f2)" d="M 278.738796 157.5 
L 280.644046 157.5 
L 280.644046 138.488753 
L 278.738796 138.488753 
z
" style="fill:#348abd;opacity:0.2;"/>
   </g>
   <g id="patch_72">
    <path clip-path="url(#p52d0e691f2)" d="M 281.120359 157.5 
L 283.025608 157.5 
L 283.025608 142.138912 
L 281.120359 142.138912 
z
" style="fill:#348abd;opacity:0.2;"/>
   </g>
   <g id="patch_73">
    <path clip-path="url(#p52d0e691f2)" d="M 283.501921 157.5 
L 285.40717 157.5 
L 285.40717 143.963992 
L 283.501921 143.963992 
z
" style="fill:#348abd;opacity:0.2;"/>
   </g>
   <g id="patch_74">
    <path clip-path="url(#p52d0e691f2)" d="M 285.883483 157.5 
L 287.788732 157.5 
L 287.788732 144.420262 
L 285.883483 144.420262 
z
" style="fill:#348abd;opacity:0.2;"/>
   </g>
   <g id="patch_75">
    <path clip-path="url(#p52d0e691f2)" d="M 288.265045 157.5 
L 290.170294 157.5 
L 290.170294 143.203542 
L 288.265045 143.203542 
z
" style="fill:#348abd;opacity:0.2;"/>
   </g>
   <g id="patch_76">
    <path clip-path="url(#p52d0e691f2)" d="M 290.646607 157.5 
L 292.551857 157.5 
L 292.551857 145.180712 
L 290.646607 145.180712 
z
" style="fill:#348abd;opacity:0.2;"/>
   </g>
   <g id="patch_77">
    <path clip-path="url(#p52d0e691f2)" d="M 293.028169 157.5 
L 294.933419 157.5 
L 294.933419 150.351771 
L 293.028169 150.351771 
z
" style="fill:#348abd;opacity:0.2;"/>
   </g>
   <g id="patch_78">
    <path clip-path="url(#p52d0e691f2)" d="M 295.409731 157.5 
L 297.314981 157.5 
L 297.314981 150.351771 
L 295.409731 150.351771 
z
" style="fill:#348abd;opacity:0.2;"/>
   </g>
   <g id="patch_79">
    <path clip-path="url(#p52d0e691f2)" d="M 297.791293 157.5 
L 299.696543 157.5 
L 299.696543 149.439231 
L 297.791293 149.439231 
z
" style="fill:#348abd;opacity:0.2;"/>
   </g>
   <g id="patch_80">
    <path clip-path="url(#p52d0e691f2)" d="M 300.172855 157.5 
L 302.078105 157.5 
L 302.078105 151.568491 
L 300.172855 151.568491 
z
" style="fill:#348abd;opacity:0.2;"/>
   </g>
   <g id="patch_81">
    <path clip-path="url(#p52d0e691f2)" d="M 302.554417 157.5 
L 304.459667 157.5 
L 304.459667 153.393571 
L 302.554417 153.393571 
z
" style="fill:#348abd;opacity:0.2;"/>
   </g>
   <g id="patch_82">
    <path clip-path="url(#p52d0e691f2)" d="M 304.93598 157.5 
L 306.841229 157.5 
L 306.841229 152.937301 
L 304.93598 152.937301 
z
" style="fill:#348abd;opacity:0.2;"/>
   </g>
   <g id="patch_83">
    <path clip-path="url(#p52d0e691f2)" d="M 307.317542 157.5 
L 309.222791 157.5 
L 309.222791 152.633121 
L 307.317542 152.633121 
z
" style="fill:#348abd;opacity:0.2;"/>
   </g>
   <g id="patch_84">
    <path clip-path="url(#p52d0e691f2)" d="M 309.699104 157.5 
L 311.604353 157.5 
L 311.604353 153.697751 
L 309.699104 153.697751 
z
" style="fill:#348abd;opacity:0.2;"/>
   </g>
   <g id="patch_85">
    <path clip-path="url(#p52d0e691f2)" d="M 312.080666 157.5 
L 313.985915 157.5 
L 313.985915 153.393571 
L 312.080666 153.393571 
z
" style="fill:#348abd;opacity:0.2;"/>
   </g>
   <g id="patch_86">
    <path clip-path="url(#p52d0e691f2)" d="M 314.462228 157.5 
L 316.367478 157.5 
L 316.367478 153.393571 
L 314.462228 153.393571 
z
" style="fill:#348abd;opacity:0.2;"/>
   </g>
   <g id="patch_87">
    <path clip-path="url(#p52d0e691f2)" d="M 316.84379 157.5 
L 318.74904 157.5 
L 318.74904 154.15402 
L 316.84379 154.15402 
z
" style="fill:#348abd;opacity:0.2;"/>
   </g>
   <g id="patch_88">
    <path clip-path="url(#p52d0e691f2)" d="M 319.225352 157.5 
L 321.130602 157.5 
L 321.130602 154.15402 
L 319.225352 154.15402 
z
" style="fill:#348abd;opacity:0.2;"/>
   </g>
   <g id="patch_89">
    <path clip-path="url(#p52d0e691f2)" d="M 321.606914 157.5 
L 323.512164 157.5 
L 323.512164 154.76238 
L 321.606914 154.76238 
z
" style="fill:#348abd;opacity:0.2;"/>
   </g>
   <g id="patch_90">
    <path clip-path="url(#p52d0e691f2)" d="M 323.988476 157.5 
L 325.893726 157.5 
L 325.893726 156.28328 
L 323.988476 156.28328 
z
" style="fill:#348abd;opacity:0.2;"/>
   </g>
   <g id="patch_91">
    <path clip-path="url(#p52d0e691f2)" d="M 326.370038 157.5 
L 328.275288 157.5 
L 328.275288 155.52283 
L 326.370038 155.52283 
z
" style="fill:#348abd;opacity:0.2;"/>
   </g>
   <g id="patch_92">
    <path clip-path="url(#p52d0e691f2)" d="M 328.751601 157.5 
L 330.65685 157.5 
L 330.65685 156.13119 
L 328.751601 156.13119 
z
" style="fill:#348abd;opacity:0.2;"/>
   </g>
   <g id="patch_93">
    <path clip-path="url(#p52d0e691f2)" d="M 331.133163 157.5 
L 333.038412 157.5 
L 333.038412 155.82701 
L 331.133163 155.82701 
z
" style="fill:#348abd;opacity:0.2;"/>
   </g>
   <g id="patch_94">
    <path clip-path="url(#p52d0e691f2)" d="M 333.514725 157.5 
L 335.419974 157.5 
L 335.419974 155.37074 
L 333.514725 155.37074 
z
" style="fill:#348abd;opacity:0.2;"/>
   </g>
   <g id="patch_95">
    <path clip-path="url(#p52d0e691f2)" d="M 335.896287 157.5 
L 337.801536 157.5 
L 337.801536 155.9791 
L 335.896287 155.9791 
z
" style="fill:#348abd;opacity:0.2;"/>
   </g>
   <g id="patch_96">
    <path clip-path="url(#p52d0e691f2)" d="M 338.277849 157.5 
L 340.183099 157.5 
L 340.183099 155.9791 
L 338.277849 155.9791 
z
" style="fill:#348abd;opacity:0.2;"/>
   </g>
   <g id="patch_97">
    <path clip-path="url(#p52d0e691f2)" d="M 340.659411 157.5 
L 342.564661 157.5 
L 342.564661 155.9791 
L 340.659411 155.9791 
z
" style="fill:#348abd;opacity:0.2;"/>
   </g>
   <g id="patch_98">
    <path clip-path="url(#p52d0e691f2)" d="M 343.040973 157.5 
L 344.946223 157.5 
L 344.946223 155.37074 
L 343.040973 155.37074 
z
" style="fill:#348abd;opacity:0.2;"/>
   </g>
   <g id="patch_99">
    <path clip-path="url(#p52d0e691f2)" d="M 345.422535 157.5 
L 347.327785 157.5 
L 347.327785 156.13119 
L 345.422535 156.13119 
z
" style="fill:#348abd;opacity:0.2;"/>
   </g>
   <g id="patch_100">
    <path clip-path="url(#p52d0e691f2)" d="M 347.804097 157.5 
L 349.709347 157.5 
L 349.709347 156.89164 
L 347.804097 156.89164 
z
" style="fill:#348abd;opacity:0.2;"/>
   </g>
   <g id="patch_101">
    <path clip-path="url(#p52d0e691f2)" d="M 350.185659 157.5 
L 352.090909 157.5 
L 352.090909 156.13119 
L 350.185659 156.13119 
z
" style="fill:#348abd;opacity:0.2;"/>
   </g>
   <g id="patch_102">
    <path clip-path="url(#p52d0e691f2)" d="M 352.567222 157.5 
L 354.472471 157.5 
L 354.472471 156.58746 
L 352.567222 156.58746 
z
" style="fill:#348abd;opacity:0.2;"/>
   </g>
   <g id="patch_103">
    <path clip-path="url(#p52d0e691f2)" d="M 354.948784 157.5 
L 356.854033 157.5 
L 356.854033 155.52283 
L 354.948784 155.52283 
z
" style="fill:#348abd;opacity:0.2;"/>
   </g>
   <g id="patch_104">
    <path clip-path="url(#p52d0e691f2)" d="M 357.330346 157.5 
L 359.235595 157.5 
L 359.235595 156.28328 
L 357.330346 156.28328 
z
" style="fill:#348abd;opacity:0.2;"/>
   </g>
   <g id="patch_105">
    <path clip-path="url(#p52d0e691f2)" d="M 359.711908 157.5 
L 361.617157 157.5 
L 361.617157 157.04373 
L 359.711908 157.04373 
z
" style="fill:#348abd;opacity:0.2;"/>
   </g>
   <g id="patch_106">
    <path clip-path="url(#p52d0e691f2)" d="M 362.09347 157.5 
L 363.99872 157.5 
L 363.99872 157.19582 
L 362.09347 157.19582 
z
" style="fill:#348abd;opacity:0.2;"/>
   </g>
   <g id="patch_107">
    <path clip-path="url(#p52d0e691f2)" d="M 364.475032 157.5 
L 366.380282 157.5 
L 366.380282 156.89164 
L 364.475032 156.89164 
z
" style="fill:#348abd;opacity:0.2;"/>
   </g>
   <g id="patch_108">
    <path clip-path="url(#p52d0e691f2)" d="M 366.856594 157.5 
L 368.761844 157.5 
L 368.761844 155.67492 
L 366.856594 155.67492 
z
" style="fill:#348abd;opacity:0.2;"/>
   </g>
   <g id="patch_109">
    <path clip-path="url(#p52d0e691f2)" d="M 369.238156 157.5 
L 371.143406 157.5 
L 371.143406 154.76238 
L 369.238156 154.76238 
z
" style="fill:#348abd;opacity:0.2;"/>
   </g>
   <g id="patch_110">
    <path clip-path="url(#p52d0e691f2)" d="M 371.619718 157.5 
L 373.524968 157.5 
L 373.524968 152.328941 
L 371.619718 152.328941 
z
" style="fill:#348abd;opacity:0.2;"/>
   </g>
   <g id="patch_111">
    <path clip-path="url(#p52d0e691f2)" d="M 374.00128 157.5 
L 375.90653 157.5 
L 375.90653 152.176851 
L 374.00128 152.176851 
z
" style="fill:#348abd;opacity:0.2;"/>
   </g>
   <g id="patch_112">
    <path clip-path="url(#p52d0e691f2)" d="M 376.382843 157.5 
L 378.288092 157.5 
L 378.288092 153.393571 
L 376.382843 153.393571 
z
" style="fill:#348abd;opacity:0.2;"/>
   </g>
   <g id="patch_113">
    <path clip-path="url(#p52d0e691f2)" d="M 378.764405 157.5 
L 380.669654 157.5 
L 380.669654 153.545661 
L 378.764405 153.545661 
z
" style="fill:#348abd;opacity:0.2;"/>
   </g>
   <g id="patch_114">
    <path clip-path="url(#p52d0e691f2)" d="M 381.145967 157.5 
L 383.051216 157.5 
L 383.051216 153.089391 
L 381.145967 153.089391 
z
" style="fill:#348abd;opacity:0.2;"/>
   </g>
   <g id="patch_115">
    <path clip-path="url(#p52d0e691f2)" d="M 383.527529 157.5 
L 385.432778 157.5 
L 385.432778 153.393571 
L 383.527529 153.393571 
z
" style="fill:#348abd;opacity:0.2;"/>
   </g>
   <g id="patch_116">
    <path clip-path="url(#p52d0e691f2)" d="M 385.909091 157.5 
L 387.814341 157.5 
L 387.814341 154.61029 
L 385.909091 154.61029 
z
" style="fill:#348abd;opacity:0.2;"/>
   </g>
   <g id="patch_117">
    <path clip-path="url(#p52d0e691f2)" d="M 388.290653 157.5 
L 390.195903 157.5 
L 390.195903 155.52283 
L 388.290653 155.52283 
z
" style="fill:#348abd;opacity:0.2;"/>
   </g>
   <g id="patch_118">
    <path clip-path="url(#p52d0e691f2)" d="M 390.672215 157.5 
L 392.577465 157.5 
L 392.577465 155.21865 
L 390.672215 155.21865 
z
" style="fill:#348abd;opacity:0.2;"/>
   </g>
   <g id="patch_119">
    <path clip-path="url(#p52d0e691f2)" d="M 393.053777 157.5 
L 394.959027 157.5 
L 394.959027 155.52283 
L 393.053777 155.52283 
z
" style="fill:#348abd;opacity:0.2;"/>
   </g>
   <g id="patch_120">
    <path clip-path="url(#p52d0e691f2)" d="M 395.435339 157.5 
L 397.340589 157.5 
L 397.340589 152.633121 
L 395.435339 152.633121 
z
" style="fill:#348abd;opacity:0.2;"/>
   </g>
   <g id="patch_121">
    <path clip-path="url(#p52d0e691f2)" d="M 397.816901 157.5 
L 399.722151 157.5 
L 399.722151 155.67492 
L 397.816901 155.67492 
z
" style="fill:#348abd;opacity:0.2;"/>
   </g>
   <g id="patch_122">
    <path clip-path="url(#p52d0e691f2)" d="M 400.198464 157.5 
L 402.103713 157.5 
L 402.103713 154.4582 
L 400.198464 154.4582 
z
" style="fill:#348abd;opacity:0.2;"/>
   </g>
   <g id="patch_123">
    <path clip-path="url(#p52d0e691f2)" d="M 402.580026 157.5 
L 404.485275 157.5 
L 404.485275 154.001931 
L 402.580026 154.001931 
z
" style="fill:#348abd;opacity:0.2;"/>
   </g>
   <g id="patch_124">
    <path clip-path="url(#p52d0e691f2)" d="M 404.961588 157.5 
L 406.866837 157.5 
L 406.866837 153.697751 
L 404.961588 153.697751 
z
" style="fill:#348abd;opacity:0.2;"/>
   </g>
   <g id="patch_125">
    <path clip-path="url(#p52d0e691f2)" d="M 407.34315 157.5 
L 409.248399 157.5 
L 409.248399 155.06656 
L 407.34315 155.06656 
z
" style="fill:#348abd;opacity:0.2;"/>
   </g>
   <g id="patch_126">
    <path clip-path="url(#p52d0e691f2)" d="M 409.724712 157.5 
L 411.629962 157.5 
L 411.629962 154.61029 
L 409.724712 154.61029 
z
" style="fill:#348abd;opacity:0.2;"/>
   </g>
   <g id="patch_127">
    <path clip-path="url(#p52d0e691f2)" d="M 412.106274 157.5 
L 414.011524 157.5 
L 414.011524 151.416401 
L 412.106274 151.416401 
z
" style="fill:#348abd;opacity:0.2;"/>
   </g>
   <g id="patch_128">
    <path clip-path="url(#p52d0e691f2)" d="M 414.487836 157.5 
L 416.393086 157.5 
L 416.393086 145.484892 
L 414.487836 145.484892 
z
" style="fill:#348abd;opacity:0.2;"/>
   </g>
   <g id="patch_129">
    <path clip-path="url(#p52d0e691f2)" d="M 416.869398 157.5 
L 418.774648 157.5 
L 418.774648 148.678781 
L 416.869398 148.678781 
z
" style="fill:#348abd;opacity:0.2;"/>
   </g>
   <g id="patch_130">
    <path clip-path="url(#p52d0e691f2)" d="M 419.25096 157.5 
L 421.15621 157.5 
L 421.15621 151.568491 
L 419.25096 151.568491 
z
" style="fill:#348abd;opacity:0.2;"/>
   </g>
   <g id="patch_131">
    <path clip-path="url(#p52d0e691f2)" d="M 421.632522 157.5 
L 423.537772 157.5 
L 423.537772 153.393571 
L 421.632522 153.393571 
z
" style="fill:#348abd;opacity:0.2;"/>
   </g>
   <g id="patch_132">
    <path clip-path="url(#p52d0e691f2)" d="M 424.014085 157.5 
L 425.919334 157.5 
L 425.919334 152.176851 
L 424.014085 152.176851 
z
" style="fill:#348abd;opacity:0.2;"/>
   </g>
   <g id="patch_133">
    <path clip-path="url(#p52d0e691f2)" d="M 426.395647 157.5 
L 428.300896 157.5 
L 428.300896 151.720581 
L 426.395647 151.720581 
z
" style="fill:#348abd;opacity:0.2;"/>
   </g>
   <g id="patch_134">
    <path clip-path="url(#p52d0e691f2)" d="M 428.777209 157.5 
L 430.682458 157.5 
L 430.682458 150.047591 
L 428.777209 150.047591 
z
" style="fill:#348abd;opacity:0.2;"/>
   </g>
   <g id="patch_135">
    <path clip-path="url(#p52d0e691f2)" d="M 431.158771 157.5 
L 433.06402 157.5 
L 433.06402 151.568491 
L 431.158771 151.568491 
z
" style="fill:#348abd;opacity:0.2;"/>
   </g>
   <g id="patch_136">
    <path clip-path="url(#p52d0e691f2)" d="M 433.540333 157.5 
L 435.445583 157.5 
L 435.445583 151.568491 
L 433.540333 151.568491 
z
" style="fill:#348abd;opacity:0.2;"/>
   </g>
   <g id="patch_137">
    <path clip-path="url(#p52d0e691f2)" d="M 435.921895 157.5 
L 437.827145 157.5 
L 437.827145 149.743411 
L 435.921895 149.743411 
z
" style="fill:#348abd;opacity:0.2;"/>
   </g>
   <g id="patch_138">
    <path clip-path="url(#p52d0e691f2)" d="M 438.303457 157.5 
L 440.208707 157.5 
L 440.208707 148.830871 
L 438.303457 148.830871 
z
" style="fill:#348abd;opacity:0.2;"/>
   </g>
   <g id="patch_139">
    <path clip-path="url(#p52d0e691f2)" d="M 440.685019 157.5 
L 442.590269 157.5 
L 442.590269 151.720581 
L 440.685019 151.720581 
z
" style="fill:#348abd;opacity:0.2;"/>
   </g>
   <g id="patch_140">
    <path clip-path="url(#p52d0e691f2)" d="M 443.066581 157.5 
L 444.971831 157.5 
L 444.971831 151.720581 
L 443.066581 151.720581 
z
" style="fill:#348abd;opacity:0.2;"/>
   </g>
   <g id="patch_141">
    <path clip-path="url(#p52d0e691f2)" d="M 445.448143 157.5 
L 447.353393 157.5 
L 447.353393 149.895501 
L 445.448143 149.895501 
z
" style="fill:#348abd;opacity:0.2;"/>
   </g>
   <g id="patch_142">
    <path clip-path="url(#p52d0e691f2)" d="M 447.829706 157.5 
L 449.734955 157.5 
L 449.734955 150.655951 
L 447.829706 150.655951 
z
" style="fill:#348abd;opacity:0.2;"/>
   </g>
   <g id="patch_143">
    <path clip-path="url(#p52d0e691f2)" d="M 450.211268 157.5 
L 452.116517 157.5 
L 452.116517 148.982961 
L 450.211268 148.982961 
z
" style="fill:#348abd;opacity:0.2;"/>
   </g>
   <g id="patch_144">
    <path clip-path="url(#p52d0e691f2)" d="M 452.59283 157.5 
L 454.498079 157.5 
L 454.498079 150.199681 
L 452.59283 150.199681 
z
" style="fill:#348abd;opacity:0.2;"/>
   </g>
   <g id="patch_145">
    <path clip-path="url(#p52d0e691f2)" d="M 454.974392 157.5 
L 456.879641 157.5 
L 456.879641 152.328941 
L 454.974392 152.328941 
z
" style="fill:#348abd;opacity:0.2;"/>
   </g>
   <g id="patch_146">
    <path clip-path="url(#p52d0e691f2)" d="M 457.355954 157.5 
L 459.261204 157.5 
L 459.261204 152.024761 
L 457.355954 152.024761 
z
" style="fill:#348abd;opacity:0.2;"/>
   </g>
   <g id="patch_147">
    <path clip-path="url(#p52d0e691f2)" d="M 459.737516 157.5 
L 461.642766 157.5 
L 461.642766 152.328941 
L 459.737516 152.328941 
z
" style="fill:#348abd;opacity:0.2;"/>
   </g>
   <g id="patch_148">
    <path clip-path="url(#p52d0e691f2)" d="M 462.119078 157.5 
L 464.024328 157.5 
L 464.024328 150.960131 
L 462.119078 150.960131 
z
" style="fill:#348abd;opacity:0.2;"/>
   </g>
   <g id="patch_149">
    <path clip-path="url(#p52d0e691f2)" d="M 464.50064 157.5 
L 466.40589 157.5 
L 466.40589 148.526691 
L 464.50064 148.526691 
z
" style="fill:#348abd;opacity:0.2;"/>
   </g>
   <g id="patch_150">
    <path clip-path="url(#p52d0e691f2)" d="M 466.882202 157.5 
L 468.787452 157.5 
L 468.787452 150.047591 
L 466.882202 150.047591 
z
" style="fill:#348abd;opacity:0.2;"/>
   </g>
   <g id="patch_151">
    <path clip-path="url(#p52d0e691f2)" d="M 469.263764 157.5 
L 471.169014 157.5 
L 471.169014 147.309971 
L 469.263764 147.309971 
z
" style="fill:#348abd;opacity:0.2;"/>
   </g>
   <g id="patch_152">
    <path clip-path="url(#p52d0e691f2)" d="M 471.645327 157.5 
L 473.550576 157.5 
L 473.550576 150.199681 
L 471.645327 150.199681 
z
" style="fill:#348abd;opacity:0.2;"/>
   </g>
   <g id="patch_153">
    <path clip-path="url(#p52d0e691f2)" d="M 474.026889 157.5 
L 475.932138 157.5 
L 475.932138 154.91447 
L 474.026889 154.91447 
z
" style="fill:#348abd;opacity:0.2;"/>
   </g>
   <g id="patch_154">
    <path clip-path="url(#p52d0e691f2)" d="M 476.408451 157.5 
L 478.3137 157.5 
L 478.3137 150.503861 
L 476.408451 150.503861 
z
" style="fill:#348abd;opacity:0.2;"/>
   </g>
   <g id="patch_155">
    <path clip-path="url(#p52d0e691f2)" d="M 478.790013 157.5 
L 480.695262 157.5 
L 480.695262 149.743411 
L 478.790013 149.743411 
z
" style="fill:#348abd;opacity:0.2;"/>
   </g>
   <g id="patch_156">
    <path clip-path="url(#p52d0e691f2)" d="M 481.171575 157.5 
L 483.076825 157.5 
L 483.076825 153.241481 
L 481.171575 153.241481 
z
" style="fill:#348abd;opacity:0.2;"/>
   </g>
   <g id="patch_157">
    <path clip-path="url(#p52d0e691f2)" d="M 483.553137 157.5 
L 485.458387 157.5 
L 485.458387 151.568491 
L 483.553137 151.568491 
z
" style="fill:#348abd;opacity:0.2;"/>
   </g>
   <g id="patch_158">
    <path clip-path="url(#p52d0e691f2)" d="M 485.934699 157.5 
L 487.839949 157.5 
L 487.839949 149.743411 
L 485.934699 149.743411 
z
" style="fill:#348abd;opacity:0.2;"/>
   </g>
   <g id="patch_159">
    <path clip-path="url(#p52d0e691f2)" d="M 488.316261 157.5 
L 490.221511 157.5 
L 490.221511 148.070421 
L 488.316261 148.070421 
z
" style="fill:#348abd;opacity:0.2;"/>
   </g>
   <g id="patch_160">
    <path clip-path="url(#p52d0e691f2)" d="M 490.697823 157.5 
L 492.603073 157.5 
L 492.603073 151.112221 
L 490.697823 151.112221 
z
" style="fill:#348abd;opacity:0.2;"/>
   </g>
   <g id="patch_161">
    <path clip-path="url(#p52d0e691f2)" d="M 493.079385 157.5 
L 494.984635 157.5 
L 494.984635 150.960131 
L 493.079385 150.960131 
z
" style="fill:#348abd;opacity:0.2;"/>
   </g>
   <g id="patch_162">
    <path clip-path="url(#p52d0e691f2)" d="M 495.460948 157.5 
L 497.366197 157.5 
L 497.366197 149.895501 
L 495.460948 149.895501 
z
" style="fill:#348abd;opacity:0.2;"/>
   </g>
   <g id="patch_163">
    <path clip-path="url(#p52d0e691f2)" d="M 497.84251 157.5 
L 499.747759 157.5 
L 499.747759 149.287141 
L 497.84251 149.287141 
z
" style="fill:#348abd;opacity:0.2;"/>
   </g>
   <g id="patch_164">
    <path clip-path="url(#p52d0e691f2)" d="M 500.224072 157.5 
L 502.129321 157.5 
L 502.129321 147.918331 
L 500.224072 147.918331 
z
" style="fill:#348abd;opacity:0.2;"/>
   </g>
   <g id="patch_165">
    <path clip-path="url(#p52d0e691f2)" d="M 502.605634 157.5 
L 504.510883 157.5 
L 504.510883 147.918331 
L 502.605634 147.918331 
z
" style="fill:#348abd;opacity:0.2;"/>
   </g>
   <g id="patch_166">
    <path clip-path="url(#p52d0e691f2)" d="M 504.987196 157.5 
L 506.892446 157.5 
L 506.892446 148.222511 
L 504.987196 148.222511 
z
" style="fill:#348abd;opacity:0.2;"/>
   </g>
   <g id="patch_167">
    <path clip-path="url(#p52d0e691f2)" d="M 507.368758 157.5 
L 509.274008 157.5 
L 509.274008 150.503861 
L 507.368758 150.503861 
z
" style="fill:#348abd;opacity:0.2;"/>
   </g>
   <g id="patch_168">
    <path clip-path="url(#p52d0e691f2)" d="M 509.75032 157.5 
L 511.65557 157.5 
L 511.65557 150.808041 
L 509.75032 150.808041 
z
" style="fill:#348abd;opacity:0.2;"/>
   </g>
   <g id="patch_169">
    <path clip-path="url(#p52d0e691f2)" d="M 512.131882 157.5 
L 514.037132 157.5 
L 514.037132 147.918331 
L 512.131882 147.918331 
z
" style="fill:#348abd;opacity:0.2;"/>
   </g>
   <g id="patch_170">
    <path clip-path="url(#p52d0e691f2)" d="M 514.513444 157.5 
L 516.418694 157.5 
L 516.418694 150.047591 
L 514.513444 150.047591 
z
" style="fill:#348abd;opacity:0.2;"/>
   </g>
   <g id="patch_171">
    <path clip-path="url(#p52d0e691f2)" d="M 516.895006 157.5 
L 518.800256 157.5 
L 518.800256 150.655951 
L 516.895006 150.655951 
z
" style="fill:#348abd;opacity:0.2;"/>
   </g>
   <g id="patch_172">
    <path clip-path="url(#p52d0e691f2)" d="M 519.276569 157.5 
L 521.181818 157.5 
L 521.181818 152.176851 
L 519.276569 152.176851 
z
" style="fill:#348abd;opacity:0.2;"/>
   </g>
   <g id="patch_173">
    <path clip-path="url(#p52d0e691f2)" d="M 521.658131 157.5 
L 523.56338 157.5 
L 523.56338 150.808041 
L 521.658131 150.808041 
z
" style="fill:#348abd;opacity:0.2;"/>
   </g>
   <g id="patch_174">
    <path clip-path="url(#p52d0e691f2)" d="M 524.039693 157.5 
L 525.944942 157.5 
L 525.944942 148.070421 
L 524.039693 148.070421 
z
" style="fill:#348abd;opacity:0.2;"/>
   </g>
   <g id="patch_175">
    <path clip-path="url(#p52d0e691f2)" d="M 526.421255 157.5 
L 528.326504 157.5 
L 528.326504 152.481031 
L 526.421255 152.481031 
z
" style="fill:#348abd;opacity:0.2;"/>
   </g>
   <g id="patch_176">
    <path clip-path="url(#p52d0e691f2)" d="M 528.802817 157.5 
L 530.708067 157.5 
L 530.708067 151.568491 
L 528.802817 151.568491 
z
" style="fill:#348abd;opacity:0.2;"/>
   </g>
   <g id="patch_177">
    <path clip-path="url(#p52d0e691f2)" d="M 531.184379 157.5 
L 533.089629 157.5 
L 533.089629 148.222511 
L 531.184379 148.222511 
z
" style="fill:#348abd;opacity:0.2;"/>
   </g>
   <g id="patch_178">
    <path clip-path="url(#p52d0e691f2)" d="M 533.565941 157.5 
L 535.471191 157.5 
L 535.471191 148.374601 
L 533.565941 148.374601 
z
" style="fill:#348abd;opacity:0.2;"/>
   </g>
   <g id="patch_179">
    <path clip-path="url(#p52d0e691f2)" d="M 535.947503 157.5 
L 537.852753 157.5 
L 537.852753 151.568491 
L 535.947503 151.568491 
z
" style="fill:#348abd;opacity:0.2;"/>
   </g>
   <g id="patch_180">
    <path clip-path="url(#p52d0e691f2)" d="M 538.329065 157.5 
L 540.234315 157.5 
L 540.234315 152.328941 
L 538.329065 152.328941 
z
" style="fill:#348abd;opacity:0.2;"/>
   </g>
   <g id="patch_181">
    <path clip-path="url(#p52d0e691f2)" d="M 540.710627 157.5 
L 542.615877 157.5 
L 542.615877 153.545661 
L 540.710627 153.545661 
z
" style="fill:#348abd;opacity:0.2;"/>
   </g>
   <g id="patch_182">
    <path clip-path="url(#p52d0e691f2)" d="M 543.09219 157.5 
L 544.997439 157.5 
L 544.997439 150.655951 
L 543.09219 150.655951 
z
" style="fill:#348abd;opacity:0.2;"/>
   </g>
   <g id="patch_183">
    <path clip-path="url(#p52d0e691f2)" d="M 545.473752 157.5 
L 547.379001 157.5 
L 547.379001 147.918331 
L 545.473752 147.918331 
z
" style="fill:#348abd;opacity:0.2;"/>
   </g>
   <g id="patch_184">
    <path clip-path="url(#p52d0e691f2)" d="M 547.855314 157.5 
L 549.760563 157.5 
L 549.760563 148.526691 
L 547.855314 148.526691 
z
" style="fill:#348abd;opacity:0.2;"/>
   </g>
   <g id="patch_185">
    <path clip-path="url(#p52d0e691f2)" d="M 550.236876 157.5 
L 552.142125 157.5 
L 552.142125 151.264311 
L 550.236876 151.264311 
z
" style="fill:#348abd;opacity:0.2;"/>
   </g>
   <g id="patch_186">
    <path clip-path="url(#p52d0e691f2)" d="M 552.618438 157.5 
L 554.523688 157.5 
L 554.523688 140.313832 
L 552.618438 140.313832 
z
" style="fill:#348abd;opacity:0.2;"/>
   </g>
   <g id="patch_187">
    <path clip-path="url(#p52d0e691f2)" d="M 555 157.5 
L 556.90525 157.5 
L 556.90525 148.678781 
L 555 148.678781 
z
" style="fill:#348abd;opacity:0.2;"/>
   </g>
   <g id="patch_188">
    <path clip-path="url(#p52d0e691f2)" d="M 557.381562 157.5 
L 559.286812 157.5 
L 559.286812 153.697751 
L 557.381562 153.697751 
z
" style="fill:#348abd;opacity:0.2;"/>
   </g>
   <g id="patch_189">
    <path clip-path="url(#p52d0e691f2)" d="M 559.763124 157.5 
L 561.668374 157.5 
L 561.668374 153.241481 
L 559.763124 153.241481 
z
" style="fill:#348abd;opacity:0.2;"/>
   </g>
   <g id="patch_190">
    <path clip-path="url(#p52d0e691f2)" d="M 562.144686 157.5 
L 564.049936 157.5 
L 564.049936 150.199681 
L 562.144686 150.199681 
z
" style="fill:#348abd;opacity:0.2;"/>
   </g>
   <g id="patch_191">
    <path clip-path="url(#p52d0e691f2)" d="M 564.526248 157.5 
L 566.431498 157.5 
L 566.431498 154.76238 
L 564.526248 154.76238 
z
" style="fill:#348abd;opacity:0.2;"/>
   </g>
   <g id="patch_192">
    <path clip-path="url(#p52d0e691f2)" d="M 566.90781 157.5 
L 568.81306 157.5 
L 568.81306 152.024761 
L 566.90781 152.024761 
z
" style="fill:#348abd;opacity:0.2;"/>
   </g>
   <g id="patch_193">
    <path clip-path="url(#p52d0e691f2)" d="M 569.289373 157.5 
L 571.194622 157.5 
L 571.194622 152.785211 
L 569.289373 152.785211 
z
" style="fill:#348abd;opacity:0.2;"/>
   </g>
   <g id="patch_194">
    <path clip-path="url(#p52d0e691f2)" d="M 571.670935 157.5 
L 573.576184 157.5 
L 573.576184 152.937301 
L 571.670935 152.937301 
z
" style="fill:#348abd;opacity:0.2;"/>
   </g>
   <g id="patch_195">
    <path clip-path="url(#p52d0e691f2)" d="M 574.052497 157.5 
L 575.957746 157.5 
L 575.957746 154.001931 
L 574.052497 154.001931 
z
" style="fill:#348abd;opacity:0.2;"/>
   </g>
   <g id="patch_196">
    <path clip-path="url(#p52d0e691f2)" d="M 576.434059 157.5 
L 578.339309 157.5 
L 578.339309 152.328941 
L 576.434059 152.328941 
z
" style="fill:#348abd;opacity:0.2;"/>
   </g>
   <g id="patch_197">
    <path clip-path="url(#p52d0e691f2)" d="M 578.815621 157.5 
L 580.720871 157.5 
L 580.720871 152.481031 
L 578.815621 152.481031 
z
" style="fill:#348abd;opacity:0.2;"/>
   </g>
   <g id="patch_198">
    <path clip-path="url(#p52d0e691f2)" d="M 581.197183 157.5 
L 583.102433 157.5 
L 583.102433 150.960131 
L 581.197183 150.960131 
z
" style="fill:#348abd;opacity:0.2;"/>
   </g>
   <g id="patch_199">
    <path clip-path="url(#p52d0e691f2)" d="M 583.578745 157.5 
L 585.483995 157.5 
L 585.483995 154.4582 
L 583.578745 154.4582 
z
" style="fill:#348abd;opacity:0.2;"/>
   </g>
   <g id="patch_200">
    <path clip-path="url(#p52d0e691f2)" d="M 585.960307 157.5 
L 587.865557 157.5 
L 587.865557 150.960131 
L 585.960307 150.960131 
z
" style="fill:#348abd;opacity:0.2;"/>
   </g>
   <g id="patch_201">
    <path clip-path="url(#p52d0e691f2)" d="M 588.341869 157.5 
L 590.247119 157.5 
L 590.247119 152.024761 
L 588.341869 152.024761 
z
" style="fill:#348abd;opacity:0.2;"/>
   </g>
   <g id="patch_202">
    <path clip-path="url(#p52d0e691f2)" d="M 590.723431 157.5 
L 592.628681 157.5 
L 592.628681 153.241481 
L 590.723431 153.241481 
z
" style="fill:#348abd;opacity:0.2;"/>
   </g>
   <g id="patch_203">
    <path clip-path="url(#p52d0e691f2)" d="M 593.104994 157.5 
L 595.010243 157.5 
L 595.010243 152.328941 
L 593.104994 152.328941 
z
" style="fill:#348abd;opacity:0.2;"/>
   </g>
   <g id="patch_204">
    <path clip-path="url(#p52d0e691f2)" d="M 595.486556 157.5 
L 597.391805 157.5 
L 597.391805 149.287141 
L 595.486556 149.287141 
z
" style="fill:#348abd;opacity:0.2;"/>
   </g>
   <g id="patch_205">
    <path clip-path="url(#p52d0e691f2)" d="M 597.868118 157.5 
L 599.773367 157.5 
L 599.773367 148.982961 
L 597.868118 148.982961 
z
" style="fill:#348abd;opacity:0.2;"/>
   </g>
   <g id="patch_206">
    <path clip-path="url(#p52d0e691f2)" d="M 600.24968 157.5 
L 602.15493 157.5 
L 602.15493 141.834732 
L 600.24968 141.834732 
z
" style="fill:#348abd;opacity:0.2;"/>
   </g>
   <g id="patch_207">
    <path clip-path="url(#p52d0e691f2)" d="M 602.631242 157.5 
L 604.536492 157.5 
L 604.536492 132.253064 
L 602.631242 132.253064 
z
" style="fill:#348abd;opacity:0.2;"/>
   </g>
   <g id="patch_208">
    <path clip-path="url(#p52d0e691f2)" d="M 605.012804 157.5 
L 606.918054 157.5 
L 606.918054 115.066896 
L 605.012804 115.066896 
z
" style="fill:#348abd;opacity:0.2;"/>
   </g>
   <g id="patch_209">
    <path clip-path="url(#p52d0e691f2)" d="M 607.394366 157.5 
L 609.299616 157.5 
L 609.299616 127.538274 
L 607.394366 127.538274 
z
" style="fill:#348abd;opacity:0.2;"/>
   </g>
   <g id="patch_210">
    <path clip-path="url(#p52d0e691f2)" d="M 609.775928 157.5 
L 611.681178 157.5 
L 611.681178 120.085865 
L 609.775928 120.085865 
z
" style="fill:#348abd;opacity:0.2;"/>
   </g>
   <g id="patch_211">
    <path clip-path="url(#p52d0e691f2)" d="M 612.15749 157.5 
L 614.06274 157.5 
L 614.06274 112.329276 
L 612.15749 112.329276 
z
" style="fill:#348abd;opacity:0.2;"/>
   </g>
   <g id="patch_212">
    <path clip-path="url(#p52d0e691f2)" d="M 614.539052 157.5 
L 616.444302 157.5 
L 616.444302 113.698086 
L 614.539052 113.698086 
z
" style="fill:#348abd;opacity:0.2;"/>
   </g>
   <g id="patch_213">
    <path clip-path="url(#p52d0e691f2)" d="M 616.920615 157.5 
L 618.825864 157.5 
L 618.825864 108.222847 
L 616.920615 108.222847 
z
" style="fill:#348abd;opacity:0.2;"/>
   </g>
   <g id="patch_214">
    <path clip-path="url(#p52d0e691f2)" d="M 619.302177 157.5 
L 621.207426 157.5 
L 621.207426 107.006127 
L 619.302177 107.006127 
z
" style="fill:#348abd;opacity:0.2;"/>
   </g>
   <g id="patch_215">
    <path clip-path="url(#p52d0e691f2)" d="M 621.683739 157.5 
L 623.588988 157.5 
L 623.588988 97.120279 
L 621.683739 97.120279 
z
" style="fill:#348abd;opacity:0.2;"/>
   </g>
   <g id="line2d_32">
    <path clip-path="url(#p52d0e691f2)" d="M 117.745198 157.421369 
L 129.653009 157.359726 
L 143.942382 157.185659 
L 160.613316 157.336843 
L 170.139565 157.423917 
L 172.521127 157.276025 
L 174.902689 156.800635 
L 177.284251 155.591805 
L 179.665813 153.505335 
L 182.047375 150.472901 
L 184.428937 146.760383 
L 186.810499 142.588503 
L 189.192061 137.631279 
L 191.573624 131.705469 
L 193.955186 124.099967 
L 196.336748 115.079513 
L 198.71831 105.269355 
L 201.099872 94.63871 
L 203.481434 84.677838 
L 205.862996 75.992014 
L 208.244558 69.559052 
L 210.62612 66.69531 
L 213.007682 67.166161 
L 215.389245 71.290572 
L 217.770807 78.304356 
L 220.152369 86.981495 
L 224.915493 106.312511 
L 227.297055 115.098599 
L 229.678617 123.012212 
L 232.060179 129.40564 
L 234.441741 134.567936 
L 236.823303 138.250956 
L 239.204866 140.316567 
L 241.586428 141.522824 
L 243.96799 142.083911 
L 248.731114 142.059005 
L 251.112676 141.706161 
L 253.494238 141.53635 
L 255.8758 141.665777 
L 258.257362 141.91562 
L 263.020487 142.609289 
L 265.402049 142.823832 
L 267.783611 142.833682 
L 277.309859 141.613496 
L 279.691421 141.842112 
L 282.072983 142.355954 
L 284.454545 143.064308 
L 286.836108 143.919414 
L 291.599232 146.081981 
L 298.743918 149.649825 
L 301.12548 150.673326 
L 303.507042 151.514781 
L 305.888604 152.17427 
L 310.651729 153.049949 
L 324.941101 155.030866 
L 329.704225 155.527774 
L 334.46735 155.771084 
L 360.664533 156.362921 
L 363.046095 156.164335 
L 367.809219 155.403348 
L 374.953905 153.941073 
L 377.335467 153.63785 
L 379.717029 153.529817 
L 382.098592 153.629439 
L 394.006402 154.597355 
L 398.769526 154.579125 
L 401.151088 154.472387 
L 403.53265 154.213236 
L 405.914213 153.794819 
L 415.440461 151.50865 
L 417.822023 151.177379 
L 420.203585 150.986144 
L 422.585147 150.950249 
L 429.729834 151.221008 
L 434.492958 150.968196 
L 441.637644 150.569559 
L 446.400768 150.498615 
L 458.308579 150.866799 
L 470.216389 150.426933 
L 472.597951 150.494239 
L 479.742638 150.990706 
L 482.1242 151.018183 
L 486.887324 150.726191 
L 494.03201 149.909422 
L 498.795134 149.416252 
L 503.558259 149.190412 
L 508.321383 149.229819 
L 513.084507 149.692743 
L 517.847631 150.20283 
L 522.610755 150.440181 
L 532.137004 150.499803 
L 536.900128 150.665571 
L 539.28169 150.676561 
L 541.663252 150.508788 
L 546.426376 149.786514 
L 548.807939 149.384138 
L 551.189501 149.128884 
L 553.571063 149.127531 
L 555.952625 149.411047 
L 558.334187 149.939484 
L 565.478873 152.021381 
L 567.860435 152.490032 
L 570.241997 152.747941 
L 575.005122 152.765388 
L 584.53137 152.418078 
L 586.912932 152.244402 
L 589.294494 151.885109 
L 591.676056 151.138756 
L 594.057618 149.608409 
L 596.439181 147.223895 
L 598.820743 143.967333 
L 601.202305 139.92614 
L 603.583867 135.481234 
L 608.346991 126.001434 
L 610.728553 121.497096 
L 613.110115 117.509984 
L 615.491677 114.272857 
L 617.873239 111.59493 
L 620.254802 109.414171 
L 622.636364 108.222499 
L 622.636364 108.222499 
" style="fill:none;stroke:#348abd;stroke-linecap:square;stroke-width:3;"/>
   </g>
   <g id="patch_216">
    <path d="M 90 157.5 
L 90 21.6 
" style="fill:none;stroke:#ffffff;stroke-linecap:square;stroke-linejoin:miter;"/>
   </g>
   <g id="patch_217">
    <path d="M 648 157.5 
L 648 21.6 
" style="fill:none;stroke:#ffffff;stroke-linecap:square;stroke-linejoin:miter;"/>
   </g>
   <g id="patch_218">
    <path d="M 90 157.5 
L 648 157.5 
" style="fill:none;stroke:#ffffff;stroke-linecap:square;stroke-linejoin:miter;"/>
   </g>
   <g id="patch_219">
    <path d="M 90 21.6 
L 648 21.6 
" style="fill:none;stroke:#ffffff;stroke-linecap:square;stroke-linejoin:miter;"/>
   </g>
   <g id="legend_1">
    <g id="patch_220">
     <path d="M 416.470312 58.95625 
L 641 58.95625 
Q 643 58.95625 643 56.95625 
L 643 28.6 
Q 643 26.6 641 26.6 
L 416.470312 26.6 
Q 414.470312 26.6 414.470312 28.6 
L 414.470312 56.95625 
Q 414.470312 58.95625 416.470312 58.95625 
z
" style="fill:#e5e5e5;opacity:0.8;stroke:#cccccc;stroke-linejoin:miter;stroke-width:0.5;"/>
    </g>
    <g id="line2d_33">
     <path d="M 418.470312 34.698438 
L 438.470312 34.698438 
" style="fill:none;stroke:#348abd;stroke-linecap:square;stroke-width:3;"/>
    </g>
    <g id="line2d_34"/>
    <g id="text_20">
     <!-- Korea, South new cases (rolling mean) -->
     <defs>
      <path d="M 9.8125 72.90625 
L 19.671875 72.90625 
L 19.671875 42.09375 
L 52.390625 72.90625 
L 65.09375 72.90625 
L 28.90625 38.921875 
L 67.671875 0 
L 54.6875 0 
L 19.671875 35.109375 
L 19.671875 0 
L 9.8125 0 
z
" id="DejaVuSans-75"/>
      <path d="M 30.609375 48.390625 
Q 23.390625 48.390625 19.1875 42.75 
Q 14.984375 37.109375 14.984375 27.296875 
Q 14.984375 17.484375 19.15625 11.84375 
Q 23.34375 6.203125 30.609375 6.203125 
Q 37.796875 6.203125 41.984375 11.859375 
Q 46.1875 17.53125 46.1875 27.296875 
Q 46.1875 37.015625 41.984375 42.703125 
Q 37.796875 48.390625 30.609375 48.390625 
z
M 30.609375 56 
Q 42.328125 56 49.015625 48.375 
Q 55.71875 40.765625 55.71875 27.296875 
Q 55.71875 13.875 49.015625 6.21875 
Q 42.328125 -1.421875 30.609375 -1.421875 
Q 18.84375 -1.421875 12.171875 6.21875 
Q 5.515625 13.875 5.515625 27.296875 
Q 5.515625 40.765625 12.171875 48.375 
Q 18.84375 56 30.609375 56 
z
" id="DejaVuSans-111"/>
      <path d="M 41.109375 46.296875 
Q 39.59375 47.171875 37.8125 47.578125 
Q 36.03125 48 33.890625 48 
Q 26.265625 48 22.1875 43.046875 
Q 18.109375 38.09375 18.109375 28.8125 
L 18.109375 0 
L 9.078125 0 
L 9.078125 54.6875 
L 18.109375 54.6875 
L 18.109375 46.1875 
Q 20.953125 51.171875 25.484375 53.578125 
Q 30.03125 56 36.53125 56 
Q 37.453125 56 38.578125 55.875 
Q 39.703125 55.765625 41.0625 55.515625 
z
" id="DejaVuSans-114"/>
      <path d="M 11.71875 12.40625 
L 22.015625 12.40625 
L 22.015625 4 
L 14.015625 -11.625 
L 7.71875 -11.625 
L 11.71875 4 
z
" id="DejaVuSans-44"/>
      <path d="M 53.515625 70.515625 
L 53.515625 60.890625 
Q 47.90625 63.578125 42.921875 64.890625 
Q 37.9375 66.21875 33.296875 66.21875 
Q 25.25 66.21875 20.875 63.09375 
Q 16.5 59.96875 16.5 54.203125 
Q 16.5 49.359375 19.40625 46.890625 
Q 22.3125 44.4375 30.421875 42.921875 
L 36.375 41.703125 
Q 47.40625 39.59375 52.65625 34.296875 
Q 57.90625 29 57.90625 20.125 
Q 57.90625 9.515625 50.796875 4.046875 
Q 43.703125 -1.421875 29.984375 -1.421875 
Q 24.8125 -1.421875 18.96875 -0.25 
Q 13.140625 0.921875 6.890625 3.21875 
L 6.890625 13.375 
Q 12.890625 10.015625 18.65625 8.296875 
Q 24.421875 6.59375 29.984375 6.59375 
Q 38.421875 6.59375 43.015625 9.90625 
Q 47.609375 13.234375 47.609375 19.390625 
Q 47.609375 24.75 44.3125 27.78125 
Q 41.015625 30.8125 33.5 32.328125 
L 27.484375 33.5 
Q 16.453125 35.6875 11.515625 40.375 
Q 6.59375 45.0625 6.59375 53.421875 
Q 6.59375 63.09375 13.40625 68.65625 
Q 20.21875 74.21875 32.171875 74.21875 
Q 37.3125 74.21875 42.625 73.28125 
Q 47.953125 72.359375 53.515625 70.515625 
z
" id="DejaVuSans-83"/>
      <path d="M 8.5 21.578125 
L 8.5 54.6875 
L 17.484375 54.6875 
L 17.484375 21.921875 
Q 17.484375 14.15625 20.5 10.265625 
Q 23.53125 6.390625 29.59375 6.390625 
Q 36.859375 6.390625 41.078125 11.03125 
Q 45.3125 15.671875 45.3125 23.6875 
L 45.3125 54.6875 
L 54.296875 54.6875 
L 54.296875 0 
L 45.3125 0 
L 45.3125 8.40625 
Q 42.046875 3.421875 37.71875 1 
Q 33.40625 -1.421875 27.6875 -1.421875 
Q 18.265625 -1.421875 13.375 4.4375 
Q 8.5 10.296875 8.5 21.578125 
z
M 31.109375 56 
z
" id="DejaVuSans-117"/>
      <path d="M 18.3125 70.21875 
L 18.3125 54.6875 
L 36.8125 54.6875 
L 36.8125 47.703125 
L 18.3125 47.703125 
L 18.3125 18.015625 
Q 18.3125 11.328125 20.140625 9.421875 
Q 21.96875 7.515625 27.59375 7.515625 
L 36.8125 7.515625 
L 36.8125 0 
L 27.59375 0 
Q 17.1875 0 13.234375 3.875 
Q 9.28125 7.765625 9.28125 18.015625 
L 9.28125 47.703125 
L 2.6875 47.703125 
L 2.6875 54.6875 
L 9.28125 54.6875 
L 9.28125 70.21875 
z
" id="DejaVuSans-116"/>
      <path d="M 4.203125 54.6875 
L 13.1875 54.6875 
L 24.421875 12.015625 
L 35.59375 54.6875 
L 46.1875 54.6875 
L 57.421875 12.015625 
L 68.609375 54.6875 
L 77.59375 54.6875 
L 63.28125 0 
L 52.6875 0 
L 40.921875 44.828125 
L 29.109375 0 
L 18.5 0 
z
" id="DejaVuSans-119"/>
      <path d="M 44.28125 53.078125 
L 44.28125 44.578125 
Q 40.484375 46.53125 36.375 47.5 
Q 32.28125 48.484375 27.875 48.484375 
Q 21.1875 48.484375 17.84375 46.4375 
Q 14.5 44.390625 14.5 40.28125 
Q 14.5 37.15625 16.890625 35.375 
Q 19.28125 33.59375 26.515625 31.984375 
L 29.59375 31.296875 
Q 39.15625 29.25 43.1875 25.515625 
Q 47.21875 21.78125 47.21875 15.09375 
Q 47.21875 7.46875 41.1875 3.015625 
Q 35.15625 -1.421875 24.609375 -1.421875 
Q 20.21875 -1.421875 15.453125 -0.5625 
Q 10.6875 0.296875 5.421875 2 
L 5.421875 11.28125 
Q 10.40625 8.6875 15.234375 7.390625 
Q 20.0625 6.109375 24.8125 6.109375 
Q 31.15625 6.109375 34.5625 8.28125 
Q 37.984375 10.453125 37.984375 14.40625 
Q 37.984375 18.0625 35.515625 20.015625 
Q 33.0625 21.96875 24.703125 23.78125 
L 21.578125 24.515625 
Q 13.234375 26.265625 9.515625 29.90625 
Q 5.8125 33.546875 5.8125 39.890625 
Q 5.8125 47.609375 11.28125 51.796875 
Q 16.75 56 26.8125 56 
Q 31.78125 56 36.171875 55.265625 
Q 40.578125 54.546875 44.28125 53.078125 
z
" id="DejaVuSans-115"/>
      <path d="M 31 75.875 
Q 24.46875 64.65625 21.28125 53.65625 
Q 18.109375 42.671875 18.109375 31.390625 
Q 18.109375 20.125 21.3125 9.0625 
Q 24.515625 -2 31 -13.1875 
L 23.1875 -13.1875 
Q 15.875 -1.703125 12.234375 9.375 
Q 8.59375 20.453125 8.59375 31.390625 
Q 8.59375 42.28125 12.203125 53.3125 
Q 15.828125 64.359375 23.1875 75.875 
z
" id="DejaVuSans-40"/>
      <path d="M 52 44.1875 
Q 55.375 50.25 60.0625 53.125 
Q 64.75 56 71.09375 56 
Q 79.640625 56 84.28125 50.015625 
Q 88.921875 44.046875 88.921875 33.015625 
L 88.921875 0 
L 79.890625 0 
L 79.890625 32.71875 
Q 79.890625 40.578125 77.09375 44.375 
Q 74.3125 48.1875 68.609375 48.1875 
Q 61.625 48.1875 57.5625 43.546875 
Q 53.515625 38.921875 53.515625 30.90625 
L 53.515625 0 
L 44.484375 0 
L 44.484375 32.71875 
Q 44.484375 40.625 41.703125 44.40625 
Q 38.921875 48.1875 33.109375 48.1875 
Q 26.21875 48.1875 22.15625 43.53125 
Q 18.109375 38.875 18.109375 30.90625 
L 18.109375 0 
L 9.078125 0 
L 9.078125 54.6875 
L 18.109375 54.6875 
L 18.109375 46.1875 
Q 21.1875 51.21875 25.484375 53.609375 
Q 29.78125 56 35.6875 56 
Q 41.65625 56 45.828125 52.96875 
Q 50 49.953125 52 44.1875 
z
" id="DejaVuSans-109"/>
      <path d="M 8.015625 75.875 
L 15.828125 75.875 
Q 23.140625 64.359375 26.78125 53.3125 
Q 30.421875 42.28125 30.421875 31.390625 
Q 30.421875 20.453125 26.78125 9.375 
Q 23.140625 -1.703125 15.828125 -13.1875 
L 8.015625 -13.1875 
Q 14.5 -2 17.703125 9.0625 
Q 20.90625 20.125 20.90625 31.390625 
Q 20.90625 42.671875 17.703125 53.65625 
Q 14.5 64.65625 8.015625 75.875 
z
" id="DejaVuSans-41"/>
     </defs>
     <g transform="translate(446.470312 38.198438)scale(0.1 -0.1)">
      <use xlink:href="#DejaVuSans-75"/>
      <use x="60.576172" xlink:href="#DejaVuSans-111"/>
      <use x="121.757812" xlink:href="#DejaVuSans-114"/>
      <use x="160.621094" xlink:href="#DejaVuSans-101"/>
      <use x="222.144531" xlink:href="#DejaVuSans-97"/>
      <use x="283.423828" xlink:href="#DejaVuSans-44"/>
      <use x="315.210938" xlink:href="#DejaVuSans-32"/>
      <use x="346.998047" xlink:href="#DejaVuSans-83"/>
      <use x="410.474609" xlink:href="#DejaVuSans-111"/>
      <use x="471.65625" xlink:href="#DejaVuSans-117"/>
      <use x="535.035156" xlink:href="#DejaVuSans-116"/>
      <use x="574.244141" xlink:href="#DejaVuSans-104"/>
      <use x="637.623047" xlink:href="#DejaVuSans-32"/>
      <use x="669.410156" xlink:href="#DejaVuSans-110"/>
      <use x="732.789062" xlink:href="#DejaVuSans-101"/>
      <use x="794.3125" xlink:href="#DejaVuSans-119"/>
      <use x="876.099609" xlink:href="#DejaVuSans-32"/>
      <use x="907.886719" xlink:href="#DejaVuSans-99"/>
      <use x="962.867188" xlink:href="#DejaVuSans-97"/>
      <use x="1024.146484" xlink:href="#DejaVuSans-115"/>
      <use x="1076.246094" xlink:href="#DejaVuSans-101"/>
      <use x="1137.769531" xlink:href="#DejaVuSans-115"/>
      <use x="1189.869141" xlink:href="#DejaVuSans-32"/>
      <use x="1221.65625" xlink:href="#DejaVuSans-40"/>
      <use x="1260.669922" xlink:href="#DejaVuSans-114"/>
      <use x="1299.533203" xlink:href="#DejaVuSans-111"/>
      <use x="1360.714844" xlink:href="#DejaVuSans-108"/>
      <use x="1388.498047" xlink:href="#DejaVuSans-108"/>
      <use x="1416.28125" xlink:href="#DejaVuSans-105"/>
      <use x="1444.064453" xlink:href="#DejaVuSans-110"/>
      <use x="1507.443359" xlink:href="#DejaVuSans-103"/>
      <use x="1570.919922" xlink:href="#DejaVuSans-32"/>
      <use x="1602.707031" xlink:href="#DejaVuSans-109"/>
      <use x="1700.119141" xlink:href="#DejaVuSans-101"/>
      <use x="1761.642578" xlink:href="#DejaVuSans-97"/>
      <use x="1822.921875" xlink:href="#DejaVuSans-110"/>
      <use x="1886.300781" xlink:href="#DejaVuSans-41"/>
     </g>
    </g>
    <g id="patch_221">
     <path d="M 418.470312 52.876563 
L 438.470312 52.876563 
L 438.470312 45.876563 
L 418.470312 45.876563 
z
" style="fill:#348abd;opacity:0.2;"/>
    </g>
    <g id="text_21">
     <!-- Korea, South new cases -->
     <g transform="translate(446.470312 52.876563)scale(0.1 -0.1)">
      <use xlink:href="#DejaVuSans-75"/>
      <use x="60.576172" xlink:href="#DejaVuSans-111"/>
      <use x="121.757812" xlink:href="#DejaVuSans-114"/>
      <use x="160.621094" xlink:href="#DejaVuSans-101"/>
      <use x="222.144531" xlink:href="#DejaVuSans-97"/>
      <use x="283.423828" xlink:href="#DejaVuSans-44"/>
      <use x="315.210938" xlink:href="#DejaVuSans-32"/>
      <use x="346.998047" xlink:href="#DejaVuSans-83"/>
      <use x="410.474609" xlink:href="#DejaVuSans-111"/>
      <use x="471.65625" xlink:href="#DejaVuSans-117"/>
      <use x="535.035156" xlink:href="#DejaVuSans-116"/>
      <use x="574.244141" xlink:href="#DejaVuSans-104"/>
      <use x="637.623047" xlink:href="#DejaVuSans-32"/>
      <use x="669.410156" xlink:href="#DejaVuSans-110"/>
      <use x="732.789062" xlink:href="#DejaVuSans-101"/>
      <use x="794.3125" xlink:href="#DejaVuSans-119"/>
      <use x="876.099609" xlink:href="#DejaVuSans-32"/>
      <use x="907.886719" xlink:href="#DejaVuSans-99"/>
      <use x="962.867188" xlink:href="#DejaVuSans-97"/>
      <use x="1024.146484" xlink:href="#DejaVuSans-115"/>
      <use x="1076.246094" xlink:href="#DejaVuSans-101"/>
      <use x="1137.769531" xlink:href="#DejaVuSans-115"/>
     </g>
    </g>
   </g>
  </g>
 </g>
 <defs>
  <clipPath id="p52d0e691f2">
   <rect height="135.9" width="558" x="90" y="21.6"/>
  </clipPath>
 </defs>
</svg>
