<?xml version="1.0" encoding="utf-8" standalone="no"?>
<!DOCTYPE svg PUBLIC "-//W3C//DTD SVG 1.1//EN"
  "http://www.w3.org/Graphics/SVG/1.1/DTD/svg11.dtd">
<!-- Created with matplotlib (https://matplotlib.org/) -->
<svg height="180pt" version="1.1" viewBox="0 0 720 180" width="720pt" xmlns="http://www.w3.org/2000/svg" xmlns:xlink="http://www.w3.org/1999/xlink">
 <metadata>
  <rdf:RDF xmlns:cc="http://creativecommons.org/ns#" xmlns:dc="http://purl.org/dc/elements/1.1/" xmlns:rdf="http://www.w3.org/1999/02/22-rdf-syntax-ns#">
   <cc:Work>
    <dc:type rdf:resource="http://purl.org/dc/dcmitype/StillImage"/>
    <dc:date>2021-03-11T22:29:35.115684</dc:date>
    <dc:format>image/svg+xml</dc:format>
    <dc:creator>
     <cc:Agent>
      <dc:title>Matplotlib v3.3.4, https://matplotlib.org/</dc:title>
     </cc:Agent>
    </dc:creator>
   </cc:Work>
  </rdf:RDF>
 </metadata>
 <defs>
  <style type="text/css">*{stroke-linecap:butt;stroke-linejoin:round;}</style>
 </defs>
 <g id="figure_1">
  <g id="patch_1">
   <path d="M 0 180 
L 720 180 
L 720 0 
L 0 0 
z
" style="fill:#ffffff;"/>
  </g>
  <g id="axes_1">
   <g id="patch_2">
    <path d="M 90 157.5 
L 648 157.5 
L 648 21.6 
L 90 21.6 
z
" style="fill:#e5e5e5;"/>
   </g>
   <g id="matplotlib.axis_1">
    <g id="xtick_1">
     <g id="line2d_1">
      <path clip-path="url(#p8cde357fdc)" d="M 163.265904 157.5 
L 163.265904 21.6 
" style="fill:none;stroke:#ffffff;stroke-linecap:square;stroke-width:0.8;"/>
     </g>
     <g id="line2d_2">
      <defs>
       <path d="M 0 0 
L 0 3.5 
" id="mbbc4b1fb6a" style="stroke:#555555;stroke-width:0.8;"/>
      </defs>
      <g>
       <use style="fill:#555555;stroke:#555555;stroke-width:0.8;" x="163.265904" xlink:href="#mbbc4b1fb6a" y="157.5"/>
      </g>
     </g>
     <g id="text_1">
      <text style="fill:#555555;font-family:DejaVu Sans;font-size:10px;font-stretch:normal;font-style:normal;font-weight:normal;text-anchor:middle;" transform="rotate(-0, 163.265904, 172.098437)" x="163.265904" y="172.098437">2020-03</text>
     </g>
    </g>
    <g id="xtick_2">
     <g id="line2d_3">
      <path clip-path="url(#p8cde357fdc)" d="M 238.189963 157.5 
L 238.189963 21.6 
" style="fill:none;stroke:#ffffff;stroke-linecap:square;stroke-width:0.8;"/>
     </g>
     <g id="line2d_4">
      <g>
       <use style="fill:#555555;stroke:#555555;stroke-width:0.8;" x="238.189963" xlink:href="#mbbc4b1fb6a" y="157.5"/>
      </g>
     </g>
     <g id="text_2">
      <text style="fill:#555555;font-family:DejaVu Sans;font-size:10px;font-stretch:normal;font-style:normal;font-weight:normal;text-anchor:middle;" transform="rotate(-0, 238.189963, 172.098437)" x="238.189963" y="172.098437">2020-05</text>
     </g>
    </g>
    <g id="xtick_3">
     <g id="line2d_5">
      <path clip-path="url(#p8cde357fdc)" d="M 313.114022 157.5 
L 313.114022 21.6 
" style="fill:none;stroke:#ffffff;stroke-linecap:square;stroke-width:0.8;"/>
     </g>
     <g id="line2d_6">
      <g>
       <use style="fill:#555555;stroke:#555555;stroke-width:0.8;" x="313.114022" xlink:href="#mbbc4b1fb6a" y="157.5"/>
      </g>
     </g>
     <g id="text_3">
      <text style="fill:#555555;font-family:DejaVu Sans;font-size:10px;font-stretch:normal;font-style:normal;font-weight:normal;text-anchor:middle;" transform="rotate(-0, 313.114022, 172.098437)" x="313.114022" y="172.098437">2020-07</text>
     </g>
    </g>
    <g id="xtick_4">
     <g id="line2d_7">
      <path clip-path="url(#p8cde357fdc)" d="M 389.266344 157.5 
L 389.266344 21.6 
" style="fill:none;stroke:#ffffff;stroke-linecap:square;stroke-width:0.8;"/>
     </g>
     <g id="line2d_8">
      <g>
       <use style="fill:#555555;stroke:#555555;stroke-width:0.8;" x="389.266344" xlink:href="#mbbc4b1fb6a" y="157.5"/>
      </g>
     </g>
     <g id="text_4">
      <text style="fill:#555555;font-family:DejaVu Sans;font-size:10px;font-stretch:normal;font-style:normal;font-weight:normal;text-anchor:middle;" transform="rotate(-0, 389.266344, 172.098437)" x="389.266344" y="172.098437">2020-09</text>
     </g>
    </g>
    <g id="xtick_5">
     <g id="line2d_9">
      <path clip-path="url(#p8cde357fdc)" d="M 464.190403 157.5 
L 464.190403 21.6 
" style="fill:none;stroke:#ffffff;stroke-linecap:square;stroke-width:0.8;"/>
     </g>
     <g id="line2d_10">
      <g>
       <use style="fill:#555555;stroke:#555555;stroke-width:0.8;" x="464.190403" xlink:href="#mbbc4b1fb6a" y="157.5"/>
      </g>
     </g>
     <g id="text_5">
      <text style="fill:#555555;font-family:DejaVu Sans;font-size:10px;font-stretch:normal;font-style:normal;font-weight:normal;text-anchor:middle;" transform="rotate(-0, 464.190403, 172.098437)" x="464.190403" y="172.098437">2020-11</text>
     </g>
    </g>
    <g id="xtick_6">
     <g id="line2d_11">
      <path clip-path="url(#p8cde357fdc)" d="M 539.114462 157.5 
L 539.114462 21.6 
" style="fill:none;stroke:#ffffff;stroke-linecap:square;stroke-width:0.8;"/>
     </g>
     <g id="line2d_12">
      <g>
       <use style="fill:#555555;stroke:#555555;stroke-width:0.8;" x="539.114462" xlink:href="#mbbc4b1fb6a" y="157.5"/>
      </g>
     </g>
     <g id="text_6">
      <text style="fill:#555555;font-family:DejaVu Sans;font-size:10px;font-stretch:normal;font-style:normal;font-weight:normal;text-anchor:middle;" transform="rotate(-0, 539.114462, 172.098437)" x="539.114462" y="172.098437">2021-01</text>
     </g>
    </g>
    <g id="xtick_7">
     <g id="line2d_13">
      <path clip-path="url(#p8cde357fdc)" d="M 611.581994 157.5 
L 611.581994 21.6 
" style="fill:none;stroke:#ffffff;stroke-linecap:square;stroke-width:0.8;"/>
     </g>
     <g id="line2d_14">
      <g>
       <use style="fill:#555555;stroke:#555555;stroke-width:0.8;" x="611.581994" xlink:href="#mbbc4b1fb6a" y="157.5"/>
      </g>
     </g>
     <g id="text_7">
      <text style="fill:#555555;font-family:DejaVu Sans;font-size:10px;font-stretch:normal;font-style:normal;font-weight:normal;text-anchor:middle;" transform="rotate(-0, 611.581994, 172.098437)" x="611.581994" y="172.098437">2021-03</text>
     </g>
    </g>
   </g>
   <g id="matplotlib.axis_2">
    <g id="ytick_1">
     <g id="line2d_15">
      <path clip-path="url(#p8cde357fdc)" d="M 90 126.484686 
L 648 126.484686 
" style="fill:none;stroke:#ffffff;stroke-linecap:square;stroke-width:0.8;"/>
     </g>
     <g id="line2d_16">
      <defs>
       <path d="M 0 0 
L -3.5 0 
" id="m06db20fde9" style="stroke:#555555;stroke-width:0.8;"/>
      </defs>
      <g>
       <use style="fill:#555555;stroke:#555555;stroke-width:0.8;" x="90" xlink:href="#m06db20fde9" y="126.484686"/>
      </g>
     </g>
     <g id="line2d_17">
      <defs>
       <path d="M 0 0 
L 3.5 0 
" id="m6c445e1446" style="stroke:#555555;stroke-width:0.8;"/>
      </defs>
      <g>
       <use style="fill:#555555;stroke:#555555;stroke-width:0.8;" x="648" xlink:href="#m6c445e1446" y="126.484686"/>
      </g>
     </g>
     <g id="text_8">
      <text style="fill:#555555;font-family:DejaVu Sans;font-size:10px;font-stretch:normal;font-style:normal;font-weight:normal;text-anchor:end;" transform="rotate(-0, 83, 130.283904)" x="83" y="130.283904">10</text>
     </g>
     <g id="text_9">
      <text style="fill:#555555;font-family:DejaVu Sans;font-size:10px;font-stretch:normal;font-style:normal;font-weight:normal;text-anchor:start;" transform="rotate(-0, 655, 130.283904)" x="655" y="130.283904">10</text>
     </g>
    </g>
    <g id="ytick_2">
     <g id="line2d_18">
      <path clip-path="url(#p8cde357fdc)" d="M 90 76.808602 
L 648 76.808602 
" style="fill:none;stroke:#ffffff;stroke-linecap:square;stroke-width:0.8;"/>
     </g>
     <g id="line2d_19">
      <g>
       <use style="fill:#555555;stroke:#555555;stroke-width:0.8;" x="90" xlink:href="#m06db20fde9" y="76.808602"/>
      </g>
     </g>
     <g id="line2d_20">
      <g>
       <use style="fill:#555555;stroke:#555555;stroke-width:0.8;" x="648" xlink:href="#m6c445e1446" y="76.808602"/>
      </g>
     </g>
     <g id="text_10">
      <text style="fill:#555555;font-family:DejaVu Sans;font-size:10px;font-stretch:normal;font-style:normal;font-weight:normal;text-anchor:end;" transform="rotate(-0, 83, 80.607821)" x="83" y="80.607821">1000</text>
     </g>
     <g id="text_11">
      <text style="fill:#555555;font-family:DejaVu Sans;font-size:10px;font-stretch:normal;font-style:normal;font-weight:normal;text-anchor:start;" transform="rotate(-0, 655, 80.607821)" x="655" y="80.607821">1000</text>
     </g>
    </g>
    <g id="ytick_3">
     <g id="line2d_21">
      <path clip-path="url(#p8cde357fdc)" d="M 90 27.132519 
L 648 27.132519 
" style="fill:none;stroke:#ffffff;stroke-linecap:square;stroke-width:0.8;"/>
     </g>
     <g id="line2d_22">
      <g>
       <use style="fill:#555555;stroke:#555555;stroke-width:0.8;" x="90" xlink:href="#m06db20fde9" y="27.132519"/>
      </g>
     </g>
     <g id="line2d_23">
      <g>
       <use style="fill:#555555;stroke:#555555;stroke-width:0.8;" x="648" xlink:href="#m6c445e1446" y="27.132519"/>
      </g>
     </g>
     <g id="text_12">
      <text style="fill:#555555;font-family:DejaVu Sans;font-size:10px;font-stretch:normal;font-style:normal;font-weight:normal;text-anchor:end;" transform="rotate(-0, 83, 30.931738)" x="83" y="30.931738">100000</text>
     </g>
     <g id="text_13">
      <text style="fill:#555555;font-family:DejaVu Sans;font-size:10px;font-stretch:normal;font-style:normal;font-weight:normal;text-anchor:start;" transform="rotate(-0, 655, 30.931738)" x="655" y="30.931738">100000</text>
     </g>
    </g>
    <g id="text_14">
     <text style="fill:#555555;font-family:DejaVu Sans;font-size:12px;font-stretch:normal;font-style:normal;font-weight:normal;text-anchor:middle;" transform="rotate(-90, 38.329375, 89.55)" x="38.329375" y="89.55">total numbers</text>
    </g>
   </g>
   <g id="line2d_24">
    <path clip-path="url(#p8cde357fdc)" d="M 115.363636 151.322727 
L 116.5919 151.322727 
L 116.5919 143.845732 
L 119.048426 143.845732 
L 119.048426 139.47197 
L 120.276689 139.47197 
L 120.276689 136.368736 
L 125.189742 136.368736 
L 125.189742 125.456572 
L 126.418006 125.456572 
L 126.418006 124.517979 
L 127.646269 124.517979 
L 127.646269 122.110924 
L 130.102796 122.110924 
L 130.102796 121.414745 
L 131.331059 121.414745 
L 131.331059 119.560992 
L 132.559322 119.560992 
L 132.559322 117.500075 
L 133.787585 117.500075 
L 133.787585 117.040983 
L 136.244112 117.040983 
L 136.244112 116.600635 
L 137.472375 116.600635 
L 137.472375 115.770454 
L 138.700638 115.770454 
L 138.700638 115.378156 
L 144.841955 115.378156 
L 144.841955 114.999625 
L 146.070218 114.999625 
L 146.070218 114.633928 
L 147.298481 114.633928 
L 147.298481 114.280223 
L 149.755008 114.280223 
L 149.755008 101.223569 
L 150.983271 101.223569 
L 150.983271 93.956037 
L 152.211534 93.956037 
L 152.211534 85.837531 
L 153.439797 85.837531 
L 153.439797 82.282994 
L 154.668061 82.282994 
L 154.668061 78.779625 
L 155.896324 78.779625 
L 155.896324 77.059602 
L 157.124587 77.059602 
L 157.124587 74.307037 
L 158.352851 74.307037 
L 158.352851 70.673837 
L 159.581114 70.673837 
L 159.581114 67.651842 
L 160.809377 67.651842 
L 160.809377 64.431544 
L 162.03764 64.431544 
L 162.03764 62.591137 
L 163.265904 62.591137 
L 163.265904 60.98704 
L 164.494167 60.98704 
L 164.494167 59.053563 
L 165.72243 59.053563 
L 165.72243 58.184701 
L 166.950693 58.184701 
L 166.950693 57.323788 
L 168.178957 57.323788 
L 168.178957 56.464183 
L 169.40722 56.464183 
L 169.40722 55.755025 
L 170.635483 55.755025 
L 170.635483 55.344685 
L 171.863746 55.344685 
L 171.863746 55.105483 
L 174.320273 55.055113 
L 174.320273 54.713132 
L 175.548536 54.713132 
L 175.548536 54.555715 
L 176.776799 54.555715 
L 176.776799 54.405969 
L 178.005063 54.405969 
L 178.005063 54.262274 
L 180.461589 54.161361 
L 180.461589 54.064002 
L 182.918116 53.954541 
L 182.918116 53.834634 
L 184.146379 53.834634 
L 184.146379 53.641481 
L 186.602906 53.532463 
L 186.602906 53.350728 
L 187.831169 53.350728 
L 187.831169 53.153932 
L 191.515959 53.062831 
L 191.515959 52.944122 
L 192.744222 52.944122 
L 192.744222 52.822034 
L 195.200748 52.71633 
L 195.200748 52.548872 
L 196.429012 52.548872 
L 196.429012 52.430027 
L 198.885538 52.342583 
L 198.885538 52.203909 
L 201.342065 52.093148 
L 201.342065 51.996481 
L 203.798591 51.903888 
L 203.798591 51.803582 
L 206.255118 51.717891 
L 206.255118 51.668479 
L 209.939908 51.564094 
L 209.939908 51.523656 
L 214.852961 51.431939 
L 214.852961 51.406315 
L 220.994277 51.306454 
L 220.994277 51.288212 
L 234.505173 51.179404 
L 234.505173 51.175395 
L 248.016069 51.066721 
L 248.016069 51.032057 
L 254.157385 50.92481 
L 254.157385 50.906225 
L 262.755228 50.804088 
L 262.755228 50.781844 
L 268.896544 50.685659 
L 268.896544 50.610275 
L 272.581334 50.51843 
L 272.581334 50.493003 
L 276.266124 50.424555 
L 276.266124 50.378854 
L 279.950913 50.306501 
L 279.950913 50.259454 
L 283.635703 50.172362 
L 283.635703 50.137721 
L 287.320493 50.051602 
L 287.320493 50.001157 
L 292.233546 49.895629 
L 292.233546 49.865413 
L 295.918336 49.775271 
L 295.918336 49.732233 
L 299.603126 49.631896 
L 299.603126 49.617142 
L 304.516179 49.509276 
L 304.516179 49.475841 
L 308.200969 49.379546 
L 308.200969 49.343974 
L 311.885758 49.26562 
L 311.885758 49.220384 
L 315.570548 49.115566 
L 315.570548 49.065185 
L 319.255338 48.991278 
L 319.255338 48.939843 
L 324.168391 48.835283 
L 324.168391 48.79985 
L 329.081444 48.692651 
L 329.081444 48.644202 
L 333.994497 48.539316 
L 333.994497 48.51893 
L 337.679287 48.434662 
L 337.679287 48.388904 
L 340.135813 48.357219 
L 340.135813 48.270372 
L 345.048866 48.185738 
L 345.048866 48.149344 
L 352.418446 48.04539 
L 352.418446 48.019931 
L 358.559762 47.91647 
L 358.559762 47.889835 
L 363.472815 47.804457 
L 363.472815 47.763481 
L 365.929342 47.688518 
L 365.929342 47.568789 
L 367.157605 47.568789 
L 367.157605 47.370504 
L 368.385868 47.370504 
L 368.385868 47.23266 
L 369.614132 47.23266 
L 369.614132 47.062967 
L 370.842395 47.062967 
L 370.842395 46.861588 
L 372.070658 46.861588 
L 372.070658 46.669837 
L 373.298921 46.669837 
L 373.298921 46.458115 
L 374.527185 46.458115 
L 374.527185 46.245392 
L 375.755448 46.245392 
L 375.755448 45.996408 
L 376.983711 45.996408 
L 376.983711 45.832742 
L 378.211974 45.832742 
L 378.211974 45.663102 
L 379.440238 45.663102 
L 379.440238 45.47244 
L 380.668501 45.47244 
L 380.668501 45.215087 
L 381.896764 45.215087 
L 381.896764 45.00324 
L 383.125028 45.00324 
L 383.125028 44.822129 
L 384.353291 44.822129 
L 384.353291 44.657144 
L 385.581554 44.657144 
L 385.581554 44.522189 
L 386.809817 44.522189 
L 386.809817 44.395847 
L 388.038081 44.395847 
L 388.038081 44.254075 
L 390.494607 44.151698 
L 390.494607 44.048731 
L 392.951134 43.962129 
L 392.951134 43.876726 
L 395.40766 43.81628 
L 395.40766 43.747611 
L 397.864187 43.669379 
L 397.864187 43.592206 
L 400.320713 43.505241 
L 400.320713 43.438518 
L 402.77724 43.379499 
L 402.77724 43.326608 
L 406.462029 43.221119 
L 406.462029 43.148028 
L 408.918556 43.088206 
L 408.918556 43.03625 
L 413.831609 42.93635 
L 413.831609 42.885118 
L 417.516399 42.774637 
L 417.516399 42.74662 
L 422.429452 42.663001 
L 422.429452 42.611689 
L 427.342505 42.514729 
L 427.342505 42.486034 
L 431.027295 42.419969 
L 431.027295 42.369354 
L 435.940348 42.283324 
L 435.940348 42.257867 
L 439.625138 42.170979 
L 439.625138 42.134511 
L 444.538191 42.040011 
L 444.538191 42.000985 
L 449.451244 41.905096 
L 449.451244 41.854724 
L 453.136033 41.757191 
L 453.136033 41.731692 
L 456.820823 41.64561 
L 456.820823 41.603031 
L 460.505613 41.504875 
L 460.505613 41.453485 
L 464.190403 41.363936 
L 464.190403 41.333714 
L 467.875193 41.236372 
L 467.875193 41.178703 
L 471.559982 41.08707 
L 471.559982 41.037627 
L 475.244772 40.941745 
L 475.244772 40.886399 
L 477.701299 40.812914 
L 477.701299 40.734596 
L 480.157825 40.655708 
L 480.157825 40.571768 
L 482.614352 40.486244 
L 482.614352 40.370434 
L 483.842615 40.370434 
L 483.842615 40.244936 
L 485.070878 40.244936 
L 485.070878 40.113692 
L 486.299142 40.113692 
L 486.299142 39.975862 
L 487.527405 39.975862 
L 487.527405 39.859408 
L 489.983931 39.764707 
L 489.983931 39.64396 
L 491.212195 39.64396 
L 491.212195 39.513326 
L 492.440458 39.513326 
L 492.440458 39.316957 
L 493.668721 39.316957 
L 493.668721 39.128691 
L 494.896984 39.128691 
L 494.896984 38.969801 
L 496.125248 38.969801 
L 496.125248 38.825649 
L 497.353511 38.825649 
L 497.353511 38.706083 
L 498.581774 38.706083 
L 498.581774 38.564766 
L 499.810037 38.564766 
L 499.810037 38.406856 
L 501.038301 38.406856 
L 501.038301 38.242458 
L 502.266564 38.242458 
L 502.266564 38.054071 
L 503.494827 38.054071 
L 503.494827 37.882352 
L 504.72309 37.882352 
L 504.72309 37.699524 
L 505.951354 37.699524 
L 505.951354 37.524265 
L 507.179617 37.524265 
L 507.179617 37.357652 
L 508.40788 37.357652 
L 508.40788 37.170843 
L 509.636144 37.170843 
L 509.636144 36.990174 
L 510.864407 36.990174 
L 510.864407 36.80666 
L 512.09267 36.80666 
L 512.09267 36.558287 
L 513.320933 36.558287 
L 513.320933 36.295307 
L 514.549197 36.295307 
L 514.549197 36.115706 
L 515.77746 36.115706 
L 515.77746 35.899585 
L 517.005723 35.899585 
L 517.005723 35.640605 
L 518.233986 35.640605 
L 518.233986 35.403245 
L 519.46225 35.403245 
L 519.46225 35.159411 
L 520.690513 35.159411 
L 520.690513 34.922521 
L 521.918776 34.922521 
L 521.918776 34.682031 
L 523.147039 34.682031 
L 523.147039 34.48276 
L 524.375303 34.48276 
L 524.375303 34.299045 
L 525.603566 34.299045 
L 525.603566 34.072945 
L 526.831829 34.072945 
L 526.831829 33.873027 
L 528.060092 33.873027 
L 528.060092 33.626605 
L 529.288356 33.626605 
L 529.288356 33.405929 
L 530.516619 33.405929 
L 530.516619 33.22036 
L 531.744882 33.22036 
L 531.744882 33.068184 
L 532.973145 33.068184 
L 532.973145 32.874502 
L 534.201409 32.874502 
L 534.201409 32.683696 
L 535.429672 32.683696 
L 535.429672 32.510581 
L 536.657935 32.510581 
L 536.657935 32.329368 
L 537.886199 32.329368 
L 537.886199 32.18642 
L 539.114462 32.18642 
L 539.114462 32.074809 
L 540.342725 32.074809 
L 540.342725 31.902224 
L 541.570988 31.902224 
L 541.570988 31.78287 
L 542.799252 31.78287 
L 542.799252 31.644481 
L 544.027515 31.644481 
L 544.027515 31.503153 
L 546.484041 31.394996 
L 546.484041 31.292828 
L 548.940568 31.187848 
L 548.940568 31.117385 
L 551.397094 31.033896 
L 551.397094 30.94736 
L 553.853621 30.868375 
L 553.853621 30.790417 
L 556.310147 30.703102 
L 556.310147 30.625282 
L 558.766674 30.567431 
L 558.766674 30.510332 
L 561.223201 30.451038 
L 561.223201 30.392507 
L 563.679727 30.342422 
L 563.679727 30.280142 
L 566.136254 30.223678 
L 566.136254 30.161078 
L 568.59278 30.110632 
L 568.59278 30.032157 
L 571.049307 29.962239 
L 571.049307 29.896672 
L 573.505833 29.833442 
L 573.505833 29.784364 
L 577.190623 29.696584 
L 577.190623 29.63288 
L 580.875413 29.521925 
L 580.875413 29.469149 
L 584.560203 29.380963 
L 584.560203 29.340911 
L 587.016729 29.282426 
L 587.016729 29.216272 
L 590.701519 29.116629 
L 590.701519 29.074444 
L 594.386309 28.971618 
L 594.386309 28.89247 
L 596.842835 28.813898 
L 596.842835 28.743406 
L 600.527625 28.635734 
L 600.527625 28.594645 
L 604.212415 28.496761 
L 604.212415 28.448394 
L 607.897204 28.350736 
L 607.897204 28.307949 
L 611.581994 28.224551 
L 611.581994 28.171684 
L 615.266784 28.074487 
L 615.266784 28.025512 
L 618.951574 27.936588 
L 618.951574 27.884879 
L 622.636364 27.777273 
L 622.636364 27.777273 
" style="fill:none;stroke:#348abd;stroke-linecap:square;stroke-width:3;"/>
   </g>
   <g id="line2d_25">
    <path clip-path="url(#p8cde357fdc)" d="M 149.755008 181 
L 149.755008 151.322727 
L 150.983271 151.322727 
L 150.983271 143.845732 
L 153.439797 143.845732 
L 153.439797 131.994974 
L 154.668061 131.994974 
L 154.668061 128.891741 
L 155.896324 128.891741 
L 155.896324 126.484686 
L 157.124587 126.484686 
L 157.124587 124.517979 
L 158.352851 124.517979 
L 158.352851 123.654556 
L 160.809377 123.654556 
L 160.809377 121.414745 
L 162.03764 121.414745 
L 162.03764 120.760786 
L 163.265904 120.760786 
L 163.265904 115.378156 
L 165.72243 115.378156 
L 165.72243 112.971101 
L 168.178957 112.971101 
L 168.178957 111.004394 
L 169.40722 111.004394 
L 169.40722 110.502581 
L 170.635483 110.502581 
L 170.635483 109.12364 
L 171.863746 109.12364 
L 171.863746 108.495091 
L 173.09201 108.495091 
L 173.09201 108.293459 
L 174.320273 108.293459 
L 174.320273 107.156932 
L 175.548536 107.156932 
L 175.548536 106.128819 
L 178.005063 106.128819 
L 178.005063 105.190225 
L 179.233326 105.190225 
L 179.233326 104.749877 
L 181.689853 104.749877 
L 181.689853 103.919697 
L 182.918116 103.919697 
L 182.918116 103.527398 
L 184.146379 103.527398 
L 184.146379 102.663976 
L 185.374642 102.663976 
L 185.374642 102.314095 
L 186.602906 102.314095 
L 186.602906 101.433033 
L 187.831169 101.433033 
L 187.831169 100.52091 
L 190.287695 100.52091 
L 190.287695 99.679937 
L 191.515959 99.679937 
L 191.515959 99.153636 
L 192.744222 99.153636 
L 192.744222 98.733855 
L 193.972485 98.733855 
L 193.972485 98.094436 
L 195.200748 98.094436 
L 195.200748 97.71323 
L 196.429012 97.71323 
L 196.429012 97.130005 
L 197.657275 97.130005 
L 197.657275 96.712391 
L 198.885538 96.712391 
L 198.885538 96.442701 
L 200.113801 96.442701 
L 200.113801 96.244769 
L 201.342065 96.244769 
L 201.342065 95.986384 
L 202.570328 95.986384 
L 202.570328 95.671872 
L 203.798591 95.671872 
L 203.798591 95.487474 
L 205.026855 95.487474 
L 205.026855 95.127873 
L 206.255118 95.127873 
L 206.255118 94.95247 
L 207.483381 94.95247 
L 207.483381 94.609996 
L 208.711644 94.609996 
L 208.711644 94.169648 
L 209.939908 94.169648 
L 209.939908 93.956037 
L 211.168171 93.956037 
L 211.168171 93.746574 
L 212.396434 93.746574 
L 212.396434 93.592103 
L 213.624697 93.592103 
L 213.624697 93.439813 
L 214.852961 93.439813 
L 214.852961 93.289643 
L 216.081224 93.289643 
L 216.081224 93.043914 
L 217.309487 93.043914 
L 217.309487 92.89912 
L 218.53775 92.89912 
L 218.53775 92.709035 
L 220.994277 92.662033 
L 220.994277 92.568638 
L 223.450803 92.476045 
L 223.450803 92.38424 
L 227.135593 92.29321 
L 227.135593 92.202941 
L 230.820383 92.113422 
L 230.820383 92.068939 
L 233.27691 92.024639 
L 233.27691 91.936581 
L 236.961699 91.849237 
L 236.961699 91.762593 
L 240.646489 91.676641 
L 240.646489 91.591367 
L 249.244332 91.506763 
L 249.244332 91.422817 
L 254.157385 91.339519 
L 254.157385 91.256859 
L 262.755228 91.174828 
L 262.755228 91.093416 
L 266.440018 91.052939 
L 266.440018 90.972439 
L 275.03786 90.892535 
L 275.03786 90.852803 
L 284.863967 90.773777 
L 284.863967 90.695326 
L 293.461809 90.617441 
L 293.461809 90.578708 
L 303.287915 90.501658 
L 303.287915 90.463338 
L 318.027075 90.387104 
L 318.027075 90.349188 
L 321.711864 90.273754 
L 321.711864 90.236234 
L 329.081444 90.198844 
L 329.081444 90.124451 
L 332.766234 90.013813 
L 332.766234 89.977185 
L 342.59234 89.868041 
L 342.59234 89.831903 
L 356.103236 89.724211 
L 356.103236 89.688552 
L 372.070658 89.582275 
L 372.070658 89.547081 
L 379.440238 89.442182 
L 379.440238 89.372812 
L 381.896764 89.338293 
L 381.896764 89.235395 
L 383.125028 89.235395 
L 383.125028 89.066051 
L 388.038081 88.965706 
L 388.038081 88.899324 
L 390.494607 88.800511 
L 390.494607 88.735135 
L 394.179397 88.637807 
L 394.179397 88.573407 
L 395.40766 88.573407 
L 395.40766 88.414068 
L 397.864187 88.319583 
L 397.864187 88.257049 
L 399.09245 88.257049 
L 399.09245 88.133059 
L 400.320713 88.133059 
L 400.320713 87.980049 
L 402.77724 87.889274 
L 402.77724 87.73966 
L 404.005503 87.73966 
L 404.005503 87.621445 
L 406.462029 87.621445 
L 406.462029 87.475475 
L 407.690293 87.475475 
L 407.690293 87.331453 
L 410.146819 87.302879 
L 410.146819 87.161128 
L 412.603346 87.104946 
L 412.603346 87.021217 
L 415.059872 87.021217 
L 415.059872 86.883097 
L 417.516399 86.82834 
L 417.516399 86.719654 
L 419.972925 86.665719 
L 419.972925 86.532049 
L 422.429452 86.505513 
L 422.429452 86.347651 
L 426.114242 86.269578 
L 426.114242 86.166352 
L 431.027295 86.115107 
L 431.027295 86.038694 
L 434.712085 85.962817 
L 434.712085 85.912528 
L 439.625138 85.812647 
L 439.625138 85.713683 
L 443.309927 85.640051 
L 443.309927 85.591241 
L 448.22298 85.494279 
L 448.22298 85.422124 
L 450.679507 85.350449 
L 450.679507 85.302929 
L 455.59256 85.255618 
L 455.59256 85.185037 
L 461.733876 85.091643 
L 461.733876 85.045247 
L 464.190403 84.99905 
L 464.190403 84.907244 
L 469.103456 84.816214 
L 469.103456 84.793576 
L 472.788246 84.725946 
L 472.788246 84.614162 
L 477.701299 84.547644 
L 477.701299 84.459586 
L 483.842615 84.372241 
L 483.842615 84.328832 
L 487.527405 84.221069 
L 487.527405 84.178263 
L 491.212195 84.071986 
L 491.212195 84.008719 
L 494.896984 83.945821 
L 494.896984 83.821114 
L 501.038301 83.73877 
L 501.038301 83.677422 
L 502.266564 83.677422 
L 502.266564 83.535619 
L 504.72309 83.455417 
L 504.72309 83.355997 
L 507.179617 83.277115 
L 507.179617 83.21833 
L 509.636144 83.140445 
L 509.636144 82.986342 
L 510.864407 82.986342 
L 510.864407 82.83441 
L 512.09267 82.83441 
L 512.09267 82.721849 
L 514.549197 82.684588 
L 514.549197 82.555179 
L 515.77746 82.555179 
L 515.77746 82.318891 
L 517.005723 82.318891 
L 517.005723 82.105279 
L 518.233986 82.105279 
L 518.233986 81.724318 
L 519.46225 81.724318 
L 519.46225 81.538766 
L 520.690513 81.538766 
L 520.690513 81.307134 
L 521.918776 81.307134 
L 521.918776 81.064355 
L 523.147039 81.064355 
L 523.147039 80.686928 
L 524.375303 80.686928 
L 524.375303 80.322261 
L 525.603566 80.322261 
L 525.603566 80.071217 
L 526.831829 80.071217 
L 526.831829 79.825883 
L 528.060092 79.825883 
L 528.060092 79.586005 
L 529.288356 79.586005 
L 529.288356 79.310459 
L 530.516619 79.310459 
L 530.516619 79.108323 
L 531.744882 79.108323 
L 531.744882 78.96246 
L 532.973145 78.96246 
L 532.973145 78.448083 
L 534.201409 78.448083 
L 534.201409 78.199809 
L 535.429672 78.199809 
L 535.429672 77.945129 
L 536.657935 77.945129 
L 536.657935 77.743274 
L 537.886199 77.743274 
L 537.886199 77.453127 
L 539.114462 77.453127 
L 539.114462 77.226501 
L 540.342725 77.226501 
L 540.342725 77.015528 
L 541.570988 77.015528 
L 541.570988 76.733356 
L 542.799252 76.733356 
L 542.799252 76.521215 
L 544.027515 76.521215 
L 544.027515 76.323473 
L 545.255778 76.323473 
L 545.255778 75.968438 
L 546.484041 75.968438 
L 546.484041 75.780489 
L 547.712305 75.780489 
L 547.712305 75.538074 
L 548.940568 75.538074 
L 548.940568 75.395197 
L 550.168831 75.395197 
L 550.168831 75.161196 
L 551.397094 75.161196 
L 551.397094 74.977583 
L 553.853621 74.886935 
L 553.853621 74.690151 
L 555.081884 74.690151 
L 555.081884 74.523044 
L 556.310147 74.523044 
L 556.310147 74.41018 
L 557.538411 74.41018 
L 557.538411 74.281404 
L 558.766674 74.281404 
L 558.766674 74.120464 
L 559.994937 74.120464 
L 559.994937 73.978473 
L 561.223201 73.978473 
L 561.223201 73.84652 
L 563.679727 73.748603 
L 563.679727 73.675745 
L 566.136254 73.57936 
L 566.136254 73.491757 
L 568.59278 73.40486 
L 568.59278 73.349924 
L 571.049307 73.287481 
L 571.049307 73.186776 
L 572.27757 73.186776 
L 572.27757 73.071734 
L 575.96236 72.988142 
L 575.96236 72.912708 
L 579.647149 72.815426 
L 579.647149 72.73379 
L 584.560203 72.623455 
L 584.560203 72.565067 
L 588.244992 72.463644 
L 588.244992 72.384618 
L 591.929782 72.27778 
L 591.929782 72.242401 
L 595.614572 72.164973 
L 595.614572 72.122973 
L 600.527625 72.03253 
L 600.527625 71.997945 
L 604.212415 71.901693 
L 604.212415 71.867524 
L 607.897204 71.772424 
L 607.897204 71.718455 
L 614.038521 71.61132 
L 614.038521 71.558149 
L 618.951574 71.459155 
L 618.951574 71.439465 
L 622.636364 71.39366 
L 622.636364 71.39366 
" style="fill:none;stroke:#e24a33;stroke-linecap:square;stroke-width:3;"/>
   </g>
   <g id="patch_3">
    <path d="M 90 157.5 
L 90 21.6 
" style="fill:none;stroke:#ffffff;stroke-linecap:square;stroke-linejoin:miter;"/>
   </g>
   <g id="patch_4">
    <path d="M 648 157.5 
L 648 21.6 
" style="fill:none;stroke:#ffffff;stroke-linecap:square;stroke-linejoin:miter;"/>
   </g>
   <g id="patch_5">
    <path d="M 90 157.5 
L 648 157.5 
" style="fill:none;stroke:#ffffff;stroke-linecap:square;stroke-linejoin:miter;"/>
   </g>
   <g id="patch_6">
    <path d="M 90 21.6 
L 648 21.6 
" style="fill:none;stroke:#ffffff;stroke-linecap:square;stroke-linejoin:miter;"/>
   </g>
   <g id="legend_1">
    <g id="patch_7">
     <path d="M 507.9625 152.5 
L 641 152.5 
Q 643 152.5 643 150.5 
L 643 122.14375 
Q 643 120.14375 641 120.14375 
L 507.9625 120.14375 
Q 505.9625 120.14375 505.9625 122.14375 
L 505.9625 150.5 
Q 505.9625 152.5 507.9625 152.5 
z
" style="fill:#e5e5e5;opacity:0.8;stroke:#cccccc;stroke-linejoin:miter;stroke-width:0.5;"/>
    </g>
    <g id="line2d_26">
     <path d="M 509.9625 128.242188 
L 529.9625 128.242188 
" style="fill:none;stroke:#348abd;stroke-linecap:square;stroke-width:3;"/>
    </g>
    <g id="line2d_27"/>
    <g id="text_15">
     <text style="font-family:DejaVu Sans;font-size:10px;font-stretch:normal;font-style:normal;font-weight:normal;text-anchor:start;" transform="rotate(-0, 537.9625, 131.742188)" x="537.9625" y="131.742188">Korea, South cases</text>
    </g>
    <g id="line2d_28">
     <path d="M 509.9625 142.920312 
L 529.9625 142.920312 
" style="fill:none;stroke:#e24a33;stroke-linecap:square;stroke-width:3;"/>
    </g>
    <g id="line2d_29"/>
    <g id="text_16">
     <text style="font-family:DejaVu Sans;font-size:10px;font-stretch:normal;font-style:normal;font-weight:normal;text-anchor:start;" transform="rotate(-0, 537.9625, 146.420312)" x="537.9625" y="146.420312">Korea, South deaths</text>
    </g>
   </g>
  </g>
 </g>
 <defs>
  <clipPath id="p8cde357fdc">
   <rect height="135.9" width="558" x="90" y="21.6"/>
  </clipPath>
 </defs>
</svg>
