<?xml version="1.0" encoding="utf-8" standalone="no"?>
<!DOCTYPE svg PUBLIC "-//W3C//DTD SVG 1.1//EN"
  "http://www.w3.org/Graphics/SVG/1.1/DTD/svg11.dtd">
<!-- Created with matplotlib (https://matplotlib.org/) -->
<svg height="432pt" version="1.1" viewBox="0 0 720 432" width="720pt" xmlns="http://www.w3.org/2000/svg" xmlns:xlink="http://www.w3.org/1999/xlink">
 <defs>
  <style type="text/css">
*{stroke-linecap:butt;stroke-linejoin:round;}
  </style>
 </defs>
 <g id="figure_1">
  <g id="patch_1">
   <path d="M 0 432 
L 720 432 
L 720 0 
L 0 0 
z
" style="fill:#ffffff;"/>
  </g>
  <g id="axes_1">
   <g id="patch_2">
    <path d="M 90 200.094545 
L 648 200.094545 
L 648 51.84 
L 90 51.84 
z
" style="fill:#e5e5e5;"/>
   </g>
   <g id="matplotlib.axis_1">
    <g id="xtick_1">
     <g id="line2d_1">
      <path clip-path="url(#pc8084234c4)" d="M 91.947644 200.094545 
L 91.947644 51.84 
" style="fill:none;stroke:#ffffff;stroke-linecap:square;stroke-width:0.8;"/>
     </g>
     <g id="line2d_2">
      <defs>
       <path d="M 0 0 
L 0 3.5 
" id="m5300fb7730" style="stroke:#555555;stroke-width:0.8;"/>
      </defs>
      <g>
       <use style="fill:#555555;stroke:#555555;stroke-width:0.8;" x="91.947644" xlink:href="#m5300fb7730" y="200.094545"/>
      </g>
     </g>
     <g id="text_1">
      <!-- 0 -->
      <defs>
       <path d="M 31.78125 66.40625 
Q 24.171875 66.40625 20.328125 58.90625 
Q 16.5 51.421875 16.5 36.375 
Q 16.5 21.390625 20.328125 13.890625 
Q 24.171875 6.390625 31.78125 6.390625 
Q 39.453125 6.390625 43.28125 13.890625 
Q 47.125 21.390625 47.125 36.375 
Q 47.125 51.421875 43.28125 58.90625 
Q 39.453125 66.40625 31.78125 66.40625 
z
M 31.78125 74.21875 
Q 44.046875 74.21875 50.515625 64.515625 
Q 56.984375 54.828125 56.984375 36.375 
Q 56.984375 17.96875 50.515625 8.265625 
Q 44.046875 -1.421875 31.78125 -1.421875 
Q 19.53125 -1.421875 13.0625 8.265625 
Q 6.59375 17.96875 6.59375 36.375 
Q 6.59375 54.828125 13.0625 64.515625 
Q 19.53125 74.21875 31.78125 74.21875 
z
" id="DejaVuSans-48"/>
      </defs>
      <g style="fill:#555555;" transform="translate(88.766394 214.692983)scale(0.1 -0.1)">
       <use xlink:href="#DejaVuSans-48"/>
      </g>
     </g>
    </g>
    <g id="xtick_2">
     <g id="line2d_3">
      <path clip-path="url(#pc8084234c4)" d="M 189.329843 200.094545 
L 189.329843 51.84 
" style="fill:none;stroke:#ffffff;stroke-linecap:square;stroke-width:0.8;"/>
     </g>
     <g id="line2d_4">
      <g>
       <use style="fill:#555555;stroke:#555555;stroke-width:0.8;" x="189.329843" xlink:href="#m5300fb7730" y="200.094545"/>
      </g>
     </g>
     <g id="text_2">
      <!-- 50 -->
      <defs>
       <path d="M 10.796875 72.90625 
L 49.515625 72.90625 
L 49.515625 64.59375 
L 19.828125 64.59375 
L 19.828125 46.734375 
Q 21.96875 47.46875 24.109375 47.828125 
Q 26.265625 48.1875 28.421875 48.1875 
Q 40.625 48.1875 47.75 41.5 
Q 54.890625 34.8125 54.890625 23.390625 
Q 54.890625 11.625 47.5625 5.09375 
Q 40.234375 -1.421875 26.90625 -1.421875 
Q 22.3125 -1.421875 17.546875 -0.640625 
Q 12.796875 0.140625 7.71875 1.703125 
L 7.71875 11.625 
Q 12.109375 9.234375 16.796875 8.0625 
Q 21.484375 6.890625 26.703125 6.890625 
Q 35.15625 6.890625 40.078125 11.328125 
Q 45.015625 15.765625 45.015625 23.390625 
Q 45.015625 31 40.078125 35.4375 
Q 35.15625 39.890625 26.703125 39.890625 
Q 22.75 39.890625 18.8125 39.015625 
Q 14.890625 38.140625 10.796875 36.28125 
z
" id="DejaVuSans-53"/>
      </defs>
      <g style="fill:#555555;" transform="translate(182.967343 214.692983)scale(0.1 -0.1)">
       <use xlink:href="#DejaVuSans-53"/>
       <use x="63.623047" xlink:href="#DejaVuSans-48"/>
      </g>
     </g>
    </g>
    <g id="xtick_3">
     <g id="line2d_5">
      <path clip-path="url(#pc8084234c4)" d="M 286.712042 200.094545 
L 286.712042 51.84 
" style="fill:none;stroke:#ffffff;stroke-linecap:square;stroke-width:0.8;"/>
     </g>
     <g id="line2d_6">
      <g>
       <use style="fill:#555555;stroke:#555555;stroke-width:0.8;" x="286.712042" xlink:href="#m5300fb7730" y="200.094545"/>
      </g>
     </g>
     <g id="text_3">
      <!-- 100 -->
      <defs>
       <path d="M 12.40625 8.296875 
L 28.515625 8.296875 
L 28.515625 63.921875 
L 10.984375 60.40625 
L 10.984375 69.390625 
L 28.421875 72.90625 
L 38.28125 72.90625 
L 38.28125 8.296875 
L 54.390625 8.296875 
L 54.390625 0 
L 12.40625 0 
z
" id="DejaVuSans-49"/>
      </defs>
      <g style="fill:#555555;" transform="translate(277.168292 214.692983)scale(0.1 -0.1)">
       <use xlink:href="#DejaVuSans-49"/>
       <use x="63.623047" xlink:href="#DejaVuSans-48"/>
       <use x="127.246094" xlink:href="#DejaVuSans-48"/>
      </g>
     </g>
    </g>
    <g id="xtick_4">
     <g id="line2d_7">
      <path clip-path="url(#pc8084234c4)" d="M 384.094241 200.094545 
L 384.094241 51.84 
" style="fill:none;stroke:#ffffff;stroke-linecap:square;stroke-width:0.8;"/>
     </g>
     <g id="line2d_8">
      <g>
       <use style="fill:#555555;stroke:#555555;stroke-width:0.8;" x="384.094241" xlink:href="#m5300fb7730" y="200.094545"/>
      </g>
     </g>
     <g id="text_4">
      <!-- 150 -->
      <g style="fill:#555555;" transform="translate(374.550491 214.692983)scale(0.1 -0.1)">
       <use xlink:href="#DejaVuSans-49"/>
       <use x="63.623047" xlink:href="#DejaVuSans-53"/>
       <use x="127.246094" xlink:href="#DejaVuSans-48"/>
      </g>
     </g>
    </g>
    <g id="xtick_5">
     <g id="line2d_9">
      <path clip-path="url(#pc8084234c4)" d="M 481.47644 200.094545 
L 481.47644 51.84 
" style="fill:none;stroke:#ffffff;stroke-linecap:square;stroke-width:0.8;"/>
     </g>
     <g id="line2d_10">
      <g>
       <use style="fill:#555555;stroke:#555555;stroke-width:0.8;" x="481.47644" xlink:href="#m5300fb7730" y="200.094545"/>
      </g>
     </g>
     <g id="text_5">
      <!-- 200 -->
      <defs>
       <path d="M 19.1875 8.296875 
L 53.609375 8.296875 
L 53.609375 0 
L 7.328125 0 
L 7.328125 8.296875 
Q 12.9375 14.109375 22.625 23.890625 
Q 32.328125 33.6875 34.8125 36.53125 
Q 39.546875 41.84375 41.421875 45.53125 
Q 43.3125 49.21875 43.3125 52.78125 
Q 43.3125 58.59375 39.234375 62.25 
Q 35.15625 65.921875 28.609375 65.921875 
Q 23.96875 65.921875 18.8125 64.3125 
Q 13.671875 62.703125 7.8125 59.421875 
L 7.8125 69.390625 
Q 13.765625 71.78125 18.9375 73 
Q 24.125 74.21875 28.421875 74.21875 
Q 39.75 74.21875 46.484375 68.546875 
Q 53.21875 62.890625 53.21875 53.421875 
Q 53.21875 48.921875 51.53125 44.890625 
Q 49.859375 40.875 45.40625 35.40625 
Q 44.1875 33.984375 37.640625 27.21875 
Q 31.109375 20.453125 19.1875 8.296875 
z
" id="DejaVuSans-50"/>
      </defs>
      <g style="fill:#555555;" transform="translate(471.93269 214.692983)scale(0.1 -0.1)">
       <use xlink:href="#DejaVuSans-50"/>
       <use x="63.623047" xlink:href="#DejaVuSans-48"/>
       <use x="127.246094" xlink:href="#DejaVuSans-48"/>
      </g>
     </g>
    </g>
    <g id="xtick_6">
     <g id="line2d_11">
      <path clip-path="url(#pc8084234c4)" d="M 578.858639 200.094545 
L 578.858639 51.84 
" style="fill:none;stroke:#ffffff;stroke-linecap:square;stroke-width:0.8;"/>
     </g>
     <g id="line2d_12">
      <g>
       <use style="fill:#555555;stroke:#555555;stroke-width:0.8;" x="578.858639" xlink:href="#m5300fb7730" y="200.094545"/>
      </g>
     </g>
     <g id="text_6">
      <!-- 250 -->
      <g style="fill:#555555;" transform="translate(569.314889 214.692983)scale(0.1 -0.1)">
       <use xlink:href="#DejaVuSans-50"/>
       <use x="63.623047" xlink:href="#DejaVuSans-53"/>
       <use x="127.246094" xlink:href="#DejaVuSans-48"/>
      </g>
     </g>
    </g>
    <g id="text_7">
     <!-- days since 10 cases -->
     <defs>
      <path d="M 45.40625 46.390625 
L 45.40625 75.984375 
L 54.390625 75.984375 
L 54.390625 0 
L 45.40625 0 
L 45.40625 8.203125 
Q 42.578125 3.328125 38.25 0.953125 
Q 33.9375 -1.421875 27.875 -1.421875 
Q 17.96875 -1.421875 11.734375 6.484375 
Q 5.515625 14.40625 5.515625 27.296875 
Q 5.515625 40.1875 11.734375 48.09375 
Q 17.96875 56 27.875 56 
Q 33.9375 56 38.25 53.625 
Q 42.578125 51.265625 45.40625 46.390625 
z
M 14.796875 27.296875 
Q 14.796875 17.390625 18.875 11.75 
Q 22.953125 6.109375 30.078125 6.109375 
Q 37.203125 6.109375 41.296875 11.75 
Q 45.40625 17.390625 45.40625 27.296875 
Q 45.40625 37.203125 41.296875 42.84375 
Q 37.203125 48.484375 30.078125 48.484375 
Q 22.953125 48.484375 18.875 42.84375 
Q 14.796875 37.203125 14.796875 27.296875 
z
" id="DejaVuSans-100"/>
      <path d="M 34.28125 27.484375 
Q 23.390625 27.484375 19.1875 25 
Q 14.984375 22.515625 14.984375 16.5 
Q 14.984375 11.71875 18.140625 8.90625 
Q 21.296875 6.109375 26.703125 6.109375 
Q 34.1875 6.109375 38.703125 11.40625 
Q 43.21875 16.703125 43.21875 25.484375 
L 43.21875 27.484375 
z
M 52.203125 31.203125 
L 52.203125 0 
L 43.21875 0 
L 43.21875 8.296875 
Q 40.140625 3.328125 35.546875 0.953125 
Q 30.953125 -1.421875 24.3125 -1.421875 
Q 15.921875 -1.421875 10.953125 3.296875 
Q 6 8.015625 6 15.921875 
Q 6 25.140625 12.171875 29.828125 
Q 18.359375 34.515625 30.609375 34.515625 
L 43.21875 34.515625 
L 43.21875 35.40625 
Q 43.21875 41.609375 39.140625 45 
Q 35.0625 48.390625 27.6875 48.390625 
Q 23 48.390625 18.546875 47.265625 
Q 14.109375 46.140625 10.015625 43.890625 
L 10.015625 52.203125 
Q 14.9375 54.109375 19.578125 55.046875 
Q 24.21875 56 28.609375 56 
Q 40.484375 56 46.34375 49.84375 
Q 52.203125 43.703125 52.203125 31.203125 
z
" id="DejaVuSans-97"/>
      <path d="M 32.171875 -5.078125 
Q 28.375 -14.84375 24.75 -17.8125 
Q 21.140625 -20.796875 15.09375 -20.796875 
L 7.90625 -20.796875 
L 7.90625 -13.28125 
L 13.1875 -13.28125 
Q 16.890625 -13.28125 18.9375 -11.515625 
Q 21 -9.765625 23.484375 -3.21875 
L 25.09375 0.875 
L 2.984375 54.6875 
L 12.5 54.6875 
L 29.59375 11.921875 
L 46.6875 54.6875 
L 56.203125 54.6875 
z
" id="DejaVuSans-121"/>
      <path d="M 44.28125 53.078125 
L 44.28125 44.578125 
Q 40.484375 46.53125 36.375 47.5 
Q 32.28125 48.484375 27.875 48.484375 
Q 21.1875 48.484375 17.84375 46.4375 
Q 14.5 44.390625 14.5 40.28125 
Q 14.5 37.15625 16.890625 35.375 
Q 19.28125 33.59375 26.515625 31.984375 
L 29.59375 31.296875 
Q 39.15625 29.25 43.1875 25.515625 
Q 47.21875 21.78125 47.21875 15.09375 
Q 47.21875 7.46875 41.1875 3.015625 
Q 35.15625 -1.421875 24.609375 -1.421875 
Q 20.21875 -1.421875 15.453125 -0.5625 
Q 10.6875 0.296875 5.421875 2 
L 5.421875 11.28125 
Q 10.40625 8.6875 15.234375 7.390625 
Q 20.0625 6.109375 24.8125 6.109375 
Q 31.15625 6.109375 34.5625 8.28125 
Q 37.984375 10.453125 37.984375 14.40625 
Q 37.984375 18.0625 35.515625 20.015625 
Q 33.0625 21.96875 24.703125 23.78125 
L 21.578125 24.515625 
Q 13.234375 26.265625 9.515625 29.90625 
Q 5.8125 33.546875 5.8125 39.890625 
Q 5.8125 47.609375 11.28125 51.796875 
Q 16.75 56 26.8125 56 
Q 31.78125 56 36.171875 55.265625 
Q 40.578125 54.546875 44.28125 53.078125 
z
" id="DejaVuSans-115"/>
      <path id="DejaVuSans-32"/>
      <path d="M 9.421875 54.6875 
L 18.40625 54.6875 
L 18.40625 0 
L 9.421875 0 
z
M 9.421875 75.984375 
L 18.40625 75.984375 
L 18.40625 64.59375 
L 9.421875 64.59375 
z
" id="DejaVuSans-105"/>
      <path d="M 54.890625 33.015625 
L 54.890625 0 
L 45.90625 0 
L 45.90625 32.71875 
Q 45.90625 40.484375 42.875 44.328125 
Q 39.84375 48.1875 33.796875 48.1875 
Q 26.515625 48.1875 22.3125 43.546875 
Q 18.109375 38.921875 18.109375 30.90625 
L 18.109375 0 
L 9.078125 0 
L 9.078125 54.6875 
L 18.109375 54.6875 
L 18.109375 46.1875 
Q 21.34375 51.125 25.703125 53.5625 
Q 30.078125 56 35.796875 56 
Q 45.21875 56 50.046875 50.171875 
Q 54.890625 44.34375 54.890625 33.015625 
z
" id="DejaVuSans-110"/>
      <path d="M 48.78125 52.59375 
L 48.78125 44.1875 
Q 44.96875 46.296875 41.140625 47.34375 
Q 37.3125 48.390625 33.40625 48.390625 
Q 24.65625 48.390625 19.8125 42.84375 
Q 14.984375 37.3125 14.984375 27.296875 
Q 14.984375 17.28125 19.8125 11.734375 
Q 24.65625 6.203125 33.40625 6.203125 
Q 37.3125 6.203125 41.140625 7.25 
Q 44.96875 8.296875 48.78125 10.40625 
L 48.78125 2.09375 
Q 45.015625 0.34375 40.984375 -0.53125 
Q 36.96875 -1.421875 32.421875 -1.421875 
Q 20.0625 -1.421875 12.78125 6.34375 
Q 5.515625 14.109375 5.515625 27.296875 
Q 5.515625 40.671875 12.859375 48.328125 
Q 20.21875 56 33.015625 56 
Q 37.15625 56 41.109375 55.140625 
Q 45.0625 54.296875 48.78125 52.59375 
z
" id="DejaVuSans-99"/>
      <path d="M 56.203125 29.59375 
L 56.203125 25.203125 
L 14.890625 25.203125 
Q 15.484375 15.921875 20.484375 11.0625 
Q 25.484375 6.203125 34.421875 6.203125 
Q 39.59375 6.203125 44.453125 7.46875 
Q 49.3125 8.734375 54.109375 11.28125 
L 54.109375 2.78125 
Q 49.265625 0.734375 44.1875 -0.34375 
Q 39.109375 -1.421875 33.890625 -1.421875 
Q 20.796875 -1.421875 13.15625 6.1875 
Q 5.515625 13.8125 5.515625 26.8125 
Q 5.515625 40.234375 12.765625 48.109375 
Q 20.015625 56 32.328125 56 
Q 43.359375 56 49.78125 48.890625 
Q 56.203125 41.796875 56.203125 29.59375 
z
M 47.21875 32.234375 
Q 47.125 39.59375 43.09375 43.984375 
Q 39.0625 48.390625 32.421875 48.390625 
Q 24.90625 48.390625 20.390625 44.140625 
Q 15.875 39.890625 15.1875 32.171875 
z
" id="DejaVuSans-101"/>
     </defs>
     <g style="fill:#555555;" transform="translate(308.976562 229.890795)scale(0.12 -0.12)">
      <use xlink:href="#DejaVuSans-100"/>
      <use x="63.476562" xlink:href="#DejaVuSans-97"/>
      <use x="124.755859" xlink:href="#DejaVuSans-121"/>
      <use x="183.935547" xlink:href="#DejaVuSans-115"/>
      <use x="236.035156" xlink:href="#DejaVuSans-32"/>
      <use x="267.822266" xlink:href="#DejaVuSans-115"/>
      <use x="319.921875" xlink:href="#DejaVuSans-105"/>
      <use x="347.705078" xlink:href="#DejaVuSans-110"/>
      <use x="411.083984" xlink:href="#DejaVuSans-99"/>
      <use x="466.064453" xlink:href="#DejaVuSans-101"/>
      <use x="527.587891" xlink:href="#DejaVuSans-32"/>
      <use x="559.375" xlink:href="#DejaVuSans-49"/>
      <use x="622.998047" xlink:href="#DejaVuSans-48"/>
      <use x="686.621094" xlink:href="#DejaVuSans-32"/>
      <use x="718.408203" xlink:href="#DejaVuSans-99"/>
      <use x="773.388672" xlink:href="#DejaVuSans-97"/>
      <use x="834.667969" xlink:href="#DejaVuSans-115"/>
      <use x="886.767578" xlink:href="#DejaVuSans-101"/>
      <use x="948.291016" xlink:href="#DejaVuSans-115"/>
     </g>
    </g>
   </g>
   <g id="matplotlib.axis_2">
    <g id="ytick_1">
     <g id="line2d_13">
      <path clip-path="url(#pc8084234c4)" d="M 90 200.094545 
L 648 200.094545 
" style="fill:none;stroke:#ffffff;stroke-linecap:square;stroke-width:0.8;"/>
     </g>
     <g id="line2d_14">
      <defs>
       <path d="M 0 0 
L -3.5 0 
" id="mfb64090e9f" style="stroke:#555555;stroke-width:0.8;"/>
      </defs>
      <g>
       <use style="fill:#555555;stroke:#555555;stroke-width:0.8;" x="90" xlink:href="#mfb64090e9f" y="200.094545"/>
      </g>
     </g>
     <g id="line2d_15">
      <defs>
       <path d="M 0 0 
L 3.5 0 
" id="m7006ddcf38" style="stroke:#555555;stroke-width:0.8;"/>
      </defs>
      <g>
       <use style="fill:#555555;stroke:#555555;stroke-width:0.8;" x="648" xlink:href="#m7006ddcf38" y="200.094545"/>
      </g>
     </g>
     <g id="text_8">
      <!-- 0.01 -->
      <defs>
       <path d="M 10.6875 12.40625 
L 21 12.40625 
L 21 0 
L 10.6875 0 
z
" id="DejaVuSans-46"/>
      </defs>
      <g style="fill:#555555;" transform="translate(60.734375 203.893764)scale(0.1 -0.1)">
       <use xlink:href="#DejaVuSans-48"/>
       <use x="63.623047" xlink:href="#DejaVuSans-46"/>
       <use x="95.410156" xlink:href="#DejaVuSans-48"/>
       <use x="159.033203" xlink:href="#DejaVuSans-49"/>
      </g>
     </g>
     <g id="text_9">
      <!-- 0.01 -->
      <g style="fill:#555555;" transform="translate(655 203.893764)scale(0.1 -0.1)">
       <use xlink:href="#DejaVuSans-48"/>
       <use x="63.623047" xlink:href="#DejaVuSans-46"/>
       <use x="95.410156" xlink:href="#DejaVuSans-48"/>
       <use x="159.033203" xlink:href="#DejaVuSans-49"/>
      </g>
     </g>
    </g>
    <g id="ytick_2">
     <g id="line2d_16">
      <path clip-path="url(#pc8084234c4)" d="M 90 165.58156 
L 648 165.58156 
" style="fill:none;stroke:#ffffff;stroke-linecap:square;stroke-width:0.8;"/>
     </g>
     <g id="line2d_17">
      <g>
       <use style="fill:#555555;stroke:#555555;stroke-width:0.8;" x="90" xlink:href="#mfb64090e9f" y="165.58156"/>
      </g>
     </g>
     <g id="line2d_18">
      <g>
       <use style="fill:#555555;stroke:#555555;stroke-width:0.8;" x="648" xlink:href="#m7006ddcf38" y="165.58156"/>
      </g>
     </g>
     <g id="text_10">
      <!-- 0.1 -->
      <g style="fill:#555555;" transform="translate(67.096875 169.380779)scale(0.1 -0.1)">
       <use xlink:href="#DejaVuSans-48"/>
       <use x="63.623047" xlink:href="#DejaVuSans-46"/>
       <use x="95.410156" xlink:href="#DejaVuSans-49"/>
      </g>
     </g>
     <g id="text_11">
      <!-- 0.1 -->
      <g style="fill:#555555;" transform="translate(655 169.380779)scale(0.1 -0.1)">
       <use xlink:href="#DejaVuSans-48"/>
       <use x="63.623047" xlink:href="#DejaVuSans-46"/>
       <use x="95.410156" xlink:href="#DejaVuSans-49"/>
      </g>
     </g>
    </g>
    <g id="ytick_3">
     <g id="line2d_19">
      <path clip-path="url(#pc8084234c4)" d="M 90 131.068575 
L 648 131.068575 
" style="fill:none;stroke:#ffffff;stroke-linecap:square;stroke-width:0.8;"/>
     </g>
     <g id="line2d_20">
      <g>
       <use style="fill:#555555;stroke:#555555;stroke-width:0.8;" x="90" xlink:href="#mfb64090e9f" y="131.068575"/>
      </g>
     </g>
     <g id="line2d_21">
      <g>
       <use style="fill:#555555;stroke:#555555;stroke-width:0.8;" x="648" xlink:href="#m7006ddcf38" y="131.068575"/>
      </g>
     </g>
     <g id="text_12">
      <!-- 1 -->
      <g style="fill:#555555;" transform="translate(76.6375 134.867794)scale(0.1 -0.1)">
       <use xlink:href="#DejaVuSans-49"/>
      </g>
     </g>
     <g id="text_13">
      <!-- 1 -->
      <g style="fill:#555555;" transform="translate(655 134.867794)scale(0.1 -0.1)">
       <use xlink:href="#DejaVuSans-49"/>
      </g>
     </g>
    </g>
    <g id="ytick_4">
     <g id="line2d_22">
      <path clip-path="url(#pc8084234c4)" d="M 90 96.55559 
L 648 96.55559 
" style="fill:none;stroke:#ffffff;stroke-linecap:square;stroke-width:0.8;"/>
     </g>
     <g id="line2d_23">
      <g>
       <use style="fill:#555555;stroke:#555555;stroke-width:0.8;" x="90" xlink:href="#mfb64090e9f" y="96.55559"/>
      </g>
     </g>
     <g id="line2d_24">
      <g>
       <use style="fill:#555555;stroke:#555555;stroke-width:0.8;" x="648" xlink:href="#m7006ddcf38" y="96.55559"/>
      </g>
     </g>
     <g id="text_14">
      <!-- 10 -->
      <g style="fill:#555555;" transform="translate(70.275 100.354808)scale(0.1 -0.1)">
       <use xlink:href="#DejaVuSans-49"/>
       <use x="63.623047" xlink:href="#DejaVuSans-48"/>
      </g>
     </g>
     <g id="text_15">
      <!-- 10 -->
      <g style="fill:#555555;" transform="translate(655 100.354808)scale(0.1 -0.1)">
       <use xlink:href="#DejaVuSans-49"/>
       <use x="63.623047" xlink:href="#DejaVuSans-48"/>
      </g>
     </g>
    </g>
    <g id="ytick_5">
     <g id="line2d_25">
      <path clip-path="url(#pc8084234c4)" d="M 90 62.042604 
L 648 62.042604 
" style="fill:none;stroke:#ffffff;stroke-linecap:square;stroke-width:0.8;"/>
     </g>
     <g id="line2d_26">
      <g>
       <use style="fill:#555555;stroke:#555555;stroke-width:0.8;" x="90" xlink:href="#mfb64090e9f" y="62.042604"/>
      </g>
     </g>
     <g id="line2d_27">
      <g>
       <use style="fill:#555555;stroke:#555555;stroke-width:0.8;" x="648" xlink:href="#m7006ddcf38" y="62.042604"/>
      </g>
     </g>
     <g id="text_16">
      <!-- 100 -->
      <g style="fill:#555555;" transform="translate(63.9125 65.841823)scale(0.1 -0.1)">
       <use xlink:href="#DejaVuSans-49"/>
       <use x="63.623047" xlink:href="#DejaVuSans-48"/>
       <use x="127.246094" xlink:href="#DejaVuSans-48"/>
      </g>
     </g>
     <g id="text_17">
      <!-- 100 -->
      <g style="fill:#555555;" transform="translate(655 65.841823)scale(0.1 -0.1)">
       <use xlink:href="#DejaVuSans-49"/>
       <use x="63.623047" xlink:href="#DejaVuSans-48"/>
       <use x="127.246094" xlink:href="#DejaVuSans-48"/>
      </g>
     </g>
    </g>
    <g id="ytick_6">
     <g id="line2d_28">
      <defs>
       <path d="M 0 0 
L -2 0 
" id="m8e2d7e9705" style="stroke:#555555;stroke-width:0.6;"/>
      </defs>
      <g>
       <use style="fill:#555555;stroke:#555555;stroke-width:0.6;" x="90" xlink:href="#m8e2d7e9705" y="189.705102"/>
      </g>
     </g>
     <g id="line2d_29">
      <defs>
       <path d="M 0 0 
L 2 0 
" id="m7b0427924e" style="stroke:#555555;stroke-width:0.6;"/>
      </defs>
      <g>
       <use style="fill:#555555;stroke:#555555;stroke-width:0.6;" x="648" xlink:href="#m7b0427924e" y="189.705102"/>
      </g>
     </g>
    </g>
    <g id="ytick_7">
     <g id="line2d_30">
      <g>
       <use style="fill:#555555;stroke:#555555;stroke-width:0.6;" x="90" xlink:href="#m8e2d7e9705" y="183.627667"/>
      </g>
     </g>
     <g id="line2d_31">
      <g>
       <use style="fill:#555555;stroke:#555555;stroke-width:0.6;" x="648" xlink:href="#m7b0427924e" y="183.627667"/>
      </g>
     </g>
    </g>
    <g id="ytick_8">
     <g id="line2d_32">
      <g>
       <use style="fill:#555555;stroke:#555555;stroke-width:0.6;" x="90" xlink:href="#m8e2d7e9705" y="179.315658"/>
      </g>
     </g>
     <g id="line2d_33">
      <g>
       <use style="fill:#555555;stroke:#555555;stroke-width:0.6;" x="648" xlink:href="#m7b0427924e" y="179.315658"/>
      </g>
     </g>
    </g>
    <g id="ytick_9">
     <g id="line2d_34">
      <g>
       <use style="fill:#555555;stroke:#555555;stroke-width:0.6;" x="90" xlink:href="#m8e2d7e9705" y="175.971004"/>
      </g>
     </g>
     <g id="line2d_35">
      <g>
       <use style="fill:#555555;stroke:#555555;stroke-width:0.6;" x="648" xlink:href="#m7b0427924e" y="175.971004"/>
      </g>
     </g>
    </g>
    <g id="ytick_10">
     <g id="line2d_36">
      <g>
       <use style="fill:#555555;stroke:#555555;stroke-width:0.6;" x="90" xlink:href="#m8e2d7e9705" y="173.238223"/>
      </g>
     </g>
     <g id="line2d_37">
      <g>
       <use style="fill:#555555;stroke:#555555;stroke-width:0.6;" x="648" xlink:href="#m7b0427924e" y="173.238223"/>
      </g>
     </g>
    </g>
    <g id="ytick_11">
     <g id="line2d_38">
      <g>
       <use style="fill:#555555;stroke:#555555;stroke-width:0.6;" x="90" xlink:href="#m8e2d7e9705" y="170.927689"/>
      </g>
     </g>
     <g id="line2d_39">
      <g>
       <use style="fill:#555555;stroke:#555555;stroke-width:0.6;" x="648" xlink:href="#m7b0427924e" y="170.927689"/>
      </g>
     </g>
    </g>
    <g id="ytick_12">
     <g id="line2d_40">
      <g>
       <use style="fill:#555555;stroke:#555555;stroke-width:0.6;" x="90" xlink:href="#m8e2d7e9705" y="168.926214"/>
      </g>
     </g>
     <g id="line2d_41">
      <g>
       <use style="fill:#555555;stroke:#555555;stroke-width:0.6;" x="648" xlink:href="#m7b0427924e" y="168.926214"/>
      </g>
     </g>
    </g>
    <g id="ytick_13">
     <g id="line2d_42">
      <g>
       <use style="fill:#555555;stroke:#555555;stroke-width:0.6;" x="90" xlink:href="#m8e2d7e9705" y="167.160788"/>
      </g>
     </g>
     <g id="line2d_43">
      <g>
       <use style="fill:#555555;stroke:#555555;stroke-width:0.6;" x="648" xlink:href="#m7b0427924e" y="167.160788"/>
      </g>
     </g>
    </g>
    <g id="ytick_14">
     <g id="line2d_44">
      <g>
       <use style="fill:#555555;stroke:#555555;stroke-width:0.6;" x="90" xlink:href="#m8e2d7e9705" y="155.192116"/>
      </g>
     </g>
     <g id="line2d_45">
      <g>
       <use style="fill:#555555;stroke:#555555;stroke-width:0.6;" x="648" xlink:href="#m7b0427924e" y="155.192116"/>
      </g>
     </g>
    </g>
    <g id="ytick_15">
     <g id="line2d_46">
      <g>
       <use style="fill:#555555;stroke:#555555;stroke-width:0.6;" x="90" xlink:href="#m8e2d7e9705" y="149.114681"/>
      </g>
     </g>
     <g id="line2d_47">
      <g>
       <use style="fill:#555555;stroke:#555555;stroke-width:0.6;" x="648" xlink:href="#m7b0427924e" y="149.114681"/>
      </g>
     </g>
    </g>
    <g id="ytick_16">
     <g id="line2d_48">
      <g>
       <use style="fill:#555555;stroke:#555555;stroke-width:0.6;" x="90" xlink:href="#m8e2d7e9705" y="144.802673"/>
      </g>
     </g>
     <g id="line2d_49">
      <g>
       <use style="fill:#555555;stroke:#555555;stroke-width:0.6;" x="648" xlink:href="#m7b0427924e" y="144.802673"/>
      </g>
     </g>
    </g>
    <g id="ytick_17">
     <g id="line2d_50">
      <g>
       <use style="fill:#555555;stroke:#555555;stroke-width:0.6;" x="90" xlink:href="#m8e2d7e9705" y="141.458019"/>
      </g>
     </g>
     <g id="line2d_51">
      <g>
       <use style="fill:#555555;stroke:#555555;stroke-width:0.6;" x="648" xlink:href="#m7b0427924e" y="141.458019"/>
      </g>
     </g>
    </g>
    <g id="ytick_18">
     <g id="line2d_52">
      <g>
       <use style="fill:#555555;stroke:#555555;stroke-width:0.6;" x="90" xlink:href="#m8e2d7e9705" y="138.725238"/>
      </g>
     </g>
     <g id="line2d_53">
      <g>
       <use style="fill:#555555;stroke:#555555;stroke-width:0.6;" x="648" xlink:href="#m7b0427924e" y="138.725238"/>
      </g>
     </g>
    </g>
    <g id="ytick_19">
     <g id="line2d_54">
      <g>
       <use style="fill:#555555;stroke:#555555;stroke-width:0.6;" x="90" xlink:href="#m8e2d7e9705" y="136.414704"/>
      </g>
     </g>
     <g id="line2d_55">
      <g>
       <use style="fill:#555555;stroke:#555555;stroke-width:0.6;" x="648" xlink:href="#m7b0427924e" y="136.414704"/>
      </g>
     </g>
    </g>
    <g id="ytick_20">
     <g id="line2d_56">
      <g>
       <use style="fill:#555555;stroke:#555555;stroke-width:0.6;" x="90" xlink:href="#m8e2d7e9705" y="134.413229"/>
      </g>
     </g>
     <g id="line2d_57">
      <g>
       <use style="fill:#555555;stroke:#555555;stroke-width:0.6;" x="648" xlink:href="#m7b0427924e" y="134.413229"/>
      </g>
     </g>
    </g>
    <g id="ytick_21">
     <g id="line2d_58">
      <g>
       <use style="fill:#555555;stroke:#555555;stroke-width:0.6;" x="90" xlink:href="#m8e2d7e9705" y="132.647803"/>
      </g>
     </g>
     <g id="line2d_59">
      <g>
       <use style="fill:#555555;stroke:#555555;stroke-width:0.6;" x="648" xlink:href="#m7b0427924e" y="132.647803"/>
      </g>
     </g>
    </g>
    <g id="ytick_22">
     <g id="line2d_60">
      <g>
       <use style="fill:#555555;stroke:#555555;stroke-width:0.6;" x="90" xlink:href="#m8e2d7e9705" y="120.679131"/>
      </g>
     </g>
     <g id="line2d_61">
      <g>
       <use style="fill:#555555;stroke:#555555;stroke-width:0.6;" x="648" xlink:href="#m7b0427924e" y="120.679131"/>
      </g>
     </g>
    </g>
    <g id="ytick_23">
     <g id="line2d_62">
      <g>
       <use style="fill:#555555;stroke:#555555;stroke-width:0.6;" x="90" xlink:href="#m8e2d7e9705" y="114.601696"/>
      </g>
     </g>
     <g id="line2d_63">
      <g>
       <use style="fill:#555555;stroke:#555555;stroke-width:0.6;" x="648" xlink:href="#m7b0427924e" y="114.601696"/>
      </g>
     </g>
    </g>
    <g id="ytick_24">
     <g id="line2d_64">
      <g>
       <use style="fill:#555555;stroke:#555555;stroke-width:0.6;" x="90" xlink:href="#m8e2d7e9705" y="110.289687"/>
      </g>
     </g>
     <g id="line2d_65">
      <g>
       <use style="fill:#555555;stroke:#555555;stroke-width:0.6;" x="648" xlink:href="#m7b0427924e" y="110.289687"/>
      </g>
     </g>
    </g>
    <g id="ytick_25">
     <g id="line2d_66">
      <g>
       <use style="fill:#555555;stroke:#555555;stroke-width:0.6;" x="90" xlink:href="#m8e2d7e9705" y="106.945033"/>
      </g>
     </g>
     <g id="line2d_67">
      <g>
       <use style="fill:#555555;stroke:#555555;stroke-width:0.6;" x="648" xlink:href="#m7b0427924e" y="106.945033"/>
      </g>
     </g>
    </g>
    <g id="ytick_26">
     <g id="line2d_68">
      <g>
       <use style="fill:#555555;stroke:#555555;stroke-width:0.6;" x="90" xlink:href="#m8e2d7e9705" y="104.212252"/>
      </g>
     </g>
     <g id="line2d_69">
      <g>
       <use style="fill:#555555;stroke:#555555;stroke-width:0.6;" x="648" xlink:href="#m7b0427924e" y="104.212252"/>
      </g>
     </g>
    </g>
    <g id="ytick_27">
     <g id="line2d_70">
      <g>
       <use style="fill:#555555;stroke:#555555;stroke-width:0.6;" x="90" xlink:href="#m8e2d7e9705" y="101.901719"/>
      </g>
     </g>
     <g id="line2d_71">
      <g>
       <use style="fill:#555555;stroke:#555555;stroke-width:0.6;" x="648" xlink:href="#m7b0427924e" y="101.901719"/>
      </g>
     </g>
    </g>
    <g id="ytick_28">
     <g id="line2d_72">
      <g>
       <use style="fill:#555555;stroke:#555555;stroke-width:0.6;" x="90" xlink:href="#m8e2d7e9705" y="99.900243"/>
      </g>
     </g>
     <g id="line2d_73">
      <g>
       <use style="fill:#555555;stroke:#555555;stroke-width:0.6;" x="648" xlink:href="#m7b0427924e" y="99.900243"/>
      </g>
     </g>
    </g>
    <g id="ytick_29">
     <g id="line2d_74">
      <g>
       <use style="fill:#555555;stroke:#555555;stroke-width:0.6;" x="90" xlink:href="#m8e2d7e9705" y="98.134817"/>
      </g>
     </g>
     <g id="line2d_75">
      <g>
       <use style="fill:#555555;stroke:#555555;stroke-width:0.6;" x="648" xlink:href="#m7b0427924e" y="98.134817"/>
      </g>
     </g>
    </g>
    <g id="ytick_30">
     <g id="line2d_76">
      <g>
       <use style="fill:#555555;stroke:#555555;stroke-width:0.6;" x="90" xlink:href="#m8e2d7e9705" y="86.166146"/>
      </g>
     </g>
     <g id="line2d_77">
      <g>
       <use style="fill:#555555;stroke:#555555;stroke-width:0.6;" x="648" xlink:href="#m7b0427924e" y="86.166146"/>
      </g>
     </g>
    </g>
    <g id="ytick_31">
     <g id="line2d_78">
      <g>
       <use style="fill:#555555;stroke:#555555;stroke-width:0.6;" x="90" xlink:href="#m8e2d7e9705" y="80.088711"/>
      </g>
     </g>
     <g id="line2d_79">
      <g>
       <use style="fill:#555555;stroke:#555555;stroke-width:0.6;" x="648" xlink:href="#m7b0427924e" y="80.088711"/>
      </g>
     </g>
    </g>
    <g id="ytick_32">
     <g id="line2d_80">
      <g>
       <use style="fill:#555555;stroke:#555555;stroke-width:0.6;" x="90" xlink:href="#m8e2d7e9705" y="75.776702"/>
      </g>
     </g>
     <g id="line2d_81">
      <g>
       <use style="fill:#555555;stroke:#555555;stroke-width:0.6;" x="648" xlink:href="#m7b0427924e" y="75.776702"/>
      </g>
     </g>
    </g>
    <g id="ytick_33">
     <g id="line2d_82">
      <g>
       <use style="fill:#555555;stroke:#555555;stroke-width:0.6;" x="90" xlink:href="#m8e2d7e9705" y="72.432048"/>
      </g>
     </g>
     <g id="line2d_83">
      <g>
       <use style="fill:#555555;stroke:#555555;stroke-width:0.6;" x="648" xlink:href="#m7b0427924e" y="72.432048"/>
      </g>
     </g>
    </g>
    <g id="ytick_34">
     <g id="line2d_84">
      <g>
       <use style="fill:#555555;stroke:#555555;stroke-width:0.6;" x="90" xlink:href="#m8e2d7e9705" y="69.699267"/>
      </g>
     </g>
     <g id="line2d_85">
      <g>
       <use style="fill:#555555;stroke:#555555;stroke-width:0.6;" x="648" xlink:href="#m7b0427924e" y="69.699267"/>
      </g>
     </g>
    </g>
    <g id="ytick_35">
     <g id="line2d_86">
      <g>
       <use style="fill:#555555;stroke:#555555;stroke-width:0.6;" x="90" xlink:href="#m8e2d7e9705" y="67.388733"/>
      </g>
     </g>
     <g id="line2d_87">
      <g>
       <use style="fill:#555555;stroke:#555555;stroke-width:0.6;" x="648" xlink:href="#m7b0427924e" y="67.388733"/>
      </g>
     </g>
    </g>
    <g id="ytick_36">
     <g id="line2d_88">
      <g>
       <use style="fill:#555555;stroke:#555555;stroke-width:0.6;" x="90" xlink:href="#m8e2d7e9705" y="65.387258"/>
      </g>
     </g>
     <g id="line2d_89">
      <g>
       <use style="fill:#555555;stroke:#555555;stroke-width:0.6;" x="648" xlink:href="#m7b0427924e" y="65.387258"/>
      </g>
     </g>
    </g>
    <g id="ytick_37">
     <g id="line2d_90">
      <g>
       <use style="fill:#555555;stroke:#555555;stroke-width:0.6;" x="90" xlink:href="#m8e2d7e9705" y="63.621832"/>
      </g>
     </g>
     <g id="line2d_91">
      <g>
       <use style="fill:#555555;stroke:#555555;stroke-width:0.6;" x="648" xlink:href="#m7b0427924e" y="63.621832"/>
      </g>
     </g>
    </g>
    <g id="text_18">
     <!-- daily new cases -->
     <defs>
      <path d="M 9.421875 75.984375 
L 18.40625 75.984375 
L 18.40625 0 
L 9.421875 0 
z
" id="DejaVuSans-108"/>
      <path d="M 4.203125 54.6875 
L 13.1875 54.6875 
L 24.421875 12.015625 
L 35.59375 54.6875 
L 46.1875 54.6875 
L 57.421875 12.015625 
L 68.609375 54.6875 
L 77.59375 54.6875 
L 63.28125 0 
L 52.6875 0 
L 40.921875 44.828125 
L 29.109375 0 
L 18.5 0 
z
" id="DejaVuSans-119"/>
     </defs>
     <g style="fill:#555555;" transform="translate(27.364 173.472273)rotate(-90)scale(0.12 -0.12)">
      <use xlink:href="#DejaVuSans-100"/>
      <use x="63.476562" xlink:href="#DejaVuSans-97"/>
      <use x="124.755859" xlink:href="#DejaVuSans-105"/>
      <use x="152.539062" xlink:href="#DejaVuSans-108"/>
      <use x="180.322266" xlink:href="#DejaVuSans-121"/>
      <use x="239.501953" xlink:href="#DejaVuSans-32"/>
      <use x="271.289062" xlink:href="#DejaVuSans-110"/>
      <use x="334.667969" xlink:href="#DejaVuSans-101"/>
      <use x="396.191406" xlink:href="#DejaVuSans-119"/>
      <use x="477.978516" xlink:href="#DejaVuSans-32"/>
      <use x="509.765625" xlink:href="#DejaVuSans-99"/>
      <use x="564.746094" xlink:href="#DejaVuSans-97"/>
      <use x="626.025391" xlink:href="#DejaVuSans-115"/>
      <use x="678.125" xlink:href="#DejaVuSans-101"/>
      <use x="739.648438" xlink:href="#DejaVuSans-115"/>
     </g>
     <!-- per 100K people -->
     <defs>
      <path d="M 18.109375 8.203125 
L 18.109375 -20.796875 
L 9.078125 -20.796875 
L 9.078125 54.6875 
L 18.109375 54.6875 
L 18.109375 46.390625 
Q 20.953125 51.265625 25.265625 53.625 
Q 29.59375 56 35.59375 56 
Q 45.5625 56 51.78125 48.09375 
Q 58.015625 40.1875 58.015625 27.296875 
Q 58.015625 14.40625 51.78125 6.484375 
Q 45.5625 -1.421875 35.59375 -1.421875 
Q 29.59375 -1.421875 25.265625 0.953125 
Q 20.953125 3.328125 18.109375 8.203125 
z
M 48.6875 27.296875 
Q 48.6875 37.203125 44.609375 42.84375 
Q 40.53125 48.484375 33.40625 48.484375 
Q 26.265625 48.484375 22.1875 42.84375 
Q 18.109375 37.203125 18.109375 27.296875 
Q 18.109375 17.390625 22.1875 11.75 
Q 26.265625 6.109375 33.40625 6.109375 
Q 40.53125 6.109375 44.609375 11.75 
Q 48.6875 17.390625 48.6875 27.296875 
z
" id="DejaVuSans-112"/>
      <path d="M 41.109375 46.296875 
Q 39.59375 47.171875 37.8125 47.578125 
Q 36.03125 48 33.890625 48 
Q 26.265625 48 22.1875 43.046875 
Q 18.109375 38.09375 18.109375 28.8125 
L 18.109375 0 
L 9.078125 0 
L 9.078125 54.6875 
L 18.109375 54.6875 
L 18.109375 46.1875 
Q 20.953125 51.171875 25.484375 53.578125 
Q 30.03125 56 36.53125 56 
Q 37.453125 56 38.578125 55.875 
Q 39.703125 55.765625 41.0625 55.515625 
z
" id="DejaVuSans-114"/>
      <path d="M 9.8125 72.90625 
L 19.671875 72.90625 
L 19.671875 42.09375 
L 52.390625 72.90625 
L 65.09375 72.90625 
L 28.90625 38.921875 
L 67.671875 0 
L 54.6875 0 
L 19.671875 35.109375 
L 19.671875 0 
L 9.8125 0 
z
" id="DejaVuSans-75"/>
      <path d="M 30.609375 48.390625 
Q 23.390625 48.390625 19.1875 42.75 
Q 14.984375 37.109375 14.984375 27.296875 
Q 14.984375 17.484375 19.15625 11.84375 
Q 23.34375 6.203125 30.609375 6.203125 
Q 37.796875 6.203125 41.984375 11.859375 
Q 46.1875 17.53125 46.1875 27.296875 
Q 46.1875 37.015625 41.984375 42.703125 
Q 37.796875 48.390625 30.609375 48.390625 
z
M 30.609375 56 
Q 42.328125 56 49.015625 48.375 
Q 55.71875 40.765625 55.71875 27.296875 
Q 55.71875 13.875 49.015625 6.21875 
Q 42.328125 -1.421875 30.609375 -1.421875 
Q 18.84375 -1.421875 12.171875 6.21875 
Q 5.515625 13.875 5.515625 27.296875 
Q 5.515625 40.765625 12.171875 48.375 
Q 18.84375 56 30.609375 56 
z
" id="DejaVuSans-111"/>
     </defs>
     <g style="fill:#555555;" transform="translate(40.801375 175.47571)rotate(-90)scale(0.12 -0.12)">
      <use xlink:href="#DejaVuSans-112"/>
      <use x="63.476562" xlink:href="#DejaVuSans-101"/>
      <use x="125" xlink:href="#DejaVuSans-114"/>
      <use x="166.113281" xlink:href="#DejaVuSans-32"/>
      <use x="197.900391" xlink:href="#DejaVuSans-49"/>
      <use x="261.523438" xlink:href="#DejaVuSans-48"/>
      <use x="325.146484" xlink:href="#DejaVuSans-48"/>
      <use x="388.769531" xlink:href="#DejaVuSans-75"/>
      <use x="454.345703" xlink:href="#DejaVuSans-32"/>
      <use x="486.132812" xlink:href="#DejaVuSans-112"/>
      <use x="549.609375" xlink:href="#DejaVuSans-101"/>
      <use x="611.132812" xlink:href="#DejaVuSans-111"/>
      <use x="672.314453" xlink:href="#DejaVuSans-112"/>
      <use x="735.791016" xlink:href="#DejaVuSans-108"/>
      <use x="763.574219" xlink:href="#DejaVuSans-101"/>
     </g>
     <!-- (rolling 7-day mean) -->
     <defs>
      <path d="M 31 75.875 
Q 24.46875 64.65625 21.28125 53.65625 
Q 18.109375 42.671875 18.109375 31.390625 
Q 18.109375 20.125 21.3125 9.0625 
Q 24.515625 -2 31 -13.1875 
L 23.1875 -13.1875 
Q 15.875 -1.703125 12.234375 9.375 
Q 8.59375 20.453125 8.59375 31.390625 
Q 8.59375 42.28125 12.203125 53.3125 
Q 15.828125 64.359375 23.1875 75.875 
z
" id="DejaVuSans-40"/>
      <path d="M 45.40625 27.984375 
Q 45.40625 37.75 41.375 43.109375 
Q 37.359375 48.484375 30.078125 48.484375 
Q 22.859375 48.484375 18.828125 43.109375 
Q 14.796875 37.75 14.796875 27.984375 
Q 14.796875 18.265625 18.828125 12.890625 
Q 22.859375 7.515625 30.078125 7.515625 
Q 37.359375 7.515625 41.375 12.890625 
Q 45.40625 18.265625 45.40625 27.984375 
z
M 54.390625 6.78125 
Q 54.390625 -7.171875 48.1875 -13.984375 
Q 42 -20.796875 29.203125 -20.796875 
Q 24.46875 -20.796875 20.265625 -20.09375 
Q 16.0625 -19.390625 12.109375 -17.921875 
L 12.109375 -9.1875 
Q 16.0625 -11.328125 19.921875 -12.34375 
Q 23.78125 -13.375 27.78125 -13.375 
Q 36.625 -13.375 41.015625 -8.765625 
Q 45.40625 -4.15625 45.40625 5.171875 
L 45.40625 9.625 
Q 42.625 4.78125 38.28125 2.390625 
Q 33.9375 0 27.875 0 
Q 17.828125 0 11.671875 7.65625 
Q 5.515625 15.328125 5.515625 27.984375 
Q 5.515625 40.671875 11.671875 48.328125 
Q 17.828125 56 27.875 56 
Q 33.9375 56 38.28125 53.609375 
Q 42.625 51.21875 45.40625 46.390625 
L 45.40625 54.6875 
L 54.390625 54.6875 
z
" id="DejaVuSans-103"/>
      <path d="M 8.203125 72.90625 
L 55.078125 72.90625 
L 55.078125 68.703125 
L 28.609375 0 
L 18.3125 0 
L 43.21875 64.59375 
L 8.203125 64.59375 
z
" id="DejaVuSans-55"/>
      <path d="M 4.890625 31.390625 
L 31.203125 31.390625 
L 31.203125 23.390625 
L 4.890625 23.390625 
z
" id="DejaVuSans-45"/>
      <path d="M 52 44.1875 
Q 55.375 50.25 60.0625 53.125 
Q 64.75 56 71.09375 56 
Q 79.640625 56 84.28125 50.015625 
Q 88.921875 44.046875 88.921875 33.015625 
L 88.921875 0 
L 79.890625 0 
L 79.890625 32.71875 
Q 79.890625 40.578125 77.09375 44.375 
Q 74.3125 48.1875 68.609375 48.1875 
Q 61.625 48.1875 57.5625 43.546875 
Q 53.515625 38.921875 53.515625 30.90625 
L 53.515625 0 
L 44.484375 0 
L 44.484375 32.71875 
Q 44.484375 40.625 41.703125 44.40625 
Q 38.921875 48.1875 33.109375 48.1875 
Q 26.21875 48.1875 22.15625 43.53125 
Q 18.109375 38.875 18.109375 30.90625 
L 18.109375 0 
L 9.078125 0 
L 9.078125 54.6875 
L 18.109375 54.6875 
L 18.109375 46.1875 
Q 21.1875 51.21875 25.484375 53.609375 
Q 29.78125 56 35.6875 56 
Q 41.65625 56 45.828125 52.96875 
Q 50 49.953125 52 44.1875 
z
" id="DejaVuSans-109"/>
      <path d="M 8.015625 75.875 
L 15.828125 75.875 
Q 23.140625 64.359375 26.78125 53.3125 
Q 30.421875 42.28125 30.421875 31.390625 
Q 30.421875 20.453125 26.78125 9.375 
Q 23.140625 -1.703125 15.828125 -13.1875 
L 8.015625 -13.1875 
Q 14.5 -2 17.703125 9.0625 
Q 20.90625 20.125 20.90625 31.390625 
Q 20.90625 42.671875 17.703125 53.65625 
Q 14.5 64.65625 8.015625 75.875 
z
" id="DejaVuSans-41"/>
     </defs>
     <g style="fill:#555555;" transform="translate(54.23875 187.112898)rotate(-90)scale(0.12 -0.12)">
      <use xlink:href="#DejaVuSans-40"/>
      <use x="39.013672" xlink:href="#DejaVuSans-114"/>
      <use x="77.876953" xlink:href="#DejaVuSans-111"/>
      <use x="139.058594" xlink:href="#DejaVuSans-108"/>
      <use x="166.841797" xlink:href="#DejaVuSans-108"/>
      <use x="194.625" xlink:href="#DejaVuSans-105"/>
      <use x="222.408203" xlink:href="#DejaVuSans-110"/>
      <use x="285.787109" xlink:href="#DejaVuSans-103"/>
      <use x="349.263672" xlink:href="#DejaVuSans-32"/>
      <use x="381.050781" xlink:href="#DejaVuSans-55"/>
      <use x="444.673828" xlink:href="#DejaVuSans-45"/>
      <use x="480.757812" xlink:href="#DejaVuSans-100"/>
      <use x="544.234375" xlink:href="#DejaVuSans-97"/>
      <use x="605.513672" xlink:href="#DejaVuSans-121"/>
      <use x="664.693359" xlink:href="#DejaVuSans-32"/>
      <use x="696.480469" xlink:href="#DejaVuSans-109"/>
      <use x="793.892578" xlink:href="#DejaVuSans-101"/>
      <use x="855.416016" xlink:href="#DejaVuSans-97"/>
      <use x="916.695312" xlink:href="#DejaVuSans-110"/>
      <use x="980.074219" xlink:href="#DejaVuSans-41"/>
     </g>
    </g>
   </g>
   <g id="line2d_92">
    <path clip-path="url(#pc8084234c4)" d="M 49.099476 237.293786 
L 51.04712 237.293786 
L 52.994764 220.826907 
L 54.942408 219.24768 
L 56.890052 216.514899 
L 58.837696 217.819095 
L 60.78534 216.514899 
L 64.680628 209.627061 
L 66.628272 215.315155 
L 68.575916 216.514899 
L 70.52356 219.24768 
L 72.471204 216.514899 
L 74.418848 216.514899 
L 76.366492 220.826907 
L 78.314136 229.637124 
L 80.26178 232.981777 
L 84.157068 232.981777 
L 86.104712 237.293786 
L 90 237.293786 
L 91.947644 188.848173 
L 95.842932 163.769608 
L 99.73822 153.51026 
L 101.685864 151.053778 
L 103.633508 147.118815 
L 105.581152 142.607074 
L 109.47644 135.23998 
L 111.424084 133.099852 
L 113.371728 131.435734 
L 115.319372 128.679431 
L 117.267016 128.151121 
L 121.162304 128.512986 
L 125.057592 131.113928 
L 127.005236 133.05687 
L 128.95288 137.562471 
L 130.900524 138.860227 
L 132.848168 141.570549 
L 134.795812 145.329037 
L 136.743455 149.561949 
L 138.691099 152.692982 
L 140.638743 154.374684 
L 142.586387 153.435782 
L 144.534031 156.495276 
L 146.481675 155.653734 
L 148.429319 156.157423 
L 150.376963 155.292028 
L 152.324607 153.585111 
L 154.272251 155.041862 
L 156.219895 155.208174 
L 158.167539 155.06255 
L 160.115183 156.090756 
L 164.010471 156.024385 
L 165.958115 157.338619 
L 167.905759 155.567838 
L 169.853403 154.553716 
L 171.801047 154.533718 
L 173.748691 154.836532 
L 175.696335 154.938845 
L 177.643979 156.046476 
L 179.591623 156.586672 
L 181.539267 157.31454 
L 183.486911 159.319453 
L 185.434555 160.701357 
L 187.382199 162.290641 
L 189.329843 164.412354 
L 191.277487 167.114262 
L 193.225131 169.572012 
L 197.120419 172.056145 
L 199.068063 173.829615 
L 201.015707 175.114076 
L 202.963351 175.513801 
L 204.910995 176.519013 
L 206.858639 178.757519 
L 208.806283 180.01606 
L 212.701571 184.291644 
L 214.649215 185.503519 
L 216.596859 187.527551 
L 218.544503 189.046703 
L 220.492147 188.652238 
L 222.439791 188.458832 
L 224.387435 188.458832 
L 226.335079 189.868213 
L 228.282723 190.962772 
L 230.230366 191.899877 
L 232.17801 191.191613 
L 234.125654 191.660051 
L 236.073298 194.536267 
L 238.020942 196.703366 
L 239.968586 196.703366 
L 241.91623 195.736011 
L 243.863874 192.391357 
L 247.759162 183.581141 
L 249.706806 180.573328 
L 251.65445 178.069388 
L 253.602094 175.841438 
L 255.549738 174.648065 
L 257.497382 174.571786 
L 261.39267 178.069388 
L 263.340314 179.478769 
L 265.287958 178.858454 
L 267.235602 180.687312 
L 269.183246 181.510433 
L 271.13089 181.034558 
L 273.078534 179.69138 
L 275.026178 179.584697 
L 276.973822 178.960074 
L 278.921466 178.165779 
L 280.86911 172.781019 
L 282.816754 170.412725 
L 284.764398 169.517606 
L 286.712042 169.409383 
L 290.60733 167.489002 
L 292.554974 167.068072 
L 294.502618 169.036641 
L 296.450262 170.070761 
L 298.397906 169.409383 
L 300.34555 167.873351 
L 302.293194 167.728062 
L 306.188482 167.679944 
L 308.136126 167.394435 
L 310.08377 166.613831 
L 312.031414 166.748663 
L 313.979058 167.824765 
L 317.874346 168.118672 
L 319.82199 168.469011 
L 321.769634 167.776336 
L 323.717277 168.118672 
L 325.664921 167.207072 
L 327.612565 166.569155 
L 329.560209 167.441644 
L 331.507853 166.88472 
L 333.455497 166.524611 
L 335.403141 167.970998 
L 337.350785 168.469011 
L 339.298429 169.301936 
L 341.246073 168.57063 
L 343.193717 167.347374 
L 347.089005 167.53651 
L 349.036649 166.34775 
L 350.984293 165.328289 
L 352.931937 164.843434 
L 354.879581 164.883245 
L 356.827225 164.724632 
L 358.774869 164.685239 
L 360.722513 164.182342 
L 362.670157 164.373773 
L 364.617801 165.083901 
L 366.565445 166.260096 
L 368.513089 167.022023 
L 370.460733 166.303859 
L 372.408377 166.793879 
L 374.356021 167.922095 
L 378.251309 166.65864 
L 380.198953 166.4802 
L 382.146597 166.930348 
L 384.094241 168.672943 
L 386.041885 168.069286 
L 387.989529 166.930348 
L 389.937173 167.022023 
L 391.884817 167.922095 
L 393.832461 164.685239 
L 395.780105 163.769608 
L 397.727749 163.806663 
L 401.623037 165.043554 
L 403.570681 166.793879 
L 405.518325 167.022023 
L 407.465969 171.364715 
L 409.413613 173.191697 
L 411.361257 173.331129 
L 413.308901 172.916666 
L 415.256545 173.975138 
L 417.204188 172.250387 
L 419.151832 173.331129 
L 421.099476 172.513355 
L 424.994764 171.80101 
L 426.942408 171.80101 
L 428.890052 170.52847 
L 430.837696 169.791632 
L 432.78534 165.786953 
L 434.732984 161.317 
L 436.680628 155.145591 
L 442.52356 145.790267 
L 444.471204 143.403455 
L 446.418848 141.436495 
L 448.366492 140.112155 
L 450.314136 139.23719 
L 452.26178 138.748266 
L 456.157068 138.356064 
L 458.104712 137.351403 
L 460.052356 137.055831 
L 462 137.11198 
L 463.947644 137.737402 
L 465.895288 137.855167 
L 469.790576 138.513088 
L 471.73822 140.304273 
L 475.633508 143.083531 
L 483.424084 148.270907 
L 485.371728 148.806756 
L 487.319372 149.109849 
L 489.267016 149.561949 
L 491.21466 150.236706 
L 493.162304 150.3875 
L 495.109948 150.849203 
L 497.057592 151.53681 
L 499.005236 151.569573 
L 500.95288 152.412809 
L 502.900524 152.870787 
L 506.795812 154.335188 
L 508.743455 155.250043 
L 510.691099 155.313065 
L 512.638743 155.914416 
L 514.586387 156.179711 
L 516.534031 157.31454 
L 518.481675 157.004991 
L 522.376963 158.054269 
L 524.324607 157.978632 
L 526.272251 159.237172 
L 528.219895 160.701357 
L 530.167539 160.284974 
L 532.115183 161.223026 
L 534.062827 160.521489 
L 536.010471 159.457599 
L 537.958115 159.429868 
L 543.801047 159.994485 
L 545.748691 160.168102 
L 549.643979 158.752752 
L 551.591623 159.569041 
L 553.539267 158.752752 
L 555.486911 158.939282 
L 557.434555 158.912492 
L 559.382199 158.054269 
L 561.329843 158.594696 
L 563.277487 159.794441 
L 565.225131 159.597031 
L 567.172775 159.046922 
L 569.120419 156.38181 
L 571.068063 156.291652 
L 573.015707 156.981442 
L 574.963351 156.002327 
L 576.910995 155.355228 
L 578.858639 155.104013 
L 580.806283 154.979967 
L 582.753927 155.848819 
L 584.701571 154.816153 
L 586.649215 153.585111 
L 588.596859 154.003607 
L 590.544503 154.256506 
L 592.492147 153.965075 
L 594.439791 153.965075 
L 596.387435 153.380164 
L 598.335079 154.080969 
L 600.282723 153.717006 
L 604.17801 152.728375 
L 606.125654 152.240324 
L 608.073298 151.934766 
L 610.020942 151.181072 
L 615.863874 151.181072 
L 615.863874 151.181072 
" style="fill:none;stroke:#348abd;stroke-linecap:square;stroke-width:4;"/>
   </g>
   <g id="line2d_93">
    <defs>
     <path d="M 0 3 
C 0.795609 3 1.55874 2.683901 2.12132 2.12132 
C 2.683901 1.55874 3 0.795609 3 0 
C 3 -0.795609 2.683901 -1.55874 2.12132 -2.12132 
C 1.55874 -2.683901 0.795609 -3 0 -3 
C -0.795609 -3 -1.55874 -2.683901 -2.12132 -2.12132 
C -2.683901 -1.55874 -3 -0.795609 -3 0 
C -3 0.795609 -2.683901 1.55874 -2.12132 2.12132 
C -1.55874 2.683901 -0.795609 3 0 3 
z
" id="mf24b79e71b" style="stroke:#348abd;"/>
    </defs>
    <g clip-path="url(#pc8084234c4)">
     <use style="fill:#348abd;stroke:#348abd;" x="615.863874" xlink:href="#mf24b79e71b" y="151.181072"/>
    </g>
   </g>
   <g id="line2d_94">
    <path clip-path="url(#pc8084234c4)" d="M 29.623037 240.343549 
L 31.570681 240.343549 
L 33.518325 236.998895 
L 35.465969 229.954106 
L 37.413613 226.609452 
L 39.361257 225.180867 
L 41.308901 229.954106 
L 47.151832 229.954106 
L 49.099476 236.998895 
L 51.04712 240.343549 
L 52.994764 250.732993 
L 54.942408 240.343549 
L 58.837696 240.343549 
L 60.78534 244.655558 
L 62.732984 244.655558 
L 64.680628 250.732993 
L 66.628272 250.732993 
L 66.638594 433 
M 82.199688 433 
L 82.209424 261.122437 
L 84.157068 225.180867 
L 86.104712 210.142573 
L 88.052356 209.175218 
L 90 199.021823 
L 91.947644 190.13251 
L 95.842932 183.369753 
L 97.790576 179.289807 
L 99.73822 170.025879 
L 101.685864 164.700391 
L 103.633508 162.507363 
L 105.581152 158.997085 
L 107.528796 157.330813 
L 109.47644 154.107503 
L 111.424084 150.113842 
L 113.371728 150.57621 
L 115.319372 141.091642 
L 121.162304 130.489236 
L 123.109948 126.794633 
L 125.057592 122.455266 
L 127.005236 118.861514 
L 128.95288 115.864509 
L 132.848168 113.38847 
L 134.795812 111.400357 
L 136.743455 110.118482 
L 138.691099 109.338797 
L 140.638743 107.310511 
L 142.586387 106.10102 
L 144.534031 104.088075 
L 146.481675 103.370494 
L 148.429319 103.128035 
L 150.376963 102.739659 
L 152.324607 102.087286 
L 154.272251 101.974232 
L 156.219895 102.184076 
L 158.167539 102.904652 
L 160.115183 103.049393 
L 162.062827 103.668608 
L 165.958115 104.112596 
L 167.905759 105.000277 
L 171.801047 107.207165 
L 175.696335 108.351442 
L 177.643979 110.139342 
L 181.539267 113.047474 
L 183.486911 113.272641 
L 185.434555 113.903171 
L 187.382199 114.828845 
L 189.329843 115.123189 
L 191.277487 115.177091 
L 193.225131 116.124394 
L 195.172775 116.568454 
L 197.120419 118.459465 
L 199.068063 118.942096 
L 201.015707 119.623072 
L 202.963351 120.726169 
L 204.910995 120.818748 
L 206.858639 121.791177 
L 208.806283 123.251449 
L 210.753927 124.52038 
L 214.649215 126.615079 
L 216.596859 127.595858 
L 218.544503 128.214573 
L 220.492147 129.24643 
L 222.439791 129.710702 
L 224.387435 129.50207 
L 228.282723 130.199459 
L 230.230366 129.703701 
L 234.125654 130.887898 
L 236.073298 133.316733 
L 238.020942 134.563813 
L 239.968586 135.280927 
L 241.91623 135.072513 
L 243.863874 136.898567 
L 245.811518 134.686938 
L 247.759162 135.461415 
L 249.706806 134.896621 
L 251.65445 135.115973 
L 253.602094 135.952438 
L 255.549738 136.959022 
L 257.497382 136.622096 
L 259.445026 139.143883 
L 261.39267 140.863934 
L 263.340314 140.266807 
L 265.287958 140.093144 
L 267.235602 140.135202 
L 269.183246 140.712408 
L 271.13089 141.14661 
L 273.078534 142.812865 
L 275.026178 143.278817 
L 278.921466 147.179056 
L 280.86911 145.355511 
L 282.816754 144.84074 
L 284.764398 143.759719 
L 286.712042 143.106662 
L 288.659686 144.455012 
L 290.60733 145.636559 
L 292.554974 145.086146 
L 294.502618 148.632368 
L 296.450262 149.04213 
L 298.397906 150.793786 
L 300.34555 149.229812 
L 302.293194 146.591761 
L 304.240838 140.499934 
L 306.188482 140.756242 
L 310.08377 137.755969 
L 312.031414 136.48575 
L 313.979058 135.973694 
L 315.926702 135.836068 
L 317.874346 138.576579 
L 319.82199 137.824 
L 321.769634 137.620826 
L 323.717277 139.148264 
L 325.664921 139.806578 
L 327.612565 141.429617 
L 329.560209 141.007085 
L 331.507853 141.121599 
L 333.455497 142.453537 
L 335.403141 142.475402 
L 337.350785 141.990983 
L 339.298429 141.007085 
L 341.246073 141.496086 
L 343.193717 142.118638 
L 345.141361 143.083856 
L 347.089005 143.540815 
L 349.036649 143.783577 
L 350.984293 144.486258 
L 352.931937 146.348964 
L 354.879581 146.37023 
L 356.827225 145.826896 
L 360.722513 142.623835 
L 362.670157 142.601752 
L 364.617801 142.065316 
L 366.565445 140.409107 
L 370.460733 139.302403 
L 372.408377 139.104514 
L 374.356021 138.4757 
L 376.303665 137.369699 
L 378.251309 137.061594 
L 380.198953 137.624784 
L 382.146597 136.842112 
L 384.094241 135.825533 
L 386.041885 134.534799 
L 387.989529 134.146944 
L 389.937173 134.301518 
L 391.884817 134.863664 
L 393.832461 133.462938 
L 395.780105 133.10153 
L 397.727749 131.849867 
L 399.675393 132.020458 
L 401.623037 131.243057 
L 403.570681 130.984159 
L 405.518325 130.558241 
L 409.413613 129.046352 
L 411.361257 128.970617 
L 413.308901 127.907197 
L 415.256545 127.193839 
L 417.204188 127.213587 
L 419.151832 126.9511 
L 421.099476 126.059667 
L 423.04712 125.366048 
L 424.994764 124.906724 
L 432.78534 123.859846 
L 434.732984 123.962895 
L 436.680628 123.897812 
L 438.628272 124.151798 
L 440.575916 124.192127 
L 444.471204 124.693087 
L 452.26178 125.682059 
L 456.157068 126.123844 
L 458.104712 126.003054 
L 460.052356 125.642859 
L 462 124.945742 
L 465.895288 124.613129 
L 467.842932 124.143745 
L 469.790576 123.915246 
L 473.685864 123.057012 
L 475.633508 123.688615 
L 477.581152 122.985302 
L 481.47644 121.780171 
L 485.371728 120.194756 
L 491.21466 119.848652 
L 493.162304 120.144116 
L 497.057592 119.767869 
L 499.005236 120.22076 
L 500.95288 119.877696 
L 502.900524 119.056331 
L 504.848168 119.070098 
L 506.795812 118.147574 
L 508.743455 117.821961 
L 510.691099 117.334672 
L 514.586387 116.761041 
L 516.534031 115.986412 
L 518.481675 115.423429 
L 520.429319 114.074903 
L 522.376963 112.382765 
L 524.324607 111.170254 
L 528.219895 109.495522 
L 530.167539 107.543285 
L 532.115183 106.510477 
L 534.062827 105.016897 
L 537.958115 102.553565 
L 539.905759 101.848193 
L 541.853403 101.431667 
L 543.801047 100.788944 
L 545.748691 99.472578 
L 547.696335 97.951054 
L 549.643979 98.426395 
L 551.591623 96.839584 
L 555.486911 94.113445 
L 561.329843 91.587173 
L 563.277487 89.408605 
L 565.225131 88.499765 
L 567.172775 87.972234 
L 569.120419 87.592779 
L 571.068063 85.907395 
L 573.015707 86.631469 
L 574.963351 84.741891 
L 578.858639 83.920497 
L 580.806283 83.913018 
L 582.753927 83.699701 
L 584.701571 85.881294 
L 586.649215 83.668948 
L 588.596859 84.684713 
L 590.544503 84.434802 
L 596.387435 84.434802 
L 596.387435 84.434802 
" style="fill:none;stroke:#348abd;stroke-linecap:square;stroke-opacity:0.4;stroke-width:2;"/>
   </g>
   <g id="line2d_95">
    <defs>
     <path d="M 0 3 
C 0.795609 3 1.55874 2.683901 2.12132 2.12132 
C 2.683901 1.55874 3 0.795609 3 0 
C 3 -0.795609 2.683901 -1.55874 2.12132 -2.12132 
C 1.55874 -2.683901 0.795609 -3 0 -3 
C -0.795609 -3 -1.55874 -2.683901 -2.12132 -2.12132 
C -2.683901 -1.55874 -3 -0.795609 -3 0 
C -3 0.795609 -2.683901 1.55874 -2.12132 2.12132 
C -1.55874 2.683901 -0.795609 3 0 3 
z
" id="ma50818b802" style="stroke:#348abd;stroke-opacity:0.4;"/>
    </defs>
    <g clip-path="url(#pc8084234c4)">
     <use style="fill:#348abd;fill-opacity:0.4;stroke:#348abd;stroke-opacity:0.4;" x="596.387435" xlink:href="#ma50818b802" y="84.434802"/>
    </g>
   </g>
   <g id="line2d_96">
    <path clip-path="url(#pc8084234c4)" d="M 10.146597 216.412287 
L 12.094241 210.334852 
L 14.041885 210.334852 
L 15.989529 206.022844 
L 17.937173 212.100279 
L 19.884817 214.101754 
L 21.832461 212.100279 
L 23.780105 214.101754 
L 25.727749 219.145069 
L 27.675393 216.412287 
L 29.623037 226.801731 
L 33.518325 226.801731 
L 35.465969 232.879166 
L 37.413613 232.879166 
L 39.361257 243.26861 
L 39.371998 433 
M 70.510877 433 
L 70.52356 208.755625 
L 72.471204 206.022844 
L 74.418848 202.67819 
L 76.366492 195.6334 
L 78.314136 189.145287 
L 80.26178 187.976737 
L 82.209424 186.211311 
L 84.157068 188.745562 
L 86.104712 184.934898 
L 88.052356 181.651548 
L 91.947644 178.356118 
L 93.895288 178.959776 
L 95.842932 169.199325 
L 97.790576 164.860574 
L 99.73822 162.356634 
L 101.685864 158.492085 
L 103.633508 155.680897 
L 107.528796 148.608978 
L 109.47644 147.612852 
L 111.424084 142.685928 
L 113.371728 136.361037 
L 115.319372 135.73959 
L 117.267016 132.759996 
L 119.21466 130.952783 
L 121.162304 128.403332 
L 123.109948 126.910244 
L 125.057592 125.587472 
L 127.005236 126.390421 
L 128.95288 124.959038 
L 130.900524 125.905892 
L 132.848168 126.007552 
L 134.795812 127.206296 
L 136.743455 128.000458 
L 138.691099 130.030354 
L 140.638743 131.749746 
L 142.586387 134.305785 
L 144.534031 135.387698 
L 148.429319 139.850047 
L 150.376963 141.5608 
L 152.324607 143.981827 
L 154.272251 146.70267 
L 156.219895 148.581898 
L 158.167539 149.531227 
L 162.062827 155.294898 
L 165.958115 159.635161 
L 167.905759 158.027679 
L 169.853403 159.244369 
L 171.801047 161.758332 
L 173.748691 162.979815 
L 175.696335 163.853196 
L 177.643979 167.673724 
L 179.591623 170.778552 
L 181.539267 173.654768 
L 183.486911 174.545454 
L 187.382199 174.242639 
L 189.329843 173.654768 
L 191.277487 174.093496 
L 193.225131 173.511333 
L 195.172775 173.089086 
L 197.120419 170.778552 
L 199.068063 170.195257 
L 201.015707 168.986714 
L 202.963351 168.468019 
L 204.910995 169.199325 
L 206.858639 169.199325 
L 208.806283 170.778552 
L 210.753927 171.139746 
L 212.701571 173.511333 
L 214.649215 175.011464 
L 216.596859 173.369259 
L 218.544503 171.889342 
L 220.492147 173.511333 
L 222.439791 173.369259 
L 224.387435 174.545454 
L 226.335079 175.49243 
L 228.282723 175.49243 
L 230.230366 178.356118 
L 232.17801 180.931947 
L 234.125654 179.588769 
L 236.073298 181.899302 
L 238.020942 182.407446 
L 239.968586 180.245317 
L 241.91623 179.804438 
L 243.863874 179.588769 
L 245.811518 176.678603 
L 247.759162 177.966777 
L 249.706806 176.158708 
L 251.65445 175.011464 
L 253.602094 175.821867 
L 255.549738 175.821867 
L 257.497382 177.217181 
L 259.445026 180.023257 
L 261.39267 180.245317 
L 263.340314 181.167996 
L 265.287958 185.881873 
L 267.235602 186.211311 
L 269.183246 186.211311 
L 271.13089 187.245431 
L 273.078534 187.245431 
L 275.026178 181.651548 
L 278.921466 177.587293 
L 280.86911 174.854512 
L 282.816754 173.369259 
L 284.764398 171.509858 
L 286.712042 171.889342 
L 288.659686 169.092642 
L 290.60733 169.306772 
L 294.502618 168.065611 
L 298.397906 164.940943 
L 300.34555 164.622021 
L 302.293194 162.087769 
L 304.240838 158.283904 
L 308.136126 153.501271 
L 310.08377 151.933317 
L 312.031414 151.014679 
L 313.979058 145.980459 
L 315.926702 143.902416 
L 317.874346 142.722486 
L 319.82199 140.963161 
L 321.769634 140.248138 
L 323.717277 138.927142 
L 325.664921 135.705173 
L 327.612565 135.878056 
L 329.560209 135.187101 
L 331.507853 134.718493 
L 335.403141 132.675499 
L 337.350785 131.307465 
L 339.298429 130.436019 
L 341.246073 130.204002 
L 343.193717 129.302785 
L 347.089005 128.069151 
L 349.036649 126.563775 
L 350.984293 126.043598 
L 352.931937 126.846651 
L 354.879581 125.941694 
L 356.827225 125.401921 
L 358.774869 123.947688 
L 360.722513 123.900693 
L 362.670157 124.908768 
L 366.565445 121.797898 
L 368.513089 121.698544 
L 370.460733 120.986541 
L 372.408377 121.461862 
L 374.356021 121.268172 
L 376.303665 119.47313 
L 378.251309 120.56334 
L 380.198953 121.52402 
L 382.146597 121.307587 
L 384.094241 122.347033 
L 387.989529 123.347953 
L 389.937173 124.942263 
L 391.884817 126.188652 
L 393.832461 126.17651 
L 397.727749 127.8912 
L 399.675393 128.179719 
L 401.623037 128.897159 
L 403.570681 130.41185 
L 405.518325 130.283602 
L 407.465969 132.087988 
L 409.413613 132.997241 
L 411.361257 133.414297 
L 413.308901 135.153928 
L 417.204188 136.810674 
L 419.151832 138.49306 
L 421.099476 139.127377 
L 424.994764 142.007747 
L 426.942408 142.504463 
L 428.890052 143.725265 
L 430.837696 144.674368 
L 432.78534 144.508515 
L 434.732984 145.334962 
L 436.680628 145.957732 
L 438.628272 147.187787 
L 440.575916 148.024234 
L 442.52356 148.581898 
L 444.471204 148.910133 
L 446.418848 150.887923 
L 448.366492 152.44963 
L 452.26178 154.511261 
L 454.209424 154.591846 
L 456.157068 154.795225 
L 458.104712 157.139925 
L 460.052356 158.335679 
L 462 157.926403 
L 463.947644 158.917328 
L 467.842932 162.424611 
L 469.790576 163.630033 
L 471.73822 164.309743 
L 473.685864 166.556029 
L 475.633508 169.306772 
L 477.581152 170.195257 
L 479.528796 168.986714 
L 481.47644 170.081273 
L 483.424084 172.410744 
L 485.371728 173.369259 
L 487.319372 172.018002 
L 489.267016 172.950939 
L 491.21466 173.511333 
L 493.162304 175.011464 
L 495.109948 173.654768 
L 497.057592 171.761777 
L 499.005236 173.799589 
L 502.900524 171.889342 
L 504.848168 171.139746 
L 506.795812 170.542503 
L 508.743455 169.524005 
L 510.691099 169.524005 
L 512.638743 167.577333 
L 514.586387 168.065611 
L 516.534031 168.673348 
L 518.481675 169.855873 
L 520.429319 170.660063 
L 522.376963 172.278683 
L 524.324607 175.011464 
L 526.272251 173.369259 
L 528.219895 174.093496 
L 530.167539 173.511333 
L 532.115183 171.889342 
L 534.062827 171.139746 
L 536.010471 170.778552 
L 537.958115 169.855873 
L 539.905759 172.814054 
L 541.853403 173.228518 
L 543.801047 173.799589 
L 545.748691 175.821867 
L 547.696335 177.217181 
L 551.591623 179.376158 
L 553.539267 179.804438 
L 555.486911 180.699558 
L 557.434555 180.699558 
L 559.382199 180.245317 
L 561.329843 181.167996 
L 563.277487 180.931947 
L 565.225131 182.151221 
L 567.172775 184.934898 
L 569.120419 186.211311 
L 571.068063 191.321391 
L 576.910995 191.321391 
L 576.910995 191.321391 
" style="fill:none;stroke:#988ed5;stroke-linecap:square;stroke-opacity:0.4;stroke-width:2;"/>
   </g>
   <g id="line2d_97">
    <defs>
     <path d="M 0 3 
C 0.795609 3 1.55874 2.683901 2.12132 2.12132 
C 2.683901 1.55874 3 0.795609 3 0 
C 3 -0.795609 2.683901 -1.55874 2.12132 -2.12132 
C 1.55874 -2.683901 0.795609 -3 0 -3 
C -0.795609 -3 -1.55874 -2.683901 -2.12132 -2.12132 
C -2.683901 -1.55874 -3 -0.795609 -3 0 
C -3 0.795609 -2.683901 1.55874 -2.12132 2.12132 
C -1.55874 2.683901 -0.795609 3 0 3 
z
" id="m7849d7bf07" style="stroke:#988ed5;stroke-opacity:0.4;"/>
    </defs>
    <g clip-path="url(#pc8084234c4)">
     <use style="fill:#988ed5;fill-opacity:0.4;stroke:#988ed5;stroke-opacity:0.4;" x="576.910995" xlink:href="#m7849d7bf07" y="191.321391"/>
    </g>
   </g>
   <g id="line2d_98">
    <path clip-path="url(#pc8084234c4)" d="M 72.460797 433 
L 72.471204 249.210837 
L 74.418848 249.210837 
L 76.366492 225.087295 
L 78.314136 225.087295 
L 80.26178 213.269266 
L 82.209424 207.653061 
L 86.104712 198.230972 
L 88.052356 191.186182 
L 90 187.110223 
L 91.947644 180.48768 
L 93.895288 179.031312 
L 95.842932 173.046688 
L 97.790576 168.641869 
L 99.73822 168.366837 
L 101.685864 163.42117 
L 103.633508 161.110636 
L 105.581152 158.217769 
L 107.528796 155.618274 
L 109.47644 154.044868 
L 111.424084 151.831982 
L 113.371728 149.016535 
L 115.319372 147.828325 
L 117.267016 146.22143 
L 119.21466 144.216068 
L 121.162304 142.593379 
L 123.109948 141.670336 
L 125.057592 140.521884 
L 127.005236 139.564498 
L 130.900524 135.327471 
L 132.848168 135.365103 
L 134.795812 133.583776 
L 136.743455 132.814282 
L 138.691099 131.717574 
L 140.638743 131.058747 
L 142.586387 131.183654 
L 144.534031 131.512205 
L 146.481675 130.624097 
L 148.429319 131.512205 
L 150.376963 131.812403 
L 152.324607 132.83973 
L 154.272251 132.693991 
L 156.219895 132.909935 
L 158.167539 132.400512 
L 160.115183 132.637346 
L 162.062827 131.275154 
L 164.010471 131.013583 
L 165.958115 131.041795 
L 167.905759 131.425044 
L 169.853403 131.390321 
L 171.801047 131.860043 
L 173.748691 131.753065 
L 175.696335 132.993331 
L 177.643979 133.129036 
L 179.591623 132.788877 
L 181.539267 132.112669 
L 183.486911 132.763515 
L 185.434555 133.765542 
L 187.382199 134.536863 
L 189.329843 134.723418 
L 191.277487 134.522608 
L 193.225131 133.765542 
L 195.172775 134.551131 
L 197.120419 134.059651 
L 199.068063 133.443911 
L 204.910995 133.057799 
L 206.858639 131.997858 
L 208.806283 132.155191 
L 210.753927 131.535534 
L 212.701571 131.064402 
L 214.649215 131.315362 
L 216.596859 131.741225 
L 218.544503 131.588157 
L 220.492147 132.884368 
L 222.439791 131.729395 
L 224.387435 131.770842 
L 228.282723 130.929265 
L 230.230366 130.25519 
L 232.17801 130.531016 
L 234.125654 130.207038 
L 238.020942 130.884489 
L 239.968586 131.723484 
L 241.91623 131.121071 
L 243.863874 132.179543 
L 245.811518 131.735309 
L 247.759162 133.05134 
L 249.706806 133.758771 
L 251.65445 133.697964 
L 253.602094 133.483739 
L 255.549738 132.456267 
L 257.497382 130.373552 
L 259.445026 129.230004 
L 261.39267 128.40249 
L 265.287958 128.459428 
L 267.235602 128.393021 
L 269.183246 129.050912 
L 273.078534 131.189357 
L 275.026178 131.149485 
L 276.973822 129.926568 
L 278.921466 130.164365 
L 280.86911 130.569273 
L 282.816754 131.332627 
L 284.764398 131.705763 
L 288.659686 132.980471 
L 290.60733 134.409056 
L 294.502618 134.701773 
L 296.450262 134.594017 
L 298.397906 135.46339 
L 302.293194 136.321911 
L 304.240838 135.631206 
L 306.188482 135.081442 
L 310.08377 135.245012 
L 312.031414 134.963593 
L 313.979058 135.274944 
L 315.926702 135.140715 
L 319.82199 136.820087 
L 321.769634 136.770345 
L 323.717277 136.845019 
L 325.664921 135.73126 
L 327.612565 135.022402 
L 329.560209 134.948927 
L 331.507853 135.044514 
L 335.403141 133.915295 
L 337.350785 133.684485 
L 341.246073 133.901619 
L 343.193717 133.025531 
L 345.141361 132.29576 
L 349.036649 131.172256 
L 350.984293 129.837707 
L 352.931937 129.401134 
L 354.879581 129.110372 
L 356.827225 128.607525 
L 358.774869 127.986821 
L 362.670157 126.265475 
L 364.617801 125.964632 
L 366.565445 125.547864 
L 368.513089 124.64401 
L 370.460733 124.001947 
L 376.303665 122.681282 
L 378.251309 122.094779 
L 382.146597 121.726259 
L 384.094241 122.122787 
L 387.989529 121.632512 
L 389.937173 121.563336 
L 391.884817 121.780963 
L 395.780105 121.946282 
L 399.675393 121.744471 
L 401.623037 121.878709 
L 403.570681 121.662689 
L 405.518325 121.277996 
L 409.413613 121.455696 
L 411.361257 120.969118 
L 413.308901 120.986432 
L 415.256545 120.643882 
L 419.151832 121.37547 
L 421.099476 121.228028 
L 423.04712 121.363621 
L 424.994764 122.007977 
L 426.942408 122.428017 
L 428.890052 123.328762 
L 430.837696 123.670207 
L 434.732984 125.066363 
L 436.680628 125.844368 
L 438.628272 126.455576 
L 440.575916 127.197283 
L 444.471204 128.111709 
L 446.418848 127.945422 
L 450.314136 127.315737 
L 452.26178 126.438949 
L 454.209424 125.713183 
L 456.157068 124.45722 
L 458.104712 123.87537 
L 462 121.286831 
L 463.947644 120.231907 
L 465.895288 119.943652 
L 467.842932 118.968724 
L 469.790576 118.232492 
L 471.73822 116.360122 
L 473.685864 115.174087 
L 475.633508 114.335867 
L 481.47644 111.399132 
L 483.424084 110.184048 
L 487.319372 108.227584 
L 491.21466 106.722993 
L 493.162304 105.741291 
L 495.109948 104.297904 
L 499.005236 100.351889 
L 500.95288 98.353511 
L 506.795812 94.218921 
L 510.691099 91.029399 
L 512.638743 89.911512 
L 516.534031 87.05035 
L 518.481675 86.15123 
L 520.429319 85.002921 
L 524.324607 83.152952 
L 526.272251 81.840776 
L 528.219895 81.014784 
L 532.115183 79.863512 
L 534.062827 78.614874 
L 536.010471 77.184579 
L 539.905759 74.878352 
L 541.853403 73.815397 
L 545.748691 72.535615 
L 547.696335 72.19051 
L 559.382199 68.459889 
L 561.329843 67.940314 
L 563.277487 67.89602 
L 565.225131 68.273624 
L 571.068063 68.273624 
L 571.068063 68.273624 
" style="fill:none;stroke:#777777;stroke-linecap:square;stroke-opacity:0.4;stroke-width:2;"/>
   </g>
   <g id="line2d_99">
    <defs>
     <path d="M 0 3 
C 0.795609 3 1.55874 2.683901 2.12132 2.12132 
C 2.683901 1.55874 3 0.795609 3 0 
C 3 -0.795609 2.683901 -1.55874 2.12132 -2.12132 
C 1.55874 -2.683901 0.795609 -3 0 -3 
C -0.795609 -3 -1.55874 -2.683901 -2.12132 -2.12132 
C -2.683901 -1.55874 -3 -0.795609 -3 0 
C -3 0.795609 -2.683901 1.55874 -2.12132 2.12132 
C -1.55874 2.683901 -0.795609 3 0 3 
z
" id="m0bae299007" style="stroke:#777777;stroke-opacity:0.4;"/>
    </defs>
    <g clip-path="url(#pc8084234c4)">
     <use style="fill:#777777;fill-opacity:0.4;stroke:#777777;stroke-opacity:0.4;" x="571.068063" xlink:href="#m0bae299007" y="68.273624"/>
    </g>
   </g>
   <g id="line2d_100">
    <path clip-path="url(#pc8084234c4)" d="M 31.559103 433 
L 31.570681 228.412403 
L 39.361257 228.412403 
L 41.308901 201.55608 
L 43.256545 201.55608 
L 45.204188 204.288862 
L 51.04712 204.288862 
L 52.994764 197.244072 
L 54.942408 211.945524 
L 56.890052 201.55608 
L 58.837696 182.778668 
L 62.732984 182.778668 
L 64.680628 177.432539 
L 66.628272 179.011767 
L 68.575916 172.389224 
L 70.52356 173.500014 
L 72.471204 172.389224 
L 74.418848 170.078691 
L 76.366492 170.078691 
L 78.314136 171.355104 
L 80.26178 171.355104 
L 82.209424 175.122005 
L 84.157068 175.122005 
L 88.052356 185.089202 
L 90 185.089202 
L 91.947644 164.519951 
L 93.895288 164.519951 
L 95.842932 163.303976 
L 97.790576 147.705288 
L 99.73822 145.238417 
L 103.633508 136.254247 
L 105.581152 133.88891 
L 111.424084 122.367201 
L 113.371728 117.55022 
L 115.319372 116.180266 
L 117.267016 114.36457 
L 119.21466 112.926525 
L 123.109948 110.198248 
L 125.057592 109.886202 
L 127.005236 109.451399 
L 128.95288 108.055966 
L 130.900524 107.303989 
L 134.795812 106.346502 
L 136.743455 105.870763 
L 138.691099 104.792553 
L 140.638743 104.11706 
L 142.586387 103.03498 
L 150.376963 98.269043 
L 156.219895 97.434058 
L 160.115183 97.525644 
L 164.010471 97.833393 
L 167.905759 97.564375 
L 171.801047 97.362146 
L 175.696335 96.764437 
L 181.539267 96.522824 
L 193.225131 96.590811 
L 199.068063 96.707101 
L 202.963351 96.700235 
L 208.806283 96.907584 
L 212.701571 97.148458 
L 216.596859 97.535318 
L 224.387435 97.78658 
L 230.230366 97.992164 
L 232.17801 98.142555 
L 234.125654 98.43509 
L 239.968586 99.755408 
L 245.811518 100.852178 
L 247.759162 101.234293 
L 249.706806 101.321239 
L 251.65445 101.693298 
L 255.549738 102.861416 
L 261.39267 105.162174 
L 263.340314 106.618953 
L 269.183246 109.618392 
L 271.13089 110.373823 
L 273.078534 111.265787 
L 275.026178 112.285231 
L 276.973822 112.493774 
L 280.86911 113.90334 
L 282.816754 114.379447 
L 284.764398 115.37163 
L 288.659686 116.805783 
L 292.554974 118.82602 
L 294.502618 120.067541 
L 296.450262 120.826065 
L 300.34555 121.905203 
L 302.293194 121.991523 
L 304.240838 122.418011 
L 306.188482 122.316563 
L 308.136126 122.610095 
L 310.08377 123.458494 
L 312.031414 123.733779 
L 313.979058 123.747676 
L 315.926702 123.929531 
L 317.874346 123.943611 
L 321.769634 124.328875 
L 323.717277 124.314428 
L 333.455497 125.737238 
L 335.403141 125.880826 
L 337.350785 126.20492 
L 341.246073 127.168999 
L 343.193717 127.522525 
L 345.141361 128.106105 
L 349.036649 128.540046 
L 350.984293 128.57838 
L 354.879581 129.67294 
L 356.827225 130.219576 
L 358.774869 130.348605 
L 360.722513 133.298935 
L 362.670157 130.965879 
L 364.617801 131.515988 
L 368.513089 130.241004 
L 372.408377 128.161998 
L 374.356021 125.222216 
L 376.303665 125.61075 
L 378.251309 124.056735 
L 380.198953 124.08515 
L 382.146597 122.481766 
L 384.094241 121.954467 
L 386.041885 121.709747 
L 387.989529 121.673381 
L 391.884817 122.165668 
L 393.832461 121.709747 
L 395.780105 122.558632 
L 397.727749 122.948987 
L 401.623037 122.909491 
L 403.570681 122.49455 
L 405.518325 122.291308 
L 407.465969 121.576834 
L 409.413613 121.397469 
L 411.361257 121.06829 
L 421.099476 120.442005 
L 423.04712 120.253604 
L 424.994764 119.873019 
L 426.942408 119.345561 
L 428.890052 118.936565 
L 430.837696 118.786023 
L 432.78534 118.421026 
L 434.732984 118.285204 
L 436.680628 117.884971 
L 440.575916 116.68378 
L 448.366492 113.358233 
L 450.314136 112.559543 
L 456.157068 110.766313 
L 458.104712 112.765282 
L 460.052356 109.710764 
L 462 109.280949 
L 463.947644 109.0497 
L 467.842932 108.158814 
L 469.790576 110.442343 
L 471.73822 105.336206 
L 473.685864 106.968902 
L 475.633508 106.38138 
L 477.581152 105.607318 
L 481.47644 104.393551 
L 483.424084 102.025786 
L 485.371728 103.492283 
L 487.319372 103.038472 
L 489.267016 102.71716 
L 495.109948 101.440049 
L 497.057592 101.006906 
L 499.005236 100.379793 
L 502.900524 98.785949 
L 508.743455 97.209878 
L 512.638743 96.507004 
L 518.481675 96.211781 
L 524.324607 96.138875 
L 528.219895 96.005036 
L 534.062827 95.367847 
L 539.905759 95.367847 
L 539.905759 95.367847 
" style="fill:none;stroke:#fbc15e;stroke-linecap:square;stroke-opacity:0.4;stroke-width:2;"/>
   </g>
   <g id="line2d_101">
    <defs>
     <path d="M 0 3 
C 0.795609 3 1.55874 2.683901 2.12132 2.12132 
C 2.683901 1.55874 3 0.795609 3 0 
C 3 -0.795609 2.683901 -1.55874 2.12132 -2.12132 
C 1.55874 -2.683901 0.795609 -3 0 -3 
C -0.795609 -3 -1.55874 -2.683901 -2.12132 -2.12132 
C -2.683901 -1.55874 -3 -0.795609 -3 0 
C -3 0.795609 -2.683901 1.55874 -2.12132 2.12132 
C -1.55874 2.683901 -0.795609 3 0 3 
z
" id="m916a670c2d" style="stroke:#fbc15e;stroke-opacity:0.4;"/>
    </defs>
    <g clip-path="url(#pc8084234c4)">
     <use style="fill:#fbc15e;fill-opacity:0.4;stroke:#fbc15e;stroke-opacity:0.4;" x="539.905759" xlink:href="#m916a670c2d" y="95.367847"/>
    </g>
   </g>
   <g id="line2d_102">
    <path clip-path="url(#pc8084234c4)" d="M 76.35484 433 
L 76.366492 227.095639 
L 78.314136 227.095639 
L 80.26178 195.927308 
L 82.209424 195.927308 
L 84.157068 183.772438 
L 86.104712 177.695003 
L 88.052356 171.072461 
L 90 167.030528 
L 91.947644 159.816371 
L 93.895288 157.196288 
L 95.842932 147.237174 
L 97.790576 144.335571 
L 99.73822 141.11131 
L 101.685864 140.083638 
L 105.581152 132.194031 
L 107.528796 132.848191 
L 109.47644 124.725234 
L 111.424084 122.251239 
L 113.371728 114.230831 
L 115.319372 114.531511 
L 117.267016 111.677462 
L 119.21466 110.585101 
L 121.162304 105.112706 
L 123.109948 102.207951 
L 125.057592 98.799222 
L 127.005236 98.633472 
L 128.95288 95.283135 
L 132.848168 92.635826 
L 140.638743 93.648328 
L 142.586387 94.120325 
L 144.534031 94.983867 
L 148.429319 94.355606 
L 150.376963 95.095674 
L 152.324607 95.665242 
L 154.272251 96.03821 
L 156.219895 97.377431 
L 158.167539 97.606553 
L 160.115183 97.97189 
L 164.010471 99.598933 
L 167.905759 101.641601 
L 169.853403 102.662081 
L 171.801047 104.015372 
L 173.748691 106.812593 
L 175.696335 108.774882 
L 177.643979 109.661575 
L 179.591623 111.09194 
L 181.539267 110.910334 
L 183.486911 111.361897 
L 185.434555 112.244449 
L 191.277487 116.521265 
L 193.225131 117.579509 
L 195.172775 119.383966 
L 197.120419 120.576148 
L 199.068063 120.811417 
L 201.015707 121.605881 
L 202.963351 122.264983 
L 204.910995 123.142765 
L 206.858639 124.757677 
L 208.806283 126.098826 
L 210.753927 126.586163 
L 212.701571 127.968952 
L 214.649215 129.944582 
L 216.596859 132.792574 
L 218.544503 133.886292 
L 220.492147 136.067995 
L 222.439791 137.290781 
L 224.387435 138.74562 
L 226.335079 138.418876 
L 230.230366 139.859586 
L 232.17801 141.257069 
L 234.125654 140.588668 
L 236.073298 142.530228 
L 238.020942 144.156776 
L 239.968586 145.072874 
L 241.91623 144.638386 
L 243.863874 145.520334 
L 245.811518 148.214234 
L 247.759162 151.695416 
L 249.706806 152.092494 
L 251.65445 152.092494 
L 253.602094 152.708559 
L 255.549738 155.588806 
L 257.497382 157.772851 
L 259.445026 155.212499 
L 261.39267 155.336888 
L 263.340314 154.605582 
L 265.287958 154.725015 
L 267.235602 156.237773 
L 269.183246 155.716371 
L 271.13089 155.716371 
L 273.078534 156.916115 
L 275.026178 156.505438 
L 276.973822 157.626618 
L 278.921466 157.920525 
L 280.86911 156.105713 
L 282.816754 155.588806 
L 284.764398 154.022286 
L 286.712042 154.487093 
L 288.659686 153.242024 
L 290.60733 151.793704 
L 294.502618 150.473082 
L 296.450262 149.596294 
L 298.397906 151.404363 
L 300.34555 149.940879 
L 302.293194 152.092494 
L 304.240838 149.6817 
L 306.188482 149.342956 
L 308.136126 149.426927 
L 310.08377 148.528147 
L 312.031414 145.716269 
L 313.979058 144.275736 
L 315.926702 141.014919 
L 317.874346 140.403046 
L 319.82199 139.638834 
L 321.769634 137.980925 
L 323.717277 134.714952 
L 327.612565 130.843234 
L 329.560209 130.175896 
L 333.455497 129.716785 
L 337.350785 130.082941 
L 341.246073 131.490691 
L 343.193717 130.746061 
L 345.141361 130.843234 
L 349.036649 130.082941 
L 350.984293 130.013602 
L 352.931937 128.817406 
L 354.879581 129.0751 
L 356.827225 129.44792 
L 358.774869 128.732484 
L 360.722513 129.161992 
L 362.670157 128.356176 
L 364.617801 128.171507 
L 366.565445 128.690202 
L 368.513089 127.435346 
L 370.460733 126.715139 
L 372.408377 126.512957 
L 376.303665 125.69583 
L 378.251309 124.822775 
L 380.198953 123.230505 
L 382.146597 122.430913 
L 386.041885 121.619047 
L 389.937173 121.632224 
L 391.884817 121.791257 
L 393.832461 122.320089 
L 395.780105 123.012112 
L 397.727749 122.983232 
L 399.675393 122.782614 
L 401.623037 122.237506 
L 403.570681 121.474859 
L 405.518325 120.308266 
L 407.465969 119.681919 
L 409.413613 118.491972 
L 411.361257 117.751505 
L 413.308901 117.270861 
L 415.256545 117.045902 
L 417.204188 116.949138 
L 424.994764 115.576776 
L 426.942408 114.922365 
L 428.890052 114.679998 
L 430.837696 114.638604 
L 432.78534 114.054867 
L 434.732984 113.317882 
L 436.680628 113.062684 
L 438.628272 112.471664 
L 444.471204 112.216288 
L 446.418848 112.308006 
L 448.366492 112.28679 
L 450.314136 111.834343 
L 452.26178 111.502073 
L 454.209424 110.515869 
L 458.104712 110.162153 
L 460.052356 109.566971 
L 462 109.327238 
L 463.947644 108.630223 
L 469.790576 107.890218 
L 471.73822 107.525763 
L 473.685864 107.296064 
L 475.633508 106.675887 
L 477.581152 106.871566 
L 479.528796 109.35627 
L 481.47644 112.407411 
L 483.424084 107.382426 
L 485.371728 107.530907 
L 487.319372 107.93244 
L 491.21466 109.34465 
L 495.109948 109.34465 
L 497.057592 111.28238 
L 499.005236 111.691039 
L 500.95288 111.868666 
L 504.848168 109.703153 
L 508.743455 109.703153 
L 510.691099 105.724944 
L 512.638743 103.701248 
L 514.586387 101.257515 
L 516.534031 99.286967 
L 518.481675 96.740385 
L 522.376963 96.740385 
L 524.324607 91.47261 
L 526.272251 90.213869 
L 528.219895 87.621928 
L 532.115183 83.942681 
L 536.010471 83.942681 
L 537.958115 79.643209 
L 539.905759 78.441433 
L 541.853403 76.520991 
L 543.801047 74.894516 
L 545.748691 72.966043 
L 549.643979 72.966043 
L 551.591623 69.059691 
L 555.486911 66.872037 
L 557.434555 65.524225 
L 559.382199 64.741954 
L 563.277487 64.741954 
L 565.225131 63.468697 
L 567.172775 63.420611 
L 569.120419 63.03054 
L 571.068063 62.835724 
L 576.910995 62.783123 
L 578.858639 64.034055 
L 580.806283 64.075367 
L 582.753927 64.595152 
L 584.701571 65.565792 
L 590.544503 65.565792 
L 590.544503 65.565792 
" style="fill:none;stroke:#8eba42;stroke-linecap:square;stroke-opacity:0.4;stroke-width:2;"/>
   </g>
   <g id="line2d_103">
    <defs>
     <path d="M 0 3 
C 0.795609 3 1.55874 2.683901 2.12132 2.12132 
C 2.683901 1.55874 3 0.795609 3 0 
C 3 -0.795609 2.683901 -1.55874 2.12132 -2.12132 
C 1.55874 -2.683901 0.795609 -3 0 -3 
C -0.795609 -3 -1.55874 -2.683901 -2.12132 -2.12132 
C -2.683901 -1.55874 -3 -0.795609 -3 0 
C -3 0.795609 -2.683901 1.55874 -2.12132 2.12132 
C -1.55874 2.683901 -0.795609 3 0 3 
z
" id="me71999f658" style="stroke:#8eba42;stroke-opacity:0.4;"/>
    </defs>
    <g clip-path="url(#pc8084234c4)">
     <use style="fill:#8eba42;fill-opacity:0.4;stroke:#8eba42;stroke-opacity:0.4;" x="590.544503" xlink:href="#me71999f658" y="65.565792"/>
    </g>
   </g>
   <g id="line2d_104">
    <path clip-path="url(#pc8084234c4)" d="M 23.780105 257.522048 
L 25.727749 257.522048 
L 27.675393 254.789267 
L 29.623037 254.789267 
L 31.570681 265.178711 
L 33.518325 254.789267 
L 35.465969 254.789267 
L 37.413613 257.522048 
L 39.361257 254.789267 
L 41.308901 260.866702 
L 45.204188 260.866702 
L 47.151832 281.64559 
L 49.099476 271.256146 
L 60.78534 271.256146 
L 62.732984 281.64559 
L 64.680628 281.64559 
L 64.689207 433 
M 68.566751 433 
L 68.575916 271.256146 
L 78.314136 271.256146 
L 80.26178 265.178711 
L 82.209424 281.64559 
L 84.157068 248.711832 
L 86.104712 240.087814 
L 88.052356 226.7332 
L 90 220.784425 
L 91.947644 214.033223 
L 93.895288 204.933009 
L 95.842932 200.80159 
L 97.790576 192.688653 
L 99.73822 188.890942 
L 101.685864 187.370307 
L 103.633508 183.282434 
L 105.581152 177.518762 
L 107.528796 173.041922 
L 109.47644 167.8527 
L 111.424084 163.929485 
L 113.371728 163.257893 
L 115.319372 157.012571 
L 119.21466 146.89714 
L 123.109948 134.941647 
L 125.057592 131.078743 
L 127.005236 126.338472 
L 128.95288 122.308903 
L 130.900524 119.435074 
L 132.848168 116.864267 
L 134.795812 113.819785 
L 138.691099 109.266472 
L 142.586387 106.38778 
L 144.534031 104.530142 
L 146.481675 103.077657 
L 152.324607 99.577972 
L 156.219895 98.252389 
L 162.062827 97.16559 
L 164.010471 97.061774 
L 165.958115 97.308488 
L 167.905759 97.392508 
L 171.801047 97.895813 
L 181.539267 98.523463 
L 183.486911 98.329737 
L 185.434555 98.517683 
L 187.382199 98.570448 
L 195.172775 98.019272 
L 197.120419 98.401236 
L 201.015707 98.612287 
L 202.963351 98.897986 
L 204.910995 98.864514 
L 208.806283 99.335916 
L 212.701571 99.332709 
L 216.596859 99.683216 
L 218.544503 100.289445 
L 220.492147 100.530836 
L 222.439791 101.015536 
L 224.387435 101.367509 
L 226.335079 101.526484 
L 228.282723 101.908357 
L 232.17801 102.103757 
L 236.073298 102.264786 
L 238.020942 102.02005 
L 239.968586 102.1868 
L 241.91623 101.951332 
L 245.811518 102.277538 
L 247.759162 102.552418 
L 249.706806 102.366435 
L 251.65445 102.727782 
L 253.602094 102.874281 
L 255.549738 103.368985 
L 257.497382 103.652724 
L 259.445026 103.561694 
L 261.39267 103.289941 
L 265.287958 103.485551 
L 269.183246 103.157606 
L 271.13089 103.321753 
L 273.078534 103.234126 
L 276.973822 103.604071 
L 278.921466 103.582972 
L 280.86911 103.904963 
L 282.816754 103.820305 
L 284.764398 103.618848 
L 286.712042 103.652828 
L 288.659686 103.286376 
L 292.554974 102.892223 
L 296.450262 101.870692 
L 298.397906 101.422622 
L 304.240838 99.709743 
L 308.136126 98.001869 
L 310.08377 97.406396 
L 313.979058 95.689506 
L 315.926702 95.075751 
L 317.874346 94.317714 
L 321.769634 93.211248 
L 323.717277 92.355517 
L 325.664921 91.655753 
L 327.612565 91.320709 
L 329.560209 91.164003 
L 331.507853 90.6895 
L 333.455497 90.5337 
L 335.403141 89.932929 
L 339.298429 89.277966 
L 343.193717 88.14603 
L 345.141361 87.820356 
L 347.089005 87.280546 
L 350.984293 86.758253 
L 352.931937 86.291183 
L 358.774869 86.00177 
L 360.722513 85.922398 
L 362.670157 86.010483 
L 364.617801 85.889121 
L 366.565445 86.158212 
L 370.460733 86.004631 
L 374.356021 86.392681 
L 378.251309 86.350118 
L 380.198953 86.395255 
L 384.094241 86.885493 
L 386.041885 87.138337 
L 389.937173 87.851196 
L 391.884817 88.505996 
L 395.780105 89.16771 
L 399.675393 89.301461 
L 401.623037 89.114131 
L 403.570681 89.54045 
L 405.518325 89.406617 
L 407.465969 89.723617 
L 409.413613 89.463683 
L 411.361257 89.795561 
L 413.308901 89.983191 
L 415.256545 90.57289 
L 417.204188 90.641065 
L 421.099476 91.424975 
L 423.04712 92.202005 
L 424.994764 92.360674 
L 426.942408 92.707557 
L 428.890052 92.611186 
L 430.837696 92.957747 
L 432.78534 93.030106 
L 434.732984 92.942929 
L 436.680628 93.050308 
L 440.575916 92.908189 
L 442.52356 93.070589 
L 444.471204 92.854783 
L 446.418848 93.123427 
L 448.366492 93.220037 
L 450.314136 93.00111 
L 452.26178 93.090639 
L 454.209424 93.307486 
L 456.157068 93.88167 
L 458.104712 94.761519 
L 462 95.635988 
L 465.895288 95.996646 
L 467.842932 95.782359 
L 471.73822 94.456904 
L 473.685864 94.177421 
L 475.633508 93.713678 
L 479.528796 93.52072 
L 481.47644 93.347729 
L 483.424084 92.448276 
L 495.109948 92.373747 
L 497.057592 93.356809 
L 504.848168 92.819284 
L 506.795812 92.564702 
L 508.743455 92.615133 
L 510.691099 92.292104 
L 512.638743 92.274461 
L 516.534031 91.253075 
L 520.429319 90.918693 
L 522.376963 90.497691 
L 524.324607 90.414623 
L 526.272251 89.966265 
L 532.115183 88.872797 
L 536.010471 88.627243 
L 537.958115 87.662504 
L 539.905759 87.380852 
L 541.853403 87.250892 
L 543.801047 86.959008 
L 545.748691 86.477542 
L 547.696335 85.613653 
L 549.643979 85.223884 
L 551.591623 85.241838 
L 559.382199 83.428907 
L 561.329843 83.295202 
L 565.225131 82.5011 
L 567.172775 81.33951 
L 569.120419 80.769117 
L 571.068063 79.985259 
L 573.015707 79.413012 
L 574.963351 78.613976 
L 578.858639 77.274066 
L 580.806283 76.967782 
L 582.753927 76.275342 
L 584.701571 75.815562 
L 590.544503 75.815562 
L 590.544503 75.815562 
" style="fill:none;stroke:#ffb5b8;stroke-linecap:square;stroke-opacity:0.4;stroke-width:2;"/>
   </g>
   <g id="line2d_105">
    <defs>
     <path d="M 0 3 
C 0.795609 3 1.55874 2.683901 2.12132 2.12132 
C 2.683901 1.55874 3 0.795609 3 0 
C 3 -0.795609 2.683901 -1.55874 2.12132 -2.12132 
C 1.55874 -2.683901 0.795609 -3 0 -3 
C -0.795609 -3 -1.55874 -2.683901 -2.12132 -2.12132 
C -2.683901 -1.55874 -3 -0.795609 -3 0 
C -3 0.795609 -2.683901 1.55874 -2.12132 2.12132 
C -1.55874 2.683901 -0.795609 3 0 3 
z
" id="m66e47fde73" style="stroke:#ffb5b8;stroke-opacity:0.4;"/>
    </defs>
    <g clip-path="url(#pc8084234c4)">
     <use style="fill:#ffb5b8;fill-opacity:0.4;stroke:#ffb5b8;stroke-opacity:0.4;" x="590.544503" xlink:href="#m66e47fde73" y="75.815562"/>
    </g>
   </g>
   <g id="patch_3">
    <path d="M 90 200.094545 
L 90 51.84 
" style="fill:none;stroke:#ffffff;stroke-linecap:square;stroke-linejoin:miter;"/>
   </g>
   <g id="patch_4">
    <path d="M 648 200.094545 
L 648 51.84 
" style="fill:none;stroke:#ffffff;stroke-linecap:square;stroke-linejoin:miter;"/>
   </g>
   <g id="patch_5">
    <path d="M 90 200.094545 
L 648 200.094545 
" style="fill:none;stroke:#ffffff;stroke-linecap:square;stroke-linejoin:miter;"/>
   </g>
   <g id="patch_6">
    <path d="M 90 51.84 
L 648 51.84 
" style="fill:none;stroke:#ffffff;stroke-linecap:square;stroke-linejoin:miter;"/>
   </g>
   <g id="text_19">
    <!-- Korea, South -->
    <defs>
     <path d="M 11.71875 12.40625 
L 22.015625 12.40625 
L 22.015625 4 
L 14.015625 -11.625 
L 7.71875 -11.625 
L 11.71875 4 
z
" id="DejaVuSans-44"/>
     <path d="M 53.515625 70.515625 
L 53.515625 60.890625 
Q 47.90625 63.578125 42.921875 64.890625 
Q 37.9375 66.21875 33.296875 66.21875 
Q 25.25 66.21875 20.875 63.09375 
Q 16.5 59.96875 16.5 54.203125 
Q 16.5 49.359375 19.40625 46.890625 
Q 22.3125 44.4375 30.421875 42.921875 
L 36.375 41.703125 
Q 47.40625 39.59375 52.65625 34.296875 
Q 57.90625 29 57.90625 20.125 
Q 57.90625 9.515625 50.796875 4.046875 
Q 43.703125 -1.421875 29.984375 -1.421875 
Q 24.8125 -1.421875 18.96875 -0.25 
Q 13.140625 0.921875 6.890625 3.21875 
L 6.890625 13.375 
Q 12.890625 10.015625 18.65625 8.296875 
Q 24.421875 6.59375 29.984375 6.59375 
Q 38.421875 6.59375 43.015625 9.90625 
Q 47.609375 13.234375 47.609375 19.390625 
Q 47.609375 24.75 44.3125 27.78125 
Q 41.015625 30.8125 33.5 32.328125 
L 27.484375 33.5 
Q 16.453125 35.6875 11.515625 40.375 
Q 6.59375 45.0625 6.59375 53.421875 
Q 6.59375 63.09375 13.40625 68.65625 
Q 20.21875 74.21875 32.171875 74.21875 
Q 37.3125 74.21875 42.625 73.28125 
Q 47.953125 72.359375 53.515625 70.515625 
z
" id="DejaVuSans-83"/>
     <path d="M 8.5 21.578125 
L 8.5 54.6875 
L 17.484375 54.6875 
L 17.484375 21.921875 
Q 17.484375 14.15625 20.5 10.265625 
Q 23.53125 6.390625 29.59375 6.390625 
Q 36.859375 6.390625 41.078125 11.03125 
Q 45.3125 15.671875 45.3125 23.6875 
L 45.3125 54.6875 
L 54.296875 54.6875 
L 54.296875 0 
L 45.3125 0 
L 45.3125 8.40625 
Q 42.046875 3.421875 37.71875 1 
Q 33.40625 -1.421875 27.6875 -1.421875 
Q 18.265625 -1.421875 13.375 4.4375 
Q 8.5 10.296875 8.5 21.578125 
z
M 31.109375 56 
z
" id="DejaVuSans-117"/>
     <path d="M 18.3125 70.21875 
L 18.3125 54.6875 
L 36.8125 54.6875 
L 36.8125 47.703125 
L 18.3125 47.703125 
L 18.3125 18.015625 
Q 18.3125 11.328125 20.140625 9.421875 
Q 21.96875 7.515625 27.59375 7.515625 
L 36.8125 7.515625 
L 36.8125 0 
L 27.59375 0 
Q 17.1875 0 13.234375 3.875 
Q 9.28125 7.765625 9.28125 18.015625 
L 9.28125 47.703125 
L 2.6875 47.703125 
L 2.6875 54.6875 
L 9.28125 54.6875 
L 9.28125 70.21875 
z
" id="DejaVuSans-116"/>
     <path d="M 54.890625 33.015625 
L 54.890625 0 
L 45.90625 0 
L 45.90625 32.71875 
Q 45.90625 40.484375 42.875 44.328125 
Q 39.84375 48.1875 33.796875 48.1875 
Q 26.515625 48.1875 22.3125 43.546875 
Q 18.109375 38.921875 18.109375 30.90625 
L 18.109375 0 
L 9.078125 0 
L 9.078125 75.984375 
L 18.109375 75.984375 
L 18.109375 46.1875 
Q 21.34375 51.125 25.703125 53.5625 
Q 30.078125 56 35.796875 56 
Q 45.21875 56 50.046875 50.171875 
Q 54.890625 44.34375 54.890625 33.015625 
z
" id="DejaVuSans-104"/>
    </defs>
    <g transform="translate(619.759162 151.181072)scale(0.1 -0.1)">
     <use xlink:href="#DejaVuSans-75"/>
     <use x="60.576172" xlink:href="#DejaVuSans-111"/>
     <use x="121.757812" xlink:href="#DejaVuSans-114"/>
     <use x="160.621094" xlink:href="#DejaVuSans-101"/>
     <use x="222.144531" xlink:href="#DejaVuSans-97"/>
     <use x="283.423828" xlink:href="#DejaVuSans-44"/>
     <use x="315.210938" xlink:href="#DejaVuSans-32"/>
     <use x="346.998047" xlink:href="#DejaVuSans-83"/>
     <use x="410.474609" xlink:href="#DejaVuSans-111"/>
     <use x="471.65625" xlink:href="#DejaVuSans-117"/>
     <use x="535.035156" xlink:href="#DejaVuSans-116"/>
     <use x="574.244141" xlink:href="#DejaVuSans-104"/>
    </g>
   </g>
   <g id="text_20">
    <!-- Germany -->
    <defs>
     <path d="M 59.515625 10.40625 
L 59.515625 29.984375 
L 43.40625 29.984375 
L 43.40625 38.09375 
L 69.28125 38.09375 
L 69.28125 6.78125 
Q 63.578125 2.734375 56.6875 0.65625 
Q 49.8125 -1.421875 42 -1.421875 
Q 24.90625 -1.421875 15.25 8.5625 
Q 5.609375 18.5625 5.609375 36.375 
Q 5.609375 54.25 15.25 64.234375 
Q 24.90625 74.21875 42 74.21875 
Q 49.125 74.21875 55.546875 72.453125 
Q 61.96875 70.703125 67.390625 67.28125 
L 67.390625 56.78125 
Q 61.921875 61.421875 55.765625 63.765625 
Q 49.609375 66.109375 42.828125 66.109375 
Q 29.4375 66.109375 22.71875 58.640625 
Q 16.015625 51.171875 16.015625 36.375 
Q 16.015625 21.625 22.71875 14.15625 
Q 29.4375 6.6875 42.828125 6.6875 
Q 48.046875 6.6875 52.140625 7.59375 
Q 56.25 8.5 59.515625 10.40625 
z
" id="DejaVuSans-71"/>
    </defs>
    <g transform="translate(600.282723 84.434802)scale(0.1 -0.1)">
     <use xlink:href="#DejaVuSans-71"/>
     <use x="77.490234" xlink:href="#DejaVuSans-101"/>
     <use x="139.013672" xlink:href="#DejaVuSans-114"/>
     <use x="178.376953" xlink:href="#DejaVuSans-109"/>
     <use x="275.789062" xlink:href="#DejaVuSans-97"/>
     <use x="337.068359" xlink:href="#DejaVuSans-110"/>
     <use x="400.447266" xlink:href="#DejaVuSans-121"/>
    </g>
   </g>
   <g id="text_21">
    <!-- Australia -->
    <defs>
     <path d="M 34.1875 63.1875 
L 20.796875 26.90625 
L 47.609375 26.90625 
z
M 28.609375 72.90625 
L 39.796875 72.90625 
L 67.578125 0 
L 57.328125 0 
L 50.6875 18.703125 
L 17.828125 18.703125 
L 11.1875 0 
L 0.78125 0 
z
" id="DejaVuSans-65"/>
    </defs>
    <g transform="translate(580.806283 191.321391)scale(0.1 -0.1)">
     <use xlink:href="#DejaVuSans-65"/>
     <use x="68.408203" xlink:href="#DejaVuSans-117"/>
     <use x="131.787109" xlink:href="#DejaVuSans-115"/>
     <use x="183.886719" xlink:href="#DejaVuSans-116"/>
     <use x="223.095703" xlink:href="#DejaVuSans-114"/>
     <use x="264.208984" xlink:href="#DejaVuSans-97"/>
     <use x="325.488281" xlink:href="#DejaVuSans-108"/>
     <use x="353.271484" xlink:href="#DejaVuSans-105"/>
     <use x="381.054688" xlink:href="#DejaVuSans-97"/>
    </g>
   </g>
   <g id="text_22">
    <!-- Poland -->
    <defs>
     <path d="M 19.671875 64.796875 
L 19.671875 37.40625 
L 32.078125 37.40625 
Q 38.96875 37.40625 42.71875 40.96875 
Q 46.484375 44.53125 46.484375 51.125 
Q 46.484375 57.671875 42.71875 61.234375 
Q 38.96875 64.796875 32.078125 64.796875 
z
M 9.8125 72.90625 
L 32.078125 72.90625 
Q 44.34375 72.90625 50.609375 67.359375 
Q 56.890625 61.8125 56.890625 51.125 
Q 56.890625 40.328125 50.609375 34.8125 
Q 44.34375 29.296875 32.078125 29.296875 
L 19.671875 29.296875 
L 19.671875 0 
L 9.8125 0 
z
" id="DejaVuSans-80"/>
    </defs>
    <g transform="translate(574.963351 68.273624)scale(0.1 -0.1)">
     <use xlink:href="#DejaVuSans-80"/>
     <use x="56.677734" xlink:href="#DejaVuSans-111"/>
     <use x="117.859375" xlink:href="#DejaVuSans-108"/>
     <use x="145.642578" xlink:href="#DejaVuSans-97"/>
     <use x="206.921875" xlink:href="#DejaVuSans-110"/>
     <use x="270.300781" xlink:href="#DejaVuSans-100"/>
    </g>
   </g>
   <g id="text_23">
    <!-- Belarus -->
    <defs>
     <path d="M 19.671875 34.8125 
L 19.671875 8.109375 
L 35.5 8.109375 
Q 43.453125 8.109375 47.28125 11.40625 
Q 51.125 14.703125 51.125 21.484375 
Q 51.125 28.328125 47.28125 31.5625 
Q 43.453125 34.8125 35.5 34.8125 
z
M 19.671875 64.796875 
L 19.671875 42.828125 
L 34.28125 42.828125 
Q 41.5 42.828125 45.03125 45.53125 
Q 48.578125 48.25 48.578125 53.8125 
Q 48.578125 59.328125 45.03125 62.0625 
Q 41.5 64.796875 34.28125 64.796875 
z
M 9.8125 72.90625 
L 35.015625 72.90625 
Q 46.296875 72.90625 52.390625 68.21875 
Q 58.5 63.53125 58.5 54.890625 
Q 58.5 48.1875 55.375 44.234375 
Q 52.25 40.28125 46.1875 39.3125 
Q 53.46875 37.75 57.5 32.78125 
Q 61.53125 27.828125 61.53125 20.40625 
Q 61.53125 10.640625 54.890625 5.3125 
Q 48.25 0 35.984375 0 
L 9.8125 0 
z
" id="DejaVuSans-66"/>
    </defs>
    <g transform="translate(543.801047 95.367847)scale(0.1 -0.1)">
     <use xlink:href="#DejaVuSans-66"/>
     <use x="68.603516" xlink:href="#DejaVuSans-101"/>
     <use x="130.126953" xlink:href="#DejaVuSans-108"/>
     <use x="157.910156" xlink:href="#DejaVuSans-97"/>
     <use x="219.189453" xlink:href="#DejaVuSans-114"/>
     <use x="260.302734" xlink:href="#DejaVuSans-117"/>
     <use x="323.681641" xlink:href="#DejaVuSans-115"/>
    </g>
   </g>
   <g id="text_24">
    <!-- Switzerland -->
    <defs>
     <path d="M 5.515625 54.6875 
L 48.1875 54.6875 
L 48.1875 46.484375 
L 14.40625 7.171875 
L 48.1875 7.171875 
L 48.1875 0 
L 4.296875 0 
L 4.296875 8.203125 
L 38.09375 47.515625 
L 5.515625 47.515625 
z
" id="DejaVuSans-122"/>
    </defs>
    <g transform="translate(594.439791 65.565792)scale(0.1 -0.1)">
     <use xlink:href="#DejaVuSans-83"/>
     <use x="63.476562" xlink:href="#DejaVuSans-119"/>
     <use x="145.263672" xlink:href="#DejaVuSans-105"/>
     <use x="173.046875" xlink:href="#DejaVuSans-116"/>
     <use x="212.255859" xlink:href="#DejaVuSans-122"/>
     <use x="264.746094" xlink:href="#DejaVuSans-101"/>
     <use x="326.269531" xlink:href="#DejaVuSans-114"/>
     <use x="367.382812" xlink:href="#DejaVuSans-108"/>
     <use x="395.166016" xlink:href="#DejaVuSans-97"/>
     <use x="456.445312" xlink:href="#DejaVuSans-110"/>
     <use x="519.824219" xlink:href="#DejaVuSans-100"/>
    </g>
   </g>
   <g id="text_25">
    <!-- US -->
    <defs>
     <path d="M 8.6875 72.90625 
L 18.609375 72.90625 
L 18.609375 28.609375 
Q 18.609375 16.890625 22.84375 11.734375 
Q 27.09375 6.59375 36.625 6.59375 
Q 46.09375 6.59375 50.34375 11.734375 
Q 54.59375 16.890625 54.59375 28.609375 
L 54.59375 72.90625 
L 64.5 72.90625 
L 64.5 27.390625 
Q 64.5 13.140625 57.4375 5.859375 
Q 50.390625 -1.421875 36.625 -1.421875 
Q 22.796875 -1.421875 15.734375 5.859375 
Q 8.6875 13.140625 8.6875 27.390625 
z
" id="DejaVuSans-85"/>
    </defs>
    <g transform="translate(594.439791 75.815562)scale(0.1 -0.1)">
     <use xlink:href="#DejaVuSans-85"/>
     <use x="73.193359" xlink:href="#DejaVuSans-83"/>
    </g>
   </g>
  </g>
 </g>
 <defs>
  <clipPath id="pc8084234c4">
   <rect height="148.254545" width="558" x="90" y="51.84"/>
  </clipPath>
 </defs>
</svg>
