<?xml version="1.0" encoding="utf-8" standalone="no"?>
<!DOCTYPE svg PUBLIC "-//W3C//DTD SVG 1.1//EN"
  "http://www.w3.org/Graphics/SVG/1.1/DTD/svg11.dtd">
<!-- Created with matplotlib (https://matplotlib.org/) -->
<svg height="432pt" version="1.1" viewBox="0 0 720 432" width="720pt" xmlns="http://www.w3.org/2000/svg" xmlns:xlink="http://www.w3.org/1999/xlink">
 <metadata>
  <rdf:RDF xmlns:cc="http://creativecommons.org/ns#" xmlns:dc="http://purl.org/dc/elements/1.1/" xmlns:rdf="http://www.w3.org/1999/02/22-rdf-syntax-ns#">
   <cc:Work>
    <dc:type rdf:resource="http://purl.org/dc/dcmitype/StillImage"/>
    <dc:date>2021-03-24T15:15:21.450758</dc:date>
    <dc:format>image/svg+xml</dc:format>
    <dc:creator>
     <cc:Agent>
      <dc:title>Matplotlib v3.3.4, https://matplotlib.org/</dc:title>
     </cc:Agent>
    </dc:creator>
   </cc:Work>
  </rdf:RDF>
 </metadata>
 <defs>
  <style type="text/css">*{stroke-linecap:butt;stroke-linejoin:round;}</style>
 </defs>
 <g id="figure_1">
  <g id="patch_1">
   <path d="M 0 432 
L 720 432 
L 720 0 
L 0 0 
z
" style="fill:#ffffff;"/>
  </g>
  <g id="axes_1">
   <g id="patch_2">
    <path d="M 90 200.094545 
L 648 200.094545 
L 648 51.84 
L 90 51.84 
z
" style="fill:#e5e5e5;"/>
   </g>
   <g id="matplotlib.axis_1">
    <g id="xtick_1">
     <g id="line2d_1">
      <path clip-path="url(#pc67f6b0e12)" d="M 91.315883 200.094545 
L 91.315883 51.84 
" style="fill:none;stroke:#ffffff;stroke-linecap:square;stroke-width:0.8;"/>
     </g>
     <g id="line2d_2">
      <defs>
       <path d="M 0 0 
L 0 3.5 
" id="mdd739796d5" style="stroke:#555555;stroke-width:0.8;"/>
      </defs>
      <g>
       <use style="fill:#555555;stroke:#555555;stroke-width:0.8;" x="91.315883" xlink:href="#mdd739796d5" y="200.094545"/>
      </g>
     </g>
     <g id="text_1">
      <text style="fill:#555555;font-family:DejaVu Sans;font-size:10px;font-stretch:normal;font-style:normal;font-weight:normal;text-anchor:middle;" transform="rotate(-0, 91.315883, 214.692983)" x="91.315883" y="214.692983">0</text>
     </g>
    </g>
    <g id="xtick_2">
     <g id="line2d_3">
      <path clip-path="url(#pc67f6b0e12)" d="M 157.110011 200.094545 
L 157.110011 51.84 
" style="fill:none;stroke:#ffffff;stroke-linecap:square;stroke-width:0.8;"/>
     </g>
     <g id="line2d_4">
      <g>
       <use style="fill:#555555;stroke:#555555;stroke-width:0.8;" x="157.110011" xlink:href="#mdd739796d5" y="200.094545"/>
      </g>
     </g>
     <g id="text_2">
      <text style="fill:#555555;font-family:DejaVu Sans;font-size:10px;font-stretch:normal;font-style:normal;font-weight:normal;text-anchor:middle;" transform="rotate(-0, 157.110011, 214.692983)" x="157.110011" y="214.692983">50</text>
     </g>
    </g>
    <g id="xtick_3">
     <g id="line2d_5">
      <path clip-path="url(#pc67f6b0e12)" d="M 222.904139 200.094545 
L 222.904139 51.84 
" style="fill:none;stroke:#ffffff;stroke-linecap:square;stroke-width:0.8;"/>
     </g>
     <g id="line2d_6">
      <g>
       <use style="fill:#555555;stroke:#555555;stroke-width:0.8;" x="222.904139" xlink:href="#mdd739796d5" y="200.094545"/>
      </g>
     </g>
     <g id="text_3">
      <text style="fill:#555555;font-family:DejaVu Sans;font-size:10px;font-stretch:normal;font-style:normal;font-weight:normal;text-anchor:middle;" transform="rotate(-0, 222.904139, 214.692983)" x="222.904139" y="214.692983">100</text>
     </g>
    </g>
    <g id="xtick_4">
     <g id="line2d_7">
      <path clip-path="url(#pc67f6b0e12)" d="M 288.698267 200.094545 
L 288.698267 51.84 
" style="fill:none;stroke:#ffffff;stroke-linecap:square;stroke-width:0.8;"/>
     </g>
     <g id="line2d_8">
      <g>
       <use style="fill:#555555;stroke:#555555;stroke-width:0.8;" x="288.698267" xlink:href="#mdd739796d5" y="200.094545"/>
      </g>
     </g>
     <g id="text_4">
      <text style="fill:#555555;font-family:DejaVu Sans;font-size:10px;font-stretch:normal;font-style:normal;font-weight:normal;text-anchor:middle;" transform="rotate(-0, 288.698267, 214.692983)" x="288.698267" y="214.692983">150</text>
     </g>
    </g>
    <g id="xtick_5">
     <g id="line2d_9">
      <path clip-path="url(#pc67f6b0e12)" d="M 354.492395 200.094545 
L 354.492395 51.84 
" style="fill:none;stroke:#ffffff;stroke-linecap:square;stroke-width:0.8;"/>
     </g>
     <g id="line2d_10">
      <g>
       <use style="fill:#555555;stroke:#555555;stroke-width:0.8;" x="354.492395" xlink:href="#mdd739796d5" y="200.094545"/>
      </g>
     </g>
     <g id="text_5">
      <text style="fill:#555555;font-family:DejaVu Sans;font-size:10px;font-stretch:normal;font-style:normal;font-weight:normal;text-anchor:middle;" transform="rotate(-0, 354.492395, 214.692983)" x="354.492395" y="214.692983">200</text>
     </g>
    </g>
    <g id="xtick_6">
     <g id="line2d_11">
      <path clip-path="url(#pc67f6b0e12)" d="M 420.286523 200.094545 
L 420.286523 51.84 
" style="fill:none;stroke:#ffffff;stroke-linecap:square;stroke-width:0.8;"/>
     </g>
     <g id="line2d_12">
      <g>
       <use style="fill:#555555;stroke:#555555;stroke-width:0.8;" x="420.286523" xlink:href="#mdd739796d5" y="200.094545"/>
      </g>
     </g>
     <g id="text_6">
      <text style="fill:#555555;font-family:DejaVu Sans;font-size:10px;font-stretch:normal;font-style:normal;font-weight:normal;text-anchor:middle;" transform="rotate(-0, 420.286523, 214.692983)" x="420.286523" y="214.692983">250</text>
     </g>
    </g>
    <g id="xtick_7">
     <g id="line2d_13">
      <path clip-path="url(#pc67f6b0e12)" d="M 486.080651 200.094545 
L 486.080651 51.84 
" style="fill:none;stroke:#ffffff;stroke-linecap:square;stroke-width:0.8;"/>
     </g>
     <g id="line2d_14">
      <g>
       <use style="fill:#555555;stroke:#555555;stroke-width:0.8;" x="486.080651" xlink:href="#mdd739796d5" y="200.094545"/>
      </g>
     </g>
     <g id="text_7">
      <text style="fill:#555555;font-family:DejaVu Sans;font-size:10px;font-stretch:normal;font-style:normal;font-weight:normal;text-anchor:middle;" transform="rotate(-0, 486.080651, 214.692983)" x="486.080651" y="214.692983">300</text>
     </g>
    </g>
    <g id="xtick_8">
     <g id="line2d_15">
      <path clip-path="url(#pc67f6b0e12)" d="M 551.874779 200.094545 
L 551.874779 51.84 
" style="fill:none;stroke:#ffffff;stroke-linecap:square;stroke-width:0.8;"/>
     </g>
     <g id="line2d_16">
      <g>
       <use style="fill:#555555;stroke:#555555;stroke-width:0.8;" x="551.874779" xlink:href="#mdd739796d5" y="200.094545"/>
      </g>
     </g>
     <g id="text_8">
      <text style="fill:#555555;font-family:DejaVu Sans;font-size:10px;font-stretch:normal;font-style:normal;font-weight:normal;text-anchor:middle;" transform="rotate(-0, 551.874779, 214.692983)" x="551.874779" y="214.692983">350</text>
     </g>
    </g>
    <g id="xtick_9">
     <g id="line2d_17">
      <path clip-path="url(#pc67f6b0e12)" d="M 617.668907 200.094545 
L 617.668907 51.84 
" style="fill:none;stroke:#ffffff;stroke-linecap:square;stroke-width:0.8;"/>
     </g>
     <g id="line2d_18">
      <g>
       <use style="fill:#555555;stroke:#555555;stroke-width:0.8;" x="617.668907" xlink:href="#mdd739796d5" y="200.094545"/>
      </g>
     </g>
     <g id="text_9">
      <text style="fill:#555555;font-family:DejaVu Sans;font-size:10px;font-stretch:normal;font-style:normal;font-weight:normal;text-anchor:middle;" transform="rotate(-0, 617.668907, 214.692983)" x="617.668907" y="214.692983">400</text>
     </g>
    </g>
    <g id="text_10">
     <text style="fill:#555555;font-family:DejaVu Sans;font-size:12px;font-stretch:normal;font-style:normal;font-weight:normal;text-anchor:middle;" transform="rotate(-0, 369, 229.890795)" x="369" y="229.890795">days since 10 cases</text>
    </g>
   </g>
   <g id="matplotlib.axis_2">
    <g id="ytick_1">
     <g id="line2d_19">
      <path clip-path="url(#pc67f6b0e12)" d="M 90 200.094545 
L 648 200.094545 
" style="fill:none;stroke:#ffffff;stroke-linecap:square;stroke-width:0.8;"/>
     </g>
     <g id="line2d_20">
      <defs>
       <path d="M 0 0 
L -3.5 0 
" id="m3f7615d7ff" style="stroke:#555555;stroke-width:0.8;"/>
      </defs>
      <g>
       <use style="fill:#555555;stroke:#555555;stroke-width:0.8;" x="90" xlink:href="#m3f7615d7ff" y="200.094545"/>
      </g>
     </g>
     <g id="line2d_21">
      <defs>
       <path d="M 0 0 
L 3.5 0 
" id="m2974fb1911" style="stroke:#555555;stroke-width:0.8;"/>
      </defs>
      <g>
       <use style="fill:#555555;stroke:#555555;stroke-width:0.8;" x="648" xlink:href="#m2974fb1911" y="200.094545"/>
      </g>
     </g>
     <g id="text_11">
      <text style="fill:#555555;font-family:DejaVu Sans;font-size:10px;font-stretch:normal;font-style:normal;font-weight:normal;text-anchor:end;" transform="rotate(-0, 83, 203.893764)" x="83" y="203.893764">0.01</text>
     </g>
     <g id="text_12">
      <text style="fill:#555555;font-family:DejaVu Sans;font-size:10px;font-stretch:normal;font-style:normal;font-weight:normal;text-anchor:start;" transform="rotate(-0, 655, 203.893764)" x="655" y="203.893764">0.01</text>
     </g>
    </g>
    <g id="ytick_2">
     <g id="line2d_22">
      <path clip-path="url(#pc67f6b0e12)" d="M 90 165.58156 
L 648 165.58156 
" style="fill:none;stroke:#ffffff;stroke-linecap:square;stroke-width:0.8;"/>
     </g>
     <g id="line2d_23">
      <g>
       <use style="fill:#555555;stroke:#555555;stroke-width:0.8;" x="90" xlink:href="#m3f7615d7ff" y="165.58156"/>
      </g>
     </g>
     <g id="line2d_24">
      <g>
       <use style="fill:#555555;stroke:#555555;stroke-width:0.8;" x="648" xlink:href="#m2974fb1911" y="165.58156"/>
      </g>
     </g>
     <g id="text_13">
      <text style="fill:#555555;font-family:DejaVu Sans;font-size:10px;font-stretch:normal;font-style:normal;font-weight:normal;text-anchor:end;" transform="rotate(-0, 83, 169.380779)" x="83" y="169.380779">0.1</text>
     </g>
     <g id="text_14">
      <text style="fill:#555555;font-family:DejaVu Sans;font-size:10px;font-stretch:normal;font-style:normal;font-weight:normal;text-anchor:start;" transform="rotate(-0, 655, 169.380779)" x="655" y="169.380779">0.1</text>
     </g>
    </g>
    <g id="ytick_3">
     <g id="line2d_25">
      <path clip-path="url(#pc67f6b0e12)" d="M 90 131.068575 
L 648 131.068575 
" style="fill:none;stroke:#ffffff;stroke-linecap:square;stroke-width:0.8;"/>
     </g>
     <g id="line2d_26">
      <g>
       <use style="fill:#555555;stroke:#555555;stroke-width:0.8;" x="90" xlink:href="#m3f7615d7ff" y="131.068575"/>
      </g>
     </g>
     <g id="line2d_27">
      <g>
       <use style="fill:#555555;stroke:#555555;stroke-width:0.8;" x="648" xlink:href="#m2974fb1911" y="131.068575"/>
      </g>
     </g>
     <g id="text_15">
      <text style="fill:#555555;font-family:DejaVu Sans;font-size:10px;font-stretch:normal;font-style:normal;font-weight:normal;text-anchor:end;" transform="rotate(-0, 83, 134.867794)" x="83" y="134.867794">1</text>
     </g>
     <g id="text_16">
      <text style="fill:#555555;font-family:DejaVu Sans;font-size:10px;font-stretch:normal;font-style:normal;font-weight:normal;text-anchor:start;" transform="rotate(-0, 655, 134.867794)" x="655" y="134.867794">1</text>
     </g>
    </g>
    <g id="ytick_4">
     <g id="line2d_28">
      <path clip-path="url(#pc67f6b0e12)" d="M 90 96.55559 
L 648 96.55559 
" style="fill:none;stroke:#ffffff;stroke-linecap:square;stroke-width:0.8;"/>
     </g>
     <g id="line2d_29">
      <g>
       <use style="fill:#555555;stroke:#555555;stroke-width:0.8;" x="90" xlink:href="#m3f7615d7ff" y="96.55559"/>
      </g>
     </g>
     <g id="line2d_30">
      <g>
       <use style="fill:#555555;stroke:#555555;stroke-width:0.8;" x="648" xlink:href="#m2974fb1911" y="96.55559"/>
      </g>
     </g>
     <g id="text_17">
      <text style="fill:#555555;font-family:DejaVu Sans;font-size:10px;font-stretch:normal;font-style:normal;font-weight:normal;text-anchor:end;" transform="rotate(-0, 83, 100.354808)" x="83" y="100.354808">10</text>
     </g>
     <g id="text_18">
      <text style="fill:#555555;font-family:DejaVu Sans;font-size:10px;font-stretch:normal;font-style:normal;font-weight:normal;text-anchor:start;" transform="rotate(-0, 655, 100.354808)" x="655" y="100.354808">10</text>
     </g>
    </g>
    <g id="ytick_5">
     <g id="line2d_31">
      <path clip-path="url(#pc67f6b0e12)" d="M 90 62.042604 
L 648 62.042604 
" style="fill:none;stroke:#ffffff;stroke-linecap:square;stroke-width:0.8;"/>
     </g>
     <g id="line2d_32">
      <g>
       <use style="fill:#555555;stroke:#555555;stroke-width:0.8;" x="90" xlink:href="#m3f7615d7ff" y="62.042604"/>
      </g>
     </g>
     <g id="line2d_33">
      <g>
       <use style="fill:#555555;stroke:#555555;stroke-width:0.8;" x="648" xlink:href="#m2974fb1911" y="62.042604"/>
      </g>
     </g>
     <g id="text_19">
      <text style="fill:#555555;font-family:DejaVu Sans;font-size:10px;font-stretch:normal;font-style:normal;font-weight:normal;text-anchor:end;" transform="rotate(-0, 83, 65.841823)" x="83" y="65.841823">100</text>
     </g>
     <g id="text_20">
      <text style="fill:#555555;font-family:DejaVu Sans;font-size:10px;font-stretch:normal;font-style:normal;font-weight:normal;text-anchor:start;" transform="rotate(-0, 655, 65.841823)" x="655" y="65.841823">100</text>
     </g>
    </g>
    <g id="ytick_6">
     <g id="line2d_34">
      <defs>
       <path d="M 0 0 
L -2 0 
" id="mcfda5afaf6" style="stroke:#555555;stroke-width:0.6;"/>
      </defs>
      <g>
       <use style="fill:#555555;stroke:#555555;stroke-width:0.6;" x="90" xlink:href="#mcfda5afaf6" y="189.705102"/>
      </g>
     </g>
     <g id="line2d_35">
      <defs>
       <path d="M 0 0 
L 2 0 
" id="mdf3823c72e" style="stroke:#555555;stroke-width:0.6;"/>
      </defs>
      <g>
       <use style="fill:#555555;stroke:#555555;stroke-width:0.6;" x="648" xlink:href="#mdf3823c72e" y="189.705102"/>
      </g>
     </g>
    </g>
    <g id="ytick_7">
     <g id="line2d_36">
      <g>
       <use style="fill:#555555;stroke:#555555;stroke-width:0.6;" x="90" xlink:href="#mcfda5afaf6" y="183.627667"/>
      </g>
     </g>
     <g id="line2d_37">
      <g>
       <use style="fill:#555555;stroke:#555555;stroke-width:0.6;" x="648" xlink:href="#mdf3823c72e" y="183.627667"/>
      </g>
     </g>
    </g>
    <g id="ytick_8">
     <g id="line2d_38">
      <g>
       <use style="fill:#555555;stroke:#555555;stroke-width:0.6;" x="90" xlink:href="#mcfda5afaf6" y="179.315658"/>
      </g>
     </g>
     <g id="line2d_39">
      <g>
       <use style="fill:#555555;stroke:#555555;stroke-width:0.6;" x="648" xlink:href="#mdf3823c72e" y="179.315658"/>
      </g>
     </g>
    </g>
    <g id="ytick_9">
     <g id="line2d_40">
      <g>
       <use style="fill:#555555;stroke:#555555;stroke-width:0.6;" x="90" xlink:href="#mcfda5afaf6" y="175.971004"/>
      </g>
     </g>
     <g id="line2d_41">
      <g>
       <use style="fill:#555555;stroke:#555555;stroke-width:0.6;" x="648" xlink:href="#mdf3823c72e" y="175.971004"/>
      </g>
     </g>
    </g>
    <g id="ytick_10">
     <g id="line2d_42">
      <g>
       <use style="fill:#555555;stroke:#555555;stroke-width:0.6;" x="90" xlink:href="#mcfda5afaf6" y="173.238223"/>
      </g>
     </g>
     <g id="line2d_43">
      <g>
       <use style="fill:#555555;stroke:#555555;stroke-width:0.6;" x="648" xlink:href="#mdf3823c72e" y="173.238223"/>
      </g>
     </g>
    </g>
    <g id="ytick_11">
     <g id="line2d_44">
      <g>
       <use style="fill:#555555;stroke:#555555;stroke-width:0.6;" x="90" xlink:href="#mcfda5afaf6" y="170.927689"/>
      </g>
     </g>
     <g id="line2d_45">
      <g>
       <use style="fill:#555555;stroke:#555555;stroke-width:0.6;" x="648" xlink:href="#mdf3823c72e" y="170.927689"/>
      </g>
     </g>
    </g>
    <g id="ytick_12">
     <g id="line2d_46">
      <g>
       <use style="fill:#555555;stroke:#555555;stroke-width:0.6;" x="90" xlink:href="#mcfda5afaf6" y="168.926214"/>
      </g>
     </g>
     <g id="line2d_47">
      <g>
       <use style="fill:#555555;stroke:#555555;stroke-width:0.6;" x="648" xlink:href="#mdf3823c72e" y="168.926214"/>
      </g>
     </g>
    </g>
    <g id="ytick_13">
     <g id="line2d_48">
      <g>
       <use style="fill:#555555;stroke:#555555;stroke-width:0.6;" x="90" xlink:href="#mcfda5afaf6" y="167.160788"/>
      </g>
     </g>
     <g id="line2d_49">
      <g>
       <use style="fill:#555555;stroke:#555555;stroke-width:0.6;" x="648" xlink:href="#mdf3823c72e" y="167.160788"/>
      </g>
     </g>
    </g>
    <g id="ytick_14">
     <g id="line2d_50">
      <g>
       <use style="fill:#555555;stroke:#555555;stroke-width:0.6;" x="90" xlink:href="#mcfda5afaf6" y="155.192116"/>
      </g>
     </g>
     <g id="line2d_51">
      <g>
       <use style="fill:#555555;stroke:#555555;stroke-width:0.6;" x="648" xlink:href="#mdf3823c72e" y="155.192116"/>
      </g>
     </g>
    </g>
    <g id="ytick_15">
     <g id="line2d_52">
      <g>
       <use style="fill:#555555;stroke:#555555;stroke-width:0.6;" x="90" xlink:href="#mcfda5afaf6" y="149.114681"/>
      </g>
     </g>
     <g id="line2d_53">
      <g>
       <use style="fill:#555555;stroke:#555555;stroke-width:0.6;" x="648" xlink:href="#mdf3823c72e" y="149.114681"/>
      </g>
     </g>
    </g>
    <g id="ytick_16">
     <g id="line2d_54">
      <g>
       <use style="fill:#555555;stroke:#555555;stroke-width:0.6;" x="90" xlink:href="#mcfda5afaf6" y="144.802673"/>
      </g>
     </g>
     <g id="line2d_55">
      <g>
       <use style="fill:#555555;stroke:#555555;stroke-width:0.6;" x="648" xlink:href="#mdf3823c72e" y="144.802673"/>
      </g>
     </g>
    </g>
    <g id="ytick_17">
     <g id="line2d_56">
      <g>
       <use style="fill:#555555;stroke:#555555;stroke-width:0.6;" x="90" xlink:href="#mcfda5afaf6" y="141.458019"/>
      </g>
     </g>
     <g id="line2d_57">
      <g>
       <use style="fill:#555555;stroke:#555555;stroke-width:0.6;" x="648" xlink:href="#mdf3823c72e" y="141.458019"/>
      </g>
     </g>
    </g>
    <g id="ytick_18">
     <g id="line2d_58">
      <g>
       <use style="fill:#555555;stroke:#555555;stroke-width:0.6;" x="90" xlink:href="#mcfda5afaf6" y="138.725238"/>
      </g>
     </g>
     <g id="line2d_59">
      <g>
       <use style="fill:#555555;stroke:#555555;stroke-width:0.6;" x="648" xlink:href="#mdf3823c72e" y="138.725238"/>
      </g>
     </g>
    </g>
    <g id="ytick_19">
     <g id="line2d_60">
      <g>
       <use style="fill:#555555;stroke:#555555;stroke-width:0.6;" x="90" xlink:href="#mcfda5afaf6" y="136.414704"/>
      </g>
     </g>
     <g id="line2d_61">
      <g>
       <use style="fill:#555555;stroke:#555555;stroke-width:0.6;" x="648" xlink:href="#mdf3823c72e" y="136.414704"/>
      </g>
     </g>
    </g>
    <g id="ytick_20">
     <g id="line2d_62">
      <g>
       <use style="fill:#555555;stroke:#555555;stroke-width:0.6;" x="90" xlink:href="#mcfda5afaf6" y="134.413229"/>
      </g>
     </g>
     <g id="line2d_63">
      <g>
       <use style="fill:#555555;stroke:#555555;stroke-width:0.6;" x="648" xlink:href="#mdf3823c72e" y="134.413229"/>
      </g>
     </g>
    </g>
    <g id="ytick_21">
     <g id="line2d_64">
      <g>
       <use style="fill:#555555;stroke:#555555;stroke-width:0.6;" x="90" xlink:href="#mcfda5afaf6" y="132.647803"/>
      </g>
     </g>
     <g id="line2d_65">
      <g>
       <use style="fill:#555555;stroke:#555555;stroke-width:0.6;" x="648" xlink:href="#mdf3823c72e" y="132.647803"/>
      </g>
     </g>
    </g>
    <g id="ytick_22">
     <g id="line2d_66">
      <g>
       <use style="fill:#555555;stroke:#555555;stroke-width:0.6;" x="90" xlink:href="#mcfda5afaf6" y="120.679131"/>
      </g>
     </g>
     <g id="line2d_67">
      <g>
       <use style="fill:#555555;stroke:#555555;stroke-width:0.6;" x="648" xlink:href="#mdf3823c72e" y="120.679131"/>
      </g>
     </g>
    </g>
    <g id="ytick_23">
     <g id="line2d_68">
      <g>
       <use style="fill:#555555;stroke:#555555;stroke-width:0.6;" x="90" xlink:href="#mcfda5afaf6" y="114.601696"/>
      </g>
     </g>
     <g id="line2d_69">
      <g>
       <use style="fill:#555555;stroke:#555555;stroke-width:0.6;" x="648" xlink:href="#mdf3823c72e" y="114.601696"/>
      </g>
     </g>
    </g>
    <g id="ytick_24">
     <g id="line2d_70">
      <g>
       <use style="fill:#555555;stroke:#555555;stroke-width:0.6;" x="90" xlink:href="#mcfda5afaf6" y="110.289687"/>
      </g>
     </g>
     <g id="line2d_71">
      <g>
       <use style="fill:#555555;stroke:#555555;stroke-width:0.6;" x="648" xlink:href="#mdf3823c72e" y="110.289687"/>
      </g>
     </g>
    </g>
    <g id="ytick_25">
     <g id="line2d_72">
      <g>
       <use style="fill:#555555;stroke:#555555;stroke-width:0.6;" x="90" xlink:href="#mcfda5afaf6" y="106.945033"/>
      </g>
     </g>
     <g id="line2d_73">
      <g>
       <use style="fill:#555555;stroke:#555555;stroke-width:0.6;" x="648" xlink:href="#mdf3823c72e" y="106.945033"/>
      </g>
     </g>
    </g>
    <g id="ytick_26">
     <g id="line2d_74">
      <g>
       <use style="fill:#555555;stroke:#555555;stroke-width:0.6;" x="90" xlink:href="#mcfda5afaf6" y="104.212252"/>
      </g>
     </g>
     <g id="line2d_75">
      <g>
       <use style="fill:#555555;stroke:#555555;stroke-width:0.6;" x="648" xlink:href="#mdf3823c72e" y="104.212252"/>
      </g>
     </g>
    </g>
    <g id="ytick_27">
     <g id="line2d_76">
      <g>
       <use style="fill:#555555;stroke:#555555;stroke-width:0.6;" x="90" xlink:href="#mcfda5afaf6" y="101.901719"/>
      </g>
     </g>
     <g id="line2d_77">
      <g>
       <use style="fill:#555555;stroke:#555555;stroke-width:0.6;" x="648" xlink:href="#mdf3823c72e" y="101.901719"/>
      </g>
     </g>
    </g>
    <g id="ytick_28">
     <g id="line2d_78">
      <g>
       <use style="fill:#555555;stroke:#555555;stroke-width:0.6;" x="90" xlink:href="#mcfda5afaf6" y="99.900243"/>
      </g>
     </g>
     <g id="line2d_79">
      <g>
       <use style="fill:#555555;stroke:#555555;stroke-width:0.6;" x="648" xlink:href="#mdf3823c72e" y="99.900243"/>
      </g>
     </g>
    </g>
    <g id="ytick_29">
     <g id="line2d_80">
      <g>
       <use style="fill:#555555;stroke:#555555;stroke-width:0.6;" x="90" xlink:href="#mcfda5afaf6" y="98.134817"/>
      </g>
     </g>
     <g id="line2d_81">
      <g>
       <use style="fill:#555555;stroke:#555555;stroke-width:0.6;" x="648" xlink:href="#mdf3823c72e" y="98.134817"/>
      </g>
     </g>
    </g>
    <g id="ytick_30">
     <g id="line2d_82">
      <g>
       <use style="fill:#555555;stroke:#555555;stroke-width:0.6;" x="90" xlink:href="#mcfda5afaf6" y="86.166146"/>
      </g>
     </g>
     <g id="line2d_83">
      <g>
       <use style="fill:#555555;stroke:#555555;stroke-width:0.6;" x="648" xlink:href="#mdf3823c72e" y="86.166146"/>
      </g>
     </g>
    </g>
    <g id="ytick_31">
     <g id="line2d_84">
      <g>
       <use style="fill:#555555;stroke:#555555;stroke-width:0.6;" x="90" xlink:href="#mcfda5afaf6" y="80.088711"/>
      </g>
     </g>
     <g id="line2d_85">
      <g>
       <use style="fill:#555555;stroke:#555555;stroke-width:0.6;" x="648" xlink:href="#mdf3823c72e" y="80.088711"/>
      </g>
     </g>
    </g>
    <g id="ytick_32">
     <g id="line2d_86">
      <g>
       <use style="fill:#555555;stroke:#555555;stroke-width:0.6;" x="90" xlink:href="#mcfda5afaf6" y="75.776702"/>
      </g>
     </g>
     <g id="line2d_87">
      <g>
       <use style="fill:#555555;stroke:#555555;stroke-width:0.6;" x="648" xlink:href="#mdf3823c72e" y="75.776702"/>
      </g>
     </g>
    </g>
    <g id="ytick_33">
     <g id="line2d_88">
      <g>
       <use style="fill:#555555;stroke:#555555;stroke-width:0.6;" x="90" xlink:href="#mcfda5afaf6" y="72.432048"/>
      </g>
     </g>
     <g id="line2d_89">
      <g>
       <use style="fill:#555555;stroke:#555555;stroke-width:0.6;" x="648" xlink:href="#mdf3823c72e" y="72.432048"/>
      </g>
     </g>
    </g>
    <g id="ytick_34">
     <g id="line2d_90">
      <g>
       <use style="fill:#555555;stroke:#555555;stroke-width:0.6;" x="90" xlink:href="#mcfda5afaf6" y="69.699267"/>
      </g>
     </g>
     <g id="line2d_91">
      <g>
       <use style="fill:#555555;stroke:#555555;stroke-width:0.6;" x="648" xlink:href="#mdf3823c72e" y="69.699267"/>
      </g>
     </g>
    </g>
    <g id="ytick_35">
     <g id="line2d_92">
      <g>
       <use style="fill:#555555;stroke:#555555;stroke-width:0.6;" x="90" xlink:href="#mcfda5afaf6" y="67.388733"/>
      </g>
     </g>
     <g id="line2d_93">
      <g>
       <use style="fill:#555555;stroke:#555555;stroke-width:0.6;" x="648" xlink:href="#mdf3823c72e" y="67.388733"/>
      </g>
     </g>
    </g>
    <g id="ytick_36">
     <g id="line2d_94">
      <g>
       <use style="fill:#555555;stroke:#555555;stroke-width:0.6;" x="90" xlink:href="#mcfda5afaf6" y="65.387258"/>
      </g>
     </g>
     <g id="line2d_95">
      <g>
       <use style="fill:#555555;stroke:#555555;stroke-width:0.6;" x="648" xlink:href="#mdf3823c72e" y="65.387258"/>
      </g>
     </g>
    </g>
    <g id="ytick_37">
     <g id="line2d_96">
      <g>
       <use style="fill:#555555;stroke:#555555;stroke-width:0.6;" x="90" xlink:href="#mcfda5afaf6" y="63.621832"/>
      </g>
     </g>
     <g id="line2d_97">
      <g>
       <use style="fill:#555555;stroke:#555555;stroke-width:0.6;" x="648" xlink:href="#mdf3823c72e" y="63.621832"/>
      </g>
     </g>
    </g>
    <g id="text_21">
     <text style="fill:#555555;font-family:DejaVu Sans;font-size:12px;font-stretch:normal;font-style:normal;font-weight:normal;" transform="translate(27.364 173.472273)rotate(-90)">daily new cases</text>
     <text style="fill:#555555;font-family:DejaVu Sans;font-size:12px;font-stretch:normal;font-style:normal;font-weight:normal;" transform="translate(40.801375 175.47571)rotate(-90)">per 100K people</text>
     <text style="fill:#555555;font-family:DejaVu Sans;font-size:12px;font-stretch:normal;font-style:normal;font-weight:normal;" transform="translate(54.23875 187.112898)rotate(-90)">(rolling 7-day mean)</text>
    </g>
   </g>
   <g id="line2d_98">
    <path clip-path="url(#pc67f6b0e12)" d="M 62.366466 237.293786 
L 63.682349 237.293786 
L 64.998231 220.826907 
L 66.314114 219.24768 
L 67.629996 216.514899 
L 68.945879 217.819095 
L 70.261762 216.514899 
L 72.893527 209.627061 
L 74.209409 215.315155 
L 75.525292 216.514899 
L 76.841174 219.24768 
L 78.157057 216.514899 
L 79.47294 216.514899 
L 80.788822 220.826907 
L 82.104705 229.637124 
L 83.420587 232.981777 
L 86.052352 232.981777 
L 87.368235 237.293786 
L 90 237.293786 
L 91.315883 188.848173 
L 93.947648 163.769608 
L 96.579413 153.51026 
L 97.895295 151.053778 
L 99.211178 147.118815 
L 100.52706 142.607074 
L 103.158826 135.23998 
L 104.474708 133.099852 
L 105.790591 131.435734 
L 107.106473 128.679431 
L 108.422356 128.151121 
L 111.054121 128.512986 
L 113.685886 131.113928 
L 115.001769 133.05687 
L 116.317651 137.562471 
L 117.633534 138.860227 
L 118.949416 141.570549 
L 120.265299 145.329037 
L 121.581181 149.561949 
L 122.897064 152.692982 
L 124.212947 154.374684 
L 125.528829 153.435782 
L 126.844712 156.495276 
L 128.160594 155.653734 
L 129.476477 156.157423 
L 130.792359 155.292028 
L 132.108242 153.585111 
L 133.424125 155.041862 
L 134.740007 155.208174 
L 136.05589 155.06255 
L 137.371772 156.090756 
L 140.003537 156.024385 
L 141.31942 157.338619 
L 142.635302 155.567838 
L 143.951185 154.553716 
L 145.267068 154.533718 
L 146.58295 154.836532 
L 147.898833 154.938845 
L 149.214715 156.046476 
L 150.530598 156.586672 
L 151.84648 157.31454 
L 153.162363 159.319453 
L 154.478245 160.701357 
L 155.794128 162.290641 
L 157.110011 164.412354 
L 159.741776 169.572012 
L 162.373541 172.056145 
L 163.689423 173.829615 
L 165.005306 175.114076 
L 166.321189 175.513801 
L 167.637071 176.519013 
L 168.952954 178.757519 
L 170.268836 180.01606 
L 172.900601 184.291644 
L 174.216484 185.503519 
L 175.532366 187.527551 
L 176.848249 189.046703 
L 178.164132 188.652238 
L 179.480014 188.458832 
L 180.795897 188.458832 
L 182.111779 189.868213 
L 183.427662 190.962772 
L 184.743544 191.899877 
L 186.059427 191.191613 
L 187.37531 191.660051 
L 188.691192 194.536267 
L 190.007075 196.703366 
L 191.322957 196.703366 
L 192.63884 195.736011 
L 193.954722 192.391357 
L 196.586487 183.581141 
L 197.90237 180.573328 
L 199.218253 178.069388 
L 200.534135 175.841438 
L 201.850018 174.648065 
L 203.1659 174.571786 
L 207.113548 179.478769 
L 208.42943 178.858454 
L 209.745313 180.687312 
L 211.061196 181.510433 
L 212.377078 181.034558 
L 213.692961 179.69138 
L 215.008843 179.584697 
L 216.324726 178.960074 
L 217.640608 178.165779 
L 218.956491 172.781019 
L 220.272374 170.412725 
L 221.588256 169.517606 
L 222.904139 169.409383 
L 225.535904 167.489002 
L 226.851786 167.068072 
L 228.167669 169.036641 
L 229.483551 170.070761 
L 230.799434 169.409383 
L 232.115317 167.873351 
L 233.431199 167.728062 
L 236.062964 167.679944 
L 237.378847 167.394435 
L 238.694729 166.613831 
L 240.010612 166.748663 
L 241.326495 167.824765 
L 243.95826 168.118672 
L 245.274142 168.469011 
L 246.590025 167.776336 
L 247.905907 168.118672 
L 249.22179 167.207072 
L 250.537672 166.569155 
L 251.853555 167.441644 
L 253.169438 166.88472 
L 254.48532 166.524611 
L 255.801203 167.970998 
L 257.117085 168.469011 
L 258.432968 169.301936 
L 259.74885 168.57063 
L 261.064733 167.347374 
L 263.696498 167.53651 
L 265.012381 166.34775 
L 266.328263 165.328289 
L 267.644146 164.843434 
L 268.960028 164.883245 
L 270.275911 164.724632 
L 271.591793 164.685239 
L 272.907676 164.182342 
L 274.223559 164.373773 
L 275.539441 165.083901 
L 276.855324 166.260096 
L 278.171206 167.022023 
L 279.487089 166.303859 
L 280.802971 166.793879 
L 282.118854 167.922095 
L 284.750619 166.65864 
L 286.066502 166.4802 
L 287.382384 166.930348 
L 288.698267 168.672943 
L 290.014149 168.069286 
L 291.330032 166.930348 
L 292.645914 167.022023 
L 293.961797 167.922095 
L 295.27768 164.685239 
L 296.593562 163.769608 
L 297.909445 163.806663 
L 300.54121 165.043554 
L 301.857092 166.793879 
L 303.172975 167.022023 
L 304.488857 171.364715 
L 305.80474 173.191697 
L 307.120623 173.331129 
L 308.436505 172.916666 
L 309.752388 173.975138 
L 311.06827 172.250387 
L 312.384153 173.331129 
L 313.700035 172.513355 
L 316.3318 171.80101 
L 317.647683 171.80101 
L 318.963566 170.52847 
L 320.279448 169.791632 
L 321.595331 165.786953 
L 322.911213 161.317 
L 324.227096 155.145591 
L 328.174744 145.790267 
L 329.490626 143.403455 
L 330.806509 141.436495 
L 332.122391 140.112155 
L 333.438274 139.23719 
L 334.754156 138.748266 
L 337.385921 138.356064 
L 338.701804 137.351403 
L 340.017687 137.055831 
L 341.333569 137.11198 
L 342.649452 137.737402 
L 343.965334 137.855167 
L 346.597099 138.513088 
L 347.912982 140.304273 
L 351.86063 144.365738 
L 353.176512 145.734609 
L 354.492395 146.877055 
L 355.808277 148.270907 
L 357.12416 148.806756 
L 358.440042 149.109849 
L 359.755925 149.561949 
L 361.071808 150.236706 
L 362.38769 150.3875 
L 363.703573 150.849203 
L 365.019455 151.53681 
L 366.335338 151.569573 
L 367.65122 152.412809 
L 368.967103 152.870787 
L 371.598868 154.335188 
L 372.914751 155.250043 
L 374.230633 155.313065 
L 375.546516 155.914416 
L 376.862398 156.179711 
L 378.178281 157.31454 
L 379.494163 157.004991 
L 382.125929 158.054269 
L 383.441811 157.978632 
L 384.757694 159.237172 
L 386.073576 160.701357 
L 387.389459 160.284974 
L 388.705341 161.223026 
L 390.021224 160.521489 
L 391.337106 159.457599 
L 392.652989 159.429868 
L 396.600637 159.994485 
L 397.916519 160.168102 
L 400.548284 158.752752 
L 401.864167 159.569041 
L 403.18005 158.752752 
L 404.495932 158.939282 
L 405.811815 158.912492 
L 407.127697 158.054269 
L 408.44358 158.594696 
L 409.759462 159.794441 
L 411.075345 159.597031 
L 412.391227 159.046922 
L 413.70711 156.38181 
L 415.022993 156.291652 
L 416.338875 156.981442 
L 417.654758 156.002327 
L 418.97064 155.355228 
L 420.286523 155.104013 
L 421.602405 154.979967 
L 422.918288 155.848819 
L 424.23417 154.816153 
L 425.550053 153.585111 
L 426.865936 154.003607 
L 428.181818 154.256506 
L 429.497701 153.965075 
L 430.813583 153.965075 
L 432.129466 153.380164 
L 433.445348 154.080969 
L 434.761231 153.717006 
L 437.392996 152.728375 
L 438.708879 152.240324 
L 440.024761 151.934766 
L 441.340644 151.181072 
L 442.656526 149.433412 
L 443.972409 148.536437 
L 445.288291 147.290398 
L 446.604174 145.779119 
L 449.235939 142.162797 
L 451.867704 139.352878 
L 453.183587 138.492513 
L 454.499469 138.167099 
L 455.815352 137.383192 
L 457.131235 136.950341 
L 458.447117 135.535253 
L 459.763 134.418838 
L 466.342412 131.755853 
L 467.658295 131.945059 
L 468.974178 131.681705 
L 470.29006 131.273968 
L 471.605943 130.522513 
L 472.921825 129.593464 
L 476.869473 128.031279 
L 478.185356 127.831403 
L 480.817121 125.452758 
L 482.133003 125.159882 
L 483.448886 124.375437 
L 484.764768 123.340426 
L 487.396533 121.646665 
L 490.028299 121.272695 
L 491.344181 120.827472 
L 495.291829 120.884524 
L 496.607711 120.518543 
L 497.923594 120.360299 
L 500.555359 120.865482 
L 501.871242 120.497897 
L 504.503007 120.61804 
L 505.818889 121.056994 
L 508.450654 122.463752 
L 509.766537 121.973182 
L 511.08242 122.743924 
L 512.398302 123.25339 
L 513.714185 123.500896 
L 515.030067 124.428978 
L 516.34595 124.927969 
L 517.661832 124.889203 
L 518.977715 126.554715 
L 520.293597 127.115168 
L 521.60948 128.03469 
L 522.925363 129.28626 
L 524.241245 129.887784 
L 525.557128 130.129042 
L 526.87301 130.708913 
L 528.188893 130.959726 
L 532.136541 132.834389 
L 534.768306 134.408397 
L 536.084188 135.091765 
L 537.400071 134.831837 
L 538.715953 135.004621 
L 540.031836 134.206227 
L 541.347718 133.714913 
L 542.663601 133.104635 
L 543.979484 132.985506 
L 545.295366 133.162156 
L 546.611249 133.819923 
L 547.927131 133.91052 
L 549.243014 134.356298 
L 550.558896 134.597466 
L 551.874779 135.135528 
L 553.190661 135.479094 
L 554.506544 135.384104 
L 555.822427 135.462287 
L 558.454192 135.790605 
L 561.085957 135.300786 
L 563.717722 135.733483 
L 565.033605 135.423145 
L 567.66537 133.675103 
L 568.981252 133.104635 
L 570.297135 132.36718 
L 572.9289 131.58629 
L 574.244782 131.63826 
L 575.560665 132.074024 
L 576.876548 132.909757 
L 578.19243 134.011831 
L 579.508313 134.821104 
L 582.140078 135.423145 
L 583.45596 135.295248 
L 584.771843 135.384104 
L 586.087726 135.35628 
L 587.403608 135.201413 
L 588.719491 135.245498 
L 590.035373 135.146489 
L 591.351256 134.81574 
L 592.667138 134.864083 
L 593.983021 134.309563 
L 596.614786 133.966156 
L 599.246551 133.162156 
L 601.878316 132.787475 
L 603.194199 133.181378 
L 605.825964 133.282703 
L 609.773612 133.605687 
L 611.089494 133.467813 
L 612.405377 133.551371 
L 613.721259 133.769827 
L 617.668907 133.769827 
L 617.668907 133.769827 
" style="fill:none;stroke:#348abd;stroke-linecap:square;stroke-width:4;"/>
   </g>
   <g id="line2d_99">
    <defs>
     <path d="M 0 3 
C 0.795609 3 1.55874 2.683901 2.12132 2.12132 
C 2.683901 1.55874 3 0.795609 3 0 
C 3 -0.795609 2.683901 -1.55874 2.12132 -2.12132 
C 1.55874 -2.683901 0.795609 -3 0 -3 
C -0.795609 -3 -1.55874 -2.683901 -2.12132 -2.12132 
C -2.683901 -1.55874 -3 -0.795609 -3 0 
C -3 0.795609 -2.683901 1.55874 -2.12132 2.12132 
C -1.55874 2.683901 -0.795609 3 0 3 
z
" id="m33839840d8" style="stroke:#348abd;"/>
    </defs>
    <g clip-path="url(#pc67f6b0e12)">
     <use style="fill:#348abd;stroke:#348abd;" x="617.668907" xlink:href="#m33839840d8" y="133.769827"/>
    </g>
   </g>
   <g id="line2d_100">
    <path clip-path="url(#pc67f6b0e12)" d="M 49.207641 240.343549 
L 50.523523 240.343549 
L 51.839406 236.998895 
L 53.155288 229.954106 
L 54.471171 226.609452 
L 55.787053 225.180867 
L 57.102936 229.954106 
L 61.050584 229.954106 
L 62.366466 236.998895 
L 63.682349 240.343549 
L 64.998231 250.732993 
L 66.314114 240.343549 
L 68.945879 240.343549 
L 70.261762 244.655558 
L 71.577644 244.655558 
L 72.893527 250.732993 
L 74.209409 250.732993 
L 74.216383 433 
M 84.729892 433 
L 84.73647 261.122437 
L 86.052352 225.180867 
L 87.368235 210.142573 
L 88.684117 209.175218 
L 90 199.021823 
L 91.315883 190.13251 
L 93.947648 183.369753 
L 95.26353 179.289807 
L 96.579413 170.025879 
L 97.895295 164.700391 
L 99.211178 162.507363 
L 100.52706 158.997085 
L 101.842943 157.330813 
L 103.158826 154.107503 
L 104.474708 150.113842 
L 105.790591 150.57621 
L 107.106473 141.091642 
L 111.054121 130.489236 
L 112.370004 126.794633 
L 113.685886 122.455266 
L 115.001769 118.861514 
L 116.317651 115.864509 
L 118.949416 113.38847 
L 120.265299 111.400357 
L 121.581181 110.118482 
L 122.897064 109.338797 
L 124.212947 107.310511 
L 125.528829 106.10102 
L 126.844712 104.088075 
L 128.160594 103.370494 
L 129.476477 103.128035 
L 130.792359 102.739659 
L 132.108242 102.087286 
L 133.424125 101.974232 
L 134.740007 102.184076 
L 136.05589 102.904652 
L 137.371772 103.049393 
L 138.687655 103.668608 
L 141.31942 104.112596 
L 142.635302 105.000277 
L 145.267068 107.207165 
L 147.898833 108.351442 
L 149.214715 110.139342 
L 151.84648 113.047474 
L 153.162363 113.272641 
L 154.478245 113.903171 
L 155.794128 114.828845 
L 157.110011 115.123189 
L 158.425893 115.177091 
L 159.741776 116.124394 
L 161.057658 116.568454 
L 162.373541 118.459465 
L 163.689423 118.942096 
L 165.005306 119.623072 
L 166.321189 120.726169 
L 167.637071 120.818748 
L 168.952954 121.791177 
L 170.268836 123.251449 
L 171.584719 124.52038 
L 175.532366 127.595858 
L 176.848249 128.214573 
L 178.164132 129.24643 
L 179.480014 129.710702 
L 180.795897 129.50207 
L 183.427662 130.199459 
L 184.743544 129.703701 
L 187.37531 130.887898 
L 188.691192 133.316733 
L 190.007075 134.563813 
L 191.322957 135.280927 
L 192.63884 135.072513 
L 193.954722 136.898567 
L 195.270605 134.686938 
L 196.586487 135.461415 
L 197.90237 134.896621 
L 199.218253 135.115973 
L 200.534135 135.952438 
L 201.850018 136.959022 
L 203.1659 136.622096 
L 204.481783 139.143883 
L 205.797665 140.863934 
L 207.113548 140.266807 
L 208.42943 140.093144 
L 209.745313 140.135202 
L 211.061196 140.712408 
L 212.377078 141.14661 
L 213.692961 142.812865 
L 215.008843 143.278817 
L 217.640608 147.179056 
L 218.956491 145.355511 
L 220.272374 144.84074 
L 221.588256 143.759719 
L 222.904139 143.106662 
L 224.220021 144.455012 
L 225.535904 145.636559 
L 226.851786 145.086146 
L 228.167669 148.632368 
L 229.483551 149.04213 
L 230.799434 150.793786 
L 232.115317 149.229812 
L 233.431199 146.591761 
L 234.747082 140.499934 
L 236.062964 140.756242 
L 238.694729 137.755969 
L 240.010612 136.48575 
L 241.326495 135.973694 
L 242.642377 135.836068 
L 243.95826 138.576579 
L 245.274142 137.824 
L 246.590025 137.620826 
L 247.905907 139.148264 
L 249.22179 139.806578 
L 250.537672 141.429617 
L 251.853555 141.007085 
L 253.169438 141.121599 
L 254.48532 142.453537 
L 255.801203 142.475402 
L 257.117085 141.990983 
L 258.432968 141.007085 
L 259.74885 141.496086 
L 261.064733 142.118638 
L 262.380615 143.083856 
L 263.696498 143.540815 
L 265.012381 143.783577 
L 266.328263 144.486258 
L 267.644146 146.348964 
L 268.960028 146.37023 
L 270.275911 145.826896 
L 272.907676 142.623835 
L 274.223559 142.601752 
L 275.539441 142.065316 
L 276.855324 140.409107 
L 279.487089 139.302403 
L 280.802971 139.104514 
L 282.118854 138.4757 
L 283.434736 137.369699 
L 284.750619 137.061594 
L 286.066502 137.624784 
L 287.382384 136.842112 
L 288.698267 135.825533 
L 290.014149 134.534799 
L 291.330032 134.146944 
L 292.645914 134.301518 
L 293.961797 134.863664 
L 295.27768 133.462938 
L 296.593562 133.10153 
L 297.909445 131.849867 
L 299.225327 132.020458 
L 300.54121 131.243057 
L 301.857092 130.984159 
L 303.172975 130.558241 
L 305.80474 129.046352 
L 307.120623 128.970617 
L 308.436505 127.907197 
L 309.752388 127.193839 
L 311.06827 127.213587 
L 312.384153 126.9511 
L 313.700035 126.059667 
L 315.015918 125.366048 
L 316.3318 124.906724 
L 321.595331 123.859846 
L 322.911213 123.962895 
L 324.227096 123.897812 
L 325.542978 124.151798 
L 326.858861 124.192127 
L 329.490626 124.693087 
L 334.754156 125.682059 
L 337.385921 126.123844 
L 338.701804 126.003054 
L 340.017687 125.642859 
L 341.333569 124.945742 
L 343.965334 124.613129 
L 345.281217 124.143745 
L 346.597099 123.915246 
L 349.228865 123.057012 
L 350.544747 123.688615 
L 351.86063 122.985302 
L 354.492395 121.780171 
L 357.12416 120.194756 
L 361.071808 119.848652 
L 362.38769 120.144116 
L 365.019455 119.767869 
L 366.335338 120.22076 
L 367.65122 119.877696 
L 368.967103 119.056331 
L 370.282985 119.070098 
L 371.598868 118.147574 
L 372.914751 117.821961 
L 374.230633 117.334672 
L 376.862398 116.761041 
L 378.178281 115.986412 
L 379.494163 115.423429 
L 380.810046 114.074903 
L 382.125929 112.382765 
L 383.441811 111.170254 
L 386.073576 109.495522 
L 387.389459 107.543285 
L 388.705341 106.510477 
L 390.021224 105.016897 
L 392.652989 102.553565 
L 393.968872 101.848193 
L 395.284754 101.431667 
L 396.600637 100.788944 
L 397.916519 99.472578 
L 399.232402 97.951054 
L 400.548284 98.426395 
L 401.864167 96.839584 
L 404.495932 94.113445 
L 408.44358 91.587173 
L 409.759462 89.408605 
L 411.075345 88.499765 
L 412.391227 87.972234 
L 413.70711 87.592779 
L 415.022993 85.907395 
L 416.338875 86.631469 
L 417.654758 84.741891 
L 420.286523 83.920497 
L 421.602405 83.913018 
L 422.918288 83.699701 
L 424.23417 85.881294 
L 425.550053 83.668948 
L 426.865936 84.684713 
L 428.181818 84.434802 
L 429.497701 84.498576 
L 430.813583 84.43947 
L 432.129466 85.784563 
L 433.445348 84.812942 
L 434.761231 84.849882 
L 436.077114 84.695483 
L 437.392996 84.776443 
L 438.708879 84.737825 
L 440.024761 84.82731 
L 441.340644 84.691892 
L 442.656526 84.706376 
L 443.972409 85.895468 
L 445.288291 84.811191 
L 447.920057 85.2692 
L 449.235939 85.272451 
L 450.551822 85.415186 
L 451.867704 85.443653 
L 453.183587 84.454624 
L 454.499469 85.567886 
L 455.815352 85.36786 
L 457.131235 85.967173 
L 458.447117 84.493432 
L 459.763 83.636855 
L 461.078882 84.614151 
L 462.394765 84.104783 
L 463.710647 83.904115 
L 465.02653 82.931679 
L 466.342412 81.816013 
L 467.658295 82.236155 
L 468.974178 81.867244 
L 470.29006 81.772104 
L 471.605943 81.343463 
L 472.921825 80.650656 
L 474.237708 80.878352 
L 475.55359 80.382605 
L 476.869473 80.392426 
L 478.185356 81.128722 
L 479.501238 80.002855 
L 482.133003 79.722417 
L 483.448886 80.034228 
L 484.764768 82.895781 
L 486.080651 83.760091 
L 487.396533 83.125607 
L 488.712416 83.683776 
L 490.028299 85.609199 
L 491.344181 83.83625 
L 492.660064 84.633751 
L 493.975946 84.636404 
L 496.607711 85.182071 
L 499.239476 85.521056 
L 500.555359 88.546273 
L 501.871242 85.088547 
L 503.187124 83.196295 
L 504.503007 81.99614 
L 505.818889 82.93518 
L 507.134772 82.99856 
L 508.450654 82.108891 
L 509.766537 82.216211 
L 511.08242 84.778656 
L 512.398302 86.052533 
L 513.714185 87.10401 
L 515.030067 85.735189 
L 516.34595 86.042898 
L 517.661832 88.072463 
L 518.977715 87.58182 
L 520.293597 89.539262 
L 521.60948 88.344246 
L 522.925363 88.70119 
L 524.241245 88.915487 
L 526.87301 89.737732 
L 528.188893 92.079136 
L 529.504775 90.876315 
L 530.820658 91.507943 
L 532.136541 90.607027 
L 533.452423 92.302801 
L 534.768306 92.345004 
L 536.084188 92.676118 
L 537.400071 93.310622 
L 540.031836 94.124089 
L 541.347718 96.191208 
L 542.663601 94.782409 
L 545.295366 95.714476 
L 547.927131 97.331767 
L 549.243014 97.779251 
L 551.874779 98.925685 
L 554.506544 98.734133 
L 555.822427 98.630459 
L 558.454192 98.698119 
L 559.770074 98.499538 
L 561.085957 98.138477 
L 563.717722 98.216505 
L 566.349487 97.556571 
L 575.560665 96.920805 
L 576.876548 96.883143 
L 579.508313 96.62957 
L 580.824195 96.666858 
L 582.140078 96.579059 
L 583.45596 94.148011 
L 584.771843 95.669601 
L 586.087726 94.92041 
L 588.719491 93.863652 
L 590.035373 93.564686 
L 591.351256 91.450748 
L 592.667138 94.121917 
L 593.983021 89.688514 
L 595.298903 89.257388 
L 596.614786 88.65239 
L 597.930669 89.944948 
L 599.246551 89.665095 
L 600.562434 89.143332 
L 604.510081 89.143332 
L 604.510081 89.143332 
" style="fill:none;stroke:#348abd;stroke-linecap:square;stroke-opacity:0.4;stroke-width:2;"/>
   </g>
   <g id="line2d_101">
    <defs>
     <path d="M 0 3 
C 0.795609 3 1.55874 2.683901 2.12132 2.12132 
C 2.683901 1.55874 3 0.795609 3 0 
C 3 -0.795609 2.683901 -1.55874 2.12132 -2.12132 
C 1.55874 -2.683901 0.795609 -3 0 -3 
C -0.795609 -3 -1.55874 -2.683901 -2.12132 -2.12132 
C -2.683901 -1.55874 -3 -0.795609 -3 0 
C -3 0.795609 -2.683901 1.55874 -2.12132 2.12132 
C -1.55874 2.683901 -0.795609 3 0 3 
z
" id="m3e3e777bf7" style="stroke:#348abd;stroke-opacity:0.4;"/>
    </defs>
    <g clip-path="url(#pc67f6b0e12)">
     <use style="fill:#348abd;fill-opacity:0.4;stroke:#348abd;stroke-opacity:0.4;" x="604.510081" xlink:href="#m3e3e777bf7" y="89.143332"/>
    </g>
   </g>
   <g id="line2d_102">
    <path clip-path="url(#pc67f6b0e12)" d="M 36.048815 216.412287 
L 37.364698 210.334852 
L 38.68058 210.334852 
L 39.996463 206.022844 
L 41.312345 212.100279 
L 42.628228 214.101754 
L 43.94411 212.100279 
L 45.259993 214.101754 
L 46.575875 219.145069 
L 47.891758 216.412287 
L 49.207641 226.801731 
L 51.839406 226.801731 
L 53.155288 232.879166 
L 54.471171 232.879166 
L 55.787053 243.26861 
L 55.794311 433 
M 76.832605 433 
L 76.841174 208.755625 
L 78.157057 206.022844 
L 79.47294 202.67819 
L 82.104705 189.145287 
L 83.420587 187.976737 
L 84.73647 186.211311 
L 86.052352 188.745562 
L 87.368235 184.934898 
L 88.684117 181.651548 
L 91.315883 178.356118 
L 92.631765 178.959776 
L 93.947648 169.199325 
L 95.26353 164.860574 
L 96.579413 162.356634 
L 97.895295 158.492085 
L 99.211178 155.680897 
L 101.842943 148.608978 
L 103.158826 147.612852 
L 104.474708 142.685928 
L 105.790591 136.361037 
L 107.106473 135.73959 
L 108.422356 132.759996 
L 109.738238 130.952783 
L 111.054121 128.403332 
L 112.370004 126.910244 
L 113.685886 125.587472 
L 115.001769 126.390421 
L 116.317651 124.959038 
L 117.633534 125.905892 
L 118.949416 126.007552 
L 120.265299 127.206296 
L 121.581181 128.000458 
L 122.897064 130.030354 
L 124.212947 131.749746 
L 125.528829 134.305785 
L 126.844712 135.387698 
L 129.476477 139.850047 
L 130.792359 141.5608 
L 132.108242 143.981827 
L 133.424125 146.70267 
L 134.740007 148.581898 
L 136.05589 149.531227 
L 138.687655 155.294898 
L 141.31942 159.635161 
L 142.635302 158.027679 
L 143.951185 159.244369 
L 145.267068 161.758332 
L 146.58295 162.979815 
L 147.898833 163.853196 
L 149.214715 167.673724 
L 151.84648 173.654768 
L 153.162363 174.545454 
L 155.794128 174.242639 
L 157.110011 173.654768 
L 158.425893 174.093496 
L 159.741776 173.511333 
L 161.057658 173.089086 
L 162.373541 170.778552 
L 163.689423 170.195257 
L 165.005306 168.986714 
L 166.321189 168.468019 
L 167.637071 169.199325 
L 168.952954 169.199325 
L 170.268836 170.778552 
L 171.584719 171.139746 
L 172.900601 173.511333 
L 174.216484 175.011464 
L 176.848249 171.889342 
L 178.164132 173.511333 
L 179.480014 173.369259 
L 180.795897 174.545454 
L 182.111779 175.49243 
L 183.427662 175.49243 
L 184.743544 178.356118 
L 186.059427 180.931947 
L 187.37531 179.588769 
L 188.691192 181.899302 
L 190.007075 182.407446 
L 191.322957 180.245317 
L 192.63884 179.804438 
L 193.954722 179.588769 
L 195.270605 176.678603 
L 196.586487 177.966777 
L 197.90237 176.158708 
L 199.218253 175.011464 
L 200.534135 175.821867 
L 201.850018 175.821867 
L 203.1659 177.217181 
L 204.481783 180.023257 
L 205.797665 180.245317 
L 207.113548 181.167996 
L 208.42943 185.881873 
L 209.745313 186.211311 
L 211.061196 186.211311 
L 212.377078 187.245431 
L 213.692961 187.245431 
L 215.008843 181.651548 
L 217.640608 177.587293 
L 218.956491 174.854512 
L 220.272374 173.369259 
L 221.588256 171.509858 
L 222.904139 171.889342 
L 224.220021 169.092642 
L 225.535904 169.306772 
L 228.167669 168.065611 
L 230.799434 164.940943 
L 232.115317 164.622021 
L 233.431199 162.087769 
L 234.747082 158.283904 
L 237.378847 153.501271 
L 238.694729 151.933317 
L 240.010612 151.014679 
L 241.326495 145.980459 
L 242.642377 143.902416 
L 243.95826 142.722486 
L 245.274142 140.963161 
L 246.590025 140.248138 
L 247.905907 138.927142 
L 249.22179 135.705173 
L 250.537672 135.878056 
L 251.853555 135.187101 
L 253.169438 134.718493 
L 255.801203 132.675499 
L 257.117085 131.307465 
L 258.432968 130.436019 
L 259.74885 130.204002 
L 261.064733 129.302785 
L 263.696498 128.069151 
L 265.012381 126.563775 
L 266.328263 126.043598 
L 267.644146 126.846651 
L 268.960028 125.941694 
L 270.275911 125.401921 
L 271.591793 123.947688 
L 272.907676 123.900693 
L 274.223559 124.908768 
L 276.855324 121.797898 
L 278.171206 121.698544 
L 279.487089 120.986541 
L 280.802971 121.461862 
L 282.118854 121.268172 
L 283.434736 119.47313 
L 286.066502 121.52402 
L 287.382384 121.307587 
L 288.698267 122.347033 
L 291.330032 123.347953 
L 292.645914 124.942263 
L 293.961797 126.188652 
L 295.27768 126.17651 
L 297.909445 127.8912 
L 299.225327 128.179719 
L 300.54121 128.897159 
L 301.857092 130.41185 
L 303.172975 130.283602 
L 304.488857 132.087988 
L 305.80474 132.997241 
L 307.120623 133.414297 
L 308.436505 135.153928 
L 311.06827 136.810674 
L 312.384153 138.49306 
L 313.700035 139.127377 
L 316.3318 142.007747 
L 317.647683 142.504463 
L 318.963566 143.725265 
L 320.279448 144.674368 
L 321.595331 144.508515 
L 322.911213 145.334962 
L 324.227096 145.957732 
L 325.542978 147.187787 
L 326.858861 148.024234 
L 328.174744 148.581898 
L 329.490626 148.910133 
L 330.806509 150.887923 
L 332.122391 152.44963 
L 334.754156 154.511261 
L 336.070039 154.591846 
L 337.385921 154.795225 
L 338.701804 157.139925 
L 340.017687 158.335679 
L 341.333569 157.926403 
L 342.649452 158.917328 
L 345.281217 162.424611 
L 346.597099 163.630033 
L 347.912982 164.309743 
L 349.228865 166.556029 
L 350.544747 169.306772 
L 351.86063 170.195257 
L 353.176512 168.986714 
L 354.492395 170.081273 
L 355.808277 172.410744 
L 357.12416 173.369259 
L 358.440042 172.018002 
L 359.755925 172.950939 
L 361.071808 173.511333 
L 362.38769 175.011464 
L 363.703573 173.654768 
L 365.019455 171.761777 
L 366.335338 173.799589 
L 368.967103 171.889342 
L 370.282985 171.139746 
L 371.598868 170.542503 
L 372.914751 169.524005 
L 374.230633 169.524005 
L 375.546516 167.577333 
L 376.862398 168.065611 
L 378.178281 168.673348 
L 379.494163 169.855873 
L 380.810046 170.660063 
L 382.125929 172.278683 
L 383.441811 175.011464 
L 384.757694 173.369259 
L 386.073576 174.093496 
L 387.389459 173.511333 
L 388.705341 171.889342 
L 390.021224 171.139746 
L 391.337106 170.778552 
L 392.652989 169.855873 
L 393.968872 172.814054 
L 395.284754 173.228518 
L 396.600637 173.799589 
L 397.916519 175.821867 
L 399.232402 177.217181 
L 401.864167 179.376158 
L 403.18005 179.804438 
L 404.495932 180.699558 
L 405.811815 180.699558 
L 407.127697 180.245317 
L 408.44358 181.167996 
L 409.759462 180.931947 
L 411.075345 182.151221 
L 412.391227 184.934898 
L 413.70711 186.211311 
L 415.022993 191.321391 
L 416.338875 192.288746 
L 417.654758 183.758702 
L 418.97064 176.855987 
L 420.286523 175.989341 
L 421.602405 173.369259 
L 422.918288 172.814054 
L 424.23417 172.018002 
L 425.550053 171.018378 
L 426.865936 172.814054 
L 428.181818 176.678603 
L 429.497701 176.678603 
L 430.813583 178.356118 
L 432.129466 177.587293 
L 433.445348 177.401095 
L 434.761231 177.587293 
L 436.077114 179.376158 
L 437.392996 180.023257 
L 440.024761 179.588769 
L 441.340644 178.755843 
L 442.656526 178.356118 
L 443.972409 179.588769 
L 445.288291 178.959776 
L 446.604174 179.588769 
L 447.920057 178.554648 
L 449.235939 179.588769 
L 450.551822 181.651548 
L 451.867704 181.407822 
L 453.183587 179.804438 
L 454.499469 180.699558 
L 455.815352 180.699558 
L 457.131235 181.651548 
L 458.447117 180.245317 
L 459.763 179.166521 
L 461.078882 177.217181 
L 462.394765 174.093496 
L 463.710647 169.414995 
L 465.02653 167.104461 
L 466.342412 166.201248 
L 467.658295 165.684342 
L 468.974178 164.622021 
L 471.605943 166.201248 
L 472.921825 169.199325 
L 474.237708 169.306772 
L 475.55359 170.310114 
L 476.869473 168.777077 
L 478.185356 168.881529 
L 479.501238 168.065611 
L 482.133003 165.769264 
L 483.448886 166.556029 
L 484.764768 166.466544 
L 486.080651 167.673724 
L 487.396533 169.092642 
L 488.712416 168.570332 
L 490.028299 171.262104 
L 491.344181 172.678408 
L 492.660064 172.814054 
L 493.975946 171.889342 
L 495.291829 172.278683 
L 496.607711 172.278683 
L 497.923594 174.545454 
L 499.239476 173.228518 
L 500.555359 172.410744 
L 501.871242 173.228518 
L 503.187124 174.699186 
L 504.503007 175.821867 
L 505.818889 175.989341 
L 507.134772 176.503293 
L 509.766537 182.407446 
L 511.08242 182.933422 
L 512.398302 184.934898 
L 513.714185 185.881873 
L 516.34595 186.548152 
L 517.661832 185.881873 
L 518.977715 186.211311 
L 520.293597 187.606625 
L 521.60948 186.892737 
L 522.925363 186.892737 
L 524.241245 186.548152 
L 526.87301 187.245431 
L 528.188893 187.976737 
L 529.504775 188.356221 
L 530.820658 189.145287 
L 532.136541 187.245431 
L 533.452423 187.606625 
L 534.768306 186.211311 
L 536.084188 186.548152 
L 537.400071 185.559521 
L 538.715953 186.892737 
L 540.031836 186.211311 
L 541.347718 187.976737 
L 542.663601 190.860161 
L 543.979484 191.797266 
L 545.295366 193.322866 
L 546.611249 193.322866 
L 549.243014 191.321391 
L 550.558896 193.322866 
L 551.874779 189.978212 
L 553.190661 188.356221 
L 554.506544 186.211311 
L 555.822427 186.548152 
L 557.138309 185.243956 
L 558.454192 184.934898 
L 559.770074 182.668127 
L 561.085957 181.899302 
L 562.401839 180.931947 
L 565.033605 180.931947 
L 566.349487 180.023257 
L 567.66537 178.554648 
L 568.981252 177.966777 
L 570.297135 177.035496 
L 571.613017 177.401095 
L 572.9289 177.035496 
L 574.244782 177.035496 
L 575.560665 176.855987 
L 576.876548 178.356118 
L 578.19243 177.587293 
L 579.508313 178.356118 
L 580.824195 177.401095 
L 583.45596 177.775834 
L 584.771843 178.356118 
L 586.087726 178.755843 
L 587.403608 180.245317 
L 591.351256 180.245317 
L 591.351256 180.245317 
" style="fill:none;stroke:#988ed5;stroke-linecap:square;stroke-opacity:0.4;stroke-width:2;"/>
   </g>
   <g id="line2d_103">
    <defs>
     <path d="M 0 3 
C 0.795609 3 1.55874 2.683901 2.12132 2.12132 
C 2.683901 1.55874 3 0.795609 3 0 
C 3 -0.795609 2.683901 -1.55874 2.12132 -2.12132 
C 1.55874 -2.683901 0.795609 -3 0 -3 
C -0.795609 -3 -1.55874 -2.683901 -2.12132 -2.12132 
C -2.683901 -1.55874 -3 -0.795609 -3 0 
C -3 0.795609 -2.683901 1.55874 -2.12132 2.12132 
C -1.55874 2.683901 -0.795609 3 0 3 
z
" id="m0edcb13f61" style="stroke:#988ed5;stroke-opacity:0.4;"/>
    </defs>
    <g clip-path="url(#pc67f6b0e12)">
     <use style="fill:#988ed5;fill-opacity:0.4;stroke:#988ed5;stroke-opacity:0.4;" x="591.351256" xlink:href="#m0edcb13f61" y="180.245317"/>
    </g>
   </g>
   <g id="line2d_104">
    <path clip-path="url(#pc67f6b0e12)" d="M 78.150026 433 
L 78.157057 249.210837 
L 79.47294 249.210837 
L 80.788822 225.087295 
L 82.104705 225.087295 
L 83.420587 213.269266 
L 84.73647 207.653061 
L 87.368235 198.230972 
L 88.684117 191.186182 
L 90 187.110223 
L 91.315883 180.48768 
L 92.631765 179.031312 
L 93.947648 173.046688 
L 95.26353 168.641869 
L 96.579413 168.366837 
L 97.895295 163.42117 
L 99.211178 161.110636 
L 100.52706 158.217769 
L 101.842943 155.618274 
L 103.158826 154.044868 
L 104.474708 151.831982 
L 105.790591 149.016535 
L 107.106473 147.828325 
L 108.422356 146.22143 
L 109.738238 144.216068 
L 111.054121 142.593379 
L 112.370004 141.670336 
L 113.685886 140.521884 
L 115.001769 139.564498 
L 117.633534 135.327471 
L 118.949416 135.365103 
L 120.265299 133.583776 
L 121.581181 132.814282 
L 122.897064 131.717574 
L 124.212947 131.058747 
L 125.528829 131.183654 
L 126.844712 131.512205 
L 128.160594 130.624097 
L 129.476477 131.512205 
L 130.792359 131.812403 
L 132.108242 132.83973 
L 133.424125 132.693991 
L 134.740007 132.909935 
L 136.05589 132.400512 
L 137.371772 132.637346 
L 138.687655 131.275154 
L 140.003537 131.013583 
L 141.31942 131.041795 
L 142.635302 131.425044 
L 143.951185 131.390321 
L 145.267068 131.860043 
L 146.58295 131.753065 
L 147.898833 132.993331 
L 149.214715 133.129036 
L 150.530598 132.788877 
L 151.84648 132.112669 
L 153.162363 132.763515 
L 154.478245 133.765542 
L 155.794128 134.536863 
L 157.110011 134.723418 
L 158.425893 134.522608 
L 159.741776 133.765542 
L 161.057658 134.551131 
L 162.373541 134.059651 
L 163.689423 133.443911 
L 167.637071 133.057799 
L 168.952954 131.997858 
L 170.268836 132.155191 
L 171.584719 131.535534 
L 172.900601 131.064402 
L 174.216484 131.315362 
L 175.532366 131.741225 
L 176.848249 131.588157 
L 178.164132 132.884368 
L 179.480014 131.729395 
L 180.795897 131.770842 
L 183.427662 130.929265 
L 184.743544 130.25519 
L 186.059427 130.531016 
L 187.37531 130.207038 
L 190.007075 130.884489 
L 191.322957 131.723484 
L 192.63884 131.121071 
L 193.954722 132.179543 
L 195.270605 131.735309 
L 196.586487 133.05134 
L 197.90237 133.758771 
L 199.218253 133.697964 
L 200.534135 133.483739 
L 201.850018 132.456267 
L 203.1659 130.373552 
L 204.481783 129.230004 
L 205.797665 128.40249 
L 208.42943 128.459428 
L 209.745313 128.393021 
L 211.061196 129.050912 
L 213.692961 131.189357 
L 215.008843 131.149485 
L 216.324726 129.926568 
L 217.640608 130.164365 
L 218.956491 130.569273 
L 220.272374 131.332627 
L 221.588256 131.705763 
L 224.220021 132.980471 
L 225.535904 134.409056 
L 228.167669 134.701773 
L 229.483551 134.594017 
L 230.799434 135.46339 
L 233.431199 136.321911 
L 234.747082 135.631206 
L 236.062964 135.081442 
L 238.694729 135.245012 
L 240.010612 134.963593 
L 241.326495 135.274944 
L 242.642377 135.140715 
L 245.274142 136.820087 
L 246.590025 136.770345 
L 247.905907 136.845019 
L 249.22179 135.73126 
L 250.537672 135.022402 
L 251.853555 134.948927 
L 253.169438 135.044514 
L 255.801203 133.915295 
L 257.117085 133.684485 
L 259.74885 133.901619 
L 261.064733 133.025531 
L 262.380615 132.29576 
L 265.012381 131.172256 
L 266.328263 129.837707 
L 267.644146 129.401134 
L 268.960028 129.110372 
L 271.591793 127.986821 
L 274.223559 126.265475 
L 275.539441 125.964632 
L 276.855324 125.547864 
L 278.171206 124.64401 
L 279.487089 124.001947 
L 283.434736 122.681282 
L 284.750619 122.094779 
L 287.382384 121.726259 
L 288.698267 122.122787 
L 291.330032 121.632512 
L 292.645914 121.563336 
L 293.961797 121.780963 
L 296.593562 121.946282 
L 299.225327 121.744471 
L 300.54121 121.878709 
L 301.857092 121.662689 
L 303.172975 121.277996 
L 305.80474 121.455696 
L 307.120623 120.969118 
L 308.436505 120.986432 
L 309.752388 120.643882 
L 312.384153 121.37547 
L 313.700035 121.228028 
L 315.015918 121.363621 
L 316.3318 122.007977 
L 317.647683 122.428017 
L 318.963566 123.328762 
L 320.279448 123.670207 
L 322.911213 125.066363 
L 324.227096 125.844368 
L 325.542978 126.455576 
L 326.858861 127.197283 
L 329.490626 128.111709 
L 330.806509 127.945422 
L 333.438274 127.315737 
L 334.754156 126.438949 
L 336.070039 125.713183 
L 337.385921 124.45722 
L 338.701804 123.87537 
L 341.333569 121.286831 
L 342.649452 120.231907 
L 343.965334 119.943652 
L 345.281217 118.968724 
L 346.597099 118.232492 
L 347.912982 116.360122 
L 349.228865 115.174087 
L 350.544747 114.335867 
L 354.492395 111.399132 
L 355.808277 110.184048 
L 358.440042 108.227584 
L 361.071808 106.722993 
L 362.38769 105.741291 
L 363.703573 104.297904 
L 367.65122 98.353511 
L 371.598868 94.218921 
L 374.230633 91.029399 
L 375.546516 89.911512 
L 378.178281 87.05035 
L 379.494163 86.15123 
L 380.810046 85.002921 
L 383.441811 83.152952 
L 384.757694 81.840776 
L 386.073576 81.014784 
L 388.705341 79.863512 
L 390.021224 78.614874 
L 391.337106 77.184579 
L 393.968872 74.878352 
L 395.284754 73.815397 
L 397.916519 72.535615 
L 399.232402 72.19051 
L 407.127697 68.459889 
L 408.44358 67.940314 
L 409.759462 67.89602 
L 412.391227 68.53613 
L 416.338875 69.080959 
L 418.97064 70.173037 
L 420.286523 70.047819 
L 422.918288 70.334782 
L 424.23417 70.733356 
L 425.550053 71.332567 
L 426.865936 69.968502 
L 428.181818 70.40954 
L 429.497701 71.147699 
L 430.813583 71.693445 
L 432.129466 72.699786 
L 433.445348 73.452625 
L 434.761231 74.619237 
L 436.077114 78.082921 
L 438.708879 78.647728 
L 440.024761 79.361314 
L 442.656526 80.29835 
L 447.920057 81.263589 
L 449.235939 81.290332 
L 450.551822 81.481162 
L 451.867704 81.52261 
L 453.183587 81.424359 
L 454.499469 81.723378 
L 455.815352 81.662718 
L 458.447117 82.500995 
L 463.710647 82.630925 
L 465.02653 82.652615 
L 466.342412 82.39482 
L 467.658295 82.82524 
L 468.974178 84.340843 
L 470.29006 85.579813 
L 471.605943 85.971725 
L 475.55359 85.639507 
L 479.501238 84.113167 
L 480.817121 83.826331 
L 482.133003 83.833109 
L 483.448886 83.488463 
L 484.764768 83.810126 
L 486.080651 84.334833 
L 487.396533 83.427071 
L 488.712416 82.657539 
L 490.028299 82.55092 
L 491.344181 83.048506 
L 492.660064 84.267141 
L 493.975946 84.945705 
L 495.291829 85.157105 
L 497.923594 87.017378 
L 499.239476 87.482941 
L 500.555359 87.639422 
L 503.187124 89.159639 
L 504.503007 89.603091 
L 505.818889 89.912602 
L 507.134772 90.431433 
L 508.450654 90.68091 
L 511.08242 90.850082 
L 512.398302 90.794121 
L 515.030067 91.229912 
L 516.34595 91.172518 
L 520.293597 91.345764 
L 521.60948 91.611074 
L 524.241245 91.607006 
L 526.87301 91.63102 
L 528.188893 91.764815 
L 529.504775 91.699609 
L 534.768306 90.875236 
L 536.084188 90.832306 
L 537.400071 90.384505 
L 540.031836 89.023816 
L 541.347718 88.225958 
L 543.979484 87.091818 
L 546.611249 86.36441 
L 547.927131 85.407253 
L 551.874779 83.066439 
L 553.190661 82.378332 
L 554.506544 82.182965 
L 555.822427 81.833147 
L 559.770074 79.675022 
L 562.401839 78.574247 
L 565.033605 78.005586 
L 566.349487 77.748654 
L 567.66537 76.832174 
L 568.981252 76.377481 
L 570.297135 75.490275 
L 572.9289 74.364011 
L 574.244782 73.802992 
L 575.560665 72.86857 
L 579.508313 70.836661 
L 582.140078 70.018893 
L 583.45596 69.794595 
L 587.403608 69.794595 
L 587.403608 69.794595 
" style="fill:none;stroke:#777777;stroke-linecap:square;stroke-opacity:0.4;stroke-width:2;"/>
   </g>
   <g id="line2d_105">
    <defs>
     <path d="M 0 3 
C 0.795609 3 1.55874 2.683901 2.12132 2.12132 
C 2.683901 1.55874 3 0.795609 3 0 
C 3 -0.795609 2.683901 -1.55874 2.12132 -2.12132 
C 1.55874 -2.683901 0.795609 -3 0 -3 
C -0.795609 -3 -1.55874 -2.683901 -2.12132 -2.12132 
C -2.683901 -1.55874 -3 -0.795609 -3 0 
C -3 0.795609 -2.683901 1.55874 -2.12132 2.12132 
C -1.55874 2.683901 -0.795609 3 0 3 
z
" id="m582e1d7d32" style="stroke:#777777;stroke-opacity:0.4;"/>
    </defs>
    <g clip-path="url(#pc67f6b0e12)">
     <use style="fill:#777777;fill-opacity:0.4;stroke:#777777;stroke-opacity:0.4;" x="587.403608" xlink:href="#m582e1d7d32" y="69.794595"/>
    </g>
   </g>
   <g id="line2d_106">
    <path clip-path="url(#pc67f6b0e12)" d="M 50.515701 433 
L 50.523523 228.412403 
L 55.787053 228.412403 
L 57.102936 201.55608 
L 58.418819 201.55608 
L 59.734701 204.288862 
L 63.682349 204.288862 
L 64.998231 197.244072 
L 66.314114 211.945524 
L 67.629996 201.55608 
L 68.945879 182.778668 
L 71.577644 182.778668 
L 72.893527 177.432539 
L 74.209409 179.011767 
L 75.525292 172.389224 
L 76.841174 173.500014 
L 78.157057 172.389224 
L 79.47294 170.078691 
L 80.788822 170.078691 
L 82.104705 171.355104 
L 83.420587 171.355104 
L 84.73647 175.122005 
L 86.052352 175.122005 
L 88.684117 185.089202 
L 90 185.089202 
L 91.315883 164.519951 
L 92.631765 164.519951 
L 93.947648 163.303976 
L 95.26353 147.705288 
L 96.579413 145.238417 
L 99.211178 136.254247 
L 100.52706 133.88891 
L 104.474708 122.367201 
L 105.790591 117.55022 
L 107.106473 116.180266 
L 108.422356 114.36457 
L 112.370004 110.198248 
L 113.685886 109.886202 
L 115.001769 109.451399 
L 116.317651 108.055966 
L 117.633534 107.303989 
L 120.265299 106.346502 
L 121.581181 105.870763 
L 122.897064 104.792553 
L 124.212947 104.11706 
L 126.844712 101.818325 
L 128.160594 100.675148 
L 129.476477 99.362255 
L 130.792359 98.269043 
L 134.740007 97.434058 
L 137.371772 97.525644 
L 140.003537 97.833393 
L 142.635302 97.564375 
L 145.267068 97.362146 
L 147.898833 96.764437 
L 151.84648 96.522824 
L 159.741776 96.590811 
L 163.689423 96.707101 
L 166.321189 96.700235 
L 170.268836 96.907584 
L 172.900601 97.148458 
L 175.532366 97.535318 
L 180.795897 97.78658 
L 184.743544 97.992164 
L 186.059427 98.142555 
L 187.37531 98.43509 
L 191.322957 99.755408 
L 195.270605 100.852178 
L 196.586487 101.234293 
L 197.90237 101.321239 
L 199.218253 101.693298 
L 201.850018 102.861416 
L 205.797665 105.162174 
L 207.113548 106.618953 
L 211.061196 109.618392 
L 212.377078 110.373823 
L 215.008843 112.285231 
L 216.324726 112.493774 
L 218.956491 113.90334 
L 220.272374 114.379447 
L 221.588256 115.37163 
L 224.220021 116.805783 
L 226.851786 118.82602 
L 228.167669 120.067541 
L 229.483551 120.826065 
L 232.115317 121.905203 
L 233.431199 121.991523 
L 234.747082 122.418011 
L 236.062964 122.316563 
L 237.378847 122.610095 
L 238.694729 123.458494 
L 240.010612 123.733779 
L 241.326495 123.747676 
L 242.642377 123.929531 
L 243.95826 123.943611 
L 246.590025 124.328875 
L 247.905907 124.314428 
L 254.48532 125.737238 
L 255.801203 125.880826 
L 257.117085 126.20492 
L 259.74885 127.168999 
L 261.064733 127.522525 
L 262.380615 128.106105 
L 265.012381 128.540046 
L 266.328263 128.57838 
L 270.275911 130.219576 
L 271.591793 130.348605 
L 272.907676 133.298935 
L 274.223559 130.965879 
L 275.539441 131.515988 
L 278.171206 130.241004 
L 280.802971 128.161998 
L 282.118854 125.222216 
L 283.434736 125.61075 
L 284.750619 124.056735 
L 286.066502 124.08515 
L 287.382384 122.481766 
L 288.698267 121.954467 
L 290.014149 121.709747 
L 291.330032 121.673381 
L 293.961797 122.165668 
L 295.27768 121.709747 
L 296.593562 122.558632 
L 297.909445 122.948987 
L 300.54121 122.909491 
L 301.857092 122.49455 
L 303.172975 122.291308 
L 304.488857 121.576834 
L 305.80474 121.397469 
L 307.120623 121.06829 
L 313.700035 120.442005 
L 315.015918 120.253604 
L 316.3318 119.873019 
L 318.963566 118.936565 
L 320.279448 118.786023 
L 321.595331 118.421026 
L 322.911213 118.285204 
L 324.227096 117.884971 
L 328.174744 115.831867 
L 332.122391 113.358233 
L 333.438274 112.559543 
L 337.385921 110.766313 
L 338.701804 112.765282 
L 340.017687 109.710764 
L 341.333569 109.280949 
L 342.649452 109.0497 
L 345.281217 108.158814 
L 346.597099 110.442343 
L 347.912982 105.336206 
L 349.228865 106.968902 
L 350.544747 106.38138 
L 351.86063 105.607318 
L 354.492395 104.393551 
L 355.808277 102.025786 
L 357.12416 103.492283 
L 358.440042 103.038472 
L 359.755925 102.71716 
L 363.703573 101.440049 
L 365.019455 101.006906 
L 366.335338 100.379793 
L 368.967103 98.785949 
L 372.914751 97.209878 
L 375.546516 96.507004 
L 379.494163 96.211781 
L 383.441811 96.138875 
L 386.073576 96.005036 
L 391.337106 95.003862 
L 393.968872 93.882277 
L 395.284754 93.360616 
L 397.916519 92.532491 
L 403.18005 90.641879 
L 407.127697 89.713616 
L 409.759462 89.226351 
L 415.022993 88.573733 
L 417.654758 88.139701 
L 426.865936 86.680246 
L 428.181818 86.455634 
L 432.129466 86.204774 
L 433.445348 85.910073 
L 436.077114 86.042084 
L 440.024761 86.167335 
L 446.604174 86.020749 
L 447.920057 86.03759 
L 450.551822 86.230924 
L 453.183587 86.238891 
L 459.763 86.150348 
L 461.078882 86.777886 
L 468.974178 87.426686 
L 470.29006 86.872602 
L 478.185356 86.010654 
L 479.501238 86.437163 
L 484.764768 87.230783 
L 486.080651 87.441482 
L 487.396533 88.561764 
L 488.712416 89.25417 
L 491.344181 89.553689 
L 495.291829 89.31136 
L 496.607711 89.402478 
L 497.923594 89.612036 
L 500.555359 89.540911 
L 503.187124 89.788452 
L 504.503007 89.837587 
L 507.134772 90.261861 
L 508.450654 90.131394 
L 512.398302 90.255906 
L 513.714185 90.366459 
L 515.030067 89.934884 
L 516.34595 89.122488 
L 517.661832 89.752427 
L 518.977715 90.199451 
L 521.60948 90.419033 
L 522.925363 90.933352 
L 524.241245 90.864988 
L 525.557128 91.118246 
L 526.87301 91.233783 
L 528.188893 91.546847 
L 529.504775 91.646138 
L 530.820658 91.991407 
L 532.136541 91.949685 
L 533.452423 92.257806 
L 534.768306 92.434057 
L 537.400071 92.40826 
L 540.031836 92.844113 
L 541.347718 93.325866 
L 542.663601 93.382604 
L 543.979484 93.013118 
L 545.295366 94.324797 
L 547.927131 95.614799 
L 549.243014 95.930953 
L 550.558896 96.114652 
L 551.874779 96.077292 
L 553.190661 96.516042 
L 554.506544 95.395086 
L 555.822427 94.545109 
L 558.454192 93.770836 
L 559.770074 93.478262 
L 561.085957 93.411972 
L 562.401839 93.102839 
L 566.349487 93.102839 
L 566.349487 93.102839 
" style="fill:none;stroke:#fbc15e;stroke-linecap:square;stroke-opacity:0.4;stroke-width:2;"/>
   </g>
   <g id="line2d_107">
    <defs>
     <path d="M 0 3 
C 0.795609 3 1.55874 2.683901 2.12132 2.12132 
C 2.683901 1.55874 3 0.795609 3 0 
C 3 -0.795609 2.683901 -1.55874 2.12132 -2.12132 
C 1.55874 -2.683901 0.795609 -3 0 -3 
C -0.795609 -3 -1.55874 -2.683901 -2.12132 -2.12132 
C -2.683901 -1.55874 -3 -0.795609 -3 0 
C -3 0.795609 -2.683901 1.55874 -2.12132 2.12132 
C -1.55874 2.683901 -0.795609 3 0 3 
z
" id="mdd158afa54" style="stroke:#fbc15e;stroke-opacity:0.4;"/>
    </defs>
    <g clip-path="url(#pc67f6b0e12)">
     <use style="fill:#fbc15e;fill-opacity:0.4;stroke:#fbc15e;stroke-opacity:0.4;" x="566.349487" xlink:href="#mdd158afa54" y="93.102839"/>
    </g>
   </g>
   <g id="line2d_108">
    <path clip-path="url(#pc67f6b0e12)" d="M 80.78095 433 
L 80.788822 227.095639 
L 82.104705 227.095639 
L 83.420587 195.927308 
L 84.73647 195.927308 
L 86.052352 183.772438 
L 87.368235 177.695003 
L 88.684117 171.072461 
L 90 167.030528 
L 91.315883 159.816371 
L 92.631765 157.196288 
L 93.947648 147.237174 
L 95.26353 144.335571 
L 96.579413 141.11131 
L 97.895295 140.083638 
L 100.52706 132.194031 
L 101.842943 132.848191 
L 103.158826 124.725234 
L 104.474708 122.251239 
L 105.790591 114.230831 
L 107.106473 114.531511 
L 108.422356 111.677462 
L 109.738238 110.585101 
L 111.054121 105.112706 
L 112.370004 102.207951 
L 113.685886 98.799222 
L 115.001769 98.633472 
L 116.317651 95.283135 
L 118.949416 92.635826 
L 124.212947 93.648328 
L 125.528829 94.120325 
L 126.844712 94.983867 
L 129.476477 94.355606 
L 130.792359 95.095674 
L 132.108242 95.665242 
L 133.424125 96.03821 
L 134.740007 97.377431 
L 136.05589 97.606553 
L 137.371772 97.97189 
L 140.003537 99.598933 
L 142.635302 101.641601 
L 143.951185 102.662081 
L 145.267068 104.015372 
L 146.58295 106.812593 
L 147.898833 108.774882 
L 149.214715 109.661575 
L 150.530598 111.09194 
L 151.84648 110.910334 
L 153.162363 111.361897 
L 154.478245 112.244449 
L 158.425893 116.521265 
L 159.741776 117.579509 
L 161.057658 119.383966 
L 162.373541 120.576148 
L 163.689423 120.811417 
L 165.005306 121.605881 
L 166.321189 122.264983 
L 167.637071 123.142765 
L 168.952954 124.757677 
L 170.268836 126.098826 
L 171.584719 126.586163 
L 172.900601 127.968952 
L 174.216484 129.944582 
L 175.532366 132.792574 
L 176.848249 133.886292 
L 178.164132 136.067995 
L 179.480014 137.290781 
L 180.795897 138.74562 
L 182.111779 138.418876 
L 184.743544 139.859586 
L 186.059427 141.257069 
L 187.37531 140.588668 
L 188.691192 142.530228 
L 190.007075 144.156776 
L 191.322957 145.072874 
L 192.63884 144.638386 
L 193.954722 145.520334 
L 195.270605 148.214234 
L 196.586487 151.695416 
L 197.90237 152.092494 
L 199.218253 152.092494 
L 200.534135 152.708559 
L 201.850018 155.588806 
L 203.1659 157.772851 
L 204.481783 155.212499 
L 205.797665 155.336888 
L 207.113548 154.605582 
L 208.42943 154.725015 
L 209.745313 156.237773 
L 211.061196 155.716371 
L 212.377078 155.716371 
L 213.692961 156.916115 
L 215.008843 156.505438 
L 216.324726 157.626618 
L 217.640608 157.920525 
L 218.956491 156.105713 
L 220.272374 155.588806 
L 221.588256 154.022286 
L 222.904139 154.487093 
L 224.220021 153.242024 
L 225.535904 151.793704 
L 228.167669 150.473082 
L 229.483551 149.596294 
L 230.799434 151.404363 
L 232.115317 149.940879 
L 233.431199 152.092494 
L 234.747082 149.6817 
L 236.062964 149.342956 
L 237.378847 149.426927 
L 238.694729 148.528147 
L 240.010612 145.716269 
L 241.326495 144.275736 
L 242.642377 141.014919 
L 243.95826 140.403046 
L 245.274142 139.638834 
L 246.590025 137.980925 
L 247.905907 134.714952 
L 250.537672 130.843234 
L 251.853555 130.175896 
L 254.48532 129.716785 
L 257.117085 130.082941 
L 259.74885 131.490691 
L 261.064733 130.746061 
L 262.380615 130.843234 
L 265.012381 130.082941 
L 266.328263 130.013602 
L 267.644146 128.817406 
L 268.960028 129.0751 
L 270.275911 129.44792 
L 271.591793 128.732484 
L 272.907676 129.161992 
L 274.223559 128.356176 
L 275.539441 128.171507 
L 276.855324 128.690202 
L 278.171206 127.435346 
L 279.487089 126.715139 
L 280.802971 126.512957 
L 283.434736 125.69583 
L 284.750619 124.822775 
L 286.066502 123.230505 
L 287.382384 122.430913 
L 290.014149 121.619047 
L 292.645914 121.632224 
L 293.961797 121.791257 
L 295.27768 122.320089 
L 296.593562 123.012112 
L 297.909445 122.983232 
L 299.225327 122.782614 
L 300.54121 122.237506 
L 301.857092 121.474859 
L 303.172975 120.308266 
L 304.488857 119.681919 
L 305.80474 118.491972 
L 307.120623 117.751505 
L 308.436505 117.270861 
L 309.752388 117.045902 
L 311.06827 116.949138 
L 316.3318 115.576776 
L 317.647683 114.922365 
L 318.963566 114.679998 
L 320.279448 114.638604 
L 321.595331 114.054867 
L 322.911213 113.317882 
L 324.227096 113.062684 
L 325.542978 112.471664 
L 329.490626 112.216288 
L 330.806509 112.308006 
L 332.122391 112.28679 
L 333.438274 111.834343 
L 334.754156 111.502073 
L 336.070039 110.515869 
L 338.701804 110.162153 
L 340.017687 109.566971 
L 341.333569 109.327238 
L 342.649452 108.630223 
L 346.597099 107.890218 
L 347.912982 107.525763 
L 349.228865 107.296064 
L 350.544747 106.675887 
L 351.86063 106.871566 
L 353.176512 109.35627 
L 354.492395 112.407411 
L 355.808277 107.382426 
L 357.12416 107.530907 
L 358.440042 107.93244 
L 361.071808 109.34465 
L 363.703573 109.34465 
L 365.019455 111.28238 
L 366.335338 111.691039 
L 367.65122 111.868666 
L 370.282985 109.703153 
L 372.914751 109.703153 
L 374.230633 105.724944 
L 375.546516 103.701248 
L 376.862398 101.257515 
L 378.178281 99.286967 
L 379.494163 96.740385 
L 382.125929 96.740385 
L 383.441811 91.47261 
L 384.757694 90.213869 
L 386.073576 87.621928 
L 388.705341 83.942681 
L 391.337106 83.942681 
L 392.652989 79.643209 
L 393.968872 78.441433 
L 395.284754 76.520991 
L 396.600637 74.894516 
L 397.916519 72.966043 
L 400.548284 72.966043 
L 401.864167 69.059691 
L 404.495932 66.872037 
L 405.811815 65.524225 
L 407.127697 64.741954 
L 409.759462 64.741954 
L 411.075345 63.468697 
L 412.391227 63.420611 
L 413.70711 63.03054 
L 415.022993 62.835724 
L 418.97064 62.783123 
L 420.286523 64.034055 
L 421.602405 64.075367 
L 422.918288 64.595152 
L 425.550053 66.425622 
L 428.181818 66.425622 
L 429.497701 67.985637 
L 430.813583 68.517237 
L 434.761231 70.938055 
L 437.392996 70.938055 
L 438.708879 72.389141 
L 440.024761 72.547371 
L 441.340644 73.177767 
L 443.972409 73.778354 
L 446.604174 73.778354 
L 447.920057 74.312298 
L 449.235939 74.560604 
L 451.867704 74.642957 
L 455.815352 74.602868 
L 457.131235 74.026704 
L 462.394765 72.91332 
L 465.02653 72.91332 
L 466.342412 72.451935 
L 467.658295 72.447476 
L 468.974178 72.182841 
L 470.29006 72.17457 
L 471.605943 72.498086 
L 474.237708 72.498086 
L 475.55359 72.86231 
L 476.869473 72.860273 
L 478.185356 73.164771 
L 479.501238 73.248141 
L 480.817121 75.79213 
L 486.080651 75.787797 
L 487.396533 75.547705 
L 488.712416 75.859772 
L 492.660064 75.859772 
L 493.975946 76.124567 
L 495.291829 76.237039 
L 496.607711 76.635178 
L 497.923594 76.910161 
L 499.239476 74.903266 
L 501.871242 74.903266 
L 503.187124 76.858881 
L 504.503007 77.656952 
L 507.134772 80.176965 
L 508.450654 80.875745 
L 511.08242 80.875745 
L 512.398302 82.547486 
L 513.714185 83.133064 
L 517.661832 83.945881 
L 520.293597 83.945881 
L 522.925363 84.778227 
L 525.557128 85.963976 
L 526.87301 86.259793 
L 529.504775 86.259793 
L 530.820658 86.954049 
L 532.136541 87.284935 
L 533.452423 87.863799 
L 534.768306 87.772639 
L 536.084188 88.236925 
L 538.715953 88.236925 
L 540.031836 88.957014 
L 542.663601 89.664942 
L 545.295366 90.868071 
L 547.927131 90.868071 
L 549.243014 92.287518 
L 550.558896 92.833314 
L 551.874779 93.522508 
L 553.190661 93.801956 
L 554.506544 94.287398 
L 559.770074 94.234325 
L 561.085957 94.044804 
L 562.401839 94.149798 
L 565.033605 94.057365 
L 566.349487 94.057365 
L 567.66537 93.826683 
L 568.981252 93.828746 
L 570.297135 94.078322 
L 571.613017 93.965498 
L 572.9289 93.642216 
L 575.560665 93.642216 
L 578.19243 92.787065 
L 579.508313 92.280075 
L 580.824195 91.938027 
L 582.140078 91.737559 
L 584.771843 91.737559 
L 586.087726 90.992164 
L 587.403608 90.890095 
L 591.351256 89.097755 
L 593.983021 89.097755 
L 596.614786 87.830586 
L 600.562434 87.830586 
L 600.562434 87.830586 
" style="fill:none;stroke:#8eba42;stroke-linecap:square;stroke-opacity:0.4;stroke-width:2;"/>
   </g>
   <g id="line2d_109">
    <defs>
     <path d="M 0 3 
C 0.795609 3 1.55874 2.683901 2.12132 2.12132 
C 2.683901 1.55874 3 0.795609 3 0 
C 3 -0.795609 2.683901 -1.55874 2.12132 -2.12132 
C 1.55874 -2.683901 0.795609 -3 0 -3 
C -0.795609 -3 -1.55874 -2.683901 -2.12132 -2.12132 
C -2.683901 -1.55874 -3 -0.795609 -3 0 
C -3 0.795609 -2.683901 1.55874 -2.12132 2.12132 
C -1.55874 2.683901 -0.795609 3 0 3 
z
" id="m224fbe9755" style="stroke:#8eba42;stroke-opacity:0.4;"/>
    </defs>
    <g clip-path="url(#pc67f6b0e12)">
     <use style="fill:#8eba42;fill-opacity:0.4;stroke:#8eba42;stroke-opacity:0.4;" x="600.562434" xlink:href="#m224fbe9755" y="87.830586"/>
    </g>
   </g>
   <g id="line2d_110">
    <path clip-path="url(#pc67f6b0e12)" d="M 45.259993 257.522048 
L 46.575875 257.522048 
L 47.891758 254.789267 
L 49.207641 254.789267 
L 50.523523 265.178711 
L 51.839406 254.789267 
L 53.155288 254.789267 
L 54.471171 257.522048 
L 55.787053 254.789267 
L 57.102936 260.866702 
L 59.734701 260.866702 
L 61.050584 281.64559 
L 62.366466 271.256146 
L 70.261762 271.256146 
L 71.577644 281.64559 
L 72.893527 281.64559 
L 72.899323 433 
M 75.5191 433 
L 75.525292 271.256146 
L 82.104705 271.256146 
L 83.420587 265.178711 
L 84.73647 281.64559 
L 86.052352 248.711832 
L 87.368235 240.087814 
L 88.684117 226.7332 
L 90 220.784425 
L 91.315883 214.033223 
L 92.631765 204.933009 
L 93.947648 200.80159 
L 95.26353 192.688653 
L 96.579413 188.890942 
L 97.895295 187.370307 
L 99.211178 183.282434 
L 100.52706 177.518762 
L 101.842943 173.041922 
L 103.158826 167.8527 
L 104.474708 163.929485 
L 105.790591 163.257893 
L 107.106473 157.012571 
L 109.738238 146.89714 
L 112.370004 134.941647 
L 113.685886 131.078743 
L 115.001769 126.307219 
L 116.317651 122.278502 
L 117.633534 119.397438 
L 118.949416 116.820494 
L 120.265299 113.791641 
L 122.897064 109.233123 
L 125.528829 106.366505 
L 126.844712 104.521957 
L 128.160594 102.443535 
L 129.476477 101.119602 
L 132.108242 98.95821 
L 133.424125 98.143251 
L 134.740007 97.485504 
L 136.05589 97.180693 
L 137.371772 97.252078 
L 140.003537 96.860053 
L 145.267068 97.702053 
L 147.898833 98.543115 
L 151.84648 98.823402 
L 153.162363 98.605877 
L 154.478245 98.820832 
L 157.110011 98.304153 
L 158.425893 98.355584 
L 159.741776 98.17609 
L 161.057658 98.146792 
L 162.373541 98.596118 
L 165.005306 98.87885 
L 166.321189 99.212652 
L 167.637071 99.012322 
L 170.268836 99.419786 
L 172.900601 99.393374 
L 175.532366 99.685779 
L 176.848249 100.347839 
L 178.164132 100.53431 
L 180.795897 101.428648 
L 182.111779 101.571736 
L 183.427662 101.953568 
L 184.743544 102.009011 
L 187.37531 102.298783 
L 188.691192 102.346911 
L 190.007075 102.051526 
L 191.322957 102.234663 
L 192.63884 102.018927 
L 195.270605 102.22081 
L 196.586487 102.512618 
L 197.90237 102.348728 
L 199.218253 102.708566 
L 200.534135 102.842118 
L 203.1659 103.612083 
L 204.481783 103.527299 
L 205.797665 103.268668 
L 208.42943 103.506307 
L 211.061196 103.184384 
L 212.377078 103.252606 
L 213.692961 103.158716 
L 215.008843 103.410512 
L 216.324726 103.520885 
L 217.640608 103.500005 
L 218.956491 103.825688 
L 221.588256 103.538272 
L 222.904139 103.593674 
L 224.220021 103.178721 
L 225.535904 103.074745 
L 226.851786 102.857251 
L 232.115317 100.710092 
L 234.747082 99.613954 
L 237.378847 97.691323 
L 238.694729 97.086061 
L 243.95826 94.000509 
L 246.590025 93.020144 
L 249.22179 91.449594 
L 251.853555 91.007616 
L 253.169438 90.563693 
L 254.48532 90.485375 
L 255.801203 89.88117 
L 258.432968 89.302543 
L 261.064733 88.108325 
L 262.380615 87.826744 
L 263.696498 87.263509 
L 266.328263 86.735114 
L 267.644146 86.292035 
L 270.275911 86.07323 
L 272.907676 85.905655 
L 274.223559 86.018622 
L 275.539441 85.939993 
L 276.855324 86.178005 
L 279.487089 86.066578 
L 282.118854 86.423989 
L 284.750619 86.317552 
L 286.066502 86.349986 
L 287.382384 86.502114 
L 290.014149 87.114397 
L 291.330032 87.508217 
L 292.645914 87.782881 
L 293.961797 88.426248 
L 296.593562 89.103414 
L 299.225327 89.177043 
L 300.54121 89.09393 
L 301.857092 89.527025 
L 303.172975 89.462145 
L 304.488857 89.791422 
L 305.80474 89.5433 
L 308.436505 90.114134 
L 309.752388 90.584581 
L 311.06827 90.714348 
L 313.700035 91.443401 
L 315.015918 92.230468 
L 317.647683 92.664382 
L 318.963566 92.665435 
L 320.279448 92.911399 
L 321.595331 93.013677 
L 322.911213 92.942673 
L 325.542978 93.05216 
L 329.490626 93.023584 
L 330.806509 93.248835 
L 332.122391 93.303038 
L 333.438274 93.122238 
L 334.754156 93.10643 
L 336.070039 93.266776 
L 337.385921 93.906757 
L 338.701804 94.704257 
L 341.333569 95.598504 
L 343.965334 95.882314 
L 345.281217 95.697912 
L 347.912982 94.348534 
L 349.228865 94.069944 
L 350.544747 93.579647 
L 354.492395 93.229196 
L 355.808277 92.339271 
L 361.071808 92.273093 
L 362.38769 92.151731 
L 363.703573 92.193452 
L 365.019455 93.134958 
L 366.335338 92.951409 
L 368.967103 93.007213 
L 370.282985 92.673308 
L 371.598868 92.476666 
L 372.914751 92.564901 
L 374.230633 92.258741 
L 375.546516 92.17214 
L 378.178281 91.024368 
L 379.494163 90.957115 
L 380.810046 90.675094 
L 382.125929 90.236635 
L 383.441811 90.134361 
L 387.389459 89.230649 
L 388.705341 88.728413 
L 391.337106 88.529224 
L 392.652989 87.574824 
L 393.968872 87.231411 
L 395.284754 87.110485 
L 397.916519 86.295706 
L 399.232402 85.464252 
L 400.548284 85.073647 
L 401.864167 85.084315 
L 407.127697 83.291607 
L 408.44358 83.105528 
L 409.759462 82.012159 
L 411.075345 81.578021 
L 412.391227 80.419883 
L 413.70711 79.872089 
L 415.022993 79.076629 
L 416.338875 78.503141 
L 417.654758 77.788866 
L 418.97064 77.598826 
L 420.286523 76.965337 
L 421.602405 76.731774 
L 422.918288 76.021245 
L 424.23417 75.446465 
L 425.550053 74.636108 
L 426.865936 74.039028 
L 428.181818 73.73814 
L 429.497701 73.148989 
L 434.761231 71.911661 
L 441.340644 71.233256 
L 442.656526 72.215315 
L 443.972409 72.089165 
L 445.288291 72.393882 
L 447.920057 72.661038 
L 450.551822 72.24494 
L 451.867704 70.880381 
L 453.183587 70.594829 
L 454.499469 69.920129 
L 457.131235 69.116851 
L 458.447117 68.743604 
L 459.763 68.541913 
L 465.02653 68.30585 
L 466.342412 68.317196 
L 467.658295 68.459976 
L 468.974178 68.22146 
L 471.605943 68.025263 
L 472.921825 68.274259 
L 476.869473 68.340476 
L 478.185356 68.510441 
L 479.501238 68.972896 
L 480.817121 70.656521 
L 482.133003 70.264399 
L 484.764768 70.91449 
L 487.396533 70.841872 
L 488.712416 70.365568 
L 490.028299 69.745595 
L 491.344181 68.961209 
L 492.660064 68.423362 
L 493.975946 68.32769 
L 495.291829 67.987037 
L 496.607711 67.778287 
L 497.923594 67.37868 
L 499.239476 66.135194 
L 500.555359 66.461161 
L 501.871242 66.421704 
L 503.187124 66.156978 
L 504.503007 66.226358 
L 505.818889 66.443054 
L 508.450654 67.276006 
L 509.766537 67.849102 
L 511.08242 68.192651 
L 512.398302 68.910901 
L 517.661832 71.018279 
L 518.977715 71.389724 
L 520.293597 71.967722 
L 521.60948 71.860011 
L 528.188893 73.667666 
L 530.820658 74.181824 
L 533.452423 75.145054 
L 534.768306 75.868451 
L 536.084188 76.40316 
L 537.400071 77.067099 
L 538.715953 77.468389 
L 540.031836 78.306831 
L 541.347718 78.690903 
L 542.663601 79.222647 
L 543.979484 79.600058 
L 545.295366 80.347105 
L 546.611249 80.723574 
L 547.927131 81.291054 
L 550.558896 83.006267 
L 551.874779 83.680087 
L 553.190661 84.709584 
L 555.822427 85.798478 
L 557.138309 86.053317 
L 558.454192 85.98802 
L 559.770074 85.685044 
L 562.401839 85.295676 
L 563.717722 85.377646 
L 566.349487 85.781777 
L 567.66537 85.696849 
L 568.981252 86.183827 
L 571.613017 86.747473 
L 572.9289 87.107336 
L 574.244782 87.323347 
L 575.560665 87.68838 
L 576.876548 88.19681 
L 578.19243 88.172494 
L 579.508313 88.520324 
L 583.45596 89.132379 
L 584.771843 89.241457 
L 586.087726 88.784305 
L 587.403608 88.935366 
L 588.719491 88.89508 
L 591.351256 88.965966 
L 592.667138 88.885103 
L 596.614786 89.342977 
L 600.562434 89.342977 
L 600.562434 89.342977 
" style="fill:none;stroke:#ffb5b8;stroke-linecap:square;stroke-opacity:0.4;stroke-width:2;"/>
   </g>
   <g id="line2d_111">
    <defs>
     <path d="M 0 3 
C 0.795609 3 1.55874 2.683901 2.12132 2.12132 
C 2.683901 1.55874 3 0.795609 3 0 
C 3 -0.795609 2.683901 -1.55874 2.12132 -2.12132 
C 1.55874 -2.683901 0.795609 -3 0 -3 
C -0.795609 -3 -1.55874 -2.683901 -2.12132 -2.12132 
C -2.683901 -1.55874 -3 -0.795609 -3 0 
C -3 0.795609 -2.683901 1.55874 -2.12132 2.12132 
C -1.55874 2.683901 -0.795609 3 0 3 
z
" id="mae35694533" style="stroke:#ffb5b8;stroke-opacity:0.4;"/>
    </defs>
    <g clip-path="url(#pc67f6b0e12)">
     <use style="fill:#ffb5b8;fill-opacity:0.4;stroke:#ffb5b8;stroke-opacity:0.4;" x="600.562434" xlink:href="#mae35694533" y="89.342977"/>
    </g>
   </g>
   <g id="patch_3">
    <path d="M 90 200.094545 
L 90 51.84 
" style="fill:none;stroke:#ffffff;stroke-linecap:square;stroke-linejoin:miter;"/>
   </g>
   <g id="patch_4">
    <path d="M 648 200.094545 
L 648 51.84 
" style="fill:none;stroke:#ffffff;stroke-linecap:square;stroke-linejoin:miter;"/>
   </g>
   <g id="patch_5">
    <path d="M 90 200.094545 
L 648 200.094545 
" style="fill:none;stroke:#ffffff;stroke-linecap:square;stroke-linejoin:miter;"/>
   </g>
   <g id="patch_6">
    <path d="M 90 51.84 
L 648 51.84 
" style="fill:none;stroke:#ffffff;stroke-linecap:square;stroke-linejoin:miter;"/>
   </g>
   <g id="text_22">
    <text style="font-family:DejaVu Sans;font-size:10px;font-stretch:normal;font-style:normal;font-weight:normal;text-anchor:start;" transform="rotate(-0, 620.300672, 133.769827)" x="620.300672" y="133.769827">Korea, South</text>
   </g>
   <g id="text_23">
    <text style="font-family:DejaVu Sans;font-size:10px;font-stretch:normal;font-style:normal;font-weight:normal;text-anchor:start;" transform="rotate(-0, 607.141846, 89.143332)" x="607.141846" y="89.143332">Germany</text>
   </g>
   <g id="text_24">
    <text style="font-family:DejaVu Sans;font-size:10px;font-stretch:normal;font-style:normal;font-weight:normal;text-anchor:start;" transform="rotate(-0, 593.983021, 180.245317)" x="593.983021" y="180.245317">Australia</text>
   </g>
   <g id="text_25">
    <text style="font-family:DejaVu Sans;font-size:10px;font-stretch:normal;font-style:normal;font-weight:normal;text-anchor:start;" transform="rotate(-0, 590.035373, 69.794595)" x="590.035373" y="69.794595">Poland</text>
   </g>
   <g id="text_26">
    <text style="font-family:DejaVu Sans;font-size:10px;font-stretch:normal;font-style:normal;font-weight:normal;text-anchor:start;" transform="rotate(-0, 568.981252, 93.102839)" x="568.981252" y="93.102839">Belarus</text>
   </g>
   <g id="text_27">
    <text style="font-family:DejaVu Sans;font-size:10px;font-stretch:normal;font-style:normal;font-weight:normal;text-anchor:start;" transform="rotate(-0, 603.194199, 87.830586)" x="603.194199" y="87.830586">Switzerland</text>
   </g>
   <g id="text_28">
    <text style="font-family:DejaVu Sans;font-size:10px;font-stretch:normal;font-style:normal;font-weight:normal;text-anchor:start;" transform="rotate(-0, 603.194199, 89.342977)" x="603.194199" y="89.342977">US</text>
   </g>
  </g>
 </g>
 <defs>
  <clipPath id="pc67f6b0e12">
   <rect height="148.254545" width="558" x="90" y="51.84"/>
  </clipPath>
 </defs>
</svg>
